<?plantuml 1.2026.2?><svg xmlns="http://www.w3.org/2000/svg" xmlns:xlink="http://www.w3.org/1999/xlink" contentStyleType="text/css" data-diagram-type="MINDMAP" height="473px" preserveAspectRatio="none" style="width:1186px;height:473px;background:#FFFFFF;" version="1.1" viewBox="0 0 1186 473" width="1186px" zoomAndPan="magnify"><defs/><g><rect fill="#FF5F46" height="52.9766" rx="12.5" ry="12.5" style="stroke:#FF5F46;stroke-width:3;" width="122.7988" x="523.4004" y="209.4648"/><text fill="#FFFFFF" font-family="sans-serif" font-size="14" lengthAdjust="spacing" textLength="83.6719" x="533.4004" y="233">Apache Hive</text><text fill="#FFFFFF" font-family="sans-serif" font-size="14" lengthAdjust="spacing" textLength="102.7988" x="533.4004" y="249.4883">Query Lifecycle</text><rect fill="#0078D4" height="36.4883" rx="12.5" ry="12.5" style="stroke:#0078D4;stroke-width:3;" width="149.2949" x="696.1992" y="20"/><text fill="#FFFFFF" font-family="sans-serif" font-size="14" lengthAdjust="spacing" textLength="129.2949" x="706.1992" y="43.5352">Step 1: Submission</text><text fill="#000000" font-family="sans-serif" font-size="14" lengthAdjust="spacing" textLength="180.2705" x="898.4941" y="34.291">User / service sends query</text><path d="M845.4941,38.2441 L855.4941,38.2441 C870.4941,38.2441 870.4941,29 885.4941,29 L895.4941,29" fill="none" style="stroke:#0078D4;stroke-width:3;"/><text fill="#000000" font-family="sans-serif" font-size="14" lengthAdjust="spacing" textLength="155.5176" x="898.4941" y="52.7793">Cluster / SQL endpoint</text><path d="M845.4941,38.2441 L855.4941,38.2441 C870.4941,38.2441 870.4941,47.4883 885.4941,47.4883 L895.4941,47.4883" fill="none" style="stroke:#0078D4;stroke-width:3;"/><path d="M646.1992,235.9531 L656.1992,235.9531 C671.1992,235.9531 671.1992,38.2441 686.1992,38.2441 L696.1992,38.2441" fill="none" style="stroke:#FF5F46;stroke-width:3;"/><rect fill="#0078D4" height="36.4883" rx="12.5" ry="12.5" style="stroke:#0078D4;stroke-width:3;" width="163.5615" x="696.1992" y="76.4883"/><text fill="#FFFFFF" font-family="sans-serif" font-size="14" lengthAdjust="spacing" textLength="143.5615" x="706.1992" y="100.0234">Step 2: Access Check</text><text fill="#000000" font-family="sans-serif" font-size="14" lengthAdjust="spacing" textLength="145.1406" x="912.7607" y="100.0234">Table ACLs evaluated</text><path d="M859.7607,94.7324 L869.7607,94.7324 C884.7607,94.7324 884.7607,94.7324 899.7607,94.7324 L909.7607,94.7324" fill="none" style="stroke:#0078D4;stroke-width:3;"/><path d="M646.1992,235.9531 L656.1992,235.9531 C671.1992,235.9531 671.1992,94.7324 686.1992,94.7324 L696.1992,94.7324" fill="none" style="stroke:#FF5F46;stroke-width:3;"/><rect fill="#0078D4" height="36.4883" rx="12.5" ry="12.5" style="stroke:#0078D4;stroke-width:3;" width="183.8438" x="696.1992" y="132.9766"/><text fill="#FFFFFF" font-family="sans-serif" font-size="14" lengthAdjust="spacing" textLength="163.8438" x="706.1992" y="156.5117">Step 3: Location Lookup</text><text fill="#000000" font-family="sans-serif" font-size="14" lengthAdjust="spacing" textLength="158.2656" x="933.043" y="147.2676">Hive metastore queried</text><path d="M880.043,151.2207 L890.043,151.2207 C905.043,151.2207 905.043,141.9766 920.043,141.9766 L930.043,141.9766" fill="none" style="stroke:#0078D4;stroke-width:3;"/><text fill="#000000" font-family="sans-serif" font-size="14" lengthAdjust="spacing" textLength="169.6475" x="933.043" y="165.7559">Table metadata retrieved</text><path d="M880.043,151.2207 L890.043,151.2207 C905.043,151.2207 905.043,160.4648 920.043,160.4648 L930.043,160.4648" fill="none" style="stroke:#0078D4;stroke-width:3;"/><path d="M646.1992,235.9531 L656.1992,235.9531 C671.1992,235.9531 671.1992,151.2207 686.1992,151.2207 L696.1992,151.2207" fill="none" style="stroke:#FF5F46;stroke-width:3;"/><rect fill="#0078D4" height="36.4883" rx="12.5" ry="12.5" style="stroke:#0078D4;stroke-width:3;" width="166.959" x="696.1992" y="189.4648"/><text fill="#FFFFFF" font-family="sans-serif" font-size="14" lengthAdjust="spacing" textLength="146.959" x="706.1992" y="213">Step 4: Path Returned</text><text fill="#000000" font-family="sans-serif" font-size="14" lengthAdjust="spacing" textLength="141.292" x="916.1582" y="203.7559">Storage URI returned</text><path d="M863.1582,207.709 L873.1582,207.709 C888.1582,207.709 888.1582,198.4648 903.1582,198.4648 L913.1582,198.4648" fill="none" style="stroke:#0078D4;stroke-width:3;"/><text fill="#000000" font-family="sans-serif" font-size="14" lengthAdjust="spacing" textLength="98.1846" x="916.1582" y="222.2441">e.g. abfss://...</text><path d="M863.1582,207.709 L873.1582,207.709 C888.1582,207.709 888.1582,216.9531 903.1582,216.9531 L913.1582,216.9531" fill="none" style="stroke:#0078D4;stroke-width:3;"/><path d="M646.1992,235.9531 L656.1992,235.9531 C671.1992,235.9531 671.1992,207.709 686.1992,207.709 L696.1992,207.709" fill="none" style="stroke:#FF5F46;stroke-width:3;"/><rect fill="#0078D4" height="36.4883" rx="12.5" ry="12.5" style="stroke:#0078D4;stroke-width:3;" width="161.4697" x="696.1992" y="245.9531"/><text fill="#FFFFFF" font-family="sans-serif" font-size="14" lengthAdjust="spacing" textLength="141.4697" x="706.1992" y="269.4883">Step 5: Data Request</text><text fill="#000000" font-family="sans-serif" font-size="14" lengthAdjust="spacing" textLength="159.6396" x="910.6689" y="260.2441">Authenticate to storage</text><path d="M857.6689,264.1973 L867.6689,264.1973 C882.6689,264.1973 882.6689,254.9531 897.6689,254.9531 L907.6689,254.9531" fill="none" style="stroke:#0078D4;stroke-width:3;"/><text fill="#000000" font-family="sans-serif" font-size="14" lengthAdjust="spacing" textLength="223.2822" x="910.6689" y="278.7324">SP, passthrough, instance profile</text><path d="M857.6689,264.1973 L867.6689,264.1973 C882.6689,264.1973 882.6689,273.4414 897.6689,273.4414 L907.6689,273.4414" fill="none" style="stroke:#0078D4;stroke-width:3;"/><path d="M646.1992,235.9531 L656.1992,235.9531 C671.1992,235.9531 671.1992,264.1973 686.1992,264.1973 L696.1992,264.1973" fill="none" style="stroke:#FF5F46;stroke-width:3;"/><rect fill="#0078D4" height="36.4883" rx="12.5" ry="12.5" style="stroke:#0078D4;stroke-width:3;" width="168.75" x="696.1992" y="302.4414"/><text fill="#FFFFFF" font-family="sans-serif" font-size="14" lengthAdjust="spacing" textLength="148.75" x="706.1992" y="325.9766">Step 6: Data Returned</text><text fill="#000000" font-family="sans-serif" font-size="14" lengthAdjust="spacing" textLength="157.9854" x="917.9492" y="325.9766">Storage sends raw data</text><path d="M864.9492,320.6855 L874.9492,320.6855 C889.9492,320.6855 889.9492,320.6855 904.9492,320.6855 L914.9492,320.6855" fill="none" style="stroke:#0078D4;stroke-width:3;"/><path d="M646.1992,235.9531 L656.1992,235.9531 C671.1992,235.9531 671.1992,320.6855 686.1992,320.6855 L696.1992,320.6855" fill="none" style="stroke:#FF5F46;stroke-width:3;"/><rect fill="#0078D4" height="36.4883" rx="12.5" ry="12.5" style="stroke:#0078D4;stroke-width:3;" width="200.3936" x="696.1992" y="358.9297"/><text fill="#FFFFFF" font-family="sans-serif" font-size="14" lengthAdjust="spacing" textLength="180.3936" x="706.1992" y="382.4648">Step 7: Policy Enforcement</text><text fill="#000000" font-family="sans-serif" font-size="14" lengthAdjust="spacing" textLength="224.6836" x="949.5928" y="382.4648">Cluster applies last-mile filtering</text><path d="M896.5928,377.1738 L906.5928,377.1738 C921.5928,377.1738 921.5928,377.1738 936.5928,377.1738 L946.5928,377.1738" fill="none" style="stroke:#0078D4;stroke-width:3;"/><path d="M646.1992,235.9531 L656.1992,235.9531 C671.1992,235.9531 671.1992,377.1738 686.1992,377.1738 L696.1992,377.1738" fill="none" style="stroke:#FF5F46;stroke-width:3;"/><rect fill="#0078D4" height="36.4883" rx="12.5" ry="12.5" style="stroke:#0078D4;stroke-width:3;" width="172.1885" x="696.1992" y="415.418"/><text fill="#FFFFFF" font-family="sans-serif" font-size="14" lengthAdjust="spacing" textLength="152.1885" x="706.1992" y="438.9531">Step 8: Result Delivery</text><text fill="#000000" font-family="sans-serif" font-size="14" lengthAdjust="spacing" textLength="159.8652" x="921.3877" y="438.9531">Result back to principal</text><path d="M868.3877,433.6621 L878.3877,433.6621 C893.3877,433.6621 893.3877,433.6621 908.3877,433.6621 L918.3877,433.6621" fill="none" style="stroke:#0078D4;stroke-width:3;"/><path d="M646.1992,235.9531 L656.1992,235.9531 C671.1992,235.9531 671.1992,433.6621 686.1992,433.6621 L696.1992,433.6621" fill="none" style="stroke:#FF5F46;stroke-width:3;"/><rect fill="#0078D4" height="36.4883" rx="12.5" ry="12.5" style="stroke:#0078D4;stroke-width:3;" width="139.5811" x="333.8193" y="217.709"/><text fill="#FFFFFF" font-family="sans-serif" font-size="14" lengthAdjust="spacing" textLength="119.5811" x="343.8193" y="241.2441">Differences vs UC</text><text fill="#000000" font-family="sans-serif" font-size="14" lengthAdjust="spacing" textLength="270.8193" x="10" y="213.5117">No centralized fine-grained governance</text><path d="M333.8193,235.9531 L323.8193,235.9531 C308.8193,235.9531 308.8193,208.2207 293.8193,208.2207 L283.8193,208.2207" fill="none" style="stroke:#0078D4;stroke-width:3;"/><text fill="#000000" font-family="sans-serif" font-size="14" lengthAdjust="spacing" textLength="231.7861" x="49.0332" y="232">Manual service accounts &amp; secrets</text><path d="M333.8193,235.9531 L323.8193,235.9531 C308.8193,235.9531 308.8193,226.709 293.8193,226.709 L283.8193,226.709" fill="none" style="stroke:#0078D4;stroke-width:3;"/><text fill="#000000" font-family="sans-serif" font-size="14" lengthAdjust="spacing" textLength="252.7246" x="28.0947" y="250.4883">Mount points or passthrough needed</text><path d="M333.8193,235.9531 L323.8193,235.9531 C308.8193,235.9531 308.8193,245.1973 293.8193,245.1973 L283.8193,245.1973" fill="none" style="stroke:#0078D4;stroke-width:3;"/><text fill="#000000" font-family="sans-serif" font-size="14" lengthAdjust="spacing" textLength="198.7207" x="82.0986" y="268.9766">Less integrated audit logging</text><path d="M333.8193,235.9531 L323.8193,235.9531 C308.8193,235.9531 308.8193,263.6855 293.8193,263.6855 L283.8193,263.6855" fill="none" style="stroke:#0078D4;stroke-width:3;"/><path d="M523.4004,235.9531 L513.4004,235.9531 C498.4004,235.9531 498.4004,235.9531 483.4004,235.9531 L473.4004,235.9531" fill="none" style="stroke:#FF5F46;stroke-width:3;"/><?plantuml-src VLJlRzCm4FsUl-8a90JgccPbluWcjD9IWLJGjcxVa2RNkIHMNJlObqAP-Dyv9ste2iCVckhTtNjtpvTSUHAELifaAr55bvus6jz5QOOLbQ-Ir_0O0P_tGYuBPskJZQss3bvCfwVJaxCcDbC6_qQdrj0MpPlJvTwLIYuDUWzluYJwjTCwVbOhISul9YU7MWVeKzQ33gRD-QCrV5OhpnTla-HGwm3zhrRI7DPQs1ywv3m-ct4vsDhTWr4bP8dmKQtngxcfqMrOAKUvaHgZNW_cX1KSfp2l5olblRA6qTu3t7jqC03-NIk9_3IPXs-XlesFTUsfIPdVp82ZbLM6EiPX2YCfGvVZ4kMohRaJ2uqm6iyyu5heMX1cNSMR56PM2k8E-8zTrbLR53g75PBmP1qsBQYch2CCmKoG08V4iVKUwKaAru9Ak4MgdTcLpPb950Ztjvz2pLu4uo86iSYzJmU3E8uxejCK9a7Y5ha1JstsgAOI3Idk6e4i-9PtAt9z19NmdafUWw8y0cNuZJ3iPULihlRSF-ku_zLawxmJto7Cs1MTysHMAxc13oQtJk8A3Jsz6b5LMg47pTRrLwm8BCi1POgEvY9bMLzhWWbgTdftlLjmmMiS9gkuIAfAwAZVXudAStJ8etXOUxWVCzX_W2yM9FVWX5O_CMCjW_t22NvaK5YcDc7wDlUpCBNGtNO9AVbL8Gyl6P9y9NwR5b1eDii3R_YUds0GC_QgoPk5HUCaP3tUAH1rfWYqBOemwnKxkFiEHSVnC1cUnSFV?></g></svg>