<?plantuml 1.2026.2?><svg xmlns="http://www.w3.org/2000/svg" xmlns:xlink="http://www.w3.org/1999/xlink" contentStyleType="text/css" data-diagram-type="MINDMAP" height="191px" preserveAspectRatio="none" style="width:1136px;height:191px;background:#FFFFFF;" version="1.1" viewBox="0 0 1136 191" width="1136px" zoomAndPan="magnify"><defs/><g><rect fill="#FF5F46" height="52.9766" rx="12.5" ry="12.5" style="stroke:#FF5F46;stroke-width:3;" width="166.3916" x="436.4609" y="68.2441"/><text fill="#FFFFFF" font-family="sans-serif" font-size="14" lengthAdjust="spacing" textLength="146.3916" x="446.4609" y="91.7793">Inherited Permissions</text><text fill="#FFFFFF" font-family="sans-serif" font-size="14" lengthAdjust="spacing" textLength="91.0957" x="446.4609" y="108.2676">From Catalog</text><rect fill="#0078D4" height="36.4883" rx="12.5" ry="12.5" style="stroke:#0078D4;stroke-width:3;" width="128.2197" x="652.8525" y="20"/><text fill="#FFFFFF" font-family="sans-serif" font-size="14" lengthAdjust="spacing" textLength="108.2197" x="662.8525" y="43.5352">Required grants</text><text fill="#000000" font-family="sans-serif" font-size="14" lengthAdjust="spacing" textLength="290.5957" x="834.0723" y="35.291">USE CATALOG + ALL PRIVILEGES or SELECT</text><text fill="#000000" font-family="sans-serif" font-size="14" lengthAdjust="spacing" textLength="70.9639" x="834.0723" y="51.7793">on catalog</text><path d="M781.0723,38.2441 L791.0723,38.2441 C806.0723,38.2441 806.0723,38.2441 821.0723,38.2441 L831.0723,38.2441" fill="none" style="stroke:#0078D4;stroke-width:3;"/><path d="M602.8525,94.7324 L612.8525,94.7324 C627.8525,94.7324 627.8525,38.2441 642.8525,38.2441 L652.8525,38.2441" fill="none" style="stroke:#FF5F46;stroke-width:3;"/><rect fill="#0078D4" height="36.4883" rx="12.5" ry="12.5" style="stroke:#0078D4;stroke-width:3;" width="58.0898" x="652.8525" y="76.4883"/><text fill="#FFFFFF" font-family="sans-serif" font-size="14" lengthAdjust="spacing" textLength="38.0898" x="662.8525" y="100.0234">Effect</text><text fill="#000000" font-family="sans-serif" font-size="14" lengthAdjust="spacing" textLength="243.2568" x="763.9424" y="90.7793">Access to all schemas, tables, views</text><path d="M710.9424,94.7324 L720.9424,94.7324 C735.9424,94.7324 735.9424,85.4883 750.9424,85.4883 L760.9424,85.4883" fill="none" style="stroke:#0078D4;stroke-width:3;"/><text fill="#000000" font-family="sans-serif" font-size="14" lengthAdjust="spacing" textLength="155.5381" x="763.9424" y="109.2676">Includes future objects</text><path d="M710.9424,94.7324 L720.9424,94.7324 C735.9424,94.7324 735.9424,103.9766 750.9424,103.9766 L760.9424,103.9766" fill="none" style="stroke:#0078D4;stroke-width:3;"/><path d="M602.8525,94.7324 L612.8525,94.7324 C627.8525,94.7324 627.8525,94.7324 642.8525,94.7324 L652.8525,94.7324" fill="none" style="stroke:#FF5F46;stroke-width:3;"/><rect fill="#0078D4" height="36.4883" rx="12.5" ry="12.5" style="stroke:#0078D4;stroke-width:3;" width="120.2764" x="652.8525" y="132.9766"/><text fill="#FFFFFF" font-family="sans-serif" font-size="14" lengthAdjust="spacing" textLength="100.2764" x="662.8525" y="156.5117">Characteristics</text><text fill="#000000" font-family="sans-serif" font-size="14" lengthAdjust="spacing" textLength="157.042" x="826.1289" y="138.0234">Most permissive model</text><path d="M773.1289,151.2207 L783.1289,151.2207 C798.1289,151.2207 798.1289,132.7324 813.1289,132.7324 L823.1289,132.7324" fill="none" style="stroke:#0078D4;stroke-width:3;"/><text fill="#000000" font-family="sans-serif" font-size="14" lengthAdjust="spacing" textLength="189.1094" x="826.1289" y="156.5117">Broad access across catalog</text><path d="M773.1289,151.2207 L783.1289,151.2207 C798.1289,151.2207 798.1289,151.2207 813.1289,151.2207 L823.1289,151.2207" fill="none" style="stroke:#0078D4;stroke-width:3;"/><text fill="#000000" font-family="sans-serif" font-size="14" lengthAdjust="spacing" textLength="186.2725" x="826.1289" y="175">Careful assessment needed</text><path d="M773.1289,151.2207 L783.1289,151.2207 C798.1289,151.2207 798.1289,169.709 813.1289,169.709 L823.1289,169.709" fill="none" style="stroke:#0078D4;stroke-width:3;"/><path d="M602.8525,94.7324 L612.8525,94.7324 C627.8525,94.7324 627.8525,151.2207 642.8525,151.2207 L652.8525,151.2207" fill="none" style="stroke:#FF5F46;stroke-width:3;"/><rect fill="#0078D4" height="36.4883" rx="12.5" ry="12.5" style="stroke:#0078D4;stroke-width:3;" width="78.9053" x="307.5557" y="76.4883"/><text fill="#FFFFFF" font-family="sans-serif" font-size="14" lengthAdjust="spacing" textLength="58.9053" x="317.5557" y="100.0234">Use case</text><text fill="#000000" font-family="sans-serif" font-size="14" lengthAdjust="spacing" textLength="244.5557" x="10" y="100.0234">Analysts needing full catalog access</text><path d="M307.5557,94.7324 L297.5557,94.7324 C282.5557,94.7324 282.5557,94.7324 267.5557,94.7324 L257.5557,94.7324" fill="none" style="stroke:#0078D4;stroke-width:3;"/><path d="M436.4609,94.7324 L426.4609,94.7324 C411.4609,94.7324 411.4609,94.7324 396.4609,94.7324 L386.4609,94.7324" fill="none" style="stroke:#FF5F46;stroke-width:3;"/><?plantuml-src VPBHJzim4CRVyrUSnCjGQ0c5iGqXH0a9gfHfY9Oz8I7NlZG6now-2moX_UzpqspLWigzsFhkq_tkitnEB3pNsgfQBADJubU3Pz69mYLNdv9TU8iWr8MGZmll6gjIPvo7dJp_d1yTjxr2MtolvivofvPj_VFEAYqVBHB1uJ29Vlzb7Mnb9ScNhvT7VLPF_NzgRuEyhGrhj9LLblDlIT9dzTGFMKbRWJLtlypAyxRLSRhVFNSC4rkXrumAhj7NcaWxItSszww6LB0mRX75CTpWKwDzS2syi4n1Yk_XTff1EfwDYnzN4CEuAE3wPl9pKcHNsHG2S9eLMJgxiyw2t8pAoX8bhoUCfLnjoWw4CK2ombhG7h2OXmHxyApnfMDDh3IDGeAouSOZkFb3cB9gGbe9BoI76CHQTlxlZXYMNQHdXDefDElMXNT2WLYZXVGk79lzWY4L7il6W20AbXejWqLKgAB106u9Wvimt0SXW1NcbPXQWxQBi5u8qath6D4vXa_UVVJeO3XAHiV3qHy0?></g></svg>