<?plantuml 1.2026.2?><svg xmlns="http://www.w3.org/2000/svg" xmlns:xlink="http://www.w3.org/1999/xlink" contentStyleType="text/css" data-diagram-type="MINDMAP" height="243px" preserveAspectRatio="none" style="width:1023px;height:243px;background:#FFFFFF;" version="1.1" viewBox="0 0 1023 243" width="1023px" zoomAndPan="magnify"><defs/><g><rect fill="#FF5F46" height="52.9766" rx="12.5" ry="12.5" style="stroke:#FF5F46;stroke-width:3;" width="121.0898" x="467.3047" y="94.4414"/><text fill="#FFFFFF" font-family="sans-serif" font-size="14" lengthAdjust="spacing" textLength="101.0898" x="477.3047" y="117.9766">Access Control</text><text fill="#FFFFFF" font-family="sans-serif" font-size="14" lengthAdjust="spacing" textLength="78.5039" x="477.3047" y="134.4648">Lists (ACLs)</text><rect fill="#0078D4" height="36.4883" rx="12.5" ry="12.5" style="stroke:#0078D4;stroke-width:3;" width="84.3193" x="638.3945" y="28.7324"/><text fill="#FFFFFF" font-family="sans-serif" font-size="14" lengthAdjust="spacing" textLength="64.3193" x="648.3945" y="52.2676">Privileges</text><text fill="#000000" font-family="sans-serif" font-size="14" lengthAdjust="spacing" textLength="179.5459" x="775.7139" y="24.5352">SELECT, MODIFY, MANAGE</text><path d="M722.7139,46.9766 L732.7139,46.9766 C747.7139,46.9766 747.7139,19.2441 762.7139,19.2441 L772.7139,19.2441" fill="none" style="stroke:#0078D4;stroke-width:3;"/><text fill="#000000" font-family="sans-serif" font-size="14" lengthAdjust="spacing" textLength="193.2109" x="775.7139" y="43.0234">CREATE TABLE, USE SCHEMA</text><path d="M722.7139,46.9766 L732.7139,46.9766 C747.7139,46.9766 747.7139,37.7324 762.7139,37.7324 L772.7139,37.7324" fill="none" style="stroke:#0078D4;stroke-width:3;"/><text fill="#000000" font-family="sans-serif" font-size="14" lengthAdjust="spacing" textLength="205.9258" x="775.7139" y="61.5117">ALL PRIVILEGES (all applicable)</text><path d="M722.7139,46.9766 L732.7139,46.9766 C747.7139,46.9766 747.7139,56.2207 762.7139,56.2207 L772.7139,56.2207" fill="none" style="stroke:#0078D4;stroke-width:3;"/><text fill="#000000" font-family="sans-serif" font-size="14" lengthAdjust="spacing" textLength="156.4951" x="775.7139" y="80">Object-specific validity</text><path d="M722.7139,46.9766 L732.7139,46.9766 C747.7139,46.9766 747.7139,74.709 762.7139,74.709 L772.7139,74.709" fill="none" style="stroke:#0078D4;stroke-width:3;"/><path d="M588.3945,120.9297 L598.3945,120.9297 C613.3945,120.9297 613.3945,46.9766 628.3945,46.9766 L638.3945,46.9766" fill="none" style="stroke:#FF5F46;stroke-width:3;"/><rect fill="#0078D4" height="36.4883" rx="12.5" ry="12.5" style="stroke:#0078D4;stroke-width:3;" width="92.4541" x="638.3945" y="102.6855"/><text fill="#FFFFFF" font-family="sans-serif" font-size="14" lengthAdjust="spacing" textLength="72.4541" x="648.3945" y="126.2207">Securables</text><text fill="#000000" font-family="sans-serif" font-size="14" lengthAdjust="spacing" textLength="216.8086" x="783.8486" y="98.4883">Metastore &#8594; Catalog &#8594; Schema</text><path d="M730.8486,120.9297 L740.8486,120.9297 C755.8486,120.9297 755.8486,93.1973 770.8486,93.1973 L780.8486,93.1973" fill="none" style="stroke:#0078D4;stroke-width:3;"/><text fill="#000000" font-family="sans-serif" font-size="14" lengthAdjust="spacing" textLength="227.6162" x="783.8486" y="116.9766">Table / View / Function / Volume</text><path d="M730.8486,120.9297 L740.8486,120.9297 C755.8486,120.9297 755.8486,111.6855 770.8486,111.6855 L780.8486,111.6855" fill="none" style="stroke:#0078D4;stroke-width:3;"/><text fill="#000000" font-family="sans-serif" font-size="14" lengthAdjust="spacing" textLength="121.0918" x="783.8486" y="135.4648">External locations</text><path d="M730.8486,120.9297 L740.8486,120.9297 C755.8486,120.9297 755.8486,130.1738 770.8486,130.1738 L780.8486,130.1738" fill="none" style="stroke:#0078D4;stroke-width:3;"/><text fill="#000000" font-family="sans-serif" font-size="14" lengthAdjust="spacing" textLength="160.2344" x="783.8486" y="153.9531">Hierarchical inheritance</text><path d="M730.8486,120.9297 L740.8486,120.9297 C755.8486,120.9297 755.8486,148.6621 770.8486,148.6621 L780.8486,148.6621" fill="none" style="stroke:#0078D4;stroke-width:3;"/><path d="M588.3945,120.9297 L598.3945,120.9297 C613.3945,120.9297 613.3945,120.9297 628.3945,120.9297 L638.3945,120.9297" fill="none" style="stroke:#FF5F46;stroke-width:3;"/><rect fill="#0078D4" height="36.4883" rx="12.5" ry="12.5" style="stroke:#0078D4;stroke-width:3;" width="85.1465" x="638.3945" y="176.6387"/><text fill="#FFFFFF" font-family="sans-serif" font-size="14" lengthAdjust="spacing" textLength="65.1465" x="648.3945" y="200.1738">Principals</text><text fill="#000000" font-family="sans-serif" font-size="14" lengthAdjust="spacing" textLength="211.1895" x="776.541" y="172.4414">User (e.g. alice@company.com)</text><path d="M723.541,194.8828 L733.541,194.8828 C748.541,194.8828 748.541,167.1504 763.541,167.1504 L773.541,167.1504" fill="none" style="stroke:#0078D4;stroke-width:3;"/><text fill="#000000" font-family="sans-serif" font-size="14" lengthAdjust="spacing" textLength="167.6104" x="776.541" y="190.9297">Service Principal (app ID)</text><path d="M723.541,194.8828 L733.541,194.8828 C748.541,194.8828 748.541,185.6387 763.541,185.6387 L773.541,185.6387" fill="none" style="stroke:#0078D4;stroke-width:3;"/><text fill="#000000" font-family="sans-serif" font-size="14" lengthAdjust="spacing" textLength="221.2725" x="776.541" y="209.418">Group (recommended for mgmt)</text><path d="M723.541,194.8828 L733.541,194.8828 C748.541,194.8828 748.541,204.127 763.541,204.127 L773.541,204.127" fill="none" style="stroke:#0078D4;stroke-width:3;"/><text fill="#000000" font-family="sans-serif" font-size="14" lengthAdjust="spacing" textLength="224.1299" x="776.541" y="227.9063">Account users (all account users)</text><path d="M723.541,194.8828 L733.541,194.8828 C748.541,194.8828 748.541,222.6152 763.541,222.6152 L773.541,222.6152" fill="none" style="stroke:#0078D4;stroke-width:3;"/><path d="M588.3945,120.9297 L598.3945,120.9297 C613.3945,120.9297 613.3945,194.8828 628.3945,194.8828 L638.3945,194.8828" fill="none" style="stroke:#FF5F46;stroke-width:3;"/><rect fill="#0078D4" height="36.4883" rx="12.5" ry="12.5" style="stroke:#0078D4;stroke-width:3;" width="152.8701" x="264.4346" y="102.6855"/><text fill="#FFFFFF" font-family="sans-serif" font-size="14" lengthAdjust="spacing" textLength="132.8701" x="274.4346" y="126.2207">Entra ID Integration</text><text fill="#000000" font-family="sans-serif" font-size="14" lengthAdjust="spacing" textLength="160.5488" x="50.8857" y="107.7324">All identities in Entra ID</text><path d="M264.4346,120.9297 L254.4346,120.9297 C239.4346,120.9297 239.4346,102.4414 224.4346,102.4414 L214.4346,102.4414" fill="none" style="stroke:#0078D4;stroke-width:3;"/><text fill="#000000" font-family="sans-serif" font-size="14" lengthAdjust="spacing" textLength="195.3916" x="16.043" y="126.2207">Groups synced to Databricks</text><path d="M264.4346,120.9297 L254.4346,120.9297 C239.4346,120.9297 239.4346,120.9297 224.4346,120.9297 L214.4346,120.9297" fill="none" style="stroke:#0078D4;stroke-width:3;"/><text fill="#000000" font-family="sans-serif" font-size="14" lengthAdjust="spacing" textLength="201.4346" x="10" y="144.709">Coordinate with Entra admins</text><path d="M264.4346,120.9297 L254.4346,120.9297 C239.4346,120.9297 239.4346,139.418 224.4346,139.418 L214.4346,139.418" fill="none" style="stroke:#0078D4;stroke-width:3;"/><path d="M467.3047,120.9297 L457.3047,120.9297 C442.3047,120.9297 442.3047,120.9297 427.3047,120.9297 L417.3047,120.9297" fill="none" style="stroke:#FF5F46;stroke-width:3;"/><?plantuml-src VLFBRjim4BphAnRenOPZHN7Jz86Wi29BYG6v2I8dG8421KsjPJOKAP2q4oFejH_GJ-oNTFL8qhfmzq9fPfQpkoJ7rZ7ZIg7oabNUgNLRYH-z3pbMRjKB-l3e0SKPutU5qMkLHrfg0w-Iv4roVD9mgL3uBvfevJfqsSIpThuI_4wXjV3Q3xplJrv7Uxs2uEsxoV6krmxwzwux5IHDl7YDzdejbultGR3hjOF-rojeWhmM-a7MciUzYjF3Rjm323cljH6fZ9PVL2giiz0BezJslS40hepO28a5MleRV8KiJkDeVW2poyaq-Knh-2ayZrikkex3UGppy2oD3-0cYo6BBk9PsB9XciBLzVHsciRdSGOz9YMmgfA2iuN4VYkwN7n3xeQsGYwMWiE6IP4BjwrBoP2lJQtjIfcXOzPfW_3hnq-8c6DI5yrtnbTOibOrhpFW46u5tjEIh1LtGgiQqN9TOgkA7nmQnIH8pLdDTnuN0WqpdEPEd50hDC8nnR4RZUAYOhBJtbWqq4E_y86gvZZckgoOslgqTkrbQ3R4lAJI6AeAffEEFwShKK7F8AMKg7BCOKadLnQbwnHqNdHh7Ap9p7P3_1FgUyCXn7IOZ7Q5gN9OcAOXmeUKJdgHetB22RJKqREsvPi2BDWjzPY3qp2XiIuCNJlR2YAjJIuKSmZtmgswT9RJGxRUc4f-Uj7UaJyAHYV-w3S0?></g></svg>