<?plantuml 1.2026.2?><svg xmlns="http://www.w3.org/2000/svg" xmlns:xlink="http://www.w3.org/1999/xlink" contentStyleType="text/css" data-diagram-type="MINDMAP" height="304px" preserveAspectRatio="none" style="width:736px;height:304px;background:#FFFFFF;" version="1.1" viewBox="0 0 736 304" width="736px" zoomAndPan="magnify"><defs/><g><rect fill="#FF5F46" height="36.4883" rx="12.5" ry="12.5" style="stroke:#FF5F46;stroke-width:3;" width="131.2754" x="10" y="132.9766"/><text fill="#FFFFFF" font-family="sans-serif" font-size="14" lengthAdjust="spacing" textLength="111.2754" x="20" y="156.5117">Common Pitfalls</text><rect fill="#0078D4" height="36.4883" rx="12.5" ry="12.5" style="stroke:#0078D4;stroke-width:3;" width="234.8125" x="191.2754" y="20"/><text fill="#FFFFFF" font-family="sans-serif" font-size="14" lengthAdjust="spacing" textLength="214.8125" x="201.2754" y="43.5352">Duplicating tables per audience</text><text fill="#000000" font-family="sans-serif" font-size="14" lengthAdjust="spacing" textLength="106.9824" x="479.0879" y="34.291">Sync challenges</text><path d="M426.0879,38.2441 L436.0879,38.2441 C451.0879,38.2441 451.0879,29 466.0879,29 L476.0879,29" fill="none" style="stroke:#0078D4;stroke-width:3;"/><text fill="#000000" font-family="sans-serif" font-size="14" lengthAdjust="spacing" textLength="158.6826" x="479.0879" y="52.7793">Governance complexity</text><path d="M426.0879,38.2441 L436.0879,38.2441 C451.0879,38.2441 451.0879,47.4883 466.0879,47.4883 L476.0879,47.4883" fill="none" style="stroke:#0078D4;stroke-width:3;"/><path d="M141.2754,151.2207 L151.2754,151.2207 C166.2754,151.2207 166.2754,38.2441 181.2754,38.2441 L191.2754,38.2441" fill="none" style="stroke:#FF5F46;stroke-width:3;"/><rect fill="#0078D4" height="36.4883" rx="12.5" ry="12.5" style="stroke:#0078D4;stroke-width:3;" width="223.9297" x="191.2754" y="76.4883"/><text fill="#FFFFFF" font-family="sans-serif" font-size="14" lengthAdjust="spacing" textLength="203.9297" x="201.2754" y="100.0234">Multiple nearly identical views</text><text fill="#000000" font-family="sans-serif" font-size="14" lengthAdjust="spacing" textLength="200.0537" x="468.2051" y="90.7793">Instead of generalizable logic</text><path d="M415.2051,94.7324 L425.2051,94.7324 C440.2051,94.7324 440.2051,85.4883 455.2051,85.4883 L465.2051,85.4883" fill="none" style="stroke:#0078D4;stroke-width:3;"/><text fill="#000000" font-family="sans-serif" font-size="14" lengthAdjust="spacing" textLength="103.2979" x="468.2051" y="109.2676">Harder to audit</text><path d="M415.2051,94.7324 L425.2051,94.7324 C440.2051,94.7324 440.2051,103.9766 455.2051,103.9766 L465.2051,103.9766" fill="none" style="stroke:#0078D4;stroke-width:3;"/><path d="M141.2754,151.2207 L151.2754,151.2207 C166.2754,151.2207 166.2754,94.7324 181.2754,94.7324 L191.2754,94.7324" fill="none" style="stroke:#FF5F46;stroke-width:3;"/><rect fill="#0078D4" height="36.4883" rx="12.5" ry="12.5" style="stroke:#0078D4;stroke-width:3;" width="160.1299" x="191.2754" y="132.9766"/><text fill="#FFFFFF" font-family="sans-serif" font-size="14" lengthAdjust="spacing" textLength="140.1299" x="201.2754" y="156.5117">Logic in wrong place</text><text fill="#000000" font-family="sans-serif" font-size="14" lengthAdjust="spacing" textLength="320.5508" x="404.4053" y="147.2676">Complex transformations in masking functions</text><path d="M351.4053,151.2207 L361.4053,151.2207 C376.4053,151.2207 376.4053,141.9766 391.4053,141.9766 L401.4053,141.9766" fill="none" style="stroke:#0078D4;stroke-width:3;"/><text fill="#000000" font-family="sans-serif" font-size="14" lengthAdjust="spacing" textLength="222.585" x="404.4053" y="165.7559">Business logic belongs upstream</text><path d="M351.4053,151.2207 L361.4053,151.2207 C376.4053,151.2207 376.4053,160.4648 391.4053,160.4648 L401.4053,160.4648" fill="none" style="stroke:#0078D4;stroke-width:3;"/><path d="M141.2754,151.2207 L151.2754,151.2207 C166.2754,151.2207 166.2754,151.2207 181.2754,151.2207 L191.2754,151.2207" fill="none" style="stroke:#FF5F46;stroke-width:3;"/><rect fill="#0078D4" height="36.4883" rx="12.5" ry="12.5" style="stroke:#0078D4;stroke-width:3;" width="221.373" x="191.2754" y="189.4648"/><text fill="#FFFFFF" font-family="sans-serif" font-size="14" lengthAdjust="spacing" textLength="201.373" x="201.2754" y="213">Unsecured masking functions</text><text fill="#000000" font-family="sans-serif" font-size="14" lengthAdjust="spacing" textLength="182.8066" x="465.6484" y="203.7559">Functions can be bypassed</text><path d="M412.6484,207.709 L422.6484,207.709 C437.6484,207.709 437.6484,198.4648 452.6484,198.4648 L462.6484,198.4648" fill="none" style="stroke:#0078D4;stroke-width:3;"/><text fill="#000000" font-family="sans-serif" font-size="14" lengthAdjust="spacing" textLength="256.252" x="465.6484" y="222.2441">Must secure the functions themselves</text><path d="M412.6484,207.709 L422.6484,207.709 C437.6484,207.709 437.6484,216.9531 452.6484,216.9531 L462.6484,216.9531" fill="none" style="stroke:#0078D4;stroke-width:3;"/><path d="M141.2754,151.2207 L151.2754,151.2207 C166.2754,151.2207 166.2754,207.709 181.2754,207.709 L191.2754,207.709" fill="none" style="stroke:#FF5F46;stroke-width:3;"/><rect fill="#0078D4" height="36.4883" rx="12.5" ry="12.5" style="stroke:#0078D4;stroke-width:3;" width="117.3369" x="191.2754" y="245.9531"/><text fill="#FFFFFF" font-family="sans-serif" font-size="14" lengthAdjust="spacing" textLength="97.3369" x="201.2754" y="269.4883">Over-masking</text><text fill="#000000" font-family="sans-serif" font-size="14" lengthAdjust="spacing" textLength="249.4297" x="361.6123" y="260.2441">Removes legitimate analytical access</text><path d="M308.6123,264.1973 L318.6123,264.1973 C333.6123,264.1973 333.6123,254.9531 348.6123,254.9531 L358.6123,254.9531" fill="none" style="stroke:#0078D4;stroke-width:3;"/><text fill="#000000" font-family="sans-serif" font-size="14" lengthAdjust="spacing" textLength="203.4512" x="361.6123" y="278.7324">Balance security with usability</text><path d="M308.6123,264.1973 L318.6123,264.1973 C333.6123,264.1973 333.6123,273.4414 348.6123,273.4414 L358.6123,273.4414" fill="none" style="stroke:#0078D4;stroke-width:3;"/><path d="M141.2754,151.2207 L151.2754,151.2207 C166.2754,151.2207 166.2754,264.1973 181.2754,264.1973 L191.2754,264.1973" fill="none" style="stroke:#FF5F46;stroke-width:3;"/><?plantuml-src VPFTRjGm48NlynGZSGDQiQHBQG5LgEfM0QHM80hNQE9CijRQuyW_kmrLtntRoL8HjCoTnpFdEpEMBvr7wxNaHcDVN3W_AFfGl6-ezvldvGjuA2365OfjPqtWPcsKiV2igjvKfsVvxaOo_Pkj3Fifs-RuK_jz8yMMoJbulIoBnmFhv2YhBC_VNf_EMRFitwep1rME9zRgAAjjwtTbEMVDilzbbJaYgpRtAjKy7AsuU3MjUm5hexLX-2fzYqgvOh60wz0hAT1Bxi1Z7RMW9miO6aaiA9OiViBTm0B49lOGT-J6v4Up8yiOYq0OtIkwbtv8ahT1UHdFm8HM3I0ROXyP2dQIzbFtPtQUi07JGaTC5fNybV2WJ2V5MFC9RHEzU9Fj-AHzasv1CkojYOvxXGUFwz43U8liMcDrdCcmIxKQtJRDrmOMEJbsN0Kdytup4cfIKT91w9stX3hXVh0Z4ImrnpIgmn44SfI0UkZHEMh6wzlWF8mIu3Vqr9rEsf7QvMt2bxZAbnDYxFn6EkutUgDEUXc78K16DOoBH26YyMaCLFaHCYO-0Uobtq1mM4kLNkIIug-RVbvniboLgxFbwZS0?></g></svg>