<?plantuml 1.2026.2?><svg xmlns="http://www.w3.org/2000/svg" xmlns:xlink="http://www.w3.org/1999/xlink" contentStyleType="text/css" data-diagram-type="MINDMAP" height="169px" preserveAspectRatio="none" style="width:1044px;height:169px;background:#FFFFFF;" version="1.1" viewBox="0 0 1044 169" width="1044px" zoomAndPan="magnify"><defs/><g><rect fill="#FF5F46" height="36.4883" rx="12.5" ry="12.5" style="stroke:#FF5F46;stroke-width:3;" width="121.8623" x="460.2295" y="65.709"/><text fill="#FFFFFF" font-family="sans-serif" font-size="14" lengthAdjust="spacing" textLength="101.8623" x="470.2295" y="89.2441">Dynamic Views</text><rect fill="#0078D4" height="36.4883" rx="12.5" ry="12.5" style="stroke:#0078D4;stroke-width:3;" width="108.252" x="632.0918" y="28.7324"/><text fill="#FFFFFF" font-family="sans-serif" font-size="14" lengthAdjust="spacing" textLength="88.252" x="642.0918" y="52.2676">How it works</text><text fill="#000000" font-family="sans-serif" font-size="14" lengthAdjust="spacing" textLength="209.7266" x="793.3438" y="24.5352">View selects from base table(s)</text><path d="M740.3438,46.9766 L750.3438,46.9766 C765.3438,46.9766 765.3438,19.2441 780.3438,19.2441 L790.3438,19.2441" fill="none" style="stroke:#0078D4;stroke-width:3;"/><text fill="#000000" font-family="sans-serif" font-size="14" lengthAdjust="spacing" textLength="206.2949" x="793.3438" y="43.0234">CASE expressions for masking</text><path d="M740.3438,46.9766 L750.3438,46.9766 C765.3438,46.9766 765.3438,37.7324 780.3438,37.7324 L790.3438,37.7324" fill="none" style="stroke:#0078D4;stroke-width:3;"/><text fill="#000000" font-family="sans-serif" font-size="14" lengthAdjust="spacing" textLength="232.3467" x="793.3438" y="61.5117">WHERE predicates for row filtering</text><path d="M740.3438,46.9766 L750.3438,46.9766 C765.3438,46.9766 765.3438,56.2207 780.3438,56.2207 L790.3438,56.2207" fill="none" style="stroke:#0078D4;stroke-width:3;"/><text fill="#000000" font-family="sans-serif" font-size="14" lengthAdjust="spacing" textLength="192.4385" x="793.3438" y="80">View owner has table access</text><path d="M740.3438,46.9766 L750.3438,46.9766 C765.3438,46.9766 765.3438,74.709 780.3438,74.709 L790.3438,74.709" fill="none" style="stroke:#0078D4;stroke-width:3;"/><path d="M582.0918,83.9531 L592.0918,83.9531 C607.0918,83.9531 607.0918,46.9766 622.0918,46.9766 L632.0918,46.9766" fill="none" style="stroke:#FF5F46;stroke-width:3;"/><rect fill="#0078D4" height="36.4883" rx="12.5" ry="12.5" style="stroke:#0078D4;stroke-width:3;" width="120.2764" x="632.0918" y="102.6855"/><text fill="#FFFFFF" font-family="sans-serif" font-size="14" lengthAdjust="spacing" textLength="100.2764" x="642.0918" y="126.2207">Characteristics</text><text fill="#000000" font-family="sans-serif" font-size="14" lengthAdjust="spacing" textLength="227.0625" x="805.3682" y="98.4883">Users isolated from source tables</text><path d="M752.3682,120.9297 L762.3682,120.9297 C777.3682,120.9297 777.3682,93.1973 792.3682,93.1973 L802.3682,93.1973" fill="none" style="stroke:#0078D4;stroke-width:3;"/><text fill="#000000" font-family="sans-serif" font-size="14" lengthAdjust="spacing" textLength="225.0596" x="805.3682" y="116.9766">Multi-table composition possible</text><path d="M752.3682,120.9297 L762.3682,120.9297 C777.3682,120.9297 777.3682,111.6855 792.3682,111.6855 L802.3682,111.6855" fill="none" style="stroke:#0078D4;stroke-width:3;"/><text fill="#000000" font-family="sans-serif" font-size="14" lengthAdjust="spacing" textLength="127.8389" x="805.3682" y="135.4648">Read-only (typical)</text><path d="M752.3682,120.9297 L762.3682,120.9297 C777.3682,120.9297 777.3682,130.1738 792.3682,130.1738 L802.3682,130.1738" fill="none" style="stroke:#0078D4;stroke-width:3;"/><text fill="#000000" font-family="sans-serif" font-size="14" lengthAdjust="spacing" textLength="162.3193" x="805.3682" y="153.9531">Object proliferation risk</text><path d="M752.3682,120.9297 L762.3682,120.9297 C777.3682,120.9297 777.3682,148.6621 792.3682,148.6621 L802.3682,148.6621" fill="none" style="stroke:#0078D4;stroke-width:3;"/><path d="M582.0918,83.9531 L592.0918,83.9531 C607.0918,83.9531 607.0918,120.9297 622.0918,120.9297 L632.0918,120.9297" fill="none" style="stroke:#FF5F46;stroke-width:3;"/><rect fill="#0078D4" height="36.4883" rx="12.5" ry="12.5" style="stroke:#0078D4;stroke-width:3;" width="103.4736" x="306.7559" y="65.709"/><text fill="#FFFFFF" font-family="sans-serif" font-size="14" lengthAdjust="spacing" textLength="83.4736" x="316.7559" y="89.2441">When to use</text><text fill="#000000" font-family="sans-serif" font-size="14" lengthAdjust="spacing" textLength="243.7559" x="10" y="61.5117">Strict producer/consumer boundary</text><path d="M306.7559,83.9531 L296.7559,83.9531 C281.7559,83.9531 281.7559,56.2207 266.7559,56.2207 L256.7559,56.2207" fill="none" style="stroke:#0078D4;stroke-width:3;"/><text fill="#000000" font-family="sans-serif" font-size="14" lengthAdjust="spacing" textLength="185.8555" x="67.9004" y="80">Multi-table logical datasets</text><path d="M306.7559,83.9531 L296.7559,83.9531 C281.7559,83.9531 281.7559,74.709 266.7559,74.709 L256.7559,74.709" fill="none" style="stroke:#0078D4;stroke-width:3;"/><text fill="#000000" font-family="sans-serif" font-size="14" lengthAdjust="spacing" textLength="232.1553" x="21.6006" y="98.4883">Organizational policy requirement</text><path d="M306.7559,83.9531 L296.7559,83.9531 C281.7559,83.9531 281.7559,93.1973 266.7559,93.1973 L256.7559,93.1973" fill="none" style="stroke:#0078D4;stroke-width:3;"/><text fill="#000000" font-family="sans-serif" font-size="14" lengthAdjust="spacing" textLength="170.1807" x="83.5752" y="116.9766">Legacy pattern migration</text><path d="M306.7559,83.9531 L296.7559,83.9531 C281.7559,83.9531 281.7559,111.6855 266.7559,111.6855 L256.7559,111.6855" fill="none" style="stroke:#0078D4;stroke-width:3;"/><path d="M460.2295,83.9531 L450.2295,83.9531 C435.2295,83.9531 435.2295,83.9531 420.2295,83.9531 L410.2295,83.9531" fill="none" style="stroke:#FF5F46;stroke-width:3;"/><?plantuml-src VPDDJzmm48Rl-HKZzR9ebILiAVqGgcYNZJXG8G4jH-GuayIDOwVsH4j0_U-Tn86sgRO-nUF7VbvFv3DFmb6ZJDw8DZhrr6ly67t8iQLgaHp0KmGyFWjPbyvs9jzORHsyIjCtwV79k7Qf3FvRJQsXgLgCuuMzhPIi3NeFhrT9zFFPTRJNbIHltvqVprspwj-dpXAau_ZjMkzr5KNsFadchbdrlwva7EpAx8CUcAUznEdXrEubdFT6D4h2DuKx7osNS65te0XsrjN3V7a_Be57ZP8y5Cusa0cFG2BJkF070Tfykja2FhIEpSeQ1jdO25yhKmRYxc9xlGK6SYK5OI0Ssmgb2TqBD-hipg23IlYW0I4b7ppasrJ22JbiyAJa5F6hH-T1UQlvv3o4zBPpSeevOLywJIeE9qhRjDOhuh307rvnCL3NAFBO6jt3WlgMm-hfZbVPT-u1Ny5gLQ0JurxEKKTn37SL6Y0BdKUUnlTmGqu5EkyakaF9NUaQlbKs_7RX-e3zcKdRSj11BeWxJ3uGLwuKHZsEEbvisIvxSFYZKmuRD1ImIom5rrj1t1m3ZIf3mkWC-OrDxomwMgsJzSbg_Gi0?></g></svg>