<?plantuml 1.2026.2?><svg xmlns="http://www.w3.org/2000/svg" xmlns:xlink="http://www.w3.org/1999/xlink" contentStyleType="text/css" data-diagram-type="MINDMAP" height="191px" preserveAspectRatio="none" style="width:661px;height:191px;background:#FFFFFF;" version="1.1" viewBox="0 0 661 191" width="661px" zoomAndPan="magnify"><defs/><g><rect fill="#FF5F46" height="52.9766" rx="12.5" ry="12.5" style="stroke:#FF5F46;stroke-width:3;" width="135.9648" x="10" y="68.2441"/><text fill="#FFFFFF" font-family="sans-serif" font-size="14" lengthAdjust="spacing" textLength="101.8623" x="20" y="91.7793">Dynamic Views</text><text fill="#FFFFFF" font-family="sans-serif" font-size="14" lengthAdjust="spacing" textLength="115.9648" x="20" y="108.2676">(Implementation)</text><rect fill="#0078D4" height="36.4883" rx="12.5" ry="12.5" style="stroke:#0078D4;stroke-width:3;" width="158.5303" x="195.9648" y="20"/><text fill="#FFFFFF" font-family="sans-serif" font-size="14" lengthAdjust="spacing" textLength="138.5303" x="205.9648" y="43.5352">CREATE VIEW syntax</text><text fill="#000000" font-family="sans-serif" font-size="14" lengthAdjust="spacing" textLength="206.7324" x="407.4951" y="25.0469">SELECT with CASE for masking</text><path d="M354.4951,38.2441 L364.4951,38.2441 C379.4951,38.2441 379.4951,19.7559 394.4951,19.7559 L404.4951,19.7559" fill="none" style="stroke:#0078D4;stroke-width:3;"/><text fill="#000000" font-family="sans-serif" font-size="14" lengthAdjust="spacing" textLength="208.2705" x="407.4951" y="43.5352">WHERE with CASE for row filter</text><path d="M354.4951,38.2441 L364.4951,38.2441 C379.4951,38.2441 379.4951,38.2441 394.4951,38.2441 L404.4951,38.2441" fill="none" style="stroke:#0078D4;stroke-width:3;"/><text fill="#000000" font-family="sans-serif" font-size="14" lengthAdjust="spacing" textLength="241.9922" x="407.4951" y="62.0234">is_account_group_member() checks</text><path d="M354.4951,38.2441 L364.4951,38.2441 C379.4951,38.2441 379.4951,56.7324 394.4951,56.7324 L404.4951,56.7324" fill="none" style="stroke:#0078D4;stroke-width:3;"/><path d="M145.9648,94.7324 L155.9648,94.7324 C170.9648,94.7324 170.9648,38.2441 185.9648,38.2441 L195.9648,38.2441" fill="none" style="stroke:#FF5F46;stroke-width:3;"/><rect fill="#0078D4" height="36.4883" rx="12.5" ry="12.5" style="stroke:#0078D4;stroke-width:3;" width="127.543" x="195.9648" y="76.4883"/><text fill="#FFFFFF" font-family="sans-serif" font-size="14" lengthAdjust="spacing" textLength="107.543" x="205.9648" y="100.0234">Granting access</text><text fill="#000000" font-family="sans-serif" font-size="14" lengthAdjust="spacing" textLength="263.833" x="376.5078" y="91.7793">GRANT SELECT ON VIEW vw_customers</text><text fill="#000000" font-family="sans-serif" font-size="14" lengthAdjust="spacing" textLength="118.3643" x="376.5078" y="108.2676">TO account users</text><path d="M323.5078,94.7324 L333.5078,94.7324 C348.5078,94.7324 348.5078,94.7324 363.5078,94.7324 L373.5078,94.7324" fill="none" style="stroke:#0078D4;stroke-width:3;"/><path d="M145.9648,94.7324 L155.9648,94.7324 C170.9648,94.7324 170.9648,94.7324 185.9648,94.7324 L195.9648,94.7324" fill="none" style="stroke:#FF5F46;stroke-width:3;"/><rect fill="#0078D4" height="36.4883" rx="12.5" ry="12.5" style="stroke:#0078D4;stroke-width:3;" width="120.2764" x="195.9648" y="132.9766"/><text fill="#FFFFFF" font-family="sans-serif" font-size="14" lengthAdjust="spacing" textLength="100.2764" x="205.9648" y="156.5117">Characteristics</text><text fill="#000000" font-family="sans-serif" font-size="14" lengthAdjust="spacing" textLength="148.2031" x="369.2412" y="138.0234">Base table unchanged</text><path d="M316.2412,151.2207 L326.2412,151.2207 C341.2412,151.2207 341.2412,132.7324 356.2412,132.7324 L366.2412,132.7324" fill="none" style="stroke:#0078D4;stroke-width:3;"/><text fill="#000000" font-family="sans-serif" font-size="14" lengthAdjust="spacing" textLength="235.0469" x="369.2412" y="156.5117">Multiple views for different groups</text><path d="M316.2412,151.2207 L326.2412,151.2207 C341.2412,151.2207 341.2412,151.2207 356.2412,151.2207 L366.2412,151.2207" fill="none" style="stroke:#0078D4;stroke-width:3;"/><text fill="#000000" font-family="sans-serif" font-size="14" lengthAdjust="spacing" textLength="243.291" x="369.2412" y="175">Automatic security per user context</text><path d="M316.2412,151.2207 L326.2412,151.2207 C341.2412,151.2207 341.2412,169.709 356.2412,169.709 L366.2412,169.709" fill="none" style="stroke:#0078D4;stroke-width:3;"/><path d="M145.9648,94.7324 L155.9648,94.7324 C170.9648,94.7324 170.9648,151.2207 185.9648,151.2207 L195.9648,151.2207" fill="none" style="stroke:#FF5F46;stroke-width:3;"/><?plantuml-src VP9RQzj048NVzIi6-c9ZS6NdrfOGV9FIG2xWYEGb8DQhaRLOknAxezWcvBztB2ajKN3dySpHV3D7Et4aB6bb4YrAxzBHFiShxrU29MKzlmzl7d3DXDoiRL6PP5xaXOLlONWMdfxNlLjbyAiQ5ePQDQthhpVAbDmOT0vEXhxt_i4Q7MNv_iMFnMcNrL4_J-ri4DRrZpK-oahJrK_Vxx8wwdzPVbtCMXMx_E1vE-gu_Dx6FO35tWYj93mftBeNqxlHPOuQ3GbIXUbxWm7Cby4q2k3f9dW6j-VEZjL138_1RJ2FOAieW_dqCO2K8LguZJBhnl7yErW67OCjjf2gdD0s7kLY8IKdGV4Xa3BMg5TeUtsG6SgDEsnmROKXdWhivCkQ3w-Nq_leOuc7-sQ_rsqiAqU5HilNH0_GpeRAiL9Vamah9EEL8oNRMJFX44YiSeJAo4oODIPDvwxAIN4ay7e8gBuWKMcAbYE2Uk5snBHYAeScmQ6ihA8zb6XhBaZ-1xWZRuBysjiNxus6OtzyFXp_0G00?></g></svg>