<?plantuml 1.2026.2?><svg xmlns="http://www.w3.org/2000/svg" xmlns:xlink="http://www.w3.org/1999/xlink" contentStyleType="text/css" data-diagram-type="MINDMAP" height="304px" preserveAspectRatio="none" style="width:693px;height:304px;background:#FFFFFF;" version="1.1" viewBox="0 0 693 304" width="693px" zoomAndPan="magnify"><defs/><g><rect fill="#FF5F46" height="52.9766" rx="12.5" ry="12.5" style="stroke:#FF5F46;stroke-width:3;" width="166.6377" x="10" y="124.7324"/><text fill="#FFFFFF" font-family="sans-serif" font-size="14" lengthAdjust="spacing" textLength="146.6377" x="20" y="148.2676">Creating AKV-backed</text><text fill="#FFFFFF" font-family="sans-serif" font-size="14" lengthAdjust="spacing" textLength="85.627" x="20" y="164.7559">Secret Scope</text><rect fill="#0078D4" height="36.4883" rx="12.5" ry="12.5" style="stroke:#0078D4;stroke-width:3;" width="107.6982" x="226.6377" y="20"/><text fill="#FFFFFF" font-family="sans-serif" font-size="14" lengthAdjust="spacing" textLength="87.6982" x="236.6377" y="43.5352">Prerequisites</text><text fill="#000000" font-family="sans-serif" font-size="14" lengthAdjust="spacing" textLength="247.0098" x="387.3359" y="34.291">Key Vault: Vault access policy model</text><path d="M334.3359,38.2441 L344.3359,38.2441 C359.3359,38.2441 359.3359,29 374.3359,29 L384.3359,29" fill="none" style="stroke:#0078D4;stroke-width:3;"/><text fill="#000000" font-family="sans-serif" font-size="14" lengthAdjust="spacing" textLength="216.8564" x="387.3359" y="52.7793">Allow trusted Microsoft services</text><path d="M334.3359,38.2441 L344.3359,38.2441 C359.3359,38.2441 359.3359,47.4883 374.3359,47.4883 L384.3359,47.4883" fill="none" style="stroke:#0078D4;stroke-width:3;"/><path d="M176.6377,151.2207 L186.6377,151.2207 C201.6377,151.2207 201.6377,38.2441 216.6377,38.2441 L226.6377,38.2441" fill="none" style="stroke:#FF5F46;stroke-width:3;"/><rect fill="#0078D4" height="36.4883" rx="12.5" ry="12.5" style="stroke:#0078D4;stroke-width:3;" width="107.9648" x="226.6377" y="76.4883"/><text fill="#FFFFFF" font-family="sans-serif" font-size="14" lengthAdjust="spacing" textLength="87.9648" x="236.6377" y="100.0234">Creation URL</text><text fill="#000000" font-family="sans-serif" font-size="14" lengthAdjust="spacing" textLength="294.0205" x="387.6025" y="90.7793">https://&lt;workspace&gt;#secrets/createScope</text><path d="M334.6025,94.7324 L344.6025,94.7324 C359.6025,94.7324 359.6025,85.4883 374.6025,85.4883 L384.6025,85.4883" fill="none" style="stroke:#0078D4;stroke-width:3;"/><text fill="#000000" font-family="sans-serif" font-size="14" lengthAdjust="spacing" textLength="130.04" x="387.6025" y="109.2676">Case-sensitive URL</text><path d="M334.6025,94.7324 L344.6025,94.7324 C359.6025,94.7324 359.6025,103.9766 374.6025,103.9766 L384.6025,103.9766" fill="none" style="stroke:#0078D4;stroke-width:3;"/><path d="M176.6377,151.2207 L186.6377,151.2207 C201.6377,151.2207 201.6377,94.7324 216.6377,94.7324 L226.6377,94.7324" fill="none" style="stroke:#FF5F46;stroke-width:3;"/><rect fill="#0078D4" height="36.4883" rx="12.5" ry="12.5" style="stroke:#0078D4;stroke-width:3;" width="74.4141" x="226.6377" y="132.9766"/><text fill="#FFFFFF" font-family="sans-serif" font-size="14" lengthAdjust="spacing" textLength="54.4141" x="236.6377" y="156.5117">Settings</text><text fill="#000000" font-family="sans-serif" font-size="14" lengthAdjust="spacing" textLength="81.6416" x="354.0518" y="138.0234">Scope name</text><path d="M301.0518,151.2207 L311.0518,151.2207 C326.0518,151.2207 326.0518,132.7324 341.0518,132.7324 L351.0518,132.7324" fill="none" style="stroke:#0078D4;stroke-width:3;"/><text fill="#000000" font-family="sans-serif" font-size="14" lengthAdjust="spacing" textLength="256.6416" x="354.0518" y="156.5117">Manage Principal (creator or all users)</text><path d="M301.0518,151.2207 L311.0518,151.2207 C326.0518,151.2207 326.0518,151.2207 341.0518,151.2207 L351.0518,151.2207" fill="none" style="stroke:#0078D4;stroke-width:3;"/><text fill="#000000" font-family="sans-serif" font-size="14" lengthAdjust="spacing" textLength="174.2891" x="354.0518" y="175">MANAGE permission level</text><path d="M301.0518,151.2207 L311.0518,151.2207 C326.0518,151.2207 326.0518,169.709 341.0518,169.709 L351.0518,169.709" fill="none" style="stroke:#0078D4;stroke-width:3;"/><path d="M176.6377,151.2207 L186.6377,151.2207 C201.6377,151.2207 201.6377,151.2207 216.6377,151.2207 L226.6377,151.2207" fill="none" style="stroke:#FF5F46;stroke-width:3;"/><rect fill="#0078D4" height="36.4883" rx="12.5" ry="12.5" style="stroke:#0078D4;stroke-width:3;" width="168.5928" x="226.6377" y="189.4648"/><text fill="#FFFFFF" font-family="sans-serif" font-size="14" lengthAdjust="spacing" textLength="148.5928" x="236.6377" y="213">Key Vault info needed</text><text fill="#000000" font-family="sans-serif" font-size="14" lengthAdjust="spacing" textLength="71.7432" x="448.2305" y="203.7559">DNS Name</text><path d="M395.2305,207.709 L405.2305,207.709 C420.2305,207.709 420.2305,198.4648 435.2305,198.4648 L445.2305,198.4648" fill="none" style="stroke:#0078D4;stroke-width:3;"/><text fill="#000000" font-family="sans-serif" font-size="14" lengthAdjust="spacing" textLength="80.7256" x="448.2305" y="222.2441">Resource ID</text><path d="M395.2305,207.709 L405.2305,207.709 C420.2305,207.709 420.2305,216.9531 435.2305,216.9531 L445.2305,216.9531" fill="none" style="stroke:#0078D4;stroke-width:3;"/><path d="M176.6377,151.2207 L186.6377,151.2207 C201.6377,151.2207 201.6377,207.709 216.6377,207.709 L226.6377,207.709" fill="none" style="stroke:#FF5F46;stroke-width:3;"/><rect fill="#0078D4" height="36.4883" rx="12.5" ry="12.5" style="stroke:#0078D4;stroke-width:3;" width="103.5352" x="226.6377" y="245.9531"/><text fill="#FFFFFF" font-family="sans-serif" font-size="14" lengthAdjust="spacing" textLength="83.5352" x="236.6377" y="269.4883">Auto-grants</text><text fill="#000000" font-family="sans-serif" font-size="14" lengthAdjust="spacing" textLength="283.3906" x="383.1729" y="260.2441">Databricks SP gets Get + List permissions</text><path d="M330.1729,264.1973 L340.1729,264.1973 C355.1729,264.1973 355.1729,254.9531 370.1729,254.9531 L380.1729,254.9531" fill="none" style="stroke:#0078D4;stroke-width:3;"/><text fill="#000000" font-family="sans-serif" font-size="14" lengthAdjust="spacing" textLength="255.7529" x="383.1729" y="278.7324">Requires KV Contributor / Owner role</text><path d="M330.1729,264.1973 L340.1729,264.1973 C355.1729,264.1973 355.1729,273.4414 370.1729,273.4414 L380.1729,273.4414" fill="none" style="stroke:#0078D4;stroke-width:3;"/><path d="M176.6377,151.2207 L186.6377,151.2207 C201.6377,151.2207 201.6377,264.1973 216.6377,264.1973 L226.6377,264.1973" fill="none" style="stroke:#FF5F46;stroke-width:3;"/><?plantuml-src VPDXQzim48Q_-rSSz4kBIUncNTU6KEebSnbfir9l-JGOidnsH6J9qyb9Gzb_d-muxUQH7GR3wRrxtjEXMxBCs5Aeh6ILDo6xatZZZJEixEeqF8CN3rnyP7nT65shRAgbDd0In-_ZYylsx5ue_3SRQsMxRDx6g_RhIl2rGY9uDmozNmVM-L5M67wucbtqMRtitrrx3k8stbYZewmyJw_3iC_gPV_B2jjmh5G_oqRpSbGn2Rhhzc5ga5cX2eZcoq7gN67sNIN83Lf8kAxGytruD6ZmPor8M2INy7_077UmPBMqu_qF6ESDjD9Iy1sKEaEvLqPIwYrOKvF531u4DvfqRe7GR0Hl-tKkj89lJ_VxgfMr5Os3OBBLPaqLutXpGgqj2dYZneCx9vuomW6XSlx41hicaA1j9kiCjt9GhEng7fXY1RhHXEAYOX9EsxRkdjp7f8JQ6QIpJXmjehjFKA4f1L5ZLEAc7V3j8a2eN8D2p33RLyqM2InUWKz8kZOSuVEigOjggmU5OSfs1cVCijIu1HCaZr2uGU7EBS5tcoVx1veExTn231BCbp1rEpOYhHlt0NpPAZHWj4Jl5jtpwfwOTpuSXQFBuUWt?></g></svg>