<?plantuml 1.2026.2?><svg xmlns="http://www.w3.org/2000/svg" xmlns:xlink="http://www.w3.org/1999/xlink" contentStyleType="text/css" data-diagram-type="MINDMAP" height="265px" preserveAspectRatio="none" style="width:712px;height:265px;background:#FFFFFF;" version="1.1" viewBox="0 0 712 265" width="712px" zoomAndPan="magnify"><defs/><g><rect fill="#FF5F46" height="52.9766" rx="12.5" ry="12.5" style="stroke:#FF5F46;stroke-width:3;" width="145.4805" x="10" y="105.2207"/><text fill="#FFFFFF" font-family="sans-serif" font-size="14" lengthAdjust="spacing" textLength="112.1094" x="20" y="128.7559">Managing Secret</text><text fill="#FFFFFF" font-family="sans-serif" font-size="14" lengthAdjust="spacing" textLength="125.4805" x="20" y="145.2441">Scope Permissions</text><rect fill="#0078D4" height="36.4883" rx="12.5" ry="12.5" style="stroke:#0078D4;stroke-width:3;" width="136.498" x="205.4805" y="20"/><text fill="#FFFFFF" font-family="sans-serif" font-size="14" lengthAdjust="spacing" textLength="116.498" x="215.4805" y="43.5352">Permission levels</text><text fill="#000000" font-family="sans-serif" font-size="14" lengthAdjust="spacing" textLength="143.9102" x="394.9785" y="25.0469">READ: retrieve values</text><path d="M341.9785,38.2441 L351.9785,38.2441 C366.9785,38.2441 366.9785,19.7559 381.9785,19.7559 L391.9785,19.7559" fill="none" style="stroke:#0078D4;stroke-width:3;"/><text fill="#000000" font-family="sans-serif" font-size="14" lengthAdjust="spacing" textLength="305.4229" x="394.9785" y="43.5352">WRITE: add/update (Databricks-backed only)</text><path d="M341.9785,38.2441 L351.9785,38.2441 C366.9785,38.2441 366.9785,38.2441 381.9785,38.2441 L391.9785,38.2441" fill="none" style="stroke:#0078D4;stroke-width:3;"/><text fill="#000000" font-family="sans-serif" font-size="14" lengthAdjust="spacing" textLength="253.0459" x="394.9785" y="62.0234">MANAGE: read + control permissions</text><path d="M341.9785,38.2441 L351.9785,38.2441 C366.9785,38.2441 366.9785,56.7324 381.9785,56.7324 L391.9785,56.7324" fill="none" style="stroke:#0078D4;stroke-width:3;"/><path d="M155.4805,131.709 L165.4805,131.709 C180.4805,131.709 180.4805,38.2441 195.4805,38.2441 L205.4805,38.2441" fill="none" style="stroke:#FF5F46;stroke-width:3;"/><rect fill="#0078D4" height="36.4883" rx="12.5" ry="12.5" style="stroke:#0078D4;stroke-width:3;" width="119.8936" x="205.4805" y="85.2207"/><text fill="#FFFFFF" font-family="sans-serif" font-size="14" lengthAdjust="spacing" textLength="99.8936" x="215.4805" y="108.7559">CLI commands</text><text fill="#000000" font-family="sans-serif" font-size="14" lengthAdjust="spacing" textLength="174.2549" x="378.374" y="81.0234">put-acl: grant permission</text><path d="M325.374,103.4648 L335.374,103.4648 C350.374,103.4648 350.374,75.7324 365.374,75.7324 L375.374,75.7324" fill="none" style="stroke:#0078D4;stroke-width:3;"/><text fill="#000000" font-family="sans-serif" font-size="14" lengthAdjust="spacing" textLength="144.1631" x="378.374" y="99.5117">list-acls: view all acls</text><path d="M325.374,103.4648 L335.374,103.4648 C350.374,103.4648 350.374,94.2207 365.374,94.2207 L375.374,94.2207" fill="none" style="stroke:#0078D4;stroke-width:3;"/><text fill="#000000" font-family="sans-serif" font-size="14" lengthAdjust="spacing" textLength="215.9609" x="378.374" y="118">get-acl: check specific principal</text><path d="M325.374,103.4648 L335.374,103.4648 C350.374,103.4648 350.374,112.709 365.374,112.709 L375.374,112.709" fill="none" style="stroke:#0078D4;stroke-width:3;"/><text fill="#000000" font-family="sans-serif" font-size="14" lengthAdjust="spacing" textLength="176.2236" x="378.374" y="136.4883">delete-acl: remove access</text><path d="M325.374,103.4648 L335.374,103.4648 C350.374,103.4648 350.374,131.1973 365.374,131.1973 L375.374,131.1973" fill="none" style="stroke:#0078D4;stroke-width:3;"/><path d="M155.4805,131.709 L165.4805,131.709 C180.4805,131.709 180.4805,103.4648 195.4805,103.4648 L205.4805,103.4648" fill="none" style="stroke:#FF5F46;stroke-width:3;"/><rect fill="#0078D4" height="36.4883" rx="12.5" ry="12.5" style="stroke:#0078D4;stroke-width:3;" width="174.9023" x="205.4805" y="150.4414"/><text fill="#FFFFFF" font-family="sans-serif" font-size="14" lengthAdjust="spacing" textLength="154.9023" x="215.4805" y="173.9766">Key Vault-backed note</text><text fill="#000000" font-family="sans-serif" font-size="14" lengthAdjust="spacing" textLength="141.6953" x="433.3828" y="164.7324">WRITE not applicable</text><path d="M380.3828,168.6855 L390.3828,168.6855 C405.3828,168.6855 405.3828,159.4414 420.3828,159.4414 L430.3828,159.4414" fill="none" style="stroke:#0078D4;stroke-width:3;"/><text fill="#000000" font-family="sans-serif" font-size="14" lengthAdjust="spacing" textLength="209.3096" x="433.3828" y="183.2207">Manage secrets in AKV directly</text><path d="M380.3828,168.6855 L390.3828,168.6855 C405.3828,168.6855 405.3828,177.9297 420.3828,177.9297 L430.3828,177.9297" fill="none" style="stroke:#0078D4;stroke-width:3;"/><path d="M155.4805,131.709 L165.4805,131.709 C180.4805,131.709 180.4805,168.6855 195.4805,168.6855 L205.4805,168.6855" fill="none" style="stroke:#FF5F46;stroke-width:3;"/><rect fill="#0078D4" height="36.4883" rx="12.5" ry="12.5" style="stroke:#0078D4;stroke-width:3;" width="201.6787" x="205.4805" y="206.9297"/><text fill="#FFFFFF" font-family="sans-serif" font-size="14" lengthAdjust="spacing" textLength="181.6787" x="215.4805" y="230.4648">Premium plan requirement</text><text fill="#000000" font-family="sans-serif" font-size="14" lengthAdjust="spacing" textLength="240.2969" x="460.1592" y="230.4648">Restricting MANAGE to creator only</text><path d="M407.1592,225.1738 L417.1592,225.1738 C432.1592,225.1738 432.1592,225.1738 447.1592,225.1738 L457.1592,225.1738" fill="none" style="stroke:#0078D4;stroke-width:3;"/><path d="M155.4805,131.709 L165.4805,131.709 C180.4805,131.709 180.4805,225.1738 195.4805,225.1738 L205.4805,225.1738" fill="none" style="stroke:#FF5F46;stroke-width:3;"/><?plantuml-src VLDTJnin47o_Nx5INq0dmf5IQ2DKaP9SXO0A0Q8lbQezUtEnicUxjYyqGltlzNtGXglIVTkPiMTtB9_xW2vKIiiARNBcmuRfOpAHPCDoBzk7vmHYVKAnAfsfjRmmR1oyoVDt-V59orqhJV-YkT6XHnTj_T4-B9LOQV8UtewovDUBrz5EhomxVJyx7deDqDUt3YR8s_hhDTxfjLWK7x9iw3L0_-kLjHMz2lEJ6ytpJiNPOHzt2ZUeiLIwX7iIZi8tVI-C9RWbLodlbT4-ITEj5fZMn0sOVeUx-NGsWNZCgOZ26hccdlfwT_amdm1AULXRYO5WRuO12nSty0T5N9ya6CsR_Kv_C_qo_JnlBaC9AOWujJCCzlKS5zUNaQegrBBtiNKuGC4JA1tgiANlQ5Q-vVq4regU09cXQJksfFwmM99OWRSar489i4vfeIno9vF45AXJEgfCN1M5Y14t8rtH1Xwnvl2ob3Q1jZ9eUa1hMGaik6VQr0bycxa7fM5wzGXIEHA1DstYqKZL5LX67Kr_r96hI8S-UF8nSn6QX-kIWs0WNeOXFdGJQt9EyMVrloiv6espySbe_1i0?></g></svg>