<?plantuml 1.2026.2?><svg xmlns="http://www.w3.org/2000/svg" xmlns:xlink="http://www.w3.org/1999/xlink" contentStyleType="text/css" data-diagram-type="MINDMAP" height="217px" preserveAspectRatio="none" style="width:1210px;height:217px;background:#FFFFFF;" version="1.1" viewBox="0 0 1210 217" width="1210px" zoomAndPan="magnify"><defs/><g><rect fill="#FF5F46" height="52.9766" rx="12.5" ry="12.5" style="stroke:#FF5F46;stroke-width:3;" width="136.5938" x="501.8193" y="81.3428"/><text fill="#FFFFFF" font-family="sans-serif" font-size="14" lengthAdjust="spacing" textLength="109.9287" x="511.8193" y="104.8779">Secret Scopes in</text><text fill="#FFFFFF" font-family="sans-serif" font-size="14" lengthAdjust="spacing" textLength="116.5938" x="511.8193" y="121.3662">Azure Databricks</text><rect fill="#0078D4" height="36.4883" rx="12.5" ry="12.5" style="stroke:#0078D4;stroke-width:3;" width="74.5029" x="688.4131" y="20"/><text fill="#FFFFFF" font-family="sans-serif" font-size="14" lengthAdjust="spacing" textLength="54.5029" x="698.4131" y="43.5352">Purpose</text><text fill="#000000" font-family="sans-serif" font-size="14" lengthAdjust="spacing" textLength="114.0645" x="815.916" y="34.291">Organize secrets</text><path d="M762.916,38.2441 L772.916,38.2441 C787.916,38.2441 787.916,29 802.916,29 L812.916,29" fill="none" style="stroke:#0078D4;stroke-width:3;"/><text fill="#000000" font-family="sans-serif" font-size="14" lengthAdjust="spacing" textLength="169.8662" x="815.916" y="52.7793">Control access to secrets</text><path d="M762.916,38.2441 L772.916,38.2441 C787.916,38.2441 787.916,47.4883 802.916,47.4883 L812.916,47.4883" fill="none" style="stroke:#0078D4;stroke-width:3;"/><path d="M638.4131,107.8311 L648.4131,107.8311 C663.4131,107.8311 663.4131,38.2441 678.4131,38.2441 L688.4131,38.2441" fill="none" style="stroke:#FF5F46;stroke-width:3;"/><rect fill="#0078D4" height="36.4883" rx="12.5" ry="12.5" style="stroke:#0078D4;stroke-width:3;" width="199.9561" x="688.4131" y="76.4883"/><text fill="#FFFFFF" font-family="sans-serif" font-size="14" lengthAdjust="spacing" textLength="179.9561" x="698.4131" y="100.0234">Databricks-backed scopes</text><text fill="#000000" font-family="sans-serif" font-size="14" lengthAdjust="spacing" textLength="237.0293" x="941.3691" y="90.7793">Secrets in Databricks encrypted DB</text><path d="M888.3691,94.7324 L898.3691,94.7324 C913.3691,94.7324 913.3691,85.4883 928.3691,85.4883 L938.3691,85.4883" fill="none" style="stroke:#0078D4;stroke-width:3;"/><text fill="#000000" font-family="sans-serif" font-size="14" lengthAdjust="spacing" textLength="148.251" x="941.3691" y="109.2676">Managed via CLI / API</text><path d="M888.3691,94.7324 L898.3691,94.7324 C913.3691,94.7324 913.3691,103.9766 928.3691,103.9766 L938.3691,103.9766" fill="none" style="stroke:#0078D4;stroke-width:3;"/><path d="M638.4131,107.8311 L648.4131,107.8311 C663.4131,107.8311 663.4131,94.7324 678.4131,94.7324 L688.4131,94.7324" fill="none" style="stroke:#FF5F46;stroke-width:3;"/><rect fill="#0078D4" height="36.4883" rx="12.5" ry="12.5" style="stroke:#0078D4;stroke-width:3;" width="235.5645" x="688.4131" y="141.1973"/><text fill="#FFFFFF" font-family="sans-serif" font-size="14" lengthAdjust="spacing" textLength="215.5645" x="698.4131" y="164.7324">Azure Key Vault-backed scopes</text><text fill="#000000" font-family="sans-serif" font-size="14" lengthAdjust="spacing" textLength="184.3721" x="976.9775" y="127.7559">Read-only interface to AKV</text><path d="M923.9775,159.4414 L933.9775,159.4414 C948.9775,159.4414 948.9775,122.4648 963.9775,122.4648 L973.9775,122.4648" fill="none" style="stroke:#0078D4;stroke-width:3;"/><text fill="#000000" font-family="sans-serif" font-size="14" lengthAdjust="spacing" textLength="190.3125" x="976.9775" y="146.2441">Manage secrets in Key Vault</text><path d="M923.9775,159.4414 L933.9775,159.4414 C948.9775,159.4414 948.9775,140.9531 963.9775,140.9531 L973.9775,140.9531" fill="none" style="stroke:#0078D4;stroke-width:3;"/><text fill="#000000" font-family="sans-serif" font-size="14" lengthAdjust="spacing" textLength="205.0781" x="976.9775" y="164.7324">Enterprise security integration</text><path d="M923.9775,159.4414 L933.9775,159.4414 C948.9775,159.4414 948.9775,159.4414 963.9775,159.4414 L973.9775,159.4414" fill="none" style="stroke:#0078D4;stroke-width:3;"/><text fill="#000000" font-family="sans-serif" font-size="14" lengthAdjust="spacing" textLength="187.9678" x="976.9775" y="183.2207">Network restriction support</text><path d="M923.9775,159.4414 L933.9775,159.4414 C948.9775,159.4414 948.9775,177.9297 963.9775,177.9297 L973.9775,177.9297" fill="none" style="stroke:#0078D4;stroke-width:3;"/><text fill="#000000" font-family="sans-serif" font-size="14" lengthAdjust="spacing" textLength="221.4912" x="976.9775" y="201.709">Auto-updated on secret rotation</text><path d="M923.9775,159.4414 L933.9775,159.4414 C948.9775,159.4414 948.9775,196.418 963.9775,196.418 L973.9775,196.418" fill="none" style="stroke:#0078D4;stroke-width:3;"/><path d="M638.4131,107.8311 L648.4131,107.8311 C663.4131,107.8311 663.4131,159.4414 678.4131,159.4414 L688.4131,159.4414" fill="none" style="stroke:#FF5F46;stroke-width:3;"/><rect fill="#0078D4" height="36.4883" rx="12.5" ry="12.5" style="stroke:#0078D4;stroke-width:3;" width="184.999" x="266.8203" y="89.5869"/><text fill="#FFFFFF" font-family="sans-serif" font-size="14" lengthAdjust="spacing" textLength="164.999" x="276.8203" y="113.1221">Preferred for production</text><text fill="#000000" font-family="sans-serif" font-size="14" lengthAdjust="spacing" textLength="177.3789" x="36.4414" y="103.8779">Aligns with Azure security</text><path d="M266.8203,107.8311 L256.8203,107.8311 C241.8203,107.8311 241.8203,98.5869 226.8203,98.5869 L216.8203,98.5869" fill="none" style="stroke:#0078D4;stroke-width:3;"/><text fill="#000000" font-family="sans-serif" font-size="14" lengthAdjust="spacing" textLength="203.8203" x="10" y="122.3662">No cross-system sync needed</text><path d="M266.8203,107.8311 L256.8203,107.8311 C241.8203,107.8311 241.8203,117.0752 226.8203,117.0752 L216.8203,117.0752" fill="none" style="stroke:#0078D4;stroke-width:3;"/><path d="M501.8193,107.8311 L491.8193,107.8311 C476.8193,107.8311 476.8193,107.8311 461.8193,107.8311 L451.8193,107.8311" fill="none" style="stroke:#FF5F46;stroke-width:3;"/><?plantuml-src VPFHRzCm4CRVyrUSn0keIfULCM2QqBgMIDF6g1ZQqoJaEfVKQcfRTmuZc_Q_puxJKGBbdfAxpz_lEqSvOoV8RPGkDi8cf-pQ6Zyb9mLQjtgTlO7717oT2xcko3Iwc9dQ4BpAytVvqN4tkr8Q_-xcHhk-MtRrels-KdAjaHdUZhFaQSiwtClAilSVvaT3rg3xf-iWGTxLRzPaBwiibn-pRCWQTF_BohhohANvLGVDurx5wK5_tIEuGKdeu4OQYmnAt-dfGqC8S-74aZoEaz485WrPm-WVHp_WArL2gmS4xivoxCuyXqmDGie0TsPdlEEMBltcM01tm7WqPWZq7I6WbjHQvxNpywZx8hIe_FjF9M1sTG47C5rS1FiO-H9Rk1LDxVx5-8QYI8skMqznIAMG639EBsztlRUPGvGNkoZu78vPKjo96b8kMbKad38wYgxHtHjQ0o4xlqKO03VM6kfTfeqpQMCB4VOAmtZzP5nqILDO49P8vEUb_sYMJD78VfPwWrfLck5UkLM_zZPDd5yRa6IOKsxPuGQurH8qOe55SeR-P-j_kEHmFCacn-F9Cm00?></g></svg>