<?plantuml 1.2026.2?><svg xmlns="http://www.w3.org/2000/svg" xmlns:xlink="http://www.w3.org/1999/xlink" contentStyleType="text/css" data-diagram-type="MINDMAP" height="274px" preserveAspectRatio="none" style="width:647px;height:274px;background:#FFFFFF;" version="1.1" viewBox="0 0 647 274" width="647px" zoomAndPan="magnify"><defs/><g><rect fill="#FF5F46" height="52.9766" rx="12.5" ry="12.5" style="stroke:#FF5F46;stroke-width:3;" width="144.3662" x="10" y="109.5869"/><text fill="#FFFFFF" font-family="sans-serif" font-size="14" lengthAdjust="spacing" textLength="116.9082" x="20" y="133.1221">Service Principals</text><text fill="#FFFFFF" font-family="sans-serif" font-size="14" lengthAdjust="spacing" textLength="124.3662" x="20" y="149.6104">with Unity Catalog</text><rect fill="#0078D4" height="36.4883" rx="12.5" ry="12.5" style="stroke:#0078D4;stroke-width:3;" width="142.8555" x="204.3662" y="20"/><text fill="#FFFFFF" font-family="sans-serif" font-size="14" lengthAdjust="spacing" textLength="122.8555" x="214.3662" y="43.5352">Storage credential</text><text fill="#000000" font-family="sans-serif" font-size="14" lengthAdjust="spacing" textLength="209.4941" x="400.2217" y="25.0469">Encapsulates SP authentication</text><path d="M347.2217,38.2441 L357.2217,38.2441 C372.2217,38.2441 372.2217,19.7559 387.2217,19.7559 L397.2217,19.7559" fill="none" style="stroke:#0078D4;stroke-width:3;"/><text fill="#000000" font-family="sans-serif" font-size="14" lengthAdjust="spacing" textLength="191.8506" x="400.2217" y="43.5352">Referenced by name in code</text><path d="M347.2217,38.2441 L357.2217,38.2441 C372.2217,38.2441 372.2217,38.2441 387.2217,38.2441 L397.2217,38.2441" fill="none" style="stroke:#0078D4;stroke-width:3;"/><text fill="#000000" font-family="sans-serif" font-size="14" lengthAdjust="spacing" textLength="190.8184" x="400.2217" y="62.0234">No credentials in notebooks</text><path d="M347.2217,38.2441 L357.2217,38.2441 C372.2217,38.2441 372.2217,56.7324 387.2217,56.7324 L397.2217,56.7324" fill="none" style="stroke:#0078D4;stroke-width:3;"/><path d="M154.3662,136.0752 L164.3662,136.0752 C179.3662,136.0752 179.3662,38.2441 194.3662,38.2441 L204.3662,38.2441" fill="none" style="stroke:#FF5F46;stroke-width:3;"/><rect fill="#0078D4" height="36.4883" rx="12.5" ry="12.5" style="stroke:#0078D4;stroke-width:3;" width="83.0684" x="204.3662" y="94.4648"/><text fill="#FFFFFF" font-family="sans-serif" font-size="14" lengthAdjust="spacing" textLength="63.0684" x="214.3662" y="118">Workflow</text><text fill="#000000" font-family="sans-serif" font-size="14" lengthAdjust="spacing" textLength="93.7617" x="340.4346" y="81.0234">Query hits UC</text><path d="M287.4346,112.709 L297.4346,112.709 C312.4346,112.709 312.4346,75.7324 327.4346,75.7324 L337.4346,75.7324" fill="none" style="stroke:#0078D4;stroke-width:3;"/><text fill="#000000" font-family="sans-serif" font-size="14" lengthAdjust="spacing" textLength="157.835" x="340.4346" y="99.5117">UC assumes SP identity</text><path d="M287.4346,112.709 L297.4346,112.709 C312.4346,112.709 312.4346,94.2207 327.4346,94.2207 L337.4346,94.2207" fill="none" style="stroke:#0078D4;stroke-width:3;"/><text fill="#000000" font-family="sans-serif" font-size="14" lengthAdjust="spacing" textLength="239.0732" x="340.4346" y="118">Requests temp token from Entra ID</text><path d="M287.4346,112.709 L297.4346,112.709 C312.4346,112.709 312.4346,112.709 327.4346,112.709 L337.4346,112.709" fill="none" style="stroke:#0078D4;stroke-width:3;"/><text fill="#000000" font-family="sans-serif" font-size="14" lengthAdjust="spacing" textLength="176.0527" x="340.4346" y="136.4883">Token passed to compute</text><path d="M287.4346,112.709 L297.4346,112.709 C312.4346,112.709 312.4346,131.1973 327.4346,131.1973 L337.4346,131.1973" fill="none" style="stroke:#0078D4;stroke-width:3;"/><text fill="#000000" font-family="sans-serif" font-size="14" lengthAdjust="spacing" textLength="180.7969" x="340.4346" y="154.9766">Compute accesses storage</text><path d="M287.4346,112.709 L297.4346,112.709 C312.4346,112.709 312.4346,149.6855 327.4346,149.6855 L337.4346,149.6855" fill="none" style="stroke:#0078D4;stroke-width:3;"/><path d="M154.3662,136.0752 L164.3662,136.0752 C179.3662,136.0752 179.3662,112.709 194.3662,112.709 L204.3662,112.709" fill="none" style="stroke:#FF5F46;stroke-width:3;"/><rect fill="#0078D4" height="36.4883" rx="12.5" ry="12.5" style="stroke:#0078D4;stroke-width:3;" width="73.9082" x="204.3662" y="159.1738"/><text fill="#FFFFFF" font-family="sans-serif" font-size="14" lengthAdjust="spacing" textLength="53.9082" x="214.3662" y="182.709">Benefits</text><text fill="#000000" font-family="sans-serif" font-size="14" lengthAdjust="spacing" textLength="166.2295" x="331.2744" y="173.4648">Audit logs record access</text><path d="M278.2744,177.418 L288.2744,177.418 C303.2744,177.418 303.2744,168.1738 318.2744,168.1738 L328.2744,168.1738" fill="none" style="stroke:#0078D4;stroke-width:3;"/><text fill="#000000" font-family="sans-serif" font-size="14" lengthAdjust="spacing" textLength="182.3828" x="331.2744" y="191.9531">Revoke via UC permissions</text><path d="M278.2744,177.418 L288.2744,177.418 C303.2744,177.418 303.2744,186.6621 318.2744,186.6621 L328.2744,186.6621" fill="none" style="stroke:#0078D4;stroke-width:3;"/><path d="M154.3662,136.0752 L164.3662,136.0752 C179.3662,136.0752 179.3662,177.418 194.3662,177.418 L204.3662,177.418" fill="none" style="stroke:#FF5F46;stroke-width:3;"/><rect fill="#0078D4" height="36.4883" rx="12.5" ry="12.5" style="stroke:#0078D4;stroke-width:3;" width="146.7314" x="204.3662" y="215.6621"/><text fill="#FFFFFF" font-family="sans-serif" font-size="14" lengthAdjust="spacing" textLength="126.7314" x="214.3662" y="239.1973">Note for engineers</text><text fill="#000000" font-family="sans-serif" font-size="14" lengthAdjust="spacing" textLength="231.3281" x="404.0977" y="229.9531">Admins create storage credentials</text><path d="M351.0977,233.9063 L361.0977,233.9063 C376.0977,233.9063 376.0977,224.6621 391.0977,224.6621 L401.0977,224.6621" fill="none" style="stroke:#0078D4;stroke-width:3;"/><text fill="#000000" font-family="sans-serif" font-size="14" lengthAdjust="spacing" textLength="231.5879" x="404.0977" y="248.4414">Engineers use existing credentials</text><path d="M351.0977,233.9063 L361.0977,233.9063 C376.0977,233.9063 376.0977,243.1504 391.0977,243.1504 L401.0977,243.1504" fill="none" style="stroke:#0078D4;stroke-width:3;"/><path d="M154.3662,136.0752 L164.3662,136.0752 C179.3662,136.0752 179.3662,233.9063 194.3662,233.9063 L204.3662,233.9063" fill="none" style="stroke:#FF5F46;stroke-width:3;"/><?plantuml-src VPDTQzL048Rlyoi6l54E7DDZhHyKgKqD25AgxS4RGVRiJf8boMpSdPmsbFvt9r_QHevpbvatyxpxBdiMM7ckBPbQDT5fuAx23z5xWmqNp-CNS1-1rBdIPUvTIoPnbVFmB4rVfySdm-oB9VotcphYgPiDzKTxKrXT4eO0hzPnz32pZWwoulZDsulZ9MlHVRfruI0TwYzhSv2LPRjtSRnaBRh_PSL32MldxgfUStzGSVfoYdi5r-ZtLYDSUKlQDgeAF-ZMSW5Rijn1ebXLBezMecJdLOwWFHeajggIxkedV2Ajcj1MYZ70zHMebej-hXLRHwFc6sReaJGQs7L0gaQm1DeP7EUNxj7QqC_8CUwSAqEF_kvycLNkTXH_RT5tK5WEi4t6rZO15K9RZmxii8YxcVshnI1Ynhe1TYKIPDxLOfozWiyNe-nc63IoHaoo-75rq_BaBna_G6ajoGebZ67qviwHC1Cpe_9ZQoo3H1R0etRUJF_CNlQ2WRrLlUK6VMr3a9I6KrxAaI6JYqBAvRBHpokDl9BG1oGHp-J7USttCFq5RK30EnlOKlv4TuPavXSN7QqtyUPalVaD?></g></svg>