<?plantuml 1.2026.2?><svg xmlns="http://www.w3.org/2000/svg" xmlns:xlink="http://www.w3.org/1999/xlink" contentStyleType="text/css" data-diagram-type="MINDMAP" height="191px" preserveAspectRatio="none" style="width:977px;height:191px;background:#FFFFFF;" version="1.1" viewBox="0 0 977 191" width="977px" zoomAndPan="magnify"><defs/><g><rect fill="#FF5F46" height="52.9766" rx="12.5" ry="12.5" style="stroke:#FF5F46;stroke-width:3;" width="136.9082" x="384.8223" y="68.2441"/><text fill="#FFFFFF" font-family="sans-serif" font-size="14" lengthAdjust="spacing" textLength="116.9082" x="394.8223" y="91.7793">Service Principals</text><text fill="#FFFFFF" font-family="sans-serif" font-size="14" lengthAdjust="spacing" textLength="105.5947" x="394.8223" y="108.2676">for Data Access</text><rect fill="#0078D4" height="36.4883" rx="12.5" ry="12.5" style="stroke:#0078D4;stroke-width:3;" width="82.959" x="571.7305" y="20"/><text fill="#FFFFFF" font-family="sans-serif" font-size="14" lengthAdjust="spacing" textLength="62.959" x="581.7305" y="43.5352">What it is</text><text fill="#000000" font-family="sans-serif" font-size="14" lengthAdjust="spacing" textLength="184.6797" x="707.6895" y="34.291">Identity for apps &amp; services</text><path d="M654.6895,38.2441 L664.6895,38.2441 C679.6895,38.2441 679.6895,29 694.6895,29 L704.6895,29" fill="none" style="stroke:#0078D4;stroke-width:3;"/><text fill="#000000" font-family="sans-serif" font-size="14" lengthAdjust="spacing" textLength="227.1582" x="707.6895" y="52.7793">Automated user account for apps</text><path d="M654.6895,38.2441 L664.6895,38.2441 C679.6895,38.2441 679.6895,47.4883 694.6895,47.4883 L704.6895,47.4883" fill="none" style="stroke:#0078D4;stroke-width:3;"/><path d="M521.7305,94.7324 L531.7305,94.7324 C546.7305,94.7324 546.7305,38.2441 561.7305,38.2441 L571.7305,38.2441" fill="none" style="stroke:#FF5F46;stroke-width:3;"/><rect fill="#0078D4" height="36.4883" rx="12.5" ry="12.5" style="stroke:#0078D4;stroke-width:3;" width="145.7676" x="571.7305" y="76.4883"/><text fill="#FFFFFF" font-family="sans-serif" font-size="14" lengthAdjust="spacing" textLength="125.7676" x="581.7305" y="100.0234">3 Key components</text><text fill="#000000" font-family="sans-serif" font-size="14" lengthAdjust="spacing" textLength="146.3232" x="770.498" y="81.5352">Application (client) ID</text><path d="M717.498,94.7324 L727.498,94.7324 C742.498,94.7324 742.498,76.2441 757.498,76.2441 L767.498,76.2441" fill="none" style="stroke:#0078D4;stroke-width:3;"/><text fill="#000000" font-family="sans-serif" font-size="14" lengthAdjust="spacing" textLength="137.9766" x="770.498" y="100.0234">Directory (tenant) ID</text><path d="M717.498,94.7324 L727.498,94.7324 C742.498,94.7324 742.498,94.7324 757.498,94.7324 L767.498,94.7324" fill="none" style="stroke:#0078D4;stroke-width:3;"/><text fill="#000000" font-family="sans-serif" font-size="14" lengthAdjust="spacing" textLength="195.2617" x="770.498" y="118.5117">Client secret (password-like)</text><path d="M717.498,94.7324 L727.498,94.7324 C742.498,94.7324 742.498,113.2207 757.498,113.2207 L767.498,113.2207" fill="none" style="stroke:#0078D4;stroke-width:3;"/><path d="M521.7305,94.7324 L531.7305,94.7324 C546.7305,94.7324 546.7305,94.7324 561.7305,94.7324 L571.7305,94.7324" fill="none" style="stroke:#FF5F46;stroke-width:3;"/><rect fill="#0078D4" height="36.4883" rx="12.5" ry="12.5" style="stroke:#0078D4;stroke-width:3;" width="98.7705" x="571.7305" y="132.9766"/><text fill="#FFFFFF" font-family="sans-serif" font-size="14" lengthAdjust="spacing" textLength="78.7705" x="581.7305" y="156.5117">Advantages</text><text fill="#000000" font-family="sans-serif" font-size="14" lengthAdjust="spacing" textLength="166.0107" x="723.501" y="138.0234">No manual login needed</text><path d="M670.501,151.2207 L680.501,151.2207 C695.501,151.2207 695.501,132.7324 710.501,132.7324 L720.501,132.7324" fill="none" style="stroke:#0078D4;stroke-width:3;"/><text fill="#000000" font-family="sans-serif" font-size="14" lengthAdjust="spacing" textLength="217.3486" x="723.501" y="156.5117">Consistent across environments</text><path d="M670.501,151.2207 L680.501,151.2207 C695.501,151.2207 695.501,151.2207 710.501,151.2207 L720.501,151.2207" fill="none" style="stroke:#0078D4;stroke-width:3;"/><text fill="#000000" font-family="sans-serif" font-size="14" lengthAdjust="spacing" textLength="148.4971" x="723.501" y="175">Precise access control</text><path d="M670.501,151.2207 L680.501,151.2207 C695.501,151.2207 695.501,169.709 710.501,169.709 L720.501,169.709" fill="none" style="stroke:#0078D4;stroke-width:3;"/><path d="M521.7305,94.7324 L531.7305,94.7324 C546.7305,94.7324 546.7305,151.2207 561.7305,151.2207 L571.7305,151.2207" fill="none" style="stroke:#FF5F46;stroke-width:3;"/><rect fill="#0078D4" height="36.4883" rx="12.5" ry="12.5" style="stroke:#0078D4;stroke-width:3;" width="51.9785" x="282.8438" y="76.4883"/><text fill="#FFFFFF" font-family="sans-serif" font-size="14" lengthAdjust="spacing" textLength="31.9785" x="292.8438" y="100.0234">Note</text><text fill="#000000" font-family="sans-serif" font-size="14" lengthAdjust="spacing" textLength="196.6152" x="33.2285" y="90.7793">Managed identities preferred</text><path d="M282.8438,94.7324 L272.8438,94.7324 C257.8438,94.7324 257.8438,85.4883 242.8438,85.4883 L232.8438,85.4883" fill="none" style="stroke:#0078D4;stroke-width:3;"/><text fill="#000000" font-family="sans-serif" font-size="14" lengthAdjust="spacing" textLength="219.8438" x="10" y="109.2676">SPs useful when MI not available</text><path d="M282.8438,94.7324 L272.8438,94.7324 C257.8438,94.7324 257.8438,103.9766 242.8438,103.9766 L232.8438,103.9766" fill="none" style="stroke:#0078D4;stroke-width:3;"/><path d="M384.8223,94.7324 L374.8223,94.7324 C359.8223,94.7324 359.8223,94.7324 344.8223,94.7324 L334.8223,94.7324" fill="none" style="stroke:#FF5F46;stroke-width:3;"/><?plantuml-src VPDlQzim4CRV-rCS34P2IEQcNVU7Cfer6CBM4UXWRmRb8fqJ4Vaa93bTAFtkEpjEktbaXy7uxj7pEptWwvWmfCgmhj1dLp7jBNtAFchoQJF8X_2OWTHdLDjrS3Nh6sTTW5T5yRQuk6ndNmtJlzt2SUgwPLlFskyRexPCCSBv9C-UZgopawmyV_T-Vj5dzRf_k_OsADfwOKrFiifozI7F-wnUzx-il2rXhTmlssWUJogktdHnZ-2EmiueWcKmh8n76tzoAU8v9eIPKcAKZKRmOuC9Z3pDr-WU5feucRI7HelUHtWDyM3LAMPrSXKcqb3B050fkMrwrZUcv_25zg1SvHsBtV6WzzOeJCOn39GrCXd2OduOpaqWbLpOmo0Huv-ZcrOgMwX02GOUOtnmGO-jsTAmmStqJWxW-hZXDmSLSeqMh5iR1YRIf3ipnz74r1YY2axI9DwPuBXwMNGfgvX8pTMQk9K47PpDncDnJYJlyJtS8WjGWpdaPIY23rHI249g5NVBs2HKrXOUDiHmkm1sGjsXiRYob5sJ_2BTRvATJQRvz78o_Gq0?></g></svg>