<?plantuml 1.2026.2?><svg xmlns="http://www.w3.org/2000/svg" xmlns:xlink="http://www.w3.org/1999/xlink" contentStyleType="text/css" data-diagram-type="MINDMAP" height="234px" preserveAspectRatio="none" style="width:909px;height:234px;background:#FFFFFF;" version="1.1" viewBox="0 0 909 234" width="909px" zoomAndPan="magnify"><defs/><g><rect fill="#FF5F46" height="52.9766" rx="12.5" ry="12.5" style="stroke:#FF5F46;stroke-width:3;" width="133.4424" x="10" y="89.5869"/><text fill="#FFFFFF" font-family="sans-serif" font-size="14" lengthAdjust="spacing" textLength="113.4424" x="20" y="113.1221">Creating Storage</text><text fill="#FFFFFF" font-family="sans-serif" font-size="14" lengthAdjust="spacing" textLength="76.7129" x="20" y="129.6104">Credentials</text><rect fill="#0078D4" height="36.4883" rx="12.5" ry="12.5" style="stroke:#0078D4;stroke-width:3;" width="100.4521" x="193.4424" y="36.9766"/><text fill="#FFFFFF" font-family="sans-serif" font-size="14" lengthAdjust="spacing" textLength="80.4521" x="203.4424" y="60.5117">Azure steps</text><text fill="#000000" font-family="sans-serif" font-size="14" lengthAdjust="spacing" textLength="341.0996" x="346.8945" y="24.5352">Create Access Connector (same region as storage)</text><path d="M293.8945,55.2207 L303.8945,55.2207 C318.8945,55.2207 318.8945,19.2441 333.8945,19.2441 L343.8945,19.2441" fill="none" style="stroke:#0078D4;stroke-width:3;"/><text fill="#000000" font-family="sans-serif" font-size="14" lengthAdjust="spacing" textLength="251.9795" x="346.8945" y="43.0234">Choose system- or user-assigned MI</text><path d="M293.8945,55.2207 L303.8945,55.2207 C318.8945,55.2207 318.8945,37.7324 333.8945,37.7324 L343.8945,37.7324" fill="none" style="stroke:#0078D4;stroke-width:3;"/><text fill="#000000" font-family="sans-serif" font-size="14" lengthAdjust="spacing" textLength="246.333" x="346.8945" y="61.5117">Grant Storage Blob Data Contributor</text><text fill="#000000" font-family="sans-serif" font-size="14" lengthAdjust="spacing" textLength="185.6162" x="346.8945" y="78">on ADLS account/container</text><path d="M293.8945,55.2207 L303.8945,55.2207 C318.8945,55.2207 318.8945,64.4648 333.8945,64.4648 L343.8945,64.4648" fill="none" style="stroke:#0078D4;stroke-width:3;"/><text fill="#000000" font-family="sans-serif" font-size="14" lengthAdjust="spacing" textLength="290.3154" x="346.8945" y="96.4883">(Optional) Storage Queue Data Contributor</text><text fill="#000000" font-family="sans-serif" font-size="14" lengthAdjust="spacing" textLength="207.2793" x="690.21" y="96.4883">Enables file event notifications</text><path d="M637.21,91.1973 L647.21,91.1973 C662.21,91.1973 662.21,91.1973 677.21,91.1973 L687.21,91.1973" fill="none" style="stroke:#FFB900;stroke-width:3;"/><path d="M293.8945,55.2207 L303.8945,55.2207 C318.8945,55.2207 318.8945,91.1973 333.8945,91.1973 L343.8945,91.1973" fill="none" style="stroke:#0078D4;stroke-width:3;"/><path d="M143.4424,116.0752 L153.4424,116.0752 C168.4424,116.0752 168.4424,55.2207 183.4424,55.2207 L193.4424,55.2207" fill="none" style="stroke:#FF5F46;stroke-width:3;"/><rect fill="#0078D4" height="36.4883" rx="12.5" ry="12.5" style="stroke:#0078D4;stroke-width:3;" width="151.7285" x="193.4424" y="119.1738"/><text fill="#FFFFFF" font-family="sans-serif" font-size="14" lengthAdjust="spacing" textLength="131.7285" x="203.4424" y="142.709">Unity Catalog steps</text><text fill="#000000" font-family="sans-serif" font-size="14" lengthAdjust="spacing" textLength="212.6523" x="398.1709" y="114.9766">Catalog Explorer &#8594; Credentials</text><path d="M345.1709,137.418 L355.1709,137.418 C370.1709,137.418 370.1709,109.6855 385.1709,109.6855 L395.1709,109.6855" fill="none" style="stroke:#0078D4;stroke-width:3;"/><text fill="#000000" font-family="sans-serif" font-size="14" lengthAdjust="spacing" textLength="205.502" x="398.1709" y="133.4648">Select Azure Managed Identity</text><path d="M345.1709,137.418 L355.1709,137.418 C370.1709,137.418 370.1709,128.1738 385.1709,128.1738 L395.1709,128.1738" fill="none" style="stroke:#0078D4;stroke-width:3;"/><text fill="#000000" font-family="sans-serif" font-size="14" lengthAdjust="spacing" textLength="257.1338" x="398.1709" y="151.9531">Provide Access Connector resource ID</text><path d="M345.1709,137.418 L355.1709,137.418 C370.1709,137.418 370.1709,146.6621 385.1709,146.6621 L395.1709,146.6621" fill="none" style="stroke:#0078D4;stroke-width:3;"/><text fill="#000000" font-family="sans-serif" font-size="14" lengthAdjust="spacing" textLength="287.5742" x="398.1709" y="170.4414">Provide user-assigned MI ID (if applicable)</text><path d="M345.1709,137.418 L355.1709,137.418 C370.1709,137.418 370.1709,165.1504 385.1709,165.1504 L395.1709,165.1504" fill="none" style="stroke:#0078D4;stroke-width:3;"/><path d="M143.4424,116.0752 L153.4424,116.0752 C168.4424,116.0752 168.4424,137.418 183.4424,137.418 L193.4424,137.418" fill="none" style="stroke:#FF5F46;stroke-width:3;"/><rect fill="#0078D4" height="36.4883" rx="12.5" ry="12.5" style="stroke:#0078D4;stroke-width:3;" width="100.5615" x="193.4424" y="175.6621"/><text fill="#FFFFFF" font-family="sans-serif" font-size="14" lengthAdjust="spacing" textLength="80.5615" x="203.4424" y="199.1973">Prerequisite</text><text fill="#000000" font-family="sans-serif" font-size="14" lengthAdjust="spacing" textLength="303.6113" x="347.0039" y="189.9531">CREATE STORAGE CREDENTIAL on metastore</text><path d="M294.0039,193.9063 L304.0039,193.9063 C319.0039,193.9063 319.0039,184.6621 334.0039,184.6621 L344.0039,184.6621" fill="none" style="stroke:#0078D4;stroke-width:3;"/><text fill="#000000" font-family="sans-serif" font-size="14" lengthAdjust="spacing" textLength="305.7578" x="347.0039" y="208.4414">Account admin / metastore admin by default</text><path d="M294.0039,193.9063 L304.0039,193.9063 C319.0039,193.9063 319.0039,203.1504 334.0039,203.1504 L344.0039,203.1504" fill="none" style="stroke:#0078D4;stroke-width:3;"/><path d="M143.4424,116.0752 L153.4424,116.0752 C168.4424,116.0752 168.4424,193.9063 183.4424,193.9063 L193.4424,193.9063" fill="none" style="stroke:#FF5F46;stroke-width:3;"/><?plantuml-src VPDDRjim48NtEiK0tTWmOYjkcluWAABOSc30QThOtGKeHj989aAHAaa5KODkUu0UiIVfwCS9hDJbZZDltXj-WiwjG-DoeP8S2-_CkahIH-z3GeNR3lmXF7h0vmBZkypeKYKpBRM1Lul5cyN9QTDR2KKlgmkjN5TDc_EatMn5VAV8MdWzzhsVkwpZWrc-__RT_AIVrQlkk_OsM3JdEMjwC2jDe_U-ty_gLV-RvJU7ioBz86lDuq75sQJ3FOAP8NH2PR1ssc16jueh2IadK5flD8BWHsa8hAEYlew-jHC4GHpN8JEj5CKy2mEBEO6XJ6W5Q7caCHnsKrkjBVjKx9GV0UjBI-O8hHMPeWIkbgtkqg1oksNWGke8vkYmpd56H2KtRXK71FFL6Z2E6Q6RnDn4vcDQZy5ruNW9bCCdeoybbVJ2gPQpFbGOCJ58XIIWUtuyAEr4AcAiVHeCNvLm5SpOGEfi3qTN2XyAXam6_lpw3ViCMRKcoPGwc5UeUAS4bet6LQtaiz7t8la7M4DMboOcMCxtbNs2B821I06BGlBk_AOQFil9qFTIME6es_ac33OXh3VNDy5bM5_duQVDCbW1ayt9OVtjEctGCWPC-5-5oNExgqGL99HYAPrtJYhP_T3UyNZgJq_7qxy0?></g></svg>