<?plantuml 1.2026.2?><svg xmlns="http://www.w3.org/2000/svg" xmlns:xlink="http://www.w3.org/1999/xlink" contentStyleType="text/css" data-diagram-type="MINDMAP" height="247px" preserveAspectRatio="none" style="width:755px;height:247px;background:#FFFFFF;" version="1.1" viewBox="0 0 755 247" width="755px" zoomAndPan="magnify"><defs/><g><rect fill="#FF5F46" height="52.9766" rx="12.5" ry="12.5" style="stroke:#FF5F46;stroke-width:3;" width="148.8164" x="10" y="96.4883"/><text fill="#FFFFFF" font-family="sans-serif" font-size="14" lengthAdjust="spacing" textLength="128.8164" x="20" y="120.0234">Managed Identities</text><text fill="#FFFFFF" font-family="sans-serif" font-size="14" lengthAdjust="spacing" textLength="115.083" x="20" y="136.5117">for Unity Catalog</text><rect fill="#0078D4" height="36.4883" rx="12.5" ry="12.5" style="stroke:#0078D4;stroke-width:3;" width="82.959" x="208.8164" y="20"/><text fill="#FFFFFF" font-family="sans-serif" font-size="14" lengthAdjust="spacing" textLength="62.959" x="218.8164" y="43.5352">What it is</text><text fill="#000000" font-family="sans-serif" font-size="14" lengthAdjust="spacing" textLength="166.1748" x="344.7754" y="25.0469">Azure-managed identity</text><path d="M291.7754,38.2441 L301.7754,38.2441 C316.7754,38.2441 316.7754,19.7559 331.7754,19.7559 L341.7754,19.7559" fill="none" style="stroke:#0078D4;stroke-width:3;"/><text fill="#000000" font-family="sans-serif" font-size="14" lengthAdjust="spacing" textLength="202.8701" x="344.7754" y="43.5352">No credential rotation needed</text><path d="M291.7754,38.2441 L301.7754,38.2441 C316.7754,38.2441 316.7754,38.2441 331.7754,38.2441 L341.7754,38.2441" fill="none" style="stroke:#0078D4;stroke-width:3;"/><text fill="#000000" font-family="sans-serif" font-size="14" lengthAdjust="spacing" textLength="184.1328" x="344.7754" y="62.0234">Auto lifecycle management</text><path d="M291.7754,38.2441 L301.7754,38.2441 C316.7754,38.2441 316.7754,56.7324 331.7754,56.7324 L341.7754,56.7324" fill="none" style="stroke:#0078D4;stroke-width:3;"/><path d="M158.8164,122.9766 L168.8164,122.9766 C183.8164,122.9766 183.8164,38.2441 198.8164,38.2441 L208.8164,38.2441" fill="none" style="stroke:#FF5F46;stroke-width:3;"/><rect fill="#0078D4" height="36.4883" rx="12.5" ry="12.5" style="stroke:#0078D4;stroke-width:3;" width="140.7021" x="208.8164" y="76.4883"/><text fill="#FFFFFF" font-family="sans-serif" font-size="14" lengthAdjust="spacing" textLength="120.7021" x="218.8164" y="100.0234">Access Connector</text><text fill="#000000" font-family="sans-serif" font-size="14" lengthAdjust="spacing" textLength="179.9902" x="402.5186" y="90.7793">First-party Azure resource</text><path d="M349.5186,94.7324 L359.5186,94.7324 C374.5186,94.7324 374.5186,85.4883 389.5186,85.4883 L399.5186,85.4883" fill="none" style="stroke:#0078D4;stroke-width:3;"/><text fill="#000000" font-family="sans-serif" font-size="14" lengthAdjust="spacing" textLength="264.1472" x="402.5186" y="109.2676">Bridge: managed identity &#8596; Databricks</text><path d="M349.5186,94.7324 L359.5186,94.7324 C374.5186,94.7324 374.5186,103.9766 389.5186,103.9766 L399.5186,103.9766" fill="none" style="stroke:#0078D4;stroke-width:3;"/><path d="M158.8164,122.9766 L168.8164,122.9766 C183.8164,122.9766 183.8164,94.7324 198.8164,94.7324 L208.8164,94.7324" fill="none" style="stroke:#FF5F46;stroke-width:3;"/><rect fill="#0078D4" height="36.4883" rx="12.5" ry="12.5" style="stroke:#0078D4;stroke-width:3;" width="133.7021" x="208.8164" y="132.9766"/><text fill="#FFFFFF" font-family="sans-serif" font-size="14" lengthAdjust="spacing" textLength="113.7021" x="218.8164" y="156.5117">Types of identity</text><text fill="#000000" font-family="sans-serif" font-size="14" lengthAdjust="spacing" textLength="116.2793" x="395.5186" y="147.2676">System-assigned</text><text fill="#000000" font-family="sans-serif" font-size="14" lengthAdjust="spacing" textLength="178.8623" x="564.7979" y="147.2676">Tied to connector lifecycle</text><path d="M511.7979,141.9766 L521.7979,141.9766 C536.7979,141.9766 536.7979,141.9766 551.7979,141.9766 L561.7979,141.9766" fill="none" style="stroke:#FFB900;stroke-width:3;"/><path d="M342.5186,151.2207 L352.5186,151.2207 C367.5186,151.2207 367.5186,141.9766 382.5186,141.9766 L392.5186,141.9766" fill="none" style="stroke:#0078D4;stroke-width:3;"/><text fill="#000000" font-family="sans-serif" font-size="14" lengthAdjust="spacing" textLength="98.5469" x="395.5186" y="165.7559">User-assigned</text><text fill="#000000" font-family="sans-serif" font-size="14" lengthAdjust="spacing" textLength="151.7715" x="547.0654" y="165.7559">Independent, reusable</text><path d="M494.0654,160.4648 L504.0654,160.4648 C519.0654,160.4648 519.0654,160.4648 534.0654,160.4648 L544.0654,160.4648" fill="none" style="stroke:#FFB900;stroke-width:3;"/><path d="M342.5186,151.2207 L352.5186,151.2207 C367.5186,151.2207 367.5186,160.4648 382.5186,160.4648 L392.5186,160.4648" fill="none" style="stroke:#0078D4;stroke-width:3;"/><path d="M158.8164,122.9766 L168.8164,122.9766 C183.8164,122.9766 183.8164,151.2207 198.8164,151.2207 L208.8164,151.2207" fill="none" style="stroke:#FF5F46;stroke-width:3;"/><rect fill="#0078D4" height="36.4883" rx="12.5" ry="12.5" style="stroke:#0078D4;stroke-width:3;" width="86.042" x="208.8164" y="189.4648"/><text fill="#FFFFFF" font-family="sans-serif" font-size="14" lengthAdjust="spacing" textLength="66.042" x="218.8164" y="213">Use cases</text><text fill="#000000" font-family="sans-serif" font-size="14" lengthAdjust="spacing" textLength="155.3125" x="347.8584" y="203.7559">Metastore root storage</text><path d="M294.8584,207.709 L304.8584,207.709 C319.8584,207.709 319.8584,198.4648 334.8584,198.4648 L344.8584,198.4648" fill="none" style="stroke:#0078D4;stroke-width:3;"/><text fill="#000000" font-family="sans-serif" font-size="14" lengthAdjust="spacing" textLength="175.6494" x="347.8584" y="222.2441">External storage accounts</text><path d="M294.8584,207.709 L304.8584,207.709 C319.8584,207.709 319.8584,216.9531 334.8584,216.9531 L344.8584,216.9531" fill="none" style="stroke:#0078D4;stroke-width:3;"/><path d="M158.8164,122.9766 L168.8164,122.9766 C183.8164,122.9766 183.8164,207.709 198.8164,207.709 L208.8164,207.709" fill="none" style="stroke:#FF5F46;stroke-width:3;"/><?plantuml-src VLF1Jjn03BtdAonnQRNiDcmfRH6gWAMHa4elBEgbKZKxSR8Z4izgx4W4n9Klw1VsI-faig2cMgmSacS_lsTdvfJ51AaTvRNP92SiROLVakCSDx9-axw5XmGqpeszBODlA5_uoWVOox8FsU5Hd_lc2Fz7Cqyoe4KVpxNBjREtXCpmVfOcZrkjWvrQQVhnqyNXM6k4_jjrv23huqLhlbEhA5QVqtIiDK9VrKhxKAsLlwkwceUT5IVlXdLFuCgGAJ67onn9d3ZadrHeyGqvQM5Xn5I-J2OJ-B4s0auVrg_9BpYxRm9Ewu7k8hsDkUyURC0UCXK4BqQS9o1KB1_eZNYeN86sjHL2x5ChezCwixOROE69q8eFaPAvm3BTwAbfepe4PDy4Yp5_7bnUuZ6CFS6VfzzmePEiWgwlim_BTeCClXZvlcvPi9uQPbTITAheqcapTMktTbvyHzeDOnYJBad_E5BNVbzzDcnMVNbN3DOm3ckyGZ6iFNKOxmMwLpKVSr_l10Ff1WSKZBLwP8IJK-sylJh9mMoUpezcyxy0?></g></svg>