<?plantuml 1.2026.2?><svg xmlns="http://www.w3.org/2000/svg" xmlns:xlink="http://www.w3.org/1999/xlink" contentStyleType="text/css" data-diagram-type="MINDMAP" height="304px" preserveAspectRatio="none" style="width:1345px;height:304px;background:#FFFFFF;" version="1.1" viewBox="0 0 1345 304" width="1345px" zoomAndPan="magnify"><defs/><g><rect fill="#FF5F46" height="52.9766" rx="12.5" ry="12.5" style="stroke:#FF5F46;stroke-width:3;" width="152.5488" x="494.833" y="124.7324"/><text fill="#FFFFFF" font-family="sans-serif" font-size="14" lengthAdjust="spacing" textLength="128.4746" x="504.833" y="148.2676">Generate Summary</text><text fill="#FFFFFF" font-family="sans-serif" font-size="14" lengthAdjust="spacing" textLength="132.5488" x="504.833" y="164.7559">Statistics using SQL</text><rect fill="#0078D4" height="36.4883" rx="12.5" ry="12.5" style="stroke:#0078D4;stroke-width:3;" width="127.9463" x="697.3818" y="76.4883"/><text fill="#FFFFFF" font-family="sans-serif" font-size="14" lengthAdjust="spacing" textLength="107.9463" x="707.3818" y="100.0234">ANALYZE TABLE</text><rect fill="#FFB900" height="36.4883" rx="12.5" ry="12.5" style="stroke:#FFB900;stroke-width:3;" width="167.5195" x="875.3281" y="20"/><text fill="#000000" font-family="sans-serif" font-size="14" lengthAdjust="spacing" textLength="147.5195" x="885.3281" y="43.5352">COMPUTE STATISTICS</text><text fill="#000000" font-family="sans-serif" font-size="14" lengthAdjust="spacing" textLength="116.6826" x="1095.8477" y="43.5352">Row count &amp; size</text><path d="M1042.8477,38.2441 L1052.8477,38.2441 C1067.8477,38.2441 1067.8477,38.2441 1082.8477,38.2441 L1092.8477,38.2441" fill="none" style="stroke:#FFB900;stroke-width:3;"/><path d="M825.3281,94.7324 L835.3281,94.7324 C850.3281,94.7324 850.3281,38.2441 865.3281,38.2441 L875.3281,38.2441" fill="none" style="stroke:#0078D4;stroke-width:3;"/><rect fill="#FFB900" height="36.4883" rx="12.5" ry="12.5" style="stroke:#FFB900;stroke-width:3;" width="119.333" x="875.3281" y="76.4883"/><text fill="#000000" font-family="sans-serif" font-size="14" lengthAdjust="spacing" textLength="99.333" x="885.3281" y="100.0234">FOR COLUMNS</text><text fill="#000000" font-family="sans-serif" font-size="14" lengthAdjust="spacing" textLength="146.4395" x="1047.6611" y="100.0234">Column-level metrics</text><path d="M994.6611,94.7324 L1004.6611,94.7324 C1019.6611,94.7324 1019.6611,94.7324 1034.6611,94.7324 L1044.6611,94.7324" fill="none" style="stroke:#FFB900;stroke-width:3;"/><path d="M825.3281,94.7324 L835.3281,94.7324 C850.3281,94.7324 850.3281,94.7324 865.3281,94.7324 L875.3281,94.7324" fill="none" style="stroke:#0078D4;stroke-width:3;"/><rect fill="#FFB900" height="36.4883" rx="12.5" ry="12.5" style="stroke:#FFB900;stroke-width:3;" width="148.3516" x="875.3281" y="132.9766"/><text fill="#000000" font-family="sans-serif" font-size="14" lengthAdjust="spacing" textLength="128.3516" x="885.3281" y="156.5117">FOR ALL COLUMNS</text><text fill="#000000" font-family="sans-serif" font-size="14" lengthAdjust="spacing" textLength="206.5547" x="1076.6797" y="156.5117">Min, max, nulls, distinct count</text><path d="M1023.6797,151.2207 L1033.6797,151.2207 C1048.6797,151.2207 1048.6797,151.2207 1063.6797,151.2207 L1073.6797,151.2207" fill="none" style="stroke:#FFB900;stroke-width:3;"/><path d="M825.3281,94.7324 L835.3281,94.7324 C850.3281,94.7324 850.3281,151.2207 865.3281,151.2207 L875.3281,151.2207" fill="none" style="stroke:#0078D4;stroke-width:3;"/><path d="M647.3818,151.2207 L657.3818,151.2207 C672.3818,151.2207 672.3818,94.7324 687.3818,94.7324 L697.3818,94.7324" fill="none" style="stroke:#FF5F46;stroke-width:3;"/><rect fill="#0078D4" height="36.4883" rx="12.5" ry="12.5" style="stroke:#0078D4;stroke-width:3;" width="205.999" x="697.3818" y="189.4648"/><text fill="#FFFFFF" font-family="sans-serif" font-size="14" lengthAdjust="spacing" textLength="185.999" x="707.3818" y="213">DESCRIBE TABLE EXTENDED</text><rect fill="#FFB900" height="36.4883" rx="12.5" ry="12.5" style="stroke:#FFB900;stroke-width:3;" width="164.7715" x="953.3809" y="189.4648"/><text fill="#000000" font-family="sans-serif" font-size="14" lengthAdjust="spacing" textLength="144.7715" x="963.3809" y="213">Shows collected stats</text><text fill="#000000" font-family="sans-serif" font-size="14" lengthAdjust="spacing" textLength="162.0938" x="1171.1523" y="213">Size in bytes, row count</text><path d="M1118.1523,207.709 L1128.1523,207.709 C1143.1523,207.709 1143.1523,207.709 1158.1523,207.709 L1168.1523,207.709" fill="none" style="stroke:#FFB900;stroke-width:3;"/><path d="M903.3809,207.709 L913.3809,207.709 C928.3809,207.709 928.3809,207.709 943.3809,207.709 L953.3809,207.709" fill="none" style="stroke:#0078D4;stroke-width:3;"/><path d="M647.3818,151.2207 L657.3818,151.2207 C672.3818,151.2207 672.3818,207.709 687.3818,207.709 L697.3818,207.709" fill="none" style="stroke:#FF5F46;stroke-width:3;"/><rect fill="#0078D4" height="36.4883" rx="12.5" ry="12.5" style="stroke:#0078D4;stroke-width:3;" width="143.8877" x="697.3818" y="245.9531"/><text fill="#FFFFFF" font-family="sans-serif" font-size="14" lengthAdjust="spacing" textLength="123.8877" x="707.3818" y="269.4883">PySpark describe()</text><rect fill="#FFB900" height="36.4883" rx="12.5" ry="12.5" style="stroke:#FFB900;stroke-width:3;" width="153.5469" x="891.2695" y="245.9531"/><text fill="#000000" font-family="sans-serif" font-size="14" lengthAdjust="spacing" textLength="133.5469" x="901.2695" y="269.4883">df.describe().show()</text><text fill="#000000" font-family="sans-serif" font-size="14" lengthAdjust="spacing" textLength="211.3467" x="1097.8164" y="260.2441">count, mean, stddev, min, max</text><path d="M1044.8164,264.1973 L1054.8164,264.1973 C1069.8164,264.1973 1069.8164,254.9531 1084.8164,254.9531 L1094.8164,254.9531" fill="none" style="stroke:#FFB900;stroke-width:3;"/><text fill="#000000" font-family="sans-serif" font-size="14" lengthAdjust="spacing" textLength="151.7578" x="1097.8164" y="278.7324">Numeric columns only</text><path d="M1044.8164,264.1973 L1054.8164,264.1973 C1069.8164,264.1973 1069.8164,273.4414 1084.8164,273.4414 L1094.8164,273.4414" fill="none" style="stroke:#FFB900;stroke-width:3;"/><path d="M841.2695,264.1973 L851.2695,264.1973 C866.2695,264.1973 866.2695,264.1973 881.2695,264.1973 L891.2695,264.1973" fill="none" style="stroke:#0078D4;stroke-width:3;"/><path d="M647.3818,151.2207 L657.3818,151.2207 C672.3818,151.2207 672.3818,264.1973 687.3818,264.1973 L697.3818,264.1973" fill="none" style="stroke:#FF5F46;stroke-width:3;"/><rect fill="#0078D4" height="36.4883" rx="12.5" ry="12.5" style="stroke:#0078D4;stroke-width:3;" width="178.4707" x="266.3623" y="104.7324"/><text fill="#FFFFFF" font-family="sans-serif" font-size="14" lengthAdjust="spacing" textLength="158.4707" x="276.3623" y="128.2676">Predictive Optimization</text><text fill="#000000" font-family="sans-serif" font-size="14" lengthAdjust="spacing" textLength="136.8555" x="76.5068" y="119.0234">Auto-runs ANALYZE</text><path d="M266.3623,122.9766 L256.3623,122.9766 C241.3623,122.9766 241.3623,113.7324 226.3623,113.7324 L216.3623,113.7324" fill="none" style="stroke:#0078D4;stroke-width:3;"/><text fill="#000000" font-family="sans-serif" font-size="14" lengthAdjust="spacing" textLength="203.3623" x="10" y="137.5117">Unity Catalog managed tables</text><path d="M266.3623,122.9766 L256.3623,122.9766 C241.3623,122.9766 241.3623,132.2207 226.3623,132.2207 L216.3623,132.2207" fill="none" style="stroke:#0078D4;stroke-width:3;"/><path d="M494.833,151.2207 L484.833,151.2207 C469.833,151.2207 469.833,122.9766 454.833,122.9766 L444.833,122.9766" fill="none" style="stroke:#FF5F46;stroke-width:3;"/><rect fill="#0078D4" height="36.4883" rx="12.5" ry="12.5" style="stroke:#0078D4;stroke-width:3;" width="105.2783" x="339.5547" y="161.2207"/><text fill="#FFFFFF" font-family="sans-serif" font-size="14" lengthAdjust="spacing" textLength="85.2783" x="349.5547" y="184.7559">Best Practice</text><text fill="#000000" font-family="sans-serif" font-size="14" lengthAdjust="spacing" textLength="137.2178" x="149.3369" y="175.5117">Run after bulk loads</text><path d="M339.5547,179.4648 L329.5547,179.4648 C314.5547,179.4648 314.5547,170.2207 299.5547,170.2207 L289.5547,170.2207" fill="none" style="stroke:#0078D4;stroke-width:3;"/><text fill="#000000" font-family="sans-serif" font-size="14" lengthAdjust="spacing" textLength="214.9424" x="71.6123" y="194">Keeps query optimizer accurate</text><path d="M339.5547,179.4648 L329.5547,179.4648 C314.5547,179.4648 314.5547,188.709 299.5547,188.709 L289.5547,188.709" fill="none" style="stroke:#0078D4;stroke-width:3;"/><path d="M494.833,151.2207 L484.833,151.2207 C469.833,151.2207 469.833,179.4648 454.833,179.4648 L444.833,179.4648" fill="none" style="stroke:#FF5F46;stroke-width:3;"/><?plantuml-src VLDfQzj04FskNp5GA0a-ghXfUX1AVCZ5L3vgoT2MGbX9OtlnQjVPNJbHGlzxHuSJgkBEjttpzhqtUzmOoxHDkKnIjdUkZSq5VdO-9RYtspFt79uSe1gmUBVHAfF9K0cbuTLu_6vyULNsV2xnNtIifAtHTLdFt73Buvr4O-1jrtL-7xqkJdgvxliFeykcLmFzMxMHO5pMYrVlfDTw7NrqtQPN0_slbriMUKNgGHISfvECwpVrSRVW2qhKp284MPeodV-IWMMM6yjZ0vdXSWF1DzzfjQ0_w_i_VdeGzWU-Hq0BXlFfOXLw48JzS1A4as5GmArRMAfxY6au2w_1y4SisUFvadRug-diIADOMIex0Wye84MhoVEPslVz1dtAPHjIzj06cGbXsf0KCMLiAwyYuyWBXil9e0u9tlVGcusyKIaQRDMz8QeG65jCWDwVDRLqG261IuXoYoIiZ_aBpKKUx9dUGO8crZp2i_DIBbbtNv2k8V6gGMhbLegAZ08RcoHue5MTlkRCiXHftY8FdO419KNkT3gmq9ZmsF83mdnlUSeVwJQKf5Rd5lgPLHsT4Rs-Z0fUIMvp63BBXDgGXsGRci-oY9v1eJb0OqcOaMoCrPPb9e6jBMg8Ch43eLXYgivNnBs1kmnr3gfAG2mMnrdnJ9mRf0zRVrhdejjpUrVTtXy0?></g></svg>