<?plantuml 1.2026.2?><svg xmlns="http://www.w3.org/2000/svg" xmlns:xlink="http://www.w3.org/1999/xlink" contentStyleType="text/css" data-diagram-type="MINDMAP" height="304px" preserveAspectRatio="none" style="width:1419px;height:304px;background:#FFFFFF;" version="1.1" viewBox="0 0 1419 304" width="1419px" zoomAndPan="magnify"><defs/><g><rect fill="#FF5F46" height="52.9766" rx="12.5" ry="12.5" style="stroke:#FF5F46;stroke-width:3;" width="130.0996" x="673.4492" y="124.7324"/><text fill="#FFFFFF" font-family="sans-serif" font-size="14" lengthAdjust="spacing" textLength="59.0625" x="683.4492" y="148.2676">Interpret</text><text fill="#FFFFFF" font-family="sans-serif" font-size="14" lengthAdjust="spacing" textLength="110.0996" x="683.4492" y="164.7559">Profiling Results</text><rect fill="#0078D4" height="36.4883" rx="12.5" ry="12.5" style="stroke:#0078D4;stroke-width:3;" width="97.8613" x="853.5488" y="132.9766"/><text fill="#FFFFFF" font-family="sans-serif" font-size="14" lengthAdjust="spacing" textLength="77.8613" x="863.5488" y="156.5117">Key Metrics</text><rect fill="#FFB900" height="36.4883" rx="12.5" ry="12.5" style="stroke:#FFB900;stroke-width:3;" width="147.0596" x="1001.4102" y="20"/><text fill="#000000" font-family="sans-serif" font-size="14" lengthAdjust="spacing" textLength="127.0596" x="1011.4102" y="43.5352">count &amp; num_nulls</text><text fill="#000000" font-family="sans-serif" font-size="14" lengthAdjust="spacing" textLength="128.9121" x="1201.4697" y="43.5352">Data completeness</text><path d="M1148.4697,38.2441 L1158.4697,38.2441 C1173.4697,38.2441 1173.4697,38.2441 1188.4697,38.2441 L1198.4697,38.2441" fill="none" style="stroke:#FFB900;stroke-width:3;"/><path d="M951.4102,151.2207 L961.4102,151.2207 C976.4102,151.2207 976.4102,38.2441 991.4102,38.2441 L1001.4102,38.2441" fill="none" style="stroke:#0078D4;stroke-width:3;"/><rect fill="#FFB900" height="36.4883" rx="12.5" ry="12.5" style="stroke:#FFB900;stroke-width:3;" width="115.7578" x="1001.4102" y="76.4883"/><text fill="#000000" font-family="sans-serif" font-size="14" lengthAdjust="spacing" textLength="95.7578" x="1011.4102" y="100.0234">distinct_count</text><text fill="#000000" font-family="sans-serif" font-size="14" lengthAdjust="spacing" textLength="169.0869" x="1170.168" y="100.0234">Cardinality / data quality</text><path d="M1117.168,94.7324 L1127.168,94.7324 C1142.168,94.7324 1142.168,94.7324 1157.168,94.7324 L1167.168,94.7324" fill="none" style="stroke:#FFB900;stroke-width:3;"/><path d="M951.4102,151.2207 L961.4102,151.2207 C976.4102,151.2207 976.4102,94.7324 991.4102,94.7324 L1001.4102,94.7324" fill="none" style="stroke:#0078D4;stroke-width:3;"/><rect fill="#FFB900" height="36.4883" rx="12.5" ry="12.5" style="stroke:#FFB900;stroke-width:3;" width="170.5205" x="1001.4102" y="132.9766"/><text fill="#000000" font-family="sans-serif" font-size="14" lengthAdjust="spacing" textLength="150.5205" x="1011.4102" y="156.5117">min, max, avg, stddev</text><text fill="#000000" font-family="sans-serif" font-size="14" lengthAdjust="spacing" textLength="182.9434" x="1224.9307" y="156.5117">Distribution characteristics</text><path d="M1171.9307,151.2207 L1181.9307,151.2207 C1196.9307,151.2207 1196.9307,151.2207 1211.9307,151.2207 L1221.9307,151.2207" fill="none" style="stroke:#FFB900;stroke-width:3;"/><path d="M951.4102,151.2207 L961.4102,151.2207 C976.4102,151.2207 976.4102,151.2207 991.4102,151.2207 L1001.4102,151.2207" fill="none" style="stroke:#0078D4;stroke-width:3;"/><rect fill="#FFB900" height="36.4883" rx="12.5" ry="12.5" style="stroke:#FFB900;stroke-width:3;" width="122.1904" x="1001.4102" y="189.4648"/><text fill="#000000" font-family="sans-serif" font-size="14" lengthAdjust="spacing" textLength="102.1904" x="1011.4102" y="213">frequent_items</text><text fill="#000000" font-family="sans-serif" font-size="14" lengthAdjust="spacing" textLength="229.0586" x="1176.6006" y="213">Dominant categories &amp; duplicates</text><path d="M1123.6006,207.709 L1133.6006,207.709 C1148.6006,207.709 1148.6006,207.709 1163.6006,207.709 L1173.6006,207.709" fill="none" style="stroke:#FFB900;stroke-width:3;"/><path d="M951.4102,151.2207 L961.4102,151.2207 C976.4102,151.2207 976.4102,207.709 991.4102,207.709 L1001.4102,207.709" fill="none" style="stroke:#0078D4;stroke-width:3;"/><rect fill="#FFB900" height="36.4883" rx="12.5" ry="12.5" style="stroke:#FFB900;stroke-width:3;" width="82.1865" x="1001.4102" y="245.9531"/><text fill="#000000" font-family="sans-serif" font-size="14" lengthAdjust="spacing" textLength="62.1865" x="1011.4102" y="269.4883">quantiles</text><text fill="#000000" font-family="sans-serif" font-size="14" lengthAdjust="spacing" textLength="204.2168" x="1136.5967" y="269.4883">Value distribution &amp; skewness</text><path d="M1083.5967,264.1973 L1093.5967,264.1973 C1108.5967,264.1973 1108.5967,264.1973 1123.5967,264.1973 L1133.5967,264.1973" fill="none" style="stroke:#FFB900;stroke-width:3;"/><path d="M951.4102,151.2207 L961.4102,151.2207 C976.4102,151.2207 976.4102,264.1973 991.4102,264.1973 L1001.4102,264.1973" fill="none" style="stroke:#0078D4;stroke-width:3;"/><path d="M803.5488,151.2207 L813.5488,151.2207 C828.5488,151.2207 828.5488,151.2207 843.5488,151.2207 L853.5488,151.2207" fill="none" style="stroke:#FF5F46;stroke-width:3;"/><rect fill="#0078D4" height="36.4883" rx="12.5" ry="12.5" style="stroke:#0078D4;stroke-width:3;" width="149.917" x="473.5322" y="109.6104"/><text fill="#FFFFFF" font-family="sans-serif" font-size="14" lengthAdjust="spacing" textLength="129.917" x="483.5322" y="133.1455">Data Quality Issues</text><rect fill="#FFB900" height="36.4883" rx="12.5" ry="12.5" style="stroke:#FFB900;stroke-width:3;" width="95.4414" x="328.0908" y="24.8779"/><text fill="#000000" font-family="sans-serif" font-size="14" lengthAdjust="spacing" textLength="75.4414" x="338.0908" y="48.4131">High null %</text><text fill="#000000" font-family="sans-serif" font-size="14" lengthAdjust="spacing" textLength="191.1533" x="83.9375" y="48.4131">Possible ingestion problems</text><path d="M328.0908,43.1221 L318.0908,43.1221 C303.0908,43.1221 303.0908,43.1221 288.0908,43.1221 L278.0908,43.1221" fill="none" style="stroke:#FFB900;stroke-width:3;"/><path d="M473.5322,127.8545 L463.5322,127.8545 C448.5322,127.8545 448.5322,43.1221 433.5322,43.1221 L423.5322,43.1221" fill="none" style="stroke:#0078D4;stroke-width:3;"/><rect fill="#FFB900" height="36.4883" rx="12.5" ry="12.5" style="stroke:#FFB900;stroke-width:3;" width="205.1582" x="218.374" y="81.3662"/><text fill="#000000" font-family="sans-serif" font-size="14" lengthAdjust="spacing" textLength="185.1582" x="228.374" y="104.9014">Unexpected distinct counts</text><text fill="#000000" font-family="sans-serif" font-size="14" lengthAdjust="spacing" textLength="155.374" x="10" y="104.9014">Non-unique identifiers</text><path d="M218.374,99.6104 L208.374,99.6104 C193.374,99.6104 193.374,99.6104 178.374,99.6104 L168.374,99.6104" fill="none" style="stroke:#FFB900;stroke-width:3;"/><path d="M473.5322,127.8545 L463.5322,127.8545 C448.5322,127.8545 448.5322,99.6104 433.5322,99.6104 L423.5322,99.6104" fill="none" style="stroke:#0078D4;stroke-width:3;"/><rect fill="#FFB900" height="36.4883" rx="12.5" ry="12.5" style="stroke:#FFB900;stroke-width:3;" width="160.5059" x="263.0264" y="137.8545"/><text fill="#000000" font-family="sans-serif" font-size="14" lengthAdjust="spacing" textLength="140.5059" x="273.0264" y="161.3896">Out-of-range values</text><text fill="#000000" font-family="sans-serif" font-size="14" lengthAdjust="spacing" textLength="150.4658" x="59.5605" y="161.3896">E.g. negative amounts</text><path d="M263.0264,156.0986 L253.0264,156.0986 C238.0264,156.0986 238.0264,156.0986 223.0264,156.0986 L213.0264,156.0986" fill="none" style="stroke:#FFB900;stroke-width:3;"/><path d="M473.5322,127.8545 L463.5322,127.8545 C448.5322,127.8545 448.5322,156.0986 433.5322,156.0986 L423.5322,156.0986" fill="none" style="stroke:#0078D4;stroke-width:3;"/><rect fill="#FFB900" height="36.4883" rx="12.5" ry="12.5" style="stroke:#FFB900;stroke-width:3;" width="222.3779" x="201.1543" y="194.3428"/><text fill="#000000" font-family="sans-serif" font-size="14" lengthAdjust="spacing" textLength="202.3779" x="211.1543" y="217.8779">Distribution change over time</text><text fill="#000000" font-family="sans-serif" font-size="14" lengthAdjust="spacing" textLength="64.5859" x="83.5684" y="217.8779">Data drift</text><path d="M201.1543,212.5869 L191.1543,212.5869 C176.1543,212.5869 176.1543,212.5869 161.1543,212.5869 L151.1543,212.5869" fill="none" style="stroke:#FFB900;stroke-width:3;"/><path d="M473.5322,127.8545 L463.5322,127.8545 C448.5322,127.8545 448.5322,212.5869 433.5322,212.5869 L423.5322,212.5869" fill="none" style="stroke:#0078D4;stroke-width:3;"/><path d="M673.4492,151.2207 L663.4492,151.2207 C648.4492,151.2207 648.4492,127.8545 633.4492,127.8545 L623.4492,127.8545" fill="none" style="stroke:#FF5F46;stroke-width:3;"/><rect fill="#0078D4" height="36.4883" rx="12.5" ry="12.5" style="stroke:#0078D4;stroke-width:3;" width="145.9248" x="477.5244" y="241.0752"/><text fill="#FFFFFF" font-family="sans-serif" font-size="14" lengthAdjust="spacing" textLength="125.9248" x="487.5244" y="264.6104">Drift Metrics Table</text><text fill="#000000" font-family="sans-serif" font-size="14" lengthAdjust="spacing" textLength="191.8779" x="232.6465" y="255.3662">KS test for numeric columns</text><path d="M477.5244,259.3193 L467.5244,259.3193 C452.5244,259.3193 452.5244,250.0752 437.5244,250.0752 L427.5244,250.0752" fill="none" style="stroke:#0078D4;stroke-width:3;"/><text fill="#000000" font-family="sans-serif" font-size="14" lengthAdjust="spacing" textLength="187.5576" x="236.9668" y="273.8545">Chi-squared for categorical</text><path d="M477.5244,259.3193 L467.5244,259.3193 C452.5244,259.3193 452.5244,268.5635 437.5244,268.5635 L427.5244,268.5635" fill="none" style="stroke:#0078D4;stroke-width:3;"/><path d="M673.4492,151.2207 L663.4492,151.2207 C648.4492,151.2207 648.4492,259.3193 633.4492,259.3193 L623.4492,259.3193" fill="none" style="stroke:#FF5F46;stroke-width:3;"/><?plantuml-src VLJRRjD047ttLuo4g42fKpUKSb65Ab8Ygd8fK7X2YZRss1bblUlkpePM5V_ExDe98bMP9-_id3ddZCS-zQmSjsIgLdNPYUTRZM-ornLsl7nIF8Mx32JUgdBLE1jCDRNQEdWqcpsV7Hsdkmzay7vsPWqFsJh5jlPgIUNAeFVmR5nalpTSXmzo5SMBbsT7krmxsN-xxYYOfVZBDNcGgwuNhufYbsid-r-k8eLmBUoDZZLt3rQS70pZ7i6vONITG_vfBfsjIPDfu2lweDbden5Su2ryH7PKnkC8Ij7Ci0Scj7CJj4xPqHpE52kvR3kDZ55Yggx8CvcIvmasb4wLgyWeJNmB1r15u7L8nuIHbTY7LjtiWret--2vgd2zOP5-ZXQ1oHeebygfKkH7aa5UxV0weE4vCRPRRLPwAf5TAiR6Ea8l3ghGQOgP7YaI39F63UY7qW6JWItX7lWL_ahcyhnt_AKN3kVU1upf7DvJiuGu6dWSp_aSBgttjD08CblqgLNdh2JQ7l7Tu4s7ugJQ3goVinyQVB8c3uR46L0bxgWcT3tsS-3SrhbJqXhMKVC6z6xSZC5WevZM2AhTDhmtnGYrQtJ0rEA0JkugHpKdh_5XimTmfKHxbiekle4CaA6M_PALa7THYdGTMkFxWkcISY-pTM8k5crUGQbqTehoyGy_WEnmF2acn-F97m00?></g></svg>