<?plantuml 1.2026.2?><svg xmlns="http://www.w3.org/2000/svg" xmlns:xlink="http://www.w3.org/1999/xlink" contentStyleType="text/css" data-diagram-type="MINDMAP" height="304px" preserveAspectRatio="none" style="width:1064px;height:304px;background:#FFFFFF;" version="1.1" viewBox="0 0 1064 304" width="1064px" zoomAndPan="magnify"><defs/><g><rect fill="#FF5F46" height="52.9766" rx="12.5" ry="12.5" style="stroke:#FF5F46;stroke-width:3;" width="128.3428" x="365.1279" y="124.7324"/><text fill="#FFFFFF" font-family="sans-serif" font-size="14" lengthAdjust="spacing" textLength="92.3877" x="375.1279" y="148.2676">Data Profiling</text><text fill="#FFFFFF" font-family="sans-serif" font-size="14" lengthAdjust="spacing" textLength="108.3428" x="375.1279" y="164.7559">in Unity Catalog</text><rect fill="#0078D4" height="36.4883" rx="12.5" ry="12.5" style="stroke:#0078D4;stroke-width:3;" width="107.4521" x="543.4707" y="76.4883"/><text fill="#FFFFFF" font-family="sans-serif" font-size="14" lengthAdjust="spacing" textLength="87.4521" x="553.4707" y="100.0234">Profile Types</text><rect fill="#FFB900" height="36.4883" rx="12.5" ry="12.5" style="stroke:#FFB900;stroke-width:3;" width="82.4326" x="700.9229" y="20"/><text fill="#000000" font-family="sans-serif" font-size="14" lengthAdjust="spacing" textLength="62.4326" x="710.9229" y="43.5352">Snapshot</text><text fill="#000000" font-family="sans-serif" font-size="14" lengthAdjust="spacing" textLength="131.7627" x="836.3555" y="34.291">Entire table metrics</text><path d="M783.3555,38.2441 L793.3555,38.2441 C808.3555,38.2441 808.3555,29 823.3555,29 L833.3555,29" fill="none" style="stroke:#FFB900;stroke-width:3;"/><text fill="#000000" font-family="sans-serif" font-size="14" lengthAdjust="spacing" textLength="160.7813" x="836.3555" y="52.7793">General-purpose tables</text><path d="M783.3555,38.2441 L793.3555,38.2441 C808.3555,38.2441 808.3555,47.4883 823.3555,47.4883 L833.3555,47.4883" fill="none" style="stroke:#FFB900;stroke-width:3;"/><path d="M650.9229,94.7324 L660.9229,94.7324 C675.9229,94.7324 675.9229,38.2441 690.9229,38.2441 L700.9229,38.2441" fill="none" style="stroke:#0078D4;stroke-width:3;"/><rect fill="#FFB900" height="36.4883" rx="12.5" ry="12.5" style="stroke:#FFB900;stroke-width:3;" width="98.251" x="700.9229" y="76.4883"/><text fill="#000000" font-family="sans-serif" font-size="14" lengthAdjust="spacing" textLength="78.251" x="710.9229" y="100.0234">Time Series</text><text fill="#000000" font-family="sans-serif" font-size="14" lengthAdjust="spacing" textLength="167.8086" x="852.1738" y="90.7793">Tracks metrics over time</text><path d="M799.1738,94.7324 L809.1738,94.7324 C824.1738,94.7324 824.1738,85.4883 839.1738,85.4883 L849.1738,85.4883" fill="none" style="stroke:#FFB900;stroke-width:3;"/><text fill="#000000" font-family="sans-serif" font-size="14" lengthAdjust="spacing" textLength="146.2891" x="852.1738" y="109.2676">Detects trends &amp; drift</text><path d="M799.1738,94.7324 L809.1738,94.7324 C824.1738,94.7324 824.1738,103.9766 839.1738,103.9766 L849.1738,103.9766" fill="none" style="stroke:#FFB900;stroke-width:3;"/><path d="M650.9229,94.7324 L660.9229,94.7324 C675.9229,94.7324 675.9229,94.7324 690.9229,94.7324 L700.9229,94.7324" fill="none" style="stroke:#0078D4;stroke-width:3;"/><rect fill="#FFB900" height="36.4883" rx="12.5" ry="12.5" style="stroke:#FFB900;stroke-width:3;" width="82.8564" x="700.9229" y="132.9766"/><text fill="#000000" font-family="sans-serif" font-size="14" lengthAdjust="spacing" textLength="62.8564" x="710.9229" y="156.5117">Inference</text><text fill="#000000" font-family="sans-serif" font-size="14" lengthAdjust="spacing" textLength="146.1455" x="836.7793" y="147.2676">ML model monitoring</text><path d="M783.7793,151.2207 L793.7793,151.2207 C808.7793,151.2207 808.7793,141.9766 823.7793,141.9766 L833.7793,141.9766" fill="none" style="stroke:#FFB900;stroke-width:3;"/><text fill="#000000" font-family="sans-serif" font-size="14" lengthAdjust="spacing" textLength="195.0977" x="836.7793" y="165.7559">Inputs, predictions, accuracy</text><path d="M783.7793,151.2207 L793.7793,151.2207 C808.7793,151.2207 808.7793,160.4648 823.7793,160.4648 L833.7793,160.4648" fill="none" style="stroke:#FFB900;stroke-width:3;"/><path d="M650.9229,94.7324 L660.9229,94.7324 C675.9229,94.7324 675.9229,151.2207 690.9229,151.2207 L700.9229,151.2207" fill="none" style="stroke:#0078D4;stroke-width:3;"/><path d="M493.4707,151.2207 L503.4707,151.2207 C518.4707,151.2207 518.4707,94.7324 533.4707,94.7324 L543.4707,94.7324" fill="none" style="stroke:#FF5F46;stroke-width:3;"/><rect fill="#0078D4" height="36.4883" rx="12.5" ry="12.5" style="stroke:#0078D4;stroke-width:3;" width="105.5996" x="543.4707" y="189.4648"/><text fill="#FFFFFF" font-family="sans-serif" font-size="14" lengthAdjust="spacing" textLength="85.5996" x="553.4707" y="213">Create via UI</text><rect fill="#FFB900" height="36.4883" rx="12.5" ry="12.5" style="stroke:#FFB900;stroke-width:3;" width="133.0801" x="699.0703" y="189.4648"/><text fill="#000000" font-family="sans-serif" font-size="14" lengthAdjust="spacing" textLength="113.0801" x="709.0703" y="213">Catalog Explorer</text><text fill="#000000" font-family="sans-serif" font-size="14" lengthAdjust="spacing" textLength="74.1494" x="885.1504" y="203.7559">Quality tab</text><path d="M832.1504,207.709 L842.1504,207.709 C857.1504,207.709 857.1504,198.4648 872.1504,198.4648 L882.1504,198.4648" fill="none" style="stroke:#FFB900;stroke-width:3;"/><text fill="#000000" font-family="sans-serif" font-size="14" lengthAdjust="spacing" textLength="129.3906" x="885.1504" y="222.2441">Configure profiling</text><path d="M832.1504,207.709 L842.1504,207.709 C857.1504,207.709 857.1504,216.9531 872.1504,216.9531 L882.1504,216.9531" fill="none" style="stroke:#FFB900;stroke-width:3;"/><path d="M649.0703,207.709 L659.0703,207.709 C674.0703,207.709 674.0703,207.709 689.0703,207.709 L699.0703,207.709" fill="none" style="stroke:#0078D4;stroke-width:3;"/><path d="M493.4707,151.2207 L503.4707,151.2207 C518.4707,151.2207 518.4707,207.709 533.4707,207.709 L543.4707,207.709" fill="none" style="stroke:#FF5F46;stroke-width:3;"/><rect fill="#0078D4" height="36.4883" rx="12.5" ry="12.5" style="stroke:#0078D4;stroke-width:3;" width="113.2969" x="543.4707" y="245.9531"/><text fill="#FFFFFF" font-family="sans-serif" font-size="14" lengthAdjust="spacing" textLength="93.2969" x="553.4707" y="269.4883">Create via API</text><rect fill="#FFB900" height="36.4883" rx="12.5" ry="12.5" style="stroke:#FFB900;stroke-width:3;" width="123.8584" x="706.7676" y="245.9531"/><text fill="#000000" font-family="sans-serif" font-size="14" lengthAdjust="spacing" textLength="103.8584" x="716.7676" y="269.4883">Databricks SDK</text><text fill="#000000" font-family="sans-serif" font-size="14" lengthAdjust="spacing" textLength="112.6426" x="883.626" y="260.2441">WorkspaceClient</text><path d="M830.626,264.1973 L840.626,264.1973 C855.626,264.1973 855.626,254.9531 870.626,254.9531 L880.626,254.9531" fill="none" style="stroke:#FFB900;stroke-width:3;"/><text fill="#000000" font-family="sans-serif" font-size="14" lengthAdjust="spacing" textLength="168.9844" x="883.626" y="278.7324">quality_monitors.create()</text><path d="M830.626,264.1973 L840.626,264.1973 C855.626,264.1973 855.626,273.4414 870.626,273.4414 L880.626,273.4414" fill="none" style="stroke:#FFB900;stroke-width:3;"/><path d="M656.7676,264.1973 L666.7676,264.1973 C681.7676,264.1973 681.7676,264.1973 696.7676,264.1973 L706.7676,264.1973" fill="none" style="stroke:#0078D4;stroke-width:3;"/><path d="M493.4707,151.2207 L503.4707,151.2207 C518.4707,151.2207 518.4707,264.1973 533.4707,264.1973 L543.4707,264.1973" fill="none" style="stroke:#FF5F46;stroke-width:3;"/><rect fill="#0078D4" height="36.4883" rx="12.5" ry="12.5" style="stroke:#0078D4;stroke-width:3;" width="116.3457" x="198.7822" y="132.9766"/><text fill="#FFFFFF" font-family="sans-serif" font-size="14" lengthAdjust="spacing" textLength="96.3457" x="208.7822" y="156.5117">Output Tables</text><text fill="#000000" font-family="sans-serif" font-size="14" lengthAdjust="spacing" textLength="135.7822" x="10" y="147.2676">Profile metrics table</text><path d="M198.7822,151.2207 L188.7822,151.2207 C173.7822,151.2207 173.7822,141.9766 158.7822,141.9766 L148.7822,141.9766" fill="none" style="stroke:#0078D4;stroke-width:3;"/><text fill="#000000" font-family="sans-serif" font-size="14" lengthAdjust="spacing" textLength="123.3203" x="22.4619" y="165.7559">Drift metrics table</text><path d="M198.7822,151.2207 L188.7822,151.2207 C173.7822,151.2207 173.7822,160.4648 158.7822,160.4648 L148.7822,160.4648" fill="none" style="stroke:#0078D4;stroke-width:3;"/><path d="M365.1279,151.2207 L355.1279,151.2207 C340.1279,151.2207 340.1279,151.2207 325.1279,151.2207 L315.1279,151.2207" fill="none" style="stroke:#FF5F46;stroke-width:3;"/><?plantuml-src VLDTQzmm47pthrWeb0JNL-UQf1-4ajQEmz6Kffn3Nmg7JbxVYPCbLP93Zj3_dhKjfzJbkWy6xOndD6DywJoplX6gQfY9BfpVI_mOVQZG-ErHUWoF4T1yPdotiRfLLQQbjl2YACwAq_CUkn4A_zqMMlcmhVjvvfPRmNSAdOCtipJwFNgT7FHAqxVlyjEfrsJxj-ha1aK_Vxpc1xtgUlq-JQTUa-r_lT9-o6kj7sJ7UJp8k7WTweuXPvx1hTMra49jVYgXu4u9luUC0AatKHm76A7S6tIqY66fc75RxRj3l88hvOL5y6nDh0Qz5Tm5w1eLMYOJqrgZNU0C8gLe49Pe1Oxaqb8jRbG0VOyMFB42dAD7xXruYwfoy18gA-h-3h1GDTAMZzIlDz3e2YKzAOssb2qW2sLQxrw1iLW9xeLMT62Sj-Izxz9c5fb7k1SCxXQzUAW2hXuCzOWsA7rlcUoQeaXXasbLYqrBLPYnqOdYfzj1igjzJI4fxJB_4bx_eUtE6SOnamBLMEwlmMOLahWPx-MEZgCaWM-jfpXG3gqcIR9w_bfZYttZ0vHtVKs0I-fo_0kZazaydP_Fvay0?></g></svg>