<?plantuml 1.2026.2?><svg xmlns="http://www.w3.org/2000/svg" xmlns:xlink="http://www.w3.org/1999/xlink" contentStyleType="text/css" data-diagram-type="MINDMAP" height="191px" preserveAspectRatio="none" style="width:1323px;height:191px;background:#FFFFFF;" version="1.1" viewBox="0 0 1323 191" width="1323px" zoomAndPan="magnify"><defs/><g><rect fill="#FF5F46" height="52.9766" rx="12.5" ry="12.5" style="stroke:#FF5F46;stroke-width:3;" width="118.1367" x="485.1943" y="68.2441"/><text fill="#FFFFFF" font-family="sans-serif" font-size="14" lengthAdjust="spacing" textLength="98.1367" x="495.1943" y="91.7793">Type Selection</text><text fill="#FFFFFF" font-family="sans-serif" font-size="14" lengthAdjust="spacing" textLength="92.415" x="495.1943" y="108.2676">Best Practices</text><rect fill="#0078D4" height="36.4883" rx="12.5" ry="12.5" style="stroke:#0078D4;stroke-width:3;" width="189.791" x="653.3311" y="20"/><text fill="#FFFFFF" font-family="sans-serif" font-size="14" lengthAdjust="spacing" textLength="169.791" x="663.3311" y="43.5352">Match type to data range</text><rect fill="#FFB900" height="36.4883" rx="12.5" ry="12.5" style="stroke:#FFB900;stroke-width:3;" width="161.0254" x="893.1221" y="20"/><text fill="#000000" font-family="sans-serif" font-size="14" lengthAdjust="spacing" textLength="141.0254" x="903.1221" y="43.5352">Don't over-provision</text><text fill="#000000" font-family="sans-serif" font-size="14" lengthAdjust="spacing" textLength="170.3242" x="1107.1475" y="34.291">BIGINT vs INT vs TINYINT</text><path d="M1054.1475,38.2441 L1064.1475,38.2441 C1079.1475,38.2441 1079.1475,29 1094.1475,29 L1104.1475,29" fill="none" style="stroke:#FFB900;stroke-width:3;"/><text fill="#000000" font-family="sans-serif" font-size="14" lengthAdjust="spacing" textLength="204.1279" x="1107.1475" y="52.7793">Extra bytes &#215; millions of rows</text><path d="M1054.1475,38.2441 L1064.1475,38.2441 C1079.1475,38.2441 1079.1475,47.4883 1094.1475,47.4883 L1104.1475,47.4883" fill="none" style="stroke:#FFB900;stroke-width:3;"/><path d="M843.1221,38.2441 L853.1221,38.2441 C868.1221,38.2441 868.1221,38.2441 883.1221,38.2441 L893.1221,38.2441" fill="none" style="stroke:#0078D4;stroke-width:3;"/><path d="M603.3311,94.7324 L613.3311,94.7324 C628.3311,94.7324 628.3311,38.2441 643.3311,38.2441 L653.3311,38.2441" fill="none" style="stroke:#FF5F46;stroke-width:3;"/><rect fill="#0078D4" height="36.4883" rx="12.5" ry="12.5" style="stroke:#0078D4;stroke-width:3;" width="151.6328" x="653.3311" y="76.4883"/><text fill="#FFFFFF" font-family="sans-serif" font-size="14" lengthAdjust="spacing" textLength="131.6328" x="663.3311" y="100.0234">Consider nullability</text><rect fill="#FFB900" height="36.4883" rx="12.5" ry="12.5" style="stroke:#FFB900;stroke-width:3;" width="169.5703" x="854.9639" y="76.4883"/><text fill="#000000" font-family="sans-serif" font-size="14" lengthAdjust="spacing" textLength="149.5703" x="864.9639" y="100.0234">Document constraints</text><text fill="#000000" font-family="sans-serif" font-size="14" lengthAdjust="spacing" textLength="200.5596" x="1077.5342" y="100.0234">Add NOT NULL where needed</text><path d="M1024.5342,94.7324 L1034.5342,94.7324 C1049.5342,94.7324 1049.5342,94.7324 1064.5342,94.7324 L1074.5342,94.7324" fill="none" style="stroke:#FFB900;stroke-width:3;"/><path d="M804.9639,94.7324 L814.9639,94.7324 C829.9639,94.7324 829.9639,94.7324 844.9639,94.7324 L854.9639,94.7324" fill="none" style="stroke:#0078D4;stroke-width:3;"/><path d="M603.3311,94.7324 L613.3311,94.7324 C628.3311,94.7324 628.3311,94.7324 643.3311,94.7324 L653.3311,94.7324" fill="none" style="stroke:#FF5F46;stroke-width:3;"/><rect fill="#0078D4" height="36.4883" rx="12.5" ry="12.5" style="stroke:#0078D4;stroke-width:3;" width="163.6777" x="653.3311" y="132.9766"/><text fill="#FFFFFF" font-family="sans-serif" font-size="14" lengthAdjust="spacing" textLength="143.6777" x="663.3311" y="156.5117">Validate on ingestion</text><rect fill="#FFB900" height="36.4883" rx="12.5" ry="12.5" style="stroke:#FFB900;stroke-width:3;" width="162.4883" x="867.0088" y="132.9766"/><text fill="#000000" font-family="sans-serif" font-size="14" lengthAdjust="spacing" textLength="142.4883" x="877.0088" y="156.5117">Cast early in pipeline</text><text fill="#000000" font-family="sans-serif" font-size="14" lengthAdjust="spacing" textLength="138.2363" x="1082.4971" y="147.2676">CAST(raw_id AS INT)</text><path d="M1029.4971,151.2207 L1039.4971,151.2207 C1054.4971,151.2207 1054.4971,141.9766 1069.4971,141.9766 L1079.4971,141.9766" fill="none" style="stroke:#FFB900;stroke-width:3;"/><text fill="#000000" font-family="sans-serif" font-size="14" lengthAdjust="spacing" textLength="161.082" x="1082.4971" y="165.7559">Catch mismatches early</text><path d="M1029.4971,151.2207 L1039.4971,151.2207 C1054.4971,151.2207 1054.4971,160.4648 1069.4971,160.4648 L1079.4971,160.4648" fill="none" style="stroke:#FFB900;stroke-width:3;"/><path d="M817.0088,151.2207 L827.0088,151.2207 C842.0088,151.2207 842.0088,151.2207 857.0088,151.2207 L867.0088,151.2207" fill="none" style="stroke:#0078D4;stroke-width:3;"/><path d="M603.3311,94.7324 L613.3311,94.7324 C628.3311,94.7324 628.3311,151.2207 643.3311,151.2207 L653.3311,151.2207" fill="none" style="stroke:#FF5F46;stroke-width:3;"/><rect fill="#0078D4" height="36.4883" rx="12.5" ry="12.5" style="stroke:#0078D4;stroke-width:3;" width="110.8906" x="324.3037" y="48.2441"/><text fill="#FFFFFF" font-family="sans-serif" font-size="14" lengthAdjust="spacing" textLength="90.8906" x="334.3037" y="71.7793">Explicit Casts</text><text fill="#000000" font-family="sans-serif" font-size="14" lengthAdjust="spacing" textLength="145.2773" x="126.0264" y="53.291">Make intentions clear</text><path d="M324.3037,66.4883 L314.3037,66.4883 C299.3037,66.4883 299.3037,48 284.3037,48 L274.3037,48" fill="none" style="stroke:#0078D4;stroke-width:3;"/><text fill="#000000" font-family="sans-serif" font-size="14" lengthAdjust="spacing" textLength="145.0381" x="126.2656" y="71.7793">Avoid silent data loss</text><path d="M324.3037,66.4883 L314.3037,66.4883 C299.3037,66.4883 299.3037,66.4883 284.3037,66.4883 L274.3037,66.4883" fill="none" style="stroke:#0078D4;stroke-width:3;"/><text fill="#000000" font-family="sans-serif" font-size="14" lengthAdjust="spacing" textLength="138.5098" x="132.7939" y="90.2676">Helps during testing</text><path d="M324.3037,66.4883 L314.3037,66.4883 C299.3037,66.4883 299.3037,84.9766 284.3037,84.9766 L274.3037,84.9766" fill="none" style="stroke:#0078D4;stroke-width:3;"/><path d="M485.1943,94.7324 L475.1943,94.7324 C460.1943,94.7324 460.1943,66.4883 445.1943,66.4883 L435.1943,66.4883" fill="none" style="stroke:#FF5F46;stroke-width:3;"/><rect fill="#0078D4" height="36.4883" rx="12.5" ry="12.5" style="stroke:#0078D4;stroke-width:3;" width="187.6855" x="247.5088" y="104.7324"/><text fill="#FFFFFF" font-family="sans-serif" font-size="14" lengthAdjust="spacing" textLength="167.6855" x="257.5088" y="128.2676">Types as Documentation</text><text fill="#000000" font-family="sans-serif" font-size="14" lengthAdjust="spacing" textLength="184.5088" x="10" y="119.0234">Serve as pipeline validation</text><path d="M247.5088,122.9766 L237.5088,122.9766 C222.5088,122.9766 222.5088,113.7324 207.5088,113.7324 L197.5088,113.7324" fill="none" style="stroke:#0078D4;stroke-width:3;"/><text fill="#000000" font-family="sans-serif" font-size="14" lengthAdjust="spacing" textLength="128.2354" x="66.2734" y="137.5117">Errors caught early</text><path d="M247.5088,122.9766 L237.5088,122.9766 C222.5088,122.9766 222.5088,132.2207 207.5088,132.2207 L197.5088,132.2207" fill="none" style="stroke:#0078D4;stroke-width:3;"/><path d="M485.1943,94.7324 L475.1943,94.7324 C460.1943,94.7324 460.1943,122.9766 445.1943,122.9766 L435.1943,122.9766" fill="none" style="stroke:#FF5F46;stroke-width:3;"/><?plantuml-src VLFRRXen47tVhnYf3qs4e1kQfXT5LO241edIIcmhLQg4p7e02w-zieSbAEftz8FwOnqxXgfKT5xMdZDppfnP-SQJS5Gf8ojHPzUUTXhVP-yarhGwoy_XCGEElYZNIsStHWwijWwU3OUlXfTN4HihW_zcXzPGoYvY76gBbIhN1hs7bvqy-x7NkZYfbUUltznU7ciTPVzcFPfW6EEFLlUarc8nVvldnrf7sVzgvJ5OQsuVTAXvF5bn_IAjkmN5haQOeiQIb3NVJHyzmMSd-5gYprej-2YeN065Eh8W1GbmmYoHiHRSMlESm3ReshMpZV9C4e3M3FgZ3wD90Os7z2b6aszyJF3T0pa1ynsXXry_eL9QSwy7km1djr5vm7SbqO7PQ2tcIYlQ9TLoKw4XABc2QPGXdsXxKiBaKm6JB-CnR5Ve40oYH1a8lmgjs022DQ3OWgSqBWm4sqRXz8u1g5MDclUTE0UzQN7cn7Qc9FIcmSxv7ecxgPIlme6TH8gitMPxjLQbeiZiETEUyIRNoFJ4aqUhfURo9wZNM2RtIWTNSSVQ-jHsZxhs83UEHmOAGvjba0Y_peFmXtM8Q2VsJD4r6B2z5MYUl1ygxfopZcSGc-KgMSzka5zZUf7PHQURTwywtTy0?></g></svg>