<?plantuml 1.2026.2?><svg xmlns="http://www.w3.org/2000/svg" xmlns:xlink="http://www.w3.org/1999/xlink" contentStyleType="text/css" data-diagram-type="MINDMAP" height="134px" preserveAspectRatio="none" style="width:1435px;height:134px;background:#FFFFFF;" version="1.1" viewBox="0 0 1435 134" width="1435px" zoomAndPan="magnify"><defs/><g><rect fill="#FF5F46" height="52.9766" rx="12.5" ry="12.5" style="stroke:#FF5F46;stroke-width:3;" width="139.5811" x="668.6641" y="40"/><text fill="#FFFFFF" font-family="sans-serif" font-size="14" lengthAdjust="spacing" textLength="119.5811" x="678.6641" y="63.5352">Choose Temporal</text><text fill="#FFFFFF" font-family="sans-serif" font-size="14" lengthAdjust="spacing" textLength="105.6563" x="678.6641" y="80.0234">Types Correctly</text><rect fill="#0078D4" height="36.4883" rx="12.5" ry="12.5" style="stroke:#0078D4;stroke-width:3;" width="56.5859" x="858.2451" y="20"/><text fill="#FFFFFF" font-family="sans-serif" font-size="14" lengthAdjust="spacing" textLength="36.5859" x="868.2451" y="43.5352">DATE</text><rect fill="#FFB900" height="36.4883" rx="12.5" ry="12.5" style="stroke:#FFB900;stroke-width:3;" width="154.4492" x="964.8311" y="20"/><text fill="#000000" font-family="sans-serif" font-size="14" lengthAdjust="spacing" textLength="134.4492" x="974.8311" y="43.5352">Calendar dates only</text><text fill="#000000" font-family="sans-serif" font-size="14" lengthAdjust="spacing" textLength="134.6201" x="1172.2803" y="34.291">No time component</text><path d="M1119.2803,38.2441 L1129.2803,38.2441 C1144.2803,38.2441 1144.2803,29 1159.2803,29 L1169.2803,29" fill="none" style="stroke:#FFB900;stroke-width:3;"/><text fill="#000000" font-family="sans-serif" font-size="14" lengthAdjust="spacing" textLength="140.793" x="1172.2803" y="52.7793">hire_date, birth_date</text><path d="M1119.2803,38.2441 L1129.2803,38.2441 C1144.2803,38.2441 1144.2803,47.4883 1159.2803,47.4883 L1169.2803,47.4883" fill="none" style="stroke:#FFB900;stroke-width:3;"/><path d="M914.8311,38.2441 L924.8311,38.2441 C939.8311,38.2441 939.8311,38.2441 954.8311,38.2441 L964.8311,38.2441" fill="none" style="stroke:#0078D4;stroke-width:3;"/><path d="M808.2451,66.4883 L818.2451,66.4883 C833.2451,66.4883 833.2451,38.2441 848.2451,38.2441 L858.2451,38.2441" fill="none" style="stroke:#FF5F46;stroke-width:3;"/><rect fill="#0078D4" height="36.4883" rx="12.5" ry="12.5" style="stroke:#0078D4;stroke-width:3;" width="98.3809" x="858.2451" y="76.4883"/><text fill="#FFFFFF" font-family="sans-serif" font-size="14" lengthAdjust="spacing" textLength="78.3809" x="868.2451" y="100.0234">TIMESTAMP</text><rect fill="#FFB900" height="36.4883" rx="12.5" ry="12.5" style="stroke:#FFB900;stroke-width:3;" width="134.7617" x="1006.626" y="76.4883"/><text fill="#000000" font-family="sans-serif" font-size="14" lengthAdjust="spacing" textLength="114.7617" x="1016.626" y="100.0234">Timezone-aware</text><text fill="#000000" font-family="sans-serif" font-size="14" lengthAdjust="spacing" textLength="195.2207" x="1194.3877" y="81.5352">Normalizes to UTC internally</text><path d="M1141.3877,94.7324 L1151.3877,94.7324 C1166.3877,94.7324 1166.3877,76.2441 1181.3877,76.2441 L1191.3877,76.2441" fill="none" style="stroke:#FFB900;stroke-width:3;"/><text fill="#000000" font-family="sans-serif" font-size="14" lengthAdjust="spacing" textLength="229.2021" x="1194.3877" y="100.0234">Applies session timezone on read</text><path d="M1141.3877,94.7324 L1151.3877,94.7324 C1166.3877,94.7324 1166.3877,94.7324 1181.3877,94.7324 L1191.3877,94.7324" fill="none" style="stroke:#FFB900;stroke-width:3;"/><text fill="#000000" font-family="sans-serif" font-size="14" lengthAdjust="spacing" textLength="157.9922" x="1194.3877" y="118.5117">Cross-timezone events</text><path d="M1141.3877,94.7324 L1151.3877,94.7324 C1166.3877,94.7324 1166.3877,113.2207 1181.3877,113.2207 L1191.3877,113.2207" fill="none" style="stroke:#FFB900;stroke-width:3;"/><path d="M956.626,94.7324 L966.626,94.7324 C981.626,94.7324 981.626,94.7324 996.626,94.7324 L1006.626,94.7324" fill="none" style="stroke:#0078D4;stroke-width:3;"/><path d="M808.2451,66.4883 L818.2451,66.4883 C833.2451,66.4883 833.2451,94.7324 848.2451,94.7324 L858.2451,94.7324" fill="none" style="stroke:#FF5F46;stroke-width:3;"/><rect fill="#0078D4" height="36.4883" rx="12.5" ry="12.5" style="stroke:#0078D4;stroke-width:3;" width="133.0391" x="485.625" y="20"/><text fill="#FFFFFF" font-family="sans-serif" font-size="14" lengthAdjust="spacing" textLength="113.0391" x="495.625" y="43.5352">TIMESTAMP_NTZ</text><rect fill="#FFB900" height="36.4883" rx="12.5" ry="12.5" style="stroke:#FFB900;stroke-width:3;" width="184.7734" x="250.8516" y="20"/><text fill="#000000" font-family="sans-serif" font-size="14" lengthAdjust="spacing" textLength="164.7734" x="260.8516" y="43.5352">No timezone conversion</text><text fill="#000000" font-family="sans-serif" font-size="14" lengthAdjust="spacing" textLength="82.2979" x="115.5537" y="34.291">Stored as-is</text><path d="M250.8516,38.2441 L240.8516,38.2441 C225.8516,38.2441 225.8516,29 210.8516,29 L200.8516,29" fill="none" style="stroke:#FFB900;stroke-width:3;"/><text fill="#000000" font-family="sans-serif" font-size="14" lengthAdjust="spacing" textLength="187.8516" x="10" y="52.7793">Local schedules &amp; meetings</text><path d="M250.8516,38.2441 L240.8516,38.2441 C225.8516,38.2441 225.8516,47.4883 210.8516,47.4883 L200.8516,47.4883" fill="none" style="stroke:#FFB900;stroke-width:3;"/><path d="M485.625,38.2441 L475.625,38.2441 C460.625,38.2441 460.625,38.2441 445.625,38.2441 L435.625,38.2441" fill="none" style="stroke:#0078D4;stroke-width:3;"/><path d="M668.6641,66.4883 L658.6641,66.4883 C643.6641,66.4883 643.6641,38.2441 628.6641,38.2441 L618.6641,38.2441" fill="none" style="stroke:#FF5F46;stroke-width:3;"/><rect fill="#0078D4" height="36.4883" rx="12.5" ry="12.5" style="stroke:#0078D4;stroke-width:3;" width="124.8223" x="493.8418" y="76.4883"/><text fill="#FFFFFF" font-family="sans-serif" font-size="14" lengthAdjust="spacing" textLength="104.8223" x="503.8418" y="100.0234">Selection Guide</text><text fill="#000000" font-family="sans-serif" font-size="14" lengthAdjust="spacing" textLength="123.7783" x="317.0635" y="81.5352">Date only &#8594; DATE</text><path d="M493.8418,94.7324 L483.8418,94.7324 C468.8418,94.7324 468.8418,76.2441 453.8418,76.2441 L443.8418,76.2441" fill="none" style="stroke:#0078D4;stroke-width:3;"/><text fill="#000000" font-family="sans-serif" font-size="14" lengthAdjust="spacing" textLength="259.2324" x="181.6094" y="100.0234">Cross-timezone events &#8594; TIMESTAMP</text><path d="M493.8418,94.7324 L483.8418,94.7324 C468.8418,94.7324 468.8418,94.7324 453.8418,94.7324 L443.8418,94.7324" fill="none" style="stroke:#0078D4;stroke-width:3;"/><text fill="#000000" font-family="sans-serif" font-size="14" lengthAdjust="spacing" textLength="245.2598" x="195.582" y="118.5117">Time as entered &#8594; TIMESTAMP_NTZ</text><path d="M493.8418,94.7324 L483.8418,94.7324 C468.8418,94.7324 468.8418,113.2207 453.8418,113.2207 L443.8418,113.2207" fill="none" style="stroke:#0078D4;stroke-width:3;"/><path d="M668.6641,66.4883 L658.6641,66.4883 C643.6641,66.4883 643.6641,94.7324 628.6641,94.7324 L618.6641,94.7324" fill="none" style="stroke:#FF5F46;stroke-width:3;"/><?plantuml-src VLDTQzj047pNhrWeb1P5hk8cwGUXn9MZKaX2mTUNKZ1dtJewSheLT-UaJkXhVq1_Odz9LrVP9chTVP6OdPkP6w4p7wGBZRQgaMrowiFQuBlahS8srC_ov_2G0CzxMTrSErfPLP0X1q_AyhWyEecx2stnRxGa6tfq6MVB5RMkRYnw3oz7UV9zutMurolFNxsU7Wsz1kXZrK62CixEQxpNQxbSlCdpeTS0_QzN7eUz5lJDT9o7lOpJ5ttTAHGraKSGsBJafFbgnRf53mKvXrKmwoHDOJeHv_naiZHebNIWP60IsRXFqpbS4GJT85J4EXPjwF5QEvntx0DOQ1Vg-DvfYe-NvpCnkVmKXGMVlUTpcRoJ3hUQhf56txDJ8FWi2j0seBFIR6qdRMiqxptVLvED6JeTZWOEfUffXIFli-qIRpcWJx9ibs9-9Ruma6qk4daLsLjqdN2tokOm2-HGWVIPzZrqGPKquAiQrOfRXwVG80PjhwF-30sts2NxiD8AatXaoXN4xk3NZvz_oetuFrD6pgwiIEpQuX20NHsSvn4btkICFzFcrqeEH-DyV38Q_mO0?></g></svg>