<?plantuml 1.2026.2?><svg xmlns="http://www.w3.org/2000/svg" xmlns:xlink="http://www.w3.org/1999/xlink" contentStyleType="text/css" data-diagram-type="MINDMAP" height="247px" preserveAspectRatio="none" style="width:1289px;height:247px;background:#FFFFFF;" version="1.1" viewBox="0 0 1289 247" width="1289px" zoomAndPan="magnify"><defs/><g><rect fill="#FF5F46" height="52.9766" rx="12.5" ry="12.5" style="stroke:#FF5F46;stroke-width:3;" width="125.7314" x="640.6436" y="96.4883"/><text fill="#FFFFFF" font-family="sans-serif" font-size="14" lengthAdjust="spacing" textLength="105.7314" x="650.6436" y="120.0234">Select the Right</text><text fill="#FFFFFF" font-family="sans-serif" font-size="14" lengthAdjust="spacing" textLength="94.0557" x="650.6436" y="136.5117">Numeric Type</text><rect fill="#0078D4" height="36.4883" rx="12.5" ry="12.5" style="stroke:#0078D4;stroke-width:3;" width="127.1191" x="816.375" y="104.7324"/><text fill="#FFFFFF" font-family="sans-serif" font-size="14" lengthAdjust="spacing" textLength="107.1191" x="826.375" y="128.2676">Whole Numbers</text><rect fill="#FFB900" height="36.4883" rx="12.5" ry="12.5" style="stroke:#FFB900;stroke-width:3;" width="75.1797" x="993.4941" y="20"/><text fill="#000000" font-family="sans-serif" font-size="14" lengthAdjust="spacing" textLength="55.1797" x="1003.4941" y="43.5352">TINYINT</text><text fill="#000000" font-family="sans-serif" font-size="14" lengthAdjust="spacing" textLength="135.2148" x="1121.6738" y="34.291">-128 to 127, 1 byte</text><path d="M1068.6738,38.2441 L1078.6738,38.2441 C1093.6738,38.2441 1093.6738,29 1108.6738,29 L1118.6738,29" fill="none" style="stroke:#FFB900;stroke-width:3;"/><text fill="#000000" font-family="sans-serif" font-size="14" lengthAdjust="spacing" textLength="85.5176" x="1121.6738" y="52.7793">Status codes</text><path d="M1068.6738,38.2441 L1078.6738,38.2441 C1093.6738,38.2441 1093.6738,47.4883 1108.6738,47.4883 L1118.6738,47.4883" fill="none" style="stroke:#FFB900;stroke-width:3;"/><path d="M943.4941,122.9766 L953.4941,122.9766 C968.4941,122.9766 968.4941,38.2441 983.4941,38.2441 L993.4941,38.2441" fill="none" style="stroke:#0078D4;stroke-width:3;"/><rect fill="#FFB900" height="36.4883" rx="12.5" ry="12.5" style="stroke:#FFB900;stroke-width:3;" width="87.416" x="993.4941" y="76.4883"/><text fill="#000000" font-family="sans-serif" font-size="14" lengthAdjust="spacing" textLength="67.416" x="1003.4941" y="100.0234">SMALLINT</text><text fill="#000000" font-family="sans-serif" font-size="14" lengthAdjust="spacing" textLength="141.0117" x="1133.9102" y="90.7793">-32k to 32k, 2 bytes</text><path d="M1080.9102,94.7324 L1090.9102,94.7324 C1105.9102,94.7324 1105.9102,85.4883 1120.9102,85.4883 L1130.9102,85.4883" fill="none" style="stroke:#FFB900;stroke-width:3;"/><text fill="#000000" font-family="sans-serif" font-size="14" lengthAdjust="spacing" textLength="77.0615" x="1133.9102" y="109.2676">Year values</text><path d="M1080.9102,94.7324 L1090.9102,94.7324 C1105.9102,94.7324 1105.9102,103.9766 1120.9102,103.9766 L1130.9102,103.9766" fill="none" style="stroke:#FFB900;stroke-width:3;"/><path d="M943.4941,122.9766 L953.4941,122.9766 C968.4941,122.9766 968.4941,94.7324 983.4941,94.7324 L993.4941,94.7324" fill="none" style="stroke:#0078D4;stroke-width:3;"/><rect fill="#FFB900" height="36.4883" rx="12.5" ry="12.5" style="stroke:#FFB900;stroke-width:3;" width="43.2285" x="993.4941" y="132.9766"/><text fill="#000000" font-family="sans-serif" font-size="14" lengthAdjust="spacing" textLength="23.2285" x="1003.4941" y="156.5117">INT</text><text fill="#000000" font-family="sans-serif" font-size="14" lengthAdjust="spacing" textLength="138.4209" x="1089.7227" y="147.2676">&#177;2.1 billion, 4 bytes</text><path d="M1036.7227,151.2207 L1046.7227,151.2207 C1061.7227,151.2207 1061.7227,141.9766 1076.7227,141.9766 L1086.7227,141.9766" fill="none" style="stroke:#FFB900;stroke-width:3;"/><text fill="#000000" font-family="sans-serif" font-size="14" lengthAdjust="spacing" textLength="101.2676" x="1089.7227" y="165.7559">IDs and counts</text><path d="M1036.7227,151.2207 L1046.7227,151.2207 C1061.7227,151.2207 1061.7227,160.4648 1076.7227,160.4648 L1086.7227,160.4648" fill="none" style="stroke:#FFB900;stroke-width:3;"/><path d="M943.4941,122.9766 L953.4941,122.9766 C968.4941,122.9766 968.4941,151.2207 983.4941,151.2207 L993.4941,151.2207" fill="none" style="stroke:#0078D4;stroke-width:3;"/><rect fill="#FFB900" height="36.4883" rx="12.5" ry="12.5" style="stroke:#FFB900;stroke-width:3;" width="65.4316" x="993.4941" y="189.4648"/><text fill="#000000" font-family="sans-serif" font-size="14" lengthAdjust="spacing" textLength="45.4316" x="1003.4941" y="213">BIGINT</text><text fill="#000000" font-family="sans-serif" font-size="14" lengthAdjust="spacing" textLength="165.0811" x="1111.9258" y="203.7559">&#177;9.2 quintillion, 8 bytes</text><path d="M1058.9258,207.709 L1068.9258,207.709 C1083.9258,207.709 1083.9258,198.4648 1098.9258,198.4648 L1108.9258,198.4648" fill="none" style="stroke:#FFB900;stroke-width:3;"/><text fill="#000000" font-family="sans-serif" font-size="14" lengthAdjust="spacing" textLength="147.4648" x="1111.9258" y="222.2441">Large IDs, row counts</text><path d="M1058.9258,207.709 L1068.9258,207.709 C1083.9258,207.709 1083.9258,216.9531 1098.9258,216.9531 L1108.9258,216.9531" fill="none" style="stroke:#FFB900;stroke-width:3;"/><path d="M943.4941,122.9766 L953.4941,122.9766 C968.4941,122.9766 968.4941,207.709 983.4941,207.709 L993.4941,207.709" fill="none" style="stroke:#0078D4;stroke-width:3;"/><path d="M766.375,122.9766 L776.375,122.9766 C791.375,122.9766 791.375,122.9766 806.375,122.9766 L816.375,122.9766" fill="none" style="stroke:#FF5F46;stroke-width:3;"/><rect fill="#0078D4" height="36.4883" rx="12.5" ry="12.5" style="stroke:#0078D4;stroke-width:3;" width="140.3604" x="450.2832" y="81.3662"/><text fill="#FFFFFF" font-family="sans-serif" font-size="14" lengthAdjust="spacing" textLength="120.3604" x="460.2832" y="104.9014">Decimal Numbers</text><rect fill="#FFB900" height="36.4883" rx="12.5" ry="12.5" style="stroke:#FFB900;stroke-width:3;" width="110.46" x="289.8232" y="53.1221"/><text fill="#000000" font-family="sans-serif" font-size="14" lengthAdjust="spacing" textLength="90.46" x="299.8232" y="76.6572">DECIMAL(p,s)</text><text fill="#000000" font-family="sans-serif" font-size="14" lengthAdjust="spacing" textLength="102.7715" x="134.0518" y="58.1689">Exact precision</text><path d="M289.8232,71.3662 L279.8232,71.3662 C264.8232,71.3662 264.8232,52.8779 249.8232,52.8779 L239.8232,52.8779" fill="none" style="stroke:#FFB900;stroke-width:3;"/><text fill="#000000" font-family="sans-serif" font-size="14" lengthAdjust="spacing" textLength="93.5977" x="143.2256" y="76.6572">Financial data</text><path d="M289.8232,71.3662 L279.8232,71.3662 C264.8232,71.3662 264.8232,71.3662 249.8232,71.3662 L239.8232,71.3662" fill="none" style="stroke:#FFB900;stroke-width:3;"/><text fill="#000000" font-family="sans-serif" font-size="14" lengthAdjust="spacing" textLength="226.8232" x="10" y="95.1455">p = total digits, s = after decimal</text><path d="M289.8232,71.3662 L279.8232,71.3662 C264.8232,71.3662 264.8232,89.8545 249.8232,89.8545 L239.8232,89.8545" fill="none" style="stroke:#FFB900;stroke-width:3;"/><path d="M450.2832,99.6104 L440.2832,99.6104 C425.2832,99.6104 425.2832,71.3662 410.2832,71.3662 L400.2832,71.3662" fill="none" style="stroke:#0078D4;stroke-width:3;"/><rect fill="#FFB900" height="36.4883" rx="12.5" ry="12.5" style="stroke:#FFB900;stroke-width:3;" width="134.7275" x="265.5557" y="109.6104"/><text fill="#000000" font-family="sans-serif" font-size="14" lengthAdjust="spacing" textLength="114.7275" x="275.5557" y="133.1455">FLOAT / DOUBLE</text><text fill="#000000" font-family="sans-serif" font-size="14" lengthAdjust="spacing" textLength="88.0811" x="124.4746" y="114.6572">Approximate</text><path d="M265.5557,127.8545 L255.5557,127.8545 C240.5557,127.8545 240.5557,109.3662 225.5557,109.3662 L215.5557,109.3662" fill="none" style="stroke:#FFB900;stroke-width:3;"/><text fill="#000000" font-family="sans-serif" font-size="14" lengthAdjust="spacing" textLength="145.6191" x="66.9365" y="133.1455">Scientific calculations</text><path d="M265.5557,127.8545 L255.5557,127.8545 C240.5557,127.8545 240.5557,127.8545 225.5557,127.8545 L215.5557,127.8545" fill="none" style="stroke:#FFB900;stroke-width:3;"/><text fill="#000000" font-family="sans-serif" font-size="14" lengthAdjust="spacing" textLength="171.0762" x="41.4795" y="151.6338">Rounding errors possible</text><path d="M265.5557,127.8545 L255.5557,127.8545 C240.5557,127.8545 240.5557,146.3428 225.5557,146.3428 L215.5557,146.3428" fill="none" style="stroke:#FFB900;stroke-width:3;"/><path d="M450.2832,99.6104 L440.2832,99.6104 C425.2832,99.6104 425.2832,127.8545 410.2832,127.8545 L400.2832,127.8545" fill="none" style="stroke:#0078D4;stroke-width:3;"/><path d="M640.6436,122.9766 L630.6436,122.9766 C615.6436,122.9766 615.6436,99.6104 600.6436,99.6104 L590.6436,99.6104" fill="none" style="stroke:#FF5F46;stroke-width:3;"/><rect fill="#0078D4" height="36.4883" rx="12.5" ry="12.5" style="stroke:#0078D4;stroke-width:3;" width="78.0713" x="512.5723" y="156.3428"/><text fill="#FFFFFF" font-family="sans-serif" font-size="14" lengthAdjust="spacing" textLength="58.0713" x="522.5723" y="179.8779">Key Rule</text><text fill="#000000" font-family="sans-serif" font-size="14" lengthAdjust="spacing" textLength="163.8506" x="295.7217" y="170.6338">Use DECIMAL for money</text><path d="M512.5723,174.5869 L502.5723,174.5869 C487.5723,174.5869 487.5723,165.3428 472.5723,165.3428 L462.5723,165.3428" fill="none" style="stroke:#0078D4;stroke-width:3;"/><text fill="#000000" font-family="sans-serif" font-size="14" lengthAdjust="spacing" textLength="212.625" x="246.9473" y="189.1221">Floating point &#8800; exact base-10</text><path d="M512.5723,174.5869 L502.5723,174.5869 C487.5723,174.5869 487.5723,183.8311 472.5723,183.8311 L462.5723,183.8311" fill="none" style="stroke:#0078D4;stroke-width:3;"/><path d="M640.6436,122.9766 L630.6436,122.9766 C615.6436,122.9766 615.6436,174.5869 600.6436,174.5869 L590.6436,174.5869" fill="none" style="stroke:#FF5F46;stroke-width:3;"/><?plantuml-src VLDHRjf04FttAKRgJo8miHsQa2gj0W5Ng0wHWAYAL2bQssDOiUowk-iM5FK0kKMlq2lqA3r9nyOaWOhEpwxUp7jlPtRtobYcxPBBTCbovzBOjS0FphiKSpi_yexXqG6A7aiMCwqAcLuheJIy2SEtOVkioaLSuhzegAIjqQoAvzhfd2SBYSR0QSjpVcoz_8DUddVUwRVtlVRGNTMz4uHLl7W51xsoBBxml7slFVI_NbuLv1MhbIXh7WzMN9xKusx010Kc5kmSOSndS_j5ZeebQfx0T9sZqsZ0vxaI28J6g0q13PWEH_V3qRJSDnx0zOCEM0L-SDu47-ArnJepiSmM1XALueOukUb6qIlcQR0ecRGq8QYOfaxT8zFmZOcYPhwGVlyAMkJ2XU1ADg6zGnls3J2PacKXxORP6tvyJRve1V2ruD9k1Jex0X7JConbcg3LzwsEwq8V4xvaudaEReaDheVKqL7UDCSbu3x0OCLechccQaFoDHfooMJ2YPuoosemX_VKl2r1FkEM70qXBBEe8TsuLIvXTDkTmWdqR-zwqQ0cT_DSgnNLqB0to2JXI5rbT7C94qaXcAK3c3exBfyQbpD0hPKsa2jZU2nACdp2DOoBQa-LTmQtZK56hsQf9AutgL0e4YMHND40uS_JJy2gtvWPT7tFkKBwpVMFTlnMu0LdhU0l?></g></svg>