<?plantuml 1.2026.2?><svg xmlns="http://www.w3.org/2000/svg" xmlns:xlink="http://www.w3.org/1999/xlink" contentStyleType="text/css" data-diagram-type="MINDMAP" height="360px" preserveAspectRatio="none" style="width:1233px;height:360px;background:#FFFFFF;" version="1.1" viewBox="0 0 1233 360" width="1233px" zoomAndPan="magnify"><defs/><g><rect fill="#FF5F46" height="52.9766" rx="12.5" ry="12.5" style="stroke:#FF5F46;stroke-width:3;" width="92.4951" x="517.7813" y="152.9766"/><text fill="#FFFFFF" font-family="sans-serif" font-size="14" lengthAdjust="spacing" textLength="68.3936" x="527.7813" y="176.5117">Data Type</text><text fill="#FFFFFF" font-family="sans-serif" font-size="14" lengthAdjust="spacing" textLength="72.4951" x="527.7813" y="193">Categories</text><rect fill="#0078D4" height="36.4883" rx="12.5" ry="12.5" style="stroke:#0078D4;stroke-width:3;" width="121.1924" x="660.2764" y="76.4883"/><text fill="#FFFFFF" font-family="sans-serif" font-size="14" lengthAdjust="spacing" textLength="101.1924" x="670.2764" y="100.0234">Numeric Types</text><rect fill="#FFB900" height="36.4883" rx="12.5" ry="12.5" style="stroke:#FFB900;stroke-width:3;" width="71.9941" x="831.4688" y="20"/><text fill="#000000" font-family="sans-serif" font-size="14" lengthAdjust="spacing" textLength="51.9941" x="841.4688" y="43.5352">Integral</text><text fill="#000000" font-family="sans-serif" font-size="14" lengthAdjust="spacing" textLength="217.834" x="956.4629" y="43.5352">TINYINT, SMALLINT, INT, BIGINT</text><path d="M903.4629,38.2441 L913.4629,38.2441 C928.4629,38.2441 928.4629,38.2441 943.4629,38.2441 L953.4629,38.2441" fill="none" style="stroke:#FFB900;stroke-width:3;"/><path d="M781.4688,94.7324 L791.4688,94.7324 C806.4688,94.7324 806.4688,38.2441 821.4688,38.2441 L831.4688,38.2441" fill="none" style="stroke:#0078D4;stroke-width:3;"/><rect fill="#FFB900" height="36.4883" rx="12.5" ry="12.5" style="stroke:#FFB900;stroke-width:3;" width="74.3525" x="831.4688" y="76.4883"/><text fill="#000000" font-family="sans-serif" font-size="14" lengthAdjust="spacing" textLength="54.3525" x="841.4688" y="100.0234">Decimal</text><text fill="#000000" font-family="sans-serif" font-size="14" lengthAdjust="spacing" textLength="210.4033" x="958.8213" y="100.0234">DECIMAL(p,s) - exact precision</text><path d="M905.8213,94.7324 L915.8213,94.7324 C930.8213,94.7324 930.8213,94.7324 945.8213,94.7324 L955.8213,94.7324" fill="none" style="stroke:#FFB900;stroke-width:3;"/><path d="M781.4688,94.7324 L791.4688,94.7324 C806.4688,94.7324 806.4688,94.7324 821.4688,94.7324 L831.4688,94.7324" fill="none" style="stroke:#0078D4;stroke-width:3;"/><rect fill="#FFB900" height="36.4883" rx="12.5" ry="12.5" style="stroke:#FFB900;stroke-width:3;" width="113.3242" x="831.4688" y="132.9766"/><text fill="#000000" font-family="sans-serif" font-size="14" lengthAdjust="spacing" textLength="93.3242" x="841.4688" y="156.5117">Floating Point</text><text fill="#000000" font-family="sans-serif" font-size="14" lengthAdjust="spacing" textLength="224.0342" x="997.793" y="156.5117">FLOAT, DOUBLE - approximation</text><path d="M944.793,151.2207 L954.793,151.2207 C969.793,151.2207 969.793,151.2207 984.793,151.2207 L994.793,151.2207" fill="none" style="stroke:#FFB900;stroke-width:3;"/><path d="M781.4688,94.7324 L791.4688,94.7324 C806.4688,94.7324 806.4688,151.2207 821.4688,151.2207 L831.4688,151.2207" fill="none" style="stroke:#0078D4;stroke-width:3;"/><path d="M610.2764,179.4648 L620.2764,179.4648 C635.2764,179.4648 635.2764,94.7324 650.2764,94.7324 L660.2764,94.7324" fill="none" style="stroke:#FF5F46;stroke-width:3;"/><rect fill="#0078D4" height="36.4883" rx="12.5" ry="12.5" style="stroke:#0078D4;stroke-width:3;" width="137.4688" x="660.2764" y="245.9531"/><text fill="#FFFFFF" font-family="sans-serif" font-size="14" lengthAdjust="spacing" textLength="117.4688" x="670.2764" y="269.4883">Date-Time Types</text><rect fill="#FFB900" height="36.4883" rx="12.5" ry="12.5" style="stroke:#FFB900;stroke-width:3;" width="56.5859" x="847.7451" y="189.4648"/><text fill="#000000" font-family="sans-serif" font-size="14" lengthAdjust="spacing" textLength="36.5859" x="857.7451" y="213">DATE</text><text fill="#000000" font-family="sans-serif" font-size="14" lengthAdjust="spacing" textLength="134.4492" x="957.3311" y="213">Calendar dates only</text><path d="M904.3311,207.709 L914.3311,207.709 C929.3311,207.709 929.3311,207.709 944.3311,207.709 L954.3311,207.709" fill="none" style="stroke:#FFB900;stroke-width:3;"/><path d="M797.7451,264.1973 L807.7451,264.1973 C822.7451,264.1973 822.7451,207.709 837.7451,207.709 L847.7451,207.709" fill="none" style="stroke:#0078D4;stroke-width:3;"/><rect fill="#FFB900" height="36.4883" rx="12.5" ry="12.5" style="stroke:#FFB900;stroke-width:3;" width="98.3809" x="847.7451" y="245.9531"/><text fill="#000000" font-family="sans-serif" font-size="14" lengthAdjust="spacing" textLength="78.3809" x="857.7451" y="269.4883">TIMESTAMP</text><text fill="#000000" font-family="sans-serif" font-size="14" lengthAdjust="spacing" textLength="164.6504" x="999.126" y="269.4883">Date + time + timezone</text><path d="M946.126,264.1973 L956.126,264.1973 C971.126,264.1973 971.126,264.1973 986.126,264.1973 L996.126,264.1973" fill="none" style="stroke:#FFB900;stroke-width:3;"/><path d="M797.7451,264.1973 L807.7451,264.1973 C822.7451,264.1973 822.7451,264.1973 837.7451,264.1973 L847.7451,264.1973" fill="none" style="stroke:#0078D4;stroke-width:3;"/><rect fill="#FFB900" height="36.4883" rx="12.5" ry="12.5" style="stroke:#FFB900;stroke-width:3;" width="133.0391" x="847.7451" y="302.4414"/><text fill="#000000" font-family="sans-serif" font-size="14" lengthAdjust="spacing" textLength="113.0391" x="857.7451" y="325.9766">TIMESTAMP_NTZ</text><text fill="#000000" font-family="sans-serif" font-size="14" lengthAdjust="spacing" textLength="175.2393" x="1033.7842" y="325.9766">Date + time, no timezone</text><path d="M980.7842,320.6855 L990.7842,320.6855 C1005.7842,320.6855 1005.7842,320.6855 1020.7842,320.6855 L1030.7842,320.6855" fill="none" style="stroke:#FFB900;stroke-width:3;"/><path d="M797.7451,264.1973 L807.7451,264.1973 C822.7451,264.1973 822.7451,320.6855 837.7451,320.6855 L847.7451,320.6855" fill="none" style="stroke:#0078D4;stroke-width:3;"/><path d="M610.2764,179.4648 L620.2764,179.4648 C635.2764,179.4648 635.2764,264.1973 650.2764,264.1973 L660.2764,264.1973" fill="none" style="stroke:#FF5F46;stroke-width:3;"/><rect fill="#0078D4" height="36.4883" rx="12.5" ry="12.5" style="stroke:#0078D4;stroke-width:3;" width="110.6582" x="357.123" y="81.3662"/><text fill="#FFFFFF" font-family="sans-serif" font-size="14" lengthAdjust="spacing" textLength="90.6582" x="367.123" y="104.9014">Text &amp; Binary</text><text fill="#000000" font-family="sans-serif" font-size="14" lengthAdjust="spacing" textLength="202.4189" x="101.7041" y="95.6572">STRING - variable-length text</text><path d="M357.123,99.6104 L347.123,99.6104 C332.123,99.6104 332.123,90.3662 317.123,90.3662 L307.123,90.3662" fill="none" style="stroke:#0078D4;stroke-width:3;"/><text fill="#000000" font-family="sans-serif" font-size="14" lengthAdjust="spacing" textLength="131.5986" x="172.5244" y="114.1455">BINARY - raw bytes</text><path d="M357.123,99.6104 L347.123,99.6104 C332.123,99.6104 332.123,108.8545 317.123,108.8545 L307.123,108.8545" fill="none" style="stroke:#0078D4;stroke-width:3;"/><path d="M517.7813,179.4648 L507.7813,179.4648 C492.7813,179.4648 492.7813,99.6104 477.7813,99.6104 L467.7813,99.6104" fill="none" style="stroke:#FF5F46;stroke-width:3;"/><rect fill="#0078D4" height="36.4883" rx="12.5" ry="12.5" style="stroke:#0078D4;stroke-width:3;" width="124.9453" x="342.8359" y="184.5869"/><text fill="#FFFFFF" font-family="sans-serif" font-size="14" lengthAdjust="spacing" textLength="104.9453" x="352.8359" y="208.1221">Complex Types</text><rect fill="#FFB900" height="36.4883" rx="12.5" ry="12.5" style="stroke:#FFB900;stroke-width:3;" width="65.7461" x="227.0898" y="128.0986"/><text fill="#000000" font-family="sans-serif" font-size="14" lengthAdjust="spacing" textLength="45.7461" x="237.0898" y="151.6338">ARRAY</text><text fill="#000000" font-family="sans-serif" font-size="14" lengthAdjust="spacing" textLength="131.0176" x="43.0723" y="151.6338">Ordered sequences</text><path d="M227.0898,146.3428 L217.0898,146.3428 C202.0898,146.3428 202.0898,146.3428 187.0898,146.3428 L177.0898,146.3428" fill="none" style="stroke:#FFB900;stroke-width:3;"/><path d="M342.8359,202.8311 L332.8359,202.8311 C317.8359,202.8311 317.8359,146.3428 302.8359,146.3428 L292.8359,146.3428" fill="none" style="stroke:#0078D4;stroke-width:3;"/><rect fill="#FFB900" height="36.4883" rx="12.5" ry="12.5" style="stroke:#FFB900;stroke-width:3;" width="49.4561" x="243.3799" y="184.5869"/><text fill="#000000" font-family="sans-serif" font-size="14" lengthAdjust="spacing" textLength="29.4561" x="253.3799" y="208.1221">MAP</text><text fill="#000000" font-family="sans-serif" font-size="14" lengthAdjust="spacing" textLength="105.752" x="84.6279" y="208.1221">Key-value pairs</text><path d="M243.3799,202.8311 L233.3799,202.8311 C218.3799,202.8311 218.3799,202.8311 203.3799,202.8311 L193.3799,202.8311" fill="none" style="stroke:#FFB900;stroke-width:3;"/><path d="M342.8359,202.8311 L332.8359,202.8311 C317.8359,202.8311 317.8359,202.8311 302.8359,202.8311 L292.8359,202.8311" fill="none" style="stroke:#0078D4;stroke-width:3;"/><rect fill="#FFB900" height="36.4883" rx="12.5" ry="12.5" style="stroke:#FFB900;stroke-width:3;" width="73.4844" x="219.3516" y="241.0752"/><text fill="#000000" font-family="sans-serif" font-size="14" lengthAdjust="spacing" textLength="53.4844" x="229.3516" y="264.6104">STRUCT</text><text fill="#000000" font-family="sans-serif" font-size="14" lengthAdjust="spacing" textLength="156.3516" x="10" y="264.6104">Named fields / records</text><path d="M219.3516,259.3193 L209.3516,259.3193 C194.3516,259.3193 194.3516,259.3193 179.3516,259.3193 L169.3516,259.3193" fill="none" style="stroke:#FFB900;stroke-width:3;"/><path d="M342.8359,202.8311 L332.8359,202.8311 C317.8359,202.8311 317.8359,259.3193 302.8359,259.3193 L292.8359,259.3193" fill="none" style="stroke:#0078D4;stroke-width:3;"/><path d="M517.7813,179.4648 L507.7813,179.4648 C492.7813,179.4648 492.7813,202.8311 477.7813,202.8311 L467.7813,202.8311" fill="none" style="stroke:#FF5F46;stroke-width:3;"/><?plantuml-src VPDlRvim4CRVyobEcZIr8gGqwxe_ggOI21LQGgB4VP5fKkJ09R4ADZDE6rRjk-yWf5rJTVS2cxlVSy_PYElIS6ro8TES5zPLQQeClrbVKopCviGzXKSBAFeykLjhjPMfhpAbuLqOVWmlBflQK4XydGsLD6rsrSGJopOYkPDObl2Xwrf_3bxdRtgvxgVFmSMnrr7sPTUZ2S8cdhrwRtgjLiilhdliTPJzhvVR17ajrIwhcSStYQkpzhfj2BZXmAe2VqgV6rmhBR2qR1lYROvQ94sjJjWGIQfhdjKlzW9O5C-Zc7LWDlA6msRNFFhH3QsD8i14v4-2OE17X9uKdV8K7C0TJmmKcfXIADa8mann8-GQ9af8q-h2uTYZli7ujZySa90NXLOxQcpsileCw32Hup_31XuRj7gVPoXJhY4bhWGbiwf1M3GQp9WtcXpcepBOOEf6--MtalWINSJinsky0r8z2nm76EuCl8U-a5nNb70MC6FJABwXyU-v5doPeKDJhSq63B5xf1_5tdHEYEOFiAnesBgNh_8YmrrxDWB1cqwzURqZpLYdg3654dzjKIOjCV8cRVqxLiuzpxO81HTwNwLHRdtM0Z7FIRuIcAKbd05z3gNJqhgcAplydDPvj-VsBhkzlm00?></g></svg>