<?plantuml 1.2026.2?><svg xmlns="http://www.w3.org/2000/svg" xmlns:xlink="http://www.w3.org/1999/xlink" contentStyleType="text/css" data-diagram-type="MINDMAP" height="134px" preserveAspectRatio="none" style="width:1197px;height:134px;background:#FFFFFF;" version="1.1" viewBox="0 0 1197 134" width="1197px" zoomAndPan="magnify"><defs/><g><rect fill="#FF5F46" height="52.9766" rx="12.5" ry="12.5" style="stroke:#FF5F46;stroke-width:3;" width="124.9453" x="502.5645" y="40"/><text fill="#FFFFFF" font-family="sans-serif" font-size="14" lengthAdjust="spacing" textLength="67.6758" x="512.5645" y="63.5352">Work with</text><text fill="#FFFFFF" font-family="sans-serif" font-size="14" lengthAdjust="spacing" textLength="104.9453" x="512.5645" y="80.0234">Complex Types</text><rect fill="#0078D4" height="36.4883" rx="12.5" ry="12.5" style="stroke:#0078D4;stroke-width:3;" width="65.7461" x="677.5098" y="20"/><text fill="#FFFFFF" font-family="sans-serif" font-size="14" lengthAdjust="spacing" textLength="45.7461" x="687.5098" y="43.5352">ARRAY</text><rect fill="#FFB900" height="36.4883" rx="12.5" ry="12.5" style="stroke:#FFB900;stroke-width:3;" width="151.0176" x="793.2559" y="20"/><text fill="#000000" font-family="sans-serif" font-size="14" lengthAdjust="spacing" textLength="131.0176" x="803.2559" y="43.5352">Ordered sequences</text><text fill="#000000" font-family="sans-serif" font-size="14" lengthAdjust="spacing" textLength="120.4834" x="997.2734" y="25.0469">Same-type values</text><path d="M944.2734,38.2441 L954.2734,38.2441 C969.2734,38.2441 969.2734,19.7559 984.2734,19.7559 L994.2734,19.7559" fill="none" style="stroke:#FFB900;stroke-width:3;"/><text fill="#000000" font-family="sans-serif" font-size="14" lengthAdjust="spacing" textLength="151.0059" x="997.2734" y="43.5352">tags ARRAY&lt;STRING&gt;</text><path d="M944.2734,38.2441 L954.2734,38.2441 C969.2734,38.2441 969.2734,38.2441 984.2734,38.2441 L994.2734,38.2441" fill="none" style="stroke:#FFB900;stroke-width:3;"/><text fill="#000000" font-family="sans-serif" font-size="14" lengthAdjust="spacing" textLength="101.7256" x="997.2734" y="62.0234">Access: tags[0]</text><path d="M944.2734,38.2441 L954.2734,38.2441 C969.2734,38.2441 969.2734,56.7324 984.2734,56.7324 L994.2734,56.7324" fill="none" style="stroke:#FFB900;stroke-width:3;"/><path d="M743.2559,38.2441 L753.2559,38.2441 C768.2559,38.2441 768.2559,38.2441 783.2559,38.2441 L793.2559,38.2441" fill="none" style="stroke:#0078D4;stroke-width:3;"/><path d="M627.5098,66.4883 L637.5098,66.4883 C652.5098,66.4883 652.5098,38.2441 667.5098,38.2441 L677.5098,38.2441" fill="none" style="stroke:#FF5F46;stroke-width:3;"/><rect fill="#0078D4" height="36.4883" rx="12.5" ry="12.5" style="stroke:#0078D4;stroke-width:3;" width="49.4561" x="677.5098" y="76.4883"/><text fill="#FFFFFF" font-family="sans-serif" font-size="14" lengthAdjust="spacing" textLength="29.4561" x="687.5098" y="100.0234">MAP</text><rect fill="#FFB900" height="36.4883" rx="12.5" ry="12.5" style="stroke:#FFB900;stroke-width:3;" width="125.752" x="776.9658" y="76.4883"/><text fill="#000000" font-family="sans-serif" font-size="14" lengthAdjust="spacing" textLength="105.752" x="786.9658" y="100.0234">Key-value pairs</text><text fill="#000000" font-family="sans-serif" font-size="14" lengthAdjust="spacing" textLength="93.3721" x="955.7178" y="81.5352">Dynamic keys</text><path d="M902.7178,94.7324 L912.7178,94.7324 C927.7178,94.7324 927.7178,76.2441 942.7178,76.2441 L952.7178,76.2441" fill="none" style="stroke:#FFB900;stroke-width:3;"/><text fill="#000000" font-family="sans-serif" font-size="14" lengthAdjust="spacing" textLength="229.749" x="955.7178" y="100.0234">properties MAP&lt;STRING,STRING&gt;</text><path d="M902.7178,94.7324 L912.7178,94.7324 C927.7178,94.7324 927.7178,94.7324 942.7178,94.7324 L952.7178,94.7324" fill="none" style="stroke:#FFB900;stroke-width:3;"/><text fill="#000000" font-family="sans-serif" font-size="14" lengthAdjust="spacing" textLength="163.4473" x="955.7178" y="118.5117">Access: properties['key']</text><path d="M902.7178,94.7324 L912.7178,94.7324 C927.7178,94.7324 927.7178,113.2207 942.7178,113.2207 L952.7178,113.2207" fill="none" style="stroke:#FFB900;stroke-width:3;"/><path d="M726.9658,94.7324 L736.9658,94.7324 C751.9658,94.7324 751.9658,94.7324 766.9658,94.7324 L776.9658,94.7324" fill="none" style="stroke:#0078D4;stroke-width:3;"/><path d="M627.5098,66.4883 L637.5098,66.4883 C652.5098,66.4883 652.5098,94.7324 667.5098,94.7324 L677.5098,94.7324" fill="none" style="stroke:#FF5F46;stroke-width:3;"/><rect fill="#0078D4" height="36.4883" rx="12.5" ry="12.5" style="stroke:#0078D4;stroke-width:3;" width="73.4844" x="379.0801" y="20"/><text fill="#FFFFFF" font-family="sans-serif" font-size="14" lengthAdjust="spacing" textLength="53.4844" x="389.0801" y="43.5352">STRUCT</text><rect fill="#FFB900" height="36.4883" rx="12.5" ry="12.5" style="stroke:#FFB900;stroke-width:3;" width="109.1748" x="219.9053" y="20"/><text fill="#000000" font-family="sans-serif" font-size="14" lengthAdjust="spacing" textLength="89.1748" x="229.9053" y="43.5352">Named fields</text><text fill="#000000" font-family="sans-serif" font-size="14" lengthAdjust="spacing" textLength="102.5322" x="64.373" y="34.291">Nested records</text><path d="M219.9053,38.2441 L209.9053,38.2441 C194.9053,38.2441 194.9053,29 179.9053,29 L169.9053,29" fill="none" style="stroke:#FFB900;stroke-width:3;"/><text fill="#000000" font-family="sans-serif" font-size="14" lengthAdjust="spacing" textLength="156.9053" x="10" y="52.7793">STRUCT&lt;field:type,...&gt;</text><path d="M219.9053,38.2441 L209.9053,38.2441 C194.9053,38.2441 194.9053,47.4883 179.9053,47.4883 L169.9053,47.4883" fill="none" style="stroke:#FFB900;stroke-width:3;"/><path d="M379.0801,38.2441 L369.0801,38.2441 C354.0801,38.2441 354.0801,38.2441 339.0801,38.2441 L329.0801,38.2441" fill="none" style="stroke:#0078D4;stroke-width:3;"/><path d="M502.5645,66.4883 L492.5645,66.4883 C477.5645,66.4883 477.5645,38.2441 462.5645,38.2441 L452.5645,38.2441" fill="none" style="stroke:#FF5F46;stroke-width:3;"/><rect fill="#0078D4" height="36.4883" rx="12.5" ry="12.5" style="stroke:#0078D4;stroke-width:3;" width="88.5576" x="364.0068" y="76.4883"/><text fill="#FFFFFF" font-family="sans-serif" font-size="14" lengthAdjust="spacing" textLength="68.5576" x="374.0068" y="100.0234">Use Cases</text><text fill="#000000" font-family="sans-serif" font-size="14" lengthAdjust="spacing" textLength="219.7549" x="91.252" y="81.5352">ARRAY: product tags, categories</text><path d="M364.0068,94.7324 L354.0068,94.7324 C339.0068,94.7324 339.0068,76.2441 324.0068,76.2441 L314.0068,76.2441" fill="none" style="stroke:#0078D4;stroke-width:3;"/><text fill="#000000" font-family="sans-serif" font-size="14" lengthAdjust="spacing" textLength="158.6826" x="152.3242" y="100.0234">MAP: flexible attributes</text><path d="M364.0068,94.7324 L354.0068,94.7324 C339.0068,94.7324 339.0068,94.7324 324.0068,94.7324 L314.0068,94.7324" fill="none" style="stroke:#0078D4;stroke-width:3;"/><text fill="#000000" font-family="sans-serif" font-size="14" lengthAdjust="spacing" textLength="161.2598" x="149.7471" y="118.5117">STRUCT: nested objects</text><path d="M364.0068,94.7324 L354.0068,94.7324 C339.0068,94.7324 339.0068,113.2207 324.0068,113.2207 L314.0068,113.2207" fill="none" style="stroke:#0078D4;stroke-width:3;"/><path d="M502.5645,66.4883 L492.5645,66.4883 C477.5645,66.4883 477.5645,94.7324 462.5645,94.7324 L452.5645,94.7324" fill="none" style="stroke:#FF5F46;stroke-width:3;"/><?plantuml-src VPDXRzCm48Q_vrUSn8U1qWIlZ05HLQrq2a8R1NMT41fJvJYNrZInW-t0eed_ZkCadPPHxfFrtdltt9taCsseCWKNQK5BRw9DdUFKYr8ipVOvUG7t7jXuJzbkesGbqhdCfO9dSVmwFZbrkKikyAaQIs4wDNEnzwwsdEq4QWslGkBzwLd71rc4l7bxVZ9a3TJ7NGSJn2uUMEE3h2nBtX4oP0tK_xA82yjAv5tUUEuFEYOlktFxy5Mg7VpcPljTp6LHvdW7gxf4xVa-p9RBsJVxyE6pIb5X2Xf_LYYOI_l-6gveWO6nVlX5ysel6xhHRVNaQhNykFWmxH8pPcjrv0mtvBQ1V9fzSOWBh0FN14hALT_fl1Qqu0nsMFTIgMI9od3KJMq76FsRy-2zER8jZcwz801hlPwlx2k0XPq_XOnZdkf62DQmG6siff19jHVRaeapHis-ep0CfqspQuqmfngTSzqkxRXfnOpRSmIC6jn8nNkJ7Jk2p9wQ9pa2DKRnf39zjcL58Df1PF83cT7U6TgVqlqMxpWSa_5fEFuB?></g></svg>