<?plantuml 1.2026.2?><svg xmlns="http://www.w3.org/2000/svg" xmlns:xlink="http://www.w3.org/1999/xlink" contentStyleType="text/css" data-diagram-type="MINDMAP" height="304px" preserveAspectRatio="none" style="width:1315px;height:304px;background:#FFFFFF;" version="1.1" viewBox="0 0 1315 304" width="1315px" zoomAndPan="magnify"><defs/><g><rect fill="#FF5F46" height="52.9766" rx="12.5" ry="12.5" style="stroke:#FF5F46;stroke-width:3;" width="128.582" x="571.833" y="124.7324"/><text fill="#FFFFFF" font-family="sans-serif" font-size="14" lengthAdjust="spacing" textLength="108.582" x="581.833" y="148.2676">Handle Null and</text><text fill="#FFFFFF" font-family="sans-serif" font-size="14" lengthAdjust="spacing" textLength="100.8301" x="581.833" y="164.7559">Missing Values</text><rect fill="#0078D4" height="36.4883" rx="12.5" ry="12.5" style="stroke:#0078D4;stroke-width:3;" width="109.7695" x="750.415" y="104.7324"/><text fill="#FFFFFF" font-family="sans-serif" font-size="14" lengthAdjust="spacing" textLength="89.7695" x="760.415" y="128.2676">Identify Nulls</text><rect fill="#FFB900" height="36.4883" rx="12.5" ry="12.5" style="stroke:#FFB900;stroke-width:3;" width="207.3936" x="910.1846" y="48.2441"/><text fill="#000000" font-family="sans-serif" font-size="14" lengthAdjust="spacing" textLength="187.3936" x="920.1846" y="71.7793">SQL: IS NULL / IS NOT NULL</text><path d="M860.1846,122.9766 L870.1846,122.9766 C885.1846,122.9766 885.1846,66.4883 900.1846,66.4883 L910.1846,66.4883" fill="none" style="stroke:#0078D4;stroke-width:3;"/><rect fill="#FFB900" height="36.4883" rx="12.5" ry="12.5" style="stroke:#FFB900;stroke-width:3;" width="217.1143" x="910.1846" y="104.7324"/><text fill="#000000" font-family="sans-serif" font-size="14" lengthAdjust="spacing" textLength="197.1143" x="920.1846" y="128.2676">PySpark: isNull() / isNotNull()</text><path d="M860.1846,122.9766 L870.1846,122.9766 C885.1846,122.9766 885.1846,122.9766 900.1846,122.9766 L910.1846,122.9766" fill="none" style="stroke:#0078D4;stroke-width:3;"/><rect fill="#FFB900" height="36.4883" rx="12.5" ry="12.5" style="stroke:#FFB900;stroke-width:3;" width="179.4004" x="910.1846" y="161.2207"/><text fill="#000000" font-family="sans-serif" font-size="14" lengthAdjust="spacing" textLength="159.4004" x="920.1846" y="184.7559">Count nulls per column</text><text fill="#000000" font-family="sans-serif" font-size="14" lengthAdjust="spacing" textLength="160.6514" x="1142.585" y="184.7559">COUNT(*) - COUNT(col)</text><path d="M1089.585,179.4648 L1099.585,179.4648 C1114.585,179.4648 1114.585,179.4648 1129.585,179.4648 L1139.585,179.4648" fill="none" style="stroke:#FFB900;stroke-width:3;"/><path d="M860.1846,122.9766 L870.1846,122.9766 C885.1846,122.9766 885.1846,179.4648 900.1846,179.4648 L910.1846,179.4648" fill="none" style="stroke:#0078D4;stroke-width:3;"/><path d="M700.415,151.2207 L710.415,151.2207 C725.415,151.2207 725.415,122.9766 740.415,122.9766 L750.415,122.9766" fill="none" style="stroke:#FF5F46;stroke-width:3;"/><rect fill="#0078D4" height="36.4883" rx="12.5" ry="12.5" style="stroke:#0078D4;stroke-width:3;" width="93.4316" x="750.415" y="217.709"/><text fill="#FFFFFF" font-family="sans-serif" font-size="14" lengthAdjust="spacing" textLength="73.4316" x="760.415" y="241.2441">Drop Rows</text><rect fill="#FFB900" height="36.4883" rx="12.5" ry="12.5" style="stroke:#FFB900;stroke-width:3;" width="77.4766" x="893.8467" y="217.709"/><text fill="#000000" font-family="sans-serif" font-size="14" lengthAdjust="spacing" textLength="57.4766" x="903.8467" y="241.2441">dropna()</text><text fill="#000000" font-family="sans-serif" font-size="14" lengthAdjust="spacing" textLength="134.3945" x="1024.3232" y="222.7559">how="any" (default)</text><path d="M971.3232,235.9531 L981.3232,235.9531 C996.3232,235.9531 996.3232,217.4648 1011.3232,217.4648 L1021.3232,217.4648" fill="none" style="stroke:#FFB900;stroke-width:3;"/><text fill="#000000" font-family="sans-serif" font-size="14" lengthAdjust="spacing" textLength="65.4883" x="1024.3232" y="241.2441">how="all"</text><path d="M971.3232,235.9531 L981.3232,235.9531 C996.3232,235.9531 996.3232,235.9531 1011.3232,235.9531 L1021.3232,235.9531" fill="none" style="stroke:#FFB900;stroke-width:3;"/><text fill="#000000" font-family="sans-serif" font-size="14" lengthAdjust="spacing" textLength="122.4453" x="1024.3232" y="259.7324">subset=[columns]</text><path d="M971.3232,235.9531 L981.3232,235.9531 C996.3232,235.9531 996.3232,254.4414 1011.3232,254.4414 L1021.3232,254.4414" fill="none" style="stroke:#FFB900;stroke-width:3;"/><path d="M843.8467,235.9531 L853.8467,235.9531 C868.8467,235.9531 868.8467,235.9531 883.8467,235.9531 L893.8467,235.9531" fill="none" style="stroke:#0078D4;stroke-width:3;"/><path d="M700.415,151.2207 L710.415,151.2207 C725.415,151.2207 725.415,235.9531 740.415,235.9531 L750.415,235.9531" fill="none" style="stroke:#FF5F46;stroke-width:3;"/><rect fill="#0078D4" height="36.4883" rx="12.5" ry="12.5" style="stroke:#0078D4;stroke-width:3;" width="78.3379" x="443.4951" y="48.2441"/><text fill="#FFFFFF" font-family="sans-serif" font-size="14" lengthAdjust="spacing" textLength="58.3379" x="453.4951" y="71.7793">Fill Nulls</text><rect fill="#FFB900" height="36.4883" rx="12.5" ry="12.5" style="stroke:#FFB900;stroke-width:3;" width="62.8135" x="330.6816" y="20"/><text fill="#000000" font-family="sans-serif" font-size="14" lengthAdjust="spacing" textLength="42.8135" x="340.6816" y="43.5352">fillna()</text><text fill="#000000" font-family="sans-serif" font-size="14" lengthAdjust="spacing" textLength="124.9541" x="152.7275" y="34.291">Single value for all</text><path d="M330.6816,38.2441 L320.6816,38.2441 C305.6816,38.2441 305.6816,29 290.6816,29 L280.6816,29" fill="none" style="stroke:#FFB900;stroke-width:3;"/><text fill="#000000" font-family="sans-serif" font-size="14" lengthAdjust="spacing" textLength="195.0088" x="82.6729" y="52.7793">Dict for per-column defaults</text><path d="M330.6816,38.2441 L320.6816,38.2441 C305.6816,38.2441 305.6816,47.4883 290.6816,47.4883 L280.6816,47.4883" fill="none" style="stroke:#FFB900;stroke-width:3;"/><path d="M443.4951,66.4883 L433.4951,66.4883 C418.4951,66.4883 418.4951,38.2441 403.4951,38.2441 L393.4951,38.2441" fill="none" style="stroke:#0078D4;stroke-width:3;"/><rect fill="#FFB900" height="36.4883" rx="12.5" ry="12.5" style="stroke:#FFB900;stroke-width:3;" width="124.8291" x="268.666" y="76.4883"/><text fill="#000000" font-family="sans-serif" font-size="14" lengthAdjust="spacing" textLength="104.8291" x="278.666" y="100.0234">SQL: COALESCE</text><text fill="#000000" font-family="sans-serif" font-size="14" lengthAdjust="spacing" textLength="197.8457" x="17.8203" y="100.0234">COALESCE(col, default_value)</text><path d="M268.666,94.7324 L258.666,94.7324 C243.666,94.7324 243.666,94.7324 228.666,94.7324 L218.666,94.7324" fill="none" style="stroke:#FFB900;stroke-width:3;"/><path d="M443.4951,66.4883 L433.4951,66.4883 C418.4951,66.4883 418.4951,94.7324 403.4951,94.7324 L393.4951,94.7324" fill="none" style="stroke:#0078D4;stroke-width:3;"/><path d="M571.833,151.2207 L561.833,151.2207 C546.833,151.2207 546.833,66.4883 531.833,66.4883 L521.833,66.4883" fill="none" style="stroke:#FF5F46;stroke-width:3;"/><rect fill="#0078D4" height="36.4883" rx="12.5" ry="12.5" style="stroke:#0078D4;stroke-width:3;" width="119.21" x="402.623" y="189.4648"/><text fill="#FFFFFF" font-family="sans-serif" font-size="14" lengthAdjust="spacing" textLength="99.21" x="412.623" y="213">Strategy Guide</text><rect fill="#FFB900" height="36.4883" rx="12.5" ry="12.5" style="stroke:#FFB900;stroke-width:3;" width="157.1494" x="195.4736" y="132.9766"/><text fill="#000000" font-family="sans-serif" font-size="14" lengthAdjust="spacing" textLength="137.1494" x="205.4736" y="156.5117">Required fields (IDs)</text><text fill="#000000" font-family="sans-serif" font-size="14" lengthAdjust="spacing" textLength="96.4619" x="46.0117" y="156.5117">Drop the rows</text><path d="M195.4736,151.2207 L185.4736,151.2207 C170.4736,151.2207 170.4736,151.2207 155.4736,151.2207 L145.4736,151.2207" fill="none" style="stroke:#FFB900;stroke-width:3;"/><path d="M402.623,207.709 L392.623,207.709 C377.623,207.709 377.623,151.2207 362.623,151.2207 L352.623,151.2207" fill="none" style="stroke:#0078D4;stroke-width:3;"/><rect fill="#FFB900" height="36.4883" rx="12.5" ry="12.5" style="stroke:#FFB900;stroke-width:3;" width="163.0283" x="189.5947" y="189.4648"/><text fill="#000000" font-family="sans-serif" font-size="14" lengthAdjust="spacing" textLength="143.0283" x="199.5947" y="213">Numeric aggregation</text><text fill="#000000" font-family="sans-serif" font-size="14" lengthAdjust="spacing" textLength="126.5947" x="10" y="213">Fill with 0 or mean</text><path d="M189.5947,207.709 L179.5947,207.709 C164.5947,207.709 164.5947,207.709 149.5947,207.709 L139.5947,207.709" fill="none" style="stroke:#FFB900;stroke-width:3;"/><path d="M402.623,207.709 L392.623,207.709 C377.623,207.709 377.623,207.709 362.623,207.709 L352.623,207.709" fill="none" style="stroke:#0078D4;stroke-width:3;"/><rect fill="#FFB900" height="36.4883" rx="12.5" ry="12.5" style="stroke:#FFB900;stroke-width:3;" width="119.4561" x="233.167" y="245.9531"/><text fill="#000000" font-family="sans-serif" font-size="14" lengthAdjust="spacing" textLength="99.4561" x="243.167" y="269.4883">Optional fields</text><text fill="#000000" font-family="sans-serif" font-size="14" lengthAdjust="spacing" textLength="127.0117" x="53.1553" y="269.4883">Fill with 'Unknown'</text><path d="M233.167,264.1973 L223.167,264.1973 C208.167,264.1973 208.167,264.1973 193.167,264.1973 L183.167,264.1973" fill="none" style="stroke:#FFB900;stroke-width:3;"/><path d="M402.623,207.709 L392.623,207.709 C377.623,207.709 377.623,264.1973 362.623,264.1973 L352.623,264.1973" fill="none" style="stroke:#0078D4;stroke-width:3;"/><path d="M571.833,151.2207 L561.833,151.2207 C546.833,151.2207 546.833,207.709 531.833,207.709 L521.833,207.709" fill="none" style="stroke:#FF5F46;stroke-width:3;"/><?plantuml-src VLDTRzCm57tFhxWg3si9wR8o1bGR6hGBL0ejB2qlW2gtSLAhhXriXowQzj-vTbBGCXK_tOzppxdtIBxMXYYpOoBTaSAxrARYz9qtJ6bXDjsm1_SUuFj0rjjSoLAa8ycbWcTHz2ewlt2zc0dwj1f9OPfgvjvVx7p3rbj1jOQN_T1xE6YT7TKAmzTlnkTjhLRrCMjhWyYzVrg3erfPjdeRXcsjLlM_Mg5xgBMITznYxeyYBayRkttuH4JAAKnBpW737-8pqvg97BuHNbBj-JvCKYeCooe7iXKVag_n42O9J1Tn3ASkcirTvjfVggGWQZi4fkrCjuSO3AMfCuSPuV46XAM4WYfOIrxkX6tvInZD5jDvztaFWYR4hXs3iP85tCfzlKQAcI0r8KvjvFwgGqJLWMvACr9oyxZ3UQV9TRdIr5nzhqNrJoy8869eGNrYW6c6gUF695X2WfwWJx-jAv2XcyZMjCPiRLm9pmXgHcZqQohdrcZsFhv9HZVDq26rbxqum9UEtaf2OXGnDA_WOybIwcXkwQ-IAPhYQfId6hgJiJwivtmn6mhAUcFHqt975Li3oND5SsAO50tM7RfdPWCXuDOxIbm7PeK54TxmFq6VBCHMoBquyQuf_jhcvtfd_K4ukEWF_W00?></g></svg>