<?plantuml 1.2026.2?><svg xmlns="http://www.w3.org/2000/svg" xmlns:xlink="http://www.w3.org/1999/xlink" contentStyleType="text/css" data-diagram-type="MINDMAP" height="191px" preserveAspectRatio="none" style="width:1553px;height:191px;background:#FFFFFF;" version="1.1" viewBox="0 0 1553 191" width="1553px" zoomAndPan="magnify"><defs/><g><rect fill="#FF5F46" height="52.9766" rx="12.5" ry="12.5" style="stroke:#FF5F46;stroke-width:3;" width="142.5479" x="652.2852" y="68.2441"/><text fill="#FFFFFF" font-family="sans-serif" font-size="14" lengthAdjust="spacing" textLength="51.0781" x="662.2852" y="91.7793">Identify</text><text fill="#FFFFFF" font-family="sans-serif" font-size="14" lengthAdjust="spacing" textLength="122.5479" x="662.2852" y="108.2676">Duplicate Records</text><rect fill="#0078D4" height="36.4883" rx="12.5" ry="12.5" style="stroke:#0078D4;stroke-width:3;" width="130.4482" x="844.833" y="76.4883"/><text fill="#FFFFFF" font-family="sans-serif" font-size="14" lengthAdjust="spacing" textLength="110.4482" x="854.833" y="100.0234">SQL Approaches</text><rect fill="#FFB900" height="36.4883" rx="12.5" ry="12.5" style="stroke:#FFB900;stroke-width:3;" width="162.0713" x="1025.2813" y="48.2441"/><text fill="#000000" font-family="sans-serif" font-size="14" lengthAdjust="spacing" textLength="142.0713" x="1035.2813" y="71.7793">GROUP BY + HAVING</text><text fill="#000000" font-family="sans-serif" font-size="14" lengthAdjust="spacing" textLength="127.0117" x="1240.3525" y="62.5352">Count occurrences</text><path d="M1187.3525,66.4883 L1197.3525,66.4883 C1212.3525,66.4883 1212.3525,57.2441 1227.3525,57.2441 L1237.3525,57.2441" fill="none" style="stroke:#FFB900;stroke-width:3;"/><text fill="#000000" font-family="sans-serif" font-size="14" lengthAdjust="spacing" textLength="152.1748" x="1240.3525" y="81.0234">HAVING COUNT(*) &gt; 1</text><path d="M1187.3525,66.4883 L1197.3525,66.4883 C1212.3525,66.4883 1212.3525,75.7324 1227.3525,75.7324 L1237.3525,75.7324" fill="none" style="stroke:#FFB900;stroke-width:3;"/><path d="M975.2813,94.7324 L985.2813,94.7324 C1000.2813,94.7324 1000.2813,66.4883 1015.2813,66.4883 L1025.2813,66.4883" fill="none" style="stroke:#0078D4;stroke-width:3;"/><rect fill="#FFB900" height="36.4883" rx="12.5" ry="12.5" style="stroke:#FFB900;stroke-width:3;" width="231.5449" x="1025.2813" y="104.7324"/><text fill="#000000" font-family="sans-serif" font-size="14" lengthAdjust="spacing" textLength="211.5449" x="1035.2813" y="128.2676">QUALIFY with Window Function</text><text fill="#000000" font-family="sans-serif" font-size="14" lengthAdjust="spacing" textLength="231.9092" x="1309.8262" y="119.0234">COUNT(*) OVER (PARTITION BY ...)</text><path d="M1256.8262,122.9766 L1266.8262,122.9766 C1281.8262,122.9766 1281.8262,113.7324 1296.8262,113.7324 L1306.8262,113.7324" fill="none" style="stroke:#FFB900;stroke-width:3;"/><text fill="#000000" font-family="sans-serif" font-size="14" lengthAdjust="spacing" textLength="200.6211" x="1309.8262" y="137.5117">Returns actual duplicate rows</text><path d="M1256.8262,122.9766 L1266.8262,122.9766 C1281.8262,122.9766 1281.8262,132.2207 1296.8262,132.2207 L1306.8262,132.2207" fill="none" style="stroke:#FFB900;stroke-width:3;"/><path d="M975.2813,94.7324 L985.2813,94.7324 C1000.2813,94.7324 1000.2813,122.9766 1015.2813,122.9766 L1025.2813,122.9766" fill="none" style="stroke:#0078D4;stroke-width:3;"/><path d="M794.833,94.7324 L804.833,94.7324 C819.833,94.7324 819.833,94.7324 834.833,94.7324 L844.833,94.7324" fill="none" style="stroke:#FF5F46;stroke-width:3;"/><rect fill="#0078D4" height="36.4883" rx="12.5" ry="12.5" style="stroke:#0078D4;stroke-width:3;" width="157.6143" x="444.6709" y="48.2441"/><text fill="#FFFFFF" font-family="sans-serif" font-size="14" lengthAdjust="spacing" textLength="137.6143" x="454.6709" y="71.7793">PySpark Approaches</text><rect fill="#FFB900" height="36.4883" rx="12.5" ry="12.5" style="stroke:#FFB900;stroke-width:3;" width="143.1016" x="251.5693" y="20"/><text fill="#000000" font-family="sans-serif" font-size="14" lengthAdjust="spacing" textLength="123.1016" x="261.5693" y="43.5352">Window Functions</text><text fill="#000000" font-family="sans-serif" font-size="14" lengthAdjust="spacing" textLength="180.0381" x="18.5313" y="34.291">count().over(window_spec)</text><path d="M251.5693,38.2441 L241.5693,38.2441 C226.5693,38.2441 226.5693,29 211.5693,29 L201.5693,29" fill="none" style="stroke:#FFB900;stroke-width:3;"/><text fill="#000000" font-family="sans-serif" font-size="14" lengthAdjust="spacing" textLength="150.9102" x="47.6592" y="52.7793">filter("row_count &gt; 1")</text><path d="M251.5693,38.2441 L241.5693,38.2441 C226.5693,38.2441 226.5693,47.4883 211.5693,47.4883 L201.5693,47.4883" fill="none" style="stroke:#FFB900;stroke-width:3;"/><path d="M444.6709,66.4883 L434.6709,66.4883 C419.6709,66.4883 419.6709,38.2441 404.6709,38.2441 L394.6709,38.2441" fill="none" style="stroke:#0078D4;stroke-width:3;"/><rect fill="#FFB900" height="36.4883" rx="12.5" ry="12.5" style="stroke:#FFB900;stroke-width:3;" width="92.2627" x="302.4082" y="76.4883"/><text fill="#000000" font-family="sans-serif" font-size="14" lengthAdjust="spacing" textLength="72.2627" x="312.4082" y="100.0234">exceptAll()</text><text fill="#000000" font-family="sans-serif" font-size="14" lengthAdjust="spacing" textLength="210.54" x="38.8682" y="81.5352">Original df minus deduplicated</text><path d="M302.4082,94.7324 L292.4082,94.7324 C277.4082,94.7324 277.4082,76.2441 262.4082,76.2441 L252.4082,76.2441" fill="none" style="stroke:#FFB900;stroke-width:3;"/><text fill="#000000" font-family="sans-serif" font-size="14" lengthAdjust="spacing" textLength="196.7314" x="52.6768" y="100.0234">Preserves duplicate structure</text><path d="M302.4082,94.7324 L292.4082,94.7324 C277.4082,94.7324 277.4082,94.7324 262.4082,94.7324 L252.4082,94.7324" fill="none" style="stroke:#FFB900;stroke-width:3;"/><text fill="#000000" font-family="sans-serif" font-size="14" lengthAdjust="spacing" textLength="239.4082" x="10" y="118.5117">Unlike except() which gives distinct</text><path d="M302.4082,94.7324 L292.4082,94.7324 C277.4082,94.7324 277.4082,113.2207 262.4082,113.2207 L252.4082,113.2207" fill="none" style="stroke:#FFB900;stroke-width:3;"/><path d="M444.6709,66.4883 L434.6709,66.4883 C419.6709,66.4883 419.6709,94.7324 404.6709,94.7324 L394.6709,94.7324" fill="none" style="stroke:#0078D4;stroke-width:3;"/><path d="M652.2852,94.7324 L642.2852,94.7324 C627.2852,94.7324 627.2852,66.4883 612.2852,66.4883 L602.2852,66.4883" fill="none" style="stroke:#FF5F46;stroke-width:3;"/><rect fill="#0078D4" height="36.4883" rx="12.5" ry="12.5" style="stroke:#0078D4;stroke-width:3;" width="161.9414" x="440.3438" y="132.9766"/><text fill="#FFFFFF" font-family="sans-serif" font-size="14" lengthAdjust="spacing" textLength="141.9414" x="450.3438" y="156.5117">Causes of Duplicates</text><text fill="#000000" font-family="sans-serif" font-size="14" lengthAdjust="spacing" textLength="156.5225" x="230.8213" y="138.0234">Data integration issues</text><path d="M440.3438,151.2207 L430.3438,151.2207 C415.3438,151.2207 415.3438,132.7324 400.3438,132.7324 L390.3438,132.7324" fill="none" style="stroke:#0078D4;stroke-width:3;"/><text fill="#000000" font-family="sans-serif" font-size="14" lengthAdjust="spacing" textLength="130.2451" x="257.0986" y="156.5117">Repeated ingestion</text><path d="M440.3438,151.2207 L430.3438,151.2207 C415.3438,151.2207 415.3438,151.2207 400.3438,151.2207 L390.3438,151.2207" fill="none" style="stroke:#0078D4;stroke-width:3;"/><text fill="#000000" font-family="sans-serif" font-size="14" lengthAdjust="spacing" textLength="190.8525" x="196.4912" y="175">Concurrent write operations</text><path d="M440.3438,151.2207 L430.3438,151.2207 C415.3438,151.2207 415.3438,169.709 400.3438,169.709 L390.3438,169.709" fill="none" style="stroke:#0078D4;stroke-width:3;"/><path d="M652.2852,94.7324 L642.2852,94.7324 C627.2852,94.7324 627.2852,151.2207 612.2852,151.2207 L602.2852,151.2207" fill="none" style="stroke:#FF5F46;stroke-width:3;"/><?plantuml-src VLFlRzem4FsUl-BKVKaMaGNMTJzKLQMmj4Y8q1GwLPeKkSu5B58xifscgDh_FiS4rcLYz_7TktltVETBfOdKJundJwHqpfNU5dZXVCkmr6itzE3L0HDNX6vMKbGy6ub2I7WNHP-YqpERcpAE_wAHuBf5Sni7xcBDw8QZKl0n29rVUwt-KQqm_FnbVDhLwg1_T-rC4DduepKugfNdZr_3iAlLGV-h5TemMe_YfMWuhqSPvn_Qv_PXaY7NBD_-vEEgB1Wb6Y51AcIc7D-7kzif3CjI2aBNs20-N2VnSWvN3-33pV1-ChjkK3-5aN6ZGL1QIOcSxjW6tv5W52zd2_Uz1nVGjtrkbyFf97g0ckar_31t86g8Aaur4tpVSbyJttzFm9qFayLaCObdZNeG15vBIr1NaYiWL5UaWEnWH8fQERqUpBTt9P6Rjqvw1kw8Mh2N0csCk5uWdb6wjUMagaJgjVcS5TfaJaptr78RIoSs2_X2pQA7HU7ksR5aAyQRiN8mrrufoF0mOTQIvX8LocTKRuPNMbR6aCIMi-G5ss2hu7fGcsDOmuhPAgOqCouQioDIAGE970uRjSvI61DDW76DAqaQmy2KglR914ji9ZA45Igx18kF1DzjL4CjcPbBbBWhLyubcj_R_c2d7mp2mLam-0q0?></g></svg>