<?plantuml 1.2026.2?><svg xmlns="http://www.w3.org/2000/svg" xmlns:xlink="http://www.w3.org/1999/xlink" contentStyleType="text/css" data-diagram-type="MINDMAP" height="152px" preserveAspectRatio="none" style="width:1263px;height:152px;background:#FFFFFF;" version="1.1" viewBox="0 0 1263 152" width="1263px" zoomAndPan="magnify"><defs/><g><rect fill="#FF5F46" height="52.9766" rx="12.5" ry="12.5" style="stroke:#FF5F46;stroke-width:3;" width="142.5479" x="599.1152" y="48.7324"/><text fill="#FFFFFF" font-family="sans-serif" font-size="14" lengthAdjust="spacing" textLength="53.3682" x="609.1152" y="72.2676">Remove</text><text fill="#FFFFFF" font-family="sans-serif" font-size="14" lengthAdjust="spacing" textLength="122.5479" x="609.1152" y="88.7559">Duplicate Records</text><rect fill="#0078D4" height="36.4883" rx="12.5" ry="12.5" style="stroke:#0078D4;stroke-width:3;" width="73.0469" x="791.6631" y="56.9766"/><text fill="#FFFFFF" font-family="sans-serif" font-size="14" lengthAdjust="spacing" textLength="53.0469" x="801.6631" y="80.5117">PySpark</text><rect fill="#FFB900" height="36.4883" rx="12.5" ry="12.5" style="stroke:#FFB900;stroke-width:3;" width="132.2119" x="914.71" y="28.7324"/><text fill="#000000" font-family="sans-serif" font-size="14" lengthAdjust="spacing" textLength="112.2119" x="924.71" y="52.2676">dropDuplicates()</text><text fill="#000000" font-family="sans-serif" font-size="14" lengthAdjust="spacing" textLength="137.3887" x="1099.9219" y="43.0234">Specify key columns</text><path d="M1046.9219,46.9766 L1056.9219,46.9766 C1071.9219,46.9766 1071.9219,37.7324 1086.9219,37.7324 L1096.9219,37.7324" fill="none" style="stroke:#FFB900;stroke-width:3;"/><text fill="#000000" font-family="sans-serif" font-size="14" lengthAdjust="spacing" textLength="151.3887" x="1099.9219" y="61.5117">Keeps first occurrence</text><path d="M1046.9219,46.9766 L1056.9219,46.9766 C1071.9219,46.9766 1071.9219,56.2207 1086.9219,56.2207 L1096.9219,56.2207" fill="none" style="stroke:#FFB900;stroke-width:3;"/><path d="M864.71,75.2207 L874.71,75.2207 C889.71,75.2207 889.71,46.9766 904.71,46.9766 L914.71,46.9766" fill="none" style="stroke:#0078D4;stroke-width:3;"/><rect fill="#FFB900" height="36.4883" rx="12.5" ry="12.5" style="stroke:#FFB900;stroke-width:3;" width="79.4795" x="914.71" y="85.2207"/><text fill="#000000" font-family="sans-serif" font-size="14" lengthAdjust="spacing" textLength="59.4795" x="924.71" y="108.7559">distinct()</text><text fill="#000000" font-family="sans-serif" font-size="14" lengthAdjust="spacing" textLength="150.7529" x="1047.1895" y="108.7559">Full row deduplication</text><path d="M994.1895,103.4648 L1004.1895,103.4648 C1019.1895,103.4648 1019.1895,103.4648 1034.1895,103.4648 L1044.1895,103.4648" fill="none" style="stroke:#FFB900;stroke-width:3;"/><path d="M864.71,75.2207 L874.71,75.2207 C889.71,75.2207 889.71,103.4648 904.71,103.4648 L914.71,103.4648" fill="none" style="stroke:#0078D4;stroke-width:3;"/><path d="M741.6631,75.2207 L751.6631,75.2207 C766.6631,75.2207 766.6631,75.2207 781.6631,75.2207 L791.6631,75.2207" fill="none" style="stroke:#FF5F46;stroke-width:3;"/><rect fill="#0078D4" height="36.4883" rx="12.5" ry="12.5" style="stroke:#0078D4;stroke-width:3;" width="45.8809" x="503.2344" y="28.7324"/><text fill="#FFFFFF" font-family="sans-serif" font-size="14" lengthAdjust="spacing" textLength="25.8809" x="513.2344" y="52.2676">SQL</text><rect fill="#FFB900" height="36.4883" rx="12.5" ry="12.5" style="stroke:#FFB900;stroke-width:3;" width="202.3555" x="250.8789" y="28.7324"/><text fill="#000000" font-family="sans-serif" font-size="14" lengthAdjust="spacing" textLength="182.3555" x="260.8789" y="52.2676">ROW_NUMBER() + QUALIFY</text><text fill="#000000" font-family="sans-serif" font-size="14" lengthAdjust="spacing" textLength="184.0029" x="13.876" y="24.5352">PARTITION BY key columns</text><path d="M250.8789,46.9766 L240.8789,46.9766 C225.8789,46.9766 225.8789,19.2441 210.8789,19.2441 L200.8789,19.2441" fill="none" style="stroke:#FFB900;stroke-width:3;"/><text fill="#000000" font-family="sans-serif" font-size="14" lengthAdjust="spacing" textLength="187.8789" x="10" y="43.0234">ORDER BY updated_at DESC</text><path d="M250.8789,46.9766 L240.8789,46.9766 C225.8789,46.9766 225.8789,37.7324 210.8789,37.7324 L200.8789,37.7324" fill="none" style="stroke:#FFB900;stroke-width:3;"/><text fill="#000000" font-family="sans-serif" font-size="14" lengthAdjust="spacing" textLength="149.1533" x="48.7256" y="61.5117">Keep row number = 1</text><path d="M250.8789,46.9766 L240.8789,46.9766 C225.8789,46.9766 225.8789,56.2207 210.8789,56.2207 L200.8789,56.2207" fill="none" style="stroke:#FFB900;stroke-width:3;"/><text fill="#000000" font-family="sans-serif" font-size="14" lengthAdjust="spacing" textLength="186.3682" x="11.5107" y="80">Controls which row to keep</text><path d="M250.8789,46.9766 L240.8789,46.9766 C225.8789,46.9766 225.8789,74.709 210.8789,74.709 L200.8789,74.709" fill="none" style="stroke:#FFB900;stroke-width:3;"/><path d="M503.2344,46.9766 L493.2344,46.9766 C478.2344,46.9766 478.2344,46.9766 463.2344,46.9766 L453.2344,46.9766" fill="none" style="stroke:#0078D4;stroke-width:3;"/><path d="M599.1152,75.2207 L589.1152,75.2207 C574.1152,75.2207 574.1152,46.9766 559.1152,46.9766 L549.1152,46.9766" fill="none" style="stroke:#FF5F46;stroke-width:3;"/><rect fill="#0078D4" height="36.4883" rx="12.5" ry="12.5" style="stroke:#0078D4;stroke-width:3;" width="125.7383" x="423.377" y="93.9531"/><text fill="#FFFFFF" font-family="sans-serif" font-size="14" lengthAdjust="spacing" textLength="105.7383" x="433.377" y="117.4883">Strategy Choice</text><text fill="#000000" font-family="sans-serif" font-size="14" lengthAdjust="spacing" textLength="231.957" x="138.4199" y="99">dropDuplicates: simple key dedup</text><path d="M423.377,112.1973 L413.377,112.1973 C398.377,112.1973 398.377,93.709 383.377,93.709 L373.377,93.709" fill="none" style="stroke:#0078D4;stroke-width:3;"/><text fill="#000000" font-family="sans-serif" font-size="14" lengthAdjust="spacing" textLength="222.0791" x="148.2979" y="117.4883">ROW_NUMBER: keep most recent</text><path d="M423.377,112.1973 L413.377,112.1973 C398.377,112.1973 398.377,112.1973 383.377,112.1973 L373.377,112.1973" fill="none" style="stroke:#0078D4;stroke-width:3;"/><text fill="#000000" font-family="sans-serif" font-size="14" lengthAdjust="spacing" textLength="192.3223" x="178.0547" y="135.9766">distinct(): all columns match</text><path d="M423.377,112.1973 L413.377,112.1973 C398.377,112.1973 398.377,130.6855 383.377,130.6855 L373.377,130.6855" fill="none" style="stroke:#0078D4;stroke-width:3;"/><path d="M599.1152,75.2207 L589.1152,75.2207 C574.1152,75.2207 574.1152,112.1973 559.1152,112.1973 L549.1152,112.1973" fill="none" style="stroke:#FF5F46;stroke-width:3;"/><?plantuml-src VLDTQzim57tthxYmbmIJpCcwRWlTQFDX24kRraafXK5mfEjQH9Q49AyrPVzzikAbn2EzBpRdN9zpxW5V6fjgMp11YrG55yPM77y48uhAvfse2wy1k1cdPFUaPIdeH7AfuKCSVuxFpZstO0B_HsCfR8DcVWwxwvoHdK1Zu5C_2lxyyngSz8gYBr-dPssl5dgisaeG-tdp6fxqohBjjoXgUxNGTxqYFyvhArzulVDwSkFYOrDt20aMyZV-4jDISKPIYmuXKbCJX27SLYkLwfrx3O5ggGvBfjEjmN03AuM4PHNii08YULa8qp0_4PM1Z6bZGH9IQes2u5wB6Si4iGULkEGSj7m6YhJnO584lHwixXRkqODa-R2vkRyUpv9E5qAukxzQpEF7ckfjuFOgMS_Ny-KDZ1-FakpfPJAT9JLLAkh2qqrgOJfRJHgw3khDHLbiKSDt63JCn7Md9JVmx8hF_OwLpW2LZsQrKtkgO99BvYxpdnpND0B32iNHX_AtxRVUhXbvEIYaQqaZGM4RdKD58qXTESr5KAIMvC4bkj-c-NM2GNyO3S_xmxy0?></g></svg>