<?plantuml 1.2026.2?><svg xmlns="http://www.w3.org/2000/svg" xmlns:xlink="http://www.w3.org/1999/xlink" contentStyleType="text/css" data-diagram-type="MINDMAP" height="304px" preserveAspectRatio="none" style="width:1327px;height:304px;background:#FFFFFF;" version="1.1" viewBox="0 0 1327 304" width="1327px" zoomAndPan="magnify"><defs/><g><rect fill="#FF5F46" height="52.9766" rx="12.5" ry="12.5" style="stroke:#FF5F46;stroke-width:3;" width="214.6602" x="583.748" y="124.7324"/><text fill="#FFFFFF" font-family="sans-serif" font-size="14" lengthAdjust="spacing" textLength="124.0244" x="593.748" y="148.2676">Aggregate Data to</text><text fill="#FFFFFF" font-family="sans-serif" font-size="14" lengthAdjust="spacing" textLength="194.6602" x="593.748" y="164.7559">Calculate Summary Statistics</text><rect fill="#0078D4" height="36.4883" rx="12.5" ry="12.5" style="stroke:#0078D4;stroke-width:3;" width="151.9063" x="848.4082" y="104.7324"/><text fill="#FFFFFF" font-family="sans-serif" font-size="14" lengthAdjust="spacing" textLength="131.9063" x="858.4082" y="128.2676">Common Functions</text><rect fill="#FFB900" height="36.4883" rx="12.5" ry="12.5" style="stroke:#FFB900;stroke-width:3;" width="67.4893" x="1050.3145" y="20"/><text fill="#000000" font-family="sans-serif" font-size="14" lengthAdjust="spacing" textLength="47.4893" x="1060.3145" y="43.5352">count()</text><text fill="#000000" font-family="sans-serif" font-size="14" lengthAdjust="spacing" textLength="107.1328" x="1170.8037" y="43.5352">Rows per group</text><path d="M1117.8037,38.2441 L1127.8037,38.2441 C1142.8037,38.2441 1142.8037,38.2441 1157.8037,38.2441 L1167.8037,38.2441" fill="none" style="stroke:#FFB900;stroke-width:3;"/><path d="M1000.3145,122.9766 L1010.3145,122.9766 C1025.3145,122.9766 1025.3145,38.2441 1040.3145,38.2441 L1050.3145,38.2441" fill="none" style="stroke:#0078D4;stroke-width:3;"/><rect fill="#FFB900" height="36.4883" rx="12.5" ry="12.5" style="stroke:#FFB900;stroke-width:3;" width="58.001" x="1050.3145" y="76.4883"/><text fill="#000000" font-family="sans-serif" font-size="14" lengthAdjust="spacing" textLength="38.001" x="1060.3145" y="100.0234">sum()</text><text fill="#000000" font-family="sans-serif" font-size="14" lengthAdjust="spacing" textLength="154.417" x="1161.3154" y="100.0234">Total of column values</text><path d="M1108.3154,94.7324 L1118.3154,94.7324 C1133.3154,94.7324 1133.3154,94.7324 1148.3154,94.7324 L1158.3154,94.7324" fill="none" style="stroke:#FFB900;stroke-width:3;"/><path d="M1000.3145,122.9766 L1010.3145,122.9766 C1025.3145,122.9766 1025.3145,94.7324 1040.3145,94.7324 L1050.3145,94.7324" fill="none" style="stroke:#0078D4;stroke-width:3;"/><rect fill="#FFB900" height="36.4883" rx="12.5" ry="12.5" style="stroke:#FFB900;stroke-width:3;" width="52.8125" x="1050.3145" y="132.9766"/><text fill="#000000" font-family="sans-serif" font-size="14" lengthAdjust="spacing" textLength="32.8125" x="1060.3145" y="156.5117">avg()</text><text fill="#000000" font-family="sans-serif" font-size="14" lengthAdjust="spacing" textLength="76.2207" x="1156.127" y="156.5117">Mean value</text><path d="M1103.127,151.2207 L1113.127,151.2207 C1128.127,151.2207 1128.127,151.2207 1143.127,151.2207 L1153.127,151.2207" fill="none" style="stroke:#FFB900;stroke-width:3;"/><path d="M1000.3145,122.9766 L1010.3145,122.9766 C1025.3145,122.9766 1025.3145,151.2207 1040.3145,151.2207 L1050.3145,151.2207" fill="none" style="stroke:#0078D4;stroke-width:3;"/><rect fill="#FFB900" height="36.4883" rx="12.5" ry="12.5" style="stroke:#FFB900;stroke-width:3;" width="109.6055" x="1050.3145" y="189.4648"/><text fill="#000000" font-family="sans-serif" font-size="14" lengthAdjust="spacing" textLength="89.6055" x="1060.3145" y="213">min() / max()</text><text fill="#000000" font-family="sans-serif" font-size="14" lengthAdjust="spacing" textLength="62.9453" x="1212.9199" y="213">Extremes</text><path d="M1159.9199,207.709 L1169.9199,207.709 C1184.9199,207.709 1184.9199,207.709 1199.9199,207.709 L1209.9199,207.709" fill="none" style="stroke:#FFB900;stroke-width:3;"/><path d="M1000.3145,122.9766 L1010.3145,122.9766 C1025.3145,122.9766 1025.3145,207.709 1040.3145,207.709 L1050.3145,207.709" fill="none" style="stroke:#0078D4;stroke-width:3;"/><path d="M798.4082,151.2207 L808.4082,151.2207 C823.4082,151.2207 823.4082,122.9766 838.4082,122.9766 L848.4082,122.9766" fill="none" style="stroke:#FF5F46;stroke-width:3;"/><rect fill="#0078D4" height="36.4883" rx="12.5" ry="12.5" style="stroke:#0078D4;stroke-width:3;" width="73.0469" x="848.4082" y="245.9531"/><text fill="#FFFFFF" font-family="sans-serif" font-size="14" lengthAdjust="spacing" textLength="53.0469" x="858.4082" y="269.4883">PySpark</text><rect fill="#FFB900" height="36.4883" rx="12.5" ry="12.5" style="stroke:#FFB900;stroke-width:3;" width="110.9316" x="971.4551" y="245.9531"/><text fill="#000000" font-family="sans-serif" font-size="14" lengthAdjust="spacing" textLength="90.9316" x="981.4551" y="269.4883">agg() method</text><text fill="#000000" font-family="sans-serif" font-size="14" lengthAdjust="spacing" textLength="103.0313" x="1135.3867" y="251">After groupBy()</text><path d="M1082.3867,264.1973 L1092.3867,264.1973 C1107.3867,264.1973 1107.3867,245.709 1122.3867,245.709 L1132.3867,245.709" fill="none" style="stroke:#FFB900;stroke-width:3;"/><text fill="#000000" font-family="sans-serif" font-size="14" lengthAdjust="spacing" textLength="148.0527" x="1135.3867" y="269.4883">Multiple aggregations</text><path d="M1082.3867,264.1973 L1092.3867,264.1973 C1107.3867,264.1973 1107.3867,264.1973 1122.3867,264.1973 L1132.3867,264.1973" fill="none" style="stroke:#FFB900;stroke-width:3;"/><text fill="#000000" font-family="sans-serif" font-size="14" lengthAdjust="spacing" textLength="117.7422" x="1135.3867" y="287.9766">.alias() to rename</text><path d="M1082.3867,264.1973 L1092.3867,264.1973 C1107.3867,264.1973 1107.3867,282.6855 1122.3867,282.6855 L1132.3867,282.6855" fill="none" style="stroke:#FFB900;stroke-width:3;"/><path d="M921.4551,264.1973 L931.4551,264.1973 C946.4551,264.1973 946.4551,264.1973 961.4551,264.1973 L971.4551,264.1973" fill="none" style="stroke:#0078D4;stroke-width:3;"/><path d="M798.4082,151.2207 L808.4082,151.2207 C823.4082,151.2207 823.4082,264.1973 838.4082,264.1973 L848.4082,264.1973" fill="none" style="stroke:#FF5F46;stroke-width:3;"/><rect fill="#0078D4" height="36.4883" rx="12.5" ry="12.5" style="stroke:#0078D4;stroke-width:3;" width="45.8809" x="487.8672" y="132.9766"/><text fill="#FFFFFF" font-family="sans-serif" font-size="14" lengthAdjust="spacing" textLength="25.8809" x="497.8672" y="156.5117">SQL</text><rect fill="#FFB900" height="36.4883" rx="12.5" ry="12.5" style="stroke:#FFB900;stroke-width:3;" width="174.8271" x="263.04" y="104.7324"/><text fill="#000000" font-family="sans-serif" font-size="14" lengthAdjust="spacing" textLength="154.8271" x="273.04" y="128.2676">SELECT with GROUP BY</text><text fill="#000000" font-family="sans-serif" font-size="14" lengthAdjust="spacing" textLength="200.04" x="10" y="128.2676">COUNT, SUM, AVG, MIN, MAX</text><path d="M263.04,122.9766 L253.04,122.9766 C238.04,122.9766 238.04,122.9766 223.04,122.9766 L213.04,122.9766" fill="none" style="stroke:#FFB900;stroke-width:3;"/><path d="M487.8672,151.2207 L477.8672,151.2207 C462.8672,151.2207 462.8672,122.9766 447.8672,122.9766 L437.8672,122.9766" fill="none" style="stroke:#0078D4;stroke-width:3;"/><rect fill="#FFB900" height="36.4883" rx="12.5" ry="12.5" style="stroke:#FFB900;stroke-width:3;" width="120.5977" x="317.2695" y="161.2207"/><text fill="#000000" font-family="sans-serif" font-size="14" lengthAdjust="spacing" textLength="100.5977" x="327.2695" y="184.7559">HAVING clause</text><text fill="#000000" font-family="sans-serif" font-size="14" lengthAdjust="spacing" textLength="215.8789" x="48.3906" y="175.5117">Filters groups after aggregation</text><path d="M317.2695,179.4648 L307.2695,179.4648 C292.2695,179.4648 292.2695,170.2207 277.2695,170.2207 L267.2695,170.2207" fill="none" style="stroke:#FFB900;stroke-width:3;"/><text fill="#000000" font-family="sans-serif" font-size="14" lengthAdjust="spacing" textLength="96.5986" x="167.6709" y="194">E.g. SUM &gt; 20</text><path d="M317.2695,179.4648 L307.2695,179.4648 C292.2695,179.4648 292.2695,188.709 277.2695,188.709 L267.2695,188.709" fill="none" style="stroke:#FFB900;stroke-width:3;"/><path d="M487.8672,151.2207 L477.8672,151.2207 C462.8672,151.2207 462.8672,179.4648 447.8672,179.4648 L437.8672,179.4648" fill="none" style="stroke:#0078D4;stroke-width:3;"/><path d="M583.748,151.2207 L573.748,151.2207 C558.748,151.2207 558.748,151.2207 543.748,151.2207 L533.748,151.2207" fill="none" style="stroke:#FF5F46;stroke-width:3;"/><?plantuml-src VLDTRzf047pthrYfBo23uxXf-g4eYY6OHWAInX2rKgLeOyx6uZuitpe1HVtlFH-6jAxeFlXEixCpSoVVbIOiIUHoAR1mBZHjERjqlYnPGQkEtuLN1qmDC5bdfQhaSgYuAk5T57s8pivjRv9BzYyQAKaDcjewSEUhF5bBfZMyztpdrzxhzAYNxt_yT7tMzcgXVwks4aIstho2ervf-lJPzzjUBVI_Nhuju_MaDhpcl1vbN9mqr-r2c6Kbov0ON2CXaFefXyYJYjTGN0c1vHPYGiervObsN1U6IWWb8QfaGhcIDUP2Oiv2dMwzTn_XNhreA5W9zHaBIz2LEBJdYf23IiqKhuI4P-GLs-dWStQWJHasFTio_qgd2oSWS7EWZ3PKCc5duMuR5rYkTpAPaG71QAMM3JLCQHzei7tpg3Zb1MVrXBs8_ObCpqEUepOwfA1a4WLp-ds8lqtCOjRHP3ISmqjEAnZVtoxkOF2ZRlGVONYxcCrx42-cFGWVnZsOtipC9_nk1x-63pUpCIGSAysQYIZd9ftUnTE0DkiVaHhQoCkyMXOk8V2TAsOUJ_E0d5Cly8DpB_WD?></g></svg>