<?plantuml 1.2026.2?><svg xmlns="http://www.w3.org/2000/svg" xmlns:xlink="http://www.w3.org/1999/xlink" contentStyleType="text/css" data-diagram-type="MINDMAP" height="191px" preserveAspectRatio="none" style="width:1439px;height:191px;background:#FFFFFF;" version="1.1" viewBox="0 0 1439 191" width="1439px" zoomAndPan="magnify"><defs/><g><rect fill="#FF5F46" height="52.9766" rx="12.5" ry="12.5" style="stroke:#FF5F46;stroke-width:3;" width="175.3945" x="475.2207" y="68.2441"/><text fill="#FFFFFF" font-family="sans-serif" font-size="14" lengthAdjust="spacing" textLength="155.3945" x="485.2207" y="91.7793">Chain Transformations</text><text fill="#FFFFFF" font-family="sans-serif" font-size="14" lengthAdjust="spacing" textLength="150.0352" x="485.2207" y="108.2676">for Readable Pipelines</text><rect fill="#0078D4" height="36.4883" rx="12.5" ry="12.5" style="stroke:#0078D4;stroke-width:3;" width="124.5693" x="700.6152" y="48.2441"/><text fill="#FFFFFF" font-family="sans-serif" font-size="14" lengthAdjust="spacing" textLength="104.5693" x="710.6152" y="71.7793">Lazy Evaluation</text><rect fill="#FFB900" height="36.4883" rx="12.5" ry="12.5" style="stroke:#FFB900;stroke-width:3;" width="275.3359" x="875.1846" y="20"/><text fill="#000000" font-family="sans-serif" font-size="14" lengthAdjust="spacing" textLength="255.3359" x="885.1846" y="43.5352">Operations not executed immediately</text><text fill="#000000" font-family="sans-serif" font-size="14" lengthAdjust="spacing" textLength="224.4785" x="1203.5205" y="43.5352">Execute on action (display/show)</text><path d="M1150.5205,38.2441 L1160.5205,38.2441 C1175.5205,38.2441 1175.5205,38.2441 1190.5205,38.2441 L1200.5205,38.2441" fill="none" style="stroke:#FFB900;stroke-width:3;"/><path d="M825.1846,66.4883 L835.1846,66.4883 C850.1846,66.4883 850.1846,38.2441 865.1846,38.2441 L875.1846,38.2441" fill="none" style="stroke:#0078D4;stroke-width:3;"/><rect fill="#FFB900" height="36.4883" rx="12.5" ry="12.5" style="stroke:#FFB900;stroke-width:3;" width="241.252" x="875.1846" y="76.4883"/><text fill="#000000" font-family="sans-serif" font-size="14" lengthAdjust="spacing" textLength="221.252" x="885.1846" y="100.0234">Spark optimizes entire sequence</text><text fill="#000000" font-family="sans-serif" font-size="14" lengthAdjust="spacing" textLength="164.6846" x="1169.4365" y="100.0234">Query plan optimization</text><path d="M1116.4365,94.7324 L1126.4365,94.7324 C1141.4365,94.7324 1141.4365,94.7324 1156.4365,94.7324 L1166.4365,94.7324" fill="none" style="stroke:#FFB900;stroke-width:3;"/><path d="M825.1846,66.4883 L835.1846,66.4883 C850.1846,66.4883 850.1846,94.7324 865.1846,94.7324 L875.1846,94.7324" fill="none" style="stroke:#0078D4;stroke-width:3;"/><path d="M650.6152,94.7324 L660.6152,94.7324 C675.6152,94.7324 675.6152,66.4883 690.6152,66.4883 L700.6152,66.4883" fill="none" style="stroke:#FF5F46;stroke-width:3;"/><rect fill="#0078D4" height="36.4883" rx="12.5" ry="12.5" style="stroke:#0078D4;stroke-width:3;" width="135.9307" x="700.6152" y="132.9766"/><text fill="#FFFFFF" font-family="sans-serif" font-size="14" lengthAdjust="spacing" textLength="115.9307" x="710.6152" y="156.5117">Method Chaining</text><rect fill="#FFB900" height="36.4883" rx="12.5" ry="12.5" style="stroke:#FFB900;stroke-width:3;" width="264.8223" x="886.5459" y="132.9766"/><text fill="#000000" font-family="sans-serif" font-size="14" lengthAdjust="spacing" textLength="244.8223" x="896.5459" y="156.5117">filter() &#8594; groupBy() &#8594; agg() &#8594; sort()</text><text fill="#000000" font-family="sans-serif" font-size="14" lengthAdjust="spacing" textLength="194.7695" x="1204.3682" y="147.2676">Each step builds on previous</text><path d="M1151.3682,151.2207 L1161.3682,151.2207 C1176.3682,151.2207 1176.3682,141.9766 1191.3682,141.9766 L1201.3682,141.9766" fill="none" style="stroke:#FFB900;stroke-width:3;"/><text fill="#000000" font-family="sans-serif" font-size="14" lengthAdjust="spacing" textLength="177.5908" x="1204.3682" y="165.7559">Parentheses for multi-line</text><path d="M1151.3682,151.2207 L1161.3682,151.2207 C1176.3682,151.2207 1176.3682,160.4648 1191.3682,160.4648 L1201.3682,160.4648" fill="none" style="stroke:#FFB900;stroke-width:3;"/><path d="M836.5459,151.2207 L846.5459,151.2207 C861.5459,151.2207 861.5459,151.2207 876.5459,151.2207 L886.5459,151.2207" fill="none" style="stroke:#0078D4;stroke-width:3;"/><path d="M650.6152,94.7324 L660.6152,94.7324 C675.6152,94.7324 675.6152,151.2207 690.6152,151.2207 L700.6152,151.2207" fill="none" style="stroke:#FF5F46;stroke-width:3;"/><rect fill="#0078D4" height="36.4883" rx="12.5" ry="12.5" style="stroke:#0078D4;stroke-width:3;" width="112.415" x="312.8057" y="76.4883"/><text fill="#FFFFFF" font-family="sans-serif" font-size="14" lengthAdjust="spacing" textLength="92.415" x="322.8057" y="100.0234">Best Practices</text><text fill="#000000" font-family="sans-serif" font-size="14" lengthAdjust="spacing" textLength="109.7852" x="150.0205" y="72.291">Place filters first</text><path d="M312.8057,94.7324 L302.8057,94.7324 C287.8057,94.7324 287.8057,67 272.8057,67 L262.8057,67" fill="none" style="stroke:#0078D4;stroke-width:3;"/><text fill="#000000" font-family="sans-serif" font-size="14" lengthAdjust="spacing" textLength="237.8838" x="21.9219" y="90.7793">Reduces data for subsequent steps</text><path d="M312.8057,94.7324 L302.8057,94.7324 C287.8057,94.7324 287.8057,85.4883 272.8057,85.4883 L262.8057,85.4883" fill="none" style="stroke:#0078D4;stroke-width:3;"/><text fill="#000000" font-family="sans-serif" font-size="14" lengthAdjust="spacing" textLength="138.1611" x="121.6445" y="109.2676">Improves readability</text><path d="M312.8057,94.7324 L302.8057,94.7324 C287.8057,94.7324 287.8057,103.9766 272.8057,103.9766 L262.8057,103.9766" fill="none" style="stroke:#0078D4;stroke-width:3;"/><text fill="#000000" font-family="sans-serif" font-size="14" lengthAdjust="spacing" textLength="249.8057" x="10" y="127.7559">Clear data flow from source to result</text><path d="M312.8057,94.7324 L302.8057,94.7324 C287.8057,94.7324 287.8057,122.4648 272.8057,122.4648 L262.8057,122.4648" fill="none" style="stroke:#0078D4;stroke-width:3;"/><path d="M475.2207,94.7324 L465.2207,94.7324 C450.2207,94.7324 450.2207,94.7324 435.2207,94.7324 L425.2207,94.7324" fill="none" style="stroke:#FF5F46;stroke-width:3;"/><?plantuml-src VLFRRXCn47tVhnY9bqIhJRUXb8igL2Kq4b9HG-aZ4fgiPxDMlBQnnsct5Qzy09_8b-2z1CIYC4_sp3bppepbIy_ek9PQr6YJ2y-DehV96q6Mgqa-XQS4OYoms6sT2LeiZJ8EdgrMBrPdvrtjMchwDxioceTisSLlx5qbYvqcx-7vB4--7RHEZshb-SjNxyx6MgFitrr73bPT_D6Q7zKgoythF1zhZRB_rSgxY5eRyw1QpDDHnCN9iEuKbXLA3NSEjI-Dgv6bqVwpZcUu9HIuKGHhQKb5UP-aALpZOmDNUrIXmyPK2ZUMNCy4RHZeWOh0943MDGc9JAffSUaNkEfBO3HWqJ9W8gIt2fiJNvdxQTVkaqMt0sDPrlAHF91cwGWyVGsa2nfQVGpa6eXKVO0U3C47uig8VZQfjrtJKYecDvd2p-y_e5szNJJ33RVRuUIDuydqu1MB2ZoJXKsGIlZMj7MqboRu0R965yrLvAFBTcLrK2opTbT9bi62FCFQjOCMSNbPbaM6me86Cv4ZdUU-S4iYH1G8PEnw-R3f9-REnC1_NrjdzX7dkjUHIdBJLvQAq0rqPUwXTAQE0mKNzTX4l8_caakA7sxuTCdfR9xFpsVpNm00?></g></svg>