<?plantuml 1.2026.2?><svg xmlns="http://www.w3.org/2000/svg" xmlns:xlink="http://www.w3.org/1999/xlink" contentStyleType="text/css" data-diagram-type="MINDMAP" height="247px" preserveAspectRatio="none" style="width:1308px;height:247px;background:#FFFFFF;" version="1.1" viewBox="0 0 1308 247" width="1308px" zoomAndPan="magnify"><defs/><g><rect fill="#FF5F46" height="52.9766" rx="12.5" ry="12.5" style="stroke:#FF5F46;stroke-width:3;" width="161.2305" x="525.2461" y="96.4883"/><text fill="#FFFFFF" font-family="sans-serif" font-size="14" lengthAdjust="spacing" textLength="88.2451" x="535.2461" y="120.0234">Filter Data to</text><text fill="#FFFFFF" font-family="sans-serif" font-size="14" lengthAdjust="spacing" textLength="141.2305" x="535.2461" y="136.5117">Select Relevant Rows</text><rect fill="#0078D4" height="36.4883" rx="12.5" ry="12.5" style="stroke:#0078D4;stroke-width:3;" width="73.0469" x="736.4766" y="76.4883"/><text fill="#FFFFFF" font-family="sans-serif" font-size="14" lengthAdjust="spacing" textLength="53.0469" x="746.4766" y="100.0234">PySpark</text><rect fill="#FFB900" height="36.4883" rx="12.5" ry="12.5" style="stroke:#FFB900;stroke-width:3;" width="127.2217" x="859.5234" y="20"/><text fill="#000000" font-family="sans-serif" font-size="14" lengthAdjust="spacing" textLength="107.2217" x="869.5234" y="43.5352">filter() / where()</text><text fill="#000000" font-family="sans-serif" font-size="14" lengthAdjust="spacing" textLength="189.6904" x="1039.7451" y="43.5352">Identical, use for readability</text><path d="M986.7451,38.2441 L996.7451,38.2441 C1011.7451,38.2441 1011.7451,38.2441 1026.7451,38.2441 L1036.7451,38.2441" fill="none" style="stroke:#FFB900;stroke-width:3;"/><path d="M809.5234,94.7324 L819.5234,94.7324 C834.5234,94.7324 834.5234,38.2441 849.5234,38.2441 L859.5234,38.2441" fill="none" style="stroke:#0078D4;stroke-width:3;"/><rect fill="#FFB900" height="36.4883" rx="12.5" ry="12.5" style="stroke:#FFB900;stroke-width:3;" width="109.6191" x="859.5234" y="76.4883"/><text fill="#000000" font-family="sans-serif" font-size="14" lengthAdjust="spacing" textLength="89.6191" x="869.5234" y="100.0234">col() function</text><text fill="#000000" font-family="sans-serif" font-size="14" lengthAdjust="spacing" textLength="170.3379" x="1022.1426" y="100.0234">Reference column names</text><path d="M969.1426,94.7324 L979.1426,94.7324 C994.1426,94.7324 994.1426,94.7324 1009.1426,94.7324 L1019.1426,94.7324" fill="none" style="stroke:#FFB900;stroke-width:3;"/><path d="M809.5234,94.7324 L819.5234,94.7324 C834.5234,94.7324 834.5234,94.7324 849.5234,94.7324 L859.5234,94.7324" fill="none" style="stroke:#0078D4;stroke-width:3;"/><rect fill="#FFB900" height="36.4883" rx="12.5" ry="12.5" style="stroke:#FFB900;stroke-width:3;" width="150.1904" x="859.5234" y="132.9766"/><text fill="#000000" font-family="sans-serif" font-size="14" lengthAdjust="spacing" textLength="130.1904" x="869.5234" y="156.5117">Multiple conditions</text><text fill="#000000" font-family="sans-serif" font-size="14" lengthAdjust="spacing" textLength="68.585" x="1062.7139" y="138.0234">&amp; for AND</text><path d="M1009.7139,151.2207 L1019.7139,151.2207 C1034.7139,151.2207 1034.7139,132.7324 1049.7139,132.7324 L1059.7139,132.7324" fill="none" style="stroke:#FFB900;stroke-width:3;"/><text fill="#000000" font-family="sans-serif" font-size="14" lengthAdjust="spacing" textLength="53.293" x="1062.7139" y="156.5117">| for OR</text><path d="M1009.7139,151.2207 L1019.7139,151.2207 C1034.7139,151.2207 1034.7139,151.2207 1049.7139,151.2207 L1059.7139,151.2207" fill="none" style="stroke:#FFB900;stroke-width:3;"/><text fill="#000000" font-family="sans-serif" font-size="14" lengthAdjust="spacing" textLength="174.2207" x="1062.7139" y="175">Wrap each in parentheses</text><path d="M1009.7139,151.2207 L1019.7139,151.2207 C1034.7139,151.2207 1034.7139,169.709 1049.7139,169.709 L1059.7139,169.709" fill="none" style="stroke:#FFB900;stroke-width:3;"/><path d="M809.5234,94.7324 L819.5234,94.7324 C834.5234,94.7324 834.5234,151.2207 849.5234,151.2207 L859.5234,151.2207" fill="none" style="stroke:#0078D4;stroke-width:3;"/><path d="M686.4766,122.9766 L696.4766,122.9766 C711.4766,122.9766 711.4766,94.7324 726.4766,94.7324 L736.4766,94.7324" fill="none" style="stroke:#FF5F46;stroke-width:3;"/><rect fill="#0078D4" height="36.4883" rx="12.5" ry="12.5" style="stroke:#0078D4;stroke-width:3;" width="107.3838" x="736.4766" y="189.4648"/><text fill="#FFFFFF" font-family="sans-serif" font-size="14" lengthAdjust="spacing" textLength="87.3838" x="746.4766" y="213">Null Filtering</text><rect fill="#FFB900" height="36.4883" rx="12.5" ry="12.5" style="stroke:#FFB900;stroke-width:3;" width="155.208" x="893.8604" y="189.4648"/><text fill="#000000" font-family="sans-serif" font-size="14" lengthAdjust="spacing" textLength="135.208" x="903.8604" y="213">isNull() / isNotNull()</text><text fill="#000000" font-family="sans-serif" font-size="14" lengthAdjust="spacing" textLength="124.1201" x="1102.0684" y="203.7559">Don't use != None</text><path d="M1049.0684,207.709 L1059.0684,207.709 C1074.0684,207.709 1074.0684,198.4648 1089.0684,198.4648 L1099.0684,198.4648" fill="none" style="stroke:#FFB900;stroke-width:3;"/><text fill="#000000" font-family="sans-serif" font-size="14" lengthAdjust="spacing" textLength="194.4756" x="1102.0684" y="222.2441">Null comparisons return null</text><path d="M1049.0684,207.709 L1059.0684,207.709 C1074.0684,207.709 1074.0684,216.9531 1089.0684,216.9531 L1099.0684,216.9531" fill="none" style="stroke:#FFB900;stroke-width:3;"/><path d="M843.8604,207.709 L853.8604,207.709 C868.8604,207.709 868.8604,207.709 883.8604,207.709 L893.8604,207.709" fill="none" style="stroke:#0078D4;stroke-width:3;"/><path d="M686.4766,122.9766 L696.4766,122.9766 C711.4766,122.9766 711.4766,207.709 726.4766,207.709 L736.4766,207.709" fill="none" style="stroke:#FF5F46;stroke-width:3;"/><rect fill="#0078D4" height="36.4883" rx="12.5" ry="12.5" style="stroke:#0078D4;stroke-width:3;" width="45.8809" x="429.3652" y="76.4883"/><text fill="#FFFFFF" font-family="sans-serif" font-size="14" lengthAdjust="spacing" textLength="25.8809" x="439.3652" y="100.0234">SQL</text><rect fill="#FFB900" height="36.4883" rx="12.5" ry="12.5" style="stroke:#FFB900;stroke-width:3;" width="113.2969" x="266.0684" y="48.2441"/><text fill="#000000" font-family="sans-serif" font-size="14" lengthAdjust="spacing" textLength="93.2969" x="276.0684" y="71.7793">WHERE clause</text><text fill="#000000" font-family="sans-serif" font-size="14" lengthAdjust="spacing" textLength="141.873" x="71.1953" y="71.7793">AND / OR conditions</text><path d="M266.0684,66.4883 L256.0684,66.4883 C241.0684,66.4883 241.0684,66.4883 226.0684,66.4883 L216.0684,66.4883" fill="none" style="stroke:#FFB900;stroke-width:3;"/><path d="M429.3652,94.7324 L419.3652,94.7324 C404.3652,94.7324 404.3652,66.4883 389.3652,66.4883 L379.3652,66.4883" fill="none" style="stroke:#0078D4;stroke-width:3;"/><rect fill="#FFB900" height="36.4883" rx="12.5" ry="12.5" style="stroke:#FFB900;stroke-width:3;" width="172.6533" x="206.7119" y="104.7324"/><text fill="#000000" font-family="sans-serif" font-size="14" lengthAdjust="spacing" textLength="152.6533" x="216.7119" y="128.2676">IS NULL / IS NOT NULL</text><text fill="#000000" font-family="sans-serif" font-size="14" lengthAdjust="spacing" textLength="143.7119" x="10" y="128.2676">Correct null handling</text><path d="M206.7119,122.9766 L196.7119,122.9766 C181.7119,122.9766 181.7119,122.9766 166.7119,122.9766 L156.7119,122.9766" fill="none" style="stroke:#FFB900;stroke-width:3;"/><path d="M429.3652,94.7324 L419.3652,94.7324 C404.3652,94.7324 404.3652,122.9766 389.3652,122.9766 L379.3652,122.9766" fill="none" style="stroke:#0078D4;stroke-width:3;"/><path d="M525.2461,122.9766 L515.2461,122.9766 C500.2461,122.9766 500.2461,94.7324 485.2461,94.7324 L475.2461,94.7324" fill="none" style="stroke:#FF5F46;stroke-width:3;"/><rect fill="#0078D4" height="36.4883" rx="12.5" ry="12.5" style="stroke:#0078D4;stroke-width:3;" width="91.1211" x="384.125" y="161.2207"/><text fill="#FFFFFF" font-family="sans-serif" font-size="14" lengthAdjust="spacing" textLength="71.1211" x="394.125" y="184.7559">spark.sql()</text><text fill="#000000" font-family="sans-serif" font-size="14" lengthAdjust="spacing" textLength="195.2617" x="135.8633" y="184.7559">Mix SQL in PySpark pipelines</text><path d="M384.125,179.4648 L374.125,179.4648 C359.125,179.4648 359.125,179.4648 344.125,179.4648 L334.125,179.4648" fill="none" style="stroke:#0078D4;stroke-width:3;"/><path d="M525.2461,122.9766 L515.2461,122.9766 C500.2461,122.9766 500.2461,179.4648 485.2461,179.4648 L475.2461,179.4648" fill="none" style="stroke:#FF5F46;stroke-width:3;"/><?plantuml-src VLDjRzCm4FwUNt482LfbxR8oDa033TP5JEfQI8Vs1MbodSjYrR4pss6h1l-Tip4lorJkY--UktkUEri-jeuPrmXLDgnDZgpRI7oNl2cnTVKW6y9z0cGV65zV6zsfyaHBRU1fdh_Czmz2RYOKFaPphLn4gs1_QYzgmTSAhOKNuopvyLjhRwjMbXs-ckxtjNheGzRU17cmlrgJhLfLjNgTPNsj7lfVhImOQQtqdVGrzrihZdRZTQUG2-dGm9Gv1av_LKkKo1qKT7nZYXnzQvCqXK-RPSlCcjmKgj0p6C8ktDPeS33qS7e5PoKg9pYJEz1PX8f43RAIhOGKRXDwkPRKM7MAEw5Lx2km8Xh5qQUxHe5Y3TfGVzv99rhfCweKliV6fcU1__ry6kFl8LuKCRmqh0Lal0QXW4QdoMgqWHNcdPHnSw6kWuwm7WmxaQlThoXoJRLwxi9AJzx2N2kCUE3XkY5wOMaosjPrXiOdF1cDOFbvHiS8BZ-U5gV09ICA3uok_DmajIZ-tSkNdYrX_cKsevpt5XSXYZqdsXZ_E9uUQgPAwQUd9kkVPcnl_CIXybpSUN6_UdmuQ4MBL4yNS8pqv-A_I_R6asnoC9xy1000?></g></svg>