<?plantuml 1.2026.2?><svg xmlns="http://www.w3.org/2000/svg" xmlns:xlink="http://www.w3.org/1999/xlink" contentStyleType="text/css" data-diagram-type="MINDMAP" height="134px" preserveAspectRatio="none" style="width:1266px;height:134px;background:#FFFFFF;" version="1.1" viewBox="0 0 1266 134" width="1266px" zoomAndPan="magnify"><defs/><g><rect fill="#FF5F46" height="52.9766" rx="12.5" ry="12.5" style="stroke:#FF5F46;stroke-width:3;" width="140.1553" x="547.4971" y="40"/><text fill="#FFFFFF" font-family="sans-serif" font-size="14" lengthAdjust="spacing" textLength="95.8262" x="557.4971" y="63.5352">Group Data to</text><text fill="#FFFFFF" font-family="sans-serif" font-size="14" lengthAdjust="spacing" textLength="120.1553" x="557.4971" y="80.0234">Organize Records</text><rect fill="#0078D4" height="36.4883" rx="12.5" ry="12.5" style="stroke:#0078D4;stroke-width:3;" width="73.0469" x="737.6523" y="48.2441"/><text fill="#FFFFFF" font-family="sans-serif" font-size="14" lengthAdjust="spacing" textLength="53.0469" x="747.6523" y="71.7793">PySpark</text><rect fill="#FFB900" height="36.4883" rx="12.5" ry="12.5" style="stroke:#FFB900;stroke-width:3;" width="85.0303" x="860.6992" y="48.2441"/><text fill="#000000" font-family="sans-serif" font-size="14" lengthAdjust="spacing" textLength="65.0303" x="870.6992" y="71.7793">groupBy()</text><text fill="#000000" font-family="sans-serif" font-size="14" lengthAdjust="spacing" textLength="181.6172" x="998.7295" y="53.291">Single or multiple columns</text><path d="M945.7295,66.4883 L955.7295,66.4883 C970.7295,66.4883 970.7295,48 985.7295,48 L995.7295,48" fill="none" style="stroke:#FFB900;stroke-width:3;"/><text fill="#000000" font-family="sans-serif" font-size="14" lengthAdjust="spacing" textLength="192.6094" x="998.7295" y="71.7793">Returns GroupedData object</text><path d="M945.7295,66.4883 L955.7295,66.4883 C970.7295,66.4883 970.7295,66.4883 985.7295,66.4883 L995.7295,66.4883" fill="none" style="stroke:#FFB900;stroke-width:3;"/><text fill="#000000" font-family="sans-serif" font-size="14" lengthAdjust="spacing" textLength="256.0811" x="998.7295" y="90.2676">Must apply aggregation to see results</text><path d="M945.7295,66.4883 L955.7295,66.4883 C970.7295,66.4883 970.7295,84.9766 985.7295,84.9766 L995.7295,84.9766" fill="none" style="stroke:#FFB900;stroke-width:3;"/><path d="M810.6992,66.4883 L820.6992,66.4883 C835.6992,66.4883 835.6992,66.4883 850.6992,66.4883 L860.6992,66.4883" fill="none" style="stroke:#0078D4;stroke-width:3;"/><path d="M687.6523,66.4883 L697.6523,66.4883 C712.6523,66.4883 712.6523,66.4883 727.6523,66.4883 L737.6523,66.4883" fill="none" style="stroke:#FF5F46;stroke-width:3;"/><rect fill="#0078D4" height="36.4883" rx="12.5" ry="12.5" style="stroke:#0078D4;stroke-width:3;" width="45.8809" x="451.6162" y="20"/><text fill="#FFFFFF" font-family="sans-serif" font-size="14" lengthAdjust="spacing" textLength="25.8809" x="461.6162" y="43.5352">SQL</text><rect fill="#FFB900" height="36.4883" rx="12.5" ry="12.5" style="stroke:#FFB900;stroke-width:3;" width="135.4932" x="266.123" y="20"/><text fill="#000000" font-family="sans-serif" font-size="14" lengthAdjust="spacing" textLength="115.4932" x="276.123" y="43.5352">GROUP BY clause</text><text fill="#000000" font-family="sans-serif" font-size="14" lengthAdjust="spacing" textLength="203.123" x="10" y="25.0469">Every SELECT column must be</text><path d="M266.123,38.2441 L256.123,38.2441 C241.123,38.2441 241.123,19.7559 226.123,19.7559 L216.123,19.7559" fill="none" style="stroke:#FFB900;stroke-width:3;"/><text fill="#000000" font-family="sans-serif" font-size="14" lengthAdjust="spacing" textLength="108.8281" x="104.2949" y="43.5352">In GROUP BY, or</text><path d="M266.123,38.2441 L256.123,38.2441 C241.123,38.2441 241.123,38.2441 226.123,38.2441 L216.123,38.2441" fill="none" style="stroke:#FFB900;stroke-width:3;"/><text fill="#000000" font-family="sans-serif" font-size="14" lengthAdjust="spacing" textLength="166.9131" x="46.21" y="62.0234">In an aggregate function</text><path d="M266.123,38.2441 L256.123,38.2441 C241.123,38.2441 241.123,56.7324 226.123,56.7324 L216.123,56.7324" fill="none" style="stroke:#FFB900;stroke-width:3;"/><path d="M451.6162,38.2441 L441.6162,38.2441 C426.6162,38.2441 426.6162,38.2441 411.6162,38.2441 L401.6162,38.2441" fill="none" style="stroke:#0078D4;stroke-width:3;"/><path d="M547.4971,66.4883 L537.4971,66.4883 C522.4971,66.4883 522.4971,38.2441 507.4971,38.2441 L497.4971,38.2441" fill="none" style="stroke:#FF5F46;stroke-width:3;"/><rect fill="#0078D4" height="36.4883" rx="12.5" ry="12.5" style="stroke:#0078D4;stroke-width:3;" width="74.5029" x="422.9941" y="76.4883"/><text fill="#FFFFFF" font-family="sans-serif" font-size="14" lengthAdjust="spacing" textLength="54.5029" x="432.9941" y="100.0234">Purpose</text><text fill="#000000" font-family="sans-serif" font-size="14" lengthAdjust="spacing" textLength="210.8545" x="159.1396" y="81.5352">Organizes rows into categories</text><path d="M422.9941,94.7324 L412.9941,94.7324 C397.9941,94.7324 397.9941,76.2441 382.9941,76.2441 L372.9941,76.2441" fill="none" style="stroke:#0078D4;stroke-width:3;"/><text fill="#000000" font-family="sans-serif" font-size="14" lengthAdjust="spacing" textLength="202.501" x="167.4932" y="100.0234">Prepares data for aggregation</text><path d="M422.9941,94.7324 L412.9941,94.7324 C397.9941,94.7324 397.9941,94.7324 382.9941,94.7324 L372.9941,94.7324" fill="none" style="stroke:#0078D4;stroke-width:3;"/><text fill="#000000" font-family="sans-serif" font-size="14" lengthAdjust="spacing" textLength="241.6572" x="128.3369" y="118.5117">Reduces data to meaningful groups</text><path d="M422.9941,94.7324 L412.9941,94.7324 C397.9941,94.7324 397.9941,113.2207 382.9941,113.2207 L372.9941,113.2207" fill="none" style="stroke:#0078D4;stroke-width:3;"/><path d="M547.4971,66.4883 L537.4971,66.4883 C522.4971,66.4883 522.4971,94.7324 507.4971,94.7324 L497.4971,94.7324" fill="none" style="stroke:#FF5F46;stroke-width:3;"/><?plantuml-src VPDTJzim58RlyokEn0qej0k5iJ6X2HKQXDI9hcKNI9Cgrpa9NXtRyWSG4Fzz9nyjMwRktCG-UVq-hu_a2-UPzQLGMSbCTEvy9V5hz2L3un_samDuZO1gpFYwi3gex59BRM4lJJ-c9wVDlwbG-6ytrSfttRofhVRkGV2rGkVWU9X4RnlMqKvMadpwV7NIP_MwVxls4gHDlRD6ErbvlZfBaZwhr_qlAscAM2lzB6lDwqx5-OTkt35SKmW3LympyFgdkhK5K-85OOvSsyn5SGopQc6ONTCoXZgp6LVx1_KkNi92g48Ya7iPf1U6rbpBK2hN2UReWrMkvM3MWFJg5tBV2Ru5vu4P8ojWHM6nO5veHM708O95Hxuk6WnWyNrAdm5Spsz_p61y3roouB3k3POmUKHRmM8odLpUTH4e4bclDeeRjJrwI87VkqnjoGXvKBmEK1DdmHhT4fQmcOm3gvyS24K9EPqej1NeMitC8asA95bzpPocyiULMiaSiy0t2h8eaLnLaGVPpjP55qXFediMqT5mb8nEXwFV?></g></svg>