<?plantuml 1.2026.2?><svg xmlns="http://www.w3.org/2000/svg" xmlns:xlink="http://www.w3.org/1999/xlink" contentStyleType="text/css" data-diagram-type="MINDMAP" height="238px" preserveAspectRatio="none" style="width:1634px;height:238px;background:#FFFFFF;" version="1.1" viewBox="0 0 1634 238" width="1634px" zoomAndPan="magnify"><defs/><g><rect fill="#FF5F46" height="52.9766" rx="12.5" ry="12.5" style="stroke:#FF5F46;stroke-width:3;" width="168.3604" x="707.6699" y="91.6104"/><text fill="#FFFFFF" font-family="sans-serif" font-size="14" lengthAdjust="spacing" textLength="148.3604" x="717.6699" y="115.1455">Choose Between Joins</text><text fill="#FFFFFF" font-family="sans-serif" font-size="14" lengthAdjust="spacing" textLength="122.3154" x="717.6699" y="131.6338">and Set Operators</text><rect fill="#0078D4" height="36.4883" rx="12.5" ry="12.5" style="stroke:#0078D4;stroke-width:3;" width="135.5752" x="926.0303" y="99.8545"/><text fill="#FFFFFF" font-family="sans-serif" font-size="14" lengthAdjust="spacing" textLength="115.5752" x="936.0303" y="123.3896">Use Joins when...</text><rect fill="#FFB900" height="36.4883" rx="12.5" ry="12.5" style="stroke:#FFB900;stroke-width:3;" width="241.3818" x="1111.6055" y="43.3662"/><text fill="#000000" font-family="sans-serif" font-size="14" lengthAdjust="spacing" textLength="221.3818" x="1121.6055" y="66.9014">Combining columns horizontally</text><text fill="#000000" font-family="sans-serif" font-size="14" lengthAdjust="spacing" textLength="216.0293" x="1405.9873" y="66.9014">Enrich records with related data</text><path d="M1352.9873,61.6104 L1362.9873,61.6104 C1377.9873,61.6104 1377.9873,61.6104 1392.9873,61.6104 L1402.9873,61.6104" fill="none" style="stroke:#FFB900;stroke-width:3;"/><path d="M1061.6055,118.0986 L1071.6055,118.0986 C1086.6055,118.0986 1086.6055,61.6104 1101.6055,61.6104 L1111.6055,61.6104" fill="none" style="stroke:#0078D4;stroke-width:3;"/><rect fill="#FFB900" height="36.4883" rx="12.5" ry="12.5" style="stroke:#FFB900;stroke-width:3;" width="223.9229" x="1111.6055" y="99.8545"/><text fill="#000000" font-family="sans-serif" font-size="14" lengthAdjust="spacing" textLength="203.9229" x="1121.6055" y="123.3896">Matching on key relationships</text><path d="M1061.6055,118.0986 L1071.6055,118.0986 C1086.6055,118.0986 1086.6055,118.0986 1101.6055,118.0986 L1111.6055,118.0986" fill="none" style="stroke:#0078D4;stroke-width:3;"/><rect fill="#FFB900" height="36.4883" rx="12.5" ry="12.5" style="stroke:#FFB900;stroke-width:3;" width="166.2412" x="1111.6055" y="156.3428"/><text fill="#000000" font-family="sans-serif" font-size="14" lengthAdjust="spacing" textLength="146.2412" x="1121.6055" y="179.8779">Filtering on existence</text><text fill="#000000" font-family="sans-serif" font-size="14" lengthAdjust="spacing" textLength="113.4492" x="1330.8467" y="179.8779">Semi / Anti joins</text><path d="M1277.8467,174.5869 L1287.8467,174.5869 C1302.8467,174.5869 1302.8467,174.5869 1317.8467,174.5869 L1327.8467,174.5869" fill="none" style="stroke:#FFB900;stroke-width:3;"/><path d="M1061.6055,118.0986 L1071.6055,118.0986 C1086.6055,118.0986 1086.6055,174.5869 1101.6055,174.5869 L1111.6055,174.5869" fill="none" style="stroke:#0078D4;stroke-width:3;"/><path d="M876.0303,118.0986 L886.0303,118.0986 C901.0303,118.0986 901.0303,118.0986 916.0303,118.0986 L926.0303,118.0986" fill="none" style="stroke:#FF5F46;stroke-width:3;"/><rect fill="#0078D4" height="36.4883" rx="12.5" ry="12.5" style="stroke:#0078D4;stroke-width:3;" width="195.4033" x="462.2666" y="76.4883"/><text fill="#FFFFFF" font-family="sans-serif" font-size="14" lengthAdjust="spacing" textLength="175.4033" x="472.2666" y="100.0234">Use Set Operators when...</text><rect fill="#FFB900" height="36.4883" rx="12.5" ry="12.5" style="stroke:#FFB900;stroke-width:3;" width="195.8477" x="216.4189" y="20"/><text fill="#000000" font-family="sans-serif" font-size="14" lengthAdjust="spacing" textLength="175.8477" x="226.4189" y="43.5352">Combining rows vertically</text><text fill="#000000" font-family="sans-serif" font-size="14" lengthAdjust="spacing" textLength="153.4189" x="10" y="43.5352">Same schema datasets</text><path d="M216.4189,38.2441 L206.4189,38.2441 C191.4189,38.2441 191.4189,38.2441 176.4189,38.2441 L166.4189,38.2441" fill="none" style="stroke:#FFB900;stroke-width:3;"/><path d="M462.2666,94.7324 L452.2666,94.7324 C437.2666,94.7324 437.2666,38.2441 422.2666,38.2441 L412.2666,38.2441" fill="none" style="stroke:#0078D4;stroke-width:3;"/><rect fill="#FFB900" height="36.4883" rx="12.5" ry="12.5" style="stroke:#FFB900;stroke-width:3;" width="189.5518" x="222.7148" y="76.4883"/><text fill="#000000" font-family="sans-serif" font-size="14" lengthAdjust="spacing" textLength="169.5518" x="232.7148" y="100.0234">Finding common records</text><text fill="#000000" font-family="sans-serif" font-size="14" lengthAdjust="spacing" textLength="73.3359" x="96.3789" y="100.0234">INTERSECT</text><path d="M222.7148,94.7324 L212.7148,94.7324 C197.7148,94.7324 197.7148,94.7324 182.7148,94.7324 L172.7148,94.7324" fill="none" style="stroke:#FFB900;stroke-width:3;"/><path d="M462.2666,94.7324 L452.2666,94.7324 C437.2666,94.7324 437.2666,94.7324 422.2666,94.7324 L412.2666,94.7324" fill="none" style="stroke:#0078D4;stroke-width:3;"/><rect fill="#FFB900" height="36.4883" rx="12.5" ry="12.5" style="stroke:#FFB900;stroke-width:3;" width="199.1016" x="213.165" y="132.9766"/><text fill="#000000" font-family="sans-serif" font-size="14" lengthAdjust="spacing" textLength="179.1016" x="223.165" y="156.5117">Identifying unique records</text><text fill="#000000" font-family="sans-serif" font-size="14" lengthAdjust="spacing" textLength="50.2168" x="109.9482" y="156.5117">EXCEPT</text><path d="M213.165,151.2207 L203.165,151.2207 C188.165,151.2207 188.165,151.2207 173.165,151.2207 L163.165,151.2207" fill="none" style="stroke:#FFB900;stroke-width:3;"/><path d="M462.2666,94.7324 L452.2666,94.7324 C437.2666,94.7324 437.2666,151.2207 422.2666,151.2207 L412.2666,151.2207" fill="none" style="stroke:#0078D4;stroke-width:3;"/><path d="M707.6699,118.0986 L697.6699,118.0986 C682.6699,118.0986 682.6699,94.7324 667.6699,94.7324 L657.6699,94.7324" fill="none" style="stroke:#FF5F46;stroke-width:3;"/><rect fill="#0078D4" height="36.4883" rx="12.5" ry="12.5" style="stroke:#0078D4;stroke-width:3;" width="118.499" x="539.1709" y="179.709"/><text fill="#FFFFFF" font-family="sans-serif" font-size="14" lengthAdjust="spacing" textLength="98.499" x="549.1709" y="203.2441">Key Difference</text><text fill="#000000" font-family="sans-serif" font-size="14" lengthAdjust="spacing" textLength="182.0137" x="304.1572" y="194">Joins: horizontal (columns)</text><path d="M539.1709,197.9531 L529.1709,197.9531 C514.1709,197.9531 514.1709,188.709 499.1709,188.709 L489.1709,188.709" fill="none" style="stroke:#0078D4;stroke-width:3;"/><text fill="#000000" font-family="sans-serif" font-size="14" lengthAdjust="spacing" textLength="196.3076" x="289.8633" y="212.4883">Set Operators: vertical (rows)</text><path d="M539.1709,197.9531 L529.1709,197.9531 C514.1709,197.9531 514.1709,207.1973 499.1709,207.1973 L489.1709,207.1973" fill="none" style="stroke:#0078D4;stroke-width:3;"/><path d="M707.6699,118.0986 L697.6699,118.0986 C682.6699,118.0986 682.6699,197.9531 667.6699,197.9531 L657.6699,197.9531" fill="none" style="stroke:#FF5F46;stroke-width:3;"/><?plantuml-src VLDTRzim37ptho2mbmH1N3VhkYqeXgwf3NJVQ5AW3mC6HQOhBXQLIShIhDX_dwouwU8XuvjvHzuTOPqxBwpNnAKMo-JC-KsDRv9nYKklUbaV7X88TI7auiwQ5PSJKniBpuhYHN5o6h4FnFXljp3issuLQyUTAP8BHkVWUPebln-rZWzgPTdBLvSdNQrETtzhnq4HwqbhT52hgkQliwohrUd-LokB5RJcvhvkE0y76MT7xRa7C576E8GBz6j4XdU6s7rbmILCqSFd9LhXZNN9O00tWHTnM2laD4r3CommUavCV0VIr2iTK6Ki_Gggegut3MNm3NAs91LObCQMOPvyyr4BZoMKmekuwQFmKZMB3CC2Dri26NQAbYuo2gezsfQ2z-GyiiHMOugQu0ZUiYVutjXCXiFeUI_8plime4_UhLax-8dMauos0peCAuL6S5AX5j6cG-_YO15-ssrahOELDbSxTVLfbbzFyyaiKgzA38wgJKDVCVrOOOUUtqxoBmqNteVGbrHLQ6EiYCQ3Z_-wAVJQE_UtXBrqurq6w3MH-iavXWVMFhBaE1rbezDqz0S0?></g></svg>