<?plantuml 1.2026.2?><svg xmlns="http://www.w3.org/2000/svg" xmlns:xlink="http://www.w3.org/1999/xlink" contentStyleType="text/css" data-diagram-type="MINDMAP" height="473px" preserveAspectRatio="none" style="width:1180px;height:473px;background:#FFFFFF;" version="1.1" viewBox="0 0 1180 473" width="1180px" zoomAndPan="magnify"><defs/><g><rect fill="#FF5F46" height="52.9766" rx="12.5" ry="12.5" style="stroke:#FF5F46;stroke-width:3;" width="129.5117" x="488.1748" y="209.4648"/><text fill="#FFFFFF" font-family="sans-serif" font-size="14" lengthAdjust="spacing" textLength="109.5117" x="498.1748" y="233">Combine Tables</text><text fill="#FFFFFF" font-family="sans-serif" font-size="14" lengthAdjust="spacing" textLength="66.0146" x="498.1748" y="249.4883">with Joins</text><rect fill="#0078D4" height="36.4883" rx="12.5" ry="12.5" style="stroke:#0078D4;stroke-width:3;" width="90.0342" x="667.6865" y="189.4648"/><text fill="#FFFFFF" font-family="sans-serif" font-size="14" lengthAdjust="spacing" textLength="70.0342" x="677.6865" y="213">Join Types</text><rect fill="#FFB900" height="36.4883" rx="12.5" ry="12.5" style="stroke:#FFB900;stroke-width:3;" width="61.1592" x="807.7207" y="20"/><text fill="#000000" font-family="sans-serif" font-size="14" lengthAdjust="spacing" textLength="41.1592" x="817.7207" y="43.5352">INNER</text><text fill="#000000" font-family="sans-serif" font-size="14" lengthAdjust="spacing" textLength="132.1113" x="921.8799" y="43.5352">Matching rows only</text><path d="M868.8799,38.2441 L878.8799,38.2441 C893.8799,38.2441 893.8799,38.2441 908.8799,38.2441 L918.8799,38.2441" fill="none" style="stroke:#FFB900;stroke-width:3;"/><path d="M757.7207,207.709 L767.7207,207.709 C782.7207,207.709 782.7207,38.2441 797.7207,38.2441 L807.7207,38.2441" fill="none" style="stroke:#0078D4;stroke-width:3;"/><rect fill="#FFB900" height="36.4883" rx="12.5" ry="12.5" style="stroke:#FFB900;stroke-width:3;" width="51.4111" x="807.7207" y="76.4883"/><text fill="#000000" font-family="sans-serif" font-size="14" lengthAdjust="spacing" textLength="31.4111" x="817.7207" y="100.0234">LEFT</text><text fill="#000000" font-family="sans-serif" font-size="14" lengthAdjust="spacing" textLength="235.1426" x="912.1318" y="100.0234">All left rows + NULLs for no match</text><path d="M859.1318,94.7324 L869.1318,94.7324 C884.1318,94.7324 884.1318,94.7324 899.1318,94.7324 L909.1318,94.7324" fill="none" style="stroke:#FFB900;stroke-width:3;"/><path d="M757.7207,207.709 L767.7207,207.709 C782.7207,207.709 782.7207,94.7324 797.7207,94.7324 L807.7207,94.7324" fill="none" style="stroke:#0078D4;stroke-width:3;"/><rect fill="#FFB900" height="36.4883" rx="12.5" ry="12.5" style="stroke:#FFB900;stroke-width:3;" width="62.1436" x="807.7207" y="132.9766"/><text fill="#000000" font-family="sans-serif" font-size="14" lengthAdjust="spacing" textLength="42.1436" x="817.7207" y="156.5117">RIGHT</text><text fill="#000000" font-family="sans-serif" font-size="14" lengthAdjust="spacing" textLength="245.3418" x="922.8643" y="156.5117">All right rows + NULLs for no match</text><path d="M869.8643,151.2207 L879.8643,151.2207 C894.8643,151.2207 894.8643,151.2207 909.8643,151.2207 L919.8643,151.2207" fill="none" style="stroke:#FFB900;stroke-width:3;"/><path d="M757.7207,207.709 L767.7207,207.709 C782.7207,207.709 782.7207,151.2207 797.7207,151.2207 L807.7207,151.2207" fill="none" style="stroke:#0078D4;stroke-width:3;"/><rect fill="#FFB900" height="36.4883" rx="12.5" ry="12.5" style="stroke:#FFB900;stroke-width:3;" width="52.1357" x="807.7207" y="189.4648"/><text fill="#000000" font-family="sans-serif" font-size="14" lengthAdjust="spacing" textLength="32.1357" x="817.7207" y="213">FULL</text><text fill="#000000" font-family="sans-serif" font-size="14" lengthAdjust="spacing" textLength="172.3682" x="912.8564" y="213">All rows from both tables</text><path d="M859.8564,207.709 L869.8564,207.709 C884.8564,207.709 884.8564,207.709 899.8564,207.709 L909.8564,207.709" fill="none" style="stroke:#FFB900;stroke-width:3;"/><path d="M757.7207,207.709 L767.7207,207.709 C782.7207,207.709 782.7207,207.709 797.7207,207.709 L807.7207,207.709" fill="none" style="stroke:#0078D4;stroke-width:3;"/><rect fill="#FFB900" height="36.4883" rx="12.5" ry="12.5" style="stroke:#FFB900;stroke-width:3;" width="51.2197" x="807.7207" y="245.9531"/><text fill="#000000" font-family="sans-serif" font-size="14" lengthAdjust="spacing" textLength="31.2197" x="817.7207" y="269.4883">SEMI</text><text fill="#000000" font-family="sans-serif" font-size="14" lengthAdjust="spacing" textLength="255.8486" x="911.9404" y="269.4883">Left rows with matches (no right cols)</text><path d="M858.9404,264.1973 L868.9404,264.1973 C883.9404,264.1973 883.9404,264.1973 898.9404,264.1973 L908.9404,264.1973" fill="none" style="stroke:#FFB900;stroke-width:3;"/><path d="M757.7207,207.709 L767.7207,207.709 C782.7207,207.709 782.7207,264.1973 797.7207,264.1973 L807.7207,264.1973" fill="none" style="stroke:#0078D4;stroke-width:3;"/><rect fill="#FFB900" height="36.4883" rx="12.5" ry="12.5" style="stroke:#FFB900;stroke-width:3;" width="52.8877" x="807.7207" y="302.4414"/><text fill="#000000" font-family="sans-serif" font-size="14" lengthAdjust="spacing" textLength="32.8877" x="817.7207" y="325.9766">ANTI</text><text fill="#000000" font-family="sans-serif" font-size="14" lengthAdjust="spacing" textLength="179.3066" x="913.6084" y="325.9766">Left rows without matches</text><path d="M860.6084,320.6855 L870.6084,320.6855 C885.6084,320.6855 885.6084,320.6855 900.6084,320.6855 L910.6084,320.6855" fill="none" style="stroke:#FFB900;stroke-width:3;"/><path d="M757.7207,207.709 L767.7207,207.709 C782.7207,207.709 782.7207,320.6855 797.7207,320.6855 L807.7207,320.6855" fill="none" style="stroke:#0078D4;stroke-width:3;"/><rect fill="#FFB900" height="36.4883" rx="12.5" ry="12.5" style="stroke:#FFB900;stroke-width:3;" width="64.4951" x="807.7207" y="358.9297"/><text fill="#000000" font-family="sans-serif" font-size="14" lengthAdjust="spacing" textLength="44.4951" x="817.7207" y="382.4648">CROSS</text><text fill="#000000" font-family="sans-serif" font-size="14" lengthAdjust="spacing" textLength="121.2627" x="925.2158" y="382.4648">Cartesian product</text><path d="M872.2158,377.1738 L882.2158,377.1738 C897.2158,377.1738 897.2158,377.1738 912.2158,377.1738 L922.2158,377.1738" fill="none" style="stroke:#FFB900;stroke-width:3;"/><path d="M757.7207,207.709 L767.7207,207.709 C782.7207,207.709 782.7207,377.1738 797.7207,377.1738 L807.7207,377.1738" fill="none" style="stroke:#0078D4;stroke-width:3;"/><path d="M617.6865,235.9531 L627.6865,235.9531 C642.6865,235.9531 642.6865,207.709 657.6865,207.709 L667.6865,207.709" fill="none" style="stroke:#FF5F46;stroke-width:3;"/><rect fill="#0078D4" height="36.4883" rx="12.5" ry="12.5" style="stroke:#0078D4;stroke-width:3;" width="185.6484" x="667.6865" y="415.418"/><text fill="#FFFFFF" font-family="sans-serif" font-size="14" lengthAdjust="spacing" textLength="165.6484" x="677.6865" y="438.9531">SQL: JOIN ... ON / USING</text><path d="M617.6865,235.9531 L627.6865,235.9531 C642.6865,235.9531 642.6865,433.6621 657.6865,433.6621 L667.6865,433.6621" fill="none" style="stroke:#FF5F46;stroke-width:3;"/><rect fill="#0078D4" height="36.4883" rx="12.5" ry="12.5" style="stroke:#0078D4;stroke-width:3;" width="134.9941" x="303.1807" y="189.4648"/><text fill="#FFFFFF" font-family="sans-serif" font-size="14" lengthAdjust="spacing" textLength="114.9941" x="313.1807" y="213">PySpark: df.join()</text><text fill="#000000" font-family="sans-serif" font-size="14" lengthAdjust="spacing" textLength="170.1875" x="79.9932" y="203.7559">on= column or condition</text><path d="M303.1807,207.709 L293.1807,207.709 C278.1807,207.709 278.1807,198.4648 263.1807,198.4648 L253.1807,198.4648" fill="none" style="stroke:#0078D4;stroke-width:3;"/><text fill="#000000" font-family="sans-serif" font-size="14" lengthAdjust="spacing" textLength="146.8154" x="103.3652" y="222.2441">how= join type string</text><path d="M303.1807,207.709 L293.1807,207.709 C278.1807,207.709 278.1807,216.9531 263.1807,216.9531 L253.1807,216.9531" fill="none" style="stroke:#0078D4;stroke-width:3;"/><path d="M488.1748,235.9531 L478.1748,235.9531 C463.1748,235.9531 463.1748,207.709 448.1748,207.709 L438.1748,207.709" fill="none" style="stroke:#FF5F46;stroke-width:3;"/><rect fill="#0078D4" height="36.4883" rx="12.5" ry="12.5" style="stroke:#0078D4;stroke-width:3;" width="180.3438" x="257.8311" y="245.9531"/><text fill="#FFFFFF" font-family="sans-serif" font-size="14" lengthAdjust="spacing" textLength="160.3438" x="267.8311" y="269.4883">Column Name Conflicts</text><text fill="#000000" font-family="sans-serif" font-size="14" lengthAdjust="spacing" textLength="194.8311" x="10" y="260.2441">Same name &#8594; pass as string</text><path d="M257.8311,264.1973 L247.8311,264.1973 C232.8311,264.1973 232.8311,254.9531 217.8311,254.9531 L207.8311,254.9531" fill="none" style="stroke:#0078D4;stroke-width:3;"/><text fill="#000000" font-family="sans-serif" font-size="14" lengthAdjust="spacing" textLength="174.1045" x="30.7266" y="278.7324">Avoids duplicate columns</text><path d="M257.8311,264.1973 L247.8311,264.1973 C232.8311,264.1973 232.8311,273.4414 217.8311,273.4414 L207.8311,273.4414" fill="none" style="stroke:#0078D4;stroke-width:3;"/><path d="M488.1748,235.9531 L478.1748,235.9531 C463.1748,235.9531 463.1748,264.1973 448.1748,264.1973 L438.1748,264.1973" fill="none" style="stroke:#FF5F46;stroke-width:3;"/><?plantuml-src XLDTRzCm57tFhxWIBwsYPbaP0weDhPHcPCfIQB8tfCb9dCOqiQFOeLGJh_m0VYA_X6id-o1Gk0-HStpEFVTUsnTIaKPLZ6SLgQqpgVObVMFDCbghOkIEuSu2ZBSatMuQqV9i8KhHm3FFU-6Td9gzW77w9-e9hdeqD_70ZGkMRZcL4fuxhlNjtklue9VhldprxcJeDK1_ppgem3Fnw3Kzw9NdoMlN7NeDq7zwkIRGAn5VIysvEyWuE-h7RSD2L0bcXfWaAFh4TqmLS2KObvPjcmN4-vhgFnlyC5okzSg-XMkYqeBn3JHY9q7mScyemTABUyQyBA6akUeODeGtGI0XnqguW4hBZMBjNxv_AcdOflYVnaFugKIJyqPKa0WiNvbU335QNlizCNWenVHeab498qpSMQQYb6EZceVntrMYLVT2GroiLr7KCnTudQbaX4FTYAnDbHvWz36OmTNA3y5n75Y5S0GtaHzUMfC9VDX7DMcsCyXovpCEUZH6T7ABippNjRGL1-mx5JnZYWdURHPYTmwQ3GgF1QHgy0nqjaMd24b5SStpagLATff8Orn_Vdx_0JN1kq7aenGPyo-2PHAojaOPKRJtbzO5nVVPlr7hs9cwqrDd-Wi0?></g></svg>