<?plantuml 1.2026.2?><svg xmlns="http://www.w3.org/2000/svg" xmlns:xlink="http://www.w3.org/1999/xlink" contentStyleType="text/css" data-diagram-type="MINDMAP" height="247px" preserveAspectRatio="none" style="width:1435px;height:247px;background:#FFFFFF;" version="1.1" viewBox="0 0 1435 247" width="1435px" zoomAndPan="magnify"><defs/><g><rect fill="#FF5F46" height="52.9766" rx="12.5" ry="12.5" style="stroke:#FF5F46;stroke-width:3;" width="136.6484" x="590.2891" y="96.4883"/><text fill="#FFFFFF" font-family="sans-serif" font-size="14" lengthAdjust="spacing" textLength="116.6484" x="600.2891" y="120.0234">Choose the Right</text><text fill="#FFFFFF" font-family="sans-serif" font-size="14" lengthAdjust="spacing" textLength="104.9863" x="600.2891" y="136.5117">Transformation</text><rect fill="#0078D4" height="36.4883" rx="12.5" ry="12.5" style="stroke:#0078D4;stroke-width:3;" width="159.7061" x="776.9375" y="48.2441"/><text fill="#FFFFFF" font-family="sans-serif" font-size="14" lengthAdjust="spacing" textLength="139.7061" x="786.9375" y="71.7793">Denormalize when...</text><rect fill="#FFB900" height="36.4883" rx="12.5" ry="12.5" style="stroke:#FFB900;stroke-width:3;" width="235.2295" x="986.6436" y="48.2441"/><text fill="#000000" font-family="sans-serif" font-size="14" lengthAdjust="spacing" textLength="215.2295" x="996.6436" y="71.7793">Fast query performance needed</text><text fill="#000000" font-family="sans-serif" font-size="14" lengthAdjust="spacing" textLength="148.5244" x="1274.873" y="62.5352">Dashboards &amp; reports</text><path d="M1221.873,66.4883 L1231.873,66.4883 C1246.873,66.4883 1246.873,57.2441 1261.873,57.2441 L1271.873,57.2441" fill="none" style="stroke:#FFB900;stroke-width:3;"/><text fill="#000000" font-family="sans-serif" font-size="14" lengthAdjust="spacing" textLength="113.8184" x="1274.873" y="81.0234">Gold layer tables</text><path d="M1221.873,66.4883 L1231.873,66.4883 C1246.873,66.4883 1246.873,75.7324 1261.873,75.7324 L1271.873,75.7324" fill="none" style="stroke:#FFB900;stroke-width:3;"/><path d="M936.6436,66.4883 L946.6436,66.4883 C961.6436,66.4883 961.6436,66.4883 976.6436,66.4883 L986.6436,66.4883" fill="none" style="stroke:#0078D4;stroke-width:3;"/><path d="M726.9375,122.9766 L736.9375,122.9766 C751.9375,122.9766 751.9375,66.4883 766.9375,66.4883 L776.9375,66.4883" fill="none" style="stroke:#FF5F46;stroke-width:3;"/><rect fill="#0078D4" height="36.4883" rx="12.5" ry="12.5" style="stroke:#0078D4;stroke-width:3;" width="106.5498" x="776.9375" y="132.9766"/><text fill="#FFFFFF" font-family="sans-serif" font-size="14" lengthAdjust="spacing" textLength="86.5498" x="786.9375" y="156.5117">Pivot when...</text><rect fill="#FFB900" height="36.4883" rx="12.5" ry="12.5" style="stroke:#FFB900;stroke-width:3;" width="262.2109" x="933.4873" y="104.7324"/><text fill="#000000" font-family="sans-serif" font-size="14" lengthAdjust="spacing" textLength="242.2109" x="943.4873" y="128.2676">Side-by-side category comparisons</text><text fill="#000000" font-family="sans-serif" font-size="14" lengthAdjust="spacing" textLength="171.8008" x="1248.6982" y="128.2676">Analysts need wide views</text><path d="M1195.6982,122.9766 L1205.6982,122.9766 C1220.6982,122.9766 1220.6982,122.9766 1235.6982,122.9766 L1245.6982,122.9766" fill="none" style="stroke:#FFB900;stroke-width:3;"/><path d="M883.4873,151.2207 L893.4873,151.2207 C908.4873,151.2207 908.4873,122.9766 923.4873,122.9766 L933.4873,122.9766" fill="none" style="stroke:#0078D4;stroke-width:3;"/><rect fill="#FFB900" height="36.4883" rx="12.5" ry="12.5" style="stroke:#FFB900;stroke-width:3;" width="167.834" x="933.4873" y="161.2207"/><text fill="#000000" font-family="sans-serif" font-size="14" lengthAdjust="spacing" textLength="147.834" x="943.4873" y="184.7559">Cross-tabular reports</text><path d="M883.4873,151.2207 L893.4873,151.2207 C908.4873,151.2207 908.4873,179.4648 923.4873,179.4648 L933.4873,179.4648" fill="none" style="stroke:#0078D4;stroke-width:3;"/><path d="M726.9375,122.9766 L736.9375,122.9766 C751.9375,122.9766 751.9375,151.2207 766.9375,151.2207 L776.9375,151.2207" fill="none" style="stroke:#FF5F46;stroke-width:3;"/><rect fill="#0078D4" height="36.4883" rx="12.5" ry="12.5" style="stroke:#0078D4;stroke-width:3;" width="126.0117" x="414.2773" y="76.4883"/><text fill="#FFFFFF" font-family="sans-serif" font-size="14" lengthAdjust="spacing" textLength="106.0117" x="424.2773" y="100.0234">Unpivot when...</text><rect fill="#FFB900" height="36.4883" rx="12.5" ry="12.5" style="stroke:#FFB900;stroke-width:3;" width="172.8721" x="191.4053" y="48.2441"/><text fill="#000000" font-family="sans-serif" font-size="14" lengthAdjust="spacing" textLength="152.8721" x="201.4053" y="71.7793">Normalizing wide data</text><rect fill="#F1F1F1" height="36.4883" rx="12.5" ry="12.5" style="stroke:#181818;stroke-width:1.5;" width="128.0146" x="13.3906" y="20"/><text fill="#000000" font-family="sans-serif" font-size="14" lengthAdjust="spacing" textLength="108.0146" x="23.3906" y="43.5352">For aggregation</text><path d="M191.4053,66.4883 L181.4053,66.4883 C166.4053,66.4883 166.4053,38.2441 151.4053,38.2441 L141.4053,38.2441" fill="none" style="stroke:#FFB900;stroke-width:3;"/><rect fill="#F1F1F1" height="36.4883" rx="12.5" ry="12.5" style="stroke:#181818;stroke-width:1.5;" width="131.4053" x="10" y="76.4883"/><text fill="#000000" font-family="sans-serif" font-size="14" lengthAdjust="spacing" textLength="111.4053" x="20" y="100.0234">For ML pipelines</text><path d="M191.4053,66.4883 L181.4053,66.4883 C166.4053,66.4883 166.4053,94.7324 151.4053,94.7324 L141.4053,94.7324" fill="none" style="stroke:#FFB900;stroke-width:3;"/><path d="M414.2773,94.7324 L404.2773,94.7324 C389.2773,94.7324 389.2773,66.4883 374.2773,66.4883 L364.2773,66.4883" fill="none" style="stroke:#0078D4;stroke-width:3;"/><rect fill="#FFB900" height="36.4883" rx="12.5" ry="12.5" style="stroke:#FFB900;stroke-width:3;" width="200.8994" x="163.3779" y="132.9766"/><text fill="#000000" font-family="sans-serif" font-size="14" lengthAdjust="spacing" textLength="180.8994" x="173.3779" y="156.5117">Source data is wide format</text><path d="M414.2773,94.7324 L404.2773,94.7324 C389.2773,94.7324 389.2773,151.2207 374.2773,151.2207 L364.2773,151.2207" fill="none" style="stroke:#0078D4;stroke-width:3;"/><path d="M590.2891,122.9766 L580.2891,122.9766 C565.2891,122.9766 565.2891,94.7324 550.2891,94.7324 L540.2891,94.7324" fill="none" style="stroke:#FF5F46;stroke-width:3;"/><rect fill="#0078D4" height="36.4883" rx="12.5" ry="12.5" style="stroke:#0078D4;stroke-width:3;" width="171.2246" x="369.0645" y="189.4648"/><text fill="#FFFFFF" font-family="sans-serif" font-size="14" lengthAdjust="spacing" textLength="151.2246" x="379.0645" y="213">Combined in Pipelines</text><text fill="#000000" font-family="sans-serif" font-size="14" lengthAdjust="spacing" textLength="199.0557" x="117.0088" y="203.7559">Unpivot &#8594; transform &#8594; pivot</text><path d="M369.0645,207.709 L359.0645,207.709 C344.0645,207.709 344.0645,198.4648 329.0645,198.4648 L319.0645,198.4648" fill="none" style="stroke:#0078D4;stroke-width:3;"/><text fill="#000000" font-family="sans-serif" font-size="14" lengthAdjust="spacing" textLength="226.167" x="89.8975" y="222.2441">Or &#8594; denormalize for consumers</text><path d="M369.0645,207.709 L359.0645,207.709 C344.0645,207.709 344.0645,216.9531 329.0645,216.9531 L319.0645,216.9531" fill="none" style="stroke:#0078D4;stroke-width:3;"/><path d="M590.2891,122.9766 L580.2891,122.9766 C565.2891,122.9766 565.2891,207.709 550.2891,207.709 L540.2891,207.709" fill="none" style="stroke:#FF5F46;stroke-width:3;"/><?plantuml-src VPFRRjGm48RlynGZ8I5Gb90kfHnKeSAkmaqvY9OxfCg9PnEhZYTud6v3nIqFm2Fo93XETka6BNDZ-P_Vyut7yXaxOLsZZ6n46vsowpM-Zbv9R5tzA7iCTn7uU2lAwyfIP-IID5buaEVFykEJa3jN1lzLSp9kKjSXTjxBMfNN1fdXQPf5FxQieuEiB7l-OdKyPytK_Qgp3l8GVrcBWwprkdYPPNFMJFqlAmlXMGNTwi5pTz1n-cGQTmpBceWHN8tmMLMr-sekhJ2y9ji8fyX4SGmhDCDMg-y8cnfDcgPUZY4NxE1RXxQ75cquOae4WoXH3exu2bQ2wuA4bGmFmM9Brl6KUaTQWXOzMd2Yy2qFh4_gXjmUvK99J8e-ORz2AHnMv84bDQsmYibioxqnGlViEF1XCxXl56v26fQMc1EFwRImkpwI1BwOTe-OUEt3T5jbgh6E54uCcSHFquAeAelLE9sT-FuSMjMYzg_4eSW5TROSZuBYiSuurG6xfARmLWdA-2lVEtUrw-Ztpr_WjcyHTa4VJHzjKEIzb_4sFnN3NOEMepFq7slwND5HkiWM9-dY3m00?></g></svg>