<?plantuml 1.2026.2?><svg xmlns="http://www.w3.org/2000/svg" xmlns:xlink="http://www.w3.org/1999/xlink" contentStyleType="text/css" data-diagram-type="MINDMAP" height="304px" preserveAspectRatio="none" style="width:1319px;height:304px;background:#FFFFFF;" version="1.1" viewBox="0 0 1319 304" width="1319px" zoomAndPan="magnify"><defs/><g><rect fill="#FF5F46" height="52.9766" rx="12.5" ry="12.5" style="stroke:#FF5F46;stroke-width:3;" width="110.918" x="441.2666" y="124.7324"/><text fill="#FFFFFF" font-family="sans-serif" font-size="14" lengthAdjust="spacing" textLength="72.6729" x="451.2666" y="148.2676">Pivot Rows</text><text fill="#FFFFFF" font-family="sans-serif" font-size="14" lengthAdjust="spacing" textLength="90.918" x="451.2666" y="164.7559">into Columns</text><rect fill="#0078D4" height="36.4883" rx="12.5" ry="12.5" style="stroke:#0078D4;stroke-width:3;" width="133.9141" x="602.1846" y="48.2441"/><text fill="#FFFFFF" font-family="sans-serif" font-size="14" lengthAdjust="spacing" textLength="113.9141" x="612.1846" y="71.7793">What is Pivoting?</text><rect fill="#FFB900" height="36.4883" rx="12.5" ry="12.5" style="stroke:#FFB900;stroke-width:3;" width="208.8633" x="786.0986" y="20"/><text fill="#000000" font-family="sans-serif" font-size="14" lengthAdjust="spacing" textLength="188.8633" x="796.0986" y="43.5352">Long format &#8594; Wide format</text><text fill="#000000" font-family="sans-serif" font-size="14" lengthAdjust="spacing" textLength="259.8271" x="1047.9619" y="43.5352">Values in a column &#8594; column headers</text><path d="M994.9619,38.2441 L1004.9619,38.2441 C1019.9619,38.2441 1019.9619,38.2441 1034.9619,38.2441 L1044.9619,38.2441" fill="none" style="stroke:#FFB900;stroke-width:3;"/><path d="M736.0986,66.4883 L746.0986,66.4883 C761.0986,66.4883 761.0986,38.2441 776.0986,38.2441 L786.0986,38.2441" fill="none" style="stroke:#0078D4;stroke-width:3;"/><rect fill="#FFB900" height="36.4883" rx="12.5" ry="12.5" style="stroke:#FFB900;stroke-width:3;" width="229.7813" x="786.0986" y="76.4883"/><text fill="#000000" font-family="sans-serif" font-size="14" lengthAdjust="spacing" textLength="209.7813" x="796.0986" y="100.0234">Good for cross-tabular reports</text><path d="M736.0986,66.4883 L746.0986,66.4883 C761.0986,66.4883 761.0986,94.7324 776.0986,94.7324 L786.0986,94.7324" fill="none" style="stroke:#0078D4;stroke-width:3;"/><path d="M552.1846,151.2207 L562.1846,151.2207 C577.1846,151.2207 577.1846,66.4883 592.1846,66.4883 L602.1846,66.4883" fill="none" style="stroke:#FF5F46;stroke-width:3;"/><rect fill="#0078D4" height="36.4883" rx="12.5" ry="12.5" style="stroke:#0078D4;stroke-width:3;" width="140.4834" x="602.1846" y="189.4648"/><text fill="#FFFFFF" font-family="sans-serif" font-size="14" lengthAdjust="spacing" textLength="120.4834" x="612.1846" y="213">SQL PIVOT Clause</text><rect fill="#FFB900" height="36.4883" rx="12.5" ry="12.5" style="stroke:#FFB900;stroke-width:3;" width="212.6846" x="792.668" y="132.9766"/><text fill="#000000" font-family="sans-serif" font-size="14" lengthAdjust="spacing" textLength="192.6846" x="802.668" y="156.5117">Aggregate function required</text><text fill="#000000" font-family="sans-serif" font-size="14" lengthAdjust="spacing" textLength="182.2188" x="1058.3525" y="156.5117">Multiple rows &#8594; single cell</text><path d="M1005.3525,151.2207 L1015.3525,151.2207 C1030.3525,151.2207 1030.3525,151.2207 1045.3525,151.2207 L1055.3525,151.2207" fill="none" style="stroke:#FFB900;stroke-width:3;"/><path d="M742.668,207.709 L752.668,207.709 C767.668,207.709 767.668,151.2207 782.668,151.2207 L792.668,151.2207" fill="none" style="stroke:#0078D4;stroke-width:3;"/><rect fill="#FFB900" height="36.4883" rx="12.5" ry="12.5" style="stroke:#FFB900;stroke-width:3;" width="230.1094" x="792.668" y="189.4648"/><text fill="#000000" font-family="sans-serif" font-size="14" lengthAdjust="spacing" textLength="210.1094" x="802.668" y="213">FOR ... IN (values AS col_name)</text><text fill="#000000" font-family="sans-serif" font-size="14" lengthAdjust="spacing" textLength="179.2246" x="1075.7773" y="213">Define new column names</text><path d="M1022.7773,207.709 L1032.7773,207.709 C1047.7773,207.709 1047.7773,207.709 1062.7773,207.709 L1072.7773,207.709" fill="none" style="stroke:#FFB900;stroke-width:3;"/><path d="M742.668,207.709 L752.668,207.709 C767.668,207.709 767.668,207.709 782.668,207.709 L792.668,207.709" fill="none" style="stroke:#0078D4;stroke-width:3;"/><rect fill="#FFB900" height="36.4883" rx="12.5" ry="12.5" style="stroke:#FFB900;stroke-width:3;" width="228.8721" x="792.668" y="245.9531"/><text fill="#000000" font-family="sans-serif" font-size="14" lengthAdjust="spacing" textLength="208.8721" x="802.668" y="269.4883">Multiple aggregations possible</text><text fill="#000000" font-family="sans-serif" font-size="14" lengthAdjust="spacing" textLength="218.5518" x="1074.54" y="269.4883">SUM(...) AS total, AVG(...) AS avg</text><path d="M1021.54,264.1973 L1031.54,264.1973 C1046.54,264.1973 1046.54,264.1973 1061.54,264.1973 L1071.54,264.1973" fill="none" style="stroke:#FFB900;stroke-width:3;"/><path d="M742.668,207.709 L752.668,207.709 C767.668,207.709 767.668,264.1973 782.668,264.1973 L792.668,264.1973" fill="none" style="stroke:#0078D4;stroke-width:3;"/><path d="M552.1846,151.2207 L562.1846,151.2207 C577.1846,151.2207 577.1846,207.709 592.1846,207.709 L602.1846,207.709" fill="none" style="stroke:#FF5F46;stroke-width:3;"/><rect fill="#0078D4" height="36.4883" rx="12.5" ry="12.5" style="stroke:#0078D4;stroke-width:3;" width="187.3301" x="203.9365" y="104.7324"/><text fill="#FFFFFF" font-family="sans-serif" font-size="14" lengthAdjust="spacing" textLength="167.3301" x="213.9365" y="128.2676">PySpark groupBy + pivot</text><text fill="#000000" font-family="sans-serif" font-size="14" lengthAdjust="spacing" textLength="108.4932" x="42.4434" y="109.7793">.groupBy("year")</text><path d="M203.9365,122.9766 L193.9365,122.9766 C178.9365,122.9766 178.9365,104.4883 163.9365,104.4883 L153.9365,104.4883" fill="none" style="stroke:#0078D4;stroke-width:3;"/><text fill="#000000" font-family="sans-serif" font-size="14" lengthAdjust="spacing" textLength="107.6592" x="43.2773" y="128.2676">.pivot("quarter")</text><path d="M203.9365,122.9766 L193.9365,122.9766 C178.9365,122.9766 178.9365,122.9766 163.9365,122.9766 L153.9365,122.9766" fill="none" style="stroke:#0078D4;stroke-width:3;"/><text fill="#000000" font-family="sans-serif" font-size="14" lengthAdjust="spacing" textLength="140.9365" x="10" y="146.7559">.agg(sum("revenue"))</text><path d="M203.9365,122.9766 L193.9365,122.9766 C178.9365,122.9766 178.9365,141.4648 163.9365,141.4648 L153.9365,141.4648" fill="none" style="stroke:#0078D4;stroke-width:3;"/><path d="M441.2666,151.2207 L431.2666,151.2207 C416.2666,151.2207 416.2666,122.9766 401.2666,122.9766 L391.2666,122.9766" fill="none" style="stroke:#FF5F46;stroke-width:3;"/><rect fill="#0078D4" height="36.4883" rx="12.5" ry="12.5" style="stroke:#0078D4;stroke-width:3;" width="81.4209" x="309.8457" y="161.2207"/><text fill="#FFFFFF" font-family="sans-serif" font-size="14" lengthAdjust="spacing" textLength="61.4209" x="319.8457" y="184.7559">Use Case</text><text fill="#000000" font-family="sans-serif" font-size="14" lengthAdjust="spacing" textLength="189.9092" x="66.9365" y="175.5117">Quarterly revenue by region</text><path d="M309.8457,179.4648 L299.8457,179.4648 C284.8457,179.4648 284.8457,170.2207 269.8457,170.2207 L259.8457,170.2207" fill="none" style="stroke:#0078D4;stroke-width:3;"/><text fill="#000000" font-family="sans-serif" font-size="14" lengthAdjust="spacing" textLength="175.1914" x="81.6543" y="194">Sales by product &amp; month</text><path d="M309.8457,179.4648 L299.8457,179.4648 C284.8457,179.4648 284.8457,188.709 269.8457,188.709 L259.8457,188.709" fill="none" style="stroke:#0078D4;stroke-width:3;"/><path d="M441.2666,151.2207 L431.2666,151.2207 C416.2666,151.2207 416.2666,179.4648 401.2666,179.4648 L391.2666,179.4648" fill="none" style="stroke:#FF5F46;stroke-width:3;"/><?plantuml-src VLFRJXin47tVhnYbKhNHDjibK7eHQWb1Yv0210BXfLBax4usLhpsuajeXFhA1_GJ-oMr7HFKLEaysMVEp3apie-L9bBNb9SrQQ8ZfLSClqPVIcpqFCxQy1I1ZHDIB2ef32_xWWa9R_ByGtvmw7C3ol5VD1TS1tJcOyEzdTDYmL4fs4-pwEUBrjvEhIpx-EdqO5jh2_sxwvQ3tCUhLdUdrcms_PnbsrfRw7-rCXzMQof-CCTvsiauUX_MdS2GBeM66_6eldFAjG3BDJLNKPB0_Pnee6hDeRpwPi441e9NC1EojidVpx_WdfOOxYwVJ61Cc445b0E1mhVpn72S8obHAj_hJ8ZIrK8XXL8TJQQ64GaI6o6rzp2w7i3mV7nr2tr6Z49VrgigYHNHLjVmGbF1RSc3eHBBOE72C4qRXY3jP5vTsG7ilK36V8_ywWRID8NpIuYNQyEzaVCuuQJ6TkXpYZExT-3u-6BVPTVcDneasB4-53Hs43fb61gCxYvYAzDspRNGXBs3tlXi0v5b5NKwC5oD6Y8Nu9v4SxA211gtSvlgJ20DQDnQ8P6jTa0z8suz6FkDy1MsPc9bwhWbSOdSOAljCd2d4Fh4xi-phjT5R0M11LDthEm4QyA8s2Vam4QAqXGQta9j7z8yEaRxOSEdZVRIRjOzJBj_0000?></g></svg>