<?plantuml 1.2026.2?><svg xmlns="http://www.w3.org/2000/svg" xmlns:xlink="http://www.w3.org/1999/xlink" contentStyleType="text/css" data-diagram-type="MINDMAP" height="247px" preserveAspectRatio="none" style="width:1341px;height:247px;background:#FFFFFF;" version="1.1" viewBox="0 0 1341 247" width="1341px" zoomAndPan="magnify"><defs/><g><rect fill="#FF5F46" height="52.9766" rx="12.5" ry="12.5" style="stroke:#FF5F46;stroke-width:3;" width="132.5264" x="515.9082" y="96.4883"/><text fill="#FFFFFF" font-family="sans-serif" font-size="14" lengthAdjust="spacing" textLength="78.333" x="525.9082" y="120.0234">Understand</text><text fill="#FFFFFF" font-family="sans-serif" font-size="14" lengthAdjust="spacing" textLength="112.5264" x="525.9082" y="136.5117">Denormalization</text><rect fill="#0078D4" height="36.4883" rx="12.5" ry="12.5" style="stroke:#0078D4;stroke-width:3;" width="144.3389" x="698.4346" y="76.4883"/><text fill="#FFFFFF" font-family="sans-serif" font-size="14" lengthAdjust="spacing" textLength="124.3389" x="708.4346" y="100.0234">Why Denormalize?</text><rect fill="#FFB900" height="36.4883" rx="12.5" ry="12.5" style="stroke:#FFB900;stroke-width:3;" width="211.0986" x="892.7734" y="20"/><text fill="#000000" font-family="sans-serif" font-size="14" lengthAdjust="spacing" textLength="191.0986" x="902.7734" y="43.5352">Normalized = multiple joins</text><text fill="#000000" font-family="sans-serif" font-size="14" lengthAdjust="spacing" textLength="131.9404" x="1156.8721" y="43.5352">Slower for analytics</text><path d="M1103.8721,38.2441 L1113.8721,38.2441 C1128.8721,38.2441 1128.8721,38.2441 1143.8721,38.2441 L1153.8721,38.2441" fill="none" style="stroke:#FFB900;stroke-width:3;"/><path d="M842.7734,94.7324 L852.7734,94.7324 C867.7734,94.7324 867.7734,38.2441 882.7734,38.2441 L892.7734,38.2441" fill="none" style="stroke:#0078D4;stroke-width:3;"/><rect fill="#FFB900" height="36.4883" rx="12.5" ry="12.5" style="stroke:#FFB900;stroke-width:3;" width="209.2461" x="892.7734" y="76.4883"/><text fill="#000000" font-family="sans-serif" font-size="14" lengthAdjust="spacing" textLength="189.2461" x="902.7734" y="100.0234">Denormalized = fewer joins</text><text fill="#000000" font-family="sans-serif" font-size="14" lengthAdjust="spacing" textLength="174.6172" x="1155.0195" y="100.0234">Faster query performance</text><path d="M1102.0195,94.7324 L1112.0195,94.7324 C1127.0195,94.7324 1127.0195,94.7324 1142.0195,94.7324 L1152.0195,94.7324" fill="none" style="stroke:#FFB900;stroke-width:3;"/><path d="M842.7734,94.7324 L852.7734,94.7324 C867.7734,94.7324 867.7734,94.7324 882.7734,94.7324 L892.7734,94.7324" fill="none" style="stroke:#0078D4;stroke-width:3;"/><rect fill="#FFB900" height="36.4883" rx="12.5" ry="12.5" style="stroke:#FFB900;stroke-width:3;" width="191.5342" x="892.7734" y="132.9766"/><text fill="#000000" font-family="sans-serif" font-size="14" lengthAdjust="spacing" textLength="171.5342" x="902.7734" y="156.5117">Fewer joins at query time</text><path d="M842.7734,94.7324 L852.7734,94.7324 C867.7734,94.7324 867.7734,151.2207 882.7734,151.2207 L892.7734,151.2207" fill="none" style="stroke:#0078D4;stroke-width:3;"/><path d="M648.4346,122.9766 L658.4346,122.9766 C673.4346,122.9766 673.4346,94.7324 688.4346,94.7324 L698.4346,94.7324" fill="none" style="stroke:#FF5F46;stroke-width:3;"/><rect fill="#0078D4" height="36.4883" rx="12.5" ry="12.5" style="stroke:#0078D4;stroke-width:3;" width="49.6748" x="698.4346" y="189.4648"/><text fill="#FFFFFF" font-family="sans-serif" font-size="14" lengthAdjust="spacing" textLength="29.6748" x="708.4346" y="213">How</text><rect fill="#FFB900" height="36.4883" rx="12.5" ry="12.5" style="stroke:#FFB900;stroke-width:3;" width="163.0215" x="798.1094" y="189.4648"/><text fill="#000000" font-family="sans-serif" font-size="14" lengthAdjust="spacing" textLength="143.0215" x="808.1094" y="213">Flatten related tables</text><text fill="#000000" font-family="sans-serif" font-size="14" lengthAdjust="spacing" textLength="226.4883" x="1014.1309" y="203.7559">Combine fact + dimension tables</text><path d="M961.1309,207.709 L971.1309,207.709 C986.1309,207.709 986.1309,198.4648 1001.1309,198.4648 L1011.1309,198.4648" fill="none" style="stroke:#FFB900;stroke-width:3;"/><text fill="#000000" font-family="sans-serif" font-size="14" lengthAdjust="spacing" textLength="247.4131" x="1014.1309" y="222.2441">CREATE TABLE AS SELECT with JOINs</text><path d="M961.1309,207.709 L971.1309,207.709 C986.1309,207.709 986.1309,216.9531 1001.1309,216.9531 L1011.1309,216.9531" fill="none" style="stroke:#FFB900;stroke-width:3;"/><path d="M748.1094,207.709 L758.1094,207.709 C773.1094,207.709 773.1094,207.709 788.1094,207.709 L798.1094,207.709" fill="none" style="stroke:#0078D4;stroke-width:3;"/><path d="M648.4346,122.9766 L658.4346,122.9766 C673.4346,122.9766 673.4346,207.709 688.4346,207.709 L698.4346,207.709" fill="none" style="stroke:#FF5F46;stroke-width:3;"/><rect fill="#0078D4" height="36.4883" rx="12.5" ry="12.5" style="stroke:#0078D4;stroke-width:3;" width="173.2139" x="292.6943" y="76.4883"/><text fill="#FFFFFF" font-family="sans-serif" font-size="14" lengthAdjust="spacing" textLength="153.2139" x="302.6943" y="100.0234">Medallion Architecture</text><text fill="#000000" font-family="sans-serif" font-size="14" lengthAdjust="spacing" textLength="176.0527" x="63.6416" y="81.5352">Bronze/Silver: normalized</text><path d="M292.6943,94.7324 L282.6943,94.7324 C267.6943,94.7324 267.6943,76.2441 252.6943,76.2441 L242.6943,76.2441" fill="none" style="stroke:#0078D4;stroke-width:3;"/><text fill="#000000" font-family="sans-serif" font-size="14" lengthAdjust="spacing" textLength="221.0332" x="18.6611" y="100.0234">Gold: denormalized for analytics</text><path d="M292.6943,94.7324 L282.6943,94.7324 C267.6943,94.7324 267.6943,94.7324 252.6943,94.7324 L242.6943,94.7324" fill="none" style="stroke:#0078D4;stroke-width:3;"/><text fill="#000000" font-family="sans-serif" font-size="14" lengthAdjust="spacing" textLength="229.6943" x="10" y="118.5117">BI tools, star schemas, data marts</text><path d="M292.6943,94.7324 L282.6943,94.7324 C267.6943,94.7324 267.6943,113.2207 252.6943,113.2207 L242.6943,113.2207" fill="none" style="stroke:#0078D4;stroke-width:3;"/><path d="M515.9082,122.9766 L505.9082,122.9766 C490.9082,122.9766 490.9082,94.7324 475.9082,94.7324 L465.9082,94.7324" fill="none" style="stroke:#FF5F46;stroke-width:3;"/><rect fill="#0078D4" height="36.4883" rx="12.5" ry="12.5" style="stroke:#0078D4;stroke-width:3;" width="84.9551" x="380.9531" y="132.9766"/><text fill="#FFFFFF" font-family="sans-serif" font-size="14" lengthAdjust="spacing" textLength="64.9551" x="390.9531" y="156.5117">Tradeoffs</text><text fill="#000000" font-family="sans-serif" font-size="14" lengthAdjust="spacing" textLength="89.5781" x="238.375" y="147.2676">More storage</text><path d="M380.9531,151.2207 L370.9531,151.2207 C355.9531,151.2207 355.9531,141.9766 340.9531,141.9766 L330.9531,141.9766" fill="none" style="stroke:#0078D4;stroke-width:3;"/><text fill="#000000" font-family="sans-serif" font-size="14" lengthAdjust="spacing" textLength="255.8008" x="72.1523" y="165.7559">Need to refresh when source changes</text><path d="M380.9531,151.2207 L370.9531,151.2207 C355.9531,151.2207 355.9531,160.4648 340.9531,160.4648 L330.9531,160.4648" fill="none" style="stroke:#0078D4;stroke-width:3;"/><path d="M515.9082,122.9766 L505.9082,122.9766 C490.9082,122.9766 490.9082,151.2207 475.9082,151.2207 L465.9082,151.2207" fill="none" style="stroke:#FF5F46;stroke-width:3;"/><?plantuml-src VLDHRzCm47xFhpY95r1ebvKne1gmjajWg2iI3U85QNBjSsFc-3hReNGJ_nqdpMWNLEuf_kwx--w-wCwTPzQNoeYIhQ8pvpSQtqL3WIjVF4sUmNq48SQCtomjLKPCI9E59rdsCZivRN9JPV1VD2FZMrGsyPUR5uhV67GENlIJwFU3rl51hIHvzVhYfAlLGHztxKoGDR7J6XpKadBn9acwMXtqlrf94q5hGRzqpRa_o3WxQksEuQiHQCElCEAxkK13jcHQtJ6lo4Hn3D-A3UnWV1-m66OFJm5leQoqLokDy8EKSNK-leQvfZLQa46L6QOtNl4cjT-hBfPOq_OhC-PyW6uhj1jOePKrtN1ighCT7PXlILwLTHO-qdfBqinxD60nV0GLpnR1ZhRzXCf5C18aunvY4A7MkB1hX_Kb7UKfvAFnD8NH7ERfD9tai5Q-W4-VBsSkwlNW2WNJkguTMLueZznN5aEcTmrZI-OEZ-PA_qGxXDtEs_G7qc88Oj-BnrPjcro29zBkETId0euNMBBm4impACFnD6FabWaaATkYAx8O-6JPifrbXhK95FoG5bq1woAOuwYo784Np2p3skSOph0znUYuFqW6f_t17m00?></g></svg>