<?plantuml 1.2026.2?><svg xmlns="http://www.w3.org/2000/svg" xmlns:xlink="http://www.w3.org/1999/xlink" contentStyleType="text/css" data-diagram-type="MINDMAP" height="360px" preserveAspectRatio="none" style="width:1254px;height:360px;background:#FFFFFF;" version="1.1" viewBox="0 0 1254 360" width="1254px" zoomAndPan="magnify"><defs/><g><rect fill="#FF5F46" height="52.9766" rx="12.5" ry="12.5" style="stroke:#FF5F46;stroke-width:3;" width="136.6758" x="399.7725" y="152.9766"/><text fill="#FFFFFF" font-family="sans-serif" font-size="14" lengthAdjust="spacing" textLength="116.6758" x="409.7725" y="176.5117">Unpivot Columns</text><text fill="#FFFFFF" font-family="sans-serif" font-size="14" lengthAdjust="spacing" textLength="66.377" x="409.7725" y="193">into Rows</text><rect fill="#0078D4" height="36.4883" rx="12.5" ry="12.5" style="stroke:#0078D4;stroke-width:3;" width="153.376" x="586.4482" y="20"/><text fill="#FFFFFF" font-family="sans-serif" font-size="14" lengthAdjust="spacing" textLength="133.376" x="596.4482" y="43.5352">What is Unpivoting?</text><rect fill="#FFB900" height="36.4883" rx="12.5" ry="12.5" style="stroke:#FFB900;stroke-width:3;" width="208.8633" x="789.8242" y="20"/><text fill="#000000" font-family="sans-serif" font-size="14" lengthAdjust="spacing" textLength="188.8633" x="799.8242" y="43.5352">Wide format &#8594; Long format</text><text fill="#000000" font-family="sans-serif" font-size="14" lengthAdjust="spacing" textLength="154.2803" x="1051.6875" y="34.291">Columns become rows</text><path d="M998.6875,38.2441 L1008.6875,38.2441 C1023.6875,38.2441 1023.6875,29 1038.6875,29 L1048.6875,29" fill="none" style="stroke:#FFB900;stroke-width:3;"/><text fill="#000000" font-family="sans-serif" font-size="14" lengthAdjust="spacing" textLength="130.375" x="1051.6875" y="52.7793">Reverse of pivoting</text><path d="M998.6875,38.2441 L1008.6875,38.2441 C1023.6875,38.2441 1023.6875,47.4883 1038.6875,47.4883 L1048.6875,47.4883" fill="none" style="stroke:#FFB900;stroke-width:3;"/><path d="M739.8242,38.2441 L749.8242,38.2441 C764.8242,38.2441 764.8242,38.2441 779.8242,38.2441 L789.8242,38.2441" fill="none" style="stroke:#0078D4;stroke-width:3;"/><path d="M536.4482,179.4648 L546.4482,179.4648 C561.4482,179.4648 561.4482,38.2441 576.4482,38.2441 L586.4482,38.2441" fill="none" style="stroke:#FF5F46;stroke-width:3;"/><rect fill="#0078D4" height="36.4883" rx="12.5" ry="12.5" style="stroke:#0078D4;stroke-width:3;" width="160.5264" x="586.4482" y="189.4648"/><text fill="#FFFFFF" font-family="sans-serif" font-size="14" lengthAdjust="spacing" textLength="140.5264" x="596.4482" y="213">SQL UNPIVOT Clause</text><rect fill="#FFB900" height="36.4883" rx="12.5" ry="12.5" style="stroke:#FFB900;stroke-width:3;" width="204.1875" x="796.9746" y="76.4883"/><text fill="#000000" font-family="sans-serif" font-size="14" lengthAdjust="spacing" textLength="184.1875" x="806.9746" y="100.0234">Specify value column name</text><path d="M746.9746,207.709 L756.9746,207.709 C771.9746,207.709 771.9746,94.7324 786.9746,94.7324 L796.9746,94.7324" fill="none" style="stroke:#0078D4;stroke-width:3;"/><rect fill="#FFB900" height="36.4883" rx="12.5" ry="12.5" style="stroke:#FFB900;stroke-width:3;" width="164.2451" x="796.9746" y="132.9766"/><text fill="#000000" font-family="sans-serif" font-size="14" lengthAdjust="spacing" textLength="144.2451" x="806.9746" y="156.5117">Specify name column</text><path d="M746.9746,207.709 L756.9746,207.709 C771.9746,207.709 771.9746,151.2207 786.9746,151.2207 L796.9746,151.2207" fill="none" style="stroke:#0078D4;stroke-width:3;"/><rect fill="#FFB900" height="36.4883" rx="12.5" ry="12.5" style="stroke:#FFB900;stroke-width:3;" width="179.7285" x="796.9746" y="189.4648"/><text fill="#000000" font-family="sans-serif" font-size="14" lengthAdjust="spacing" textLength="159.7285" x="806.9746" y="213">List columns to unpivot</text><text fill="#000000" font-family="sans-serif" font-size="14" lengthAdjust="spacing" textLength="212.6934" x="1029.7031" y="213">... FOR month IN (jan, feb, mar)</text><path d="M976.7031,207.709 L986.7031,207.709 C1001.7031,207.709 1001.7031,207.709 1016.7031,207.709 L1026.7031,207.709" fill="none" style="stroke:#FFB900;stroke-width:3;"/><path d="M746.9746,207.709 L756.9746,207.709 C771.9746,207.709 771.9746,207.709 786.9746,207.709 L796.9746,207.709" fill="none" style="stroke:#0078D4;stroke-width:3;"/><rect fill="#FFB900" height="36.4883" rx="12.5" ry="12.5" style="stroke:#FFB900;stroke-width:3;" width="174.6563" x="796.9746" y="245.9531"/><text fill="#000000" font-family="sans-serif" font-size="14" lengthAdjust="spacing" textLength="154.6563" x="806.9746" y="269.4883">INCLUDE NULLS option</text><text fill="#000000" font-family="sans-serif" font-size="14" lengthAdjust="spacing" textLength="150.6436" x="1024.6309" y="269.4883">Default excludes nulls</text><path d="M971.6309,264.1973 L981.6309,264.1973 C996.6309,264.1973 996.6309,264.1973 1011.6309,264.1973 L1021.6309,264.1973" fill="none" style="stroke:#FFB900;stroke-width:3;"/><path d="M746.9746,207.709 L756.9746,207.709 C771.9746,207.709 771.9746,264.1973 786.9746,264.1973 L796.9746,264.1973" fill="none" style="stroke:#0078D4;stroke-width:3;"/><rect fill="#FFB900" height="36.4883" rx="12.5" ry="12.5" style="stroke:#FFB900;stroke-width:3;" width="249.9336" x="796.9746" y="302.4414"/><text fill="#000000" font-family="sans-serif" font-size="14" lengthAdjust="spacing" textLength="229.9336" x="806.9746" y="325.9766">Custom aliases for column names</text><path d="M746.9746,207.709 L756.9746,207.709 C771.9746,207.709 771.9746,320.6855 786.9746,320.6855 L796.9746,320.6855" fill="none" style="stroke:#0078D4;stroke-width:3;"/><path d="M536.4482,179.4648 L546.4482,179.4648 C561.4482,179.4648 561.4482,207.709 576.4482,207.709 L586.4482,207.709" fill="none" style="stroke:#FF5F46;stroke-width:3;"/><rect fill="#0078D4" height="36.4883" rx="12.5" ry="12.5" style="stroke:#0078D4;stroke-width:3;" width="88.5576" x="261.2148" y="132.9766"/><text fill="#FFFFFF" font-family="sans-serif" font-size="14" lengthAdjust="spacing" textLength="68.5576" x="271.2148" y="156.5117">Use Cases</text><text fill="#000000" font-family="sans-serif" font-size="14" lengthAdjust="spacing" textLength="139.207" x="69.0078" y="138.0234">Normalize wide data</text><path d="M261.2148,151.2207 L251.2148,151.2207 C236.2148,151.2207 236.2148,132.7324 221.2148,132.7324 L211.2148,132.7324" fill="none" style="stroke:#0078D4;stroke-width:3;"/><text fill="#000000" font-family="sans-serif" font-size="14" lengthAdjust="spacing" textLength="161.4238" x="46.791" y="156.5117">Prepare for aggregation</text><path d="M261.2148,151.2207 L251.2148,151.2207 C236.2148,151.2207 236.2148,151.2207 221.2148,151.2207 L211.2148,151.2207" fill="none" style="stroke:#0078D4;stroke-width:3;"/><text fill="#000000" font-family="sans-serif" font-size="14" lengthAdjust="spacing" textLength="167.8496" x="40.3652" y="175">ML pipeline input format</text><path d="M261.2148,151.2207 L251.2148,151.2207 C236.2148,151.2207 236.2148,169.709 221.2148,169.709 L211.2148,169.709" fill="none" style="stroke:#0078D4;stroke-width:3;"/><path d="M399.7725,179.4648 L389.7725,179.4648 C374.7725,179.4648 374.7725,151.2207 359.7725,151.2207 L349.7725,151.2207" fill="none" style="stroke:#FF5F46;stroke-width:3;"/><rect fill="#0078D4" height="36.4883" rx="12.5" ry="12.5" style="stroke:#0078D4;stroke-width:3;" width="78.8643" x="270.9082" y="189.4648"/><text fill="#FFFFFF" font-family="sans-serif" font-size="14" lengthAdjust="spacing" textLength="58.8643" x="280.9082" y="213">Requires</text><text fill="#000000" font-family="sans-serif" font-size="14" lengthAdjust="spacing" textLength="207.9082" x="10" y="213">Databricks Runtime 12.2 LTS+</text><path d="M270.9082,207.709 L260.9082,207.709 C245.9082,207.709 245.9082,207.709 230.9082,207.709 L220.9082,207.709" fill="none" style="stroke:#0078D4;stroke-width:3;"/><path d="M399.7725,179.4648 L389.7725,179.4648 C374.7725,179.4648 374.7725,207.709 359.7725,207.709 L349.7725,207.709" fill="none" style="stroke:#FF5F46;stroke-width:3;"/><?plantuml-src VLFRRjGm47tFLup4IwljXcmevQ8AAdQ9j598ItO3BqYLaqoofeuTVDcsLBps0_g9V0cEDm4QjCoRpncVCtDadobDf6ueBnlIUgTAtp9yuxqkiTMRW-0GxZomzOuKLxKKXfTpmOI49r7qF3e-SLnCEVwBHeBh7grS_UvTRsXnnL4fUEO7te_1QxRNAmXUl5mSZxr6w6FLqGIHgpzUuLwlgifV1S7OQuJ-rojmPRroSSEwdhkz7QTF-xWdaF6MReK6ss8QhhvmohM0L5mhRpA1pnkYWQgXY_BwhOKjJak4IiZ6qZ_l7o0MlExF7J-v7FGWnq8q278ds34fRb4g15718DfPhJx6a2KNoq_dQvWpOXGwfrMB1QrkOKkOGIYSAd3IF6Oxe2ST7bEb-xC2ku_PpTzFuFi-HESfD3QQ3ImJEFXA-15Kc1z1G-IXarWcypXRl8SaY-CLY5PJmVlx2wo8OHhmfc2cH0NSCERMWxbHMZH062NA4ZQIlsTMtdGAcTrzth7sCBs4f4kDqUy8rrse9T5aHrn8R8bqCGEfQuarSJCuyaDimskHsKS1bBT63-bRWnI_6Ie7_OKLpALzDmfImpMrGSr2FuHulPfuPsY_N_y5lPaV1k697_u2?></g></svg>