<?plantuml 1.2026.2?><svg xmlns="http://www.w3.org/2000/svg" xmlns:xlink="http://www.w3.org/1999/xlink" contentStyleType="text/css" data-diagram-type="MINDMAP" height="191px" preserveAspectRatio="none" style="width:1282px;height:191px;background:#FFFFFF;" version="1.1" viewBox="0 0 1282 191" width="1282px" zoomAndPan="magnify"><defs/><g><rect fill="#FF5F46" height="52.9766" rx="12.5" ry="12.5" style="stroke:#FF5F46;stroke-width:3;" width="141.3857" x="434.4922" y="68.2441"/><text fill="#FFFFFF" font-family="sans-serif" font-size="14" lengthAdjust="spacing" textLength="121.3857" x="444.4922" y="91.7793">Append Data with</text><text fill="#FFFFFF" font-family="sans-serif" font-size="14" lengthAdjust="spacing" textLength="85.7432" x="444.4922" y="108.2676">INSERT INTO</text><rect fill="#0078D4" height="36.4883" rx="12.5" ry="12.5" style="stroke:#0078D4;stroke-width:3;" width="104.123" x="625.8779" y="20"/><text fill="#FFFFFF" font-family="sans-serif" font-size="14" lengthAdjust="spacing" textLength="84.123" x="635.8779" y="43.5352">What it does</text><rect fill="#FFB900" height="36.4883" rx="12.5" ry="12.5" style="stroke:#FFB900;stroke-width:3;" width="237.8271" x="780.001" y="20"/><text fill="#000000" font-family="sans-serif" font-size="14" lengthAdjust="spacing" textLength="217.8271" x="790.001" y="43.5352">Adds new rows to existing table</text><text fill="#000000" font-family="sans-serif" font-size="14" lengthAdjust="spacing" textLength="199.8076" x="1070.8281" y="43.5352">Does not modify current data</text><path d="M1017.8281,38.2441 L1027.8281,38.2441 C1042.8281,38.2441 1042.8281,38.2441 1057.8281,38.2441 L1067.8281,38.2441" fill="none" style="stroke:#FFB900;stroke-width:3;"/><path d="M730.001,38.2441 L740.001,38.2441 C755.001,38.2441 755.001,38.2441 770.001,38.2441 L780.001,38.2441" fill="none" style="stroke:#0078D4;stroke-width:3;"/><path d="M575.8779,94.7324 L585.8779,94.7324 C600.8779,94.7324 600.8779,38.2441 615.8779,38.2441 L625.8779,38.2441" fill="none" style="stroke:#FF5F46;stroke-width:3;"/><rect fill="#0078D4" height="36.4883" rx="12.5" ry="12.5" style="stroke:#0078D4;stroke-width:3;" width="45.8809" x="625.8779" y="104.7324"/><text fill="#FFFFFF" font-family="sans-serif" font-size="14" lengthAdjust="spacing" textLength="25.8809" x="635.8779" y="128.2676">SQL</text><rect fill="#FFB900" height="36.4883" rx="12.5" ry="12.5" style="stroke:#FFB900;stroke-width:3;" width="178.9971" x="721.7588" y="76.4883"/><text fill="#000000" font-family="sans-serif" font-size="14" lengthAdjust="spacing" textLength="158.9971" x="731.7588" y="100.0234">INSERT INTO ... VALUES</text><text fill="#000000" font-family="sans-serif" font-size="14" lengthAdjust="spacing" textLength="126.1572" x="953.7559" y="100.0234">Explicit row values</text><path d="M900.7559,94.7324 L910.7559,94.7324 C925.7559,94.7324 925.7559,94.7324 940.7559,94.7324 L950.7559,94.7324" fill="none" style="stroke:#FFB900;stroke-width:3;"/><path d="M671.7588,122.9766 L681.7588,122.9766 C696.7588,122.9766 696.7588,94.7324 711.7588,94.7324 L721.7588,94.7324" fill="none" style="stroke:#0078D4;stroke-width:3;"/><rect fill="#FFB900" height="36.4883" rx="12.5" ry="12.5" style="stroke:#FFB900;stroke-width:3;" width="176.6113" x="721.7588" y="132.9766"/><text fill="#000000" font-family="sans-serif" font-size="14" lengthAdjust="spacing" textLength="156.6113" x="731.7588" y="156.5117">INSERT INTO ... SELECT</text><text fill="#000000" font-family="sans-serif" font-size="14" lengthAdjust="spacing" textLength="189.2188" x="951.3701" y="156.5117">From staging table or query</text><path d="M898.3701,151.2207 L908.3701,151.2207 C923.3701,151.2207 923.3701,151.2207 938.3701,151.2207 L948.3701,151.2207" fill="none" style="stroke:#FFB900;stroke-width:3;"/><path d="M671.7588,122.9766 L681.7588,122.9766 C696.7588,122.9766 696.7588,151.2207 711.7588,151.2207 L721.7588,151.2207" fill="none" style="stroke:#0078D4;stroke-width:3;"/><path d="M575.8779,94.7324 L585.8779,94.7324 C600.8779,94.7324 600.8779,122.9766 615.8779,122.9766 L625.8779,122.9766" fill="none" style="stroke:#FF5F46;stroke-width:3;"/><rect fill="#0078D4" height="36.4883" rx="12.5" ry="12.5" style="stroke:#0078D4;stroke-width:3;" width="73.0469" x="311.4453" y="20"/><text fill="#FFFFFF" font-family="sans-serif" font-size="14" lengthAdjust="spacing" textLength="53.0469" x="321.4453" y="43.5352">PySpark</text><text fill="#000000" font-family="sans-serif" font-size="14" lengthAdjust="spacing" textLength="248.4453" x="10" y="34.291">.write.mode("append").saveAsTable()</text><path d="M311.4453,38.2441 L301.4453,38.2441 C286.4453,38.2441 286.4453,29 271.4453,29 L261.4453,29" fill="none" style="stroke:#0078D4;stroke-width:3;"/><text fill="#000000" font-family="sans-serif" font-size="14" lengthAdjust="spacing" textLength="116.7578" x="141.6875" y="52.7793">.write.insertInto()</text><path d="M311.4453,38.2441 L301.4453,38.2441 C286.4453,38.2441 286.4453,47.4883 271.4453,47.4883 L261.4453,47.4883" fill="none" style="stroke:#0078D4;stroke-width:3;"/><path d="M434.4922,94.7324 L424.4922,94.7324 C409.4922,94.7324 409.4922,38.2441 394.4922,38.2441 L384.4922,38.2441" fill="none" style="stroke:#FF5F46;stroke-width:3;"/><rect fill="#0078D4" height="36.4883" rx="12.5" ry="12.5" style="stroke:#0078D4;stroke-width:3;" width="88.5576" x="295.9346" y="76.4883"/><text fill="#FFFFFF" font-family="sans-serif" font-size="14" lengthAdjust="spacing" textLength="68.5576" x="305.9346" y="100.0234">Use Cases</text><text fill="#000000" font-family="sans-serif" font-size="14" lengthAdjust="spacing" textLength="146.9932" x="95.9414" y="81.5352">Daily transaction logs</text><path d="M295.9346,94.7324 L285.9346,94.7324 C270.9346,94.7324 270.9346,76.2441 255.9346,76.2441 L245.9346,76.2441" fill="none" style="stroke:#0078D4;stroke-width:3;"/><text fill="#000000" font-family="sans-serif" font-size="14" lengthAdjust="spacing" textLength="128.3994" x="114.5352" y="100.0234">New event streams</text><path d="M295.9346,94.7324 L285.9346,94.7324 C270.9346,94.7324 270.9346,94.7324 255.9346,94.7324 L245.9346,94.7324" fill="none" style="stroke:#0078D4;stroke-width:3;"/><text fill="#000000" font-family="sans-serif" font-size="14" lengthAdjust="spacing" textLength="172.9902" x="69.9443" y="118.5117">Incremental data extracts</text><path d="M295.9346,94.7324 L285.9346,94.7324 C270.9346,94.7324 270.9346,113.2207 255.9346,113.2207 L245.9346,113.2207" fill="none" style="stroke:#0078D4;stroke-width:3;"/><path d="M434.4922,94.7324 L424.4922,94.7324 C409.4922,94.7324 409.4922,94.7324 394.4922,94.7324 L384.4922,94.7324" fill="none" style="stroke:#FF5F46;stroke-width:3;"/><rect fill="#0078D4" height="36.4883" rx="12.5" ry="12.5" style="stroke:#0078D4;stroke-width:3;" width="75.5898" x="308.9023" y="132.9766"/><text fill="#FFFFFF" font-family="sans-serif" font-size="14" lengthAdjust="spacing" textLength="55.5898" x="318.9023" y="156.5117">Warning</text><text fill="#000000" font-family="sans-serif" font-size="14" lengthAdjust="spacing" textLength="150.623" x="105.2793" y="147.2676">No duplicate checking</text><path d="M308.9023,151.2207 L298.9023,151.2207 C283.9023,151.2207 283.9023,141.9766 268.9023,141.9766 L258.9023,141.9766" fill="none" style="stroke:#0078D4;stroke-width:3;"/><text fill="#000000" font-family="sans-serif" font-size="14" lengthAdjust="spacing" textLength="233.584" x="22.3184" y="165.7559">Deduplicate source before loading</text><path d="M308.9023,151.2207 L298.9023,151.2207 C283.9023,151.2207 283.9023,160.4648 268.9023,160.4648 L258.9023,160.4648" fill="none" style="stroke:#0078D4;stroke-width:3;"/><path d="M434.4922,94.7324 L424.4922,94.7324 C409.4922,94.7324 409.4922,151.2207 394.4922,151.2207 L384.4922,151.2207" fill="none" style="stroke:#FF5F46;stroke-width:3;"/><?plantuml-src VPDTRvjG38Rl-HLMTvCe2gDPrtsecfe5a295sGTqlPbKdO09Hu5ps3ac2QhstsSGJLUcp5TWl_PZlu9RIy9GALLQYigviTGK-Cdvc695-SWRmwC379z5ijiQNQjqeGjju5KOlWslhhlQIYhyDnjgHNqsw-AaZNEPx1HQ2szSp_dznBeyo_AyT-_zgo5ha7qvTR11sCKpQtQMbMMR3vutP0so_sLvNJ1heuz5gtaygxXvtTizWNbLeKh15oJW82d_gPRhAFWUmt8TVt4c4xZF1O4aI3LQVkUEDBMWy0167ooG1ZnAIr9jWSIcm5OpUG2VvQ0qGQbJcJMGrCQWuZ4CQiT6trRTjBzeuBek_9YlxeAe7n8Sgq8c36SKx4LHzoiCcw9W5IpYlYaqkWJ-kBQdbO2F_rMZQPpf5BusKINCZX-d3-0UZ2HqUKSSNOZEYeknQyKUvpPkMqVZ5qAfB1fQAj9T0Uuima9ONgjJ-K8M3P0Hoeg4f5PGw6rVMxDZk6yji6HGb7rwgHA39QT5qNd3Rd9_GcqPxeLHV4K_G4DQjtu8GaXoJ7Qdae_F5Qjhao1iCDC6cI_ILdRBbptzQywbE_Dcr-xi3m00?></g></svg>