<?plantuml 1.2026.2?><svg xmlns="http://www.w3.org/2000/svg" xmlns:xlink="http://www.w3.org/1999/xlink" contentStyleType="text/css" data-diagram-type="MINDMAP" height="247px" preserveAspectRatio="none" style="width:1317px;height:247px;background:#FFFFFF;" version="1.1" viewBox="0 0 1317 247" width="1317px" zoomAndPan="magnify"><defs/><g><rect fill="#FF5F46" height="52.9766" rx="12.5" ry="12.5" style="stroke:#FF5F46;stroke-width:3;" width="136.6484" x="559.918" y="96.2324"/><text fill="#FFFFFF" font-family="sans-serif" font-size="14" lengthAdjust="spacing" textLength="116.6484" x="569.918" y="119.7676">Choose the Right</text><text fill="#FFFFFF" font-family="sans-serif" font-size="14" lengthAdjust="spacing" textLength="113.8184" x="569.918" y="136.2559">Loading Strategy</text><rect fill="#0078D4" height="36.4883" rx="12.5" ry="12.5" style="stroke:#0078D4;stroke-width:3;" width="142.8145" x="746.5664" y="76.2324"/><text fill="#FFFFFF" font-family="sans-serif" font-size="14" lengthAdjust="spacing" textLength="122.8145" x="756.5664" y="99.7676">New Records Only</text><rect fill="#FFB900" height="36.4883" rx="12.5" ry="12.5" style="stroke:#FFB900;stroke-width:3;" width="174.5264" x="939.3809" y="76.2324"/><text fill="#000000" font-family="sans-serif" font-size="14" lengthAdjust="spacing" textLength="154.5264" x="949.3809" y="99.7676">INSERT INTO / Append</text><text fill="#000000" font-family="sans-serif" font-size="14" lengthAdjust="spacing" textLength="66.5684" x="1166.9072" y="81.2793">Daily logs</text><path d="M1113.9072,94.4766 L1123.9072,94.4766 C1138.9072,94.4766 1138.9072,75.9883 1153.9072,75.9883 L1163.9072,75.9883" fill="none" style="stroke:#FFB900;stroke-width:3;"/><text fill="#000000" font-family="sans-serif" font-size="14" lengthAdjust="spacing" textLength="94.8281" x="1166.9072" y="99.7676">Event streams</text><path d="M1113.9072,94.4766 L1123.9072,94.4766 C1138.9072,94.4766 1138.9072,94.4766 1153.9072,94.4766 L1163.9072,94.4766" fill="none" style="stroke:#FFB900;stroke-width:3;"/><text fill="#000000" font-family="sans-serif" font-size="14" lengthAdjust="spacing" textLength="139.0498" x="1166.9072" y="118.2559">Incremental extracts</text><path d="M1113.9072,94.4766 L1123.9072,94.4766 C1138.9072,94.4766 1138.9072,112.9648 1153.9072,112.9648 L1163.9072,112.9648" fill="none" style="stroke:#FFB900;stroke-width:3;"/><path d="M889.3809,94.4766 L899.3809,94.4766 C914.3809,94.4766 914.3809,94.4766 929.3809,94.4766 L939.3809,94.4766" fill="none" style="stroke:#0078D4;stroke-width:3;"/><path d="M696.5664,122.7207 L706.5664,122.7207 C721.5664,122.7207 721.5664,94.4766 736.5664,94.4766 L746.5664,94.4766" fill="none" style="stroke:#FF5F46;stroke-width:3;"/><rect fill="#0078D4" height="36.4883" rx="12.5" ry="12.5" style="stroke:#0078D4;stroke-width:3;" width="99.8711" x="746.5664" y="132.7207"/><text fill="#FFFFFF" font-family="sans-serif" font-size="14" lengthAdjust="spacing" textLength="79.8711" x="756.5664" y="156.2559">Full Refresh</text><rect fill="#FFB900" height="36.4883" rx="12.5" ry="12.5" style="stroke:#FFB900;stroke-width:3;" width="149.4111" x="896.4375" y="132.7207"/><text fill="#000000" font-family="sans-serif" font-size="14" lengthAdjust="spacing" textLength="129.4111" x="906.4375" y="156.2559">INSERT OVERWRITE</text><text fill="#000000" font-family="sans-serif" font-size="14" lengthAdjust="spacing" textLength="95.5391" x="1098.8486" y="137.7676">Lookup tables</text><path d="M1045.8486,150.9648 L1055.8486,150.9648 C1070.8486,150.9648 1070.8486,132.4766 1085.8486,132.4766 L1095.8486,132.4766" fill="none" style="stroke:#FFB900;stroke-width:3;"/><text fill="#000000" font-family="sans-serif" font-size="14" lengthAdjust="spacing" textLength="90.8154" x="1098.8486" y="156.2559">Aggregations</text><path d="M1045.8486,150.9648 L1055.8486,150.9648 C1070.8486,150.9648 1070.8486,150.9648 1085.8486,150.9648 L1095.8486,150.9648" fill="none" style="stroke:#FFB900;stroke-width:3;"/><text fill="#000000" font-family="sans-serif" font-size="14" lengthAdjust="spacing" textLength="173.8174" x="1098.8486" y="174.7441">Failed batch reprocessing</text><path d="M1045.8486,150.9648 L1055.8486,150.9648 C1070.8486,150.9648 1070.8486,169.4531 1085.8486,169.4531 L1095.8486,169.4531" fill="none" style="stroke:#FFB900;stroke-width:3;"/><path d="M846.4375,150.9648 L856.4375,150.9648 C871.4375,150.9648 871.4375,150.9648 886.4375,150.9648 L896.4375,150.9648" fill="none" style="stroke:#0078D4;stroke-width:3;"/><path d="M696.5664,122.7207 L706.5664,122.7207 C721.5664,122.7207 721.5664,150.9648 736.5664,150.9648 L746.5664,150.9648" fill="none" style="stroke:#FF5F46;stroke-width:3;"/><rect fill="#0078D4" height="36.4883" rx="12.5" ry="12.5" style="stroke:#0078D4;stroke-width:3;" width="186.708" x="323.21" y="76.4883"/><text fill="#FFFFFF" font-family="sans-serif" font-size="14" lengthAdjust="spacing" textLength="166.708" x="333.21" y="100.0234">Mixed Updates + Inserts</text><rect fill="#FFB900" height="36.4883" rx="12.5" ry="12.5" style="stroke:#FFB900;stroke-width:3;" width="66.2041" x="207.0059" y="20"/><text fill="#000000" font-family="sans-serif" font-size="14" lengthAdjust="spacing" textLength="46.2041" x="217.0059" y="43.5352">MERGE</text><text fill="#000000" font-family="sans-serif" font-size="14" lengthAdjust="spacing" textLength="70.9844" x="83.0215" y="25.0469">CDC feeds</text><path d="M207.0059,38.2441 L197.0059,38.2441 C182.0059,38.2441 182.0059,19.7559 167.0059,19.7559 L157.0059,19.7559" fill="none" style="stroke:#FFB900;stroke-width:3;"/><text fill="#000000" font-family="sans-serif" font-size="14" lengthAdjust="spacing" textLength="117.7559" x="36.25" y="43.5352">Dimension tables</text><path d="M207.0059,38.2441 L197.0059,38.2441 C182.0059,38.2441 182.0059,38.2441 167.0059,38.2441 L157.0059,38.2441" fill="none" style="stroke:#FFB900;stroke-width:3;"/><text fill="#000000" font-family="sans-serif" font-size="14" lengthAdjust="spacing" textLength="144.0059" x="10" y="62.0234">Data synchronization</text><path d="M207.0059,38.2441 L197.0059,38.2441 C182.0059,38.2441 182.0059,56.7324 167.0059,56.7324 L157.0059,56.7324" fill="none" style="stroke:#FFB900;stroke-width:3;"/><path d="M323.21,94.7324 L313.21,94.7324 C298.21,94.7324 298.21,38.2441 283.21,38.2441 L273.21,38.2441" fill="none" style="stroke:#0078D4;stroke-width:3;"/><rect fill="#FFB900" height="36.4883" rx="12.5" ry="12.5" style="stroke:#FFB900;stroke-width:3;" width="186.3389" x="86.8711" y="76.4883"/><text fill="#000000" font-family="sans-serif" font-size="14" lengthAdjust="spacing" textLength="166.3389" x="96.8711" y="100.0234">Deduplicate source first!</text><path d="M323.21,94.7324 L313.21,94.7324 C298.21,94.7324 298.21,94.7324 283.21,94.7324 L273.21,94.7324" fill="none" style="stroke:#0078D4;stroke-width:3;"/><rect fill="#FFB900" height="36.4883" rx="12.5" ry="12.5" style="stroke:#FFB900;stroke-width:3;" width="150.3066" x="122.9033" y="132.9766"/><text fill="#000000" font-family="sans-serif" font-size="14" lengthAdjust="spacing" textLength="130.3066" x="132.9033" y="156.5117">1:1 match required</text><path d="M323.21,94.7324 L313.21,94.7324 C298.21,94.7324 298.21,151.2207 283.21,151.2207 L273.21,151.2207" fill="none" style="stroke:#0078D4;stroke-width:3;"/><path d="M559.918,122.7207 L549.918,122.7207 C534.918,122.7207 534.918,94.7324 519.918,94.7324 L509.918,94.7324" fill="none" style="stroke:#FF5F46;stroke-width:3;"/><rect fill="#0078D4" height="36.4883" rx="12.5" ry="12.5" style="stroke:#0078D4;stroke-width:3;" width="170.124" x="339.7939" y="188.9531"/><text fill="#FFFFFF" font-family="sans-serif" font-size="14" lengthAdjust="spacing" textLength="150.124" x="349.7939" y="212.4883">Selective Replacement</text><text fill="#000000" font-family="sans-serif" font-size="14" lengthAdjust="spacing" textLength="109.2998" x="177.4941" y="194">REPLACE WHERE</text><path d="M339.7939,207.1973 L329.7939,207.1973 C314.7939,207.1973 314.7939,188.709 299.7939,188.709 L289.7939,188.709" fill="none" style="stroke:#0078D4;stroke-width:3;"/><text fill="#000000" font-family="sans-serif" font-size="14" lengthAdjust="spacing" textLength="189.9639" x="96.8301" y="212.4883">Correct specific date ranges</text><path d="M339.7939,207.1973 L329.7939,207.1973 C314.7939,207.1973 314.7939,207.1973 299.7939,207.1973 L289.7939,207.1973" fill="none" style="stroke:#0078D4;stroke-width:3;"/><text fill="#000000" font-family="sans-serif" font-size="14" lengthAdjust="spacing" textLength="145.5918" x="141.2021" y="230.9766">Fix specific partitions</text><path d="M339.7939,207.1973 L329.7939,207.1973 C314.7939,207.1973 314.7939,225.6855 299.7939,225.6855 L289.7939,225.6855" fill="none" style="stroke:#0078D4;stroke-width:3;"/><path d="M559.918,122.7207 L549.918,122.7207 C534.918,122.7207 534.918,207.1973 519.918,207.1973 L509.918,207.1973" fill="none" style="stroke:#FF5F46;stroke-width:3;"/><?plantuml-src VPDHRzCm58NVyoikuWLKjKlB631DQ2LDe59PKLhO2zBasZU9LTSsjZDQ9luxDsdAeAZSboJdtFWxlfQlVM0kRAGM6sQZAnzs2jz6bm9jg9x5p-4X0gftZAzBPsej4gECWwTPzZ8xlsYzcTJuhveP7JgrQEjtxxAIVAtHUtWnYAEV1zRm92kENxsUd1-pZjI_LprAaBNro1gTP1N5waqS7xEErF-ouhQ8jJ9RrVGydEouEkl6tOEaCiOZX0eXbsKLlkgPOKBg4XR1iO3bBkhru0Q_GuxSEE5XhbMZzM1wiqZp9JsMSpY3iRMeHMFqxc32fDg1CgNlXFGUTG0V7BBDGPjgxd13EbE0MwBnq5YGrKeHhN3egpz1yozfVfjFbsdt_yoOTMqXi1LjjzF6PUcmP44QVP0ooe82LYpm2XnQPpXDXtOOzVlmKMx9-sm5RTK3eRH7Hp7wZPVcxzFchNy7oII10b7uxdiYARWdoW7VoImmy3lDAsUq_D7cQDUQeAYjafmmu4tjE48XdGzFMdTuEOHDb-zRBHsA9ji25V8Wx-baq2h6srb5BITFFyt6IGgt7z8ytKk9SOxQmLlaif0ScYs1OxhSfwD1oEsZQ-dooVsOhkdS3lSm6Wv6yUXYCFe5?></g></svg>