<?plantuml 1.2026.2?><svg xmlns="http://www.w3.org/2000/svg" xmlns:xlink="http://www.w3.org/1999/xlink" contentStyleType="text/css" data-diagram-type="MINDMAP" height="304px" preserveAspectRatio="none" style="width:1380px;height:304px;background:#FFFFFF;" version="1.1" viewBox="0 0 1380 304" width="1380px" zoomAndPan="magnify"><defs/><g><rect fill="#FF5F46" height="52.9766" rx="12.5" ry="12.5" style="stroke:#FF5F46;stroke-width:3;" width="143.498" x="499.4336" y="124.7324"/><text fill="#FFFFFF" font-family="sans-serif" font-size="14" lengthAdjust="spacing" textLength="101.6367" x="509.4336" y="148.2676">Merge Data for</text><text fill="#FFFFFF" font-family="sans-serif" font-size="14" lengthAdjust="spacing" textLength="123.498" x="509.4336" y="164.7559">Upsert Operations</text><rect fill="#0078D4" height="36.4883" rx="12.5" ry="12.5" style="stroke:#0078D4;stroke-width:3;" width="125.7861" x="692.9316" y="20"/><text fill="#FFFFFF" font-family="sans-serif" font-size="14" lengthAdjust="spacing" textLength="105.7861" x="702.9316" y="43.5352">What is MERGE?</text><rect fill="#FFB900" height="36.4883" rx="12.5" ry="12.5" style="stroke:#FFB900;stroke-width:3;" width="191.1035" x="868.7178" y="20"/><text fill="#000000" font-family="sans-serif" font-size="14" lengthAdjust="spacing" textLength="171.1035" x="878.7178" y="43.5352">Update + Insert = Upsert</text><text fill="#000000" font-family="sans-serif" font-size="14" lengthAdjust="spacing" textLength="153.5967" x="1112.8213" y="34.291">Match source to target</text><path d="M1059.8213,38.2441 L1069.8213,38.2441 C1084.8213,38.2441 1084.8213,29 1099.8213,29 L1109.8213,29" fill="none" style="stroke:#FFB900;stroke-width:3;"/><text fill="#000000" font-family="sans-serif" font-size="14" lengthAdjust="spacing" textLength="255.7939" x="1112.8213" y="52.7793">Different actions on match/no-match</text><path d="M1059.8213,38.2441 L1069.8213,38.2441 C1084.8213,38.2441 1084.8213,47.4883 1099.8213,47.4883 L1109.8213,47.4883" fill="none" style="stroke:#FFB900;stroke-width:3;"/><path d="M818.7178,38.2441 L828.7178,38.2441 C843.7178,38.2441 843.7178,38.2441 858.7178,38.2441 L868.7178,38.2441" fill="none" style="stroke:#0078D4;stroke-width:3;"/><path d="M642.9316,151.2207 L652.9316,151.2207 C667.9316,151.2207 667.9316,38.2441 682.9316,38.2441 L692.9316,38.2441" fill="none" style="stroke:#FF5F46;stroke-width:3;"/><rect fill="#0078D4" height="36.4883" rx="12.5" ry="12.5" style="stroke:#0078D4;stroke-width:3;" width="115.7305" x="692.9316" y="161.2207"/><text fill="#FFFFFF" font-family="sans-serif" font-size="14" lengthAdjust="spacing" textLength="95.7305" x="702.9316" y="184.7559">MERGE Syntax</text><rect fill="#FFB900" height="36.4883" rx="12.5" ry="12.5" style="stroke:#FFB900;stroke-width:3;" width="298.7217" x="858.6621" y="76.4883"/><text fill="#000000" font-family="sans-serif" font-size="14" lengthAdjust="spacing" textLength="278.7217" x="868.6621" y="100.0234">MERGE INTO target USING source ON key</text><path d="M808.6621,179.4648 L818.6621,179.4648 C833.6621,179.4648 833.6621,94.7324 848.6621,94.7324 L858.6621,94.7324" fill="none" style="stroke:#0078D4;stroke-width:3;"/><rect fill="#FFB900" height="36.4883" rx="12.5" ry="12.5" style="stroke:#FFB900;stroke-width:3;" width="233.1992" x="858.6621" y="132.9766"/><text fill="#000000" font-family="sans-serif" font-size="14" lengthAdjust="spacing" textLength="213.1992" x="868.6621" y="156.5117">WHEN MATCHED THEN UPDATE</text><text fill="#000000" font-family="sans-serif" font-size="14" lengthAdjust="spacing" textLength="165.6826" x="1144.8613" y="156.5117">Update specific columns</text><path d="M1091.8613,151.2207 L1101.8613,151.2207 C1116.8613,151.2207 1116.8613,151.2207 1131.8613,151.2207 L1141.8613,151.2207" fill="none" style="stroke:#FFB900;stroke-width:3;"/><path d="M808.6621,179.4648 L818.6621,179.4648 C833.6621,179.4648 833.6621,151.2207 848.6621,151.2207 L858.6621,151.2207" fill="none" style="stroke:#0078D4;stroke-width:3;"/><rect fill="#FFB900" height="36.4883" rx="12.5" ry="12.5" style="stroke:#FFB900;stroke-width:3;" width="260.8848" x="858.6621" y="189.4648"/><text fill="#000000" font-family="sans-serif" font-size="14" lengthAdjust="spacing" textLength="240.8848" x="868.6621" y="213">WHEN NOT MATCHED THEN INSERT</text><text fill="#000000" font-family="sans-serif" font-size="14" lengthAdjust="spacing" textLength="125.7334" x="1172.5469" y="213">Insert new records</text><path d="M1119.5469,207.709 L1129.5469,207.709 C1144.5469,207.709 1144.5469,207.709 1159.5469,207.709 L1169.5469,207.709" fill="none" style="stroke:#FFB900;stroke-width:3;"/><path d="M808.6621,179.4648 L818.6621,179.4648 C833.6621,179.4648 833.6621,207.709 848.6621,207.709 L858.6621,207.709" fill="none" style="stroke:#0078D4;stroke-width:3;"/><rect fill="#FFB900" height="36.4883" rx="12.5" ry="12.5" style="stroke:#FFB900;stroke-width:3;" width="135.2061" x="858.6621" y="245.9531"/><text fill="#000000" font-family="sans-serif" font-size="14" lengthAdjust="spacing" textLength="115.2061" x="868.6621" y="269.4883">Conditional logic</text><text fill="#000000" font-family="sans-serif" font-size="14" lengthAdjust="spacing" textLength="257.9814" x="1046.8682" y="269.4883">WHEN MATCHED AND condition THEN</text><path d="M993.8682,264.1973 L1003.8682,264.1973 C1018.8682,264.1973 1018.8682,264.1973 1033.8682,264.1973 L1043.8682,264.1973" fill="none" style="stroke:#FFB900;stroke-width:3;"/><path d="M808.6621,179.4648 L818.6621,179.4648 C833.6621,179.4648 833.6621,264.1973 848.6621,264.1973 L858.6621,264.1973" fill="none" style="stroke:#0078D4;stroke-width:3;"/><path d="M642.9316,151.2207 L652.9316,151.2207 C667.9316,151.2207 667.9316,179.4648 682.9316,179.4648 L692.9316,179.4648" fill="none" style="stroke:#FF5F46;stroke-width:3;"/><rect fill="#0078D4" height="36.4883" rx="12.5" ry="12.5" style="stroke:#0078D4;stroke-width:3;" width="88.5576" x="360.876" y="104.7324"/><text fill="#FFFFFF" font-family="sans-serif" font-size="14" lengthAdjust="spacing" textLength="68.5576" x="370.876" y="128.2676">Use Cases</text><text fill="#000000" font-family="sans-serif" font-size="14" lengthAdjust="spacing" textLength="191.6934" x="116.1826" y="109.7793">Slowly changing dimensions</text><path d="M360.876,122.9766 L350.876,122.9766 C335.876,122.9766 335.876,104.4883 320.876,104.4883 L310.876,104.4883" fill="none" style="stroke:#0078D4;stroke-width:3;"/><text fill="#000000" font-family="sans-serif" font-size="14" lengthAdjust="spacing" textLength="176.5039" x="131.3721" y="128.2676">Sync from source systems</text><path d="M360.876,122.9766 L350.876,122.9766 C335.876,122.9766 335.876,122.9766 320.876,122.9766 L310.876,122.9766" fill="none" style="stroke:#0078D4;stroke-width:3;"/><text fill="#000000" font-family="sans-serif" font-size="14" lengthAdjust="spacing" textLength="184.2559" x="123.6201" y="146.7559">Change data capture (CDC)</text><path d="M360.876,122.9766 L350.876,122.9766 C335.876,122.9766 335.876,141.4648 320.876,141.4648 L310.876,141.4648" fill="none" style="stroke:#0078D4;stroke-width:3;"/><path d="M499.4336,151.2207 L489.4336,151.2207 C474.4336,151.2207 474.4336,122.9766 459.4336,122.9766 L449.4336,122.9766" fill="none" style="stroke:#FF5F46;stroke-width:3;"/><rect fill="#0078D4" height="36.4883" rx="12.5" ry="12.5" style="stroke:#0078D4;stroke-width:3;" width="150.0195" x="299.4141" y="161.2207"/><text fill="#FFFFFF" font-family="sans-serif" font-size="14" lengthAdjust="spacing" textLength="130.0195" x="309.4141" y="184.7559">PySpark DeltaTable</text><text fill="#000000" font-family="sans-serif" font-size="14" lengthAdjust="spacing" textLength="144.498" x="101.916" y="166.2676">DeltaTable.forName()</text><path d="M299.4141,179.4648 L289.4141,179.4648 C274.4141,179.4648 274.4141,160.9766 259.4141,160.9766 L249.4141,160.9766" fill="none" style="stroke:#0078D4;stroke-width:3;"/><text fill="#000000" font-family="sans-serif" font-size="14" lengthAdjust="spacing" textLength="211.75" x="34.6641" y="184.7559">.merge().whenMatchedUpdate()</text><path d="M299.4141,179.4648 L289.4141,179.4648 C274.4141,179.4648 274.4141,179.4648 259.4141,179.4648 L249.4141,179.4648" fill="none" style="stroke:#0078D4;stroke-width:3;"/><text fill="#000000" font-family="sans-serif" font-size="14" lengthAdjust="spacing" textLength="236.4141" x="10" y="203.2441">.whenNotMatchedInsert().execute()</text><path d="M299.4141,179.4648 L289.4141,179.4648 C274.4141,179.4648 274.4141,197.9531 259.4141,197.9531 L249.4141,197.9531" fill="none" style="stroke:#0078D4;stroke-width:3;"/><path d="M499.4336,151.2207 L489.4336,151.2207 C474.4336,151.2207 474.4336,179.4648 459.4336,179.4648 L449.4336,179.4648" fill="none" style="stroke:#FF5F46;stroke-width:3;"/><?plantuml-src VLDTRvim57tdLrnfBubGACswxaFTrWn86saXLKFKbqcLOovW1MnaEqfGrVy-C4whPChkattFEJxt-jgtIXEfAyRJYjJEZT9DYJ-SRodMkXZuGtXne8rVX6voAROy3KGf97oOJZzDhwuDzfjn_3Sx5LpRR6RYZPiKZ6uuAWKVFTzvFNXTdlNo_SzVmgjJhvFiyQad5KnDl7kDptfbsVghxvzwdMJ_w-MRQBtMObzsd9UpZ9iBUzqkp57c227H138X__1LhL1gMDGeYMQ2AyTruQaW6fY2UVHu5_riCowiwfHe11Tct0Y-Gw_iGFSPvaJJ0fJOIegW1RIppl40XYpBK2BNGAZn0C6XwXGNN8pCedCrRh1ik2PxuzadPd6oiEV1QZcBxmusYnWss1ZcqtqKmtoI1FTH24ctMJs4aoIo1TZYLOsKPOm25UMsCgrQQRn8ZkMpU1az9bPkM-Qu0ubKoBHN1eAdhEk7b52Ad55BFofc4eUjdIMQivtH25OA8I0ALRiPFSEo5Bko0LeGdZEUGyegvCfCeySRJY6JeZgqhXgbiR9eqCaGqcwcbDHwAn46GHWCEwU7PbaJkO4GIqqIiYwn5xtllVOTnAJ2mR17lAfx8eEXjokGcxbYsb_W6wD3Og4js5zFAy0zqgsXtMBxpUrNTowziJ--ziP_0G00?></g></svg>