<?plantuml 1.2026.2?><svg xmlns="http://www.w3.org/2000/svg" xmlns:xlink="http://www.w3.org/1999/xlink" contentStyleType="text/css" data-diagram-type="MINDMAP" height="134px" preserveAspectRatio="none" style="width:1399px;height:134px;background:#FFFFFF;" version="1.1" viewBox="0 0 1399 134" width="1399px" zoomAndPan="magnify"><defs/><g><rect fill="#FF5F46" height="52.9766" rx="12.5" ry="12.5" style="stroke:#FF5F46;stroke-width:3;" width="149.4111" x="557.4639" y="40"/><text fill="#FFFFFF" font-family="sans-serif" font-size="14" lengthAdjust="spacing" textLength="121.0166" x="567.4639" y="63.5352">Replace Data with</text><text fill="#FFFFFF" font-family="sans-serif" font-size="14" lengthAdjust="spacing" textLength="129.4111" x="567.4639" y="80.0234">INSERT OVERWRITE</text><rect fill="#0078D4" height="36.4883" rx="12.5" ry="12.5" style="stroke:#0078D4;stroke-width:3;" width="142.6025" x="756.875" y="20"/><text fill="#FFFFFF" font-family="sans-serif" font-size="14" lengthAdjust="spacing" textLength="122.6025" x="766.875" y="43.5352">Full Table Replace</text><rect fill="#FFB900" height="36.4883" rx="12.5" ry="12.5" style="stroke:#FFB900;stroke-width:3;" width="172.0791" x="949.4775" y="20"/><text fill="#000000" font-family="sans-serif" font-size="14" lengthAdjust="spacing" textLength="152.0791" x="959.4775" y="43.5352">Truncates then inserts</text><text fill="#000000" font-family="sans-serif" font-size="14" lengthAdjust="spacing" textLength="189.5195" x="1174.5566" y="25.0469">Reprocessing failed batches</text><path d="M1121.5566,38.2441 L1131.5566,38.2441 C1146.5566,38.2441 1146.5566,19.7559 1161.5566,19.7559 L1171.5566,19.7559" fill="none" style="stroke:#FFB900;stroke-width:3;"/><text fill="#000000" font-family="sans-serif" font-size="14" lengthAdjust="spacing" textLength="165.8398" x="1174.5566" y="43.5352">Rebuilding aggregations</text><path d="M1121.5566,38.2441 L1131.5566,38.2441 C1146.5566,38.2441 1146.5566,38.2441 1161.5566,38.2441 L1171.5566,38.2441" fill="none" style="stroke:#FFB900;stroke-width:3;"/><text fill="#000000" font-family="sans-serif" font-size="14" lengthAdjust="spacing" textLength="169.1689" x="1174.5566" y="62.0234">Refreshing lookup tables</text><path d="M1121.5566,38.2441 L1131.5566,38.2441 C1146.5566,38.2441 1146.5566,56.7324 1161.5566,56.7324 L1171.5566,56.7324" fill="none" style="stroke:#FFB900;stroke-width:3;"/><path d="M899.4775,38.2441 L909.4775,38.2441 C924.4775,38.2441 924.4775,38.2441 939.4775,38.2441 L949.4775,38.2441" fill="none" style="stroke:#0078D4;stroke-width:3;"/><path d="M706.875,66.4883 L716.875,66.4883 C731.875,66.4883 731.875,38.2441 746.875,38.2441 L756.875,38.2441" fill="none" style="stroke:#FF5F46;stroke-width:3;"/><rect fill="#0078D4" height="36.4883" rx="12.5" ry="12.5" style="stroke:#0078D4;stroke-width:3;" width="146.7314" x="756.875" y="76.4883"/><text fill="#FFFFFF" font-family="sans-serif" font-size="14" lengthAdjust="spacing" textLength="126.7314" x="766.875" y="100.0234">Partition Overwrite</text><rect fill="#FFB900" height="36.4883" rx="12.5" ry="12.5" style="stroke:#FFB900;stroke-width:3;" width="190.5293" x="953.6064" y="76.4883"/><text fill="#000000" font-family="sans-serif" font-size="14" lengthAdjust="spacing" textLength="170.5293" x="963.6064" y="100.0234">Replace specific partition</text><text fill="#000000" font-family="sans-serif" font-size="14" lengthAdjust="spacing" textLength="190.7568" x="1197.1357" y="90.7793">Leave other partitions intact</text><path d="M1144.1357,94.7324 L1154.1357,94.7324 C1169.1357,94.7324 1169.1357,85.4883 1184.1357,85.4883 L1194.1357,85.4883" fill="none" style="stroke:#FFB900;stroke-width:3;"/><text fill="#000000" font-family="sans-serif" font-size="14" lengthAdjust="spacing" textLength="168.5059" x="1197.1357" y="109.2676">PARTITION (col = 'value')</text><path d="M1144.1357,94.7324 L1154.1357,94.7324 C1169.1357,94.7324 1169.1357,103.9766 1184.1357,103.9766 L1194.1357,103.9766" fill="none" style="stroke:#FFB900;stroke-width:3;"/><path d="M903.6064,94.7324 L913.6064,94.7324 C928.6064,94.7324 928.6064,94.7324 943.6064,94.7324 L953.6064,94.7324" fill="none" style="stroke:#0078D4;stroke-width:3;"/><path d="M706.875,66.4883 L716.875,66.4883 C731.875,66.4883 731.875,94.7324 746.875,94.7324 L756.875,94.7324" fill="none" style="stroke:#FF5F46;stroke-width:3;"/><rect fill="#0078D4" height="36.4883" rx="12.5" ry="12.5" style="stroke:#0078D4;stroke-width:3;" width="204.6387" x="302.8252" y="20"/><text fill="#FFFFFF" font-family="sans-serif" font-size="14" lengthAdjust="spacing" textLength="184.6387" x="312.8252" y="43.5352">Delta Lake REPLACE WHERE</text><text fill="#000000" font-family="sans-serif" font-size="14" lengthAdjust="spacing" textLength="239.8252" x="10" y="25.0469">Deletes matching rows then inserts</text><path d="M302.8252,38.2441 L292.8252,38.2441 C277.8252,38.2441 277.8252,19.7559 262.8252,19.7559 L252.8252,19.7559" fill="none" style="stroke:#0078D4;stroke-width:3;"/><text fill="#000000" font-family="sans-serif" font-size="14" lengthAdjust="spacing" textLength="225.4355" x="24.3896" y="43.5352">More selective than full overwrite</text><path d="M302.8252,38.2441 L292.8252,38.2441 C277.8252,38.2441 277.8252,38.2441 262.8252,38.2441 L252.8252,38.2441" fill="none" style="stroke:#0078D4;stroke-width:3;"/><text fill="#000000" font-family="sans-serif" font-size="14" lengthAdjust="spacing" textLength="217.1914" x="32.6338" y="62.0234">INSERT INTO ... REPLACE WHERE</text><path d="M302.8252,38.2441 L292.8252,38.2441 C277.8252,38.2441 277.8252,56.7324 262.8252,56.7324 L252.8252,56.7324" fill="none" style="stroke:#0078D4;stroke-width:3;"/><path d="M557.4639,66.4883 L547.4639,66.4883 C532.4639,66.4883 532.4639,38.2441 517.4639,38.2441 L507.4639,38.2441" fill="none" style="stroke:#FF5F46;stroke-width:3;"/><rect fill="#0078D4" height="36.4883" rx="12.5" ry="12.5" style="stroke:#0078D4;stroke-width:3;" width="73.0469" x="434.417" y="76.4883"/><text fill="#FFFFFF" font-family="sans-serif" font-size="14" lengthAdjust="spacing" textLength="53.0469" x="444.417" y="100.0234">PySpark</text><text fill="#000000" font-family="sans-serif" font-size="14" lengthAdjust="spacing" textLength="260.7637" x="120.6533" y="90.7793">.write.mode("overwrite").saveAsTable()</text><path d="M434.417,94.7324 L424.417,94.7324 C409.417,94.7324 409.417,85.4883 394.417,85.4883 L384.417,85.4883" fill="none" style="stroke:#0078D4;stroke-width:3;"/><text fill="#000000" font-family="sans-serif" font-size="14" lengthAdjust="spacing" textLength="240.8916" x="140.5254" y="109.2676">.partitionBy() for partition overwrite</text><path d="M434.417,94.7324 L424.417,94.7324 C409.417,94.7324 409.417,103.9766 394.417,103.9766 L384.417,103.9766" fill="none" style="stroke:#0078D4;stroke-width:3;"/><path d="M557.4639,66.4883 L547.4639,66.4883 C532.4639,66.4883 532.4639,94.7324 517.4639,94.7324 L507.4639,94.7324" fill="none" style="stroke:#FF5F46;stroke-width:3;"/><?plantuml-src VLDTRzem57tFhxZg7Xg4o5BMTH_gfjAIg4WCK1gjBvCgnxaX5iQER0U6glttsMc0BXMxZ_SSttFkiNsZ3L5cpKI-9fLthSsEutVlQuwLAVsm1yyUsBebTBLKiXRvdUHImRiu_XXVNZNOb0bysusbC6stQEh0JKj6LmArXWz1wFtPQrsSr0h3Jv_7brsjJlVVgHq7SLD7hU59hQB8leHXLwlJ_QzMs9JLokHlxZZF9ndNxzku-v1WnGb561D3OCjC-KjCPWzHaiByPvGy9fCqylfzY6lE8IKPn_q9s-r3gcf1YK4DfaG1J6XKHZke_-I8IbBhX8ab58Hnp24ZXfPuP6Gruxd3oNAfS4aCa-A85WfrwL0kvQgkm3W33eQ5VJlCaM6-GRLLpBmOsg-ZAwIiO1IgFR4TEaMoGP3MhZfYsZetX9gMinWbwIITp6VWKydX6vnl2A_nlESD1Z16RfEQafLD8bfCHtSHFDv7IMInmPD3qSMnTdiwvqfkE-4ql1zIMPEMJ0spVan911GkOtbOf-6rTp6PfNC8Wk2D92ns3tQDrGixQ4u6QvcZVtQOTDOBj5rwf9lxytijzx3zxSxlGI5VvV7AnGtQ3zf-KkyY68R3gs3u5m00?></g></svg>