<?plantuml 1.2026.2?><svg xmlns="http://www.w3.org/2000/svg" xmlns:xlink="http://www.w3.org/1999/xlink" contentStyleType="text/css" data-diagram-type="MINDMAP" height="407px" preserveAspectRatio="none" style="width:677px;height:407px;background:#FFFFFF;" version="1.1" viewBox="0 0 677 407" width="677px" zoomAndPan="magnify"><defs/><g><rect fill="#091F2C" height="52.9766" rx="12.5" ry="12.5" style="stroke:#181818;stroke-width:3;" width="92.2627" x="10" y="176.3428"/><text fill="#FFFFFF" font-family="sans-serif" font-size="14" lengthAdjust="spacing" textLength="72.2627" x="20" y="199.8779">Databricks</text><text fill="#FFFFFF" font-family="sans-serif" font-size="14" lengthAdjust="spacing" textLength="62.0088" x="20" y="216.3662">Assistant</text><rect fill="#FFB900" height="36.4883" rx="12.5" ry="12.5" style="stroke:#FFB900;stroke-width:3;" width="82.959" x="152.2627" y="20"/><text fill="#000000" font-family="sans-serif" font-size="14" lengthAdjust="spacing" textLength="62.959" x="162.2627" y="43.5352">What it is</text><text fill="#000000" font-family="sans-serif" font-size="14" lengthAdjust="spacing" textLength="200.3066" x="288.2217" y="34.291">AI-powered pair programmer</text><path d="M235.2217,38.2441 L245.2217,38.2441 C260.2217,38.2441 260.2217,29 275.2217,29 L285.2217,29" fill="none" style="stroke:#FFB900;stroke-width:3;"/><text fill="#000000" font-family="sans-serif" font-size="14" lengthAdjust="spacing" textLength="259.957" x="288.2217" y="52.7793">Works in notebooks, dashboards, files</text><path d="M235.2217,38.2441 L245.2217,38.2441 C260.2217,38.2441 260.2217,47.4883 275.2217,47.4883 L285.2217,47.4883" fill="none" style="stroke:#FFB900;stroke-width:3;"/><path d="M102.2627,202.8311 L112.2627,202.8311 C127.2627,202.8311 127.2627,38.2441 142.2627,38.2441 L152.2627,38.2441" fill="none" style="stroke:#181818;stroke-width:3;"/><rect fill="#FFB900" height="36.4883" rx="12.5" ry="12.5" style="stroke:#FFB900;stroke-width:3;" width="99.1328" x="152.2627" y="151.4648"/><text fill="#000000" font-family="sans-serif" font-size="14" lengthAdjust="spacing" textLength="79.1328" x="162.2627" y="175">Capabilities</text><rect fill="#F4364C" height="36.4883" rx="12.5" ry="12.5" style="stroke:#F4364C;stroke-width:3;" width="131.0703" x="301.3955" y="66.7324"/><text fill="#FFFFFF" font-family="sans-serif" font-size="14" lengthAdjust="spacing" textLength="111.0703" x="311.3955" y="90.2676">Code Assistance</text><text fill="#000000" font-family="sans-serif" font-size="14" lengthAdjust="spacing" textLength="97.7129" x="485.4658" y="71.7793">Generate code</text><path d="M432.4658,84.9766 L442.4658,84.9766 C457.4658,84.9766 457.4658,66.4883 472.4658,66.4883 L482.4658,66.4883" fill="none" style="stroke:#F4364C;stroke-width:3;"/><text fill="#000000" font-family="sans-serif" font-size="14" lengthAdjust="spacing" textLength="86.3105" x="485.4658" y="90.2676">Explain code</text><path d="M432.4658,84.9766 L442.4658,84.9766 C457.4658,84.9766 457.4658,84.9766 472.4658,84.9766 L482.4658,84.9766" fill="none" style="stroke:#F4364C;stroke-width:3;"/><text fill="#000000" font-family="sans-serif" font-size="14" lengthAdjust="spacing" textLength="65.29" x="485.4658" y="108.7559">Fix errors</text><path d="M432.4658,84.9766 L442.4658,84.9766 C457.4658,84.9766 457.4658,103.4648 472.4658,103.4648 L482.4658,103.4648" fill="none" style="stroke:#F4364C;stroke-width:3;"/><path d="M251.3955,169.709 L261.3955,169.709 C276.3955,169.709 276.3955,84.9766 291.3955,84.9766 L301.3955,84.9766" fill="none" style="stroke:#FFB900;stroke-width:3;"/><rect fill="#F4364C" height="36.4883" rx="12.5" ry="12.5" style="stroke:#F4364C;stroke-width:3;" width="133.2783" x="301.3955" y="123.2207"/><text fill="#FFFFFF" font-family="sans-serif" font-size="14" lengthAdjust="spacing" textLength="113.2783" x="311.3955" y="146.7559">Data Exploration</text><text fill="#000000" font-family="sans-serif" font-size="14" lengthAdjust="spacing" textLength="153.7334" x="487.6738" y="137.5117">Filter and analyze data</text><path d="M434.6738,141.4648 L444.6738,141.4648 C459.6738,141.4648 459.6738,132.2207 474.6738,132.2207 L484.6738,132.2207" fill="none" style="stroke:#F4364C;stroke-width:3;"/><text fill="#000000" font-family="sans-serif" font-size="14" lengthAdjust="spacing" textLength="177.9053" x="487.6738" y="156">Natural language prompts</text><path d="M434.6738,141.4648 L444.6738,141.4648 C459.6738,141.4648 459.6738,150.709 474.6738,150.709 L484.6738,150.709" fill="none" style="stroke:#F4364C;stroke-width:3;"/><path d="M251.3955,169.709 L261.3955,169.709 C276.3955,169.709 276.3955,141.4648 291.3955,141.4648 L301.3955,141.4648" fill="none" style="stroke:#FFB900;stroke-width:3;"/><rect fill="#F4364C" height="36.4883" rx="12.5" ry="12.5" style="stroke:#F4364C;stroke-width:3;" width="114.3154" x="301.3955" y="179.709"/><text fill="#FFFFFF" font-family="sans-serif" font-size="14" lengthAdjust="spacing" textLength="94.3154" x="311.3955" y="203.2441">Visualizations</text><text fill="#000000" font-family="sans-serif" font-size="14" lengthAdjust="spacing" textLength="174.7607" x="468.7109" y="203.2441">Create data visualizations</text><path d="M415.7109,197.9531 L425.7109,197.9531 C440.7109,197.9531 440.7109,197.9531 455.7109,197.9531 L465.7109,197.9531" fill="none" style="stroke:#F4364C;stroke-width:3;"/><path d="M251.3955,169.709 L261.3955,169.709 C276.3955,169.709 276.3955,197.9531 291.3955,197.9531 L301.3955,197.9531" fill="none" style="stroke:#FFB900;stroke-width:3;"/><rect fill="#F4364C" height="36.4883" rx="12.5" ry="12.5" style="stroke:#F4364C;stroke-width:3;" width="125.2051" x="301.3955" y="236.1973"/><text fill="#FFFFFF" font-family="sans-serif" font-size="14" lengthAdjust="spacing" textLength="105.2051" x="311.3955" y="259.7324">Job Diagnostics</text><text fill="#000000" font-family="sans-serif" font-size="14" lengthAdjust="spacing" textLength="135.6934" x="479.6006" y="259.7324">Diagnose job issues</text><path d="M426.6006,254.4414 L436.6006,254.4414 C451.6006,254.4414 451.6006,254.4414 466.6006,254.4414 L476.6006,254.4414" fill="none" style="stroke:#F4364C;stroke-width:3;"/><path d="M251.3955,169.709 L261.3955,169.709 C276.3955,169.709 276.3955,254.4414 291.3955,254.4414 L301.3955,254.4414" fill="none" style="stroke:#FFB900;stroke-width:3;"/><path d="M102.2627,202.8311 L112.2627,202.8311 C127.2627,202.8311 127.2627,169.709 142.2627,169.709 L152.2627,169.709" fill="none" style="stroke:#181818;stroke-width:3;"/><rect fill="#FFB900" height="36.4883" rx="12.5" ry="12.5" style="stroke:#FFB900;stroke-width:3;" width="123.8447" x="152.2627" y="292.6855"/><text fill="#000000" font-family="sans-serif" font-size="14" lengthAdjust="spacing" textLength="103.8447" x="162.2627" y="316.2207">Personalization</text><text fill="#000000" font-family="sans-serif" font-size="14" lengthAdjust="spacing" textLength="195.1592" x="329.1074" y="297.7324">Uses Unity Catalog metadata</text><path d="M276.1074,310.9297 L286.1074,310.9297 C301.1074,310.9297 301.1074,292.4414 316.1074,292.4414 L326.1074,292.4414" fill="none" style="stroke:#FFB900;stroke-width:3;"/><text fill="#000000" font-family="sans-serif" font-size="14" lengthAdjust="spacing" textLength="241.4453" x="329.1074" y="316.2207">Understands your tables &amp; columns</text><path d="M276.1074,310.9297 L286.1074,310.9297 C301.1074,310.9297 301.1074,310.9297 316.1074,310.9297 L326.1074,310.9297" fill="none" style="stroke:#FFB900;stroke-width:3;"/><text fill="#000000" font-family="sans-serif" font-size="14" lengthAdjust="spacing" textLength="213.9648" x="329.1074" y="334.709">Uses AI-generated descriptions</text><path d="M276.1074,310.9297 L286.1074,310.9297 C301.1074,310.9297 301.1074,329.418 316.1074,329.418 L326.1074,329.418" fill="none" style="stroke:#FFB900;stroke-width:3;"/><path d="M102.2627,202.8311 L112.2627,202.8311 C127.2627,202.8311 127.2627,310.9297 142.2627,310.9297 L152.2627,310.9297" fill="none" style="stroke:#181818;stroke-width:3;"/><rect fill="#FFB900" height="36.4883" rx="12.5" ry="12.5" style="stroke:#FFB900;stroke-width:3;" width="124.043" x="152.2627" y="349.1738"/><text fill="#000000" font-family="sans-serif" font-size="14" lengthAdjust="spacing" textLength="104.043" x="162.2627" y="372.709">Documentation</text><text fill="#000000" font-family="sans-serif" font-size="14" lengthAdjust="spacing" textLength="228.4912" x="329.3057" y="372.709">Surfaces relevant Databricks docs</text><path d="M276.3057,367.418 L286.3057,367.418 C301.3057,367.418 301.3057,367.418 316.3057,367.418 L326.3057,367.418" fill="none" style="stroke:#FFB900;stroke-width:3;"/><path d="M102.2627,202.8311 L112.2627,202.8311 C127.2627,202.8311 127.2627,367.418 142.2627,367.418 L152.2627,367.418" fill="none" style="stroke:#181818;stroke-width:3;"/><?plantuml-src VLFlQzH04FsUls9043tgcRkMGgL8wvqLfOXWQxy8CibESkjjTiBifjwrz7ztykFEg_LS4iY-cNdpvcNtB4IKM5blAgoJqn3NZjucRmpLSV4YVGdt2UXwX_co56wycR5ZWMVfoQIOvbtiWdqSqA9R7NffFLqjRBxq508SZjFaOSCwsSjQ5Db9ccxh_uq-PlrBGTgjFxsc-tiT7HuVvKzwFKR_sskOzY79UENQdFkzQavV3yQEO8uHCr7QyDsVXs3LVn-JqGXk5XZ1wXDqD_e1vnzVrVoBX0pKQ0LguLAmgaZw-0tBCe3ru3bInhmC1s0mB396CVfTM1NL4i-mnimw6sstLu0DmQPtJYscV1_8as0ao3KyOEzNjKDjiGDTs1MG24lFrOxJfR7MMlRRB1T90BtH5ztwZbHRn27w6MCZwC2XBniigPsjgcFF-Cs61fszw-Z2K34JQgMr773x904-SGPpYwNd46s-AHeGWfyQjY4qlHzVI0BxBKFlvdMW0DVUnhNw5T5n2HL5t8ZM16-qJWqp0TRS2EXlL8FXkPhZcig77HxzTUNWfW538HTRRyJ2dFEc8XztcdzjfC1S2uKStUfvs3abO5W7EYEzeCCbJIRZQJez7az_0m00?></g></svg>