<svg xmlns="http://www.w3.org/2000/svg" xmlns:xlink="http://www.w3.org/1999/xlink" contentStyleType="text/css" data-diagram-type="MINDMAP" height="405px" preserveAspectRatio="none" style="width:702px;height:405px;background:#FFFFFF;" version="1.1" viewBox="0 0 702 405" width="702px" zoomAndPan="magnify"><?plantuml 1.2026.3beta5?><defs/><g><rect fill="#FF5F46" height="52.5938" rx="12.5" ry="12.5" style="stroke:#FF5F46;stroke-width:3;" width="95.0586" x="10" y="175.8164"/><text fill="#FFFFFF" font-family="sans-serif" font-size="14" lengthAdjust="spacing" textLength="75.0586" x="20" y="198.8115">Databricks</text><text fill="#FFFFFF" font-family="sans-serif" font-size="14" lengthAdjust="spacing" textLength="63.7793" x="20" y="215.1084">Assistant</text><rect fill="#0078D4" height="36.2969" rx="12.5" ry="12.5" style="stroke:#0078D4;stroke-width:3;" width="86.2471" x="155.0586" y="20"/><text fill="#FFFFFF" font-family="sans-serif" font-size="14" lengthAdjust="spacing" textLength="66.2471" x="165.0586" y="42.9951">What it is</text><text fill="#000000" font-family="sans-serif" font-size="14" lengthAdjust="spacing" textLength="203.6152" x="294.3057" y="33.8467">AI-powered pair programmer</text><path d="M241.3057,38.1484 L251.3057,38.1484 C266.3057,38.1484 266.3057,29 281.3057,29 L291.3057,29" fill="none" style="stroke:#0078D4;stroke-width:3;"/><text fill="#000000" font-family="sans-serif" font-size="14" lengthAdjust="spacing" textLength="266.2051" x="294.3057" y="52.1436">Works in notebooks, dashboards, files</text><path d="M241.3057,38.1484 L251.3057,38.1484 C266.3057,38.1484 266.3057,47.2969 281.3057,47.2969 L291.3057,47.2969" fill="none" style="stroke:#0078D4;stroke-width:3;"/><path d="M105.0586,202.1133 L115.0586,202.1133 C130.0586,202.1133 130.0586,38.1484 145.0586,38.1484 L155.0586,38.1484" fill="none" style="stroke:#FF5F46;stroke-width:3;"/><rect fill="#0078D4" height="36.2969" rx="12.5" ry="12.5" style="stroke:#0078D4;stroke-width:3;" width="101.6621" x="155.0586" y="150.8906"/><text fill="#FFFFFF" font-family="sans-serif" font-size="14" lengthAdjust="spacing" textLength="81.6621" x="165.0586" y="173.8857">Capabilities</text><rect fill="#FFB900" height="36.2969" rx="12.5" ry="12.5" style="stroke:#FFB900;stroke-width:3;" width="134.8916" x="306.7207" y="66.4453"/><text fill="#000000" font-family="sans-serif" font-size="14" lengthAdjust="spacing" textLength="114.8916" x="316.7207" y="89.4404">Code Assistance</text><text fill="#000000" font-family="sans-serif" font-size="14" lengthAdjust="spacing" textLength="103.5986" x="494.6123" y="71.1436">Generate code</text><path d="M441.6123,84.5938 L451.6123,84.5938 C466.6123,84.5938 466.6123,66.2969 481.6123,66.2969 L491.6123,66.2969" fill="none" style="stroke:#FFB900;stroke-width:3;"/><text fill="#000000" font-family="sans-serif" font-size="14" lengthAdjust="spacing" textLength="89.4619" x="494.6123" y="89.4404">Explain code</text><path d="M441.6123,84.5938 L451.6123,84.5938 C466.6123,84.5938 466.6123,84.5938 481.6123,84.5938 L491.6123,84.5938" fill="none" style="stroke:#FFB900;stroke-width:3;"/><text fill="#000000" font-family="sans-serif" font-size="14" lengthAdjust="spacing" textLength="66.418" x="494.6123" y="107.7373">Fix errors</text><path d="M441.6123,84.5938 L451.6123,84.5938 C466.6123,84.5938 466.6123,102.8906 481.6123,102.8906 L491.6123,102.8906" fill="none" style="stroke:#FFB900;stroke-width:3;"/><path d="M256.7207,169.0391 L266.7207,169.0391 C281.7207,169.0391 281.7207,84.5938 296.7207,84.5938 L306.7207,84.5938" fill="none" style="stroke:#0078D4;stroke-width:3;"/><rect fill="#FFB900" height="36.2969" rx="12.5" ry="12.5" style="stroke:#FFB900;stroke-width:3;" width="137.5029" x="306.7207" y="122.7422"/><text fill="#000000" font-family="sans-serif" font-size="14" lengthAdjust="spacing" textLength="117.5029" x="316.7207" y="145.7373">Data Exploration</text><text fill="#000000" font-family="sans-serif" font-size="14" lengthAdjust="spacing" textLength="161.082" x="497.2236" y="136.5889">Filter and analyze data</text><path d="M444.2236,140.8906 L454.2236,140.8906 C469.2236,140.8906 469.2236,131.7422 484.2236,131.7422 L494.2236,131.7422" fill="none" style="stroke:#FFB900;stroke-width:3;"/><text fill="#000000" font-family="sans-serif" font-size="14" lengthAdjust="spacing" textLength="184.2354" x="497.2236" y="154.8857">Natural language prompts</text><path d="M444.2236,140.8906 L454.2236,140.8906 C469.2236,140.8906 469.2236,150.0391 484.2236,150.0391 L494.2236,150.0391" fill="none" style="stroke:#FFB900;stroke-width:3;"/><path d="M256.7207,169.0391 L266.7207,169.0391 C281.7207,169.0391 281.7207,140.8906 296.7207,140.8906 L306.7207,140.8906" fill="none" style="stroke:#0078D4;stroke-width:3;"/><rect fill="#FFB900" height="36.2969" rx="12.5" ry="12.5" style="stroke:#FFB900;stroke-width:3;" width="116.0313" x="306.7207" y="179.0391"/><text fill="#000000" font-family="sans-serif" font-size="14" lengthAdjust="spacing" textLength="96.0313" x="316.7207" y="202.0342">Visualizations</text><text fill="#000000" font-family="sans-serif" font-size="14" lengthAdjust="spacing" textLength="182" x="475.752" y="202.0342">Create data visualizations</text><path d="M422.752,197.1875 L432.752,197.1875 C447.752,197.1875 447.752,197.1875 462.752,197.1875 L472.752,197.1875" fill="none" style="stroke:#FFB900;stroke-width:3;"/><path d="M256.7207,169.0391 L266.7207,169.0391 C281.7207,169.0391 281.7207,197.1875 296.7207,197.1875 L306.7207,197.1875" fill="none" style="stroke:#0078D4;stroke-width:3;"/><rect fill="#FFB900" height="36.2969" rx="12.5" ry="12.5" style="stroke:#FFB900;stroke-width:3;" width="127.2695" x="306.7207" y="235.3359"/><text fill="#000000" font-family="sans-serif" font-size="14" lengthAdjust="spacing" textLength="107.2695" x="316.7207" y="258.3311">Job Diagnostics</text><text fill="#000000" font-family="sans-serif" font-size="14" lengthAdjust="spacing" textLength="138.9814" x="486.9902" y="258.3311">Diagnose job issues</text><path d="M433.9902,253.4844 L443.9902,253.4844 C458.9902,253.4844 458.9902,253.4844 473.9902,253.4844 L483.9902,253.4844" fill="none" style="stroke:#FFB900;stroke-width:3;"/><path d="M256.7207,169.0391 L266.7207,169.0391 C281.7207,169.0391 281.7207,253.4844 296.7207,253.4844 L306.7207,253.4844" fill="none" style="stroke:#0078D4;stroke-width:3;"/><path d="M105.0586,202.1133 L115.0586,202.1133 C130.0586,202.1133 130.0586,169.0391 145.0586,169.0391 L155.0586,169.0391" fill="none" style="stroke:#FF5F46;stroke-width:3;"/><rect fill="#0078D4" height="36.2969" rx="12.5" ry="12.5" style="stroke:#0078D4;stroke-width:3;" width="126.6475" x="155.0586" y="291.6328"/><text fill="#FFFFFF" font-family="sans-serif" font-size="14" lengthAdjust="spacing" textLength="106.6475" x="165.0586" y="314.6279">Personalization</text><text fill="#000000" font-family="sans-serif" font-size="14" lengthAdjust="spacing" textLength="205.2012" x="334.7061" y="296.3311">Uses Unity Catalog metadata</text><path d="M281.7061,309.7813 L291.7061,309.7813 C306.7061,309.7813 306.7061,291.4844 321.7061,291.4844 L331.7061,291.4844" fill="none" style="stroke:#0078D4;stroke-width:3;"/><text fill="#000000" font-family="sans-serif" font-size="14" lengthAdjust="spacing" textLength="250.5713" x="334.7061" y="314.6279">Understands your tables &amp; columns</text><path d="M281.7061,309.7813 L291.7061,309.7813 C306.7061,309.7813 306.7061,309.7813 321.7061,309.7813 L331.7061,309.7813" fill="none" style="stroke:#0078D4;stroke-width:3;"/><text fill="#000000" font-family="sans-serif" font-size="14" lengthAdjust="spacing" textLength="218.5518" x="334.7061" y="332.9248">Uses AI-generated descriptions</text><path d="M281.7061,309.7813 L291.7061,309.7813 C306.7061,309.7813 306.7061,328.0781 321.7061,328.0781 L331.7061,328.0781" fill="none" style="stroke:#0078D4;stroke-width:3;"/><path d="M105.0586,202.1133 L115.0586,202.1133 C130.0586,202.1133 130.0586,309.7813 145.0586,309.7813 L155.0586,309.7813" fill="none" style="stroke:#FF5F46;stroke-width:3;"/><rect fill="#0078D4" height="36.2969" rx="12.5" ry="12.5" style="stroke:#0078D4;stroke-width:3;" width="127.9258" x="155.0586" y="347.9297"/><text fill="#FFFFFF" font-family="sans-serif" font-size="14" lengthAdjust="spacing" textLength="107.9258" x="165.0586" y="370.9248">Documentation</text><text fill="#000000" font-family="sans-serif" font-size="14" lengthAdjust="spacing" textLength="239.5791" x="335.9844" y="370.9248">Surfaces relevant Databricks docs</text><path d="M282.9844,366.0781 L292.9844,366.0781 C307.9844,366.0781 307.9844,366.0781 322.9844,366.0781 L332.9844,366.0781" fill="none" style="stroke:#0078D4;stroke-width:3;"/><path d="M105.0586,202.1133 L115.0586,202.1133 C130.0586,202.1133 130.0586,366.0781 145.0586,366.0781 L155.0586,366.0781" fill="none" style="stroke:#FF5F46;stroke-width:3;"/><?plantuml-src VLDjYnD13Fw-lo8WY1QjUxqNNpZapjOLHKJGyxu8ajr9jsDd9qjczcplyB-RVMcjFMhOXPadoVDaafcB455YPRsfi4xEGrmxUfsyCbJ7nQFqCTmbeFO6YsKft7WpPSS23xBiD3ivwtmVhQVxQCO-3kYyistiruKjbfv2WEDnclpUQ1qTr4hJvozc9_jQU-Y_h7iLP9tzrPeSr9hFyvTfkg-rX_vNA-rCjN9UkJRcxb34WRppPyCGHZ33YBceMFZkBqEmEYiVaz48hXSOmUeNT3Vw0PVldzRyYuGCr6W5Qk5IiAf8UlyropA0zU0vKiwy34_0O5ZaZ69qFRTQQaiynHfpwsoqtLu1DWGRxO9QJFdUaIV1I52eUy3Uhcg7Ah43PNO59CBISxN7wS9OSotxRPIB983Uw8zkVKjQMyJ1-mbZ8-Z0eIyRBAazMrN7dl6R3GqwUzlHXI5ZAjIMrdB0pRq0-C0vp2oMdaEqnIPfG0X-gjk6qFJz-4mIs6yP-cvU1GfmvMrSQxyYEYwXeeYReZN06ytJXfa0Qsu4T8pQO7YepN5DvSCEZuwk7Bffm50enDQROc76HLEHZplYNngPOw69Gevkz3xit18mh0Uw87tCmuDEZiQJT78sFiwrmDC_?></g></svg>