<svg xmlns="http://www.w3.org/2000/svg" xmlns:xlink="http://www.w3.org/1999/xlink" contentStyleType="text/css" data-diagram-type="MINDMAP" height="358px" preserveAspectRatio="none" style="width:1394px;height:358px;background:#FFFFFF;" version="1.1" viewBox="0 0 1394 358" width="1394px" zoomAndPan="magnify"><?plantuml 1.2026.3beta5?><defs/><g><rect fill="#FF5F46" height="52.5938" rx="12.5" ry="12.5" style="stroke:#FF5F46;stroke-width:3;" width="123.2568" x="703.9785" y="152.5938"/><text fill="#FFFFFF" font-family="sans-serif" font-size="14" lengthAdjust="spacing" textLength="103.2568" x="713.9785" y="175.5889">Navigating the</text><text fill="#FFFFFF" font-family="sans-serif" font-size="14" lengthAdjust="spacing" textLength="96.168" x="713.9785" y="191.8857">Workspace UI</text><rect fill="#0078D4" height="36.2969" rx="12.5" ry="12.5" style="stroke:#0078D4;stroke-width:3;" width="73.498" x="877.2354" y="160.7422"/><text fill="#FFFFFF" font-family="sans-serif" font-size="14" lengthAdjust="spacing" textLength="53.498" x="887.2354" y="183.7373">Sidebar</text><rect fill="#FFB900" height="36.2969" rx="12.5" ry="12.5" style="stroke:#FFB900;stroke-width:3;" width="152.2275" x="1000.7334" y="20"/><text fill="#000000" font-family="sans-serif" font-size="14" lengthAdjust="spacing" textLength="132.2275" x="1010.7334" y="42.9951">Workspace objects</text><text fill="#000000" font-family="sans-serif" font-size="14" lengthAdjust="spacing" textLength="167.1865" x="1205.9609" y="42.9951">Notebooks, Repos, Files</text><path d="M1152.9609,38.1484 L1162.9609,38.1484 C1177.9609,38.1484 1177.9609,38.1484 1192.9609,38.1484 L1202.9609,38.1484" fill="none" style="stroke:#FFB900;stroke-width:3;"/><path d="M950.7334,178.8906 L960.7334,178.8906 C975.7334,178.8906 975.7334,38.1484 990.7334,38.1484 L1000.7334,38.1484" fill="none" style="stroke:#0078D4;stroke-width:3;"/><rect fill="#FFB900" height="36.2969" rx="12.5" ry="12.5" style="stroke:#FFB900;stroke-width:3;" width="76.3076" x="1000.7334" y="76.2969"/><text fill="#000000" font-family="sans-serif" font-size="14" lengthAdjust="spacing" textLength="56.3076" x="1010.7334" y="99.292">Recents</text><text fill="#000000" font-family="sans-serif" font-size="14" lengthAdjust="spacing" textLength="173.6875" x="1130.041" y="99.292">Recently accessed items</text><path d="M1077.041,94.4453 L1087.041,94.4453 C1102.041,94.4453 1102.041,94.4453 1117.041,94.4453 L1127.041,94.4453" fill="none" style="stroke:#FFB900;stroke-width:3;"/><path d="M950.7334,178.8906 L960.7334,178.8906 C975.7334,178.8906 975.7334,94.4453 990.7334,94.4453 L1000.7334,94.4453" fill="none" style="stroke:#0078D4;stroke-width:3;"/><rect fill="#FFB900" height="36.2969" rx="12.5" ry="12.5" style="stroke:#FFB900;stroke-width:3;" width="73.7646" x="1000.7334" y="132.5938"/><text fill="#000000" font-family="sans-serif" font-size="14" lengthAdjust="spacing" textLength="53.7646" x="1010.7334" y="155.5889">Catalog</text><text fill="#000000" font-family="sans-serif" font-size="14" lengthAdjust="spacing" textLength="155.7705" x="1127.498" y="155.5889">Unity Catalog browser</text><path d="M1074.498,150.7422 L1084.498,150.7422 C1099.498,150.7422 1099.498,150.7422 1114.498,150.7422 L1124.498,150.7422" fill="none" style="stroke:#FFB900;stroke-width:3;"/><path d="M950.7334,178.8906 L960.7334,178.8906 C975.7334,178.8906 975.7334,150.7422 990.7334,150.7422 L1000.7334,150.7422" fill="none" style="stroke:#0078D4;stroke-width:3;"/><rect fill="#FFB900" height="36.2969" rx="12.5" ry="12.5" style="stroke:#FFB900;stroke-width:3;" width="131.084" x="1000.7334" y="188.8906"/><text fill="#000000" font-family="sans-serif" font-size="14" lengthAdjust="spacing" textLength="111.084" x="1010.7334" y="211.8857">Jobs &amp; Pipelines</text><text fill="#000000" font-family="sans-serif" font-size="14" lengthAdjust="spacing" textLength="134.1484" x="1184.8174" y="211.8857">Orchestration tools</text><path d="M1131.8174,207.0391 L1141.8174,207.0391 C1156.8174,207.0391 1156.8174,207.0391 1171.8174,207.0391 L1181.8174,207.0391" fill="none" style="stroke:#FFB900;stroke-width:3;"/><path d="M950.7334,178.8906 L960.7334,178.8906 C975.7334,178.8906 975.7334,207.0391 990.7334,207.0391 L1000.7334,207.0391" fill="none" style="stroke:#0078D4;stroke-width:3;"/><rect fill="#FFB900" height="36.2969" rx="12.5" ry="12.5" style="stroke:#FFB900;stroke-width:3;" width="83.8408" x="1000.7334" y="245.1875"/><text fill="#000000" font-family="sans-serif" font-size="14" lengthAdjust="spacing" textLength="63.8408" x="1010.7334" y="268.1826">Compute</text><text fill="#000000" font-family="sans-serif" font-size="14" lengthAdjust="spacing" textLength="160.7129" x="1137.5742" y="268.1826">Clusters &amp; warehouses</text><path d="M1084.5742,263.3359 L1094.5742,263.3359 C1109.5742,263.3359 1109.5742,263.3359 1124.5742,263.3359 L1134.5742,263.3359" fill="none" style="stroke:#FFB900;stroke-width:3;"/><path d="M950.7334,178.8906 L960.7334,178.8906 C975.7334,178.8906 975.7334,263.3359 990.7334,263.3359 L1000.7334,263.3359" fill="none" style="stroke:#0078D4;stroke-width:3;"/><rect fill="#FFB900" height="36.2969" rx="12.5" ry="12.5" style="stroke:#FFB900;stroke-width:3;" width="106.29" x="1000.7334" y="301.4844"/><text fill="#000000" font-family="sans-serif" font-size="14" lengthAdjust="spacing" textLength="86.29" x="1010.7334" y="324.4795">Marketplace</text><text fill="#000000" font-family="sans-serif" font-size="14" lengthAdjust="spacing" textLength="140.1572" x="1160.0234" y="324.4795">Partner integrations</text><path d="M1107.0234,319.6328 L1117.0234,319.6328 C1132.0234,319.6328 1132.0234,319.6328 1147.0234,319.6328 L1157.0234,319.6328" fill="none" style="stroke:#FFB900;stroke-width:3;"/><path d="M950.7334,178.8906 L960.7334,178.8906 C975.7334,178.8906 975.7334,319.6328 990.7334,319.6328 L1000.7334,319.6328" fill="none" style="stroke:#0078D4;stroke-width:3;"/><path d="M827.2354,178.8906 L837.2354,178.8906 C852.2354,178.8906 852.2354,178.8906 867.2354,178.8906 L877.2354,178.8906" fill="none" style="stroke:#FF5F46;stroke-width:3;"/><rect fill="#0078D4" height="36.2969" rx="12.5" ry="12.5" style="stroke:#0078D4;stroke-width:3;" width="117.9795" x="535.999" y="109.3711"/><text fill="#FFFFFF" font-family="sans-serif" font-size="14" lengthAdjust="spacing" textLength="97.9795" x="545.999" y="132.3662">Product Areas</text><rect fill="#FFB900" height="36.2969" rx="12.5" ry="12.5" style="stroke:#FFB900;stroke-width:3;" width="47.7061" x="438.293" y="53.0742"/><text fill="#000000" font-family="sans-serif" font-size="14" lengthAdjust="spacing" textLength="27.7061" x="448.293" y="76.0693">SQL</text><text fill="#000000" font-family="sans-serif" font-size="14" lengthAdjust="spacing" textLength="228.9424" x="156.3506" y="66.9209">SQL Editor, Queries, Dashboards</text><path d="M438.293,71.2227 L428.293,71.2227 C413.293,71.2227 413.293,62.0742 398.293,62.0742 L388.293,62.0742" fill="none" style="stroke:#FFB900;stroke-width:3;"/><text fill="#000000" font-family="sans-serif" font-size="14" lengthAdjust="spacing" textLength="217.7178" x="167.5752" y="85.2178">Genie, Alerts, SQL Warehouses</text><path d="M438.293,71.2227 L428.293,71.2227 C413.293,71.2227 413.293,80.3711 398.293,80.3711 L388.293,80.3711" fill="none" style="stroke:#FFB900;stroke-width:3;"/><path d="M535.999,127.5195 L525.999,127.5195 C510.999,127.5195 510.999,71.2227 495.999,71.2227 L485.999,71.2227" fill="none" style="stroke:#0078D4;stroke-width:3;"/><rect fill="#FFB900" height="36.2969" rx="12.5" ry="12.5" style="stroke:#FFB900;stroke-width:3;" width="141.8779" x="344.1211" y="109.3711"/><text fill="#000000" font-family="sans-serif" font-size="14" lengthAdjust="spacing" textLength="121.8779" x="354.1211" y="132.3662">Data Engineering</text><text fill="#000000" font-family="sans-serif" font-size="14" lengthAdjust="spacing" textLength="172.1904" x="118.9307" y="132.3662">Job Runs, Data Ingestion</text><path d="M344.1211,127.5195 L334.1211,127.5195 C319.1211,127.5195 319.1211,127.5195 304.1211,127.5195 L294.1211,127.5195" fill="none" style="stroke:#FFB900;stroke-width:3;"/><path d="M535.999,127.5195 L525.999,127.5195 C510.999,127.5195 510.999,127.5195 495.999,127.5195 L485.999,127.5195" fill="none" style="stroke:#0078D4;stroke-width:3;"/><rect fill="#FFB900" height="36.2969" rx="12.5" ry="12.5" style="stroke:#FFB900;stroke-width:3;" width="144.3252" x="341.6738" y="165.668"/><text fill="#000000" font-family="sans-serif" font-size="14" lengthAdjust="spacing" textLength="124.3252" x="351.6738" y="188.6631">Machine Learning</text><text fill="#000000" font-family="sans-serif" font-size="14" lengthAdjust="spacing" textLength="278.6738" x="10" y="188.6631">Experiments, Features, Models, Serving</text><path d="M341.6738,183.8164 L331.6738,183.8164 C316.6738,183.8164 316.6738,183.8164 301.6738,183.8164 L291.6738,183.8164" fill="none" style="stroke:#FFB900;stroke-width:3;"/><path d="M535.999,127.5195 L525.999,127.5195 C510.999,127.5195 510.999,183.8164 495.999,183.8164 L485.999,183.8164" fill="none" style="stroke:#0078D4;stroke-width:3;"/><path d="M703.9785,178.8906 L693.9785,178.8906 C678.9785,178.8906 678.9785,127.5195 663.9785,127.5195 L653.9785,127.5195" fill="none" style="stroke:#FF5F46;stroke-width:3;"/><rect fill="#0078D4" height="36.2969" rx="12.5" ry="12.5" style="stroke:#0078D4;stroke-width:3;" width="60.0381" x="593.9404" y="212.1133"/><text fill="#FFFFFF" font-family="sans-serif" font-size="14" lengthAdjust="spacing" textLength="40.0381" x="603.9404" y="235.1084">- New</text><text fill="#000000" font-family="sans-serif" font-size="14" lengthAdjust="spacing" textLength="181.1113" x="359.8291" y="225.96">Create workspace objects</text><path d="M593.9404,230.2617 L583.9404,230.2617 C568.9404,230.2617 568.9404,221.1133 553.9404,221.1133 L543.9404,221.1133" fill="none" style="stroke:#0078D4;stroke-width:3;"/><text fill="#000000" font-family="sans-serif" font-size="14" lengthAdjust="spacing" textLength="185.9512" x="354.9893" y="244.2568">Create compute resources</text><path d="M593.9404,230.2617 L583.9404,230.2617 C568.9404,230.2617 568.9404,239.4102 553.9404,239.4102 L543.9404,239.4102" fill="none" style="stroke:#0078D4;stroke-width:3;"/><path d="M703.9785,178.8906 L693.9785,178.8906 C678.9785,178.8906 678.9785,230.2617 663.9785,230.2617 L653.9785,230.2617" fill="none" style="stroke:#FF5F46;stroke-width:3;"/><rect fill="#0078D4" height="36.2969" rx="12.5" ry="12.5" style="stroke:#0078D4;stroke-width:3;" width="74.3936" x="579.585" y="268.4102"/><text fill="#FFFFFF" font-family="sans-serif" font-size="14" lengthAdjust="spacing" textLength="54.3936" x="589.585" y="291.4053">Top Bar</text><text fill="#000000" font-family="sans-serif" font-size="14" lengthAdjust="spacing" textLength="182.6904" x="343.8945" y="273.1084">Search workspace objects</text><path d="M579.585,286.5586 L569.585,286.5586 C554.585,286.5586 554.585,268.2617 539.585,268.2617 L529.585,268.2617" fill="none" style="stroke:#0078D4;stroke-width:3;"/><text fill="#000000" font-family="sans-serif" font-size="14" lengthAdjust="spacing" textLength="141.0391" x="385.5459" y="291.4053">Access recent items</text><path d="M579.585,286.5586 L569.585,286.5586 C554.585,286.5586 554.585,286.5586 539.585,286.5586 L529.585,286.5586" fill="none" style="stroke:#0078D4;stroke-width:3;"/><text fill="#000000" font-family="sans-serif" font-size="14" lengthAdjust="spacing" textLength="211.3262" x="315.2588" y="309.7021">Change language preferences</text><path d="M579.585,286.5586 L569.585,286.5586 C554.585,286.5586 554.585,304.8555 539.585,304.8555 L529.585,304.8555" fill="none" style="stroke:#0078D4;stroke-width:3;"/><path d="M703.9785,178.8906 L693.9785,178.8906 C678.9785,178.8906 678.9785,286.5586 663.9785,286.5586 L653.9785,286.5586" fill="none" style="stroke:#FF5F46;stroke-width:3;"/><?plantuml-src VLHjJzim4FwUNt7If6bJAGklUn6Qw0f5JBGh1SINISXnhedNr1UT7Kg5zjztJbAw5NN-43ldvvxdEVlaK-SL-xcnwLoLqOdpomA_HbzIB7t-BduFpn78-ARqB6EgRDgdWXZU30P7WyFZUk_AM7mT7P3rRNHQZnViRMxqpA9pSB0RHxzNMdjRjUBuuwUpmqsjZUY_h1iE1lLOQ-rlrPfEayznlAcr4VslLbmFqKhegGYOvws8am_jSNTWf1vDfhon6VWSVzfxufahbKQukumw7RWnAIQAPTc1zHublr1x5wAT1nYHnuHevdPWWYN9D33YeCwPe4RxWcp-YYKehSKYfc0ypXjaNtbLKDOYxwpnorKC4gQ5myR5TqeSl8MnAR6GCrbH_s2Te_CijP05JrIqj3GlAuyjgbzKpYC7WeLYpAbohT6XuXdwif3oMknO-jCYWx4UiuRNHTqkZ9dIIdleCQeGwCBDzLMOkmzX1UUfySGxS5qX6vJJE5CkJqXnwbhK1Lg3Ez0haBtiXwJxjPl0U2Q5mxdDf40XiLcRABN3fB8rfm0kRIObYwywPwXqBdYuGiLsdNF-L0h5FDo2N0mgNt4mDQGKYo2E_DY0eGiZN4HrKbzgymYBLpV-zwvkZXQ4ZohMjNMufLAwcnlWZLZH-JQQNjq4aXwQeks4XZzNKXaKygsKB4h6AJBQ876AycAqhqQqjxiVxn_l7YJerT4V?></g></svg>