<?plantuml 1.2026.2?><svg xmlns="http://www.w3.org/2000/svg" xmlns:xlink="http://www.w3.org/1999/xlink" contentStyleType="text/css" data-diagram-type="MINDMAP" height="360px" preserveAspectRatio="none" style="width:1347px;height:360px;background:#FFFFFF;" version="1.1" viewBox="0 0 1347 360" width="1347px" zoomAndPan="magnify"><defs/><g><rect fill="#091F2C" height="52.9766" rx="12.5" ry="12.5" style="stroke:#181818;stroke-width:3;" width="118.6836" x="683.8809" y="152.9766"/><text fill="#FFFFFF" font-family="sans-serif" font-size="14" lengthAdjust="spacing" textLength="98.6836" x="693.8809" y="176.5117">Navigating the</text><text fill="#FFFFFF" font-family="sans-serif" font-size="14" lengthAdjust="spacing" textLength="91.3008" x="693.8809" y="193">Workspace UI</text><rect fill="#FFB900" height="36.4883" rx="12.5" ry="12.5" style="stroke:#FFB900;stroke-width:3;" width="70.4697" x="852.5645" y="161.2207"/><text fill="#000000" font-family="sans-serif" font-size="14" lengthAdjust="spacing" textLength="50.4697" x="862.5645" y="184.7559">Sidebar</text><rect fill="#F4364C" height="36.4883" rx="12.5" ry="12.5" style="stroke:#F4364C;stroke-width:3;" width="146.5811" x="973.0342" y="20"/><text fill="#FFFFFF" font-family="sans-serif" font-size="14" lengthAdjust="spacing" textLength="126.5811" x="983.0342" y="43.5352">Workspace objects</text><text fill="#000000" font-family="sans-serif" font-size="14" lengthAdjust="spacing" textLength="162.7637" x="1172.6152" y="43.5352">Notebooks, Repos, Files</text><path d="M1119.6152,38.2441 L1129.6152,38.2441 C1144.6152,38.2441 1144.6152,38.2441 1159.6152,38.2441 L1169.6152,38.2441" fill="none" style="stroke:#F4364C;stroke-width:3;"/><path d="M923.0342,179.4648 L933.0342,179.4648 C948.0342,179.4648 948.0342,38.2441 963.0342,38.2441 L973.0342,38.2441" fill="none" style="stroke:#FFB900;stroke-width:3;"/><rect fill="#F4364C" height="36.4883" rx="12.5" ry="12.5" style="stroke:#F4364C;stroke-width:3;" width="72.6846" x="973.0342" y="76.4883"/><text fill="#FFFFFF" font-family="sans-serif" font-size="14" lengthAdjust="spacing" textLength="52.6846" x="983.0342" y="100.0234">Recents</text><text fill="#000000" font-family="sans-serif" font-size="14" lengthAdjust="spacing" textLength="163.8164" x="1098.7188" y="100.0234">Recently accessed items</text><path d="M1045.7188,94.7324 L1055.7188,94.7324 C1070.7188,94.7324 1070.7188,94.7324 1085.7188,94.7324 L1095.7188,94.7324" fill="none" style="stroke:#F4364C;stroke-width:3;"/><path d="M923.0342,179.4648 L933.0342,179.4648 C948.0342,179.4648 948.0342,94.7324 963.0342,94.7324 L973.0342,94.7324" fill="none" style="stroke:#FFB900;stroke-width:3;"/><rect fill="#F4364C" height="36.4883" rx="12.5" ry="12.5" style="stroke:#F4364C;stroke-width:3;" width="71.7617" x="973.0342" y="132.9766"/><text fill="#FFFFFF" font-family="sans-serif" font-size="14" lengthAdjust="spacing" textLength="51.7617" x="983.0342" y="156.5117">Catalog</text><text fill="#000000" font-family="sans-serif" font-size="14" lengthAdjust="spacing" textLength="150.1992" x="1097.7959" y="156.5117">Unity Catalog browser</text><path d="M1044.7959,151.2207 L1054.7959,151.2207 C1069.7959,151.2207 1069.7959,151.2207 1084.7959,151.2207 L1094.7959,151.2207" fill="none" style="stroke:#F4364C;stroke-width:3;"/><path d="M923.0342,179.4648 L933.0342,179.4648 C948.0342,179.4648 948.0342,151.2207 963.0342,151.2207 L973.0342,151.2207" fill="none" style="stroke:#FFB900;stroke-width:3;"/><rect fill="#F4364C" height="36.4883" rx="12.5" ry="12.5" style="stroke:#F4364C;stroke-width:3;" width="127.6387" x="973.0342" y="189.4648"/><text fill="#FFFFFF" font-family="sans-serif" font-size="14" lengthAdjust="spacing" textLength="107.6387" x="983.0342" y="213">Jobs &amp; Pipelines</text><text fill="#000000" font-family="sans-serif" font-size="14" lengthAdjust="spacing" textLength="130.7168" x="1153.6729" y="213">Orchestration tools</text><path d="M1100.6729,207.709 L1110.6729,207.709 C1125.6729,207.709 1125.6729,207.709 1140.6729,207.709 L1150.6729,207.709" fill="none" style="stroke:#F4364C;stroke-width:3;"/><path d="M923.0342,179.4648 L933.0342,179.4648 C948.0342,179.4648 948.0342,207.709 963.0342,207.709 L973.0342,207.709" fill="none" style="stroke:#FFB900;stroke-width:3;"/><rect fill="#F4364C" height="36.4883" rx="12.5" ry="12.5" style="stroke:#F4364C;stroke-width:3;" width="81.8926" x="973.0342" y="245.9531"/><text fill="#FFFFFF" font-family="sans-serif" font-size="14" lengthAdjust="spacing" textLength="61.8926" x="983.0342" y="269.4883">Compute</text><text fill="#000000" font-family="sans-serif" font-size="14" lengthAdjust="spacing" textLength="154.1777" x="1107.9268" y="269.4883">Clusters &amp; warehouses</text><path d="M1054.9268,264.1973 L1064.9268,264.1973 C1079.9268,264.1973 1079.9268,264.1973 1094.9268,264.1973 L1104.9268,264.1973" fill="none" style="stroke:#F4364C;stroke-width:3;"/><path d="M923.0342,179.4648 L933.0342,179.4648 C948.0342,179.4648 948.0342,264.1973 963.0342,264.1973 L973.0342,264.1973" fill="none" style="stroke:#FFB900;stroke-width:3;"/><rect fill="#F4364C" height="36.4883" rx="12.5" ry="12.5" style="stroke:#F4364C;stroke-width:3;" width="102.2979" x="973.0342" y="302.4414"/><text fill="#FFFFFF" font-family="sans-serif" font-size="14" lengthAdjust="spacing" textLength="82.2979" x="983.0342" y="325.9766">Marketplace</text><text fill="#000000" font-family="sans-serif" font-size="14" lengthAdjust="spacing" textLength="134.75" x="1128.332" y="325.9766">Partner integrations</text><path d="M1075.332,320.6855 L1085.332,320.6855 C1100.332,320.6855 1100.332,320.6855 1115.332,320.6855 L1125.332,320.6855" fill="none" style="stroke:#F4364C;stroke-width:3;"/><path d="M923.0342,179.4648 L933.0342,179.4648 C948.0342,179.4648 948.0342,320.6855 963.0342,320.6855 L973.0342,320.6855" fill="none" style="stroke:#FFB900;stroke-width:3;"/><path d="M802.5645,179.4648 L812.5645,179.4648 C827.5645,179.4648 827.5645,179.4648 842.5645,179.4648 L852.5645,179.4648" fill="none" style="stroke:#181818;stroke-width:3;"/><rect fill="#FFB900" height="36.4883" rx="12.5" ry="12.5" style="stroke:#FFB900;stroke-width:3;" width="114.459" x="519.4219" y="109.6104"/><text fill="#000000" font-family="sans-serif" font-size="14" lengthAdjust="spacing" textLength="94.459" x="529.4219" y="133.1455">Product Areas</text><rect fill="#F4364C" height="36.4883" rx="12.5" ry="12.5" style="stroke:#F4364C;stroke-width:3;" width="45.8809" x="423.541" y="53.1221"/><text fill="#FFFFFF" font-family="sans-serif" font-size="14" lengthAdjust="spacing" textLength="25.8809" x="433.541" y="76.6572">SQL</text><text fill="#000000" font-family="sans-serif" font-size="14" lengthAdjust="spacing" textLength="220.9785" x="149.5625" y="67.4131">SQL Editor, Queries, Dashboards</text><path d="M423.541,71.3662 L413.541,71.3662 C398.541,71.3662 398.541,62.1221 383.541,62.1221 L373.541,62.1221" fill="none" style="stroke:#F4364C;stroke-width:3;"/><text fill="#000000" font-family="sans-serif" font-size="14" lengthAdjust="spacing" textLength="207.375" x="163.166" y="85.9014">Genie, Alerts, SQL Warehouses</text><path d="M423.541,71.3662 L413.541,71.3662 C398.541,71.3662 398.541,80.6104 383.541,80.6104 L373.541,80.6104" fill="none" style="stroke:#F4364C;stroke-width:3;"/><path d="M519.4219,127.8545 L509.4219,127.8545 C494.4219,127.8545 494.4219,71.3662 479.4219,71.3662 L469.4219,71.3662" fill="none" style="stroke:#FFB900;stroke-width:3;"/><rect fill="#F4364C" height="36.4883" rx="12.5" ry="12.5" style="stroke:#F4364C;stroke-width:3;" width="136.1494" x="333.2725" y="109.6104"/><text fill="#FFFFFF" font-family="sans-serif" font-size="14" lengthAdjust="spacing" textLength="116.1494" x="343.2725" y="133.1455">Data Engineering</text><text fill="#000000" font-family="sans-serif" font-size="14" lengthAdjust="spacing" textLength="166.9951" x="113.2773" y="133.1455">Job Runs, Data Ingestion</text><path d="M333.2725,127.8545 L323.2725,127.8545 C308.2725,127.8545 308.2725,127.8545 293.2725,127.8545 L283.2725,127.8545" fill="none" style="stroke:#F4364C;stroke-width:3;"/><path d="M519.4219,127.8545 L509.4219,127.8545 C494.4219,127.8545 494.4219,127.8545 479.4219,127.8545 L469.4219,127.8545" fill="none" style="stroke:#FFB900;stroke-width:3;"/><rect fill="#F4364C" height="36.4883" rx="12.5" ry="12.5" style="stroke:#F4364C;stroke-width:3;" width="139.4922" x="329.9297" y="166.0986"/><text fill="#FFFFFF" font-family="sans-serif" font-size="14" lengthAdjust="spacing" textLength="119.4922" x="339.9297" y="189.6338">Machine Learning</text><text fill="#000000" font-family="sans-serif" font-size="14" lengthAdjust="spacing" textLength="266.9297" x="10" y="189.6338">Experiments, Features, Models, Serving</text><path d="M329.9297,184.3428 L319.9297,184.3428 C304.9297,184.3428 304.9297,184.3428 289.9297,184.3428 L279.9297,184.3428" fill="none" style="stroke:#F4364C;stroke-width:3;"/><path d="M519.4219,127.8545 L509.4219,127.8545 C494.4219,127.8545 494.4219,184.3428 479.4219,184.3428 L469.4219,184.3428" fill="none" style="stroke:#FFB900;stroke-width:3;"/><path d="M683.8809,179.4648 L673.8809,179.4648 C658.8809,179.4648 658.8809,127.8545 643.8809,127.8545 L633.8809,127.8545" fill="none" style="stroke:#181818;stroke-width:3;"/><rect fill="#FFB900" height="36.4883" rx="12.5" ry="12.5" style="stroke:#FFB900;stroke-width:3;" width="61.46" x="572.4209" y="212.8311"/><text fill="#000000" font-family="sans-serif" font-size="14" lengthAdjust="spacing" textLength="41.46" x="582.4209" y="236.3662">- New</text><text fill="#000000" font-family="sans-serif" font-size="14" lengthAdjust="spacing" textLength="173.8037" x="345.6172" y="227.1221">Create workspace objects</text><path d="M572.4209,231.0752 L562.4209,231.0752 C547.4209,231.0752 547.4209,221.8311 532.4209,221.8311 L522.4209,221.8311" fill="none" style="stroke:#FFB900;stroke-width:3;"/><text fill="#000000" font-family="sans-serif" font-size="14" lengthAdjust="spacing" textLength="178.0078" x="341.4131" y="245.6104">Create compute resources</text><path d="M572.4209,231.0752 L562.4209,231.0752 C547.4209,231.0752 547.4209,240.3193 532.4209,240.3193 L522.4209,240.3193" fill="none" style="stroke:#FFB900;stroke-width:3;"/><path d="M683.8809,179.4648 L673.8809,179.4648 C658.8809,179.4648 658.8809,231.0752 643.8809,231.0752 L633.8809,231.0752" fill="none" style="stroke:#181818;stroke-width:3;"/><rect fill="#FFB900" height="36.4883" rx="12.5" ry="12.5" style="stroke:#FFB900;stroke-width:3;" width="72.2061" x="561.6748" y="269.3193"/><text fill="#000000" font-family="sans-serif" font-size="14" lengthAdjust="spacing" textLength="52.2061" x="571.6748" y="292.8545">Top Bar</text><text fill="#000000" font-family="sans-serif" font-size="14" lengthAdjust="spacing" textLength="174.4805" x="334.1943" y="274.3662">Search workspace objects</text><path d="M561.6748,287.5635 L551.6748,287.5635 C536.6748,287.5635 536.6748,269.0752 521.6748,269.0752 L511.6748,269.0752" fill="none" style="stroke:#FFB900;stroke-width:3;"/><text fill="#000000" font-family="sans-serif" font-size="14" lengthAdjust="spacing" textLength="134.6475" x="374.0273" y="292.8545">Access recent items</text><path d="M561.6748,287.5635 L551.6748,287.5635 C536.6748,287.5635 536.6748,287.5635 521.6748,287.5635 L511.6748,287.5635" fill="none" style="stroke:#FFB900;stroke-width:3;"/><text fill="#000000" font-family="sans-serif" font-size="14" lengthAdjust="spacing" textLength="201.9404" x="306.7344" y="311.3428">Change language preferences</text><path d="M561.6748,287.5635 L551.6748,287.5635 C536.6748,287.5635 536.6748,306.0518 521.6748,306.0518 L511.6748,306.0518" fill="none" style="stroke:#FFB900;stroke-width:3;"/><path d="M683.8809,179.4648 L673.8809,179.4648 C658.8809,179.4648 658.8809,287.5635 643.8809,287.5635 L633.8809,287.5635" fill="none" style="stroke:#181818;stroke-width:3;"/><?plantuml-src VLHXJzim4FsUNt7If6bJAGi58J6XYQx0n5HOQK5ycOGSvvfuTNtHsQ4Wn7_VEGbqZ7N-43ldT-_Uiqy-ya5nM1gNBrML7FhmOF5ByZd7AfGVqe_mc82Chqel2gRQvIEonF0kFTYP3tIpTqekTD5vCvhes3YyAerUEFGUThVJvEcPTMSZwtoU7QJfI_w_ewzP_rAGDcDTQx2vrjxk_fv-K-jrzB-rEhTFIKRtDc8UDwev_DGTR0ykr9qfL32kW53YJtT3lF2LqWZNPqcl1pEJOwPObZrOxr7s2tNmCTgxXGiAc14j_1PCiIAPJeqeQ7AcgD6z8Di_-m1AQv68EPY0onOvKa5PAZhajJFXuJa66TFAOwlYEsKUtiF4L6ZbJ9wfVx0kqGSMB-GW4DcEbfPL7R13ZMpj0t8aM2d6achV2JrNlC1GMR7NOIVIYGuPZ0jOjBm-wVTXmfJNEi2GKSL07sQNupZtR-CAJd8JYBVWiaOsAATnh7oPaUBSTwXlw0nkmT0Y1zcFIJThDP7nM8p3YIl4e92ueaiKxp2jNSCfW3DNY6NHrUISArqA7iQesArpJkuheLZ6Mv2BGHLgZgBEAKSRYoFVjM3emmMkaYPf9Du2mkhDZV-vgzkZ1U6ZcdKZ7Qweakxc5ZWJARhSH3Dica3IOrDqdT3obqgSWPLlhMHHCSwHqSKIHoXlG_S-93lRWtImlptu3G00?></g></svg>