<svg xmlns="http://www.w3.org/2000/svg" xmlns:xlink="http://www.w3.org/1999/xlink" contentStyleType="text/css" data-diagram-type="MINDMAP" height="319px" preserveAspectRatio="none" style="width:798px;height:319px;background:#FFFFFF;" version="1.1" viewBox="0 0 798 319" width="798px" zoomAndPan="magnify"><?plantuml 1.2026.3beta5?><defs/><g><rect fill="#FF5F46" height="36.2969" rx="12.5" ry="12.5" style="stroke:#FF5F46;stroke-width:3;" width="141.8779" x="10" y="141.0391"/><text fill="#FFFFFF" font-family="sans-serif" font-size="14" lengthAdjust="spacing" textLength="121.8779" x="20" y="164.0342">Data Engineering</text><rect fill="#0078D4" height="36.2969" rx="12.5" ry="12.5" style="stroke:#0078D4;stroke-width:3;" width="109.7012" x="201.8779" y="20"/><text fill="#FFFFFF" font-family="sans-serif" font-size="14" lengthAdjust="spacing" textLength="89.7012" x="211.8779" y="42.9951">Environment</text><text fill="#000000" font-family="sans-serif" font-size="14" lengthAdjust="spacing" textLength="249.6895" x="364.5791" y="24.6982">Collaborative integrated workspace</text><path d="M311.5791,38.1484 L321.5791,38.1484 C336.5791,38.1484 336.5791,19.8516 351.5791,19.8516 L361.5791,19.8516" fill="none" style="stroke:#0078D4;stroke-width:3;"/><text fill="#000000" font-family="sans-serif" font-size="14" lengthAdjust="spacing" textLength="239.1963" x="364.5791" y="42.9951">Apache Spark big data processing</text><path d="M311.5791,38.1484 L321.5791,38.1484 C336.5791,38.1484 336.5791,38.1484 351.5791,38.1484 L361.5791,38.1484" fill="none" style="stroke:#0078D4;stroke-width:3;"/><text fill="#000000" font-family="sans-serif" font-size="14" lengthAdjust="spacing" textLength="199.0625" x="364.5791" y="61.292">Data lakehouse architecture</text><path d="M311.5791,38.1484 L321.5791,38.1484 C336.5791,38.1484 336.5791,56.4453 351.5791,56.4453 L361.5791,56.4453" fill="none" style="stroke:#0078D4;stroke-width:3;"/><path d="M151.8779,159.1875 L161.8779,159.1875 C176.8779,159.1875 176.8779,38.1484 191.8779,38.1484 L201.8779,38.1484" fill="none" style="stroke:#FF5F46;stroke-width:3;"/><rect fill="#0078D4" height="36.2969" rx="12.5" ry="12.5" style="stroke:#0078D4;stroke-width:3;" width="96.3848" x="201.8779" y="84.7422"/><text fill="#FFFFFF" font-family="sans-serif" font-size="14" lengthAdjust="spacing" textLength="76.3848" x="211.8779" y="107.7373">Languages</text><text fill="#000000" font-family="sans-serif" font-size="14" lengthAdjust="spacing" textLength="48.5283" x="351.2627" y="80.292">Python</text><path d="M298.2627,102.8906 L308.2627,102.8906 C323.2627,102.8906 323.2627,75.4453 338.2627,75.4453 L348.2627,75.4453" fill="none" style="stroke:#0078D4;stroke-width:3;"/><text fill="#000000" font-family="sans-serif" font-size="14" lengthAdjust="spacing" textLength="9.7275" x="351.2627" y="98.5889">R</text><path d="M298.2627,102.8906 L308.2627,102.8906 C323.2627,102.8906 323.2627,93.7422 338.2627,93.7422 L348.2627,93.7422" fill="none" style="stroke:#0078D4;stroke-width:3;"/><text fill="#000000" font-family="sans-serif" font-size="14" lengthAdjust="spacing" textLength="37.6318" x="351.2627" y="116.8857">Scala</text><path d="M298.2627,102.8906 L308.2627,102.8906 C323.2627,102.8906 323.2627,112.0391 338.2627,112.0391 L348.2627,112.0391" fill="none" style="stroke:#0078D4;stroke-width:3;"/><text fill="#000000" font-family="sans-serif" font-size="14" lengthAdjust="spacing" textLength="27.7061" x="351.2627" y="135.1826">SQL</text><path d="M298.2627,102.8906 L308.2627,102.8906 C323.2627,102.8906 323.2627,130.3359 338.2627,130.3359 L348.2627,130.3359" fill="none" style="stroke:#0078D4;stroke-width:3;"/><path d="M151.8779,159.1875 L161.8779,159.1875 C176.8779,159.1875 176.8779,102.8906 191.8779,102.8906 L201.8779,102.8906" fill="none" style="stroke:#FF5F46;stroke-width:3;"/><rect fill="#0078D4" height="36.2969" rx="12.5" ry="12.5" style="stroke:#0078D4;stroke-width:3;" width="101.6621" x="201.8779" y="205.7813"/><text fill="#FFFFFF" font-family="sans-serif" font-size="14" lengthAdjust="spacing" textLength="81.6621" x="211.8779" y="228.7764">Capabilities</text><rect fill="#FFB900" height="36.2969" rx="12.5" ry="12.5" style="stroke:#FFB900;stroke-width:3;" width="137.5029" x="353.54" y="149.4844"/><text fill="#000000" font-family="sans-serif" font-size="14" lengthAdjust="spacing" textLength="117.5029" x="363.54" y="172.4795">Data Exploration</text><text fill="#000000" font-family="sans-serif" font-size="14" lengthAdjust="spacing" textLength="169.3057" x="544.043" y="172.4795">Explore &amp; visualize data</text><path d="M491.043,167.6328 L501.043,167.6328 C516.043,167.6328 516.043,167.6328 531.043,167.6328 L541.043,167.6328" fill="none" style="stroke:#FFB900;stroke-width:3;"/><path d="M303.54,223.9297 L313.54,223.9297 C328.54,223.9297 328.54,167.6328 343.54,167.6328 L353.54,167.6328" fill="none" style="stroke:#0078D4;stroke-width:3;"/><rect fill="#FFB900" height="36.2969" rx="12.5" ry="12.5" style="stroke:#FFB900;stroke-width:3;" width="120.2695" x="353.54" y="205.7813"/><text fill="#000000" font-family="sans-serif" font-size="14" lengthAdjust="spacing" textLength="100.2695" x="363.54" y="228.7764">Data Pipelines</text><text fill="#000000" font-family="sans-serif" font-size="14" lengthAdjust="spacing" textLength="182.5674" x="526.8096" y="228.7764">Build &amp; run ETL workflows</text><path d="M473.8096,223.9297 L483.8096,223.9297 C498.8096,223.9297 498.8096,223.9297 513.8096,223.9297 L523.8096,223.9297" fill="none" style="stroke:#FFB900;stroke-width:3;"/><path d="M303.54,223.9297 L313.54,223.9297 C328.54,223.9297 328.54,223.9297 343.54,223.9297 L353.54,223.9297" fill="none" style="stroke:#0078D4;stroke-width:3;"/><rect fill="#FFB900" height="36.2969" rx="12.5" ry="12.5" style="stroke:#FFB900;stroke-width:3;" width="113.3037" x="353.54" y="262.0781"/><text fill="#000000" font-family="sans-serif" font-size="14" lengthAdjust="spacing" textLength="93.3037" x="363.54" y="285.0732">Collaboration</text><text fill="#000000" font-family="sans-serif" font-size="14" lengthAdjust="spacing" textLength="257.667" x="519.8438" y="285.0732">Data scientists &amp; engineers together</text><path d="M466.8438,280.2266 L476.8438,280.2266 C491.8438,280.2266 491.8438,280.2266 506.8438,280.2266 L516.8438,280.2266" fill="none" style="stroke:#FFB900;stroke-width:3;"/><path d="M303.54,223.9297 L313.54,223.9297 C328.54,223.9297 328.54,280.2266 343.54,280.2266 L353.54,280.2266" fill="none" style="stroke:#0078D4;stroke-width:3;"/><path d="M151.8779,159.1875 L161.8779,159.1875 C176.8779,159.1875 176.8779,223.9297 191.8779,223.9297 L201.8779,223.9297" fill="none" style="stroke:#FF5F46;stroke-width:3;"/><?plantuml-src VLB9JiCm4BtdAqP2Gj132ML72B7cr0FR7KsIQJAAQqVsf6pYtt7ji0MLkMJyyfRno6TEqCgSTJd7DZbnygBeD3akgPLw8zs4jmHyNM3HLDPqkhmqobXOoxAzR7S__9kofhzePhJqw2pK5_UXvgBHv1piZDFa_JDhUsLMcXuSNkqEimReRzV115cexwp9ogpPB3zAqs7M0FqtAmtbitBph9QSjvMCawr-tIEuGa6urfLt9ykwIaOZVromDNfEMlnnz0XUhp0t5eKN1Ao5AjzJ2K_6Dgx5WYBltBSrmNsBje6SAoYNxgqrXPydcdjMY5JOK6qwHu2sg5ceaCukRM2Akkgm8XVPDozI6ntxk_YvBr1XtzvEbvfBR35dnS9Hrb_hkLLXwAZtz8WGhCE2NOUANodC-AsvuPQKNuRh5HSTgzBpRQVX-c4QRZnJvYd6_5ZCLqQmSGNxxR4JvxNKhzU1c8ga9fkSaN_t_TjFjiUJTB8_tib9SEy3?></g></svg>