<?plantuml 1.2026.2?><svg xmlns="http://www.w3.org/2000/svg" xmlns:xlink="http://www.w3.org/1999/xlink" contentStyleType="text/css" data-diagram-type="MINDMAP" height="321px" preserveAspectRatio="none" style="width:768px;height:321px;background:#FFFFFF;" version="1.1" viewBox="0 0 768 321" width="768px" zoomAndPan="magnify"><defs/><g><rect fill="#091F2C" height="36.4883" rx="12.5" ry="12.5" style="stroke:#181818;stroke-width:3;" width="136.1494" x="10" y="141.709"/><text fill="#FFFFFF" font-family="sans-serif" font-size="14" lengthAdjust="spacing" textLength="116.1494" x="20" y="165.2441">Data Engineering</text><rect fill="#FFB900" height="36.4883" rx="12.5" ry="12.5" style="stroke:#FFB900;stroke-width:3;" width="105.3809" x="196.1494" y="20"/><text fill="#000000" font-family="sans-serif" font-size="14" lengthAdjust="spacing" textLength="85.3809" x="206.1494" y="43.5352">Environment</text><text fill="#000000" font-family="sans-serif" font-size="14" lengthAdjust="spacing" textLength="239.9277" x="354.5303" y="25.0469">Collaborative integrated workspace</text><path d="M301.5303,38.2441 L311.5303,38.2441 C326.5303,38.2441 326.5303,19.7559 341.5303,19.7559 L351.5303,19.7559" fill="none" style="stroke:#FFB900;stroke-width:3;"/><text fill="#000000" font-family="sans-serif" font-size="14" lengthAdjust="spacing" textLength="230.5215" x="354.5303" y="43.5352">Apache Spark big data processing</text><path d="M301.5303,38.2441 L311.5303,38.2441 C326.5303,38.2441 326.5303,38.2441 341.5303,38.2441 L351.5303,38.2441" fill="none" style="stroke:#FFB900;stroke-width:3;"/><text fill="#000000" font-family="sans-serif" font-size="14" lengthAdjust="spacing" textLength="189.7451" x="354.5303" y="62.0234">Data lakehouse architecture</text><path d="M301.5303,38.2441 L311.5303,38.2441 C326.5303,38.2441 326.5303,56.7324 341.5303,56.7324 L351.5303,56.7324" fill="none" style="stroke:#FFB900;stroke-width:3;"/><path d="M146.1494,159.9531 L156.1494,159.9531 C171.1494,159.9531 171.1494,38.2441 186.1494,38.2441 L196.1494,38.2441" fill="none" style="stroke:#181818;stroke-width:3;"/><rect fill="#FFB900" height="36.4883" rx="12.5" ry="12.5" style="stroke:#FFB900;stroke-width:3;" width="92.7002" x="196.1494" y="85.2207"/><text fill="#000000" font-family="sans-serif" font-size="14" lengthAdjust="spacing" textLength="72.7002" x="206.1494" y="108.7559">Languages</text><text fill="#000000" font-family="sans-serif" font-size="14" lengthAdjust="spacing" textLength="46.2656" x="341.8496" y="81.0234">Python</text><path d="M288.8496,103.4648 L298.8496,103.4648 C313.8496,103.4648 313.8496,75.7324 328.8496,75.7324 L338.8496,75.7324" fill="none" style="stroke:#FFB900;stroke-width:3;"/><text fill="#000000" font-family="sans-serif" font-size="14" lengthAdjust="spacing" textLength="8.8525" x="341.8496" y="99.5117">R</text><path d="M288.8496,103.4648 L298.8496,103.4648 C313.8496,103.4648 313.8496,94.2207 328.8496,94.2207 L338.8496,94.2207" fill="none" style="stroke:#FFB900;stroke-width:3;"/><text fill="#000000" font-family="sans-serif" font-size="14" lengthAdjust="spacing" textLength="34.2207" x="341.8496" y="118">Scala</text><path d="M288.8496,103.4648 L298.8496,103.4648 C313.8496,103.4648 313.8496,112.709 328.8496,112.709 L338.8496,112.709" fill="none" style="stroke:#FFB900;stroke-width:3;"/><text fill="#000000" font-family="sans-serif" font-size="14" lengthAdjust="spacing" textLength="25.8809" x="341.8496" y="136.4883">SQL</text><path d="M288.8496,103.4648 L298.8496,103.4648 C313.8496,103.4648 313.8496,131.1973 328.8496,131.1973 L338.8496,131.1973" fill="none" style="stroke:#FFB900;stroke-width:3;"/><path d="M146.1494,159.9531 L156.1494,159.9531 C171.1494,159.9531 171.1494,103.4648 186.1494,103.4648 L196.1494,103.4648" fill="none" style="stroke:#181818;stroke-width:3;"/><rect fill="#FFB900" height="36.4883" rx="12.5" ry="12.5" style="stroke:#FFB900;stroke-width:3;" width="99.1328" x="196.1494" y="206.9297"/><text fill="#000000" font-family="sans-serif" font-size="14" lengthAdjust="spacing" textLength="79.1328" x="206.1494" y="230.4648">Capabilities</text><rect fill="#F4364C" height="36.4883" rx="12.5" ry="12.5" style="stroke:#F4364C;stroke-width:3;" width="133.2783" x="345.2822" y="150.4414"/><text fill="#FFFFFF" font-family="sans-serif" font-size="14" lengthAdjust="spacing" textLength="113.2783" x="355.2822" y="173.9766">Data Exploration</text><text fill="#000000" font-family="sans-serif" font-size="14" lengthAdjust="spacing" textLength="162.4902" x="531.5605" y="173.9766">Explore &amp; visualize data</text><path d="M478.5605,168.6855 L488.5605,168.6855 C503.5605,168.6855 503.5605,168.6855 518.5605,168.6855 L528.5605,168.6855" fill="none" style="stroke:#F4364C;stroke-width:3;"/><path d="M295.2822,225.1738 L305.2822,225.1738 C320.2822,225.1738 320.2822,168.6855 335.2822,168.6855 L345.2822,168.6855" fill="none" style="stroke:#FFB900;stroke-width:3;"/><rect fill="#F4364C" height="36.4883" rx="12.5" ry="12.5" style="stroke:#F4364C;stroke-width:3;" width="115.7305" x="345.2822" y="206.9297"/><text fill="#FFFFFF" font-family="sans-serif" font-size="14" lengthAdjust="spacing" textLength="95.7305" x="355.2822" y="230.4648">Data Pipelines</text><text fill="#000000" font-family="sans-serif" font-size="14" lengthAdjust="spacing" textLength="177.1533" x="514.0127" y="230.4648">Build &amp; run ETL workflows</text><path d="M461.0127,225.1738 L471.0127,225.1738 C486.0127,225.1738 486.0127,225.1738 501.0127,225.1738 L511.0127,225.1738" fill="none" style="stroke:#F4364C;stroke-width:3;"/><path d="M295.2822,225.1738 L305.2822,225.1738 C320.2822,225.1738 320.2822,225.1738 335.2822,225.1738 L345.2822,225.1738" fill="none" style="stroke:#FFB900;stroke-width:3;"/><rect fill="#F4364C" height="36.4883" rx="12.5" ry="12.5" style="stroke:#F4364C;stroke-width:3;" width="111.5537" x="345.2822" y="263.418"/><text fill="#FFFFFF" font-family="sans-serif" font-size="14" lengthAdjust="spacing" textLength="91.5537" x="355.2822" y="286.9531">Collaboration</text><text fill="#000000" font-family="sans-serif" font-size="14" lengthAdjust="spacing" textLength="246.5381" x="509.8359" y="286.9531">Data scientists &amp; engineers together</text><path d="M456.8359,281.6621 L466.8359,281.6621 C481.8359,281.6621 481.8359,281.6621 496.8359,281.6621 L506.8359,281.6621" fill="none" style="stroke:#F4364C;stroke-width:3;"/><path d="M295.2822,225.1738 L305.2822,225.1738 C320.2822,225.1738 320.2822,281.6621 335.2822,281.6621 L345.2822,281.6621" fill="none" style="stroke:#FFB900;stroke-width:3;"/><path d="M146.1494,159.9531 L156.1494,159.9531 C171.1494,159.9531 171.1494,225.1738 186.1494,225.1738 L196.1494,225.1738" fill="none" style="stroke:#181818;stroke-width:3;"/><?plantuml-src VL9BJyCm3BxtLrX2Gh33w3g4D3IXyHYd7NZiZjpKRQrcIPMauoN-ErbIndFu4iVv7hQLcNLet8fLiS8scLhtBEaiEIseTVL1UWYl2VYuGD5KHdUgkDHI6zXB9wCo4-7jMYlNLyiGeRfWHSkQHQF8MXWFq-JjGtMqKxKiyqcQRlb_Lx-h_kWW3V7fbUtsEXwV78jVNj-h_thrqxubkNwI6yphpcwcH_rY1t253c6kAgzEXbML30R-kcQZrOgKyzV10tY-n5mRTBmcOEMeyZaLyAXDOriK577dFgq9xbiq3UHSGR5HRuqMlfyexb71Kc93jUui0HfHioFXEhEHWGMggiEAR4JVFBjQgvZVnUDUeCG-lLriE9VOOiwI7KTQFzPJAqFJaU_XiKAm3sks7Kf-eT3Z9-U6Mv9-6RPdN7Gi2uytdOBvSX4cBgL-Z3PV5hFr239MiDyUMsSzb_hrMd2w8bUJIMRaVtZ_ovFHC4kpas7s3W00?></g></svg>