<svg xmlns="http://www.w3.org/2000/svg" xmlns:xlink="http://www.w3.org/1999/xlink" contentStyleType="text/css" data-diagram-type="MINDMAP" height="405px" preserveAspectRatio="none" style="width:721px;height:405px;background:#FFFFFF;" version="1.1" viewBox="0 0 721 405" width="721px" zoomAndPan="magnify"><?plantuml 1.2026.3beta5?><defs/><g><rect fill="#FF5F46" height="36.2969" rx="12.5" ry="12.5" style="stroke:#FF5F46;stroke-width:3;" width="76.9844" x="10" y="183.9648"/><text fill="#FFFFFF" font-family="sans-serif" font-size="14" lengthAdjust="spacing" textLength="56.9844" x="20" y="206.96">Clusters</text><rect fill="#0078D4" height="36.2969" rx="12.5" ry="12.5" style="stroke:#0078D4;stroke-width:3;" width="106.3242" x="136.9844" y="48.1484"/><text fill="#FFFFFF" font-family="sans-serif" font-size="14" lengthAdjust="spacing" textLength="86.3242" x="146.9844" y="71.1436">Architecture</text><rect fill="#FFB900" height="36.2969" rx="12.5" ry="12.5" style="stroke:#FFB900;stroke-width:3;" width="113.7617" x="293.3086" y="20"/><text fill="#000000" font-family="sans-serif" font-size="14" lengthAdjust="spacing" textLength="93.7617" x="303.3086" y="42.9951">Control Plane</text><text fill="#000000" font-family="sans-serif" font-size="14" lengthAdjust="spacing" textLength="154.834" x="460.0703" y="33.8467">Managed by Microsoft</text><path d="M407.0703,38.1484 L417.0703,38.1484 C432.0703,38.1484 432.0703,29 447.0703,29 L457.0703,29" fill="none" style="stroke:#FFB900;stroke-width:3;"/><text fill="#000000" font-family="sans-serif" font-size="14" lengthAdjust="spacing" textLength="122.2539" x="460.0703" y="52.1436">Backend services</text><path d="M407.0703,38.1484 L417.0703,38.1484 C432.0703,38.1484 432.0703,47.2969 447.0703,47.2969 L457.0703,47.2969" fill="none" style="stroke:#FFB900;stroke-width:3;"/><path d="M243.3086,66.2969 L253.3086,66.2969 C268.3086,66.2969 268.3086,38.1484 283.3086,38.1484 L293.3086,38.1484" fill="none" style="stroke:#0078D4;stroke-width:3;"/><rect fill="#FFB900" height="36.2969" rx="12.5" ry="12.5" style="stroke:#FFB900;stroke-width:3;" width="126.6885" x="293.3086" y="76.2969"/><text fill="#000000" font-family="sans-serif" font-size="14" lengthAdjust="spacing" textLength="106.6885" x="303.3086" y="99.292">Compute Plane</text><text fill="#000000" font-family="sans-serif" font-size="14" lengthAdjust="spacing" textLength="223.9658" x="472.9971" y="90.1436">Runs in your Azure Subscription</text><path d="M419.9971,94.4453 L429.9971,94.4453 C444.9971,94.4453 444.9971,85.2969 459.9971,85.2969 L469.9971,85.2969" fill="none" style="stroke:#FFB900;stroke-width:3;"/><text fill="#000000" font-family="sans-serif" font-size="14" lengthAdjust="spacing" textLength="132.9795" x="472.9971" y="108.4404">Processes the data</text><path d="M419.9971,94.4453 L429.9971,94.4453 C444.9971,94.4453 444.9971,103.5938 459.9971,103.5938 L469.9971,103.5938" fill="none" style="stroke:#FFB900;stroke-width:3;"/><path d="M243.3086,66.2969 L253.3086,66.2969 C268.3086,66.2969 268.3086,94.4453 283.3086,94.4453 L293.3086,94.4453" fill="none" style="stroke:#0078D4;stroke-width:3;"/><path d="M86.9844,202.1133 L96.9844,202.1133 C111.9844,202.1133 111.9844,66.2969 126.9844,66.2969 L136.9844,66.2969" fill="none" style="stroke:#FF5F46;stroke-width:3;"/><rect fill="#0078D4" height="36.2969" rx="12.5" ry="12.5" style="stroke:#0078D4;stroke-width:3;" width="162.7139" x="136.9844" y="132.5938"/><text fill="#FFFFFF" font-family="sans-serif" font-size="14" lengthAdjust="spacing" textLength="142.7139" x="146.9844" y="155.5889">Cluster Components</text><text fill="#000000" font-family="sans-serif" font-size="14" lengthAdjust="spacing" textLength="253.4014" x="352.6982" y="146.4404">Driver node (coordinates execution)</text><path d="M299.6982,150.7422 L309.6982,150.7422 C324.6982,150.7422 324.6982,141.5938 339.6982,141.5938 L349.6982,141.5938" fill="none" style="stroke:#0078D4;stroke-width:3;"/><text fill="#000000" font-family="sans-serif" font-size="14" lengthAdjust="spacing" textLength="254.8643" x="352.6982" y="164.7373">Worker nodes (distributed compute)</text><path d="M299.6982,150.7422 L309.6982,150.7422 C324.6982,150.7422 324.6982,159.8906 339.6982,159.8906 L349.6982,159.8906" fill="none" style="stroke:#0078D4;stroke-width:3;"/><path d="M86.9844,202.1133 L96.9844,202.1133 C111.9844,202.1133 111.9844,150.7422 126.9844,150.7422 L136.9844,150.7422" fill="none" style="stroke:#FF5F46;stroke-width:3;"/><rect fill="#0078D4" height="36.2969" rx="12.5" ry="12.5" style="stroke:#0078D4;stroke-width:3;" width="70.7021" x="136.9844" y="188.8906"/><text fill="#FFFFFF" font-family="sans-serif" font-size="14" lengthAdjust="spacing" textLength="50.7021" x="146.9844" y="211.8857">Scaling</text><text fill="#000000" font-family="sans-serif" font-size="14" lengthAdjust="spacing" textLength="167.5557" x="260.6865" y="202.7373">Manual: fixed resources</text><path d="M207.6865,207.0391 L217.6865,207.0391 C232.6865,207.0391 232.6865,197.8906 247.6865,197.8906 L257.6865,197.8906" fill="none" style="stroke:#0078D4;stroke-width:3;"/><text fill="#000000" font-family="sans-serif" font-size="14" lengthAdjust="spacing" textLength="213.5342" x="260.6865" y="221.0342">Auto-scale: adjusts to demand</text><path d="M207.6865,207.0391 L217.6865,207.0391 C232.6865,207.0391 232.6865,216.1875 247.6865,216.1875 L257.6865,216.1875" fill="none" style="stroke:#0078D4;stroke-width:3;"/><path d="M86.9844,202.1133 L96.9844,202.1133 C111.9844,202.1133 111.9844,207.0391 126.9844,207.0391 L136.9844,207.0391" fill="none" style="stroke:#FF5F46;stroke-width:3;"/><rect fill="#0078D4" height="36.2969" rx="12.5" ry="12.5" style="stroke:#0078D4;stroke-width:3;" width="115.7715" x="136.9844" y="291.6328"/><text fill="#FFFFFF" font-family="sans-serif" font-size="14" lengthAdjust="spacing" textLength="95.7715" x="146.9844" y="314.6279">Cluster Types</text><rect fill="#FFB900" height="36.2969" rx="12.5" ry="12.5" style="stroke:#FFB900;stroke-width:3;" width="93.001" x="302.7559" y="235.3359"/><text fill="#000000" font-family="sans-serif" font-size="14" lengthAdjust="spacing" textLength="73.001" x="312.7559" y="258.3311">Serverless</text><text fill="#000000" font-family="sans-serif" font-size="14" lengthAdjust="spacing" textLength="192.3633" x="448.7568" y="249.1826">Fully managed, on-demand</text><path d="M395.7568,253.4844 L405.7568,253.4844 C420.7568,253.4844 420.7568,244.3359 435.7568,244.3359 L445.7568,244.3359" fill="none" style="stroke:#FFB900;stroke-width:3;"/><text fill="#000000" font-family="sans-serif" font-size="14" lengthAdjust="spacing" textLength="192.1445" x="448.7568" y="267.4795">Fast startup, elastic scaling</text><path d="M395.7568,253.4844 L405.7568,253.4844 C420.7568,253.4844 420.7568,262.6328 435.7568,262.6328 L445.7568,262.6328" fill="none" style="stroke:#FFB900;stroke-width:3;"/><path d="M252.7559,309.7813 L262.7559,309.7813 C277.7559,309.7813 277.7559,253.4844 292.7559,253.4844 L302.7559,253.4844" fill="none" style="stroke:#0078D4;stroke-width:3;"/><rect fill="#FFB900" height="36.2969" rx="12.5" ry="12.5" style="stroke:#FFB900;stroke-width:3;" width="68.4189" x="302.7559" y="291.6328"/><text fill="#000000" font-family="sans-serif" font-size="14" lengthAdjust="spacing" textLength="48.4189" x="312.7559" y="314.6279">Classic</text><text fill="#000000" font-family="sans-serif" font-size="14" lengthAdjust="spacing" textLength="213.2539" x="424.1748" y="305.4795">User-provisioned &amp; configured</text><path d="M371.1748,309.7813 L381.1748,309.7813 C396.1748,309.7813 396.1748,300.6328 411.1748,300.6328 L421.1748,300.6328" fill="none" style="stroke:#FFB900;stroke-width:3;"/><text fill="#000000" font-family="sans-serif" font-size="14" lengthAdjust="spacing" textLength="173.9404" x="424.1748" y="323.7764">Full control over settings</text><path d="M371.1748,309.7813 L381.1748,309.7813 C396.1748,309.7813 396.1748,318.9297 411.1748,318.9297 L421.1748,318.9297" fill="none" style="stroke:#FFB900;stroke-width:3;"/><path d="M252.7559,309.7813 L262.7559,309.7813 C277.7559,309.7813 277.7559,309.7813 292.7559,309.7813 L302.7559,309.7813" fill="none" style="stroke:#0078D4;stroke-width:3;"/><rect fill="#FFB900" height="36.2969" rx="12.5" ry="12.5" style="stroke:#FFB900;stroke-width:3;" width="138.46" x="302.7559" y="347.9297"/><text fill="#000000" font-family="sans-serif" font-size="14" lengthAdjust="spacing" textLength="118.46" x="312.7559" y="370.9248">SQL Warehouses</text><text fill="#000000" font-family="sans-serif" font-size="14" lengthAdjust="spacing" textLength="194.5439" x="494.2158" y="361.7764">Optimized for SQL analytics</text><path d="M441.2158,366.0781 L451.2158,366.0781 C466.2158,366.0781 466.2158,356.9297 481.2158,356.9297 L491.2158,356.9297" fill="none" style="stroke:#FFB900;stroke-width:3;"/><text fill="#000000" font-family="sans-serif" font-size="14" lengthAdjust="spacing" textLength="205.8369" x="494.2158" y="380.0732">Serverless or Classic variants</text><path d="M441.2158,366.0781 L451.2158,366.0781 C466.2158,366.0781 466.2158,375.2266 481.2158,375.2266 L491.2158,375.2266" fill="none" style="stroke:#FFB900;stroke-width:3;"/><path d="M252.7559,309.7813 L262.7559,309.7813 C277.7559,309.7813 277.7559,366.0781 292.7559,366.0781 L302.7559,366.0781" fill="none" style="stroke:#0078D4;stroke-width:3;"/><path d="M86.9844,202.1133 L96.9844,202.1133 C111.9844,202.1133 111.9844,309.7813 126.9844,309.7813 L136.9844,309.7813" fill="none" style="stroke:#FF5F46;stroke-width:3;"/><?plantuml-src VLDTRzim37ptho0mO4Y39dFJZsr1CJHhuQSMwvOEVGnaYKwqs98XIa7SelzzjACqROQCRo9FTqTIkY8ldA-qKPMeaqloJOdVah72sYzwwH4y9y3nNSZbtDbWrBKjhOCFMNQUdLrqjLjjyDziPesFsQABL-p3GikbGI8u7QR9orRhvA1Mcdx-SdEshxMNVS-wvo3hOgSrEgXL5FdNDDtNsil-LoljWhLokovRpFD1nEMdEEu-N9U1F3fA-dsOEBdG7gKF3ldCHRxhR0dtfJ1TfZ-3Es7471Na3TnfwIpPmiTIsnGQ1OHkfILIvAZguF4TnwzW2BI1nWO7aoUMWsd8IJfTUsrDHDqxooI417w1e8GNhSbekEEr1etlP6Pmu_IAqyOgX9wqrYbjXEVBk4OPMjgZ3V3HkcK44lIK9kzqpWuLo8tL5WTJAKfjvicsvo3ACHHwpJ27nBvZVpEO16y7n70SWr1_s1qRjg2m4aQzTVpGr74cKnuGkdP9iTKib6K3rMQqns3DuFLwLnRaeVileJu6BFce9T3E8ci88YqZ_ZTlO50xkzB4VRFbZzoRAVIS9wtUIBRPRi6s7HsXzymNBVwyXKVXS643uTRc3rvFfP-OiE3tr4BOSTcmcIrYrnam8hg2bN1Qj9kwukUn_VB9oN2KZYw6fpbwSVuN?></g></svg>