<?plantuml 1.2026.2?><svg xmlns="http://www.w3.org/2000/svg" xmlns:xlink="http://www.w3.org/1999/xlink" contentStyleType="text/css" data-diagram-type="MINDMAP" height="407px" preserveAspectRatio="none" style="width:694px;height:407px;background:#FFFFFF;" version="1.1" viewBox="0 0 694 407" width="694px" zoomAndPan="magnify"><defs/><g><rect fill="#091F2C" height="36.4883" rx="12.5" ry="12.5" style="stroke:#181818;stroke-width:3;" width="75.46" x="10" y="184.5869"/><text fill="#FFFFFF" font-family="sans-serif" font-size="14" lengthAdjust="spacing" textLength="55.46" x="20" y="208.1221">Clusters</text><rect fill="#FFB900" height="36.4883" rx="12.5" ry="12.5" style="stroke:#FFB900;stroke-width:3;" width="102.9541" x="135.46" y="48.2441"/><text fill="#000000" font-family="sans-serif" font-size="14" lengthAdjust="spacing" textLength="82.9541" x="145.46" y="71.7793">Architecture</text><rect fill="#F4364C" height="36.4883" rx="12.5" ry="12.5" style="stroke:#F4364C;stroke-width:3;" width="111.0205" x="288.4141" y="20"/><text fill="#FFFFFF" font-family="sans-serif" font-size="14" lengthAdjust="spacing" textLength="91.0205" x="298.4141" y="43.5352">Control Plane</text><text fill="#000000" font-family="sans-serif" font-size="14" lengthAdjust="spacing" textLength="150.2607" x="452.4346" y="34.291">Managed by Microsoft</text><path d="M399.4346,38.2441 L409.4346,38.2441 C424.4346,38.2441 424.4346,29 439.4346,29 L449.4346,29" fill="none" style="stroke:#F4364C;stroke-width:3;"/><text fill="#000000" font-family="sans-serif" font-size="14" lengthAdjust="spacing" textLength="114.9326" x="452.4346" y="52.7793">Backend services</text><path d="M399.4346,38.2441 L409.4346,38.2441 C424.4346,38.2441 424.4346,47.4883 439.4346,47.4883 L449.4346,47.4883" fill="none" style="stroke:#F4364C;stroke-width:3;"/><path d="M238.4141,66.4883 L248.4141,66.4883 C263.4141,66.4883 263.4141,38.2441 278.4141,38.2441 L288.4141,38.2441" fill="none" style="stroke:#FFB900;stroke-width:3;"/><rect fill="#F4364C" height="36.4883" rx="12.5" ry="12.5" style="stroke:#F4364C;stroke-width:3;" width="122.3271" x="288.4141" y="76.4883"/><text fill="#FFFFFF" font-family="sans-serif" font-size="14" lengthAdjust="spacing" textLength="102.3271" x="298.4141" y="100.0234">Compute Plane</text><text fill="#000000" font-family="sans-serif" font-size="14" lengthAdjust="spacing" textLength="218.5586" x="463.7412" y="90.7793">Runs in your Azure Subscription</text><path d="M410.7412,94.7324 L420.7412,94.7324 C435.7412,94.7324 435.7412,85.4883 450.7412,85.4883 L460.7412,85.4883" fill="none" style="stroke:#F4364C;stroke-width:3;"/><text fill="#000000" font-family="sans-serif" font-size="14" lengthAdjust="spacing" textLength="126.3418" x="463.7412" y="109.2676">Processes the data</text><path d="M410.7412,94.7324 L420.7412,94.7324 C435.7412,94.7324 435.7412,103.9766 450.7412,103.9766 L460.7412,103.9766" fill="none" style="stroke:#F4364C;stroke-width:3;"/><path d="M238.4141,66.4883 L248.4141,66.4883 C263.4141,66.4883 263.4141,94.7324 278.4141,94.7324 L288.4141,94.7324" fill="none" style="stroke:#FFB900;stroke-width:3;"/><path d="M85.46,202.8311 L95.46,202.8311 C110.46,202.8311 110.46,66.4883 125.46,66.4883 L135.46,66.4883" fill="none" style="stroke:#181818;stroke-width:3;"/><rect fill="#FFB900" height="36.4883" rx="12.5" ry="12.5" style="stroke:#FFB900;stroke-width:3;" width="159.0703" x="135.46" y="132.9766"/><text fill="#000000" font-family="sans-serif" font-size="14" lengthAdjust="spacing" textLength="139.0703" x="145.46" y="156.5117">Cluster Components</text><text fill="#000000" font-family="sans-serif" font-size="14" lengthAdjust="spacing" textLength="243.4961" x="347.5303" y="147.2676">Driver node (coordinates execution)</text><path d="M294.5303,151.2207 L304.5303,151.2207 C319.5303,151.2207 319.5303,141.9766 334.5303,141.9766 L344.5303,141.9766" fill="none" style="stroke:#FFB900;stroke-width:3;"/><text fill="#000000" font-family="sans-serif" font-size="14" lengthAdjust="spacing" textLength="245.1777" x="347.5303" y="165.7559">Worker nodes (distributed compute)</text><path d="M294.5303,151.2207 L304.5303,151.2207 C319.5303,151.2207 319.5303,160.4648 334.5303,160.4648 L344.5303,160.4648" fill="none" style="stroke:#FFB900;stroke-width:3;"/><path d="M85.46,202.8311 L95.46,202.8311 C110.46,202.8311 110.46,151.2207 125.46,151.2207 L135.46,151.2207" fill="none" style="stroke:#181818;stroke-width:3;"/><rect fill="#FFB900" height="36.4883" rx="12.5" ry="12.5" style="stroke:#FFB900;stroke-width:3;" width="67.9541" x="135.46" y="189.4648"/><text fill="#000000" font-family="sans-serif" font-size="14" lengthAdjust="spacing" textLength="47.9541" x="145.46" y="213">Scaling</text><text fill="#000000" font-family="sans-serif" font-size="14" lengthAdjust="spacing" textLength="162.415" x="256.4141" y="203.7559">Manual: fixed resources</text><path d="M203.4141,207.709 L213.4141,207.709 C228.4141,207.709 228.4141,198.4648 243.4141,198.4648 L253.4141,198.4648" fill="none" style="stroke:#FFB900;stroke-width:3;"/><text fill="#000000" font-family="sans-serif" font-size="14" lengthAdjust="spacing" textLength="209.6377" x="256.4141" y="222.2441">Auto-scale: adjusts to demand</text><path d="M203.4141,207.709 L213.4141,207.709 C228.4141,207.709 228.4141,216.9531 243.4141,216.9531 L253.4141,216.9531" fill="none" style="stroke:#FFB900;stroke-width:3;"/><path d="M85.46,202.8311 L95.46,202.8311 C110.46,202.8311 110.46,207.709 125.46,207.709 L135.46,207.709" fill="none" style="stroke:#181818;stroke-width:3;"/><rect fill="#FFB900" height="36.4883" rx="12.5" ry="12.5" style="stroke:#FFB900;stroke-width:3;" width="112.668" x="135.46" y="292.6855"/><text fill="#000000" font-family="sans-serif" font-size="14" lengthAdjust="spacing" textLength="92.668" x="145.46" y="316.2207">Cluster Types</text><rect fill="#F4364C" height="36.4883" rx="12.5" ry="12.5" style="stroke:#F4364C;stroke-width:3;" width="87.9629" x="298.1279" y="236.1973"/><text fill="#FFFFFF" font-family="sans-serif" font-size="14" lengthAdjust="spacing" textLength="67.9629" x="308.1279" y="259.7324">Serverless</text><text fill="#000000" font-family="sans-serif" font-size="14" lengthAdjust="spacing" textLength="187.7559" x="439.0908" y="250.4883">Fully managed, on-demand</text><path d="M386.0908,254.4414 L396.0908,254.4414 C411.0908,254.4414 411.0908,245.1973 426.0908,245.1973 L436.0908,245.1973" fill="none" style="stroke:#F4364C;stroke-width:3;"/><text fill="#000000" font-family="sans-serif" font-size="14" lengthAdjust="spacing" textLength="184.6182" x="439.0908" y="268.9766">Fast startup, elastic scaling</text><path d="M386.0908,254.4414 L396.0908,254.4414 C411.0908,254.4414 411.0908,263.6855 426.0908,263.6855 L436.0908,263.6855" fill="none" style="stroke:#F4364C;stroke-width:3;"/><path d="M248.1279,310.9297 L258.1279,310.9297 C273.1279,310.9297 273.1279,254.4414 288.1279,254.4414 L298.1279,254.4414" fill="none" style="stroke:#FFB900;stroke-width:3;"/><rect fill="#F4364C" height="36.4883" rx="12.5" ry="12.5" style="stroke:#F4364C;stroke-width:3;" width="66.9561" x="298.1279" y="292.6855"/><text fill="#FFFFFF" font-family="sans-serif" font-size="14" lengthAdjust="spacing" textLength="46.9561" x="308.1279" y="316.2207">Classic</text><text fill="#000000" font-family="sans-serif" font-size="14" lengthAdjust="spacing" textLength="210.0137" x="418.084" y="306.9766">User-provisioned &amp; configured</text><path d="M365.084,310.9297 L375.084,310.9297 C390.084,310.9297 390.084,301.6855 405.084,301.6855 L415.084,301.6855" fill="none" style="stroke:#F4364C;stroke-width:3;"/><text fill="#000000" font-family="sans-serif" font-size="14" lengthAdjust="spacing" textLength="169.0322" x="418.084" y="325.4648">Full control over settings</text><path d="M365.084,310.9297 L375.084,310.9297 C390.084,310.9297 390.084,320.1738 405.084,320.1738 L415.084,320.1738" fill="none" style="stroke:#F4364C;stroke-width:3;"/><path d="M248.1279,310.9297 L258.1279,310.9297 C273.1279,310.9297 273.1279,310.9297 288.1279,310.9297 L298.1279,310.9297" fill="none" style="stroke:#FFB900;stroke-width:3;"/><rect fill="#F4364C" height="36.4883" rx="12.5" ry="12.5" style="stroke:#F4364C;stroke-width:3;" width="131.5967" x="298.1279" y="349.1738"/><text fill="#FFFFFF" font-family="sans-serif" font-size="14" lengthAdjust="spacing" textLength="111.5967" x="308.1279" y="372.709">SQL Warehouses</text><text fill="#000000" font-family="sans-serif" font-size="14" lengthAdjust="spacing" textLength="188.4736" x="482.7246" y="363.4648">Optimized for SQL analytics</text><path d="M429.7246,367.418 L439.7246,367.418 C454.7246,367.418 454.7246,358.1738 469.7246,358.1738 L479.7246,358.1738" fill="none" style="stroke:#F4364C;stroke-width:3;"/><text fill="#000000" font-family="sans-serif" font-size="14" lengthAdjust="spacing" textLength="196.082" x="482.7246" y="381.9531">Serverless or Classic variants</text><path d="M429.7246,367.418 L439.7246,367.418 C454.7246,367.418 454.7246,376.6621 469.7246,376.6621 L479.7246,376.6621" fill="none" style="stroke:#F4364C;stroke-width:3;"/><path d="M248.1279,310.9297 L258.1279,310.9297 C273.1279,310.9297 273.1279,367.418 288.1279,367.418 L298.1279,367.418" fill="none" style="stroke:#FFB900;stroke-width:3;"/><path d="M85.46,202.8311 L95.46,202.8311 C110.46,202.8311 110.46,310.9297 125.46,310.9297 L135.46,310.9297" fill="none" style="stroke:#181818;stroke-width:3;"/><?plantuml-src VPF1JXin48Rl-nGZLQf2HD9DG4X4g2AbuWGgRQWuHbvxDd7ZjLSUEyg2UFVERXn2sgQ-UVpxdszcx6iAmeTAMrM9EhkYq1Zyd4qKrc7Poq_W9GDUNuHSBRoBLjquupnyo2z7vLXsPxVEXXGjkzL5xxJ5nwMMAuj4S3RCizUTw-YeQraMbtd-Tl_VqKFNFmZoRkrpZO_dEZ-xE9T_vJgC_ZTNglOrAzp6j9gNepHNdr9Z-t1Z8WNqbFNxCFLogGFA43todW_vhdS67eomNQG_XtjXnG8L50tSQ-aTkJAaexOej0e8_LfBfEHHrJ7WWSUFQ0cqXSP53zDdJWUpM93qkWxQsQHwy8vD20d24a6985h81DpvEeisT6dcyDNhDOUjKmWzwPnNseh0bt63ChQs9rlXa_Eh92JeAKt1wu895SWjQgk3cHH6sqMsgpaACu5IRrZcaPWxrJU7QGnkG2p72GZrY-aOs872IbZrdlYngLDFPjmWzEsGKgctqPW6gcrhJy7PmTlrxbXGWEvdnFeKqF1MIw0z8kSGH5ec_K-UmA3sRgs9wsRaZroRBVM2EwtUfMoZtO1Tsph24DWl8Nw_WoVXSUaYuGxp6u-dqiziMF9xQYLCR1g6sIdsbG4h4XMiXTUYdTGrFu_Tvyv6mt4-lXYEVmC0?></g></svg>