<?plantuml 1.2026.2?><svg xmlns="http://www.w3.org/2000/svg" xmlns:xlink="http://www.w3.org/1999/xlink" contentStyleType="text/css" data-diagram-type="MINDMAP" height="338px" preserveAspectRatio="none" style="width:673px;height:338px;background:#FFFFFF;" version="1.1" viewBox="0 0 673 338" width="673px" zoomAndPan="magnify"><defs/><g><rect fill="#091F2C" height="36.4883" rx="12.5" ry="12.5" style="stroke:#181818;stroke-width:3;" width="153.0752" x="10" y="150.1855"/><text fill="#FFFFFF" font-family="sans-serif" font-size="14" lengthAdjust="spacing" textLength="133.0752" x="20" y="173.7207">Databricks Runtime</text><rect fill="#FFB900" height="36.4883" rx="12.5" ry="12.5" style="stroke:#FFB900;stroke-width:3;" width="82.959" x="213.0752" y="20"/><text fill="#000000" font-family="sans-serif" font-size="14" lengthAdjust="spacing" textLength="62.959" x="223.0752" y="43.5352">What it is</text><text fill="#000000" font-family="sans-serif" font-size="14" lengthAdjust="spacing" textLength="223.7881" x="349.0342" y="25.0469">Customized Apache Spark builds</text><path d="M296.0342,38.2441 L306.0342,38.2441 C321.0342,38.2441 321.0342,19.7559 336.0342,19.7559 L346.0342,19.7559" fill="none" style="stroke:#FFB900;stroke-width:3;"/><text fill="#000000" font-family="sans-serif" font-size="14" lengthAdjust="spacing" textLength="186.8672" x="349.0342" y="43.5352">Performance improvements</text><path d="M296.0342,38.2441 L306.0342,38.2441 C321.0342,38.2441 321.0342,38.2441 336.0342,38.2441 L346.0342,38.2441" fill="none" style="stroke:#FFB900;stroke-width:3;"/><text fill="#000000" font-family="sans-serif" font-size="14" lengthAdjust="spacing" textLength="191.6797" x="349.0342" y="62.0234">Additional libraries included</text><path d="M296.0342,38.2441 L306.0342,38.2441 C321.0342,38.2441 321.0342,56.7324 336.0342,56.7324 L346.0342,56.7324" fill="none" style="stroke:#FFB900;stroke-width:3;"/><path d="M163.0752,168.4297 L173.0752,168.4297 C188.0752,168.4297 188.0752,38.2441 203.0752,38.2441 L213.0752,38.2441" fill="none" style="stroke:#181818;stroke-width:3;"/><rect fill="#FFB900" height="36.4883" rx="12.5" ry="12.5" style="stroke:#FFB900;stroke-width:3;" width="158.5508" x="213.0752" y="84.709"/><text fill="#000000" font-family="sans-serif" font-size="14" lengthAdjust="spacing" textLength="138.5508" x="223.0752" y="108.2441">Specialized Versions</text><text fill="#000000" font-family="sans-serif" font-size="14" lengthAdjust="spacing" textLength="164.1309" x="424.626" y="80.5117">General data processing</text><path d="M371.626,102.9531 L381.626,102.9531 C396.626,102.9531 396.626,75.2207 411.626,75.2207 L421.626,75.2207" fill="none" style="stroke:#FFB900;stroke-width:3;"/><text fill="#000000" font-family="sans-serif" font-size="14" lengthAdjust="spacing" textLength="177.1807" x="424.626" y="99">Machine Learning runtime</text><path d="M371.626,102.9531 L381.626,102.9531 C396.626,102.9531 396.626,93.709 411.626,93.709 L421.626,93.709" fill="none" style="stroke:#FFB900;stroke-width:3;"/><text fill="#000000" font-family="sans-serif" font-size="14" lengthAdjust="spacing" textLength="119.3555" x="424.626" y="117.4883">Graph processing</text><path d="M371.626,102.9531 L381.626,102.9531 C396.626,102.9531 396.626,112.1973 411.626,112.1973 L421.626,112.1973" fill="none" style="stroke:#FFB900;stroke-width:3;"/><text fill="#000000" font-family="sans-serif" font-size="14" lengthAdjust="spacing" textLength="66.6299" x="424.626" y="135.9766">Genomics</text><path d="M371.626,102.9531 L381.626,102.9531 C396.626,102.9531 396.626,130.6855 411.626,130.6855 L421.626,130.6855" fill="none" style="stroke:#FFB900;stroke-width:3;"/><path d="M163.0752,168.4297 L173.0752,168.4297 C188.0752,168.4297 188.0752,102.9531 203.0752,102.9531 L213.0752,102.9531" fill="none" style="stroke:#181818;stroke-width:3;"/><rect fill="#FFB900" height="36.4883" rx="12.5" ry="12.5" style="stroke:#FFB900;stroke-width:3;" width="163.1172" x="213.0752" y="149.9297"/><text fill="#000000" font-family="sans-serif" font-size="14" lengthAdjust="spacing" textLength="143.1172" x="223.0752" y="173.4648">Version Management</text><text fill="#000000" font-family="sans-serif" font-size="14" lengthAdjust="spacing" textLength="179.1699" x="429.1924" y="154.9766">Multiple versions available</text><path d="M376.1924,168.1738 L386.1924,168.1738 C401.1924,168.1738 401.1924,149.6855 416.1924,149.6855 L426.1924,149.6855" fill="none" style="stroke:#FFB900;stroke-width:3;"/><text fill="#000000" font-family="sans-serif" font-size="14" lengthAdjust="spacing" textLength="231.8818" x="429.1924" y="173.4648">Long-Term Support (LTS) releases</text><path d="M376.1924,168.1738 L386.1924,168.1738 C401.1924,168.1738 401.1924,168.1738 416.1924,168.1738 L426.1924,168.1738" fill="none" style="stroke:#FFB900;stroke-width:3;"/><text fill="#000000" font-family="sans-serif" font-size="14" lengthAdjust="spacing" textLength="210.9365" x="429.1924" y="191.9531">Specifies Spark version &amp; dates</text><path d="M376.1924,168.1738 L386.1924,168.1738 C401.1924,168.1738 401.1924,186.6621 416.1924,186.6621 L426.1924,186.6621" fill="none" style="stroke:#FFB900;stroke-width:3;"/><path d="M163.0752,168.4297 L173.0752,168.4297 C188.0752,168.4297 188.0752,168.1738 203.0752,168.1738 L213.0752,168.1738" fill="none" style="stroke:#181818;stroke-width:3;"/><rect fill="#FFB900" height="36.4883" rx="12.5" ry="12.5" style="stroke:#FFB900;stroke-width:3;" width="126.5654" x="213.0752" y="215.1504"/><text fill="#000000" font-family="sans-serif" font-size="14" lengthAdjust="spacing" textLength="106.5654" x="223.0752" y="238.6855">Lifecycle Stages</text><text fill="#000000" font-family="sans-serif" font-size="14" lengthAdjust="spacing" textLength="247.4268" x="392.6406" y="210.9531">Legacy: available, not recommended</text><path d="M339.6406,233.3945 L349.6406,233.3945 C364.6406,233.3945 364.6406,205.6621 379.6406,205.6621 L389.6406,205.6621" fill="none" style="stroke:#FFB900;stroke-width:3;"/><text fill="#000000" font-family="sans-serif" font-size="14" lengthAdjust="spacing" textLength="220.1172" x="392.6406" y="229.4414">Deprecated: marked for removal</text><path d="M339.6406,233.3945 L349.6406,233.3945 C364.6406,233.3945 364.6406,224.1504 379.6406,224.1504 L389.6406,224.1504" fill="none" style="stroke:#FFB900;stroke-width:3;"/><text fill="#000000" font-family="sans-serif" font-size="14" lengthAdjust="spacing" textLength="223.8906" x="392.6406" y="247.9297">End of Support: no more patches</text><path d="M339.6406,233.3945 L349.6406,233.3945 C364.6406,233.3945 364.6406,242.6387 379.6406,242.6387 L389.6406,242.6387" fill="none" style="stroke:#FFB900;stroke-width:3;"/><text fill="#000000" font-family="sans-serif" font-size="14" lengthAdjust="spacing" textLength="211.5928" x="392.6406" y="266.418">End of Life: retired, unavailable</text><path d="M339.6406,233.3945 L349.6406,233.3945 C364.6406,233.3945 364.6406,261.127 379.6406,261.127 L389.6406,261.127" fill="none" style="stroke:#FFB900;stroke-width:3;"/><path d="M163.0752,168.4297 L173.0752,168.4297 C188.0752,168.4297 188.0752,233.3945 203.0752,233.3945 L213.0752,233.3945" fill="none" style="stroke:#181818;stroke-width:3;"/><rect fill="#FFB900" height="36.4883" rx="12.5" ry="12.5" style="stroke:#FFB900;stroke-width:3;" width="165.2979" x="213.0752" y="280.3711"/><text fill="#000000" font-family="sans-serif" font-size="14" lengthAdjust="spacing" textLength="145.2979" x="223.0752" y="303.9063">Maintenance Updates</text><text fill="#000000" font-family="sans-serif" font-size="14" lengthAdjust="spacing" textLength="179.9287" x="431.373" y="303.9063">Apply by restarting cluster</text><path d="M378.373,298.6152 L388.373,298.6152 C403.373,298.6152 403.373,298.6152 418.373,298.6152 L428.373,298.6152" fill="none" style="stroke:#FFB900;stroke-width:3;"/><path d="M163.0752,168.4297 L173.0752,168.4297 C188.0752,168.4297 188.0752,298.6152 203.0752,298.6152 L213.0752,298.6152" fill="none" style="stroke:#181818;stroke-width:3;"/><?plantuml-src VLDjQzim4FxkNt4m66teCYSjXPeoshNRldWmbdJxECxIEH7H6v8SbfN-zvuTfMtMPS9VV7hkURb3Lp5XI4PPQT0Nbp5jD7qeAaa-BO_AOxWlWCz75Aj5S9sLDqwx06_AYqax5SFTPsTJhhR36QgriZHVAh6o52ESZilYOSSwESZQjir5MJxr_xkwp_gNWt8uprhJmrfdf-TdufNMVlM_MZdjGz6utxh7t1zqS_a-3tO4jvYm2KmRuNjdap9KZ4RmSua957-H_qQ_uAQBoHdrXoHSUnHBWfd7i8AcKrfcp3SAhGi6hI1GnWUt9aCsvTjhALLIpg86hPg0GL44PONk9CbUSkP9ADI3nWyAaR6vzGjP2jmdsIemh-1moYwsbr_P3Ky6Qi9WkGhXAKNV6j0lN_Km8OSHFVrEYdaiBWR3cRVJINbDiCvU0DUeD3OwKzVEBjxDAHYOTTwxaE2edi-E8P0cZ9Iz3wdQFkjsO9aDtlPf1X0ljYMn4ImrIsmXDzQqGB6fdbLFmBh4xC8PThaT6kDkoNEDkMG5XXLuUhm5nXctHht5VB8INBlpMJ4H61S8F2PUPTm3zMugRayga3o1phwCpLDIDf4TTdpdTn7wzNglDz1ik7DumVqcUBSnKIYksExkHHUJyRISde-dZm00?></g></svg>