<?plantuml 1.2026.2?><svg xmlns="http://www.w3.org/2000/svg" xmlns:xlink="http://www.w3.org/1999/xlink" contentStyleType="text/css" data-diagram-type="MINDMAP" height="265px" preserveAspectRatio="none" style="width:576px;height:265px;background:#FFFFFF;" version="1.1" viewBox="0 0 576 265" width="576px" zoomAndPan="magnify"><defs/><g><rect fill="#091F2C" height="36.4883" rx="12.5" ry="12.5" style="stroke:#181818;stroke-width:3;" width="122.5732" x="10" y="113.4648"/><text fill="#FFFFFF" font-family="sans-serif" font-size="14" lengthAdjust="spacing" textLength="102.5732" x="20" y="137">Databricks SQL</text><rect fill="#FFB900" height="36.4883" rx="12.5" ry="12.5" style="stroke:#FFB900;stroke-width:3;" width="82.959" x="182.5732" y="20"/><text fill="#000000" font-family="sans-serif" font-size="14" lengthAdjust="spacing" textLength="62.959" x="192.5732" y="43.5352">What it is</text><text fill="#000000" font-family="sans-serif" font-size="14" lengthAdjust="spacing" textLength="215.9268" x="318.5322" y="25.0469">Data warehousing in Lakehouse</text><path d="M265.5322,38.2441 L275.5322,38.2441 C290.5322,38.2441 290.5322,19.7559 305.5322,19.7559 L315.5322,19.7559" fill="none" style="stroke:#FFB900;stroke-width:3;"/><text fill="#000000" font-family="sans-serif" font-size="14" lengthAdjust="spacing" textLength="245.916" x="318.5322" y="43.5352">Query open format data in data lake</text><path d="M265.5322,38.2441 L275.5322,38.2441 C290.5322,38.2441 290.5322,38.2441 305.5322,38.2441 L315.5322,38.2441" fill="none" style="stroke:#FFB900;stroke-width:3;"/><text fill="#000000" font-family="sans-serif" font-size="14" lengthAdjust="spacing" textLength="119.3281" x="318.5322" y="62.0234">ANSI SQL support</text><path d="M265.5322,38.2441 L275.5322,38.2441 C290.5322,38.2441 290.5322,56.7324 305.5322,56.7324 L315.5322,56.7324" fill="none" style="stroke:#FFB900;stroke-width:3;"/><path d="M132.5732,131.709 L142.5732,131.709 C157.5732,131.709 157.5732,38.2441 172.5732,38.2441 L182.5732,38.2441" fill="none" style="stroke:#181818;stroke-width:3;"/><rect fill="#FFB900" height="36.4883" rx="12.5" ry="12.5" style="stroke:#FFB900;stroke-width:3;" width="57.2354" x="182.5732" y="85.2207"/><text fill="#000000" font-family="sans-serif" font-size="14" lengthAdjust="spacing" textLength="37.2354" x="192.5732" y="108.7559">Tools</text><text fill="#000000" font-family="sans-serif" font-size="14" lengthAdjust="spacing" textLength="70.3213" x="292.8086" y="81.0234">SQL Editor</text><path d="M239.8086,103.4648 L249.8086,103.4648 C264.8086,103.4648 264.8086,75.7324 279.8086,75.7324 L289.8086,75.7324" fill="none" style="stroke:#FFB900;stroke-width:3;"/><text fill="#000000" font-family="sans-serif" font-size="14" lengthAdjust="spacing" textLength="80.8623" x="292.8086" y="99.5117">Dashboards</text><path d="M239.8086,103.4648 L249.8086,103.4648 C264.8086,103.4648 264.8086,94.2207 279.8086,94.2207 L289.8086,94.2207" fill="none" style="stroke:#FFB900;stroke-width:3;"/><text fill="#000000" font-family="sans-serif" font-size="14" lengthAdjust="spacing" textLength="125.2275" x="292.8086" y="118">Visualization tools</text><path d="M239.8086,103.4648 L249.8086,103.4648 C264.8086,103.4648 264.8086,112.709 279.8086,112.709 L289.8086,112.709" fill="none" style="stroke:#FFB900;stroke-width:3;"/><text fill="#000000" font-family="sans-serif" font-size="14" lengthAdjust="spacing" textLength="188.9316" x="292.8086" y="136.4883">External BI tool integrations</text><path d="M239.8086,103.4648 L249.8086,103.4648 C264.8086,103.4648 264.8086,131.1973 279.8086,131.1973 L289.8086,131.1973" fill="none" style="stroke:#FFB900;stroke-width:3;"/><path d="M132.5732,131.709 L142.5732,131.709 C157.5732,131.709 157.5732,103.4648 172.5732,103.4648 L182.5732,103.4648" fill="none" style="stroke:#181818;stroke-width:3;"/><rect fill="#FFB900" height="36.4883" rx="12.5" ry="12.5" style="stroke:#FFB900;stroke-width:3;" width="106.0098" x="182.5732" y="150.4414"/><text fill="#000000" font-family="sans-serif" font-size="14" lengthAdjust="spacing" textLength="86.0098" x="192.5732" y="173.9766">Target Users</text><text fill="#000000" font-family="sans-serif" font-size="14" lengthAdjust="spacing" textLength="191.4063" x="341.583" y="164.7324">Analysts and business users</text><path d="M288.583,168.6855 L298.583,168.6855 C313.583,168.6855 313.583,159.4414 328.583,159.4414 L338.583,159.4414" fill="none" style="stroke:#FFB900;stroke-width:3;"/><text fill="#000000" font-family="sans-serif" font-size="14" lengthAdjust="spacing" textLength="218.5791" x="341.583" y="183.2207">No need to learn new languages</text><path d="M288.583,168.6855 L298.583,168.6855 C313.583,168.6855 313.583,177.9297 328.583,177.9297 L338.583,177.9297" fill="none" style="stroke:#FFB900;stroke-width:3;"/><path d="M132.5732,131.709 L142.5732,131.709 C157.5732,131.709 157.5732,168.6855 172.5732,168.6855 L182.5732,168.6855" fill="none" style="stroke:#181818;stroke-width:3;"/><rect fill="#FFB900" height="36.4883" rx="12.5" ry="12.5" style="stroke:#FFB900;stroke-width:3;" width="113.6592" x="182.5732" y="206.9297"/><text fill="#000000" font-family="sans-serif" font-size="14" lengthAdjust="spacing" textLength="93.6592" x="192.5732" y="230.4648">Requirements</text><text fill="#000000" font-family="sans-serif" font-size="14" lengthAdjust="spacing" textLength="120.4629" x="349.2324" y="221.2207">Premium tier only</text><path d="M296.2324,225.1738 L306.2324,225.1738 C321.2324,225.1738 321.2324,215.9297 336.2324,215.9297 L346.2324,215.9297" fill="none" style="stroke:#FFB900;stroke-width:3;"/><text fill="#000000" font-family="sans-serif" font-size="14" lengthAdjust="spacing" textLength="171.1104" x="349.2324" y="239.709">Runs on SQL Warehouses</text><path d="M296.2324,225.1738 L306.2324,225.1738 C321.2324,225.1738 321.2324,234.418 336.2324,234.418 L346.2324,234.418" fill="none" style="stroke:#FFB900;stroke-width:3;"/><path d="M132.5732,131.709 L142.5732,131.709 C157.5732,131.709 157.5732,225.1738 172.5732,225.1738 L182.5732,225.1738" fill="none" style="stroke:#181818;stroke-width:3;"/><?plantuml-src VLBVI-Gm47xlNp7WYxSFQxUAu26YdXu8YwZhdO-IRgTjs7HI9nDq5VztqsoynTCr5Cfyy_t833bsebWwJLMd-kpGoTBWKVQpmbxQxVm7l6GGpgcQBngsdgfVrbY6hVnWKXVpsFjjIH9QnnFHgIQyRVLyGUWSx8xpxFNTTRBHjQxBWpp_f_yQ_UZwtmtoUDPPnUQilTtzlVcdh8_ejrbfsjUij4zcuBnilCtXJbhi2CwKg9A3hOFPzJGRZU2kLG8wV2vKe_l8W4V5s5hlD3MW2QPg4KjSKQuzyX9iZmIrvIxegq4KYF5l0dj5FBcSNGmvu7pVMvOXxzPQawA6pdcbnV9xj6jBgxXA_R_QUMNqin9j2MGjF7yIP586JYyY7A856uuy5qCKDoZmno4doKcWBvquK5H1EKmsxCol2PSM2B4AVc1GCONgCOn2ZLSDHjCRVF2QiKEIfBaAbVOTY4O6IsQvWcyykL36-UxI9eF5COPddfvwDXaNUR4_Bju0?></g></svg>