<?plantuml 1.2026.2?><svg xmlns="http://www.w3.org/2000/svg" xmlns:xlink="http://www.w3.org/1999/xlink" contentStyleType="text/css" data-diagram-type="MINDMAP" height="359px" preserveAspectRatio="none" style="width:732px;height:359px;background:#FFFFFF;" version="1.1" viewBox="0 0 732 359" width="732px" zoomAndPan="magnify"><defs/><g><rect fill="#091F2C" height="36.4883" rx="12.5" ry="12.5" style="stroke:#181818;stroke-width:3;" width="90.9092" x="10" y="160.709"/><text fill="#FFFFFF" font-family="sans-serif" font-size="14" lengthAdjust="spacing" textLength="70.9092" x="20" y="184.2441">Delta Lake</text><rect fill="#FFB900" height="36.4883" rx="12.5" ry="12.5" style="stroke:#FFB900;stroke-width:3;" width="82.959" x="150.9092" y="20"/><text fill="#000000" font-family="sans-serif" font-size="14" lengthAdjust="spacing" textLength="62.959" x="160.9092" y="43.5352">What it is</text><text fill="#000000" font-family="sans-serif" font-size="14" lengthAdjust="spacing" textLength="221.9971" x="286.8682" y="25.0469">Open-source storage framework</text><path d="M233.8682,38.2441 L243.8682,38.2441 C258.8682,38.2441 258.8682,19.7559 273.8682,19.7559 L283.8682,19.7559" fill="none" style="stroke:#FFB900;stroke-width:3;"/><text fill="#000000" font-family="sans-serif" font-size="14" lengthAdjust="spacing" textLength="213.5137" x="286.8682" y="43.5352">Adds transactions to data lakes</text><path d="M233.8682,38.2441 L243.8682,38.2441 C258.8682,38.2441 258.8682,38.2441 273.8682,38.2441 L283.8682,38.2441" fill="none" style="stroke:#FFB900;stroke-width:3;"/><text fill="#000000" font-family="sans-serif" font-size="14" lengthAdjust="spacing" textLength="226.4336" x="286.8682" y="62.0234">Runs on Azure Data Lake Storage</text><path d="M233.8682,38.2441 L243.8682,38.2441 C258.8682,38.2441 258.8682,56.7324 273.8682,56.7324 L283.8682,56.7324" fill="none" style="stroke:#FFB900;stroke-width:3;"/><path d="M100.9092,178.9531 L110.9092,178.9531 C125.9092,178.9531 125.9092,38.2441 140.9092,38.2441 L150.9092,38.2441" fill="none" style="stroke:#181818;stroke-width:3;"/><rect fill="#FFB900" height="36.4883" rx="12.5" ry="12.5" style="stroke:#FFB900;stroke-width:3;" width="106.3105" x="150.9092" y="160.709"/><text fill="#000000" font-family="sans-serif" font-size="14" lengthAdjust="spacing" textLength="86.3105" x="160.9092" y="184.2441">Key Features</text><rect fill="#F4364C" height="36.4883" rx="12.5" ry="12.5" style="stroke:#F4364C;stroke-width:3;" width="145.043" x="307.2197" y="75.9766"/><text fill="#FFFFFF" font-family="sans-serif" font-size="14" lengthAdjust="spacing" textLength="125.043" x="317.2197" y="99.5117">ACID Transactions</text><text fill="#000000" font-family="sans-serif" font-size="14" lengthAdjust="spacing" textLength="154.7451" x="505.2627" y="90.2676">Atomicity, Consistency</text><path d="M452.2627,94.2207 L462.2627,94.2207 C477.2627,94.2207 477.2627,84.9766 492.2627,84.9766 L502.2627,84.9766" fill="none" style="stroke:#F4364C;stroke-width:3;"/><text fill="#000000" font-family="sans-serif" font-size="14" lengthAdjust="spacing" textLength="133.1162" x="505.2627" y="108.7559">Isolation, Durability</text><path d="M452.2627,94.2207 L462.2627,94.2207 C477.2627,94.2207 477.2627,103.4648 492.2627,103.4648 L502.2627,103.4648" fill="none" style="stroke:#F4364C;stroke-width:3;"/><path d="M257.2197,178.9531 L267.2197,178.9531 C282.2197,178.9531 282.2197,94.2207 297.2197,94.2207 L307.2197,94.2207" fill="none" style="stroke:#FFB900;stroke-width:3;"/><rect fill="#F4364C" height="36.4883" rx="12.5" ry="12.5" style="stroke:#F4364C;stroke-width:3;" width="141.6455" x="307.2197" y="132.4648"/><text fill="#FFFFFF" font-family="sans-serif" font-size="14" lengthAdjust="spacing" textLength="121.6455" x="317.2197" y="156">Scalable Metadata</text><text fill="#000000" font-family="sans-serif" font-size="14" lengthAdjust="spacing" textLength="218.4287" x="501.8652" y="156">Billions of files without perf loss</text><path d="M448.8652,150.709 L458.8652,150.709 C473.8652,150.709 473.8652,150.709 488.8652,150.709 L498.8652,150.709" fill="none" style="stroke:#F4364C;stroke-width:3;"/><path d="M257.2197,178.9531 L267.2197,178.9531 C282.2197,178.9531 282.2197,150.709 297.2197,150.709 L307.2197,150.709" fill="none" style="stroke:#FFB900;stroke-width:3;"/><rect fill="#F4364C" height="36.4883" rx="12.5" ry="12.5" style="stroke:#F4364C;stroke-width:3;" width="128.2334" x="307.2197" y="188.9531"/><text fill="#FFFFFF" font-family="sans-serif" font-size="14" lengthAdjust="spacing" textLength="108.2334" x="317.2197" y="212.4883">Data Versioning</text><text fill="#000000" font-family="sans-serif" font-size="14" lengthAdjust="spacing" textLength="130.4297" x="488.4531" y="203.2441">Time travel queries</text><path d="M435.4531,207.1973 L445.4531,207.1973 C460.4531,207.1973 460.4531,197.9531 475.4531,197.9531 L485.4531,197.9531" fill="none" style="stroke:#F4364C;stroke-width:3;"/><text fill="#000000" font-family="sans-serif" font-size="14" lengthAdjust="spacing" textLength="182.9023" x="488.4531" y="221.7324">Rollback to previous states</text><path d="M435.4531,207.1973 L445.4531,207.1973 C460.4531,207.1973 460.4531,216.4414 475.4531,216.4414 L485.4531,216.4414" fill="none" style="stroke:#F4364C;stroke-width:3;"/><path d="M257.2197,178.9531 L267.2197,178.9531 C282.2197,178.9531 282.2197,207.1973 297.2197,207.1973 L307.2197,207.1973" fill="none" style="stroke:#FFB900;stroke-width:3;"/><rect fill="#F4364C" height="36.4883" rx="12.5" ry="12.5" style="stroke:#F4364C;stroke-width:3;" width="145.4463" x="307.2197" y="245.4414"/><text fill="#FFFFFF" font-family="sans-serif" font-size="14" lengthAdjust="spacing" textLength="125.4463" x="317.2197" y="268.9766">Unified Processing</text><text fill="#000000" font-family="sans-serif" font-size="14" lengthAdjust="spacing" textLength="208.8516" x="505.666" y="268.9766">Same table: batch + streaming</text><path d="M452.666,263.6855 L462.666,263.6855 C477.666,263.6855 477.666,263.6855 492.666,263.6855 L502.666,263.6855" fill="none" style="stroke:#F4364C;stroke-width:3;"/><path d="M257.2197,178.9531 L267.2197,178.9531 C282.2197,178.9531 282.2197,263.6855 297.2197,263.6855 L307.2197,263.6855" fill="none" style="stroke:#FFB900;stroke-width:3;"/><path d="M100.9092,178.9531 L110.9092,178.9531 C125.9092,178.9531 125.9092,178.9531 140.9092,178.9531 L150.9092,178.9531" fill="none" style="stroke:#181818;stroke-width:3;"/><rect fill="#FFB900" height="36.4883" rx="12.5" ry="12.5" style="stroke:#FFB900;stroke-width:3;" width="104.1094" x="150.9092" y="301.418"/><text fill="#000000" font-family="sans-serif" font-size="14" lengthAdjust="spacing" textLength="84.1094" x="160.9092" y="324.9531">Delta Tables</text><text fill="#000000" font-family="sans-serif" font-size="14" lengthAdjust="spacing" textLength="275.3242" x="308.0186" y="306.4648">Default table format in Azure Databricks</text><path d="M255.0186,319.6621 L265.0186,319.6621 C280.0186,319.6621 280.0186,301.1738 295.0186,301.1738 L305.0186,301.1738" fill="none" style="stroke:#FFB900;stroke-width:3;"/><text fill="#000000" font-family="sans-serif" font-size="14" lengthAdjust="spacing" textLength="197.8252" x="308.0186" y="324.9531">SQL queries &amp; DataFrame API</text><path d="M255.0186,319.6621 L265.0186,319.6621 C280.0186,319.6621 280.0186,319.6621 295.0186,319.6621 L305.0186,319.6621" fill="none" style="stroke:#FFB900;stroke-width:3;"/><text fill="#000000" font-family="sans-serif" font-size="14" lengthAdjust="spacing" textLength="244.0293" x="308.0186" y="343.4414">All new data stored with guarantees</text><path d="M255.0186,319.6621 L265.0186,319.6621 C280.0186,319.6621 280.0186,338.1504 295.0186,338.1504 L305.0186,338.1504" fill="none" style="stroke:#FFB900;stroke-width:3;"/><path d="M100.9092,178.9531 L110.9092,178.9531 C125.9092,178.9531 125.9092,319.6621 140.9092,319.6621 L150.9092,319.6621" fill="none" style="stroke:#181818;stroke-width:3;"/><?plantuml-src VLDXRzCm4FsUNt4I4e8oIjfDapPDQ5shIXL5ZBN0HtHnperLnoxsPLsPzj-n4vTjGB7onUTtxptVYoyze-DQcRB6JNRXUQVfVNPUqeQhL_bhkCyWh2iKwvMpZId7Lbi7B_ApWHoAzcng3QUgR5TRdIj3oqg9jI7luRYVPmzxri51LYcBipp_tV_lwdFMFnpaxNhK6XxMEZa-FH5_QJsl_bShtVOXA-oTZfZxWsuktgN1zc12cX7ckAQiruDl5JAeyFcmwts7JnioRxrjd23mR1sk2AJ3chRMhJl8g2mzi4FZKR2o9cmib1X8TI1DF3TDg5i3ev-D8vXWaeH5nncbFz0EfeGS06qJZCQp2IoV4CTg56HRAw5uTmJZK5MUoOXTEfnvgp6YZs3IE2oK3i2MRY5GOw49FX9Zz9SwhfJMhMqhGQemEDWghcp3i24dGLlVsMbDVoNd0rYPLUfUgfhYxMz9mu-6dAAzpHkhTH5IZkFOEBfLjl5XXiZfUb-CaefAk7PMXBGUAHSOAQFLSoYGHGLlGfyZh3jCYcmP4Mcy4vBOQEwwG5fNnnYVZhjmuSz9wCNd-Tuhl6nFfp5I65tFKgHQWw5jbsACFTYCGu5LWo4Ffg1xIU69fcUQ3Vh3V7ZQ7_u2?></g></svg>