<svg xmlns="http://www.w3.org/2000/svg" xmlns:xlink="http://www.w3.org/1999/xlink" contentStyleType="text/css" data-diagram-type="MINDMAP" height="335px" preserveAspectRatio="none" style="width:701px;height:335px;background:#FFFFFF;" version="1.1" viewBox="0 0 701 335" width="701px" zoomAndPan="magnify"><?plantuml 1.2026.3beta5?><defs/><g><rect fill="#FF5F46" height="36.2969" rx="12.5" ry="12.5" style="stroke:#FF5F46;stroke-width:3;" width="158.6123" x="10" y="149.1328"/><text fill="#FFFFFF" font-family="sans-serif" font-size="14" lengthAdjust="spacing" textLength="138.6123" x="20" y="172.1279">Databricks Runtime</text><rect fill="#0078D4" height="36.2969" rx="12.5" ry="12.5" style="stroke:#0078D4;stroke-width:3;" width="86.2471" x="218.6123" y="20"/><text fill="#FFFFFF" font-family="sans-serif" font-size="14" lengthAdjust="spacing" textLength="66.2471" x="228.6123" y="42.9951">What it is</text><text fill="#000000" font-family="sans-serif" font-size="14" lengthAdjust="spacing" textLength="229.8857" x="357.8594" y="24.6982">Customized Apache Spark builds</text><path d="M304.8594,38.1484 L314.8594,38.1484 C329.8594,38.1484 329.8594,19.8516 344.8594,19.8516 L354.8594,19.8516" fill="none" style="stroke:#0078D4;stroke-width:3;"/><text fill="#000000" font-family="sans-serif" font-size="14" lengthAdjust="spacing" textLength="195.4531" x="357.8594" y="42.9951">Performance improvements</text><path d="M304.8594,38.1484 L314.8594,38.1484 C329.8594,38.1484 329.8594,38.1484 344.8594,38.1484 L354.8594,38.1484" fill="none" style="stroke:#0078D4;stroke-width:3;"/><text fill="#000000" font-family="sans-serif" font-size="14" lengthAdjust="spacing" textLength="195.5898" x="357.8594" y="61.292">Additional libraries included</text><path d="M304.8594,38.1484 L314.8594,38.1484 C329.8594,38.1484 329.8594,56.4453 344.8594,56.4453 L354.8594,56.4453" fill="none" style="stroke:#0078D4;stroke-width:3;"/><path d="M168.6123,167.2813 L178.6123,167.2813 C193.6123,167.2813 193.6123,38.1484 208.6123,38.1484 L218.6123,38.1484" fill="none" style="stroke:#FF5F46;stroke-width:3;"/><rect fill="#0078D4" height="36.2969" rx="12.5" ry="12.5" style="stroke:#0078D4;stroke-width:3;" width="163.4932" x="218.6123" y="84.0391"/><text fill="#FFFFFF" font-family="sans-serif" font-size="14" lengthAdjust="spacing" textLength="143.4932" x="228.6123" y="107.0342">Specialized Versions</text><text fill="#000000" font-family="sans-serif" font-size="14" lengthAdjust="spacing" textLength="171.3633" x="435.1055" y="79.5889">General data processing</text><path d="M382.1055,102.1875 L392.1055,102.1875 C407.1055,102.1875 407.1055,74.7422 422.1055,74.7422 L432.1055,74.7422" fill="none" style="stroke:#0078D4;stroke-width:3;"/><text fill="#000000" font-family="sans-serif" font-size="14" lengthAdjust="spacing" textLength="183.9072" x="435.1055" y="97.8857">Machine Learning runtime</text><path d="M382.1055,102.1875 L392.1055,102.1875 C407.1055,102.1875 407.1055,93.0391 422.1055,93.0391 L432.1055,93.0391" fill="none" style="stroke:#0078D4;stroke-width:3;"/><text fill="#000000" font-family="sans-serif" font-size="14" lengthAdjust="spacing" textLength="123.1494" x="435.1055" y="116.1826">Graph processing</text><path d="M382.1055,102.1875 L392.1055,102.1875 C407.1055,102.1875 407.1055,111.3359 422.1055,111.3359 L432.1055,111.3359" fill="none" style="stroke:#0078D4;stroke-width:3;"/><text fill="#000000" font-family="sans-serif" font-size="14" lengthAdjust="spacing" textLength="69.4189" x="435.1055" y="134.4795">Genomics</text><path d="M382.1055,102.1875 L392.1055,102.1875 C407.1055,102.1875 407.1055,129.6328 422.1055,129.6328 L432.1055,129.6328" fill="none" style="stroke:#0078D4;stroke-width:3;"/><path d="M168.6123,167.2813 L178.6123,167.2813 C193.6123,167.2813 193.6123,102.1875 208.6123,102.1875 L218.6123,102.1875" fill="none" style="stroke:#FF5F46;stroke-width:3;"/><rect fill="#0078D4" height="36.2969" rx="12.5" ry="12.5" style="stroke:#0078D4;stroke-width:3;" width="169.2422" x="218.6123" y="148.7813"/><text fill="#FFFFFF" font-family="sans-serif" font-size="14" lengthAdjust="spacing" textLength="149.2422" x="228.6123" y="171.7764">Version Management</text><text fill="#000000" font-family="sans-serif" font-size="14" lengthAdjust="spacing" textLength="186.2725" x="440.8545" y="153.4795">Multiple versions available</text><path d="M387.8545,166.9297 L397.8545,166.9297 C412.8545,166.9297 412.8545,148.6328 427.8545,148.6328 L437.8545,148.6328" fill="none" style="stroke:#0078D4;stroke-width:3;"/><text fill="#000000" font-family="sans-serif" font-size="14" lengthAdjust="spacing" textLength="239.2441" x="440.8545" y="171.7764">Long-Term Support (LTS) releases</text><path d="M387.8545,166.9297 L397.8545,166.9297 C412.8545,166.9297 412.8545,166.9297 427.8545,166.9297 L437.8545,166.9297" fill="none" style="stroke:#0078D4;stroke-width:3;"/><text fill="#000000" font-family="sans-serif" font-size="14" lengthAdjust="spacing" textLength="221.7715" x="440.8545" y="190.0732">Specifies Spark version &amp; dates</text><path d="M387.8545,166.9297 L397.8545,166.9297 C412.8545,166.9297 412.8545,185.2266 427.8545,185.2266 L437.8545,185.2266" fill="none" style="stroke:#0078D4;stroke-width:3;"/><path d="M168.6123,167.2813 L178.6123,167.2813 C193.6123,167.2813 193.6123,166.9297 208.6123,166.9297 L218.6123,166.9297" fill="none" style="stroke:#FF5F46;stroke-width:3;"/><rect fill="#0078D4" height="36.2969" rx="12.5" ry="12.5" style="stroke:#0078D4;stroke-width:3;" width="133.6133" x="218.6123" y="213.5234"/><text fill="#FFFFFF" font-family="sans-serif" font-size="14" lengthAdjust="spacing" textLength="113.6133" x="228.6123" y="236.5186">Lifecycle Stages</text><text fill="#000000" font-family="sans-serif" font-size="14" lengthAdjust="spacing" textLength="260.2783" x="405.2256" y="209.0732">Legacy: available, not recommended</text><path d="M352.2256,231.6719 L362.2256,231.6719 C377.2256,231.6719 377.2256,204.2266 392.2256,204.2266 L402.2256,204.2266" fill="none" style="stroke:#0078D4;stroke-width:3;"/><text fill="#000000" font-family="sans-serif" font-size="14" lengthAdjust="spacing" textLength="230.1387" x="405.2256" y="227.3701">Deprecated: marked for removal</text><path d="M352.2256,231.6719 L362.2256,231.6719 C377.2256,231.6719 377.2256,222.5234 392.2256,222.5234 L402.2256,222.5234" fill="none" style="stroke:#0078D4;stroke-width:3;"/><text fill="#000000" font-family="sans-serif" font-size="14" lengthAdjust="spacing" textLength="231.8545" x="405.2256" y="245.667">End of Support: no more patches</text><path d="M352.2256,231.6719 L362.2256,231.6719 C377.2256,231.6719 377.2256,240.8203 392.2256,240.8203 L402.2256,240.8203" fill="none" style="stroke:#0078D4;stroke-width:3;"/><text fill="#000000" font-family="sans-serif" font-size="14" lengthAdjust="spacing" textLength="220.2402" x="405.2256" y="263.9639">End of Life: retired, unavailable</text><path d="M352.2256,231.6719 L362.2256,231.6719 C377.2256,231.6719 377.2256,259.1172 392.2256,259.1172 L402.2256,259.1172" fill="none" style="stroke:#0078D4;stroke-width:3;"/><path d="M168.6123,167.2813 L178.6123,167.2813 C193.6123,167.2813 193.6123,231.6719 208.6123,231.6719 L218.6123,231.6719" fill="none" style="stroke:#FF5F46;stroke-width:3;"/><rect fill="#0078D4" height="36.2969" rx="12.5" ry="12.5" style="stroke:#0078D4;stroke-width:3;" width="172.6055" x="218.6123" y="278.2656"/><text fill="#FFFFFF" font-family="sans-serif" font-size="14" lengthAdjust="spacing" textLength="152.6055" x="228.6123" y="301.2607">Maintenance Updates</text><text fill="#000000" font-family="sans-serif" font-size="14" lengthAdjust="spacing" textLength="186.2861" x="444.2178" y="301.2607">Apply by restarting cluster</text><path d="M391.2178,296.4141 L401.2178,296.4141 C416.2178,296.4141 416.2178,296.4141 431.2178,296.4141 L441.2178,296.4141" fill="none" style="stroke:#0078D4;stroke-width:3;"/><path d="M168.6123,167.2813 L178.6123,167.2813 C193.6123,167.2813 193.6123,296.4141 208.6123,296.4141 L218.6123,296.4141" fill="none" style="stroke:#FF5F46;stroke-width:3;"/><?plantuml-src VLFRRXCn47tVhnW92RLH2Tlq0aGLQca8Bq52JO17D6lF9bPya-sDM2h-dTcDqqkgOEtBZi-Souny7HE6P9IL1drn5LEhwMCnbkJJwgWyXli2-7n2iLu6rrXvwxGBy6ewlPYUN_PtCsNfPNNgRChLkZyFsCLAYRMb6E5iM1P_Trgd1xNAyjtxoVc-rbxrEUkUWsb_7hL61xNgklfGbljQUzN_QfNzOQtA_TOTvluWukfj7lS09fYm2amRuQwnIHag1WFukS84Yh_8VuDVSDl4v8pwGn9kF8eLmTnZM4FLA2qpvXk5sWM3LX0euuFRa26RyksDb2efPr63LbN0e2Y2ia8tacGdEVSa5EfUumU5oDZS-eKi1UwJR1MOLt0uPPVRow_iXYS3Cy9WkGhX8KNN6j2lNlGm8OSH7VrEYdaiBdl3cRVHINbDiCbU03UeD5OwKy-SNRvPK30mRxnt8S7HR34_Xa2QC5BstgUgkwpRWMKsUDsbwK6ys9f4ArXgdjX2RfpH4aKxVbGz0UiIimjdsELsQ8oRaESQSyan65RWwV4M66VS1lKMyzbASFNEvvY9mBX0u37nAkCpKETcpEr91P8dqDYdiNbAoYQo_Ow_-rs4RhtUwnQgbZlxTzrjWdSR4uNYcktktdbnEXoLeylXMKK9B_u1?></g></svg>