<svg xmlns="http://www.w3.org/2000/svg" xmlns:xlink="http://www.w3.org/1999/xlink" contentStyleType="text/css" data-diagram-type="MINDMAP" height="357px" preserveAspectRatio="none" style="width:762px;height:357px;background:#FFFFFF;" version="1.1" viewBox="0 0 762 357" width="762px" zoomAndPan="magnify"><?plantuml 1.2026.3beta5?><defs/><g><rect fill="#FF5F46" height="36.2969" rx="12.5" ry="12.5" style="stroke:#FF5F46;stroke-width:3;" width="94.9014" x="10" y="160.0391"/><text fill="#FFFFFF" font-family="sans-serif" font-size="14" lengthAdjust="spacing" textLength="74.9014" x="20" y="183.0342">Delta Lake</text><rect fill="#0078D4" height="36.2969" rx="12.5" ry="12.5" style="stroke:#0078D4;stroke-width:3;" width="86.2471" x="154.9014" y="20"/><text fill="#FFFFFF" font-family="sans-serif" font-size="14" lengthAdjust="spacing" textLength="66.2471" x="164.9014" y="42.9951">What it is</text><text fill="#000000" font-family="sans-serif" font-size="14" lengthAdjust="spacing" textLength="226.7207" x="294.1484" y="24.6982">Open-source storage framework</text><path d="M241.1484,38.1484 L251.1484,38.1484 C266.1484,38.1484 266.1484,19.8516 281.1484,19.8516 L291.1484,19.8516" fill="none" style="stroke:#0078D4;stroke-width:3;"/><text fill="#000000" font-family="sans-serif" font-size="14" lengthAdjust="spacing" textLength="220.8965" x="294.1484" y="42.9951">Adds transactions to data lakes</text><path d="M241.1484,38.1484 L251.1484,38.1484 C266.1484,38.1484 266.1484,38.1484 281.1484,38.1484 L291.1484,38.1484" fill="none" style="stroke:#0078D4;stroke-width:3;"/><text fill="#000000" font-family="sans-serif" font-size="14" lengthAdjust="spacing" textLength="235.9287" x="294.1484" y="61.292">Runs on Azure Data Lake Storage</text><path d="M241.1484,38.1484 L251.1484,38.1484 C266.1484,38.1484 266.1484,56.4453 281.1484,56.4453 L291.1484,56.4453" fill="none" style="stroke:#0078D4;stroke-width:3;"/><path d="M104.9014,178.1875 L114.9014,178.1875 C129.9014,178.1875 129.9014,38.1484 144.9014,38.1484 L154.9014,38.1484" fill="none" style="stroke:#FF5F46;stroke-width:3;"/><rect fill="#0078D4" height="36.2969" rx="12.5" ry="12.5" style="stroke:#0078D4;stroke-width:3;" width="111.7998" x="154.9014" y="160.0391"/><text fill="#FFFFFF" font-family="sans-serif" font-size="14" lengthAdjust="spacing" textLength="91.7998" x="164.9014" y="183.0342">Key Features</text><rect fill="#FFB900" height="36.2969" rx="12.5" ry="12.5" style="stroke:#FFB900;stroke-width:3;" width="148.1533" x="316.7012" y="75.5938"/><text fill="#000000" font-family="sans-serif" font-size="14" lengthAdjust="spacing" textLength="128.1533" x="326.7012" y="98.5889">ACID Transactions</text><text fill="#000000" font-family="sans-serif" font-size="14" lengthAdjust="spacing" textLength="160.0703" x="517.8545" y="89.4404">Atomicity, Consistency</text><path d="M464.8545,93.7422 L474.8545,93.7422 C489.8545,93.7422 489.8545,84.5938 504.8545,84.5938 L514.8545,84.5938" fill="none" style="stroke:#FFB900;stroke-width:3;"/><text fill="#000000" font-family="sans-serif" font-size="14" lengthAdjust="spacing" textLength="136.4932" x="517.8545" y="107.7373">Isolation, Durability</text><path d="M464.8545,93.7422 L474.8545,93.7422 C489.8545,93.7422 489.8545,102.8906 504.8545,102.8906 L514.8545,102.8906" fill="none" style="stroke:#FFB900;stroke-width:3;"/><path d="M266.7012,178.1875 L276.7012,178.1875 C291.7012,178.1875 291.7012,93.7422 306.7012,93.7422 L316.7012,93.7422" fill="none" style="stroke:#0078D4;stroke-width:3;"/><rect fill="#FFB900" height="36.2969" rx="12.5" ry="12.5" style="stroke:#FFB900;stroke-width:3;" width="149.7666" x="316.7012" y="131.8906"/><text fill="#000000" font-family="sans-serif" font-size="14" lengthAdjust="spacing" textLength="129.7666" x="326.7012" y="154.8857">Scalable Metadata</text><text fill="#000000" font-family="sans-serif" font-size="14" lengthAdjust="spacing" textLength="222.1133" x="519.4678" y="154.8857">Billions of files without perf loss</text><path d="M466.4678,150.0391 L476.4678,150.0391 C491.4678,150.0391 491.4678,150.0391 506.4678,150.0391 L516.4678,150.0391" fill="none" style="stroke:#FFB900;stroke-width:3;"/><path d="M266.7012,178.1875 L276.7012,178.1875 C291.7012,178.1875 291.7012,150.0391 306.7012,150.0391 L316.7012,150.0391" fill="none" style="stroke:#0078D4;stroke-width:3;"/><rect fill="#FFB900" height="36.2969" rx="12.5" ry="12.5" style="stroke:#FFB900;stroke-width:3;" width="132.0957" x="316.7012" y="188.1875"/><text fill="#000000" font-family="sans-serif" font-size="14" lengthAdjust="spacing" textLength="112.0957" x="326.7012" y="211.1826">Data Versioning</text><text fill="#000000" font-family="sans-serif" font-size="14" lengthAdjust="spacing" textLength="136.1309" x="501.7969" y="202.0342">Time travel queries</text><path d="M448.7969,206.3359 L458.7969,206.3359 C473.7969,206.3359 473.7969,197.1875 488.7969,197.1875 L498.7969,197.1875" fill="none" style="stroke:#FFB900;stroke-width:3;"/><text fill="#000000" font-family="sans-serif" font-size="14" lengthAdjust="spacing" textLength="189.6699" x="501.7969" y="220.3311">Rollback to previous states</text><path d="M448.7969,206.3359 L458.7969,206.3359 C473.7969,206.3359 473.7969,215.4844 488.7969,215.4844 L498.7969,215.4844" fill="none" style="stroke:#FFB900;stroke-width:3;"/><path d="M266.7012,178.1875 L276.7012,178.1875 C291.7012,178.1875 291.7012,206.3359 306.7012,206.3359 L316.7012,206.3359" fill="none" style="stroke:#0078D4;stroke-width:3;"/><rect fill="#FFB900" height="36.2969" rx="12.5" ry="12.5" style="stroke:#FFB900;stroke-width:3;" width="149.0898" x="316.7012" y="244.4844"/><text fill="#000000" font-family="sans-serif" font-size="14" lengthAdjust="spacing" textLength="129.0898" x="326.7012" y="267.4795">Unified Processing</text><text fill="#000000" font-family="sans-serif" font-size="14" lengthAdjust="spacing" textLength="219.9668" x="518.791" y="267.4795">Same table: batch + streaming</text><path d="M465.791,262.6328 L475.791,262.6328 C490.791,262.6328 490.791,262.6328 505.791,262.6328 L515.791,262.6328" fill="none" style="stroke:#FFB900;stroke-width:3;"/><path d="M266.7012,178.1875 L276.7012,178.1875 C291.7012,178.1875 291.7012,262.6328 306.7012,262.6328 L316.7012,262.6328" fill="none" style="stroke:#0078D4;stroke-width:3;"/><path d="M104.9014,178.1875 L114.9014,178.1875 C129.9014,178.1875 129.9014,178.1875 144.9014,178.1875 L154.9014,178.1875" fill="none" style="stroke:#FF5F46;stroke-width:3;"/><rect fill="#0078D4" height="36.2969" rx="12.5" ry="12.5" style="stroke:#0078D4;stroke-width:3;" width="107.6162" x="154.9014" y="300.0781"/><text fill="#FFFFFF" font-family="sans-serif" font-size="14" lengthAdjust="spacing" textLength="87.6162" x="164.9014" y="323.0732">Delta Tables</text><text fill="#000000" font-family="sans-serif" font-size="14" lengthAdjust="spacing" textLength="283.8076" x="315.5176" y="304.7764">Default table format in Azure Databricks</text><path d="M262.5176,318.2266 L272.5176,318.2266 C287.5176,318.2266 287.5176,299.9297 302.5176,299.9297 L312.5176,299.9297" fill="none" style="stroke:#0078D4;stroke-width:3;"/><text fill="#000000" font-family="sans-serif" font-size="14" lengthAdjust="spacing" textLength="208.5645" x="315.5176" y="323.0732">SQL queries &amp; DataFrame API</text><path d="M262.5176,318.2266 L272.5176,318.2266 C287.5176,318.2266 287.5176,318.2266 302.5176,318.2266 L312.5176,318.2266" fill="none" style="stroke:#0078D4;stroke-width:3;"/><text fill="#000000" font-family="sans-serif" font-size="14" lengthAdjust="spacing" textLength="253.9414" x="315.5176" y="341.3701">All new data stored with guarantees</text><path d="M262.5176,318.2266 L272.5176,318.2266 C287.5176,318.2266 287.5176,336.5234 302.5176,336.5234 L312.5176,336.5234" fill="none" style="stroke:#0078D4;stroke-width:3;"/><path d="M104.9014,178.1875 L114.9014,178.1875 C129.9014,178.1875 129.9014,318.2266 144.9014,318.2266 L154.9014,318.2266" fill="none" style="stroke:#FF5F46;stroke-width:3;"/><?plantuml-src VLFlRzCm4FsUl-8a90HbbApx0KmJMjSeKaKHOotm4LsIIsFLiOFjh9I9_vrpuh8HLAnyyVdTUy_tuYlhqBXQgAB69hgqRYVfNNHHKEEgP_5pk8-0rpNccxNHhIfcMce3JzBqB3qzxyuMGj6_rLGh5wfbj_vWLvN8DugiXPDn7FtQQnqVr8hZrs-Iqw7MeFetwy11sgq7hSb1hRBCtiRnK6jG_QzMt2tMolGFwJ7t1n6NhyAuHv2GT0WBt50q6i7N2Xq8_YplHj_WOqFgfTMjoGciqmRN1AN1chRQR7h8j2WiE8FAOkw4LhpHK22JIYODFBSjrxM2wS_M42GO967PSthfzxI3bD0ne6k2wMoUmEeHiQzwGQThaGktEu8PLuLrfF9TE9nRBT6ZZo1f3MP2Ch2ZM-OeCPC47yYXznSwheMKdMrTGYbuSB0LhjAjWuPC2LBRtavd-WiPos2Xrg5x9MhojxyZ2TzRCeBsDc-rb1cdxCVH6BeJkhKyGtJXUf-LA0KLS6DqpcazK2xHKtgh5v2XoojumNs6iEun8RALHuJn9bHYArtV1QKsjO_nyRWpmtzEG2y_BVPUuMbtclf8ONep3v5A2OgsVOe-ThRfXmBh5ZaFHwnxHVnmm-EDZiUJU78-Fibuj6U_0G00?></g></svg>