<svg xmlns="http://www.w3.org/2000/svg" xmlns:xlink="http://www.w3.org/1999/xlink" contentStyleType="text/css" data-diagram-type="MINDMAP" height="263px" preserveAspectRatio="none" style="width:603px;height:263px;background:#FFFFFF;" version="1.1" viewBox="0 0 603 263" width="603px" zoomAndPan="magnify"><?plantuml 1.2026.3beta5?><defs/><g><rect fill="#FF5F46" height="36.2969" rx="12.5" ry="12.5" style="stroke:#FF5F46;stroke-width:3;" width="127.2148" x="10" y="112.8906"/><text fill="#FFFFFF" font-family="sans-serif" font-size="14" lengthAdjust="spacing" textLength="107.2148" x="20" y="135.8857">Databricks SQL</text><rect fill="#0078D4" height="36.2969" rx="12.5" ry="12.5" style="stroke:#0078D4;stroke-width:3;" width="86.2471" x="187.2148" y="20"/><text fill="#FFFFFF" font-family="sans-serif" font-size="14" lengthAdjust="spacing" textLength="66.2471" x="197.2148" y="42.9951">What it is</text><text fill="#000000" font-family="sans-serif" font-size="14" lengthAdjust="spacing" textLength="224.5127" x="326.4619" y="24.6982">Data warehousing in Lakehouse</text><path d="M273.4619,38.1484 L283.4619,38.1484 C298.4619,38.1484 298.4619,19.8516 313.4619,19.8516 L323.4619,19.8516" fill="none" style="stroke:#0078D4;stroke-width:3;"/><text fill="#000000" font-family="sans-serif" font-size="14" lengthAdjust="spacing" textLength="256.1631" x="326.4619" y="42.9951">Query open format data in data lake</text><path d="M273.4619,38.1484 L283.4619,38.1484 C298.4619,38.1484 298.4619,38.1484 313.4619,38.1484 L323.4619,38.1484" fill="none" style="stroke:#0078D4;stroke-width:3;"/><text fill="#000000" font-family="sans-serif" font-size="14" lengthAdjust="spacing" textLength="123.4229" x="326.4619" y="61.292">ANSI SQL support</text><path d="M273.4619,38.1484 L283.4619,38.1484 C298.4619,38.1484 298.4619,56.4453 313.4619,56.4453 L323.4619,56.4453" fill="none" style="stroke:#0078D4;stroke-width:3;"/><path d="M137.2148,131.0391 L147.2148,131.0391 C162.2148,131.0391 162.2148,38.1484 177.2148,38.1484 L187.2148,38.1484" fill="none" style="stroke:#FF5F46;stroke-width:3;"/><rect fill="#0078D4" height="36.2969" rx="12.5" ry="12.5" style="stroke:#0078D4;stroke-width:3;" width="56.8662" x="187.2148" y="84.7422"/><text fill="#FFFFFF" font-family="sans-serif" font-size="14" lengthAdjust="spacing" textLength="36.8662" x="197.2148" y="107.7373">Tools</text><text fill="#000000" font-family="sans-serif" font-size="14" lengthAdjust="spacing" textLength="73.5889" x="297.0811" y="80.292">SQL Editor</text><path d="M244.0811,102.8906 L254.0811,102.8906 C269.0811,102.8906 269.0811,75.4453 284.0811,75.4453 L294.0811,75.4453" fill="none" style="stroke:#0078D4;stroke-width:3;"/><text fill="#000000" font-family="sans-serif" font-size="14" lengthAdjust="spacing" textLength="83.4941" x="297.0811" y="98.5889">Dashboards</text><path d="M244.0811,102.8906 L254.0811,102.8906 C269.0811,102.8906 269.0811,93.7422 284.0811,93.7422 L294.0811,93.7422" fill="none" style="stroke:#0078D4;stroke-width:3;"/><text fill="#000000" font-family="sans-serif" font-size="14" lengthAdjust="spacing" textLength="126.9912" x="297.0811" y="116.8857">Visualization tools</text><path d="M244.0811,102.8906 L254.0811,102.8906 C269.0811,102.8906 269.0811,112.0391 284.0811,112.0391 L294.0811,112.0391" fill="none" style="stroke:#0078D4;stroke-width:3;"/><text fill="#000000" font-family="sans-serif" font-size="14" lengthAdjust="spacing" textLength="196.123" x="297.0811" y="135.1826">External BI tool integrations</text><path d="M244.0811,102.8906 L254.0811,102.8906 C269.0811,102.8906 269.0811,130.3359 284.0811,130.3359 L294.0811,130.3359" fill="none" style="stroke:#0078D4;stroke-width:3;"/><path d="M137.2148,131.0391 L147.2148,131.0391 C162.2148,131.0391 162.2148,102.8906 177.2148,102.8906 L187.2148,102.8906" fill="none" style="stroke:#FF5F46;stroke-width:3;"/><rect fill="#0078D4" height="36.2969" rx="12.5" ry="12.5" style="stroke:#0078D4;stroke-width:3;" width="109.5303" x="187.2148" y="149.4844"/><text fill="#FFFFFF" font-family="sans-serif" font-size="14" lengthAdjust="spacing" textLength="89.5303" x="197.2148" y="172.4795">Target Users</text><text fill="#000000" font-family="sans-serif" font-size="14" lengthAdjust="spacing" textLength="197.8184" x="349.7451" y="163.3311">Analysts and business users</text><path d="M296.7451,167.6328 L306.7451,167.6328 C321.7451,167.6328 321.7451,158.4844 336.7451,158.4844 L346.7451,158.4844" fill="none" style="stroke:#0078D4;stroke-width:3;"/><text fill="#000000" font-family="sans-serif" font-size="14" lengthAdjust="spacing" textLength="227.4521" x="349.7451" y="181.6279">No need to learn new languages</text><path d="M296.7451,167.6328 L306.7451,167.6328 C321.7451,167.6328 321.7451,176.7813 336.7451,176.7813 L346.7451,176.7813" fill="none" style="stroke:#0078D4;stroke-width:3;"/><path d="M137.2148,131.0391 L147.2148,131.0391 C162.2148,131.0391 162.2148,167.6328 177.2148,167.6328 L187.2148,167.6328" fill="none" style="stroke:#FF5F46;stroke-width:3;"/><rect fill="#0078D4" height="36.2969" rx="12.5" ry="12.5" style="stroke:#0078D4;stroke-width:3;" width="118.2666" x="187.2148" y="205.7813"/><text fill="#FFFFFF" font-family="sans-serif" font-size="14" lengthAdjust="spacing" textLength="98.2666" x="197.2148" y="228.7764">Requirements</text><text fill="#000000" font-family="sans-serif" font-size="14" lengthAdjust="spacing" textLength="125.1113" x="358.4814" y="219.6279">Premium tier only</text><path d="M305.4814,223.9297 L315.4814,223.9297 C330.4814,223.9297 330.4814,214.7813 345.4814,214.7813 L355.4814,214.7813" fill="none" style="stroke:#0078D4;stroke-width:3;"/><text fill="#000000" font-family="sans-serif" font-size="14" lengthAdjust="spacing" textLength="179.5664" x="358.4814" y="237.9248">Runs on SQL Warehouses</text><path d="M305.4814,223.9297 L315.4814,223.9297 C330.4814,223.9297 330.4814,233.0781 345.4814,233.0781 L355.4814,233.0781" fill="none" style="stroke:#0078D4;stroke-width:3;"/><path d="M137.2148,131.0391 L147.2148,131.0391 C162.2148,131.0391 162.2148,223.9297 177.2148,223.9297 L187.2148,223.9297" fill="none" style="stroke:#FF5F46;stroke-width:3;"/><?plantuml-src VPFRQjn038Rl_HI2thHxiNKsXxOXX2HD384bD8Ssbq6EjVQmOuqxeo7PXhvxvLcdInssmc3qwvU-6M6V144lhU6gnIux2hAoT9mTLjH9ypx_02yPQ9pXuxBsBdBrrLdduLrHx1Tx1wasDqnlrSAn3EeYnL_lNMCUbqmXmEuqptw_idQsilByq-VplJ5hfFuxTNI28iM6DTlAMYpABta-PetK_xBo5CegtRFjFIzR7KSVXtLFu1m5IwzZ0znUpxF91EuR533w1Cqc3ya1J-YfSJ4Ohi4mp76PKbfRhYFv5RYE61REjzfVzKrgJ6-hxhNnzEhsikT0Y5tdlFIyE-ViWEeh5vKHvr_HeIaT-cge_p0XeZM_K8nZa4tZnREGPxHmTfbaHGlLFlb2Wg2lIU1x83-qdAfz5IG0SWLbVxD-Pt5Zk7B0H9NE0qleMRCdlGhN4MjAGs_ePpIUMc8PUhvfPc8BOiY3OxjQopUHWwRfVlV39dN42Ud7F_m0sSvqbiyEfhib2Ux_0G00?></g></svg>