<svg xmlns="http://www.w3.org/2000/svg" xmlns:xlink="http://www.w3.org/1999/xlink" contentStyleType="text/css" data-diagram-type="MINDMAP" height="279px" preserveAspectRatio="none" style="width:620px;height:279px;background:#FFFFFF;" version="1.1" viewBox="0 0 620 279" width="620px" zoomAndPan="magnify"><?plantuml 1.2026.3beta5?><defs/><g><rect fill="#FF5F46" height="36.2969" rx="12.5" ry="12.5" style="stroke:#FF5F46;stroke-width:3;" width="115.2588" x="10" y="120.9844"/><text fill="#FFFFFF" font-family="sans-serif" font-size="14" lengthAdjust="spacing" textLength="95.2588" x="20" y="143.9795">Lakeflow Jobs</text><rect fill="#0078D4" height="36.2969" rx="12.5" ry="12.5" style="stroke:#0078D4;stroke-width:3;" width="76.4307" x="175.2588" y="20"/><text fill="#FFFFFF" font-family="sans-serif" font-size="14" lengthAdjust="spacing" textLength="56.4307" x="185.2588" y="42.9951">Purpose</text><text fill="#000000" font-family="sans-serif" font-size="14" lengthAdjust="spacing" textLength="150.0967" x="304.6895" y="24.6982">Workflow automation</text><path d="M251.6895,38.1484 L261.6895,38.1484 C276.6895,38.1484 276.6895,19.8516 291.6895,19.8516 L301.6895,19.8516" fill="none" style="stroke:#0078D4;stroke-width:3;"/><text fill="#000000" font-family="sans-serif" font-size="14" lengthAdjust="spacing" textLength="191.0371" x="304.6895" y="42.9951">Orchestration of data tasks</text><path d="M251.6895,38.1484 L261.6895,38.1484 C276.6895,38.1484 276.6895,38.1484 291.6895,38.1484 L301.6895,38.1484" fill="none" style="stroke:#0078D4;stroke-width:3;"/><text fill="#000000" font-family="sans-serif" font-size="14" lengthAdjust="spacing" textLength="196.3555" x="304.6895" y="61.292">Production-grade workloads</text><path d="M251.6895,38.1484 L261.6895,38.1484 C276.6895,38.1484 276.6895,56.4453 291.6895,56.4453 L301.6895,56.4453" fill="none" style="stroke:#0078D4;stroke-width:3;"/><path d="M125.2588,139.1328 L135.2588,139.1328 C150.2588,139.1328 150.2588,38.1484 165.2588,38.1484 L175.2588,38.1484" fill="none" style="stroke:#FF5F46;stroke-width:3;"/><rect fill="#0078D4" height="36.2969" rx="12.5" ry="12.5" style="stroke:#0078D4;stroke-width:3;" width="111.4648" x="175.2588" y="84.0391"/><text fill="#FFFFFF" font-family="sans-serif" font-size="14" lengthAdjust="spacing" textLength="91.4648" x="185.2588" y="107.0342">Job Structure</text><rect fill="#FFB900" height="36.2969" rx="12.5" ry="12.5" style="stroke:#FFB900;stroke-width:3;" width="59.8262" x="336.7236" y="84.0391"/><text fill="#000000" font-family="sans-serif" font-size="14" lengthAdjust="spacing" textLength="39.8262" x="346.7236" y="107.0342">Tasks</text><text fill="#000000" font-family="sans-serif" font-size="14" lengthAdjust="spacing" textLength="110.6191" x="449.5498" y="79.5889">Run a notebook</text><path d="M396.5498,102.1875 L406.5498,102.1875 C421.5498,102.1875 421.5498,74.7422 436.5498,74.7422 L446.5498,74.7422" fill="none" style="stroke:#FFB900;stroke-width:3;"/><text fill="#000000" font-family="sans-serif" font-size="14" lengthAdjust="spacing" textLength="126.875" x="449.5498" y="97.8857">Execute Spark job</text><path d="M396.5498,102.1875 L406.5498,102.1875 C421.5498,102.1875 421.5498,93.0391 436.5498,93.0391 L446.5498,93.0391" fill="none" style="stroke:#FFB900;stroke-width:3;"/><text fill="#000000" font-family="sans-serif" font-size="14" lengthAdjust="spacing" textLength="126.8955" x="449.5498" y="116.1826">Call external code</text><path d="M396.5498,102.1875 L406.5498,102.1875 C421.5498,102.1875 421.5498,111.3359 436.5498,111.3359 L446.5498,111.3359" fill="none" style="stroke:#FFB900;stroke-width:3;"/><text fill="#000000" font-family="sans-serif" font-size="14" lengthAdjust="spacing" textLength="150.3223" x="449.5498" y="134.4795">Multiple tasks per job</text><path d="M396.5498,102.1875 L406.5498,102.1875 C421.5498,102.1875 421.5498,129.6328 436.5498,129.6328 L446.5498,129.6328" fill="none" style="stroke:#FFB900;stroke-width:3;"/><path d="M286.7236,102.1875 L296.7236,102.1875 C311.7236,102.1875 311.7236,102.1875 326.7236,102.1875 L336.7236,102.1875" fill="none" style="stroke:#0078D4;stroke-width:3;"/><path d="M125.2588,139.1328 L135.2588,139.1328 C150.2588,139.1328 150.2588,102.1875 165.2588,102.1875 L175.2588,102.1875" fill="none" style="stroke:#FF5F46;stroke-width:3;"/><rect fill="#0078D4" height="36.2969" rx="12.5" ry="12.5" style="stroke:#0078D4;stroke-width:3;" width="120.2285" x="175.2588" y="148.7813"/><text fill="#FFFFFF" font-family="sans-serif" font-size="14" lengthAdjust="spacing" textLength="100.2285" x="185.2588" y="171.7764">Trigger Modes</text><text fill="#000000" font-family="sans-serif" font-size="14" lengthAdjust="spacing" textLength="163.1943" x="348.4873" y="153.4795">Schedule (e.g., nightly)</text><path d="M295.4873,166.9297 L305.4873,166.9297 C320.4873,166.9297 320.4873,148.6328 335.4873,148.6328 L345.4873,148.6328" fill="none" style="stroke:#0078D4;stroke-width:3;"/><text fill="#000000" font-family="sans-serif" font-size="14" lengthAdjust="spacing" textLength="89.4619" x="348.4873" y="171.7764">Event-driven</text><path d="M295.4873,166.9297 L305.4873,166.9297 C320.4873,166.9297 320.4873,166.9297 335.4873,166.9297 L345.4873,166.9297" fill="none" style="stroke:#0078D4;stroke-width:3;"/><text fill="#000000" font-family="sans-serif" font-size="14" lengthAdjust="spacing" textLength="102.6006" x="348.4873" y="190.0732">Manual trigger</text><path d="M295.4873,166.9297 L305.4873,166.9297 C320.4873,166.9297 320.4873,185.2266 335.4873,185.2266 L345.4873,185.2266" fill="none" style="stroke:#0078D4;stroke-width:3;"/><path d="M125.2588,139.1328 L135.2588,139.1328 C150.2588,139.1328 150.2588,166.9297 165.2588,166.9297 L175.2588,166.9297" fill="none" style="stroke:#FF5F46;stroke-width:3;"/><rect fill="#0078D4" height="36.2969" rx="12.5" ry="12.5" style="stroke:#0078D4;stroke-width:3;" width="92.1602" x="175.2588" y="213.5234"/><text fill="#FFFFFF" font-family="sans-serif" font-size="14" lengthAdjust="spacing" textLength="72.1602" x="185.2588" y="236.5186">Use Cases</text><text fill="#000000" font-family="sans-serif" font-size="14" lengthAdjust="spacing" textLength="92.4834" x="320.4189" y="209.0732">ETL pipelines</text><path d="M267.4189,231.6719 L277.4189,231.6719 C292.4189,231.6719 292.4189,204.2266 307.4189,204.2266 L317.4189,204.2266" fill="none" style="stroke:#0078D4;stroke-width:3;"/><text fill="#000000" font-family="sans-serif" font-size="14" lengthAdjust="spacing" textLength="126.6084" x="320.4189" y="227.3701">ML model training</text><path d="M267.4189,231.6719 L277.4189,231.6719 C292.4189,231.6719 292.4189,222.5234 307.4189,222.5234 L317.4189,222.5234" fill="none" style="stroke:#0078D4;stroke-width:3;"/><text fill="#000000" font-family="sans-serif" font-size="14" lengthAdjust="spacing" textLength="146.3916" x="320.4189" y="245.667">Dashboard refreshes</text><path d="M267.4189,231.6719 L277.4189,231.6719 C292.4189,231.6719 292.4189,240.8203 307.4189,240.8203 L317.4189,240.8203" fill="none" style="stroke:#0078D4;stroke-width:3;"/><text fill="#000000" font-family="sans-serif" font-size="14" lengthAdjust="spacing" textLength="194.209" x="320.4189" y="263.9639">Consistent, repeatable runs</text><path d="M267.4189,231.6719 L277.4189,231.6719 C292.4189,231.6719 292.4189,259.1172 307.4189,259.1172 L317.4189,259.1172" fill="none" style="stroke:#0078D4;stroke-width:3;"/><path d="M125.2588,139.1328 L135.2588,139.1328 C150.2588,139.1328 150.2588,231.6719 165.2588,231.6719 L175.2588,231.6719" fill="none" style="stroke:#FF5F46;stroke-width:3;"/><?plantuml-src VPDRRvj048NV-HKZzIMn4agSIo-AggYE_L3PQbIxwcEri0DiMU-WsTt6KPJ_tZ7WLgLovmKuvynymoBkV50SjiRfhMgJMn-UB7v8tcjiGtsIdS9p0b8VLT5KJD7f6LbYUBLON2-kRZflQHp-gox8XK4jk_gTtTIcQ1nw3vTfbhmSM1T7MLdsvktzrPWrKl-UEjfWqTKVrlGegoppTrasPetK_xAoheILqyxkCyz74xUlX-EUm58rM5fwX4-K-sGoWOV8BNcKsybt-4RSTAwAWROg67AzyPcB6dtWJW8gGQkW82ZV-3xmmAHZiNVFArOQuL56MLAwWmWCre4b4Bb3mURGAhrVeWC5ZWBcHCqWpdTOn82mRXKty8FoGPyfQm5t0Taf2mLf78nLjC6q5lkje4KUkc33fghaSINXOTsrl8wE4Zx1j4hFm9cg3lRfj7VdFz65Syr6hhsoKYuABlIJzaE_UfHT_67WVBE4rhHevRCDqce9Mo7kkvHnnbMzVAzydPDY3OmbewyF-HavRtmGz9bOBSe9vx8XH-UJEvJ_PlXtaejqcarlqiiSWxh-1G00?></g></svg>