<?plantuml 1.2026.2?><svg xmlns="http://www.w3.org/2000/svg" xmlns:xlink="http://www.w3.org/1999/xlink" contentStyleType="text/css" data-diagram-type="MINDMAP" height="282px" preserveAspectRatio="none" style="width:602px;height:282px;background:#FFFFFF;" version="1.1" viewBox="0 0 602 282" width="602px" zoomAndPan="magnify"><defs/><g><rect fill="#091F2C" height="36.4883" rx="12.5" ry="12.5" style="stroke:#181818;stroke-width:3;" width="113.0918" x="10" y="121.9414"/><text fill="#FFFFFF" font-family="sans-serif" font-size="14" lengthAdjust="spacing" textLength="93.0918" x="20" y="145.4766">Lakeflow Jobs</text><rect fill="#FFB900" height="36.4883" rx="12.5" ry="12.5" style="stroke:#FFB900;stroke-width:3;" width="74.5029" x="173.0918" y="20"/><text fill="#000000" font-family="sans-serif" font-size="14" lengthAdjust="spacing" textLength="54.5029" x="183.0918" y="43.5352">Purpose</text><text fill="#000000" font-family="sans-serif" font-size="14" lengthAdjust="spacing" textLength="145.127" x="300.5947" y="25.0469">Workflow automation</text><path d="M247.5947,38.2441 L257.5947,38.2441 C272.5947,38.2441 272.5947,19.7559 287.5947,19.7559 L297.5947,19.7559" fill="none" style="stroke:#FFB900;stroke-width:3;"/><text fill="#000000" font-family="sans-serif" font-size="14" lengthAdjust="spacing" textLength="184.6387" x="300.5947" y="43.5352">Orchestration of data tasks</text><path d="M247.5947,38.2441 L257.5947,38.2441 C272.5947,38.2441 272.5947,38.2441 287.5947,38.2441 L297.5947,38.2441" fill="none" style="stroke:#FFB900;stroke-width:3;"/><text fill="#000000" font-family="sans-serif" font-size="14" lengthAdjust="spacing" textLength="194.2637" x="300.5947" y="62.0234">Production-grade workloads</text><path d="M247.5947,38.2441 L257.5947,38.2441 C272.5947,38.2441 272.5947,56.7324 287.5947,56.7324 L297.5947,56.7324" fill="none" style="stroke:#FFB900;stroke-width:3;"/><path d="M123.0918,140.1855 L133.0918,140.1855 C148.0918,140.1855 148.0918,38.2441 163.0918,38.2441 L173.0918,38.2441" fill="none" style="stroke:#181818;stroke-width:3;"/><rect fill="#FFB900" height="36.4883" rx="12.5" ry="12.5" style="stroke:#FFB900;stroke-width:3;" width="108.0127" x="173.0918" y="84.709"/><text fill="#000000" font-family="sans-serif" font-size="14" lengthAdjust="spacing" textLength="88.0127" x="183.0918" y="108.2441">Job Structure</text><rect fill="#F4364C" height="36.4883" rx="12.5" ry="12.5" style="stroke:#F4364C;stroke-width:3;" width="59.04" x="331.1045" y="84.709"/><text fill="#FFFFFF" font-family="sans-serif" font-size="14" lengthAdjust="spacing" textLength="39.04" x="341.1045" y="108.2441">Tasks</text><text fill="#000000" font-family="sans-serif" font-size="14" lengthAdjust="spacing" textLength="107.3379" x="443.1445" y="80.5117">Run a notebook</text><path d="M390.1445,102.9531 L400.1445,102.9531 C415.1445,102.9531 415.1445,75.2207 430.1445,75.2207 L440.1445,75.2207" fill="none" style="stroke:#F4364C;stroke-width:3;"/><text fill="#000000" font-family="sans-serif" font-size="14" lengthAdjust="spacing" textLength="121.3926" x="443.1445" y="99">Execute Spark job</text><path d="M390.1445,102.9531 L400.1445,102.9531 C415.1445,102.9531 415.1445,93.709 430.1445,93.709 L440.1445,93.709" fill="none" style="stroke:#F4364C;stroke-width:3;"/><text fill="#000000" font-family="sans-serif" font-size="14" lengthAdjust="spacing" textLength="122.3701" x="443.1445" y="117.4883">Call external code</text><path d="M390.1445,102.9531 L400.1445,102.9531 C415.1445,102.9531 415.1445,112.1973 430.1445,112.1973 L440.1445,112.1973" fill="none" style="stroke:#F4364C;stroke-width:3;"/><text fill="#000000" font-family="sans-serif" font-size="14" lengthAdjust="spacing" textLength="147.458" x="443.1445" y="135.9766">Multiple tasks per job</text><path d="M390.1445,102.9531 L400.1445,102.9531 C415.1445,102.9531 415.1445,130.6855 430.1445,130.6855 L440.1445,130.6855" fill="none" style="stroke:#F4364C;stroke-width:3;"/><path d="M281.1045,102.9531 L291.1045,102.9531 C306.1045,102.9531 306.1045,102.9531 321.1045,102.9531 L331.1045,102.9531" fill="none" style="stroke:#FFB900;stroke-width:3;"/><path d="M123.0918,140.1855 L133.0918,140.1855 C148.0918,140.1855 148.0918,102.9531 163.0918,102.9531 L173.0918,102.9531" fill="none" style="stroke:#181818;stroke-width:3;"/><rect fill="#FFB900" height="36.4883" rx="12.5" ry="12.5" style="stroke:#FFB900;stroke-width:3;" width="118.4512" x="173.0918" y="149.9297"/><text fill="#000000" font-family="sans-serif" font-size="14" lengthAdjust="spacing" textLength="98.4512" x="183.0918" y="173.4648">Trigger Modes</text><text fill="#000000" font-family="sans-serif" font-size="14" lengthAdjust="spacing" textLength="155.0801" x="344.543" y="154.9766">Schedule (e.g., nightly)</text><path d="M291.543,168.1738 L301.543,168.1738 C316.543,168.1738 316.543,149.6855 331.543,149.6855 L341.543,149.6855" fill="none" style="stroke:#FFB900;stroke-width:3;"/><text fill="#000000" font-family="sans-serif" font-size="14" lengthAdjust="spacing" textLength="86.9805" x="344.543" y="173.4648">Event-driven</text><path d="M291.543,168.1738 L301.543,168.1738 C316.543,168.1738 316.543,168.1738 331.543,168.1738 L341.543,168.1738" fill="none" style="stroke:#FFB900;stroke-width:3;"/><text fill="#000000" font-family="sans-serif" font-size="14" lengthAdjust="spacing" textLength="99.374" x="344.543" y="191.9531">Manual trigger</text><path d="M291.543,168.1738 L301.543,168.1738 C316.543,168.1738 316.543,186.6621 331.543,186.6621 L341.543,186.6621" fill="none" style="stroke:#FFB900;stroke-width:3;"/><path d="M123.0918,140.1855 L133.0918,140.1855 C148.0918,140.1855 148.0918,168.1738 163.0918,168.1738 L173.0918,168.1738" fill="none" style="stroke:#181818;stroke-width:3;"/><rect fill="#FFB900" height="36.4883" rx="12.5" ry="12.5" style="stroke:#FFB900;stroke-width:3;" width="88.5576" x="173.0918" y="215.1504"/><text fill="#000000" font-family="sans-serif" font-size="14" lengthAdjust="spacing" textLength="68.5576" x="183.0918" y="238.6855">Use Cases</text><text fill="#000000" font-family="sans-serif" font-size="14" lengthAdjust="spacing" textLength="89.5234" x="314.6494" y="210.9531">ETL pipelines</text><path d="M261.6494,233.3945 L271.6494,233.3945 C286.6494,233.3945 286.6494,205.6621 301.6494,205.6621 L311.6494,205.6621" fill="none" style="stroke:#FFB900;stroke-width:3;"/><text fill="#000000" font-family="sans-serif" font-size="14" lengthAdjust="spacing" textLength="123.6074" x="314.6494" y="229.4414">ML model training</text><path d="M261.6494,233.3945 L271.6494,233.3945 C286.6494,233.3945 286.6494,224.1504 301.6494,224.1504 L311.6494,224.1504" fill="none" style="stroke:#FFB900;stroke-width:3;"/><text fill="#000000" font-family="sans-serif" font-size="14" lengthAdjust="spacing" textLength="141.1211" x="314.6494" y="247.9297">Dashboard refreshes</text><path d="M261.6494,233.3945 L271.6494,233.3945 C286.6494,233.3945 286.6494,242.6387 301.6494,242.6387 L311.6494,242.6387" fill="none" style="stroke:#FFB900;stroke-width:3;"/><text fill="#000000" font-family="sans-serif" font-size="14" lengthAdjust="spacing" textLength="187.2842" x="314.6494" y="266.418">Consistent, repeatable runs</text><path d="M261.6494,233.3945 L271.6494,233.3945 C286.6494,233.3945 286.6494,261.127 301.6494,261.127 L311.6494,261.127" fill="none" style="stroke:#FFB900;stroke-width:3;"/><path d="M123.0918,140.1855 L133.0918,140.1855 C148.0918,140.1855 148.0918,233.3945 163.0918,233.3945 L173.0918,233.3945" fill="none" style="stroke:#181818;stroke-width:3;"/><?plantuml-src VLFHQjim57ttLrpOInjQpqbBeQECiYnx60ahIqOVXsnTsveLNNCbhIcb_xuRMrdfjamljiyvzvmZ6Ttwe3XiZTDRrMStFZnQV9-zqzY7zgGuXQSCP7rGLTSmHQVdP8dXJN4zhMVLm7qY5n9Q3sj0byRXfZLLvz1xkCYBxFdWEZtgMjVbTL7ydlyt-jhrZmR5i5woPiUpBY-kBgk_ibwZ_yrAkttEIjhPlURfQ9kRj-bW9x1K7TQM7k0pbJwRJE0kSayUvNNo7Uw9ku5LCT1M1KDk9BvmrQ8FF410DMWL50JbEpyAxfXqhFRiUSDA8po8bIMbXn09WtLW4KGUec1p69NPhz610aS1Iw8kWOiTLZ4Wh7l57VoWCk5pPItWBY0xPQ4YZObOHHjCRt5i1Jroce8DcwQHpvM8KzsrR4T74PzWtkHdu4pJ1ljuEhABd-Z2kMOZpn5PAHSbBenEUzDl7gMBFnWkDaleJOzMVbk2LalOIk9-IXbdN3F27vLlIrAiWR5czEr1FoVdZGyIVIPKZtB2fJJaw7nsYt93qYt9flcic5tbiry0?></g></svg>