<?plantuml 1.2026.2?><svg xmlns="http://www.w3.org/2000/svg" xmlns:xlink="http://www.w3.org/1999/xlink" contentStyleType="text/css" data-diagram-type="MINDMAP" height="284px" preserveAspectRatio="none" style="width:739px;height:284px;background:#FFFFFF;" version="1.1" viewBox="0 0 739 284" width="739px" zoomAndPan="magnify"><defs/><g><rect fill="#091F2C" height="36.4883" rx="12.5" ry="12.5" style="stroke:#181818;stroke-width:3;" width="68.1045" x="10" y="123.2207"/><text fill="#FFFFFF" font-family="sans-serif" font-size="14" lengthAdjust="spacing" textLength="48.1045" x="20" y="146.7559">MLflow</text><rect fill="#FFB900" height="36.4883" rx="12.5" ry="12.5" style="stroke:#FFB900;stroke-width:3;" width="74.5029" x="128.1045" y="20"/><text fill="#000000" font-family="sans-serif" font-size="14" lengthAdjust="spacing" textLength="54.5029" x="138.1045" y="43.5352">Purpose</text><text fill="#000000" font-family="sans-serif" font-size="14" lengthAdjust="spacing" textLength="226.1533" x="255.6074" y="34.291">End-to-end ML lifecycle platform</text><path d="M202.6074,38.2441 L212.6074,38.2441 C227.6074,38.2441 227.6074,29 242.6074,29 L252.6074,29" fill="none" style="stroke:#FFB900;stroke-width:3;"/><text fill="#000000" font-family="sans-serif" font-size="14" lengthAdjust="spacing" textLength="261.9258" x="255.6074" y="52.7793">Open-source, integrated in Databricks</text><path d="M202.6074,38.2441 L212.6074,38.2441 C227.6074,38.2441 227.6074,47.4883 242.6074,47.4883 L252.6074,47.4883" fill="none" style="stroke:#FFB900;stroke-width:3;"/><path d="M78.1045,141.4648 L88.1045,141.4648 C103.1045,141.4648 103.1045,38.2441 118.1045,38.2441 L128.1045,38.2441" fill="none" style="stroke:#181818;stroke-width:3;"/><rect fill="#FFB900" height="36.4883" rx="12.5" ry="12.5" style="stroke:#FFB900;stroke-width:3;" width="135.377" x="128.1045" y="123.2207"/><text fill="#000000" font-family="sans-serif" font-size="14" lengthAdjust="spacing" textLength="115.377" x="138.1045" y="146.7559">Core Capabilities</text><rect fill="#F4364C" height="36.4883" rx="12.5" ry="12.5" style="stroke:#F4364C;stroke-width:3;" width="160.916" x="313.4814" y="66.7324"/><text fill="#FFFFFF" font-family="sans-serif" font-size="14" lengthAdjust="spacing" textLength="140.916" x="323.4814" y="90.2676">Experiment Tracking</text><text fill="#000000" font-family="sans-serif" font-size="14" lengthAdjust="spacing" textLength="174.8086" x="527.3975" y="81.0234">Log parameters &amp; metrics</text><path d="M474.3975,84.9766 L484.3975,84.9766 C499.3975,84.9766 499.3975,75.7324 514.3975,75.7324 L524.3975,75.7324" fill="none" style="stroke:#F4364C;stroke-width:3;"/><text fill="#000000" font-family="sans-serif" font-size="14" lengthAdjust="spacing" textLength="96.0996" x="527.3975" y="99.5117">Compare runs</text><path d="M474.3975,84.9766 L484.3975,84.9766 C499.3975,84.9766 499.3975,94.2207 514.3975,94.2207 L524.3975,94.2207" fill="none" style="stroke:#F4364C;stroke-width:3;"/><path d="M263.4814,141.4648 L273.4814,141.4648 C288.4814,141.4648 288.4814,84.9766 303.4814,84.9766 L313.4814,84.9766" fill="none" style="stroke:#FFB900;stroke-width:3;"/><rect fill="#F4364C" height="36.4883" rx="12.5" ry="12.5" style="stroke:#F4364C;stroke-width:3;" width="153.2803" x="313.4814" y="123.2207"/><text fill="#FFFFFF" font-family="sans-serif" font-size="14" lengthAdjust="spacing" textLength="133.2803" x="323.4814" y="146.7559">Model Management</text><text fill="#000000" font-family="sans-serif" font-size="14" lengthAdjust="spacing" textLength="192.5615" x="519.7617" y="137.5117">Register and version models</text><path d="M466.7617,141.4648 L476.7617,141.4648 C491.7617,141.4648 491.7617,132.2207 506.7617,132.2207 L516.7617,132.2207" fill="none" style="stroke:#F4364C;stroke-width:3;"/><text fill="#000000" font-family="sans-serif" font-size="14" lengthAdjust="spacing" textLength="207.7441" x="519.7617" y="156">Promote models to production</text><path d="M466.7617,141.4648 L476.7617,141.4648 C491.7617,141.4648 491.7617,150.709 506.7617,150.709 L516.7617,150.709" fill="none" style="stroke:#F4364C;stroke-width:3;"/><path d="M263.4814,141.4648 L273.4814,141.4648 C288.4814,141.4648 288.4814,141.4648 303.4814,141.4648 L313.4814,141.4648" fill="none" style="stroke:#FFB900;stroke-width:3;"/><rect fill="#F4364C" height="36.4883" rx="12.5" ry="12.5" style="stroke:#F4364C;stroke-width:3;" width="101.8535" x="313.4814" y="179.709"/><text fill="#FFFFFF" font-family="sans-serif" font-size="14" lengthAdjust="spacing" textLength="81.8535" x="323.4814" y="203.2441">Deployment</text><text fill="#000000" font-family="sans-serif" font-size="14" lengthAdjust="spacing" textLength="181.5557" x="468.335" y="203.2441">Serve models as endpoints</text><path d="M415.335,197.9531 L425.335,197.9531 C440.335,197.9531 440.335,197.9531 455.335,197.9531 L465.335,197.9531" fill="none" style="stroke:#F4364C;stroke-width:3;"/><path d="M263.4814,141.4648 L273.4814,141.4648 C288.4814,141.4648 288.4814,197.9531 303.4814,197.9531 L313.4814,197.9531" fill="none" style="stroke:#FFB900;stroke-width:3;"/><path d="M78.1045,141.4648 L88.1045,141.4648 C103.1045,141.4648 103.1045,141.4648 118.1045,141.4648 L128.1045,141.4648" fill="none" style="stroke:#181818;stroke-width:3;"/><rect fill="#FFB900" height="36.4883" rx="12.5" ry="12.5" style="stroke:#FFB900;stroke-width:3;" width="110.3164" x="128.1045" y="226.4414"/><text fill="#000000" font-family="sans-serif" font-size="14" lengthAdjust="spacing" textLength="90.3164" x="138.1045" y="249.9766">Generative AI</text><text fill="#000000" font-family="sans-serif" font-size="14" lengthAdjust="spacing" textLength="181.7676" x="291.4209" y="240.7324">Supports gen AI workflows</text><path d="M238.4209,244.6855 L248.4209,244.6855 C263.4209,244.6855 263.4209,235.4414 278.4209,235.4414 L288.4209,235.4414" fill="none" style="stroke:#FFB900;stroke-width:3;"/><text fill="#000000" font-family="sans-serif" font-size="14" lengthAdjust="spacing" textLength="213.3359" x="291.4209" y="259.2207">Evaluate and improve AI agents</text><path d="M238.4209,244.6855 L248.4209,244.6855 C263.4209,244.6855 263.4209,253.9297 278.4209,253.9297 L288.4209,253.9297" fill="none" style="stroke:#FFB900;stroke-width:3;"/><path d="M78.1045,141.4648 L88.1045,141.4648 C103.1045,141.4648 103.1045,244.6855 118.1045,244.6855 L128.1045,244.6855" fill="none" style="stroke:#181818;stroke-width:3;"/><?plantuml-src VPDXQzim48Q_-rSS3CPcbinnIw6ZZ6vfDmO9Ask_3yK-koAIJfpEQKFfV-_PSRfrMwPFuhrNpzszeFCaXiNRK7iJixCaMuSVimyrHhbzKxo5XmpqV3RLkcNgGZqdHmolYjDPKrP3xGi56TLcE8Ewi05lRcsr3fWI74sBx75FdHsaDitgj2YUt_zRVKdzOu9YEBzwbOTx7H-T75T_zNgf_hVNkErZjg9xrtiU3avpzduCDeVbed5qb-KvN7KSAQ5Uyvzm6Ug9q0H3hGvmji5gMpc4w8mqn7xd-XunJ19rNE4xi46mPIDOwnKkZ9WLwxYfPy-94UOccfLrLYpsOWwNzn7PUWm2Dwo1sD3ske8Nr48qR3mASeBNe1U5fR4y9wzL1Ex2ZhIa6XqiJJ0jzhpHzmDRcvG0HlVOACbI0DzxzwGh9a-2emX249dghX9r3kGBZ8wslp6laJVFVfD08ugakmzxViM06e5LnwTlkuokknY99K6BGKMu8rxtaQSnw8rndOOsZ6YzTX_UWYxICyyLl_yDsMnQ5kN9j7m2?></g></svg>