<svg xmlns="http://www.w3.org/2000/svg" xmlns:xlink="http://www.w3.org/1999/xlink" contentStyleType="text/css" data-diagram-type="MINDMAP" height="282px" preserveAspectRatio="none" style="width:763px;height:282px;background:#FFFFFF;" version="1.1" viewBox="0 0 763 282" width="763px" zoomAndPan="magnify"><?plantuml 1.2026.3beta5?><defs/><g><rect fill="#FF5F46" height="36.2969" rx="12.5" ry="12.5" style="stroke:#FF5F46;stroke-width:3;" width="68.7129" x="10" y="122.7422"/><text fill="#FFFFFF" font-family="sans-serif" font-size="14" lengthAdjust="spacing" textLength="48.7129" x="20" y="145.7373">MLflow</text><rect fill="#0078D4" height="36.2969" rx="12.5" ry="12.5" style="stroke:#0078D4;stroke-width:3;" width="76.4307" x="128.7129" y="20"/><text fill="#FFFFFF" font-family="sans-serif" font-size="14" lengthAdjust="spacing" textLength="56.4307" x="138.7129" y="42.9951">Purpose</text><text fill="#000000" font-family="sans-serif" font-size="14" lengthAdjust="spacing" textLength="227.6025" x="258.1436" y="33.8467">End-to-end ML lifecycle platform</text><path d="M205.1436,38.1484 L215.1436,38.1484 C230.1436,38.1484 230.1436,29 245.1436,29 L255.1436,29" fill="none" style="stroke:#0078D4;stroke-width:3;"/><text fill="#000000" font-family="sans-serif" font-size="14" lengthAdjust="spacing" textLength="267.9414" x="258.1436" y="52.1436">Open-source, integrated in Databricks</text><path d="M205.1436,38.1484 L215.1436,38.1484 C230.1436,38.1484 230.1436,47.2969 245.1436,47.2969 L255.1436,47.2969" fill="none" style="stroke:#0078D4;stroke-width:3;"/><path d="M78.7129,140.8906 L88.7129,140.8906 C103.7129,140.8906 103.7129,38.1484 118.7129,38.1484 L128.7129,38.1484" fill="none" style="stroke:#FF5F46;stroke-width:3;"/><rect fill="#0078D4" height="36.2969" rx="12.5" ry="12.5" style="stroke:#0078D4;stroke-width:3;" width="138.8223" x="128.7129" y="122.7422"/><text fill="#FFFFFF" font-family="sans-serif" font-size="14" lengthAdjust="spacing" textLength="118.8223" x="138.7129" y="145.7373">Core Capabilities</text><rect fill="#FFB900" height="36.2969" rx="12.5" ry="12.5" style="stroke:#FFB900;stroke-width:3;" width="165.6807" x="317.5352" y="66.4453"/><text fill="#000000" font-family="sans-serif" font-size="14" lengthAdjust="spacing" textLength="145.6807" x="327.5352" y="89.4404">Experiment Tracking</text><text fill="#000000" font-family="sans-serif" font-size="14" lengthAdjust="spacing" textLength="183.1006" x="536.2158" y="80.292">Log parameters &amp; metrics</text><path d="M483.2158,84.5938 L493.2158,84.5938 C508.2158,84.5938 508.2158,75.4453 523.2158,75.4453 L533.2158,75.4453" fill="none" style="stroke:#FFB900;stroke-width:3;"/><text fill="#000000" font-family="sans-serif" font-size="14" lengthAdjust="spacing" textLength="99.0596" x="536.2158" y="98.5889">Compare runs</text><path d="M483.2158,84.5938 L493.2158,84.5938 C508.2158,84.5938 508.2158,93.7422 523.2158,93.7422 L533.2158,93.7422" fill="none" style="stroke:#FFB900;stroke-width:3;"/><path d="M267.5352,140.8906 L277.5352,140.8906 C292.5352,140.8906 292.5352,84.5938 307.5352,84.5938 L317.5352,84.5938" fill="none" style="stroke:#0078D4;stroke-width:3;"/><rect fill="#FFB900" height="36.2969" rx="12.5" ry="12.5" style="stroke:#FFB900;stroke-width:3;" width="158.708" x="317.5352" y="122.7422"/><text fill="#000000" font-family="sans-serif" font-size="14" lengthAdjust="spacing" textLength="138.708" x="327.5352" y="145.7373">Model Management</text><text fill="#000000" font-family="sans-serif" font-size="14" lengthAdjust="spacing" textLength="200.1221" x="529.2432" y="136.5889">Register and version models</text><path d="M476.2432,140.8906 L486.2432,140.8906 C501.2432,140.8906 501.2432,131.7422 516.2432,131.7422 L526.2432,131.7422" fill="none" style="stroke:#FFB900;stroke-width:3;"/><text fill="#000000" font-family="sans-serif" font-size="14" lengthAdjust="spacing" textLength="212.8438" x="529.2432" y="154.8857">Promote models to production</text><path d="M476.2432,140.8906 L486.2432,140.8906 C501.2432,140.8906 501.2432,150.0391 516.2432,150.0391 L526.2432,150.0391" fill="none" style="stroke:#FFB900;stroke-width:3;"/><path d="M267.5352,140.8906 L277.5352,140.8906 C292.5352,140.8906 292.5352,140.8906 307.5352,140.8906 L317.5352,140.8906" fill="none" style="stroke:#0078D4;stroke-width:3;"/><rect fill="#FFB900" height="36.2969" rx="12.5" ry="12.5" style="stroke:#FFB900;stroke-width:3;" width="105.6338" x="317.5352" y="179.0391"/><text fill="#000000" font-family="sans-serif" font-size="14" lengthAdjust="spacing" textLength="85.6338" x="327.5352" y="202.0342">Deployment</text><text fill="#000000" font-family="sans-serif" font-size="14" lengthAdjust="spacing" textLength="189.6357" x="476.1689" y="202.0342">Serve models as endpoints</text><path d="M423.1689,197.1875 L433.1689,197.1875 C448.1689,197.1875 448.1689,197.1875 463.1689,197.1875 L473.1689,197.1875" fill="none" style="stroke:#FFB900;stroke-width:3;"/><path d="M267.5352,140.8906 L277.5352,140.8906 C292.5352,140.8906 292.5352,197.1875 307.5352,197.1875 L317.5352,197.1875" fill="none" style="stroke:#0078D4;stroke-width:3;"/><path d="M78.7129,140.8906 L88.7129,140.8906 C103.7129,140.8906 103.7129,140.8906 118.7129,140.8906 L128.7129,140.8906" fill="none" style="stroke:#FF5F46;stroke-width:3;"/><rect fill="#0078D4" height="36.2969" rx="12.5" ry="12.5" style="stroke:#0078D4;stroke-width:3;" width="115.7168" x="128.7129" y="225.4844"/><text fill="#FFFFFF" font-family="sans-serif" font-size="14" lengthAdjust="spacing" textLength="95.7168" x="138.7129" y="248.4795">Generative AI</text><text fill="#000000" font-family="sans-serif" font-size="14" lengthAdjust="spacing" textLength="186.0742" x="297.4297" y="239.3311">Supports gen AI workflows</text><path d="M244.4297,243.6328 L254.4297,243.6328 C269.4297,243.6328 269.4297,234.4844 284.4297,234.4844 L294.4297,234.4844" fill="none" style="stroke:#0078D4;stroke-width:3;"/><text fill="#000000" font-family="sans-serif" font-size="14" lengthAdjust="spacing" textLength="224.3691" x="297.4297" y="257.6279">Evaluate and improve AI agents</text><path d="M244.4297,243.6328 L254.4297,243.6328 C269.4297,243.6328 269.4297,252.7813 284.4297,252.7813 L294.4297,252.7813" fill="none" style="stroke:#0078D4;stroke-width:3;"/><path d="M78.7129,140.8906 L88.7129,140.8906 C103.7129,140.8906 103.7129,243.6328 118.7129,243.6328 L128.7129,243.6328" fill="none" style="stroke:#FF5F46;stroke-width:3;"/><?plantuml-src VPDRQzj048NVzIi62gKLjQiubru89QqTXO9DGvBtif96okBTdMLsvSI4_lUEP3bj5TnvMiuUVMVdW2v2L1ojTfLLFZaFSMlmI_AvGX_ltsHluIa1cM-gN3TChQlcP8ZXLPwVvYTd_TrIEtofvkJYeDRzF7llxdMvTXW274-pvDS-w-XWLfPz-BWu6MUDr7-fenVa_Vp9cXtCgklYKvQDiqRgVxEoVYIhe4VJUPuEEixV3tMdi5hMXXwID8NhbZq5b6Fw4ovTDOaqGLU90uokiToM1i4R5MjYktFzyEWcWLekyHre5x5X5R6I8onKL0NBSqF7dXCZp9LNXJOwQkp452uVFRAsw2BSiHIYNTFf0bvI0rwniXYH0xm6EGWi3DTpidABmAtRaLPKeO6LSgh1ZZVuRh3HGGYWP8-Da3Gvi9rtJxfciXHn424IUAQgBQCuU_82lQ7jNynRvCspNmMGYZp9xlsUL-XGAj3Y-Ffzrz5jwprn3D2W4n4UYDTTvM4eUgDCAwNrJzHMqljlGHRfc1U2t_yZoT5qbitEfiS5HdNw6m00?></g></svg>