<?plantuml 1.2026.2?><svg xmlns="http://www.w3.org/2000/svg" xmlns:xlink="http://www.w3.org/1999/xlink" contentStyleType="text/css" data-diagram-type="MINDMAP" height="378px" preserveAspectRatio="none" style="width:636px;height:378px;background:#FFFFFF;" version="1.1" viewBox="0 0 636 378" width="636px" zoomAndPan="magnify"><defs/><g><rect fill="#091F2C" height="36.4883" rx="12.5" ry="12.5" style="stroke:#181818;stroke-width:3;" width="93.3086" x="10" y="169.9531"/><text fill="#FFFFFF" font-family="sans-serif" font-size="14" lengthAdjust="spacing" textLength="73.3086" x="20" y="193.4883">Notebooks</text><rect fill="#FFB900" height="36.4883" rx="12.5" ry="12.5" style="stroke:#FFB900;stroke-width:3;" width="118.2803" x="153.3086" y="48.2441"/><text fill="#000000" font-family="sans-serif" font-size="14" lengthAdjust="spacing" textLength="98.2803" x="163.3086" y="71.7793">Content Types</text><rect fill="#F4364C" height="36.4883" rx="12.5" ry="12.5" style="stroke:#F4364C;stroke-width:3;" width="92.0439" x="321.5889" y="20"/><text fill="#FFFFFF" font-family="sans-serif" font-size="14" lengthAdjust="spacing" textLength="72.0439" x="331.5889" y="43.5352">Code Cells</text><text fill="#000000" font-family="sans-serif" font-size="14" lengthAdjust="spacing" textLength="100.1191" x="466.6328" y="34.291">Runnable code</text><path d="M413.6328,38.2441 L423.6328,38.2441 C438.6328,38.2441 438.6328,29 453.6328,29 L463.6328,29" fill="none" style="stroke:#F4364C;stroke-width:3;"/><text fill="#000000" font-family="sans-serif" font-size="14" lengthAdjust="spacing" textLength="141.7979" x="466.6328" y="52.7793">Python, R, Scala, SQL</text><path d="M413.6328,38.2441 L423.6328,38.2441 C438.6328,38.2441 438.6328,47.4883 453.6328,47.4883 L463.6328,47.4883" fill="none" style="stroke:#F4364C;stroke-width:3;"/><path d="M271.5889,66.4883 L281.5889,66.4883 C296.5889,66.4883 296.5889,38.2441 311.5889,38.2441 L321.5889,38.2441" fill="none" style="stroke:#FFB900;stroke-width:3;"/><rect fill="#F4364C" height="36.4883" rx="12.5" ry="12.5" style="stroke:#F4364C;stroke-width:3;" width="127.7344" x="321.5889" y="76.4883"/><text fill="#FFFFFF" font-family="sans-serif" font-size="14" lengthAdjust="spacing" textLength="107.7344" x="331.5889" y="100.0234">Markdown Cells</text><text fill="#000000" font-family="sans-serif" font-size="14" lengthAdjust="spacing" textLength="122.6094" x="502.3232" y="90.7793">Text and graphics</text><path d="M449.3232,94.7324 L459.3232,94.7324 C474.3232,94.7324 474.3232,85.4883 489.3232,85.4883 L499.3232,85.4883" fill="none" style="stroke:#F4364C;stroke-width:3;"/><text fill="#000000" font-family="sans-serif" font-size="14" lengthAdjust="spacing" textLength="104.043" x="502.3232" y="109.2676">Documentation</text><path d="M449.3232,94.7324 L459.3232,94.7324 C474.3232,94.7324 474.3232,103.9766 489.3232,103.9766 L499.3232,103.9766" fill="none" style="stroke:#F4364C;stroke-width:3;"/><path d="M271.5889,66.4883 L281.5889,66.4883 C296.5889,66.4883 296.5889,94.7324 311.5889,94.7324 L321.5889,94.7324" fill="none" style="stroke:#FFB900;stroke-width:3;"/><path d="M103.3086,188.1973 L113.3086,188.1973 C128.3086,188.1973 128.3086,66.4883 143.3086,66.4883 L153.3086,66.4883" fill="none" style="stroke:#181818;stroke-width:3;"/><rect fill="#FFB900" height="36.4883" rx="12.5" ry="12.5" style="stroke:#FFB900;stroke-width:3;" width="127.7412" x="153.3086" y="132.9766"/><text fill="#000000" font-family="sans-serif" font-size="14" lengthAdjust="spacing" textLength="107.7412" x="163.3086" y="156.5117">Multi-Language</text><text fill="#000000" font-family="sans-serif" font-size="14" lengthAdjust="spacing" textLength="250.7832" x="334.0498" y="147.2676">Magic commands to switch language</text><path d="M281.0498,151.2207 L291.0498,151.2207 C306.0498,151.2207 306.0498,141.9766 321.0498,141.9766 L331.0498,141.9766" fill="none" style="stroke:#FFB900;stroke-width:3;"/><text fill="#000000" font-family="sans-serif" font-size="14" lengthAdjust="spacing" textLength="214.0332" x="334.0498" y="165.7559">Mix languages in one notebook</text><path d="M281.0498,151.2207 L291.0498,151.2207 C306.0498,151.2207 306.0498,160.4648 321.0498,160.4648 L331.0498,160.4648" fill="none" style="stroke:#FFB900;stroke-width:3;"/><path d="M103.3086,188.1973 L113.3086,188.1973 C128.3086,188.1973 128.3086,151.2207 143.3086,151.2207 L153.3086,151.2207" fill="none" style="stroke:#181818;stroke-width:3;"/><rect fill="#FFB900" height="36.4883" rx="12.5" ry="12.5" style="stroke:#FFB900;stroke-width:3;" width="88.5576" x="153.3086" y="198.1973"/><text fill="#000000" font-family="sans-serif" font-size="14" lengthAdjust="spacing" textLength="68.5576" x="163.3086" y="221.7324">Use Cases</text><text fill="#000000" font-family="sans-serif" font-size="14" lengthAdjust="spacing" textLength="170.1738" x="294.8662" y="194">Exploratory data analysis</text><path d="M241.8662,216.4414 L251.8662,216.4414 C266.8662,216.4414 266.8662,188.709 281.8662,188.709 L291.8662,188.709" fill="none" style="stroke:#FFB900;stroke-width:3;"/><text fill="#000000" font-family="sans-serif" font-size="14" lengthAdjust="spacing" textLength="120.8867" x="294.8662" y="212.4883">Data visualization</text><path d="M241.8662,216.4414 L251.8662,216.4414 C266.8662,216.4414 266.8662,207.1973 281.8662,207.1973 L291.8662,207.1973" fill="none" style="stroke:#FFB900;stroke-width:3;"/><text fill="#000000" font-family="sans-serif" font-size="14" lengthAdjust="spacing" textLength="108.6572" x="294.8662" y="230.9766">ML experiments</text><path d="M241.8662,216.4414 L251.8662,216.4414 C266.8662,216.4414 266.8662,225.6855 281.8662,225.6855 L291.8662,225.6855" fill="none" style="stroke:#FFB900;stroke-width:3;"/><text fill="#000000" font-family="sans-serif" font-size="14" lengthAdjust="spacing" textLength="96.8037" x="294.8662" y="249.4648">Data pipelines</text><path d="M241.8662,216.4414 L251.8662,216.4414 C266.8662,216.4414 266.8662,244.1738 281.8662,244.1738 L291.8662,244.1738" fill="none" style="stroke:#FFB900;stroke-width:3;"/><path d="M103.3086,188.1973 L113.3086,188.1973 C128.3086,188.1973 128.3086,216.4414 143.3086,216.4414 L153.3086,216.4414" fill="none" style="stroke:#181818;stroke-width:3;"/><rect fill="#FFB900" height="36.4883" rx="12.5" ry="12.5" style="stroke:#FFB900;stroke-width:3;" width="111.5537" x="153.3086" y="263.418"/><text fill="#000000" font-family="sans-serif" font-size="14" lengthAdjust="spacing" textLength="91.5537" x="163.3086" y="286.9531">Collaboration</text><text fill="#000000" font-family="sans-serif" font-size="14" lengthAdjust="spacing" textLength="232.6406" x="317.8623" y="268.4648">Multiple users edit simultaneously</text><path d="M264.8623,281.6621 L274.8623,281.6621 C289.8623,281.6621 289.8623,263.1738 304.8623,263.1738 L314.8623,263.1738" fill="none" style="stroke:#FFB900;stroke-width:3;"/><text fill="#000000" font-family="sans-serif" font-size="14" lengthAdjust="spacing" textLength="187.7627" x="317.8623" y="286.9531">Comments and annotations</text><path d="M264.8623,281.6621 L274.8623,281.6621 C289.8623,281.6621 289.8623,281.6621 304.8623,281.6621 L314.8623,281.6621" fill="none" style="stroke:#FFB900;stroke-width:3;"/><text fill="#000000" font-family="sans-serif" font-size="14" lengthAdjust="spacing" textLength="121.8643" x="317.8623" y="305.4414">Real-time sharing</text><path d="M264.8623,281.6621 L274.8623,281.6621 C289.8623,281.6621 289.8623,300.1504 304.8623,300.1504 L314.8623,300.1504" fill="none" style="stroke:#FFB900;stroke-width:3;"/><path d="M103.3086,188.1973 L113.3086,188.1973 C128.3086,188.1973 128.3086,281.6621 143.3086,281.6621 L153.3086,281.6621" fill="none" style="stroke:#181818;stroke-width:3;"/><rect fill="#FFB900" height="36.4883" rx="12.5" ry="12.5" style="stroke:#FFB900;stroke-width:3;" width="77.9619" x="153.3086" y="319.9063"/><text fill="#000000" font-family="sans-serif" font-size="14" lengthAdjust="spacing" textLength="57.9619" x="163.3086" y="343.4414">Lifecycle</text><text fill="#000000" font-family="sans-serif" font-size="14" lengthAdjust="spacing" textLength="103.6533" x="284.2705" y="324.9531">Version control</text><path d="M231.2705,338.1504 L241.2705,338.1504 C256.2705,338.1504 256.2705,319.6621 271.2705,319.6621 L281.2705,319.6621" fill="none" style="stroke:#FFB900;stroke-width:3;"/><text fill="#000000" font-family="sans-serif" font-size="14" lengthAdjust="spacing" textLength="113.0801" x="284.2705" y="343.4414">Schedule as jobs</text><path d="M231.2705,338.1504 L241.2705,338.1504 C256.2705,338.1504 256.2705,338.1504 271.2705,338.1504 L281.2705,338.1504" fill="none" style="stroke:#FFB900;stroke-width:3;"/><text fill="#000000" font-family="sans-serif" font-size="14" lengthAdjust="spacing" textLength="123.6348" x="284.2705" y="361.9297">Export for sharing</text><path d="M231.2705,338.1504 L241.2705,338.1504 C256.2705,338.1504 256.2705,356.6387 271.2705,356.6387 L281.2705,356.6387" fill="none" style="stroke:#FFB900;stroke-width:3;"/><path d="M103.3086,188.1973 L113.3086,188.1973 C128.3086,188.1973 128.3086,338.1504 143.3086,338.1504 L153.3086,338.1504" fill="none" style="stroke:#181818;stroke-width:3;"/><?plantuml-src VLF1Rjim3BtxAmZiiWLjvhX5WHR5K2pTJkwmfTck0ItJjXPPCYHvZLVqtqivIjDiotGn_4Y-n_TitJYFrhTIborsoRNpWw8FoLL9dM_Ufk_WCG4-7r6iQsjwNSwDCXRUf9UpAXDZxRFHFgBLU4OqbvgMZHHhJSx1sJHDddQiiwEiLLLSfkdB_B_HGzO_DaZ7izVAZckTdrsSYx-q3j7_QaMtJqbXDYhqF1xTvlfz37O2NuodmfYrIoOJc7ClQG_BeQC01AGac9DIu-ja1OjUQomKWU1AnBuElZ7w11OdS2zG8J--vUFu7TfrQHxq0SMIDXvGbr1RxDZH3hyreczP7hqqEgnproilJtFKTO_rABPYnbeA5czRPd3W3RW7wKK3wh1DRbuG1rA3qGGwUWtStntxGhUrkO9FcuuZGc_i02LwvFrG3Kx6ycs0VadNevA_T_i5cHneqv6LOU_NlPtiIF4NYx4gXKMWtmy6Qnt7s3ko3gYK7fni6KLDfdTgsFRDsMYW7lD2pGv6aYYr85IddiN1DMYbheDQBYiIWr0nYH_CpnCScVRMg2ruBnegUvP71pzDiG_1M0yL_oixlXlYcnXlOpARPcbsCSsU0G00?></g></svg>