<svg xmlns="http://www.w3.org/2000/svg" xmlns:xlink="http://www.w3.org/1999/xlink" contentStyleType="text/css" data-diagram-type="MINDMAP" height="375px" preserveAspectRatio="none" style="width:656px;height:375px;background:#FFFFFF;" version="1.1" viewBox="0 0 656 375" width="656px" zoomAndPan="magnify"><?plantuml 1.2026.3beta5?><defs/><g><rect fill="#FF5F46" height="36.2969" rx="12.5" ry="12.5" style="stroke:#FF5F46;stroke-width:3;" width="94.5596" x="10" y="169.1875"/><text fill="#FFFFFF" font-family="sans-serif" font-size="14" lengthAdjust="spacing" textLength="74.5596" x="20" y="192.1826">Notebooks</text><rect fill="#0078D4" height="36.2969" rx="12.5" ry="12.5" style="stroke:#0078D4;stroke-width:3;" width="121.7598" x="154.5596" y="48.1484"/><text fill="#FFFFFF" font-family="sans-serif" font-size="14" lengthAdjust="spacing" textLength="101.7598" x="164.5596" y="71.1436">Content Types</text><rect fill="#FFB900" height="36.2969" rx="12.5" ry="12.5" style="stroke:#FFB900;stroke-width:3;" width="93.7529" x="326.3193" y="20"/><text fill="#000000" font-family="sans-serif" font-size="14" lengthAdjust="spacing" textLength="73.7529" x="336.3193" y="42.9951">Code Cells</text><text fill="#000000" font-family="sans-serif" font-size="14" lengthAdjust="spacing" textLength="104.5283" x="473.0723" y="33.8467">Runnable code</text><path d="M420.0723,38.1484 L430.0723,38.1484 C445.0723,38.1484 445.0723,29 460.0723,29 L470.0723,29" fill="none" style="stroke:#FFB900;stroke-width:3;"/><text fill="#000000" font-family="sans-serif" font-size="14" lengthAdjust="spacing" textLength="150.2949" x="473.0723" y="52.1436">Python, R, Scala, SQL</text><path d="M420.0723,38.1484 L430.0723,38.1484 C445.0723,38.1484 445.0723,47.2969 460.0723,47.2969 L470.0723,47.2969" fill="none" style="stroke:#FFB900;stroke-width:3;"/><path d="M276.3193,66.2969 L286.3193,66.2969 C301.3193,66.2969 301.3193,38.1484 316.3193,38.1484 L326.3193,38.1484" fill="none" style="stroke:#0078D4;stroke-width:3;"/><rect fill="#FFB900" height="36.2969" rx="12.5" ry="12.5" style="stroke:#FFB900;stroke-width:3;" width="130.209" x="326.3193" y="76.2969"/><text fill="#000000" font-family="sans-serif" font-size="14" lengthAdjust="spacing" textLength="110.209" x="336.3193" y="99.292">Markdown Cells</text><text fill="#000000" font-family="sans-serif" font-size="14" lengthAdjust="spacing" textLength="126.041" x="509.5283" y="90.1436">Text and graphics</text><path d="M456.5283,94.4453 L466.5283,94.4453 C481.5283,94.4453 481.5283,85.2969 496.5283,85.2969 L506.5283,85.2969" fill="none" style="stroke:#FFB900;stroke-width:3;"/><text fill="#000000" font-family="sans-serif" font-size="14" lengthAdjust="spacing" textLength="107.9258" x="509.5283" y="108.4404">Documentation</text><path d="M456.5283,94.4453 L466.5283,94.4453 C481.5283,94.4453 481.5283,103.5938 496.5283,103.5938 L506.5283,103.5938" fill="none" style="stroke:#FFB900;stroke-width:3;"/><path d="M276.3193,66.2969 L286.3193,66.2969 C301.3193,66.2969 301.3193,94.4453 316.3193,94.4453 L326.3193,94.4453" fill="none" style="stroke:#0078D4;stroke-width:3;"/><path d="M104.5596,187.3359 L114.5596,187.3359 C129.5596,187.3359 129.5596,66.2969 144.5596,66.2969 L154.5596,66.2969" fill="none" style="stroke:#FF5F46;stroke-width:3;"/><rect fill="#0078D4" height="36.2969" rx="12.5" ry="12.5" style="stroke:#0078D4;stroke-width:3;" width="128.3633" x="154.5596" y="132.5938"/><text fill="#FFFFFF" font-family="sans-serif" font-size="14" lengthAdjust="spacing" textLength="108.3633" x="164.5596" y="155.5889">Multi-Language</text><text fill="#000000" font-family="sans-serif" font-size="14" lengthAdjust="spacing" textLength="260.0322" x="335.9229" y="146.4404">Magic commands to switch language</text><path d="M282.9229,150.7422 L292.9229,150.7422 C307.9229,150.7422 307.9229,141.5938 322.9229,141.5938 L332.9229,141.5938" fill="none" style="stroke:#0078D4;stroke-width:3;"/><text fill="#000000" font-family="sans-serif" font-size="14" lengthAdjust="spacing" textLength="219.0098" x="335.9229" y="164.7373">Mix languages in one notebook</text><path d="M282.9229,150.7422 L292.9229,150.7422 C307.9229,150.7422 307.9229,159.8906 322.9229,159.8906 L332.9229,159.8906" fill="none" style="stroke:#0078D4;stroke-width:3;"/><path d="M104.5596,187.3359 L114.5596,187.3359 C129.5596,187.3359 129.5596,150.7422 144.5596,150.7422 L154.5596,150.7422" fill="none" style="stroke:#FF5F46;stroke-width:3;"/><rect fill="#0078D4" height="36.2969" rx="12.5" ry="12.5" style="stroke:#0078D4;stroke-width:3;" width="92.1602" x="154.5596" y="197.3359"/><text fill="#FFFFFF" font-family="sans-serif" font-size="14" lengthAdjust="spacing" textLength="72.1602" x="164.5596" y="220.3311">Use Cases</text><text fill="#000000" font-family="sans-serif" font-size="14" lengthAdjust="spacing" textLength="178.0215" x="299.7197" y="192.8857">Exploratory data analysis</text><path d="M246.7197,215.4844 L256.7197,215.4844 C271.7197,215.4844 271.7197,188.0391 286.7197,188.0391 L296.7197,188.0391" fill="none" style="stroke:#0078D4;stroke-width:3;"/><text fill="#000000" font-family="sans-serif" font-size="14" lengthAdjust="spacing" textLength="125.3232" x="299.7197" y="211.1826">Data visualization</text><path d="M246.7197,215.4844 L256.7197,215.4844 C271.7197,215.4844 271.7197,206.3359 286.7197,206.3359 L296.7197,206.3359" fill="none" style="stroke:#0078D4;stroke-width:3;"/><text fill="#000000" font-family="sans-serif" font-size="14" lengthAdjust="spacing" textLength="112.2803" x="299.7197" y="229.4795">ML experiments</text><path d="M246.7197,215.4844 L256.7197,215.4844 C271.7197,215.4844 271.7197,224.6328 286.7197,224.6328 L296.7197,224.6328" fill="none" style="stroke:#0078D4;stroke-width:3;"/><text fill="#000000" font-family="sans-serif" font-size="14" lengthAdjust="spacing" textLength="100.7139" x="299.7197" y="247.7764">Data pipelines</text><path d="M246.7197,215.4844 L256.7197,215.4844 C271.7197,215.4844 271.7197,242.9297 286.7197,242.9297 L296.7197,242.9297" fill="none" style="stroke:#0078D4;stroke-width:3;"/><path d="M104.5596,187.3359 L114.5596,187.3359 C129.5596,187.3359 129.5596,215.4844 144.5596,215.4844 L154.5596,215.4844" fill="none" style="stroke:#FF5F46;stroke-width:3;"/><rect fill="#0078D4" height="36.2969" rx="12.5" ry="12.5" style="stroke:#0078D4;stroke-width:3;" width="113.3037" x="154.5596" y="262.0781"/><text fill="#FFFFFF" font-family="sans-serif" font-size="14" lengthAdjust="spacing" textLength="93.3037" x="164.5596" y="285.0732">Collaboration</text><text fill="#000000" font-family="sans-serif" font-size="14" lengthAdjust="spacing" textLength="239.7158" x="320.8633" y="266.7764">Multiple users edit simultaneously</text><path d="M267.8633,280.2266 L277.8633,280.2266 C292.8633,280.2266 292.8633,261.9297 307.8633,261.9297 L317.8633,261.9297" fill="none" style="stroke:#0078D4;stroke-width:3;"/><text fill="#000000" font-family="sans-serif" font-size="14" lengthAdjust="spacing" textLength="194.1953" x="320.8633" y="285.0732">Comments and annotations</text><path d="M267.8633,280.2266 L277.8633,280.2266 C292.8633,280.2266 292.8633,280.2266 307.8633,280.2266 L317.8633,280.2266" fill="none" style="stroke:#0078D4;stroke-width:3;"/><text fill="#000000" font-family="sans-serif" font-size="14" lengthAdjust="spacing" textLength="124.0928" x="320.8633" y="303.3701">Real-time sharing</text><path d="M267.8633,280.2266 L277.8633,280.2266 C292.8633,280.2266 292.8633,298.5234 307.8633,298.5234 L317.8633,298.5234" fill="none" style="stroke:#0078D4;stroke-width:3;"/><path d="M104.5596,187.3359 L114.5596,187.3359 C129.5596,187.3359 129.5596,280.2266 144.5596,280.2266 L154.5596,280.2266" fill="none" style="stroke:#FF5F46;stroke-width:3;"/><rect fill="#0078D4" height="36.2969" rx="12.5" ry="12.5" style="stroke:#0078D4;stroke-width:3;" width="81.4141" x="154.5596" y="318.375"/><text fill="#FFFFFF" font-family="sans-serif" font-size="14" lengthAdjust="spacing" textLength="61.4141" x="164.5596" y="341.3701">Lifecycle</text><text fill="#000000" font-family="sans-serif" font-size="14" lengthAdjust="spacing" textLength="105.8545" x="288.9736" y="323.0732">Version control</text><path d="M235.9736,336.5234 L245.9736,336.5234 C260.9736,336.5234 260.9736,318.2266 275.9736,318.2266 L285.9736,318.2266" fill="none" style="stroke:#0078D4;stroke-width:3;"/><text fill="#000000" font-family="sans-serif" font-size="14" lengthAdjust="spacing" textLength="117.7422" x="288.9736" y="341.3701">Schedule as jobs</text><path d="M235.9736,336.5234 L245.9736,336.5234 C260.9736,336.5234 260.9736,336.5234 275.9736,336.5234 L285.9736,336.5234" fill="none" style="stroke:#0078D4;stroke-width:3;"/><text fill="#000000" font-family="sans-serif" font-size="14" lengthAdjust="spacing" textLength="126.1299" x="288.9736" y="359.667">Export for sharing</text><path d="M235.9736,336.5234 L245.9736,336.5234 C260.9736,336.5234 260.9736,354.8203 275.9736,354.8203 L285.9736,354.8203" fill="none" style="stroke:#0078D4;stroke-width:3;"/><path d="M104.5596,187.3359 L114.5596,187.3359 C129.5596,187.3359 129.5596,336.5234 144.5596,336.5234 L154.5596,336.5234" fill="none" style="stroke:#FF5F46;stroke-width:3;"/><?plantuml-src VPDRZzCm48NVyoj6uWMgtPBjNhXeXLQqv2cBe5juhIRE935rxCXss8OL_vrnccvfKF5BbEFn-MPEuZldqVfQwhp69hfrlbFq8NgVK-Ehb_4hU8g0rqSKczAQLkTpeuo55qbodLpTz7kfrFIlcXZj1xNertFjgf9Yeyavk9p6qUyzw-8aAuxVl5rSZLaZzTXrr47IhmDhTf9L5DcxE1wpHkf_MN6_c9MPhGerJoShRbyFSK_Wi_6K6RDnqMG2SwubxM7LDHI4eEG4SrAgVvsiOTbgZPaY4BmpQ5ywNnbz1iipU12ea1zVq_xuFTfDRXxraSMAjXvGvr1QR7YYlRumegqPZruQ7TgvRvMNvodgiiMoXwtPiPI2uNND3Wwy0VSelQX07PV9xRFYG6emca0FimRlRuxdGhSRSmsVjWr7XDxO3dBqoFsXwfmSjXT1-YbTYqh-slSNC2dGjY4hGzz_rpQo8SLVR8XLASo2_U5W6AtX65j7rW7bqeEJDQkeoRHETRkwEGyQhFkyKFC4lSc0MXAgSyzmS1LQgSj0IsL1eXDgIE8x-_C9ZanxQzHEV10LvItZqS4Fanr2CDP3mV_Atk-E-7uETpIwcCxYsStqCYEFrty0?></g></svg>