<svg xmlns="http://www.w3.org/2000/svg" xmlns:xlink="http://www.w3.org/1999/xlink" contentStyleType="text/css" data-diagram-type="MINDMAP" height="262px" preserveAspectRatio="none" style="width:629px;height:262px;background:#FFFFFF;" version="1.1" viewBox="0 0 629 262" width="629px" zoomAndPan="magnify"><?plantuml 1.2026.3beta5?><defs/><g><rect fill="#FF5F46" height="36.2969" rx="12.5" ry="12.5" style="stroke:#FF5F46;stroke-width:3;" width="138.46" x="10" y="112.5391"/><text fill="#FFFFFF" font-family="sans-serif" font-size="14" lengthAdjust="spacing" textLength="118.46" x="20" y="135.5342">SQL Warehouses</text><rect fill="#0078D4" height="36.2969" rx="12.5" ry="12.5" style="stroke:#0078D4;stroke-width:3;" width="119.8936" x="198.46" y="20"/><text fill="#FFFFFF" font-family="sans-serif" font-size="14" lengthAdjust="spacing" textLength="99.8936" x="208.46" y="42.9951">What they are</text><text fill="#000000" font-family="sans-serif" font-size="14" lengthAdjust="spacing" textLength="237.4668" x="371.3535" y="33.8467">Scalable compute for SQL queries</text><path d="M318.3535,38.1484 L328.3535,38.1484 C343.3535,38.1484 343.3535,29 358.3535,29 L368.3535,29" fill="none" style="stroke:#0078D4;stroke-width:3;"/><text fill="#000000" font-family="sans-serif" font-size="14" lengthAdjust="spacing" textLength="169.7773" x="371.3535" y="52.1436">Decoupled from storage</text><path d="M318.3535,38.1484 L328.3535,38.1484 C343.3535,38.1484 343.3535,47.2969 358.3535,47.2969 L368.3535,47.2969" fill="none" style="stroke:#0078D4;stroke-width:3;"/><path d="M148.46,130.6875 L158.46,130.6875 C173.46,130.6875 173.46,38.1484 188.46,38.1484 L198.46,38.1484" fill="none" style="stroke:#FF5F46;stroke-width:3;"/><rect fill="#0078D4" height="36.2969" rx="12.5" ry="12.5" style="stroke:#0078D4;stroke-width:3;" width="93.001" x="198.46" y="84.7422"/><text fill="#FFFFFF" font-family="sans-serif" font-size="14" lengthAdjust="spacing" textLength="73.001" x="208.46" y="107.7373">Serverless</text><text fill="#000000" font-family="sans-serif" font-size="14" lengthAdjust="spacing" textLength="169.292" x="344.4609" y="80.292">Instant, elastic compute</text><path d="M291.4609,102.8906 L301.4609,102.8906 C316.4609,102.8906 316.4609,75.4453 331.4609,75.4453 L341.4609,75.4453" fill="none" style="stroke:#0078D4;stroke-width:3;"/><text fill="#000000" font-family="sans-serif" font-size="14" lengthAdjust="spacing" textLength="184.666" x="344.4609" y="98.5889">Fast startup &amp; autoscaling</text><path d="M291.4609,102.8906 L301.4609,102.8906 C316.4609,102.8906 316.4609,93.7422 331.4609,93.7422 L341.4609,93.7422" fill="none" style="stroke:#0078D4;stroke-width:3;"/><text fill="#000000" font-family="sans-serif" font-size="14" lengthAdjust="spacing" textLength="165.6279" x="344.4609" y="116.8857">Managed by Databricks</text><path d="M291.4609,102.8906 L301.4609,102.8906 C316.4609,102.8906 316.4609,112.0391 331.4609,112.0391 L341.4609,112.0391" fill="none" style="stroke:#0078D4;stroke-width:3;"/><text fill="#000000" font-family="sans-serif" font-size="14" lengthAdjust="spacing" textLength="189.957" x="344.4609" y="135.1826">Cost-efficient, no idle costs</text><path d="M291.4609,102.8906 L301.4609,102.8906 C316.4609,102.8906 316.4609,130.3359 331.4609,130.3359 L341.4609,130.3359" fill="none" style="stroke:#0078D4;stroke-width:3;"/><path d="M148.46,130.6875 L158.46,130.6875 C173.46,130.6875 173.46,102.8906 188.46,102.8906 L198.46,102.8906" fill="none" style="stroke:#FF5F46;stroke-width:3;"/><rect fill="#0078D4" height="36.2969" rx="12.5" ry="12.5" style="stroke:#0078D4;stroke-width:3;" width="42.7637" x="198.46" y="148.7813"/><text fill="#FFFFFF" font-family="sans-serif" font-size="14" lengthAdjust="spacing" textLength="22.7637" x="208.46" y="171.7764">Pro</text><text fill="#000000" font-family="sans-serif" font-size="14" lengthAdjust="spacing" textLength="132.2275" x="294.2236" y="153.4795">More customizable</text><path d="M241.2236,166.9297 L251.2236,166.9297 C266.2236,166.9297 266.2236,148.6328 281.2236,148.6328 L291.2236,148.6328" fill="none" style="stroke:#0078D4;stroke-width:3;"/><text fill="#000000" font-family="sans-serif" font-size="14" lengthAdjust="spacing" textLength="142.3857" x="294.2236" y="171.7764">~4 min startup time</text><path d="M241.2236,166.9297 L251.2236,166.9297 C266.2236,166.9297 266.2236,166.9297 281.2236,166.9297 L291.2236,166.9297" fill="none" style="stroke:#0078D4;stroke-width:3;"/><text fill="#000000" font-family="sans-serif" font-size="14" lengthAdjust="spacing" textLength="237.7881" x="294.2236" y="190.0732">Consistent, predictable workloads</text><path d="M241.2236,166.9297 L251.2236,166.9297 C266.2236,166.9297 266.2236,185.2266 281.2236,185.2266 L291.2236,185.2266" fill="none" style="stroke:#0078D4;stroke-width:3;"/><path d="M148.46,130.6875 L158.46,130.6875 C173.46,130.6875 173.46,166.9297 188.46,166.9297 L198.46,166.9297" fill="none" style="stroke:#FF5F46;stroke-width:3;"/><rect fill="#0078D4" height="36.2969" rx="12.5" ry="12.5" style="stroke:#0078D4;stroke-width:3;" width="68.4189" x="198.46" y="205.0781"/><text fill="#FFFFFF" font-family="sans-serif" font-size="14" lengthAdjust="spacing" textLength="48.4189" x="208.46" y="228.0732">Classic</text><text fill="#000000" font-family="sans-serif" font-size="14" lengthAdjust="spacing" textLength="222.373" x="319.8789" y="209.7764">Runs in your Azure subscription</text><path d="M266.8789,223.2266 L276.8789,223.2266 C291.8789,223.2266 291.8789,204.9297 306.8789,204.9297 L316.8789,204.9297" fill="none" style="stroke:#0078D4;stroke-width:3;"/><text fill="#000000" font-family="sans-serif" font-size="14" lengthAdjust="spacing" textLength="98.5811" x="319.8789" y="228.0732">Legacy option</text><path d="M266.8789,223.2266 L276.8789,223.2266 C291.8789,223.2266 291.8789,223.2266 306.8789,223.2266 L316.8789,223.2266" fill="none" style="stroke:#0078D4;stroke-width:3;"/><text fill="#000000" font-family="sans-serif" font-size="14" lengthAdjust="spacing" textLength="240.4268" x="319.8789" y="246.3701">Specific governance requirements</text><path d="M266.8789,223.2266 L276.8789,223.2266 C291.8789,223.2266 291.8789,241.5234 306.8789,241.5234 L316.8789,241.5234" fill="none" style="stroke:#0078D4;stroke-width:3;"/><path d="M148.46,130.6875 L158.46,130.6875 C173.46,130.6875 173.46,223.2266 188.46,223.2266 L198.46,223.2266" fill="none" style="stroke:#FF5F46;stroke-width:3;"/><?plantuml-src VPDlRzCm4CRVvrESX8IWWf9rtVYZ2GrQHK8gqaQHzX8vpYMnclWo-mna4tnsBauweAZSoyTtl-VkR5zwLevROujMTSc5vxx1jycR0ZkkdwHFuJu1YVTAxof7mHOhQiZ1eomxovRdyMnZBFwhPcHvKiiO3xcVQwDt5hs7qtcQ_DXxdHprIjENhzRBGwy3zM_gGGTPZDzUYwDUPPc_JjD3hmFrlrvf3F7AwNipvDmVpRXuCQrx1jlh3TmeXpK5ZpwPpU2cLWnSOmyYYp3x0bkj6fKt29hQBZ12ARYXyZQWCx5CijQeANGD5b0wQi4pELKD1DYY-ufkQ6hC_63byYq_0soKPwFttF4q4mtYwmWTF0OLcBmqO6mrddzKLhW5v3si5QlSoL8cy8eyFyUoDDhWmBS4feXzUux3NJcQ8EH43j9aQ-w6sKRvvnBaIJwuisbnJxRUU8xKpc5XDCUDV2EtQqWLaRwISRpHOyMdO3q8gwVWuDrT43yVSg-TwTYG7PCsM2dT0_qXRJlKHYQ0YcHfLbcDuF0s68UjsFla4kNFJFycEPalqiNv_3H7LcU_0000?></g></svg>