<svg xmlns="http://www.w3.org/2000/svg" xmlns:xlink="http://www.w3.org/1999/xlink" contentStyleType="text/css" data-diagram-type="MINDMAP" height="302px" preserveAspectRatio="none" style="width:611px;height:302px;background:#FFFFFF;" version="1.1" viewBox="0 0 611 302" width="611px" zoomAndPan="magnify"><?plantuml 1.2026.3beta5?><defs/><g><rect fill="#FF5F46" height="36.2969" rx="12.5" ry="12.5" style="stroke:#FF5F46;stroke-width:3;" width="104.6357" x="10" y="132.5938"/><text fill="#FFFFFF" font-family="sans-serif" font-size="14" lengthAdjust="spacing" textLength="84.6357" x="20" y="155.5889">Workspaces</text><rect fill="#0078D4" height="36.2969" rx="12.5" ry="12.5" style="stroke:#0078D4;stroke-width:3;" width="76.4307" x="164.6357" y="20"/><text fill="#FFFFFF" font-family="sans-serif" font-size="14" lengthAdjust="spacing" textLength="56.4307" x="174.6357" y="42.9951">Purpose</text><text fill="#000000" font-family="sans-serif" font-size="14" lengthAdjust="spacing" textLength="237.4941" x="294.0664" y="33.8467">Secure collaborative environment</text><path d="M241.0664,38.1484 L251.0664,38.1484 C266.0664,38.1484 266.0664,29 281.0664,29 L291.0664,29" fill="none" style="stroke:#0078D4;stroke-width:3;"/><text fill="#000000" font-family="sans-serif" font-size="14" lengthAdjust="spacing" textLength="234.2813" x="294.0664" y="52.1436">Central hub for Databricks assets</text><path d="M241.0664,38.1484 L251.0664,38.1484 C266.0664,38.1484 266.0664,47.2969 281.0664,47.2969 L291.0664,47.2969" fill="none" style="stroke:#0078D4;stroke-width:3;"/><path d="M114.6357,150.7422 L124.6357,150.7422 C139.6357,150.7422 139.6357,38.1484 154.6357,38.1484 L164.6357,38.1484" fill="none" style="stroke:#FF5F46;stroke-width:3;"/><rect fill="#0078D4" height="36.2969" rx="12.5" ry="12.5" style="stroke:#0078D4;stroke-width:3;" width="134.5088" x="164.6357" y="76.2969"/><text fill="#FFFFFF" font-family="sans-serif" font-size="14" lengthAdjust="spacing" textLength="114.5088" x="174.6357" y="99.292">Assets Managed</text><text fill="#000000" font-family="sans-serif" font-size="14" lengthAdjust="spacing" textLength="74.5596" x="352.1445" y="71.8467">Notebooks</text><path d="M299.1445,94.4453 L309.1445,94.4453 C324.1445,94.4453 324.1445,67 339.1445,67 L349.1445,67" fill="none" style="stroke:#0078D4;stroke-width:3;"/><text fill="#000000" font-family="sans-serif" font-size="14" lengthAdjust="spacing" textLength="105.6768" x="352.1445" y="90.1436">Clusters &amp; Jobs</text><path d="M299.1445,94.4453 L309.1445,94.4453 C324.1445,94.4453 324.1445,85.2969 339.1445,85.2969 L349.1445,85.2969" fill="none" style="stroke:#0078D4;stroke-width:3;"/><text fill="#000000" font-family="sans-serif" font-size="14" lengthAdjust="spacing" textLength="163.7754" x="352.1445" y="108.4404">Libraries &amp; Dashboards</text><path d="M299.1445,94.4453 L309.1445,94.4453 C324.1445,94.4453 324.1445,103.5938 339.1445,103.5938 L349.1445,103.5938" fill="none" style="stroke:#0078D4;stroke-width:3;"/><text fill="#000000" font-family="sans-serif" font-size="14" lengthAdjust="spacing" textLength="88.1836" x="352.1445" y="126.7373">Experiments</text><path d="M299.1445,94.4453 L309.1445,94.4453 C324.1445,94.4453 324.1445,121.8906 339.1445,121.8906 L349.1445,121.8906" fill="none" style="stroke:#0078D4;stroke-width:3;"/><path d="M114.6357,150.7422 L124.6357,150.7422 C139.6357,150.7422 139.6357,94.4453 154.6357,94.4453 L164.6357,94.4453" fill="none" style="stroke:#FF5F46;stroke-width:3;"/><rect fill="#0078D4" height="36.2969" rx="12.5" ry="12.5" style="stroke:#0078D4;stroke-width:3;" width="109.749" x="164.6357" y="132.5938"/><text fill="#FFFFFF" font-family="sans-serif" font-size="14" lengthAdjust="spacing" textLength="89.749" x="174.6357" y="155.5889">Organization</text><text fill="#000000" font-family="sans-serif" font-size="14" lengthAdjust="spacing" textLength="244.7266" x="327.3848" y="146.4404">Folder structure for projects/teams</text><path d="M274.3848,150.7422 L284.3848,150.7422 C299.3848,150.7422 299.3848,141.5938 314.3848,141.5938 L324.3848,141.5938" fill="none" style="stroke:#0078D4;stroke-width:3;"/><text fill="#000000" font-family="sans-serif" font-size="14" lengthAdjust="spacing" textLength="249.9014" x="327.3848" y="164.7373">Permission levels for access control</text><path d="M274.3848,150.7422 L284.3848,150.7422 C299.3848,150.7422 299.3848,159.8906 314.3848,159.8906 L324.3848,159.8906" fill="none" style="stroke:#0078D4;stroke-width:3;"/><path d="M114.6357,150.7422 L124.6357,150.7422 C139.6357,150.7422 139.6357,150.7422 154.6357,150.7422 L164.6357,150.7422" fill="none" style="stroke:#FF5F46;stroke-width:3;"/><rect fill="#0078D4" height="36.2969" rx="12.5" ry="12.5" style="stroke:#0078D4;stroke-width:3;" width="113.3037" x="164.6357" y="188.8906"/><text fill="#FFFFFF" font-family="sans-serif" font-size="14" lengthAdjust="spacing" textLength="93.3037" x="174.6357" y="211.8857">Collaboration</text><text fill="#000000" font-family="sans-serif" font-size="14" lengthAdjust="spacing" textLength="208.3867" x="330.9395" y="202.7373">Multiple users simultaneously</text><path d="M277.9395,207.0391 L287.9395,207.0391 C302.9395,207.0391 302.9395,197.8906 317.9395,197.8906 L327.9395,197.8906" fill="none" style="stroke:#0078D4;stroke-width:3;"/><text fill="#000000" font-family="sans-serif" font-size="14" lengthAdjust="spacing" textLength="249.1973" x="330.9395" y="221.0342">Data engineers, analysts, scientists</text><path d="M277.9395,207.0391 L287.9395,207.0391 C302.9395,207.0391 302.9395,216.1875 317.9395,216.1875 L327.9395,216.1875" fill="none" style="stroke:#0078D4;stroke-width:3;"/><path d="M114.6357,150.7422 L124.6357,150.7422 C139.6357,150.7422 139.6357,207.0391 154.6357,207.0391 L164.6357,207.0391" fill="none" style="stroke:#FF5F46;stroke-width:3;"/><rect fill="#0078D4" height="36.2969" rx="12.5" ry="12.5" style="stroke:#0078D4;stroke-width:3;" width="104.4375" x="164.6357" y="245.1875"/><text fill="#FFFFFF" font-family="sans-serif" font-size="14" lengthAdjust="spacing" textLength="84.4375" x="174.6357" y="268.1826">Integrations</text><text fill="#000000" font-family="sans-serif" font-size="14" lengthAdjust="spacing" textLength="229.0996" x="322.0732" y="249.8857">Unity Catalog (data governance)</text><path d="M269.0732,263.3359 L279.0732,263.3359 C294.0732,263.3359 294.0732,245.0391 309.0732,245.0391 L319.0732,245.0391" fill="none" style="stroke:#0078D4;stroke-width:3;"/><text fill="#000000" font-family="sans-serif" font-size="14" lengthAdjust="spacing" textLength="268.3789" x="322.0732" y="268.1826">Azure Resource Group (infrastructure)</text><path d="M269.0732,263.3359 L279.0732,263.3359 C294.0732,263.3359 294.0732,263.3359 309.0732,263.3359 L319.0732,263.3359" fill="none" style="stroke:#0078D4;stroke-width:3;"/><text fill="#000000" font-family="sans-serif" font-size="14" lengthAdjust="spacing" textLength="178.5957" x="322.0732" y="286.4795">REST APIs for automation</text><path d="M269.0732,263.3359 L279.0732,263.3359 C294.0732,263.3359 294.0732,281.6328 309.0732,281.6328 L319.0732,281.6328" fill="none" style="stroke:#0078D4;stroke-width:3;"/><path d="M114.6357,150.7422 L124.6357,150.7422 C139.6357,150.7422 139.6357,263.3359 154.6357,263.3359 L164.6357,263.3359" fill="none" style="stroke:#FF5F46;stroke-width:3;"/><?plantuml-src VLDTQnin47o_Nx5GA8ufpiNvR0abhfqhAKbhafG-5frkVLQjqnwxaeaJ-j-h-qX2NTnzMaQZdTcvquLunRuohgXKdPoBtrZyc7meiFRBGRe7Jmd4-gJqgcGAhfYI9OOtMNQS7PsqPzV6uRzeHixtwAAj5-xzqkYLGn4u7AN9xsUjWvrQQNfwDZlQrjf2_vwwvI1hwrLhl5DhiSZVf-csrXRwNwsqhQYLquDjE4yx6UVxVTn3-46yabffb6GuX7dWcWHZE_m9TwW38sYoLkN4ofir0hgrON8LEj-nfh5ZPM4PSbX4bPdoAkVeKq29e6_dJjeERfHJ9HRTnQ_aCITQIJ_71l780c_X2-KzU6roLcomGMTAbZafBlgpouSQsJH6MeblN2fd7gDBSXqX8riWWtWEsZURDFPgfb-elUnxL5K_QOvS6P5u4IokqKhBL5etAUgO7vDj9AQlIJnht0JhJMqHWZJUnLGHK0ufYDrqb2QG65iPlr-al8EOWTs8Zvre4zqRwHQuSXxBRdRlwxipVWFJUDzI2OEY6LJI6jafft6l8qqUczLkKIYmHlWSVweQ1iOjMBritbDlB-_kOJA_wlSBdgfkbGkChx1_YSd1Q9oEJqQ7ENfr_0S0?></g></svg>