<?plantuml 1.2026.2?><svg xmlns="http://www.w3.org/2000/svg" xmlns:xlink="http://www.w3.org/1999/xlink" contentStyleType="text/css" data-diagram-type="MINDMAP" height="304px" preserveAspectRatio="none" style="width:585px;height:304px;background:#FFFFFF;" version="1.1" viewBox="0 0 585 304" width="585px" zoomAndPan="magnify"><defs/><g><rect fill="#091F2C" height="36.4883" rx="12.5" ry="12.5" style="stroke:#181818;stroke-width:3;" width="100.2744" x="10" y="132.9766"/><text fill="#FFFFFF" font-family="sans-serif" font-size="14" lengthAdjust="spacing" textLength="80.2744" x="20" y="156.5117">Workspaces</text><rect fill="#FFB900" height="36.4883" rx="12.5" ry="12.5" style="stroke:#FFB900;stroke-width:3;" width="74.5029" x="160.2744" y="20"/><text fill="#000000" font-family="sans-serif" font-size="14" lengthAdjust="spacing" textLength="54.5029" x="170.2744" y="43.5352">Purpose</text><text fill="#000000" font-family="sans-serif" font-size="14" lengthAdjust="spacing" textLength="225.9756" x="287.7773" y="34.291">Secure collaborative environment</text><path d="M234.7773,38.2441 L244.7773,38.2441 C259.7773,38.2441 259.7773,29 274.7773,29 L284.7773,29" fill="none" style="stroke:#FFB900;stroke-width:3;"/><text fill="#000000" font-family="sans-serif" font-size="14" lengthAdjust="spacing" textLength="226.7412" x="287.7773" y="52.7793">Central hub for Databricks assets</text><path d="M234.7773,38.2441 L244.7773,38.2441 C259.7773,38.2441 259.7773,47.4883 274.7773,47.4883 L284.7773,47.4883" fill="none" style="stroke:#FFB900;stroke-width:3;"/><path d="M110.2744,151.2207 L120.2744,151.2207 C135.2744,151.2207 135.2744,38.2441 150.2744,38.2441 L160.2744,38.2441" fill="none" style="stroke:#181818;stroke-width:3;"/><rect fill="#FFB900" height="36.4883" rx="12.5" ry="12.5" style="stroke:#FFB900;stroke-width:3;" width="130.0859" x="160.2744" y="76.4883"/><text fill="#000000" font-family="sans-serif" font-size="14" lengthAdjust="spacing" textLength="110.0859" x="170.2744" y="100.0234">Assets Managed</text><text fill="#000000" font-family="sans-serif" font-size="14" lengthAdjust="spacing" textLength="73.3086" x="343.3604" y="72.291">Notebooks</text><path d="M290.3604,94.7324 L300.3604,94.7324 C315.3604,94.7324 315.3604,67 330.3604,67 L340.3604,67" fill="none" style="stroke:#FFB900;stroke-width:3;"/><text fill="#000000" font-family="sans-serif" font-size="14" lengthAdjust="spacing" textLength="102.9834" x="343.3604" y="90.7793">Clusters &amp; Jobs</text><path d="M290.3604,94.7324 L300.3604,94.7324 C315.3604,94.7324 315.3604,85.4883 330.3604,85.4883 L340.3604,85.4883" fill="none" style="stroke:#FFB900;stroke-width:3;"/><text fill="#000000" font-family="sans-serif" font-size="14" lengthAdjust="spacing" textLength="157.9785" x="343.3604" y="109.2676">Libraries &amp; Dashboards</text><path d="M290.3604,94.7324 L300.3604,94.7324 C315.3604,94.7324 315.3604,103.9766 330.3604,103.9766 L340.3604,103.9766" fill="none" style="stroke:#FFB900;stroke-width:3;"/><text fill="#000000" font-family="sans-serif" font-size="14" lengthAdjust="spacing" textLength="84.4922" x="343.3604" y="127.7559">Experiments</text><path d="M290.3604,94.7324 L300.3604,94.7324 C315.3604,94.7324 315.3604,122.4648 330.3604,122.4648 L340.3604,122.4648" fill="none" style="stroke:#FFB900;stroke-width:3;"/><path d="M110.2744,151.2207 L120.2744,151.2207 C135.2744,151.2207 135.2744,94.7324 150.2744,94.7324 L160.2744,94.7324" fill="none" style="stroke:#181818;stroke-width:3;"/><rect fill="#FFB900" height="36.4883" rx="12.5" ry="12.5" style="stroke:#FFB900;stroke-width:3;" width="108.1289" x="160.2744" y="132.9766"/><text fill="#000000" font-family="sans-serif" font-size="14" lengthAdjust="spacing" textLength="88.1289" x="170.2744" y="156.5117">Organization</text><text fill="#000000" font-family="sans-serif" font-size="14" lengthAdjust="spacing" textLength="239.7295" x="321.4033" y="147.2676">Folder structure for projects/teams</text><path d="M268.4033,151.2207 L278.4033,151.2207 C293.4033,151.2207 293.4033,141.9766 308.4033,141.9766 L318.4033,141.9766" fill="none" style="stroke:#FFB900;stroke-width:3;"/><text fill="#000000" font-family="sans-serif" font-size="14" lengthAdjust="spacing" textLength="241.4795" x="321.4033" y="165.7559">Permission levels for access control</text><path d="M268.4033,151.2207 L278.4033,151.2207 C293.4033,151.2207 293.4033,160.4648 308.4033,160.4648 L318.4033,160.4648" fill="none" style="stroke:#FFB900;stroke-width:3;"/><path d="M110.2744,151.2207 L120.2744,151.2207 C135.2744,151.2207 135.2744,151.2207 150.2744,151.2207 L160.2744,151.2207" fill="none" style="stroke:#181818;stroke-width:3;"/><rect fill="#FFB900" height="36.4883" rx="12.5" ry="12.5" style="stroke:#FFB900;stroke-width:3;" width="111.5537" x="160.2744" y="189.4648"/><text fill="#000000" font-family="sans-serif" font-size="14" lengthAdjust="spacing" textLength="91.5537" x="170.2744" y="213">Collaboration</text><text fill="#000000" font-family="sans-serif" font-size="14" lengthAdjust="spacing" textLength="202.3164" x="324.8281" y="203.7559">Multiple users simultaneously</text><path d="M271.8281,207.709 L281.8281,207.709 C296.8281,207.709 296.8281,198.4648 311.8281,198.4648 L321.8281,198.4648" fill="none" style="stroke:#FFB900;stroke-width:3;"/><text fill="#000000" font-family="sans-serif" font-size="14" lengthAdjust="spacing" textLength="238.4102" x="324.8281" y="222.2441">Data engineers, analysts, scientists</text><path d="M271.8281,207.709 L281.8281,207.709 C296.8281,207.709 296.8281,216.9531 311.8281,216.9531 L321.8281,216.9531" fill="none" style="stroke:#FFB900;stroke-width:3;"/><path d="M110.2744,151.2207 L120.2744,151.2207 C135.2744,151.2207 135.2744,207.709 150.2744,207.709 L160.2744,207.709" fill="none" style="stroke:#181818;stroke-width:3;"/><rect fill="#FFB900" height="36.4883" rx="12.5" ry="12.5" style="stroke:#FFB900;stroke-width:3;" width="101.6553" x="160.2744" y="245.9531"/><text fill="#000000" font-family="sans-serif" font-size="14" lengthAdjust="spacing" textLength="81.6553" x="170.2744" y="269.4883">Integrations</text><text fill="#000000" font-family="sans-serif" font-size="14" lengthAdjust="spacing" textLength="216.8359" x="314.9297" y="251">Unity Catalog (data governance)</text><path d="M261.9297,264.1973 L271.9297,264.1973 C286.9297,264.1973 286.9297,245.709 301.9297,245.709 L311.9297,245.709" fill="none" style="stroke:#FFB900;stroke-width:3;"/><text fill="#000000" font-family="sans-serif" font-size="14" lengthAdjust="spacing" textLength="258.7744" x="314.9297" y="269.4883">Azure Resource Group (infrastructure)</text><path d="M261.9297,264.1973 L271.9297,264.1973 C286.9297,264.1973 286.9297,264.1973 301.9297,264.1973 L311.9297,264.1973" fill="none" style="stroke:#FFB900;stroke-width:3;"/><text fill="#000000" font-family="sans-serif" font-size="14" lengthAdjust="spacing" textLength="171.7939" x="314.9297" y="287.9766">REST APIs for automation</text><path d="M261.9297,264.1973 L271.9297,264.1973 C286.9297,264.1973 286.9297,282.6855 301.9297,282.6855 L311.9297,282.6855" fill="none" style="stroke:#FFB900;stroke-width:3;"/><path d="M110.2744,151.2207 L120.2744,151.2207 C135.2744,151.2207 135.2744,264.1973 150.2744,264.1973 L160.2744,264.1973" fill="none" style="stroke:#181818;stroke-width:3;"/><?plantuml-src VLDXJzim4FsUNt7IfAbKKqaBGc924rs1YGbO1KpxE3dE9VNg-A8xkw8W_lli983OnlpfT7xtthkN-5YyOjyOLpQgpOx4Ror-oZwMsFhLAD-1XmpY-QpqkcOAhboG9OPt-U6qckdkxeoS7xfLTxhkXN5ukp9wxL04zYPvzlZ4EdsJjQgAmpn_dlztzpNh7mxoxhnepTxMsjyxsDT_QRtk_bThsFOnA-ZE9ip3cswETeTWn_23U2sjqYZPU0pBm2q9ndBy4svG1qRGPAqgY9Kt6mHq6yFa6dI-HorYnSh2AXHGHPKJvLN1qQU04a7VySwx2YwLKpMM_U0LUIo8rZBms20UMU0zVALYQ5wOWXKRJDqJ9Qk259V3tUbTYsoIaKxY6zVAcVleabmFE2DR8eDu3jgdJPAzbkaNQY-x7bKpC2sH6oCI1y7Y1grqIALrIb77_9XiabYy9F6aSHciDwr529AyYsbYGpca87RRGr8WCROwVhy8-G0n0xiL7olH9hetqYzmxZpMFVVWwxipVWkBE6-fXb6PY6hQ83lbDExqeFbzMkqQXG9hX2_nfsfXP5p5wddp0NfzUdCBy-Nvi5_mrFIh76DyRyERowQJMJuxcCn-0m00?></g></svg>