<?plantuml 1.2026.2?><svg xmlns="http://www.w3.org/2000/svg" xmlns:xlink="http://www.w3.org/1999/xlink" contentStyleType="text/css" data-diagram-type="MINDMAP" height="424px" preserveAspectRatio="none" style="width:841px;height:424px;background:#FFFFFF;" version="1.1" viewBox="0 0 841 424" width="841px" zoomAndPan="magnify"><defs/><g><rect fill="#091F2C" height="36.4883" rx="12.5" ry="12.5" style="stroke:#181818;stroke-width:3;" width="140.1895" x="10" y="193.0635"/><text fill="#FFFFFF" font-family="sans-serif" font-size="14" lengthAdjust="spacing" textLength="120.1895" x="20" y="216.5986">Microsoft Purview</text><rect fill="#FFB900" height="36.4883" rx="12.5" ry="12.5" style="stroke:#FFB900;stroke-width:3;" width="82.959" x="200.1895" y="20"/><text fill="#000000" font-family="sans-serif" font-size="14" lengthAdjust="spacing" textLength="62.959" x="210.1895" y="43.5352">What it is</text><text fill="#000000" font-family="sans-serif" font-size="14" lengthAdjust="spacing" textLength="236.4756" x="336.1484" y="34.291">Enterprise data governance service</text><path d="M283.1484,38.2441 L293.1484,38.2441 C308.1484,38.2441 308.1484,29 323.1484,29 L333.1484,29" fill="none" style="stroke:#FFB900;stroke-width:3;"/><text fill="#000000" font-family="sans-serif" font-size="14" lengthAdjust="spacing" textLength="303.1875" x="336.1484" y="52.7793">Cross-platform: on-prem, multi-cloud, SaaS</text><path d="M283.1484,38.2441 L293.1484,38.2441 C308.1484,38.2441 308.1484,47.4883 323.1484,47.4883 L333.1484,47.4883" fill="none" style="stroke:#FFB900;stroke-width:3;"/><path d="M150.1895,211.3076 L160.1895,211.3076 C175.1895,211.3076 175.1895,38.2441 190.1895,38.2441 L200.1895,38.2441" fill="none" style="stroke:#181818;stroke-width:3;"/><rect fill="#FFB900" height="36.4883" rx="12.5" ry="12.5" style="stroke:#FFB900;stroke-width:3;" width="113.8711" x="200.1895" y="76.4883"/><text fill="#000000" font-family="sans-serif" font-size="14" lengthAdjust="spacing" textLength="93.8711" x="210.1895" y="100.0234">Core Features</text><text fill="#000000" font-family="sans-serif" font-size="14" lengthAdjust="spacing" textLength="99.4697" x="367.0605" y="72.291">Data discovery</text><path d="M314.0605,94.7324 L324.0605,94.7324 C339.0605,94.7324 339.0605,67 354.0605,67 L364.0605,67" fill="none" style="stroke:#FFB900;stroke-width:3;"/><text fill="#000000" font-family="sans-serif" font-size="14" lengthAdjust="spacing" textLength="123.5527" x="367.0605" y="90.7793">Data classification</text><path d="M314.0605,94.7324 L324.0605,94.7324 C339.0605,94.7324 339.0605,85.4883 354.0605,85.4883 L364.0605,85.4883" fill="none" style="stroke:#FFB900;stroke-width:3;"/><text fill="#000000" font-family="sans-serif" font-size="14" lengthAdjust="spacing" textLength="112.2051" x="367.0605" y="109.2676">Lineage tracking</text><path d="M314.0605,94.7324 L324.0605,94.7324 C339.0605,94.7324 339.0605,103.9766 354.0605,103.9766 L364.0605,103.9766" fill="none" style="stroke:#FFB900;stroke-width:3;"/><text fill="#000000" font-family="sans-serif" font-size="14" lengthAdjust="spacing" textLength="128.6865" x="367.0605" y="127.7559">Access governance</text><path d="M314.0605,94.7324 L324.0605,94.7324 C339.0605,94.7324 339.0605,122.4648 354.0605,122.4648 L364.0605,122.4648" fill="none" style="stroke:#FFB900;stroke-width:3;"/><path d="M150.1895,211.3076 L160.1895,211.3076 C175.1895,211.3076 175.1895,94.7324 190.1895,94.7324 L200.1895,94.7324" fill="none" style="stroke:#181818;stroke-width:3;"/><rect fill="#FFB900" height="36.4883" rx="12.5" ry="12.5" style="stroke:#FFB900;stroke-width:3;" width="171.2109" x="200.1895" y="235.1738"/><text fill="#000000" font-family="sans-serif" font-size="14" lengthAdjust="spacing" textLength="151.2109" x="210.1895" y="258.709">Databricks Integration</text><rect fill="#F4364C" height="36.4883" rx="12.5" ry="12.5" style="stroke:#F4364C;stroke-width:3;" width="81.2842" x="421.4004" y="150.4414"/><text fill="#FFFFFF" font-family="sans-serif" font-size="14" lengthAdjust="spacing" textLength="61.2842" x="431.4004" y="173.9766">Scanning</text><text fill="#000000" font-family="sans-serif" font-size="14" lengthAdjust="spacing" textLength="208.9473" x="555.6846" y="146.2441">Scan public &amp; private networks</text><path d="M502.6846,168.6855 L512.6846,168.6855 C527.6846,168.6855 527.6846,140.9531 542.6846,140.9531 L552.6846,140.9531" fill="none" style="stroke:#F4364C;stroke-width:3;"/><text fill="#000000" font-family="sans-serif" font-size="14" lengthAdjust="spacing" textLength="243.2363" x="555.6846" y="164.7324">Scan entire Unity Catalog metastore</text><path d="M502.6846,168.6855 L512.6846,168.6855 C527.6846,168.6855 527.6846,159.4414 542.6846,159.4414 L552.6846,159.4414" fill="none" style="stroke:#F4364C;stroke-width:3;"/><text fill="#000000" font-family="sans-serif" font-size="14" lengthAdjust="spacing" textLength="175.2871" x="555.6846" y="183.2207">Or scan selective catalogs</text><path d="M502.6846,168.6855 L512.6846,168.6855 C527.6846,168.6855 527.6846,177.9297 542.6846,177.9297 L552.6846,177.9297" fill="none" style="stroke:#F4364C;stroke-width:3;"/><text fill="#000000" font-family="sans-serif" font-size="14" lengthAdjust="spacing" textLength="217.0137" x="555.6846" y="201.709">On-demand or scheduled scans</text><path d="M502.6846,168.6855 L512.6846,168.6855 C527.6846,168.6855 527.6846,196.418 542.6846,196.418 L552.6846,196.418" fill="none" style="stroke:#F4364C;stroke-width:3;"/><path d="M371.4004,253.418 L381.4004,253.418 C396.4004,253.418 396.4004,168.6855 411.4004,168.6855 L421.4004,168.6855" fill="none" style="stroke:#FFB900;stroke-width:3;"/><rect fill="#F4364C" height="36.4883" rx="12.5" ry="12.5" style="stroke:#F4364C;stroke-width:3;" width="155.3789" x="421.4004" y="215.6621"/><text fill="#FFFFFF" font-family="sans-serif" font-size="14" lengthAdjust="spacing" textLength="135.3789" x="431.4004" y="239.1973">Metadata Extraction</text><text fill="#000000" font-family="sans-serif" font-size="14" lengthAdjust="spacing" textLength="200.1631" x="629.7793" y="229.9531">Metastore, catalogs, schemas</text><path d="M576.7793,233.9063 L586.7793,233.9063 C601.7793,233.9063 601.7793,224.6621 616.7793,224.6621 L626.7793,224.6621" fill="none" style="stroke:#F4364C;stroke-width:3;"/><text fill="#000000" font-family="sans-serif" font-size="14" lengthAdjust="spacing" textLength="156.5156" x="629.7793" y="248.4414">Tables, views, columns</text><path d="M576.7793,233.9063 L586.7793,233.9063 C601.7793,233.9063 601.7793,243.1504 616.7793,243.1504 L626.7793,243.1504" fill="none" style="stroke:#F4364C;stroke-width:3;"/><path d="M371.4004,253.418 L381.4004,253.418 C396.4004,253.418 396.4004,233.9063 411.4004,233.9063 L421.4004,233.9063" fill="none" style="stroke:#FFB900;stroke-width:3;"/><rect fill="#F4364C" height="36.4883" rx="12.5" ry="12.5" style="stroke:#F4364C;stroke-width:3;" width="110.4531" x="421.4004" y="272.1504"/><text fill="#FFFFFF" font-family="sans-serif" font-size="14" lengthAdjust="spacing" textLength="90.4531" x="431.4004" y="295.6855">Classification</text><text fill="#000000" font-family="sans-serif" font-size="14" lengthAdjust="spacing" textLength="181.1045" x="584.8535" y="277.1973">Built-in classification rules</text><path d="M531.8535,290.3945 L541.8535,290.3945 C556.8535,290.3945 556.8535,271.9063 571.8535,271.9063 L581.8535,271.9063" fill="none" style="stroke:#F4364C;stroke-width:3;"/><text fill="#000000" font-family="sans-serif" font-size="14" lengthAdjust="spacing" textLength="183.2373" x="584.8535" y="295.6855">Custom user-defined rules</text><path d="M531.8535,290.3945 L541.8535,290.3945 C556.8535,290.3945 556.8535,290.3945 571.8535,290.3945 L581.8535,290.3945" fill="none" style="stroke:#F4364C;stroke-width:3;"/><text fill="#000000" font-family="sans-serif" font-size="14" lengthAdjust="spacing" textLength="160.2549" x="584.8535" y="314.1738">Identifies sensitive data</text><path d="M531.8535,290.3945 L541.8535,290.3945 C556.8535,290.3945 556.8535,308.8828 571.8535,308.8828 L581.8535,308.8828" fill="none" style="stroke:#F4364C;stroke-width:3;"/><path d="M371.4004,253.418 L381.4004,253.418 C396.4004,253.418 396.4004,290.3945 411.4004,290.3945 L421.4004,290.3945" fill="none" style="stroke:#FFB900;stroke-width:3;"/><rect fill="#F4364C" height="36.4883" rx="12.5" ry="12.5" style="stroke:#F4364C;stroke-width:3;" width="72.2607" x="421.4004" y="328.6387"/><text fill="#FFFFFF" font-family="sans-serif" font-size="14" lengthAdjust="spacing" textLength="52.2607" x="431.4004" y="352.1738">Lineage</text><text fill="#000000" font-family="sans-serif" font-size="14" lengthAdjust="spacing" textLength="231.4854" x="546.6611" y="342.9297">How data is transformed &amp; moved</text><path d="M493.6611,346.8828 L503.6611,346.8828 C518.6611,346.8828 518.6611,337.6387 533.6611,337.6387 L543.6611,337.6387" fill="none" style="stroke:#F4364C;stroke-width:3;"/><text fill="#000000" font-family="sans-serif" font-size="14" lengthAdjust="spacing" textLength="206.1035" x="546.6611" y="361.418">Across systems and processes</text><path d="M493.6611,346.8828 L503.6611,346.8828 C518.6611,346.8828 518.6611,356.127 533.6611,356.127 L543.6611,356.127" fill="none" style="stroke:#F4364C;stroke-width:3;"/><path d="M371.4004,253.418 L381.4004,253.418 C396.4004,253.418 396.4004,346.8828 411.4004,346.8828 L421.4004,346.8828" fill="none" style="stroke:#FFB900;stroke-width:3;"/><path d="M150.1895,211.3076 L160.1895,211.3076 C175.1895,211.3076 175.1895,253.418 190.1895,253.418 L200.1895,253.418" fill="none" style="stroke:#181818;stroke-width:3;"/><rect fill="#FFB900" height="36.4883" rx="12.5" ry="12.5" style="stroke:#FFB900;stroke-width:3;" width="114.4248" x="200.1895" y="366.127"/><text fill="#000000" font-family="sans-serif" font-size="14" lengthAdjust="spacing" textLength="94.4248" x="210.1895" y="389.6621">Also Supports</text><text fill="#000000" font-family="sans-serif" font-size="14" lengthAdjust="spacing" textLength="218.7568" x="367.6143" y="389.6621">Workspace-level Hive metastore</text><path d="M314.6143,384.3711 L324.6143,384.3711 C339.6143,384.3711 339.6143,384.3711 354.6143,384.3711 L364.6143,384.3711" fill="none" style="stroke:#FFB900;stroke-width:3;"/><path d="M150.1895,211.3076 L160.1895,211.3076 C175.1895,211.3076 175.1895,384.3711 190.1895,384.3711 L200.1895,384.3711" fill="none" style="stroke:#181818;stroke-width:3;"/><?plantuml-src VLJlQzim4Ftkl-9WKBOGPqvQ2YrbDCrQMbZe81tzE1Jfx8ZeXv7afA7qV-_9aTEcNIOCngTtxzsxEtpf0tD1IoCqgxCB7pOAVsJd0kkm-5fyW-SCw5mnlgoSROoOM6KTV2dEXkM8jtStreGKBTlJHdz9WmyBoPS6lOVZGP6zTAp3WwnbEJyhYbt-lwFxh1ygADhpfZKwh7LoV7h2FsdjH_-hbTo-P7Fxf2Bc-M0r5zzJOtimbTnPRyi0lnktahZEUZruNB00aXvFNxs_S6q2kjf9Zo1OO53P5Jh334VmI5aSjxW9KVcyLYoKrkbpi2Ql7Ue-w4O5cNDb6z676MEpg3An3k46MMWS9g6VaLr8pwF0vbsCA-QzB2LdGLgplOWTOHL2SDHCQQfjTCnvDFzMOfIA77D7pVDmHrugjwE16MV6f6nAZvzGDtCbEHm1ULwnW60mhArR-lSWD46IWJz6XWrCI43P2ZG6vWCPIyXx1pw2FIhaGQuG-1RPKTsRNA1cHe2Dq0MAHg5eare8J8cnRVhrKpJQrKsfqqwhloFjjnIQTUmFR4whq8SuM7fngngTU2UVEahugqQga4lpeT_WgAYESzAGg8Q69a-bbpG4iNT_9s9dIecUN1ilMzVHGIkRXfQmjtQztIZfunYDZtj3V4UWQNuYeSPnHObjumDg3x5PjRDnpAqeZ9MtC6lgshgG5kanJgjc77E5ArHm6uju6yubqWyc_MIouM1KZ4u7erS0?></g></svg>