<svg xmlns="http://www.w3.org/2000/svg" xmlns:xlink="http://www.w3.org/1999/xlink" contentStyleType="text/css" data-diagram-type="MINDMAP" height="421px" preserveAspectRatio="none" style="width:876px;height:421px;background:#FFFFFF;" version="1.1" viewBox="0 0 876 421" width="876px" zoomAndPan="magnify"><?plantuml 1.2026.3beta5?><defs/><g><rect fill="#FF5F46" height="36.2969" rx="12.5" ry="12.5" style="stroke:#FF5F46;stroke-width:3;" width="144.0244" x="10" y="192.0586"/><text fill="#FFFFFF" font-family="sans-serif" font-size="14" lengthAdjust="spacing" textLength="124.0244" x="20" y="215.0537">Microsoft Purview</text><rect fill="#0078D4" height="36.2969" rx="12.5" ry="12.5" style="stroke:#0078D4;stroke-width:3;" width="86.2471" x="204.0244" y="20"/><text fill="#FFFFFF" font-family="sans-serif" font-size="14" lengthAdjust="spacing" textLength="66.2471" x="214.0244" y="42.9951">What it is</text><text fill="#000000" font-family="sans-serif" font-size="14" lengthAdjust="spacing" textLength="249.792" x="343.2715" y="33.8467">Enterprise data governance service</text><path d="M290.2715,38.1484 L300.2715,38.1484 C315.2715,38.1484 315.2715,29 330.2715,29 L340.2715,29" fill="none" style="stroke:#0078D4;stroke-width:3;"/><text fill="#000000" font-family="sans-serif" font-size="14" lengthAdjust="spacing" textLength="303.4951" x="343.2715" y="52.1436">Cross-platform: on-prem, multi-cloud, SaaS</text><path d="M290.2715,38.1484 L300.2715,38.1484 C315.2715,38.1484 315.2715,47.2969 330.2715,47.2969 L340.2715,47.2969" fill="none" style="stroke:#0078D4;stroke-width:3;"/><path d="M154.0244,210.207 L164.0244,210.207 C179.0244,210.207 179.0244,38.1484 194.0244,38.1484 L204.0244,38.1484" fill="none" style="stroke:#FF5F46;stroke-width:3;"/><rect fill="#0078D4" height="36.2969" rx="12.5" ry="12.5" style="stroke:#0078D4;stroke-width:3;" width="118.4307" x="204.0244" y="76.2969"/><text fill="#FFFFFF" font-family="sans-serif" font-size="14" lengthAdjust="spacing" textLength="98.4307" x="214.0244" y="99.292">Core Features</text><text fill="#000000" font-family="sans-serif" font-size="14" lengthAdjust="spacing" textLength="105.1504" x="375.4551" y="71.8467">Data discovery</text><path d="M322.4551,94.4453 L332.4551,94.4453 C347.4551,94.4453 347.4551,67 362.4551,67 L372.4551,67" fill="none" style="stroke:#0078D4;stroke-width:3;"/><text fill="#000000" font-family="sans-serif" font-size="14" lengthAdjust="spacing" textLength="128.4336" x="375.4551" y="90.1436">Data classification</text><path d="M322.4551,94.4453 L332.4551,94.4453 C347.4551,94.4453 347.4551,85.2969 362.4551,85.2969 L372.4551,85.2969" fill="none" style="stroke:#0078D4;stroke-width:3;"/><text fill="#000000" font-family="sans-serif" font-size="14" lengthAdjust="spacing" textLength="116.9834" x="375.4551" y="108.4404">Lineage tracking</text><path d="M322.4551,94.4453 L332.4551,94.4453 C347.4551,94.4453 347.4551,103.5938 362.4551,103.5938 L372.4551,103.5938" fill="none" style="stroke:#0078D4;stroke-width:3;"/><text fill="#000000" font-family="sans-serif" font-size="14" lengthAdjust="spacing" textLength="135.3652" x="375.4551" y="126.7373">Access governance</text><path d="M322.4551,94.4453 L332.4551,94.4453 C347.4551,94.4453 347.4551,121.8906 362.4551,121.8906 L372.4551,121.8906" fill="none" style="stroke:#0078D4;stroke-width:3;"/><path d="M154.0244,210.207 L164.0244,210.207 C179.0244,210.207 179.0244,94.4453 194.0244,94.4453 L204.0244,94.4453" fill="none" style="stroke:#FF5F46;stroke-width:3;"/><rect fill="#0078D4" height="36.2969" rx="12.5" ry="12.5" style="stroke:#0078D4;stroke-width:3;" width="176.6523" x="204.0244" y="233.9297"/><text fill="#FFFFFF" font-family="sans-serif" font-size="14" lengthAdjust="spacing" textLength="156.6523" x="214.0244" y="256.9248">Databricks Integration</text><rect fill="#FFB900" height="36.2969" rx="12.5" ry="12.5" style="stroke:#FFB900;stroke-width:3;" width="84.5586" x="430.6768" y="149.4844"/><text fill="#000000" font-family="sans-serif" font-size="14" lengthAdjust="spacing" textLength="64.5586" x="440.6768" y="172.4795">Scanning</text><text fill="#000000" font-family="sans-serif" font-size="14" lengthAdjust="spacing" textLength="218.5244" x="568.2354" y="145.0342">Scan public &amp; private networks</text><path d="M515.2354,167.6328 L525.2354,167.6328 C540.2354,167.6328 540.2354,140.1875 555.2354,140.1875 L565.2354,140.1875" fill="none" style="stroke:#FFB900;stroke-width:3;"/><text fill="#000000" font-family="sans-serif" font-size="14" lengthAdjust="spacing" textLength="255.6572" x="568.2354" y="163.3311">Scan entire Unity Catalog metastore</text><path d="M515.2354,167.6328 L525.2354,167.6328 C540.2354,167.6328 540.2354,158.4844 555.2354,158.4844 L565.2354,158.4844" fill="none" style="stroke:#FFB900;stroke-width:3;"/><text fill="#000000" font-family="sans-serif" font-size="14" lengthAdjust="spacing" textLength="183.9346" x="568.2354" y="181.6279">Or scan selective catalogs</text><path d="M515.2354,167.6328 L525.2354,167.6328 C540.2354,167.6328 540.2354,176.7813 555.2354,176.7813 L565.2354,176.7813" fill="none" style="stroke:#FFB900;stroke-width:3;"/><text fill="#000000" font-family="sans-serif" font-size="14" lengthAdjust="spacing" textLength="221.457" x="568.2354" y="199.9248">On-demand or scheduled scans</text><path d="M515.2354,167.6328 L525.2354,167.6328 C540.2354,167.6328 540.2354,195.0781 555.2354,195.0781 L565.2354,195.0781" fill="none" style="stroke:#FFB900;stroke-width:3;"/><path d="M380.6768,252.0781 L390.6768,252.0781 C405.6768,252.0781 405.6768,167.6328 420.6768,167.6328 L430.6768,167.6328" fill="none" style="stroke:#0078D4;stroke-width:3;"/><rect fill="#FFB900" height="36.2969" rx="12.5" ry="12.5" style="stroke:#FFB900;stroke-width:3;" width="162.2148" x="430.6768" y="214.2266"/><text fill="#000000" font-family="sans-serif" font-size="14" lengthAdjust="spacing" textLength="142.2148" x="440.6768" y="237.2217">Metadata Extraction</text><text fill="#000000" font-family="sans-serif" font-size="14" lengthAdjust="spacing" textLength="209.248" x="645.8916" y="228.0732">Metastore, catalogs, schemas</text><path d="M592.8916,232.375 L602.8916,232.375 C617.8916,232.375 617.8916,223.2266 632.8916,223.2266 L642.8916,223.2266" fill="none" style="stroke:#FFB900;stroke-width:3;"/><text fill="#000000" font-family="sans-serif" font-size="14" lengthAdjust="spacing" textLength="161.9775" x="645.8916" y="246.3701">Tables, views, columns</text><path d="M592.8916,232.375 L602.8916,232.375 C617.8916,232.375 617.8916,241.5234 632.8916,241.5234 L642.8916,241.5234" fill="none" style="stroke:#FFB900;stroke-width:3;"/><path d="M380.6768,252.0781 L390.6768,252.0781 C405.6768,252.0781 405.6768,232.375 420.6768,232.375 L430.6768,232.375" fill="none" style="stroke:#0078D4;stroke-width:3;"/><rect fill="#FFB900" height="36.2969" rx="12.5" ry="12.5" style="stroke:#FFB900;stroke-width:3;" width="112.6338" x="430.6768" y="270.5234"/><text fill="#000000" font-family="sans-serif" font-size="14" lengthAdjust="spacing" textLength="92.6338" x="440.6768" y="293.5186">Classification</text><text fill="#000000" font-family="sans-serif" font-size="14" lengthAdjust="spacing" textLength="183.4424" x="596.3105" y="275.2217">Built-in classification rules</text><path d="M543.3105,288.6719 L553.3105,288.6719 C568.3105,288.6719 568.3105,270.375 583.3105,270.375 L593.3105,270.375" fill="none" style="stroke:#FFB900;stroke-width:3;"/><text fill="#000000" font-family="sans-serif" font-size="14" lengthAdjust="spacing" textLength="185.2402" x="596.3105" y="293.5186">Custom user-defined rules</text><path d="M543.3105,288.6719 L553.3105,288.6719 C568.3105,288.6719 568.3105,288.6719 583.3105,288.6719 L593.3105,288.6719" fill="none" style="stroke:#FFB900;stroke-width:3;"/><text fill="#000000" font-family="sans-serif" font-size="14" lengthAdjust="spacing" textLength="167.2822" x="596.3105" y="311.8154">Identifies sensitive data</text><path d="M543.3105,288.6719 L553.3105,288.6719 C568.3105,288.6719 568.3105,306.9688 583.3105,306.9688 L593.3105,306.9688" fill="none" style="stroke:#FFB900;stroke-width:3;"/><path d="M380.6768,252.0781 L390.6768,252.0781 C405.6768,252.0781 405.6768,288.6719 420.6768,288.6719 L430.6768,288.6719" fill="none" style="stroke:#0078D4;stroke-width:3;"/><rect fill="#FFB900" height="36.2969" rx="12.5" ry="12.5" style="stroke:#FFB900;stroke-width:3;" width="75.2549" x="430.6768" y="326.8203"/><text fill="#000000" font-family="sans-serif" font-size="14" lengthAdjust="spacing" textLength="55.2549" x="440.6768" y="349.8154">Lineage</text><text fill="#000000" font-family="sans-serif" font-size="14" lengthAdjust="spacing" textLength="240.7959" x="558.9316" y="340.667">How data is transformed &amp; moved</text><path d="M505.9316,344.9688 L515.9316,344.9688 C530.9316,344.9688 530.9316,335.8203 545.9316,335.8203 L555.9316,335.8203" fill="none" style="stroke:#FFB900;stroke-width:3;"/><text fill="#000000" font-family="sans-serif" font-size="14" lengthAdjust="spacing" textLength="213.7939" x="558.9316" y="358.9639">Across systems and processes</text><path d="M505.9316,344.9688 L515.9316,344.9688 C530.9316,344.9688 530.9316,354.1172 545.9316,354.1172 L555.9316,354.1172" fill="none" style="stroke:#FFB900;stroke-width:3;"/><path d="M380.6768,252.0781 L390.6768,252.0781 C405.6768,252.0781 405.6768,344.9688 420.6768,344.9688 L430.6768,344.9688" fill="none" style="stroke:#0078D4;stroke-width:3;"/><path d="M154.0244,210.207 L164.0244,210.207 C179.0244,210.207 179.0244,252.0781 194.0244,252.0781 L204.0244,252.0781" fill="none" style="stroke:#FF5F46;stroke-width:3;"/><rect fill="#0078D4" height="36.2969" rx="12.5" ry="12.5" style="stroke:#0078D4;stroke-width:3;" width="116.4141" x="204.0244" y="364.1172"/><text fill="#FFFFFF" font-family="sans-serif" font-size="14" lengthAdjust="spacing" textLength="96.4141" x="214.0244" y="387.1123">Also Supports</text><text fill="#000000" font-family="sans-serif" font-size="14" lengthAdjust="spacing" textLength="227.9375" x="373.4385" y="387.1123">Workspace-level Hive metastore</text><path d="M320.4385,382.2656 L330.4385,382.2656 C345.4385,382.2656 345.4385,382.2656 360.4385,382.2656 L370.4385,382.2656" fill="none" style="stroke:#0078D4;stroke-width:3;"/><path d="M154.0244,210.207 L164.0244,210.207 C179.0244,210.207 179.0244,382.2656 194.0244,382.2656 L204.0244,382.2656" fill="none" style="stroke:#FF5F46;stroke-width:3;"/><?plantuml-src VLJlQzim4Ftkl-9WKBOGPsxwOrifesbQqy921-deno5BPqT4bema9msb__jEZfsqBfam69_UlNVtxl2LyypwKcfHiYgwT7wZy6Tq8R3oYy_95tY9WCuruyl2cbgBgL76mgSqFKjFpvkxNrBZnsXgj6-ZUNDssCU5v4kDpi79A8bUEwtZWrf9yktxpMbVgnTzpzgh86tENcjyK2lFinz9qjVgHV-hbJI7j3Bph0BcvI3Yycjhzm1cablZJExXTsrN4jVHO01F2-P1qkFeQ_0NRhL7Mrdf40Jp30gpGgkPvWWEAOlZ5ZSbAXTNYldSsF82Z8uhY-KGobfv6NDbQZ64EMFpe38r5Y55vckBhT1DO1VIyI2mUHFZYZadSycPbqPlBu8Zh43mbioKkjX69vo7vlSb1gd0aLaopy4zzLBO7GtCETEwpQRqy0bLdId9uGYevnNp21hzsjYbUmj2xIKry4TBlu4f2IXJG8cUEK-DjSW72ow07IhaNguG-1RPKJteM639j00Je0iKjKBH93KGc15ZO_hjSsYqgvjIPvtMS4SwR2XArh4_ienMOGXXiFJYHjLboplzu2ZXhskfV2nrps-mL5J7EQr9j8IQ9a-bvpG4yUx-NWHdSecEkjPEDbs73XhPTcWjziwijnibNHYZTc5lYEy8IfgVQ56JiAB4jd4UImV1hCgQCEP652RA6PZNLMMiRnVfAKohOXnZXIjKS1UAs0_d2kctq_vwekFHE1cVZquokZxx1m00?></g></svg>