<?plantuml 1.2026.2?><svg xmlns="http://www.w3.org/2000/svg" xmlns:xlink="http://www.w3.org/1999/xlink" contentStyleType="text/css" data-diagram-type="MINDMAP" height="538px" preserveAspectRatio="none" style="width:843px;height:538px;background:#FFFFFF;" version="1.1" viewBox="0 0 843 538" width="843px" zoomAndPan="magnify"><defs/><g><rect fill="#091F2C" height="36.4883" rx="12.5" ry="12.5" style="stroke:#181818;stroke-width:3;" width="111.1777" x="10" y="249.8076"/><text fill="#FFFFFF" font-family="sans-serif" font-size="14" lengthAdjust="spacing" textLength="91.1777" x="20" y="273.3428">Unity Catalog</text><rect fill="#FFB900" height="36.4883" rx="12.5" ry="12.5" style="stroke:#FFB900;stroke-width:3;" width="82.959" x="171.1777" y="20"/><text fill="#000000" font-family="sans-serif" font-size="14" lengthAdjust="spacing" textLength="62.959" x="181.1777" y="43.5352">What it is</text><text fill="#000000" font-family="sans-serif" font-size="14" lengthAdjust="spacing" textLength="194.1543" x="307.1367" y="34.291">Centralized data governance</text><path d="M254.1367,38.2441 L264.1367,38.2441 C279.1367,38.2441 279.1367,29 294.1367,29 L304.1367,29" fill="none" style="stroke:#FFB900;stroke-width:3;"/><text fill="#000000" font-family="sans-serif" font-size="14" lengthAdjust="spacing" textLength="258.5146" x="307.1367" y="52.7793">Works across all workspaces in region</text><path d="M254.1367,38.2441 L264.1367,38.2441 C279.1367,38.2441 279.1367,47.4883 294.1367,47.4883 L304.1367,47.4883" fill="none" style="stroke:#FFB900;stroke-width:3;"/><path d="M121.1777,268.0518 L131.1777,268.0518 C146.1777,268.0518 146.1777,38.2441 161.1777,38.2441 L171.1777,38.2441" fill="none" style="stroke:#181818;stroke-width:3;"/><rect fill="#FFB900" height="36.4883" rx="12.5" ry="12.5" style="stroke:#FFB900;stroke-width:3;" width="87.3271" x="171.1777" y="76.4883"/><text fill="#000000" font-family="sans-serif" font-size="14" lengthAdjust="spacing" textLength="67.3271" x="181.1777" y="100.0234">Metastore</text><text fill="#000000" font-family="sans-serif" font-size="14" lengthAdjust="spacing" textLength="201.2021" x="311.5049" y="90.7793">Top-level metadata container</text><path d="M258.5049,94.7324 L268.5049,94.7324 C283.5049,94.7324 283.5049,85.4883 298.5049,85.4883 L308.5049,85.4883" fill="none" style="stroke:#FFB900;stroke-width:3;"/><text fill="#000000" font-family="sans-serif" font-size="14" lengthAdjust="spacing" textLength="260.9824" x="311.5049" y="109.2676">One per region, shared by workspaces</text><path d="M258.5049,94.7324 L268.5049,94.7324 C283.5049,94.7324 283.5049,103.9766 298.5049,103.9766 L308.5049,103.9766" fill="none" style="stroke:#FFB900;stroke-width:3;"/><path d="M121.1777,268.0518 L131.1777,268.0518 C146.1777,268.0518 146.1777,94.7324 161.1777,94.7324 L171.1777,94.7324" fill="none" style="stroke:#181818;stroke-width:3;"/><rect fill="#FFB900" height="36.4883" rx="12.5" ry="12.5" style="stroke:#FFB900;stroke-width:3;" width="170.2539" x="171.1777" y="179.709"/><text fill="#000000" font-family="sans-serif" font-size="14" lengthAdjust="spacing" textLength="150.2539" x="181.1777" y="203.2441">Three-Level Hierarchy</text><rect fill="#F4364C" height="36.4883" rx="12.5" ry="12.5" style="stroke:#F4364C;stroke-width:3;" width="78.8984" x="391.4316" y="123.2207"/><text fill="#FFFFFF" font-family="sans-serif" font-size="14" lengthAdjust="spacing" textLength="58.8984" x="401.4316" y="146.7559">Catalogs</text><text fill="#000000" font-family="sans-serif" font-size="14" lengthAdjust="spacing" textLength="247.4473" x="523.3301" y="146.7559">Groups assets by team/environment</text><path d="M470.3301,141.4648 L480.3301,141.4648 C495.3301,141.4648 495.3301,141.4648 510.3301,141.4648 L520.3301,141.4648" fill="none" style="stroke:#F4364C;stroke-width:3;"/><path d="M341.4316,197.9531 L351.4316,197.9531 C366.4316,197.9531 366.4316,141.4648 381.4316,141.4648 L391.4316,141.4648" fill="none" style="stroke:#FFB900;stroke-width:3;"/><rect fill="#F4364C" height="36.4883" rx="12.5" ry="12.5" style="stroke:#F4364C;stroke-width:3;" width="162.4746" x="391.4316" y="179.709"/><text fill="#FFFFFF" font-family="sans-serif" font-size="14" lengthAdjust="spacing" textLength="142.4746" x="401.4316" y="203.2441">Schemas (Databases)</text><text fill="#000000" font-family="sans-serif" font-size="14" lengthAdjust="spacing" textLength="191.5361" x="606.9063" y="194">Subdivisions within catalogs</text><path d="M553.9063,197.9531 L563.9063,197.9531 C578.9063,197.9531 578.9063,188.709 593.9063,188.709 L603.9063,188.709" fill="none" style="stroke:#F4364C;stroke-width:3;"/><text fill="#000000" font-family="sans-serif" font-size="14" lengthAdjust="spacing" textLength="224.1094" x="606.9063" y="212.4883">Organized by project or use case</text><path d="M553.9063,197.9531 L563.9063,197.9531 C578.9063,197.9531 578.9063,207.1973 593.9063,207.1973 L603.9063,207.1973" fill="none" style="stroke:#F4364C;stroke-width:3;"/><path d="M341.4316,197.9531 L351.4316,197.9531 C366.4316,197.9531 366.4316,197.9531 381.4316,197.9531 L391.4316,197.9531" fill="none" style="stroke:#FFB900;stroke-width:3;"/><rect fill="#F4364C" height="36.4883" rx="12.5" ry="12.5" style="stroke:#F4364C;stroke-width:3;" width="71.29" x="391.4316" y="236.1973"/><text fill="#FFFFFF" font-family="sans-serif" font-size="14" lengthAdjust="spacing" textLength="51.29" x="401.4316" y="259.7324">Objects</text><text fill="#000000" font-family="sans-serif" font-size="14" lengthAdjust="spacing" textLength="199.2813" x="515.7217" y="250.4883">Tables (managed or external)</text><path d="M462.7217,254.4414 L472.7217,254.4414 C487.7217,254.4414 487.7217,245.1973 502.7217,245.1973 L512.7217,245.1973" fill="none" style="stroke:#F4364C;stroke-width:3;"/><text fill="#000000" font-family="sans-serif" font-size="14" lengthAdjust="spacing" textLength="238.2119" x="515.7217" y="268.9766">Views, Volumes, Functions, Models</text><path d="M462.7217,254.4414 L472.7217,254.4414 C487.7217,254.4414 487.7217,263.6855 502.7217,263.6855 L512.7217,263.6855" fill="none" style="stroke:#F4364C;stroke-width:3;"/><path d="M341.4316,197.9531 L351.4316,197.9531 C366.4316,197.9531 366.4316,254.4414 381.4316,254.4414 L391.4316,254.4414" fill="none" style="stroke:#FFB900;stroke-width:3;"/><path d="M121.1777,268.0518 L131.1777,268.0518 C146.1777,268.0518 146.1777,197.9531 161.1777,197.9531 L171.1777,197.9531" fill="none" style="stroke:#181818;stroke-width:3;"/><rect fill="#FFB900" height="36.4883" rx="12.5" ry="12.5" style="stroke:#FFB900;stroke-width:3;" width="101.5869" x="171.1777" y="320.9297"/><text fill="#000000" font-family="sans-serif" font-size="14" lengthAdjust="spacing" textLength="81.5869" x="181.1777" y="344.4648">Table Types</text><rect fill="#F4364C" height="36.4883" rx="12.5" ry="12.5" style="stroke:#F4364C;stroke-width:3;" width="130.3594" x="322.7646" y="292.6855"/><text fill="#FFFFFF" font-family="sans-serif" font-size="14" lengthAdjust="spacing" textLength="110.3594" x="332.7646" y="316.2207">Managed Tables</text><text fill="#000000" font-family="sans-serif" font-size="14" lengthAdjust="spacing" textLength="300.7061" x="506.124" y="306.9766">Unity Catalog handles governance &amp; storage</text><path d="M453.124,310.9297 L463.124,310.9297 C478.124,310.9297 478.124,301.6855 493.124,301.6855 L503.124,301.6855" fill="none" style="stroke:#F4364C;stroke-width:3;"/><text fill="#000000" font-family="sans-serif" font-size="14" lengthAdjust="spacing" textLength="171.958" x="506.124" y="325.4648">Always Delta Lake format</text><path d="M453.124,310.9297 L463.124,310.9297 C478.124,310.9297 478.124,320.1738 493.124,320.1738 L503.124,320.1738" fill="none" style="stroke:#F4364C;stroke-width:3;"/><path d="M272.7646,339.1738 L282.7646,339.1738 C297.7646,339.1738 297.7646,310.9297 312.7646,310.9297 L322.7646,310.9297" fill="none" style="stroke:#FFB900;stroke-width:3;"/><rect fill="#F4364C" height="36.4883" rx="12.5" ry="12.5" style="stroke:#F4364C;stroke-width:3;" width="124.2139" x="322.7646" y="349.1738"/><text fill="#FFFFFF" font-family="sans-serif" font-size="14" lengthAdjust="spacing" textLength="104.2139" x="332.7646" y="372.709">External Tables</text><text fill="#000000" font-family="sans-serif" font-size="14" lengthAdjust="spacing" textLength="219.2354" x="499.9785" y="363.4648">Databricks manages access only</text><path d="M446.9785,367.418 L456.9785,367.418 C471.9785,367.418 471.9785,358.1738 486.9785,358.1738 L496.9785,358.1738" fill="none" style="stroke:#F4364C;stroke-width:3;"/><text fill="#000000" font-family="sans-serif" font-size="14" lengthAdjust="spacing" textLength="185.8691" x="499.9785" y="381.9531">Multiple formats supported</text><path d="M446.9785,367.418 L456.9785,367.418 C471.9785,367.418 471.9785,376.6621 486.9785,376.6621 L496.9785,376.6621" fill="none" style="stroke:#F4364C;stroke-width:3;"/><path d="M272.7646,339.1738 L282.7646,339.1738 C297.7646,339.1738 297.7646,367.418 312.7646,367.418 L322.7646,367.418" fill="none" style="stroke:#FFB900;stroke-width:3;"/><path d="M121.1777,268.0518 L131.1777,268.0518 C146.1777,268.0518 146.1777,339.1738 161.1777,339.1738 L171.1777,339.1738" fill="none" style="stroke:#181818;stroke-width:3;"/><rect fill="#FFB900" height="36.4883" rx="12.5" ry="12.5" style="stroke:#FFB900;stroke-width:3;" width="121.0898" x="171.1777" y="405.6621"/><text fill="#000000" font-family="sans-serif" font-size="14" lengthAdjust="spacing" textLength="101.0898" x="181.1777" y="429.1973">Access Control</text><text fill="#000000" font-family="sans-serif" font-size="14" lengthAdjust="spacing" textLength="253.3877" x="345.2676" y="410.709">ANSI SQL GRANT/REVOKE commands</text><path d="M292.2676,423.9063 L302.2676,423.9063 C317.2676,423.9063 317.2676,405.418 332.2676,405.418 L342.2676,405.418" fill="none" style="stroke:#FFB900;stroke-width:3;"/><text fill="#000000" font-family="sans-serif" font-size="14" lengthAdjust="spacing" textLength="220.2813" x="345.2676" y="429.1973">Fine-grained: rows and columns</text><path d="M292.2676,423.9063 L302.2676,423.9063 C317.2676,423.9063 317.2676,423.9063 332.2676,423.9063 L342.2676,423.9063" fill="none" style="stroke:#FFB900;stroke-width:3;"/><text fill="#000000" font-family="sans-serif" font-size="14" lengthAdjust="spacing" textLength="247.3994" x="345.2676" y="447.6855">Multiple levels: metastore to column</text><path d="M292.2676,423.9063 L302.2676,423.9063 C317.2676,423.9063 317.2676,442.3945 332.2676,442.3945 L342.2676,442.3945" fill="none" style="stroke:#FFB900;stroke-width:3;"/><path d="M121.1777,268.0518 L131.1777,268.0518 C146.1777,268.0518 146.1777,423.9063 161.1777,423.9063 L171.1777,423.9063" fill="none" style="stroke:#181818;stroke-width:3;"/><rect fill="#FFB900" height="36.4883" rx="12.5" ry="12.5" style="stroke:#FFB900;stroke-width:3;" width="85.5293" x="171.1777" y="470.8828"/><text fill="#000000" font-family="sans-serif" font-size="14" lengthAdjust="spacing" textLength="65.5293" x="181.1777" y="494.418">Discovery</text><text fill="#000000" font-family="sans-serif" font-size="14" lengthAdjust="spacing" textLength="131.2432" x="309.707" y="466.6855">Catalog Explorer UI</text><path d="M256.707,489.127 L266.707,489.127 C281.707,489.127 281.707,461.3945 296.707,461.3945 L306.707,461.3945" fill="none" style="stroke:#FFB900;stroke-width:3;"/><text fill="#000000" font-family="sans-serif" font-size="14" lengthAdjust="spacing" textLength="222.2773" x="309.707" y="485.1738">Tags, comments, AI descriptions</text><path d="M256.707,489.127 L266.707,489.127 C281.707,489.127 281.707,479.8828 296.707,479.8828 L306.707,479.8828" fill="none" style="stroke:#FFB900;stroke-width:3;"/><text fill="#000000" font-family="sans-serif" font-size="14" lengthAdjust="spacing" textLength="112.2051" x="309.707" y="503.6621">Lineage tracking</text><path d="M256.707,489.127 L266.707,489.127 C281.707,489.127 281.707,498.3711 296.707,498.3711 L306.707,498.3711" fill="none" style="stroke:#FFB900;stroke-width:3;"/><text fill="#000000" font-family="sans-serif" font-size="14" lengthAdjust="spacing" textLength="193.6416" x="309.707" y="522.1504">Entity Relationship diagrams</text><path d="M256.707,489.127 L266.707,489.127 C281.707,489.127 281.707,516.8594 296.707,516.8594 L306.707,516.8594" fill="none" style="stroke:#FFB900;stroke-width:3;"/><path d="M121.1777,268.0518 L131.1777,268.0518 C146.1777,268.0518 146.1777,489.127 161.1777,489.127 L171.1777,489.127" fill="none" style="stroke:#181818;stroke-width:3;"/><?plantuml-src VLJlJzim4FsUl-AaIHDK_0W58O7GH5SAGojKemK-JevpJRmwTcGxBHdYVz_PSM7Tngn-I2ztxzszUywvTSouIgYyOdLoPbqhyLDoccFjogrq6vuJeFEPyKLXTAFoePRQm8Vqv63Uv-7TfLOkHkVXXEXOA9oLWYyKMWk7UsdoiaOzU1TrFizEqlIr_j_HJTG_EaZ3UUFglyzrT7XynF_Ysep-bojE-v9a-adwdETtkpdRZyBsu5u9ryAGEIPraVHwy5Wo1u9-blxrliCGbJDCYf-OGqvfKEWb6iKKnoxXKPk51SQD9auc9Qnye6OSBGW51WkXbKU-GSUiqoRMpNIzAt694Yfw4Q0vzSfeJjDbJ1H2ZIP2x80jcQ4kilOt2WyyAmtYxZXWVH5ecE5bwo7MSuLH2F2A5A-fIMlHMO_Za5Nxg9R2Q5NHeA5eoakic8Mj2whEc4Mx7UkdJPQBfR3KZOMLS2NDnpSf9gPWAeX5yBNHFv0x8F4RYvHgm-mmoNnuNJ9Z6UqBjYgcM465b8rFpciiryGF0bTs1nwqR2gaXyj6SUUxs84RdQFiPF0uC6lhe0hf7V4w_8YqiMyecSezzzjEuIFu7L5XB1Z85MijNA2a1OtP0c6kJSKwgKQnpqsEe9iXgrhePlBsuDwIMias9jqqqebQhk4isAQkjN6O-ra6NVwG366qxEmmk9rUm_JR6Axk1hUp_RlHm-JhY3nJ4KaUtNf9xjajZ3THVWf6huXQvPH4mgcOyyeSt6TFW_-2CS7fcEfxk12MUrtQU16YPgEdccuJsVB-EXgP5RG7tmSvY9u6rv2ZvKRKOKLTah--f0JGNU8BeOekEbBEh-CE9GkvfQWX5um6g6noZlGLZ5_2v62ld_QFz_g_0000?></g></svg>