<svg xmlns="http://www.w3.org/2000/svg" xmlns:xlink="http://www.w3.org/1999/xlink" contentStyleType="text/css" data-diagram-type="MINDMAP" height="534px" preserveAspectRatio="none" style="width:878px;height:534px;background:#FFFFFF;" version="1.1" viewBox="0 0 878 534" width="878px" zoomAndPan="magnify"><?plantuml 1.2026.3beta5?><defs/><g><rect fill="#FF5F46" height="36.2969" rx="12.5" ry="12.5" style="stroke:#FF5F46;stroke-width:3;" width="114.999" x="10" y="248.707"/><text fill="#FFFFFF" font-family="sans-serif" font-size="14" lengthAdjust="spacing" textLength="94.999" x="20" y="271.7021">Unity Catalog</text><rect fill="#0078D4" height="36.2969" rx="12.5" ry="12.5" style="stroke:#0078D4;stroke-width:3;" width="86.2471" x="174.999" y="20"/><text fill="#FFFFFF" font-family="sans-serif" font-size="14" lengthAdjust="spacing" textLength="66.2471" x="184.999" y="42.9951">What it is</text><text fill="#000000" font-family="sans-serif" font-size="14" lengthAdjust="spacing" textLength="202.8906" x="314.2461" y="33.8467">Centralized data governance</text><path d="M261.2461,38.1484 L271.2461,38.1484 C286.2461,38.1484 286.2461,29 301.2461,29 L311.2461,29" fill="none" style="stroke:#0078D4;stroke-width:3;"/><text fill="#000000" font-family="sans-serif" font-size="14" lengthAdjust="spacing" textLength="266.9502" x="314.2461" y="52.1436">Works across all workspaces in region</text><path d="M261.2461,38.1484 L271.2461,38.1484 C286.2461,38.1484 286.2461,47.2969 301.2461,47.2969 L311.2461,47.2969" fill="none" style="stroke:#0078D4;stroke-width:3;"/><path d="M124.999,266.8555 L134.999,266.8555 C149.999,266.8555 149.999,38.1484 164.999,38.1484 L174.999,38.1484" fill="none" style="stroke:#FF5F46;stroke-width:3;"/><rect fill="#0078D4" height="36.2969" rx="12.5" ry="12.5" style="stroke:#0078D4;stroke-width:3;" width="90.4785" x="174.999" y="76.2969"/><text fill="#FFFFFF" font-family="sans-serif" font-size="14" lengthAdjust="spacing" textLength="70.4785" x="184.999" y="99.292">Metastore</text><text fill="#000000" font-family="sans-serif" font-size="14" lengthAdjust="spacing" textLength="207.4365" x="318.4775" y="90.1436">Top-level metadata container</text><path d="M265.4775,94.4453 L275.4775,94.4453 C290.4775,94.4453 290.4775,85.2969 305.4775,85.2969 L315.4775,85.2969" fill="none" style="stroke:#0078D4;stroke-width:3;"/><text fill="#000000" font-family="sans-serif" font-size="14" lengthAdjust="spacing" textLength="270.4639" x="318.4775" y="108.4404">One per region, shared by workspaces</text><path d="M265.4775,94.4453 L275.4775,94.4453 C290.4775,94.4453 290.4775,103.5938 305.4775,103.5938 L315.4775,103.5938" fill="none" style="stroke:#0078D4;stroke-width:3;"/><path d="M124.999,266.8555 L134.999,266.8555 C149.999,266.8555 149.999,94.4453 164.999,94.4453 L174.999,94.4453" fill="none" style="stroke:#FF5F46;stroke-width:3;"/><rect fill="#0078D4" height="36.2969" rx="12.5" ry="12.5" style="stroke:#0078D4;stroke-width:3;" width="175.0869" x="174.999" y="179.0391"/><text fill="#FFFFFF" font-family="sans-serif" font-size="14" lengthAdjust="spacing" textLength="155.0869" x="184.999" y="202.0342">Three-Level Hierarchy</text><rect fill="#FFB900" height="36.2969" rx="12.5" ry="12.5" style="stroke:#FFB900;stroke-width:3;" width="81.0586" x="400.0859" y="122.7422"/><text fill="#000000" font-family="sans-serif" font-size="14" lengthAdjust="spacing" textLength="61.0586" x="410.0859" y="145.7373">Catalogs</text><text fill="#000000" font-family="sans-serif" font-size="14" lengthAdjust="spacing" textLength="255.8145" x="534.1445" y="145.7373">Groups assets by team/environment</text><path d="M481.1445,140.8906 L491.1445,140.8906 C506.1445,140.8906 506.1445,140.8906 521.1445,140.8906 L531.1445,140.8906" fill="none" style="stroke:#FFB900;stroke-width:3;"/><path d="M350.0859,197.1875 L360.0859,197.1875 C375.0859,197.1875 375.0859,140.8906 390.0859,140.8906 L400.0859,140.8906" fill="none" style="stroke:#0078D4;stroke-width:3;"/><rect fill="#FFB900" height="36.2969" rx="12.5" ry="12.5" style="stroke:#FFB900;stroke-width:3;" width="173.0498" x="400.0859" y="179.0391"/><text fill="#000000" font-family="sans-serif" font-size="14" lengthAdjust="spacing" textLength="153.0498" x="410.0859" y="202.0342">Schemas (Databases)</text><text fill="#000000" font-family="sans-serif" font-size="14" lengthAdjust="spacing" textLength="197.8594" x="626.1357" y="192.8857">Subdivisions within catalogs</text><path d="M573.1357,197.1875 L583.1357,197.1875 C598.1357,197.1875 598.1357,188.0391 613.1357,188.0391 L623.1357,188.0391" fill="none" style="stroke:#FFB900;stroke-width:3;"/><text fill="#000000" font-family="sans-serif" font-size="14" lengthAdjust="spacing" textLength="231.458" x="626.1357" y="211.1826">Organized by project or use case</text><path d="M573.1357,197.1875 L583.1357,197.1875 C598.1357,197.1875 598.1357,206.3359 613.1357,206.3359 L623.1357,206.3359" fill="none" style="stroke:#FFB900;stroke-width:3;"/><path d="M350.0859,197.1875 L360.0859,197.1875 C375.0859,197.1875 375.0859,197.1875 390.0859,197.1875 L400.0859,197.1875" fill="none" style="stroke:#0078D4;stroke-width:3;"/><rect fill="#FFB900" height="36.2969" rx="12.5" ry="12.5" style="stroke:#FFB900;stroke-width:3;" width="72.8896" x="400.0859" y="235.3359"/><text fill="#000000" font-family="sans-serif" font-size="14" lengthAdjust="spacing" textLength="52.8896" x="410.0859" y="258.3311">Objects</text><text fill="#000000" font-family="sans-serif" font-size="14" lengthAdjust="spacing" textLength="208.5645" x="525.9756" y="249.1826">Tables (managed or external)</text><path d="M472.9756,253.4844 L482.9756,253.4844 C497.9756,253.4844 497.9756,244.3359 512.9756,244.3359 L522.9756,244.3359" fill="none" style="stroke:#FFB900;stroke-width:3;"/><text fill="#000000" font-family="sans-serif" font-size="14" lengthAdjust="spacing" textLength="244.9111" x="525.9756" y="267.4795">Views, Volumes, Functions, Models</text><path d="M472.9756,253.4844 L482.9756,253.4844 C497.9756,253.4844 497.9756,262.6328 512.9756,262.6328 L522.9756,262.6328" fill="none" style="stroke:#FFB900;stroke-width:3;"/><path d="M350.0859,197.1875 L360.0859,197.1875 C375.0859,197.1875 375.0859,253.4844 390.0859,253.4844 L400.0859,253.4844" fill="none" style="stroke:#0078D4;stroke-width:3;"/><path d="M124.999,266.8555 L134.999,266.8555 C149.999,266.8555 149.999,197.1875 164.999,197.1875 L174.999,197.1875" fill="none" style="stroke:#FF5F46;stroke-width:3;"/><rect fill="#0078D4" height="36.2969" rx="12.5" ry="12.5" style="stroke:#0078D4;stroke-width:3;" width="104.6016" x="174.999" y="319.7813"/><text fill="#FFFFFF" font-family="sans-serif" font-size="14" lengthAdjust="spacing" textLength="84.6016" x="184.999" y="342.7764">Table Types</text><rect fill="#FFB900" height="36.2969" rx="12.5" ry="12.5" style="stroke:#FFB900;stroke-width:3;" width="134.7617" x="329.6006" y="291.6328"/><text fill="#000000" font-family="sans-serif" font-size="14" lengthAdjust="spacing" textLength="114.7617" x="339.6006" y="314.6279">Managed Tables</text><text fill="#000000" font-family="sans-serif" font-size="14" lengthAdjust="spacing" textLength="314.6514" x="517.3623" y="305.4795">Unity Catalog handles governance &amp; storage</text><path d="M464.3623,309.7813 L474.3623,309.7813 C489.3623,309.7813 489.3623,300.6328 504.3623,300.6328 L514.3623,300.6328" fill="none" style="stroke:#FFB900;stroke-width:3;"/><text fill="#000000" font-family="sans-serif" font-size="14" lengthAdjust="spacing" textLength="179.833" x="517.3623" y="323.7764">Always Delta Lake format</text><path d="M464.3623,309.7813 L474.3623,309.7813 C489.3623,309.7813 489.3623,318.9297 504.3623,318.9297 L514.3623,318.9297" fill="none" style="stroke:#FFB900;stroke-width:3;"/><path d="M279.6006,337.9297 L289.6006,337.9297 C304.6006,337.9297 304.6006,309.7813 319.6006,309.7813 L329.6006,309.7813" fill="none" style="stroke:#0078D4;stroke-width:3;"/><rect fill="#FFB900" height="36.2969" rx="12.5" ry="12.5" style="stroke:#FFB900;stroke-width:3;" width="128.5957" x="329.6006" y="347.9297"/><text fill="#000000" font-family="sans-serif" font-size="14" lengthAdjust="spacing" textLength="108.5957" x="339.6006" y="370.9248">External Tables</text><text fill="#000000" font-family="sans-serif" font-size="14" lengthAdjust="spacing" textLength="229.6602" x="511.1963" y="361.7764">Databricks manages access only</text><path d="M458.1963,366.0781 L468.1963,366.0781 C483.1963,366.0781 483.1963,356.9297 498.1963,356.9297 L508.1963,356.9297" fill="none" style="stroke:#FFB900;stroke-width:3;"/><text fill="#000000" font-family="sans-serif" font-size="14" lengthAdjust="spacing" textLength="190.0117" x="511.1963" y="380.0732">Multiple formats supported</text><path d="M458.1963,366.0781 L468.1963,366.0781 C483.1963,366.0781 483.1963,375.2266 498.1963,375.2266 L508.1963,375.2266" fill="none" style="stroke:#FFB900;stroke-width:3;"/><path d="M279.6006,337.9297 L289.6006,337.9297 C304.6006,337.9297 304.6006,366.0781 319.6006,366.0781 L329.6006,366.0781" fill="none" style="stroke:#0078D4;stroke-width:3;"/><path d="M124.999,266.8555 L134.999,266.8555 C149.999,266.8555 149.999,337.9297 164.999,337.9297 L174.999,337.9297" fill="none" style="stroke:#FF5F46;stroke-width:3;"/><rect fill="#0078D4" height="36.2969" rx="12.5" ry="12.5" style="stroke:#0078D4;stroke-width:3;" width="123.5371" x="174.999" y="404.2266"/><text fill="#FFFFFF" font-family="sans-serif" font-size="14" lengthAdjust="spacing" textLength="103.5371" x="184.999" y="427.2217">Access Control</text><text fill="#000000" font-family="sans-serif" font-size="14" lengthAdjust="spacing" textLength="262.3838" x="351.5361" y="408.9248">ANSI SQL GRANT/REVOKE commands</text><path d="M298.5361,422.375 L308.5361,422.375 C323.5361,422.375 323.5361,404.0781 338.5361,404.0781 L348.5361,404.0781" fill="none" style="stroke:#0078D4;stroke-width:3;"/><text fill="#000000" font-family="sans-serif" font-size="14" lengthAdjust="spacing" textLength="224.2666" x="351.5361" y="427.2217">Fine-grained: rows and columns</text><path d="M298.5361,422.375 L308.5361,422.375 C323.5361,422.375 323.5361,422.375 338.5361,422.375 L348.5361,422.375" fill="none" style="stroke:#0078D4;stroke-width:3;"/><text fill="#000000" font-family="sans-serif" font-size="14" lengthAdjust="spacing" textLength="256.3408" x="351.5361" y="445.5186">Multiple levels: metastore to column</text><path d="M298.5361,422.375 L308.5361,422.375 C323.5361,422.375 323.5361,440.6719 338.5361,440.6719 L348.5361,440.6719" fill="none" style="stroke:#0078D4;stroke-width:3;"/><path d="M124.999,266.8555 L134.999,266.8555 C149.999,266.8555 149.999,422.375 164.999,422.375 L174.999,422.375" fill="none" style="stroke:#FF5F46;stroke-width:3;"/><rect fill="#0078D4" height="36.2969" rx="12.5" ry="12.5" style="stroke:#0078D4;stroke-width:3;" width="89.166" x="174.999" y="468.9688"/><text fill="#FFFFFF" font-family="sans-serif" font-size="14" lengthAdjust="spacing" textLength="69.166" x="184.999" y="491.9639">Discovery</text><text fill="#000000" font-family="sans-serif" font-size="14" lengthAdjust="spacing" textLength="135.6387" x="317.165" y="464.5186">Catalog Explorer UI</text><path d="M264.165,487.1172 L274.165,487.1172 C289.165,487.1172 289.165,459.6719 304.165,459.6719 L314.165,459.6719" fill="none" style="stroke:#0078D4;stroke-width:3;"/><text fill="#000000" font-family="sans-serif" font-size="14" lengthAdjust="spacing" textLength="228.2109" x="317.165" y="482.8154">Tags, comments, AI descriptions</text><path d="M264.165,487.1172 L274.165,487.1172 C289.165,487.1172 289.165,477.9688 304.165,477.9688 L314.165,477.9688" fill="none" style="stroke:#0078D4;stroke-width:3;"/><text fill="#000000" font-family="sans-serif" font-size="14" lengthAdjust="spacing" textLength="116.9834" x="317.165" y="501.1123">Lineage tracking</text><path d="M264.165,487.1172 L274.165,487.1172 C289.165,487.1172 289.165,496.2656 304.165,496.2656 L314.165,496.2656" fill="none" style="stroke:#0078D4;stroke-width:3;"/><text fill="#000000" font-family="sans-serif" font-size="14" lengthAdjust="spacing" textLength="201.8516" x="317.165" y="519.4092">Entity Relationship diagrams</text><path d="M264.165,487.1172 L274.165,487.1172 C289.165,487.1172 289.165,514.5625 304.165,514.5625 L314.165,514.5625" fill="none" style="stroke:#0078D4;stroke-width:3;"/><path d="M124.999,266.8555 L134.999,266.8555 C149.999,266.8555 149.999,487.1172 164.999,487.1172 L174.999,487.1172" fill="none" style="stroke:#FF5F46;stroke-width:3;"/><?plantuml-src VLJPRjim47ptLonGe4YC7ChPDWYAk3vIeqwCnaxoM53KMc9DaG99sr63_dkN59tKBbB23_9gTcQFeQwiOyQLGcKbgrgNrjKIFxSkCgnSiPFimdCBw7nXV9uRlL1PLqjjuDrWS3OuFG_lHaBXlz61LYv6P-6yOAU5u7E5riB9GTBwlTOwUbChIJvyx9rkQsr5DrctAXY4ywfr_ARMR9P-If9jhQteVxMIS4WhrK_IOvxVH5mUnd6tuLu9LqENEIPrtcgtuR5W3WJzBFrh_u0kAcUO5BymWunWaEib6iKKnmRmgCtS0kD6aoQJ4bO-K36E5eG2WxdGoZFVe6FMQHFpfhhQbxX42IMz2DISQcNKfsaGOuLGeOaKUs0BPgYAjFvBmXDF2uEuFmfSNmKQPdXHUufrNw4L8hocYLTKfBNehETnoCf3L4jXj2gfqP0quGMMpC9EZx9JPj7knlp98it4KbYgni9Ak8BwuviIOvCp5OP5z9NHFv4xeE4lB1BKXjvXdFhmEcNAKjeNx9HCiPmI2OrFpizOheKV1Axi7ZnekIYH7WOBnPslOWzkT8Qo6OFdWMbTXQdGl2DVmn-PDlOD1LEPrtxTARm7loDAZ0aTkMArXHvAMj28pH5csfIi6LK_rhcf4UPcoAeMcfwyFRYtf5QoZg2RXNIYaciw2tPHLTeup7mldGRV9KCOBHixT6udGvXy7y7rNUTsUdZNVnX_wvDdIXB9ebi7v9xzt7WJPHTWz8gaLKOW6foAc1Vbu3vx4VmNZ0bEHwYleISiztEfuqM8C-i_LNIRo9RtmsXabjCUV1ta87hg3253ousemeeQaB--D0cWkyJdGkLDjA-SNySTIXQmXQWW4umQA6th2kdR6B-FhQE3u-Ju_E0afLhF_W00?></g></svg>