<?plantuml 1.2026.2?><svg xmlns="http://www.w3.org/2000/svg" xmlns:xlink="http://www.w3.org/1999/xlink" contentStyleType="text/css" data-diagram-type="MINDMAP" height="304px" preserveAspectRatio="none" style="width:792px;height:304px;background:#FFFFFF;" version="1.1" viewBox="0 0 792 304" width="792px" zoomAndPan="magnify"><defs/><g><rect fill="#FF5F46" height="52.9766" rx="12.5" ry="12.5" style="stroke:#FF5F46;stroke-width:3;" width="137.8652" x="10" y="124.7324"/><text fill="#FFFFFF" font-family="sans-serif" font-size="14" lengthAdjust="spacing" textLength="85.3809" x="20" y="148.2676">Environment</text><text fill="#FFFFFF" font-family="sans-serif" font-size="14" lengthAdjust="spacing" textLength="117.8652" x="20" y="164.7559">Isolation Strategy</text><rect fill="#0078D4" height="36.4883" rx="12.5" ry="12.5" style="stroke:#0078D4;stroke-width:3;" width="255.9834" x="197.8652" y="20"/><text fill="#FFFFFF" font-family="sans-serif" font-size="14" lengthAdjust="spacing" textLength="235.9834" x="207.8652" y="43.5352">Separate catalogs per environment</text><text fill="#000000" font-family="sans-serif" font-size="14" lengthAdjust="spacing" textLength="221.4912" x="506.8486" y="34.291">sales_dev, sales_test, sales_prod</text><path d="M453.8486,38.2441 L463.8486,38.2441 C478.8486,38.2441 478.8486,29 493.8486,29 L503.8486,29" fill="none" style="stroke:#0078D4;stroke-width:3;"/><text fill="#000000" font-family="sans-serif" font-size="14" lengthAdjust="spacing" textLength="187.5713" x="506.8486" y="52.7793">Permissions at catalog level</text><path d="M453.8486,38.2441 L463.8486,38.2441 C478.8486,38.2441 478.8486,47.4883 493.8486,47.4883 L503.8486,47.4883" fill="none" style="stroke:#0078D4;stroke-width:3;"/><path d="M147.8652,151.2207 L157.8652,151.2207 C172.8652,151.2207 172.8652,38.2441 187.8652,38.2441 L197.8652,38.2441" fill="none" style="stroke:#FF5F46;stroke-width:3;"/><rect fill="#0078D4" height="36.4883" rx="12.5" ry="12.5" style="stroke:#0078D4;stroke-width:3;" width="241.6621" x="197.8652" y="76.4883"/><text fill="#FFFFFF" font-family="sans-serif" font-size="14" lengthAdjust="spacing" textLength="221.6621" x="207.8652" y="100.0234">Combine domain + environment</text><text fill="#000000" font-family="sans-serif" font-size="14" lengthAdjust="spacing" textLength="218.7705" x="492.5273" y="90.7793">Pattern: {domain}_{environment}</text><path d="M439.5273,94.7324 L449.5273,94.7324 C464.5273,94.7324 464.5273,85.4883 479.5273,85.4883 L489.5273,85.4883" fill="none" style="stroke:#0078D4;stroke-width:3;"/><text fill="#000000" font-family="sans-serif" font-size="14" lengthAdjust="spacing" textLength="215.749" x="492.5273" y="109.2676">Scales across business domains</text><path d="M439.5273,94.7324 L449.5273,94.7324 C464.5273,94.7324 464.5273,103.9766 479.5273,103.9766 L489.5273,103.9766" fill="none" style="stroke:#0078D4;stroke-width:3;"/><path d="M147.8652,151.2207 L157.8652,151.2207 C172.8652,151.2207 172.8652,94.7324 187.8652,94.7324 L197.8652,94.7324" fill="none" style="stroke:#FF5F46;stroke-width:3;"/><rect fill="#0078D4" height="36.4883" rx="12.5" ry="12.5" style="stroke:#0078D4;stroke-width:3;" width="275.1787" x="197.8652" y="132.9766"/><text fill="#FFFFFF" font-family="sans-serif" font-size="14" lengthAdjust="spacing" textLength="255.1787" x="207.8652" y="156.5117">Organize by layer within environment</text><text fill="#000000" font-family="sans-serif" font-size="14" lengthAdjust="spacing" textLength="254.1191" x="526.0439" y="147.2676">sales_bronze, sales_silver, sales_gold</text><path d="M473.0439,151.2207 L483.0439,151.2207 C498.0439,151.2207 498.0439,141.9766 513.0439,141.9766 L523.0439,141.9766" fill="none" style="stroke:#0078D4;stroke-width:3;"/><text fill="#000000" font-family="sans-serif" font-size="14" lengthAdjust="spacing" textLength="242.5391" x="526.0439" y="165.7559">prod catalog for all production data</text><path d="M473.0439,151.2207 L483.0439,151.2207 C498.0439,151.2207 498.0439,160.4648 513.0439,160.4648 L523.0439,160.4648" fill="none" style="stroke:#0078D4;stroke-width:3;"/><path d="M147.8652,151.2207 L157.8652,151.2207 C172.8652,151.2207 172.8652,151.2207 187.8652,151.2207 L197.8652,151.2207" fill="none" style="stroke:#FF5F46;stroke-width:3;"/><rect fill="#0078D4" height="36.4883" rx="12.5" ry="12.5" style="stroke:#0078D4;stroke-width:3;" width="130.585" x="197.8652" y="189.4648"/><text fill="#FFFFFF" font-family="sans-serif" font-size="14" lengthAdjust="spacing" textLength="110.585" x="207.8652" y="213">External sharing</text><text fill="#000000" font-family="sans-serif" font-size="14" lengthAdjust="spacing" textLength="182.4307" x="381.4502" y="203.7559">customer_analytics_shared</text><path d="M328.4502,207.709 L338.4502,207.709 C353.4502,207.709 353.4502,198.4648 368.4502,198.4648 L378.4502,198.4648" fill="none" style="stroke:#0078D4;stroke-width:3;"/><text fill="#000000" font-family="sans-serif" font-size="14" lengthAdjust="spacing" textLength="217.7246" x="381.4502" y="222.2441">Avoid internal naming exposure</text><path d="M328.4502,207.709 L338.4502,207.709 C353.4502,207.709 353.4502,216.9531 368.4502,216.9531 L378.4502,216.9531" fill="none" style="stroke:#0078D4;stroke-width:3;"/><path d="M147.8652,151.2207 L157.8652,151.2207 C172.8652,151.2207 172.8652,207.709 187.8652,207.709 L197.8652,207.709" fill="none" style="stroke:#FF5F46;stroke-width:3;"/><rect fill="#0078D4" height="36.4883" rx="12.5" ry="12.5" style="stroke:#0078D4;stroke-width:3;" width="247.0625" x="197.8652" y="245.9531"/><text fill="#FFFFFF" font-family="sans-serif" font-size="14" lengthAdjust="spacing" textLength="227.0625" x="207.8652" y="269.4883">Storage paths mirror conventions</text><text fill="#000000" font-family="sans-serif" font-size="14" lengthAdjust="spacing" textLength="170.2969" x="497.9277" y="269.4883">env/layer/domain/table/</text><path d="M444.9277,264.1973 L454.9277,264.1973 C469.9277,264.1973 469.9277,264.1973 484.9277,264.1973 L494.9277,264.1973" fill="none" style="stroke:#0078D4;stroke-width:3;"/><path d="M147.8652,151.2207 L157.8652,151.2207 C172.8652,151.2207 172.8652,264.1973 187.8652,264.1973 L197.8652,264.1973" fill="none" style="stroke:#FF5F46;stroke-width:3;"/><?plantuml-src VPFTQjn038Nl_HI2thJRidQsQPg64DAcCHGA3Mml2ujiQ-qXunap8xlhBFlkbV-Ir66Zgx5qf6-Ep5nxHiUbCbc9LN3fkTLq5LnaL77nDde7-m0alc5wdpjRc-p6QklWJHn_Ya_F-jfFPUXbDhQ6n-osZqVjxqAbzuQyXu_BA3XCh9EZh2ZwVFxzTCwQPV-VEhj1tCSJQtMKjTqcNw9epffbNsL5VGWhiJlTQVP75PVXkEu5t9f6EMjAClp7_F1M8ojhOCqEcV8sM2nWJHLsNv0YexQvXueSq5EZY1ORy2ZKJKRDX_78v7awLyvcW-oENAcy5uW7v6acQ6f8TxGRMoPY5J9ReZBm_YNe3fd9cGlO3vh3PlzCSnX4wxJZ0gREoYgIsgj-RqE7xq2_N8v6FH0aBMXinT9VnOKWZpXB9FT0ao6lT4Dk-igj7krrHXzDRMNhg7MVhDD-iPcKElhjhlE06do1Jfbyw4vhpxOajq4fjQnI0KcTnk5V6wioK6PiDIZF9mVQLTRNZlf_nTPXJb0X5nvAvPnS8RMc4JFToeSvuZ3iBOV3FaB6H5CON9Eynl551YVBLRGwMwx-0G00?></g></svg>