<?plantuml 1.2026.2?><svg xmlns="http://www.w3.org/2000/svg" xmlns:xlink="http://www.w3.org/1999/xlink" contentStyleType="text/css" data-diagram-type="MINDMAP" height="304px" preserveAspectRatio="none" style="width:819px;height:304px;background:#FFFFFF;" version="1.1" viewBox="0 0 819 304" width="819px" zoomAndPan="magnify"><defs/><g><rect fill="#FF5F46" height="52.9766" rx="12.5" ry="12.5" style="stroke:#FF5F46;stroke-width:3;" width="181.4033" x="10" y="124.7324"/><text fill="#FFFFFF" font-family="sans-serif" font-size="14" lengthAdjust="spacing" textLength="161.4033" x="20" y="148.2676">Implement Conventions</text><text fill="#FFFFFF" font-family="sans-serif" font-size="14" lengthAdjust="spacing" textLength="137.9902" x="20" y="164.7559">Across Organization</text><rect fill="#0078D4" height="36.4883" rx="12.5" ry="12.5" style="stroke:#0078D4;stroke-width:3;" width="176.0713" x="241.4033" y="20"/><text fill="#FFFFFF" font-family="sans-serif" font-size="14" lengthAdjust="spacing" textLength="156.0713" x="251.4033" y="43.5352">Document conventions</text><text fill="#000000" font-family="sans-serif" font-size="14" lengthAdjust="spacing" textLength="180.749" x="470.4746" y="34.291">Central accessible location</text><path d="M417.4746,38.2441 L427.4746,38.2441 C442.4746,38.2441 442.4746,29 457.4746,29 L467.4746,29" fill="none" style="stroke:#0078D4;stroke-width:3;"/><text fill="#000000" font-family="sans-serif" font-size="14" lengthAdjust="spacing" textLength="258.4121" x="470.4746" y="52.7793">Include examples (correct &amp; incorrect)</text><path d="M417.4746,38.2441 L427.4746,38.2441 C442.4746,38.2441 442.4746,47.4883 457.4746,47.4883 L467.4746,47.4883" fill="none" style="stroke:#0078D4;stroke-width:3;"/><path d="M191.4033,151.2207 L201.4033,151.2207 C216.4033,151.2207 216.4033,38.2441 231.4033,38.2441 L241.4033,38.2441" fill="none" style="stroke:#FF5F46;stroke-width:3;"/><rect fill="#0078D4" height="36.4883" rx="12.5" ry="12.5" style="stroke:#0078D4;stroke-width:3;" width="229.248" x="241.4033" y="76.4883"/><text fill="#FFFFFF" font-family="sans-serif" font-size="14" lengthAdjust="spacing" textLength="209.248" x="251.4033" y="100.0234">Control access via permissions</text><text fill="#000000" font-family="sans-serif" font-size="14" lengthAdjust="spacing" textLength="266.2461" x="523.6514" y="90.7793">Limit CREATE TABLE / CREATE SCHEMA</text><path d="M470.6514,94.7324 L480.6514,94.7324 C495.6514,94.7324 495.6514,85.4883 510.6514,85.4883 L520.6514,85.4883" fill="none" style="stroke:#0078D4;stroke-width:3;"/><text fill="#000000" font-family="sans-serif" font-size="14" lengthAdjust="spacing" textLength="241.3223" x="523.6514" y="109.2676">Domain-based catalog permissions</text><path d="M470.6514,94.7324 L480.6514,94.7324 C495.6514,94.7324 495.6514,103.9766 510.6514,103.9766 L520.6514,103.9766" fill="none" style="stroke:#0078D4;stroke-width:3;"/><path d="M191.4033,151.2207 L201.4033,151.2207 C216.4033,151.2207 216.4033,94.7324 231.4033,94.7324 L241.4033,94.7324" fill="none" style="stroke:#FF5F46;stroke-width:3;"/><rect fill="#0078D4" height="36.4883" rx="12.5" ry="12.5" style="stroke:#0078D4;stroke-width:3;" width="203.0049" x="241.4033" y="132.9766"/><text fill="#FFFFFF" font-family="sans-serif" font-size="14" lengthAdjust="spacing" textLength="183.0049" x="251.4033" y="156.5117">Validate in CI/CD pipelines</text><text fill="#000000" font-family="sans-serif" font-size="14" lengthAdjust="spacing" textLength="258.3369" x="497.4082" y="147.2676">Automated checks before deployment</text><path d="M444.4082,151.2207 L454.4082,151.2207 C469.4082,151.2207 469.4082,141.9766 484.4082,141.9766 L494.4082,141.9766" fill="none" style="stroke:#0078D4;stroke-width:3;"/><text fill="#000000" font-family="sans-serif" font-size="14" lengthAdjust="spacing" textLength="232.9346" x="497.4082" y="165.7559">Reject non-compliant names early</text><path d="M444.4082,151.2207 L454.4082,151.2207 C469.4082,151.2207 469.4082,160.4648 484.4082,160.4648 L494.4082,160.4648" fill="none" style="stroke:#0078D4;stroke-width:3;"/><path d="M191.4033,151.2207 L201.4033,151.2207 C216.4033,151.2207 216.4033,151.2207 231.4033,151.2207 L241.4033,151.2207" fill="none" style="stroke:#FF5F46;stroke-width:3;"/><rect fill="#0078D4" height="36.4883" rx="12.5" ry="12.5" style="stroke:#0078D4;stroke-width:3;" width="242.9199" x="241.4033" y="189.4648"/><text fill="#FFFFFF" font-family="sans-serif" font-size="14" lengthAdjust="spacing" textLength="222.9199" x="251.4033" y="213">Review existing objects regularly</text><text fill="#000000" font-family="sans-serif" font-size="14" lengthAdjust="spacing" textLength="224.458" x="537.3232" y="203.7559">Use information_schema to audit</text><path d="M484.3232,207.709 L494.3232,207.709 C509.3232,207.709 509.3232,198.4648 524.3232,198.4648 L534.3232,198.4648" fill="none" style="stroke:#0078D4;stroke-width:3;"/><text fill="#000000" font-family="sans-serif" font-size="14" lengthAdjust="spacing" textLength="234.1787" x="537.3232" y="222.2441">Plan remediation for legacy names</text><path d="M484.3232,207.709 L494.3232,207.709 C509.3232,207.709 509.3232,216.9531 524.3232,216.9531 L534.3232,216.9531" fill="none" style="stroke:#0078D4;stroke-width:3;"/><path d="M191.4033,151.2207 L201.4033,151.2207 C216.4033,151.2207 216.4033,207.709 231.4033,207.709 L241.4033,207.709" fill="none" style="stroke:#FF5F46;stroke-width:3;"/><rect fill="#0078D4" height="36.4883" rx="12.5" ry="12.5" style="stroke:#0078D4;stroke-width:3;" width="268.2744" x="241.4033" y="245.9531"/><text fill="#FFFFFF" font-family="sans-serif" font-size="14" lengthAdjust="spacing" textLength="248.2744" x="251.4033" y="269.4883">Balance flexibility vs standardization</text><text fill="#000000" font-family="sans-serif" font-size="14" lengthAdjust="spacing" textLength="225.0254" x="562.6777" y="260.2441">Strict for regulated environments</text><path d="M509.6777,264.1973 L519.6777,264.1973 C534.6777,264.1973 534.6777,254.9531 549.6777,254.9531 L559.6777,254.9531" fill="none" style="stroke:#0078D4;stroke-width:3;"/><text fill="#000000" font-family="sans-serif" font-size="14" lengthAdjust="spacing" textLength="244.583" x="562.6777" y="278.7324">Flexible for experimentation phases</text><path d="M509.6777,264.1973 L519.6777,264.1973 C534.6777,264.1973 534.6777,273.4414 549.6777,273.4414 L559.6777,273.4414" fill="none" style="stroke:#0078D4;stroke-width:3;"/><path d="M191.4033,151.2207 L201.4033,151.2207 C216.4033,151.2207 216.4033,264.1973 231.4033,264.1973 L241.4033,264.1973" fill="none" style="stroke:#FF5F46;stroke-width:3;"/><?plantuml-src VPDlQzim4CRV-rCS34ORQE9cNVU7CfeuCGjaRAJPNWsAB5-SMsJ9I7AMhEoxx-Gu3VF8zCRs-T7pktk4xfqNrfUayr9KqPtpUuKVelSvLdvz4L_2KmIyna9k2cjgdIT66GilqlHrUdFR_9kJnd-hgT6-hQwQzQnThabkD3e7h_fnzFl8kZxBYkCtRoStNLQd-hThfuEqMIVMy2nhjShUnN6NrQd-bnKtYrcPsQcWUJghk1kqSVTWLbOAIzGU4gEt_2IZtNSzajQmnMTR24s_HAX6lHvCZAmRiJo9kTvxX8I_h50Wf6GsPGf16NdSo8APbghE4N0d0jB1XJJMelJm4aYtxvS1meruQuvMi2K15TgIsFOPDwUIkEN5TBISmd8qdazXSFnyI3vEFuqEkeaf1UchJ3ZCWTiHoXGTD_Wc5EN28xS1oMoGJA2Y2XNdtS96jMSR7npMA3SECbmPYy1dgim-v77GBV17c4SRVIKD3qc2azAYv65HMBKFi0Lk2Nzo2kGywG9C5lOui5ZKgXMnrLSNsc5AsKJuw9XS2l06H9rJo_kYXEQD9URKg83reB0GSd_01k1Oi4eYh1GpCrBazx1rmBTFvyBcfyDbmmTlYGS8DeT-mioejsID3cEsUQID5Pzm4EAEuwJmzz13jUQiNNIFVB7RonrTzuVnyBO__0C0?></g></svg>