<?plantuml 1.2026.2?><svg xmlns="http://www.w3.org/2000/svg" xmlns:xlink="http://www.w3.org/1999/xlink" contentStyleType="text/css" data-diagram-type="MINDMAP" height="304px" preserveAspectRatio="none" style="width:754px;height:304px;background:#FFFFFF;" version="1.1" viewBox="0 0 754 304" width="754px" zoomAndPan="magnify"><defs/><g><rect fill="#FF5F46" height="52.9766" rx="12.5" ry="12.5" style="stroke:#FF5F46;stroke-width:3;" width="167.6494" x="10" y="124.7324"/><text fill="#FFFFFF" font-family="sans-serif" font-size="14" lengthAdjust="spacing" textLength="112.335" x="20" y="148.2676">Naming Patterns</text><text fill="#FFFFFF" font-family="sans-serif" font-size="14" lengthAdjust="spacing" textLength="147.6494" x="20" y="164.7559">for Data Organization</text><rect fill="#0078D4" height="36.4883" rx="12.5" ry="12.5" style="stroke:#0078D4;stroke-width:3;" width="236.7744" x="227.6494" y="20"/><text fill="#FFFFFF" font-family="sans-serif" font-size="14" lengthAdjust="spacing" textLength="216.7744" x="237.6494" y="43.5352">Use lowercase with underscores</text><text fill="#000000" font-family="sans-serif" font-size="14" lengthAdjust="spacing" textLength="212.3926" x="517.4238" y="34.291">customer_data, sales_summary</text><path d="M464.4238,38.2441 L474.4238,38.2441 C489.4238,38.2441 489.4238,29 504.4238,29 L514.4238,29" fill="none" style="stroke:#0078D4;stroke-width:3;"/><text fill="#000000" font-family="sans-serif" font-size="14" lengthAdjust="spacing" textLength="205.0781" x="517.4238" y="52.7793">Avoid camelCase / PascalCase</text><path d="M464.4238,38.2441 L474.4238,38.2441 C489.4238,38.2441 489.4238,47.4883 504.4238,47.4883 L514.4238,47.4883" fill="none" style="stroke:#0078D4;stroke-width:3;"/><path d="M177.6494,151.2207 L187.6494,151.2207 C202.6494,151.2207 202.6494,38.2441 217.6494,38.2441 L227.6494,38.2441" fill="none" style="stroke:#FF5F46;stroke-width:3;"/><rect fill="#0078D4" height="36.4883" rx="12.5" ry="12.5" style="stroke:#0078D4;stroke-width:3;" width="196.3262" x="227.6494" y="76.4883"/><text fill="#FFFFFF" font-family="sans-serif" font-size="14" lengthAdjust="spacing" textLength="176.3262" x="237.6494" y="100.0234">Be descriptive but concise</text><text fill="#000000" font-family="sans-serif" font-size="14" lengthAdjust="spacing" textLength="155.9072" x="476.9756" y="90.7793">sales_summary_gold &#10003;</text><path d="M423.9756,94.7324 L433.9756,94.7324 C448.9756,94.7324 448.9756,85.4883 463.9756,85.4883 L473.9756,85.4883" fill="none" style="stroke:#0078D4;stroke-width:3;"/><text fill="#000000" font-family="sans-serif" font-size="14" lengthAdjust="spacing" textLength="217.8271" x="476.9756" y="109.2676">sales_final_report_v1_updated &#10007;</text><path d="M423.9756,94.7324 L433.9756,94.7324 C448.9756,94.7324 448.9756,103.9766 463.9756,103.9766 L473.9756,103.9766" fill="none" style="stroke:#0078D4;stroke-width:3;"/><path d="M177.6494,151.2207 L187.6494,151.2207 C202.6494,151.2207 202.6494,94.7324 217.6494,94.7324 L227.6494,94.7324" fill="none" style="stroke:#FF5F46;stroke-width:3;"/><rect fill="#0078D4" height="36.4883" rx="12.5" ry="12.5" style="stroke:#0078D4;stroke-width:3;" width="171.2861" x="227.6494" y="132.9766"/><text fill="#FFFFFF" font-family="sans-serif" font-size="14" lengthAdjust="spacing" textLength="151.2861" x="237.6494" y="156.5117">Medallion architecture</text><text fill="#000000" font-family="sans-serif" font-size="14" lengthAdjust="spacing" textLength="125.8291" x="451.9355" y="138.0234">bronze = raw data</text><path d="M398.9355,151.2207 L408.9355,151.2207 C423.9355,151.2207 423.9355,132.7324 438.9355,132.7324 L448.9355,132.7324" fill="none" style="stroke:#0078D4;stroke-width:3;"/><text fill="#000000" font-family="sans-serif" font-size="14" lengthAdjust="spacing" textLength="141.9824" x="451.9355" y="156.5117">silver = cleaned data</text><path d="M398.9355,151.2207 L408.9355,151.2207 C423.9355,151.2207 423.9355,151.2207 438.9355,151.2207 L448.9355,151.2207" fill="none" style="stroke:#0078D4;stroke-width:3;"/><text fill="#000000" font-family="sans-serif" font-size="14" lengthAdjust="spacing" textLength="161.1436" x="451.9355" y="175">gold = aggregated data</text><path d="M398.9355,151.2207 L408.9355,151.2207 C423.9355,151.2207 423.9355,169.709 438.9355,169.709 L448.9355,169.709" fill="none" style="stroke:#0078D4;stroke-width:3;"/><path d="M177.6494,151.2207 L187.6494,151.2207 C202.6494,151.2207 202.6494,151.2207 217.6494,151.2207 L227.6494,151.2207" fill="none" style="stroke:#FF5F46;stroke-width:3;"/><rect fill="#0078D4" height="36.4883" rx="12.5" ry="12.5" style="stroke:#0078D4;stroke-width:3;" width="192.3477" x="227.6494" y="189.4648"/><text fill="#FFFFFF" font-family="sans-serif" font-size="14" lengthAdjust="spacing" textLength="172.3477" x="237.6494" y="213">Prefix specialized objects</text><text fill="#000000" font-family="sans-serif" font-size="14" lengthAdjust="spacing" textLength="90.3848" x="472.9971" y="203.7559">vw_ for views</text><path d="M419.9971,207.709 L429.9971,207.709 C444.9971,207.709 444.9971,198.4648 459.9971,198.4648 L469.9971,198.4648" fill="none" style="stroke:#0078D4;stroke-width:3;"/><text fill="#000000" font-family="sans-serif" font-size="14" lengthAdjust="spacing" textLength="157.9443" x="472.9971" y="222.2441">tmp_ for staging tables</text><path d="M419.9971,207.709 L429.9971,207.709 C444.9971,207.709 444.9971,216.9531 459.9971,216.9531 L469.9971,216.9531" fill="none" style="stroke:#0078D4;stroke-width:3;"/><path d="M177.6494,151.2207 L187.6494,151.2207 C202.6494,151.2207 202.6494,207.709 217.6494,207.709 L227.6494,207.709" fill="none" style="stroke:#FF5F46;stroke-width:3;"/><rect fill="#0078D4" height="36.4883" rx="12.5" ry="12.5" style="stroke:#0078D4;stroke-width:3;" width="186.4893" x="227.6494" y="245.9531"/><text fill="#FFFFFF" font-family="sans-serif" font-size="14" lengthAdjust="spacing" textLength="166.4893" x="237.6494" y="269.4883">Catalog naming strategy</text><text fill="#000000" font-family="sans-serif" font-size="14" lengthAdjust="spacing" textLength="274.8799" x="467.1387" y="260.2441">Domain-based: sales_data, finance_data</text><path d="M414.1387,264.1973 L424.1387,264.1973 C439.1387,264.1973 439.1387,254.9531 454.1387,254.9531 L464.1387,254.9531" fill="none" style="stroke:#0078D4;stroke-width:3;"/><text fill="#000000" font-family="sans-serif" font-size="14" lengthAdjust="spacing" textLength="241.5684" x="467.1387" y="278.7324">Environment-based: dev, test, prod</text><path d="M414.1387,264.1973 L424.1387,264.1973 C439.1387,264.1973 439.1387,273.4414 454.1387,273.4414 L464.1387,273.4414" fill="none" style="stroke:#0078D4;stroke-width:3;"/><path d="M177.6494,151.2207 L187.6494,151.2207 C202.6494,151.2207 202.6494,264.1973 217.6494,264.1973 L227.6494,264.1973" fill="none" style="stroke:#FF5F46;stroke-width:3;"/><?plantuml-src VLDDRzD04BtxLup41QAGEg4Kg5fKcf0J7pt03SaQxuwTfUjTQtVijAdu5HouyElu9OmTbz2WC2VxpTltPjzeBo9ZuCeuNM6Td4M-jVGwETLKy-fn-WJk4f2wH7LT1jyuFVVM1tYqN3vV7f_qlNV6qR_eqZiUqAAlFznFAwEk7SK8poPfyktUQthGAqrVl5mSxtljeGzLzoPOzhNpcXtqAehyLPhkU-sX__LA-nAltD_OZdDta75sDCGzWWyeAoZX2fafkFZ55S9S82Dy32Kwiq4stYMZ4NoE1DQlAIYKhxNX5SZu5ABoWQ8mHXce9hAlA6HQ5COGKGR9ObDL66wtZ3UjDneKLcJddSwHM4U5_K_dSacWAQfWQZOjGTumAE-KwRjo_e5aLdghuTVFxt_t2kFGPe5g7pXhfrbJop3KqNvq1kz9exLo9y2WLeP9SHC6yJnujo4uXu1hwAumw1hRKX1OMK8dKhjMFy0vO5a6AdkReGTNWGfp0x4cPT2QZRHy_bNSXgZQTGPTrgsXzG1nLMynUHfbjnN6tFRHmbnKhI_1RTSLEOXPEMIwy1KQzpIN2FNfaC9s0LqMJb6s6_YjQutSiYB7zmSqjMDWYZo6EdYTN92yoU5T9jF9B9sTJ6Q_0G00?></g></svg>