<?plantuml 1.2026.2?><svg xmlns="http://www.w3.org/2000/svg" xmlns:xlink="http://www.w3.org/1999/xlink" contentStyleType="text/css" data-diagram-type="MINDMAP" height="256px" preserveAspectRatio="none" style="width:621px;height:256px;background:#FFFFFF;" version="1.1" viewBox="0 0 621 256" width="621px" zoomAndPan="magnify"><defs/><g><rect fill="#FF5F46" height="52.9766" rx="12.5" ry="12.5" style="stroke:#FF5F46;stroke-width:3;" width="170.6982" x="10" y="100.5986"/><text fill="#FFFFFF" font-family="sans-serif" font-size="14" lengthAdjust="spacing" textLength="91.1777" x="20" y="124.1338">Unity Catalog</text><text fill="#FFFFFF" font-family="sans-serif" font-size="14" lengthAdjust="spacing" textLength="150.6982" x="20" y="140.6221">Naming Requirements</text><rect fill="#0078D4" height="36.4883" rx="12.5" ry="12.5" style="stroke:#0078D4;stroke-width:3;" width="113.0098" x="230.6982" y="20"/><text fill="#FFFFFF" font-family="sans-serif" font-size="14" lengthAdjust="spacing" textLength="93.0098" x="240.6982" y="43.5352">Object names</text><text fill="#000000" font-family="sans-serif" font-size="14" lengthAdjust="spacing" textLength="133.916" x="396.708" y="25.0469">Max 255 characters</text><path d="M343.708,38.2441 L353.708,38.2441 C368.708,38.2441 368.708,19.7559 383.708,19.7559 L393.708,19.7559" fill="none" style="stroke:#0078D4;stroke-width:3;"/><text fill="#000000" font-family="sans-serif" font-size="14" lengthAdjust="spacing" textLength="132.1113" x="396.708" y="43.5352">Stored in lowercase</text><path d="M343.708,38.2441 L353.708,38.2441 C368.708,38.2441 368.708,38.2441 383.708,38.2441 L393.708,38.2441" fill="none" style="stroke:#0078D4;stroke-width:3;"/><text fill="#000000" font-family="sans-serif" font-size="14" lengthAdjust="spacing" textLength="180.1201" x="396.708" y="62.0234">Case-insensitive matching</text><path d="M343.708,38.2441 L353.708,38.2441 C368.708,38.2441 368.708,56.7324 383.708,56.7324 L393.708,56.7324" fill="none" style="stroke:#0078D4;stroke-width:3;"/><path d="M180.6982,127.0869 L190.6982,127.0869 C205.6982,127.0869 205.6982,38.2441 220.6982,38.2441 L230.6982,38.2441" fill="none" style="stroke:#FF5F46;stroke-width:3;"/><rect fill="#0078D4" height="36.4883" rx="12.5" ry="12.5" style="stroke:#0078D4;stroke-width:3;" width="164.0605" x="230.6982" y="84.709"/><text fill="#FFFFFF" font-family="sans-serif" font-size="14" lengthAdjust="spacing" textLength="144.0605" x="240.6982" y="108.2441">Prohibited characters</text><text fill="#000000" font-family="sans-serif" font-size="14" lengthAdjust="spacing" textLength="67.8262" x="447.7588" y="80.5117">Periods (.)</text><path d="M394.7588,102.9531 L404.7588,102.9531 C419.7588,102.9531 419.7588,75.2207 434.7588,75.2207 L444.7588,75.2207" fill="none" style="stroke:#0078D4;stroke-width:3;"/><text fill="#000000" font-family="sans-serif" font-size="14" lengthAdjust="spacing" textLength="46.1904" x="447.7588" y="99">Spaces</text><path d="M394.7588,102.9531 L404.7588,102.9531 C419.7588,102.9531 419.7588,93.709 434.7588,93.709 L444.7588,93.709" fill="none" style="stroke:#0078D4;stroke-width:3;"/><text fill="#000000" font-family="sans-serif" font-size="14" lengthAdjust="spacing" textLength="129.876" x="447.7588" y="117.4883">Forward slashes (/)</text><path d="M394.7588,102.9531 L404.7588,102.9531 C419.7588,102.9531 419.7588,112.1973 434.7588,112.1973 L444.7588,112.1973" fill="none" style="stroke:#0078D4;stroke-width:3;"/><text fill="#000000" font-family="sans-serif" font-size="14" lengthAdjust="spacing" textLength="162.0049" x="447.7588" y="135.9766">ASCII control characters</text><path d="M394.7588,102.9531 L404.7588,102.9531 C419.7588,102.9531 419.7588,130.6855 434.7588,130.6855 L444.7588,130.6855" fill="none" style="stroke:#0078D4;stroke-width:3;"/><path d="M180.6982,127.0869 L190.6982,127.0869 C205.6982,127.0869 205.6982,102.9531 220.6982,102.9531 L230.6982,102.9531" fill="none" style="stroke:#FF5F46;stroke-width:3;"/><rect fill="#0078D4" height="36.4883" rx="12.5" ry="12.5" style="stroke:#0078D4;stroke-width:3;" width="73.751" x="230.6982" y="141.1973"/><text fill="#FFFFFF" font-family="sans-serif" font-size="14" lengthAdjust="spacing" textLength="53.751" x="240.6982" y="164.7324">Allowed</text><text fill="#000000" font-family="sans-serif" font-size="14" lengthAdjust="spacing" textLength="169.1211" x="357.4492" y="155.4883">Hyphens (with backticks)</text><path d="M304.4492,159.4414 L314.4492,159.4414 C329.4492,159.4414 329.4492,150.1973 344.4492,150.1973 L354.4492,150.1973" fill="none" style="stroke:#0078D4;stroke-width:3;"/><text fill="#000000" font-family="sans-serif" font-size="14" lengthAdjust="spacing" textLength="179.5869" x="357.4492" y="173.9766">Special chars via backticks</text><path d="M304.4492,159.4414 L314.4492,159.4414 C329.4492,159.4414 329.4492,168.6855 344.4492,168.6855 L354.4492,168.6855" fill="none" style="stroke:#0078D4;stroke-width:3;"/><path d="M180.6982,127.0869 L190.6982,127.0869 C205.6982,127.0869 205.6982,159.4414 220.6982,159.4414 L230.6982,159.4414" fill="none" style="stroke:#FF5F46;stroke-width:3;"/><rect fill="#0078D4" height="36.4883" rx="12.5" ry="12.5" style="stroke:#0078D4;stroke-width:3;" width="121.6367" x="230.6982" y="197.6855"/><text fill="#FFFFFF" font-family="sans-serif" font-size="14" lengthAdjust="spacing" textLength="101.6367" x="240.6982" y="221.2207">Column names</text><text fill="#000000" font-family="sans-serif" font-size="14" lengthAdjust="spacing" textLength="117.3115" x="405.335" y="202.7324">Casing preserved</text><path d="M352.335,215.9297 L362.335,215.9297 C377.335,215.9297 377.335,197.4414 392.335,197.4414 L402.335,197.4414" fill="none" style="stroke:#0078D4;stroke-width:3;"/><text fill="#000000" font-family="sans-serif" font-size="14" lengthAdjust="spacing" textLength="166.7695" x="405.335" y="221.2207">Case-insensitive queries</text><path d="M352.335,215.9297 L362.335,215.9297 C377.335,215.9297 377.335,215.9297 392.335,215.9297 L402.335,215.9297" fill="none" style="stroke:#0078D4;stroke-width:3;"/><text fill="#000000" font-family="sans-serif" font-size="14" lengthAdjust="spacing" textLength="178.876" x="405.335" y="239.709">Backticks for special chars</text><path d="M352.335,215.9297 L362.335,215.9297 C377.335,215.9297 377.335,234.418 392.335,234.418 L402.335,234.418" fill="none" style="stroke:#0078D4;stroke-width:3;"/><path d="M180.6982,127.0869 L190.6982,127.0869 C205.6982,127.0869 205.6982,215.9297 220.6982,215.9297 L230.6982,215.9297" fill="none" style="stroke:#FF5F46;stroke-width:3;"/><?plantuml-src VPFRJeD048RlUOf9lAaaKaJhASQe6AA9XyRgdOaPbg6imYxkBgsDyTrTA5Z5rBc2sN__RmxPKsrGcOABfC3IETPcaTE9SvHGQRA1lmaV3jWuH_OwLR8IIIXpgM0ZYaRHxbvpTiq5_Sr6KfWscpRnhNt8E7iLf3NiUBxpsR6srx9yV__WOhVFwcL_k_OgY9fOiOArh3ID3ts_p-fb_sNvJLXMBD_pMlEnLd4yRCVjmgFWPW4X6ipbz4dSejt85ExfhUAA2X96EwuBT_4BCGC22wh_tMUumNS8HYDW6IfaXbIRdnYfA04k89TpKWmrBGz2-xN5XIQXkU4pWW8DoooizXyhcV6O6tkpRpWcnMMYOU1jjeGIMLT59DKSLG8wHvsH5GrRqTaalBe2PdjNCl_j2MTvNLgo55ukoioM18CvDnd4TYt6pbX_iuXnN1fec75SAMedEzUg43_7OhkivrSgqgHc7UHFxs-LxQgxSzvPGcgtf7yYdLEoxwDz8yws5_Z1dXTy0G00?></g></svg>