<?plantuml 1.2026.2?><svg xmlns="http://www.w3.org/2000/svg" xmlns:xlink="http://www.w3.org/1999/xlink" contentStyleType="text/css" data-diagram-type="MINDMAP" height="304px" preserveAspectRatio="none" style="width:910px;height:304px;background:#FFFFFF;" version="1.1" viewBox="0 0 910 304" width="910px" zoomAndPan="magnify"><defs/><g><rect fill="#FF5F46" height="52.9766" rx="12.5" ry="12.5" style="stroke:#FF5F46;stroke-width:3;" width="137.3457" x="10" y="124.7324"/><text fill="#FFFFFF" font-family="sans-serif" font-size="14" lengthAdjust="spacing" textLength="67.1152" x="20" y="148.2676">Configure</text><text fill="#FFFFFF" font-family="sans-serif" font-size="14" lengthAdjust="spacing" textLength="117.3457" x="20" y="164.7559">Managed Storage</text><rect fill="#0078D4" height="36.4883" rx="12.5" ry="12.5" style="stroke:#0078D4;stroke-width:3;" width="327.3232" x="197.3457" y="20"/><text fill="#FFFFFF" font-family="sans-serif" font-size="14" lengthAdjust="spacing" textLength="307.3232" x="207.3457" y="43.5352">Recommended: specify MANAGED LOCATION</text><text fill="#000000" font-family="sans-serif" font-size="14" lengthAdjust="spacing" textLength="207.2998" x="577.6689" y="34.291">Points to ADLS Gen2 container</text><path d="M524.6689,38.2441 L534.6689,38.2441 C549.6689,38.2441 549.6689,29 564.6689,29 L574.6689,29" fill="none" style="stroke:#0078D4;stroke-width:3;"/><text fill="#000000" font-family="sans-serif" font-size="14" lengthAdjust="spacing" textLength="320.4619" x="577.6689" y="52.7793">Requires CREATE MANAGED STORAGE privilege</text><path d="M524.6689,38.2441 L534.6689,38.2441 C549.6689,38.2441 549.6689,47.4883 564.6689,47.4883 L574.6689,47.4883" fill="none" style="stroke:#0078D4;stroke-width:3;"/><path d="M147.3457,151.2207 L157.3457,151.2207 C172.3457,151.2207 172.3457,38.2441 187.3457,38.2441 L197.3457,38.2441" fill="none" style="stroke:#FF5F46;stroke-width:3;"/><rect fill="#0078D4" height="36.4883" rx="12.5" ry="12.5" style="stroke:#0078D4;stroke-width:3;" width="170.377" x="197.3457" y="76.4883"/><text fill="#FFFFFF" font-family="sans-serif" font-size="14" lengthAdjust="spacing" textLength="150.377" x="207.3457" y="100.0234">Physical data isolation</text><text fill="#000000" font-family="sans-serif" font-size="14" lengthAdjust="spacing" textLength="179.1357" x="420.7227" y="90.7793">Data files per catalog path</text><path d="M367.7227,94.7324 L377.7227,94.7324 C392.7227,94.7324 392.7227,85.4883 407.7227,85.4883 L417.7227,85.4883" fill="none" style="stroke:#0078D4;stroke-width:3;"/><text fill="#000000" font-family="sans-serif" font-size="14" lengthAdjust="spacing" textLength="235.2451" x="420.7227" y="109.2676">Safe deletion after 8-day retention</text><path d="M367.7227,94.7324 L377.7227,94.7324 C392.7227,94.7324 392.7227,103.9766 407.7227,103.9766 L417.7227,103.9766" fill="none" style="stroke:#0078D4;stroke-width:3;"/><path d="M147.3457,151.2207 L157.3457,151.2207 C172.3457,151.2207 172.3457,94.7324 187.3457,94.7324 L197.3457,94.7324" fill="none" style="stroke:#FF5F46;stroke-width:3;"/><rect fill="#0078D4" height="36.4883" rx="12.5" ry="12.5" style="stroke:#0078D4;stroke-width:3;" width="194.6172" x="197.3457" y="132.9766"/><text fill="#FFFFFF" font-family="sans-serif" font-size="14" lengthAdjust="spacing" textLength="174.6172" x="207.3457" y="156.5117">Compliance requirements</text><text fill="#000000" font-family="sans-serif" font-size="14" lengthAdjust="spacing" textLength="245.8955" x="444.9629" y="147.2676">Specific storage accounts or regions</text><path d="M391.9629,151.2207 L401.9629,151.2207 C416.9629,151.2207 416.9629,141.9766 431.9629,141.9766 L441.9629,141.9766" fill="none" style="stroke:#0078D4;stroke-width:3;"/><text fill="#000000" font-family="sans-serif" font-size="14" lengthAdjust="spacing" textLength="203.1367" x="444.9629" y="165.7559">Regulatory obligation support</text><path d="M391.9629,151.2207 L401.9629,151.2207 C416.9629,151.2207 416.9629,160.4648 431.9629,160.4648 L441.9629,160.4648" fill="none" style="stroke:#0078D4;stroke-width:3;"/><path d="M147.3457,151.2207 L157.3457,151.2207 C172.3457,151.2207 172.3457,151.2207 187.3457,151.2207 L197.3457,151.2207" fill="none" style="stroke:#FF5F46;stroke-width:3;"/><rect fill="#0078D4" height="36.4883" rx="12.5" ry="12.5" style="stroke:#0078D4;stroke-width:3;" width="181.54" x="197.3457" y="189.4648"/><text fill="#FFFFFF" font-family="sans-serif" font-size="14" lengthAdjust="spacing" textLength="161.54" x="207.3457" y="213">Without catalog storage</text><text fill="#000000" font-family="sans-serif" font-size="14" lengthAdjust="spacing" textLength="209.7197" x="431.8857" y="203.7559">Falls back to metastore default</text><path d="M378.8857,207.709 L388.8857,207.709 C403.8857,207.709 403.8857,198.4648 418.8857,198.4648 L428.8857,198.4648" fill="none" style="stroke:#0078D4;stroke-width:3;"/><text fill="#000000" font-family="sans-serif" font-size="14" lengthAdjust="spacing" textLength="244.9795" x="431.8857" y="222.2441">Must specify if no metastore default</text><path d="M378.8857,207.709 L388.8857,207.709 C403.8857,207.709 403.8857,216.9531 418.8857,216.9531 L428.8857,216.9531" fill="none" style="stroke:#0078D4;stroke-width:3;"/><path d="M147.3457,151.2207 L157.3457,151.2207 C172.3457,151.2207 172.3457,207.709 187.3457,207.709 L197.3457,207.709" fill="none" style="stroke:#FF5F46;stroke-width:3;"/><rect fill="#0078D4" height="36.4883" rx="12.5" ry="12.5" style="stroke:#0078D4;stroke-width:3;" width="95.0039" x="197.3457" y="245.9531"/><text fill="#FFFFFF" font-family="sans-serif" font-size="14" lengthAdjust="spacing" textLength="75.0039" x="207.3457" y="269.4883">SQL syntax</text><text fill="#000000" font-family="sans-serif" font-size="14" lengthAdjust="spacing" textLength="315.3828" x="345.3496" y="269.4883">CREATE CATALOG ... MANAGED LOCATION '...'</text><path d="M292.3496,264.1973 L302.3496,264.1973 C317.3496,264.1973 317.3496,264.1973 332.3496,264.1973 L342.3496,264.1973" fill="none" style="stroke:#0078D4;stroke-width:3;"/><path d="M147.3457,151.2207 L157.3457,151.2207 C172.3457,151.2207 172.3457,264.1973 187.3457,264.1973 L197.3457,264.1973" fill="none" style="stroke:#FF5F46;stroke-width:3;"/><?plantuml-src VLFHRfj047pdArRgGrfBfOIcQHf5LQXjh4euJesblbIgpiS2fnntzEweWgB-UnUmgKhgxXFCpUtCpiAjTSouIgYiOhLtOrqhyQDtdM7jofV1AtZoWEeJum-5qOtAvbfg0o_Y-5rySTcV9KBXSpJMoXtGlA-Hkoi5Vr1eBRpr0-_NKUlyf5OGlBzQN4or9kZVNISEuhx-Q8KdjV9y_o48fbeJzBzQGL-ajTUFikCydMJSl3d4FOEvLhae6eFVr9efLc06gTE67hpP3BR8TLMXoZ2x1biZ5taBw-WkMYqNa6pcqUxpvew8i-zmhuLo5fo6Q96ai48L0YTjHhxDGDdYZqOOj33VBgFTScoKxZPRUe3QY9z2uY1zNxPMS2OXOuw1i5eo9xGQEYqwB2UkXHeDS7gLke2QkN8Wf2n7o51YTmTOxeXrzJfZBHXqg0wTQFggbe8fZeJtvcXOPmyz-da51pi40enpsXWDIM4QBAY7FGvMD6HFcnRqNegYTmgsgMjjNAVpLRXIDsuqQiU8wNRCfBImfo-YIwz2nxhZpdxE6ka6qhgnRjo0o47zcmdfbmHiIx4_3lSEKTEcecIp0j_td-qFpWWzysvfpSVVqJltmo2yzCFV?></g></svg>