<?plantuml 1.2026.2?><svg xmlns="http://www.w3.org/2000/svg" xmlns:xlink="http://www.w3.org/1999/xlink" contentStyleType="text/css" data-diagram-type="MINDMAP" height="247px" preserveAspectRatio="none" style="width:603px;height:247px;background:#FFFFFF;" version="1.1" viewBox="0 0 603 247" width="603px" zoomAndPan="magnify"><defs/><g><rect fill="#FF5F46" height="52.9766" rx="12.5" ry="12.5" style="stroke:#FF5F46;stroke-width:3;" width="89.8291" x="10" y="96.4883"/><text fill="#FFFFFF" font-family="sans-serif" font-size="14" lengthAdjust="spacing" textLength="49.2461" x="20" y="120.0234">What is</text><text fill="#FFFFFF" font-family="sans-serif" font-size="14" lengthAdjust="spacing" textLength="69.8291" x="20" y="136.5117">a Catalog?</text><rect fill="#0078D4" height="36.4883" rx="12.5" ry="12.5" style="stroke:#0078D4;stroke-width:3;" width="153.4238" x="149.8291" y="20"/><text fill="#FFFFFF" font-family="sans-serif" font-size="14" lengthAdjust="spacing" textLength="133.4238" x="159.8291" y="43.5352">Top-level container</text><text fill="#000000" font-family="sans-serif" font-size="14" lengthAdjust="spacing" textLength="159.9609" x="356.2529" y="34.291">Three-layer namespace</text><path d="M303.2529,38.2441 L313.2529,38.2441 C328.2529,38.2441 328.2529,29 343.2529,29 L353.2529,29" fill="none" style="stroke:#0078D4;stroke-width:3;"/><text fill="#000000" font-family="sans-serif" font-size="14" lengthAdjust="spacing" textLength="143.3291" x="356.2529" y="52.7793">catalog.schema.table</text><path d="M303.2529,38.2441 L313.2529,38.2441 C328.2529,38.2441 328.2529,47.4883 343.2529,47.4883 L353.2529,47.4883" fill="none" style="stroke:#0078D4;stroke-width:3;"/><path d="M99.8291,122.9766 L109.8291,122.9766 C124.8291,122.9766 124.8291,38.2441 139.8291,38.2441 L149.8291,38.2441" fill="none" style="stroke:#FF5F46;stroke-width:3;"/><rect fill="#0078D4" height="36.4883" rx="12.5" ry="12.5" style="stroke:#0078D4;stroke-width:3;" width="144.8379" x="149.8291" y="76.4883"/><text fill="#FFFFFF" font-family="sans-serif" font-size="14" lengthAdjust="spacing" textLength="124.8379" x="159.8291" y="100.0234">Data isolation unit</text><text fill="#000000" font-family="sans-serif" font-size="14" lengthAdjust="spacing" textLength="144.293" x="347.667" y="81.5352">Own storage location</text><path d="M294.667,94.7324 L304.667,94.7324 C319.667,94.7324 319.667,76.2441 334.667,76.2441 L344.667,76.2441" fill="none" style="stroke:#0078D4;stroke-width:3;"/><text fill="#000000" font-family="sans-serif" font-size="14" lengthAdjust="spacing" textLength="168.376" x="347.667" y="100.0234">Own security boundaries</text><path d="M294.667,94.7324 L304.667,94.7324 C319.667,94.7324 319.667,94.7324 334.667,94.7324 L344.667,94.7324" fill="none" style="stroke:#0078D4;stroke-width:3;"/><text fill="#000000" font-family="sans-serif" font-size="14" lengthAdjust="spacing" textLength="135.0166" x="347.667" y="118.5117">Own access policies</text><path d="M294.667,94.7324 L304.667,94.7324 C319.667,94.7324 319.667,113.2207 334.667,113.2207 L344.667,113.2207" fill="none" style="stroke:#0078D4;stroke-width:3;"/><path d="M99.8291,122.9766 L109.8291,122.9766 C124.8291,122.9766 124.8291,94.7324 139.8291,94.7324 L149.8291,94.7324" fill="none" style="stroke:#FF5F46;stroke-width:3;"/><rect fill="#0078D4" height="36.4883" rx="12.5" ry="12.5" style="stroke:#0078D4;stroke-width:3;" width="168.9277" x="149.8291" y="132.9766"/><text fill="#FFFFFF" font-family="sans-serif" font-size="14" lengthAdjust="spacing" textLength="148.9277" x="159.8291" y="156.5117">Organization patterns</text><text fill="#000000" font-family="sans-serif" font-size="14" lengthAdjust="spacing" textLength="121.2012" x="371.7568" y="138.0234">Business domains</text><path d="M318.7568,151.2207 L328.7568,151.2207 C343.7568,151.2207 343.7568,132.7324 358.7568,132.7324 L368.7568,132.7324" fill="none" style="stroke:#0078D4;stroke-width:3;"/><text fill="#000000" font-family="sans-serif" font-size="14" lengthAdjust="spacing" textLength="148.4902" x="371.7568" y="156.5117">Security requirements</text><path d="M318.7568,151.2207 L328.7568,151.2207 C343.7568,151.2207 343.7568,151.2207 358.7568,151.2207 L368.7568,151.2207" fill="none" style="stroke:#0078D4;stroke-width:3;"/><text fill="#000000" font-family="sans-serif" font-size="14" lengthAdjust="spacing" textLength="106.1621" x="371.7568" y="175">Lifecycle stages</text><path d="M318.7568,151.2207 L328.7568,151.2207 C343.7568,151.2207 343.7568,169.709 358.7568,169.709 L368.7568,169.709" fill="none" style="stroke:#0078D4;stroke-width:3;"/><path d="M99.8291,122.9766 L109.8291,122.9766 C124.8291,122.9766 124.8291,151.2207 139.8291,151.2207 L149.8291,151.2207" fill="none" style="stroke:#FF5F46;stroke-width:3;"/><rect fill="#0078D4" height="36.4883" rx="12.5" ry="12.5" style="stroke:#0078D4;stroke-width:3;" width="173.7266" x="149.8291" y="189.4648"/><text fill="#FFFFFF" font-family="sans-serif" font-size="14" lengthAdjust="spacing" textLength="153.7266" x="159.8291" y="213">Auto-created schemas</text><text fill="#000000" font-family="sans-serif" font-size="14" lengthAdjust="spacing" textLength="139.5762" x="376.5557" y="203.7559">default (general use)</text><path d="M323.5557,207.709 L333.5557,207.709 C348.5557,207.709 348.5557,198.4648 363.5557,198.4648 L373.5557,198.4648" fill="none" style="stroke:#0078D4;stroke-width:3;"/><text fill="#000000" font-family="sans-serif" font-size="14" lengthAdjust="spacing" textLength="215.0654" x="376.5557" y="222.2441">information_schema (metadata)</text><path d="M323.5557,207.709 L333.5557,207.709 C348.5557,207.709 348.5557,216.9531 363.5557,216.9531 L373.5557,216.9531" fill="none" style="stroke:#0078D4;stroke-width:3;"/><path d="M99.8291,122.9766 L109.8291,122.9766 C124.8291,122.9766 124.8291,207.709 139.8291,207.709 L149.8291,207.709" fill="none" style="stroke:#FF5F46;stroke-width:3;"/><?plantuml-src VPDDJyCm38Rl_HMMk6oJLhe1uqCJZ85wGkB092v8avUwRRGqAOaB3CH_9slBLz7myNtzvh6jTkOOBHTI9mMMmTJnHj5vS9PGoNalwiDR0BxcADQPDPLEhemo5lRY-2W-dDJUZTJqLusDvbPDw_hgNUHIh3Kv1mTX5Bn_iaOxML5qV79zs6LrrD-lTYQ8w_fcZNUoqdHr6aLTLaVzbnNLvLahywAsFMyxEwRxxRa7S9yZWtGF6k4A6PN9BeB101Qc72fw8WN2vz6phPS7IrZabcYeS4CMD1RaIXJKMAB9XqxaL638k59R1wwzxX568KkZeTAIcy3jimR7nc96e8oexHyEYSfAti1gUoQqajotYK9iLooDag8nuDPcgELh0ocHcQnk4_FAoVfiYIdyBgrwzmcmz5X9ImLfRgqRcPBO24L-FZzT_VvbnMOeB25J0isERNT2ALQAePUHlnCgg1pr6qlgrDYYdcdPPA1N46FYRz8FPkI__lOF24RXE1fFml47?></g></svg>