<?plantuml 1.2026.2?><svg xmlns="http://www.w3.org/2000/svg" xmlns:xlink="http://www.w3.org/1999/xlink" contentStyleType="text/css" data-diagram-type="MINDMAP" height="304px" preserveAspectRatio="none" style="width:760px;height:304px;background:#FFFFFF;" version="1.1" viewBox="0 0 760 304" width="760px" zoomAndPan="magnify"><defs/><g><rect fill="#FF5F46" height="52.9766" rx="12.5" ry="12.5" style="stroke:#FF5F46;stroke-width:3;" width="137.3936" x="10" y="124.7324"/><text fill="#FFFFFF" font-family="sans-serif" font-size="14" lengthAdjust="spacing" textLength="116.3203" x="20" y="148.2676">Best Practices for</text><text fill="#FFFFFF" font-family="sans-serif" font-size="14" lengthAdjust="spacing" textLength="117.3936" x="20" y="164.7559">Tables and Views</text><rect fill="#0078D4" height="36.4883" rx="12.5" ry="12.5" style="stroke:#0078D4;stroke-width:3;" width="194.5283" x="197.3936" y="20"/><text fill="#FFFFFF" font-family="sans-serif" font-size="14" lengthAdjust="spacing" textLength="174.5283" x="207.3936" y="43.5352">Managed tables preferred</text><text fill="#000000" font-family="sans-serif" font-size="14" lengthAdjust="spacing" textLength="214.4229" x="444.9219" y="25.0469">Better Unity Catalog integration</text><path d="M391.9219,38.2441 L401.9219,38.2441 C416.9219,38.2441 416.9219,19.7559 431.9219,19.7559 L441.9219,19.7559" fill="none" style="stroke:#0078D4;stroke-width:3;"/><text fill="#000000" font-family="sans-serif" font-size="14" lengthAdjust="spacing" textLength="160.0088" x="444.9219" y="43.5352">Automatic optimization</text><path d="M391.9219,38.2441 L401.9219,38.2441 C416.9219,38.2441 416.9219,38.2441 431.9219,38.2441 L441.9219,38.2441" fill="none" style="stroke:#0078D4;stroke-width:3;"/><text fill="#000000" font-family="sans-serif" font-size="14" lengthAdjust="spacing" textLength="202.9932" x="444.9219" y="62.0234">Simpler lifecycle management</text><path d="M391.9219,38.2441 L401.9219,38.2441 C416.9219,38.2441 416.9219,56.7324 431.9219,56.7324 L441.9219,56.7324" fill="none" style="stroke:#0078D4;stroke-width:3;"/><path d="M147.3936,151.2207 L157.3936,151.2207 C172.3936,151.2207 172.3936,38.2441 187.3936,38.2441 L197.3936,38.2441" fill="none" style="stroke:#FF5F46;stroke-width:3;"/><rect fill="#0078D4" height="36.4883" rx="12.5" ry="12.5" style="stroke:#0078D4;stroke-width:3;" width="212.6025" x="197.3936" y="76.4883"/><text fill="#FFFFFF" font-family="sans-serif" font-size="14" lengthAdjust="spacing" textLength="192.6025" x="207.3936" y="100.0234">Views: keep queries focused</text><text fill="#000000" font-family="sans-serif" font-size="14" lengthAdjust="spacing" textLength="150.6504" x="462.9961" y="90.7793">Avoid too many layers</text><path d="M409.9961,94.7324 L419.9961,94.7324 C434.9961,94.7324 434.9961,85.4883 449.9961,85.4883 L459.9961,85.4883" fill="none" style="stroke:#0078D4;stroke-width:3;"/><text fill="#000000" font-family="sans-serif" font-size="14" lengthAdjust="spacing" textLength="224.5742" x="462.9961" y="109.2676">Document purpose and audience</text><path d="M409.9961,94.7324 L419.9961,94.7324 C434.9961,94.7324 434.9961,103.9766 449.9961,103.9766 L459.9961,103.9766" fill="none" style="stroke:#0078D4;stroke-width:3;"/><path d="M147.3936,151.2207 L157.3936,151.2207 C172.3936,151.2207 172.3936,94.7324 187.3936,94.7324 L197.3936,94.7324" fill="none" style="stroke:#FF5F46;stroke-width:3;"/><rect fill="#0078D4" height="36.4883" rx="12.5" ry="12.5" style="stroke:#0078D4;stroke-width:3;" width="201.4121" x="197.3936" y="132.9766"/><text fill="#FFFFFF" font-family="sans-serif" font-size="14" lengthAdjust="spacing" textLength="181.4121" x="207.3936" y="156.5117">Dynamic views for security</text><text fill="#000000" font-family="sans-serif" font-size="14" lengthAdjust="spacing" textLength="163.3652" x="451.8057" y="147.2676">Centralize security logic</text><path d="M398.8057,151.2207 L408.8057,151.2207 C423.8057,151.2207 423.8057,141.9766 438.8057,141.9766 L448.8057,141.9766" fill="none" style="stroke:#0078D4;stroke-width:3;"/><text fill="#000000" font-family="sans-serif" font-size="14" lengthAdjust="spacing" textLength="166.9268" x="451.8057" y="165.7559">Reduce data redundancy</text><path d="M398.8057,151.2207 L408.8057,151.2207 C423.8057,151.2207 423.8057,160.4648 438.8057,160.4648 L448.8057,160.4648" fill="none" style="stroke:#0078D4;stroke-width:3;"/><path d="M147.3936,151.2207 L157.3936,151.2207 C172.3936,151.2207 172.3936,151.2207 187.3936,151.2207 L197.3936,151.2207" fill="none" style="stroke:#FF5F46;stroke-width:3;"/><rect fill="#0078D4" height="36.4883" rx="12.5" ry="12.5" style="stroke:#0078D4;stroke-width:3;" width="229.043" x="197.3936" y="189.4648"/><text fill="#FFFFFF" font-family="sans-serif" font-size="14" lengthAdjust="spacing" textLength="209.043" x="207.3936" y="213">Standard vs materialized views</text><text fill="#000000" font-family="sans-serif" font-size="14" lengthAdjust="spacing" textLength="269.5205" x="479.4365" y="203.7559">Standard: fast queries or real-time data</text><path d="M426.4365,207.709 L436.4365,207.709 C451.4365,207.709 451.4365,198.4648 466.4365,198.4648 L476.4365,198.4648" fill="none" style="stroke:#0078D4;stroke-width:3;"/><text fill="#000000" font-family="sans-serif" font-size="14" lengthAdjust="spacing" textLength="243.3252" x="479.4365" y="222.2441">Materialized: complex aggregations</text><path d="M426.4365,207.709 L436.4365,207.709 C451.4365,207.709 451.4365,216.9531 466.4365,216.9531 L476.4365,216.9531" fill="none" style="stroke:#0078D4;stroke-width:3;"/><path d="M147.3936,151.2207 L157.3936,151.2207 C172.3936,151.2207 172.3936,207.709 187.3936,207.709 L197.3936,207.709" fill="none" style="stroke:#FF5F46;stroke-width:3;"/><rect fill="#0078D4" height="36.4883" rx="12.5" ry="12.5" style="stroke:#0078D4;stroke-width:3;" width="159.2207" x="197.3936" y="245.9531"/><text fill="#FFFFFF" font-family="sans-serif" font-size="14" lengthAdjust="spacing" textLength="139.2207" x="207.3936" y="269.4883">Use liquid clustering</text><text fill="#000000" font-family="sans-serif" font-size="14" lengthAdjust="spacing" textLength="236.9678" x="409.6143" y="260.2441">CLUSTER BY instead of partitioning</text><path d="M356.6143,264.1973 L366.6143,264.1973 C381.6143,264.1973 381.6143,254.9531 396.6143,254.9531 L406.6143,254.9531" fill="none" style="stroke:#0078D4;stroke-width:3;"/><text fill="#000000" font-family="sans-serif" font-size="14" lengthAdjust="spacing" textLength="277.0674" x="409.6143" y="278.7324">Auto-optimizes based on query patterns</text><path d="M356.6143,264.1973 L366.6143,264.1973 C381.6143,264.1973 381.6143,273.4414 396.6143,273.4414 L406.6143,273.4414" fill="none" style="stroke:#0078D4;stroke-width:3;"/><path d="M147.3936,151.2207 L157.3936,151.2207 C172.3936,151.2207 172.3936,264.1973 187.3936,264.1973 L197.3936,264.1973" fill="none" style="stroke:#FF5F46;stroke-width:3;"/><?plantuml-src VLFHRXCn47o_hrY95uZKS0sbG5IXDWbvQgMgIP2GaD36thjQyTbNsnTwhVXtrhvBA471R_REpipEofS-e0kLChB2EhlmeTNqEHjBgiFzw_mDF6V0Pu9YKphR63crsZfuDP-_dv-TfzgrClJlwzoQqByMwUonotibDeQyXtV3FFkrqpezgfNd7pxEpWwr3bx_PZrmC4_dZzReg5PHh3_b-Q7MmUj_jV9qM6jj7tN4F1z5NBpjunx0X7o0MuSYA44U2kk-coMkcG3GIFYgwAVF1WEuGOCbIGXThNPKa7CakJRumImXa8ELKQ65AGRKjWHb0fKEWxAcGrqrmLPy5s3he2hrzAAsK5MjcKAhWaGhD46L52io8Ued8sFO4DNmq91JoQne_Cx2rTOgjcTjR6n1OqlETwKPuo8Fr8shhQSq6JPIaH4KoMUjmOfjRQD8p00yYSRnC1t1b9iTQlL4-mBmX4fqvJkIZI2GF3Tm9BnKD2AsmYAm53e9My-sE2ALM6Idr4_UOyPG8EzYDnoRS8JwX8Fgg3lqpGkMCGWRKti4B4j7POepRMl5Gshrq70YGZS-jfYod-LwjLX-kOF9DruGLr22BQ3clwXY-nuNbtNIxudjh96J1ckIlvRnSU4iTadyWVjFd9qEH_deV3Zw3G00?></g></svg>