<?plantuml 1.2026.2?><svg xmlns="http://www.w3.org/2000/svg" xmlns:xlink="http://www.w3.org/1999/xlink" contentStyleType="text/css" data-diagram-type="MINDMAP" height="304px" preserveAspectRatio="none" style="width:692px;height:304px;background:#FFFFFF;" version="1.1" viewBox="0 0 692 304" width="692px" zoomAndPan="magnify"><defs/><g><rect fill="#FF5F46" height="52.9766" rx="12.5" ry="12.5" style="stroke:#FF5F46;stroke-width:3;" width="144.9951" x="10" y="124.7324"/><text fill="#FFFFFF" font-family="sans-serif" font-size="14" lengthAdjust="spacing" textLength="101.8623" x="20" y="148.2676">Dynamic Views</text><text fill="#FFFFFF" font-family="sans-serif" font-size="14" lengthAdjust="spacing" textLength="124.9951" x="20" y="164.7559">for Access Control</text><rect fill="#0078D4" height="36.4883" rx="12.5" ry="12.5" style="stroke:#0078D4;stroke-width:3;" width="179.5986" x="204.9951" y="20"/><text fill="#FFFFFF" font-family="sans-serif" font-size="14" lengthAdjust="spacing" textLength="159.5986" x="214.9951" y="43.5352">Extends standard views</text><text fill="#000000" font-family="sans-serif" font-size="14" lengthAdjust="spacing" textLength="110.8516" x="437.5938" y="34.291">Row-level filters</text><path d="M384.5938,38.2441 L394.5938,38.2441 C409.5938,38.2441 409.5938,29 424.5938,29 L434.5938,29" fill="none" style="stroke:#0078D4;stroke-width:3;"/><text fill="#000000" font-family="sans-serif" font-size="14" lengthAdjust="spacing" textLength="139.5078" x="437.5938" y="52.7793">Column-level masks</text><path d="M384.5938,38.2441 L394.5938,38.2441 C409.5938,38.2441 409.5938,47.4883 424.5938,47.4883 L434.5938,47.4883" fill="none" style="stroke:#0078D4;stroke-width:3;"/><path d="M154.9951,151.2207 L164.9951,151.2207 C179.9951,151.2207 179.9951,38.2441 194.9951,38.2441 L204.9951,38.2441" fill="none" style="stroke:#FF5F46;stroke-width:3;"/><rect fill="#0078D4" height="36.4883" rx="12.5" ry="12.5" style="stroke:#0078D4;stroke-width:3;" width="170.6436" x="204.9951" y="76.4883"/><text fill="#FFFFFF" font-family="sans-serif" font-size="14" lengthAdjust="spacing" textLength="150.6436" x="214.9951" y="100.0234">Based on user identity</text><text fill="#000000" font-family="sans-serif" font-size="14" lengthAdjust="spacing" textLength="252.1094" x="428.6387" y="90.7793">is_account_group_member() function</text><path d="M375.6387,94.7324 L385.6387,94.7324 C400.6387,94.7324 400.6387,85.4883 415.6387,85.4883 L425.6387,85.4883" fill="none" style="stroke:#0078D4;stroke-width:3;"/><text fill="#000000" font-family="sans-serif" font-size="14" lengthAdjust="spacing" textLength="220.124" x="428.6387" y="109.2676">CASE WHEN for conditional logic</text><path d="M375.6387,94.7324 L385.6387,94.7324 C400.6387,94.7324 400.6387,103.9766 415.6387,103.9766 L425.6387,103.9766" fill="none" style="stroke:#0078D4;stroke-width:3;"/><path d="M154.9951,151.2207 L164.9951,151.2207 C179.9951,151.2207 179.9951,94.7324 194.9951,94.7324 L204.9951,94.7324" fill="none" style="stroke:#FF5F46;stroke-width:3;"/><rect fill="#0078D4" height="36.4883" rx="12.5" ry="12.5" style="stroke:#0078D4;stroke-width:3;" width="134.7959" x="204.9951" y="132.9766"/><text fill="#FFFFFF" font-family="sans-serif" font-size="14" lengthAdjust="spacing" textLength="114.7959" x="214.9951" y="156.5117">Column masking</text><text fill="#000000" font-family="sans-serif" font-size="14" lengthAdjust="spacing" textLength="282.8984" x="392.791" y="147.2676">Redact sensitive columns for non-admins</text><path d="M339.791,151.2207 L349.791,151.2207 C364.791,151.2207 364.791,141.9766 379.791,141.9766 L389.791,141.9766" fill="none" style="stroke:#0078D4;stroke-width:3;"/><text fill="#000000" font-family="sans-serif" font-size="14" lengthAdjust="spacing" textLength="173.4141" x="392.791" y="165.7559">e.g., email &#8594; 'REDACTED'</text><path d="M339.791,151.2207 L349.791,151.2207 C364.791,151.2207 364.791,160.4648 379.791,160.4648 L389.791,160.4648" fill="none" style="stroke:#0078D4;stroke-width:3;"/><path d="M154.9951,151.2207 L164.9951,151.2207 C179.9951,151.2207 179.9951,151.2207 194.9951,151.2207 L204.9951,151.2207" fill="none" style="stroke:#FF5F46;stroke-width:3;"/><rect fill="#0078D4" height="36.4883" rx="12.5" ry="12.5" style="stroke:#0078D4;stroke-width:3;" width="144.8311" x="204.9951" y="189.4648"/><text fill="#FFFFFF" font-family="sans-serif" font-size="14" lengthAdjust="spacing" textLength="124.8311" x="214.9951" y="213">Row-level security</text><text fill="#000000" font-family="sans-serif" font-size="14" lengthAdjust="spacing" textLength="194.8037" x="402.8262" y="203.7559">WHERE clause with condition</text><path d="M349.8262,207.709 L359.8262,207.709 C374.8262,207.709 374.8262,198.4648 389.8262,198.4648 L399.8262,198.4648" fill="none" style="stroke:#0078D4;stroke-width:3;"/><text fill="#000000" font-family="sans-serif" font-size="14" lengthAdjust="spacing" textLength="255.3975" x="402.8262" y="222.2441">Restrict high-value rows to managers</text><path d="M349.8262,207.709 L359.8262,207.709 C374.8262,207.709 374.8262,216.9531 389.8262,216.9531 L399.8262,216.9531" fill="none" style="stroke:#0078D4;stroke-width:3;"/><path d="M154.9951,151.2207 L164.9951,151.2207 C179.9951,151.2207 179.9951,207.709 194.9951,207.709 L204.9951,207.709" fill="none" style="stroke:#FF5F46;stroke-width:3;"/><rect fill="#0078D4" height="36.4883" rx="12.5" ry="12.5" style="stroke:#0078D4;stroke-width:3;" width="348.8838" x="204.9951" y="245.9531"/><text fill="#FFFFFF" font-family="sans-serif" font-size="14" lengthAdjust="spacing" textLength="328.8838" x="214.9951" y="269.4883">Requires SQL warehouse or compatible compute</text><path d="M154.9951,151.2207 L164.9951,151.2207 C179.9951,151.2207 179.9951,264.1973 194.9951,264.1973 L204.9951,264.1973" fill="none" style="stroke:#FF5F46;stroke-width:3;"/><?plantuml-src VPF1Rjim38RlVWe2ExGD6jVDkcuhYg5POcE7Oi3IOhiC21I9jeN8L2R9SODYrpr07x5FKibn6in3nfD1_kJtaxPlh6F6LP94nLRHjNKRXP-YAu4hLnud9_0OWO_FZ2yBesiI4wsqWJTPzYwxk6nhjvBmtsocoNNPl8rNxNqf-PBGMdWR9z7l7Uly82j9td-ONlHPlUpVKtiEiZRshD51LfulFYP9dzNB_fULjE5P2_sWWkRneEBwh3lt0AOROfNay5rYOtzIxdLZpaFxn3SQhQB10D87XoGi-5T6WXa1ww3sbS4SPhePAboZWbmgXwPBUsHTKLUfc5s6l5_ReW1DK5iq80MIaswpxP1spZZt9t7pS9dLlC9gWURu1FAQk9EQkidZknH-V4c_GZ3BDGaPYao1qeNa0RE5jrX9HUSJ1UCEB9Br-ZNwpY2oxHJID6J2VuoTUuoB-1ImObB1yvydE9gbq_7aFfqUXV7xbItoshnku4tDKk2A-UsWaQxSkzjviCv8xwAKHJbSCrKZ6DrOSDgR9LPip-TrlsffqCBTjrjecC5IXv7jkjMAERbGs3xM3gCR_sfslr5q7e-IqMKyUW40?></g></svg>