<?plantuml 1.2026.2?><svg xmlns="http://www.w3.org/2000/svg" xmlns:xlink="http://www.w3.org/1999/xlink" contentStyleType="text/css" data-diagram-type="MINDMAP" height="304px" preserveAspectRatio="none" style="width:721px;height:304px;background:#FFFFFF;" version="1.1" viewBox="0 0 721 304" width="721px" zoomAndPan="magnify"><defs/><g><rect fill="#FF5F46" height="52.9766" rx="12.5" ry="12.5" style="stroke:#FF5F46;stroke-width:3;" width="124.2139" x="10" y="124.7324"/><text fill="#FFFFFF" font-family="sans-serif" font-size="14" lengthAdjust="spacing" textLength="43.9824" x="20" y="148.2676">Create</text><text fill="#FFFFFF" font-family="sans-serif" font-size="14" lengthAdjust="spacing" textLength="104.2139" x="20" y="164.7559">External Tables</text><rect fill="#0078D4" height="36.4883" rx="12.5" ry="12.5" style="stroke:#0078D4;stroke-width:3;" width="183.7891" x="184.2139" y="20"/><text fill="#FFFFFF" font-family="sans-serif" font-size="14" lengthAdjust="spacing" textLength="163.7891" x="194.2139" y="43.5352">Data in external storage</text><text fill="#000000" font-family="sans-serif" font-size="14" lengthAdjust="spacing" textLength="248.3564" x="421.0029" y="34.291">Metadata registered in Unity Catalog</text><path d="M368.0029,38.2441 L378.0029,38.2441 C393.0029,38.2441 393.0029,29 408.0029,29 L418.0029,29" fill="none" style="stroke:#0078D4;stroke-width:3;"/><text fill="#000000" font-family="sans-serif" font-size="14" lengthAdjust="spacing" textLength="232.0732" x="421.0029" y="52.7793">Drop = metadata only (data stays)</text><path d="M368.0029,38.2441 L378.0029,38.2441 C393.0029,38.2441 393.0029,47.4883 408.0029,47.4883 L418.0029,47.4883" fill="none" style="stroke:#0078D4;stroke-width:3;"/><path d="M134.2139,151.2207 L144.2139,151.2207 C159.2139,151.2207 159.2139,38.2441 174.2139,38.2441 L184.2139,38.2441" fill="none" style="stroke:#FF5F46;stroke-width:3;"/><rect fill="#0078D4" height="36.4883" rx="12.5" ry="12.5" style="stroke:#0078D4;stroke-width:3;" width="202.0889" x="184.2139" y="76.4883"/><text fill="#FFFFFF" font-family="sans-serif" font-size="14" lengthAdjust="spacing" textLength="182.0889" x="194.2139" y="100.0234">Requires LOCATION clause</text><text fill="#000000" font-family="sans-serif" font-size="14" lengthAdjust="spacing" textLength="191.748" x="439.3027" y="90.7793">Points to cloud storage path</text><path d="M386.3027,94.7324 L396.3027,94.7324 C411.3027,94.7324 411.3027,85.4883 426.3027,85.4883 L436.3027,85.4883" fill="none" style="stroke:#0078D4;stroke-width:3;"/><text fill="#000000" font-family="sans-serif" font-size="14" lengthAdjust="spacing" textLength="269.917" x="439.3027" y="109.2676">Must be in a governed external location</text><path d="M386.3027,94.7324 L396.3027,94.7324 C411.3027,94.7324 411.3027,103.9766 426.3027,103.9766 L436.3027,103.9766" fill="none" style="stroke:#0078D4;stroke-width:3;"/><path d="M134.2139,151.2207 L144.2139,151.2207 C159.2139,151.2207 159.2139,94.7324 174.2139,94.7324 L184.2139,94.7324" fill="none" style="stroke:#FF5F46;stroke-width:3;"/><rect fill="#0078D4" height="36.4883" rx="12.5" ry="12.5" style="stroke:#0078D4;stroke-width:3;" width="86.042" x="184.2139" y="132.9766"/><text fill="#FFFFFF" font-family="sans-serif" font-size="14" lengthAdjust="spacing" textLength="66.042" x="194.2139" y="156.5117">Use cases</text><text fill="#000000" font-family="sans-serif" font-size="14" lengthAdjust="spacing" textLength="218.4766" x="323.2559" y="138.0234">Data managed by other systems</text><path d="M270.2559,151.2207 L280.2559,151.2207 C295.2559,151.2207 295.2559,132.7324 310.2559,132.7324 L320.2559,132.7324" fill="none" style="stroke:#0078D4;stroke-width:3;"/><text fill="#000000" font-family="sans-serif" font-size="14" lengthAdjust="spacing" textLength="202.877" x="323.2559" y="156.5117">Share data across workspaces</text><path d="M270.2559,151.2207 L280.2559,151.2207 C295.2559,151.2207 295.2559,151.2207 310.2559,151.2207 L320.2559,151.2207" fill="none" style="stroke:#0078D4;stroke-width:3;"/><text fill="#000000" font-family="sans-serif" font-size="14" lengthAdjust="spacing" textLength="198.584" x="323.2559" y="175">Query data without moving it</text><path d="M270.2559,151.2207 L280.2559,151.2207 C295.2559,151.2207 295.2559,169.709 310.2559,169.709 L320.2559,169.709" fill="none" style="stroke:#0078D4;stroke-width:3;"/><path d="M134.2139,151.2207 L144.2139,151.2207 C159.2139,151.2207 159.2139,151.2207 174.2139,151.2207 L184.2139,151.2207" fill="none" style="stroke:#FF5F46;stroke-width:3;"/><rect fill="#0078D4" height="36.4883" rx="12.5" ry="12.5" style="stroke:#0078D4;stroke-width:3;" width="147.1074" x="184.2139" y="189.4648"/><text fill="#FFFFFF" font-family="sans-serif" font-size="14" lengthAdjust="spacing" textLength="127.1074" x="194.2139" y="213">Supported formats</text><text fill="#000000" font-family="sans-serif" font-size="14" lengthAdjust="spacing" textLength="206.6025" x="384.3213" y="213">CSV, Parquet, JSON, Delta, etc.</text><path d="M331.3213,207.709 L341.3213,207.709 C356.3213,207.709 356.3213,207.709 371.3213,207.709 L381.3213,207.709" fill="none" style="stroke:#0078D4;stroke-width:3;"/><path d="M134.2139,151.2207 L144.2139,151.2207 C159.2139,151.2207 159.2139,207.709 174.2139,207.709 L184.2139,207.709" fill="none" style="stroke:#FF5F46;stroke-width:3;"/><rect fill="#0078D4" height="36.4883" rx="12.5" ry="12.5" style="stroke:#0078D4;stroke-width:3;" width="293.3555" x="184.2139" y="245.9531"/><text fill="#FFFFFF" font-family="sans-serif" font-size="14" lengthAdjust="spacing" textLength="273.3555" x="194.2139" y="269.4883">Prefer managed tables for new pipelines</text><path d="M134.2139,151.2207 L144.2139,151.2207 C159.2139,151.2207 159.2139,264.1973 174.2139,264.1973 L184.2139,264.1973" fill="none" style="stroke:#FF5F46;stroke-width:3;"/><?plantuml-src VPFRRjD048Rl_HGZSTD6KN13AGSLL728H5MQG5AkaD3O7jkhs3lkxhYfLV7kxBfs4KPXhbOp_yptx-d22Xgfb4uhh8DpAsr9xuEtATLI78N7y120Yu-Ox7B3ZKuZBjd0i-NovVBqhAjTAKt_PfUifSzcNJnfjuLATfgiXHUpCFWri4uEiiBmrUl5wPWroluzTUHWsSKVrlmWAylYDs4uPeso_sM5NJXMpFUbrpmSL9m_xuzx0f4X5FgXFzqB6OqbR35stS5a0WiK1AM1Xf8LDfYJgqr-mXSIJBt2KAwiKr3gnJTQIGkHAvISFoeNXcju1zNGmBfiuQXRkZVGscCF-qQtZJ9auMeLVTX-Nbr3Kc9ZUzYQbHOBmYxBJJeuWHgbwEqqLY0cRm4Xvplds1bwibvoWg9OUzID9KZGTflqzhoH2hMRbqBS0aj11cphzbJraas1Xg1pZ8bXTxPxDZjROp8C-TgGQHyLUoK5Dm8LtocTWnBFt3HrpKOS8MDJeVHjqURx5DPeRXkIALnkLjTJM50fE0MIPEOxruOovsSmADtr-2cWQG-rggbqByC65-H-Kl-RWfFPF9oVpUQ_0G00?></g></svg>