<?plantuml 1.2026.2?><svg xmlns="http://www.w3.org/2000/svg" xmlns:xlink="http://www.w3.org/1999/xlink" contentStyleType="text/css" data-diagram-type="MINDMAP" height="304px" preserveAspectRatio="none" style="width:796px;height:304px;background:#FFFFFF;" version="1.1" viewBox="0 0 796 304" width="796px" zoomAndPan="magnify"><defs/><g><rect fill="#FF5F46" height="52.9766" rx="12.5" ry="12.5" style="stroke:#FF5F46;stroke-width:3;" width="130.3594" x="10" y="124.7324"/><text fill="#FFFFFF" font-family="sans-serif" font-size="14" lengthAdjust="spacing" textLength="43.9824" x="20" y="148.2676">Create</text><text fill="#FFFFFF" font-family="sans-serif" font-size="14" lengthAdjust="spacing" textLength="110.3594" x="20" y="164.7559">Managed Tables</text><rect fill="#0078D4" height="36.4883" rx="12.5" ry="12.5" style="stroke:#0078D4;stroke-width:3;" width="253.5566" x="190.3594" y="20"/><text fill="#FFFFFF" font-family="sans-serif" font-size="14" lengthAdjust="spacing" textLength="233.5566" x="200.3594" y="43.5352">Default table type in Unity Catalog</text><text fill="#000000" font-family="sans-serif" font-size="14" lengthAdjust="spacing" textLength="287.4648" x="496.916" y="43.5352">Databricks manages metadata + data files</text><path d="M443.916,38.2441 L453.916,38.2441 C468.916,38.2441 468.916,38.2441 483.916,38.2441 L493.916,38.2441" fill="none" style="stroke:#0078D4;stroke-width:3;"/><path d="M140.3594,151.2207 L150.3594,151.2207 C165.3594,151.2207 165.3594,38.2441 180.3594,38.2441 L190.3594,38.2441" fill="none" style="stroke:#FF5F46;stroke-width:3;"/><rect fill="#0078D4" height="36.4883" rx="12.5" ry="12.5" style="stroke:#0078D4;stroke-width:3;" width="213.2998" x="190.3594" y="76.4883"/><text fill="#FFFFFF" font-family="sans-serif" font-size="14" lengthAdjust="spacing" textLength="193.2998" x="200.3594" y="100.0234">Delta Lake format by default</text><text fill="#000000" font-family="sans-serif" font-size="14" lengthAdjust="spacing" textLength="121.4268" x="456.6592" y="81.5352">ACID transactions</text><path d="M403.6592,94.7324 L413.6592,94.7324 C428.6592,94.7324 428.6592,76.2441 443.6592,76.2441 L453.6592,76.2441" fill="none" style="stroke:#0078D4;stroke-width:3;"/><text fill="#000000" font-family="sans-serif" font-size="14" lengthAdjust="spacing" textLength="75.9883" x="456.6592" y="100.0234">Time travel</text><path d="M403.6592,94.7324 L413.6592,94.7324 C428.6592,94.7324 428.6592,94.7324 443.6592,94.7324 L453.6592,94.7324" fill="none" style="stroke:#0078D4;stroke-width:3;"/><text fill="#000000" font-family="sans-serif" font-size="14" lengthAdjust="spacing" textLength="142.1602" x="456.6592" y="118.5117">Schema enforcement</text><path d="M403.6592,94.7324 L413.6592,94.7324 C428.6592,94.7324 428.6592,113.2207 443.6592,113.2207 L453.6592,113.2207" fill="none" style="stroke:#0078D4;stroke-width:3;"/><path d="M140.3594,151.2207 L150.3594,151.2207 C165.3594,151.2207 165.3594,94.7324 180.3594,94.7324 L190.3594,94.7324" fill="none" style="stroke:#FF5F46;stroke-width:3;"/><rect fill="#0078D4" height="36.4883" rx="12.5" ry="12.5" style="stroke:#0078D4;stroke-width:3;" width="88.6123" x="190.3594" y="132.9766"/><text fill="#FFFFFF" font-family="sans-serif" font-size="14" lengthAdjust="spacing" textLength="68.6123" x="200.3594" y="156.5117">Using SQL</text><text fill="#000000" font-family="sans-serif" font-size="14" lengthAdjust="spacing" textLength="262.835" x="331.9717" y="147.2676">CREATE TABLE with column definitions</text><path d="M278.9717,151.2207 L288.9717,151.2207 C303.9717,151.2207 303.9717,141.9766 318.9717,141.9766 L328.9717,141.9766" fill="none" style="stroke:#0078D4;stroke-width:3;"/><text fill="#000000" font-family="sans-serif" font-size="14" lengthAdjust="spacing" textLength="277.5049" x="331.9717" y="165.7559">USE CATALOG / USE SCHEMA for context</text><path d="M278.9717,151.2207 L288.9717,151.2207 C303.9717,151.2207 303.9717,160.4648 318.9717,160.4648 L328.9717,160.4648" fill="none" style="stroke:#0078D4;stroke-width:3;"/><path d="M140.3594,151.2207 L150.3594,151.2207 C165.3594,151.2207 165.3594,151.2207 180.3594,151.2207 L190.3594,151.2207" fill="none" style="stroke:#FF5F46;stroke-width:3;"/><rect fill="#0078D4" height="36.4883" rx="12.5" ry="12.5" style="stroke:#0078D4;stroke-width:3;" width="145.6172" x="190.3594" y="189.4648"/><text fill="#FFFFFF" font-family="sans-serif" font-size="14" lengthAdjust="spacing" textLength="125.6172" x="200.3594" y="213">Advanced features</text><text fill="#000000" font-family="sans-serif" font-size="14" lengthAdjust="spacing" textLength="259.7861" x="388.9766" y="203.7559">Constraints: enforce data quality rules</text><path d="M335.9766,207.709 L345.9766,207.709 C360.9766,207.709 360.9766,198.4648 375.9766,198.4648 L385.9766,198.4648" fill="none" style="stroke:#0078D4;stroke-width:3;"/><text fill="#000000" font-family="sans-serif" font-size="14" lengthAdjust="spacing" textLength="294.0273" x="388.9766" y="222.2441">Generated columns: auto-computed values</text><path d="M335.9766,207.709 L345.9766,207.709 C360.9766,207.709 360.9766,216.9531 375.9766,216.9531 L385.9766,216.9531" fill="none" style="stroke:#0078D4;stroke-width:3;"/><path d="M140.3594,151.2207 L150.3594,151.2207 C165.3594,151.2207 165.3594,207.709 180.3594,207.709 L190.3594,207.709" fill="none" style="stroke:#FF5F46;stroke-width:3;"/><rect fill="#0078D4" height="36.4883" rx="12.5" ry="12.5" style="stroke:#0078D4;stroke-width:3;" width="170.9375" x="190.3594" y="245.9531"/><text fill="#FFFFFF" font-family="sans-serif" font-size="14" lengthAdjust="spacing" textLength="150.9375" x="200.3594" y="269.4883">Lifecycle management</text><text fill="#000000" font-family="sans-serif" font-size="14" lengthAdjust="spacing" textLength="283.0488" x="414.2969" y="269.4883">Drop table = delete metadata + data files</text><path d="M361.2969,264.1973 L371.2969,264.1973 C386.2969,264.1973 386.2969,264.1973 401.2969,264.1973 L411.2969,264.1973" fill="none" style="stroke:#0078D4;stroke-width:3;"/><path d="M140.3594,151.2207 L150.3594,151.2207 C165.3594,151.2207 165.3594,264.1973 180.3594,264.1973 L190.3594,264.1973" fill="none" style="stroke:#FF5F46;stroke-width:3;"/><?plantuml-src VLDTRzD047pthrY95mXgwePIe2gehcCN95SLn7b3GkVpEZdbV6VEwr2huh-p_aWhZCA-d7PkTsPtJdTTat1KAfENelAkQcerVl8kSwne-z9_1OyUSDm8kTiusvWyjDewU177R-FpY_ukKGR_HMDhQ4IBFfvgqwsIEuDr3M_cllVxe7LsLClttxrVda-r9kZVh9C9uZwUjHP7jOeY--3xKwq9-byjlm_Moko3xceUZrPSdOvspo1qA0Y_cpjXn0PpI4N6pTvi1aiiHAC9g4E0sWf16LWRHIs4WeIs6owR_O0b9vdZoMeeUnO-aKJECBo6_YZK4wdcD14xXCAwKX1aBUI3qi0MX5-MG4wOMaXIrjG3dAeIEtYFUW1MSekb03JC8x54q_N3kbPc0wkloL0KVek2D88qk4aY-ALe2zBgfZITfE9DdldNgmZ280sI-riuxRDL-3cw2xenkSaGFlG2GRuNHh9H1VlME1pRGoRYwPIX-l8mqx3wpqRepZBNw4FnBHfqx7e-JiCjeY5x8crPDHsy5xeP_4fKWRAL_023jUEUdUlELkFRVEHrD18UiVqQ-O-D_ymxco_ynSLyyGS0?></g></svg>