<?plantuml 1.2026.2?><svg xmlns="http://www.w3.org/2000/svg" xmlns:xlink="http://www.w3.org/1999/xlink" contentStyleType="text/css" data-diagram-type="MINDMAP" height="304px" preserveAspectRatio="none" style="width:803px;height:304px;background:#FFFFFF;" version="1.1" viewBox="0 0 803 304" width="803px" zoomAndPan="magnify"><defs/><g><rect fill="#FF5F46" height="52.9766" rx="12.5" ry="12.5" style="stroke:#FF5F46;stroke-width:3;" width="146.417" x="10" y="124.7324"/><text fill="#FFFFFF" font-family="sans-serif" font-size="14" lengthAdjust="spacing" textLength="43.9824" x="20" y="148.2676">Create</text><text fill="#FFFFFF" font-family="sans-serif" font-size="14" lengthAdjust="spacing" textLength="126.417" x="20" y="164.7559">Materialized Views</text><rect fill="#0078D4" height="36.4883" rx="12.5" ry="12.5" style="stroke:#0078D4;stroke-width:3;" width="250.8018" x="206.417" y="20"/><text fill="#FFFFFF" font-family="sans-serif" font-size="14" lengthAdjust="spacing" textLength="230.8018" x="216.417" y="43.5352">Precompute &amp; cache query results</text><text fill="#000000" font-family="sans-serif" font-size="14" lengthAdjust="spacing" textLength="140.7998" x="510.2188" y="34.291">Stored as Delta table</text><path d="M457.2188,38.2441 L467.2188,38.2441 C482.2188,38.2441 482.2188,29 497.2188,29 L507.2188,29" fill="none" style="stroke:#0078D4;stroke-width:3;"/><text fill="#000000" font-family="sans-serif" font-size="14" lengthAdjust="spacing" textLength="181.665" x="510.2188" y="52.7793">Faster than standard views</text><path d="M457.2188,38.2441 L467.2188,38.2441 C482.2188,38.2441 482.2188,47.4883 497.2188,47.4883 L507.2188,47.4883" fill="none" style="stroke:#0078D4;stroke-width:3;"/><path d="M156.417,151.2207 L166.417,151.2207 C181.417,151.2207 181.417,38.2441 196.417,38.2441 L206.417,38.2441" fill="none" style="stroke:#FF5F46;stroke-width:3;"/><rect fill="#0078D4" height="36.4883" rx="12.5" ry="12.5" style="stroke:#0078D4;stroke-width:3;" width="284.9404" x="206.417" y="76.4883"/><text fill="#FFFFFF" font-family="sans-serif" font-size="14" lengthAdjust="spacing" textLength="264.9404" x="216.417" y="100.0234">CREATE MATERIALIZED VIEW statement</text><text fill="#000000" font-family="sans-serif" font-size="14" lengthAdjust="spacing" textLength="247.5293" x="544.3574" y="100.0234">Optional SCHEDULE for auto-refresh</text><path d="M491.3574,94.7324 L501.3574,94.7324 C516.3574,94.7324 516.3574,94.7324 531.3574,94.7324 L541.3574,94.7324" fill="none" style="stroke:#0078D4;stroke-width:3;"/><path d="M156.417,151.2207 L166.417,151.2207 C181.417,151.2207 181.417,94.7324 196.417,94.7324 L206.417,94.7324" fill="none" style="stroke:#FF5F46;stroke-width:3;"/><rect fill="#0078D4" height="36.4883" rx="12.5" ry="12.5" style="stroke:#0078D4;stroke-width:3;" width="142.165" x="206.417" y="132.9766"/><text fill="#FFFFFF" font-family="sans-serif" font-size="14" lengthAdjust="spacing" textLength="122.165" x="216.417" y="156.5117">Refresh strategies</text><text fill="#000000" font-family="sans-serif" font-size="14" lengthAdjust="spacing" textLength="213.4932" x="401.582" y="147.2676">Incremental: only changed data</text><path d="M348.582,151.2207 L358.582,151.2207 C373.582,151.2207 373.582,141.9766 388.582,141.9766 L398.582,141.9766" fill="none" style="stroke:#0078D4;stroke-width:3;"/><text fill="#000000" font-family="sans-serif" font-size="14" lengthAdjust="spacing" textLength="174.7676" x="401.582" y="165.7559">Full: reprocess everything</text><path d="M348.582,151.2207 L358.582,151.2207 C373.582,151.2207 373.582,160.4648 388.582,160.4648 L398.582,160.4648" fill="none" style="stroke:#0078D4;stroke-width:3;"/><path d="M156.417,151.2207 L166.417,151.2207 C181.417,151.2207 181.417,151.2207 196.417,151.2207 L206.417,151.2207" fill="none" style="stroke:#FF5F46;stroke-width:3;"/><rect fill="#0078D4" height="36.4883" rx="12.5" ry="12.5" style="stroke:#0078D4;stroke-width:3;" width="160.1641" x="206.417" y="189.4648"/><text fill="#FFFFFF" font-family="sans-serif" font-size="14" lengthAdjust="spacing" textLength="140.1641" x="216.417" y="213">Incremental requires</text><text fill="#000000" font-family="sans-serif" font-size="14" lengthAdjust="spacing" textLength="130.0469" x="419.5811" y="203.7559">Delta source tables</text><path d="M366.5811,207.709 L376.5811,207.709 C391.5811,207.709 391.5811,198.4648 406.5811,198.4648 L416.5811,198.4648" fill="none" style="stroke:#0078D4;stroke-width:3;"/><text fill="#000000" font-family="sans-serif" font-size="14" lengthAdjust="spacing" textLength="146.3027" x="419.5811" y="222.2441">Row tracking enabled</text><path d="M366.5811,207.709 L376.5811,207.709 C391.5811,207.709 391.5811,216.9531 406.5811,216.9531 L416.5811,216.9531" fill="none" style="stroke:#0078D4;stroke-width:3;"/><path d="M156.417,151.2207 L166.417,151.2207 C181.417,151.2207 181.417,207.709 196.417,207.709 L206.417,207.709" fill="none" style="stroke:#FF5F46;stroke-width:3;"/><rect fill="#0078D4" height="36.4883" rx="12.5" ry="12.5" style="stroke:#0078D4;stroke-width:3;" width="72.1309" x="206.417" y="245.9531"/><text fill="#FFFFFF" font-family="sans-serif" font-size="14" lengthAdjust="spacing" textLength="52.1309" x="216.417" y="269.4883">Best for</text><text fill="#000000" font-family="sans-serif" font-size="14" lengthAdjust="spacing" textLength="153.918" x="331.5479" y="251">Complex aggregations</text><path d="M278.5479,264.1973 L288.5479,264.1973 C303.5479,264.1973 303.5479,245.709 318.5479,245.709 L328.5479,245.709" fill="none" style="stroke:#0078D4;stroke-width:3;"/><text fill="#000000" font-family="sans-serif" font-size="14" lengthAdjust="spacing" textLength="161.6768" x="331.5479" y="269.4883">Frequently queried data</text><path d="M278.5479,264.1973 L288.5479,264.1973 C303.5479,264.1973 303.5479,264.1973 318.5479,264.1973 L328.5479,264.1973" fill="none" style="stroke:#0078D4;stroke-width:3;"/><text fill="#000000" font-family="sans-serif" font-size="14" lengthAdjust="spacing" textLength="164.4316" x="331.5479" y="287.9766">Dashboard performance</text><path d="M278.5479,264.1973 L288.5479,264.1973 C303.5479,264.1973 303.5479,282.6855 318.5479,282.6855 L328.5479,282.6855" fill="none" style="stroke:#0078D4;stroke-width:3;"/><path d="M156.417,151.2207 L166.417,151.2207 C181.417,151.2207 181.417,264.1973 196.417,264.1973 L206.417,264.1973" fill="none" style="stroke:#FF5F46;stroke-width:3;"/><?plantuml-src VLDXQzH04FsUNp4WY1vufcUjMegqpILuS4MvrWeYoDncaYotsKrtDstFudztDicfZPppOLbcthptPfOzTHwjhwNEQsoY4-UtYjv7nparldeMFuU723ZEKMnAQrgT9qOP2q-ox7LsUDJLbbBJlzdCQ3zaYov-OwygAJQQd8DNqpZwkTCwsAiLns_UpW_7MgFiOzQHWwoBFrgplLf5iNuNnsEjKVQ_Md4NhBKszofW7lOYJbuEwvv0OWazVTCNV5g9IlwW7AubtRbeCe5FbeIfczOJF0M1eYAuQSbkmP9hbG-OoNUuzCPo5pgOa_887jUA-bA6Zdd1LwY17rpdQ7EutT4dg_JiAeKBFbQBi-NYQpg7wqNw9K0zrQHzp_AnyT9eL72PV4ZddvSf53mFjjwyi5ImbogmhVehDrlkBYKDzXPQs8uCrJ4OhROWs4x9ZdFqEFXi5HSjDTQ8i3kwvIbz9NKPcFzYOCnDA-sEkn_OcTOAwkSU2Yjp1-n3R9W2I8TA7gZEoVdWlaSbl5n5zu1bQQd4CENGdmKTLcItOUFoaTivkcfjmYeRianMenOKdHB_fU4_HGVJMJmxciv-0G00?></g></svg>