<?plantuml 1.2026.2?><svg xmlns="http://www.w3.org/2000/svg" xmlns:xlink="http://www.w3.org/1999/xlink" contentStyleType="text/css" data-diagram-type="MINDMAP" height="247px" preserveAspectRatio="none" style="width:637px;height:247px;background:#FFFFFF;" version="1.1" viewBox="0 0 637 247" width="637px" zoomAndPan="magnify"><defs/><g><rect fill="#FF5F46" height="52.9766" rx="12.5" ry="12.5" style="stroke:#FF5F46;stroke-width:3;" width="136.5801" x="10" y="96.4883"/><text fill="#FFFFFF" font-family="sans-serif" font-size="14" lengthAdjust="spacing" textLength="87.1787" x="20" y="120.0234">Primary Keys</text><text fill="#FFFFFF" font-family="sans-serif" font-size="14" lengthAdjust="spacing" textLength="116.5801" x="20" y="136.5117">and Foreign Keys</text><rect fill="#0078D4" height="36.4883" rx="12.5" ry="12.5" style="stroke:#0078D4;stroke-width:3;" width="144.4277" x="196.5801" y="20"/><text fill="#FFFFFF" font-family="sans-serif" font-size="14" lengthAdjust="spacing" textLength="124.4277" x="206.5801" y="43.5352">Informational only</text><text fill="#000000" font-family="sans-serif" font-size="14" lengthAdjust="spacing" textLength="213.9307" x="394.0078" y="34.291">Available in Runtime 11.3 LTS+</text><path d="M341.0078,38.2441 L351.0078,38.2441 C366.0078,38.2441 366.0078,29 381.0078,29 L391.0078,29" fill="none" style="stroke:#0078D4;stroke-width:3;"/><text fill="#000000" font-family="sans-serif" font-size="14" lengthAdjust="spacing" textLength="178.3633" x="394.0078" y="52.7793">Not enforced at write time</text><path d="M341.0078,38.2441 L351.0078,38.2441 C366.0078,38.2441 366.0078,47.4883 381.0078,47.4883 L391.0078,47.4883" fill="none" style="stroke:#0078D4;stroke-width:3;"/><path d="M146.5801,122.9766 L156.5801,122.9766 C171.5801,122.9766 171.5801,38.2441 186.5801,38.2441 L196.5801,38.2441" fill="none" style="stroke:#FF5F46;stroke-width:3;"/><rect fill="#0078D4" height="36.4883" rx="12.5" ry="12.5" style="stroke:#0078D4;stroke-width:3;" width="99.085" x="196.5801" y="76.4883"/><text fill="#FFFFFF" font-family="sans-serif" font-size="14" lengthAdjust="spacing" textLength="79.085" x="206.5801" y="100.0234">Primary key</text><text fill="#000000" font-family="sans-serif" font-size="14" lengthAdjust="spacing" textLength="268.1602" x="348.665" y="81.5352">PRIMARY KEY constraint on table create</text><path d="M295.665,94.7324 L305.665,94.7324 C320.665,94.7324 320.665,76.2441 335.665,76.2441 L345.665,76.2441" fill="none" style="stroke:#0078D4;stroke-width:3;"/><text fill="#000000" font-family="sans-serif" font-size="14" lengthAdjust="spacing" textLength="200.0879" x="348.665" y="100.0234">Columns implicitly NOT NULL</text><path d="M295.665,94.7324 L305.665,94.7324 C320.665,94.7324 320.665,94.7324 335.665,94.7324 L345.665,94.7324" fill="none" style="stroke:#0078D4;stroke-width:3;"/><text fill="#000000" font-family="sans-serif" font-size="14" lengthAdjust="spacing" textLength="277.3066" x="348.665" y="118.5117">Supports composite (multi-column) keys</text><path d="M295.665,94.7324 L305.665,94.7324 C320.665,94.7324 320.665,113.2207 335.665,113.2207 L345.665,113.2207" fill="none" style="stroke:#0078D4;stroke-width:3;"/><path d="M146.5801,122.9766 L156.5801,122.9766 C171.5801,122.9766 171.5801,94.7324 186.5801,94.7324 L196.5801,94.7324" fill="none" style="stroke:#FF5F46;stroke-width:3;"/><rect fill="#0078D4" height="36.4883" rx="12.5" ry="12.5" style="stroke:#0078D4;stroke-width:3;" width="98.8252" x="196.5801" y="132.9766"/><text fill="#FFFFFF" font-family="sans-serif" font-size="14" lengthAdjust="spacing" textLength="78.8252" x="206.5801" y="156.5117">Foreign key</text><text fill="#000000" font-family="sans-serif" font-size="14" lengthAdjust="spacing" textLength="169.6133" x="348.4053" y="147.2676">REFERENCES parent table</text><path d="M295.4053,151.2207 L305.4053,151.2207 C320.4053,151.2207 320.4053,141.9766 335.4053,141.9766 L345.4053,141.9766" fill="none" style="stroke:#0078D4;stroke-width:3;"/><text fill="#000000" font-family="sans-serif" font-size="14" lengthAdjust="spacing" textLength="169.0049" x="348.4053" y="165.7559">Documents relationships</text><path d="M295.4053,151.2207 L305.4053,151.2207 C320.4053,151.2207 320.4053,160.4648 335.4053,160.4648 L345.4053,160.4648" fill="none" style="stroke:#0078D4;stroke-width:3;"/><path d="M146.5801,122.9766 L156.5801,122.9766 C171.5801,122.9766 171.5801,151.2207 186.5801,151.2207 L196.5801,151.2207" fill="none" style="stroke:#FF5F46;stroke-width:3;"/><rect fill="#0078D4" height="36.4883" rx="12.5" ry="12.5" style="stroke:#0078D4;stroke-width:3;" width="73.9082" x="196.5801" y="189.4648"/><text fill="#FFFFFF" font-family="sans-serif" font-size="14" lengthAdjust="spacing" textLength="53.9082" x="206.5801" y="213">Benefits</text><text fill="#000000" font-family="sans-serif" font-size="14" lengthAdjust="spacing" textLength="255.1855" x="323.4883" y="194.5117">Query optimizer uses for better plans</text><path d="M270.4883,207.709 L280.4883,207.709 C295.4883,207.709 295.4883,189.2207 310.4883,189.2207 L320.4883,189.2207" fill="none" style="stroke:#0078D4;stroke-width:3;"/><text fill="#000000" font-family="sans-serif" font-size="14" lengthAdjust="spacing" textLength="165.1357" x="323.4883" y="213">Improved join strategies</text><path d="M270.4883,207.709 L280.4883,207.709 C295.4883,207.709 295.4883,207.709 310.4883,207.709 L320.4883,207.709" fill="none" style="stroke:#0078D4;stroke-width:3;"/><text fill="#000000" font-family="sans-serif" font-size="14" lengthAdjust="spacing" textLength="172.2383" x="323.4883" y="231.4883">Can add via ALTER TABLE</text><path d="M270.4883,207.709 L280.4883,207.709 C295.4883,207.709 295.4883,226.1973 310.4883,226.1973 L320.4883,226.1973" fill="none" style="stroke:#0078D4;stroke-width:3;"/><path d="M146.5801,122.9766 L156.5801,122.9766 C171.5801,122.9766 171.5801,207.709 186.5801,207.709 L196.5801,207.709" fill="none" style="stroke:#FF5F46;stroke-width:3;"/><?plantuml-src VPFRRjD048Rl_HGZSTC64Poqb8Cgr2IrfQWc5CTSL4926tkSBDcJTiS1K_7kh3TE4K5XxlQVV-QR6Mbl735BagjACXDTEse5le_ULMXeSnQVmsC4FgQitAwjRbGrqq9RU9QchzBBgv3BkC9_rLGhwjKwn9EtsF1ogz0vk1Z6qQy3QtII5SUltznU7hEErB-x7asGXlZ36fzarVNgRHmViuxK_xBY49wrqZz4vtaywRX-sPzx0FUMIsPRkCFMVL5CLRx08b-he4I30SnLhQranBLY0hGIhLS7Ns6oOrombK3W2l964PS8ez7m0h9Y-NplMMW2xEfBh80HVBUS43fdr_d0tcBVyZwVVvZa3t2NF42fbIFBk2BF10gWqY8Zt7lzJerK3hWqWfUSH0kBZmKiFcVPth1iZD6MdEyaZNOT-4msWlYBCfIUTzomuM7Zfpdo94toP35Bbc2OHJz2uE-JjxfifDSSM1JXB6x3JMWqHOKr9xStVchGBwUDNvV_H0kDGmV-5h128lysWgdUEfV6wfs_qJVjZzdjJRZcs6TdJ06hAjXn1fEiI78e9jCiYMxGVvx-0qMZuJWUNmt7lm40?></g></svg>