<?plantuml 1.2026.2?><svg xmlns="http://www.w3.org/2000/svg" xmlns:xlink="http://www.w3.org/1999/xlink" contentStyleType="text/css" data-diagram-type="MINDMAP" height="321px" preserveAspectRatio="none" style="width:735px;height:321px;background:#FFFFFF;" version="1.1" viewBox="0 0 735 321" width="735px" zoomAndPan="magnify"><defs/><g><rect fill="#FF5F46" height="52.9766" rx="12.5" ry="12.5" style="stroke:#FF5F46;stroke-width:3;" width="156.917" x="10" y="133.4648"/><text fill="#FFFFFF" font-family="sans-serif" font-size="14" lengthAdjust="spacing" textLength="52.7393" x="20" y="157">Manage</text><text fill="#FFFFFF" font-family="sans-serif" font-size="14" lengthAdjust="spacing" textLength="136.917" x="20" y="173.4883">Volume Permissions</text><rect fill="#0078D4" height="36.4883" rx="12.5" ry="12.5" style="stroke:#0078D4;stroke-width:3;" width="114.0762" x="216.917" y="28.7324"/><text fill="#FFFFFF" font-family="sans-serif" font-size="14" lengthAdjust="spacing" textLength="94.0762" x="226.917" y="52.2676">Key privileges</text><text fill="#000000" font-family="sans-serif" font-size="14" lengthAdjust="spacing" textLength="223.9521" x="383.9932" y="24.5352">READ VOLUME: list and read files</text><path d="M330.9932,46.9766 L340.9932,46.9766 C355.9932,46.9766 355.9932,19.2441 370.9932,19.2441 L380.9932,19.2441" fill="none" style="stroke:#0078D4;stroke-width:3;"/><text fill="#000000" font-family="sans-serif" font-size="14" lengthAdjust="spacing" textLength="291.7988" x="383.9932" y="43.0234">WRITE VOLUME: create, update, delete files</text><path d="M330.9932,46.9766 L340.9932,46.9766 C355.9932,46.9766 355.9932,37.7324 370.9932,37.7324 L380.9932,37.7324" fill="none" style="stroke:#0078D4;stroke-width:3;"/><text fill="#000000" font-family="sans-serif" font-size="14" lengthAdjust="spacing" textLength="256.5459" x="383.9932" y="61.5117">CREATE VOLUME: create new volumes</text><path d="M330.9932,46.9766 L340.9932,46.9766 C355.9932,46.9766 355.9932,56.2207 370.9932,56.2207 L380.9932,56.2207" fill="none" style="stroke:#0078D4;stroke-width:3;"/><text fill="#000000" font-family="sans-serif" font-size="14" lengthAdjust="spacing" textLength="187.0381" x="383.9932" y="80">CREATE EXTERNAL VOLUME</text><path d="M330.9932,46.9766 L340.9932,46.9766 C355.9932,46.9766 355.9932,74.709 370.9932,74.709 L380.9932,74.709" fill="none" style="stroke:#0078D4;stroke-width:3;"/><path d="M166.917,159.9531 L176.917,159.9531 C191.917,159.9531 191.917,46.9766 206.917,46.9766 L216.917,46.9766" fill="none" style="stroke:#FF5F46;stroke-width:3;"/><rect fill="#0078D4" height="36.4883" rx="12.5" ry="12.5" style="stroke:#0078D4;stroke-width:3;" width="129.5322" x="216.917" y="93.9531"/><text fill="#FFFFFF" font-family="sans-serif" font-size="14" lengthAdjust="spacing" textLength="109.5322" x="226.917" y="117.4883">Grant using SQL</text><text fill="#000000" font-family="sans-serif" font-size="14" lengthAdjust="spacing" textLength="323.8936" x="399.4492" y="117.4883">GRANT READ VOLUME ON VOLUME ... TO group</text><path d="M346.4492,112.1973 L356.4492,112.1973 C371.4492,112.1973 371.4492,112.1973 386.4492,112.1973 L396.4492,112.1973" fill="none" style="stroke:#0078D4;stroke-width:3;"/><path d="M166.917,159.9531 L176.917,159.9531 C191.917,159.9531 191.917,112.1973 206.917,112.1973 L216.917,112.1973" fill="none" style="stroke:#FF5F46;stroke-width:3;"/><rect fill="#0078D4" height="36.4883" rx="12.5" ry="12.5" style="stroke:#0078D4;stroke-width:3;" width="174.0479" x="216.917" y="150.4414"/><text fill="#FFFFFF" font-family="sans-serif" font-size="14" lengthAdjust="spacing" textLength="154.0479" x="226.917" y="173.9766">Permission inheritance</text><text fill="#000000" font-family="sans-serif" font-size="14" lengthAdjust="spacing" textLength="254.085" x="443.9648" y="173.9766">Cascade from parent catalog/schema</text><path d="M390.9648,168.6855 L400.9648,168.6855 C415.9648,168.6855 415.9648,168.6855 430.9648,168.6855 L440.9648,168.6855" fill="none" style="stroke:#0078D4;stroke-width:3;"/><path d="M166.917,159.9531 L176.917,159.9531 C191.917,159.9531 191.917,168.6855 206.917,168.6855 L216.917,168.6855" fill="none" style="stroke:#FF5F46;stroke-width:3;"/><rect fill="#0078D4" height="36.4883" rx="12.5" ry="12.5" style="stroke:#0078D4;stroke-width:3;" width="160.9229" x="216.917" y="206.9297"/><text fill="#FFFFFF" font-family="sans-serif" font-size="14" lengthAdjust="spacing" textLength="140.9229" x="226.917" y="230.4648">No folder-level ACLs</text><text fill="#000000" font-family="sans-serif" font-size="14" lengthAdjust="spacing" textLength="238.7725" x="430.8398" y="221.2207">Permissions apply to whole volume</text><path d="M377.8398,225.1738 L387.8398,225.1738 C402.8398,225.1738 402.8398,215.9297 417.8398,215.9297 L427.8398,215.9297" fill="none" style="stroke:#0078D4;stroke-width:3;"/><text fill="#000000" font-family="sans-serif" font-size="14" lengthAdjust="spacing" textLength="283.377" x="430.8398" y="239.709">Use separate volumes for different access</text><path d="M377.8398,225.1738 L387.8398,225.1738 C402.8398,225.1738 402.8398,234.418 417.8398,234.418 L427.8398,234.418" fill="none" style="stroke:#0078D4;stroke-width:3;"/><path d="M166.917,159.9531 L176.917,159.9531 C191.917,159.9531 191.917,225.1738 206.917,225.1738 L216.917,225.1738" fill="none" style="stroke:#FF5F46;stroke-width:3;"/><rect fill="#0078D4" height="36.4883" rx="12.5" ry="12.5" style="stroke:#0078D4;stroke-width:3;" width="347.1475" x="216.917" y="263.418"/><text fill="#FFFFFF" font-family="sans-serif" font-size="14" lengthAdjust="spacing" textLength="327.1475" x="226.917" y="286.9531">Users also need USE CATALOG and USE SCHEMA</text><path d="M166.917,159.9531 L176.917,159.9531 C191.917,159.9531 191.917,281.6621 206.917,281.6621 L216.917,281.6621" fill="none" style="stroke:#FF5F46;stroke-width:3;"/><?plantuml-src VPDTRzCm58RlyokEn0rKa6Lb39Wcj90b7I9jeKq75qZ8YqyIQuuTsMv7DV7ViJDlwpALSvFa-Ctxd0_vJ1kYJCi4RKaNd6gpvVWfEA7OcUPbz0fk0x3ncPJNjP9hGHF9fO8NMVOkEphkpt8cy7asayBuRDN7WxPeM7ajK6ju6qR1ttlMuLvM5Bt_S7uqP0soJrq75MHzFBB6UrbLTVKnYeQiGVQ_hAWFoxgIVxZJtEvLd1xuSOzWIWIfyPUub7pT8dn3rJAjcHGw68tWAswXKsp3EDReCgFVi4ZZSxYSvwjfUWASQGD4K518A5HMvrK_5b-Az45MscE3hs7TqVv9aQF1NNrYRP_z009lODDNzbIM_YpInIpElTwLEb5465Xh9cfOVi_lv9D5F2jsAuRvxFuj34Cevk2sq3c3nzQ1YGOLCqIKwB54buJQWfLieICABQeaXd1P7-YomPOuXvc4IdAAwWt73NA8azoNlJDM85t7js0at3IIes_lJhRI21gjl-lTzsqj5L1MLTXJILdQtJgQ5IlhnhMqOq8AgsKAILp4-NpIRyHzBvEBT1e7PsXlcRzfmM4uZiR7uVWV?></g></svg>