<?plantuml 1.2026.2?><svg xmlns="http://www.w3.org/2000/svg" xmlns:xlink="http://www.w3.org/1999/xlink" contentStyleType="text/css" data-diagram-type="MINDMAP" height="417px" preserveAspectRatio="none" style="width:708px;height:417px;background:#FFFFFF;" version="1.1" viewBox="0 0 708 417" width="708px" zoomAndPan="magnify"><defs/><g><rect fill="#FF5F46" height="52.9766" rx="12.5" ry="12.5" style="stroke:#FF5F46;stroke-width:3;" width="173.8975" x="10" y="181.2207"/><text fill="#FFFFFF" font-family="sans-serif" font-size="14" lengthAdjust="spacing" textLength="153.8975" x="20" y="204.7559">Modify Table Structure</text><text fill="#FFFFFF" font-family="sans-serif" font-size="14" lengthAdjust="spacing" textLength="107.5771" x="20" y="221.2441">and Constraints</text><rect fill="#0078D4" height="36.4883" rx="12.5" ry="12.5" style="stroke:#0078D4;stroke-width:3;" width="185.2725" x="233.8975" y="20"/><text fill="#FFFFFF" font-family="sans-serif" font-size="14" lengthAdjust="spacing" textLength="165.2725" x="243.8975" y="43.5352">ALTER TABLE operations</text><path d="M183.8975,207.709 L193.8975,207.709 C208.8975,207.709 208.8975,38.2441 223.8975,38.2441 L233.8975,38.2441" fill="none" style="stroke:#FF5F46;stroke-width:3;"/><rect fill="#0078D4" height="36.4883" rx="12.5" ry="12.5" style="stroke:#0078D4;stroke-width:3;" width="101.9766" x="233.8975" y="76.4883"/><text fill="#FFFFFF" font-family="sans-serif" font-size="14" lengthAdjust="spacing" textLength="81.9766" x="243.8975" y="100.0234">Add column</text><text fill="#000000" font-family="sans-serif" font-size="14" lengthAdjust="spacing" textLength="259.3418" x="388.874" y="100.0234">Populated with NULL for existing rows</text><path d="M335.874,94.7324 L345.874,94.7324 C360.874,94.7324 360.874,94.7324 375.874,94.7324 L385.874,94.7324" fill="none" style="stroke:#0078D4;stroke-width:3;"/><path d="M183.8975,207.709 L193.8975,207.709 C208.8975,207.709 208.8975,94.7324 223.8975,94.7324 L233.8975,94.7324" fill="none" style="stroke:#FF5F46;stroke-width:3;"/><rect fill="#0078D4" height="36.4883" rx="12.5" ry="12.5" style="stroke:#0078D4;stroke-width:3;" width="128.6367" x="233.8975" y="132.9766"/><text fill="#FFFFFF" font-family="sans-serif" font-size="14" lengthAdjust="spacing" textLength="108.6367" x="243.8975" y="156.5117">Rename column</text><text fill="#000000" font-family="sans-serif" font-size="14" lengthAdjust="spacing" textLength="275.7275" x="415.5342" y="156.5117">Requires Delta column mapping enabled</text><path d="M362.5342,151.2207 L372.5342,151.2207 C387.5342,151.2207 387.5342,151.2207 402.5342,151.2207 L412.5342,151.2207" fill="none" style="stroke:#0078D4;stroke-width:3;"/><path d="M183.8975,207.709 L193.8975,207.709 C208.8975,207.709 208.8975,151.2207 223.8975,151.2207 L233.8975,151.2207" fill="none" style="stroke:#FF5F46;stroke-width:3;"/><rect fill="#0078D4" height="36.4883" rx="12.5" ry="12.5" style="stroke:#0078D4;stroke-width:3;" width="108.3203" x="233.8975" y="189.4648"/><text fill="#FFFFFF" font-family="sans-serif" font-size="14" lengthAdjust="spacing" textLength="88.3203" x="243.8975" y="213">Drop column</text><text fill="#000000" font-family="sans-serif" font-size="14" lengthAdjust="spacing" textLength="282.6797" x="395.2178" y="213">Drop constraints/generated columns first</text><path d="M342.2178,207.709 L352.2178,207.709 C367.2178,207.709 367.2178,207.709 382.2178,207.709 L392.2178,207.709" fill="none" style="stroke:#0078D4;stroke-width:3;"/><path d="M183.8975,207.709 L193.8975,207.709 C208.8975,207.709 208.8975,207.709 223.8975,207.709 L233.8975,207.709" fill="none" style="stroke:#FF5F46;stroke-width:3;"/><rect fill="#0078D4" height="36.4883" rx="12.5" ry="12.5" style="stroke:#0078D4;stroke-width:3;" width="159.6104" x="233.8975" y="245.9531"/><text fill="#FFFFFF" font-family="sans-serif" font-size="14" lengthAdjust="spacing" textLength="139.6104" x="243.8975" y="269.4883">Change column type</text><text fill="#000000" font-family="sans-serif" font-size="14" lengthAdjust="spacing" textLength="186.9424" x="446.5078" y="260.2441">Widen types (INT to BIGINT)</text><path d="M393.5078,264.1973 L403.5078,264.1973 C418.5078,264.1973 418.5078,254.9531 433.5078,254.9531 L443.5078,254.9531" fill="none" style="stroke:#0078D4;stroke-width:3;"/><text fill="#000000" font-family="sans-serif" font-size="14" lengthAdjust="spacing" textLength="171.8076" x="446.5078" y="278.7324">Compatible type changes</text><path d="M393.5078,264.1973 L403.5078,264.1973 C418.5078,264.1973 418.5078,273.4414 433.5078,273.4414 L443.5078,273.4414" fill="none" style="stroke:#0078D4;stroke-width:3;"/><path d="M183.8975,207.709 L193.8975,207.709 C208.8975,207.709 208.8975,264.1973 223.8975,264.1973 L233.8975,264.1973" fill="none" style="stroke:#FF5F46;stroke-width:3;"/><rect fill="#0078D4" height="36.4883" rx="12.5" ry="12.5" style="stroke:#0078D4;stroke-width:3;" width="166.4053" x="233.8975" y="302.4414"/><text fill="#FFFFFF" font-family="sans-serif" font-size="14" lengthAdjust="spacing" textLength="146.4053" x="243.8975" y="325.9766">Add/drop constraints</text><text fill="#000000" font-family="sans-serif" font-size="14" lengthAdjust="spacing" textLength="243.0996" x="453.3027" y="325.9766">PRIMARY KEY, FOREIGN KEY, CHECK</text><path d="M400.3027,320.6855 L410.3027,320.6855 C425.3027,320.6855 425.3027,320.6855 440.3027,320.6855 L450.3027,320.6855" fill="none" style="stroke:#0078D4;stroke-width:3;"/><path d="M183.8975,207.709 L193.8975,207.709 C208.8975,207.709 208.8975,320.6855 223.8975,320.6855 L233.8975,320.6855" fill="none" style="stroke:#FF5F46;stroke-width:3;"/><rect fill="#0078D4" height="36.4883" rx="12.5" ry="12.5" style="stroke:#0078D4;stroke-width:3;" width="199.6621" x="233.8975" y="358.9297"/><text fill="#FFFFFF" font-family="sans-serif" font-size="14" lengthAdjust="spacing" textLength="179.6621" x="243.8975" y="382.4648">Requires MODIFY privilege</text><path d="M183.8975,207.709 L193.8975,207.709 C208.8975,207.709 208.8975,377.1738 223.8975,377.1738 L233.8975,377.1738" fill="none" style="stroke:#FF5F46;stroke-width:3;"/><?plantuml-src VLDjJzim4FwUNt7Ila0rjQ5Zl4m8qQO9YqWB2fccIaYJ6rzIYyJsR0Ue4FyTvwMWPkhka-_kUUvvVBAlj27Ab8pJaaZdGfjDWPVE3uhIh0_SGtXrmCQKf8-v4XMddYY4WYz1y3quFcbw4UFuRpKGt7JLh8aFRB9cwID7hU7Rq7NUjbf7UxLSz_HiTjpNwbLtf_OS14ryQettQcNPwjnr-rgzwd-rt2Qiragy53NcTI_YOjIjUm1pGLcsWOIi2eHxewhKL0eVEE4KFC6rKOHnevt102PHuiUGJAQH3qAY8ePPGDEX559HL2MtsU0Ft0bP5SGWXMTcrh3u5KMGMGVumhHXF0SbdXjYZ9oKkCEDyM_556gOOM58rmBxHcHDj7XhbDRScH9oXzaLFZoFSkIrIzoQqv0nfKrDzjQ4vrjXC1k9xOpVZ6ARQpW85maO0TFmsfuEMu0dIcalNc-hHa7Q3DfkOKHx7hfznE5y4Y_Xnbz-XU0sziFhHPjuFttlfjr4T-tvxImCbY0LUs85vkXSeVqYtJTnZePZTtmo7By3?></g></svg>