<?plantuml 1.2026.2?><svg xmlns="http://www.w3.org/2000/svg" xmlns:xlink="http://www.w3.org/1999/xlink" contentStyleType="text/css" data-diagram-type="MINDMAP" height="304px" preserveAspectRatio="none" style="width:726px;height:304px;background:#FFFFFF;" version="1.1" viewBox="0 0 726 304" width="726px" zoomAndPan="magnify"><defs/><g><rect fill="#FF5F46" height="52.9766" rx="12.5" ry="12.5" style="stroke:#FF5F46;stroke-width:3;" width="145.2139" x="10" y="124.7324"/><text fill="#FFFFFF" font-family="sans-serif" font-size="14" lengthAdjust="spacing" textLength="114.1738" x="20" y="148.2676">Create Functions</text><text fill="#FFFFFF" font-family="sans-serif" font-size="14" lengthAdjust="spacing" textLength="125.2139" x="20" y="164.7559">for Reusable Logic</text><rect fill="#0078D4" height="36.4883" rx="12.5" ry="12.5" style="stroke:#0078D4;stroke-width:3;" width="59.915" x="205.2139" y="20"/><text fill="#FFFFFF" font-family="sans-serif" font-size="14" lengthAdjust="spacing" textLength="39.915" x="215.2139" y="43.5352">Types</text><text fill="#000000" font-family="sans-serif" font-size="14" lengthAdjust="spacing" textLength="182.6357" x="318.1289" y="25.0469">Scalar: returns single value</text><path d="M265.1289,38.2441 L275.1289,38.2441 C290.1289,38.2441 290.1289,19.7559 305.1289,19.7559 L315.1289,19.7559" fill="none" style="stroke:#0078D4;stroke-width:3;"/><text fill="#000000" font-family="sans-serif" font-size="14" lengthAdjust="spacing" textLength="215.2021" x="318.1289" y="43.5352">Table-valued: returns result set</text><path d="M265.1289,38.2441 L275.1289,38.2441 C290.1289,38.2441 290.1289,38.2441 305.1289,38.2441 L315.1289,38.2441" fill="none" style="stroke:#0078D4;stroke-width:3;"/><text fill="#000000" font-family="sans-serif" font-size="14" lengthAdjust="spacing" textLength="169.791" x="318.1289" y="62.0234">Temporary: session-only</text><path d="M265.1289,38.2441 L275.1289,38.2441 C290.1289,38.2441 290.1289,56.7324 305.1289,56.7324 L315.1289,56.7324" fill="none" style="stroke:#0078D4;stroke-width:3;"/><path d="M155.2139,151.2207 L165.2139,151.2207 C180.2139,151.2207 180.2139,38.2441 195.2139,38.2441 L205.2139,38.2441" fill="none" style="stroke:#FF5F46;stroke-width:3;"/><rect fill="#0078D4" height="36.4883" rx="12.5" ry="12.5" style="stroke:#0078D4;stroke-width:3;" width="92.7002" x="205.2139" y="76.4883"/><text fill="#FFFFFF" font-family="sans-serif" font-size="14" lengthAdjust="spacing" textLength="72.7002" x="215.2139" y="100.0234">Languages</text><text fill="#000000" font-family="sans-serif" font-size="14" lengthAdjust="spacing" textLength="93.7139" x="350.9141" y="90.7793">SQL functions</text><path d="M297.9141,94.7324 L307.9141,94.7324 C322.9141,94.7324 322.9141,85.4883 337.9141,85.4883 L347.9141,85.4883" fill="none" style="stroke:#0078D4;stroke-width:3;"/><text fill="#000000" font-family="sans-serif" font-size="14" lengthAdjust="spacing" textLength="363.2344" x="350.9141" y="109.2676">Python functions (requires pro/serverless warehouse)</text><path d="M297.9141,94.7324 L307.9141,94.7324 C322.9141,94.7324 322.9141,103.9766 337.9141,103.9766 L347.9141,103.9766" fill="none" style="stroke:#0078D4;stroke-width:3;"/><path d="M155.2139,151.2207 L165.2139,151.2207 C180.2139,151.2207 180.2139,94.7324 195.2139,94.7324 L205.2139,94.7324" fill="none" style="stroke:#FF5F46;stroke-width:3;"/><rect fill="#0078D4" height="36.4883" rx="12.5" ry="12.5" style="stroke:#0078D4;stroke-width:3;" width="73.9082" x="205.2139" y="132.9766"/><text fill="#FFFFFF" font-family="sans-serif" font-size="14" lengthAdjust="spacing" textLength="53.9082" x="215.2139" y="156.5117">Benefits</text><text fill="#000000" font-family="sans-serif" font-size="14" lengthAdjust="spacing" textLength="231.0068" x="332.1221" y="138.0234">Governed objects in Unity Catalog</text><path d="M279.1221,151.2207 L289.1221,151.2207 C304.1221,151.2207 304.1221,132.7324 319.1221,132.7324 L329.1221,132.7324" fill="none" style="stroke:#0078D4;stroke-width:3;"/><text fill="#000000" font-family="sans-serif" font-size="14" lengthAdjust="spacing" textLength="252.8135" x="332.1221" y="156.5117">Shared across teams and workspaces</text><path d="M279.1221,151.2207 L289.1221,151.2207 C304.1221,151.2207 304.1221,151.2207 319.1221,151.2207 L329.1221,151.2207" fill="none" style="stroke:#0078D4;stroke-width:3;"/><text fill="#000000" font-family="sans-serif" font-size="14" lengthAdjust="spacing" textLength="230.8018" x="332.1221" y="175">Catalog tracks ownership &amp; usage</text><path d="M279.1221,151.2207 L289.1221,151.2207 C304.1221,151.2207 304.1221,169.709 319.1221,169.709 L329.1221,169.709" fill="none" style="stroke:#0078D4;stroke-width:3;"/><path d="M155.2139,151.2207 L165.2139,151.2207 C180.2139,151.2207 180.2139,151.2207 195.2139,151.2207 L205.2139,151.2207" fill="none" style="stroke:#FF5F46;stroke-width:3;"/><rect fill="#0078D4" height="36.4883" rx="12.5" ry="12.5" style="stroke:#0078D4;stroke-width:3;" width="152.1318" x="205.2139" y="189.4648"/><text fill="#FFFFFF" font-family="sans-serif" font-size="14" lengthAdjust="spacing" textLength="132.1318" x="215.2139" y="213">SQL scalar example</text><text fill="#000000" font-family="sans-serif" font-size="14" lengthAdjust="spacing" textLength="293.9521" x="410.3457" y="213">RETURNS DOUBLE RETURN price * (1 - rate)</text><path d="M357.3457,207.709 L367.3457,207.709 C382.3457,207.709 382.3457,207.709 397.3457,207.709 L407.3457,207.709" fill="none" style="stroke:#0078D4;stroke-width:3;"/><path d="M155.2139,151.2207 L165.2139,151.2207 C180.2139,151.2207 180.2139,207.709 195.2139,207.709 L205.2139,207.709" fill="none" style="stroke:#FF5F46;stroke-width:3;"/><rect fill="#0078D4" height="36.4883" rx="12.5" ry="12.5" style="stroke:#0078D4;stroke-width:3;" width="128.541" x="205.2139" y="245.9531"/><text fill="#FFFFFF" font-family="sans-serif" font-size="14" lengthAdjust="spacing" textLength="108.541" x="215.2139" y="269.4883">Python example</text><text fill="#000000" font-family="sans-serif" font-size="14" lengthAdjust="spacing" textLength="210.6563" x="386.7549" y="269.4883">LANGUAGE PYTHON AS $$...$$</text><path d="M333.7549,264.1973 L343.7549,264.1973 C358.7549,264.1973 358.7549,264.1973 373.7549,264.1973 L383.7549,264.1973" fill="none" style="stroke:#0078D4;stroke-width:3;"/><path d="M155.2139,151.2207 L165.2139,151.2207 C180.2139,151.2207 180.2139,264.1973 195.2139,264.1973 L205.2139,264.1973" fill="none" style="stroke:#FF5F46;stroke-width:3;"/><?plantuml-src VPDHRvim4CVV-HGdBPfIf52ITTqMLLEJDAGFA6qJyZ1fqkJ00Lx0PZxJ55NxxZMKD2fJTa_mz__kTtUMhqapfNCkefmLrXNfAiFlrZZ2GgTzzmoUBJ0nPU4kKR8KqKncKi47p_liNLmsPpuN-A_gIQ5RDMxYpHkaFDm9989FZclzFR269rck--NhpKMNrL7VL-rqu3LnP8rEik9u-yrrkwoE-b-MsuHXRULJLdkUJpgkpjjrsp1Jo3I2LufGSodefuYDTOKbiMs6uCk4XvPjGr0LIER3_WNha6LCZK6XBfKW82uIOtraMOclZg3E7JH2TFGff3BJGAXR5-Q5L4nLOwCH6Vf0YgogQJuJIScID-A33_6XmrVfljAf54SL-Wh_bDmme53od50zechMi6SAKraIdjMLfoWmvhgjif369J02kVsDeIRW0ZQ2wmfcJBDC9Yq_DJKYOA6Ifg16bXCm4S5UgXqLB3pqsIQ1LkPw2UHUeAAK5_0Hp3wJUZlDBDHi4F29vKNMxcmr3pQhvHfkxZPJVzx-cbbuY613VmW3KEQccY7QuT_b-vFbOZDPpE7-Ht1xjuJ96deznt5wFUiQpIDh7verT4RkwD8PlG00?></g></svg>