<?plantuml 1.2026.2?><svg xmlns="http://www.w3.org/2000/svg" xmlns:xlink="http://www.w3.org/1999/xlink" contentStyleType="text/css" data-diagram-type="MINDMAP" height="304px" preserveAspectRatio="none" style="width:792px;height:304px;background:#FFFFFF;" version="1.1" viewBox="0 0 792 304" width="792px" zoomAndPan="magnify"><defs/><g><rect fill="#FF5F46" height="52.9766" rx="12.5" ry="12.5" style="stroke:#FF5F46;stroke-width:3;" width="194.1523" x="10" y="124.7324"/><text fill="#FFFFFF" font-family="sans-serif" font-size="14" lengthAdjust="spacing" textLength="123.6143" x="20" y="148.2676">Create Procedures</text><text fill="#FFFFFF" font-family="sans-serif" font-size="14" lengthAdjust="spacing" textLength="174.1523" x="20" y="164.7559">for Multi-step Operations</text><rect fill="#0078D4" height="36.4883" rx="12.5" ry="12.5" style="stroke:#0078D4;stroke-width:3;" width="174.3281" x="254.1523" y="20"/><text fill="#FFFFFF" font-family="sans-serif" font-size="14" lengthAdjust="spacing" textLength="154.3281" x="264.1523" y="43.5352">SQL stored procedures</text><text fill="#000000" font-family="sans-serif" font-size="14" lengthAdjust="spacing" textLength="199.4248" x="481.4805" y="34.291">Sequences of SQL statements</text><path d="M428.4805,38.2441 L438.4805,38.2441 C453.4805,38.2441 453.4805,29 468.4805,29 L478.4805,29" fill="none" style="stroke:#0078D4;stroke-width:3;"/><text fill="#000000" font-family="sans-serif" font-size="14" lengthAdjust="spacing" textLength="258.4326" x="481.4805" y="52.7793">Variables, control flow, error handling</text><path d="M428.4805,38.2441 L438.4805,38.2441 C453.4805,38.2441 453.4805,47.4883 468.4805,47.4883 L478.4805,47.4883" fill="none" style="stroke:#0078D4;stroke-width:3;"/><path d="M204.1523,151.2207 L214.1523,151.2207 C229.1523,151.2207 229.1523,38.2441 244.1523,38.2441 L254.1523,38.2441" fill="none" style="stroke:#FF5F46;stroke-width:3;"/><rect fill="#0078D4" height="36.4883" rx="12.5" ry="12.5" style="stroke:#0078D4;stroke-width:3;" width="230.3896" x="254.1523" y="76.4883"/><text fill="#FFFFFF" font-family="sans-serif" font-size="14" lengthAdjust="spacing" textLength="210.3896" x="264.1523" y="100.0234">CREATE PROCEDURE statement</text><text fill="#000000" font-family="sans-serif" font-size="14" lengthAdjust="spacing" textLength="166.2227" x="537.542" y="90.7793">Requires Runtime 17.0+</text><path d="M484.542,94.7324 L494.542,94.7324 C509.542,94.7324 509.542,85.4883 524.542,85.4883 L534.542,85.4883" fill="none" style="stroke:#0078D4;stroke-width:3;"/><text fill="#000000" font-family="sans-serif" font-size="14" lengthAdjust="spacing" textLength="136.7324" x="537.542" y="109.2676">Currently in preview</text><path d="M484.542,94.7324 L494.542,94.7324 C509.542,94.7324 509.542,103.9766 524.542,103.9766 L534.542,103.9766" fill="none" style="stroke:#0078D4;stroke-width:3;"/><path d="M204.1523,151.2207 L214.1523,151.2207 C229.1523,151.2207 229.1523,94.7324 244.1523,94.7324 L254.1523,94.7324" fill="none" style="stroke:#FF5F46;stroke-width:3;"/><rect fill="#0078D4" height="36.4883" rx="12.5" ry="12.5" style="stroke:#0078D4;stroke-width:3;" width="129.293" x="254.1523" y="132.9766"/><text fill="#FFFFFF" font-family="sans-serif" font-size="14" lengthAdjust="spacing" textLength="109.293" x="264.1523" y="156.5117">Parameter types</text><text fill="#000000" font-family="sans-serif" font-size="14" lengthAdjust="spacing" textLength="139.9111" x="436.4453" y="138.0234">IN: input parameters</text><path d="M383.4453,151.2207 L393.4453,151.2207 C408.4453,151.2207 408.4453,132.7324 423.4453,132.7324 L433.4453,132.7324" fill="none" style="stroke:#0078D4;stroke-width:3;"/><text fill="#000000" font-family="sans-serif" font-size="14" lengthAdjust="spacing" textLength="164.7529" x="436.4453" y="156.5117">OUT: output parameters</text><path d="M383.4453,151.2207 L393.4453,151.2207 C408.4453,151.2207 408.4453,151.2207 423.4453,151.2207 L433.4453,151.2207" fill="none" style="stroke:#0078D4;stroke-width:3;"/><text fill="#000000" font-family="sans-serif" font-size="14" lengthAdjust="spacing" textLength="84" x="436.4453" y="175">INOUT: both</text><path d="M383.4453,151.2207 L393.4453,151.2207 C408.4453,151.2207 408.4453,169.709 423.4453,169.709 L433.4453,169.709" fill="none" style="stroke:#0078D4;stroke-width:3;"/><path d="M204.1523,151.2207 L214.1523,151.2207 C229.1523,151.2207 229.1523,151.2207 244.1523,151.2207 L254.1523,151.2207" fill="none" style="stroke:#FF5F46;stroke-width:3;"/><rect fill="#0078D4" height="36.4883" rx="12.5" ry="12.5" style="stroke:#0078D4;stroke-width:3;" width="179.7012" x="254.1523" y="189.4648"/><text fill="#FFFFFF" font-family="sans-serif" font-size="14" lengthAdjust="spacing" textLength="159.7012" x="264.1523" y="213">SQL SECURITY INVOKER</text><text fill="#000000" font-family="sans-serif" font-size="14" lengthAdjust="spacing" textLength="204.4834" x="486.8535" y="213">Runs with caller's permissions</text><path d="M433.8535,207.709 L443.8535,207.709 C458.8535,207.709 458.8535,207.709 473.8535,207.709 L483.8535,207.709" fill="none" style="stroke:#0078D4;stroke-width:3;"/><path d="M204.1523,151.2207 L214.1523,151.2207 C229.1523,151.2207 229.1523,207.709 244.1523,207.709 L254.1523,207.709" fill="none" style="stroke:#FF5F46;stroke-width:3;"/><rect fill="#0078D4" height="36.4883" rx="12.5" ry="12.5" style="stroke:#0078D4;stroke-width:3;" width="217.1279" x="254.1523" y="245.9531"/><text fill="#FFFFFF" font-family="sans-serif" font-size="14" lengthAdjust="spacing" textLength="197.1279" x="264.1523" y="269.4883">Execute with CALL statement</text><text fill="#000000" font-family="sans-serif" font-size="14" lengthAdjust="spacing" textLength="255.9785" x="524.2803" y="269.4883">CALL catalog.schema.procedure(args)</text><path d="M471.2803,264.1973 L481.2803,264.1973 C496.2803,264.1973 496.2803,264.1973 511.2803,264.1973 L521.2803,264.1973" fill="none" style="stroke:#0078D4;stroke-width:3;"/><path d="M204.1523,151.2207 L214.1523,151.2207 C229.1523,151.2207 229.1523,264.1973 244.1523,264.1973 L254.1523,264.1973" fill="none" style="stroke:#FF5F46;stroke-width:3;"/><?plantuml-src VPDXJzim48Q_vrUSj0z0nxAqOx1LQ8A5HAhMqPAsI4YJ9ZUvD1QE7UppIeNst-U6f6XXtNsyz_Kzhy_oXI6cgUGoArdbdHlQ2FpY3JEig3WCZk390rTVMNg_qihAB5H2QNWJnn_ZazDQ6tE9hxknajHqyxfstdd1qtk9ni07F_1-jwp-NbOGd7swEkcoEjs_ftOIn7Mzi0PxMNc-_1m4NLQd-rzMK9TZBTMZs7gUzZhEtpVhxa6eaH72LAiKCwlH_92vytwtWlWxGrZ1f4BDY2jfl5uFPZTZCAGqPb3jpZYXznDc-61HfcX0vOtFZIvHKcEuPPgpfSjs3AbBfPM0NAZrCQ3MZbamcGakLrjCc4INymYcoIIChXP9z3BhULJYMDoH8R6IU8dGF_E3jyzQQBLsHh41Bbr8_CLnlPqvPPgLIAY1DbKRUdGzTBRA4bIjt2YJnNm8ojA_jD5rhIuL5UrIPb6uI4RpEwVTJhv5IPFJIWDhJWMaJ0ZK1mRSEajkJBlGw15JwrwWDeMNut7tgdKlPSI4MlacBR1a_cxrXqolp95tWUuRDL_9w_k3O73g3_u0?></g></svg>