<?plantuml 1.2026.2?><svg xmlns="http://www.w3.org/2000/svg" xmlns:xlink="http://www.w3.org/1999/xlink" contentStyleType="text/css" data-diagram-type="MINDMAP" height="304px" preserveAspectRatio="none" style="width:977px;height:304px;background:#FFFFFF;" version="1.1" viewBox="0 0 977 304" width="977px" zoomAndPan="magnify"><defs/><g><rect fill="#FF5F46" height="52.9766" rx="12.5" ry="12.5" style="stroke:#FF5F46;stroke-width:3;" width="187.8633" x="10" y="124.7324"/><text fill="#FFFFFF" font-family="sans-serif" font-size="14" lengthAdjust="spacing" textLength="167.8633" x="20" y="148.2676">Create a Foreign Catalog</text><text fill="#FFFFFF" font-family="sans-serif" font-size="14" lengthAdjust="spacing" textLength="146.0908" x="20" y="164.7559">Using the Connection</text><rect fill="#0078D4" height="36.4883" rx="12.5" ry="12.5" style="stroke:#0078D4;stroke-width:3;" width="150.3613" x="247.8633" y="20"/><text fill="#FFFFFF" font-family="sans-serif" font-size="14" lengthAdjust="spacing" textLength="130.3613" x="257.8633" y="43.5352">Required privileges</text><text fill="#000000" font-family="sans-serif" font-size="14" lengthAdjust="spacing" textLength="217.458" x="451.2246" y="34.291">CREATE CATALOG on metastore</text><path d="M398.2246,38.2441 L408.2246,38.2441 C423.2246,38.2441 423.2246,29 438.2246,29 L448.2246,29" fill="none" style="stroke:#0078D4;stroke-width:3;"/><text fill="#000000" font-family="sans-serif" font-size="14" lengthAdjust="spacing" textLength="324.7754" x="451.2246" y="52.7793">Own connection OR CREATE FOREIGN CATALOG</text><path d="M398.2246,38.2441 L408.2246,38.2441 C423.2246,38.2441 423.2246,47.4883 438.2246,47.4883 L448.2246,47.4883" fill="none" style="stroke:#0078D4;stroke-width:3;"/><path d="M197.8633,151.2207 L207.8633,151.2207 C222.8633,151.2207 222.8633,38.2441 237.8633,38.2441 L247.8633,38.2441" fill="none" style="stroke:#FF5F46;stroke-width:3;"/><rect fill="#0078D4" height="36.4883" rx="12.5" ry="12.5" style="stroke:#0078D4;stroke-width:3;" width="367.6553" x="247.8633" y="76.4883"/><text fill="#FFFFFF" font-family="sans-serif" font-size="14" lengthAdjust="spacing" textLength="347.6553" x="257.8633" y="100.0234">CREATE FOREIGN CATALOG ... USING CONNECTION</text><text fill="#000000" font-family="sans-serif" font-size="14" lengthAdjust="spacing" textLength="296.8711" x="668.5186" y="100.0234">Specify external database name in OPTIONS</text><path d="M615.5186,94.7324 L625.5186,94.7324 C640.5186,94.7324 640.5186,94.7324 655.5186,94.7324 L665.5186,94.7324" fill="none" style="stroke:#0078D4;stroke-width:3;"/><path d="M197.8633,151.2207 L207.8633,151.2207 C222.8633,151.2207 222.8633,94.7324 237.8633,94.7324 L247.8633,94.7324" fill="none" style="stroke:#FF5F46;stroke-width:3;"/><rect fill="#0078D4" height="36.4883" rx="12.5" ry="12.5" style="stroke:#0078D4;stroke-width:3;" width="195.1572" x="247.8633" y="132.9766"/><text fill="#FFFFFF" font-family="sans-serif" font-size="14" lengthAdjust="spacing" textLength="175.1572" x="257.8633" y="156.5117">Metadata synchronization</text><text fill="#000000" font-family="sans-serif" font-size="14" lengthAdjust="spacing" textLength="223.2549" x="496.0205" y="147.2676">Auto-refresh on each interaction</text><path d="M443.0205,151.2207 L453.0205,151.2207 C468.0205,151.2207 468.0205,141.9766 483.0205,141.9766 L493.0205,141.9766" fill="none" style="stroke:#0078D4;stroke-width:3;"/><text fill="#000000" font-family="sans-serif" font-size="14" lengthAdjust="spacing" textLength="150.1855" x="496.0205" y="165.7559">Keeps schema current</text><path d="M443.0205,151.2207 L453.0205,151.2207 C468.0205,151.2207 468.0205,160.4648 483.0205,160.4648 L493.0205,160.4648" fill="none" style="stroke:#0078D4;stroke-width:3;"/><path d="M197.8633,151.2207 L207.8633,151.2207 C222.8633,151.2207 222.8633,151.2207 237.8633,151.2207 L247.8633,151.2207" fill="none" style="stroke:#FF5F46;stroke-width:3;"/><rect fill="#0078D4" height="36.4883" rx="12.5" ry="12.5" style="stroke:#0078D4;stroke-width:3;" width="121.4043" x="247.8633" y="189.4648"/><text fill="#FFFFFF" font-family="sans-serif" font-size="14" lengthAdjust="spacing" textLength="101.4043" x="257.8633" y="213">Manual refresh</text><text fill="#000000" font-family="sans-serif" font-size="14" lengthAdjust="spacing" textLength="323.5449" x="422.2676" y="203.7559">REFRESH FOREIGN CATALOG / SCHEMA / TABLE</text><path d="M369.2676,207.709 L379.2676,207.709 C394.2676,207.709 394.2676,198.4648 409.2676,198.4648 L419.2676,198.4648" fill="none" style="stroke:#0078D4;stroke-width:3;"/><text fill="#000000" font-family="sans-serif" font-size="14" lengthAdjust="spacing" textLength="220.6094" x="422.2676" y="222.2441">Use Lakeflow Jobs on a schedule</text><path d="M369.2676,207.709 L379.2676,207.709 C394.2676,207.709 394.2676,216.9531 409.2676,216.9531 L419.2676,216.9531" fill="none" style="stroke:#0078D4;stroke-width:3;"/><path d="M197.8633,151.2207 L207.8633,151.2207 C222.8633,151.2207 222.8633,207.709 237.8633,207.709 L247.8633,207.709" fill="none" style="stroke:#FF5F46;stroke-width:3;"/><rect fill="#0078D4" height="36.4883" rx="12.5" ry="12.5" style="stroke:#0078D4;stroke-width:3;" width="133.0801" x="247.8633" y="245.9531"/><text fill="#FFFFFF" font-family="sans-serif" font-size="14" lengthAdjust="spacing" textLength="113.0801" x="257.8633" y="269.4883">Catalog Explorer</text><text fill="#000000" font-family="sans-serif" font-size="14" lengthAdjust="spacing" textLength="256.0127" x="433.9434" y="269.4883">Create catalog &gt; Foreign catalog type</text><path d="M380.9434,264.1973 L390.9434,264.1973 C405.9434,264.1973 405.9434,264.1973 420.9434,264.1973 L430.9434,264.1973" fill="none" style="stroke:#0078D4;stroke-width:3;"/><path d="M197.8633,151.2207 L207.8633,151.2207 C222.8633,151.2207 222.8633,264.1973 237.8633,264.1973 L247.8633,264.1973" fill="none" style="stroke:#FF5F46;stroke-width:3;"/><?plantuml-src VPDjRvim4CVVyobEsfijqYZDkkv1LLNA8CsMmWJatQJ9CGTO0PlPParMxRlFF2JLwB9xPTtz_V_T-UGRfOdKDUDPJHhhIkbzXTVMnmmRNRvqNi6Z1IPk2TqMKhGyyqGb9Bm8WhV1nMLVMp6EpxE1u7hCvdqSjMd9w9QZKl36TgpV1zRvIPRZl7l_wMBAccJ_Tfrq4FJnn9gVPENvveFZJ5cJx7zPJX-6jH6xgjCydbHSdOtFFGDF8j48nEWaieA3HpIfHF6DhnNZ1UWImHES8zLCS6isWnX_j4nY1eraFrc51IgJddq7B_RTr0VFJTrLj031eKPDb3R6Wo1wu42FNX35Xoj15FlBHNYusb7-NG7Rjc6TBCC5U54O-bwwZCB1F6cGidmFkDCeEQaWCuDiY4BWf4PWXlUrKoUT-xrfhAk3sdDQIi7PBpBEPwpSLelN4dE9gkp6G49BOs1y2NrIVK5i52XQOas0jb8YrxqtuQt1Z_S7RUm7iP_SFHld31BlphztpI5rRrV-e5wRfbTaYtab7k2psAYk2TAZihR2_dc6BO6_QyngKOuR69P9n-BrSQc7ZDutQDsW-NFZlxFExRaplxJdVm00?></g></svg>