<?plantuml 1.2026.2?><svg xmlns="http://www.w3.org/2000/svg" xmlns:xlink="http://www.w3.org/1999/xlink" contentStyleType="text/css" data-diagram-type="MINDMAP" height="247px" preserveAspectRatio="none" style="width:744px;height:247px;background:#FFFFFF;" version="1.1" viewBox="0 0 744 247" width="744px" zoomAndPan="magnify"><defs/><g><rect fill="#FF5F46" height="52.9766" rx="12.5" ry="12.5" style="stroke:#FF5F46;stroke-width:3;" width="151.5508" x="10" y="96.4883"/><text fill="#FFFFFF" font-family="sans-serif" font-size="14" lengthAdjust="spacing" textLength="102.1973" x="20" y="120.0234">Grant Access &amp;</text><text fill="#FFFFFF" font-family="sans-serif" font-size="14" lengthAdjust="spacing" textLength="131.5508" x="20" y="136.5117">Query Foreign Data</text><rect fill="#0078D4" height="36.4883" rx="12.5" ry="12.5" style="stroke:#0078D4;stroke-width:3;" width="278.002" x="211.5508" y="20"/><text fill="#FFFFFF" font-family="sans-serif" font-size="14" lengthAdjust="spacing" textLength="258.002" x="221.5508" y="43.5352">Same Unity Catalog permission model</text><text fill="#000000" font-family="sans-serif" font-size="14" lengthAdjust="spacing" textLength="147.8271" x="542.5527" y="25.0469">GRANT USE CATALOG</text><path d="M489.5527,38.2441 L499.5527,38.2441 C514.5527,38.2441 514.5527,19.7559 529.5527,19.7559 L539.5527,19.7559" fill="none" style="stroke:#0078D4;stroke-width:3;"/><text fill="#000000" font-family="sans-serif" font-size="14" lengthAdjust="spacing" textLength="138.332" x="542.5527" y="43.5352">GRANT USE SCHEMA</text><path d="M489.5527,38.2441 L499.5527,38.2441 C514.5527,38.2441 514.5527,38.2441 529.5527,38.2441 L539.5527,38.2441" fill="none" style="stroke:#0078D4;stroke-width:3;"/><text fill="#000000" font-family="sans-serif" font-size="14" lengthAdjust="spacing" textLength="167.8838" x="542.5527" y="62.0234">GRANT SELECT on tables</text><path d="M489.5527,38.2441 L499.5527,38.2441 C514.5527,38.2441 514.5527,56.7324 529.5527,56.7324 L539.5527,56.7324" fill="none" style="stroke:#0078D4;stroke-width:3;"/><path d="M161.5508,122.9766 L171.5508,122.9766 C186.5508,122.9766 186.5508,38.2441 201.5508,38.2441 L211.5508,38.2441" fill="none" style="stroke:#FF5F46;stroke-width:3;"/><rect fill="#0078D4" height="36.4883" rx="12.5" ry="12.5" style="stroke:#0078D4;stroke-width:3;" width="130.9609" x="211.5508" y="76.4883"/><text fill="#FFFFFF" font-family="sans-serif" font-size="14" lengthAdjust="spacing" textLength="110.9609" x="221.5508" y="100.0234">Granular control</text><text fill="#000000" font-family="sans-serif" font-size="14" lengthAdjust="spacing" textLength="239.3125" x="395.5117" y="90.7793">Expose some tables, restrict others</text><path d="M342.5117,94.7324 L352.5117,94.7324 C367.5117,94.7324 367.5117,85.4883 382.5117,85.4883 L392.5117,85.4883" fill="none" style="stroke:#0078D4;stroke-width:3;"/><text fill="#000000" font-family="sans-serif" font-size="14" lengthAdjust="spacing" textLength="233.9326" x="395.5117" y="109.2676">Even from same external database</text><path d="M342.5117,94.7324 L352.5117,94.7324 C367.5117,94.7324 367.5117,103.9766 382.5117,103.9766 L392.5117,103.9766" fill="none" style="stroke:#0078D4;stroke-width:3;"/><path d="M161.5508,122.9766 L171.5508,122.9766 C186.5508,122.9766 186.5508,94.7324 201.5508,94.7324 L211.5508,94.7324" fill="none" style="stroke:#FF5F46;stroke-width:3;"/><rect fill="#0078D4" height="36.4883" rx="12.5" ry="12.5" style="stroke:#0078D4;stroke-width:3;" width="188.2119" x="211.5508" y="132.9766"/><text fill="#FFFFFF" font-family="sans-serif" font-size="14" lengthAdjust="spacing" textLength="168.2119" x="221.5508" y="156.5117">Query with standard SQL</text><text fill="#000000" font-family="sans-serif" font-size="14" lengthAdjust="spacing" textLength="233.4541" x="452.7627" y="147.2676">SELECT from catalog.schema.table</text><path d="M399.7627,151.2207 L409.7627,151.2207 C424.7627,151.2207 424.7627,141.9766 439.7627,141.9766 L449.7627,141.9766" fill="none" style="stroke:#0078D4;stroke-width:3;"/><text fill="#000000" font-family="sans-serif" font-size="14" lengthAdjust="spacing" textLength="279.2617" x="452.7627" y="165.7559">Azure Databricks translates for target DB</text><path d="M399.7627,151.2207 L409.7627,151.2207 C424.7627,151.2207 424.7627,160.4648 439.7627,160.4648 L449.7627,160.4648" fill="none" style="stroke:#0078D4;stroke-width:3;"/><path d="M161.5508,122.9766 L171.5508,122.9766 C186.5508,122.9766 186.5508,151.2207 201.5508,151.2207 L211.5508,151.2207" fill="none" style="stroke:#FF5F46;stroke-width:3;"/><rect fill="#0078D4" height="36.4883" rx="12.5" ry="12.5" style="stroke:#0078D4;stroke-width:3;" width="131.4531" x="211.5508" y="189.4648"/><text fill="#FFFFFF" font-family="sans-serif" font-size="14" lengthAdjust="spacing" textLength="111.4531" x="221.5508" y="213">Query execution</text><text fill="#000000" font-family="sans-serif" font-size="14" lengthAdjust="spacing" textLength="271.6328" x="396.0039" y="194.5117">Pushdown to external DB when possible</text><path d="M343.0039,207.709 L353.0039,207.709 C368.0039,207.709 368.0039,189.2207 383.0039,189.2207 L393.0039,189.2207" fill="none" style="stroke:#0078D4;stroke-width:3;"/><text fill="#000000" font-family="sans-serif" font-size="14" lengthAdjust="spacing" textLength="284.6279" x="396.0039" y="213">External DB performs aggregations/filters</text><path d="M343.0039,207.709 L353.0039,207.709 C368.0039,207.709 368.0039,207.709 383.0039,207.709 L393.0039,207.709" fill="none" style="stroke:#0078D4;stroke-width:3;"/><text fill="#000000" font-family="sans-serif" font-size="14" lengthAdjust="spacing" textLength="289.3857" x="396.0039" y="231.4883">Monitor for large result set memory issues</text><path d="M343.0039,207.709 L353.0039,207.709 C368.0039,207.709 368.0039,226.1973 383.0039,226.1973 L393.0039,226.1973" fill="none" style="stroke:#0078D4;stroke-width:3;"/><path d="M161.5508,122.9766 L171.5508,122.9766 C186.5508,122.9766 186.5508,207.709 201.5508,207.709 L211.5508,207.709" fill="none" style="stroke:#FF5F46;stroke-width:3;"/><?plantuml-src VPDTRzCm58RlyokEX8IWGbbMnlZGX9QcIRde1gFT7H9oavF4gcDNFixQCl7VT_91EuAABu-Ft_Svh-rhSiAwIkgi4XllYjnUuMVlKuORLxuANiEZ1xmc8bqNrjGwYumo5buaoRlauhBTcqkD_rOJerrVpTjrw5sMCbrh98AtVk3z_kDrVj8h2Dv_c5uClGRLlrK714cxZbxZarvvlleO14ElGVM_Na6xs6jbTghfUJpPSNNMnps2cHNQGPYcpOcNF_HTZNRFXopAGiDKEE6DHh0G5SAzbcuF4PUKAM23jf94qcYeJ8QAsqO_OVOzl5t2_IA6A5o6yw-pONaHVOblmkVLHJoFeoMmZXCh1c_y6gfQ2GifqrlJYyUxZI44CWpJzRu1Y-IiJ1qOLwAbll41DUJML40DEEuSMYqKPCo-4eIDHJVeLheI-2NgJDWC5dVpJg1dQYNIRc2VqX8huRV6NLVugxROPhHYX3M1OsnImY51pe7p0o_GmNHozCCTfhNZq3g5RpMLcTdowEP8EPt0jkG1U5YI1xFusJPdp_eLWIWAYuLe1EaibyeT8hWnV5lCq72eXgD9gbOEY8agh0p3yFNLdFSryX_i_w5txe-3yQK_VW80?></g></svg>