<?plantuml 1.2026.2?><svg xmlns="http://www.w3.org/2000/svg" xmlns:xlink="http://www.w3.org/1999/xlink" contentStyleType="text/css" data-diagram-type="MINDMAP" height="304px" preserveAspectRatio="none" style="width:699px;height:304px;background:#FFFFFF;" version="1.1" viewBox="0 0 699 304" width="699px" zoomAndPan="magnify"><defs/><g><rect fill="#FF5F46" height="52.9766" rx="12.5" ry="12.5" style="stroke:#FF5F46;stroke-width:3;" width="117.9316" x="10" y="124.7324"/><text fill="#FFFFFF" font-family="sans-serif" font-size="14" lengthAdjust="spacing" textLength="97.9316" x="20" y="148.2676">Apply Iterative</text><text fill="#FFFFFF" font-family="sans-serif" font-size="14" lengthAdjust="spacing" textLength="77.1299" x="20" y="164.7559">Refinement</text><rect fill="#0078D4" height="36.4883" rx="12.5" ry="12.5" style="stroke:#0078D4;stroke-width:3;" width="276.4297" x="177.9316" y="20"/><text fill="#FFFFFF" font-family="sans-serif" font-size="14" lengthAdjust="spacing" textLength="256.4297" x="187.9316" y="43.5352">Ongoing process, not one-time setup</text><path d="M127.9316,151.2207 L137.9316,151.2207 C152.9316,151.2207 152.9316,38.2441 167.9316,38.2441 L177.9316,38.2441" fill="none" style="stroke:#FF5F46;stroke-width:3;"/><rect fill="#0078D4" height="36.4883" rx="12.5" ry="12.5" style="stroke:#0078D4;stroke-width:3;" width="139.6426" x="177.9316" y="76.4883"/><text fill="#FFFFFF" font-family="sans-serif" font-size="14" lengthAdjust="spacing" textLength="119.6426" x="187.9316" y="100.0234">Test yourself first</text><text fill="#000000" font-family="sans-serif" font-size="14" lengthAdjust="spacing" textLength="259.6563" x="370.5742" y="90.7793">Ask expected business user questions</text><path d="M317.5742,94.7324 L327.5742,94.7324 C342.5742,94.7324 342.5742,85.4883 357.5742,85.4883 L367.5742,85.4883" fill="none" style="stroke:#0078D4;stroke-width:3;"/><text fill="#000000" font-family="sans-serif" font-size="14" lengthAdjust="spacing" textLength="211.7021" x="370.5742" y="109.2676">Review generated SQL carefully</text><path d="M317.5742,94.7324 L327.5742,94.7324 C342.5742,94.7324 342.5742,103.9766 357.5742,103.9766 L367.5742,103.9766" fill="none" style="stroke:#0078D4;stroke-width:3;"/><path d="M127.9316,151.2207 L137.9316,151.2207 C152.9316,151.2207 152.9316,94.7324 167.9316,94.7324 L177.9316,94.7324" fill="none" style="stroke:#FF5F46;stroke-width:3;"/><rect fill="#0078D4" height="36.4883" rx="12.5" ry="12.5" style="stroke:#0078D4;stroke-width:3;" width="178.0059" x="177.9316" y="132.9766"/><text fill="#FFFFFF" font-family="sans-serif" font-size="14" lengthAdjust="spacing" textLength="158.0059" x="187.9316" y="156.5117">Fix incorrect responses</text><text fill="#000000" font-family="sans-serif" font-size="14" lengthAdjust="spacing" textLength="145.1816" x="408.9375" y="147.2676">Show generated code</text><path d="M355.9375,151.2207 L365.9375,151.2207 C380.9375,151.2207 380.9375,141.9766 395.9375,141.9766 L405.9375,141.9766" fill="none" style="stroke:#0078D4;stroke-width:3;"/><text fill="#000000" font-family="sans-serif" font-size="14" lengthAdjust="spacing" textLength="216.9932" x="408.9375" y="165.7559">Edit SQL and save as instruction</text><path d="M355.9375,151.2207 L365.9375,151.2207 C380.9375,151.2207 380.9375,160.4648 395.9375,160.4648 L405.9375,160.4648" fill="none" style="stroke:#0078D4;stroke-width:3;"/><path d="M127.9316,151.2207 L137.9316,151.2207 C152.9316,151.2207 152.9316,151.2207 167.9316,151.2207 L177.9316,151.2207" fill="none" style="stroke:#FF5F46;stroke-width:3;"/><rect fill="#0078D4" height="36.4883" rx="12.5" ry="12.5" style="stroke:#0078D4;stroke-width:3;" width="165.6875" x="177.9316" y="189.4648"/><text fill="#FFFFFF" font-family="sans-serif" font-size="14" lengthAdjust="spacing" textLength="145.6875" x="187.9316" y="213">Benchmark questions</text><text fill="#000000" font-family="sans-serif" font-size="14" lengthAdjust="spacing" textLength="291.3613" x="396.6191" y="203.7559">Common questions with expected answers</text><path d="M343.6191,207.709 L353.6191,207.709 C368.6191,207.709 368.6191,198.4648 383.6191,198.4648 L393.6191,198.4648" fill="none" style="stroke:#0078D4;stroke-width:3;"/><text fill="#000000" font-family="sans-serif" font-size="14" lengthAdjust="spacing" textLength="265.6514" x="396.6191" y="222.2441">Run regularly to measure improvement</text><path d="M343.6191,207.709 L353.6191,207.709 C368.6191,207.709 368.6191,216.9531 383.6191,216.9531 L393.6191,216.9531" fill="none" style="stroke:#0078D4;stroke-width:3;"/><path d="M127.9316,151.2207 L137.9316,151.2207 C152.9316,151.2207 152.9316,207.709 167.9316,207.709 L177.9316,207.709" fill="none" style="stroke:#FF5F46;stroke-width:3;"/><rect fill="#0078D4" height="36.4883" rx="12.5" ry="12.5" style="stroke:#0078D4;stroke-width:3;" width="116.25" x="177.9316" y="245.9531"/><text fill="#FFFFFF" font-family="sans-serif" font-size="14" lengthAdjust="spacing" textLength="96.25" x="187.9316" y="269.4883">User feedback</text><text fill="#000000" font-family="sans-serif" font-size="14" lengthAdjust="spacing" textLength="185.165" x="347.1816" y="251">Rating mechanism in Genie</text><path d="M294.1816,264.1973 L304.1816,264.1973 C319.1816,264.1973 319.1816,245.709 334.1816,245.709 L344.1816,245.709" fill="none" style="stroke:#0078D4;stroke-width:3;"/><text fill="#000000" font-family="sans-serif" font-size="14" lengthAdjust="spacing" textLength="151.5938" x="347.1816" y="269.4883">Review Monitoring tab</text><path d="M294.1816,264.1973 L304.1816,264.1973 C319.1816,264.1973 319.1816,264.1973 334.1816,264.1973 L344.1816,264.1973" fill="none" style="stroke:#0078D4;stroke-width:3;"/><text fill="#000000" font-family="sans-serif" font-size="14" lengthAdjust="spacing" textLength="255.8623" x="347.1816" y="287.9766">Adjust instructions based on patterns</text><path d="M294.1816,264.1973 L304.1816,264.1973 C319.1816,264.1973 319.1816,282.6855 334.1816,282.6855 L344.1816,282.6855" fill="none" style="stroke:#0078D4;stroke-width:3;"/><path d="M127.9316,151.2207 L137.9316,151.2207 C152.9316,151.2207 152.9316,264.1973 167.9316,264.1973 L177.9316,264.1973" fill="none" style="stroke:#FF5F46;stroke-width:3;"/><?plantuml-src VLFRRjGm47tFLup42wpeaYwbN5IXNY2eKb55MzwGa9DCDcRZSV2CzwAAVsUIfjqsQ9d7yJbppXpRnomcYBDKEjCcHooR1Zyc7qfifNwUle3R1BHEJR6O1n-fFFED3_0iozva1uVzsOKb_BURUPAXM_NrWBsfRR4WP8RNqpJvSw-rlrChJT---tGmrXfrdquTESZwschDTcfLLVu-JSTQe-v_jTA-L2ltwwR3tEv47BqQufx0ITis6pWN34Ri4d_G5LQgv90acKpWakRUqXpQu0kT-HB82tZ2FR4EWL5Ysy5ka0KsFWR6feBA1kxOavzmmWl0TOk5O0bvPDkxZum1VaSbMKzyXxp2fSKLp94wAug-_dO1XGbOnQRPT2APNOEbmeUWuo0Wjqh6WNvT-yVamfTuT_2vjDBFCbG2coM2OHt34cBHoNUJJv6Asfcm69iwyyvvsdPXPQNUBcI8LnZk5uYafkQnCK4J5GyE3SU0O9scjto8z7ktV8LOvle61gfcho4xB6f3bftwWoz85fz4yzMJ5Hywf9XyoBVy5JNwH_imv8RLczfkZUYzwYx7gBzi-6d9_dIMpWwdixy0?></g></svg>