<?plantuml 1.2026.2?><svg xmlns="http://www.w3.org/2000/svg" xmlns:xlink="http://www.w3.org/1999/xlink" contentStyleType="text/css" data-diagram-type="MINDMAP" height="247px" preserveAspectRatio="none" style="width:683px;height:247px;background:#FFFFFF;" version="1.1" viewBox="0 0 683 247" width="683px" zoomAndPan="magnify"><defs/><g><rect fill="#FF5F46" height="52.9766" rx="12.5" ry="12.5" style="stroke:#FF5F46;stroke-width:3;" width="133.7363" x="10" y="96.4883"/><text fill="#FFFFFF" font-family="sans-serif" font-size="14" lengthAdjust="spacing" textLength="93.2695" x="20" y="120.0234">Configure the</text><text fill="#FFFFFF" font-family="sans-serif" font-size="14" lengthAdjust="spacing" textLength="113.7363" x="20" y="136.5117">Knowledge Store</text><rect fill="#0078D4" height="36.4883" rx="12.5" ry="12.5" style="stroke:#0078D4;stroke-width:3;" width="143.6348" x="193.7363" y="20"/><text fill="#FFFFFF" font-family="sans-serif" font-size="14" lengthAdjust="spacing" textLength="123.6348" x="203.7363" y="43.5352">Genie space setup</text><text fill="#000000" font-family="sans-serif" font-size="14" lengthAdjust="spacing" textLength="191.4746" x="390.3711" y="25.0469">Select up to 25 tables/views</text><path d="M337.3711,38.2441 L347.3711,38.2441 C362.3711,38.2441 362.3711,19.7559 377.3711,19.7559 L387.3711,19.7559" fill="none" style="stroke:#0078D4;stroke-width:3;"/><text fill="#000000" font-family="sans-serif" font-size="14" lengthAdjust="spacing" textLength="183.5859" x="390.3711" y="43.5352">Start with 5 or fewer tables</text><path d="M337.3711,38.2441 L347.3711,38.2441 C362.3711,38.2441 362.3711,38.2441 377.3711,38.2441 L387.3711,38.2441" fill="none" style="stroke:#0078D4;stroke-width:3;"/><text fill="#000000" font-family="sans-serif" font-size="14" lengthAdjust="spacing" textLength="224.8955" x="390.3711" y="62.0234">Focus on a business question set</text><path d="M337.3711,38.2441 L347.3711,38.2441 C362.3711,38.2441 362.3711,56.7324 377.3711,56.7324 L387.3711,56.7324" fill="none" style="stroke:#0078D4;stroke-width:3;"/><path d="M143.7363,122.9766 L153.7363,122.9766 C168.7363,122.9766 168.7363,38.2441 183.7363,38.2441 L193.7363,38.2441" fill="none" style="stroke:#FF5F46;stroke-width:3;"/><rect fill="#0078D4" height="36.4883" rx="12.5" ry="12.5" style="stroke:#0078D4;stroke-width:3;" width="125.0205" x="193.7363" y="76.4883"/><text fill="#FFFFFF" font-family="sans-serif" font-size="14" lengthAdjust="spacing" textLength="105.0205" x="203.7363" y="100.0234">Table metadata</text><text fill="#000000" font-family="sans-serif" font-size="14" lengthAdjust="spacing" textLength="249.0469" x="371.7568" y="90.7793">Add business-language descriptions</text><path d="M318.7568,94.7324 L328.7568,94.7324 C343.7568,94.7324 343.7568,85.4883 358.7568,85.4883 L368.7568,85.4883" fill="none" style="stroke:#0078D4;stroke-width:3;"/><text fill="#000000" font-family="sans-serif" font-size="14" lengthAdjust="spacing" textLength="242.4844" x="371.7568" y="109.2676">"contains all customer purchases..."</text><path d="M318.7568,94.7324 L328.7568,94.7324 C343.7568,94.7324 343.7568,103.9766 358.7568,103.9766 L368.7568,103.9766" fill="none" style="stroke:#0078D4;stroke-width:3;"/><path d="M143.7363,122.9766 L153.7363,122.9766 C168.7363,122.9766 168.7363,94.7324 183.7363,94.7324 L193.7363,94.7324" fill="none" style="stroke:#FF5F46;stroke-width:3;"/><rect fill="#0078D4" height="36.4883" rx="12.5" ry="12.5" style="stroke:#0078D4;stroke-width:3;" width="179.5986" x="193.7363" y="132.9766"/><text fill="#FFFFFF" font-family="sans-serif" font-size="14" lengthAdjust="spacing" textLength="159.5986" x="203.7363" y="156.5117">Column-level metadata</text><text fill="#000000" font-family="sans-serif" font-size="14" lengthAdjust="spacing" textLength="244.918" x="426.335" y="138.0234">Refine column descriptions in space</text><path d="M373.335,151.2207 L383.335,151.2207 C398.335,151.2207 398.335,132.7324 413.335,132.7324 L423.335,132.7324" fill="none" style="stroke:#0078D4;stroke-width:3;"/><text fill="#000000" font-family="sans-serif" font-size="14" lengthAdjust="spacing" textLength="223.9248" x="426.335" y="156.5117">Add synonyms for user language</text><path d="M373.335,151.2207 L383.335,151.2207 C398.335,151.2207 398.335,151.2207 413.335,151.2207 L423.335,151.2207" fill="none" style="stroke:#0078D4;stroke-width:3;"/><text fill="#000000" font-family="sans-serif" font-size="14" lengthAdjust="spacing" textLength="217.0957" x="426.335" y="175">Hide technical/internal columns</text><path d="M373.335,151.2207 L383.335,151.2207 C398.335,151.2207 398.335,169.709 413.335,169.709 L423.335,169.709" fill="none" style="stroke:#0078D4;stroke-width:3;"/><path d="M143.7363,122.9766 L153.7363,122.9766 C168.7363,122.9766 168.7363,151.2207 183.7363,151.2207 L193.7363,151.2207" fill="none" style="stroke:#FF5F46;stroke-width:3;"/><rect fill="#0078D4" height="36.4883" rx="12.5" ry="12.5" style="stroke:#0078D4;stroke-width:3;" width="50.4951" x="193.7363" y="189.4648"/><text fill="#FFFFFF" font-family="sans-serif" font-size="14" lengthAdjust="spacing" textLength="30.4951" x="203.7363" y="213">Goal</text><text fill="#000000" font-family="sans-serif" font-size="14" lengthAdjust="spacing" textLength="286.2686" x="297.2314" y="203.7559">Transform metadata into knowledge store</text><path d="M244.2314,207.709 L254.2314,207.709 C269.2314,207.709 269.2314,198.4648 284.2314,198.4648 L294.2314,198.4648" fill="none" style="stroke:#0078D4;stroke-width:3;"/><text fill="#000000" font-family="sans-serif" font-size="14" lengthAdjust="spacing" textLength="205.0098" x="297.2314" y="222.2441">Help AI generate accurate SQL</text><path d="M244.2314,207.709 L254.2314,207.709 C269.2314,207.709 269.2314,216.9531 284.2314,216.9531 L294.2314,216.9531" fill="none" style="stroke:#0078D4;stroke-width:3;"/><path d="M143.7363,122.9766 L153.7363,122.9766 C168.7363,122.9766 168.7363,207.709 183.7363,207.709 L193.7363,207.709" fill="none" style="stroke:#FF5F46;stroke-width:3;"/><?plantuml-src VPFRRjD048Rl_HIZSWEHwhYXAGTLgAN8KD4RI2wHq6GzjbTPpvezD4GLxyxuq5Gr2dDXMV_-EzySj5S-e0kDvgB1DhdqOM_eG_A-e3RKBxDNy920n4TKsyhPoCMDDTR1YpnVvkSN_TcTPlfNpIs7KItxE7ZNjLPR9k_XTPebVnvPPqTPMVRcxQVpAMkYFiywgI3luucrECegoysxB9ko9kf_MLaVmjhOtwRpF1nrNCx7SS_WndAfg-W8Gaq_-2lRdQ6Y8bW5woYPpU0piIRmBIhvKeYjYBEVi293Aa1i8LXOB27WHgZpUqqxFpgw1SDEXngM8FoITkH6t-38hOeUB0F29dhTT_OhaWzQD65r-7NdXuO25XXmk7TT58SBfmQvYYWL5-ILqsrtUSn_egHvrEm1ZG5X1Tj82MrqgaPFFatJauuXyuaDdngw9pD1VQTICA1wnpC4Q1wcybIJtxFbVUEXb7QZ5zHZSOFdYovapgHgrWhDN7CWnsZ6xBwVjaKpcDSEsKkYvb2H46NMsyEA_BYYBZEP5gvleI8cXu40bOhzp-hRNN95yih6bvQSfOjiSP4k_W80?></g></svg>