<?plantuml 1.2026.2?><svg xmlns="http://www.w3.org/2000/svg" xmlns:xlink="http://www.w3.org/1999/xlink" contentStyleType="text/css" data-diagram-type="MINDMAP" height="226px" preserveAspectRatio="none" style="width:714px;height:226px;background:#FFFFFF;" version="1.1" viewBox="0 0 714 226" width="714px" zoomAndPan="magnify"><defs/><g><rect fill="#FF5F46" height="52.9766" rx="12.5" ry="12.5" style="stroke:#FF5F46;stroke-width:3;" width="154.1758" x="10" y="85.9648"/><text fill="#FFFFFF" font-family="sans-serif" font-size="14" lengthAdjust="spacing" textLength="126.4375" x="20" y="109.5">Data Relationships</text><text fill="#FFFFFF" font-family="sans-serif" font-size="14" lengthAdjust="spacing" textLength="134.1758" x="20" y="125.9883">and Value Sampling</text><rect fill="#0078D4" height="36.4883" rx="12.5" ry="12.5" style="stroke:#0078D4;stroke-width:3;" width="149.3701" x="214.1758" y="20"/><text fill="#FFFFFF" font-family="sans-serif" font-size="14" lengthAdjust="spacing" textLength="129.3701" x="224.1758" y="43.5352">Table relationships</text><text fill="#000000" font-family="sans-serif" font-size="14" lengthAdjust="spacing" textLength="250.7627" x="416.5459" y="25.0469">Unity Catalog foreign keys used auto</text><path d="M363.5459,38.2441 L373.5459,38.2441 C388.5459,38.2441 388.5459,19.7559 403.5459,19.7559 L413.5459,19.7559" fill="none" style="stroke:#0078D4;stroke-width:3;"/><text fill="#000000" font-family="sans-serif" font-size="14" lengthAdjust="spacing" textLength="286.0088" x="416.5459" y="43.5352">Define joins in knowledge store if missing</text><path d="M363.5459,38.2441 L373.5459,38.2441 C388.5459,38.2441 388.5459,38.2441 403.5459,38.2441 L413.5459,38.2441" fill="none" style="stroke:#0078D4;stroke-width:3;"/><text fill="#000000" font-family="sans-serif" font-size="14" lengthAdjust="spacing" textLength="273.0342" x="416.5459" y="62.0234">Specify Many-to-one, one-to-many etc.</text><path d="M363.5459,38.2441 L373.5459,38.2441 C388.5459,38.2441 388.5459,56.7324 403.5459,56.7324 L413.5459,56.7324" fill="none" style="stroke:#0078D4;stroke-width:3;"/><path d="M164.1758,112.4531 L174.1758,112.4531 C189.1758,112.4531 189.1758,38.2441 204.1758,38.2441 L214.1758,38.2441" fill="none" style="stroke:#FF5F46;stroke-width:3;"/><rect fill="#0078D4" height="36.4883" rx="12.5" ry="12.5" style="stroke:#0078D4;stroke-width:3;" width="124.1113" x="214.1758" y="76.4883"/><text fill="#FFFFFF" font-family="sans-serif" font-size="14" lengthAdjust="spacing" textLength="104.1113" x="224.1758" y="100.0234">Value sampling</text><text fill="#000000" font-family="sans-serif" font-size="14" lengthAdjust="spacing" textLength="261.8848" x="391.2871" y="81.5352">Collects example values from columns</text><path d="M338.2871,94.7324 L348.2871,94.7324 C363.2871,94.7324 363.2871,76.2441 378.2871,76.2441 L388.2871,76.2441" fill="none" style="stroke:#0078D4;stroke-width:3;"/><text fill="#000000" font-family="sans-serif" font-size="14" lengthAdjust="spacing" textLength="280.4512" x="391.2871" y="100.0234">Matches user prompts to real data values</text><path d="M338.2871,94.7324 L348.2871,94.7324 C363.2871,94.7324 363.2871,94.7324 378.2871,94.7324 L388.2871,94.7324" fill="none" style="stroke:#0078D4;stroke-width:3;"/><text fill="#000000" font-family="sans-serif" font-size="14" lengthAdjust="spacing" textLength="202.959" x="391.2871" y="118.5117">"California" &#8594; state code "CA"</text><path d="M338.2871,94.7324 L348.2871,94.7324 C363.2871,94.7324 363.2871,113.2207 378.2871,113.2207 L388.2871,113.2207" fill="none" style="stroke:#0078D4;stroke-width:3;"/><path d="M164.1758,112.4531 L174.1758,112.4531 C189.1758,112.4531 189.1758,94.7324 204.1758,94.7324 L214.1758,94.7324" fill="none" style="stroke:#FF5F46;stroke-width:3;"/><rect fill="#0078D4" height="36.4883" rx="12.5" ry="12.5" style="stroke:#0078D4;stroke-width:3;" width="140.8936" x="214.1758" y="150.4414"/><text fill="#FFFFFF" font-family="sans-serif" font-size="14" lengthAdjust="spacing" textLength="120.8936" x="224.1758" y="173.9766">Value dictionaries</text><text fill="#000000" font-family="sans-serif" font-size="14" lengthAdjust="spacing" textLength="162.0869" x="408.0693" y="137">For categorical columns</text><path d="M355.0693,168.6855 L365.0693,168.6855 C380.0693,168.6855 380.0693,131.709 395.0693,131.709 L405.0693,131.709" fill="none" style="stroke:#0078D4;stroke-width:3;"/><text fill="#000000" font-family="sans-serif" font-size="14" lengthAdjust="spacing" textLength="223.9453" x="408.0693" y="155.4883">Status codes, categories, regions</text><path d="M355.0693,168.6855 L365.0693,168.6855 C380.0693,168.6855 380.0693,150.1973 395.0693,150.1973 L405.0693,150.1973" fill="none" style="stroke:#0078D4;stroke-width:3;"/><text fill="#000000" font-family="sans-serif" font-size="14" lengthAdjust="spacing" textLength="209.5898" x="408.0693" y="173.9766">Up to 1,024 values per column</text><path d="M355.0693,168.6855 L365.0693,168.6855 C380.0693,168.6855 380.0693,168.6855 395.0693,168.6855 L405.0693,168.6855" fill="none" style="stroke:#0078D4;stroke-width:3;"/><text fill="#000000" font-family="sans-serif" font-size="14" lengthAdjust="spacing" textLength="189.8408" x="408.0693" y="192.4648">Up to 120 columns in space</text><path d="M355.0693,168.6855 L365.0693,168.6855 C380.0693,168.6855 380.0693,187.1738 395.0693,187.1738 L405.0693,187.1738" fill="none" style="stroke:#0078D4;stroke-width:3;"/><text fill="#000000" font-family="sans-serif" font-size="14" lengthAdjust="spacing" textLength="164.7666" x="408.0693" y="210.9531">Refresh as data changes</text><path d="M355.0693,168.6855 L365.0693,168.6855 C380.0693,168.6855 380.0693,205.6621 395.0693,205.6621 L405.0693,205.6621" fill="none" style="stroke:#0078D4;stroke-width:3;"/><path d="M164.1758,112.4531 L174.1758,112.4531 C189.1758,112.4531 189.1758,168.6855 204.1758,168.6855 L214.1758,168.6855" fill="none" style="stroke:#FF5F46;stroke-width:3;"/><?plantuml-src VLDDRzD04BtxLup21Q8qE2Oj7wfG8P5FzDAqd93GP3ssbwnthTqrrAfwvGVm4_abpDfEGup27gpLcpVllHbhhvn7wokfimhhwDBvLj7xw5r6jI-Vno_W8G8-7r7i2ciQdQsCCXQUfUbvkhpeQf-afd_Hr6W_e7btdhYtfHGxJSx1gtaSFUwz5YUzulZrc_Lox3L2ZrL72TBk7BoIarvvldqRnsEl4VfVhxWxxBKrzofm7auoBbyEwvx26Zt23IdqqcXNojfzqQWp-8og8TXWLIkfYsWwXLlSAWBxDvNXwLUuqzAti68XPGh8ZILPQDXHww1nb04stlJCDUKy1NmpKZkGpD7cXwAi872Usq3cK4ddUaFcRseICc_X6dLxvisPqJG3_eHxnHYG5_EGhK_h3ccvcOTM9Bm3kWyumVT0Sf1RKu4mggdqCC0rUb5IbzP2pUMQkxpXML515XRKj_RioGgLv2crn0dy_lcBiwCdLio8QnycXpoP565LQEM-D-NV89XT62i5Yn_5sB1EupeXDtkYXRkb8gnyM7STiYrcSRBSZrHpxbxgY9B4UuEmR5UZeBv-GxabLmAwVZnHeYuuunNnQnnUPBIO9t5oCK_-0000?></g></svg>