<?plantuml 1.2026.2?><svg xmlns="http://www.w3.org/2000/svg" xmlns:xlink="http://www.w3.org/1999/xlink" contentStyleType="text/css" data-diagram-type="MINDMAP" height="264px" preserveAspectRatio="none" style="width:698px;height:264px;background:#FFFFFF;" version="1.1" viewBox="0 0 698 264" width="698px" zoomAndPan="magnify"><defs/><g><rect fill="#FF5F46" height="52.9766" rx="12.5" ry="12.5" style="stroke:#FF5F46;stroke-width:3;" width="130.7012" x="10" y="104.9648"/><text fill="#FFFFFF" font-family="sans-serif" font-size="14" lengthAdjust="spacing" textLength="110.7012" x="20" y="128.5">SQL Instructions</text><text fill="#FFFFFF" font-family="sans-serif" font-size="14" lengthAdjust="spacing" textLength="94.4316" x="20" y="144.9883">and Examples</text><rect fill="#0078D4" height="36.4883" rx="12.5" ry="12.5" style="stroke:#0078D4;stroke-width:3;" width="131.7813" x="190.7012" y="20"/><text fill="#FFFFFF" font-family="sans-serif" font-size="14" lengthAdjust="spacing" textLength="111.7813" x="200.7012" y="43.5352">SQL expressions</text><text fill="#000000" font-family="sans-serif" font-size="14" lengthAdjust="spacing" textLength="235.0605" x="375.4824" y="25.0469">Define reusable business concepts</text><path d="M322.4824,38.2441 L332.4824,38.2441 C347.4824,38.2441 347.4824,19.7559 362.4824,19.7559 L372.4824,19.7559" fill="none" style="stroke:#0078D4;stroke-width:3;"/><text fill="#000000" font-family="sans-serif" font-size="14" lengthAdjust="spacing" textLength="240.2832" x="375.4824" y="43.5352">Measures: gross margin calculation</text><path d="M322.4824,38.2441 L332.4824,38.2441 C347.4824,38.2441 347.4824,38.2441 362.4824,38.2441 L372.4824,38.2441" fill="none" style="stroke:#0078D4;stroke-width:3;"/><text fill="#000000" font-family="sans-serif" font-size="14" lengthAdjust="spacing" textLength="248.9785" x="375.4824" y="62.0234">Dimensions: fiscal quarter from date</text><path d="M322.4824,38.2441 L332.4824,38.2441 C347.4824,38.2441 347.4824,56.7324 362.4824,56.7324 L372.4824,56.7324" fill="none" style="stroke:#0078D4;stroke-width:3;"/><path d="M140.7012,131.4531 L150.7012,131.4531 C165.7012,131.4531 165.7012,38.2441 180.7012,38.2441 L190.7012,38.2441" fill="none" style="stroke:#FF5F46;stroke-width:3;"/><rect fill="#0078D4" height="36.4883" rx="12.5" ry="12.5" style="stroke:#0078D4;stroke-width:3;" width="162.3857" x="190.7012" y="84.709"/><text fill="#FFFFFF" font-family="sans-serif" font-size="14" lengthAdjust="spacing" textLength="142.3857" x="200.7012" y="108.2441">Example SQL queries</text><text fill="#000000" font-family="sans-serif" font-size="14" lengthAdjust="spacing" textLength="197.1279" x="406.0869" y="80.5117">Question + SQL answer pairs</text><path d="M353.0869,102.9531 L363.0869,102.9531 C378.0869,102.9531 378.0869,75.2207 393.0869,75.2207 L403.0869,75.2207" fill="none" style="stroke:#0078D4;stroke-width:3;"/><text fill="#000000" font-family="sans-serif" font-size="14" lengthAdjust="spacing" textLength="233.8848" x="406.0869" y="99">Address domain-specific phrasing</text><path d="M353.0869,102.9531 L363.0869,102.9531 C378.0869,102.9531 378.0869,93.709 393.0869,93.709 L403.0869,93.709" fill="none" style="stroke:#0078D4;stroke-width:3;"/><text fill="#000000" font-family="sans-serif" font-size="14" lengthAdjust="spacing" textLength="280.7998" x="406.0869" y="117.4883">Parameters with :parameter_name syntax</text><path d="M353.0869,102.9531 L363.0869,102.9531 C378.0869,102.9531 378.0869,112.1973 393.0869,112.1973 L403.0869,112.1973" fill="none" style="stroke:#0078D4;stroke-width:3;"/><text fill="#000000" font-family="sans-serif" font-size="14" lengthAdjust="spacing" textLength="199.5615" x="406.0869" y="135.9766">Marked as Trusted responses</text><path d="M353.0869,102.9531 L363.0869,102.9531 C378.0869,102.9531 378.0869,130.6855 393.0869,130.6855 L403.0869,130.6855" fill="none" style="stroke:#0078D4;stroke-width:3;"/><path d="M140.7012,131.4531 L150.7012,131.4531 C165.7012,131.4531 165.7012,102.9531 180.7012,102.9531 L190.7012,102.9531" fill="none" style="stroke:#FF5F46;stroke-width:3;"/><rect fill="#0078D4" height="36.4883" rx="12.5" ry="12.5" style="stroke:#0078D4;stroke-width:3;" width="199.3682" x="190.7012" y="149.9297"/><text fill="#FFFFFF" font-family="sans-serif" font-size="14" lengthAdjust="spacing" textLength="179.3682" x="200.7012" y="173.4648">Text instructions (general)</text><text fill="#000000" font-family="sans-serif" font-size="14" lengthAdjust="spacing" textLength="237.8633" x="443.0693" y="154.9766">Global context across all questions</text><path d="M390.0693,168.1738 L400.0693,168.1738 C415.0693,168.1738 415.0693,149.6855 430.0693,149.6855 L440.0693,149.6855" fill="none" style="stroke:#0078D4;stroke-width:3;"/><text fill="#000000" font-family="sans-serif" font-size="14" lengthAdjust="spacing" textLength="216.0977" x="443.0693" y="173.4648">Fiscal year start, timezone rules</text><path d="M390.0693,168.1738 L400.0693,168.1738 C415.0693,168.1738 415.0693,168.1738 430.0693,168.1738 L440.0693,168.1738" fill="none" style="stroke:#0078D4;stroke-width:3;"/><text fill="#000000" font-family="sans-serif" font-size="14" lengthAdjust="spacing" textLength="91.3008" x="443.0693" y="191.9531">Use sparingly</text><path d="M390.0693,168.1738 L400.0693,168.1738 C415.0693,168.1738 415.0693,186.6621 430.0693,186.6621 L440.0693,186.6621" fill="none" style="stroke:#0078D4;stroke-width:3;"/><path d="M140.7012,131.4531 L150.7012,131.4531 C165.7012,131.4531 165.7012,168.1738 180.7012,168.1738 L190.7012,168.1738" fill="none" style="stroke:#FF5F46;stroke-width:3;"/><rect fill="#0078D4" height="36.4883" rx="12.5" ry="12.5" style="stroke:#0078D4;stroke-width:3;" width="209.3965" x="190.7012" y="206.418"/><text fill="#FFFFFF" font-family="sans-serif" font-size="14" lengthAdjust="spacing" textLength="189.3965" x="200.7012" y="229.9531">Limit: 100 instructions total</text><path d="M140.7012,131.4531 L150.7012,131.4531 C165.7012,131.4531 165.7012,224.6621 180.7012,224.6621 L190.7012,224.6621" fill="none" style="stroke:#FF5F46;stroke-width:3;"/><?plantuml-src VLFRRjD047ttLup4IniWEA4Ki2fKe1WX1OcAy8PKZTVZP9NrhhiNrQ7YtnclDq2DmhpOcZaxvsBlfVDeVIjrtMANNJY_L_GcAshg_FOaFuNx3BZUeTXjh0cwVc-KiV2eB5-KP-TnjfAQ_ksMHllKRMBzngwtKkmqEGVFvtdsyy2rECgLvozVNPrDkIRTXrid2ifOVxYMHxcQfdgTvrEkIVU_N7aivgfChmRC_L74nRCKzmo-Ng_WatRU1k6bqUwxHbt3XnxRZfTain51VMTvvG3Wrkm6hgXXFM0fEAmKGHMSZCA4qOAj9jXdGXVuP05ibgSjsetK8529e70WJEjaIpgkBw2HZkTm6_Zt80kDDItKw6dGadH5JRU1hAH4T1t83UlWSPoXTdTyjaDf4-1jNGyEe3OjIltKTIHa8mLqMuiiVJEYlg35bfZMmPtqMoYwG-D6ynFSNdliapUqEwe17QnjS9vVcQ1Z2sDiQ-ezoB-IXPCDQRAeJiVp7vMfs2S7vWSeYfWGgi7wQ2P9ByT0zeGMugLv0fxp-c663n3K8O9lZlMnNZQZzeE2bMobBs2HvmzrUEDHPPV4Do_TlcmnN-RBy_do5m00?></g></svg>