<?plantuml 1.2026.2?><svg xmlns="http://www.w3.org/2000/svg" xmlns:xlink="http://www.w3.org/1999/xlink" contentStyleType="text/css" data-diagram-type="MINDMAP" height="321px" preserveAspectRatio="none" style="width:649px;height:321px;background:#FFFFFF;" version="1.1" viewBox="0 0 649 321" width="649px" zoomAndPan="magnify"><defs/><g><rect fill="#FF5F46" height="52.9766" rx="12.5" ry="12.5" style="stroke:#FF5F46;stroke-width:3;" width="82.9932" x="10" y="133.4648"/><text fill="#FFFFFF" font-family="sans-serif" font-size="14" lengthAdjust="spacing" textLength="41.8018" x="20" y="157">Range</text><text fill="#FFFFFF" font-family="sans-serif" font-size="14" lengthAdjust="spacing" textLength="62.9932" x="20" y="173.4883">Checking</text><rect fill="#0078D4" height="36.4883" rx="12.5" ry="12.5" style="stroke:#0078D4;stroke-width:3;" width="74.5029" x="142.9932" y="28.7324"/><text fill="#FFFFFF" font-family="sans-serif" font-size="14" lengthAdjust="spacing" textLength="54.5029" x="152.9932" y="52.2676">Purpose</text><text fill="#000000" font-family="sans-serif" font-size="14" lengthAdjust="spacing" textLength="201.0313" x="270.4961" y="24.5352">Catches out-of-bound values</text><path d="M217.4961,46.9766 L227.4961,46.9766 C242.4961,46.9766 242.4961,19.2441 257.4961,19.2441 L267.4961,19.2441" fill="none" style="stroke:#0078D4;stroke-width:3;"/><text fill="#000000" font-family="sans-serif" font-size="14" lengthAdjust="spacing" textLength="115.5342" x="270.4961" y="43.0234">Data entry errors</text><path d="M217.4961,46.9766 L227.4961,46.9766 C242.4961,46.9766 242.4961,37.7324 257.4961,37.7324 L267.4961,37.7324" fill="none" style="stroke:#0078D4;stroke-width:3;"/><text fill="#000000" font-family="sans-serif" font-size="14" lengthAdjust="spacing" textLength="105.3828" x="270.4961" y="61.5117">System glitches</text><path d="M217.4961,46.9766 L227.4961,46.9766 C242.4961,46.9766 242.4961,56.2207 257.4961,56.2207 L267.4961,56.2207" fill="none" style="stroke:#0078D4;stroke-width:3;"/><text fill="#000000" font-family="sans-serif" font-size="14" lengthAdjust="spacing" textLength="120.8936" x="270.4961" y="80">Integration issues</text><path d="M217.4961,46.9766 L227.4961,46.9766 C242.4961,46.9766 242.4961,74.709 257.4961,74.709 L267.4961,74.709" fill="none" style="stroke:#0078D4;stroke-width:3;"/><path d="M92.9932,159.9531 L102.9932,159.9531 C117.9932,159.9531 117.9932,46.9766 132.9932,46.9766 L142.9932,46.9766" fill="none" style="stroke:#FF5F46;stroke-width:3;"/><rect fill="#0078D4" height="36.4883" rx="12.5" ry="12.5" style="stroke:#0078D4;stroke-width:3;" width="87.6484" x="142.9932" y="93.9531"/><text fill="#FFFFFF" font-family="sans-serif" font-size="14" lengthAdjust="spacing" textLength="67.6484" x="152.9932" y="117.4883">Operators</text><text fill="#000000" font-family="sans-serif" font-size="14" lengthAdjust="spacing" textLength="108.9922" x="283.6416" y="99">BETWEEN clause</text><path d="M230.6416,112.1973 L240.6416,112.1973 C255.6416,112.1973 255.6416,93.709 270.6416,93.709 L280.6416,93.709" fill="none" style="stroke:#0078D4;stroke-width:3;"/><text fill="#000000" font-family="sans-serif" font-size="14" lengthAdjust="spacing" textLength="218.8115" x="283.6416" y="117.4883">Comparison operators (&gt;=, &lt;=)</text><path d="M230.6416,112.1973 L240.6416,112.1973 C255.6416,112.1973 255.6416,112.1973 270.6416,112.1973 L280.6416,112.1973" fill="none" style="stroke:#0078D4;stroke-width:3;"/><text fill="#000000" font-family="sans-serif" font-size="14" lengthAdjust="spacing" textLength="194.6533" x="283.6416" y="135.9766">current_date() for date limits</text><path d="M230.6416,112.1973 L240.6416,112.1973 C255.6416,112.1973 255.6416,130.6855 270.6416,130.6855 L280.6416,130.6855" fill="none" style="stroke:#0078D4;stroke-width:3;"/><path d="M92.9932,159.9531 L102.9932,159.9531 C117.9932,159.9531 117.9932,112.1973 132.9932,112.1973 L142.9932,112.1973" fill="none" style="stroke:#FF5F46;stroke-width:3;"/><rect fill="#0078D4" height="36.4883" rx="12.5" ry="12.5" style="stroke:#0078D4;stroke-width:3;" width="164.04" x="142.9932" y="150.4414"/><text fill="#FFFFFF" font-family="sans-serif" font-size="14" lengthAdjust="spacing" textLength="144.04" x="152.9932" y="173.9766">Pipeline Expectations</text><text fill="#000000" font-family="sans-serif" font-size="14" lengthAdjust="spacing" textLength="183.9004" x="360.0332" y="155.4883">Python: @dp.expect_or_fail</text><path d="M307.0332,168.6855 L317.0332,168.6855 C332.0332,168.6855 332.0332,150.1973 347.0332,150.1973 L357.0332,150.1973" fill="none" style="stroke:#0078D4;stroke-width:3;"/><text fill="#000000" font-family="sans-serif" font-size="14" lengthAdjust="spacing" textLength="205.7549" x="360.0332" y="173.9766">SQL: CONSTRAINT + BETWEEN</text><path d="M307.0332,168.6855 L317.0332,168.6855 C332.0332,168.6855 332.0332,168.6855 347.0332,168.6855 L357.0332,168.6855" fill="none" style="stroke:#0078D4;stroke-width:3;"/><text fill="#000000" font-family="sans-serif" font-size="14" lengthAdjust="spacing" textLength="209.8223" x="360.0332" y="192.4648">Numeric, date &amp; complex rules</text><path d="M307.0332,168.6855 L317.0332,168.6855 C332.0332,168.6855 332.0332,187.1738 347.0332,187.1738 L357.0332,187.1738" fill="none" style="stroke:#0078D4;stroke-width:3;"/><path d="M92.9932,159.9531 L102.9932,159.9531 C117.9932,159.9531 117.9932,168.6855 132.9932,168.6855 L142.9932,168.6855" fill="none" style="stroke:#FF5F46;stroke-width:3;"/><rect fill="#0078D4" height="36.4883" rx="12.5" ry="12.5" style="stroke:#0078D4;stroke-width:3;" width="224.0732" x="142.9932" y="206.9297"/><text fill="#FFFFFF" font-family="sans-serif" font-size="14" lengthAdjust="spacing" textLength="204.0732" x="152.9932" y="230.4648">Delta Lake CHECK Constraints</text><text fill="#000000" font-family="sans-serif" font-size="14" lengthAdjust="spacing" textLength="216.9932" x="420.0664" y="211.9766">ALTER TABLE ADD CONSTRAINT</text><path d="M367.0664,225.1738 L377.0664,225.1738 C392.0664,225.1738 392.0664,206.6855 407.0664,206.6855 L417.0664,206.6855" fill="none" style="stroke:#0078D4;stroke-width:3;"/><text fill="#000000" font-family="sans-serif" font-size="14" lengthAdjust="spacing" textLength="149.543" x="420.0664" y="230.4648">Enforced at write time</text><path d="M367.0664,225.1738 L377.0664,225.1738 C392.0664,225.1738 392.0664,225.1738 407.0664,225.1738 L417.0664,225.1738" fill="none" style="stroke:#0078D4;stroke-width:3;"/><text fill="#000000" font-family="sans-serif" font-size="14" lengthAdjust="spacing" textLength="144.9697" x="420.0664" y="248.9531">Combined conditions</text><path d="M367.0664,225.1738 L377.0664,225.1738 C392.0664,225.1738 392.0664,243.6621 407.0664,243.6621 L417.0664,243.6621" fill="none" style="stroke:#0078D4;stroke-width:3;"/><path d="M92.9932,159.9531 L102.9932,159.9531 C117.9932,159.9531 117.9932,225.1738 132.9932,225.1738 L142.9932,225.1738" fill="none" style="stroke:#FF5F46;stroke-width:3;"/><rect fill="#0078D4" height="36.4883" rx="12.5" ry="12.5" style="stroke:#0078D4;stroke-width:3;" width="119.6406" x="142.9932" y="263.418"/><text fill="#FFFFFF" font-family="sans-serif" font-size="14" lengthAdjust="spacing" textLength="99.6406" x="152.9932" y="286.9531">Business Rules</text><text fill="#000000" font-family="sans-serif" font-size="14" lengthAdjust="spacing" textLength="185.8965" x="315.6338" y="268.4648">Multi-condition constraints</text><path d="M262.6338,281.6621 L272.6338,281.6621 C287.6338,281.6621 287.6338,263.1738 302.6338,263.1738 L312.6338,263.1738" fill="none" style="stroke:#0078D4;stroke-width:3;"/><text fill="#000000" font-family="sans-serif" font-size="14" lengthAdjust="spacing" textLength="143.6777" x="315.6338" y="286.9531">Tiered discount rules</text><path d="M262.6338,281.6621 L272.6338,281.6621 C287.6338,281.6621 287.6338,281.6621 302.6338,281.6621 L312.6338,281.6621" fill="none" style="stroke:#0078D4;stroke-width:3;"/><text fill="#000000" font-family="sans-serif" font-size="14" lengthAdjust="spacing" textLength="167.2686" x="315.6338" y="305.4414">Cross-column validation</text><path d="M262.6338,281.6621 L272.6338,281.6621 C287.6338,281.6621 287.6338,300.1504 302.6338,300.1504 L312.6338,300.1504" fill="none" style="stroke:#0078D4;stroke-width:3;"/><path d="M92.9932,159.9531 L102.9932,159.9531 C117.9932,159.9531 117.9932,281.6621 132.9932,281.6621 L142.9932,281.6621" fill="none" style="stroke:#FF5F46;stroke-width:3;"/><?plantuml-src VLFlRzem4FsUl-AaIHFGmbBMTHkY5H22LerHHYFjooHaaWjOE7PadpTGrVzzpW_eoiJka_NkdTzx5sTWY6dAk4mobdjzGtk1TrulmPms3Ry9Jnwu6h5ukzRAoYHGGcbuCvbyc5pVbBqfb_WlEb6IQZGjwyYDDZpUIZG6tdTyx_cWTNLMo_S_VXfVdsgTeAzlFN4mAUj5gtjMAqrNdtt_LEi4_Q-MNvRJMgcTA3XFPndzT_MwMx1WSeq_PR31UClbsckrO6vrhWowOsi90QDuWmQKfRPAswl2ClnYmgAf26D6352ItWDghNGDF-uDOGPhmSlv2hoNX6lDY2i9t9Zg3dZ8qM77oL4O_GZ36SI2sQCBbULCS-Fcr84DZRlRI-ZVDYjARBLsDfO98smq8NM1YoC8dd4gTUOyH-6s2E4knvXA6xNcV4yR9NimIF8EbjsbqikKSL6d-JxjGV0mUumMm_jP11S7brLxPZFKFBwi5Dz2xEmAt86seeeuHk6sD6LRXE1B67nrWQGXpRYasi5m6eKBY8QZQGZ3yVWliQeVIfSenWGOmM_DdGpnx6KxAvShSReouOTOCBA6buzbKTjmr6zM46yVUSN4QnyHH-rkIhY9tQUcOuH2HYjZtAomcIoU04_A5Ne3TFzm_HzxLvsktxtfTFy0?></g></svg>