<?plantuml 1.2026.2?><svg xmlns="http://www.w3.org/2000/svg" xmlns:xlink="http://www.w3.org/1999/xlink" contentStyleType="text/css" data-diagram-type="MINDMAP" height="247px" preserveAspectRatio="none" style="width:703px;height:247px;background:#FFFFFF;" version="1.1" viewBox="0 0 703 247" width="703px" zoomAndPan="magnify"><defs/><g><rect fill="#FF5F46" height="52.9766" rx="12.5" ry="12.5" style="stroke:#FF5F46;stroke-width:3;" width="88.3594" x="10" y="96.4883"/><text fill="#FFFFFF" font-family="sans-serif" font-size="14" lengthAdjust="spacing" textLength="68.3594" x="20" y="120.0234">Nullability</text><text fill="#FFFFFF" font-family="sans-serif" font-size="14" lengthAdjust="spacing" textLength="48.665" x="20" y="136.5117">Checks</text><rect fill="#0078D4" height="36.4883" rx="12.5" ry="12.5" style="stroke:#0078D4;stroke-width:3;" width="164.04" x="148.3594" y="48.2441"/><text fill="#FFFFFF" font-family="sans-serif" font-size="14" lengthAdjust="spacing" textLength="144.04" x="158.3594" y="71.7793">Pipeline Expectations</text><rect fill="#FFB900" height="36.4883" rx="12.5" ry="12.5" style="stroke:#FFB900;stroke-width:3;" width="66.2656" x="362.3994" y="20"/><text fill="#000000" font-family="sans-serif" font-size="14" lengthAdjust="spacing" textLength="46.2656" x="372.3994" y="43.5352">Python</text><text fill="#000000" font-family="sans-serif" font-size="14" lengthAdjust="spacing" textLength="209.5898" x="481.665" y="25.0469">@dp.expect_or_drop decorator</text><path d="M428.665,38.2441 L438.665,38.2441 C453.665,38.2441 453.665,19.7559 468.665,19.7559 L478.665,19.7559" fill="none" style="stroke:#FFB900;stroke-width:3;"/><text fill="#000000" font-family="sans-serif" font-size="14" lengthAdjust="spacing" textLength="162.5928" x="481.665" y="43.5352">SQL Boolean expression</text><path d="M428.665,38.2441 L438.665,38.2441 C453.665,38.2441 453.665,38.2441 468.665,38.2441 L478.665,38.2441" fill="none" style="stroke:#FFB900;stroke-width:3;"/><text fill="#000000" font-family="sans-serif" font-size="14" lengthAdjust="spacing" textLength="150.2471" x="481.665" y="62.0234">Per-column validation</text><path d="M428.665,38.2441 L438.665,38.2441 C453.665,38.2441 453.665,56.7324 468.665,56.7324 L478.665,56.7324" fill="none" style="stroke:#FFB900;stroke-width:3;"/><path d="M312.3994,66.4883 L322.3994,66.4883 C337.3994,66.4883 337.3994,38.2441 352.3994,38.2441 L362.3994,38.2441" fill="none" style="stroke:#0078D4;stroke-width:3;"/><rect fill="#FFB900" height="36.4883" rx="12.5" ry="12.5" style="stroke:#FFB900;stroke-width:3;" width="45.8809" x="362.3994" y="76.4883"/><text fill="#000000" font-family="sans-serif" font-size="14" lengthAdjust="spacing" textLength="25.8809" x="372.3994" y="100.0234">SQL</text><text fill="#000000" font-family="sans-serif" font-size="14" lengthAdjust="spacing" textLength="136.042" x="461.2803" y="81.5352">CONSTRAINT clause</text><path d="M408.2803,94.7324 L418.2803,94.7324 C433.2803,94.7324 433.2803,76.2441 448.2803,76.2441 L458.2803,76.2441" fill="none" style="stroke:#FFB900;stroke-width:3;"/><text fill="#000000" font-family="sans-serif" font-size="14" lengthAdjust="spacing" textLength="179.457" x="461.2803" y="100.0234">ON VIOLATION DROP ROW</text><path d="M408.2803,94.7324 L418.2803,94.7324 C433.2803,94.7324 433.2803,94.7324 448.2803,94.7324 L458.2803,94.7324" fill="none" style="stroke:#FFB900;stroke-width:3;"/><text fill="#000000" font-family="sans-serif" font-size="14" lengthAdjust="spacing" textLength="194.6328" x="461.2803" y="118.5117">STREAMING TABLE definition</text><path d="M408.2803,94.7324 L418.2803,94.7324 C433.2803,94.7324 433.2803,113.2207 448.2803,113.2207 L458.2803,113.2207" fill="none" style="stroke:#FFB900;stroke-width:3;"/><path d="M312.3994,66.4883 L322.3994,66.4883 C337.3994,66.4883 337.3994,94.7324 352.3994,94.7324 L362.3994,94.7324" fill="none" style="stroke:#0078D4;stroke-width:3;"/><path d="M98.3594,122.9766 L108.3594,122.9766 C123.3594,122.9766 123.3594,66.4883 138.3594,66.4883 L148.3594,66.4883" fill="none" style="stroke:#FF5F46;stroke-width:3;"/><rect fill="#0078D4" height="36.4883" rx="12.5" ry="12.5" style="stroke:#0078D4;stroke-width:3;" width="173.2549" x="148.3594" y="132.9766"/><text fill="#FFFFFF" font-family="sans-serif" font-size="14" lengthAdjust="spacing" textLength="153.2549" x="158.3594" y="156.5117">Delta Lake Constraints</text><text fill="#000000" font-family="sans-serif" font-size="14" lengthAdjust="spacing" textLength="189.3418" x="374.6143" y="138.0234">NOT NULL in CREATE TABLE</text><path d="M321.6143,151.2207 L331.6143,151.2207 C346.6143,151.2207 346.6143,132.7324 361.6143,132.7324 L371.6143,132.7324" fill="none" style="stroke:#0078D4;stroke-width:3;"/><text fill="#000000" font-family="sans-serif" font-size="14" lengthAdjust="spacing" textLength="199.8691" x="374.6143" y="156.5117">ALTER TABLE ALTER COLUMN</text><path d="M321.6143,151.2207 L331.6143,151.2207 C346.6143,151.2207 346.6143,151.2207 361.6143,151.2207 L371.6143,151.2207" fill="none" style="stroke:#0078D4;stroke-width:3;"/><text fill="#000000" font-family="sans-serif" font-size="14" lengthAdjust="spacing" textLength="142.543" x="374.6143" y="175">Verified at write time</text><path d="M321.6143,151.2207 L331.6143,151.2207 C346.6143,151.2207 346.6143,169.709 361.6143,169.709 L371.6143,169.709" fill="none" style="stroke:#0078D4;stroke-width:3;"/><path d="M98.3594,122.9766 L108.3594,122.9766 C123.3594,122.9766 123.3594,151.2207 138.3594,151.2207 L148.3594,151.2207" fill="none" style="stroke:#FF5F46;stroke-width:3;"/><rect fill="#0078D4" height="36.4883" rx="12.5" ry="12.5" style="stroke:#0078D4;stroke-width:3;" width="123.5439" x="148.3594" y="189.4648"/><text fill="#FFFFFF" font-family="sans-serif" font-size="14" lengthAdjust="spacing" textLength="103.5439" x="158.3594" y="213">Important Note</text><text fill="#000000" font-family="sans-serif" font-size="14" lengthAdjust="spacing" textLength="156.6318" x="324.9033" y="194.5117">Existing rows validated</text><path d="M271.9033,207.709 L281.9033,207.709 C296.9033,207.709 296.9033,189.2207 311.9033,189.2207 L321.9033,189.2207" fill="none" style="stroke:#0078D4;stroke-width:3;"/><text fill="#000000" font-family="sans-serif" font-size="14" lengthAdjust="spacing" textLength="162.8525" x="324.9033" y="213">ALTER fails if nulls exist</text><path d="M271.9033,207.709 L281.9033,207.709 C296.9033,207.709 296.9033,207.709 311.9033,207.709 L321.9033,207.709" fill="none" style="stroke:#0078D4;stroke-width:3;"/><text fill="#000000" font-family="sans-serif" font-size="14" lengthAdjust="spacing" textLength="160.6172" x="324.9033" y="231.4883">Plan migration carefully</text><path d="M271.9033,207.709 L281.9033,207.709 C296.9033,207.709 296.9033,226.1973 311.9033,226.1973 L321.9033,226.1973" fill="none" style="stroke:#0078D4;stroke-width:3;"/><path d="M98.3594,122.9766 L108.3594,122.9766 C123.3594,122.9766 123.3594,207.709 138.3594,207.709 L148.3594,207.709" fill="none" style="stroke:#FF5F46;stroke-width:3;"/><?plantuml-src VPDHRzD03CVVyoaiyGALA5aPOw09DKqJ52bBkYmRBqZLDN5QgvUxwExAMaryTwv9EY2e-Cco__RFzkccsZ1bQX9bpHhdHfi3no_Evn8Ritdjle5d1wpDMB5TAxaJfI-vLF0g33-4brTjBYQ1_qP3AKmVhLfxqUORAhO2jORtOzVvUM9Td6MvxiVh-UMGDOZ-tNKmGTZQRzRaBAkgLfzSTyWQHF_BSbkph9NSywFc-QpYvbr_xX4aEyxPYZYPmtVXRx3OQcSqWWKro2qHWds3XM66f3WcREPWDb8StT4IfcKpnbQnb6fPAjb0YOLKp4ZLI-xlOfX9oP49i59b9wEN-WMgjuNakrh03yQfR3ajnfRr6ZzDxlFCYv8S2ivs6ljuci1ZbCPU7bbldgKBoD9l9sYU1Tvjb7o5t9l5WHsg8a5zSvWZDmnYjaNmxLf6CHActMu9IPf3yX37G09ysoGFkXPTrelp8EjxThwVnW-tIPTzH4KLOGdCm9CYWs2eFeuBKTr8PPWma4Y3dJhOapOarg3aapwjZ-MVe8eHrq0L2FjAsfxFLdJv1RVdh6cjsej1mHHMLdDmfcW_LF-fd8lnn9rSZIU_0000?></g></svg>