<?plantuml 1.2026.2?><svg xmlns="http://www.w3.org/2000/svg" xmlns:xlink="http://www.w3.org/1999/xlink" contentStyleType="text/css" data-diagram-type="MINDMAP" height="300px" preserveAspectRatio="none" style="width:574px;height:300px;background:#FFFFFF;" version="1.1" viewBox="0 0 574 300" width="574px" zoomAndPan="magnify"><defs/><g><rect fill="#FF5F46" height="52.9766" rx="12.5" ry="12.5" style="stroke:#FF5F46;stroke-width:3;" width="122.3477" x="10" y="122.9414"/><text fill="#FFFFFF" font-family="sans-serif" font-size="14" lengthAdjust="spacing" textLength="102.3477" x="20" y="146.4766">Type Mismatch</text><text fill="#FFFFFF" font-family="sans-serif" font-size="14" lengthAdjust="spacing" textLength="61.0313" x="20" y="162.9648">Handling</text><rect fill="#0078D4" height="36.4883" rx="12.5" ry="12.5" style="stroke:#0078D4;stroke-width:3;" width="68.1592" x="182.3477" y="20"/><text fill="#FFFFFF" font-family="sans-serif" font-size="14" lengthAdjust="spacing" textLength="48.1592" x="192.3477" y="43.5352">Pattern</text><text fill="#000000" font-family="sans-serif" font-size="14" lengthAdjust="spacing" textLength="180.7148" x="303.5068" y="25.0469">Separate valid from invalid</text><path d="M250.5068,38.2441 L260.5068,38.2441 C275.5068,38.2441 275.5068,19.7559 290.5068,19.7559 L300.5068,19.7559" fill="none" style="stroke:#0078D4;stroke-width:3;"/><text fill="#000000" font-family="sans-serif" font-size="14" lengthAdjust="spacing" textLength="156.1465" x="303.5068" y="43.5352">Process good data first</text><path d="M250.5068,38.2441 L260.5068,38.2441 C275.5068,38.2441 275.5068,38.2441 290.5068,38.2441 L300.5068,38.2441" fill="none" style="stroke:#0078D4;stroke-width:3;"/><text fill="#000000" font-family="sans-serif" font-size="14" lengthAdjust="spacing" textLength="160.4053" x="303.5068" y="62.0234">Quarantine bad records</text><path d="M250.5068,38.2441 L260.5068,38.2441 C275.5068,38.2441 275.5068,56.7324 290.5068,56.7324 L300.5068,56.7324" fill="none" style="stroke:#0078D4;stroke-width:3;"/><path d="M132.3477,149.4297 L142.3477,149.4297 C157.3477,149.4297 157.3477,38.2441 172.3477,38.2441 L182.3477,38.2441" fill="none" style="stroke:#FF5F46;stroke-width:3;"/><rect fill="#0078D4" height="36.4883" rx="12.5" ry="12.5" style="stroke:#0078D4;stroke-width:3;" width="112.3193" x="182.3477" y="76.4883"/><text fill="#FFFFFF" font-family="sans-serif" font-size="14" lengthAdjust="spacing" textLength="92.3193" x="192.3477" y="100.0234">Valid Records</text><text fill="#000000" font-family="sans-serif" font-size="14" lengthAdjust="spacing" textLength="214.4434" x="347.667" y="81.5352">Filter with try_cast IS NOT NULL</text><path d="M294.667,94.7324 L304.667,94.7324 C319.667,94.7324 319.667,76.2441 334.667,76.2441 L344.667,76.2441" fill="none" style="stroke:#0078D4;stroke-width:3;"/><text fill="#000000" font-family="sans-serif" font-size="14" lengthAdjust="spacing" textLength="164.2334" x="347.667" y="100.0234">INSERT INTO silver table</text><path d="M294.667,94.7324 L304.667,94.7324 C319.667,94.7324 319.667,94.7324 334.667,94.7324 L344.667,94.7324" fill="none" style="stroke:#0078D4;stroke-width:3;"/><text fill="#000000" font-family="sans-serif" font-size="14" lengthAdjust="spacing" textLength="140.2666" x="347.667" y="118.5117">cast() to target types</text><path d="M294.667,94.7324 L304.667,94.7324 C319.667,94.7324 319.667,113.2207 334.667,113.2207 L344.667,113.2207" fill="none" style="stroke:#0078D4;stroke-width:3;"/><path d="M132.3477,149.4297 L142.3477,149.4297 C157.3477,149.4297 157.3477,94.7324 172.3477,94.7324 L182.3477,94.7324" fill="none" style="stroke:#FF5F46;stroke-width:3;"/><rect fill="#0078D4" height="36.4883" rx="12.5" ry="12.5" style="stroke:#0078D4;stroke-width:3;" width="123.1338" x="182.3477" y="150.4414"/><text fill="#FFFFFF" font-family="sans-serif" font-size="14" lengthAdjust="spacing" textLength="103.1338" x="192.3477" y="173.9766">Invalid Records</text><text fill="#000000" font-family="sans-serif" font-size="14" lengthAdjust="spacing" textLength="179.9424" x="358.4814" y="137">Filter with try_cast IS NULL</text><path d="M305.4814,168.6855 L315.4814,168.6855 C330.4814,168.6855 330.4814,131.709 345.4814,131.709 L355.4814,131.709" fill="none" style="stroke:#0078D4;stroke-width:3;"/><text fill="#000000" font-family="sans-serif" font-size="14" lengthAdjust="spacing" textLength="201.3799" x="358.4814" y="155.4883">INSERT INTO quarantine table</text><path d="M305.4814,168.6855 L315.4814,168.6855 C330.4814,168.6855 330.4814,150.1973 345.4814,150.1973 L355.4814,150.1973" fill="none" style="stroke:#0078D4;stroke-width:3;"/><text fill="#000000" font-family="sans-serif" font-size="14" lengthAdjust="spacing" textLength="132.7334" x="358.4814" y="173.9766">Preserve raw values</text><path d="M305.4814,168.6855 L315.4814,168.6855 C330.4814,168.6855 330.4814,168.6855 345.4814,168.6855 L355.4814,168.6855" fill="none" style="stroke:#0078D4;stroke-width:3;"/><text fill="#000000" font-family="sans-serif" font-size="14" lengthAdjust="spacing" textLength="181.4326" x="358.4814" y="192.4648">Add quarantine timestamp</text><path d="M305.4814,168.6855 L315.4814,168.6855 C330.4814,168.6855 330.4814,187.1738 345.4814,187.1738 L355.4814,187.1738" fill="none" style="stroke:#0078D4;stroke-width:3;"/><text fill="#000000" font-family="sans-serif" font-size="14" lengthAdjust="spacing" textLength="111.6787" x="358.4814" y="210.9531">Add reason field</text><path d="M305.4814,168.6855 L315.4814,168.6855 C330.4814,168.6855 330.4814,205.6621 345.4814,205.6621 L355.4814,205.6621" fill="none" style="stroke:#0078D4;stroke-width:3;"/><path d="M132.3477,149.4297 L142.3477,149.4297 C157.3477,149.4297 157.3477,168.6855 172.3477,168.6855 L182.3477,168.6855" fill="none" style="stroke:#FF5F46;stroke-width:3;"/><rect fill="#0078D4" height="36.4883" rx="12.5" ry="12.5" style="stroke:#0078D4;stroke-width:3;" width="73.9082" x="182.3477" y="233.6387"/><text fill="#FFFFFF" font-family="sans-serif" font-size="14" lengthAdjust="spacing" textLength="53.9082" x="192.3477" y="257.1738">Benefits</text><text fill="#000000" font-family="sans-serif" font-size="14" lengthAdjust="spacing" textLength="181.1523" x="309.2559" y="229.4414">Pipeline continues running</text><path d="M256.2559,251.8828 L266.2559,251.8828 C281.2559,251.8828 281.2559,224.1504 296.2559,224.1504 L306.2559,224.1504" fill="none" style="stroke:#0078D4;stroke-width:3;"/><text fill="#000000" font-family="sans-serif" font-size="14" lengthAdjust="spacing" textLength="211.9961" x="309.2559" y="247.9297">Bad data preserved for analysis</text><path d="M256.2559,251.8828 L266.2559,251.8828 C281.2559,251.8828 281.2559,242.6387 296.2559,242.6387 L306.2559,242.6387" fill="none" style="stroke:#0078D4;stroke-width:3;"/><text fill="#000000" font-family="sans-serif" font-size="14" lengthAdjust="spacing" textLength="84.2324" x="309.2559" y="266.418">No data loss</text><path d="M256.2559,251.8828 L266.2559,251.8828 C281.2559,251.8828 281.2559,261.127 296.2559,261.127 L306.2559,261.127" fill="none" style="stroke:#0078D4;stroke-width:3;"/><text fill="#000000" font-family="sans-serif" font-size="14" lengthAdjust="spacing" textLength="161.5127" x="309.2559" y="284.9063">Auditable quality issues</text><path d="M256.2559,251.8828 L266.2559,251.8828 C281.2559,251.8828 281.2559,279.6152 296.2559,279.6152 L306.2559,279.6152" fill="none" style="stroke:#0078D4;stroke-width:3;"/><path d="M132.3477,149.4297 L142.3477,149.4297 C157.3477,149.4297 157.3477,251.8828 172.3477,251.8828 L182.3477,251.8828" fill="none" style="stroke:#FF5F46;stroke-width:3;"/><?plantuml-src ZPFVJzj03CVVyrTOsWlqeGk5iHz2Y1M8gDILZcPxceJSdDEUkDo5EwSiGllVTvS4Eh9rmYz9xA_ziNsvCyTekP1Q55X69uvhHQVH9q4bh_VYVNYCmDiOixkLDPKMvqOP2s-Iv5roTDp4fbBJtzx4QEwyUMFFsdGjipjDpi7XC8v-FR4EThBY-Fs7YwC-g-TzMRNNGTBObZNQoShpvSSuxhDwtl-ouiOyQsb-gg1vtAauUTkjUm1fNH9yaQv0pjO_z1LgeQHUHOC1p96PhFQlWrjOK8aMcM23IWh8hIb0wkQZ5SojoG9rPOm0WOoGI-ku3NwjVB9cFm8iKO2bp5ZX0kHxK-xcsU75YLIU2m-Iry2slitGCKmMCBjEOVPjEcrLazdYyYRrZ_GQd5GRdy6uLDH6GyxUFh3nJhiY1lPpDi19s_GhaV_4tM-d-GCvj-J8RWWiFeGjLTGL_op4YnHPaF_tYt8RjOJEQBymKc6RC2PDkUGkVovBKY4pCw62hmksqhez9HyVOxVmikl07uy_RjIeQYUx8ZFJQfHnJsrLGZRjX-QKv1gaSw7fC_9tihkNqS5m58-EXwFV?></g></svg>