<?plantuml 1.2026.2?><svg xmlns="http://www.w3.org/2000/svg" xmlns:xlink="http://www.w3.org/1999/xlink" contentStyleType="text/css" data-diagram-type="MINDMAP" height="360px" preserveAspectRatio="none" style="width:697px;height:360px;background:#FFFFFF;" version="1.1" viewBox="0 0 697 360" width="697px" zoomAndPan="magnify"><defs/><g><rect fill="#FF5F46" height="52.9766" rx="12.5" ry="12.5" style="stroke:#FF5F46;stroke-width:3;" width="164.04" x="10" y="152.7207"/><text fill="#FFFFFF" font-family="sans-serif" font-size="14" lengthAdjust="spacing" textLength="144.04" x="20" y="176.2559">Pipeline Expectations</text><text fill="#FFFFFF" font-family="sans-serif" font-size="14" lengthAdjust="spacing" textLength="100.2012" x="20" y="192.7441">Type Checking</text><rect fill="#0078D4" height="36.4883" rx="12.5" ry="12.5" style="stroke:#0078D4;stroke-width:3;" width="83.417" x="224.04" y="20"/><text fill="#FFFFFF" font-family="sans-serif" font-size="14" lengthAdjust="spacing" textLength="63.417" x="234.04" y="43.5352">In Python</text><text fill="#000000" font-family="sans-serif" font-size="14" lengthAdjust="spacing" textLength="209.5898" x="360.457" y="25.0469">@dp.expect_or_drop decorator</text><path d="M307.457,38.2441 L317.457,38.2441 C332.457,38.2441 332.457,19.7559 347.457,19.7559 L357.457,19.7559" fill="none" style="stroke:#0078D4;stroke-width:3;"/><text fill="#000000" font-family="sans-serif" font-size="14" lengthAdjust="spacing" textLength="186.874" x="360.457" y="43.5352">try_cast() in constraint expr</text><path d="M307.457,38.2441 L317.457,38.2441 C332.457,38.2441 332.457,38.2441 347.457,38.2441 L357.457,38.2441" fill="none" style="stroke:#0078D4;stroke-width:3;"/><text fill="#000000" font-family="sans-serif" font-size="14" lengthAdjust="spacing" textLength="183.8389" x="360.457" y="62.0234">Per-column type validation</text><path d="M307.457,38.2441 L317.457,38.2441 C332.457,38.2441 332.457,56.7324 347.457,56.7324 L357.457,56.7324" fill="none" style="stroke:#0078D4;stroke-width:3;"/><path d="M174.04,179.209 L184.04,179.209 C199.04,179.209 199.04,38.2441 214.04,38.2441 L224.04,38.2441" fill="none" style="stroke:#FF5F46;stroke-width:3;"/><rect fill="#0078D4" height="36.4883" rx="12.5" ry="12.5" style="stroke:#0078D4;stroke-width:3;" width="63.0322" x="224.04" y="76.4883"/><text fill="#FFFFFF" font-family="sans-serif" font-size="14" lengthAdjust="spacing" textLength="43.0322" x="234.04" y="100.0234">In SQL</text><text fill="#000000" font-family="sans-serif" font-size="14" lengthAdjust="spacing" textLength="208.9063" x="340.0723" y="81.5352">CONSTRAINT in CREATE TABLE</text><path d="M287.0723,94.7324 L297.0723,94.7324 C312.0723,94.7324 312.0723,76.2441 327.0723,76.2441 L337.0723,76.2441" fill="none" style="stroke:#0078D4;stroke-width:3;"/><text fill="#000000" font-family="sans-serif" font-size="14" lengthAdjust="spacing" textLength="179.457" x="340.0723" y="100.0234">ON VIOLATION DROP ROW</text><path d="M287.0723,94.7324 L297.0723,94.7324 C312.0723,94.7324 312.0723,94.7324 327.0723,94.7324 L337.0723,94.7324" fill="none" style="stroke:#0078D4;stroke-width:3;"/><text fill="#000000" font-family="sans-serif" font-size="14" lengthAdjust="spacing" textLength="151.5664" x="340.0723" y="118.5117">try_cast() IS NOT NULL</text><path d="M287.0723,94.7324 L297.0723,94.7324 C312.0723,94.7324 312.0723,113.2207 327.0723,113.2207 L337.0723,113.2207" fill="none" style="stroke:#0078D4;stroke-width:3;"/><path d="M174.04,179.209 L184.04,179.209 C199.04,179.209 199.04,94.7324 214.04,94.7324 L224.04,94.7324" fill="none" style="stroke:#FF5F46;stroke-width:3;"/><rect fill="#0078D4" height="36.4883" rx="12.5" ry="12.5" style="stroke:#0078D4;stroke-width:3;" width="70.5381" x="224.04" y="188.9531"/><text fill="#FFFFFF" font-family="sans-serif" font-size="14" lengthAdjust="spacing" textLength="50.5381" x="234.04" y="212.4883">Actions</text><rect fill="#FFB900" height="36.4883" rx="12.5" ry="12.5" style="stroke:#FFB900;stroke-width:3;" width="65.4043" x="344.5781" y="132.4648"/><text fill="#000000" font-family="sans-serif" font-size="14" lengthAdjust="spacing" textLength="45.4043" x="354.5781" y="156">expect</text><text fill="#000000" font-family="sans-serif" font-size="14" lengthAdjust="spacing" textLength="127.6816" x="462.9824" y="156">Log violations only</text><path d="M409.9824,150.709 L419.9824,150.709 C434.9824,150.709 434.9824,150.709 449.9824,150.709 L459.9824,150.709" fill="none" style="stroke:#FFB900;stroke-width:3;"/><path d="M294.5781,207.1973 L304.5781,207.1973 C319.5781,207.1973 319.5781,150.709 334.5781,150.709 L344.5781,150.709" fill="none" style="stroke:#0078D4;stroke-width:3;"/><rect fill="#FFB900" height="36.4883" rx="12.5" ry="12.5" style="stroke:#FFB900;stroke-width:3;" width="125.6836" x="344.5781" y="188.9531"/><text fill="#000000" font-family="sans-serif" font-size="14" lengthAdjust="spacing" textLength="105.6836" x="354.5781" y="212.4883">expect_or_drop</text><text fill="#000000" font-family="sans-serif" font-size="14" lengthAdjust="spacing" textLength="138.0791" x="523.2617" y="212.4883">Drop invalid records</text><path d="M470.2617,207.1973 L480.2617,207.1973 C495.2617,207.1973 495.2617,207.1973 510.2617,207.1973 L520.2617,207.1973" fill="none" style="stroke:#FFB900;stroke-width:3;"/><path d="M294.5781,207.1973 L304.5781,207.1973 C319.5781,207.1973 319.5781,207.1973 334.5781,207.1973 L344.5781,207.1973" fill="none" style="stroke:#0078D4;stroke-width:3;"/><rect fill="#FFB900" height="36.4883" rx="12.5" ry="12.5" style="stroke:#FFB900;stroke-width:3;" width="114.7051" x="344.5781" y="245.4414"/><text fill="#000000" font-family="sans-serif" font-size="14" lengthAdjust="spacing" textLength="94.7051" x="354.5781" y="268.9766">expect_or_fail</text><text fill="#000000" font-family="sans-serif" font-size="14" lengthAdjust="spacing" textLength="173.0586" x="512.2832" y="268.9766">Stop pipeline on violation</text><path d="M459.2832,263.6855 L469.2832,263.6855 C484.2832,263.6855 484.2832,263.6855 499.2832,263.6855 L509.2832,263.6855" fill="none" style="stroke:#FFB900;stroke-width:3;"/><path d="M294.5781,207.1973 L304.5781,207.1973 C319.5781,207.1973 319.5781,263.6855 334.5781,263.6855 L344.5781,263.6855" fill="none" style="stroke:#0078D4;stroke-width:3;"/><path d="M174.04,179.209 L184.04,179.209 C199.04,179.209 199.04,207.1973 214.04,207.1973 L224.04,207.1973" fill="none" style="stroke:#FF5F46;stroke-width:3;"/><rect fill="#0078D4" height="36.4883" rx="12.5" ry="12.5" style="stroke:#0078D4;stroke-width:3;" width="73.9082" x="224.04" y="301.9297"/><text fill="#FFFFFF" font-family="sans-serif" font-size="14" lengthAdjust="spacing" textLength="53.9082" x="234.04" y="325.4648">Benefits</text><text fill="#000000" font-family="sans-serif" font-size="14" lengthAdjust="spacing" textLength="165.8809" x="350.9482" y="306.9766">Type checks in ETL logic</text><path d="M297.9482,320.1738 L307.9482,320.1738 C322.9482,320.1738 322.9482,301.6855 337.9482,301.6855 L347.9482,301.6855" fill="none" style="stroke:#0078D4;stroke-width:3;"/><text fill="#000000" font-family="sans-serif" font-size="14" lengthAdjust="spacing" textLength="186.1699" x="350.9482" y="325.4648">Pipeline UI metrics visibility</text><path d="M297.9482,320.1738 L307.9482,320.1738 C322.9482,320.1738 322.9482,320.1738 337.9482,320.1738 L347.9482,320.1738" fill="none" style="stroke:#0078D4;stroke-width:3;"/><text fill="#000000" font-family="sans-serif" font-size="14" lengthAdjust="spacing" textLength="183.5039" x="350.9482" y="343.9531">Defense in depth approach</text><path d="M297.9482,320.1738 L307.9482,320.1738 C322.9482,320.1738 322.9482,338.6621 337.9482,338.6621 L347.9482,338.6621" fill="none" style="stroke:#0078D4;stroke-width:3;"/><path d="M174.04,179.209 L184.04,179.209 C199.04,179.209 199.04,320.1738 214.04,320.1738 L224.04,320.1738" fill="none" style="stroke:#FF5F46;stroke-width:3;"/><?plantuml-src VPDHQzim4CVV_IaEzj86bhbPrtQZZ3Y93GPZfudRlGo28iknY289IIqrPTzzakoqcqkg9_dqk___xcHDjK7A72Yl3aW6jzgqZFmCVbH4ckOiF8UN0EoQ8RpVAV78gxbWGi6d9FcMN5xviunoyZwQ26xwQEtNAris5EyvqHg-ZiFWpz7hugHN65xVB2w7NeFe_wg32XA_thmc9xtgUliz38TUW-Y7Ng5VrcihdfbZNauIjr_wSOzWIILXLXhYPqcmGOOAhd_pifK4vWt1UyftmMW4AOTbQnh1xSTe0zDAZedFs0YrgPIGK14i5392TOHHxGOZRSxEWNB0LjKeHBa1czOZIw8-Oy4U3noCytj2Z5Q-WjvnVPTrvBp8r-KgIlFIYSrNSLJ6K4QpBExEYnmUqYABojJk5gjY2QlYrxiwqZNaHGdvVUPa8SA-MOT1rulRsfHCxE292jOD0mHdxJ_GiU4UNhZUAVUrWt8pgFI0hX5bFRqsbfR7cGl-vkCgcX5EQcfqLxc_0-pkGBkkup839dOKzyCxYjodS216KQojcAPRogXfEsP1Qi8rSTd-_mCafH88Dy6Ks7VNlxtWOZm99rVZoLy0?></g></svg>