<?plantuml 1.2026.2?><svg xmlns="http://www.w3.org/2000/svg" xmlns:xlink="http://www.w3.org/1999/xlink" contentStyleType="text/css" data-diagram-type="MINDMAP" height="303px" preserveAspectRatio="none" style="width:638px;height:303px;background:#FFFFFF;" version="1.1" viewBox="0 0 638 303" width="638px" zoomAndPan="magnify"><defs/><g><rect fill="#FF5F46" height="52.9766" rx="12.5" ry="12.5" style="stroke:#FF5F46;stroke-width:3;" width="105.5176" x="10" y="124.4766"/><text fill="#FFFFFF" font-family="sans-serif" font-size="14" lengthAdjust="spacing" textLength="52.001" x="20" y="148.0117">Schema</text><text fill="#FFFFFF" font-family="sans-serif" font-size="14" lengthAdjust="spacing" textLength="85.5176" x="20" y="164.5">Enforcement</text><rect fill="#0078D4" height="36.4883" rx="12.5" ry="12.5" style="stroke:#0078D4;stroke-width:3;" width="82.959" x="165.5176" y="20"/><text fill="#FFFFFF" font-family="sans-serif" font-size="14" lengthAdjust="spacing" textLength="62.959" x="175.5176" y="43.5352">What it is</text><text fill="#000000" font-family="sans-serif" font-size="14" lengthAdjust="spacing" textLength="197.6201" x="301.4766" y="25.0469">Delta Lake built-in validation</text><path d="M248.4766,38.2441 L258.4766,38.2441 C273.4766,38.2441 273.4766,19.7559 288.4766,19.7559 L298.4766,19.7559" fill="none" style="stroke:#0078D4;stroke-width:3;"/><text fill="#000000" font-family="sans-serif" font-size="14" lengthAdjust="spacing" textLength="240.4678" x="301.4766" y="43.5352">Compares incoming vs target types</text><path d="M248.4766,38.2441 L258.4766,38.2441 C273.4766,38.2441 273.4766,38.2441 288.4766,38.2441 L298.4766,38.2441" fill="none" style="stroke:#0078D4;stroke-width:3;"/><text fill="#000000" font-family="sans-serif" font-size="14" lengthAdjust="spacing" textLength="152.0518" x="301.4766" y="62.0234">Applied on every write</text><path d="M248.4766,38.2441 L258.4766,38.2441 C273.4766,38.2441 273.4766,56.7324 288.4766,56.7324 L298.4766,56.7324" fill="none" style="stroke:#0078D4;stroke-width:3;"/><path d="M115.5176,150.9648 L125.5176,150.9648 C140.5176,150.9648 140.5176,38.2441 155.5176,38.2441 L165.5176,38.2441" fill="none" style="stroke:#FF5F46;stroke-width:3;"/><rect fill="#0078D4" height="36.4883" rx="12.5" ry="12.5" style="stroke:#0078D4;stroke-width:3;" width="56.5244" x="165.5176" y="76.4883"/><text fill="#FFFFFF" font-family="sans-serif" font-size="14" lengthAdjust="spacing" textLength="36.5244" x="175.5176" y="100.0234">Rules</text><text fill="#000000" font-family="sans-serif" font-size="14" lengthAdjust="spacing" textLength="190.9346" x="275.042" y="81.5352">Columns must exist in table</text><path d="M222.042,94.7324 L232.042,94.7324 C247.042,94.7324 247.042,76.2441 262.042,76.2441 L272.042,76.2441" fill="none" style="stroke:#0078D4;stroke-width:3;"/><text fill="#000000" font-family="sans-serif" font-size="14" lengthAdjust="spacing" textLength="224.6973" x="275.042" y="100.0234">Types must match or be castable</text><path d="M222.042,94.7324 L232.042,94.7324 C247.042,94.7324 247.042,94.7324 262.042,94.7324 L272.042,94.7324" fill="none" style="stroke:#0078D4;stroke-width:3;"/><text fill="#000000" font-family="sans-serif" font-size="14" lengthAdjust="spacing" textLength="236.3047" x="275.042" y="118.5117">Safe casts attempted automatically</text><path d="M222.042,94.7324 L232.042,94.7324 C247.042,94.7324 247.042,113.2207 262.042,113.2207 L272.042,113.2207" fill="none" style="stroke:#0078D4;stroke-width:3;"/><path d="M115.5176,150.9648 L125.5176,150.9648 C140.5176,150.9648 140.5176,94.7324 155.5176,94.7324 L165.5176,94.7324" fill="none" style="stroke:#FF5F46;stroke-width:3;"/><rect fill="#0078D4" height="36.4883" rx="12.5" ry="12.5" style="stroke:#0078D4;stroke-width:3;" width="77.8936" x="165.5176" y="160.709"/><text fill="#FFFFFF" font-family="sans-serif" font-size="14" lengthAdjust="spacing" textLength="57.8936" x="175.5176" y="184.2441">Behavior</text><rect fill="#FFB900" height="36.4883" rx="12.5" ry="12.5" style="stroke:#FFB900;stroke-width:3;" width="72.6436" x="293.4111" y="132.4648"/><text fill="#000000" font-family="sans-serif" font-size="14" lengthAdjust="spacing" textLength="52.6436" x="303.4111" y="156">Success</text><text fill="#000000" font-family="sans-serif" font-size="14" lengthAdjust="spacing" textLength="176.7432" x="419.0547" y="146.7559">'100' cast to INT succeeds</text><path d="M366.0547,150.709 L376.0547,150.709 C391.0547,150.709 391.0547,141.4648 406.0547,141.4648 L416.0547,141.4648" fill="none" style="stroke:#FFB900;stroke-width:3;"/><text fill="#000000" font-family="sans-serif" font-size="14" lengthAdjust="spacing" textLength="189.6563" x="419.0547" y="165.2441">Compatible types promoted</text><path d="M366.0547,150.709 L376.0547,150.709 C391.0547,150.709 391.0547,159.9531 406.0547,159.9531 L416.0547,159.9531" fill="none" style="stroke:#FFB900;stroke-width:3;"/><path d="M243.4111,178.9531 L253.4111,178.9531 C268.4111,178.9531 268.4111,150.709 283.4111,150.709 L293.4111,150.709" fill="none" style="stroke:#0078D4;stroke-width:3;"/><rect fill="#FFB900" height="36.4883" rx="12.5" ry="12.5" style="stroke:#FFB900;stroke-width:3;" width="65.5479" x="293.4111" y="188.9531"/><text fill="#000000" font-family="sans-serif" font-size="14" lengthAdjust="spacing" textLength="45.5479" x="303.4111" y="212.4883">Failure</text><text fill="#000000" font-family="sans-serif" font-size="14" lengthAdjust="spacing" textLength="111.7676" x="411.959" y="203.2441">'fifty' to INT fails</text><path d="M358.959,207.1973 L368.959,207.1973 C383.959,207.1973 383.959,197.9531 398.959,197.9531 L408.959,197.9531" fill="none" style="stroke:#FFB900;stroke-width:3;"/><text fill="#000000" font-family="sans-serif" font-size="14" lengthAdjust="spacing" textLength="163.4951" x="411.959" y="221.7324">Write operation rejected</text><path d="M358.959,207.1973 L368.959,207.1973 C383.959,207.1973 383.959,216.4414 398.959,216.4414 L408.959,216.4414" fill="none" style="stroke:#FFB900;stroke-width:3;"/><path d="M243.4111,178.9531 L253.4111,178.9531 C268.4111,178.9531 268.4111,207.1973 283.4111,207.1973 L293.4111,207.1973" fill="none" style="stroke:#0078D4;stroke-width:3;"/><path d="M115.5176,150.9648 L125.5176,150.9648 C140.5176,150.9648 140.5176,178.9531 155.5176,178.9531 L165.5176,178.9531" fill="none" style="stroke:#FF5F46;stroke-width:3;"/><rect fill="#0078D4" height="36.4883" rx="12.5" ry="12.5" style="stroke:#0078D4;stroke-width:3;" width="159.5488" x="165.5176" y="245.4414"/><text fill="#FFFFFF" font-family="sans-serif" font-size="14" lengthAdjust="spacing" textLength="139.5488" x="175.5176" y="268.9766">First Line of Defense</text><text fill="#000000" font-family="sans-serif" font-size="14" lengthAdjust="spacing" textLength="209.6104" x="378.0664" y="250.4883">Catches type mismatches early</text><path d="M325.0664,263.6855 L335.0664,263.6855 C350.0664,263.6855 350.0664,245.1973 365.0664,245.1973 L375.0664,245.1973" fill="none" style="stroke:#0078D4;stroke-width:3;"/><text fill="#000000" font-family="sans-serif" font-size="14" lengthAdjust="spacing" textLength="157.1104" x="378.0664" y="268.9766">No extra code required</text><path d="M325.0664,263.6855 L335.0664,263.6855 C350.0664,263.6855 350.0664,263.6855 365.0664,263.6855 L375.0664,263.6855" fill="none" style="stroke:#0078D4;stroke-width:3;"/><text fill="#000000" font-family="sans-serif" font-size="14" lengthAdjust="spacing" textLength="248.0146" x="378.0664" y="287.4648">Use explicit casting for more control</text><path d="M325.0664,263.6855 L335.0664,263.6855 C350.0664,263.6855 350.0664,282.1738 365.0664,282.1738 L375.0664,282.1738" fill="none" style="stroke:#0078D4;stroke-width:3;"/><path d="M115.5176,150.9648 L125.5176,150.9648 C140.5176,150.9648 140.5176,263.6855 155.5176,263.6855 L165.5176,263.6855" fill="none" style="stroke:#FF5F46;stroke-width:3;"/><?plantuml-src VPFRRjD048Rl_HGZSH68H712AGTLg3J54bBL2nBK6wHgiXx7I_PWTiUXKTLtPzO73a5bPLdspE__svdndaV6m5QxqcAJdKK-67gVlIkfuVff_WpkCv1rWMgt3RvrvT8R7-19KRmgJawxt9Lsz6-qy8w7QDMjNzfrhTNEKOpmSfPd3oDh_YWhpr-_kJmvPXr5_tOzsa7HhT-inQEigjgypVDZrb7qlwoyMyBQ-3kJDFUFAivU3EsUmahLPF6h--Wg7nHPSfnDft1J8uEMAyhRz1OkoJ325Uu8Dgqs_5mxsAFH9RBshjSilMqmK0Jjb9V1Rc4VGOQy9GO-D3HOVMWQewa4xu3s50xm8sYc1FtScb4aEswjYs3Ro41tMkv2PDmOwWNhPDYdBRAgGGhS42YCVuXMMFMX2CXCjc7XOijUFj4AZJaax0NLkDS-f6zWrIebpKlFOZ2Pv_caSm3syEbw3J7bgHm5NSsiXTYN24tmrWkcCojGcpRGQ5RfYW-JqQcIv6Xpare0lg7GzHC2VIFLkq2XW-3J-C5NCeYAN1pgMwRA1PhGO7MqmpjXw4eJoRMNzd50KBuayVtUwj3lxXQ-H9AaJ4F9f5EHQMRo6u3rGVecFqxm9ZidEQB3CStciqM-E9qjVW80?></g></svg>