<?plantuml 1.2026.2?><svg xmlns="http://www.w3.org/2000/svg" xmlns:xlink="http://www.w3.org/1999/xlink" contentStyleType="text/css" data-diagram-type="MINDMAP" height="329px" preserveAspectRatio="none" style="width:592px;height:329px;background:#FFFFFF;" version="1.1" viewBox="0 0 592 329" width="592px" zoomAndPan="magnify"><defs/><g><rect fill="#FF5F46" height="52.9766" rx="12.5" ry="12.5" style="stroke:#FF5F46;stroke-width:3;" width="106.7412" x="10" y="137.3193"/><text fill="#FFFFFF" font-family="sans-serif" font-size="14" lengthAdjust="spacing" textLength="86.7412" x="20" y="160.8545">Explicit Type</text><text fill="#FFFFFF" font-family="sans-serif" font-size="14" lengthAdjust="spacing" textLength="51.2559" x="20" y="177.3428">Casting</text><rect fill="#0078D4" height="36.4883" rx="12.5" ry="12.5" style="stroke:#0078D4;stroke-width:3;" width="56.3809" x="166.7412" y="28.7324"/><text fill="#FFFFFF" font-family="sans-serif" font-size="14" lengthAdjust="spacing" textLength="36.3809" x="176.7412" y="52.2676">cast()</text><text fill="#000000" font-family="sans-serif" font-size="14" lengthAdjust="spacing" textLength="113.0938" x="276.1221" y="24.5352">Strict conversion</text><path d="M223.1221,46.9766 L233.1221,46.9766 C248.1221,46.9766 248.1221,19.2441 263.1221,19.2441 L273.1221,19.2441" fill="none" style="stroke:#0078D4;stroke-width:3;"/><text fill="#000000" font-family="sans-serif" font-size="14" lengthAdjust="spacing" textLength="150.0557" x="276.1221" y="43.0234">Raises error on failure</text><path d="M223.1221,46.9766 L233.1221,46.9766 C248.1221,46.9766 248.1221,37.7324 263.1221,37.7324 L273.1221,37.7324" fill="none" style="stroke:#0078D4;stroke-width:3;"/><text fill="#000000" font-family="sans-serif" font-size="14" lengthAdjust="spacing" textLength="158.1426" x="276.1221" y="61.5117">Use for strict validation</text><path d="M223.1221,46.9766 L233.1221,46.9766 C248.1221,46.9766 248.1221,56.2207 263.1221,56.2207 L273.1221,56.2207" fill="none" style="stroke:#0078D4;stroke-width:3;"/><text fill="#000000" font-family="sans-serif" font-size="14" lengthAdjust="spacing" textLength="220.3086" x="276.1221" y="80">Stops processing on invalid data</text><path d="M223.1221,46.9766 L233.1221,46.9766 C248.1221,46.9766 248.1221,74.709 263.1221,74.709 L273.1221,74.709" fill="none" style="stroke:#0078D4;stroke-width:3;"/><path d="M116.7412,163.8076 L126.7412,163.8076 C141.7412,163.8076 141.7412,46.9766 156.7412,46.9766 L166.7412,46.9766" fill="none" style="stroke:#FF5F46;stroke-width:3;"/><rect fill="#0078D4" height="36.4883" rx="12.5" ry="12.5" style="stroke:#0078D4;stroke-width:3;" width="81.6602" x="166.7412" y="102.6855"/><text fill="#FFFFFF" font-family="sans-serif" font-size="14" lengthAdjust="spacing" textLength="61.6602" x="176.7412" y="126.2207">try_cast()</text><text fill="#000000" font-family="sans-serif" font-size="14" lengthAdjust="spacing" textLength="160.8701" x="301.4014" y="98.4883">Returns NULL on failure</text><path d="M248.4014,120.9297 L258.4014,120.9297 C273.4014,120.9297 273.4014,93.1973 288.4014,93.1973 L298.4014,93.1973" fill="none" style="stroke:#0078D4;stroke-width:3;"/><text fill="#000000" font-family="sans-serif" font-size="14" lengthAdjust="spacing" textLength="102.6416" x="301.4014" y="116.9766">No error raised</text><path d="M248.4014,120.9297 L258.4014,120.9297 C273.4014,120.9297 273.4014,111.6855 288.4014,111.6855 L298.4014,111.6855" fill="none" style="stroke:#0078D4;stroke-width:3;"/><text fill="#000000" font-family="sans-serif" font-size="14" lengthAdjust="spacing" textLength="147.2051" x="301.4014" y="135.4648">Identify invalid values</text><path d="M248.4014,120.9297 L258.4014,120.9297 C273.4014,120.9297 273.4014,130.1738 288.4014,130.1738 L298.4014,130.1738" fill="none" style="stroke:#0078D4;stroke-width:3;"/><text fill="#000000" font-family="sans-serif" font-size="14" lengthAdjust="spacing" textLength="165.5732" x="301.4014" y="153.9531">Filter / flag / quarantine</text><path d="M248.4014,120.9297 L258.4014,120.9297 C273.4014,120.9297 273.4014,148.6621 288.4014,148.6621 L298.4014,148.6621" fill="none" style="stroke:#0078D4;stroke-width:3;"/><path d="M116.7412,163.8076 L126.7412,163.8076 C141.7412,163.8076 141.7412,120.9297 156.7412,120.9297 L166.7412,120.9297" fill="none" style="stroke:#FF5F46;stroke-width:3;"/><rect fill="#0078D4" height="36.4883" rx="12.5" ry="12.5" style="stroke:#0078D4;stroke-width:3;" width="88.5576" x="166.7412" y="196.1504"/><text fill="#FFFFFF" font-family="sans-serif" font-size="14" lengthAdjust="spacing" textLength="68.5576" x="176.7412" y="219.6855">Use Cases</text><rect fill="#FFB900" height="36.4883" rx="12.5" ry="12.5" style="stroke:#FFB900;stroke-width:3;" width="47.2754" x="305.2988" y="167.9063"/><text fill="#000000" font-family="sans-serif" font-size="14" lengthAdjust="spacing" textLength="27.2754" x="315.2988" y="191.4414">cast</text><text fill="#000000" font-family="sans-serif" font-size="14" lengthAdjust="spacing" textLength="123.3818" x="405.5742" y="182.1973">Known-clean data</text><path d="M352.5742,186.1504 L362.5742,186.1504 C377.5742,186.1504 377.5742,176.9063 392.5742,176.9063 L402.5742,176.9063" fill="none" style="stroke:#FFB900;stroke-width:3;"/><text fill="#000000" font-family="sans-serif" font-size="14" lengthAdjust="spacing" textLength="166.5576" x="405.5742" y="200.6855">Critical type conversions</text><path d="M352.5742,186.1504 L362.5742,186.1504 C377.5742,186.1504 377.5742,195.3945 392.5742,195.3945 L402.5742,195.3945" fill="none" style="stroke:#FFB900;stroke-width:3;"/><path d="M255.2988,214.3945 L265.2988,214.3945 C280.2988,214.3945 280.2988,186.1504 295.2988,186.1504 L305.2988,186.1504" fill="none" style="stroke:#0078D4;stroke-width:3;"/><rect fill="#FFB900" height="36.4883" rx="12.5" ry="12.5" style="stroke:#FFB900;stroke-width:3;" width="72.5547" x="305.2988" y="224.3945"/><text fill="#000000" font-family="sans-serif" font-size="14" lengthAdjust="spacing" textLength="52.5547" x="315.2988" y="247.9297">try_cast</text><text fill="#000000" font-family="sans-serif" font-size="14" lengthAdjust="spacing" textLength="135.7549" x="430.8535" y="229.4414">Unknown/dirty data</text><path d="M377.8535,242.6387 L387.8535,242.6387 C402.8535,242.6387 402.8535,224.1504 417.8535,224.1504 L427.8535,224.1504" fill="none" style="stroke:#FFB900;stroke-width:3;"/><text fill="#000000" font-family="sans-serif" font-size="14" lengthAdjust="spacing" textLength="150.083" x="430.8535" y="247.9297">Validation &amp; reporting</text><path d="M377.8535,242.6387 L387.8535,242.6387 C402.8535,242.6387 402.8535,242.6387 417.8535,242.6387 L427.8535,242.6387" fill="none" style="stroke:#FFB900;stroke-width:3;"/><text fill="#000000" font-family="sans-serif" font-size="14" lengthAdjust="spacing" textLength="136.0146" x="430.8535" y="266.418">Quarantine patterns</text><path d="M377.8535,242.6387 L387.8535,242.6387 C402.8535,242.6387 402.8535,261.127 417.8535,261.127 L427.8535,261.127" fill="none" style="stroke:#FFB900;stroke-width:3;"/><path d="M255.2988,214.3945 L265.2988,214.3945 C280.2988,214.3945 280.2988,242.6387 295.2988,242.6387 L305.2988,242.6387" fill="none" style="stroke:#0078D4;stroke-width:3;"/><path d="M116.7412,163.8076 L126.7412,163.8076 C141.7412,163.8076 141.7412,214.3945 156.7412,214.3945 L166.7412,214.3945" fill="none" style="stroke:#FF5F46;stroke-width:3;"/><rect fill="#0078D4" height="36.4883" rx="12.5" ry="12.5" style="stroke:#0078D4;stroke-width:3;" width="68.1592" x="166.7412" y="271.127"/><text fill="#FFFFFF" font-family="sans-serif" font-size="14" lengthAdjust="spacing" textLength="48.1592" x="176.7412" y="294.6621">Pattern</text><text fill="#000000" font-family="sans-serif" font-size="14" lengthAdjust="spacing" textLength="211.4561" x="287.9004" y="285.418">try_cast in WHERE to filter valid</text><path d="M234.9004,289.3711 L244.9004,289.3711 C259.9004,289.3711 259.9004,280.127 274.9004,280.127 L284.9004,280.127" fill="none" style="stroke:#0078D4;stroke-width:3;"/><text fill="#000000" font-family="sans-serif" font-size="14" lengthAdjust="spacing" textLength="191.208" x="287.9004" y="303.9063">Route invalids to quarantine</text><path d="M234.9004,289.3711 L244.9004,289.3711 C259.9004,289.3711 259.9004,298.6152 274.9004,298.6152 L284.9004,298.6152" fill="none" style="stroke:#0078D4;stroke-width:3;"/><path d="M116.7412,163.8076 L126.7412,163.8076 C141.7412,163.8076 141.7412,289.3711 156.7412,289.3711 L166.7412,289.3711" fill="none" style="stroke:#FF5F46;stroke-width:3;"/><?plantuml-src VLDXQzj03FtkNo4OZ3QmnCswRYkbb6On6mrbIvljIw5Sp-VqoFNEqybTJTb_dyvdUvbBfW-sa9xqdfxncIU1zA1j_Y3AvCHJRTHfSfohakxtqdruJe3ZNCZD6brbyvap3k5LbhtB3e-Qta9RzRAQEKjjjMYYnrxVQxcnodjuEqwJtntNmKwkD7t_uTFXa6jG_NVhG47Mn5-kwKwkehZxcAP3ha7rlrnf4ynrvvvCm3plH9nCMhj7C7ygZPQQuBekrOsT2K_QhfFH22IdU_kSZMxXYb1B0kdieqAldOtbfT1UUL28lDvPA8Gs5QhON7a51TTzd7qKHkU2-jahSgM74frahKmPvhLjKC0u4IGGrhVRCfQAAhGUBbUBnGk-IzSAmQ0gZyKlkRAaYxfVpSzA-TZCj265C872Y3M_VbO21SDjsDZePpiYk74Z93nsOTql-qOQ9ModD9Hdg4bBOO3OoIshudntIWjUsKtOCiarKhszvNjl4xm6LAN3zdk4vhTU89I2M7kp7Bx6F1xL4V75yEFpV3a7Sb34IniBMYjTHQfpnGVCrlLdYl_AzizC3iRJT7eqdlu1?></g></svg>