<?plantuml 1.2026.2?><svg xmlns="http://www.w3.org/2000/svg" xmlns:xlink="http://www.w3.org/1999/xlink" contentStyleType="text/css" data-diagram-type="MINDMAP" height="360px" preserveAspectRatio="none" style="width:754px;height:360px;background:#FFFFFF;" version="1.1" viewBox="0 0 754 360" width="754px" zoomAndPan="magnify"><defs/><g><rect fill="#FF5F46" height="52.9766" rx="12.5" ry="12.5" style="stroke:#FF5F46;stroke-width:3;" width="163.9648" x="10" y="152.7207"/><text fill="#FFFFFF" font-family="sans-serif" font-size="14" lengthAdjust="spacing" textLength="143.9648" x="20" y="176.2559">Schema Management</text><text fill="#FFFFFF" font-family="sans-serif" font-size="14" lengthAdjust="spacing" textLength="92.415" x="20" y="192.7441">Best Practices</text><rect fill="#0078D4" height="36.4883" rx="12.5" ry="12.5" style="stroke:#0078D4;stroke-width:3;" width="124.043" x="223.9648" y="20"/><text fill="#FFFFFF" font-family="sans-serif" font-size="14" lengthAdjust="spacing" textLength="104.043" x="233.9648" y="43.5352">Documentation</text><text fill="#000000" font-family="sans-serif" font-size="14" lengthAdjust="spacing" textLength="221.4092" x="401.0078" y="25.0469">Store schemas in version control</text><path d="M348.0078,38.2441 L358.0078,38.2441 C373.0078,38.2441 373.0078,19.7559 388.0078,19.7559 L398.0078,19.7559" fill="none" style="stroke:#0078D4;stroke-width:3;"/><text fill="#000000" font-family="sans-serif" font-size="14" lengthAdjust="spacing" textLength="202.9795" x="401.0078" y="43.5352">Track alongside pipeline code</text><path d="M348.0078,38.2441 L358.0078,38.2441 C373.0078,38.2441 373.0078,38.2441 388.0078,38.2441 L398.0078,38.2441" fill="none" style="stroke:#0078D4;stroke-width:3;"/><text fill="#000000" font-family="sans-serif" font-size="14" lengthAdjust="spacing" textLength="230.7266" x="401.0078" y="62.0234">Clear reference for change impact</text><path d="M348.0078,38.2441 L358.0078,38.2441 C373.0078,38.2441 373.0078,56.7324 388.0078,56.7324 L398.0078,56.7324" fill="none" style="stroke:#0078D4;stroke-width:3;"/><path d="M173.9648,179.209 L183.9648,179.209 C198.9648,179.209 198.9648,38.2441 213.9648,38.2441 L223.9648,38.2441" fill="none" style="stroke:#FF5F46;stroke-width:3;"/><rect fill="#0078D4" height="36.4883" rx="12.5" ry="12.5" style="stroke:#0078D4;stroke-width:3;" width="73.9355" x="223.9648" y="76.4883"/><text fill="#FFFFFF" font-family="sans-serif" font-size="14" lengthAdjust="spacing" textLength="53.9355" x="233.9648" y="100.0234">Alerting</text><text fill="#000000" font-family="sans-serif" font-size="14" lengthAdjust="spacing" textLength="219.6523" x="350.9004" y="81.5352">Notify on schema drift detection</text><path d="M297.9004,94.7324 L307.9004,94.7324 C322.9004,94.7324 322.9004,76.2441 337.9004,76.2441 L347.9004,76.2441" fill="none" style="stroke:#0078D4;stroke-width:3;"/><text fill="#000000" font-family="sans-serif" font-size="14" lengthAdjust="spacing" textLength="225.8047" x="350.9004" y="100.0234">Even when handled automatically</text><path d="M297.9004,94.7324 L307.9004,94.7324 C322.9004,94.7324 322.9004,94.7324 337.9004,94.7324 L347.9004,94.7324" fill="none" style="stroke:#0078D4;stroke-width:3;"/><text fill="#000000" font-family="sans-serif" font-size="14" lengthAdjust="spacing" textLength="233.9053" x="350.9004" y="118.5117">Understand evolving data patterns</text><path d="M297.9004,94.7324 L307.9004,94.7324 C322.9004,94.7324 322.9004,113.2207 337.9004,113.2207 L347.9004,113.2207" fill="none" style="stroke:#0078D4;stroke-width:3;"/><path d="M173.9648,179.209 L183.9648,179.209 C198.9648,179.209 198.9648,94.7324 213.9648,94.7324 L223.9648,94.7324" fill="none" style="stroke:#FF5F46;stroke-width:3;"/><rect fill="#0078D4" height="36.4883" rx="12.5" ry="12.5" style="stroke:#0078D4;stroke-width:3;" width="161.4561" x="223.9648" y="132.9766"/><text fill="#FFFFFF" font-family="sans-serif" font-size="14" lengthAdjust="spacing" textLength="141.4561" x="233.9648" y="156.5117">Naming Conventions</text><text fill="#000000" font-family="sans-serif" font-size="14" lengthAdjust="spacing" textLength="183.7021" x="438.4209" y="138.0234">Standardize column names</text><path d="M385.4209,151.2207 L395.4209,151.2207 C410.4209,151.2207 410.4209,132.7324 425.4209,132.7324 L435.4209,132.7324" fill="none" style="stroke:#0078D4;stroke-width:3;"/><text fill="#000000" font-family="sans-serif" font-size="14" lengthAdjust="spacing" textLength="205.8027" x="438.4209" y="156.5117">Reduce case-sensitivity issues</text><path d="M385.4209,151.2207 L395.4209,151.2207 C410.4209,151.2207 410.4209,151.2207 425.4209,151.2207 L435.4209,151.2207" fill="none" style="stroke:#0078D4;stroke-width:3;"/><text fill="#000000" font-family="sans-serif" font-size="14" lengthAdjust="spacing" textLength="201.5645" x="438.4209" y="175">Predictable schema validation</text><path d="M385.4209,151.2207 L395.4209,151.2207 C410.4209,151.2207 410.4209,169.709 425.4209,169.709 L435.4209,169.709" fill="none" style="stroke:#0078D4;stroke-width:3;"/><path d="M173.9648,179.209 L183.9648,179.209 C198.9648,179.209 198.9648,151.2207 213.9648,151.2207 L223.9648,151.2207" fill="none" style="stroke:#FF5F46;stroke-width:3;"/><rect fill="#0078D4" height="36.4883" rx="12.5" ry="12.5" style="stroke:#0078D4;stroke-width:3;" width="70.4902" x="223.9648" y="189.4648"/><text fill="#FFFFFF" font-family="sans-serif" font-size="14" lengthAdjust="spacing" textLength="50.4902" x="233.9648" y="213">Testing</text><text fill="#000000" font-family="sans-serif" font-size="14" lengthAdjust="spacing" textLength="194.3662" x="347.4551" y="194.5117">Test schema handling in dev</text><path d="M294.4551,207.709 L304.4551,207.709 C319.4551,207.709 319.4551,189.2207 334.4551,189.2207 L344.4551,189.2207" fill="none" style="stroke:#0078D4;stroke-width:3;"/><text fill="#000000" font-family="sans-serif" font-size="14" lengthAdjust="spacing" textLength="171.3018" x="347.4551" y="213">Edge cases with test data</text><path d="M294.4551,207.709 L304.4551,207.709 C319.4551,207.709 319.4551,207.709 334.4551,207.709 L344.4551,207.709" fill="none" style="stroke:#0078D4;stroke-width:3;"/><text fill="#000000" font-family="sans-serif" font-size="14" lengthAdjust="spacing" textLength="216.1318" x="347.4551" y="231.4883">Verify before production deploy</text><path d="M294.4551,207.709 L304.4551,207.709 C319.4551,207.709 319.4551,226.1973 334.4551,226.1973 L344.4551,226.1973" fill="none" style="stroke:#0078D4;stroke-width:3;"/><path d="M173.9648,179.209 L183.9648,179.209 C198.9648,179.209 198.9648,207.709 213.9648,207.709 L223.9648,207.709" fill="none" style="stroke:#FF5F46;stroke-width:3;"/><rect fill="#0078D4" height="36.4883" rx="12.5" ry="12.5" style="stroke:#0078D4;stroke-width:3;" width="84.9551" x="223.9648" y="273.6855"/><text fill="#FFFFFF" font-family="sans-serif" font-size="14" lengthAdjust="spacing" textLength="64.9551" x="233.9648" y="297.2207">Tradeoffs</text><rect fill="#FFB900" height="36.4883" rx="12.5" ry="12.5" style="stroke:#FFB900;stroke-width:3;" width="145.1182" x="358.9199" y="245.4414"/><text fill="#000000" font-family="sans-serif" font-size="14" lengthAdjust="spacing" textLength="125.1182" x="368.9199" y="268.9766">Strict enforcement</text><text fill="#000000" font-family="sans-serif" font-size="14" lengthAdjust="spacing" textLength="158.9355" x="557.0381" y="259.7324">Catches problems early</text><path d="M504.0381,263.6855 L514.0381,263.6855 C529.0381,263.6855 529.0381,254.4414 544.0381,254.4414 L554.0381,254.4414" fill="none" style="stroke:#FFB900;stroke-width:3;"/><text fill="#000000" font-family="sans-serif" font-size="14" lengthAdjust="spacing" textLength="136.3633" x="557.0381" y="278.2207">Higher maintenance</text><path d="M504.0381,263.6855 L514.0381,263.6855 C529.0381,263.6855 529.0381,272.9297 544.0381,272.9297 L554.0381,272.9297" fill="none" style="stroke:#FFB900;stroke-width:3;"/><path d="M308.9199,291.9297 L318.9199,291.9297 C333.9199,291.9297 333.9199,263.6855 348.9199,263.6855 L358.9199,263.6855" fill="none" style="stroke:#0078D4;stroke-width:3;"/><rect fill="#FFB900" height="36.4883" rx="12.5" ry="12.5" style="stroke:#FFB900;stroke-width:3;" width="140.0254" x="358.9199" y="301.9297"/><text fill="#000000" font-family="sans-serif" font-size="14" lengthAdjust="spacing" textLength="120.0254" x="368.9199" y="325.4648">Flexible evolution</text><text fill="#000000" font-family="sans-serif" font-size="14" lengthAdjust="spacing" textLength="177.8232" x="551.9453" y="316.2207">Less operational overhead</text><path d="M498.9453,320.1738 L508.9453,320.1738 C523.9453,320.1738 523.9453,310.9297 538.9453,310.9297 L548.9453,310.9297" fill="none" style="stroke:#FFB900;stroke-width:3;"/><text fill="#000000" font-family="sans-serif" font-size="14" lengthAdjust="spacing" textLength="190.5928" x="551.9453" y="334.709">Risk of unexpected changes</text><path d="M498.9453,320.1738 L508.9453,320.1738 C523.9453,320.1738 523.9453,329.418 538.9453,329.418 L548.9453,329.418" fill="none" style="stroke:#FFB900;stroke-width:3;"/><path d="M308.9199,291.9297 L318.9199,291.9297 C333.9199,291.9297 333.9199,320.1738 348.9199,320.1738 L358.9199,320.1738" fill="none" style="stroke:#0078D4;stroke-width:3;"/><path d="M173.9648,179.209 L183.9648,179.209 C198.9648,179.209 198.9648,291.9297 213.9648,291.9297 L223.9648,291.9297" fill="none" style="stroke:#FF5F46;stroke-width:3;"/><?plantuml-src VLHDRzGm4BtdLup41LPYIPTIFbIXqYqh3gMgseKJ4fgr9ucrZXtPaxHBnNzdd8zMB5fyY9IPD_FUcx5y5Xa3ryRf6fliDFBEqiViWwQ6g-Vv2tZ8GCuvgcqPVElqqbiVuDbgzMPrVDBdBesZVwChxtYC5lrvnAuhexQEOeJNyppxFN4T7UJAyxVlBextkVQYVtVTKx3gpnFNuY1NKMpUv_a-rrxqlrnvVuHhu-zjmZmSH9o-6iSzWrjLKOtm5HsML9FZ7-wS8iDrGCL6KSncCxZmgaqvPEET16O_uPPz88XzTGJZeACG9GjA-8At0sejNRQ0rhio6atGc8Qi616KfW6oj8G10XKKo2c2GfIg2br9OEf6H2G1dom5DguSIguycs87GZRmWmwcOD34f9uKVkx8mLqb7-ccBMd0bdqj7XHQknj0tvmMtIm0eCxRJZX08oCqo4p1zVQli4xnfNVICX74QGPIXq6RNycGRMi73ciQipUaM_6ZCDBBI2uQDftX7PWOsmbp7KWRnRYnqooXGslqD6XOoouUVQUV2TPxIgfaz9gwqR8k1y88TuOhu5IGx0pfxnJIt3PKfDqrmOl0H2GD6kjtFLz0JRueUdrYC8Ww82S5ghyTAPoMXYmoOkeXqki8iiDXf9ByOigA0jHe79D3MMhVR6NftYIZQT3jj2V1NwRBwXiAlMkquEKkLOHwpD-Ok0LVGElelf4DooQ72nApCvBdOtn2igFv8b-Sp1T_0000?></g></svg>