<?plantuml 1.2026.2?><svg xmlns="http://www.w3.org/2000/svg" xmlns:xlink="http://www.w3.org/1999/xlink" contentStyleType="text/css" data-diagram-type="MINDMAP" height="299px" preserveAspectRatio="none" style="width:729px;height:299px;background:#FFFFFF;" version="1.1" viewBox="0 0 729 299" width="729px" zoomAndPan="magnify"><defs/><g><rect fill="#FF5F46" height="52.9766" rx="12.5" ry="12.5" style="stroke:#FF5F46;stroke-width:3;" width="141.0508" x="10" y="122.4297"/><text fill="#FFFFFF" font-family="sans-serif" font-size="14" lengthAdjust="spacing" textLength="121.0508" x="20" y="145.9648">Detect &amp; Respond</text><text fill="#FFFFFF" font-family="sans-serif" font-size="14" lengthAdjust="spacing" textLength="105.3418" x="20" y="162.4531">to Schema Drift</text><rect fill="#0078D4" height="36.4883" rx="12.5" ry="12.5" style="stroke:#0078D4;stroke-width:3;" width="134.6182" x="201.0508" y="28.7324"/><text fill="#FFFFFF" font-family="sans-serif" font-size="14" lengthAdjust="spacing" textLength="114.6182" x="211.0508" y="52.2676">Fail on Mismatch</text><text fill="#000000" font-family="sans-serif" font-size="14" lengthAdjust="spacing" textLength="122.4316" x="388.6689" y="24.5352">strictest approach</text><path d="M335.6689,46.9766 L345.6689,46.9766 C360.6689,46.9766 360.6689,19.2441 375.6689,19.2441 L385.6689,19.2441" fill="none" style="stroke:#0078D4;stroke-width:3;"/><text fill="#000000" font-family="sans-serif" font-size="14" lengthAdjust="spacing" textLength="220.9922" x="388.6689" y="43.0234">Auto Loader: failOnNewColumns</text><path d="M335.6689,46.9766 L345.6689,46.9766 C360.6689,46.9766 360.6689,37.7324 375.6689,37.7324 L385.6689,37.7324" fill="none" style="stroke:#0078D4;stroke-width:3;"/><text fill="#000000" font-family="sans-serif" font-size="14" lengthAdjust="spacing" textLength="207.7578" x="388.6689" y="61.5117">UnknownFieldException raised</text><path d="M335.6689,46.9766 L345.6689,46.9766 C360.6689,46.9766 360.6689,56.2207 375.6689,56.2207 L385.6689,56.2207" fill="none" style="stroke:#0078D4;stroke-width:3;"/><text fill="#000000" font-family="sans-serif" font-size="14" lengthAdjust="spacing" textLength="158.6279" x="388.6689" y="80">Manual review required</text><path d="M335.6689,46.9766 L345.6689,46.9766 C360.6689,46.9766 360.6689,74.709 375.6689,74.709 L385.6689,74.709" fill="none" style="stroke:#0078D4;stroke-width:3;"/><path d="M151.0508,148.918 L161.0508,148.918 C176.0508,148.918 176.0508,46.9766 191.0508,46.9766 L201.0508,46.9766" fill="none" style="stroke:#FF5F46;stroke-width:3;"/><rect fill="#0078D4" height="36.4883" rx="12.5" ry="12.5" style="stroke:#0078D4;stroke-width:3;" width="231.3125" x="201.0508" y="102.6855"/><text fill="#FFFFFF" font-family="sans-serif" font-size="14" lengthAdjust="spacing" textLength="211.3125" x="211.0508" y="126.2207">Auto-adapt (Schema Evolution)</text><text fill="#000000" font-family="sans-serif" font-size="14" lengthAdjust="spacing" textLength="191.1875" x="485.3633" y="98.4883">mergeSchema: true on write</text><path d="M432.3633,120.9297 L442.3633,120.9297 C457.3633,120.9297 457.3633,93.1973 472.3633,93.1973 L482.3633,93.1973" fill="none" style="stroke:#0078D4;stroke-width:3;"/><text fill="#000000" font-family="sans-serif" font-size="14" lengthAdjust="spacing" textLength="232.2373" x="485.3633" y="116.9766">New columns added automatically</text><path d="M432.3633,120.9297 L442.3633,120.9297 C457.3633,120.9297 457.3633,111.6855 472.3633,111.6855 L482.3633,111.6855" fill="none" style="stroke:#0078D4;stroke-width:3;"/><text fill="#000000" font-family="sans-serif" font-size="14" lengthAdjust="spacing" textLength="230.3506" x="485.3633" y="135.4648">MERGE WITH SCHEMA EVOLUTION</text><path d="M432.3633,120.9297 L442.3633,120.9297 C457.3633,120.9297 457.3633,130.1738 472.3633,130.1738 L482.3633,130.1738" fill="none" style="stroke:#0078D4;stroke-width:3;"/><text fill="#000000" font-family="sans-serif" font-size="14" lengthAdjust="spacing" textLength="195.7949" x="485.3633" y="153.9531">For predictable new columns</text><path d="M432.3633,120.9297 L442.3633,120.9297 C457.3633,120.9297 457.3633,148.6621 472.3633,148.6621 L482.3633,148.6621" fill="none" style="stroke:#0078D4;stroke-width:3;"/><path d="M151.0508,148.918 L161.0508,148.918 C176.0508,148.918 176.0508,120.9297 191.0508,120.9297 L201.0508,120.9297" fill="none" style="stroke:#FF5F46;stroke-width:3;"/><rect fill="#0078D4" height="36.4883" rx="12.5" ry="12.5" style="stroke:#0078D4;stroke-width:3;" width="187.8975" x="201.0508" y="176.6387"/><text fill="#FFFFFF" font-family="sans-serif" font-size="14" lengthAdjust="spacing" textLength="167.8975" x="211.0508" y="200.1738">Rescue Unexpected Data</text><text fill="#000000" font-family="sans-serif" font-size="14" lengthAdjust="spacing" textLength="204.791" x="441.9482" y="172.4414">schemaEvolutionMode: rescue</text><path d="M388.9482,194.8828 L398.9482,194.8828 C413.9482,194.8828 413.9482,167.1504 428.9482,167.1504 L438.9482,167.1504" fill="none" style="stroke:#0078D4;stroke-width:3;"/><text fill="#000000" font-family="sans-serif" font-size="14" lengthAdjust="spacing" textLength="188.8838" x="441.9482" y="190.9297">_rescued_data JSON column</text><path d="M388.9482,194.8828 L398.9482,194.8828 C413.9482,194.8828 413.9482,185.6387 428.9482,185.6387 L438.9482,185.6387" fill="none" style="stroke:#0078D4;stroke-width:3;"/><text fill="#000000" font-family="sans-serif" font-size="14" lengthAdjust="spacing" textLength="221.8467" x="441.9482" y="209.418">Pipeline continues uninterrupted</text><path d="M388.9482,194.8828 L398.9482,194.8828 C413.9482,194.8828 413.9482,204.127 428.9482,204.127 L438.9482,204.127" fill="none" style="stroke:#0078D4;stroke-width:3;"/><text fill="#000000" font-family="sans-serif" font-size="14" lengthAdjust="spacing" textLength="173.7559" x="441.9482" y="227.9063">Analyze mismatches later</text><path d="M388.9482,194.8828 L398.9482,194.8828 C413.9482,194.8828 413.9482,222.6152 428.9482,222.6152 L438.9482,222.6152" fill="none" style="stroke:#0078D4;stroke-width:3;"/><path d="M151.0508,148.918 L161.0508,148.918 C176.0508,148.918 176.0508,194.8828 191.0508,194.8828 L201.0508,194.8828" fill="none" style="stroke:#FF5F46;stroke-width:3;"/><rect fill="#0078D4" height="36.4883" rx="12.5" ry="12.5" style="stroke:#0078D4;stroke-width:3;" width="160.5742" x="201.0508" y="241.3477"/><text fill="#FFFFFF" font-family="sans-serif" font-size="14" lengthAdjust="spacing" textLength="140.5742" x="211.0508" y="264.8828">Auto Loader Options</text><text fill="#000000" font-family="sans-serif" font-size="14" lengthAdjust="spacing" textLength="223.8906" x="414.625" y="246.3945">cloudFiles.schemaEvolutionMode</text><path d="M361.625,259.5918 L371.625,259.5918 C386.625,259.5918 386.625,241.1035 401.625,241.1035 L411.625,241.1035" fill="none" style="stroke:#0078D4;stroke-width:3;"/><text fill="#000000" font-family="sans-serif" font-size="14" lengthAdjust="spacing" textLength="235.9834" x="414.625" y="264.8828">Values: failOnNewColumns, rescue</text><path d="M361.625,259.5918 L371.625,259.5918 C386.625,259.5918 386.625,259.5918 401.625,259.5918 L411.625,259.5918" fill="none" style="stroke:#0078D4;stroke-width:3;"/><text fill="#000000" font-family="sans-serif" font-size="14" lengthAdjust="spacing" textLength="170.9805" x="414.625" y="283.3711">schemaLocation required</text><path d="M361.625,259.5918 L371.625,259.5918 C386.625,259.5918 386.625,278.0801 401.625,278.0801 L411.625,278.0801" fill="none" style="stroke:#0078D4;stroke-width:3;"/><path d="M151.0508,148.918 L161.0508,148.918 C176.0508,148.918 176.0508,259.5918 191.0508,259.5918 L201.0508,259.5918" fill="none" style="stroke:#FF5F46;stroke-width:3;"/><?plantuml-src VLDTRzD047pthrW92RKH13UK0b656XgR5kK3DKbvGOesTvlcbFETUput2HN_dOtFQTMKSY-MTsTdvcRjiyAZyvaoCiCyEYtyHjENg2qfzuk3-13k8-3p5SNonjdIo7EhhODNQVeXFJwfUZrbw7arjSRNrNbr7h3ZXH9BGqK1xvjnz6UdTVIYLXn__DGztjVQgpvbtNEGLkTHg_MYrdm--np7-rfxrVzgnTLXhPbTwotc_aN4wRiwxWPqoPFmy1gkgCYjaR-Cjp0I2yeGkaxDVTHeG8fAWpNGLqM6NYourfX2uPqIdWeFcEVEugxUAPcYPr6IQyESHuTcG2lsK6Qc2929MHgxCgaYBPEru6mKqpjK1Sc0wACfKOEZEqKhVjoMobMzYlujIimz7DH6apictr8SXk6Ct0s5NXkyAsbhVkMKfz1dEo227q0fIG8oALzD2THwKpj8hhubyFDoV06Zyukatu7aUjYRZ2-7Wm18ETESJN48EDC4vf5rwvC35QmyCRJEEM8MwQB7EhhAsuFjlfNKvajk1m9W6bxaLF8CV1yD1pLrQFzGEMd-8BXel38b5L0QPJmvL-P-bs77eDxy9iZgjJ5A8sDsATPBWc4LVxqQeMqfKyLVKFCVBWFc6ZLBFb_kcoTt2ECzAp1iTxV3C-9_llxlewDcAswTD5j_0G00?></g></svg>