<?plantuml 1.2026.2?><svg xmlns="http://www.w3.org/2000/svg" xmlns:xlink="http://www.w3.org/1999/xlink" contentStyleType="text/css" data-diagram-type="MINDMAP" height="299px" preserveAspectRatio="none" style="width:640px;height:299px;background:#FFFFFF;" version="1.1" viewBox="0 0 640 299" width="640px" zoomAndPan="magnify"><defs/><g><rect fill="#FF5F46" height="52.9766" rx="12.5" ry="12.5" style="stroke:#FF5F46;stroke-width:3;" width="118.834" x="10" y="122.4297"/><text fill="#FFFFFF" font-family="sans-serif" font-size="14" lengthAdjust="spacing" textLength="98.834" x="20" y="145.9648">Error Handling</text><text fill="#FFFFFF" font-family="sans-serif" font-size="14" lengthAdjust="spacing" textLength="66.9854" x="20" y="162.4531">Strategies</text><rect fill="#0078D4" height="36.4883" rx="12.5" ry="12.5" style="stroke:#0078D4;stroke-width:3;" width="161.1895" x="178.834" y="20"/><text fill="#FFFFFF" font-family="sans-serif" font-size="14" lengthAdjust="spacing" textLength="141.1895" x="188.834" y="43.5352">Drop Invalid Records</text><text fill="#000000" font-family="sans-serif" font-size="14" lengthAdjust="spacing" textLength="188.4668" x="393.0234" y="25.0469">expect_or_drop in pipelines</text><path d="M340.0234,38.2441 L350.0234,38.2441 C365.0234,38.2441 365.0234,19.7559 380.0234,19.7559 L390.0234,19.7559" fill="none" style="stroke:#0078D4;stroke-width:3;"/><text fill="#000000" font-family="sans-serif" font-size="14" lengthAdjust="spacing" textLength="215.3252" x="393.0234" y="43.5352">Filter missing required columns</text><path d="M340.0234,38.2441 L350.0234,38.2441 C365.0234,38.2441 365.0234,38.2441 380.0234,38.2441 L390.0234,38.2441" fill="none" style="stroke:#0078D4;stroke-width:3;"/><text fill="#000000" font-family="sans-serif" font-size="14" lengthAdjust="spacing" textLength="135.8027" x="393.0234" y="62.0234">Tracks drop metrics</text><path d="M340.0234,38.2441 L350.0234,38.2441 C365.0234,38.2441 365.0234,56.7324 380.0234,56.7324 L390.0234,56.7324" fill="none" style="stroke:#0078D4;stroke-width:3;"/><path d="M128.834,148.918 L138.834,148.918 C153.834,148.918 153.834,38.2441 168.834,38.2441 L178.834,38.2441" fill="none" style="stroke:#FF5F46;stroke-width:3;"/><rect fill="#0078D4" height="36.4883" rx="12.5" ry="12.5" style="stroke:#0078D4;stroke-width:3;" width="188.8887" x="178.834" y="84.709"/><text fill="#FFFFFF" font-family="sans-serif" font-size="14" lengthAdjust="spacing" textLength="168.8887" x="188.834" y="108.2441">Fail on Critical Violations</text><text fill="#000000" font-family="sans-serif" font-size="14" lengthAdjust="spacing" textLength="192.4863" x="420.7227" y="80.5117">ON VIOLATION FAIL UPDATE</text><path d="M367.7227,102.9531 L377.7227,102.9531 C392.7227,102.9531 392.7227,75.2207 407.7227,75.2207 L417.7227,75.2207" fill="none" style="stroke:#0078D4;stroke-width:3;"/><text fill="#000000" font-family="sans-serif" font-size="14" lengthAdjust="spacing" textLength="183.21" x="420.7227" y="99">Stops pipeline immediately</text><path d="M367.7227,102.9531 L377.7227,102.9531 C392.7227,102.9531 392.7227,93.709 407.7227,93.709 L417.7227,93.709" fill="none" style="stroke:#0078D4;stroke-width:3;"/><text fill="#000000" font-family="sans-serif" font-size="14" lengthAdjust="spacing" textLength="208.2432" x="420.7227" y="117.4883">Prevents bad data propagation</text><path d="M367.7227,102.9531 L377.7227,102.9531 C392.7227,102.9531 392.7227,112.1973 407.7227,112.1973 L417.7227,112.1973" fill="none" style="stroke:#0078D4;stroke-width:3;"/><text fill="#000000" font-family="sans-serif" font-size="14" lengthAdjust="spacing" textLength="199.2881" x="420.7227" y="135.9766">For structural integrity issues</text><path d="M367.7227,102.9531 L377.7227,102.9531 C392.7227,102.9531 392.7227,130.6855 407.7227,130.6855 L417.7227,130.6855" fill="none" style="stroke:#0078D4;stroke-width:3;"/><path d="M128.834,148.918 L138.834,148.918 C153.834,148.918 153.834,102.9531 168.834,102.9531 L178.834,102.9531" fill="none" style="stroke:#FF5F46;stroke-width:3;"/><rect fill="#0078D4" height="36.4883" rx="12.5" ry="12.5" style="stroke:#0078D4;stroke-width:3;" width="147.8047" x="178.834" y="158.6621"/><text fill="#FFFFFF" font-family="sans-serif" font-size="14" lengthAdjust="spacing" textLength="127.8047" x="188.834" y="182.1973">Quarantine Pattern</text><text fill="#000000" font-family="sans-serif" font-size="14" lengthAdjust="spacing" textLength="243.0928" x="379.6387" y="154.4648">Route bad records to separate table</text><path d="M326.6387,176.9063 L336.6387,176.9063 C351.6387,176.9063 351.6387,149.1738 366.6387,149.1738 L376.6387,149.1738" fill="none" style="stroke:#0078D4;stroke-width:3;"/><text fill="#000000" font-family="sans-serif" font-size="14" lengthAdjust="spacing" textLength="211.2441" x="379.6387" y="172.9531">Valid records continue to silver</text><path d="M326.6387,176.9063 L336.6387,176.9063 C351.6387,176.9063 351.6387,167.6621 366.6387,167.6621 L376.6387,167.6621" fill="none" style="stroke:#0078D4;stroke-width:3;"/><text fill="#000000" font-family="sans-serif" font-size="14" lengthAdjust="spacing" textLength="233.9121" x="379.6387" y="191.4414">Invalid records to quarantine table</text><path d="M326.6387,176.9063 L336.6387,176.9063 C351.6387,176.9063 351.6387,186.1504 366.6387,186.1504 L376.6387,186.1504" fill="none" style="stroke:#0078D4;stroke-width:3;"/><text fill="#000000" font-family="sans-serif" font-size="14" lengthAdjust="spacing" textLength="225.1143" x="379.6387" y="209.9297">Investigate without blocking flow</text><path d="M326.6387,176.9063 L336.6387,176.9063 C351.6387,176.9063 351.6387,204.6387 366.6387,204.6387 L376.6387,204.6387" fill="none" style="stroke:#0078D4;stroke-width:3;"/><path d="M128.834,148.918 L138.834,148.918 C153.834,148.918 153.834,176.9063 168.834,176.9063 L178.834,176.9063" fill="none" style="stroke:#FF5F46;stroke-width:3;"/><rect fill="#0078D4" height="36.4883" rx="12.5" ry="12.5" style="stroke:#0078D4;stroke-width:3;" width="73.9082" x="178.834" y="232.6152"/><text fill="#FFFFFF" font-family="sans-serif" font-size="14" lengthAdjust="spacing" textLength="53.9082" x="188.834" y="256.1504">Benefits</text><text fill="#000000" font-family="sans-serif" font-size="14" lengthAdjust="spacing" textLength="145.667" x="305.7422" y="228.418">Data quality enforced</text><path d="M252.7422,250.8594 L262.7422,250.8594 C277.7422,250.8594 277.7422,223.127 292.7422,223.127 L302.7422,223.127" fill="none" style="stroke:#0078D4;stroke-width:3;"/><text fill="#000000" font-family="sans-serif" font-size="14" lengthAdjust="spacing" textLength="115.083" x="305.7422" y="246.9063">No silent failures</text><path d="M252.7422,250.8594 L262.7422,250.8594 C277.7422,250.8594 277.7422,241.6152 292.7422,241.6152 L302.7422,241.6152" fill="none" style="stroke:#0078D4;stroke-width:3;"/><text fill="#000000" font-family="sans-serif" font-size="14" lengthAdjust="spacing" textLength="158.252" x="305.7422" y="265.3945">Auditable error records</text><path d="M252.7422,250.8594 L262.7422,250.8594 C277.7422,250.8594 277.7422,260.1035 292.7422,260.1035 L302.7422,260.1035" fill="none" style="stroke:#0078D4;stroke-width:3;"/><text fill="#000000" font-family="sans-serif" font-size="14" lengthAdjust="spacing" textLength="146.8564" x="305.7422" y="283.8828">Operational flexibility</text><path d="M252.7422,250.8594 L262.7422,250.8594 C277.7422,250.8594 277.7422,278.5918 292.7422,278.5918 L302.7422,278.5918" fill="none" style="stroke:#0078D4;stroke-width:3;"/><path d="M128.834,148.918 L138.834,148.918 C153.834,148.918 153.834,250.8594 168.834,250.8594 L178.834,250.8594" fill="none" style="stroke:#FF5F46;stroke-width:3;"/><?plantuml-src VLDTJnin47o_Nx5INzeyq2Ebz4Ee8X1EZOI0GfgdIf5ptWihVFQnteD4gF-zjky2QIgwJwVTySpis7ViHR7KP7Mjckp8ozhWj-ohnaPkt-Rlu2c3K2Ugl5koQwq-TSOnl2cAZyN1OPgTayL_kuMpqdUhLC_OwIsLTnQzXmzxUVPxexN_gbQUV_eyFjZLskd-pRhZe4ZreZLyLQkg5b_oV5Thf_jVhJnLq5gubOcOfrSHH-_xk0TmnXn6tvNLXkpobxqHLe9BGfyD1Z1cry34FYX36gwnTAnZVp07N3LOojpnN4SCMMYemS21FQ0W8yXGa_U161ZlMsBKK3hJrhO7JJdau25Hr2XCPP8j51bm5awPX4fbO4REA26tENTv0RF9vVbeEWbVnMXo3Z-lngFfMJUz4TVuPpz0TOsQmbPctSsl61_GYeU5qg2LA6Y20RLC2htx48eNRajfEUYJ3Pa4Csi8wxHTDZzQnSfALBXI4dRjZrwxLZ1HSnSOY0EFZOh1WgY5mGuuIwbkGAMBN2qcD9a7v0wrIN-BxFv5UOik0D4BBQFA8ybji04Buygx67zbt6CqVO8MAv8-nd7SFR2Pk1dQod69kXjT91SX9QZ2PRIykTPHgoc90gQNmzkFuh91JY66o2g3ArfGfCwECVpb_P-UxUyDy-7Xtl0F?></g></svg>