<?plantuml 1.2026.2?><svg xmlns="http://www.w3.org/2000/svg" xmlns:xlink="http://www.w3.org/1999/xlink" contentStyleType="text/css" data-diagram-type="MINDMAP" height="378px" preserveAspectRatio="none" style="width:716px;height:378px;background:#FFFFFF;" version="1.1" viewBox="0 0 716 378" width="716px" zoomAndPan="magnify"><defs/><g><rect fill="#FF5F46" height="52.9766" rx="12.5" ry="12.5" style="stroke:#FF5F46;stroke-width:3;" width="107.0762" x="10" y="161.709"/><text fill="#FFFFFF" font-family="sans-serif" font-size="14" lengthAdjust="spacing" textLength="87.0762" x="20" y="185.2441">Schema Drift</text><text fill="#FFFFFF" font-family="sans-serif" font-size="14" lengthAdjust="spacing" textLength="74.3545" x="20" y="201.7324">Challenges</text><rect fill="#0078D4" height="36.4883" rx="12.5" ry="12.5" style="stroke:#0078D4;stroke-width:3;" width="160.752" x="167.0762" y="28.7324"/><text fill="#FFFFFF" font-family="sans-serif" font-size="14" lengthAdjust="spacing" textLength="140.752" x="177.0762" y="52.2676">What is Schema Drift</text><text fill="#000000" font-family="sans-serif" font-size="14" lengthAdjust="spacing" textLength="240.1328" x="380.8281" y="24.5352">Source structure changes over time</text><path d="M327.8281,46.9766 L337.8281,46.9766 C352.8281,46.9766 352.8281,19.2441 367.8281,19.2441 L377.8281,19.2441" fill="none" style="stroke:#0078D4;stroke-width:3;"/><text fill="#000000" font-family="sans-serif" font-size="14" lengthAdjust="spacing" textLength="141.8047" x="380.8281" y="43.0234">New columns appear</text><path d="M327.8281,46.9766 L337.8281,46.9766 C352.8281,46.9766 352.8281,37.7324 367.8281,37.7324 L377.8281,37.7324" fill="none" style="stroke:#0078D4;stroke-width:3;"/><text fill="#000000" font-family="sans-serif" font-size="14" lengthAdjust="spacing" textLength="190.374" x="380.8281" y="61.5117">Columns removed/renamed</text><path d="M327.8281,46.9766 L337.8281,46.9766 C352.8281,46.9766 352.8281,56.2207 367.8281,56.2207 L377.8281,56.2207" fill="none" style="stroke:#0078D4;stroke-width:3;"/><text fill="#000000" font-family="sans-serif" font-size="14" lengthAdjust="spacing" textLength="207.5527" x="380.8281" y="80">Independent of type validation</text><path d="M327.8281,46.9766 L337.8281,46.9766 C352.8281,46.9766 352.8281,74.709 367.8281,74.709 L377.8281,74.709" fill="none" style="stroke:#0078D4;stroke-width:3;"/><path d="M117.0762,188.1973 L127.0762,188.1973 C142.0762,188.1973 142.0762,46.9766 157.0762,46.9766 L167.0762,46.9766" fill="none" style="stroke:#FF5F46;stroke-width:3;"/><rect fill="#0078D4" height="36.4883" rx="12.5" ry="12.5" style="stroke:#0078D4;stroke-width:3;" width="206.7988" x="167.0762" y="93.9531"/><text fill="#FFFFFF" font-family="sans-serif" font-size="14" lengthAdjust="spacing" textLength="186.7988" x="177.0762" y="117.4883">Delta Lake Default Behavior</text><text fill="#000000" font-family="sans-serif" font-size="14" lengthAdjust="spacing" textLength="276.0557" x="426.875" y="99">Schema enforcement blocks mismatches</text><path d="M373.875,112.1973 L383.875,112.1973 C398.875,112.1973 398.875,93.709 413.875,93.709 L423.875,93.709" fill="none" style="stroke:#0078D4;stroke-width:3;"/><text fill="#000000" font-family="sans-serif" font-size="14" lengthAdjust="spacing" textLength="182.5811" x="426.875" y="117.4883">Write fails on new columns</text><path d="M373.875,112.1973 L383.875,112.1973 C398.875,112.1973 398.875,112.1973 413.875,112.1973 L423.875,112.1973" fill="none" style="stroke:#0078D4;stroke-width:3;"/><text fill="#000000" font-family="sans-serif" font-size="14" lengthAdjust="spacing" textLength="162.0254" x="426.875" y="135.9766">Fail-fast protects tables</text><path d="M373.875,112.1973 L383.875,112.1973 C398.875,112.1973 398.875,130.6855 413.875,130.6855 L423.875,130.6855" fill="none" style="stroke:#0078D4;stroke-width:3;"/><path d="M117.0762,188.1973 L127.0762,188.1973 C142.0762,188.1973 142.0762,112.1973 157.0762,112.1973 L167.0762,112.1973" fill="none" style="stroke:#FF5F46;stroke-width:3;"/><rect fill="#0078D4" height="36.4883" rx="12.5" ry="12.5" style="stroke:#0078D4;stroke-width:3;" width="84.4424" x="167.0762" y="206.9297"/><text fill="#FFFFFF" font-family="sans-serif" font-size="14" lengthAdjust="spacing" textLength="64.4424" x="177.0762" y="230.4648">Scenarios</text><rect fill="#FFB900" height="36.4883" rx="12.5" ry="12.5" style="stroke:#FFB900;stroke-width:3;" width="150.0195" x="301.5186" y="150.4414"/><text fill="#000000" font-family="sans-serif" font-size="14" lengthAdjust="spacing" textLength="130.0195" x="311.5186" y="173.9766">New column added</text><text fill="#000000" font-family="sans-serif" font-size="14" lengthAdjust="spacing" textLength="189.2529" x="504.5381" y="164.7324">Source adds phone_number</text><path d="M451.5381,168.6855 L461.5381,168.6855 C476.5381,168.6855 476.5381,159.4414 491.5381,159.4414 L501.5381,159.4414" fill="none" style="stroke:#FFB900;stroke-width:3;"/><text fill="#000000" font-family="sans-serif" font-size="14" lengthAdjust="spacing" textLength="171.5889" x="504.5381" y="183.2207">Write fails, pipeline stops</text><path d="M451.5381,168.6855 L461.5381,168.6855 C476.5381,168.6855 476.5381,177.9297 491.5381,177.9297 L501.5381,177.9297" fill="none" style="stroke:#FFB900;stroke-width:3;"/><path d="M251.5186,225.1738 L261.5186,225.1738 C276.5186,225.1738 276.5186,168.6855 291.5186,168.6855 L301.5186,168.6855" fill="none" style="stroke:#0078D4;stroke-width:3;"/><rect fill="#FFB900" height="36.4883" rx="12.5" ry="12.5" style="stroke:#FFB900;stroke-width:3;" width="136.2656" x="301.5186" y="206.9297"/><text fill="#000000" font-family="sans-serif" font-size="14" lengthAdjust="spacing" textLength="116.2656" x="311.5186" y="230.4648">Column removed</text><text fill="#000000" font-family="sans-serif" font-size="14" lengthAdjust="spacing" textLength="213.917" x="490.7842" y="230.4648">Missing fields may cause errors</text><path d="M437.7842,225.1738 L447.7842,225.1738 C462.7842,225.1738 462.7842,225.1738 477.7842,225.1738 L487.7842,225.1738" fill="none" style="stroke:#FFB900;stroke-width:3;"/><path d="M251.5186,225.1738 L261.5186,225.1738 C276.5186,225.1738 276.5186,225.1738 291.5186,225.1738 L301.5186,225.1738" fill="none" style="stroke:#0078D4;stroke-width:3;"/><rect fill="#FFB900" height="36.4883" rx="12.5" ry="12.5" style="stroke:#FFB900;stroke-width:3;" width="136.8398" x="301.5186" y="263.418"/><text fill="#000000" font-family="sans-serif" font-size="14" lengthAdjust="spacing" textLength="116.8398" x="311.5186" y="286.9531">Column renamed</text><text fill="#000000" font-family="sans-serif" font-size="14" lengthAdjust="spacing" textLength="141.6475" x="491.3584" y="286.9531">Old references break</text><path d="M438.3584,281.6621 L448.3584,281.6621 C463.3584,281.6621 463.3584,281.6621 478.3584,281.6621 L488.3584,281.6621" fill="none" style="stroke:#FFB900;stroke-width:3;"/><path d="M251.5186,225.1738 L261.5186,225.1738 C276.5186,225.1738 276.5186,281.6621 291.5186,281.6621 L301.5186,281.6621" fill="none" style="stroke:#0078D4;stroke-width:3;"/><path d="M117.0762,188.1973 L127.0762,188.1973 C142.0762,188.1973 142.0762,225.1738 157.0762,225.1738 L167.0762,225.1738" fill="none" style="stroke:#FF5F46;stroke-width:3;"/><rect fill="#0078D4" height="36.4883" rx="12.5" ry="12.5" style="stroke:#0078D4;stroke-width:3;" width="138.4053" x="167.0762" y="319.9063"/><text fill="#FFFFFF" font-family="sans-serif" font-size="14" lengthAdjust="spacing" textLength="118.4053" x="177.0762" y="343.4414">Need for Strategy</text><text fill="#000000" font-family="sans-serif" font-size="14" lengthAdjust="spacing" textLength="54.8311" x="358.4814" y="324.9531">Reject it</text><path d="M305.4814,338.1504 L315.4814,338.1504 C330.4814,338.1504 330.4814,319.6621 345.4814,319.6621 L355.4814,319.6621" fill="none" style="stroke:#0078D4;stroke-width:3;"/><text fill="#000000" font-family="sans-serif" font-size="14" lengthAdjust="spacing" textLength="72.2285" x="358.4814" y="343.4414">Adapt to it</text><path d="M305.4814,338.1504 L315.4814,338.1504 C330.4814,338.1504 330.4814,338.1504 345.4814,338.1504 L355.4814,338.1504" fill="none" style="stroke:#0078D4;stroke-width:3;"/><text fill="#000000" font-family="sans-serif" font-size="14" lengthAdjust="spacing" textLength="174.1182" x="358.4814" y="361.9297">Preserve for later analysis</text><path d="M305.4814,338.1504 L315.4814,338.1504 C330.4814,338.1504 330.4814,356.6387 345.4814,356.6387 L355.4814,356.6387" fill="none" style="stroke:#0078D4;stroke-width:3;"/><path d="M117.0762,188.1973 L127.0762,188.1973 C142.0762,188.1973 142.0762,338.1504 157.0762,338.1504 L167.0762,338.1504" fill="none" style="stroke:#FF5F46;stroke-width:3;"/><?plantuml-src VLFRQjj047tNLmpqfJMjexXfUY6KD3Q2GdgXBkIb44QhaRNrtjWTkJMX_zwn9Dk9IZeFYpXpEMVEeCl46DbgLraCsKNYhQ7tsRkA0ZTFysTmbu745QhrAlhMLNDlV8GdHV6gE3llSjVQqRzeuHqFQDt5eVPxezNQKKhmSffdV_PSfuzovVdhDukpCTS8VJXrfA3euiWrUvIhhiktUJxc6g7_vSgx4AxI_pQxchj7AovE1hidi5GDMOH5r3N_SFC6ZI6tefHD9d3J88DE3se4dzp2qhTH4IIEhU8s4gW6TrtWDnI1jQM-xZFz0kLDQrq2384mzlXym29PwQXE8ZcqLFN9ZqxC8daSWw-1ju5WWqPNoDgxdR056KQunZN9PusjORYY1ZVQ3_C7nUHgBphjRb9fl5edi3fPP4cdll8cQYQeKHiHxy0T1VVvGZ8lQamC8NecnGaOIzCRj5IYEshVrTvR5h2g-csENWcK83JUqQrhRKbnIDyJy1o23cJaqEAi3_tKtggzKqFJ9vsITYkeDHaPQt4B2jj4G37wE6eyM2kDNqmbI4s2AZbN6GdNMQUTAX2pOCaHcLRRVljlz5DM1ZsS_KE5WO7z0VWQAL7SKDTgf342EZJRf5DsAIVS_zxPwNIMpywdixy0?></g></svg>