<?plantuml 1.2026.2?><svg xmlns="http://www.w3.org/2000/svg" xmlns:xlink="http://www.w3.org/1999/xlink" contentStyleType="text/css" data-diagram-type="MINDMAP" height="281px" preserveAspectRatio="none" style="width:680px;height:281px;background:#FFFFFF;" version="1.1" viewBox="0 0 680 281" width="680px" zoomAndPan="magnify"><defs/><g><rect fill="#FF5F46" height="52.9766" rx="12.5" ry="12.5" style="stroke:#FF5F46;stroke-width:3;" width="106.6318" x="10" y="113.4414"/><text fill="#FFFFFF" font-family="sans-serif" font-size="14" lengthAdjust="spacing" textLength="54.7354" x="20" y="136.9766">Multiple</text><text fill="#FFFFFF" font-family="sans-serif" font-size="14" lengthAdjust="spacing" textLength="86.6318" x="20" y="153.4648">Expectations</text><rect fill="#0078D4" height="36.4883" rx="12.5" ry="12.5" style="stroke:#0078D4;stroke-width:3;" width="189.6338" x="166.6318" y="20"/><text fill="#FFFFFF" font-family="sans-serif" font-size="14" lengthAdjust="spacing" textLength="169.6338" x="176.6318" y="43.5352">Python: Stack Decorators</text><text fill="#000000" font-family="sans-serif" font-size="14" lengthAdjust="spacing" textLength="215.6123" x="409.2656" y="25.0469">Multiple @dp.expect decorators</text><path d="M356.2656,38.2441 L366.2656,38.2441 C381.2656,38.2441 381.2656,19.7559 396.2656,19.7559 L406.2656,19.7559" fill="none" style="stroke:#0078D4;stroke-width:3;"/><text fill="#000000" font-family="sans-serif" font-size="14" lengthAdjust="spacing" textLength="177.6729" x="409.2656" y="43.5352">Separate rules per column</text><path d="M356.2656,38.2441 L366.2656,38.2441 C381.2656,38.2441 381.2656,38.2441 396.2656,38.2441 L406.2656,38.2441" fill="none" style="stroke:#0078D4;stroke-width:3;"/><text fill="#000000" font-family="sans-serif" font-size="14" lengthAdjust="spacing" textLength="170.584" x="409.2656" y="62.0234">Different actions per rule</text><path d="M356.2656,38.2441 L366.2656,38.2441 C381.2656,38.2441 381.2656,56.7324 396.2656,56.7324 L406.2656,56.7324" fill="none" style="stroke:#0078D4;stroke-width:3;"/><path d="M116.6318,139.9297 L126.6318,139.9297 C141.6318,139.9297 141.6318,38.2441 156.6318,38.2441 L166.6318,38.2441" fill="none" style="stroke:#FF5F46;stroke-width:3;"/><rect fill="#0078D4" height="36.4883" rx="12.5" ry="12.5" style="stroke:#0078D4;stroke-width:3;" width="197.6865" x="166.6318" y="84.709"/><text fill="#FFFFFF" font-family="sans-serif" font-size="14" lengthAdjust="spacing" textLength="177.6865" x="176.6318" y="108.2441">Python: Dictionary Groups</text><text fill="#000000" font-family="sans-serif" font-size="14" lengthAdjust="spacing" textLength="130.792" x="417.3184" y="80.5117">Define rules as dict</text><path d="M364.3184,102.9531 L374.3184,102.9531 C389.3184,102.9531 389.3184,75.2207 404.3184,75.2207 L414.3184,75.2207" fill="none" style="stroke:#0078D4;stroke-width:3;"/><text fill="#000000" font-family="sans-serif" font-size="14" lengthAdjust="spacing" textLength="212.9395" x="417.3184" y="99">expect_all / expect_all_or_drop</text><path d="M364.3184,102.9531 L374.3184,102.9531 C389.3184,102.9531 389.3184,93.709 404.3184,93.709 L414.3184,93.709" fill="none" style="stroke:#0078D4;stroke-width:3;"/><text fill="#000000" font-family="sans-serif" font-size="14" lengthAdjust="spacing" textLength="117.5303" x="417.3184" y="117.4883">expect_all_or_fail</text><path d="M364.3184,102.9531 L374.3184,102.9531 C389.3184,102.9531 389.3184,112.1973 404.3184,112.1973 L414.3184,112.1973" fill="none" style="stroke:#0078D4;stroke-width:3;"/><text fill="#000000" font-family="sans-serif" font-size="14" lengthAdjust="spacing" textLength="133.4033" x="417.3184" y="135.9766">Reuse across tables</text><path d="M364.3184,102.9531 L374.3184,102.9531 C389.3184,102.9531 389.3184,130.6855 404.3184,130.6855 L414.3184,130.6855" fill="none" style="stroke:#0078D4;stroke-width:3;"/><path d="M116.6318,139.9297 L126.6318,139.9297 C141.6318,139.9297 141.6318,102.9531 156.6318,102.9531 L166.6318,102.9531" fill="none" style="stroke:#FF5F46;stroke-width:3;"/><rect fill="#0078D4" height="36.4883" rx="12.5" ry="12.5" style="stroke:#0078D4;stroke-width:3;" width="191.8213" x="166.6318" y="149.418"/><text fill="#FFFFFF" font-family="sans-serif" font-size="14" lengthAdjust="spacing" textLength="171.8213" x="176.6318" y="172.9531">SQL: Multiple Constraints</text><text fill="#000000" font-family="sans-serif" font-size="14" lengthAdjust="spacing" textLength="256.6621" x="411.4531" y="154.4648">Comma-separated CONSTRAINT lines</text><path d="M358.4531,167.6621 L368.4531,167.6621 C383.4531,167.6621 383.4531,149.1738 398.4531,149.1738 L408.4531,149.1738" fill="none" style="stroke:#0078D4;stroke-width:3;"/><text fill="#000000" font-family="sans-serif" font-size="14" lengthAdjust="spacing" textLength="194.2363" x="411.4531" y="172.9531">In CREATE OR REFRESH table</text><path d="M358.4531,167.6621 L368.4531,167.6621 C383.4531,167.6621 383.4531,167.6621 398.4531,167.6621 L408.4531,167.6621" fill="none" style="stroke:#0078D4;stroke-width:3;"/><text fill="#000000" font-family="sans-serif" font-size="14" lengthAdjust="spacing" textLength="150.6709" x="411.4531" y="191.4414">Per-constraint actions</text><path d="M358.4531,167.6621 L368.4531,167.6621 C383.4531,167.6621 383.4531,186.1504 398.4531,186.1504 L408.4531,186.1504" fill="none" style="stroke:#0078D4;stroke-width:3;"/><path d="M116.6318,139.9297 L126.6318,139.9297 C141.6318,139.9297 141.6318,167.6621 156.6318,167.6621 L166.6318,167.6621" fill="none" style="stroke:#FF5F46;stroke-width:3;"/><rect fill="#0078D4" height="36.4883" rx="12.5" ry="12.5" style="stroke:#0078D4;stroke-width:3;" width="73.9082" x="166.6318" y="214.6387"/><text fill="#FFFFFF" font-family="sans-serif" font-size="14" lengthAdjust="spacing" textLength="53.9082" x="176.6318" y="238.1738">Benefits</text><text fill="#000000" font-family="sans-serif" font-size="14" lengthAdjust="spacing" textLength="175.7178" x="293.54" y="210.4414">Comprehensive validation</text><path d="M240.54,232.8828 L250.54,232.8828 C265.54,232.8828 265.54,205.1504 280.54,205.1504 L290.54,205.1504" fill="none" style="stroke:#0078D4;stroke-width:3;"/><text fill="#000000" font-family="sans-serif" font-size="14" lengthAdjust="spacing" textLength="134.6885" x="293.54" y="228.9297">Consistent rule sets</text><path d="M240.54,232.8828 L250.54,232.8828 C265.54,232.8828 265.54,223.6387 280.54,223.6387 L290.54,223.6387" fill="none" style="stroke:#0078D4;stroke-width:3;"/><text fill="#000000" font-family="sans-serif" font-size="14" lengthAdjust="spacing" textLength="138.2432" x="293.54" y="247.418">Reduced duplication</text><path d="M240.54,232.8828 L250.54,232.8828 C265.54,232.8828 265.54,242.127 280.54,242.127 L290.54,242.127" fill="none" style="stroke:#0078D4;stroke-width:3;"/><text fill="#000000" font-family="sans-serif" font-size="14" lengthAdjust="spacing" textLength="174.7539" x="293.54" y="265.9063">Maintainable quality rules</text><path d="M240.54,232.8828 L250.54,232.8828 C265.54,232.8828 265.54,260.6152 280.54,260.6152 L290.54,260.6152" fill="none" style="stroke:#0078D4;stroke-width:3;"/><path d="M116.6318,139.9297 L126.6318,139.9297 C141.6318,139.9297 141.6318,232.8828 156.6318,232.8828 L166.6318,232.8828" fill="none" style="stroke:#FF5F46;stroke-width:3;"/><?plantuml-src VLDTQzim57tthxYmbotGrCswRWjbfBNZhT1FEu-3e5ZNYwWiQP9S6ih--wvi9qqziWj-qBddtdDqZ6REC-jheNZDJ7Jk_4RYjsZAqVZr-_W3l4H0TSdAnrzMDuedMceBxxBiKtPwrlQkXS9_qKmhtwDLMplkOYtAHuNEmSTn7FtPQfqSr8hZpr_Iqw7M07sxTU0WQ-jLQt9GgwfMN-Dug3L0_wiLjqLQA_qi0-Vb8EFyk8zx13UDzC98_AdcpmPBpxpGoaMZ4Tnl_5ghAHIUl4AAfRRCQnjwe-Lk3cRSZB4T1JxW56WOdH5iGuR0e8LIowPMNJiLLOKMbGTMjgej8t3tvLFHDfdTm7SApFIxKwmea7upSy29rdKwCqic9Hpl7PRQBhdLPaWAUCM4xF0S6uVanseAqBCLRGzcYeVhwUkL4_BgBHFAzsOINTVioFNNvP3StHQB_EBgTW6INFQiAmL9FhzOpE4kXtoUvVFYHwVHzU_H7fMxrTjGWlmbAhhkdfgnk4Rbn1F24vE2jtzjsoNS-H1h20SSRkTov4r9xdXZf2ZtHcw27dt12lnkQA7VTCb6CwJtsR_Hw6GyYITduybV?></g></svg>