<?plantuml 1.2026.2?><svg xmlns="http://www.w3.org/2000/svg" xmlns:xlink="http://www.w3.org/1999/xlink" contentStyleType="text/css" data-diagram-type="MINDMAP" height="337px" preserveAspectRatio="none" style="width:551px;height:337px;background:#FFFFFF;" version="1.1" viewBox="0 0 551 337" width="551px" zoomAndPan="magnify"><defs/><g><rect fill="#FF5F46" height="52.9766" rx="12.5" ry="12.5" style="stroke:#FF5F46;stroke-width:3;" width="123.1338" x="10" y="141.1738"/><text fill="#FFFFFF" font-family="sans-serif" font-size="14" lengthAdjust="spacing" textLength="74.4434" x="20" y="164.709">Actions for</text><text fill="#FFFFFF" font-family="sans-serif" font-size="14" lengthAdjust="spacing" textLength="103.1338" x="20" y="181.1973">Invalid Records</text><rect fill="#0078D4" height="36.4883" rx="12.5" ry="12.5" style="stroke:#0078D4;stroke-width:3;" width="115.1221" x="183.1338" y="37.9766"/><text fill="#FFFFFF" font-family="sans-serif" font-size="14" lengthAdjust="spacing" textLength="95.1221" x="193.1338" y="61.5117">Warn (default)</text><text fill="#000000" font-family="sans-serif" font-size="14" lengthAdjust="spacing" textLength="125.1113" x="351.2559" y="24.5352">All records written</text><path d="M298.2559,56.2207 L308.2559,56.2207 C323.2559,56.2207 323.2559,19.2441 338.2559,19.2441 L348.2559,19.2441" fill="none" style="stroke:#0078D4;stroke-width:3;"/><text fill="#000000" font-family="sans-serif" font-size="14" lengthAdjust="spacing" textLength="113.5859" x="351.2559" y="43.0234">Metrics captured</text><path d="M298.2559,56.2207 L308.2559,56.2207 C323.2559,56.2207 323.2559,37.7324 338.2559,37.7324 L348.2559,37.7324" fill="none" style="stroke:#0078D4;stroke-width:3;"/><text fill="#000000" font-family="sans-serif" font-size="14" lengthAdjust="spacing" textLength="81.6484" x="351.2559" y="61.5117">No blocking</text><path d="M298.2559,56.2207 L308.2559,56.2207 C323.2559,56.2207 323.2559,56.2207 338.2559,56.2207 L348.2559,56.2207" fill="none" style="stroke:#0078D4;stroke-width:3;"/><text fill="#000000" font-family="sans-serif" font-size="14" lengthAdjust="spacing" textLength="122.2539" x="351.2559" y="80">Monitoring trends</text><path d="M298.2559,56.2207 L308.2559,56.2207 C323.2559,56.2207 323.2559,74.709 338.2559,74.709 L348.2559,74.709" fill="none" style="stroke:#0078D4;stroke-width:3;"/><text fill="#000000" font-family="sans-serif" font-size="14" lengthAdjust="spacing" textLength="155.1621" x="351.2559" y="98.4883">Baseline establishment</text><path d="M298.2559,56.2207 L308.2559,56.2207 C323.2559,56.2207 323.2559,93.1973 338.2559,93.1973 L348.2559,93.1973" fill="none" style="stroke:#0078D4;stroke-width:3;"/><path d="M133.1338,167.6621 L143.1338,167.6621 C158.1338,167.6621 158.1338,56.2207 173.1338,56.2207 L183.1338,56.2207" fill="none" style="stroke:#FF5F46;stroke-width:3;"/><rect fill="#0078D4" height="36.4883" rx="12.5" ry="12.5" style="stroke:#0078D4;stroke-width:3;" width="53.626" x="183.1338" y="121.1738"/><text fill="#FFFFFF" font-family="sans-serif" font-size="14" lengthAdjust="spacing" textLength="33.626" x="193.1338" y="144.709">Drop</text><text fill="#000000" font-family="sans-serif" font-size="14" lengthAdjust="spacing" textLength="249.8398" x="289.7598" y="116.9766">Invalid records removed before write</text><path d="M236.7598,139.418 L246.7598,139.418 C261.7598,139.418 261.7598,111.6855 276.7598,111.6855 L286.7598,111.6855" fill="none" style="stroke:#0078D4;stroke-width:3;"/><text fill="#000000" font-family="sans-serif" font-size="14" lengthAdjust="spacing" textLength="152.5439" x="289.7598" y="135.4648">Valid records continue</text><path d="M236.7598,139.418 L246.7598,139.418 C261.7598,139.418 261.7598,130.1738 276.7598,130.1738 L286.7598,130.1738" fill="none" style="stroke:#0078D4;stroke-width:3;"/><text fill="#000000" font-family="sans-serif" font-size="14" lengthAdjust="spacing" textLength="139.7539" x="289.7598" y="153.9531">@dp.expect_or_drop</text><path d="M236.7598,139.418 L246.7598,139.418 C261.7598,139.418 261.7598,148.6621 276.7598,148.6621 L286.7598,148.6621" fill="none" style="stroke:#0078D4;stroke-width:3;"/><text fill="#000000" font-family="sans-serif" font-size="14" lengthAdjust="spacing" textLength="179.457" x="289.7598" y="172.4414">ON VIOLATION DROP ROW</text><path d="M236.7598,139.418 L246.7598,139.418 C261.7598,139.418 261.7598,167.1504 276.7598,167.1504 L286.7598,167.1504" fill="none" style="stroke:#0078D4;stroke-width:3;"/><path d="M133.1338,167.6621 L143.1338,167.6621 C158.1338,167.6621 158.1338,139.418 173.1338,139.418 L183.1338,139.418" fill="none" style="stroke:#FF5F46;stroke-width:3;"/><rect fill="#0078D4" height="36.4883" rx="12.5" ry="12.5" style="stroke:#0078D4;stroke-width:3;" width="43.3311" x="183.1338" y="204.3711"/><text fill="#FFFFFF" font-family="sans-serif" font-size="14" lengthAdjust="spacing" textLength="23.3311" x="193.1338" y="227.9063">Fail</text><text fill="#000000" font-family="sans-serif" font-size="14" lengthAdjust="spacing" textLength="195.7744" x="279.4648" y="190.9297">Stops execution immediately</text><path d="M226.4648,222.6152 L236.4648,222.6152 C251.4648,222.6152 251.4648,185.6387 266.4648,185.6387 L276.4648,185.6387" fill="none" style="stroke:#0078D4;stroke-width:3;"/><text fill="#000000" font-family="sans-serif" font-size="14" lengthAdjust="spacing" textLength="231.1162" x="279.4648" y="209.418">Atomic rollback of partial updates</text><path d="M226.4648,222.6152 L236.4648,222.6152 C251.4648,222.6152 251.4648,204.127 266.4648,204.127 L276.4648,204.127" fill="none" style="stroke:#0078D4;stroke-width:3;"/><text fill="#000000" font-family="sans-serif" font-size="14" lengthAdjust="spacing" textLength="128.7754" x="279.4648" y="227.9063">@dp.expect_or_fail</text><path d="M226.4648,222.6152 L236.4648,222.6152 C251.4648,222.6152 251.4648,222.6152 266.4648,222.6152 L276.4648,222.6152" fill="none" style="stroke:#0078D4;stroke-width:3;"/><text fill="#000000" font-family="sans-serif" font-size="14" lengthAdjust="spacing" textLength="192.4863" x="279.4648" y="246.3945">ON VIOLATION FAIL UPDATE</text><path d="M226.4648,222.6152 L236.4648,222.6152 C251.4648,222.6152 251.4648,241.1035 266.4648,241.1035 L276.4648,241.1035" fill="none" style="stroke:#0078D4;stroke-width:3;"/><text fill="#000000" font-family="sans-serif" font-size="14" lengthAdjust="spacing" textLength="142.8916" x="279.4648" y="264.8828">Critical data integrity</text><path d="M226.4648,222.6152 L236.4648,222.6152 C251.4648,222.6152 251.4648,259.5918 266.4648,259.5918 L276.4648,259.5918" fill="none" style="stroke:#0078D4;stroke-width:3;"/><path d="M133.1338,167.6621 L143.1338,167.6621 C158.1338,167.6621 158.1338,222.6152 173.1338,222.6152 L183.1338,222.6152" fill="none" style="stroke:#FF5F46;stroke-width:3;"/><rect fill="#0078D4" height="36.4883" rx="12.5" ry="12.5" style="stroke:#0078D4;stroke-width:3;" width="84.1758" x="183.1338" y="278.8359"/><text fill="#FFFFFF" font-family="sans-serif" font-size="14" lengthAdjust="spacing" textLength="64.1758" x="193.1338" y="302.3711">Choosing</text><text fill="#000000" font-family="sans-serif" font-size="14" lengthAdjust="spacing" textLength="132.624" x="320.3096" y="283.8828">Warn: low criticality</text><path d="M267.3096,297.0801 L277.3096,297.0801 C292.3096,297.0801 292.3096,278.5918 307.3096,278.5918 L317.3096,278.5918" fill="none" style="stroke:#0078D4;stroke-width:3;"/><text fill="#000000" font-family="sans-serif" font-size="14" lengthAdjust="spacing" textLength="166.0039" x="320.3096" y="302.3711">Drop: clean data needed</text><path d="M267.3096,297.0801 L277.3096,297.0801 C292.3096,297.0801 292.3096,297.0801 307.3096,297.0801 L317.3096,297.0801" fill="none" style="stroke:#0078D4;stroke-width:3;"/><text fill="#000000" font-family="sans-serif" font-size="14" lengthAdjust="spacing" textLength="129.5752" x="320.3096" y="320.8594">Fail: zero tolerance</text><path d="M267.3096,297.0801 L277.3096,297.0801 C292.3096,297.0801 292.3096,315.5684 307.3096,315.5684 L317.3096,315.5684" fill="none" style="stroke:#0078D4;stroke-width:3;"/><path d="M133.1338,167.6621 L143.1338,167.6621 C158.1338,167.6621 158.1338,297.0801 173.1338,297.0801 L183.1338,297.0801" fill="none" style="stroke:#FF5F46;stroke-width:3;"/><?plantuml-src VLDDRnen4BtlhnYfbuG3sT0qJL5KGQ0h8T4GKPfSAY6lFGiMNi_Adar8e_xtUZ-WWfREQVtcUTwR6U_0it2SQwjoKKItdbyDVexw2WjUdyNdy1P1Y3iXDoj7fLKZCkJWNP9yIAwkwznKM_mRJSXoYsPrxBcBjPORYzx3-suS_TffNPxKYkEFD-EhOwqZzB3gaOEaZZzQlPDQMPP-YkDZhIFqlrfn7K4hfQsfE6yd6RSNxRWxC9IioNh8oFsm4_iiZ5OmHqbE-QZJWIVXB9mfp4Hf-3mWdIKCZG7NKE35QMQqJU8hijFIWnG5bmvLWzuJf8RaHjjLIoEhcLmu0pkqjL20xuH74xe434yZDTglSxHScHWxAXhEpk5Etc5EpwWWnT00rcwmOJuUy6IOWhPbcnkeeelR0YKloItLllhi7Xudi-bmCGbVu_di0UQpfyf08hHfAD-O2W-uHLbMWmETvwYqO3IlxN2OSYt1aJ5fM39G1aLuw5eOA0iLYFvV7hAzm867P3YPmlU7yN3nfScEGeDQXbgXaW1j6LS1gQHXj2Ro-nbNU-k3eHUGxPM65bBLDFiW3GhRbB68QhUigjC-_4H7m6JG2Iin6eGbxVxKwBBRYtlNtTvl?></g></svg>