<?plantuml 1.2026.2?><svg xmlns="http://www.w3.org/2000/svg" xmlns:xlink="http://www.w3.org/1999/xlink" contentStyleType="text/css" data-diagram-type="MINDMAP" height="367px" preserveAspectRatio="none" style="width:659px;height:367px;background:#FFFFFF;" version="1.1" viewBox="0 0 659 367" width="659px" zoomAndPan="magnify"><defs/><g><rect fill="#FF5F46" height="52.9766" rx="12.5" ry="12.5" style="stroke:#FF5F46;stroke-width:3;" width="106.3174" x="10" y="156.3193"/><text fill="#FFFFFF" font-family="sans-serif" font-size="14" lengthAdjust="spacing" textLength="79.4951" x="20" y="179.8545">Expectation</text><text fill="#FFFFFF" font-family="sans-serif" font-size="14" lengthAdjust="spacing" textLength="86.3174" x="20" y="196.3428">Components</text><rect fill="#0078D4" height="36.4883" rx="12.5" ry="12.5" style="stroke:#0078D4;stroke-width:3;" width="58.9443" x="166.3174" y="28.7324"/><text fill="#FFFFFF" font-family="sans-serif" font-size="14" lengthAdjust="spacing" textLength="38.9443" x="176.3174" y="52.2676">Name</text><text fill="#000000" font-family="sans-serif" font-size="14" lengthAdjust="spacing" textLength="173.0381" x="278.2617" y="24.5352">Identifies the expectation</text><path d="M225.2617,46.9766 L235.2617,46.9766 C250.2617,46.9766 250.2617,19.2441 265.2617,19.2441 L275.2617,19.2441" fill="none" style="stroke:#0078D4;stroke-width:3;"/><text fill="#000000" font-family="sans-serif" font-size="14" lengthAdjust="spacing" textLength="236.3252" x="278.2617" y="43.0234">Appears in monitoring dashboards</text><path d="M225.2617,46.9766 L235.2617,46.9766 C250.2617,46.9766 250.2617,37.7324 265.2617,37.7324 L275.2617,37.7324" fill="none" style="stroke:#0078D4;stroke-width:3;"/><text fill="#000000" font-family="sans-serif" font-size="14" lengthAdjust="spacing" textLength="151.7578" x="278.2617" y="61.5117">Use descriptive names</text><path d="M225.2617,46.9766 L235.2617,46.9766 C250.2617,46.9766 250.2617,56.2207 265.2617,56.2207 L275.2617,56.2207" fill="none" style="stroke:#0078D4;stroke-width:3;"/><text fill="#000000" font-family="sans-serif" font-size="14" lengthAdjust="spacing" textLength="163.3926" x="278.2617" y="80">e.g. valid_customer_age</text><path d="M225.2617,46.9766 L235.2617,46.9766 C250.2617,46.9766 250.2617,74.709 265.2617,74.709 L275.2617,74.709" fill="none" style="stroke:#0078D4;stroke-width:3;"/><path d="M116.3174,182.8076 L126.3174,182.8076 C141.3174,182.8076 141.3174,46.9766 156.3174,46.9766 L166.3174,46.9766" fill="none" style="stroke:#FF5F46;stroke-width:3;"/><rect fill="#0078D4" height="36.4883" rx="12.5" ry="12.5" style="stroke:#0078D4;stroke-width:3;" width="90.7793" x="166.3174" y="121.6855"/><text fill="#FFFFFF" font-family="sans-serif" font-size="14" lengthAdjust="spacing" textLength="70.7793" x="176.3174" y="145.2207">Constraint</text><text fill="#000000" font-family="sans-serif" font-size="14" lengthAdjust="spacing" textLength="162.5928" x="310.0967" y="98.4883">SQL Boolean expression</text><path d="M257.0967,139.9297 L267.0967,139.9297 C282.0967,139.9297 282.0967,93.1973 297.0967,93.1973 L307.0967,93.1973" fill="none" style="stroke:#0078D4;stroke-width:3;"/><text fill="#000000" font-family="sans-serif" font-size="14" lengthAdjust="spacing" textLength="204.251" x="310.0967" y="116.9766">True = valid, False = violation</text><path d="M257.0967,139.9297 L267.0967,139.9297 C282.0967,139.9297 282.0967,111.6855 297.0967,111.6855 L307.0967,111.6855" fill="none" style="stroke:#0078D4;stroke-width:3;"/><text fill="#000000" font-family="sans-serif" font-size="14" lengthAdjust="spacing" textLength="141.4082" x="310.0967" y="135.4648">Any valid SQL syntax</text><path d="M257.0967,139.9297 L267.0967,139.9297 C282.0967,139.9297 282.0967,130.1738 297.0967,130.1738 L307.0967,130.1738" fill="none" style="stroke:#0078D4;stroke-width:3;"/><rect fill="#FFB900" height="36.4883" rx="12.5" ry="12.5" style="stroke:#FFB900;stroke-width:3;" width="95.3047" x="307.0967" y="149.418"/><text fill="#000000" font-family="sans-serif" font-size="14" lengthAdjust="spacing" textLength="75.3047" x="317.0967" y="172.9531">Limitations</text><text fill="#000000" font-family="sans-serif" font-size="14" lengthAdjust="spacing" textLength="191.8027" x="455.4014" y="154.4648">No custom Python functions</text><path d="M402.4014,167.6621 L412.4014,167.6621 C427.4014,167.6621 427.4014,149.1738 442.4014,149.1738 L452.4014,149.1738" fill="none" style="stroke:#FFB900;stroke-width:3;"/><text fill="#000000" font-family="sans-serif" font-size="14" lengthAdjust="spacing" textLength="164.9102" x="455.4014" y="172.9531">No external service calls</text><path d="M402.4014,167.6621 L412.4014,167.6621 C427.4014,167.6621 427.4014,167.6621 442.4014,167.6621 L452.4014,167.6621" fill="none" style="stroke:#FFB900;stroke-width:3;"/><text fill="#000000" font-family="sans-serif" font-size="14" lengthAdjust="spacing" textLength="98.0205" x="455.4014" y="191.4414">No subqueries</text><path d="M402.4014,167.6621 L412.4014,167.6621 C427.4014,167.6621 427.4014,186.1504 442.4014,186.1504 L452.4014,186.1504" fill="none" style="stroke:#FFB900;stroke-width:3;"/><path d="M257.0967,139.9297 L267.0967,139.9297 C282.0967,139.9297 282.0967,167.6621 297.0967,167.6621 L307.0967,167.6621" fill="none" style="stroke:#0078D4;stroke-width:3;"/><path d="M116.3174,182.8076 L126.3174,182.8076 C141.3174,182.8076 141.3174,139.9297 156.3174,139.9297 L166.3174,139.9297" fill="none" style="stroke:#FF5F46;stroke-width:3;"/><rect fill="#0078D4" height="36.4883" rx="12.5" ry="12.5" style="stroke:#0078D4;stroke-width:3;" width="63.4014" x="166.3174" y="196.1504"/><text fill="#FFFFFF" font-family="sans-serif" font-size="14" lengthAdjust="spacing" textLength="43.4014" x="176.3174" y="219.6855">Action</text><text fill="#000000" font-family="sans-serif" font-size="14" lengthAdjust="spacing" textLength="142.2832" x="282.7188" y="210.4414">Behavior on violation</text><path d="M229.7188,214.3945 L239.7188,214.3945 C254.7188,214.3945 254.7188,205.1504 269.7188,205.1504 L279.7188,205.1504" fill="none" style="stroke:#0078D4;stroke-width:3;"/><text fill="#000000" font-family="sans-serif" font-size="14" lengthAdjust="spacing" textLength="127.5586" x="282.7188" y="228.9297">Warn, Drop, or Fail</text><path d="M229.7188,214.3945 L239.7188,214.3945 C254.7188,214.3945 254.7188,223.6387 269.7188,223.6387 L279.7188,223.6387" fill="none" style="stroke:#0078D4;stroke-width:3;"/><path d="M116.3174,182.8076 L126.3174,182.8076 C141.3174,182.8076 141.3174,214.3945 156.3174,214.3945 L166.3174,214.3945" fill="none" style="stroke:#FF5F46;stroke-width:3;"/><rect fill="#0078D4" height="36.4883" rx="12.5" ry="12.5" style="stroke:#0078D4;stroke-width:3;" width="137.4346" x="166.3174" y="252.6387"/><text fill="#FFFFFF" font-family="sans-serif" font-size="14" lengthAdjust="spacing" textLength="117.4346" x="176.3174" y="276.1738">Example (Python)</text><text fill="#000000" font-family="sans-serif" font-size="14" lengthAdjust="spacing" textLength="229.9814" x="356.752" y="276.1738">@dp.expect("name", "expression")</text><path d="M303.752,270.8828 L313.752,270.8828 C328.752,270.8828 328.752,270.8828 343.752,270.8828 L353.752,270.8828" fill="none" style="stroke:#0078D4;stroke-width:3;"/><path d="M116.3174,182.8076 L126.3174,182.8076 C141.3174,182.8076 141.3174,270.8828 156.3174,270.8828 L166.3174,270.8828" fill="none" style="stroke:#FF5F46;stroke-width:3;"/><rect fill="#0078D4" height="36.4883" rx="12.5" ry="12.5" style="stroke:#0078D4;stroke-width:3;" width="117.0498" x="166.3174" y="309.127"/><text fill="#FFFFFF" font-family="sans-serif" font-size="14" lengthAdjust="spacing" textLength="97.0498" x="176.3174" y="332.6621">Example (SQL)</text><text fill="#000000" font-family="sans-serif" font-size="14" lengthAdjust="spacing" textLength="229.8652" x="336.3672" y="332.6621">CONSTRAINT name EXPECT (expr)</text><path d="M283.3672,327.3711 L293.3672,327.3711 C308.3672,327.3711 308.3672,327.3711 323.3672,327.3711 L333.3672,327.3711" fill="none" style="stroke:#0078D4;stroke-width:3;"/><path d="M116.3174,182.8076 L126.3174,182.8076 C141.3174,182.8076 141.3174,327.3711 156.3174,327.3711 L166.3174,327.3711" fill="none" style="stroke:#FF5F46;stroke-width:3;"/><?plantuml-src VLFlQzim4Ftkl-B8lYGXU6xMTZ_eHX8tXaB9kjLZ-p08YdsEHUMJ9iaXeUn_dsnvJUkHtHUXktVllJkXcR5CsufJNZ4LN1bx4FWf-92ZikKm6i5Z02uMB7lOQbbJ7aiXDRnAaela_BAjtNB2VxE99DjbYpQUi6d9imT2O-1D60M__sgTdTIAehVlhi_xMhtiIzQUWwIDezRqf5PHRDv7KL-hb_slLjI6qzh8lMWmZoSHLw-xTOzXkLUOMMQvf9yKoqf9Gh8c68zXnIfqvtWDDxdByOAZ0LiYuB77r-TA8TC6E44bYLkfEMqXPwRSIAPpur7V34AE9jDSMRv38CVVbJ3SXh1ZWkVhh3PMLgZNRDkeGop9MCquMG-z_t8B2oa5CcgCQ3VfauzKrmWVFT444YPCU-LIF3TB1uzegSo1BDit5RVXYlkfMbSEkfBWxS3TmPQIeAWfwm5mRr4J4s1GxtY6a34XdjLDlVbLe-Rjg33FZaOMM3BdJOCZxddypZHDu5fBDG47I1WNJVTopoeb48RUpiY3PxaA_PCC1yrE1nCO73Sp6BteT3DtRV7drNtwTNwpIjkNWEMFksMSmh1f7GKpT1-p-vp1MJYDffVXz0y0?></g></svg>