<?plantuml 1.2026.2?><svg xmlns="http://www.w3.org/2000/svg" xmlns:xlink="http://www.w3.org/1999/xlink" contentStyleType="text/css" data-diagram-type="MINDMAP" height="265px" preserveAspectRatio="none" style="width:623px;height:265px;background:#FFFFFF;" version="1.1" viewBox="0 0 623 265" width="623px" zoomAndPan="magnify"><defs/><g><rect fill="#FF5F46" height="52.9766" rx="12.5" ry="12.5" style="stroke:#FF5F46;stroke-width:3;" width="152.8223" x="10" y="105.2207"/><text fill="#FFFFFF" font-family="sans-serif" font-size="14" lengthAdjust="spacing" textLength="52.958" x="20" y="128.7559">Monitor</text><text fill="#FFFFFF" font-family="sans-serif" font-size="14" lengthAdjust="spacing" textLength="132.8223" x="20" y="145.2441">Expectation Results</text><rect fill="#0078D4" height="36.4883" rx="12.5" ry="12.5" style="stroke:#0078D4;stroke-width:3;" width="91.1416" x="212.8223" y="28.7324"/><text fill="#FFFFFF" font-family="sans-serif" font-size="14" lengthAdjust="spacing" textLength="71.1416" x="222.8223" y="52.2676">Pipeline UI</text><text fill="#000000" font-family="sans-serif" font-size="14" lengthAdjust="spacing" textLength="162.1348" x="356.9639" y="24.5352">Jobs &amp; Pipelines sidebar</text><path d="M303.9639,46.9766 L313.9639,46.9766 C328.9639,46.9766 328.9639,19.2441 343.9639,19.2441 L353.9639,19.2441" fill="none" style="stroke:#0078D4;stroke-width:3;"/><text fill="#000000" font-family="sans-serif" font-size="14" lengthAdjust="spacing" textLength="160.3506" x="356.9639" y="43.0234">Select pipeline by name</text><path d="M303.9639,46.9766 L313.9639,46.9766 C328.9639,46.9766 328.9639,37.7324 343.9639,37.7324 L353.9639,37.7324" fill="none" style="stroke:#0078D4;stroke-width:3;"/><text fill="#000000" font-family="sans-serif" font-size="14" lengthAdjust="spacing" textLength="218.1689" x="356.9639" y="61.5117">Select dataset with expectations</text><path d="M303.9639,46.9766 L313.9639,46.9766 C328.9639,46.9766 328.9639,56.2207 343.9639,56.2207 L353.9639,56.2207" fill="none" style="stroke:#0078D4;stroke-width:3;"/><text fill="#000000" font-family="sans-serif" font-size="14" lengthAdjust="spacing" textLength="148.3057" x="356.9639" y="80">Open Data quality tab</text><path d="M303.9639,46.9766 L313.9639,46.9766 C328.9639,46.9766 328.9639,74.709 343.9639,74.709 L353.9639,74.709" fill="none" style="stroke:#0078D4;stroke-width:3;"/><path d="M162.8223,131.709 L172.8223,131.709 C187.8223,131.709 187.8223,46.9766 202.8223,46.9766 L212.8223,46.9766" fill="none" style="stroke:#FF5F46;stroke-width:3;"/><rect fill="#0078D4" height="36.4883" rx="12.5" ry="12.5" style="stroke:#0078D4;stroke-width:3;" width="117.9111" x="212.8223" y="93.9531"/><text fill="#FFFFFF" font-family="sans-serif" font-size="14" lengthAdjust="spacing" textLength="97.9111" x="222.8223" y="117.4883">Metrics Shown</text><text fill="#000000" font-family="sans-serif" font-size="14" lengthAdjust="spacing" textLength="216.8633" x="383.7334" y="99">Records passed per expectation</text><path d="M330.7334,112.1973 L340.7334,112.1973 C355.7334,112.1973 355.7334,93.709 370.7334,93.709 L380.7334,93.709" fill="none" style="stroke:#0078D4;stroke-width:3;"/><text fill="#000000" font-family="sans-serif" font-size="14" lengthAdjust="spacing" textLength="207.0195" x="383.7334" y="117.4883">Records failed per expectation</text><path d="M330.7334,112.1973 L340.7334,112.1973 C355.7334,112.1973 355.7334,112.1973 370.7334,112.1973 L380.7334,112.1973" fill="none" style="stroke:#0078D4;stroke-width:3;"/><text fill="#000000" font-family="sans-serif" font-size="14" lengthAdjust="spacing" textLength="195.8633" x="383.7334" y="135.9766">Violation counts (warn/drop)</text><path d="M330.7334,112.1973 L340.7334,112.1973 C355.7334,112.1973 355.7334,130.6855 370.7334,130.6855 L380.7334,130.6855" fill="none" style="stroke:#0078D4;stroke-width:3;"/><path d="M162.8223,131.709 L172.8223,131.709 C187.8223,131.709 187.8223,112.1973 202.8223,112.1973 L212.8223,112.1973" fill="none" style="stroke:#FF5F46;stroke-width:3;"/><rect fill="#0078D4" height="36.4883" rx="12.5" ry="12.5" style="stroke:#0078D4;stroke-width:3;" width="91.1621" x="212.8223" y="150.4414"/><text fill="#FFFFFF" font-family="sans-serif" font-size="14" lengthAdjust="spacing" textLength="71.1621" x="222.8223" y="173.9766">Fail Action</text><text fill="#000000" font-family="sans-serif" font-size="14" lengthAdjust="spacing" textLength="197.2646" x="356.9844" y="155.4883">Pipeline stops before metrics</text><path d="M303.9844,168.6855 L313.9844,168.6855 C328.9844,168.6855 328.9844,150.1973 343.9844,150.1973 L353.9844,150.1973" fill="none" style="stroke:#0078D4;stroke-width:3;"/><text fill="#000000" font-family="sans-serif" font-size="14" lengthAdjust="spacing" textLength="174.4326" x="356.9844" y="173.9766">Error message has details</text><path d="M303.9844,168.6855 L313.9844,168.6855 C328.9844,168.6855 328.9844,168.6855 343.9844,168.6855 L353.9844,168.6855" fill="none" style="stroke:#0078D4;stroke-width:3;"/><text fill="#000000" font-family="sans-serif" font-size="14" lengthAdjust="spacing" textLength="201.3867" x="356.9844" y="192.4648">Includes violating record data</text><path d="M303.9844,168.6855 L313.9844,168.6855 C328.9844,168.6855 328.9844,187.1738 343.9844,187.1738 L353.9844,187.1738" fill="none" style="stroke:#0078D4;stroke-width:3;"/><path d="M162.8223,131.709 L172.8223,131.709 C187.8223,131.709 187.8223,168.6855 202.8223,168.6855 L212.8223,168.6855" fill="none" style="stroke:#FF5F46;stroke-width:3;"/><rect fill="#0078D4" height="36.4883" rx="12.5" ry="12.5" style="stroke:#0078D4;stroke-width:3;" width="165.0859" x="212.8223" y="206.9297"/><text fill="#FFFFFF" font-family="sans-serif" font-size="14" lengthAdjust="spacing" textLength="145.0859" x="222.8223" y="230.4648">Programmatic Access</text><text fill="#000000" font-family="sans-serif" font-size="14" lengthAdjust="spacing" textLength="107.4131" x="430.9082" y="211.9766">Query event log</text><path d="M377.9082,225.1738 L387.9082,225.1738 C402.9082,225.1738 402.9082,206.6855 417.9082,206.6855 L427.9082,206.6855" fill="none" style="stroke:#0078D4;stroke-width:3;"/><text fill="#000000" font-family="sans-serif" font-size="14" lengthAdjust="spacing" textLength="136.0352" x="430.9082" y="230.4648">Custom dashboards</text><path d="M377.9082,225.1738 L387.9082,225.1738 C402.9082,225.1738 402.9082,225.1738 417.9082,225.1738 L427.9082,225.1738" fill="none" style="stroke:#0078D4;stroke-width:3;"/><text fill="#000000" font-family="sans-serif" font-size="14" lengthAdjust="spacing" textLength="180.7969" x="430.9082" y="248.9531">Alert on quality thresholds</text><path d="M377.9082,225.1738 L387.9082,225.1738 C402.9082,225.1738 402.9082,243.6621 417.9082,243.6621 L427.9082,243.6621" fill="none" style="stroke:#0078D4;stroke-width:3;"/><path d="M162.8223,131.709 L172.8223,131.709 C187.8223,131.709 187.8223,225.1738 202.8223,225.1738 L212.8223,225.1738" fill="none" style="stroke:#FF5F46;stroke-width:3;"/><?plantuml-src VPDlRzGm3CRVzrDOGaBRlRXrnnX_DA6DRPM6c80DU8M4qiHjewL9YTtTJXFV7Lzpk-EA3h-B_TW_vuboIgmYjzQRLdNP2V72uRlihS6Ecxry7nupa7Ylz5qTG-_DUN0XmhEYU5aS7G-rZzRZlzaYU5vbgo7Msg-DrNSUYU35DCz-Fx4ETxBo_DNhYwCnQvJTdZhQe1XYmvhjP5LL-IRFnwnHzh-iV0XXbU71BJMFEnKd1okx9t0TlEKGV_ZBXmurAxR1mmrIxvYooGG-smwTeE7RbHmdF-53A0cUh_C4P0sMAgRgBJgP0jrJLxa0hrhSAXh5Yf1XRha1t60fgJvrwE52DF2hLyxo0bYLorMkaQFL1BTDcFkalK4TeY7e514Qw33-FN1RKodhTcc-s-3IrRMy2HFipLNq1oQ6Rd-9BgGNplIcOMqBSUW8Ign2H6ZJXabo6QEOtifBg1gXKGG6MUQiobTUkzw8V_U9xMk8mwQ3FuFrCTHHjQqKjS2rJ4gjNtgC2y1xz0mkr2bvtiighJHJKmOb5qxfCuUHGIwsDhE9I4rm8ZX5-Noh3vWTJcVvx7Ww-mC0?></g></svg>