<?plantuml 1.2026.2?><svg xmlns="http://www.w3.org/2000/svg" xmlns:xlink="http://www.w3.org/1999/xlink" contentStyleType="text/css" data-diagram-type="MINDMAP" height="265px" preserveAspectRatio="none" style="width:661px;height:265px;background:#FFFFFF;" version="1.1" viewBox="0 0 661 265" width="661px" zoomAndPan="magnify"><defs/><g><rect fill="#FF5F46" height="52.9766" rx="12.5" ry="12.5" style="stroke:#FF5F46;stroke-width:3;" width="192.2793" x="10" y="105.2207"/><text fill="#FFFFFF" font-family="sans-serif" font-size="14" lengthAdjust="spacing" textLength="99.4287" x="20" y="128.7559">Apply Tags for</text><text fill="#FFFFFF" font-family="sans-serif" font-size="14" lengthAdjust="spacing" textLength="172.2793" x="20" y="145.2441">Organization &amp; Discovery</text><rect fill="#0078D4" height="36.4883" rx="12.5" ry="12.5" style="stroke:#0078D4;stroke-width:3;" width="117.1592" x="252.2793" y="20"/><text fill="#FFFFFF" font-family="sans-serif" font-size="14" lengthAdjust="spacing" textLength="97.1592" x="262.2793" y="43.5352">Standard Tags</text><text fill="#000000" font-family="sans-serif" font-size="14" lengthAdjust="spacing" textLength="105.752" x="422.4385" y="25.0469">Key-value pairs</text><path d="M369.4385,38.2441 L379.4385,38.2441 C394.4385,38.2441 394.4385,19.7559 409.4385,19.7559 L419.4385,19.7559" fill="none" style="stroke:#0078D4;stroke-width:3;"/><text fill="#000000" font-family="sans-serif" font-size="14" lengthAdjust="spacing" textLength="129.1445" x="422.4385" y="43.5352">ALTER ... SET TAGS</text><path d="M369.4385,38.2441 L379.4385,38.2441 C394.4385,38.2441 394.4385,38.2441 409.4385,38.2441 L419.4385,38.2441" fill="none" style="stroke:#0078D4;stroke-width:3;"/><text fill="#000000" font-family="sans-serif" font-size="14" lengthAdjust="spacing" textLength="157.5615" x="422.4385" y="62.0234">UNSET TAGS to remove</text><path d="M369.4385,38.2441 L379.4385,38.2441 C394.4385,38.2441 394.4385,56.7324 409.4385,56.7324 L419.4385,56.7324" fill="none" style="stroke:#0078D4;stroke-width:3;"/><path d="M202.2793,131.709 L212.2793,131.709 C227.2793,131.709 227.2793,38.2441 242.2793,38.2441 L252.2793,38.2441" fill="none" style="stroke:#FF5F46;stroke-width:3;"/><rect fill="#0078D4" height="36.4883" rx="12.5" ry="12.5" style="stroke:#0078D4;stroke-width:3;" width="121.6709" x="252.2793" y="76.4883"/><text fill="#FFFFFF" font-family="sans-serif" font-size="14" lengthAdjust="spacing" textLength="101.6709" x="262.2793" y="100.0234">Governed Tags</text><text fill="#000000" font-family="sans-serif" font-size="14" lengthAdjust="spacing" textLength="163.2627" x="426.9502" y="81.5352">Defined at account level</text><path d="M373.9502,94.7324 L383.9502,94.7324 C398.9502,94.7324 398.9502,76.2441 413.9502,76.2441 L423.9502,76.2441" fill="none" style="stroke:#0078D4;stroke-width:3;"/><text fill="#000000" font-family="sans-serif" font-size="14" lengthAdjust="spacing" textLength="171.1514" x="426.9502" y="100.0234">Restricted allowed values</text><path d="M373.9502,94.7324 L383.9502,94.7324 C398.9502,94.7324 398.9502,94.7324 413.9502,94.7324 L423.9502,94.7324" fill="none" style="stroke:#0078D4;stroke-width:3;"/><text fill="#000000" font-family="sans-serif" font-size="14" lengthAdjust="spacing" textLength="199.0283" x="426.9502" y="118.5117">Lock icon in Catalog Explorer</text><path d="M373.9502,94.7324 L383.9502,94.7324 C398.9502,94.7324 398.9502,113.2207 413.9502,113.2207 L423.9502,113.2207" fill="none" style="stroke:#0078D4;stroke-width:3;"/><path d="M202.2793,131.709 L212.2793,131.709 C227.2793,131.709 227.2793,94.7324 242.2793,94.7324 L252.2793,94.7324" fill="none" style="stroke:#FF5F46;stroke-width:3;"/><rect fill="#0078D4" height="36.4883" rx="12.5" ry="12.5" style="stroke:#0078D4;stroke-width:3;" width="104.9775" x="252.2793" y="132.9766"/><text fill="#FFFFFF" font-family="sans-serif" font-size="14" lengthAdjust="spacing" textLength="84.9775" x="262.2793" y="156.5117">System Tags</text><text fill="#000000" font-family="sans-serif" font-size="14" lengthAdjust="spacing" textLength="213.9512" x="410.2568" y="147.2676">Predefined by Azure Databricks</text><path d="M357.2568,151.2207 L367.2568,151.2207 C382.2568,151.2207 382.2568,141.9766 397.2568,141.9766 L407.2568,141.9766" fill="none" style="stroke:#0078D4;stroke-width:3;"/><text fill="#000000" font-family="sans-serif" font-size="14" lengthAdjust="spacing" textLength="202.6992" x="410.2568" y="165.7559">Data classification, ownership</text><path d="M357.2568,151.2207 L367.2568,151.2207 C382.2568,151.2207 382.2568,160.4648 397.2568,160.4648 L407.2568,160.4648" fill="none" style="stroke:#0078D4;stroke-width:3;"/><path d="M202.2793,131.709 L212.2793,131.709 C227.2793,131.709 227.2793,151.2207 242.2793,151.2207 L252.2793,151.2207" fill="none" style="stroke:#FF5F46;stroke-width:3;"/><rect fill="#0078D4" height="36.4883" rx="12.5" ry="12.5" style="stroke:#0078D4;stroke-width:3;" width="97.916" x="252.2793" y="198.1973"/><text fill="#FFFFFF" font-family="sans-serif" font-size="14" lengthAdjust="spacing" textLength="77.916" x="262.2793" y="221.7324">Constraints</text><text fill="#000000" font-family="sans-serif" font-size="14" lengthAdjust="spacing" textLength="156.8506" x="403.1953" y="194">Max 50 tags per object</text><path d="M350.1953,216.4414 L360.1953,216.4414 C375.1953,216.4414 375.1953,188.709 390.1953,188.709 L400.1953,188.709" fill="none" style="stroke:#0078D4;stroke-width:3;"/><text fill="#000000" font-family="sans-serif" font-size="14" lengthAdjust="spacing" textLength="225.4287" x="403.1953" y="212.4883">Max 1,000 column tags per table</text><path d="M350.1953,216.4414 L360.1953,216.4414 C375.1953,216.4414 375.1953,207.1973 390.1953,207.1973 L400.1953,207.1973" fill="none" style="stroke:#0078D4;stroke-width:3;"/><text fill="#000000" font-family="sans-serif" font-size="14" lengthAdjust="spacing" textLength="246.2646" x="403.1953" y="230.9766">Keys: 255 chars, Values: 1000 chars</text><path d="M350.1953,216.4414 L360.1953,216.4414 C375.1953,216.4414 375.1953,225.6855 390.1953,225.6855 L400.1953,225.6855" fill="none" style="stroke:#0078D4;stroke-width:3;"/><text fill="#000000" font-family="sans-serif" font-size="14" lengthAdjust="spacing" textLength="158.5869" x="403.1953" y="249.4648">Keys are case-sensitive</text><path d="M350.1953,216.4414 L360.1953,216.4414 C375.1953,216.4414 375.1953,244.1738 390.1953,244.1738 L400.1953,244.1738" fill="none" style="stroke:#0078D4;stroke-width:3;"/><path d="M202.2793,131.709 L212.2793,131.709 C227.2793,131.709 227.2793,216.4414 242.2793,216.4414 L252.2793,216.4414" fill="none" style="stroke:#FF5F46;stroke-width:3;"/><?plantuml-src VPDlRzem4CRVvrESD6dQ44r3LheDLLCPaBuO-wEIzTMawk9SmCEn8zjGqchVVOuRIfU9tfl8Zv-xtzr5lZGMjIsvp4kiWWjZQq6VWb5EbLszYTx2Gm0kFYDRBxNQo7oYXDBmAac6oTcvlvjpIV-hYPAsLGiVJzvqnTbQaZ7mBeo2FtlMu2WhYjv_c9vrMHtrtwgT3X8V1rPyb5KKsSSewh8wwekio8TZPMed6i_3KSV5QRlk7eohIjIGuj90eVGl-LqlKV9xj5n9U0rJRfZQagw3NWyM5cMEElTs9_HkuGlL9riK6u8AkMx5yJoTNKCOXh2OfP2EhnQF-izl-pDO1PfALxcfUzKG93slEwM2DmfQGCRSdYm8sf9ulBqcOpLdjZ48eUxSrpVH9iyLMmDdRW0kOO8MXLh2R5Uv9P3sWzJ6KlaCzqDJtXAp6iRt6qqmTOcPewptBRapC876y88plw0-g3j9sgnurPITAEdwGYvjc_8LTp2Cm3RRhKY3oduJiuUxGT_z3s1AR4fvS3cieAVrcX74mo6m5MhJXni_vWW6Fh7H3aP0rpL3GoU6fE6Mk-rUadjVxHiB1c4SnUTX_1S0?></g></svg>