<?plantuml 1.2026.2?><svg xmlns="http://www.w3.org/2000/svg" xmlns:xlink="http://www.w3.org/1999/xlink" contentStyleType="text/css" data-diagram-type="MINDMAP" height="304px" preserveAspectRatio="none" style="width:676px;height:304px;background:#FFFFFF;" version="1.1" viewBox="0 0 676 304" width="676px" zoomAndPan="magnify"><defs/><g><rect fill="#FF5F46" height="52.9766" rx="12.5" ry="12.5" style="stroke:#FF5F46;stroke-width:3;" width="161.1826" x="10" y="124.7324"/><text fill="#FFFFFF" font-family="sans-serif" font-size="14" lengthAdjust="spacing" textLength="105" x="20" y="148.2676">Add Comments</text><text fill="#FFFFFF" font-family="sans-serif" font-size="14" lengthAdjust="spacing" textLength="141.1826" x="20" y="164.7559">to Tables &amp; Columns</text><rect fill="#0078D4" height="36.4883" rx="12.5" ry="12.5" style="stroke:#0078D4;stroke-width:3;" width="117.1113" x="221.1826" y="20"/><text fill="#FFFFFF" font-family="sans-serif" font-size="14" lengthAdjust="spacing" textLength="97.1113" x="231.1826" y="43.5352">COMMENT ON</text><text fill="#000000" font-family="sans-serif" font-size="14" lengthAdjust="spacing" textLength="224.5947" x="391.2939" y="34.291">Add to tables, columns, schemas</text><path d="M338.2939,38.2441 L348.2939,38.2441 C363.2939,38.2441 363.2939,29 378.2939,29 L388.2939,29" fill="none" style="stroke:#0078D4;stroke-width:3;"/><text fill="#000000" font-family="sans-serif" font-size="14" lengthAdjust="spacing" textLength="221.2861" x="391.2939" y="52.7793">Markdown formatting supported</text><path d="M338.2939,38.2441 L348.2939,38.2441 C363.2939,38.2441 363.2939,47.4883 378.2939,47.4883 L388.2939,47.4883" fill="none" style="stroke:#0078D4;stroke-width:3;"/><path d="M171.1826,151.2207 L181.1826,151.2207 C196.1826,151.2207 196.1826,38.2441 211.1826,38.2441 L221.1826,38.2441" fill="none" style="stroke:#FF5F46;stroke-width:3;"/><rect fill="#0078D4" height="36.4883" rx="12.5" ry="12.5" style="stroke:#0078D4;stroke-width:3;" width="118.2734" x="221.1826" y="76.4883"/><text fill="#FFFFFF" font-family="sans-serif" font-size="14" lengthAdjust="spacing" textLength="98.2734" x="231.1826" y="100.0234">CREATE TABLE</text><text fill="#000000" font-family="sans-serif" font-size="14" lengthAdjust="spacing" textLength="259.1504" x="392.4561" y="100.0234">Inline COMMENT on column definition</text><path d="M339.4561,94.7324 L349.4561,94.7324 C364.4561,94.7324 364.4561,94.7324 379.4561,94.7324 L389.4561,94.7324" fill="none" style="stroke:#0078D4;stroke-width:3;"/><path d="M171.1826,151.2207 L181.1826,151.2207 C196.1826,151.2207 196.1826,94.7324 211.1826,94.7324 L221.1826,94.7324" fill="none" style="stroke:#FF5F46;stroke-width:3;"/><rect fill="#0078D4" height="36.4883" rx="12.5" ry="12.5" style="stroke:#0078D4;stroke-width:3;" width="108.4639" x="221.1826" y="132.9766"/><text fill="#FFFFFF" font-family="sans-serif" font-size="14" lengthAdjust="spacing" textLength="88.4639" x="231.1826" y="156.5117">ALTER TABLE</text><text fill="#000000" font-family="sans-serif" font-size="14" lengthAdjust="spacing" textLength="200.5869" x="382.6465" y="156.5117">ALTER COLUMN ... COMMENT</text><path d="M329.6465,151.2207 L339.6465,151.2207 C354.6465,151.2207 354.6465,151.2207 369.6465,151.2207 L379.6465,151.2207" fill="none" style="stroke:#0078D4;stroke-width:3;"/><path d="M171.1826,151.2207 L181.1826,151.2207 C196.1826,151.2207 196.1826,151.2207 211.1826,151.2207 L221.1826,151.2207" fill="none" style="stroke:#FF5F46;stroke-width:3;"/><rect fill="#0078D4" height="36.4883" rx="12.5" ry="12.5" style="stroke:#0078D4;stroke-width:3;" width="110.1182" x="221.1826" y="189.4648"/><text fill="#FFFFFF" font-family="sans-serif" font-size="14" lengthAdjust="spacing" textLength="90.1182" x="231.1826" y="213">AI-generated</text><text fill="#000000" font-family="sans-serif" font-size="14" lengthAdjust="spacing" textLength="213.5752" x="384.3008" y="194.5117">Catalog Explorer &#8594; AI generate</text><path d="M331.3008,207.709 L341.3008,207.709 C356.3008,207.709 356.3008,189.2207 371.3008,189.2207 L381.3008,189.2207" fill="none" style="stroke:#0078D4;stroke-width:3;"/><text fill="#000000" font-family="sans-serif" font-size="14" lengthAdjust="spacing" textLength="164.6641" x="384.3008" y="213">Review before accepting</text><path d="M331.3008,207.709 L341.3008,207.709 C356.3008,207.709 356.3008,207.709 371.3008,207.709 L381.3008,207.709" fill="none" style="stroke:#0078D4;stroke-width:3;"/><text fill="#000000" font-family="sans-serif" font-size="14" lengthAdjust="spacing" textLength="160.6855" x="384.3008" y="231.4883">Not for PII classification</text><path d="M331.3008,207.709 L341.3008,207.709 C356.3008,207.709 356.3008,226.1973 371.3008,226.1973 L381.3008,226.1973" fill="none" style="stroke:#0078D4;stroke-width:3;"/><path d="M171.1826,151.2207 L181.1826,151.2207 C196.1826,151.2207 196.1826,207.709 211.1826,207.709 L221.1826,207.709" fill="none" style="stroke:#FF5F46;stroke-width:3;"/><rect fill="#0078D4" height="36.4883" rx="12.5" ry="12.5" style="stroke:#0078D4;stroke-width:3;" width="167.1709" x="221.1826" y="245.9531"/><text fill="#FFFFFF" font-family="sans-serif" font-size="14" lengthAdjust="spacing" textLength="147.1709" x="231.1826" y="269.4883">Required permissions</text><text fill="#000000" font-family="sans-serif" font-size="14" lengthAdjust="spacing" textLength="223.542" x="441.3535" y="260.2441">Ownership OR MODIFY + SELECT</text><path d="M388.3535,264.1973 L398.3535,264.1973 C413.3535,264.1973 413.3535,254.9531 428.3535,254.9531 L438.3535,254.9531" fill="none" style="stroke:#0078D4;stroke-width:3;"/><text fill="#000000" font-family="sans-serif" font-size="14" lengthAdjust="spacing" textLength="201.6396" x="441.3535" y="278.7324">USE CATALOG + USE SCHEMA</text><path d="M388.3535,264.1973 L398.3535,264.1973 C413.3535,264.1973 413.3535,273.4414 428.3535,273.4414 L438.3535,273.4414" fill="none" style="stroke:#0078D4;stroke-width:3;"/><path d="M171.1826,151.2207 L181.1826,151.2207 C196.1826,151.2207 196.1826,264.1973 211.1826,264.1973 L221.1826,264.1973" fill="none" style="stroke:#FF5F46;stroke-width:3;"/><?plantuml-src VPFVJjim5CRlynH7cZHjXONGCVP721620v6IPah3nIGavCOdhTN4pcnt1I5kUG0USKyoDqdPbgaxT_xExvpl75i-quOgKtF1Qjeu9zhSLtZgV67OcCKRxoqyE63Zd1RBkP8hmG9PIGMlml13U7JSvc8ky5yrbCBqQjd62vilUB4Kg3MyTptdSUjrkDFBypv-kZWQUWtKlxiE9WZR-EqrtkbLbhFFdZVq6gZ_zVBQi5upULTjc8UTnCb1VzqZy1c3GDOr2gDlX96GqvcjXjTMhLQrqCve146Q96IIGpgnfz5jMsHHqwBxK7JaFkXYWJNL7PHGjMHoBQ2KggR6S347lMeQgGoojcj6_9n0xf_7f2k9H6MtVB6JecyD34ikkE5IR0hzE2VPdtMT4AJnTJ81rtMt7LeuUZT7WOfshfOEgA6Ld0EvQ-ore8AVJyyMWotMKHd-uBY66Thn4MXHs0UqAtJ9YJIRjU1h545HKQrvoGkwdI_3xokka463gkOsAKL_9-dQMkW5Ro3D84alel0RxC6Kn2J8E-9wIY3mSpzEBsrcSve6LoJndJEqFwN_BSwXE_R6n-xu5m00?></g></svg>