<?plantuml 1.2026.2?><svg xmlns="http://www.w3.org/2000/svg" xmlns:xlink="http://www.w3.org/1999/xlink" contentStyleType="text/css" data-diagram-type="MINDMAP" height="282px" preserveAspectRatio="none" style="width:664px;height:282px;background:#FFFFFF;" version="1.1" viewBox="0 0 664 282" width="664px" zoomAndPan="magnify"><defs/><g><rect fill="#FF5F46" height="52.9766" rx="12.5" ry="12.5" style="stroke:#FF5F46;stroke-width:3;" width="147.9961" x="10" y="113.6973"/><text fill="#FFFFFF" font-family="sans-serif" font-size="14" lengthAdjust="spacing" textLength="127.9961" x="20" y="137.2324">Explore &amp; Discover</text><text fill="#FFFFFF" font-family="sans-serif" font-size="14" lengthAdjust="spacing" textLength="118.3848" x="20" y="153.7207">Database Objects</text><rect fill="#0078D4" height="36.4883" rx="12.5" ry="12.5" style="stroke:#0078D4;stroke-width:3;" width="133.0801" x="207.9961" y="28.7324"/><text fill="#FFFFFF" font-family="sans-serif" font-size="14" lengthAdjust="spacing" textLength="113.0801" x="217.9961" y="52.2676">Catalog Explorer</text><text fill="#000000" font-family="sans-serif" font-size="14" lengthAdjust="spacing" textLength="208.7354" x="394.0762" y="24.5352">Columns, Sample Data, Details</text><path d="M341.0762,46.9766 L351.0762,46.9766 C366.0762,46.9766 366.0762,19.2441 381.0762,19.2441 L391.0762,19.2441" fill="none" style="stroke:#0078D4;stroke-width:3;"/><text fill="#000000" font-family="sans-serif" font-size="14" lengthAdjust="spacing" textLength="168.5879" x="394.0762" y="43.0234">History tab (Delta tables)</text><path d="M341.0762,46.9766 L351.0762,46.9766 C366.0762,46.9766 366.0762,37.7324 381.0762,37.7324 L391.0762,37.7324" fill="none" style="stroke:#0078D4;stroke-width:3;"/><text fill="#000000" font-family="sans-serif" font-size="14" lengthAdjust="spacing" textLength="234.3428" x="394.0762" y="61.5117">Insights: queries &amp; users (30 days)</text><path d="M341.0762,46.9766 L351.0762,46.9766 C366.0762,46.9766 366.0762,56.2207 381.0762,56.2207 L391.0762,56.2207" fill="none" style="stroke:#0078D4;stroke-width:3;"/><text fill="#000000" font-family="sans-serif" font-size="14" lengthAdjust="spacing" textLength="164.377" x="394.0762" y="80">View relationships (ERD)</text><path d="M341.0762,46.9766 L351.0762,46.9766 C366.0762,46.9766 366.0762,74.709 381.0762,74.709 L391.0762,74.709" fill="none" style="stroke:#0078D4;stroke-width:3;"/><path d="M157.9961,140.1855 L167.9961,140.1855 C182.9961,140.1855 182.9961,46.9766 197.9961,46.9766 L207.9961,46.9766" fill="none" style="stroke:#FF5F46;stroke-width:3;"/><rect fill="#0078D4" height="36.4883" rx="12.5" ry="12.5" style="stroke:#0078D4;stroke-width:3;" width="127.1055" x="207.9961" y="102.6855"/><text fill="#FFFFFF" font-family="sans-serif" font-size="14" lengthAdjust="spacing" textLength="107.1055" x="217.9961" y="126.2207">SQL Commands</text><text fill="#000000" font-family="sans-serif" font-size="14" lengthAdjust="spacing" textLength="264.8857" x="388.1016" y="98.4883">SHOW CATALOGS / SCHEMAS / TABLES</text><path d="M335.1016,120.9297 L345.1016,120.9297 C360.1016,120.9297 360.1016,93.1973 375.1016,93.1973 L385.1016,93.1973" fill="none" style="stroke:#0078D4;stroke-width:3;"/><text fill="#000000" font-family="sans-serif" font-size="14" lengthAdjust="spacing" textLength="185.999" x="388.1016" y="116.9766">DESCRIBE TABLE EXTENDED</text><path d="M335.1016,120.9297 L345.1016,120.9297 C360.1016,120.9297 360.1016,111.6855 375.1016,111.6855 L385.1016,111.6855" fill="none" style="stroke:#0078D4;stroke-width:3;"/><text fill="#000000" font-family="sans-serif" font-size="14" lengthAdjust="spacing" textLength="233.0098" x="388.1016" y="135.4648">SHOW COLUMNS / TBLPROPERTIES</text><path d="M335.1016,120.9297 L345.1016,120.9297 C360.1016,120.9297 360.1016,130.1738 375.1016,130.1738 L385.1016,130.1738" fill="none" style="stroke:#0078D4;stroke-width:3;"/><text fill="#000000" font-family="sans-serif" font-size="14" lengthAdjust="spacing" textLength="181.7949" x="388.1016" y="153.9531">Pattern matching with LIKE</text><path d="M335.1016,120.9297 L345.1016,120.9297 C360.1016,120.9297 360.1016,148.6621 375.1016,148.6621 L385.1016,148.6621" fill="none" style="stroke:#0078D4;stroke-width:3;"/><path d="M157.9961,140.1855 L167.9961,140.1855 C182.9961,140.1855 182.9961,120.9297 197.9961,120.9297 L207.9961,120.9297" fill="none" style="stroke:#FF5F46;stroke-width:3;"/><rect fill="#0078D4" height="36.4883" rx="12.5" ry="12.5" style="stroke:#0078D4;stroke-width:3;" width="94.4023" x="207.9961" y="167.3945"/><text fill="#FFFFFF" font-family="sans-serif" font-size="14" lengthAdjust="spacing" textLength="74.4023" x="217.9961" y="190.9297">Tag Search</text><text fill="#000000" font-family="sans-serif" font-size="14" lengthAdjust="spacing" textLength="148.5244" x="355.3984" y="172.4414">Workspace search bar</text><path d="M302.3984,185.6387 L312.3984,185.6387 C327.3984,185.6387 327.3984,167.1504 342.3984,167.1504 L352.3984,167.1504" fill="none" style="stroke:#0078D4;stroke-width:3;"/><text fill="#000000" font-family="sans-serif" font-size="14" lengthAdjust="spacing" textLength="177.7686" x="355.3984" y="190.9297">Search by tag key or value</text><path d="M302.3984,185.6387 L312.3984,185.6387 C327.3984,185.6387 327.3984,185.6387 342.3984,185.6387 L352.3984,185.6387" fill="none" style="stroke:#0078D4;stroke-width:3;"/><text fill="#000000" font-family="sans-serif" font-size="14" lengthAdjust="spacing" textLength="180.8652" x="355.3984" y="209.418">Requires BROWSE privilege</text><path d="M302.3984,185.6387 L312.3984,185.6387 C327.3984,185.6387 327.3984,204.127 342.3984,204.127 L352.3984,204.127" fill="none" style="stroke:#0078D4;stroke-width:3;"/><path d="M157.9961,140.1855 L167.9961,140.1855 C182.9961,140.1855 182.9961,185.6387 197.9961,185.6387 L207.9961,185.6387" fill="none" style="stroke:#FF5F46;stroke-width:3;"/><rect fill="#0078D4" height="36.4883" rx="12.5" ry="12.5" style="stroke:#0078D4;stroke-width:3;" width="132.0684" x="207.9961" y="223.8828"/><text fill="#FFFFFF" font-family="sans-serif" font-size="14" lengthAdjust="spacing" textLength="112.0684" x="217.9961" y="247.418">AI/BI Integration</text><text fill="#000000" font-family="sans-serif" font-size="14" lengthAdjust="spacing" textLength="243.5439" x="393.0645" y="238.1738">AI/BI Genie natural language search</text><path d="M340.0645,242.127 L350.0645,242.127 C365.0645,242.127 365.0645,232.8828 380.0645,232.8828 L390.0645,232.8828" fill="none" style="stroke:#0078D4;stroke-width:3;"/><text fill="#000000" font-family="sans-serif" font-size="14" lengthAdjust="spacing" textLength="210.4648" x="393.0645" y="256.6621">Metadata improves AI accuracy</text><path d="M340.0645,242.127 L350.0645,242.127 C365.0645,242.127 365.0645,251.3711 380.0645,251.3711 L390.0645,251.3711" fill="none" style="stroke:#0078D4;stroke-width:3;"/><path d="M157.9961,140.1855 L167.9961,140.1855 C182.9961,140.1855 182.9961,242.127 197.9961,242.127 L207.9961,242.127" fill="none" style="stroke:#FF5F46;stroke-width:3;"/><?plantuml-src VLDhRzem5FsUNt6bIHD55QJqiQsgfW8n9LfeM9ADVPWqcUIIU3XEQZkqgDf_d_DW3wRkVdBEEVUUg-FuLcagTSv4ajFIkb5wp_6zTPrWgREUVGBF5fYQq7YRog8IoRJWXOHNizdbxEAguJmcy5zqLWZTePkcVccZZCLRWKh1-S2sVXoypbxqikqtRvsBOwyZzE-fHnlCclhjDNhHQxDPlxFjOwyZzBzUTbF6QrqyyLhp_ABYPjZ5tGVoL1eEuJKuJCN53kLNuL1DrrGX-Ell66jbzVimDHWlqeDU6gp_3SpWAXVg54AQbnoXxZm51pLbNBMIELEwa7im8w7d8DUqFfe5JrhU5OgbcLRNy52XPAZCAfL2gQ1tRaD2zmVXPuQF895JpGgXCbOQ1GcSceNmesTsoNCgaiusdFihc8wZiUVVXJ24S3edYt5zYiOJZuIjoY7XD70df0M1V8d8lKESFqVutgV5VTCtyPQ1loH1v1xQbrHhb09ogkECYHGUcSx0Sp-GUgc8fX0YbN7MgbU5tAgInWYgGM5DknZ3xhjEAOKjxi5Sruxo2bi-m8UAIHFD9F1N8O5IiXtZcDOqZDtXn3KnQanbaqtRqy9tA1Y2eBgIb0Ed8greUbYW5IxCRINcte3bfJG_W3AjGEFOTCHxwnRD0-qUgNKs6DcZgy7e9m00?></g></svg>