<?plantuml 1.2026.2?><svg xmlns="http://www.w3.org/2000/svg" xmlns:xlink="http://www.w3.org/1999/xlink" contentStyleType="text/css" data-diagram-type="MINDMAP" height="304px" preserveAspectRatio="none" style="width:661px;height:304px;background:#FFFFFF;" version="1.1" viewBox="0 0 661 304" width="661px" zoomAndPan="magnify"><defs/><g><rect fill="#FF5F46" height="52.9766" rx="12.5" ry="12.5" style="stroke:#FF5F46;stroke-width:3;" width="121.1924" x="10" y="124.7324"/><text fill="#FFFFFF" font-family="sans-serif" font-size="14" lengthAdjust="spacing" textLength="101.1924" x="20" y="148.2676">Create Column</text><text fill="#FFFFFF" font-family="sans-serif" font-size="14" lengthAdjust="spacing" textLength="90.125" x="20" y="164.7559">Mask Policies</text><rect fill="#0078D4" height="36.4883" rx="12.5" ry="12.5" style="stroke:#0078D4;stroke-width:3;" width="74.5029" x="181.1924" y="20"/><text fill="#FFFFFF" font-family="sans-serif" font-size="14" lengthAdjust="spacing" textLength="54.5029" x="191.1924" y="43.5352">Purpose</text><text fill="#000000" font-family="sans-serif" font-size="14" lengthAdjust="spacing" textLength="202.624" x="308.6953" y="34.291">Control what values users see</text><path d="M255.6953,38.2441 L265.6953,38.2441 C280.6953,38.2441 280.6953,29 295.6953,29 L305.6953,29" fill="none" style="stroke:#0078D4;stroke-width:3;"/><text fill="#000000" font-family="sans-serif" font-size="14" lengthAdjust="spacing" textLength="187.3115" x="308.6953" y="52.7793">Mask sensitive column data</text><path d="M255.6953,38.2441 L265.6953,38.2441 C280.6953,38.2441 280.6953,47.4883 295.6953,47.4883 L305.6953,47.4883" fill="none" style="stroke:#0078D4;stroke-width:3;"/><path d="M131.1924,151.2207 L141.1924,151.2207 C156.1924,151.2207 156.1924,38.2441 171.1924,38.2441 L181.1924,38.2441" fill="none" style="stroke:#FF5F46;stroke-width:3;"/><rect fill="#0078D4" height="36.4883" rx="12.5" ry="12.5" style="stroke:#0078D4;stroke-width:3;" width="108.6963" x="181.1924" y="76.4883"/><text fill="#FFFFFF" font-family="sans-serif" font-size="14" lengthAdjust="spacing" textLength="88.6963" x="191.1924" y="100.0234">Masking UDF</text><text fill="#000000" font-family="sans-serif" font-size="14" lengthAdjust="spacing" textLength="215.667" x="342.8887" y="90.7793">Returns masked/redacted value</text><path d="M289.8887,94.7324 L299.8887,94.7324 C314.8887,94.7324 314.8887,85.4883 329.8887,85.4883 L339.8887,85.4883" fill="none" style="stroke:#0078D4;stroke-width:3;"/><text fill="#000000" font-family="sans-serif" font-size="14" lengthAdjust="spacing" textLength="217.5674" x="342.8887" y="109.2676">Same data type as input column</text><path d="M289.8887,94.7324 L299.8887,94.7324 C314.8887,94.7324 314.8887,103.9766 329.8887,103.9766 L339.8887,103.9766" fill="none" style="stroke:#0078D4;stroke-width:3;"/><path d="M131.1924,151.2207 L141.1924,151.2207 C156.1924,151.2207 156.1924,94.7324 171.1924,94.7324 L181.1924,94.7324" fill="none" style="stroke:#FF5F46;stroke-width:3;"/><rect fill="#0078D4" height="36.4883" rx="12.5" ry="12.5" style="stroke:#0078D4;stroke-width:3;" width="174.3008" x="181.1924" y="132.9766"/><text fill="#FFFFFF" font-family="sans-serif" font-size="14" lengthAdjust="spacing" textLength="154.3008" x="191.1924" y="156.5117">CREATE POLICY syntax</text><text fill="#000000" font-family="sans-serif" font-size="14" lengthAdjust="spacing" textLength="164.9854" x="408.4932" y="128.7793">ON SCHEMA / CATALOG</text><path d="M355.4932,151.2207 L365.4932,151.2207 C380.4932,151.2207 380.4932,123.4883 395.4932,123.4883 L405.4932,123.4883" fill="none" style="stroke:#0078D4;stroke-width:3;"/><text fill="#000000" font-family="sans-serif" font-size="14" lengthAdjust="spacing" textLength="185.9102" x="408.4932" y="147.2676">COLUMN MASK &lt;function&gt;</text><path d="M355.4932,151.2207 L365.4932,151.2207 C380.4932,151.2207 380.4932,141.9766 395.4932,141.9766 L405.4932,141.9766" fill="none" style="stroke:#0078D4;stroke-width:3;"/><text fill="#000000" font-family="sans-serif" font-size="14" lengthAdjust="spacing" textLength="241.1787" x="408.4932" y="165.7559">TO principal EXCEPT exempt_group</text><path d="M355.4932,151.2207 L365.4932,151.2207 C380.4932,151.2207 380.4932,160.4648 395.4932,160.4648 L405.4932,160.4648" fill="none" style="stroke:#0078D4;stroke-width:3;"/><text fill="#000000" font-family="sans-serif" font-size="14" lengthAdjust="spacing" textLength="235.7578" x="408.4932" y="184.2441">MATCH COLUMNS hasTagValue(...)</text><path d="M355.4932,151.2207 L365.4932,151.2207 C380.4932,151.2207 380.4932,178.9531 395.4932,178.9531 L405.4932,178.9531" fill="none" style="stroke:#0078D4;stroke-width:3;"/><path d="M131.1924,151.2207 L141.1924,151.2207 C156.1924,151.2207 156.1924,151.2207 171.1924,151.2207 L181.1924,151.2207" fill="none" style="stroke:#FF5F46;stroke-width:3;"/><rect fill="#0078D4" height="36.4883" rx="12.5" ry="12.5" style="stroke:#0078D4;stroke-width:3;" width="77.6338" x="181.1924" y="189.4648"/><text fill="#FFFFFF" font-family="sans-serif" font-size="14" lengthAdjust="spacing" textLength="57.6338" x="191.1924" y="213">Example</text><text fill="#000000" font-family="sans-serif" font-size="14" lengthAdjust="spacing" textLength="51.4883" x="311.8262" y="203.7559">SSN &#8594; '</text><text fill="#000000" font-family="sans-serif" font-size="14" font-weight="bold" lengthAdjust="spacing" textLength="15.4697" x="363.3145" y="203.7559">*-</text><text fill="#000000" font-family="sans-serif" font-size="14" lengthAdjust="spacing" textLength="38.2949" x="378.7842" y="203.7559">-****'</text><path d="M258.8262,207.709 L268.8262,207.709 C283.8262,207.709 283.8262,198.4648 298.8262,198.4648 L308.8262,198.4648" fill="none" style="stroke:#0078D4;stroke-width:3;"/><text fill="#000000" font-family="sans-serif" font-size="14" lengthAdjust="spacing" textLength="264.4482" x="311.8262" y="222.2441">Only compliance_team sees real values</text><path d="M258.8262,207.709 L268.8262,207.709 C283.8262,207.709 283.8262,216.9531 298.8262,216.9531 L308.8262,216.9531" fill="none" style="stroke:#0078D4;stroke-width:3;"/><path d="M131.1924,151.2207 L141.1924,151.2207 C156.1924,151.2207 156.1924,207.709 171.1924,207.709 L181.1924,207.709" fill="none" style="stroke:#FF5F46;stroke-width:3;"/><rect fill="#0078D4" height="36.4883" rx="12.5" ry="12.5" style="stroke:#0078D4;stroke-width:3;" width="88.5781" x="181.1924" y="245.9531"/><text fill="#FFFFFF" font-family="sans-serif" font-size="14" lengthAdjust="spacing" textLength="68.5781" x="191.1924" y="269.4883">Applies to</text><text fill="#000000" font-family="sans-serif" font-size="14" lengthAdjust="spacing" textLength="235.9014" x="322.7705" y="260.2441">Columns tagged with specified tag</text><path d="M269.7705,264.1973 L279.7705,264.1973 C294.7705,264.1973 294.7705,254.9531 309.7705,254.9531 L319.7705,254.9531" fill="none" style="stroke:#0078D4;stroke-width:3;"/><text fill="#000000" font-family="sans-serif" font-size="14" lengthAdjust="spacing" textLength="208.1816" x="322.7705" y="278.7324">Scope: schema or catalog level</text><path d="M269.7705,264.1973 L279.7705,264.1973 C294.7705,264.1973 294.7705,273.4414 309.7705,273.4414 L319.7705,273.4414" fill="none" style="stroke:#0078D4;stroke-width:3;"/><path d="M131.1924,151.2207 L141.1924,151.2207 C156.1924,151.2207 156.1924,264.1973 171.1924,264.1973 L181.1924,264.1973" fill="none" style="stroke:#FF5F46;stroke-width:3;"/><?plantuml-src VLDTQzim57tthxYmXxQ6EMxMTLi9fPvhhsNved771eEWoZUsY2m9IquJobxx0_eJzqicEyh6ChAB7wnpZy-v7zQLDgGs5HDvHPGtq6R3yTAxo56PyZWyWISFR7maT5dKiX5vBBciuLMQlatFphlSa0dy5qsbC0vTTF6RcvMCBWLg3M-2qFknypezw1M6xzvVd-rxxQ5_g-vLa7Rnnwj_q6knUFWGXljUU-X_lS8khDU3NFEMytIGCUYvSViGrqWCWcKqbVWkHaGlOIevemorv_imRMebDTfNVsvPmjIImsD93Am8Rr13ex7MeD5HEW6DGZF3LWYqquMS6DAgjLac2hY_JhVqEpHDBJHKDe5vhyQSK8FvLdnBcP4AEm4m6uL0D32X6kEaMzNuBeco1AQJuMty3VH66BBUVZiPmoo-IKOHz22EicWu-UGwcGplHsCOHRFFC5WqWXecnUKsbqr0rKnGfWY7v6kSJ3F0DLRApDkLATTebCKtJcS69T4PARwqLHy7GN3IbfMiIQNuhelP67u-ly2HFRtk7jy_SaKAlh7TM2uZWkBS8AdQWMgmk-5kpgrWf2p5maRkrj5Em9v9KTYPFJ9JWbP8sOBPeqMTDPKABq3J4Yi2zaUWTfXS5i1nXToxGdi5tJNqJeD-s3yF-hy0?></g></svg>