<?plantuml 1.2026.2?><svg xmlns="http://www.w3.org/2000/svg" xmlns:xlink="http://www.w3.org/1999/xlink" contentStyleType="text/css" data-diagram-type="MINDMAP" height="312px" preserveAspectRatio="none" style="width:644px;height:312px;background:#FFFFFF;" version="1.1" viewBox="0 0 644 312" width="644px" zoomAndPan="magnify"><defs/><g><rect fill="#FF5F46" height="52.9766" rx="12.5" ry="12.5" style="stroke:#FF5F46;stroke-width:3;" width="109.3799" x="10" y="128.8428"/><text fill="#FFFFFF" font-family="sans-serif" font-size="14" lengthAdjust="spacing" textLength="76.6514" x="20" y="152.3779">Create Row</text><text fill="#FFFFFF" font-family="sans-serif" font-size="14" lengthAdjust="spacing" textLength="89.3799" x="20" y="168.8662">Filter Policies</text><rect fill="#0078D4" height="36.4883" rx="12.5" ry="12.5" style="stroke:#0078D4;stroke-width:3;" width="74.5029" x="169.3799" y="20"/><text fill="#FFFFFF" font-family="sans-serif" font-size="14" lengthAdjust="spacing" textLength="54.5029" x="179.3799" y="43.5352">Purpose</text><text fill="#000000" font-family="sans-serif" font-size="14" lengthAdjust="spacing" textLength="199.165" x="296.8828" y="34.291">Control which rows users see</text><path d="M243.8828,38.2441 L253.8828,38.2441 C268.8828,38.2441 268.8828,29 283.8828,29 L293.8828,29" fill="none" style="stroke:#0078D4;stroke-width:3;"/><text fill="#000000" font-family="sans-serif" font-size="14" lengthAdjust="spacing" textLength="162.3467" x="296.8828" y="52.7793">Based on governed tags</text><path d="M243.8828,38.2441 L253.8828,38.2441 C268.8828,38.2441 268.8828,47.4883 283.8828,47.4883 L293.8828,47.4883" fill="none" style="stroke:#0078D4;stroke-width:3;"/><path d="M119.3799,155.3311 L129.3799,155.3311 C144.3799,155.3311 144.3799,38.2441 159.3799,38.2441 L169.3799,38.2441" fill="none" style="stroke:#FF5F46;stroke-width:3;"/><rect fill="#0078D4" height="36.4883" rx="12.5" ry="12.5" style="stroke:#0078D4;stroke-width:3;" width="47.6924" x="169.3799" y="76.4883"/><text fill="#FFFFFF" font-family="sans-serif" font-size="14" lengthAdjust="spacing" textLength="27.6924" x="179.3799" y="100.0234">UDF</text><text fill="#000000" font-family="sans-serif" font-size="14" lengthAdjust="spacing" textLength="121.4199" x="270.0723" y="81.5352">Returns BOOLEAN</text><path d="M217.0723,94.7324 L227.0723,94.7324 C242.0723,94.7324 242.0723,76.2441 257.0723,76.2441 L267.0723,76.2441" fill="none" style="stroke:#0078D4;stroke-width:3;"/><text fill="#000000" font-family="sans-serif" font-size="14" lengthAdjust="spacing" textLength="127.6611" x="270.0723" y="100.0234">TRUE = row visible</text><path d="M217.0723,94.7324 L227.0723,94.7324 C242.0723,94.7324 242.0723,94.7324 257.0723,94.7324 L267.0723,94.7324" fill="none" style="stroke:#0078D4;stroke-width:3;"/><text fill="#000000" font-family="sans-serif" font-size="14" lengthAdjust="spacing" textLength="136.1377" x="270.0723" y="118.5117">FALSE = row hidden</text><path d="M217.0723,94.7324 L227.0723,94.7324 C242.0723,94.7324 242.0723,113.2207 257.0723,113.2207 L267.0723,113.2207" fill="none" style="stroke:#0078D4;stroke-width:3;"/><path d="M119.3799,155.3311 L129.3799,155.3311 C144.3799,155.3311 144.3799,94.7324 159.3799,94.7324 L169.3799,94.7324" fill="none" style="stroke:#FF5F46;stroke-width:3;"/><rect fill="#0078D4" height="36.4883" rx="12.5" ry="12.5" style="stroke:#0078D4;stroke-width:3;" width="174.3008" x="169.3799" y="141.1973"/><text fill="#FFFFFF" font-family="sans-serif" font-size="14" lengthAdjust="spacing" textLength="154.3008" x="179.3799" y="164.7324">CREATE POLICY syntax</text><text fill="#000000" font-family="sans-serif" font-size="14" lengthAdjust="spacing" textLength="164.9854" x="396.6807" y="137">ON CATALOG / SCHEMA</text><path d="M343.6807,159.4414 L353.6807,159.4414 C368.6807,159.4414 368.6807,131.709 383.6807,131.709 L393.6807,131.709" fill="none" style="stroke:#0078D4;stroke-width:3;"/><text fill="#000000" font-family="sans-serif" font-size="14" lengthAdjust="spacing" textLength="163.3857" x="396.6807" y="155.4883">ROW FILTER &lt;function&gt;</text><path d="M343.6807,159.4414 L353.6807,159.4414 C368.6807,159.4414 368.6807,150.1973 383.6807,150.1973 L393.6807,150.1973" fill="none" style="stroke:#0078D4;stroke-width:3;"/><text fill="#000000" font-family="sans-serif" font-size="14" lengthAdjust="spacing" textLength="105.499" x="396.6807" y="173.9766">TO &lt;principal&gt;</text><path d="M343.6807,159.4414 L353.6807,159.4414 C368.6807,159.4414 368.6807,168.6855 383.6807,168.6855 L393.6807,168.6855" fill="none" style="stroke:#0078D4;stroke-width:3;"/><text fill="#000000" font-family="sans-serif" font-size="14" lengthAdjust="spacing" textLength="235.7578" x="396.6807" y="192.4648">MATCH COLUMNS hasTagValue(...)</text><path d="M343.6807,159.4414 L353.6807,159.4414 C368.6807,159.4414 368.6807,187.1738 383.6807,187.1738 L393.6807,187.1738" fill="none" style="stroke:#0078D4;stroke-width:3;"/><path d="M119.3799,155.3311 L129.3799,155.3311 C144.3799,155.3311 144.3799,159.4414 159.3799,159.4414 L169.3799,159.4414" fill="none" style="stroke:#FF5F46;stroke-width:3;"/><rect fill="#0078D4" height="36.4883" rx="12.5" ry="12.5" style="stroke:#0078D4;stroke-width:3;" width="133.0801" x="169.3799" y="197.6855"/><text fill="#FFFFFF" font-family="sans-serif" font-size="14" lengthAdjust="spacing" textLength="113.0801" x="179.3799" y="221.2207">Catalog Explorer</text><text fill="#000000" font-family="sans-serif" font-size="14" lengthAdjust="spacing" textLength="144.6553" x="355.46" y="211.9766">Visual policy creation</text><path d="M302.46,215.9297 L312.46,215.9297 C327.46,215.9297 327.46,206.6855 342.46,206.6855 L352.46,206.6855" fill="none" style="stroke:#0078D4;stroke-width:3;"/><text fill="#000000" font-family="sans-serif" font-size="14" lengthAdjust="spacing" textLength="211.1279" x="355.46" y="230.4648">Policies tab on catalog/schema</text><path d="M302.46,215.9297 L312.46,215.9297 C327.46,215.9297 327.46,225.1738 342.46,225.1738 L352.46,225.1738" fill="none" style="stroke:#0078D4;stroke-width:3;"/><path d="M119.3799,155.3311 L129.3799,155.3311 C144.3799,155.3311 144.3799,215.9297 159.3799,215.9297 L169.3799,215.9297" fill="none" style="stroke:#FF5F46;stroke-width:3;"/><rect fill="#0078D4" height="36.4883" rx="12.5" ry="12.5" style="stroke:#0078D4;stroke-width:3;" width="88.5781" x="169.3799" y="254.1738"/><text fill="#FFFFFF" font-family="sans-serif" font-size="14" lengthAdjust="spacing" textLength="68.5781" x="179.3799" y="277.709">Applies to</text><text fill="#000000" font-family="sans-serif" font-size="14" lengthAdjust="spacing" textLength="190.2168" x="310.958" y="268.4648">Tables matching tag criteria</text><path d="M257.958,272.418 L267.958,272.418 C282.958,272.418 282.958,263.1738 297.958,263.1738 L307.958,263.1738" fill="none" style="stroke:#0078D4;stroke-width:3;"/><text fill="#000000" font-family="sans-serif" font-size="14" lengthAdjust="spacing" textLength="261.1738" x="310.958" y="286.9531">Automatically for new matching tables</text><path d="M257.958,272.418 L267.958,272.418 C282.958,272.418 282.958,281.6621 297.958,281.6621 L307.958,281.6621" fill="none" style="stroke:#0078D4;stroke-width:3;"/><path d="M119.3799,155.3311 L129.3799,155.3311 C144.3799,155.3311 144.3799,272.418 159.3799,272.418 L169.3799,272.418" fill="none" style="stroke:#FF5F46;stroke-width:3;"/><?plantuml-src VPDVQzim5CNV_IakxANDW-DcNRkLhDHnxRNWnC5nEWQ3eTZNjgWY6Kbk4ig---G_wJQFx3w9Uu_ExtA4xfGcKcyfpxQaigPA7nZUMZSPLheySyxXrG9JCv8-5rBKFFC44nBU1S67uFAgdOMKux_TG73TT_EsthH9ITDdZah1UzknVXvP5oTPZdFzyVvoo1fq_tOTR12qzPirESdAyyqdnnco1jt_ifos36iZzgpHl9vKJCTzt2Fm91AD48lTTnvGfb72KZ2QKbJMQ0JBMbP2eJcEVe1dhAHWi3Dhb235Ja6jK2fGs2jcH646WaCXNb1oSzQaQ8tMzq4dYL7NaYkOHL7ekukkcSHh7putbl125TsmtYzmmzLnKD8iGzvuUR7l9Zuie_3H-mRgm3NPT_fe0PwRk67q1SQmyXxykTjJewyGF8Q97yCqhtcggU2tFJk2QIKfJsb5MD-Rkudt05uKhkUB5PH49QHu8gp6CzkspziTY2PC5E3lAvCjokxU4rKrOL0r2HuWRR8re6vsZDL4icaYIZk7iKfBt9B6qwqgrWf4lnanGIZO4fsMb1TDbiQJcZUYf5EujHPcJ5F2s05oyyWSTtzUQ0oiEpIVhFzereKzSIPNzkGN?></g></svg>