<?plantuml 1.2026.2?><svg xmlns="http://www.w3.org/2000/svg" xmlns:xlink="http://www.w3.org/1999/xlink" contentStyleType="text/css" data-diagram-type="MINDMAP" height="282px" preserveAspectRatio="none" style="width:632px;height:282px;background:#FFFFFF;" version="1.1" viewBox="0 0 632 282" width="632px" zoomAndPan="magnify"><defs/><g><rect fill="#FF5F46" height="52.9766" rx="12.5" ry="12.5" style="stroke:#FF5F46;stroke-width:3;" width="112.415" x="10" y="113.9531"/><text fill="#FFFFFF" font-family="sans-serif" font-size="14" lengthAdjust="spacing" textLength="75.708" x="20" y="137.4883">Follow UDF</text><text fill="#FFFFFF" font-family="sans-serif" font-size="14" lengthAdjust="spacing" textLength="92.415" x="20" y="153.9766">Best Practices</text><rect fill="#0078D4" height="36.4883" rx="12.5" ry="12.5" style="stroke:#0078D4;stroke-width:3;" width="41.3623" x="172.415" y="28.7324"/><text fill="#FFFFFF" font-family="sans-serif" font-size="14" lengthAdjust="spacing" textLength="21.3623" x="182.415" y="52.2676">DO</text><text fill="#000000" font-family="sans-serif" font-size="14" lengthAdjust="spacing" textLength="231.0615" x="266.7773" y="24.5352">Keep logic simple (CASE, boolean)</text><path d="M213.7773,46.9766 L223.7773,46.9766 C238.7773,46.9766 238.7773,19.2441 253.7773,19.2441 L263.7773,19.2441" fill="none" style="stroke:#0078D4;stroke-width:3;"/><text fill="#000000" font-family="sans-serif" font-size="14" lengthAdjust="spacing" textLength="121.0713" x="266.7773" y="43.0234">Stay deterministic</text><path d="M213.7773,46.9766 L223.7773,46.9766 C238.7773,46.9766 238.7773,37.7324 253.7773,37.7324 L263.7773,37.7324" fill="none" style="stroke:#0078D4;stroke-width:3;"/><text fill="#000000" font-family="sans-serif" font-size="14" lengthAdjust="spacing" textLength="199.7529" x="266.7773" y="61.5117">Reference only table columns</text><path d="M213.7773,46.9766 L223.7773,46.9766 C238.7773,46.9766 238.7773,56.2207 253.7773,56.2207 L263.7773,56.2207" fill="none" style="stroke:#0078D4;stroke-width:3;"/><text fill="#000000" font-family="sans-serif" font-size="14" lengthAdjust="spacing" textLength="166.9951" x="266.7773" y="80">Test at scale (1M+ rows)</text><path d="M213.7773,46.9766 L223.7773,46.9766 C238.7773,46.9766 238.7773,74.709 253.7773,74.709 L263.7773,74.709" fill="none" style="stroke:#0078D4;stroke-width:3;"/><path d="M122.415,140.4414 L132.415,140.4414 C147.415,140.4414 147.415,46.9766 162.415,46.9766 L172.415,46.9766" fill="none" style="stroke:#FF5F46;stroke-width:3;"/><rect fill="#0078D4" height="36.4883" rx="12.5" ry="12.5" style="stroke:#0078D4;stroke-width:3;" width="64.208" x="172.415" y="102.6855"/><text fill="#FFFFFF" font-family="sans-serif" font-size="14" lengthAdjust="spacing" textLength="44.208" x="182.415" y="126.2207">AVOID</text><text fill="#000000" font-family="sans-serif" font-size="14" lengthAdjust="spacing" textLength="240.7002" x="289.623" y="98.4883">is_account_group_member() in UDF</text><path d="M236.623,120.9297 L246.623,120.9297 C261.623,120.9297 261.623,93.1973 276.623,93.1973 L286.623,93.1973" fill="none" style="stroke:#0078D4;stroke-width:3;"/><text fill="#000000" font-family="sans-serif" font-size="14" lengthAdjust="spacing" textLength="188.6104" x="289.623" y="116.9766">Complex subqueries / joins</text><path d="M236.623,120.9297 L246.623,120.9297 C261.623,120.9297 261.623,111.6855 276.623,111.6855 L286.623,111.6855" fill="none" style="stroke:#0078D4;stroke-width:3;"/><text fill="#000000" font-family="sans-serif" font-size="14" lengthAdjust="spacing" textLength="174.9248" x="289.623" y="135.4648">Heavy regex on large text</text><path d="M236.623,120.9297 L246.623,120.9297 C261.623,120.9297 261.623,130.1738 276.623,130.1738 L286.623,130.1738" fill="none" style="stroke:#0078D4;stroke-width:3;"/><text fill="#000000" font-family="sans-serif" font-size="14" lengthAdjust="spacing" textLength="161.5742" x="289.623" y="153.9531">Non-deterministic logic</text><path d="M236.623,120.9297 L246.623,120.9297 C261.623,120.9297 261.623,148.6621 276.623,148.6621 L286.623,148.6621" fill="none" style="stroke:#0078D4;stroke-width:3;"/><path d="M122.415,140.4414 L132.415,140.4414 C147.415,140.4414 147.415,120.9297 162.415,120.9297 L172.415,120.9297" fill="none" style="stroke:#FF5F46;stroke-width:3;"/><rect fill="#0078D4" height="36.4883" rx="12.5" ry="12.5" style="stroke:#0078D4;stroke-width:3;" width="175.5039" x="172.415" y="167.9063"/><text fill="#FFFFFF" font-family="sans-serif" font-size="14" lengthAdjust="spacing" textLength="155.5039" x="182.415" y="191.4414">Separation of concerns</text><text fill="#000000" font-family="sans-serif" font-size="14" lengthAdjust="spacing" textLength="204.3125" x="400.9189" y="182.1973">Policy: WHO the rules apply to</text><path d="M347.9189,186.1504 L357.9189,186.1504 C372.9189,186.1504 372.9189,176.9063 387.9189,176.9063 L397.9189,176.9063" fill="none" style="stroke:#0078D4;stroke-width:3;"/><text fill="#000000" font-family="sans-serif" font-size="14" lengthAdjust="spacing" textLength="219.5498" x="400.9189" y="200.6855">UDF: HOW to transform the data</text><path d="M347.9189,186.1504 L357.9189,186.1504 C372.9189,186.1504 372.9189,195.3945 387.9189,195.3945 L397.9189,195.3945" fill="none" style="stroke:#0078D4;stroke-width:3;"/><path d="M122.415,140.4414 L132.415,140.4414 C147.415,140.4414 147.415,186.1504 162.415,186.1504 L172.415,186.1504" fill="none" style="stroke:#FF5F46;stroke-width:3;"/><rect fill="#0078D4" height="36.4883" rx="12.5" ry="12.5" style="stroke:#0078D4;stroke-width:3;" width="155.7002" x="172.415" y="224.3945"/><text fill="#FFFFFF" font-family="sans-serif" font-size="14" lengthAdjust="spacing" textLength="135.7002" x="182.415" y="247.9297">Performance impact</text><text fill="#000000" font-family="sans-serif" font-size="14" lengthAdjust="spacing" textLength="138.1748" x="381.1152" y="229.4414">Runs on every query</text><path d="M328.1152,242.6387 L338.1152,242.6387 C353.1152,242.6387 353.1152,224.1504 368.1152,224.1504 L378.1152,224.1504" fill="none" style="stroke:#0078D4;stroke-width:3;"/><text fill="#000000" font-family="sans-serif" font-size="14" lengthAdjust="spacing" textLength="194.0107" x="381.1152" y="247.9297">Enables predicate pushdown</text><path d="M328.1152,242.6387 L338.1152,242.6387 C353.1152,242.6387 353.1152,242.6387 368.1152,242.6387 L378.1152,242.6387" fill="none" style="stroke:#0078D4;stroke-width:3;"/><text fill="#000000" font-family="sans-serif" font-size="14" lengthAdjust="spacing" textLength="177.6182" x="381.1152" y="266.418">Allows query optimization</text><path d="M328.1152,242.6387 L338.1152,242.6387 C353.1152,242.6387 353.1152,261.127 368.1152,261.127 L378.1152,261.127" fill="none" style="stroke:#0078D4;stroke-width:3;"/><path d="M122.415,140.4414 L132.415,140.4414 C147.415,140.4414 147.415,242.6387 162.415,242.6387 L172.415,242.6387" fill="none" style="stroke:#FF5F46;stroke-width:3;"/><?plantuml-src VLDTRnCn47o_Nx4IBqc0z19AWQf2JPEUWlX8H0fzGOfylht4rESrjg_9KV7ViSy9g45X7-vXTcvdPrQ-j8uPLmbLL4md5zOr4jycvmLgj-waNNX8mDSLutShGxKgnYJ9m9CiUvcTdhMz3qBXlsX6oktGigq_t9kru7SAhOKN_JJvjTSQ7DLAqrUl9wU7MWVeuwa76sHj_TKQ7jKgo_nDcXvg7Q3_rKhRybevRMNWF1nbN9piukxvjfIqWI-Jx9kwGkjWRXXtWgDDUZsOpFotjuJtY1eahGG7Aoej4JhZqUBw6UH44fdgHjh2iGOAT6ZyNONrOoB-6Kiqg3W2ATc0OxcVm4dMbRAHSHEacGFBMHW--FWK36ric0kZhxDtaqWJTiauzx6vPKXFBokiSZITBWWLF4JMcCAAMx1r_gD68z322NmdiHUR8hjlmE3ASqY1P6Q5u73hOliJgUUFJ4JdOPK5QcQO4_ulAhq3Rydifyv92jwSm-rq1cwDO6f_1M1Q1ySKENx5SvZERZq0pZ1bIp9LoowOOq5XZYPWB8Jba_Qts4LOAnkMnNiq3GHRJMnSgv2c1Msm49mv15tRTK4R5VkZS5yR_m3IJbJYP-iWkKJ_zdRlBndqX-dmh3_y3G00?></g></svg>