<?plantuml 1.2026.2?><svg xmlns="http://www.w3.org/2000/svg" xmlns:xlink="http://www.w3.org/1999/xlink" contentStyleType="text/css" data-diagram-type="MINDMAP" height="304px" preserveAspectRatio="none" style="width:682px;height:304px;background:#FFFFFF;" version="1.1" viewBox="0 0 682 304" width="682px" zoomAndPan="magnify"><defs/><g><rect fill="#FF5F46" height="52.9766" rx="12.5" ry="12.5" style="stroke:#FF5F46;stroke-width:3;" width="121.6709" x="10" y="124.7324"/><text fill="#FFFFFF" font-family="sans-serif" font-size="14" lengthAdjust="spacing" textLength="78.333" x="20" y="148.2676">Understand</text><text fill="#FFFFFF" font-family="sans-serif" font-size="14" lengthAdjust="spacing" textLength="101.6709" x="20" y="164.7559">Governed Tags</text><rect fill="#0078D4" height="36.4883" rx="12.5" ry="12.5" style="stroke:#0078D4;stroke-width:3;" width="140.4014" x="181.6709" y="20"/><text fill="#FFFFFF" font-family="sans-serif" font-size="14" lengthAdjust="spacing" textLength="120.4014" x="191.6709" y="43.5352">vs. Standard Tags</text><text fill="#000000" font-family="sans-serif" font-size="14" lengthAdjust="spacing" textLength="224.7588" x="375.0723" y="25.0469">Predefined keys &amp; allowed values</text><path d="M322.0723,38.2441 L332.0723,38.2441 C347.0723,38.2441 347.0723,19.7559 362.0723,19.7559 L372.0723,19.7559" fill="none" style="stroke:#0078D4;stroke-width:3;"/><text fill="#000000" font-family="sans-serif" font-size="14" lengthAdjust="spacing" textLength="225.5518" x="375.0723" y="43.5352">Only authorized users can assign</text><path d="M322.0723,38.2441 L332.0723,38.2441 C347.0723,38.2441 347.0723,38.2441 362.0723,38.2441 L372.0723,38.2441" fill="none" style="stroke:#0078D4;stroke-width:3;"/><text fill="#000000" font-family="sans-serif" font-size="14" lengthAdjust="spacing" textLength="199.0283" x="375.0723" y="62.0234">Lock icon in Catalog Explorer</text><path d="M322.0723,38.2441 L332.0723,38.2441 C347.0723,38.2441 347.0723,56.7324 362.0723,56.7324 L372.0723,56.7324" fill="none" style="stroke:#0078D4;stroke-width:3;"/><path d="M131.6709,151.2207 L141.6709,151.2207 C156.6709,151.2207 156.6709,38.2441 171.6709,38.2441 L181.6709,38.2441" fill="none" style="stroke:#FF5F46;stroke-width:3;"/><rect fill="#0078D4" height="36.4883" rx="12.5" ry="12.5" style="stroke:#0078D4;stroke-width:3;" width="77.6475" x="181.6709" y="76.4883"/><text fill="#FFFFFF" font-family="sans-serif" font-size="14" lengthAdjust="spacing" textLength="57.6475" x="191.6709" y="100.0234">Creating</text><text fill="#000000" font-family="sans-serif" font-size="14" lengthAdjust="spacing" textLength="278.7217" x="312.3184" y="81.5352">Catalog &#8594; Governance &#8594; Governed Tags</text><path d="M259.3184,94.7324 L269.3184,94.7324 C284.3184,94.7324 284.3184,76.2441 299.3184,76.2441 L309.3184,76.2441" fill="none" style="stroke:#0078D4;stroke-width:3;"/><text fill="#000000" font-family="sans-serif" font-size="14" lengthAdjust="spacing" textLength="190.5859" x="312.3184" y="100.0234">Define key + allowed values</text><path d="M259.3184,94.7324 L269.3184,94.7324 C284.3184,94.7324 284.3184,94.7324 299.3184,94.7324 L309.3184,94.7324" fill="none" style="stroke:#0078D4;stroke-width:3;"/><text fill="#000000" font-family="sans-serif" font-size="14" lengthAdjust="spacing" textLength="138.5439" x="312.3184" y="118.5117">Optional description</text><path d="M259.3184,94.7324 L269.3184,94.7324 C284.3184,94.7324 284.3184,113.2207 299.3184,113.2207 L309.3184,113.2207" fill="none" style="stroke:#0078D4;stroke-width:3;"/><path d="M131.6709,151.2207 L141.6709,151.2207 C156.6709,151.2207 156.6709,94.7324 171.6709,94.7324 L181.6709,94.7324" fill="none" style="stroke:#FF5F46;stroke-width:3;"/><rect fill="#0078D4" height="36.4883" rx="12.5" ry="12.5" style="stroke:#0078D4;stroke-width:3;" width="86.8623" x="181.6709" y="132.9766"/><text fill="#FFFFFF" font-family="sans-serif" font-size="14" lengthAdjust="spacing" textLength="66.8623" x="191.6709" y="156.5117">Assigning</text><text fill="#000000" font-family="sans-serif" font-size="14" lengthAdjust="spacing" textLength="129.1445" x="321.5332" y="147.2676">ALTER ... SET TAGS</text><path d="M268.5332,151.2207 L278.5332,151.2207 C293.5332,151.2207 293.5332,141.9766 308.5332,141.9766 L318.5332,141.9766" fill="none" style="stroke:#0078D4;stroke-width:3;"/><text fill="#000000" font-family="sans-serif" font-size="14" lengthAdjust="spacing" textLength="213.8281" x="321.5332" y="165.7559">Catalog, schema, table, column</text><path d="M268.5332,151.2207 L278.5332,151.2207 C293.5332,151.2207 293.5332,160.4648 308.5332,160.4648 L318.5332,160.4648" fill="none" style="stroke:#0078D4;stroke-width:3;"/><path d="M131.6709,151.2207 L141.6709,151.2207 C156.6709,151.2207 156.6709,151.2207 171.6709,151.2207 L181.6709,151.2207" fill="none" style="stroke:#FF5F46;stroke-width:3;"/><rect fill="#0078D4" height="36.4883" rx="12.5" ry="12.5" style="stroke:#0078D4;stroke-width:3;" width="95.6123" x="181.6709" y="189.4648"/><text fill="#FFFFFF" font-family="sans-serif" font-size="14" lengthAdjust="spacing" textLength="75.6123" x="191.6709" y="213">Inheritance</text><text fill="#000000" font-family="sans-serif" font-size="14" lengthAdjust="spacing" textLength="283.4932" x="330.2832" y="203.7559">Catalog &#8594; Schema (inherits to all objects)</text><path d="M277.2832,207.709 L287.2832,207.709 C302.2832,207.709 302.2832,198.4648 317.2832,198.4648 L327.2832,198.4648" fill="none" style="stroke:#0078D4;stroke-width:3;"/><text fill="#000000" font-family="sans-serif" font-size="14" lengthAdjust="spacing" textLength="185.8213" x="330.2832" y="222.2441">Column tags NOT inherited</text><path d="M277.2832,207.709 L287.2832,207.709 C302.2832,207.709 302.2832,216.9531 317.2832,216.9531 L327.2832,216.9531" fill="none" style="stroke:#0078D4;stroke-width:3;"/><path d="M131.6709,151.2207 L141.6709,151.2207 C156.6709,151.2207 156.6709,207.709 171.6709,207.709 L181.6709,207.709" fill="none" style="stroke:#FF5F46;stroke-width:3;"/><rect fill="#0078D4" height="36.4883" rx="12.5" ry="12.5" style="stroke:#0078D4;stroke-width:3;" width="161.9893" x="181.6709" y="245.9531"/><text fill="#FFFFFF" font-family="sans-serif" font-size="14" lengthAdjust="spacing" textLength="141.9893" x="191.6709" y="269.4883">Foundation for ABAC</text><text fill="#000000" font-family="sans-serif" font-size="14" lengthAdjust="spacing" textLength="205.0918" x="396.6602" y="260.2441">Tags drive policy enforcement</text><path d="M343.6602,264.1973 L353.6602,264.1973 C368.6602,264.1973 368.6602,254.9531 383.6602,254.9531 L393.6602,254.9531" fill="none" style="stroke:#0078D4;stroke-width:3;"/><text fill="#000000" font-family="sans-serif" font-size="14" lengthAdjust="spacing" textLength="273.9502" x="396.6602" y="278.7324">New tables auto-inherit policies via tags</text><path d="M343.6602,264.1973 L353.6602,264.1973 C368.6602,264.1973 368.6602,273.4414 383.6602,273.4414 L393.6602,273.4414" fill="none" style="stroke:#0078D4;stroke-width:3;"/><path d="M131.6709,151.2207 L141.6709,151.2207 C156.6709,151.2207 156.6709,264.1973 171.6709,264.1973 L181.6709,264.1973" fill="none" style="stroke:#FF5F46;stroke-width:3;"/><?plantuml-src VPFVRjCm5CRlynH7Ga9RLq9MnlYZ2IthcWcfsX0DTqZ8jKyIKyUkR2TRcRZT0_28F0csavKjevmxd_ETy_tY4vyQIxIjkMGrMKSdncu4VeZUCrpRQY_PXzi8N9mHkYgrQYIRAg4qFCkorzdHSQZDkSIdsKn9ssUB45jjNd6wacWCl8gJwEUzr-5EhoHvy_RyQEWro3wUEY38GlprckpqAehbkoGPUWso__LAGZYlfReHNdExKt7oih_k4NoH3BLRXMHVvOLgKKjaa9FIHACHj2Q6XQyHlKsEli4dZGmBxfKht1Xu3aG8TUsEBH4DzgehAJP06bifpN-uMcES4L0YWHZ3IzcfvegkW5CbWKkO4ak4Ac5sitR0g3t3L2EnN9QT_5xn--uNTBX4Kdnmn8UWvu7IGyB1lndNbYj9130qLFDmygPf8DowflDyzXdYsDt6B8SylLWyeXc3eHNMP0oMB0MEWIhHr67GHrcXvjP3Fls0HUY2FTw935ZbAK4jloErPh_l2CFSwDB0vLKElHgPdv_vNuXuR2ZSYjEpTDfr-Ki0fdcBi5Q2qmsWT0gADKhRIIxnkWCsVatgHJ-uqtENRJa9jj4fkbVQlzJeC9uaa-DuyWS0?></g></svg>