<?plantuml 1.2026.2?><svg xmlns="http://www.w3.org/2000/svg" xmlns:xlink="http://www.w3.org/1999/xlink" contentStyleType="text/css" data-diagram-type="MINDMAP" height="247px" preserveAspectRatio="none" style="width:635px;height:247px;background:#FFFFFF;" version="1.1" viewBox="0 0 635 247" width="635px" zoomAndPan="magnify"><defs/><g><rect fill="#FF5F46" height="52.9766" rx="12.5" ry="12.5" style="stroke:#FF5F46;stroke-width:3;" width="138.959" x="10" y="96.4883"/><text fill="#FFFFFF" font-family="sans-serif" font-size="14" lengthAdjust="spacing" textLength="118.959" x="20" y="120.0234">Policy Inheritance</text><text fill="#FFFFFF" font-family="sans-serif" font-size="14" lengthAdjust="spacing" textLength="54.1133" x="20" y="136.5117">&amp; Scope</text><rect fill="#0078D4" height="36.4883" rx="12.5" ry="12.5" style="stroke:#0078D4;stroke-width:3;" width="142.3701" x="198.959" y="20"/><text fill="#FFFFFF" font-family="sans-serif" font-size="14" lengthAdjust="spacing" textLength="122.3701" x="208.959" y="43.5352">Inheritance model</text><text fill="#000000" font-family="sans-serif" font-size="14" lengthAdjust="spacing" textLength="200.9971" x="394.3291" y="25.0469">Catalog &#8594; Schemas &#8594; Tables</text><path d="M341.3291,38.2441 L351.3291,38.2441 C366.3291,38.2441 366.3291,19.7559 381.3291,19.7559 L391.3291,19.7559" fill="none" style="stroke:#0078D4;stroke-width:3;"/><text fill="#000000" font-family="sans-serif" font-size="14" lengthAdjust="spacing" textLength="119.2393" x="394.3291" y="43.5352">Schema &#8594; Tables</text><path d="M341.3291,38.2441 L351.3291,38.2441 C366.3291,38.2441 366.3291,38.2441 381.3291,38.2441 L391.3291,38.2441" fill="none" style="stroke:#0078D4;stroke-width:3;"/><text fill="#000000" font-family="sans-serif" font-size="14" lengthAdjust="spacing" textLength="218.6133" x="394.3291" y="62.0234">Tag new table = auto-protected</text><path d="M341.3291,38.2441 L351.3291,38.2441 C366.3291,38.2441 366.3291,56.7324 381.3291,56.7324 L391.3291,56.7324" fill="none" style="stroke:#0078D4;stroke-width:3;"/><path d="M148.959,122.9766 L158.959,122.9766 C173.959,122.9766 173.959,38.2441 188.959,38.2441 L198.959,38.2441" fill="none" style="stroke:#FF5F46;stroke-width:3;"/><rect fill="#0078D4" height="36.4883" rx="12.5" ry="12.5" style="stroke:#0078D4;stroke-width:3;" width="109.5508" x="198.959" y="76.4883"/><text fill="#FFFFFF" font-family="sans-serif" font-size="14" lengthAdjust="spacing" textLength="89.5508" x="208.959" y="100.0234">Policy quotas</text><text fill="#000000" font-family="sans-serif" font-size="14" lengthAdjust="spacing" textLength="154.2393" x="361.5098" y="81.5352">10 policies per catalog</text><path d="M308.5098,94.7324 L318.5098,94.7324 C333.5098,94.7324 333.5098,76.2441 348.5098,76.2441 L358.5098,76.2441" fill="none" style="stroke:#0078D4;stroke-width:3;"/><text fill="#000000" font-family="sans-serif" font-size="14" lengthAdjust="spacing" textLength="156.5908" x="361.5098" y="100.0234">10 policies per schema</text><path d="M308.5098,94.7324 L318.5098,94.7324 C333.5098,94.7324 333.5098,94.7324 348.5098,94.7324 L358.5098,94.7324" fill="none" style="stroke:#0078D4;stroke-width:3;"/><text fill="#000000" font-family="sans-serif" font-size="14" lengthAdjust="spacing" textLength="129.7666" x="361.5098" y="118.5117">5 policies per table</text><path d="M308.5098,94.7324 L318.5098,94.7324 C333.5098,94.7324 333.5098,113.2207 348.5098,113.2207 L358.5098,113.2207" fill="none" style="stroke:#0078D4;stroke-width:3;"/><path d="M148.959,122.9766 L158.959,122.9766 C173.959,122.9766 173.959,94.7324 188.959,94.7324 L198.959,94.7324" fill="none" style="stroke:#FF5F46;stroke-width:3;"/><rect fill="#0078D4" height="36.4883" rx="12.5" ry="12.5" style="stroke:#0078D4;stroke-width:3;" width="110.4531" x="198.959" y="132.9766"/><text fill="#FFFFFF" font-family="sans-serif" font-size="14" lengthAdjust="spacing" textLength="90.4531" x="208.959" y="156.5117">Conflict rules</text><text fill="#000000" font-family="sans-serif" font-size="14" lengthAdjust="spacing" textLength="175.0137" x="362.4121" y="138.0234">Only 1 row filter per table</text><path d="M309.4121,151.2207 L319.4121,151.2207 C334.4121,151.2207 334.4121,132.7324 349.4121,132.7324 L359.4121,132.7324" fill="none" style="stroke:#0078D4;stroke-width:3;"/><text fill="#000000" font-family="sans-serif" font-size="14" lengthAdjust="spacing" textLength="220.917" x="362.4121" y="156.5117">Only 1 column mask per column</text><path d="M309.4121,151.2207 L319.4121,151.2207 C334.4121,151.2207 334.4121,151.2207 349.4121,151.2207 L359.4121,151.2207" fill="none" style="stroke:#0078D4;stroke-width:3;"/><text fill="#000000" font-family="sans-serif" font-size="14" lengthAdjust="spacing" textLength="231.0547" x="362.4121" y="175">Conflict &#8594; access blocked + error</text><path d="M309.4121,151.2207 L319.4121,151.2207 C334.4121,151.2207 334.4121,169.709 349.4121,169.709 L359.4121,169.709" fill="none" style="stroke:#0078D4;stroke-width:3;"/><path d="M148.959,122.9766 L158.959,122.9766 C173.959,122.9766 173.959,151.2207 188.959,151.2207 L198.959,151.2207" fill="none" style="stroke:#FF5F46;stroke-width:3;"/><rect fill="#0078D4" height="36.4883" rx="12.5" ry="12.5" style="stroke:#0078D4;stroke-width:3;" width="164.2109" x="198.959" y="189.4648"/><text fill="#FFFFFF" font-family="sans-serif" font-size="14" lengthAdjust="spacing" textLength="144.2109" x="208.959" y="213">Runtime requirement</text><text fill="#000000" font-family="sans-serif" font-size="14" lengthAdjust="spacing" textLength="164.6846" x="416.1699" y="203.7559">DBR 16.4+ or serverless</text><path d="M363.1699,207.709 L373.1699,207.709 C388.1699,207.709 388.1699,198.4648 403.1699,198.4648 L413.1699,198.4648" fill="none" style="stroke:#0078D4;stroke-width:3;"/><text fill="#000000" font-family="sans-serif" font-size="14" lengthAdjust="spacing" textLength="206.9238" x="416.1699" y="222.2441">Non-policy users: any runtime</text><path d="M363.1699,207.709 L373.1699,207.709 C388.1699,207.709 388.1699,216.9531 403.1699,216.9531 L413.1699,216.9531" fill="none" style="stroke:#0078D4;stroke-width:3;"/><path d="M148.959,122.9766 L158.959,122.9766 C173.959,122.9766 173.959,207.709 188.959,207.709 L198.959,207.709" fill="none" style="stroke:#FF5F46;stroke-width:3;"/><?plantuml-src VPDHJzim4CVVyobEGa9R4PrJIhUXRa8KHPg4O69zd8HSvz9QTNp1TjPLY5S-01-HJuBj12ZfkdjA_lVt_UxEygbrtBXIwhpaLJAsRgtmUtAIO-KM7zX7k4l0nnaNoxcXMkSJKcHWBykEi-4evYwancqr8-rQjOZnwfqkf5Xgj1QE-YovVs6bErcCVVvoFkooEkhxgfqEiXXlhC5ELb7ClZBMPNNK_x9O3C-QqLyLF7Sx7UDFxRfxy9EK56lueHTefEDQu6-z3xy4LPZqUfiwb9IZycBl1YRSSKLpU7fuzDu5bjp6xocVUNJZQVGjUShde745BcZm3NZjwB0ov50up0EpRUcs9iVRGoc3AgWIBLHeG3JyVoTj13Uvu_Uf20sC2Ud2wmvC_ThPbLPhIC7G2WgfdBTl7dap259rgS7Fl6oQYV_jObxgXh6v4E4UPeh44dCu03I6JC1Vrzh94i7WRIqDbgXTS_xyx1hIKNzu0Fx2B9e_QC9TDibBqeTLivpQv-m9SBts4yHQoIdwfzG-foJj3zXWr1yy0m00?></g></svg>