<?plantuml 1.2026.2?><svg xmlns="http://www.w3.org/2000/svg" xmlns:xlink="http://www.w3.org/1999/xlink" contentStyleType="text/css" data-diagram-type="MINDMAP" height="304px" preserveAspectRatio="none" style="width:664px;height:304px;background:#FFFFFF;" version="1.1" viewBox="0 0 664 304" width="664px" zoomAndPan="magnify"><defs/><g><rect fill="#FF5F46" height="52.9766" rx="12.5" ry="12.5" style="stroke:#FF5F46;stroke-width:3;" width="143.792" x="10" y="124.7324"/><text fill="#FFFFFF" font-family="sans-serif" font-size="14" lengthAdjust="spacing" textLength="70.9092" x="20" y="148.2676">Delta Lake</text><text fill="#FFFFFF" font-family="sans-serif" font-size="14" lengthAdjust="spacing" textLength="123.792" x="20" y="164.7559">Retention Settings</text><rect fill="#0078D4" height="36.4883" rx="12.5" ry="12.5" style="stroke:#0078D4;stroke-width:3;" width="125.417" x="203.792" y="20"/><text fill="#FFFFFF" font-family="sans-serif" font-size="14" lengthAdjust="spacing" textLength="105.417" x="213.792" y="43.5352">Transaction log</text><text fill="#000000" font-family="sans-serif" font-size="14" lengthAdjust="spacing" textLength="183.5859" x="382.209" y="25.0469">delta.logRetentionDuration</text><path d="M329.209,38.2441 L339.209,38.2441 C354.209,38.2441 354.209,19.7559 369.209,19.7559 L379.209,19.7559" fill="none" style="stroke:#0078D4;stroke-width:3;"/><text fill="#000000" font-family="sans-serif" font-size="14" lengthAdjust="spacing" textLength="111.125" x="382.209" y="43.5352">Default: 30 days</text><path d="M329.209,38.2441 L339.209,38.2441 C354.209,38.2441 354.209,38.2441 369.209,38.2441 L379.209,38.2441" fill="none" style="stroke:#0078D4;stroke-width:3;"/><text fill="#000000" font-family="sans-serif" font-size="14" lengthAdjust="spacing" textLength="185.3701" x="382.209" y="62.0234">Controls history availability</text><path d="M329.209,38.2441 L339.209,38.2441 C354.209,38.2441 354.209,56.7324 369.209,56.7324 L379.209,56.7324" fill="none" style="stroke:#0078D4;stroke-width:3;"/><path d="M153.792,151.2207 L163.792,151.2207 C178.792,151.2207 178.792,38.2441 193.792,38.2441 L203.792,38.2441" fill="none" style="stroke:#FF5F46;stroke-width:3;"/><rect fill="#0078D4" height="36.4883" rx="12.5" ry="12.5" style="stroke:#0078D4;stroke-width:3;" width="83.793" x="203.792" y="76.4883"/><text fill="#FFFFFF" font-family="sans-serif" font-size="14" lengthAdjust="spacing" textLength="63.793" x="213.792" y="100.0234">Data files</text><text fill="#000000" font-family="sans-serif" font-size="14" lengthAdjust="spacing" textLength="235.915" x="340.585" y="81.5352">delta.deletedFileRetentionDuration</text><path d="M287.585,94.7324 L297.585,94.7324 C312.585,94.7324 312.585,76.2441 327.585,76.2441 L337.585,76.2441" fill="none" style="stroke:#0078D4;stroke-width:3;"/><text fill="#000000" font-family="sans-serif" font-size="14" lengthAdjust="spacing" textLength="102.2725" x="340.585" y="100.0234">Default: 7 days</text><path d="M287.585,94.7324 L297.585,94.7324 C312.585,94.7324 312.585,94.7324 327.585,94.7324 L337.585,94.7324" fill="none" style="stroke:#0078D4;stroke-width:3;"/><text fill="#000000" font-family="sans-serif" font-size="14" lengthAdjust="spacing" textLength="277.8057" x="340.585" y="118.5117">Controls when VACUUM can remove files</text><path d="M287.585,94.7324 L297.585,94.7324 C312.585,94.7324 312.585,113.2207 327.585,113.2207 L337.585,113.2207" fill="none" style="stroke:#0078D4;stroke-width:3;"/><path d="M153.792,151.2207 L163.792,151.2207 C178.792,151.2207 178.792,94.7324 193.792,94.7324 L203.792,94.7324" fill="none" style="stroke:#FF5F46;stroke-width:3;"/><rect fill="#0078D4" height="36.4883" rx="12.5" ry="12.5" style="stroke:#0078D4;stroke-width:3;" width="95.9883" x="203.792" y="132.9766"/><text fill="#FFFFFF" font-family="sans-serif" font-size="14" lengthAdjust="spacing" textLength="75.9883" x="213.792" y="156.5117">Time travel</text><text fill="#000000" font-family="sans-serif" font-size="14" lengthAdjust="spacing" textLength="251.1592" x="352.7803" y="147.2676">Both properties must be set together</text><path d="M299.7803,151.2207 L309.7803,151.2207 C324.7803,151.2207 324.7803,141.9766 339.7803,141.9766 L349.7803,141.9766" fill="none" style="stroke:#0078D4;stroke-width:3;"/><text fill="#000000" font-family="sans-serif" font-size="14" lengthAdjust="spacing" textLength="264.8994" x="352.7803" y="165.7559">Longer retention = higher storage cost</text><path d="M299.7803,151.2207 L309.7803,151.2207 C324.7803,151.2207 324.7803,160.4648 339.7803,160.4648 L349.7803,160.4648" fill="none" style="stroke:#0078D4;stroke-width:3;"/><path d="M153.792,151.2207 L163.792,151.2207 C178.792,151.2207 178.792,151.2207 193.792,151.2207 L203.792,151.2207" fill="none" style="stroke:#FF5F46;stroke-width:3;"/><rect fill="#0078D4" height="36.4883" rx="12.5" ry="12.5" style="stroke:#0078D4;stroke-width:3;" width="152.4395" x="203.792" y="189.4648"/><text fill="#FFFFFF" font-family="sans-serif" font-size="14" lengthAdjust="spacing" textLength="132.4395" x="213.792" y="213">SET TBLPROPERTIES</text><text fill="#000000" font-family="sans-serif" font-size="14" lengthAdjust="spacing" textLength="243.0518" x="409.2314" y="203.7559">ALTER TABLE ... SET TBLPROPERTIES</text><path d="M356.2314,207.709 L366.2314,207.709 C381.2314,207.709 381.2314,198.4648 396.2314,198.4648 L406.2314,198.4648" fill="none" style="stroke:#0078D4;stroke-width:3;"/><text fill="#000000" font-family="sans-serif" font-size="14" lengthAdjust="spacing" textLength="158.0264" x="409.2314" y="222.2441">interval 30 days format</text><path d="M356.2314,207.709 L366.2314,207.709 C381.2314,207.709 381.2314,216.9531 396.2314,216.9531 L406.2314,216.9531" fill="none" style="stroke:#0078D4;stroke-width:3;"/><path d="M153.792,151.2207 L163.792,151.2207 C178.792,151.2207 178.792,207.709 193.792,207.709 L203.792,207.709" fill="none" style="stroke:#FF5F46;stroke-width:3;"/><rect fill="#0078D4" height="36.4883" rx="12.5" ry="12.5" style="stroke:#0078D4;stroke-width:3;" width="110.2275" x="203.792" y="245.9531"/><text fill="#FFFFFF" font-family="sans-serif" font-size="14" lengthAdjust="spacing" textLength="90.2275" x="213.792" y="269.4883">View settings</text><text fill="#000000" font-family="sans-serif" font-size="14" lengthAdjust="spacing" textLength="209.4531" x="367.0195" y="269.4883">SHOW TBLPROPERTIES &lt;table&gt;</text><path d="M314.0195,264.1973 L324.0195,264.1973 C339.0195,264.1973 339.0195,264.1973 354.0195,264.1973 L364.0195,264.1973" fill="none" style="stroke:#0078D4;stroke-width:3;"/><path d="M153.792,151.2207 L163.792,151.2207 C178.792,151.2207 178.792,264.1973 193.792,264.1973 L203.792,264.1973" fill="none" style="stroke:#FF5F46;stroke-width:3;"/><?plantuml-src XPDHRzCm4CVVyobEuWNw4B9kR30LjBP915BGfZORBqZeabmIguvTsTUEQkAxuoHjOO72FIJo__vtlxCjtrX6murGHODhRs9v9-c3TrtGckkNmIjuyi353FDLPVH65NCjjO4NSVmclhZiSebGzASQQyLxjUpYw4rhaQyKMGldVk3zEB3EJhA2uEfjU35a3TJdNGSJn5tyOerFiieoUnS4GzP0_IShwCAnClrTjfwdaux9w_rnZo0aoGW9hkYhMX2JOg4LB8bPgCfwen6a1fN5lDEbhfmq-WP5M-QxvR4ct1Xi_tq-f18tag_XF802TxPNvsuMewM5MbZMPWUuHI4n4rBmhcM5w8OfXHl_TupxEaeHE_r_kAk_qHvhKl0mdT_VVuOS5HXgz9QE74X5Gy06joJxofdc6jP6hycm80lDnZ9a19OOM5V4DPdUcMXLaN4T3oVttksjScbeDuWLGQujjv1bb48wI-uMjtVH8lqKBVi6qoID5f1EPqa4lk-ViWd5PBOe3-S9fJODTeqV13ssanqkpBcN7s-_FEy24yQilV4RSWzk_-YyCtySZ2_zyKy0?></g></svg>