<?plantuml 1.2026.2?><svg xmlns="http://www.w3.org/2000/svg" xmlns:xlink="http://www.w3.org/1999/xlink" contentStyleType="text/css" data-diagram-type="MINDMAP" height="247px" preserveAspectRatio="none" style="width:730px;height:247px;background:#FFFFFF;" version="1.1" viewBox="0 0 730 247" width="730px" zoomAndPan="magnify"><defs/><g><rect fill="#FF5F46" height="52.9766" rx="12.5" ry="12.5" style="stroke:#FF5F46;stroke-width:3;" width="151.4482" x="10" y="96.4883"/><text fill="#FFFFFF" font-family="sans-serif" font-size="14" lengthAdjust="spacing" textLength="131.4482" x="20" y="120.0234">Handle Compliance</text><text fill="#FFFFFF" font-family="sans-serif" font-size="14" lengthAdjust="spacing" textLength="122.5957" x="20" y="136.5117">Deletion Requests</text><rect fill="#0078D4" height="36.4883" rx="12.5" ry="12.5" style="stroke:#0078D4;stroke-width:3;" width="163.0557" x="211.4482" y="20"/><text fill="#FFFFFF" font-family="sans-serif" font-size="14" lengthAdjust="spacing" textLength="143.0557" x="221.4482" y="43.5352">Right to be forgotten</text><text fill="#000000" font-family="sans-serif" font-size="14" lengthAdjust="spacing" textLength="197.9551" x="427.5039" y="25.0469">GDPR and similar regulations</text><path d="M374.5039,38.2441 L384.5039,38.2441 C399.5039,38.2441 399.5039,19.7559 414.5039,19.7559 L424.5039,19.7559" fill="none" style="stroke:#0078D4;stroke-width:3;"/><text fill="#000000" font-family="sans-serif" font-size="14" lengthAdjust="spacing" textLength="175.5674" x="427.5039" y="43.5352">DELETE individual records</text><path d="M374.5039,38.2441 L384.5039,38.2441 C399.5039,38.2441 399.5039,38.2441 414.5039,38.2441 L424.5039,38.2441" fill="none" style="stroke:#0078D4;stroke-width:3;"/><text fill="#000000" font-family="sans-serif" font-size="14" lengthAdjust="spacing" textLength="170.8643" x="427.5039" y="62.0234">MERGE for bulk deletions</text><path d="M374.5039,38.2441 L384.5039,38.2441 C399.5039,38.2441 399.5039,56.7324 414.5039,56.7324 L424.5039,56.7324" fill="none" style="stroke:#0078D4;stroke-width:3;"/><path d="M161.4482,122.9766 L171.4482,122.9766 C186.4482,122.9766 186.4482,38.2441 201.4482,38.2441 L211.4482,38.2441" fill="none" style="stroke:#FF5F46;stroke-width:3;"/><rect fill="#0078D4" height="36.4883" rx="12.5" ry="12.5" style="stroke:#0078D4;stroke-width:3;" width="163.4043" x="211.4482" y="76.4883"/><text fill="#FFFFFF" font-family="sans-serif" font-size="14" lengthAdjust="spacing" textLength="143.4043" x="221.4482" y="100.0234">Bronze layer deletion</text><text fill="#000000" font-family="sans-serif" font-size="14" lengthAdjust="spacing" textLength="187.209" x="427.8525" y="90.7793">DELETE WHERE user_id = ...</text><path d="M374.8525,94.7324 L384.8525,94.7324 C399.8525,94.7324 399.8525,85.4883 414.8525,85.4883 L424.8525,85.4883" fill="none" style="stroke:#0078D4;stroke-width:3;"/><text fill="#000000" font-family="sans-serif" font-size="14" lengthAdjust="spacing" textLength="242.2451" x="427.8525" y="109.2676">MERGE with deletion_requests table</text><path d="M374.8525,94.7324 L384.8525,94.7324 C399.8525,94.7324 399.8525,103.9766 414.8525,103.9766 L424.8525,103.9766" fill="none" style="stroke:#0078D4;stroke-width:3;"/><path d="M161.4482,122.9766 L171.4482,122.9766 C186.4482,122.9766 186.4482,94.7324 201.4482,94.7324 L211.4482,94.7324" fill="none" style="stroke:#FF5F46;stroke-width:3;"/><rect fill="#0078D4" height="36.4883" rx="12.5" ry="12.5" style="stroke:#0078D4;stroke-width:3;" width="191.083" x="211.4482" y="132.9766"/><text fill="#FFFFFF" font-family="sans-serif" font-size="14" lengthAdjust="spacing" textLength="171.083" x="221.4482" y="156.5117">Propagate through layers</text><text fill="#000000" font-family="sans-serif" font-size="14" lengthAdjust="spacing" textLength="223.3506" x="455.5313" y="138.0234">Silver/Gold must also be cleaned</text><path d="M402.5313,151.2207 L412.5313,151.2207 C427.5313,151.2207 427.5313,132.7324 442.5313,132.7324 L452.5313,132.7324" fill="none" style="stroke:#0078D4;stroke-width:3;"/><text fill="#000000" font-family="sans-serif" font-size="14" lengthAdjust="spacing" textLength="237.8018" x="455.5313" y="156.5117">Materialized views: auto on refresh</text><path d="M402.5313,151.2207 L412.5313,151.2207 C427.5313,151.2207 427.5313,151.2207 442.5313,151.2207 L452.5313,151.2207" fill="none" style="stroke:#0078D4;stroke-width:3;"/><text fill="#000000" font-family="sans-serif" font-size="14" lengthAdjust="spacing" textLength="262.9717" x="455.5313" y="175">Streaming tables: skipChangeCommits</text><path d="M402.5313,151.2207 L412.5313,151.2207 C427.5313,151.2207 427.5313,169.709 442.5313,169.709 L452.5313,169.709" fill="none" style="stroke:#0078D4;stroke-width:3;"/><path d="M161.4482,122.9766 L171.4482,122.9766 C186.4482,122.9766 186.4482,151.2207 201.4482,151.2207 L211.4482,151.2207" fill="none" style="stroke:#FF5F46;stroke-width:3;"/><rect fill="#0078D4" height="36.4883" rx="12.5" ry="12.5" style="stroke:#0078D4;stroke-width:3;" width="116.0791" x="211.4482" y="189.4648"/><text fill="#FFFFFF" font-family="sans-serif" font-size="14" lengthAdjust="spacing" textLength="96.0791" x="221.4482" y="213">Finalize purge</text><text fill="#000000" font-family="sans-serif" font-size="14" lengthAdjust="spacing" textLength="193.2861" x="380.5273" y="203.7559">Run VACUUM after deletions</text><path d="M327.5273,207.709 L337.5273,207.709 C352.5273,207.709 352.5273,198.4648 367.5273,198.4648 L377.5273,198.4648" fill="none" style="stroke:#0078D4;stroke-width:3;"/><text fill="#000000" font-family="sans-serif" font-size="14" lengthAdjust="spacing" textLength="212.2012" x="380.5273" y="222.2441">Permanently removes data files</text><path d="M327.5273,207.709 L337.5273,207.709 C352.5273,207.709 352.5273,216.9531 367.5273,216.9531 L377.5273,216.9531" fill="none" style="stroke:#0078D4;stroke-width:3;"/><path d="M161.4482,122.9766 L171.4482,122.9766 C186.4482,122.9766 186.4482,207.709 201.4482,207.709 L211.4482,207.709" fill="none" style="stroke:#FF5F46;stroke-width:3;"/><?plantuml-src VPDDRzD048Rl_XKZSO4SN3UK0bL1fOcT7befCYrSaAAnTsolijur-v4shVZlREmbj4PXZlFnFkDtl1V6ehOjbwp5BZetTYleStJ6gBFDw-GDF4NWunBBTQsLasocXDBmAilUPIUdVUsQI_etcobfGxRgOzzxs_1oBSaOU1idqQy_hEE3h2Hv_s5-CcQDiYzLHnjaVVnbJG-ogghuc2HZrYZxNrRIXsSLwa7iUfuETfmV1RidS8MI2OAPQZl1KPRqGyv9aELAGau_7Hbheia4Sbut5go2Wg1IkbRMalI5oGeMysKENWOCRxb03Pfg9t0dOOQEUNgTtgRWRyqtd3aKlgLKceNoJPelqfqg54wiWGL-pxtKIZuI2DoItbTUg7w_IlCKd26zuWm-GHp7psNlkMtsWoiTFWai5e9sWALM7TPe2MpZ3r8t0okizfMB3UcZXH8CMcSie32z1wKWbCG2oOzhZe8_4eCDftjp1kYyMTv4JPKcqmGvgmdzFryFVDzcrhoRDIXhV_AsvOFP6PUz67HErpICvax2jo-pkxiRmCe-CoDikYJT-esa5LlFRDM6332q21NteEY2_4CBZoqwZgV9z3IU_WO0?></g></svg>