<?plantuml 1.2026.2?><svg xmlns="http://www.w3.org/2000/svg" xmlns:xlink="http://www.w3.org/1999/xlink" contentStyleType="text/css" data-diagram-type="MINDMAP" height="265px" preserveAspectRatio="none" style="width:639px;height:265px;background:#FFFFFF;" version="1.1" viewBox="0 0 639 265" width="639px" zoomAndPan="magnify"><defs/><g><rect fill="#FF5F46" height="52.9766" rx="12.5" ry="12.5" style="stroke:#FF5F46;stroke-width:3;" width="132.9775" x="10" y="105.2207"/><text fill="#FFFFFF" font-family="sans-serif" font-size="14" lengthAdjust="spacing" textLength="95.6963" x="20" y="128.7559">Azure Storage</text><text fill="#FFFFFF" font-family="sans-serif" font-size="14" lengthAdjust="spacing" textLength="112.9775" x="20" y="145.2441">Lifecycle Policies</text><rect fill="#0078D4" height="36.4883" rx="12.5" ry="12.5" style="stroke:#0078D4;stroke-width:3;" width="74.5029" x="192.9775" y="20"/><text fill="#FFFFFF" font-family="sans-serif" font-size="14" lengthAdjust="spacing" textLength="54.5029" x="202.9775" y="43.5352">Purpose</text><text fill="#000000" font-family="sans-serif" font-size="14" lengthAdjust="spacing" textLength="228.4023" x="320.4805" y="25.0469">Complement Delta Lake retention</text><path d="M267.4805,38.2441 L277.4805,38.2441 C292.4805,38.2441 292.4805,19.7559 307.4805,19.7559 L317.4805,19.7559" fill="none" style="stroke:#0078D4;stroke-width:3;"/><text fill="#000000" font-family="sans-serif" font-size="14" lengthAdjust="spacing" textLength="167.7744" x="320.4805" y="43.5352">Transition to cooler tiers</text><path d="M267.4805,38.2441 L277.4805,38.2441 C292.4805,38.2441 292.4805,38.2441 307.4805,38.2441 L317.4805,38.2441" fill="none" style="stroke:#0078D4;stroke-width:3;"/><text fill="#000000" font-family="sans-serif" font-size="14" lengthAdjust="spacing" textLength="149.502" x="320.4805" y="62.0234">Auto-delete old blobs</text><path d="M267.4805,38.2441 L277.4805,38.2441 C292.4805,38.2441 292.4805,56.7324 307.4805,56.7324 L317.4805,56.7324" fill="none" style="stroke:#0078D4;stroke-width:3;"/><path d="M142.9775,131.709 L152.9775,131.709 C167.9775,131.709 167.9775,38.2441 182.9775,38.2441 L192.9775,38.2441" fill="none" style="stroke:#FF5F46;stroke-width:3;"/><rect fill="#0078D4" height="36.4883" rx="12.5" ry="12.5" style="stroke:#0078D4;stroke-width:3;" width="53.5645" x="192.9775" y="76.4883"/><text fill="#FFFFFF" font-family="sans-serif" font-size="14" lengthAdjust="spacing" textLength="33.5645" x="202.9775" y="100.0234">Tiers</text><text fill="#000000" font-family="sans-serif" font-size="14" lengthAdjust="spacing" textLength="242.334" x="299.542" y="90.7793">Cool: accessible, higher access cost</text><path d="M246.542,94.7324 L256.542,94.7324 C271.542,94.7324 271.542,85.4883 286.542,85.4883 L296.542,85.4883" fill="none" style="stroke:#0078D4;stroke-width:3;"/><text fill="#000000" font-family="sans-serif" font-size="14" lengthAdjust="spacing" textLength="219.7344" x="299.542" y="109.2676">Archive: offline, requires restore</text><path d="M246.542,94.7324 L256.542,94.7324 C271.542,94.7324 271.542,103.9766 286.542,103.9766 L296.542,103.9766" fill="none" style="stroke:#0078D4;stroke-width:3;"/><path d="M142.9775,131.709 L152.9775,131.709 C167.9775,131.709 167.9775,94.7324 182.9775,94.7324 L192.9775,94.7324" fill="none" style="stroke:#FF5F46;stroke-width:3;"/><rect fill="#0078D4" height="36.4883" rx="12.5" ry="12.5" style="stroke:#0078D4;stroke-width:3;" width="167.2734" x="192.9775" y="132.9766"/><text fill="#FFFFFF" font-family="sans-serif" font-size="14" lengthAdjust="spacing" textLength="147.2734" x="202.9775" y="156.5117">Challenges with Delta</text><text fill="#000000" font-family="sans-serif" font-size="14" lengthAdjust="spacing" textLength="214.2383" x="413.251" y="138.0234">File rewrite resets creation time</text><path d="M360.251,151.2207 L370.251,151.2207 C385.251,151.2207 385.251,132.7324 400.251,132.7324 L410.251,132.7324" fill="none" style="stroke:#0078D4;stroke-width:3;"/><text fill="#000000" font-family="sans-serif" font-size="14" lengthAdjust="spacing" textLength="171.6025" x="413.251" y="156.5117">Archived files fail queries</text><path d="M360.251,151.2207 L370.251,151.2207 C385.251,151.2207 385.251,151.2207 400.251,151.2207 L410.251,151.2207" fill="none" style="stroke:#0078D4;stroke-width:3;"/><text fill="#000000" font-family="sans-serif" font-size="14" lengthAdjust="spacing" textLength="214.1426" x="413.251" y="175">OPTIMIZE/MERGE delay archival</text><path d="M360.251,151.2207 L370.251,151.2207 C385.251,151.2207 385.251,169.709 400.251,169.709 L410.251,169.709" fill="none" style="stroke:#0078D4;stroke-width:3;"/><path d="M142.9775,131.709 L152.9775,131.709 C167.9775,131.709 167.9775,151.2207 182.9775,151.2207 L192.9775,151.2207" fill="none" style="stroke:#FF5F46;stroke-width:3;"/><rect fill="#0078D4" height="36.4883" rx="12.5" ry="12.5" style="stroke:#0078D4;stroke-width:3;" width="86.9854" x="192.9775" y="198.1973"/><text fill="#FFFFFF" font-family="sans-serif" font-size="14" lengthAdjust="spacing" textLength="66.9854" x="202.9775" y="221.7324">Strategies</text><text fill="#000000" font-family="sans-serif" font-size="14" lengthAdjust="spacing" textLength="145.5576" x="332.9629" y="194">Partition data by date</text><path d="M279.9629,216.4414 L289.9629,216.4414 C304.9629,216.4414 304.9629,188.709 319.9629,188.709 L329.9629,188.709" fill="none" style="stroke:#0078D4;stroke-width:3;"/><text fill="#000000" font-family="sans-serif" font-size="14" lengthAdjust="spacing" textLength="246.5449" x="332.9629" y="212.4883">Set delta.timeUntilArchived property</text><path d="M279.9629,216.4414 L289.9629,216.4414 C304.9629,216.4414 304.9629,207.1973 319.9629,207.1973 L329.9629,207.1973" fill="none" style="stroke:#0078D4;stroke-width:3;"/><text fill="#000000" font-family="sans-serif" font-size="14" lengthAdjust="spacing" textLength="204.7842" x="332.9629" y="230.9766">Create views to restrict access</text><path d="M279.9629,216.4414 L289.9629,216.4414 C304.9629,216.4414 304.9629,225.6855 319.9629,225.6855 L329.9629,225.6855" fill="none" style="stroke:#0078D4;stroke-width:3;"/><text fill="#000000" font-family="sans-serif" font-size="14" lengthAdjust="spacing" textLength="238.834" x="332.9629" y="249.4648">OPTIMIZE/VACUUM with predicates</text><path d="M279.9629,216.4414 L289.9629,216.4414 C304.9629,216.4414 304.9629,244.1738 319.9629,244.1738 L329.9629,244.1738" fill="none" style="stroke:#0078D4;stroke-width:3;"/><path d="M142.9775,131.709 L152.9775,131.709 C167.9775,131.709 167.9775,216.4414 182.9775,216.4414 L192.9775,216.4414" fill="none" style="stroke:#FF5F46;stroke-width:3;"/><?plantuml-src VLFHRjD047ptLwp42qHjwePI8AfGWnkZIec8IC83GaBdype-vUnpxzPDGyM_TyysgMeKzkNikTsPsP7ksf6mLAWoBKGLN3dQQ_mKZ5EiA7yTle770BW-2xdTM5ENQMIqiV0gZj_55vVDtKoL-2yQcv8wD6lgqBlAbToMw1oy7OR1dxzQvqUrml3zXvkBlbOFVSdQSn0tzQmrEggLPSd7CEnhzT3_QeLDiLPY7hJlUJpQSNNMnJs0oU_Q8Yp9MB71d-LCPIZtKYCiZ5PIeGi60rZKjZ8E-NFm2o9JL1eBB0bkK9E0cTWYM2H6b2dRffKLfLF-7yY0D4QZ1L9eNNi_gScSfgXv2enE8T4cQQHMppqHJur1ICdBg4JZ2UHgapDF2p6heuxDobpTunXCbcdEwOJjtDNAekCFnxjvwn3bGciiDupk5EMj-vOWLjgliBEA_EcGcDwYQ1TG1RxGII7ZVWUPK1hkQhHjJDpmTR6wdT_-c9xDfz--J84N57iGpPJGtiEIh23S70OM_0RQc5B1KIPxVtPgIoJFG6Be7QmvNNqmK5bJeQLzbvItYd2lSETytdvfgoHrIVMyVPz4w_MypQ2oc2h9mowuHdwAtNCCpeUZS7Gv73q1?></g></svg>