<?plantuml 1.2026.2?><svg xmlns="http://www.w3.org/2000/svg" xmlns:xlink="http://www.w3.org/1999/xlink" contentStyleType="text/css" data-diagram-type="MINDMAP" height="247px" preserveAspectRatio="none" style="width:652px;height:247px;background:#FFFFFF;" version="1.1" viewBox="0 0 652 247" width="652px" zoomAndPan="magnify"><defs/><g><rect fill="#FF5F46" height="52.9766" rx="12.5" ry="12.5" style="stroke:#FF5F46;stroke-width:3;" width="134.2354" x="10" y="96.4883"/><text fill="#FFFFFF" font-family="sans-serif" font-size="14" lengthAdjust="spacing" textLength="52.7393" x="20" y="120.0234">Manage</text><text fill="#FFFFFF" font-family="sans-serif" font-size="14" lengthAdjust="spacing" textLength="114.2354" x="20" y="136.5117">Table Ownership</text><rect fill="#0078D4" height="36.4883" rx="12.5" ry="12.5" style="stroke:#0078D4;stroke-width:3;" width="115.2793" x="194.2354" y="20"/><text fill="#FFFFFF" font-family="sans-serif" font-size="14" lengthAdjust="spacing" textLength="95.2793" x="204.2354" y="43.5352">What is owner</text><text fill="#000000" font-family="sans-serif" font-size="14" lengthAdjust="spacing" textLength="162.1348" x="362.5146" y="25.0469">Full privileges on object</text><path d="M309.5146,38.2441 L319.5146,38.2441 C334.5146,38.2441 334.5146,19.7559 349.5146,19.7559 L359.5146,19.7559" fill="none" style="stroke:#0078D4;stroke-width:3;"/><text fill="#000000" font-family="sans-serif" font-size="14" lengthAdjust="spacing" textLength="132.5352" x="362.5146" y="43.5352">Can grant to others</text><path d="M309.5146,38.2441 L319.5146,38.2441 C334.5146,38.2441 334.5146,38.2441 349.5146,38.2441 L359.5146,38.2441" fill="none" style="stroke:#0078D4;stroke-width:3;"/><text fill="#000000" font-family="sans-serif" font-size="14" lengthAdjust="spacing" textLength="217.8408" x="362.5146" y="62.0234">User, group, or service principal</text><path d="M309.5146,38.2441 L319.5146,38.2441 C334.5146,38.2441 334.5146,56.7324 349.5146,56.7324 L359.5146,56.7324" fill="none" style="stroke:#0078D4;stroke-width:3;"/><path d="M144.2354,122.9766 L154.2354,122.9766 C169.2354,122.9766 169.2354,38.2441 184.2354,38.2441 L194.2354,38.2441" fill="none" style="stroke:#FF5F46;stroke-width:3;"/><rect fill="#0078D4" height="36.4883" rx="12.5" ry="12.5" style="stroke:#0078D4;stroke-width:3;" width="146.041" x="194.2354" y="76.4883"/><text fill="#FFFFFF" font-family="sans-serif" font-size="14" lengthAdjust="spacing" textLength="126.041" x="204.2354" y="100.0234">Change ownership</text><text fill="#000000" font-family="sans-serif" font-size="14" lengthAdjust="spacing" textLength="223.6787" x="393.2764" y="81.5352">Catalog Explorer &#8594; Overview tab</text><path d="M340.2764,94.7324 L350.2764,94.7324 C365.2764,94.7324 365.2764,76.2441 380.2764,76.2441 L390.2764,76.2441" fill="none" style="stroke:#0078D4;stroke-width:3;"/><text fill="#000000" font-family="sans-serif" font-size="14" lengthAdjust="spacing" textLength="159.9336" x="393.2764" y="100.0234">Edit icon next to Owner</text><path d="M340.2764,94.7324 L350.2764,94.7324 C365.2764,94.7324 365.2764,94.7324 380.2764,94.7324 L390.2764,94.7324" fill="none" style="stroke:#0078D4;stroke-width:3;"/><text fill="#000000" font-family="sans-serif" font-size="14" lengthAdjust="spacing" textLength="180.209" x="393.2764" y="118.5117">Search &amp; select new owner</text><path d="M340.2764,94.7324 L350.2764,94.7324 C365.2764,94.7324 365.2764,113.2207 380.2764,113.2207 L390.2764,113.2207" fill="none" style="stroke:#0078D4;stroke-width:3;"/><path d="M144.2354,122.9766 L154.2354,122.9766 C169.2354,122.9766 169.2354,94.7324 184.2354,94.7324 L194.2354,94.7324" fill="none" style="stroke:#FF5F46;stroke-width:3;"/><rect fill="#0078D4" height="36.4883" rx="12.5" ry="12.5" style="stroke:#0078D4;stroke-width:3;" width="134.9121" x="194.2354" y="132.9766"/><text fill="#FFFFFF" font-family="sans-serif" font-size="14" lengthAdjust="spacing" textLength="114.9121" x="204.2354" y="156.5117">Who can transfer</text><text fill="#000000" font-family="sans-serif" font-size="14" lengthAdjust="spacing" textLength="130.6689" x="382.1475" y="138.0234">Current owner only</text><path d="M329.1475,151.2207 L339.1475,151.2207 C354.1475,151.2207 354.1475,132.7324 369.1475,132.7324 L379.1475,132.7324" fill="none" style="stroke:#0078D4;stroke-width:3;"/><text fill="#000000" font-family="sans-serif" font-size="14" lengthAdjust="spacing" textLength="139.2754" x="382.1475" y="156.5117">OR metastore admin</text><path d="M329.1475,151.2207 L339.1475,151.2207 C354.1475,151.2207 354.1475,151.2207 369.1475,151.2207 L379.1475,151.2207" fill="none" style="stroke:#0078D4;stroke-width:3;"/><text fill="#000000" font-family="sans-serif" font-size="14" lengthAdjust="spacing" textLength="211.9893" x="382.1475" y="175">Previous owner loses privileges</text><path d="M329.1475,151.2207 L339.1475,151.2207 C354.1475,151.2207 354.1475,169.709 369.1475,169.709 L379.1475,169.709" fill="none" style="stroke:#0078D4;stroke-width:3;"/><path d="M144.2354,122.9766 L154.2354,122.9766 C169.2354,122.9766 169.2354,151.2207 184.2354,151.2207 L194.2354,151.2207" fill="none" style="stroke:#FF5F46;stroke-width:3;"/><rect fill="#0078D4" height="36.4883" rx="12.5" ry="12.5" style="stroke:#0078D4;stroke-width:3;" width="126.5244" x="194.2354" y="189.4648"/><text fill="#FFFFFF" font-family="sans-serif" font-size="14" lengthAdjust="spacing" textLength="106.5244" x="204.2354" y="213">Viewing lineage</text><text fill="#000000" font-family="sans-serif" font-size="14" lengthAdjust="spacing" textLength="241.999" x="373.7598" y="203.7559">Requires BROWSE on parent catalog</text><path d="M320.7598,207.709 L330.7598,207.709 C345.7598,207.709 345.7598,198.4648 360.7598,198.4648 L370.7598,198.4648" fill="none" style="stroke:#0078D4;stroke-width:3;"/><text fill="#000000" font-family="sans-serif" font-size="14" lengthAdjust="spacing" textLength="266.2461" x="373.7598" y="222.2441">Unauthorized objects &#8594; masked nodes</text><path d="M320.7598,207.709 L330.7598,207.709 C345.7598,207.709 345.7598,216.9531 360.7598,216.9531 L370.7598,216.9531" fill="none" style="stroke:#0078D4;stroke-width:3;"/><path d="M144.2354,122.9766 L154.2354,122.9766 C169.2354,122.9766 169.2354,207.709 184.2354,207.709 L194.2354,207.709" fill="none" style="stroke:#FF5F46;stroke-width:3;"/><?plantuml-src VPFTRjD048Nl_HGZ8I68gk26KdvKeQeXlW8PfONU8A6nFR6NR6RDxZf9Mt7B0_GH-oICrquZZCBU-SpiV6UExNFdqVgLucA5TNJc_8sczz6xWcfVFOkVmrq4SYumNvRMD5nCZJOMdYJ9g-JaDDG-AgP_rSImxzL5E8-zLvNAbqpEmSjn7FtQiOuFikBuzPiF9qFMGFrxwi114iwUDJd8MYoojt4yP0tK_xBYS8ILcQrkU-uETfozwECUmITaBEaRNs6c2T8DatMLggFH2AuhzA0Sc5OKOVGTaaPhgArQAqqbIOd1P3yezrrvYWobHVRW3HXVoQokyCMHFO9suVe8n8eyhbLExIZELOswvKqhv98wNEyXpFIeJGcpRIrBa8M7t_UGhji1j06FMTSsAvIOpSKGqpRmqxtjIqARL_1Kk5hCIilcSIjPqq0knhqOTulTbMbZBSaYeKtsr3UTdivXHHwT5o-0XNo_dVxPqbgPfayBj74Ippwf5lHL32ikGSkRbCoxUtFwsIWhlHVpzFforYPQOo3dtU9zW8oDhunLjrJqaRkGn0hTKYGsXK3EYOlT7nKTZoVnv7Gy-GC0?></g></svg>