<?plantuml 1.2026.2?><svg xmlns="http://www.w3.org/2000/svg" xmlns:xlink="http://www.w3.org/1999/xlink" contentStyleType="text/css" data-diagram-type="MINDMAP" height="304px" preserveAspectRatio="none" style="width:619px;height:304px;background:#FFFFFF;" version="1.1" viewBox="0 0 619 304" width="619px" zoomAndPan="magnify"><defs/><g><rect fill="#FF5F46" height="52.9766" rx="12.5" ry="12.5" style="stroke:#FF5F46;stroke-width:3;" width="137.7217" x="10" y="124.7324"/><text fill="#FFFFFF" font-family="sans-serif" font-size="14" lengthAdjust="spacing" textLength="97.0977" x="20" y="148.2676">Query Lineage</text><text fill="#FFFFFF" font-family="sans-serif" font-size="14" lengthAdjust="spacing" textLength="117.7217" x="20" y="164.7559">Programmatically</text><rect fill="#0078D4" height="36.4883" rx="12.5" ry="12.5" style="stroke:#0078D4;stroke-width:3;" width="113.29" x="197.7217" y="20"/><text fill="#FFFFFF" font-family="sans-serif" font-size="14" lengthAdjust="spacing" textLength="93.29" x="207.7217" y="43.5352">System tables</text><text fill="#000000" font-family="sans-serif" font-size="14" lengthAdjust="spacing" textLength="190.1689" x="364.0117" y="34.291">system.access.table_lineage</text><path d="M311.0117,38.2441 L321.0117,38.2441 C336.0117,38.2441 336.0117,29 351.0117,29 L361.0117,29" fill="none" style="stroke:#0078D4;stroke-width:3;"/><text fill="#000000" font-family="sans-serif" font-size="14" lengthAdjust="spacing" textLength="206.8076" x="364.0117" y="52.7793">system.access.column_lineage</text><path d="M311.0117,38.2441 L321.0117,38.2441 C336.0117,38.2441 336.0117,47.4883 351.0117,47.4883 L361.0117,47.4883" fill="none" style="stroke:#0078D4;stroke-width:3;"/><path d="M147.7217,151.2207 L157.7217,151.2207 C172.7217,151.2207 172.7217,38.2441 187.7217,38.2441 L197.7217,38.2441" fill="none" style="stroke:#FF5F46;stroke-width:3;"/><rect fill="#0078D4" height="36.4883" rx="12.5" ry="12.5" style="stroke:#0078D4;stroke-width:3;" width="109.4688" x="197.7217" y="76.4883"/><text fill="#FFFFFF" font-family="sans-serif" font-size="14" lengthAdjust="spacing" textLength="89.4688" x="207.7217" y="100.0234">table_lineage</text><text fill="#000000" font-family="sans-serif" font-size="14" lengthAdjust="spacing" textLength="149.2217" x="360.1904" y="81.5352">Read and write events</text><path d="M307.1904,94.7324 L317.1904,94.7324 C332.1904,94.7324 332.1904,76.2441 347.1904,76.2441 L357.1904,76.2441" fill="none" style="stroke:#0078D4;stroke-width:3;"/><text fill="#000000" font-family="sans-serif" font-size="14" lengthAdjust="spacing" textLength="206.1992" x="360.1904" y="100.0234">source/target table full names</text><path d="M307.1904,94.7324 L317.1904,94.7324 C332.1904,94.7324 332.1904,94.7324 347.1904,94.7324 L357.1904,94.7324" fill="none" style="stroke:#0078D4;stroke-width:3;"/><text fill="#000000" font-family="sans-serif" font-size="14" lengthAdjust="spacing" textLength="138.8379" x="360.1904" y="118.5117">event_date, event_id</text><path d="M307.1904,94.7324 L317.1904,94.7324 C332.1904,94.7324 332.1904,113.2207 347.1904,113.2207 L357.1904,113.2207" fill="none" style="stroke:#0078D4;stroke-width:3;"/><path d="M147.7217,151.2207 L157.7217,151.2207 C172.7217,151.2207 172.7217,94.7324 187.7217,94.7324 L197.7217,94.7324" fill="none" style="stroke:#FF5F46;stroke-width:3;"/><rect fill="#0078D4" height="36.4883" rx="12.5" ry="12.5" style="stroke:#0078D4;stroke-width:3;" width="126.1074" x="197.7217" y="132.9766"/><text fill="#FFFFFF" font-family="sans-serif" font-size="14" lengthAdjust="spacing" textLength="106.1074" x="207.7217" y="156.5117">column_lineage</text><text fill="#000000" font-family="sans-serif" font-size="14" lengthAdjust="spacing" textLength="189.6152" x="376.8291" y="147.2676">Column-level dependencies</text><path d="M323.8291,151.2207 L333.8291,151.2207 C348.8291,151.2207 348.8291,141.9766 363.8291,141.9766 L373.8291,141.9766" fill="none" style="stroke:#0078D4;stroke-width:3;"/><text fill="#000000" font-family="sans-serif" font-size="14" lengthAdjust="spacing" textLength="157.7393" x="376.8291" y="165.7559">Tracks transformations</text><path d="M323.8291,151.2207 L333.8291,151.2207 C348.8291,151.2207 348.8291,160.4648 363.8291,160.4648 L373.8291,160.4648" fill="none" style="stroke:#0078D4;stroke-width:3;"/><path d="M147.7217,151.2207 L157.7217,151.2207 C172.7217,151.2207 172.7217,151.2207 187.7217,151.2207 L197.7217,151.2207" fill="none" style="stroke:#FF5F46;stroke-width:3;"/><rect fill="#0078D4" height="36.4883" rx="12.5" ry="12.5" style="stroke:#0078D4;stroke-width:3;" width="158.7012" x="197.7217" y="189.4648"/><text fill="#FFFFFF" font-family="sans-serif" font-size="14" lengthAdjust="spacing" textLength="138.7012" x="207.7217" y="213">Databricks Assistant</text><text fill="#000000" font-family="sans-serif" font-size="14" lengthAdjust="spacing" textLength="197.3193" x="409.4229" y="194.5117">/getTableLineages command</text><path d="M356.4229,207.709 L366.4229,207.709 C381.4229,207.709 381.4229,189.2207 396.4229,189.2207 L406.4229,189.2207" fill="none" style="stroke:#0078D4;stroke-width:3;"/><text fill="#000000" font-family="sans-serif" font-size="14" lengthAdjust="spacing" textLength="191.6182" x="409.4229" y="213">/getTableInsights command</text><path d="M356.4229,207.709 L366.4229,207.709 C381.4229,207.709 381.4229,207.709 396.4229,207.709 L406.4229,207.709" fill="none" style="stroke:#0078D4;stroke-width:3;"/><text fill="#000000" font-family="sans-serif" font-size="14" lengthAdjust="spacing" textLength="198.3857" x="409.4229" y="231.4883">Natural language exploration</text><path d="M356.4229,207.709 L366.4229,207.709 C381.4229,207.709 381.4229,226.1973 396.4229,226.1973 L406.4229,226.1973" fill="none" style="stroke:#0078D4;stroke-width:3;"/><path d="M147.7217,151.2207 L157.7217,151.2207 C172.7217,151.2207 172.7217,207.709 187.7217,207.709 L197.7217,207.709" fill="none" style="stroke:#FF5F46;stroke-width:3;"/><rect fill="#0078D4" height="36.4883" rx="12.5" ry="12.5" style="stroke:#0078D4;stroke-width:3;" width="86.042" x="197.7217" y="245.9531"/><text fill="#FFFFFF" font-family="sans-serif" font-size="14" lengthAdjust="spacing" textLength="66.042" x="207.7217" y="269.4883">Use cases</text><text fill="#000000" font-family="sans-serif" font-size="14" lengthAdjust="spacing" textLength="189.7451" x="336.7637" y="251">Most accessed tables report</text><path d="M283.7637,264.1973 L293.7637,264.1973 C308.7637,264.1973 308.7637,245.709 323.7637,245.709 L333.7637,245.709" fill="none" style="stroke:#0078D4;stroke-width:3;"/><text fill="#000000" font-family="sans-serif" font-size="14" lengthAdjust="spacing" textLength="224.8613" x="336.7637" y="269.4883">Downstream consumer discovery</text><path d="M283.7637,264.1973 L293.7637,264.1973 C308.7637,264.1973 308.7637,264.1973 323.7637,264.1973 L333.7637,264.1973" fill="none" style="stroke:#0078D4;stroke-width:3;"/><text fill="#000000" font-family="sans-serif" font-size="14" lengthAdjust="spacing" textLength="158.7578" x="336.7637" y="287.9766">Impact analysis queries</text><path d="M283.7637,264.1973 L293.7637,264.1973 C308.7637,264.1973 308.7637,282.6855 323.7637,282.6855 L333.7637,282.6855" fill="none" style="stroke:#0078D4;stroke-width:3;"/><path d="M147.7217,151.2207 L157.7217,151.2207 C172.7217,151.2207 172.7217,264.1973 187.7217,264.1973 L197.7217,264.1973" fill="none" style="stroke:#FF5F46;stroke-width:3;"/><?plantuml-src VPFRRjH038RlynIMk84LPDEbb8CgLEWgKYMAE2ntI2llZ9CTTU89CvEsKSMxuvmuf5ryjR9_-tD-pvw5Y3vMXdM5TN8QOclfRV96KnttZxCdS9U0n7jKLwLt3UjpPvs7Htd-8Zy-wMiV3DFzREuuZjcYZz_QpTweAwOGu7cQ9Jydrj51LfQzVBK-dhDcsN-dpZR8-_Z3MXra5SNkTPRDMRFiVrbP7yBQkLlRQUuEAawNezqB-DoGR_lXMD9t_kHTwR6gC1g5rhR9OW5Vsn2fWeWx6Ik9nHP2dqfHAG6bVMLhXnaF2PIpJSL_AU21bY-46f0rt7WJ2UYQE4uurtX5Itam9SMX5uh6Mc2iffLw_LPZfAVZRwCxqZssQC_xt3ChEWjo6M9DhCmqQkFbEW6YHmw5yvqPZhiQh57WtdJLTo4OUS8SXvwbRBRf5Xkj308M6rdFoXSSJBcFi_97Z8r72nQvRAGRwBQMa_NWZlij42WCquANBaGOl2Kz7WOyrSwFswpT3OVe2IlXS6Wgyg1DKEvQhZr8BgeQbKnXjAry2VoGXz0vS2PcJF_Av2XTPQkJTFKB?></g></svg>