<?plantuml 1.2026.2?><svg xmlns="http://www.w3.org/2000/svg" xmlns:xlink="http://www.w3.org/1999/xlink" contentStyleType="text/css" data-diagram-type="MINDMAP" height="247px" preserveAspectRatio="none" style="width:727px;height:247px;background:#FFFFFF;" version="1.1" viewBox="0 0 727 247" width="727px" zoomAndPan="magnify"><defs/><g><rect fill="#FF5F46" height="52.9766" rx="12.5" ry="12.5" style="stroke:#FF5F46;stroke-width:3;" width="95.3047" x="10" y="96.4883"/><text fill="#FFFFFF" font-family="sans-serif" font-size="14" lengthAdjust="spacing" textLength="52.2607" x="20" y="120.0234">Lineage</text><text fill="#FFFFFF" font-family="sans-serif" font-size="14" lengthAdjust="spacing" textLength="75.3047" x="20" y="136.5117">Limitations</text><rect fill="#0078D4" height="36.4883" rx="12.5" ry="12.5" style="stroke:#0078D4;stroke-width:3;" width="192.4365" x="155.3047" y="20"/><text fill="#FFFFFF" font-family="sans-serif" font-size="14" lengthAdjust="spacing" textLength="172.4365" x="165.3047" y="43.5352">Not preserved on rename</text><text fill="#000000" font-family="sans-serif" font-size="14" lengthAdjust="spacing" textLength="250.3115" x="400.7412" y="34.291">Renaming a table breaks lineage link</text><path d="M347.7412,38.2441 L357.7412,38.2441 C372.7412,38.2441 372.7412,29 387.7412,29 L397.7412,29" fill="none" style="stroke:#0078D4;stroke-width:3;"/><text fill="#000000" font-family="sans-serif" font-size="14" lengthAdjust="spacing" textLength="216.9727" x="400.7412" y="52.7793">Previous name loses connection</text><path d="M347.7412,38.2441 L357.7412,38.2441 C372.7412,38.2441 372.7412,47.4883 387.7412,47.4883 L397.7412,47.4883" fill="none" style="stroke:#0078D4;stroke-width:3;"/><path d="M105.3047,122.9766 L115.3047,122.9766 C130.3047,122.9766 130.3047,38.2441 145.3047,38.2441 L155.3047,38.2441" fill="none" style="stroke:#FF5F46;stroke-width:3;"/><rect fill="#0078D4" height="36.4883" rx="12.5" ry="12.5" style="stroke:#0078D4;stroke-width:3;" width="146.3623" x="155.3047" y="76.4883"/><text fill="#FFFFFF" font-family="sans-serif" font-size="14" lengthAdjust="spacing" textLength="126.3623" x="165.3047" y="100.0234">Path-based access</text><text fill="#000000" font-family="sans-serif" font-size="14" lengthAdjust="spacing" textLength="227.5889" x="354.667" y="90.7793">delta.'abfss://...' shows path only</text><path d="M301.667,94.7324 L311.667,94.7324 C326.667,94.7324 326.667,85.4883 341.667,85.4883 L351.667,85.4883" fill="none" style="stroke:#0078D4;stroke-width:3;"/><text fill="#000000" font-family="sans-serif" font-size="14" lengthAdjust="spacing" textLength="130.1084" x="354.667" y="109.2676">Not the table name</text><path d="M301.667,94.7324 L311.667,94.7324 C326.667,94.7324 326.667,103.9766 341.667,103.9766 L351.667,103.9766" fill="none" style="stroke:#0078D4;stroke-width:3;"/><path d="M105.3047,122.9766 L115.3047,122.9766 C130.3047,122.9766 130.3047,94.7324 145.3047,94.7324 L155.3047,94.7324" fill="none" style="stroke:#FF5F46;stroke-width:3;"/><rect fill="#0078D4" height="36.4883" rx="12.5" ry="12.5" style="stroke:#0078D4;stroke-width:3;" width="108.5869" x="155.3047" y="132.9766"/><text fill="#FFFFFF" font-family="sans-serif" font-size="14" lengthAdjust="spacing" textLength="88.5869" x="165.3047" y="156.5117">Not captured</text><text fill="#000000" font-family="sans-serif" font-size="14" lengthAdjust="spacing" textLength="159.25" x="316.8916" y="138.0234">Global temporary views</text><path d="M263.8916,151.2207 L273.8916,151.2207 C288.8916,151.2207 288.8916,132.7324 303.8916,132.7324 L313.8916,132.7324" fill="none" style="stroke:#0078D4;stroke-width:3;"/><text fill="#000000" font-family="sans-serif" font-size="14" lengthAdjust="spacing" textLength="235.498" x="316.8916" y="156.5117">system.information_schema tables</text><path d="M263.8916,151.2207 L273.8916,151.2207 C288.8916,151.2207 288.8916,151.2207 303.8916,151.2207 L313.8916,151.2207" fill="none" style="stroke:#0078D4;stroke-width:3;"/><text fill="#000000" font-family="sans-serif" font-size="14" lengthAdjust="spacing" textLength="242.6006" x="316.8916" y="175">Some UDFs obscure column lineage</text><path d="M263.8916,151.2207 L273.8916,151.2207 C288.8916,151.2207 288.8916,169.709 303.8916,169.709 L313.8916,169.709" fill="none" style="stroke:#0078D4;stroke-width:3;"/><path d="M105.3047,122.9766 L115.3047,122.9766 C130.3047,122.9766 130.3047,151.2207 145.3047,151.2207 L155.3047,151.2207" fill="none" style="stroke:#FF5F46;stroke-width:3;"/><rect fill="#0078D4" height="36.4883" rx="12.5" ry="12.5" style="stroke:#0078D4;stroke-width:3;" width="193.4961" x="155.3047" y="189.4648"/><text fill="#FFFFFF" font-family="sans-serif" font-size="14" lengthAdjust="spacing" textLength="173.4961" x="165.3047" y="213">Design recommendations</text><text fill="#000000" font-family="sans-serif" font-size="14" lengthAdjust="spacing" textLength="314.1934" x="401.8008" y="194.5117">Use 3-level namespace (catalog.schema.table)</text><path d="M348.8008,207.709 L358.8008,207.709 C373.8008,207.709 373.8008,189.2207 388.8008,189.2207 L398.8008,189.2207" fill="none" style="stroke:#0078D4;stroke-width:3;"/><text fill="#000000" font-family="sans-serif" font-size="14" lengthAdjust="spacing" textLength="170.2285" x="401.8008" y="213">Avoid path-based access</text><path d="M348.8008,207.709 L358.8008,207.709 C373.8008,207.709 373.8008,207.709 388.8008,207.709 L398.8008,207.709" fill="none" style="stroke:#0078D4;stroke-width:3;"/><text fill="#000000" font-family="sans-serif" font-size="14" lengthAdjust="spacing" textLength="297.0215" x="401.8008" y="231.4883">Use UC-enabled compute for all production</text><path d="M348.8008,207.709 L358.8008,207.709 C373.8008,207.709 373.8008,226.1973 388.8008,226.1973 L398.8008,226.1973" fill="none" style="stroke:#0078D4;stroke-width:3;"/><path d="M105.3047,122.9766 L115.3047,122.9766 C130.3047,122.9766 130.3047,207.709 145.3047,207.709 L155.3047,207.709" fill="none" style="stroke:#FF5F46;stroke-width:3;"/><?plantuml-src VPDDRzim38Rl_XK4TcWR88wRTjrM54Et1jwb68fjkGqeQ9c9XKYY8ShkWcB_VV97EinRneiCwYMVbnHyAm5ziDgL5klaHiBUqFlakgGwLAVP6Jmd4ECZgjtMS-FAEpRiuLMUlyulh_gxU-texspEBepPJHylsc-LLZj78d2HPidF0-lyA2lBthnTNKvPa-oVNISEyZv-ivP7MPjDyIxBfgn9zh-ih8_8AlY7wJJFHnKtYt7TixujRkcxkzTM1moQdIIp6Npc0BKd8TzI2Up0aqDByMhs25-wR-ssW12mC0I59zm9cA5PT-u6vOEdLdCZq1M3OI41nSwHwaWTw053DIzG8WMLYhw7mf9CmFG4Yut8zMAHfka9ICLF0dKiY8RCVX1sHaD5ev7HOvzLM8V6KpdeFXakq40WMxD7luTMqzC8axt4VAhTXhtjT_0egY8xZZUgld8SORtA1RWG5Jl7IKnZtM7iZhiYqTjkMOgj9LU-B3JMhuNWOcwe9TFxb1eLmQd2W8QtwK1CU-BPKF6XPLts0_zZGrsxzTqyFaKiAACNMpU188u0Q4nyF2wROSktqSZXHqlEqsMsl4gNlm00?></g></svg>