<?plantuml 1.2026.2?><svg xmlns="http://www.w3.org/2000/svg" xmlns:xlink="http://www.w3.org/1999/xlink" contentStyleType="text/css" data-diagram-type="MINDMAP" height="265px" preserveAspectRatio="none" style="width:652px;height:265px;background:#FFFFFF;" version="1.1" viewBox="0 0 652 265" width="652px" zoomAndPan="magnify"><defs/><g><rect fill="#FF5F46" height="52.9766" rx="12.5" ry="12.5" style="stroke:#FF5F46;stroke-width:3;" width="125.041" x="10" y="105.2207"/><text fill="#FFFFFF" font-family="sans-serif" font-size="14" lengthAdjust="spacing" textLength="105.041" x="20" y="128.7559">Data Lineage in</text><text fill="#FFFFFF" font-family="sans-serif" font-size="14" lengthAdjust="spacing" textLength="91.1777" x="20" y="145.2441">Unity Catalog</text><rect fill="#0078D4" height="36.4883" rx="12.5" ry="12.5" style="stroke:#0078D4;stroke-width:3;" width="130.0791" x="185.041" y="28.7324"/><text fill="#FFFFFF" font-family="sans-serif" font-size="14" lengthAdjust="spacing" textLength="110.0791" x="195.041" y="52.2676">What it captures</text><text fill="#000000" font-family="sans-serif" font-size="14" lengthAdjust="spacing" textLength="204.7363" x="368.1201" y="24.5352">Runtime lineage automatically</text><path d="M315.1201,46.9766 L325.1201,46.9766 C340.1201,46.9766 340.1201,19.2441 355.1201,19.2441 L365.1201,19.2441" fill="none" style="stroke:#0078D4;stroke-width:3;"/><text fill="#000000" font-family="sans-serif" font-size="14" lengthAdjust="spacing" textLength="229.0859" x="368.1201" y="43.0234">All languages (SQL, Python, Scala)</text><path d="M315.1201,46.9766 L325.1201,46.9766 C340.1201,46.9766 340.1201,37.7324 355.1201,37.7324 L365.1201,37.7324" fill="none" style="stroke:#0078D4;stroke-width:3;"/><text fill="#000000" font-family="sans-serif" font-size="14" lengthAdjust="spacing" textLength="183.9482" x="368.1201" y="61.5117">Column-level relationships</text><path d="M315.1201,46.9766 L325.1201,46.9766 C340.1201,46.9766 340.1201,56.2207 355.1201,56.2207 L365.1201,56.2207" fill="none" style="stroke:#0078D4;stroke-width:3;"/><text fill="#000000" font-family="sans-serif" font-size="14" lengthAdjust="spacing" textLength="199.0215" x="368.1201" y="80">Notebooks, jobs, dashboards</text><path d="M315.1201,46.9766 L325.1201,46.9766 C340.1201,46.9766 340.1201,74.709 355.1201,74.709 L365.1201,74.709" fill="none" style="stroke:#0078D4;stroke-width:3;"/><path d="M135.041,131.709 L145.041,131.709 C160.041,131.709 160.041,46.9766 175.041,46.9766 L185.041,46.9766" fill="none" style="stroke:#FF5F46;stroke-width:3;"/><rect fill="#0078D4" height="36.4883" rx="12.5" ry="12.5" style="stroke:#0078D4;stroke-width:3;" width="176.8574" x="185.041" y="93.9531"/><text fill="#FFFFFF" font-family="sans-serif" font-size="14" lengthAdjust="spacing" textLength="156.8574" x="195.041" y="117.4883">Compute requirements</text><text fill="#000000" font-family="sans-serif" font-size="14" lengthAdjust="spacing" textLength="210.3418" x="414.8984" y="99">Unity Catalog-enabled clusters</text><path d="M361.8984,112.1973 L371.8984,112.1973 C386.8984,112.1973 386.8984,93.709 401.8984,93.709 L411.8984,93.709" fill="none" style="stroke:#0078D4;stroke-width:3;"/><text fill="#000000" font-family="sans-serif" font-size="14" lengthAdjust="spacing" textLength="225.5313" x="414.8984" y="117.4883">SQL warehouses with UC enabled</text><path d="M361.8984,112.1973 L371.8984,112.1973 C386.8984,112.1973 386.8984,112.1973 401.8984,112.1973 L411.8984,112.1973" fill="none" style="stroke:#0078D4;stroke-width:3;"/><text fill="#000000" font-family="sans-serif" font-size="14" lengthAdjust="spacing" textLength="193.6006" x="414.8984" y="135.9766">Jobs on UC-enabled clusters</text><path d="M361.8984,112.1973 L371.8984,112.1973 C386.8984,112.1973 386.8984,130.6855 401.8984,130.6855 L411.8984,130.6855" fill="none" style="stroke:#0078D4;stroke-width:3;"/><path d="M135.041,131.709 L145.041,131.709 C160.041,131.709 160.041,112.1973 175.041,112.1973 L185.041,112.1973" fill="none" style="stroke:#FF5F46;stroke-width:3;"/><rect fill="#0078D4" height="36.4883" rx="12.5" ry="12.5" style="stroke:#0078D4;stroke-width:3;" width="59.9219" x="185.041" y="150.4414"/><text fill="#FFFFFF" font-family="sans-serif" font-size="14" lengthAdjust="spacing" textLength="39.9219" x="195.041" y="173.9766">Scope</text><text fill="#000000" font-family="sans-serif" font-size="14" lengthAdjust="spacing" textLength="240.3789" x="297.9629" y="164.7324">Cross-workspace (same metastore)</text><path d="M244.9629,168.6855 L254.9629,168.6855 C269.9629,168.6855 269.9629,159.4414 284.9629,159.4414 L294.9629,159.4414" fill="none" style="stroke:#0078D4;stroke-width:3;"/><text fill="#000000" font-family="sans-serif" font-size="14" lengthAdjust="spacing" textLength="129.1582" x="297.9629" y="183.2207">Retained for 1 year</text><path d="M244.9629,168.6855 L254.9629,168.6855 C269.9629,168.6855 269.9629,177.9297 284.9629,177.9297 L294.9629,177.9297" fill="none" style="stroke:#0078D4;stroke-width:3;"/><path d="M135.041,131.709 L145.041,131.709 C160.041,131.709 160.041,168.6855 175.041,168.6855 L185.041,168.6855" fill="none" style="stroke:#FF5F46;stroke-width:3;"/><rect fill="#0078D4" height="36.4883" rx="12.5" ry="12.5" style="stroke:#0078D4;stroke-width:3;" width="108.5869" x="185.041" y="206.9297"/><text fill="#FFFFFF" font-family="sans-serif" font-size="14" lengthAdjust="spacing" textLength="88.5869" x="195.041" y="230.4648">Not captured</text><text fill="#000000" font-family="sans-serif" font-size="14" lengthAdjust="spacing" textLength="112.4922" x="346.6279" y="211.9766">Non-UC clusters</text><path d="M293.6279,225.1738 L303.6279,225.1738 C318.6279,225.1738 318.6279,206.6855 333.6279,206.6855 L343.6279,206.6855" fill="none" style="stroke:#0078D4;stroke-width:3;"/><text fill="#000000" font-family="sans-serif" font-size="14" lengthAdjust="spacing" textLength="164.418" x="346.6279" y="230.4648">Path-based table access</text><path d="M293.6279,225.1738 L303.6279,225.1738 C318.6279,225.1738 318.6279,225.1738 333.6279,225.1738 L343.6279,225.1738" fill="none" style="stroke:#0078D4;stroke-width:3;"/><text fill="#000000" font-family="sans-serif" font-size="14" lengthAdjust="spacing" textLength="124.1475" x="346.6279" y="248.9531">Global temp views</text><path d="M293.6279,225.1738 L303.6279,225.1738 C318.6279,225.1738 318.6279,243.6621 333.6279,243.6621 L343.6279,243.6621" fill="none" style="stroke:#0078D4;stroke-width:3;"/><path d="M135.041,131.709 L145.041,131.709 C160.041,131.709 160.041,225.1738 175.041,225.1738 L185.041,225.1738" fill="none" style="stroke:#FF5F46;stroke-width:3;"/><?plantuml-src VLDTRzD047pthrY9bpIAWnDA-L252gcCX2fKMYfUaD3QtiH7phVcRjtKglZlR1m754FO1qkUczsPsTDT144lbN55XNLq7gIrz2PwNL0jvIWvWSS8jDvXlbvvRbonOCiUdgJfy_Jqh3kxCex-HbDsqgFBhdvpFvScNpiA0PvDa-ZdNcjsL2j9NhoyF1rg3T33gGC7QLT_jEP7jPRBx5MI3BK6w7-ragvKA-C7k-Ky7cMSF-tNFOPB5Encuuh0kA_kpXbfOQ6mvLKq7iEN4WMCG8wrD9w2OkDlSDCuCHM1xLkn4QvGJ8xMjZlAMsl1ebirUXvWTFlfQWBNhPJi9d2hF3pPyTHTKxdOqZrPy6Hr2hjGchgN-iX26VCwJE0xP_ejC9GPeo-s16slwaP8EtyqnbD5Jlh6WoWnESmi5P3R9WZvdgEkO8EUIcw2kjmOAU5k0Jrvn_cWgi1EyNyDqInSKn_5SmZnXlqwr9WJZ0BgZYeI3CAU-i0t-gzhAs2fjpA3bj1lvsZE_PABVN8Ngvb3nzSePPnXq7xPcW7CSxtktU5xonbQ4Afgk3Uq2T45wGlhNraqcywJ-Tbq_Wi0?></g></svg>