<?plantuml 1.2026.2?><svg xmlns="http://www.w3.org/2000/svg" xmlns:xlink="http://www.w3.org/1999/xlink" contentStyleType="text/css" data-diagram-type="MINDMAP" height="273px" preserveAspectRatio="none" style="width:681px;height:273px;background:#FFFFFF;" version="1.1" viewBox="0 0 681 273" width="681px" zoomAndPan="magnify"><defs/><g><rect fill="#FF5F46" height="52.9766" rx="12.5" ry="12.5" style="stroke:#FF5F46;stroke-width:3;" width="134.0439" x="10" y="109.3311"/><text fill="#FFFFFF" font-family="sans-serif" font-size="14" lengthAdjust="spacing" textLength="104.2139" x="20" y="132.8662">Table History &amp;</text><text fill="#FFFFFF" font-family="sans-serif" font-size="14" lengthAdjust="spacing" textLength="114.0439" x="20" y="149.3545">Version Changes</text><rect fill="#0078D4" height="36.4883" rx="12.5" ry="12.5" style="stroke:#0078D4;stroke-width:3;" width="133.0801" x="194.0439" y="20"/><text fill="#FFFFFF" font-family="sans-serif" font-size="14" lengthAdjust="spacing" textLength="113.0801" x="204.0439" y="43.5352">Catalog Explorer</text><text fill="#000000" font-family="sans-serif" font-size="14" lengthAdjust="spacing" textLength="181.2002" x="380.124" y="34.291">History tab on Delta tables</text><path d="M327.124,38.2441 L337.124,38.2441 C352.124,38.2441 352.124,29 367.124,29 L377.124,29" fill="none" style="stroke:#0078D4;stroke-width:3;"/><text fill="#000000" font-family="sans-serif" font-size="14" lengthAdjust="spacing" textLength="244.4668" x="380.124" y="52.7793">Version, timestamp, operation, user</text><path d="M327.124,38.2441 L337.124,38.2441 C352.124,38.2441 352.124,47.4883 367.124,47.4883 L377.124,47.4883" fill="none" style="stroke:#0078D4;stroke-width:3;"/><path d="M144.0439,135.8193 L154.0439,135.8193 C169.0439,135.8193 169.0439,38.2441 184.0439,38.2441 L194.0439,38.2441" fill="none" style="stroke:#FF5F46;stroke-width:3;"/><rect fill="#0078D4" height="36.4883" rx="12.5" ry="12.5" style="stroke:#0078D4;stroke-width:3;" width="117.4531" x="194.0439" y="76.4883"/><text fill="#FFFFFF" font-family="sans-serif" font-size="14" lengthAdjust="spacing" textLength="97.4531" x="204.0439" y="100.0234">SQL command</text><text fill="#000000" font-family="sans-serif" font-size="14" lengthAdjust="spacing" textLength="187.7354" x="364.4971" y="90.7793">DESCRIBE HISTORY &lt;table&gt;</text><path d="M311.4971,94.7324 L321.4971,94.7324 C336.4971,94.7324 336.4971,85.4883 351.4971,85.4883 L361.4971,85.4883" fill="none" style="stroke:#0078D4;stroke-width:3;"/><text fill="#000000" font-family="sans-serif" font-size="14" lengthAdjust="spacing" textLength="173.1543" x="364.4971" y="109.2676">LIMIT N for recent history</text><path d="M311.4971,94.7324 L321.4971,94.7324 C336.4971,94.7324 336.4971,103.9766 351.4971,103.9766 L361.4971,103.9766" fill="none" style="stroke:#0078D4;stroke-width:3;"/><path d="M144.0439,135.8193 L154.0439,135.8193 C169.0439,135.8193 169.0439,94.7324 184.0439,94.7324 L194.0439,94.7324" fill="none" style="stroke:#FF5F46;stroke-width:3;"/><rect fill="#0078D4" height="36.4883" rx="12.5" ry="12.5" style="stroke:#0078D4;stroke-width:3;" width="130.1816" x="194.0439" y="141.1973"/><text fill="#FFFFFF" font-family="sans-serif" font-size="14" lengthAdjust="spacing" textLength="110.1816" x="204.0439" y="164.7324">History columns</text><text fill="#000000" font-family="sans-serif" font-size="14" lengthAdjust="spacing" textLength="202.624" x="377.2256" y="127.7559">version: table version number</text><path d="M324.2256,159.4414 L334.2256,159.4414 C349.2256,159.4414 349.2256,122.4648 364.2256,122.4648 L374.2256,122.4648" fill="none" style="stroke:#0078D4;stroke-width:3;"/><text fill="#000000" font-family="sans-serif" font-size="14" lengthAdjust="spacing" textLength="250.7627" x="377.2256" y="146.2441">timestamp: when operation occurred</text><path d="M324.2256,159.4414 L334.2256,159.4414 C349.2256,159.4414 349.2256,140.9531 364.2256,140.9531 L374.2256,140.9531" fill="none" style="stroke:#0078D4;stroke-width:3;"/><text fill="#000000" font-family="sans-serif" font-size="14" lengthAdjust="spacing" textLength="291.7783" x="377.2256" y="164.7324">operation: WRITE, UPDATE, DELETE, MERGE</text><path d="M324.2256,159.4414 L334.2256,159.4414 C349.2256,159.4414 349.2256,159.4414 364.2256,159.4414 L374.2256,159.4414" fill="none" style="stroke:#0078D4;stroke-width:3;"/><text fill="#000000" font-family="sans-serif" font-size="14" lengthAdjust="spacing" textLength="226.4678" x="377.2256" y="183.2207">userName: who made the change</text><path d="M324.2256,159.4414 L334.2256,159.4414 C349.2256,159.4414 349.2256,177.9297 364.2256,177.9297 L374.2256,177.9297" fill="none" style="stroke:#0078D4;stroke-width:3;"/><text fill="#000000" font-family="sans-serif" font-size="14" lengthAdjust="spacing" textLength="251.8428" x="377.2256" y="201.709">operationMetrics: rows affected, files</text><path d="M324.2256,159.4414 L334.2256,159.4414 C349.2256,159.4414 349.2256,196.418 364.2256,196.418 L374.2256,196.418" fill="none" style="stroke:#0078D4;stroke-width:3;"/><path d="M144.0439,135.8193 L154.0439,135.8193 C169.0439,135.8193 169.0439,159.4414 184.0439,159.4414 L194.0439,159.4414" fill="none" style="stroke:#FF5F46;stroke-width:3;"/><rect fill="#0078D4" height="36.4883" rx="12.5" ry="12.5" style="stroke:#0078D4;stroke-width:3;" width="86.042" x="194.0439" y="215.1504"/><text fill="#FFFFFF" font-family="sans-serif" font-size="14" lengthAdjust="spacing" textLength="66.042" x="204.0439" y="238.6855">Use cases</text><text fill="#000000" font-family="sans-serif" font-size="14" lengthAdjust="spacing" textLength="169.1348" x="333.0859" y="220.1973">Auditing and compliance</text><path d="M280.0859,233.3945 L290.0859,233.3945 C305.0859,233.3945 305.0859,214.9063 320.0859,214.9063 L330.0859,214.9063" fill="none" style="stroke:#0078D4;stroke-width:3;"/><text fill="#000000" font-family="sans-serif" font-size="14" lengthAdjust="spacing" textLength="155.2168" x="333.0859" y="238.6855">Point-in-time recovery</text><path d="M280.0859,233.3945 L290.0859,233.3945 C305.0859,233.3945 305.0859,233.3945 320.0859,233.3945 L330.0859,233.3945" fill="none" style="stroke:#0078D4;stroke-width:3;"/><text fill="#000000" font-family="sans-serif" font-size="14" lengthAdjust="spacing" textLength="128.7891" x="333.0859" y="257.1738">Change debugging</text><path d="M280.0859,233.3945 L290.0859,233.3945 C305.0859,233.3945 305.0859,251.8828 320.0859,251.8828 L330.0859,251.8828" fill="none" style="stroke:#0078D4;stroke-width:3;"/><path d="M144.0439,135.8193 L154.0439,135.8193 C169.0439,135.8193 169.0439,233.3945 184.0439,233.3945 L194.0439,233.3945" fill="none" style="stroke:#FF5F46;stroke-width:3;"/><?plantuml-src VLFlQzim4Ftkl-9WCBQGPcxMTPi9fMrihuQaxH9tOp0OidosHIt9IFBQKFQ_L_wLCe_ilWYzktlltGcTQqEKuKoad5JEGfjTYMUEbs9bYZVkMtXomCObeVUvahL8bxAK2bw5uOVmvBJDhPZ0Vz5G2jEZMHlxshXWz5wWrl1-vZf_1gtZWrgk-_6JVpBM6g5_iuuSX6syQCqFQcLPyjbrnreZzBzQRXjMAv6FPLFpTB1YyQvVzmHYafG8LqmRgNRm-gVuXaepAM1P496ZTYOJM193Ifb3y5XP7bGMc_pQznYIWAttiJIakPHjaotecQPW64VxshoQWgnG4TEYjMwPOFjr1LHoJaJQzVd1Thc9BWEuYhRnpUO7B5hMiowxYjPH3DUGsOaKKXG6Yiv9GpQOehAikUYD_EwCU9sxuGgYviampDwY1my5YXUV82cjbSBUsnxtuFicYeCftDtw5ytf1wkWETV1valG5JSJNXEE3QS4Jb84Ko3GThCZlZKQnQZsGCa73IJBa1fCfv2nRfzmfsqdqSDoB-gK6IPoi6jhrbULZ0ZQizvA9imH4qVDMCsMf9rvr-MwTuKKaphFBO5pZlOBzj_GEPxDtVdfRFuC?></g></svg>