<?plantuml 1.2026.2?><svg xmlns="http://www.w3.org/2000/svg" xmlns:xlink="http://www.w3.org/1999/xlink" contentStyleType="text/css" data-diagram-type="MINDMAP" height="247px" preserveAspectRatio="none" style="width:756px;height:247px;background:#FFFFFF;" version="1.1" viewBox="0 0 756 247" width="756px" zoomAndPan="magnify"><defs/><g><rect fill="#FF5F46" height="52.9766" rx="12.5" ry="12.5" style="stroke:#FF5F46;stroke-width:3;" width="174.7998" x="10" y="96.4883"/><text fill="#FFFFFF" font-family="sans-serif" font-size="14" lengthAdjust="spacing" textLength="124.0928" x="20" y="120.0234">View Data Lineage</text><text fill="#FFFFFF" font-family="sans-serif" font-size="14" lengthAdjust="spacing" textLength="154.7998" x="20" y="136.5117">using Catalog Explorer</text><rect fill="#0078D4" height="36.4883" rx="12.5" ry="12.5" style="stroke:#0078D4;stroke-width:3;" width="92.3994" x="234.7998" y="20"/><text fill="#FFFFFF" font-family="sans-serif" font-size="14" lengthAdjust="spacing" textLength="72.3994" x="244.7998" y="43.5352">Navigation</text><text fill="#000000" font-family="sans-serif" font-size="14" lengthAdjust="spacing" textLength="209.5762" x="380.1992" y="25.0469">Catalog &#8594; table &#8594; Lineage tab</text><path d="M327.1992,38.2441 L337.1992,38.2441 C352.1992,38.2441 352.1992,19.7559 367.1992,19.7559 L377.1992,19.7559" fill="none" style="stroke:#0078D4;stroke-width:3;"/><text fill="#000000" font-family="sans-serif" font-size="14" lengthAdjust="spacing" textLength="175.0273" x="380.1992" y="43.5352">See Lineage Graph button</text><path d="M327.1992,38.2441 L337.1992,38.2441 C352.1992,38.2441 352.1992,38.2441 367.1992,38.2441 L377.1992,38.2441" fill="none" style="stroke:#0078D4;stroke-width:3;"/><text fill="#000000" font-family="sans-serif" font-size="14" lengthAdjust="spacing" textLength="160.4189" x="380.1992" y="62.0234">Interactive visualization</text><path d="M327.1992,38.2441 L337.1992,38.2441 C352.1992,38.2441 352.1992,56.7324 367.1992,56.7324 L377.1992,56.7324" fill="none" style="stroke:#0078D4;stroke-width:3;"/><path d="M184.7998,122.9766 L194.7998,122.9766 C209.7998,122.9766 209.7998,38.2441 224.7998,38.2441 L234.7998,38.2441" fill="none" style="stroke:#FF5F46;stroke-width:3;"/><rect fill="#0078D4" height="36.4883" rx="12.5" ry="12.5" style="stroke:#0078D4;stroke-width:3;" width="120.7754" x="234.7998" y="76.4883"/><text fill="#FFFFFF" font-family="sans-serif" font-size="14" lengthAdjust="spacing" textLength="100.7754" x="244.7998" y="100.0234">Graph features</text><text fill="#000000" font-family="sans-serif" font-size="14" lengthAdjust="spacing" textLength="246.2236" x="408.5752" y="81.5352">Tables as nodes, arrows = data flow</text><path d="M355.5752,94.7324 L365.5752,94.7324 C380.5752,94.7324 380.5752,76.2441 395.5752,76.2441 L405.5752,76.2441" fill="none" style="stroke:#0078D4;stroke-width:3;"/><text fill="#000000" font-family="sans-serif" font-size="14" lengthAdjust="spacing" textLength="234.4453" x="408.5752" y="100.0234">Expand upstream/downstream (+)</text><path d="M355.5752,94.7324 L365.5752,94.7324 C380.5752,94.7324 380.5752,94.7324 395.5752,94.7324 L405.5752,94.7324" fill="none" style="stroke:#0078D4;stroke-width:3;"/><text fill="#000000" font-family="sans-serif" font-size="14" lengthAdjust="spacing" textLength="167.9521" x="408.5752" y="118.5117">Connection details panel</text><path d="M355.5752,94.7324 L365.5752,94.7324 C380.5752,94.7324 380.5752,113.2207 395.5752,113.2207 L405.5752,113.2207" fill="none" style="stroke:#0078D4;stroke-width:3;"/><path d="M184.7998,122.9766 L194.7998,122.9766 C209.7998,122.9766 209.7998,94.7324 224.7998,94.7324 L234.7998,94.7324" fill="none" style="stroke:#FF5F46;stroke-width:3;"/><rect fill="#0078D4" height="36.4883" rx="12.5" ry="12.5" style="stroke:#0078D4;stroke-width:3;" width="165.0928" x="234.7998" y="132.9766"/><text fill="#FFFFFF" font-family="sans-serif" font-size="14" lengthAdjust="spacing" textLength="145.0928" x="244.7998" y="156.5117">Column-level lineage</text><text fill="#000000" font-family="sans-serif" font-size="14" lengthAdjust="spacing" textLength="150.6504" x="452.8926" y="138.0234">Select column to trace</text><path d="M399.8926,151.2207 L409.8926,151.2207 C424.8926,151.2207 424.8926,132.7324 439.8926,132.7324 L449.8926,132.7324" fill="none" style="stroke:#0078D4;stroke-width:3;"/><text fill="#000000" font-family="sans-serif" font-size="14" lengthAdjust="spacing" textLength="215.1475" x="452.8926" y="156.5117">Upstream contributing columns</text><path d="M399.8926,151.2207 L409.8926,151.2207 C424.8926,151.2207 424.8926,151.2207 439.8926,151.2207 L449.8926,151.2207" fill="none" style="stroke:#0078D4;stroke-width:3;"/><text fill="#000000" font-family="sans-serif" font-size="14" lengthAdjust="spacing" textLength="201.7695" x="452.8926" y="175">Downstream derived columns</text><path d="M399.8926,151.2207 L409.8926,151.2207 C424.8926,151.2207 424.8926,169.709 439.8926,169.709 L449.8926,169.709" fill="none" style="stroke:#0078D4;stroke-width:3;"/><path d="M184.7998,122.9766 L194.7998,122.9766 C209.7998,122.9766 209.7998,151.2207 224.7998,151.2207 L234.7998,151.2207" fill="none" style="stroke:#FF5F46;stroke-width:3;"/><rect fill="#0078D4" height="36.4883" rx="12.5" ry="12.5" style="stroke:#0078D4;stroke-width:3;" width="187.3848" x="234.7998" y="189.4648"/><text fill="#FFFFFF" font-family="sans-serif" font-size="14" lengthAdjust="spacing" textLength="167.3848" x="244.7998" y="213">Job &amp; Dashboard lineage</text><text fill="#000000" font-family="sans-serif" font-size="14" lengthAdjust="spacing" textLength="163.2354" x="475.1846" y="194.5117">Jobs tab &#8594; Downstream</text><path d="M422.1846,207.709 L432.1846,207.709 C447.1846,207.709 447.1846,189.2207 462.1846,189.2207 L472.1846,189.2207" fill="none" style="stroke:#0078D4;stroke-width:3;"/><text fill="#000000" font-family="sans-serif" font-size="14" lengthAdjust="spacing" textLength="107.0713" x="475.1846" y="213">Dashboards tab</text><path d="M422.1846,207.709 L432.1846,207.709 C447.1846,207.709 447.1846,207.709 462.1846,207.709 L472.1846,207.709" fill="none" style="stroke:#0078D4;stroke-width:3;"/><text fill="#000000" font-family="sans-serif" font-size="14" lengthAdjust="spacing" textLength="269.0352" x="475.1846" y="231.4883">Impact analysis before schema changes</text><path d="M422.1846,207.709 L432.1846,207.709 C447.1846,207.709 447.1846,226.1973 462.1846,226.1973 L472.1846,226.1973" fill="none" style="stroke:#0078D4;stroke-width:3;"/><path d="M184.7998,122.9766 L194.7998,122.9766 C209.7998,122.9766 209.7998,207.709 224.7998,207.709 L234.7998,207.709" fill="none" style="stroke:#FF5F46;stroke-width:3;"/><?plantuml-src VLFBRjH04BpxArf2Gia26sS9uQ608h8O9K9S29oGKDlJjaSPprZJuzqyn9KFo2Vo9RHVkyHewTEukhfhgaO-vO0-LDgg2kleXCEDeNVH6qLrAFVYVRYBGEezPbU5TurLPyuu3u-Iv4LoTDprFcbB_wA9is50ywustCjIPrUMcE7vF8v-Zbg7ExNY-EMhvT5KQu8-t3gvGTBLLcknKolFqzTnFDMQeF_LYhiIhTHTcvPpjvDnSZ34FODlcjQmn82T01RqtJQiRG5dWXbNm8VhMeR9HxCPVCQLBZ1eP-LhzcF3-Vth7WAcXhhJiAX5UjeNeWtuqMDTGjg4C2uvju4yPa6l25QQ6pJwTjGOw3bXQ3nnFt3PAZ4WWtMA-2cWzsxDy1PKwoCtRjqJvUfe5JGr1qzO7IYtjlqHzfxi3nQSjPIrSg0ee3OCCaIc5PVOcie-CxGY0wOtC3eoCWHPHu3W88Y3eVTra9Ek3LwBrJREdZeuM6uleiYBSVLN7ovS2e_bJRXC7NhrK5cQt2RR9RtTC-mTPtWR_dbLIxY05iqDQuQKSdbEuAoa2Y4hqHOIx2d9VpZyYz7XV14lZkUBFm00?></g></svg>