<?plantuml 1.2026.2?><svg xmlns="http://www.w3.org/2000/svg" xmlns:xlink="http://www.w3.org/1999/xlink" contentStyleType="text/css" data-diagram-type="MINDMAP" height="265px" preserveAspectRatio="none" style="width:661px;height:265px;background:#FFFFFF;" version="1.1" viewBox="0 0 661 265" width="661px" zoomAndPan="magnify"><defs/><g><rect fill="#FF5F46" height="52.9766" rx="12.5" ry="12.5" style="stroke:#FF5F46;stroke-width:3;" width="135.0693" x="10" y="105.2207"/><text fill="#FFFFFF" font-family="sans-serif" font-size="14" lengthAdjust="spacing" textLength="101.958" x="20" y="128.7559">Log Delivery to</text><text fill="#FFFFFF" font-family="sans-serif" font-size="14" lengthAdjust="spacing" textLength="115.0693" x="20" y="145.2441">External Systems</text><rect fill="#0078D4" height="36.4883" rx="12.5" ry="12.5" style="stroke:#0078D4;stroke-width:3;" width="154.5859" x="195.0693" y="28.7324"/><text fill="#FFFFFF" font-family="sans-serif" font-size="14" lengthAdjust="spacing" textLength="134.5859" x="205.0693" y="52.2676">Azure Log Analytics</text><text fill="#000000" font-family="sans-serif" font-size="14" lengthAdjust="spacing" textLength="226.0098" x="402.6553" y="24.5352">Near-real-time (~15 min latency)</text><path d="M349.6553,46.9766 L359.6553,46.9766 C374.6553,46.9766 374.6553,19.2441 389.6553,19.2441 L399.6553,19.2441" fill="none" style="stroke:#0078D4;stroke-width:3;"/><text fill="#000000" font-family="sans-serif" font-size="14" lengthAdjust="spacing" textLength="91.7178" x="402.6553" y="43.0234">KQL querying</text><path d="M349.6553,46.9766 L359.6553,46.9766 C374.6553,46.9766 374.6553,37.7324 389.6553,37.7324 L399.6553,37.7324" fill="none" style="stroke:#0078D4;stroke-width:3;"/><text fill="#000000" font-family="sans-serif" font-size="14" lengthAdjust="spacing" textLength="136.0352" x="402.6553" y="61.5117">Custom dashboards</text><path d="M349.6553,46.9766 L359.6553,46.9766 C374.6553,46.9766 374.6553,56.2207 389.6553,56.2207 L399.6553,56.2207" fill="none" style="stroke:#0078D4;stroke-width:3;"/><text fill="#000000" font-family="sans-serif" font-size="14" lengthAdjust="spacing" textLength="169.5176" x="402.6553" y="80">Interactive investigations</text><path d="M349.6553,46.9766 L359.6553,46.9766 C374.6553,46.9766 374.6553,74.709 389.6553,74.709 L399.6553,74.709" fill="none" style="stroke:#0078D4;stroke-width:3;"/><path d="M145.0693,131.709 L155.0693,131.709 C170.0693,131.709 170.0693,46.9766 185.0693,46.9766 L195.0693,46.9766" fill="none" style="stroke:#FF5F46;stroke-width:3;"/><rect fill="#0078D4" height="36.4883" rx="12.5" ry="12.5" style="stroke:#0078D4;stroke-width:3;" width="180.5488" x="195.0693" y="93.9531"/><text fill="#FFFFFF" font-family="sans-serif" font-size="14" lengthAdjust="spacing" textLength="160.5488" x="205.0693" y="117.4883">Azure Storage accounts</text><text fill="#000000" font-family="sans-serif" font-size="14" lengthAdjust="spacing" textLength="119.916" x="428.6182" y="99">Low-cost archival</text><path d="M375.6182,112.1973 L385.6182,112.1973 C400.6182,112.1973 400.6182,93.709 415.6182,93.709 L425.6182,93.709" fill="none" style="stroke:#0078D4;stroke-width:3;"/><text fill="#000000" font-family="sans-serif" font-size="14" lengthAdjust="spacing" textLength="119.1982" x="428.6182" y="117.4883">Infrequent access</text><path d="M375.6182,112.1973 L385.6182,112.1973 C400.6182,112.1973 400.6182,112.1973 415.6182,112.1973 L425.6182,112.1973" fill="none" style="stroke:#0078D4;stroke-width:3;"/><text fill="#000000" font-family="sans-serif" font-size="14" lengthAdjust="spacing" textLength="221.2383" x="428.6182" y="135.9766">Long-term compliance retention</text><path d="M375.6182,112.1973 L385.6182,112.1973 C400.6182,112.1973 400.6182,130.6855 415.6182,130.6855 L425.6182,130.6855" fill="none" style="stroke:#0078D4;stroke-width:3;"/><path d="M145.0693,131.709 L155.0693,131.709 C170.0693,131.709 170.0693,112.1973 185.0693,112.1973 L195.0693,112.1973" fill="none" style="stroke:#FF5F46;stroke-width:3;"/><rect fill="#0078D4" height="36.4883" rx="12.5" ry="12.5" style="stroke:#0078D4;stroke-width:3;" width="140.2441" x="195.0693" y="150.4414"/><text fill="#FFFFFF" font-family="sans-serif" font-size="14" lengthAdjust="spacing" textLength="120.2441" x="205.0693" y="173.9766">Azure Event Hubs</text><text fill="#000000" font-family="sans-serif" font-size="14" lengthAdjust="spacing" textLength="139.2822" x="388.3135" y="155.4883">Real-time streaming</text><path d="M335.3135,168.6855 L345.3135,168.6855 C360.3135,168.6855 360.3135,150.1973 375.3135,150.1973 L385.3135,150.1973" fill="none" style="stroke:#0078D4;stroke-width:3;"/><text fill="#000000" font-family="sans-serif" font-size="14" lengthAdjust="spacing" textLength="172.9834" x="388.3135" y="173.9766">SIEM platform integration</text><path d="M335.3135,168.6855 L345.3135,168.6855 C360.3135,168.6855 360.3135,168.6855 375.3135,168.6855 L385.3135,168.6855" fill="none" style="stroke:#0078D4;stroke-width:3;"/><text fill="#000000" font-family="sans-serif" font-size="14" lengthAdjust="spacing" textLength="179.5732" x="388.3135" y="192.4648">Event-driven architectures</text><path d="M335.3135,168.6855 L345.3135,168.6855 C360.3135,168.6855 360.3135,187.1738 375.3135,187.1738 L385.3135,187.1738" fill="none" style="stroke:#0078D4;stroke-width:3;"/><path d="M145.0693,131.709 L155.0693,131.709 C170.0693,131.709 170.0693,168.6855 185.0693,168.6855 L195.0693,168.6855" fill="none" style="stroke:#FF5F46;stroke-width:3;"/><rect fill="#0078D4" height="36.4883" rx="12.5" ry="12.5" style="stroke:#0078D4;stroke-width:3;" width="113.6182" x="195.0693" y="206.9297"/><text fill="#FFFFFF" font-family="sans-serif" font-size="14" lengthAdjust="spacing" textLength="93.6182" x="205.0693" y="230.4648">Configuration</text><text fill="#000000" font-family="sans-serif" font-size="14" lengthAdjust="spacing" textLength="217.5537" x="361.6875" y="211.9766">Azure portal diagnostic settings</text><path d="M308.6875,225.1738 L318.6875,225.1738 C333.6875,225.1738 333.6875,206.6855 348.6875,206.6855 L358.6875,206.6855" fill="none" style="stroke:#0078D4;stroke-width:3;"/><text fill="#000000" font-family="sans-serif" font-size="14" lengthAdjust="spacing" textLength="189.7861" x="361.6875" y="230.4648">Account-level configuration</text><path d="M308.6875,225.1738 L318.6875,225.1738 C333.6875,225.1738 333.6875,225.1738 348.6875,225.1738 L358.6875,225.1738" fill="none" style="stroke:#0078D4;stroke-width:3;"/><text fill="#000000" font-family="sans-serif" font-size="14" lengthAdjust="spacing" textLength="261.2285" x="361.6875" y="248.9531">15 min ingestion latency in thresholds</text><path d="M308.6875,225.1738 L318.6875,225.1738 C333.6875,225.1738 333.6875,243.6621 348.6875,243.6621 L358.6875,243.6621" fill="none" style="stroke:#0078D4;stroke-width:3;"/><path d="M145.0693,131.709 L155.0693,131.709 C170.0693,131.709 170.0693,225.1738 185.0693,225.1738 L195.0693,225.1738" fill="none" style="stroke:#FF5F46;stroke-width:3;"/><?plantuml-src VPFRRjim38Rl_HG4TjC6SEfaRNT0CJHBOwneDc3BBWiCYapRGcN9asYlNh4z--X3qjP5nalg9p_-97JfIJWgb4aAKGONdXgD7uBt2PQK7qN7y100nqSXxp9dAvCihROENiNnMNnwthsjbS6NsTWQ6h9f5tljzrp9EuFUm-jf5FpPiMO7ML7qvktLwPWroZxlEfeWxkAHDJ_8IjFjkoWQiqRP_xAYBfYrjVUwrJmSL5oS3EkUmDfcS8LQrUWQ87jhLlU4pWWDcyOJ5ZwOJ63nktBOIHVyqf2IRNho0xwWSA53eKDI1SBHtzaPy4b12q8Zc-DUTVDr3Jyh1YYJzPbbvSaMa0YVRwrmoT3ksZ1RIE9fG9aQFQbCaBBcoHGRiava249ANXyDbMlxAvJM4mWdSrKBlMkOEcIqeLRFIzcfJHOogW1fYr8hOII2GvwvXJsoLdLR-QdQ3dNVzauziUjYxsTplVeC9RjEBJTLR2DpOkZ5prsVC77io_GJ4afYGkThQKsgikffGOylhIC-HA94PjYRak2HYA73E8j-1Q766ZLR6RSPZi45xIRj_YoS0SgPdblDgxz4_eF3FmncqtaqFv_E_m40?></g></svg>