<?plantuml 1.2026.2?><svg xmlns="http://www.w3.org/2000/svg" xmlns:xlink="http://www.w3.org/1999/xlink" contentStyleType="text/css" data-diagram-type="MINDMAP" height="247px" preserveAspectRatio="none" style="width:704px;height:247px;background:#FFFFFF;" version="1.1" viewBox="0 0 704 247" width="704px" zoomAndPan="magnify"><defs/><g><rect fill="#FF5F46" height="52.9766" rx="12.5" ry="12.5" style="stroke:#FF5F46;stroke-width:3;" width="124.125" x="10" y="96.4883"/><text fill="#FFFFFF" font-family="sans-serif" font-size="14" lengthAdjust="spacing" textLength="104.125" x="20" y="120.0234">Enable Verbose</text><text fill="#FFFFFF" font-family="sans-serif" font-size="14" lengthAdjust="spacing" textLength="72.8027" x="20" y="136.5117">Audit Logs</text><rect fill="#0078D4" height="36.4883" rx="12.5" ry="12.5" style="stroke:#0078D4;stroke-width:3;" width="104.2666" x="184.125" y="20"/><text fill="#FFFFFF" font-family="sans-serif" font-size="14" lengthAdjust="spacing" textLength="84.2666" x="194.125" y="43.5352">What it adds</text><text fill="#000000" font-family="sans-serif" font-size="14" lengthAdjust="spacing" textLength="238.417" x="341.3916" y="25.0469">notebook: runCommand (full code)</text><path d="M288.3916,38.2441 L298.3916,38.2441 C313.3916,38.2441 313.3916,19.7559 328.3916,19.7559 L338.3916,19.7559" fill="none" style="stroke:#0078D4;stroke-width:3;"/><text fill="#000000" font-family="sans-serif" font-size="14" lengthAdjust="spacing" textLength="130.4297" x="341.3916" y="43.5352">jobs: runCommand</text><path d="M288.3916,38.2441 L298.3916,38.2441 C313.3916,38.2441 313.3916,38.2441 328.3916,38.2441 L338.3916,38.2441" fill="none" style="stroke:#0078D4;stroke-width:3;"/><text fill="#000000" font-family="sans-serif" font-size="14" lengthAdjust="spacing" textLength="213.9785" x="341.3916" y="62.0234">databrickssql: commandSubmit</text><path d="M288.3916,38.2441 L298.3916,38.2441 C313.3916,38.2441 313.3916,56.7324 328.3916,56.7324 L338.3916,56.7324" fill="none" style="stroke:#0078D4;stroke-width:3;"/><path d="M134.125,122.9766 L144.125,122.9766 C159.125,122.9766 159.125,38.2441 174.125,38.2441 L184.125,38.2441" fill="none" style="stroke:#FF5F46;stroke-width:3;"/><rect fill="#0078D4" height="36.4883" rx="12.5" ry="12.5" style="stroke:#0078D4;stroke-width:3;" width="117.248" x="184.125" y="76.4883"/><text fill="#FFFFFF" font-family="sans-serif" font-size="14" lengthAdjust="spacing" textLength="97.248" x="194.125" y="100.0234">How to enable</text><text fill="#000000" font-family="sans-serif" font-size="14" lengthAdjust="spacing" textLength="218.1074" x="354.373" y="81.5352">Admin Settings &#8594; Advanced tab</text><path d="M301.373,94.7324 L311.373,94.7324 C326.373,94.7324 326.373,76.2441 341.373,76.2441 L351.373,76.2441" fill="none" style="stroke:#0078D4;stroke-width:3;"/><text fill="#000000" font-family="sans-serif" font-size="14" lengthAdjust="spacing" textLength="183.4492" x="354.373" y="100.0234">Toggle Verbose Audit Logs</text><path d="M301.373,94.7324 L311.373,94.7324 C326.373,94.7324 326.373,94.7324 341.373,94.7324 L351.373,94.7324" fill="none" style="stroke:#0078D4;stroke-width:3;"/><text fill="#000000" font-family="sans-serif" font-size="14" lengthAdjust="spacing" textLength="255.8691" x="354.373" y="118.5117">Configuration change is itself audited</text><path d="M301.373,94.7324 L311.373,94.7324 C326.373,94.7324 326.373,113.2207 341.373,113.2207 L351.373,113.2207" fill="none" style="stroke:#0078D4;stroke-width:3;"/><path d="M134.125,122.9766 L144.125,122.9766 C159.125,122.9766 159.125,94.7324 174.125,94.7324 L184.125,94.7324" fill="none" style="stroke:#FF5F46;stroke-width:3;"/><rect fill="#0078D4" height="36.4883" rx="12.5" ry="12.5" style="stroke:#0078D4;stroke-width:3;" width="170.2402" x="184.125" y="132.9766"/><text fill="#FFFFFF" font-family="sans-serif" font-size="14" lengthAdjust="spacing" textLength="150.2402" x="194.125" y="156.5117">Security consideration</text><text fill="#000000" font-family="sans-serif" font-size="14" lengthAdjust="spacing" textLength="190.0391" x="407.3652" y="138.0234">Captures full command text</text><path d="M354.3652,151.2207 L364.3652,151.2207 C379.3652,151.2207 379.3652,132.7324 394.3652,132.7324 L404.3652,132.7324" fill="none" style="stroke:#0078D4;stroke-width:3;"/><text fill="#000000" font-family="sans-serif" font-size="14" lengthAdjust="spacing" textLength="267.8115" x="407.3652" y="156.5117">May expose sensitive query parameters</text><path d="M354.3652,151.2207 L364.3652,151.2207 C379.3652,151.2207 379.3652,151.2207 394.3652,151.2207 L404.3652,151.2207" fill="none" style="stroke:#0078D4;stroke-width:3;"/><text fill="#000000" font-family="sans-serif" font-size="14" lengthAdjust="spacing" textLength="285.5986" x="407.3652" y="175">Review security policies for data exposure</text><path d="M354.3652,151.2207 L364.3652,151.2207 C379.3652,151.2207 379.3652,169.709 394.3652,169.709 L404.3652,169.709" fill="none" style="stroke:#0078D4;stroke-width:3;"/><path d="M134.125,122.9766 L144.125,122.9766 C159.125,122.9766 159.125,151.2207 174.125,151.2207 L184.125,151.2207" fill="none" style="stroke:#FF5F46;stroke-width:3;"/><rect fill="#0078D4" height="36.4883" rx="12.5" ry="12.5" style="stroke:#0078D4;stroke-width:3;" width="86.042" x="184.125" y="189.4648"/><text fill="#FFFFFF" font-family="sans-serif" font-size="14" lengthAdjust="spacing" textLength="66.042" x="194.125" y="213">Use cases</text><text fill="#000000" font-family="sans-serif" font-size="14" lengthAdjust="spacing" textLength="192.5547" x="323.167" y="194.5117">Full code execution auditing</text><path d="M270.167,207.709 L280.167,207.709 C295.167,207.709 295.167,189.2207 310.167,189.2207 L320.167,189.2207" fill="none" style="stroke:#0078D4;stroke-width:3;"/><text fill="#000000" font-family="sans-serif" font-size="14" lengthAdjust="spacing" textLength="178.4521" x="323.167" y="213">Compliance investigations</text><path d="M270.167,207.709 L280.167,207.709 C295.167,207.709 295.167,207.709 310.167,207.709 L320.167,207.709" fill="none" style="stroke:#0078D4;stroke-width:3;"/><text fill="#000000" font-family="sans-serif" font-size="14" lengthAdjust="spacing" textLength="178.3291" x="323.167" y="231.4883">Security incident forensics</text><path d="M270.167,207.709 L280.167,207.709 C295.167,207.709 295.167,226.1973 310.167,226.1973 L320.167,226.1973" fill="none" style="stroke:#0078D4;stroke-width:3;"/><path d="M134.125,122.9766 L144.125,122.9766 C159.125,122.9766 159.125,207.709 174.125,207.709 L184.125,207.709" fill="none" style="stroke:#FF5F46;stroke-width:3;"/><?plantuml-src VLFDRjD04BxxAKRYqkOGt50AH1Lg2LWSoeKMk22XjNViB5dFkhlZD575bGVe8_P9cBMTbXg5kNdcc-zdR9y5LfvhGxfMJN8QU6lnRJBNsF3o83s4smIatgbYLNdNabuuwpmyoxANsV59DximXFzsCqSyTCkk7h1NIrEi24E05zCq-RNJEjghbQQlNhy_7ckDkazPHmwohXwrPdkroZ9_awPZhL7tlrffLwALkusDcDkzYDFdmxady85KRX6-eizTmEzqtch3SE6ga4mcy6sf6EHPQHsV9p-076Fkt6eElgM5gsj56WxArbeedCR37lNJvU5lHD_LYbNk9K88rtOk-6vssUQruQZsqTq0Ey3EKhzohkKBWKjaDbG5kFzz9wsreW8r25aFkd9LzPW1daIGyS9HQQhMApQEe5WggX1Ca5m1RGagmZ5Q59sYzOQtOes2qTYl32oguTPZW25hdvnnm_tyaze2Rffe8A1iiraZNBVejz0ehsfaz8EXpxWsU2EmGQrnrXGcKijRYaVgYKGjcleYZ8KAE2ndkrCBI0YwJ5q4ET0kRzrO4sy4XjOOs5HTZe7W8QIXGZ8IHzdek0Z96PBU_PB9qNIMpawcipy0?></g></svg>