<?plantuml 1.2026.2?><svg xmlns="http://www.w3.org/2000/svg" xmlns:xlink="http://www.w3.org/1999/xlink" contentStyleType="text/css" data-diagram-type="MINDMAP" height="283px" preserveAspectRatio="none" style="width:723px;height:283px;background:#FFFFFF;" version="1.1" viewBox="0 0 723 283" width="723px" zoomAndPan="magnify"><defs/><g><rect fill="#FF5F46" height="52.9766" rx="12.5" ry="12.5" style="stroke:#FF5F46;stroke-width:3;" width="122.4023" x="10" y="114.209"/><text fill="#FFFFFF" font-family="sans-serif" font-size="14" lengthAdjust="spacing" textLength="102.4023" x="20" y="137.7441">Tracked Events</text><text fill="#FFFFFF" font-family="sans-serif" font-size="14" lengthAdjust="spacing" textLength="68.6602" x="20" y="154.2324">&amp; Services</text><rect fill="#0078D4" height="36.4883" rx="12.5" ry="12.5" style="stroke:#0078D4;stroke-width:3;" width="190.6729" x="182.4023" y="37.9766"/><text fill="#FFFFFF" font-family="sans-serif" font-size="14" lengthAdjust="spacing" textLength="170.6729" x="192.4023" y="61.5117">Workspace-level services</text><text fill="#000000" font-family="sans-serif" font-size="14" lengthAdjust="spacing" textLength="262.4385" x="426.0752" y="24.5352">unityCatalog: table CRUD, permissions</text><path d="M373.0752,56.2207 L383.0752,56.2207 C398.0752,56.2207 398.0752,19.2441 413.0752,19.2441 L423.0752,19.2441" fill="none" style="stroke:#0078D4;stroke-width:3;"/><text fill="#000000" font-family="sans-serif" font-size="14" lengthAdjust="spacing" textLength="248.3359" x="426.0752" y="43.0234">notebook: commands, create, delete</text><path d="M373.0752,56.2207 L383.0752,56.2207 C398.0752,56.2207 398.0752,37.7324 413.0752,37.7324 L423.0752,37.7324" fill="none" style="stroke:#0078D4;stroke-width:3;"/><text fill="#000000" font-family="sans-serif" font-size="14" lengthAdjust="spacing" textLength="253.9346" x="426.0752" y="61.5117">clusters: creation, resize, termination</text><path d="M373.0752,56.2207 L383.0752,56.2207 C398.0752,56.2207 398.0752,56.2207 413.0752,56.2207 L423.0752,56.2207" fill="none" style="stroke:#0078D4;stroke-width:3;"/><text fill="#000000" font-family="sans-serif" font-size="14" lengthAdjust="spacing" textLength="190.9551" x="426.0752" y="80">jobs: creation, runs, failures</text><path d="M373.0752,56.2207 L383.0752,56.2207 C398.0752,56.2207 398.0752,74.709 413.0752,74.709 L423.0752,74.709" fill="none" style="stroke:#0078D4;stroke-width:3;"/><text fill="#000000" font-family="sans-serif" font-size="14" lengthAdjust="spacing" textLength="284.9492" x="426.0752" y="98.4883">databrickssql: queries, warehouses, alerts</text><path d="M373.0752,56.2207 L383.0752,56.2207 C398.0752,56.2207 398.0752,93.1973 413.0752,93.1973 L423.0752,93.1973" fill="none" style="stroke:#0078D4;stroke-width:3;"/><path d="M132.4023,140.6973 L142.4023,140.6973 C157.4023,140.6973 157.4023,56.2207 172.4023,56.2207 L182.4023,56.2207" fill="none" style="stroke:#FF5F46;stroke-width:3;"/><rect fill="#0078D4" height="36.4883" rx="12.5" ry="12.5" style="stroke:#0078D4;stroke-width:3;" width="172.749" x="182.4023" y="111.9297"/><text fill="#FFFFFF" font-family="sans-serif" font-size="14" lengthAdjust="spacing" textLength="152.749" x="192.4023" y="135.4648">Account-level services</text><text fill="#000000" font-family="sans-serif" font-size="14" lengthAdjust="spacing" textLength="250.0928" x="408.1514" y="116.9766">Account management: users, groups</text><path d="M355.1514,130.1738 L365.1514,130.1738 C380.1514,130.1738 380.1514,111.6855 395.1514,111.6855 L405.1514,111.6855" fill="none" style="stroke:#0078D4;stroke-width:3;"/><text fill="#000000" font-family="sans-serif" font-size="14" lengthAdjust="spacing" textLength="210.0479" x="408.1514" y="135.4648">Billable usage: reports, metrics</text><path d="M355.1514,130.1738 L365.1514,130.1738 C380.1514,130.1738 380.1514,130.1738 395.1514,130.1738 L405.1514,130.1738" fill="none" style="stroke:#0078D4;stroke-width:3;"/><text fill="#000000" font-family="sans-serif" font-size="14" lengthAdjust="spacing" textLength="276.2266" x="408.1514" y="153.9531">Delta Sharing: provider/recipient actions</text><path d="M355.1514,130.1738 L365.1514,130.1738 C380.1514,130.1738 380.1514,148.6621 395.1514,148.6621 L405.1514,148.6621" fill="none" style="stroke:#0078D4;stroke-width:3;"/><path d="M132.4023,140.6973 L142.4023,140.6973 C157.4023,140.6973 157.4023,130.1738 172.4023,130.1738 L182.4023,130.1738" fill="none" style="stroke:#FF5F46;stroke-width:3;"/><rect fill="#0078D4" height="36.4883" rx="12.5" ry="12.5" style="stroke:#0078D4;stroke-width:3;" width="125.9707" x="182.4023" y="168.418"/><text fill="#FFFFFF" font-family="sans-serif" font-size="14" lengthAdjust="spacing" textLength="105.9707" x="192.4023" y="191.9531">Event examples</text><text fill="#000000" font-family="sans-serif" font-size="14" lengthAdjust="spacing" textLength="234.1719" x="361.373" y="173.4648">getTable, createTable, deleteTable</text><path d="M308.373,186.6621 L318.373,186.6621 C333.373,186.6621 333.373,168.1738 348.373,168.1738 L358.373,168.1738" fill="none" style="stroke:#0078D4;stroke-width:3;"/><text fill="#000000" font-family="sans-serif" font-size="14" lengthAdjust="spacing" textLength="216.1592" x="361.373" y="191.9531">runCommand, commandSubmit</text><path d="M308.373,186.6621 L318.373,186.6621 C333.373,186.6621 333.373,186.6621 348.373,186.6621 L358.373,186.6621" fill="none" style="stroke:#0078D4;stroke-width:3;"/><text fill="#000000" font-family="sans-serif" font-size="14" lengthAdjust="spacing" textLength="128.208" x="361.373" y="210.4414">updatePermissions</text><path d="M308.373,186.6621 L318.373,186.6621 C333.373,186.6621 333.373,205.1504 348.373,205.1504 L358.373,205.1504" fill="none" style="stroke:#0078D4;stroke-width:3;"/><path d="M132.4023,140.6973 L142.4023,140.6973 C157.4023,140.6973 157.4023,186.6621 172.4023,186.6621 L182.4023,186.6621" fill="none" style="stroke:#FF5F46;stroke-width:3;"/><rect fill="#0078D4" height="36.4883" rx="12.5" ry="12.5" style="stroke:#0078D4;stroke-width:3;" width="86.7871" x="182.4023" y="224.9063"/><text fill="#FFFFFF" font-family="sans-serif" font-size="14" lengthAdjust="spacing" textLength="66.7871" x="192.4023" y="248.4414">Reference</text><text fill="#000000" font-family="sans-serif" font-size="14" lengthAdjust="spacing" textLength="219.085" x="322.1895" y="248.4414">Diagnostic log reference in docs</text><path d="M269.1895,243.1504 L279.1895,243.1504 C294.1895,243.1504 294.1895,243.1504 309.1895,243.1504 L319.1895,243.1504" fill="none" style="stroke:#0078D4;stroke-width:3;"/><path d="M132.4023,140.6973 L142.4023,140.6973 C157.4023,140.6973 157.4023,243.1504 172.4023,243.1504 L182.4023,243.1504" fill="none" style="stroke:#FF5F46;stroke-width:3;"/><?plantuml-src VLF1RjD04BtxAqP2GX2Pr0rj0Qj2fGavSK1D41Saj5vFaYNhNNTs75eg_hrZUqsLGDYJT-RvlJTlj5U15N5bN5cfEhaCV6_nVPANMFFcHVOI7XAGSwtqTas-SUNKMq_mR3u_dvzTTBrFnk7VrRbt7Akhxlp1BZT6Rns60A_7MV9xq3ezgfLbRzxEpWwr3ghxh0SEvjrvqfeSrLgjYdTPTgXrKFslLjOTqIhydMqn3qSHboSnxX4iIPnW2Hztw3XySyzXWRGp6aCo6i5NJzjGAuslBExGGdZgZRv3umpVJnKhwzSvi2eimlJcooo56gao8HZl8jHvniBxRGxQLvLoPKX14oh654gqoDZZj6q28uMyxmf12eJ1_18SjwIkA_RW7xxO1pPEQ5VAs8O6ZwNOAqXY2-7Mvd3R81aKr4z5kF5DQB-LHU9ktWzQoqxudzF67eXxjSPAuif1_YSXQ3TPHzYriRPBeWa2oyLzxOKzXGfPV4JK32qhM6mK6IVPrUHtfaGw8TIcDi8DIdEChzyDu9sgQZkuMIClMvaXndZfi-mkFKuocVQ9fqFqYwQe3CSLrX8GVjvR5zpW2WcTZXGpezRE1pOQPD4oKEo2SL1wcUWAvH77XvoSZYVPv68yUGG0?></g></svg>