<?plantuml 1.2026.2?><svg xmlns="http://www.w3.org/2000/svg" xmlns:xlink="http://www.w3.org/1999/xlink" contentStyleType="text/css" data-diagram-type="MINDMAP" height="247px" preserveAspectRatio="none" style="width:705px;height:247px;background:#FFFFFF;" version="1.1" viewBox="0 0 705 247" width="705px" zoomAndPan="magnify"><defs/><g><rect fill="#FF5F46" height="52.9766" rx="12.5" ry="12.5" style="stroke:#FF5F46;stroke-width:3;" width="174.4922" x="10" y="96.4883"/><text fill="#FFFFFF" font-family="sans-serif" font-size="14" lengthAdjust="spacing" textLength="117.6396" x="20" y="120.0234">Query Audit Logs</text><text fill="#FFFFFF" font-family="sans-serif" font-size="14" lengthAdjust="spacing" textLength="154.4922" x="20" y="136.5117">for Common Scenarios</text><rect fill="#0078D4" height="36.4883" rx="12.5" ry="12.5" style="stroke:#0078D4;stroke-width:3;" width="164.6689" x="234.4922" y="20"/><text fill="#FFFFFF" font-family="sans-serif" font-size="14" lengthAdjust="spacing" textLength="144.6689" x="244.4922" y="43.5352">Who accessed a table</text><text fill="#000000" font-family="sans-serif" font-size="14" lengthAdjust="spacing" textLength="154.7588" x="452.1611" y="25.0469">Filter by full_name_arg</text><path d="M399.1611,38.2441 L409.1611,38.2441 C424.1611,38.2441 424.1611,19.7559 439.1611,19.7559 L449.1611,19.7559" fill="none" style="stroke:#0078D4;stroke-width:3;"/><text fill="#000000" font-family="sans-serif" font-size="14" lengthAdjust="spacing" textLength="241.1992" x="452.1611" y="43.5352">action_name: getTable, createTable</text><path d="M399.1611,38.2441 L409.1611,38.2441 C424.1611,38.2441 424.1611,38.2441 439.1611,38.2441 L449.1611,38.2441" fill="none" style="stroke:#0078D4;stroke-width:3;"/><text fill="#000000" font-family="sans-serif" font-size="14" lengthAdjust="spacing" textLength="112.7109" x="452.1611" y="62.0234">Last 7 days filter</text><path d="M399.1611,38.2441 L409.1611,38.2441 C424.1611,38.2441 424.1611,56.7324 439.1611,56.7324 L449.1611,56.7324" fill="none" style="stroke:#0078D4;stroke-width:3;"/><path d="M184.4922,122.9766 L194.4922,122.9766 C209.4922,122.9766 209.4922,38.2441 224.4922,38.2441 L234.4922,38.2441" fill="none" style="stroke:#FF5F46;stroke-width:3;"/><rect fill="#0078D4" height="36.4883" rx="12.5" ry="12.5" style="stroke:#0078D4;stroke-width:3;" width="154.3672" x="234.4922" y="76.4883"/><text fill="#FFFFFF" font-family="sans-serif" font-size="14" lengthAdjust="spacing" textLength="134.3672" x="244.4922" y="100.0234">Permission changes</text><text fill="#000000" font-family="sans-serif" font-size="14" lengthAdjust="spacing" textLength="203.3555" x="441.8594" y="81.5352">service_name = 'unityCatalog'</text><path d="M388.8594,94.7324 L398.8594,94.7324 C413.8594,94.7324 413.8594,76.2441 428.8594,76.2441 L438.8594,76.2441" fill="none" style="stroke:#0078D4;stroke-width:3;"/><text fill="#000000" font-family="sans-serif" font-size="14" lengthAdjust="spacing" textLength="240.3721" x="441.8594" y="100.0234">action_name = 'updatePermissions'</text><path d="M388.8594,94.7324 L398.8594,94.7324 C413.8594,94.7324 413.8594,94.7324 428.8594,94.7324 L438.8594,94.7324" fill="none" style="stroke:#0078D4;stroke-width:3;"/><text fill="#000000" font-family="sans-serif" font-size="14" lengthAdjust="spacing" textLength="222.7354" x="441.8594" y="118.5117">Show securable + changes made</text><path d="M388.8594,94.7324 L398.8594,94.7324 C413.8594,94.7324 413.8594,113.2207 428.8594,113.2207 L438.8594,113.2207" fill="none" style="stroke:#0078D4;stroke-width:3;"/><path d="M184.4922,122.9766 L194.4922,122.9766 C209.4922,122.9766 209.4922,94.7324 224.4922,94.7324 L234.4922,94.7324" fill="none" style="stroke:#FF5F46;stroke-width:3;"/><rect fill="#0078D4" height="36.4883" rx="12.5" ry="12.5" style="stroke:#0078D4;stroke-width:3;" width="163.1719" x="234.4922" y="132.9766"/><text fill="#FFFFFF" font-family="sans-serif" font-size="14" lengthAdjust="spacing" textLength="143.1719" x="244.4922" y="156.5117">Failed login attempts</text><text fill="#000000" font-family="sans-serif" font-size="14" lengthAdjust="spacing" textLength="178.042" x="450.6641" y="138.0234">service_name = 'accounts'</text><path d="M397.6641,151.2207 L407.6641,151.2207 C422.6641,151.2207 422.6641,132.7324 437.6641,132.7324 L447.6641,132.7324" fill="none" style="stroke:#0078D4;stroke-width:3;"/><text fill="#000000" font-family="sans-serif" font-size="14" lengthAdjust="spacing" textLength="197.6543" x="450.6641" y="156.5117">response.status_code != 200</text><path d="M397.6641,151.2207 L407.6641,151.2207 C422.6641,151.2207 422.6641,151.2207 437.6641,151.2207 L447.6641,151.2207" fill="none" style="stroke:#0078D4;stroke-width:3;"/><text fill="#000000" font-family="sans-serif" font-size="14" lengthAdjust="spacing" textLength="240.707" x="450.6641" y="175">source_ip_address for investigation</text><path d="M397.6641,151.2207 L407.6641,151.2207 C422.6641,151.2207 422.6641,169.709 437.6641,169.709 L447.6641,169.709" fill="none" style="stroke:#0078D4;stroke-width:3;"/><path d="M184.4922,122.9766 L194.4922,122.9766 C209.4922,122.9766 209.4922,151.2207 224.4922,151.2207 L234.4922,151.2207" fill="none" style="stroke:#FF5F46;stroke-width:3;"/><rect fill="#0078D4" height="36.4883" rx="12.5" ry="12.5" style="stroke:#0078D4;stroke-width:3;" width="121.1514" x="234.4922" y="189.4648"/><text fill="#FFFFFF" font-family="sans-serif" font-size="14" lengthAdjust="spacing" textLength="101.1514" x="244.4922" y="213">Extend queries</text><text fill="#000000" font-family="sans-serif" font-size="14" lengthAdjust="spacing" textLength="188.4668" x="408.6436" y="203.7559">Create alerts or dashboards</text><path d="M355.6436,207.709 L365.6436,207.709 C380.6436,207.709 380.6436,198.4648 395.6436,198.4648 L405.6436,198.4648" fill="none" style="stroke:#0078D4;stroke-width:3;"/><text fill="#000000" font-family="sans-serif" font-size="14" lengthAdjust="spacing" textLength="168.4033" x="408.6436" y="222.2441">Export to SIEM platforms</text><path d="M355.6436,207.709 L365.6436,207.709 C380.6436,207.709 380.6436,216.9531 395.6436,216.9531 L405.6436,216.9531" fill="none" style="stroke:#0078D4;stroke-width:3;"/><path d="M184.4922,122.9766 L194.4922,122.9766 C209.4922,122.9766 209.4922,207.709 224.4922,207.709 L234.4922,207.709" fill="none" style="stroke:#FF5F46;stroke-width:3;"/><?plantuml-src VPD1RzD048Nl_XM3E1G22gufBLGjAeHOGaebK29nGRB6ksDxrVMksHsNM1N_lMid9i9LcEFupVkUP-mRp-YuLaRMs4HNdZjD7wDBIGrNB-ANy111gCyexafdMoCNLbi7pzFqNNfsFZnRAKDFkwarlEyMG_tLRYebxWnv3s_dSVHdP9qUPSNnnVilPrFMfFklwoH1EjI1bHnb5KN-8Owdh4dtlwnugC3AxLRtceUZYgit-tNFu7jBheDFhLGCArlwdwO8qeMjQsjWBSYWKzP7indyg2oW4C6P920mvff2VvP1gZIJWxo3ejKwCrXJXgxSFKJ1ofgXUGabyQQVUmt24J9j3YOhz0mN8B7pK0o6FVGRkLfv7nn0L6XAyZkr9tUl10ssS0qdhL7SBP1Hs_Ba2NXGD3803tv-BrjNzdUm4wthiy2haGCroZuQfAXqUEDWh0mWCzKD7qaHrXDEogEr8zy44Ct3fywjpuIL1C-k8Gb7sCtRreLnrMGefUjlrYzVcNloh4hiy_S9bbic8-5NE9KQ5x0OzWUeoR67C2NHLxb59_U2vRQnZe4jhBykRw7HoC6yzj5Dy1f_k-XqdiJ9-Jnv1000?></g></svg>