<?plantuml 1.2026.2?><svg xmlns="http://www.w3.org/2000/svg" xmlns:xlink="http://www.w3.org/1999/xlink" contentStyleType="text/css" data-diagram-type="MINDMAP" height="292px" preserveAspectRatio="none" style="width:578px;height:292px;background:#FFFFFF;" version="1.1" viewBox="0 0 578 292" width="578px" zoomAndPan="magnify"><defs/><g><rect fill="#FF5F46" height="52.9766" rx="12.5" ry="12.5" style="stroke:#FF5F46;stroke-width:3;" width="109.7695" x="10" y="118.5752"/><text fill="#FFFFFF" font-family="sans-serif" font-size="14" lengthAdjust="spacing" textLength="65.666" x="20" y="142.1104">Audit Log</text><text fill="#FFFFFF" font-family="sans-serif" font-size="14" lengthAdjust="spacing" textLength="89.7695" x="20" y="158.5986">System Table</text><rect fill="#0078D4" height="36.4883" rx="12.5" ry="12.5" style="stroke:#0078D4;stroke-width:3;" width="77.5381" x="169.7695" y="20"/><text fill="#FFFFFF" font-family="sans-serif" font-size="14" lengthAdjust="spacing" textLength="57.5381" x="179.7695" y="43.5352">Location</text><text fill="#000000" font-family="sans-serif" font-size="14" lengthAdjust="spacing" textLength="135.2148" x="300.3076" y="25.0469">system.access.audit</text><path d="M247.3076,38.2441 L257.3076,38.2441 C272.3076,38.2441 272.3076,19.7559 287.3076,19.7559 L297.3076,19.7559" fill="none" style="stroke:#0078D4;stroke-width:3;"/><text fill="#000000" font-family="sans-serif" font-size="14" lengthAdjust="spacing" textLength="186.4092" x="300.3076" y="43.5352">Configured at account level</text><path d="M247.3076,38.2441 L257.3076,38.2441 C272.3076,38.2441 272.3076,38.2441 287.3076,38.2441 L297.3076,38.2441" fill="none" style="stroke:#0078D4;stroke-width:3;"/><text fill="#000000" font-family="sans-serif" font-size="14" lengthAdjust="spacing" textLength="172.3477" x="300.3076" y="62.0234">Applies to all workspaces</text><path d="M247.3076,38.2441 L257.3076,38.2441 C272.3076,38.2441 272.3076,56.7324 287.3076,56.7324 L297.3076,56.7324" fill="none" style="stroke:#0078D4;stroke-width:3;"/><path d="M119.7695,145.0635 L129.7695,145.0635 C144.7695,145.0635 144.7695,38.2441 159.7695,38.2441 L169.7695,38.2441" fill="none" style="stroke:#FF5F46;stroke-width:3;"/><rect fill="#0078D4" height="36.4883" rx="12.5" ry="12.5" style="stroke:#0078D4;stroke-width:3;" width="106.085" x="169.7695" y="103.1973"/><text fill="#FFFFFF" font-family="sans-serif" font-size="14" lengthAdjust="spacing" textLength="86.085" x="179.7695" y="126.7324">Key columns</text><text fill="#000000" font-family="sans-serif" font-size="14" lengthAdjust="spacing" textLength="156.1328" x="328.8545" y="80.5117">event_time, event_date</text><path d="M275.8545,121.4414 L285.8545,121.4414 C300.8545,121.4414 300.8545,75.2207 315.8545,75.2207 L325.8545,75.2207" fill="none" style="stroke:#0078D4;stroke-width:3;"/><text fill="#000000" font-family="sans-serif" font-size="14" lengthAdjust="spacing" textLength="137.7646" x="328.8545" y="99">user_identity (email)</text><path d="M275.8545,121.4414 L285.8545,121.4414 C300.8545,121.4414 300.8545,93.709 315.8545,93.709 L325.8545,93.709" fill="none" style="stroke:#0078D4;stroke-width:3;"/><text fill="#000000" font-family="sans-serif" font-size="14" lengthAdjust="spacing" textLength="226.5088" x="328.8545" y="117.4883">workspace_id (0 = account-level)</text><path d="M275.8545,121.4414 L285.8545,121.4414 C300.8545,121.4414 300.8545,112.1973 315.8545,112.1973 L325.8545,112.1973" fill="none" style="stroke:#0078D4;stroke-width:3;"/><text fill="#000000" font-family="sans-serif" font-size="14" lengthAdjust="spacing" textLength="185.8418" x="328.8545" y="135.9766">service_name, action_name</text><path d="M275.8545,121.4414 L285.8545,121.4414 C300.8545,121.4414 300.8545,130.6855 315.8545,130.6855 L325.8545,130.6855" fill="none" style="stroke:#0078D4;stroke-width:3;"/><text fill="#000000" font-family="sans-serif" font-size="14" lengthAdjust="spacing" textLength="178.9717" x="328.8545" y="154.4648">request_params, response</text><path d="M275.8545,121.4414 L285.8545,121.4414 C300.8545,121.4414 300.8545,149.1738 315.8545,149.1738 L325.8545,149.1738" fill="none" style="stroke:#0078D4;stroke-width:3;"/><text fill="#000000" font-family="sans-serif" font-size="14" lengthAdjust="spacing" textLength="125.1387" x="328.8545" y="172.9531">source_ip_address</text><path d="M275.8545,121.4414 L285.8545,121.4414 C300.8545,121.4414 300.8545,167.6621 315.8545,167.6621 L325.8545,167.6621" fill="none" style="stroke:#0078D4;stroke-width:3;"/><path d="M119.7695,145.0635 L129.7695,145.0635 C144.7695,145.0635 144.7695,121.4414 159.7695,121.4414 L169.7695,121.4414" fill="none" style="stroke:#FF5F46;stroke-width:3;"/><rect fill="#0078D4" height="36.4883" rx="12.5" ry="12.5" style="stroke:#0078D4;stroke-width:3;" width="84.9482" x="169.7695" y="177.1504"/><text fill="#FFFFFF" font-family="sans-serif" font-size="14" lengthAdjust="spacing" textLength="64.9482" x="179.7695" y="200.6855">Retention</text><text fill="#000000" font-family="sans-serif" font-size="14" lengthAdjust="spacing" textLength="83.0635" x="307.7178" y="191.4414">Up to 1 year</text><path d="M254.7178,195.3945 L264.7178,195.3945 C279.7178,195.3945 279.7178,186.1504 294.7178,186.1504 L304.7178,186.1504" fill="none" style="stroke:#0078D4;stroke-width:3;"/><text fill="#000000" font-family="sans-serif" font-size="14" lengthAdjust="spacing" textLength="255.2471" x="307.7178" y="209.9297">Plan external retention beyond 1 year</text><path d="M254.7178,195.3945 L264.7178,195.3945 C279.7178,195.3945 279.7178,204.6387 294.7178,204.6387 L304.7178,204.6387" fill="none" style="stroke:#0078D4;stroke-width:3;"/><path d="M119.7695,145.0635 L129.7695,145.0635 C144.7695,145.0635 144.7695,195.3945 159.7695,195.3945 L169.7695,195.3945" fill="none" style="stroke:#FF5F46;stroke-width:3;"/><rect fill="#0078D4" height="36.4883" rx="12.5" ry="12.5" style="stroke:#0078D4;stroke-width:3;" width="97.6016" x="169.7695" y="233.6387"/><text fill="#FFFFFF" font-family="sans-serif" font-size="14" lengthAdjust="spacing" textLength="77.6016" x="179.7695" y="257.1738">Centralized</text><text fill="#000000" font-family="sans-serif" font-size="14" lengthAdjust="spacing" textLength="206.582" x="320.3711" y="247.9297">Single table for all workspaces</text><path d="M267.3711,251.8828 L277.3711,251.8828 C292.3711,251.8828 292.3711,242.6387 307.3711,242.6387 L317.3711,242.6387" fill="none" style="stroke:#0078D4;stroke-width:3;"/><text fill="#000000" font-family="sans-serif" font-size="14" lengthAdjust="spacing" textLength="246.0596" x="320.3711" y="266.418">Simplifies compliance investigations</text><path d="M267.3711,251.8828 L277.3711,251.8828 C292.3711,251.8828 292.3711,261.127 307.3711,261.127 L317.3711,261.127" fill="none" style="stroke:#0078D4;stroke-width:3;"/><path d="M119.7695,145.0635 L129.7695,145.0635 C144.7695,145.0635 144.7695,251.8828 159.7695,251.8828 L169.7695,251.8828" fill="none" style="stroke:#FF5F46;stroke-width:3;"/><?plantuml-src VLF1Jjmm4BtdAqRgPLdHaDrIQ2j0qAroAOUgmArID1jFWhME7MndIq3zzuwTBAX1spdPyzwyDpEMBvr7wnkfHODjSkPyh-WY-IAezVUpx02U4-3uYkMcjgRJOcMKiV0kpp_cnoSHkvQQtcPpe_sOhMAyS6_lPRdHv1nyIBFapyvhiTShoqu_VJkUUaso_wfEEiXZl7ejztfLrVfpbasz9jd_UcKns6jj7bNWFEzbd1sDwvx3LIUaXsjJ_z8tlVFKm2sk5INpEITBzD9eFiyBS15DiInPEyLGDW0heojPTvO4e0V6UIeFYhQa1i9Lsof93hm1L0f-6xjnBR9CCFbEFPH6TOrs0vlhj2-yREXmF0lqD62T8rj8mKdfUvXHWr8T3D2BAkCmo-1yrydxsCd8ulgjP8x688zb62zU1jZIGqVE5orQRDmXtrrhj1jHPpeRzDi2XM0ezl-JV6XdjwMxDeovW9xG3faV2ZNGeoUhKR7YI8SrzKQBLogi6B2ev1E9eV96wbeH-F0UKF43ljbU93MytIhijpJXYBeaa7hBSyWwlfzBBeb_sVZJaaMwp9OdwV8l?></g></svg>