<?plantuml 1.2026.2?><svg xmlns="http://www.w3.org/2000/svg" xmlns:xlink="http://www.w3.org/1999/xlink" contentStyleType="text/css" data-diagram-type="MINDMAP" height="300px" preserveAspectRatio="none" style="width:750px;height:300px;background:#FFFFFF;" version="1.1" viewBox="0 0 750 300" width="750px" zoomAndPan="magnify"><defs/><g><rect fill="#FF5F46" height="52.9766" rx="12.5" ry="12.5" style="stroke:#FF5F46;stroke-width:3;" width="136.6484" x="10" y="122.6855"/><text fill="#FFFFFF" font-family="sans-serif" font-size="14" lengthAdjust="spacing" textLength="116.6484" x="20" y="146.2207">Choose the Right</text><text fill="#FFFFFF" font-family="sans-serif" font-size="14" lengthAdjust="spacing" textLength="111.3027" x="20" y="162.709">Sharing Protocol</text><rect fill="#0078D4" height="36.4883" rx="12.5" ry="12.5" style="stroke:#0078D4;stroke-width:3;" width="194.5625" x="196.6484" y="28.7324"/><text fill="#FFFFFF" font-family="sans-serif" font-size="14" lengthAdjust="spacing" textLength="174.5625" x="206.6484" y="52.2676">Databricks-to-Databricks</text><text fill="#000000" font-family="sans-serif" font-size="14" lengthAdjust="spacing" textLength="252.4238" x="444.2109" y="24.5352">Recipient has UC-enabled workspace</text><path d="M391.2109,46.9766 L401.2109,46.9766 C416.2109,46.9766 416.2109,19.2441 431.2109,19.2441 L441.2109,19.2441" fill="none" style="stroke:#0078D4;stroke-width:3;"/><text fill="#000000" font-family="sans-serif" font-size="14" lengthAdjust="spacing" textLength="229.9814" x="444.2109" y="43.0234">Platform-managed authentication</text><path d="M391.2109,46.9766 L401.2109,46.9766 C416.2109,46.9766 416.2109,37.7324 431.2109,37.7324 L441.2109,37.7324" fill="none" style="stroke:#0078D4;stroke-width:3;"/><text fill="#000000" font-family="sans-serif" font-size="14" lengthAdjust="spacing" textLength="181.9043" x="444.2109" y="61.5117">Share via sharing identifier</text><path d="M391.2109,46.9766 L401.2109,46.9766 C416.2109,46.9766 416.2109,56.2207 431.2109,56.2207 L441.2109,56.2207" fill="none" style="stroke:#0078D4;stroke-width:3;"/><text fill="#000000" font-family="sans-serif" font-size="14" lengthAdjust="spacing" textLength="294.54" x="444.2109" y="80">Tables, views, volumes, notebooks, models</text><path d="M391.2109,46.9766 L401.2109,46.9766 C416.2109,46.9766 416.2109,74.709 431.2109,74.709 L441.2109,74.709" fill="none" style="stroke:#0078D4;stroke-width:3;"/><path d="M146.6484,149.1738 L156.6484,149.1738 C171.6484,149.1738 171.6484,46.9766 186.6484,46.9766 L196.6484,46.9766" fill="none" style="stroke:#FF5F46;stroke-width:3;"/><rect fill="#0078D4" height="36.4883" rx="12.5" ry="12.5" style="stroke:#0078D4;stroke-width:3;" width="111.3555" x="196.6484" y="102.6855"/><text fill="#FFFFFF" font-family="sans-serif" font-size="14" lengthAdjust="spacing" textLength="91.3555" x="206.6484" y="126.2207">Open sharing</text><text fill="#000000" font-family="sans-serif" font-size="14" lengthAdjust="spacing" textLength="208.3389" x="361.0039" y="98.4883">Any platform (non-Databricks)</text><path d="M308.0039,120.9297 L318.0039,120.9297 C333.0039,120.9297 333.0039,93.1973 348.0039,93.1973 L358.0039,93.1973" fill="none" style="stroke:#0078D4;stroke-width:3;"/><text fill="#000000" font-family="sans-serif" font-size="14" lengthAdjust="spacing" textLength="151.1836" x="361.0039" y="116.9766">Bearer tokens or OIDC</text><path d="M308.0039,120.9297 L318.0039,120.9297 C333.0039,120.9297 333.0039,111.6855 348.0039,111.6855 L358.0039,111.6855" fill="none" style="stroke:#0078D4;stroke-width:3;"/><text fill="#000000" font-family="sans-serif" font-size="14" lengthAdjust="spacing" textLength="243.8311" x="361.0039" y="135.4648">Manual token lifecycle management</text><path d="M308.0039,120.9297 L318.0039,120.9297 C333.0039,120.9297 333.0039,130.1738 348.0039,130.1738 L358.0039,130.1738" fill="none" style="stroke:#0078D4;stroke-width:3;"/><text fill="#000000" font-family="sans-serif" font-size="14" lengthAdjust="spacing" textLength="77.458" x="361.0039" y="153.9531">Tables only</text><path d="M308.0039,120.9297 L318.0039,120.9297 C333.0039,120.9297 333.0039,148.6621 348.0039,148.6621 L358.0039,148.6621" fill="none" style="stroke:#0078D4;stroke-width:3;"/><path d="M146.6484,149.1738 L156.6484,149.1738 C171.6484,149.1738 171.6484,120.9297 186.6484,120.9297 L196.6484,120.9297" fill="none" style="stroke:#FF5F46;stroke-width:3;"/><rect fill="#0078D4" height="36.4883" rx="12.5" ry="12.5" style="stroke:#0078D4;stroke-width:3;" width="129.1563" x="196.6484" y="176.6387"/><text fill="#FFFFFF" font-family="sans-serif" font-size="14" lengthAdjust="spacing" textLength="109.1563" x="206.6484" y="200.1738">Decision factors</text><text fill="#000000" font-family="sans-serif" font-size="14" lengthAdjust="spacing" textLength="158.8467" x="378.8047" y="172.4414">Recipient platform type</text><path d="M325.8047,194.8828 L335.8047,194.8828 C350.8047,194.8828 350.8047,167.1504 365.8047,167.1504 L375.8047,167.1504" fill="none" style="stroke:#0078D4;stroke-width:3;"/><text fill="#000000" font-family="sans-serif" font-size="14" lengthAdjust="spacing" textLength="204.4766" x="378.8047" y="190.9297">Token management capability</text><path d="M325.8047,194.8828 L335.8047,194.8828 C350.8047,194.8828 350.8047,185.6387 365.8047,185.6387 L375.8047,185.6387" fill="none" style="stroke:#0078D4;stroke-width:3;"/><text fill="#000000" font-family="sans-serif" font-size="14" lengthAdjust="spacing" textLength="137.4775" x="378.8047" y="209.418">Asset types to share</text><path d="M325.8047,194.8828 L335.8047,194.8828 C350.8047,194.8828 350.8047,204.127 365.8047,204.127 L375.8047,204.127" fill="none" style="stroke:#0078D4;stroke-width:3;"/><text fill="#000000" font-family="sans-serif" font-size="14" lengthAdjust="spacing" textLength="180.168" x="378.8047" y="227.9063">Performance requirements</text><path d="M325.8047,194.8828 L335.8047,194.8828 C350.8047,194.8828 350.8047,222.6152 365.8047,222.6152 L375.8047,222.6152" fill="none" style="stroke:#0078D4;stroke-width:3;"/><path d="M146.6484,149.1738 L156.6484,149.1738 C171.6484,149.1738 171.6484,194.8828 186.6484,194.8828 L196.6484,194.8828" fill="none" style="stroke:#FF5F46;stroke-width:3;"/><rect fill="#0078D4" height="36.4883" rx="12.5" ry="12.5" style="stroke:#0078D4;stroke-width:3;" width="132.1982" x="196.6484" y="241.8594"/><text fill="#FFFFFF" font-family="sans-serif" font-size="14" lengthAdjust="spacing" textLength="112.1982" x="206.6484" y="265.3945">Mixed recipients</text><text fill="#000000" font-family="sans-serif" font-size="14" lengthAdjust="spacing" textLength="221.3613" x="381.8467" y="256.1504">Create multiple recipient objects</text><path d="M328.8467,260.1035 L338.8467,260.1035 C353.8467,260.1035 353.8467,250.8594 368.8467,250.8594 L378.8467,250.8594" fill="none" style="stroke:#0078D4;stroke-width:3;"/><text fill="#000000" font-family="sans-serif" font-size="14" lengthAdjust="spacing" textLength="156.3721" x="381.8467" y="274.6387">One per access pattern</text><path d="M328.8467,260.1035 L338.8467,260.1035 C353.8467,260.1035 353.8467,269.3477 368.8467,269.3477 L378.8467,269.3477" fill="none" style="stroke:#0078D4;stroke-width:3;"/><path d="M146.6484,149.1738 L156.6484,149.1738 C171.6484,149.1738 171.6484,260.1035 186.6484,260.1035 L196.6484,260.1035" fill="none" style="stroke:#FF5F46;stroke-width:3;"/><?plantuml-src VLDTRzD047pthrY9bpOYmGsbVAX2fOaY8L6bAk4D2QtFw_Z8UTVSRMYjYl_E-IDDILNsnRxTkPdPaNqH5BrMblCAw-GyQEFeO_8XfrhBe_GOxXE8TObci_QovNmcJZoyM2pUB4xFkjaNo_Iqkn3MeLjqzO1TbTPic4A0rvCq-RFJEdbMAqtVlfkV7ceTTFzbFN2mw6glDNrMgoYozsbwg7NG_QzMsbNKokJEjPZxPn7dhuQuHp0hHGA1bWGtTbtgT_vQehUyXcilAaPSCXh171Kp7yN3M6MyFyNPw0VSaB6r9LOeCS2tsPWOCqSvt8hVX1eDzRXhXrg8hyOLCgxZ7BTHbzKQL2lSWrfvWjyM8Gn6RDvY2ak-HwnQyl0oOkYsVOZRLksPHIaJsSJNId9ohJjOriGxflxw9swW7fp04Gi_skUuXrnIzE11PKCS84Qt_3oVzQChv2swVWJE5cGQumZwZQfezB5747PDbrzCACGLeK2Zuf_azk17cte8QzKfx7d1O8sPTLQROOyGIBiB8ThfTjpbJBubGpO4ddvjhUyOkZokx5qCtk-K1oSpJwXnYwrJMplQpq6odsHsi2KJr34ODARzm6fK9S_91SMVUFYHavF9D9sUJQP_0G00?></g></svg>