<?plantuml 1.2026.2?><svg xmlns="http://www.w3.org/2000/svg" xmlns:xlink="http://www.w3.org/1999/xlink" contentStyleType="text/css" data-diagram-type="MINDMAP" height="304px" preserveAspectRatio="none" style="width:675px;height:304px;background:#FFFFFF;" version="1.1" viewBox="0 0 675 304" width="675px" zoomAndPan="magnify"><defs/><g><rect fill="#FF5F46" height="52.9766" rx="12.5" ry="12.5" style="stroke:#FF5F46;stroke-width:3;" width="136.1699" x="10" y="124.7324"/><text fill="#FFFFFF" font-family="sans-serif" font-size="14" lengthAdjust="spacing" textLength="116.1699" x="20" y="148.2676">Configure Shares</text><text fill="#FFFFFF" font-family="sans-serif" font-size="14" lengthAdjust="spacing" textLength="83.7813" x="20" y="164.7559">&amp; Recipients</text><rect fill="#0078D4" height="36.4883" rx="12.5" ry="12.5" style="stroke:#0078D4;stroke-width:3;" width="120.584" x="196.1699" y="20"/><text fill="#FFFFFF" font-family="sans-serif" font-size="14" lengthAdjust="spacing" textLength="100.584" x="206.1699" y="43.5352">CREATE SHARE</text><text fill="#000000" font-family="sans-serif" font-size="14" lengthAdjust="spacing" textLength="190.7705" x="369.7539" y="25.0469">Container of assets to share</text><path d="M316.7539,38.2441 L326.7539,38.2441 C341.7539,38.2441 341.7539,19.7559 356.7539,19.7559 L366.7539,19.7559" fill="none" style="stroke:#0078D4;stroke-width:3;"/><text fill="#000000" font-family="sans-serif" font-size="14" lengthAdjust="spacing" textLength="236.2158" x="369.7539" y="43.5352">Tables, views, volumes, notebooks</text><path d="M316.7539,38.2441 L326.7539,38.2441 C341.7539,38.2441 341.7539,38.2441 356.7539,38.2441 L366.7539,38.2441" fill="none" style="stroke:#0078D4;stroke-width:3;"/><text fill="#000000" font-family="sans-serif" font-size="14" lengthAdjust="spacing" textLength="293.8564" x="369.7539" y="62.0234">ALTER SHARE ADD TABLE / VIEW / SCHEMA</text><path d="M316.7539,38.2441 L326.7539,38.2441 C341.7539,38.2441 341.7539,56.7324 356.7539,56.7324 L366.7539,56.7324" fill="none" style="stroke:#0078D4;stroke-width:3;"/><path d="M146.1699,151.2207 L156.1699,151.2207 C171.1699,151.2207 171.1699,38.2441 186.1699,38.2441 L196.1699,38.2441" fill="none" style="stroke:#FF5F46;stroke-width:3;"/><rect fill="#0078D4" height="36.4883" rx="12.5" ry="12.5" style="stroke:#0078D4;stroke-width:3;" width="115.3545" x="196.1699" y="76.4883"/><text fill="#FFFFFF" font-family="sans-serif" font-size="14" lengthAdjust="spacing" textLength="95.3545" x="206.1699" y="100.0234">Adding assets</text><text fill="#000000" font-family="sans-serif" font-size="14" lengthAdjust="spacing" textLength="199.4521" x="364.5244" y="81.5352">WITH HISTORY for time travel</text><path d="M311.5244,94.7324 L321.5244,94.7324 C336.5244,94.7324 336.5244,76.2441 351.5244,76.2441 L361.5244,76.2441" fill="none" style="stroke:#0078D4;stroke-width:3;"/><text fill="#000000" font-family="sans-serif" font-size="14" lengthAdjust="spacing" textLength="191.6592" x="364.5244" y="100.0234">AS alias for external naming</text><path d="M311.5244,94.7324 L321.5244,94.7324 C336.5244,94.7324 336.5244,94.7324 351.5244,94.7324 L361.5244,94.7324" fill="none" style="stroke:#0078D4;stroke-width:3;"/><text fill="#000000" font-family="sans-serif" font-size="14" lengthAdjust="spacing" textLength="288.5381" x="364.5244" y="118.5117">ADD SCHEMA for all current+future assets</text><path d="M311.5244,94.7324 L321.5244,94.7324 C336.5244,94.7324 336.5244,113.2207 351.5244,113.2207 L361.5244,113.2207" fill="none" style="stroke:#0078D4;stroke-width:3;"/><path d="M146.1699,151.2207 L156.1699,151.2207 C171.1699,151.2207 171.1699,94.7324 186.1699,94.7324 L196.1699,94.7324" fill="none" style="stroke:#FF5F46;stroke-width:3;"/><rect fill="#0078D4" height="36.4883" rx="12.5" ry="12.5" style="stroke:#0078D4;stroke-width:3;" width="116.708" x="196.1699" y="132.9766"/><text fill="#FFFFFF" font-family="sans-serif" font-size="14" lengthAdjust="spacing" textLength="96.708" x="206.1699" y="156.5117">D2D Recipient</text><text fill="#000000" font-family="sans-serif" font-size="14" lengthAdjust="spacing" textLength="243.585" x="365.8779" y="138.0234">Requires recipient sharing identifier</text><path d="M312.8779,151.2207 L322.8779,151.2207 C337.8779,151.2207 337.8779,132.7324 352.8779,132.7324 L362.8779,132.7324" fill="none" style="stroke:#0078D4;stroke-width:3;"/><text fill="#000000" font-family="sans-serif" font-size="14" lengthAdjust="spacing" textLength="214.9971" x="365.8779" y="156.5117">SELECT CURRENT_METASTORE()</text><path d="M312.8779,151.2207 L322.8779,151.2207 C337.8779,151.2207 337.8779,151.2207 352.8779,151.2207 L362.8779,151.2207" fill="none" style="stroke:#0078D4;stroke-width:3;"/><text fill="#000000" font-family="sans-serif" font-size="14" lengthAdjust="spacing" textLength="232.333" x="365.8779" y="175">CREATE RECIPIENT ... USING ID '...'</text><path d="M312.8779,151.2207 L322.8779,151.2207 C337.8779,151.2207 337.8779,169.709 352.8779,169.709 L362.8779,169.709" fill="none" style="stroke:#0078D4;stroke-width:3;"/><path d="M146.1699,151.2207 L156.1699,151.2207 C171.1699,151.2207 171.1699,151.2207 186.1699,151.2207 L196.1699,151.2207" fill="none" style="stroke:#FF5F46;stroke-width:3;"/><rect fill="#0078D4" height="36.4883" rx="12.5" ry="12.5" style="stroke:#0078D4;stroke-width:3;" width="123.0586" x="196.1699" y="189.4648"/><text fill="#FFFFFF" font-family="sans-serif" font-size="14" lengthAdjust="spacing" textLength="103.0586" x="206.1699" y="213">Open Recipient</text><text fill="#000000" font-family="sans-serif" font-size="14" lengthAdjust="spacing" textLength="175.1436" x="372.2285" y="194.5117">CREATE RECIPIENT (no ID)</text><path d="M319.2285,207.709 L329.2285,207.709 C344.2285,207.709 344.2285,189.2207 359.2285,189.2207 L369.2285,189.2207" fill="none" style="stroke:#0078D4;stroke-width:3;"/><text fill="#000000" font-family="sans-serif" font-size="14" lengthAdjust="spacing" textLength="254.96" x="372.2285" y="213">DESCRIBE RECIPIENT &#8594; activation link</text><path d="M319.2285,207.709 L329.2285,207.709 C344.2285,207.709 344.2285,207.709 359.2285,207.709 L369.2285,207.709" fill="none" style="stroke:#0078D4;stroke-width:3;"/><text fill="#000000" font-family="sans-serif" font-size="14" lengthAdjust="spacing" textLength="268.5635" x="372.2285" y="231.4883">Send link via secure channel (one-time)</text><path d="M319.2285,207.709 L329.2285,207.709 C344.2285,207.709 344.2285,226.1973 359.2285,226.1973 L369.2285,226.1973" fill="none" style="stroke:#0078D4;stroke-width:3;"/><path d="M146.1699,151.2207 L156.1699,151.2207 C171.1699,151.2207 171.1699,207.709 186.1699,207.709 L196.1699,207.709" fill="none" style="stroke:#FF5F46;stroke-width:3;"/><rect fill="#0078D4" height="36.4883" rx="12.5" ry="12.5" style="stroke:#0078D4;stroke-width:3;" width="106.0781" x="196.1699" y="245.9531"/><text fill="#FFFFFF" font-family="sans-serif" font-size="14" lengthAdjust="spacing" textLength="86.0781" x="206.1699" y="269.4883">Grant access</text><text fill="#000000" font-family="sans-serif" font-size="14" lengthAdjust="spacing" textLength="272.2822" x="355.248" y="251">GRANT SELECT ON SHARE TO RECIPIENT</text><path d="M302.248,264.1973 L312.248,264.1973 C327.248,264.1973 327.248,245.709 342.248,245.709 L352.248,245.709" fill="none" style="stroke:#0078D4;stroke-width:3;"/><text fill="#000000" font-family="sans-serif" font-size="14" lengthAdjust="spacing" textLength="174.7129" x="355.248" y="269.4883">REVOKE to remove access</text><path d="M302.248,264.1973 L312.248,264.1973 C327.248,264.1973 327.248,264.1973 342.248,264.1973 L352.248,264.1973" fill="none" style="stroke:#0078D4;stroke-width:3;"/><text fill="#000000" font-family="sans-serif" font-size="14" lengthAdjust="spacing" textLength="175.2871" x="355.248" y="287.9766">DROP RECIPIENT to delete</text><path d="M302.248,264.1973 L312.248,264.1973 C327.248,264.1973 327.248,282.6855 342.248,282.6855 L352.248,282.6855" fill="none" style="stroke:#0078D4;stroke-width:3;"/><path d="M146.1699,151.2207 L156.1699,151.2207 C171.1699,151.2207 171.1699,264.1973 186.1699,264.1973 L196.1699,264.1973" fill="none" style="stroke:#FF5F46;stroke-width:3;"/><?plantuml-src VLJjRjem5FsVfxZIf9MoZQQiwpvKJGs9WMWKgYHjDMbIPP8Ri0WsintMgThVFS0USKyoEmcbfMBtZtMlpxtdt1ChvqfJgPUCPqkwSiwK_bdWP-TJXYizRxc7SE-0YHvD5pCfIfxveX0INlJxx_edfzNTY75yNkqBhfjgNiK3DfcpTC5HANZRSPrV6wxZlLok-_v3SBBBjLDzEdL7GR-ABLTtBrUUJp-wxYxNJlM_N6uLXcigxWgBkT-BE3jgx6w3BtZEPgL4YETKelh6NqA4ALinv5evROE8Y9SGY8TUH4pUlhKzcXev4aGEL2dK2hG0PGVKY8HEZOJNi6RumnwYA9SsvqBZL8Y5gc7UA25HFHcy8834wuq87C5rI6xC4Vj3Sk5P3LwMCJvhkEhUcp0PmZ2Caqdq5NApdcPB12tf6ejcUWoqO5HLjtYdKN9Q0AVcpSqQXE6iIIeCBGf8IodDvg_oKbjJ7XWXw0PRO-hs2B-Np7W6SbElFB1AMMOobZEKDJGc8-8du5z54HadjnSayQnoqZfiBArDZeWVNeO60PrE1wxYS3o0C803anrO4PCLybqLprfRN9YcPd10OZyAUu_l__x-0pJLR4qr4nmAnXUDIEHPbPhlHa5XQXr8vvHpBA0bEBwn7jl1C93KR4lJr3oqkdaGUMPsi-Tat7pLPB8bRamZrvClnBuNYKknnYT3WcXo-KYf0MLOe4Rdt4ZR_2kSuqxNxPvskly0?></g></svg>