<?plantuml 1.2026.2?><svg xmlns="http://www.w3.org/2000/svg" xmlns:xlink="http://www.w3.org/1999/xlink" contentStyleType="text/css" data-diagram-type="MINDMAP" height="282px" preserveAspectRatio="none" style="width:638px;height:282px;background:#FFFFFF;" version="1.1" viewBox="0 0 638 282" width="638px" zoomAndPan="magnify"><defs/><g><rect fill="#FF5F46" height="52.9766" rx="12.5" ry="12.5" style="stroke:#FF5F46;stroke-width:3;" width="133.709" x="10" y="113.9531"/><text fill="#FFFFFF" font-family="sans-serif" font-size="14" lengthAdjust="spacing" textLength="113.709" x="20" y="137.4883">Authentication &amp;</text><text fill="#FFFFFF" font-family="sans-serif" font-size="14" lengthAdjust="spacing" textLength="108.2266" x="20" y="153.9766">Access Controls</text><rect fill="#0078D4" height="36.4883" rx="12.5" ry="12.5" style="stroke:#0078D4;stroke-width:3;" width="165.8584" x="193.709" y="20"/><text fill="#FFFFFF" font-family="sans-serif" font-size="14" lengthAdjust="spacing" textLength="145.8584" x="203.709" y="43.5352">Open sharing: tokens</text><text fill="#000000" font-family="sans-serif" font-size="14" lengthAdjust="spacing" textLength="137.2178" x="412.5674" y="25.0469">Set token expiration</text><path d="M359.5674,38.2441 L369.5674,38.2441 C384.5674,38.2441 384.5674,19.7559 399.5674,19.7559 L409.5674,19.7559" fill="none" style="stroke:#0078D4;stroke-width:3;"/><text fill="#000000" font-family="sans-serif" font-size="14" lengthAdjust="spacing" textLength="213.8828" x="412.5674" y="43.5352">Metastore-level default lifetime</text><path d="M359.5674,38.2441 L369.5674,38.2441 C384.5674,38.2441 384.5674,38.2441 399.5674,38.2441 L409.5674,38.2441" fill="none" style="stroke:#0078D4;stroke-width:3;"/><text fill="#000000" font-family="sans-serif" font-size="14" lengthAdjust="spacing" textLength="211.3877" x="412.5674" y="62.0234">Enable Delta Sharing externally</text><path d="M359.5674,38.2441 L369.5674,38.2441 C384.5674,38.2441 384.5674,56.7324 399.5674,56.7324 L409.5674,56.7324" fill="none" style="stroke:#0078D4;stroke-width:3;"/><path d="M143.709,140.4414 L153.709,140.4414 C168.709,140.4414 168.709,38.2441 183.709,38.2441 L193.709,38.2441" fill="none" style="stroke:#FF5F46;stroke-width:3;"/><rect fill="#0078D4" height="36.4883" rx="12.5" ry="12.5" style="stroke:#0078D4;stroke-width:3;" width="131.46" x="193.709" y="76.4883"/><text fill="#FFFFFF" font-family="sans-serif" font-size="14" lengthAdjust="spacing" textLength="111.46" x="203.709" y="100.0234">OIDC Federation</text><text fill="#000000" font-family="sans-serif" font-size="14" lengthAdjust="spacing" textLength="173.4961" x="378.1689" y="81.5352">Short-lived OAuth tokens</text><path d="M325.1689,94.7324 L335.1689,94.7324 C350.1689,94.7324 350.1689,76.2441 365.1689,76.2441 L375.1689,76.2441" fill="none" style="stroke:#0078D4;stroke-width:3;"/><text fill="#000000" font-family="sans-serif" font-size="14" lengthAdjust="spacing" textLength="219.2217" x="378.1689" y="100.0234">Recipient's identity provider JWT</text><path d="M325.1689,94.7324 L335.1689,94.7324 C350.1689,94.7324 350.1689,94.7324 365.1689,94.7324 L375.1689,94.7324" fill="none" style="stroke:#0078D4;stroke-width:3;"/><text fill="#000000" font-family="sans-serif" font-size="14" lengthAdjust="spacing" textLength="222.5645" x="378.1689" y="118.5117">Eliminates long-lived credentials</text><path d="M325.1689,94.7324 L335.1689,94.7324 C350.1689,94.7324 350.1689,113.2207 365.1689,113.2207 L375.1689,113.2207" fill="none" style="stroke:#0078D4;stroke-width:3;"/><path d="M143.709,140.4414 L153.709,140.4414 C168.709,140.4414 168.709,94.7324 183.709,94.7324 L193.709,94.7324" fill="none" style="stroke:#FF5F46;stroke-width:3;"/><rect fill="#0078D4" height="36.4883" rx="12.5" ry="12.5" style="stroke:#0078D4;stroke-width:3;" width="112.3809" x="193.709" y="141.709"/><text fill="#FFFFFF" font-family="sans-serif" font-size="14" lengthAdjust="spacing" textLength="92.3809" x="203.709" y="165.2441">IP access lists</text><text fill="#000000" font-family="sans-serif" font-size="14" lengthAdjust="spacing" textLength="228.0674" x="359.0898" y="137.5117">Assign to open sharing recipients</text><path d="M306.0898,159.9531 L316.0898,159.9531 C331.0898,159.9531 331.0898,132.2207 346.0898,132.2207 L356.0898,132.2207" fill="none" style="stroke:#0078D4;stroke-width:3;"/><text fill="#000000" font-family="sans-serif" font-size="14" lengthAdjust="spacing" textLength="190.7842" x="359.0898" y="156">IP addresses or CIDR ranges</text><path d="M306.0898,159.9531 L316.0898,159.9531 C331.0898,159.9531 331.0898,150.709 346.0898,150.709 L356.0898,150.709" fill="none" style="stroke:#0078D4;stroke-width:3;"/><text fill="#000000" font-family="sans-serif" font-size="14" lengthAdjust="spacing" textLength="253.5723" x="359.0898" y="174.4883">Max 100 IP/CIDR values per recipient</text><path d="M306.0898,159.9531 L316.0898,159.9531 C331.0898,159.9531 331.0898,169.1973 346.0898,169.1973 L356.0898,169.1973" fill="none" style="stroke:#0078D4;stroke-width:3;"/><text fill="#000000" font-family="sans-serif" font-size="14" lengthAdjust="spacing" textLength="255.7666" x="359.0898" y="192.9766">Unlisted IP &#8594; access denied + logged</text><path d="M306.0898,159.9531 L316.0898,159.9531 C331.0898,159.9531 331.0898,187.6855 346.0898,187.6855 L356.0898,187.6855" fill="none" style="stroke:#0078D4;stroke-width:3;"/><path d="M143.709,140.4414 L153.709,140.4414 C168.709,140.4414 168.709,159.9531 183.709,159.9531 L193.709,159.9531" fill="none" style="stroke:#FF5F46;stroke-width:3;"/><rect fill="#0078D4" height="36.4883" rx="12.5" ry="12.5" style="stroke:#0078D4;stroke-width:3;" width="118.0547" x="193.709" y="215.6621"/><text fill="#FFFFFF" font-family="sans-serif" font-size="14" lengthAdjust="spacing" textLength="98.0547" x="203.709" y="239.1973">Least privilege</text><text fill="#000000" font-family="sans-serif" font-size="14" lengthAdjust="spacing" textLength="234.8145" x="364.7637" y="211.4648">CREATE SHARE, CREATE RECIPIENT</text><path d="M311.7637,233.9063 L321.7637,233.9063 C336.7637,233.9063 336.7637,206.1738 351.7637,206.1738 L361.7637,206.1738" fill="none" style="stroke:#0078D4;stroke-width:3;"/><text fill="#000000" font-family="sans-serif" font-size="14" lengthAdjust="spacing" textLength="239.415" x="364.7637" y="229.9531">USE SHARE, SET SHARE PERMISSION</text><path d="M311.7637,233.9063 L321.7637,233.9063 C336.7637,233.9063 336.7637,224.6621 351.7637,224.6621 L361.7637,224.6621" fill="none" style="stroke:#0078D4;stroke-width:3;"/><text fill="#000000" font-family="sans-serif" font-size="14" lengthAdjust="spacing" textLength="97.9727" x="364.7637" y="248.4414">USE RECIPIENT</text><path d="M311.7637,233.9063 L321.7637,233.9063 C336.7637,233.9063 336.7637,243.1504 351.7637,243.1504 L361.7637,243.1504" fill="none" style="stroke:#0078D4;stroke-width:3;"/><text fill="#000000" font-family="sans-serif" font-size="14" lengthAdjust="spacing" textLength="220.4727" x="364.7637" y="266.9297">Assign to groups not individuals</text><path d="M311.7637,233.9063 L321.7637,233.9063 C336.7637,233.9063 336.7637,261.6387 351.7637,261.6387 L361.7637,261.6387" fill="none" style="stroke:#0078D4;stroke-width:3;"/><path d="M143.709,140.4414 L153.709,140.4414 C168.709,140.4414 168.709,233.9063 183.709,233.9063 L193.709,233.9063" fill="none" style="stroke:#FF5F46;stroke-width:3;"/><?plantuml-src VPFRZjem48RlynGZLUg1Tjb0jzjsjQgMXaHDjImeOTMRIfM9Xs1XxCWs2BJgRH-WZzWdwUG0xAQYleh7_yptpyI-iOuPjnAAhrZXNLkta_Z9k-9OkCLB_nKyU43hCykMkT5hnGCjjO5dKVGkkhYipcw5md-ZaLQkYSwhTT1E5o9RAhGMtdPzx-UUrJl9yltt7uONRLOh-hHgoq5KhIEhVv8rdyy--dwRrOh-b-LNYrWplPMbvk6aulgy6NS71cktGEL4nfpG2fv_LuCiAxC3oZDQMg_JWN612ko26Q7oAt1wYQgCTtv0YgxU0suBOQeYzSa87RDE6poJk4497ETiBHr8CKSdLbYhGiLc4c68qZ58QmALScWKat9NmUDX015oV5mzNMZZpgJO88TnsSCJLmbceX3KrWiBWfVjkHqKHczeO-3hjsa3buBk7tDeGMgLD-KoWrKAgtkF9y3gYKXXNGCOM2joHKpGZqO3PizjP6KkvuQI2K5_88Y72HYcScm48xQ5dk-JyBmwsp2v9cb1BW-rQkMzAl5aZsh--VLxxucS2Wg-fWRo77bf-1PfxjIjs0Y9UJFd80a7qn3IBuCaVBFV9M4GJ-BmhXd7VNeGfE6q_eH9c8pYD8t7TqTHA-yuZF965nQKTa3lcWpmTJd56wH7tZnqhzVj-_tBRlyl?></g></svg>