<?plantuml 1.2026.2?><svg xmlns="http://www.w3.org/2000/svg" xmlns:xlink="http://www.w3.org/1999/xlink" contentStyleType="text/css" data-diagram-type="MINDMAP" height="265px" preserveAspectRatio="none" style="width:643px;height:265px;background:#FFFFFF;" version="1.1" viewBox="0 0 643 265" width="643px" zoomAndPan="magnify"><defs/><g><rect fill="#FF5F46" height="52.9766" rx="12.5" ry="12.5" style="stroke:#FF5F46;stroke-width:3;" width="182.9277" x="10" y="105.2207"/><text fill="#FFFFFF" font-family="sans-serif" font-size="14" lengthAdjust="spacing" textLength="162.9277" x="20" y="128.7559">Monitor Sharing Activity</text><text fill="#FFFFFF" font-family="sans-serif" font-size="14" lengthAdjust="spacing" textLength="131.5918" x="20" y="145.2441">through Audit Logs</text><rect fill="#0078D4" height="36.4883" rx="12.5" ry="12.5" style="stroke:#0078D4;stroke-width:3;" width="130.8311" x="242.9277" y="20"/><text fill="#FFFFFF" font-family="sans-serif" font-size="14" lengthAdjust="spacing" textLength="110.8311" x="252.9277" y="43.5352">Captured events</text><text fill="#000000" font-family="sans-serif" font-size="14" lengthAdjust="spacing" textLength="191.7344" x="426.7588" y="25.0469">createShare, createRecipient</text><path d="M373.7588,38.2441 L383.7588,38.2441 C398.7588,38.2441 398.7588,19.7559 413.7588,19.7559 L423.7588,19.7559" fill="none" style="stroke:#0078D4;stroke-width:3;"/><text fill="#000000" font-family="sans-serif" font-size="14" lengthAdjust="spacing" textLength="204.4355" x="426.7588" y="43.5352">grantOnShare, revokeOnShare</text><path d="M373.7588,38.2441 L383.7588,38.2441 C398.7588,38.2441 398.7588,38.2441 413.7588,38.2441 L423.7588,38.2441" fill="none" style="stroke:#0078D4;stroke-width:3;"/><text fill="#000000" font-family="sans-serif" font-size="14" lengthAdjust="spacing" textLength="144.9697" x="426.7588" y="62.0234">Recipient data access</text><path d="M373.7588,38.2441 L383.7588,38.2441 C398.7588,38.2441 398.7588,56.7324 413.7588,56.7324 L423.7588,56.7324" fill="none" style="stroke:#0078D4;stroke-width:3;"/><path d="M192.9277,131.709 L202.9277,131.709 C217.9277,131.709 217.9277,38.2441 232.9277,38.2441 L242.9277,38.2441" fill="none" style="stroke:#FF5F46;stroke-width:3;"/><rect fill="#0078D4" height="36.4883" rx="12.5" ry="12.5" style="stroke:#0078D4;stroke-width:3;" width="110.8838" x="242.9277" y="76.4883"/><text fill="#FFFFFF" font-family="sans-serif" font-size="14" lengthAdjust="spacing" textLength="90.8838" x="252.9277" y="100.0234">Audit queries</text><text fill="#000000" font-family="sans-serif" font-size="14" lengthAdjust="spacing" textLength="203.3555" x="406.8115" y="81.5352">service_name = 'unityCatalog'</text><path d="M353.8115,94.7324 L363.8115,94.7324 C378.8115,94.7324 378.8115,76.2441 393.8115,76.2441 L403.8115,76.2441" fill="none" style="stroke:#0078D4;stroke-width:3;"/><text fill="#000000" font-family="sans-serif" font-size="14" lengthAdjust="spacing" textLength="205.2832" x="406.8115" y="100.0234">Track share/recipient creation</text><path d="M353.8115,94.7324 L363.8115,94.7324 C378.8115,94.7324 378.8115,94.7324 393.8115,94.7324 L403.8115,94.7324" fill="none" style="stroke:#0078D4;stroke-width:3;"/><text fill="#000000" font-family="sans-serif" font-size="14" lengthAdjust="spacing" textLength="199.2334" x="406.8115" y="118.5117">Monitor recipient data access</text><path d="M353.8115,94.7324 L363.8115,94.7324 C378.8115,94.7324 378.8115,113.2207 393.8115,113.2207 L403.8115,113.2207" fill="none" style="stroke:#0078D4;stroke-width:3;"/><path d="M192.9277,131.709 L202.9277,131.709 C217.9277,131.709 217.9277,94.7324 232.9277,94.7324 L242.9277,94.7324" fill="none" style="stroke:#FF5F46;stroke-width:3;"/><rect fill="#0078D4" height="36.4883" rx="12.5" ry="12.5" style="stroke:#0078D4;stroke-width:3;" width="85.6729" x="242.9277" y="141.709"/><text fill="#FFFFFF" font-family="sans-serif" font-size="14" lengthAdjust="spacing" textLength="65.6729" x="252.9277" y="165.2441">Key fields</text><text fill="#000000" font-family="sans-serif" font-size="14" lengthAdjust="spacing" textLength="85.7637" x="381.6006" y="137.5117">action_name</text><path d="M328.6006,159.9531 L338.6006,159.9531 C353.6006,159.9531 353.6006,132.2207 368.6006,132.2207 L378.6006,132.2207" fill="none" style="stroke:#0078D4;stroke-width:3;"/><text fill="#000000" font-family="sans-serif" font-size="14" lengthAdjust="spacing" textLength="216.46" x="381.6006" y="156">request_params.recipient_name</text><path d="M328.6006,159.9531 L338.6006,159.9531 C353.6006,159.9531 353.6006,150.709 368.6006,150.709 L378.6006,150.709" fill="none" style="stroke:#0078D4;stroke-width:3;"/><text fill="#000000" font-family="sans-serif" font-size="14" lengthAdjust="spacing" textLength="194.2158" x="381.6006" y="174.4883">request_params.share_name</text><path d="M328.6006,159.9531 L338.6006,159.9531 C353.6006,159.9531 353.6006,169.1973 368.6006,169.1973 L378.6006,169.1973" fill="none" style="stroke:#0078D4;stroke-width:3;"/><text fill="#000000" font-family="sans-serif" font-size="14" lengthAdjust="spacing" textLength="128.6592" x="381.6006" y="192.9766">user_identity.email</text><path d="M328.6006,159.9531 L338.6006,159.9531 C353.6006,159.9531 353.6006,187.6855 368.6006,187.6855 L378.6006,187.6855" fill="none" style="stroke:#0078D4;stroke-width:3;"/><path d="M192.9277,131.709 L202.9277,131.709 C217.9277,131.709 217.9277,159.9531 232.9277,159.9531 L242.9277,159.9531" fill="none" style="stroke:#FF5F46;stroke-width:3;"/><rect fill="#0078D4" height="36.4883" rx="12.5" ry="12.5" style="stroke:#0078D4;stroke-width:3;" width="86.042" x="242.9277" y="206.9297"/><text fill="#FFFFFF" font-family="sans-serif" font-size="14" lengthAdjust="spacing" textLength="66.042" x="252.9277" y="230.4648">Use cases</text><text fill="#000000" font-family="sans-serif" font-size="14" lengthAdjust="spacing" textLength="147.4512" x="381.9697" y="211.9766">Compliance reporting</text><path d="M328.9697,225.1738 L338.9697,225.1738 C353.9697,225.1738 353.9697,206.6855 368.9697,206.6855 L378.9697,206.6855" fill="none" style="stroke:#0078D4;stroke-width:3;"/><text fill="#000000" font-family="sans-serif" font-size="14" lengthAdjust="spacing" textLength="208.1406" x="381.9697" y="230.4648">Unauthorized access detection</text><path d="M328.9697,225.1738 L338.9697,225.1738 C353.9697,225.1738 353.9697,225.1738 368.9697,225.1738 L378.9697,225.1738" fill="none" style="stroke:#0078D4;stroke-width:3;"/><text fill="#000000" font-family="sans-serif" font-size="14" lengthAdjust="spacing" textLength="187.2295" x="381.9697" y="248.9531">Sharing activity dashboards</text><path d="M328.9697,225.1738 L338.9697,225.1738 C353.9697,225.1738 353.9697,243.6621 368.9697,243.6621 L378.9697,243.6621" fill="none" style="stroke:#0078D4;stroke-width:3;"/><path d="M192.9277,131.709 L202.9277,131.709 C217.9277,131.709 217.9277,225.1738 232.9277,225.1738 L242.9277,225.1738" fill="none" style="stroke:#FF5F46;stroke-width:3;"/><?plantuml-src VPDHRzGm3CVV-oaiyJ0ueQuxnc3JG1k7-i8G4cnlaqw-nDT6roObSK_S9huxRfkxGQVYjzZ_-ET_h5m5Hi-riRh69haClAleOtAXgU7oPVOA7XEG-8HgKtZNMhrmbVFm8i_VvgTdVUt6M7gUpPtbc5ttST3UbaPjB8K0Rz8i-RrddKooikpT-y-dOzOe-s_NqGHv7q-i-IHhlLwTPzcODSh-bvNr8QoL-rLrciT9nULnVEuPV7NMi1H_bEYDBU1QiTaQtjrRBcM-eeJhLXk66rU4P3Q31JRSUj90MxBSfMPBK9wGgMj1h-FXEodJ694CYiAZvMysIZnjtORYSH0SzA2H4L0fiT011_pFbhoXY0lajqRHqc9Dy06EMh6mMyYroXL7W-JMomD3wFeV-qFhVZJZxA3PM_TJw2-qWxMXIaSkgkvoZnqIdcIkmCi6FTOXFJIQblGJ_LLknSlIQBaZ5bAgqLGT-IuGA0nxmmjNDvL1gqZwDSwpR6get5bikNJUFCXAXib14vDwihdVBCRDYijGhXnwiNL5yltY5qnEqdasFqldVm00?></g></svg>