<?plantuml 1.2026.2?><svg xmlns="http://www.w3.org/2000/svg" xmlns:xlink="http://www.w3.org/1999/xlink" contentStyleType="text/css" data-diagram-type="MINDMAP" height="247px" preserveAspectRatio="none" style="width:656px;height:247px;background:#FFFFFF;" version="1.1" viewBox="0 0 656 247" width="656px" zoomAndPan="magnify"><defs/><g><rect fill="#FF5F46" height="52.9766" rx="12.5" ry="12.5" style="stroke:#FF5F46;stroke-width:3;" width="117.0771" x="10" y="96.4883"/><text fill="#FFFFFF" font-family="sans-serif" font-size="14" lengthAdjust="spacing" textLength="86.9395" x="20" y="120.0234">Change Data</text><text fill="#FFFFFF" font-family="sans-serif" font-size="14" lengthAdjust="spacing" textLength="97.0771" x="20" y="136.5117">Capture (CDC)</text><rect fill="#0078D4" height="36.4883" rx="12.5" ry="12.5" style="stroke:#0078D4;stroke-width:3;" width="153.4854" x="177.0771" y="20"/><text fill="#FFFFFF" font-family="sans-serif" font-size="14" lengthAdjust="spacing" textLength="133.4854" x="187.0771" y="43.5352">Source Mechanisms</text><text fill="#000000" font-family="sans-serif" font-size="14" lengthAdjust="spacing" textLength="217.5947" x="383.5625" y="25.0469">DB transaction logs (SQL Server)</text><path d="M330.5625,38.2441 L340.5625,38.2441 C355.5625,38.2441 355.5625,19.7559 370.5625,19.7559 L380.5625,19.7559" fill="none" style="stroke:#0078D4;stroke-width:3;"/><text fill="#000000" font-family="sans-serif" font-size="14" lengthAdjust="spacing" textLength="261.2832" x="383.5625" y="43.5352">Change data feeds (Delta, Cosmos DB)</text><path d="M330.5625,38.2441 L340.5625,38.2441 C355.5625,38.2441 355.5625,38.2441 370.5625,38.2441 L380.5625,38.2441" fill="none" style="stroke:#0078D4;stroke-width:3;"/><text fill="#000000" font-family="sans-serif" font-size="14" lengthAdjust="spacing" textLength="127.5381" x="383.5625" y="62.0234">Periodic snapshots</text><path d="M330.5625,38.2441 L340.5625,38.2441 C355.5625,38.2441 355.5625,56.7324 370.5625,56.7324 L380.5625,56.7324" fill="none" style="stroke:#0078D4;stroke-width:3;"/><path d="M127.0771,122.9766 L137.0771,122.9766 C152.0771,122.9766 152.0771,38.2441 167.0771,38.2441 L177.0771,38.2441" fill="none" style="stroke:#FF5F46;stroke-width:3;"/><rect fill="#0078D4" height="36.4883" rx="12.5" ry="12.5" style="stroke:#0078D4;stroke-width:3;" width="217.6133" x="177.0771" y="76.4883"/><text fill="#FFFFFF" font-family="sans-serif" font-size="14" lengthAdjust="spacing" textLength="197.6133" x="187.0771" y="100.0234">Captures per-row operations</text><text fill="#000000" font-family="sans-serif" font-size="14" lengthAdjust="spacing" textLength="45.7598" x="447.6904" y="81.5352">Inserts</text><path d="M394.6904,94.7324 L404.6904,94.7324 C419.6904,94.7324 419.6904,76.2441 434.6904,76.2441 L444.6904,76.2441" fill="none" style="stroke:#0078D4;stroke-width:3;"/><text fill="#000000" font-family="sans-serif" font-size="14" lengthAdjust="spacing" textLength="55.2275" x="447.6904" y="100.0234">Updates</text><path d="M394.6904,94.7324 L404.6904,94.7324 C419.6904,94.7324 419.6904,94.7324 434.6904,94.7324 L444.6904,94.7324" fill="none" style="stroke:#0078D4;stroke-width:3;"/><text fill="#000000" font-family="sans-serif" font-size="14" lengthAdjust="spacing" textLength="50.3057" x="447.6904" y="118.5117">Deletes</text><path d="M394.6904,94.7324 L404.6904,94.7324 C419.6904,94.7324 419.6904,113.2207 434.6904,113.2207 L444.6904,113.2207" fill="none" style="stroke:#0078D4;stroke-width:3;"/><path d="M127.0771,122.9766 L137.0771,122.9766 C152.0771,122.9766 152.0771,94.7324 167.0771,94.7324 L177.0771,94.7324" fill="none" style="stroke:#FF5F46;stroke-width:3;"/><rect fill="#0078D4" height="36.4883" rx="12.5" ry="12.5" style="stroke:#0078D4;stroke-width:3;" width="113.6592" x="177.0771" y="132.9766"/><text fill="#FFFFFF" font-family="sans-serif" font-size="14" lengthAdjust="spacing" textLength="93.6592" x="187.0771" y="156.5117">Requirements</text><text fill="#000000" font-family="sans-serif" font-size="14" lengthAdjust="spacing" textLength="249.4229" x="343.7363" y="147.2676">Sequencing column (timestamp/seq)</text><path d="M290.7363,151.2207 L300.7363,151.2207 C315.7363,151.2207 315.7363,141.9766 330.7363,141.9766 L340.7363,141.9766" fill="none" style="stroke:#0078D4;stroke-width:3;"/><text fill="#000000" font-family="sans-serif" font-size="14" lengthAdjust="spacing" textLength="196.4785" x="343.7363" y="165.7559">Out-of-order event handling</text><path d="M290.7363,151.2207 L300.7363,151.2207 C315.7363,151.2207 315.7363,160.4648 330.7363,160.4648 L340.7363,160.4648" fill="none" style="stroke:#0078D4;stroke-width:3;"/><path d="M127.0771,122.9766 L137.0771,122.9766 C152.0771,122.9766 152.0771,151.2207 167.0771,151.2207 L177.0771,151.2207" fill="none" style="stroke:#FF5F46;stroke-width:3;"/><rect fill="#0078D4" height="36.4883" rx="12.5" ry="12.5" style="stroke:#0078D4;stroke-width:3;" width="71.8027" x="177.0771" y="189.4648"/><text fill="#FFFFFF" font-family="sans-serif" font-size="14" lengthAdjust="spacing" textLength="51.8027" x="187.0771" y="213">Enables</text><text fill="#000000" font-family="sans-serif" font-size="14" lengthAdjust="spacing" textLength="181.4463" x="301.8799" y="194.5117">Accurate delete replication</text><path d="M248.8799,207.709 L258.8799,207.709 C273.8799,207.709 273.8799,189.2207 288.8799,189.2207 L298.8799,189.2207" fill="none" style="stroke:#0078D4;stroke-width:3;"/><text fill="#000000" font-family="sans-serif" font-size="14" lengthAdjust="spacing" textLength="74.7988" x="301.8799" y="213">Audit trails</text><path d="M248.8799,207.709 L258.8799,207.709 C273.8799,207.709 273.8799,207.709 288.8799,207.709 L298.8799,207.709" fill="none" style="stroke:#0078D4;stroke-width:3;"/><text fill="#000000" font-family="sans-serif" font-size="14" lengthAdjust="spacing" textLength="190.4014" x="301.8799" y="231.4883">Key column update tracking</text><path d="M248.8799,207.709 L258.8799,207.709 C273.8799,207.709 273.8799,226.1973 288.8799,226.1973 L298.8799,226.1973" fill="none" style="stroke:#0078D4;stroke-width:3;"/><path d="M127.0771,122.9766 L137.0771,122.9766 C152.0771,122.9766 152.0771,207.709 167.0771,207.709 L177.0771,207.709" fill="none" style="stroke:#FF5F46;stroke-width:3;"/><?plantuml-src VPDRRzGm48NVyoj6ucLtnMxJfPIBAbIQ40dH2kYsRqZ8QqzshNKygIyjLSL_xoHrg0XQvYaUdpdViHMV-Y1SQBHLZMYp4n_k3Nx8tYjimtQIJ-4X0wup8NSRHz6gWWmvU55LhwkZutxlN5lyjrkH3QbRz_L7UxNLScVHUtYroBFV0-jmBolFtxmjZyQiKVTlrr62ggzdrd8lgwxNx_9yp1fr_ylA-sBMcdwPJlEmLt5oaAvx1iLMs0r2AOBuOGlHXkWG9aLPJBFP35OKdKIuGCaoxHlFpTbFACyWE66za46J1KCR3vFLztDOeRj5DtrI9Ml5rb0ZAjQKQ89u2GNvXZpR9EKtT9gKbk2jQFsMGiU1bCP3Ysxkw0w8FqH7J34-MuykfCLroo0S0gB1fmLSuatK3XkqWtB57RHIsmr8Ch6nC0cwGVuVc_R0uqqAzJM6ETLpSWeTu2tF0nz86PxhV3zPiJO3xwEKaQFnONimE6oDbdtM98XAX-xIj4aZN_1-mCS-UhShTvtxAVAZI0yZErmiy-NnOla8?></g></svg>