<?plantuml 1.2026.2?><svg xmlns="http://www.w3.org/2000/svg" xmlns:xlink="http://www.w3.org/1999/xlink" contentStyleType="text/css" data-diagram-type="MINDMAP" height="247px" preserveAspectRatio="none" style="width:619px;height:247px;background:#FFFFFF;" version="1.1" viewBox="0 0 619 247" width="619px" zoomAndPan="magnify"><defs/><g><rect fill="#FF5F46" height="52.9766" rx="12.5" ry="12.5" style="stroke:#FF5F46;stroke-width:3;" width="134.2764" x="10" y="96.4883"/><text fill="#FFFFFF" font-family="sans-serif" font-size="14" lengthAdjust="spacing" textLength="114.2764" x="20" y="120.0234">Ingestion Design</text><text fill="#FFFFFF" font-family="sans-serif" font-size="14" lengthAdjust="spacing" textLength="75.1338" x="20" y="136.5117">Framework</text><rect fill="#0078D4" height="36.4883" rx="12.5" ry="12.5" style="stroke:#0078D4;stroke-width:3;" width="148.29" x="194.2764" y="20"/><text fill="#FFFFFF" font-family="sans-serif" font-size="14" lengthAdjust="spacing" textLength="128.29" x="204.2764" y="43.5352">Understand Source</text><text fill="#000000" font-family="sans-serif" font-size="14" lengthAdjust="spacing" textLength="133.376" x="395.5664" y="25.0469">Data characteristics</text><path d="M342.5664,38.2441 L352.5664,38.2441 C367.5664,38.2441 367.5664,19.7559 382.5664,19.7559 L392.5664,19.7559" fill="none" style="stroke:#0078D4;stroke-width:3;"/><text fill="#000000" font-family="sans-serif" font-size="14" lengthAdjust="spacing" textLength="122.9033" x="395.5664" y="43.5352">Change frequency</text><path d="M342.5664,38.2441 L352.5664,38.2441 C367.5664,38.2441 367.5664,38.2441 382.5664,38.2441 L392.5664,38.2441" fill="none" style="stroke:#0078D4;stroke-width:3;"/><text fill="#000000" font-family="sans-serif" font-size="14" lengthAdjust="spacing" textLength="121.4404" x="395.5664" y="62.0234">Volume &amp; velocity</text><path d="M342.5664,38.2441 L352.5664,38.2441 C367.5664,38.2441 367.5664,56.7324 382.5664,56.7324 L392.5664,56.7324" fill="none" style="stroke:#0078D4;stroke-width:3;"/><path d="M144.2764,122.9766 L154.2764,122.9766 C169.2764,122.9766 169.2764,38.2441 184.2764,38.2441 L194.2764,38.2441" fill="none" style="stroke:#FF5F46;stroke-width:3;"/><rect fill="#0078D4" height="36.4883" rx="12.5" ry="12.5" style="stroke:#0078D4;stroke-width:3;" width="162.0576" x="194.2764" y="76.4883"/><text fill="#FFFFFF" font-family="sans-serif" font-size="14" lengthAdjust="spacing" textLength="142.0576" x="204.2764" y="100.0234">Define Requirements</text><text fill="#000000" font-family="sans-serif" font-size="14" lengthAdjust="spacing" textLength="198.4199" x="409.334" y="81.5352">Latency (batch vs. streaming)</text><path d="M356.334,94.7324 L366.334,94.7324 C381.334,94.7324 381.334,76.2441 396.334,76.2441 L406.334,76.2441" fill="none" style="stroke:#0078D4;stroke-width:3;"/><text fill="#000000" font-family="sans-serif" font-size="14" lengthAdjust="spacing" textLength="129.9717" x="409.334" y="100.0234">Data freshness SLA</text><path d="M356.334,94.7324 L366.334,94.7324 C381.334,94.7324 381.334,94.7324 396.334,94.7324 L406.334,94.7324" fill="none" style="stroke:#0078D4;stroke-width:3;"/><text fill="#000000" font-family="sans-serif" font-size="14" lengthAdjust="spacing" textLength="110.6465" x="409.334" y="118.5117">Reliability needs</text><path d="M356.334,94.7324 L366.334,94.7324 C381.334,94.7324 381.334,113.2207 396.334,113.2207 L406.334,113.2207" fill="none" style="stroke:#0078D4;stroke-width:3;"/><path d="M144.2764,122.9766 L154.2764,122.9766 C169.2764,122.9766 169.2764,94.7324 184.2764,94.7324 L194.2764,94.7324" fill="none" style="stroke:#FF5F46;stroke-width:3;"/><rect fill="#0078D4" height="36.4883" rx="12.5" ry="12.5" style="stroke:#0078D4;stroke-width:3;" width="139.9297" x="194.2764" y="132.9766"/><text fill="#FFFFFF" font-family="sans-serif" font-size="14" lengthAdjust="spacing" textLength="119.9297" x="204.2764" y="156.5117">Design Extraction</text><text fill="#000000" font-family="sans-serif" font-size="14" lengthAdjust="spacing" textLength="189.499" x="387.2061" y="138.0234">Full vs. incremental vs. CDC</text><path d="M334.2061,151.2207 L344.2061,151.2207 C359.2061,151.2207 359.2061,132.7324 374.2061,132.7324 L384.2061,132.7324" fill="none" style="stroke:#0078D4;stroke-width:3;"/><text fill="#000000" font-family="sans-serif" font-size="14" lengthAdjust="spacing" textLength="156.5771" x="387.2061" y="156.5117">Error handling strategy</text><path d="M334.2061,151.2207 L344.2061,151.2207 C359.2061,151.2207 359.2061,151.2207 374.2061,151.2207 L384.2061,151.2207" fill="none" style="stroke:#0078D4;stroke-width:3;"/><text fill="#000000" font-family="sans-serif" font-size="14" lengthAdjust="spacing" textLength="187.0859" x="387.2061" y="175">Schema evolution approach</text><path d="M334.2061,151.2207 L344.2061,151.2207 C359.2061,151.2207 359.2061,169.709 374.2061,169.709 L384.2061,169.709" fill="none" style="stroke:#0078D4;stroke-width:3;"/><path d="M144.2764,122.9766 L154.2764,122.9766 C169.2764,122.9766 169.2764,151.2207 184.2764,151.2207 L194.2764,151.2207" fill="none" style="stroke:#FF5F46;stroke-width:3;"/><rect fill="#0078D4" height="36.4883" rx="12.5" ry="12.5" style="stroke:#0078D4;stroke-width:3;" width="157.9834" x="194.2764" y="189.4648"/><text fill="#FFFFFF" font-family="sans-serif" font-size="14" lengthAdjust="spacing" textLength="137.9834" x="204.2764" y="213">Consider Trade-offs</text><text fill="#000000" font-family="sans-serif" font-size="14" lengthAdjust="spacing" textLength="123.5938" x="405.2598" y="203.7559">Cost vs. freshness</text><path d="M352.2598,207.709 L362.2598,207.709 C377.2598,207.709 377.2598,198.4648 392.2598,198.4648 L402.2598,198.4648" fill="none" style="stroke:#0078D4;stroke-width:3;"/><text fill="#000000" font-family="sans-serif" font-size="14" lengthAdjust="spacing" textLength="156.1328" x="405.2598" y="222.2441">Simplicity vs. flexibility</text><path d="M352.2598,207.709 L362.2598,207.709 C377.2598,207.709 377.2598,216.9531 392.2598,216.9531 L402.2598,216.9531" fill="none" style="stroke:#0078D4;stroke-width:3;"/><path d="M144.2764,122.9766 L154.2764,122.9766 C169.2764,122.9766 169.2764,207.709 184.2764,207.709 L194.2764,207.709" fill="none" style="stroke:#FF5F46;stroke-width:3;"/><?plantuml-src VPFHQzim4CRV_LSS34eRQEPcNTUEChewCGpobAHx6fIBVBP5PCcLv2mXz7_VsNBRpIEzDtywt---pzQTysXz9NLMOHtTEhzNz2twcb7jozFu30uHSDsZs1JMD3fBZ38MFgJfv_JogZkRIqt_gwdHlbVphbvxLwKK6qtEmQTn73s_i2wEikBuo_NqSiWQgFzE7MoGTlN6cXnbvVdw9ew7h87wBYlkYbbhirDjp-5en-t7FkuH_D05EI-DXYavMUXVEhLOqMzZDz5e10yw8yjVIcUmD8qLnEBe4QRe4KI95eKdAtc0SE4aAP4dGcxfgI4jza7zQLHJ4Pp0bfGHqhSo0tFs10lkb9OgqhwVCKVVlWgdQ_IYXAqRW_EMa7-Mukol1HZYoYwEvVnxq1Ua9AwbOWHeeim5KEiCPZlVxijUGs_QADKDbre4FeRdP9g4Zfcrd1ixoXIZsoLuiwBtj1GbLGYqPMzTW5ZNrg0eMsHYj9CS7QmiPdHkylmb7-Dy1tbTlfycgrh9DffmgcWdWu_eZlYEzFSakXXFuidLUF87?></g></svg>