<?plantuml 1.2026.2?><svg xmlns="http://www.w3.org/2000/svg" xmlns:xlink="http://www.w3.org/1999/xlink" contentStyleType="text/css" data-diagram-type="MINDMAP" height="303px" preserveAspectRatio="none" style="width:777px;height:303px;background:#FFFFFF;" version="1.1" viewBox="0 0 777 303" width="777px" zoomAndPan="magnify"><defs/><g><rect fill="#FF5F46" height="52.9766" rx="12.5" ry="12.5" style="stroke:#FF5F46;stroke-width:3;" width="157.4844" x="10" y="124.4766"/><text fill="#FFFFFF" font-family="sans-serif" font-size="14" lengthAdjust="spacing" textLength="73.3564" x="20" y="148.0117">Source File</text><text fill="#FFFFFF" font-family="sans-serif" font-size="14" lengthAdjust="spacing" textLength="137.4844" x="20" y="164.5">Type Characteristics</text><rect fill="#0078D4" height="36.4883" rx="12.5" ry="12.5" style="stroke:#0078D4;stroke-width:3;" width="157.5459" x="217.4844" y="48.2441"/><text fill="#FFFFFF" font-family="sans-serif" font-size="14" lengthAdjust="spacing" textLength="137.5459" x="227.4844" y="71.7793">Text-Based Formats</text><rect fill="#FFB900" height="36.4883" rx="12.5" ry="12.5" style="stroke:#FFB900;stroke-width:3;" width="46.3799" x="425.0303" y="20"/><text fill="#000000" font-family="sans-serif" font-size="14" lengthAdjust="spacing" textLength="26.3799" x="435.0303" y="43.5352">CSV</text><text fill="#000000" font-family="sans-serif" font-size="14" lengthAdjust="spacing" textLength="115.0283" x="524.4102" y="25.0469">Human-readable</text><path d="M471.4102,38.2441 L481.4102,38.2441 C496.4102,38.2441 496.4102,19.7559 511.4102,19.7559 L521.4102,19.7559" fill="none" style="stroke:#FFB900;stroke-width:3;"/><text fill="#000000" font-family="sans-serif" font-size="14" lengthAdjust="spacing" textLength="168.793" x="524.4102" y="43.5352">Schema variability issues</text><path d="M471.4102,38.2441 L481.4102,38.2441 C496.4102,38.2441 496.4102,38.2441 511.4102,38.2441 L521.4102,38.2441" fill="none" style="stroke:#FFB900;stroke-width:3;"/><text fill="#000000" font-family="sans-serif" font-size="14" lengthAdjust="spacing" textLength="178.9238" x="524.4102" y="62.0234">No compression efficiency</text><path d="M471.4102,38.2441 L481.4102,38.2441 C496.4102,38.2441 496.4102,56.7324 511.4102,56.7324 L521.4102,56.7324" fill="none" style="stroke:#FFB900;stroke-width:3;"/><path d="M375.0303,66.4883 L385.0303,66.4883 C400.0303,66.4883 400.0303,38.2441 415.0303,38.2441 L425.0303,38.2441" fill="none" style="stroke:#0078D4;stroke-width:3;"/><rect fill="#FFB900" height="36.4883" rx="12.5" ry="12.5" style="stroke:#FFB900;stroke-width:3;" width="53.1133" x="425.0303" y="76.4883"/><text fill="#000000" font-family="sans-serif" font-size="14" lengthAdjust="spacing" textLength="33.1133" x="435.0303" y="100.0234">JSON</text><text fill="#000000" font-family="sans-serif" font-size="14" lengthAdjust="spacing" textLength="168.2256" x="531.1436" y="90.7793">Semi-structured support</text><path d="M478.1436,94.7324 L488.1436,94.7324 C503.1436,94.7324 503.1436,85.4883 518.1436,85.4883 L528.1436,85.4883" fill="none" style="stroke:#FFB900;stroke-width:3;"/><text fill="#000000" font-family="sans-serif" font-size="14" lengthAdjust="spacing" textLength="234.6436" x="531.1436" y="109.2676">Text-to-type conversion overhead</text><path d="M478.1436,94.7324 L488.1436,94.7324 C503.1436,94.7324 503.1436,103.9766 518.1436,103.9766 L528.1436,103.9766" fill="none" style="stroke:#FFB900;stroke-width:3;"/><path d="M375.0303,66.4883 L385.0303,66.4883 C400.0303,66.4883 400.0303,94.7324 415.0303,94.7324 L425.0303,94.7324" fill="none" style="stroke:#0078D4;stroke-width:3;"/><path d="M167.4844,150.9648 L177.4844,150.9648 C192.4844,150.9648 192.4844,66.4883 207.4844,66.4883 L217.4844,66.4883" fill="none" style="stroke:#FF5F46;stroke-width:3;"/><rect fill="#0078D4" height="36.4883" rx="12.5" ry="12.5" style="stroke:#0078D4;stroke-width:3;" width="145.6787" x="217.4844" y="161.2207"/><text fill="#FFFFFF" font-family="sans-serif" font-size="14" lengthAdjust="spacing" textLength="125.6787" x="227.4844" y="184.7559">Columnar Formats</text><rect fill="#FFB900" height="36.4883" rx="12.5" ry="12.5" style="stroke:#FFB900;stroke-width:3;" width="71.7344" x="413.1631" y="132.9766"/><text fill="#000000" font-family="sans-serif" font-size="14" lengthAdjust="spacing" textLength="51.7344" x="423.1631" y="156.5117">Parquet</text><text fill="#000000" font-family="sans-serif" font-size="14" lengthAdjust="spacing" textLength="131.0723" x="537.8975" y="138.0234">Better compression</text><path d="M484.8975,151.2207 L494.8975,151.2207 C509.8975,151.2207 509.8975,132.7324 524.8975,132.7324 L534.8975,132.7324" fill="none" style="stroke:#FFB900;stroke-width:3;"/><text fill="#000000" font-family="sans-serif" font-size="14" lengthAdjust="spacing" textLength="110.5918" x="537.8975" y="156.5117">Column pruning</text><path d="M484.8975,151.2207 L494.8975,151.2207 C509.8975,151.2207 509.8975,151.2207 524.8975,151.2207 L534.8975,151.2207" fill="none" style="stroke:#FFB900;stroke-width:3;"/><text fill="#000000" font-family="sans-serif" font-size="14" lengthAdjust="spacing" textLength="127.5313" x="537.8975" y="175">Embedded schema</text><path d="M484.8975,151.2207 L494.8975,151.2207 C509.8975,151.2207 509.8975,169.709 524.8975,169.709 L534.8975,169.709" fill="none" style="stroke:#FFB900;stroke-width:3;"/><path d="M363.1631,179.4648 L373.1631,179.4648 C388.1631,179.4648 388.1631,151.2207 403.1631,151.2207 L413.1631,151.2207" fill="none" style="stroke:#0078D4;stroke-width:3;"/><rect fill="#FFB900" height="36.4883" rx="12.5" ry="12.5" style="stroke:#FFB900;stroke-width:3;" width="49.415" x="413.1631" y="189.4648"/><text fill="#000000" font-family="sans-serif" font-size="14" lengthAdjust="spacing" textLength="29.415" x="423.1631" y="213">ORC</text><text fill="#000000" font-family="sans-serif" font-size="14" lengthAdjust="spacing" textLength="120.6406" x="515.5781" y="203.7559">Similar to Parquet</text><path d="M462.5781,207.709 L472.5781,207.709 C487.5781,207.709 487.5781,198.4648 502.5781,198.4648 L512.5781,198.4648" fill="none" style="stroke:#FFB900;stroke-width:3;"/><text fill="#000000" font-family="sans-serif" font-size="14" lengthAdjust="spacing" textLength="93.8438" x="515.5781" y="222.2441">Good for Hive</text><path d="M462.5781,207.709 L472.5781,207.709 C487.5781,207.709 487.5781,216.9531 502.5781,216.9531 L512.5781,216.9531" fill="none" style="stroke:#FFB900;stroke-width:3;"/><path d="M363.1631,179.4648 L373.1631,179.4648 C388.1631,179.4648 388.1631,207.709 403.1631,207.709 L413.1631,207.709" fill="none" style="stroke:#0078D4;stroke-width:3;"/><path d="M167.4844,150.9648 L177.4844,150.9648 C192.4844,150.9648 192.4844,179.4648 207.4844,179.4648 L217.4844,179.4648" fill="none" style="stroke:#FF5F46;stroke-width:3;"/><rect fill="#0078D4" height="36.4883" rx="12.5" ry="12.5" style="stroke:#0078D4;stroke-width:3;" width="131.1865" x="217.4844" y="245.4414"/><text fill="#FFFFFF" font-family="sans-serif" font-size="14" lengthAdjust="spacing" textLength="111.1865" x="227.4844" y="268.9766">Semi-Structured</text><text fill="#000000" font-family="sans-serif" font-size="14" lengthAdjust="spacing" textLength="129.1582" x="401.6709" y="250.4883">XML / Nested JSON</text><path d="M348.6709,263.6855 L358.6709,263.6855 C373.6709,263.6855 373.6709,245.1973 388.6709,245.1973 L398.6709,245.1973" fill="none" style="stroke:#0078D4;stroke-width:3;"/><text fill="#000000" font-family="sans-serif" font-size="14" lengthAdjust="spacing" textLength="114.1191" x="401.6709" y="268.9766">Hierarchical data</text><path d="M348.6709,263.6855 L358.6709,263.6855 C373.6709,263.6855 373.6709,263.6855 388.6709,263.6855 L398.6709,263.6855" fill="none" style="stroke:#0078D4;stroke-width:3;"/><text fill="#000000" font-family="sans-serif" font-size="14" lengthAdjust="spacing" textLength="165.6689" x="401.6709" y="287.4648">Requires flattening logic</text><path d="M348.6709,263.6855 L358.6709,263.6855 C373.6709,263.6855 373.6709,282.1738 388.6709,282.1738 L398.6709,282.1738" fill="none" style="stroke:#0078D4;stroke-width:3;"/><path d="M167.4844,150.9648 L177.4844,150.9648 C192.4844,150.9648 192.4844,263.6855 207.4844,263.6855 L217.4844,263.6855" fill="none" style="stroke:#FF5F46;stroke-width:3;"/><?plantuml-src VLFRQjj047tNLmpqfJNOKTmqlH1Ai5irbDGfaIbzA9JHQcGDMUqgUp4neV_UrLhAHSMTbnLdHkSoqfvRXyOrhCe6s-JCkfsaZyc7abfNlqnVmNq2eHOeRZP6UrKkjTG6NcJPc-paDFOkMT6_QAQLwz4griFikcPneyXQU3rBap-3rl51hJHz--xJoLXhX3vd7Jd8OZrgpGzgLLNnFat7MYFqlrffhA1Lw3lPpTmVd3WxwjSzWLnx8mWoblHBhNSjmR96WyAHOUjOs6GoWJNTkUa2BPM1pZJeEdG2o_n7Tqv-muLlK4qDOOc5f1xCHKqDmXODOy6ItGxOMa-sxwyq2Dsq9dXbhO2gYWMJ4hj8_ZM_MWr4rF3KEkE5yoPuiBvjjN5zDvfpUkewyqAhBPd8fyD37Hnr0S82VAFGFBF_7Ssjfu5cGIvaVkgeR-pVXTPunMhJWv-RWigoyn93Hhwhw-LWc1kMGStfaSWNhKkemhUuu6stfdsq_25Q4gT-Vhk48rYHTK5Ws4DOCfD18y8_W19ATBY7h-dMSx0CbSGGeJC9KczO9ESKBbT_mPBZsJoTdyxcVm40?></g></svg>