<?plantuml 1.2026.2?><svg xmlns="http://www.w3.org/2000/svg" xmlns:xlink="http://www.w3.org/1999/xlink" contentStyleType="text/css" data-diagram-type="MINDMAP" height="247px" preserveAspectRatio="none" style="width:553px;height:247px;background:#FFFFFF;" version="1.1" viewBox="0 0 553 247" width="553px" zoomAndPan="magnify"><defs/><g><rect fill="#FF5F46" height="52.9766" rx="12.5" ry="12.5" style="stroke:#FF5F46;stroke-width:3;" width="66.1357" x="10" y="96.4883"/><text fill="#FFFFFF" font-family="sans-serif" font-size="14" lengthAdjust="spacing" textLength="32.1836" x="20" y="120.0234">Auto</text><text fill="#FFFFFF" font-family="sans-serif" font-size="14" lengthAdjust="spacing" textLength="46.1357" x="20" y="136.5117">Loader</text><rect fill="#0078D4" height="36.4883" rx="12.5" ry="12.5" style="stroke:#0078D4;stroke-width:3;" width="109.4414" x="126.1357" y="20"/><text fill="#FFFFFF" font-family="sans-serif" font-size="14" lengthAdjust="spacing" textLength="89.4414" x="136.1357" y="43.5352">How it Works</text><text fill="#000000" font-family="sans-serif" font-size="14" lengthAdjust="spacing" textLength="253.1143" x="288.5771" y="25.0469">Tracks processed files via checkpoint</text><path d="M235.5771,38.2441 L245.5771,38.2441 C260.5771,38.2441 260.5771,19.7559 275.5771,19.7559 L285.5771,19.7559" fill="none" style="stroke:#0078D4;stroke-width:3;"/><text fill="#000000" font-family="sans-serif" font-size="14" lengthAdjust="spacing" textLength="234.3701" x="288.5771" y="43.5352">Directory listing or file notification</text><path d="M235.5771,38.2441 L245.5771,38.2441 C260.5771,38.2441 260.5771,38.2441 275.5771,38.2441 L285.5771,38.2441" fill="none" style="stroke:#0078D4;stroke-width:3;"/><text fill="#000000" font-family="sans-serif" font-size="14" lengthAdjust="spacing" textLength="166.3115" x="288.5771" y="62.0234">Exactly-once processing</text><path d="M235.5771,38.2441 L245.5771,38.2441 C260.5771,38.2441 260.5771,56.7324 275.5771,56.7324 L285.5771,56.7324" fill="none" style="stroke:#0078D4;stroke-width:3;"/><path d="M76.1357,122.9766 L86.1357,122.9766 C101.1357,122.9766 101.1357,38.2441 116.1357,38.2441 L126.1357,38.2441" fill="none" style="stroke:#FF5F46;stroke-width:3;"/><rect fill="#0078D4" height="36.4883" rx="12.5" ry="12.5" style="stroke:#0078D4;stroke-width:3;" width="99.1328" x="126.1357" y="76.4883"/><text fill="#FFFFFF" font-family="sans-serif" font-size="14" lengthAdjust="spacing" textLength="79.1328" x="136.1357" y="100.0234">Capabilities</text><text fill="#000000" font-family="sans-serif" font-size="14" lengthAdjust="spacing" textLength="200.874" x="278.2686" y="81.5352">Schema inference &amp; evolution</text><path d="M225.2686,94.7324 L235.2686,94.7324 C250.2686,94.7324 250.2686,76.2441 265.2686,76.2441 L275.2686,76.2441" fill="none" style="stroke:#0078D4;stroke-width:3;"/><text fill="#000000" font-family="sans-serif" font-size="14" lengthAdjust="spacing" textLength="159.1406" x="278.2686" y="100.0234">Handles billions of files</text><path d="M225.2686,94.7324 L235.2686,94.7324 C250.2686,94.7324 250.2686,94.7324 265.2686,94.7324 L275.2686,94.7324" fill="none" style="stroke:#0078D4;stroke-width:3;"/><text fill="#000000" font-family="sans-serif" font-size="14" lengthAdjust="spacing" textLength="247.3105" x="278.2686" y="118.5117">Supports JSON, CSV, Parquet, Avro...</text><path d="M225.2686,94.7324 L235.2686,94.7324 C250.2686,94.7324 250.2686,113.2207 265.2686,113.2207 L275.2686,113.2207" fill="none" style="stroke:#0078D4;stroke-width:3;"/><path d="M76.1357,122.9766 L86.1357,122.9766 C101.1357,122.9766 101.1357,94.7324 116.1357,94.7324 L126.1357,94.7324" fill="none" style="stroke:#FF5F46;stroke-width:3;"/><rect fill="#0078D4" height="36.4883" rx="12.5" ry="12.5" style="stroke:#0078D4;stroke-width:3;" width="88.5576" x="126.1357" y="132.9766"/><text fill="#FFFFFF" font-family="sans-serif" font-size="14" lengthAdjust="spacing" textLength="68.5576" x="136.1357" y="156.5117">Use Cases</text><text fill="#000000" font-family="sans-serif" font-size="14" lengthAdjust="spacing" textLength="228.0811" x="267.6934" y="138.0234">Log files arriving in cloud storage</text><path d="M214.6934,151.2207 L224.6934,151.2207 C239.6934,151.2207 239.6934,132.7324 254.6934,132.7324 L264.6934,132.7324" fill="none" style="stroke:#0078D4;stroke-width:3;"/><text fill="#000000" font-family="sans-serif" font-size="14" lengthAdjust="spacing" textLength="131.0381" x="267.6934" y="156.5117">Data landing zones</text><path d="M214.6934,151.2207 L224.6934,151.2207 C239.6934,151.2207 239.6934,151.2207 254.6934,151.2207 L264.6934,151.2207" fill="none" style="stroke:#0078D4;stroke-width:3;"/><text fill="#000000" font-family="sans-serif" font-size="14" lengthAdjust="spacing" textLength="235.6689" x="267.6934" y="175">Ongoing incremental file ingestion</text><path d="M214.6934,151.2207 L224.6934,151.2207 C239.6934,151.2207 239.6934,169.709 254.6934,169.709 L264.6934,169.709" fill="none" style="stroke:#0078D4;stroke-width:3;"/><path d="M76.1357,122.9766 L86.1357,122.9766 C101.1357,122.9766 101.1357,151.2207 116.1357,151.2207 L126.1357,151.2207" fill="none" style="stroke:#FF5F46;stroke-width:3;"/><rect fill="#0078D4" height="36.4883" rx="12.5" ry="12.5" style="stroke:#0078D4;stroke-width:3;" width="94.5186" x="126.1357" y="189.4648"/><text fill="#FFFFFF" font-family="sans-serif" font-size="14" lengthAdjust="spacing" textLength="74.5186" x="136.1357" y="213">Integration</text><text fill="#000000" font-family="sans-serif" font-size="14" lengthAdjust="spacing" textLength="203.5469" x="273.6543" y="203.7559">Works with Lakeflow Pipelines</text><path d="M220.6543,207.709 L230.6543,207.709 C245.6543,207.709 245.6543,198.4648 260.6543,198.4648 L270.6543,198.4648" fill="none" style="stroke:#0078D4;stroke-width:3;"/><text fill="#000000" font-family="sans-serif" font-size="14" lengthAdjust="spacing" textLength="222.8721" x="273.6543" y="222.2441">Works with Structured Streaming</text><path d="M220.6543,207.709 L230.6543,207.709 C245.6543,207.709 245.6543,216.9531 260.6543,216.9531 L270.6543,216.9531" fill="none" style="stroke:#0078D4;stroke-width:3;"/><path d="M76.1357,122.9766 L86.1357,122.9766 C101.1357,122.9766 101.1357,207.709 116.1357,207.709 L126.1357,207.709" fill="none" style="stroke:#FF5F46;stroke-width:3;"/><?plantuml-src VLDTRzD047pthrW92K4KZ1jA-L25MbAiWY9QAGLUaD3bl7PMFj-QktNQKF7VEN-aBKPXd-ovsPdPFTs95-Ma8fjLgewElMmDlelUPbZB-ado56uZ2FLUwR9mtDXipeOTF4hJb-dXKNUs88l_eYbR6T2ygplkrPfqQT5xU14dqU-Try5UhoHvzVhiSEmrGlzM7IL8kxhtcktrolFLcoGPUutG_tebNGMl5T-ObdExbt7yV5Zt14uRuUzsmIf35qqcSCxNG0BVs9K-_4z-m9KBMJtKZdLGnGno2lAm8GLwZRgicQpqr3Dog8NT5Wnv8Lj0i6tfO5ae9ws4sFRS3pTAYza-Owjn9nuwsWnpLQiL6HB28SCoE5KAoERei6ru3BXXqzpBdIkRjR52dmcW1yxxe8D0KzVinCEdvSNdASoNNwTmgTpF1cKAfnl7SHotrbyy1dk_QrjmCOohdADDEn5Pq8QR37mOL1KuJAv4WGaPMieljZk12rjmtwKTLcX5cNuX0KG_n8UFLh1m3vRJhH-kITQmK2Nc9jpA9TLew4xv0MKfhj7Ik70tuHDLrUxn1CFB6bvNT13FajbHFFi3?></g></svg>