<?plantuml 1.2026.2?><svg xmlns="http://www.w3.org/2000/svg" xmlns:xlink="http://www.w3.org/1999/xlink" contentStyleType="text/css" data-diagram-type="MINDMAP" height="247px" preserveAspectRatio="none" style="width:578px;height:247px;background:#FFFFFF;" version="1.1" viewBox="0 0 578 247" width="578px" zoomAndPan="magnify"><defs/><g><rect fill="#FF5F46" height="36.4883" rx="12.5" ry="12.5" style="stroke:#FF5F46;stroke-width:3;" width="95.5576" x="10" y="104.7324"/><text fill="#FFFFFF" font-family="sans-serif" font-size="14" lengthAdjust="spacing" textLength="75.5576" x="20" y="128.2676">COPY INTO</text><rect fill="#0078D4" height="36.4883" rx="12.5" ry="12.5" style="stroke:#0078D4;stroke-width:3;" width="109.4414" x="155.5576" y="20"/><text fill="#FFFFFF" font-family="sans-serif" font-size="14" lengthAdjust="spacing" textLength="89.4414" x="165.5576" y="43.5352">How it Works</text><text fill="#000000" font-family="sans-serif" font-size="14" lengthAdjust="spacing" textLength="138.7627" x="317.999" y="25.0469">Batch SQL command</text><path d="M264.999,38.2441 L274.999,38.2441 C289.999,38.2441 289.999,19.7559 304.999,19.7559 L314.999,19.7559" fill="none" style="stroke:#0078D4;stroke-width:3;"/><text fill="#000000" font-family="sans-serif" font-size="14" lengthAdjust="spacing" textLength="236.3936" x="317.999" y="43.5352">Idempotent - skips processed files</text><path d="M264.999,38.2441 L274.999,38.2441 C289.999,38.2441 289.999,38.2441 304.999,38.2441 L314.999,38.2441" fill="none" style="stroke:#0078D4;stroke-width:3;"/><text fill="#000000" font-family="sans-serif" font-size="14" lengthAdjust="spacing" textLength="228.5459" x="317.999" y="62.0234">Tracking via Delta transaction log</text><path d="M264.999,38.2441 L274.999,38.2441 C289.999,38.2441 289.999,56.7324 304.999,56.7324 L314.999,56.7324" fill="none" style="stroke:#0078D4;stroke-width:3;"/><path d="M105.5576,122.9766 L115.5576,122.9766 C130.5576,122.9766 130.5576,38.2441 145.5576,38.2441 L155.5576,38.2441" fill="none" style="stroke:#FF5F46;stroke-width:3;"/><rect fill="#0078D4" height="36.4883" rx="12.5" ry="12.5" style="stroke:#0078D4;stroke-width:3;" width="74.4893" x="155.5576" y="76.4883"/><text fill="#FFFFFF" font-family="sans-serif" font-size="14" lengthAdjust="spacing" textLength="54.4893" x="165.5576" y="100.0234">Best For</text><text fill="#000000" font-family="sans-serif" font-size="14" lengthAdjust="spacing" textLength="177.0029" x="283.0469" y="81.5352">One-time data migrations</text><path d="M230.0469,94.7324 L240.0469,94.7324 C255.0469,94.7324 255.0469,76.2441 270.0469,76.2441 L280.0469,76.2441" fill="none" style="stroke:#0078D4;stroke-width:3;"/><text fill="#000000" font-family="sans-serif" font-size="14" lengthAdjust="spacing" textLength="152.1816" x="283.0469" y="100.0234">Scheduled batch loads</text><path d="M230.0469,94.7324 L240.0469,94.7324 C255.0469,94.7324 255.0469,94.7324 270.0469,94.7324 L280.0469,94.7324" fill="none" style="stroke:#0078D4;stroke-width:3;"/><text fill="#000000" font-family="sans-serif" font-size="14" lengthAdjust="spacing" textLength="134.7227" x="283.0469" y="118.5117">SQL-first workflows</text><path d="M230.0469,94.7324 L240.0469,94.7324 C255.0469,94.7324 255.0469,113.2207 270.0469,113.2207 L280.0469,113.2207" fill="none" style="stroke:#0078D4;stroke-width:3;"/><path d="M105.5576,122.9766 L115.5576,122.9766 C130.5576,122.9766 130.5576,94.7324 145.5576,94.7324 L155.5576,94.7324" fill="none" style="stroke:#FF5F46;stroke-width:3;"/><rect fill="#0078D4" height="36.4883" rx="12.5" ry="12.5" style="stroke:#0078D4;stroke-width:3;" width="98.7705" x="155.5576" y="132.9766"/><text fill="#FFFFFF" font-family="sans-serif" font-size="14" lengthAdjust="spacing" textLength="78.7705" x="165.5576" y="156.5117">Advantages</text><text fill="#000000" font-family="sans-serif" font-size="14" lengthAdjust="spacing" textLength="140.8477" x="307.3281" y="138.0234">Simple configuration</text><path d="M254.3281,151.2207 L264.3281,151.2207 C279.3281,151.2207 279.3281,132.7324 294.3281,132.7324 L304.3281,132.7324" fill="none" style="stroke:#0078D4;stroke-width:3;"/><text fill="#000000" font-family="sans-serif" font-size="14" lengthAdjust="spacing" textLength="188.7266" x="307.3281" y="156.5117">No streaming infrastructure</text><path d="M254.3281,151.2207 L264.3281,151.2207 C279.3281,151.2207 279.3281,151.2207 294.3281,151.2207 L304.3281,151.2207" fill="none" style="stroke:#0078D4;stroke-width:3;"/><text fill="#000000" font-family="sans-serif" font-size="14" lengthAdjust="spacing" textLength="138.0039" x="307.3281" y="175">Predictable behavior</text><path d="M254.3281,151.2207 L264.3281,151.2207 C279.3281,151.2207 279.3281,169.709 294.3281,169.709 L304.3281,169.709" fill="none" style="stroke:#0078D4;stroke-width:3;"/><path d="M105.5576,122.9766 L115.5576,122.9766 C130.5576,122.9766 130.5576,151.2207 145.5576,151.2207 L155.5576,151.2207" fill="none" style="stroke:#FF5F46;stroke-width:3;"/><rect fill="#0078D4" height="36.4883" rx="12.5" ry="12.5" style="stroke:#0078D4;stroke-width:3;" width="125.9912" x="155.5576" y="189.4648"/><text fill="#FFFFFF" font-family="sans-serif" font-size="14" lengthAdjust="spacing" textLength="105.9912" x="165.5576" y="213">vs. Auto Loader</text><text fill="#000000" font-family="sans-serif" font-size="14" lengthAdjust="spacing" textLength="189.8271" x="334.5488" y="203.7559">COPY INTO: one-time batch</text><path d="M281.5488,207.709 L291.5488,207.709 C306.5488,207.709 306.5488,198.4648 321.5488,198.4648 L331.5488,198.4648" fill="none" style="stroke:#0078D4;stroke-width:3;"/><text fill="#000000" font-family="sans-serif" font-size="14" lengthAdjust="spacing" textLength="232.1279" x="334.5488" y="222.2441">Auto Loader: ongoing incremental</text><path d="M281.5488,207.709 L291.5488,207.709 C306.5488,207.709 306.5488,216.9531 321.5488,216.9531 L331.5488,216.9531" fill="none" style="stroke:#0078D4;stroke-width:3;"/><path d="M105.5576,122.9766 L115.5576,122.9766 C130.5576,122.9766 130.5576,207.709 145.5576,207.709 L155.5576,207.709" fill="none" style="stroke:#FF5F46;stroke-width:3;"/><?plantuml-src VPFRQXj138Rlzoa4lKaDTZTkchOXb9nO6Z1nWWsbLs5sHhixU0xBZDPk2NdtQWzEsYsExYJze--NO2uYYK1MEsL5dPn7-ctmMtAciARgA7qFJmbmN0cvAODldBhsnWTubsMVifFJhhVG3l-lPjxHK2swUD6kAoqt3cE4ZxCqUTwpZW-oqlJpbvkJCMjK_NVgo47MnIjhVf1L5FdND1spHjKtMMaNpChzBzDgdWugpZyCvvx0zVB-9zpUhPV9P0BV_GuqmGyVDf7poIFx95d1wc41qbihdEhBjmfjxGaTmHJYHjSHwk0bKr51eHdVwzQ1zzIkXAqMS8E6150GBWf9sZimlconLnY9VOR-pTBXbBH5K8BbLfT1jE9XuafMg1h3cBopPhnG-zR3ObhemBDsl41X_AvjmANQ2aUYt7jQQLiRv7rSeSkc7zvtxZn42YXiwrYx8WXE6qbDm5vm7r1fIIBdzpbMOgixqx2DCxXioCE2tU2mnyjbpy3lL-eyz-s_zAsWz3rK1hHyLc6I2-IlCNoFv7WsJ-Udi_aV?></g></svg>