<?plantuml 1.2026.2?><svg xmlns="http://www.w3.org/2000/svg" xmlns:xlink="http://www.w3.org/1999/xlink" contentStyleType="text/css" data-diagram-type="MINDMAP" height="313px" preserveAspectRatio="none" style="width:589px;height:313px;background:#FFFFFF;" version="1.1" viewBox="0 0 589 313" width="589px" zoomAndPan="magnify"><defs/><g><rect fill="#FF5F46" height="52.9766" rx="12.5" ry="12.5" style="stroke:#FF5F46;stroke-width:3;" width="117.4873" x="10" y="129.0986"/><text fill="#FFFFFF" font-family="sans-serif" font-size="14" lengthAdjust="spacing" textLength="97.4873" x="20" y="152.6338">Ingestion Tool</text><text fill="#FFFFFF" font-family="sans-serif" font-size="14" lengthAdjust="spacing" textLength="71.3467" x="20" y="169.1221">Landscape</text><rect fill="#0078D4" height="36.4883" rx="12.5" ry="12.5" style="stroke:#0078D4;stroke-width:3;" width="161.2646" x="177.4873" y="20"/><text fill="#FFFFFF" font-family="sans-serif" font-size="14" lengthAdjust="spacing" textLength="141.2646" x="187.4873" y="43.5352">Managed (Low Code)</text><text fill="#000000" font-family="sans-serif" font-size="14" lengthAdjust="spacing" textLength="120.0596" x="391.752" y="25.0469">Lakeflow Connect</text><path d="M338.752,38.2441 L348.752,38.2441 C363.752,38.2441 363.752,19.7559 378.752,19.7559 L388.752,19.7559" fill="none" style="stroke:#0078D4;stroke-width:3;"/><text fill="#000000" font-family="sans-serif" font-size="14" lengthAdjust="spacing" textLength="134.5039" x="391.752" y="43.5352">Turnkey connectors</text><path d="M338.752,38.2441 L348.752,38.2441 C363.752,38.2441 363.752,38.2441 378.752,38.2441 L388.752,38.2441" fill="none" style="stroke:#0078D4;stroke-width:3;"/><text fill="#000000" font-family="sans-serif" font-size="14" lengthAdjust="spacing" textLength="155.5928" x="391.752" y="62.0234">Auto schema evolution</text><path d="M338.752,38.2441 L348.752,38.2441 C363.752,38.2441 363.752,56.7324 378.752,56.7324 L388.752,56.7324" fill="none" style="stroke:#0078D4;stroke-width:3;"/><path d="M127.4873,155.5869 L137.4873,155.5869 C152.4873,155.5869 152.4873,38.2441 167.4873,38.2441 L177.4873,38.2441" fill="none" style="stroke:#FF5F46;stroke-width:3;"/><rect fill="#0078D4" height="36.4883" rx="12.5" ry="12.5" style="stroke:#0078D4;stroke-width:3;" width="122.1084" x="177.4873" y="76.4883"/><text fill="#FFFFFF" font-family="sans-serif" font-size="14" lengthAdjust="spacing" textLength="102.1084" x="187.4873" y="100.0234">Semi-Managed</text><text fill="#000000" font-family="sans-serif" font-size="14" lengthAdjust="spacing" textLength="82.749" x="352.5957" y="90.7793">Auto Loader</text><path d="M299.5957,94.7324 L309.5957,94.7324 C324.5957,94.7324 324.5957,85.4883 339.5957,85.4883 L349.5957,85.4883" fill="none" style="stroke:#0078D4;stroke-width:3;"/><text fill="#000000" font-family="sans-serif" font-size="14" lengthAdjust="spacing" textLength="75.5576" x="352.5957" y="109.2676">COPY INTO</text><path d="M299.5957,94.7324 L309.5957,94.7324 C324.5957,94.7324 324.5957,103.9766 339.5957,103.9766 L349.5957,103.9766" fill="none" style="stroke:#0078D4;stroke-width:3;"/><path d="M127.4873,155.5869 L137.4873,155.5869 C152.4873,155.5869 152.4873,94.7324 167.4873,94.7324 L177.4873,94.7324" fill="none" style="stroke:#FF5F46;stroke-width:3;"/><rect fill="#0078D4" height="36.4883" rx="12.5" ry="12.5" style="stroke:#0078D4;stroke-width:3;" width="161.2715" x="177.4873" y="132.9766"/><text fill="#FFFFFF" font-family="sans-serif" font-size="14" lengthAdjust="spacing" textLength="141.2715" x="187.4873" y="156.5117">Custom / Code-First</text><text fill="#000000" font-family="sans-serif" font-size="14" lengthAdjust="spacing" textLength="186.0537" x="391.7588" y="147.2676">Spark Structured Streaming</text><path d="M338.7588,151.2207 L348.7588,151.2207 C363.7588,151.2207 363.7588,141.9766 378.7588,141.9766 L388.7588,141.9766" fill="none" style="stroke:#0078D4;stroke-width:3;"/><text fill="#000000" font-family="sans-serif" font-size="14" lengthAdjust="spacing" textLength="155.1074" x="391.7588" y="165.7559">JDBC/ODBC notebooks</text><path d="M338.7588,151.2207 L348.7588,151.2207 C363.7588,151.2207 363.7588,160.4648 378.7588,160.4648 L388.7588,160.4648" fill="none" style="stroke:#0078D4;stroke-width:3;"/><path d="M127.4873,155.5869 L137.4873,155.5869 C152.4873,155.5869 152.4873,151.2207 167.4873,151.2207 L177.4873,151.2207" fill="none" style="stroke:#FF5F46;stroke-width:3;"/><rect fill="#0078D4" height="36.4883" rx="12.5" ry="12.5" style="stroke:#0078D4;stroke-width:3;" width="112.668" x="177.4873" y="189.4648"/><text fill="#FFFFFF" font-family="sans-serif" font-size="14" lengthAdjust="spacing" textLength="92.668" x="187.4873" y="213">Orchestration</text><text fill="#000000" font-family="sans-serif" font-size="14" lengthAdjust="spacing" textLength="129.2334" x="343.1553" y="203.7559">Azure Data Factory</text><path d="M290.1553,207.709 L300.1553,207.709 C315.1553,207.709 315.1553,198.4648 330.1553,198.4648 L340.1553,198.4648" fill="none" style="stroke:#0078D4;stroke-width:3;"/><text fill="#000000" font-family="sans-serif" font-size="14" lengthAdjust="spacing" textLength="172.4775" x="343.1553" y="222.2441">Broader Azure ecosystem</text><path d="M290.1553,207.709 L300.1553,207.709 C315.1553,207.709 315.1553,216.9531 330.1553,216.9531 L340.1553,216.9531" fill="none" style="stroke:#0078D4;stroke-width:3;"/><path d="M127.4873,155.5869 L137.4873,155.5869 C152.4873,155.5869 152.4873,207.709 167.4873,207.709 L177.4873,207.709" fill="none" style="stroke:#FF5F46;stroke-width:3;"/><rect fill="#0078D4" height="36.4883" rx="12.5" ry="12.5" style="stroke:#0078D4;stroke-width:3;" width="134.4678" x="177.4873" y="245.9531"/><text fill="#FFFFFF" font-family="sans-serif" font-size="14" lengthAdjust="spacing" textLength="114.4678" x="187.4873" y="269.4883">Selection Factors</text><text fill="#000000" font-family="sans-serif" font-size="14" lengthAdjust="spacing" textLength="79.1191" x="364.9551" y="241.7559">Source type</text><path d="M311.9551,264.1973 L321.9551,264.1973 C336.9551,264.1973 336.9551,236.4648 351.9551,236.4648 L361.9551,236.4648" fill="none" style="stroke:#0078D4;stroke-width:3;"/><text fill="#000000" font-family="sans-serif" font-size="14" lengthAdjust="spacing" textLength="146.3711" x="364.9551" y="260.2441">Latency requirements</text><path d="M311.9551,264.1973 L321.9551,264.1973 C336.9551,264.1973 336.9551,254.9531 351.9551,254.9531 L361.9551,254.9531" fill="none" style="stroke:#0078D4;stroke-width:3;"/><text fill="#000000" font-family="sans-serif" font-size="14" lengthAdjust="spacing" textLength="152.4756" x="364.9551" y="278.7324">Maintenance overhead</text><path d="M311.9551,264.1973 L321.9551,264.1973 C336.9551,264.1973 336.9551,273.4414 351.9551,273.4414 L361.9551,273.4414" fill="none" style="stroke:#0078D4;stroke-width:3;"/><text fill="#000000" font-family="sans-serif" font-size="14" lengthAdjust="spacing" textLength="76.4805" x="364.9551" y="297.2207">Team skills</text><path d="M311.9551,264.1973 L321.9551,264.1973 C336.9551,264.1973 336.9551,291.9297 351.9551,291.9297 L361.9551,291.9297" fill="none" style="stroke:#0078D4;stroke-width:3;"/><path d="M127.4873,155.5869 L137.4873,155.5869 C152.4873,155.5869 152.4873,264.1973 167.4873,264.1973 L177.4873,264.1973" fill="none" style="stroke:#FF5F46;stroke-width:3;"/><?plantuml-src VPDRQzj048NVzIi6-f8OOYjkcbu89RMC84M92zPBeH36gx6zIDfnzv9M3VtlMQssJQlYpeCGtvpTSsQGher5RLkfgXOFoPMnNKFlatSL7Up-93s5nmHyBL3KEyrELHathE55dh_ABov3hv2A_gKvAnlfDjHlRRcNebPa3BoSfidFNrxdHxtIzFMRvSNOQqJ_ldMK80_rx3K_whNTRjwcwTXhHF_hbORoNXl-tlIQnwEAgrbSzmHkr8wCbQoWP6w-g09LPGGUA9bCu1OLxgY2auA_GSOLdNewkOS2QzesWIb5mWwqT5hLr84O86ipy0_ECXYnfnQ17hXnlLr__PfQUHOz_f0MZ1Nf0MIhJv_XvgvSzVhC6Sijp4AKirng4vtN1zGrhArsmZhj0_jNGlzjxOR-n-KYcwty0nHRsZ3NVJHOQH_AM8qnK1_WXpyFIxG8EVOpT0DVw10gzacmwOobTfYYyTFs6nnEnAdNxBGWi5rOPLYQ9IKwqFJLIKqjAHkbjoYLxw7oUduWlIUC-oZz561gsJGckIR_gyJV9JcVpjFvvNJ-1000?></g></svg>