<?plantuml 1.2026.2?><svg xmlns="http://www.w3.org/2000/svg" xmlns:xlink="http://www.w3.org/1999/xlink" contentStyleType="text/css" data-diagram-type="MINDMAP" height="247px" preserveAspectRatio="none" style="width:619px;height:247px;background:#FFFFFF;" version="1.1" viewBox="0 0 619 247" width="619px" zoomAndPan="magnify"><defs/><g><rect fill="#FF5F46" height="52.9766" rx="12.5" ry="12.5" style="stroke:#FF5F46;stroke-width:3;" width="107.8828" x="10" y="96.4883"/><text fill="#FFFFFF" font-family="sans-serif" font-size="14" lengthAdjust="spacing" textLength="87.8828" x="20" y="120.0234">JDBC / ODBC</text><text fill="#FFFFFF" font-family="sans-serif" font-size="14" lengthAdjust="spacing" textLength="84.3418" x="20" y="136.5117">Connections</text><rect fill="#0078D4" height="36.4883" rx="12.5" ry="12.5" style="stroke:#0078D4;stroke-width:3;" width="164.2588" x="167.8828" y="20"/><text fill="#FFFFFF" font-family="sans-serif" font-size="14" lengthAdjust="spacing" textLength="144.2588" x="177.8828" y="43.5352">Supported Databases</text><text fill="#000000" font-family="sans-serif" font-size="14" lengthAdjust="spacing" textLength="124.3662" x="385.1416" y="25.0469">SQL Server, Oracle</text><path d="M332.1416,38.2441 L342.1416,38.2441 C357.1416,38.2441 357.1416,19.7559 372.1416,19.7559 L382.1416,19.7559" fill="none" style="stroke:#0078D4;stroke-width:3;"/><text fill="#000000" font-family="sans-serif" font-size="14" lengthAdjust="spacing" textLength="130.9629" x="385.1416" y="43.5352">PostgreSQL, MySQL</text><path d="M332.1416,38.2441 L342.1416,38.2441 C357.1416,38.2441 357.1416,38.2441 372.1416,38.2441 L382.1416,38.2441" fill="none" style="stroke:#0078D4;stroke-width:3;"/><text fill="#000000" font-family="sans-serif" font-size="14" lengthAdjust="spacing" textLength="152.9063" x="385.1416" y="62.0234">Any JDBC/ODBC driver</text><path d="M332.1416,38.2441 L342.1416,38.2441 C357.1416,38.2441 357.1416,56.7324 372.1416,56.7324 L382.1416,56.7324" fill="none" style="stroke:#0078D4;stroke-width:3;"/><path d="M117.8828,122.9766 L127.8828,122.9766 C142.8828,122.9766 142.8828,38.2441 157.8828,38.2441 L167.8828,38.2441" fill="none" style="stroke:#FF5F46;stroke-width:3;"/><rect fill="#0078D4" height="36.4883" rx="12.5" ry="12.5" style="stroke:#0078D4;stroke-width:3;" width="126.8594" x="167.8828" y="76.4883"/><text fill="#FFFFFF" font-family="sans-serif" font-size="14" lengthAdjust="spacing" textLength="106.8594" x="177.8828" y="100.0234">Implementation</text><text fill="#000000" font-family="sans-serif" font-size="14" lengthAdjust="spacing" textLength="168.2393" x="347.7422" y="81.5352">Full or incremental loads</text><path d="M294.7422,94.7324 L304.7422,94.7324 C319.7422,94.7324 319.7422,76.2441 334.7422,76.2441 L344.7422,76.2441" fill="none" style="stroke:#0078D4;stroke-width:3;"/><text fill="#000000" font-family="sans-serif" font-size="14" lengthAdjust="spacing" textLength="218.8662" x="347.7422" y="100.0234">Watermark columns for tracking</text><path d="M294.7422,94.7324 L304.7422,94.7324 C319.7422,94.7324 319.7422,94.7324 334.7422,94.7324 L344.7422,94.7324" fill="none" style="stroke:#0078D4;stroke-width:3;"/><text fill="#000000" font-family="sans-serif" font-size="14" lengthAdjust="spacing" textLength="259.8271" x="347.7422" y="118.5117">Store credentials in Databricks secrets</text><path d="M294.7422,94.7324 L304.7422,94.7324 C319.7422,94.7324 319.7422,113.2207 334.7422,113.2207 L344.7422,113.2207" fill="none" style="stroke:#0078D4;stroke-width:3;"/><path d="M117.8828,122.9766 L127.8828,122.9766 C142.8828,122.9766 142.8828,94.7324 157.8828,94.7324 L167.8828,94.7324" fill="none" style="stroke:#FF5F46;stroke-width:3;"/><rect fill="#0078D4" height="36.4883" rx="12.5" ry="12.5" style="stroke:#0078D4;stroke-width:3;" width="158.626" x="167.8828" y="132.9766"/><text fill="#FFFFFF" font-family="sans-serif" font-size="14" lengthAdjust="spacing" textLength="138.626" x="177.8828" y="156.5117">On-Premises Access</text><text fill="#000000" font-family="sans-serif" font-size="14" lengthAdjust="spacing" textLength="135.3994" x="379.5088" y="147.2676">ExpressRoute / VPN</text><path d="M326.5088,151.2207 L336.5088,151.2207 C351.5088,151.2207 351.5088,141.9766 366.5088,141.9766 L376.5088,141.9766" fill="none" style="stroke:#0078D4;stroke-width:3;"/><text fill="#000000" font-family="sans-serif" font-size="14" lengthAdjust="spacing" textLength="163.0918" x="379.5088" y="165.7559">ADF with Self-Hosted IR</text><path d="M326.5088,151.2207 L336.5088,151.2207 C351.5088,151.2207 351.5088,160.4648 366.5088,160.4648 L376.5088,160.4648" fill="none" style="stroke:#0078D4;stroke-width:3;"/><path d="M117.8828,122.9766 L127.8828,122.9766 C142.8828,122.9766 142.8828,151.2207 157.8828,151.2207 L167.8828,151.2207" fill="none" style="stroke:#FF5F46;stroke-width:3;"/><rect fill="#0078D4" height="36.4883" rx="12.5" ry="12.5" style="stroke:#0078D4;stroke-width:3;" width="148.3311" x="167.8828" y="189.4648"/><text fill="#FFFFFF" font-family="sans-serif" font-size="14" lengthAdjust="spacing" textLength="128.3311" x="177.8828" y="213">When Still Relevant</text><text fill="#000000" font-family="sans-serif" font-size="14" lengthAdjust="spacing" textLength="187.1475" x="369.2139" y="194.5117">DB not in Lakeflow Connect</text><path d="M316.2139,207.709 L326.2139,207.709 C341.2139,207.709 341.2139,189.2207 356.2139,189.2207 L366.2139,189.2207" fill="none" style="stroke:#0078D4;stroke-width:3;"/><text fill="#000000" font-family="sans-serif" font-size="14" lengthAdjust="spacing" textLength="216.8359" x="369.2139" y="213">Custom extraction logic needed</text><path d="M316.2139,207.709 L326.2139,207.709 C341.2139,207.709 341.2139,207.709 356.2139,207.709 L366.2139,207.709" fill="none" style="stroke:#0078D4;stroke-width:3;"/><text fill="#000000" font-family="sans-serif" font-size="14" lengthAdjust="spacing" textLength="119.6768" x="369.2139" y="231.4883">Existing pipelines</text><path d="M316.2139,207.709 L326.2139,207.709 C341.2139,207.709 341.2139,226.1973 356.2139,226.1973 L366.2139,226.1973" fill="none" style="stroke:#0078D4;stroke-width:3;"/><path d="M117.8828,122.9766 L127.8828,122.9766 C142.8828,122.9766 142.8828,207.709 157.8828,207.709 L167.8828,207.709" fill="none" style="stroke:#FF5F46;stroke-width:3;"/><?plantuml-src VLFRQjj047tNLmpqfJM9hRXfUY6Kn5P54zpQiKlpKYXhQMGlMisAtL5Y4_hl7LsI41LtNXQTcPrpGNlXMJakDAM5AeDpptk3duDFAPQyVHs-WOS0f2OgoJVELfHEhR4ENiNnk_ZqhEdDDE6_Q6o9EpHhwcdsnrOdEQ7ty7OO1dyUkKuESeNX-m_HQP-hXxxSsbCGD_NCDJx8bMNhZs7Ov-gX_-KAcnAkjTsPUkRXuCJvg8jx0DVHP0eZcClnYwQM21FMbdmm6C2gAalh65E85AkrybZ3Wz-mkfd12jqTkYEOEvKORF65zRnnAEqZ-BQNeuKlQT_mZ6eMI9sMY_N-gw8qM22ngYdRsRWo1aIifiIrFGF6ghHZlbMChb0kXyIQgY0FcGopQCWrRJfrR1s2N4_bkbR6oxBMWPFuF7YK7ZSEvtIy41ejpk0oIIIrTiMNNUdaOsahHaddv-9xvoIAuLxpLjoRxFYhs9LmhfRrgjijab1haRz4WtUAkBqJJO0irnfcAiVCs7leScxxqygpBG1tjOiw2F6xqGaGYe7qKO_sB0QXr2KQ-HDyS87oShhN4vmCn-7uR3Z-2m00?></g></svg>