<?plantuml 1.2026.2?><svg xmlns="http://www.w3.org/2000/svg" xmlns:xlink="http://www.w3.org/1999/xlink" contentStyleType="text/css" data-diagram-type="MINDMAP" height="264px" preserveAspectRatio="none" style="width:629px;height:264px;background:#FFFFFF;" version="1.1" viewBox="0 0 629 264" width="629px" zoomAndPan="magnify"><defs/><g><rect fill="#FF5F46" height="52.9766" rx="12.5" ry="12.5" style="stroke:#FF5F46;stroke-width:3;" width="79.7598" x="10" y="104.9648"/><text fill="#FFFFFF" font-family="sans-serif" font-size="14" lengthAdjust="spacing" textLength="59.7598" x="20" y="128.5">Lakeflow</text><text fill="#FFFFFF" font-family="sans-serif" font-size="14" lengthAdjust="spacing" textLength="55.8701" x="20" y="144.9883">Connect</text><rect fill="#0078D4" height="36.4883" rx="12.5" ry="12.5" style="stroke:#0078D4;stroke-width:3;" width="163.3154" x="139.7598" y="28.7324"/><text fill="#FFFFFF" font-family="sans-serif" font-size="14" lengthAdjust="spacing" textLength="143.3154" x="149.7598" y="52.2676">Managed Connectors</text><text fill="#000000" font-family="sans-serif" font-size="14" lengthAdjust="spacing" textLength="235.2793" x="356.0752" y="24.5352">Salesforce, ServiceNow, SharePoint</text><path d="M303.0752,46.9766 L313.0752,46.9766 C328.0752,46.9766 328.0752,19.2441 343.0752,19.2441 L353.0752,19.2441" fill="none" style="stroke:#0078D4;stroke-width:3;"/><text fill="#000000" font-family="sans-serif" font-size="14" lengthAdjust="spacing" textLength="261.5703" x="356.0752" y="43.0234">SQL Server, Google Analytics, Workday</text><path d="M303.0752,46.9766 L313.0752,46.9766 C328.0752,46.9766 328.0752,37.7324 343.0752,37.7324 L353.0752,37.7324" fill="none" style="stroke:#0078D4;stroke-width:3;"/><text fill="#000000" font-family="sans-serif" font-size="14" lengthAdjust="spacing" textLength="190.7363" x="356.0752" y="61.5117">Handles auth &amp; rate limiting</text><path d="M303.0752,46.9766 L313.0752,46.9766 C328.0752,46.9766 328.0752,56.2207 343.0752,56.2207 L353.0752,56.2207" fill="none" style="stroke:#0078D4;stroke-width:3;"/><text fill="#000000" font-family="sans-serif" font-size="14" lengthAdjust="spacing" textLength="131.7695" x="356.0752" y="80">Serverless compute</text><path d="M303.0752,46.9766 L313.0752,46.9766 C328.0752,46.9766 328.0752,74.709 343.0752,74.709 L353.0752,74.709" fill="none" style="stroke:#0078D4;stroke-width:3;"/><path d="M89.7598,131.4531 L99.7598,131.4531 C114.7598,131.4531 114.7598,46.9766 129.7598,46.9766 L139.7598,46.9766" fill="none" style="stroke:#FF5F46;stroke-width:3;"/><rect fill="#0078D4" height="36.4883" rx="12.5" ry="12.5" style="stroke:#0078D4;stroke-width:3;" width="162.0439" x="139.7598" y="93.4414"/><text fill="#FFFFFF" font-family="sans-serif" font-size="14" lengthAdjust="spacing" textLength="142.0439" x="149.7598" y="116.9766">Standard Connectors</text><text fill="#000000" font-family="sans-serif" font-size="14" lengthAdjust="spacing" textLength="205.3652" x="354.8037" y="98.4883">Cloud storage (S3, ADLS, GCS)</text><path d="M301.8037,111.6855 L311.8037,111.6855 C326.8037,111.6855 326.8037,93.1973 341.8037,93.1973 L351.8037,93.1973" fill="none" style="stroke:#0078D4;stroke-width:3;"/><text fill="#000000" font-family="sans-serif" font-size="14" lengthAdjust="spacing" textLength="154.3418" x="354.8037" y="116.9766">Kafka, Pub/Sub, Pulsar</text><path d="M301.8037,111.6855 L311.8037,111.6855 C326.8037,111.6855 326.8037,111.6855 341.8037,111.6855 L351.8037,111.6855" fill="none" style="stroke:#0078D4;stroke-width:3;"/><text fill="#000000" font-family="sans-serif" font-size="14" lengthAdjust="spacing" textLength="228.3818" x="354.8037" y="135.4648">Uses Auto Loader under the hood</text><path d="M301.8037,111.6855 L311.8037,111.6855 C326.8037,111.6855 326.8037,130.1738 341.8037,130.1738 L351.8037,130.1738" fill="none" style="stroke:#0078D4;stroke-width:3;"/><path d="M89.7598,131.4531 L99.7598,131.4531 C114.7598,131.4531 114.7598,111.6855 129.7598,111.6855 L139.7598,111.6855" fill="none" style="stroke:#FF5F46;stroke-width:3;"/><rect fill="#0078D4" height="36.4883" rx="12.5" ry="12.5" style="stroke:#0078D4;stroke-width:3;" width="94.2109" x="139.7598" y="149.9297"/><text fill="#FFFFFF" font-family="sans-serif" font-size="14" lengthAdjust="spacing" textLength="74.2109" x="149.7598" y="173.4648">Scheduling</text><text fill="#000000" font-family="sans-serif" font-size="14" lengthAdjust="spacing" textLength="218.5244" x="286.9707" y="164.2207">Scheduled (hourly/daily/weekly)</text><path d="M233.9707,168.1738 L243.9707,168.1738 C258.9707,168.1738 258.9707,158.9297 273.9707,158.9297 L283.9707,158.9297" fill="none" style="stroke:#0078D4;stroke-width:3;"/><text fill="#000000" font-family="sans-serif" font-size="14" lengthAdjust="spacing" textLength="133.0068" x="286.9707" y="182.709">On-demand trigger</text><path d="M233.9707,168.1738 L243.9707,168.1738 C258.9707,168.1738 258.9707,177.418 273.9707,177.418 L283.9707,177.418" fill="none" style="stroke:#0078D4;stroke-width:3;"/><path d="M89.7598,131.4531 L99.7598,131.4531 C114.7598,131.4531 114.7598,168.1738 129.7598,168.1738 L139.7598,168.1738" fill="none" style="stroke:#FF5F46;stroke-width:3;"/><rect fill="#0078D4" height="36.4883" rx="12.5" ry="12.5" style="stroke:#0078D4;stroke-width:3;" width="67.5371" x="139.7598" y="206.418"/><text fill="#FFFFFF" font-family="sans-serif" font-size="14" lengthAdjust="spacing" textLength="47.5371" x="149.7598" y="229.9531">Output</text><text fill="#000000" font-family="sans-serif" font-size="14" lengthAdjust="spacing" textLength="177.9805" x="260.2969" y="220.709">Writes to streaming tables</text><path d="M207.2969,224.6621 L217.2969,224.6621 C232.2969,224.6621 232.2969,215.418 247.2969,215.418 L257.2969,215.418" fill="none" style="stroke:#0078D4;stroke-width:3;"/><text fill="#000000" font-family="sans-serif" font-size="14" lengthAdjust="spacing" textLength="180.9541" x="260.2969" y="239.1973">Governed by Unity Catalog</text><path d="M207.2969,224.6621 L217.2969,224.6621 C232.2969,224.6621 232.2969,233.9063 247.2969,233.9063 L257.2969,233.9063" fill="none" style="stroke:#0078D4;stroke-width:3;"/><path d="M89.7598,131.4531 L99.7598,131.4531 C114.7598,131.4531 114.7598,224.6621 129.7598,224.6621 L139.7598,224.6621" fill="none" style="stroke:#FF5F46;stroke-width:3;"/><?plantuml-src VPDlQzj03CRV-rC81YCDMUAcNVU7Cfgbf8DbQuTN-cOmP9zi7xwSobbUPig--nJRMrbAfXV7-P5ElqTdxg8M3BAntcpmFZglfNNqBdfhw5xAKNm43n5elCUiAW8ttYpPSO1dgzNBrUbPbrjRJq_L5NiPrBoBlxLVIvjLdkeQJgPnzEiFw_WWAuvVlRuytMVjgVzstNEmwkAHDJ_8olFqJHpli_RK_xBYBfILya-tgtauM74-6wvx36kiA7Uy_UQNx3rb4et7y0az5cHWa3ZKgew_GuBQEEUGqGGI2ZziHfzvg_iI0zsmzJBKVLbtUGeJk68k7C72esl5PlK4xZXK1jk-z0Dweqq16odXEGGK0cStLgmlXcPTeswYZ3VtZT3EOY9w4CDJZql7ZO5Q1Hq1Hid911QNwqIDB9EZlkGZvXLEuAP9PqcJxZQknj3dRcirisY4OSreA83-8bsb92YPJOVEIZADUpJOV-jzZKfkWcjd1gskMwBAjGFpshymj57F8C4M1UrmSDs8pjCNt0KhYbPmBO5G7qO1WgdEtUUlM6_1AoHjuTPRQM69WewBw8Bq3GtlA3gUpkFvsNJ-6m00?></g></svg>