<?plantuml 1.2026.2?><svg xmlns="http://www.w3.org/2000/svg" xmlns:xlink="http://www.w3.org/1999/xlink" contentStyleType="text/css" data-diagram-type="MINDMAP" height="256px" preserveAspectRatio="none" style="width:602px;height:256px;background:#FFFFFF;" version="1.1" viewBox="0 0 602 256" width="602px" zoomAndPan="magnify"><defs/><g><rect fill="#FF5F46" height="52.9766" rx="12.5" ry="12.5" style="stroke:#FF5F46;stroke-width:3;" width="133.0527" x="10" y="100.8545"/><text fill="#FFFFFF" font-family="sans-serif" font-size="14" lengthAdjust="spacing" textLength="113.0527" x="20" y="124.3896">Spark Structured</text><text fill="#FFFFFF" font-family="sans-serif" font-size="14" lengthAdjust="spacing" textLength="68.5713" x="20" y="140.8779">Streaming</text><rect fill="#0078D4" height="36.4883" rx="12.5" ry="12.5" style="stroke:#0078D4;stroke-width:3;" width="145.665" x="193.0527" y="28.7324"/><text fill="#FFFFFF" font-family="sans-serif" font-size="14" lengthAdjust="spacing" textLength="125.665" x="203.0527" y="52.2676">Streaming Sources</text><text fill="#000000" font-family="sans-serif" font-size="14" lengthAdjust="spacing" textLength="174.3779" x="391.7178" y="24.5352">Kafka / Azure Event Hubs</text><path d="M338.7178,46.9766 L348.7178,46.9766 C363.7178,46.9766 363.7178,19.2441 378.7178,19.2441 L388.7178,19.2441" fill="none" style="stroke:#0078D4;stroke-width:3;"/><text fill="#000000" font-family="sans-serif" font-size="14" lengthAdjust="spacing" textLength="156.4678" x="391.7178" y="43.0234">Delta change data feed</text><path d="M338.7178,46.9766 L348.7178,46.9766 C363.7178,46.9766 363.7178,37.7324 378.7178,37.7324 L388.7178,37.7324" fill="none" style="stroke:#0078D4;stroke-width:3;"/><text fill="#000000" font-family="sans-serif" font-size="14" lengthAdjust="spacing" textLength="191.5088" x="391.7178" y="61.5117">Cloud storage (Auto Loader)</text><path d="M338.7178,46.9766 L348.7178,46.9766 C363.7178,46.9766 363.7178,56.2207 378.7178,56.2207 L388.7178,56.2207" fill="none" style="stroke:#0078D4;stroke-width:3;"/><text fill="#000000" font-family="sans-serif" font-size="14" lengthAdjust="spacing" textLength="109.1084" x="391.7178" y="80">Custom sources</text><path d="M338.7178,46.9766 L348.7178,46.9766 C363.7178,46.9766 363.7178,74.709 378.7178,74.709 L388.7178,74.709" fill="none" style="stroke:#0078D4;stroke-width:3;"/><path d="M143.0527,127.3428 L153.0527,127.3428 C168.0527,127.3428 168.0527,46.9766 183.0527,46.9766 L193.0527,46.9766" fill="none" style="stroke:#FF5F46;stroke-width:3;"/><rect fill="#0078D4" height="36.4883" rx="12.5" ry="12.5" style="stroke:#0078D4;stroke-width:3;" width="96.6582" x="193.0527" y="85.2207"/><text fill="#FFFFFF" font-family="sans-serif" font-size="14" lengthAdjust="spacing" textLength="76.6582" x="203.0527" y="108.7559">Guarantees</text><text fill="#000000" font-family="sans-serif" font-size="14" lengthAdjust="spacing" textLength="166.3115" x="342.7109" y="99.5117">Exactly-once processing</text><path d="M289.7109,103.4648 L299.7109,103.4648 C314.7109,103.4648 314.7109,94.2207 329.7109,94.2207 L339.7109,94.2207" fill="none" style="stroke:#0078D4;stroke-width:3;"/><text fill="#000000" font-family="sans-serif" font-size="14" lengthAdjust="spacing" textLength="190.9961" x="342.7109" y="118">Fault tolerant checkpointing</text><path d="M289.7109,103.4648 L299.7109,103.4648 C314.7109,103.4648 314.7109,112.709 329.7109,112.709 L339.7109,112.709" fill="none" style="stroke:#0078D4;stroke-width:3;"/><path d="M143.0527,127.3428 L153.0527,127.3428 C168.0527,127.3428 168.0527,103.4648 183.0527,103.4648 L193.0527,103.4648" fill="none" style="stroke:#FF5F46;stroke-width:3;"/><rect fill="#0078D4" height="36.4883" rx="12.5" ry="12.5" style="stroke:#0078D4;stroke-width:3;" width="104.4854" x="193.0527" y="141.709"/><text fill="#FFFFFF" font-family="sans-serif" font-size="14" lengthAdjust="spacing" textLength="84.4854" x="203.0527" y="165.2441">When to Use</text><text fill="#000000" font-family="sans-serif" font-size="14" lengthAdjust="spacing" textLength="212.7754" x="350.5381" y="146.7559">Fine-grained streaming control</text><path d="M297.5381,159.9531 L307.5381,159.9531 C322.5381,159.9531 322.5381,141.4648 337.5381,141.4648 L347.5381,141.4648" fill="none" style="stroke:#0078D4;stroke-width:3;"/><text fill="#000000" font-family="sans-serif" font-size="14" lengthAdjust="spacing" textLength="239.6953" x="350.5381" y="165.2441">Custom watermarking / windowing</text><path d="M297.5381,159.9531 L307.5381,159.9531 C322.5381,159.9531 322.5381,159.9531 337.5381,159.9531 L347.5381,159.9531" fill="none" style="stroke:#0078D4;stroke-width:3;"/><text fill="#000000" font-family="sans-serif" font-size="14" lengthAdjust="spacing" textLength="232.5791" x="350.5381" y="183.7324">Sources not in higher abstractions</text><path d="M297.5381,159.9531 L307.5381,159.9531 C322.5381,159.9531 322.5381,178.4414 337.5381,178.4414 L347.5381,178.4414" fill="none" style="stroke:#0078D4;stroke-width:3;"/><path d="M143.0527,127.3428 L153.0527,127.3428 C168.0527,127.3428 168.0527,159.9531 183.0527,159.9531 L193.0527,159.9531" fill="none" style="stroke:#FF5F46;stroke-width:3;"/><rect fill="#0078D4" height="36.4883" rx="12.5" ry="12.5" style="stroke:#0078D4;stroke-width:3;" width="116.373" x="193.0527" y="198.1973"/><text fill="#FFFFFF" font-family="sans-serif" font-size="14" lengthAdjust="spacing" textLength="96.373" x="203.0527" y="221.7324">Output Modes</text><text fill="#000000" font-family="sans-serif" font-size="14" lengthAdjust="spacing" textLength="52.582" x="362.4258" y="203.2441">Append</text><path d="M309.4258,216.4414 L319.4258,216.4414 C334.4258,216.4414 334.4258,197.9531 349.4258,197.9531 L359.4258,197.9531" fill="none" style="stroke:#0078D4;stroke-width:3;"/><text fill="#000000" font-family="sans-serif" font-size="14" lengthAdjust="spacing" textLength="65.0508" x="362.4258" y="221.7324">Complete</text><path d="M309.4258,216.4414 L319.4258,216.4414 C334.4258,216.4414 334.4258,216.4414 349.4258,216.4414 L359.4258,216.4414" fill="none" style="stroke:#0078D4;stroke-width:3;"/><text fill="#000000" font-family="sans-serif" font-size="14" lengthAdjust="spacing" textLength="48.0908" x="362.4258" y="240.2207">Update</text><path d="M309.4258,216.4414 L319.4258,216.4414 C334.4258,216.4414 334.4258,234.9297 349.4258,234.9297 L359.4258,234.9297" fill="none" style="stroke:#0078D4;stroke-width:3;"/><path d="M143.0527,127.3428 L153.0527,127.3428 C168.0527,127.3428 168.0527,216.4414 183.0527,216.4414 L193.0527,216.4414" fill="none" style="stroke:#FF5F46;stroke-width:3;"/><?plantuml-src VLDDJzj04BtxLupK2qGYCIc5ja8LAU1MAXM75FM2L4tiyOUytbcjPni-rF_UYR63C0fpyNhUstrldhrdhQ2Nfh9PWouwRUNUq9VeSqPEohru7nuZqFgAQLru3ZOxPyCUtYN9X-JekCEkAaklkmbRwRjvLrlkhx9AQqjj2--dSVHlq3hSgHN79nylZiPQe-xBKqSEagwUjUOxjV9yzIcEnrgZxfjQSLUgjU8xi-4yxcISplgu9x1qw6jOYW-f14_PhTKreNwN8ffCOFi2Imu-fLQRap_m0_CQOGQB1zq3bt_92dmFgnwz82C8QOcs8CXGrpbHzeIT6muPjC8U5TnR166uOip8x_U4e603xLOElWNqQ8K6ySixJCNS7x1D2PndfRLFTXLCC1W1OKERFMg2qjfnPQKVw7T9Lc6uQQdVeBaU51xriV4rZ9jgR9xD2qzh5FADvhKXp62j_owljyfzG61PeB9GLaL97d2bPwhVYcqtp7KG5mH-SZQCit2Ex90EDywGzDPkd8P7qPd2mps93gVpU7uydVy7?></g></svg>