<?plantuml 1.2026.2?><svg xmlns="http://www.w3.org/2000/svg" xmlns:xlink="http://www.w3.org/1999/xlink" contentStyleType="text/css" data-diagram-type="MINDMAP" height="304px" preserveAspectRatio="none" style="width:664px;height:304px;background:#FFFFFF;" version="1.1" viewBox="0 0 664 304" width="664px" zoomAndPan="magnify"><defs/><g><rect fill="#FF5F46" height="36.4883" rx="12.5" ry="12.5" style="stroke:#FF5F46;stroke-width:3;" width="124.3643" x="10" y="132.9766"/><text fill="#FFFFFF" font-family="sans-serif" font-size="14" lengthAdjust="spacing" textLength="104.3643" x="20" y="156.5117">Apache Iceberg</text><rect fill="#0078D4" height="36.4883" rx="12.5" ry="12.5" style="stroke:#0078D4;stroke-width:3;" width="159.8154" x="184.3643" y="20"/><text fill="#FFFFFF" font-family="sans-serif" font-size="14" lengthAdjust="spacing" textLength="139.8154" x="194.3643" y="43.5352">Similar to Delta Lake</text><text fill="#000000" font-family="sans-serif" font-size="14" lengthAdjust="spacing" textLength="121.4268" x="397.1797" y="25.0469">ACID transactions</text><path d="M344.1797,38.2441 L354.1797,38.2441 C369.1797,38.2441 369.1797,19.7559 384.1797,19.7559 L394.1797,19.7559" fill="none" style="stroke:#0078D4;stroke-width:3;"/><text fill="#000000" font-family="sans-serif" font-size="14" lengthAdjust="spacing" textLength="75.9883" x="397.1797" y="43.5352">Time travel</text><path d="M344.1797,38.2441 L354.1797,38.2441 C369.1797,38.2441 369.1797,38.2441 384.1797,38.2441 L394.1797,38.2441" fill="none" style="stroke:#0078D4;stroke-width:3;"/><text fill="#000000" font-family="sans-serif" font-size="14" lengthAdjust="spacing" textLength="197.2646" x="397.1797" y="62.0234">Schema evolution on Parquet</text><path d="M344.1797,38.2441 L354.1797,38.2441 C369.1797,38.2441 369.1797,56.7324 384.1797,56.7324 L394.1797,56.7324" fill="none" style="stroke:#0078D4;stroke-width:3;"/><path d="M134.3643,151.2207 L144.3643,151.2207 C159.3643,151.2207 159.3643,38.2441 174.3643,38.2441 L184.3643,38.2441" fill="none" style="stroke:#FF5F46;stroke-width:3;"/><rect fill="#0078D4" height="36.4883" rx="12.5" ry="12.5" style="stroke:#0078D4;stroke-width:3;" width="133.374" x="184.3643" y="76.4883"/><text fill="#FFFFFF" font-family="sans-serif" font-size="14" lengthAdjust="spacing" textLength="113.374" x="194.3643" y="100.0234">Iceberg Specifics</text><text fill="#000000" font-family="sans-serif" font-size="14" lengthAdjust="spacing" textLength="115.6572" x="370.7383" y="81.5352">Manifest pruning</text><path d="M317.7383,94.7324 L327.7383,94.7324 C342.7383,94.7324 342.7383,76.2441 357.7383,76.2441 L367.7383,76.2441" fill="none" style="stroke:#0078D4;stroke-width:3;"/><text fill="#000000" font-family="sans-serif" font-size="14" lengthAdjust="spacing" textLength="207.4912" x="370.7383" y="100.0234">Hidden &amp; evolving partitioning</text><path d="M317.7383,94.7324 L327.7383,94.7324 C342.7383,94.7324 342.7383,94.7324 357.7383,94.7324 L367.7383,94.7324" fill="none" style="stroke:#0078D4;stroke-width:3;"/><text fill="#000000" font-family="sans-serif" font-size="14" lengthAdjust="spacing" textLength="126.9844" x="370.7383" y="118.5117">File-level statistics</text><path d="M317.7383,94.7324 L327.7383,94.7324 C342.7383,94.7324 342.7383,113.2207 357.7383,113.2207 L367.7383,113.2207" fill="none" style="stroke:#0078D4;stroke-width:3;"/><path d="M134.3643,151.2207 L144.3643,151.2207 C159.3643,151.2207 159.3643,94.7324 174.3643,94.7324 L184.3643,94.7324" fill="none" style="stroke:#FF5F46;stroke-width:3;"/><rect fill="#0078D4" height="36.4883" rx="12.5" ry="12.5" style="stroke:#0078D4;stroke-width:3;" width="147.4219" x="184.3643" y="132.9766"/><text fill="#FFFFFF" font-family="sans-serif" font-size="14" lengthAdjust="spacing" textLength="127.4219" x="194.3643" y="156.5117">Primary Advantage</text><text fill="#000000" font-family="sans-serif" font-size="14" lengthAdjust="spacing" textLength="231.9092" x="384.7861" y="147.2676">Wide cross-platform compatibility</text><path d="M331.7861,151.2207 L341.7861,151.2207 C356.7861,151.2207 356.7861,141.9766 371.7861,141.9766 L381.7861,141.9766" fill="none" style="stroke:#0078D4;stroke-width:3;"/><text fill="#000000" font-family="sans-serif" font-size="14" lengthAdjust="spacing" textLength="258.1455" x="384.7861" y="165.7559">Snowflake, Athena, Trino, Flink, Spark</text><path d="M331.7861,151.2207 L341.7861,151.2207 C356.7861,151.2207 356.7861,160.4648 371.7861,160.4648 L381.7861,160.4648" fill="none" style="stroke:#0078D4;stroke-width:3;"/><path d="M134.3643,151.2207 L144.3643,151.2207 C159.3643,151.2207 159.3643,151.2207 174.3643,151.2207 L184.3643,151.2207" fill="none" style="stroke:#FF5F46;stroke-width:3;"/><rect fill="#0078D4" height="36.4883" rx="12.5" ry="12.5" style="stroke:#0078D4;stroke-width:3;" width="128.3291" x="184.3643" y="189.4648"/><text fill="#FFFFFF" font-family="sans-serif" font-size="14" lengthAdjust="spacing" textLength="108.3291" x="194.3643" y="213">In Unity Catalog</text><text fill="#000000" font-family="sans-serif" font-size="14" lengthAdjust="spacing" textLength="161.2461" x="365.6934" y="203.7559">Managed Iceberg tables</text><path d="M312.6934,207.709 L322.6934,207.709 C337.6934,207.709 337.6934,198.4648 352.6934,198.4648 L362.6934,198.4648" fill="none" style="stroke:#0078D4;stroke-width:3;"/><text fill="#000000" font-family="sans-serif" font-size="14" lengthAdjust="spacing" textLength="286.6787" x="365.6934" y="222.2441">Foreign tables from AWS Glue / Snowflake</text><path d="M312.6934,207.709 L322.6934,207.709 C337.6934,207.709 337.6934,216.9531 352.6934,216.9531 L362.6934,216.9531" fill="none" style="stroke:#0078D4;stroke-width:3;"/><path d="M134.3643,151.2207 L144.3643,151.2207 C159.3643,151.2207 159.3643,207.709 174.3643,207.709 L184.3643,207.709" fill="none" style="stroke:#FF5F46;stroke-width:3;"/><rect fill="#0078D4" height="36.4883" rx="12.5" ry="12.5" style="stroke:#0078D4;stroke-width:3;" width="112.0938" x="184.3643" y="245.9531"/><text fill="#FFFFFF" font-family="sans-serif" font-size="14" lengthAdjust="spacing" textLength="92.0938" x="194.3643" y="269.4883">Choose When</text><text fill="#000000" font-family="sans-serif" font-size="14" lengthAdjust="spacing" textLength="224.5879" x="349.458" y="260.2441">Multi-engine data access needed</text><path d="M296.458,264.1973 L306.458,264.1973 C321.458,264.1973 321.458,254.9531 336.458,254.9531 L346.458,254.9531" fill="none" style="stroke:#0078D4;stroke-width:3;"/><text fill="#000000" font-family="sans-serif" font-size="14" lengthAdjust="spacing" textLength="194.5439" x="349.458" y="278.7324">Org standardized on Iceberg</text><path d="M296.458,264.1973 L306.458,264.1973 C321.458,264.1973 321.458,273.4414 336.458,273.4414 L346.458,273.4414" fill="none" style="stroke:#0078D4;stroke-width:3;"/><path d="M134.3643,151.2207 L144.3643,151.2207 C159.3643,151.2207 159.3643,264.1973 174.3643,264.1973 L184.3643,264.1973" fill="none" style="stroke:#FF5F46;stroke-width:3;"/><?plantuml-src VPFRRXCn48Rlzob6Ga8G9Uasb79GXHeIBLGgebA2Seaczknc5A-zsDwKKF7kp1wQYg0myjNlyV_DUEph4D77agqkiKgkGjmR-f2yrrJ5pOlq9Jma8F4HrRRmhhPwveppy2pBNcSNb-tUBLlwLysSZRsQjt78NMvORIs50A_6QVBxaNL-afMcRzxEBuvPH-hVhaSLP6qyiIOdMNc-VfUcnwmZzR-ij0rXhTrFq-GydCouEkklUm3J2jM6u4RHcdoH30Qmu98DUeWEvcGYmYrkIJO6ts4wkvb3z6W3giZEXavUSacDl2FJ2GknB15evqpTv86iE_G_QeeDeOV1eYB5EQlUvWjQpYb4g7njsHQT-fcr9WlFMxUTo539k-76zf2JiQ6H8U63lAh88NQcSEUvHB-7gTwXZLZqVQnO4oZlGXXL1cFkV0dAbPKSNRFXkE_RiEu-DzBz4APnGnQ7iFHitH0omtOxb0RGRzkEB7opSWvc6D6uuj2G8FMXtuXh6KnVilF4XUqroBqhORfQm2TJ4vmzeHltsSQvGB2I4dhZsaGUaItaJO0M9A1IpSWjaIRT9NqLejo6rUWr_v8oP0YFOxuc-NRzrqlEnvDqSZcU_040?></g></svg>