<?plantuml 1.2026.2?><svg xmlns="http://www.w3.org/2000/svg" xmlns:xlink="http://www.w3.org/1999/xlink" contentStyleType="text/css" data-diagram-type="MINDMAP" height="274px" preserveAspectRatio="none" style="width:586px;height:274px;background:#FFFFFF;" version="1.1" viewBox="0 0 586 274" width="586px" zoomAndPan="magnify"><defs/><g><rect fill="#FF5F46" height="36.4883" rx="12.5" ry="12.5" style="stroke:#FF5F46;stroke-width:3;" width="90.9092" x="10" y="117.8311"/><text fill="#FFFFFF" font-family="sans-serif" font-size="14" lengthAdjust="spacing" textLength="70.9092" x="20" y="141.3662">Delta Lake</text><rect fill="#0078D4" height="36.4883" rx="12.5" ry="12.5" style="stroke:#0078D4;stroke-width:3;" width="121.4385" x="150.9092" y="20"/><text fill="#FFFFFF" font-family="sans-serif" font-size="14" lengthAdjust="spacing" textLength="101.4385" x="160.9092" y="43.5352">Default Format</text><text fill="#000000" font-family="sans-serif" font-size="14" lengthAdjust="spacing" textLength="246.6953" x="325.3477" y="34.291">Automatic when no format specified</text><path d="M272.3477,38.2441 L282.3477,38.2441 C297.3477,38.2441 297.3477,29 312.3477,29 L322.3477,29" fill="none" style="stroke:#0078D4;stroke-width:3;"/><text fill="#000000" font-family="sans-serif" font-size="14" lengthAdjust="spacing" textLength="249.4297" x="325.3477" y="52.7793">Extends Parquet with transaction log</text><path d="M272.3477,38.2441 L282.3477,38.2441 C297.3477,38.2441 297.3477,47.4883 312.3477,47.4883 L322.3477,47.4883" fill="none" style="stroke:#0078D4;stroke-width:3;"/><path d="M100.9092,136.0752 L110.9092,136.0752 C125.9092,136.0752 125.9092,38.2441 140.9092,38.2441 L150.9092,38.2441" fill="none" style="stroke:#FF5F46;stroke-width:3;"/><rect fill="#0078D4" height="36.4883" rx="12.5" ry="12.5" style="stroke:#0078D4;stroke-width:3;" width="113.8711" x="150.9092" y="85.2207"/><text fill="#FFFFFF" font-family="sans-serif" font-size="14" lengthAdjust="spacing" textLength="93.8711" x="160.9092" y="108.7559">Core Features</text><text fill="#000000" font-family="sans-serif" font-size="14" lengthAdjust="spacing" textLength="121.4268" x="317.7803" y="81.0234">ACID transactions</text><path d="M264.7803,103.4648 L274.7803,103.4648 C289.7803,103.4648 289.7803,75.7324 304.7803,75.7324 L314.7803,75.7324" fill="none" style="stroke:#0078D4;stroke-width:3;"/><text fill="#000000" font-family="sans-serif" font-size="14" lengthAdjust="spacing" textLength="218.251" x="317.7803" y="99.5117">Time travel (version/timestamp)</text><path d="M264.7803,103.4648 L274.7803,103.4648 C289.7803,103.4648 289.7803,94.2207 304.7803,94.2207 L314.7803,94.2207" fill="none" style="stroke:#0078D4;stroke-width:3;"/><text fill="#000000" font-family="sans-serif" font-size="14" lengthAdjust="spacing" textLength="223.7334" x="317.7803" y="118">Schema enforcement &amp; evolution</text><path d="M264.7803,103.4648 L274.7803,103.4648 C289.7803,103.4648 289.7803,112.709 304.7803,112.709 L314.7803,112.709" fill="none" style="stroke:#0078D4;stroke-width:3;"/><text fill="#000000" font-family="sans-serif" font-size="14" lengthAdjust="spacing" textLength="177.0986" x="317.7803" y="136.4883">Unified batch &amp; streaming</text><path d="M264.7803,103.4648 L274.7803,103.4648 C289.7803,103.4648 289.7803,131.1973 304.7803,131.1973 L314.7803,131.1973" fill="none" style="stroke:#0078D4;stroke-width:3;"/><path d="M100.9092,136.0752 L110.9092,136.0752 C125.9092,136.0752 125.9092,103.4648 140.9092,103.4648 L150.9092,103.4648" fill="none" style="stroke:#FF5F46;stroke-width:3;"/><rect fill="#0078D4" height="36.4883" rx="12.5" ry="12.5" style="stroke:#0078D4;stroke-width:3;" width="147.9756" x="150.9092" y="159.1738"/><text fill="#FFFFFF" font-family="sans-serif" font-size="14" lengthAdjust="spacing" textLength="127.9756" x="160.9092" y="182.709">Advanced Features</text><text fill="#000000" font-family="sans-serif" font-size="14" lengthAdjust="spacing" textLength="113.5723" x="351.8848" y="154.9766">Liquid clustering</text><path d="M298.8848,177.418 L308.8848,177.418 C323.8848,177.418 323.8848,149.6855 338.8848,149.6855 L348.8848,149.6855" fill="none" style="stroke:#0078D4;stroke-width:3;"/><text fill="#000000" font-family="sans-serif" font-size="14" lengthAdjust="spacing" textLength="156.1943" x="351.8848" y="173.4648">Predictive optimization</text><path d="M298.8848,177.418 L308.8848,177.418 C323.8848,177.418 323.8848,168.1738 338.8848,168.1738 L348.8848,168.1738" fill="none" style="stroke:#0078D4;stroke-width:3;"/><text fill="#000000" font-family="sans-serif" font-size="14" lengthAdjust="spacing" textLength="119.2529" x="351.8848" y="191.9531">Change data feed</text><path d="M298.8848,177.418 L308.8848,177.418 C323.8848,177.418 323.8848,186.6621 338.8848,186.6621 L348.8848,186.6621" fill="none" style="stroke:#0078D4;stroke-width:3;"/><text fill="#000000" font-family="sans-serif" font-size="14" lengthAdjust="spacing" textLength="90.8838" x="351.8848" y="210.4414">Delta Sharing</text><path d="M298.8848,177.418 L308.8848,177.418 C323.8848,177.418 323.8848,205.1504 338.8848,205.1504 L348.8848,205.1504" fill="none" style="stroke:#0078D4;stroke-width:3;"/><path d="M100.9092,136.0752 L110.9092,136.0752 C125.9092,136.0752 125.9092,177.418 140.9092,177.418 L150.9092,177.418" fill="none" style="stroke:#FF5F46;stroke-width:3;"/><rect fill="#0078D4" height="36.4883" rx="12.5" ry="12.5" style="stroke:#0078D4;stroke-width:3;" width="120.4746" x="150.9092" y="215.6621"/><text fill="#FFFFFF" font-family="sans-serif" font-size="14" lengthAdjust="spacing" textLength="100.4746" x="160.9092" y="239.1973">Recommended</text><text fill="#000000" font-family="sans-serif" font-size="14" lengthAdjust="spacing" textLength="199.7598" x="324.3838" y="229.9531">Default choice for production</text><path d="M271.3838,233.9063 L281.3838,233.9063 C296.3838,233.9063 296.3838,224.6621 311.3838,224.6621 L321.3838,224.6621" fill="none" style="stroke:#0078D4;stroke-width:3;"/><text fill="#000000" font-family="sans-serif" font-size="14" lengthAdjust="spacing" textLength="190.5518" x="324.3838" y="248.4414">Deep Databricks integration</text><path d="M271.3838,233.9063 L281.3838,233.9063 C296.3838,233.9063 296.3838,243.1504 311.3838,243.1504 L321.3838,243.1504" fill="none" style="stroke:#0078D4;stroke-width:3;"/><path d="M100.9092,136.0752 L110.9092,136.0752 C125.9092,136.0752 125.9092,233.9063 140.9092,233.9063 L150.9092,233.9063" fill="none" style="stroke:#FF5F46;stroke-width:3;"/><?plantuml-src VLDTJzj047pthrYfKWLv22Qbq5QeWiQrL2aFgD3dQdEtZa-nxypTdg55_FUkFqAAgtJVRdOyCngjhmAZvzfONMEJN0R-LT7dv9EcXikZz1YU4f3vWcgxyIvQlNILy_0cpz_dP-VzRcKi_OlcplA85lsySEzAexQMGe1typHvtdcT7lHAquiFsTdKQuA-LfqaoFlPUoqEUXN5-cEQJhqcw7-zqdx4Q-qUguxpT91nUJBMFOECAaPOuPQIMVSgC5Oi7_aQMP3PJxYExEHX53oKPC4wAFejX8QKAGpfWVVraSdg03VexoCnF1WkWJtQW8gDir2vJUUnT9uW9-JeAOmMos_PtzGHlZCrTN1B5Horv8EiJbX0EPswEHv8jwga6e6if59KasLu2zIwAdPA0-U7xNF26bcLiWxi2UNq-ZpNkaMhPFiwqyhSHwD1LJ4m-O4hy8qdRIHaI-0QoM9-uzvdMQBT46YKIWlQ5JDKV5lYg0BVIRbQakezOwXTbSuewlg5nZiTrLuw8seW4-6rbni8O2pJnW_ULoAr-v6Iq_aYNPpF5ty0?></g></svg>