<?plantuml 1.2026.2?><svg xmlns="http://www.w3.org/2000/svg" xmlns:xlink="http://www.w3.org/1999/xlink" contentStyleType="text/css" data-diagram-type="MINDMAP" height="265px" preserveAspectRatio="none" style="width:653px;height:265px;background:#FFFFFF;" version="1.1" viewBox="0 0 653 265" width="653px" zoomAndPan="magnify"><defs/><g><rect fill="#FF5F46" height="52.9766" rx="12.5" ry="12.5" style="stroke:#FF5F46;stroke-width:3;" width="132.4102" x="10" y="105.2207"/><text fill="#FFFFFF" font-family="sans-serif" font-size="14" lengthAdjust="spacing" textLength="89.5439" x="20" y="128.7559">Table Format</text><text fill="#FFFFFF" font-family="sans-serif" font-size="14" lengthAdjust="spacing" textLength="112.4102" x="20" y="145.2441">Decision Criteria</text><rect fill="#0078D4" height="36.4883" rx="12.5" ry="12.5" style="stroke:#0078D4;stroke-width:3;" width="160" x="192.4102" y="20"/><text fill="#FFFFFF" font-family="sans-serif" font-size="14" lengthAdjust="spacing" textLength="140" x="202.4102" y="43.5352">Start with Delta Lake</text><text fill="#000000" font-family="sans-serif" font-size="14" lengthAdjust="spacing" textLength="97.043" x="405.4102" y="34.291">Default choice</text><path d="M352.4102,38.2441 L362.4102,38.2441 C377.4102,38.2441 377.4102,29 392.4102,29 L402.4102,29" fill="none" style="stroke:#0078D4;stroke-width:3;"/><text fill="#000000" font-family="sans-serif" font-size="14" lengthAdjust="spacing" textLength="183.8799" x="405.4102" y="52.7793">Best Databricks integration</text><path d="M352.4102,38.2441 L362.4102,38.2441 C377.4102,38.2441 377.4102,47.4883 392.4102,47.4883 L402.4102,47.4883" fill="none" style="stroke:#0078D4;stroke-width:3;"/><path d="M142.4102,131.709 L152.4102,131.709 C167.4102,131.709 167.4102,38.2441 182.4102,38.2441 L192.4102,38.2441" fill="none" style="stroke:#FF5F46;stroke-width:3;"/><rect fill="#0078D4" height="36.4883" rx="12.5" ry="12.5" style="stroke:#0078D4;stroke-width:3;" width="176.584" x="192.4102" y="76.4883"/><text fill="#FFFFFF" font-family="sans-serif" font-size="14" lengthAdjust="spacing" textLength="156.584" x="202.4102" y="100.0234">Consider Iceberg When</text><text fill="#000000" font-family="sans-serif" font-size="14" lengthAdjust="spacing" textLength="190.6475" x="421.9941" y="81.5352">Multi-engine access needed</text><path d="M368.9941,94.7324 L378.9941,94.7324 C393.9941,94.7324 393.9941,76.2441 408.9941,76.2441 L418.9941,76.2441" fill="none" style="stroke:#0078D4;stroke-width:3;"/><text fill="#000000" font-family="sans-serif" font-size="14" lengthAdjust="spacing" textLength="194.5439" x="421.9941" y="100.0234">Org standardized on Iceberg</text><path d="M368.9941,94.7324 L378.9941,94.7324 C393.9941,94.7324 393.9941,94.7324 408.9941,94.7324 L418.9941,94.7324" fill="none" style="stroke:#0078D4;stroke-width:3;"/><text fill="#000000" font-family="sans-serif" font-size="14" lengthAdjust="spacing" textLength="219.0439" x="421.9941" y="118.5117">Interop with Snowflake / Athena</text><path d="M368.9941,94.7324 L378.9941,94.7324 C393.9941,94.7324 393.9941,113.2207 408.9941,113.2207 L418.9941,113.2207" fill="none" style="stroke:#0078D4;stroke-width:3;"/><path d="M142.4102,131.709 L152.4102,131.709 C167.4102,131.709 167.4102,94.7324 182.4102,94.7324 L192.4102,94.7324" fill="none" style="stroke:#FF5F46;stroke-width:3;"/><rect fill="#0078D4" height="36.4883" rx="12.5" ry="12.5" style="stroke:#0078D4;stroke-width:3;" width="151.2568" x="192.4102" y="132.9766"/><text fill="#FFFFFF" font-family="sans-serif" font-size="14" lengthAdjust="spacing" textLength="131.2568" x="202.4102" y="156.5117">Use CSV/JSON Only</text><text fill="#000000" font-family="sans-serif" font-size="14" lengthAdjust="spacing" textLength="91.7041" x="396.667" y="147.2676">Landing zone</text><path d="M343.667,151.2207 L353.667,151.2207 C368.667,151.2207 368.667,141.9766 383.667,141.9766 L393.667,141.9766" fill="none" style="stroke:#0078D4;stroke-width:3;"/><text fill="#000000" font-family="sans-serif" font-size="14" lengthAdjust="spacing" textLength="167.9863" x="396.667" y="165.7559">Small non-analytics data</text><path d="M343.667,151.2207 L353.667,151.2207 C368.667,151.2207 368.667,160.4648 383.667,160.4648 L393.667,160.4648" fill="none" style="stroke:#0078D4;stroke-width:3;"/><path d="M142.4102,131.709 L152.4102,131.709 C167.4102,131.709 167.4102,151.2207 182.4102,151.2207 L192.4102,151.2207" fill="none" style="stroke:#FF5F46;stroke-width:3;"/><rect fill="#0078D4" height="36.4883" rx="12.5" ry="12.5" style="stroke:#0078D4;stroke-width:3;" width="128.3838" x="192.4102" y="198.1973"/><text fill="#FFFFFF" font-family="sans-serif" font-size="14" lengthAdjust="spacing" textLength="108.3838" x="202.4102" y="221.7324">Key Dimensions</text><text fill="#000000" font-family="sans-serif" font-size="14" lengthAdjust="spacing" textLength="151.7373" x="373.7939" y="194">Analytics performance</text><path d="M320.7939,216.4414 L330.7939,216.4414 C345.7939,216.4414 345.7939,188.709 360.7939,188.709 L370.7939,188.709" fill="none" style="stroke:#0078D4;stroke-width:3;"/><text fill="#000000" font-family="sans-serif" font-size="14" lengthAdjust="spacing" textLength="121.4268" x="373.7939" y="212.4883">ACID transactions</text><path d="M320.7939,216.4414 L330.7939,216.4414 C345.7939,216.4414 345.7939,207.1973 360.7939,207.1973 L370.7939,207.1973" fill="none" style="stroke:#0078D4;stroke-width:3;"/><text fill="#000000" font-family="sans-serif" font-size="14" lengthAdjust="spacing" textLength="197.3604" x="373.7939" y="230.9766">Cross-platform compatibility</text><path d="M320.7939,216.4414 L330.7939,216.4414 C345.7939,216.4414 345.7939,225.6855 360.7939,225.6855 L370.7939,225.6855" fill="none" style="stroke:#0078D4;stroke-width:3;"/><text fill="#000000" font-family="sans-serif" font-size="14" lengthAdjust="spacing" textLength="142.6182" x="373.7939" y="249.4648">Production readiness</text><path d="M320.7939,216.4414 L330.7939,216.4414 C345.7939,216.4414 345.7939,244.1738 360.7939,244.1738 L370.7939,244.1738" fill="none" style="stroke:#0078D4;stroke-width:3;"/><path d="M142.4102,131.709 L152.4102,131.709 C167.4102,131.709 167.4102,216.4414 182.4102,216.4414 L192.4102,216.4414" fill="none" style="stroke:#FF5F46;stroke-width:3;"/><?plantuml-src VLDTRzD047pthrY95uYKn0sbVAX2JMr52WI2v08lI6XzjqvEEUzPTnULjEA_i_veAuB2ljtUxCpis7SL8lfO6zOrDibbY0TBxvDtcfguVPw-WFi4fAvHxJRUxLbdpZeFpnQBLulpY-vkPPZ-xIuSnw5RTVM8lTaQjMCA0LvEqkJtWzRPIQqqVVqcFp_MEkh-pNhaOD7LazRif5PLbM_Jz5ZhgFjVhRGhqIhTBzjYxayYBgT3t2EumTAIW7oDyGVdf4mmZY7p9f8tc8n6KBGV2cvDt49EDYAiS4ToCVefvmhtDeBQEgE6tZM523b6BBsu3M0uqiPZ5DgMBNCSZ2OFIqKb-GrytnBtav-4oeo9Dx8ge5Bj4aoaIVVtQq7BNyCQlJPtf46C3YmzO2bItZMzruBTRMN5AanX7aMaM-Ph8CYARzCFnVephDaU-icLi1hUm9tZOOsYHck17O-HqHwYKG6qRDMIVAG3vAOcRhCAFNx-Y6h8LssU_938F5lc43roG1MV9ZBlGXWt5cCB1-NgHb8gZJLnSFN5ExtlHi0JYa599BaYUJB3iqdE9hDqTZ6P_G40?></g></svg>