<?plantuml 1.2026.2?><svg xmlns="http://www.w3.org/2000/svg" xmlns:xlink="http://www.w3.org/1999/xlink" contentStyleType="text/css" data-diagram-type="MINDMAP" height="247px" preserveAspectRatio="none" style="width:772px;height:247px;background:#FFFFFF;" version="1.1" viewBox="0 0 772 247" width="772px" zoomAndPan="magnify"><defs/><g><rect fill="#FF5F46" height="52.9766" rx="12.5" ry="12.5" style="stroke:#FF5F46;stroke-width:3;" width="138.665" x="10" y="96.4883"/><text fill="#FFFFFF" font-family="sans-serif" font-size="14" lengthAdjust="spacing" textLength="118.665" x="20" y="120.0234">Effective Partition</text><text fill="#FFFFFF" font-family="sans-serif" font-size="14" lengthAdjust="spacing" textLength="89.6123" x="20" y="136.5117">Key Selection</text><rect fill="#0078D4" height="36.4883" rx="12.5" ry="12.5" style="stroke:#0078D4;stroke-width:3;" width="124.3506" x="198.665" y="20"/><text fill="#FFFFFF" font-family="sans-serif" font-size="14" lengthAdjust="spacing" textLength="104.3506" x="208.665" y="43.5352">Low Cardinality</text><text fill="#000000" font-family="sans-serif" font-size="14" lengthAdjust="spacing" textLength="152.3594" x="376.0156" y="25.0469">Limited distinct values</text><path d="M323.0156,38.2441 L333.0156,38.2441 C348.0156,38.2441 348.0156,19.7559 363.0156,19.7559 L373.0156,19.7559" fill="none" style="stroke:#0078D4;stroke-width:3;"/><text fill="#000000" font-family="sans-serif" font-size="14" lengthAdjust="spacing" textLength="200.9014" x="376.0156" y="43.5352">Date, region, category, status</text><path d="M323.0156,38.2441 L333.0156,38.2441 C348.0156,38.2441 348.0156,38.2441 363.0156,38.2441 L373.0156,38.2441" fill="none" style="stroke:#0078D4;stroke-width:3;"/><text fill="#000000" font-family="sans-serif" font-size="14" lengthAdjust="spacing" textLength="229.1201" x="376.0156" y="62.0234">Not customer ID or transaction ID</text><path d="M323.0156,38.2441 L333.0156,38.2441 C348.0156,38.2441 348.0156,56.7324 363.0156,56.7324 L373.0156,56.7324" fill="none" style="stroke:#0078D4;stroke-width:3;"/><path d="M148.665,122.9766 L158.665,122.9766 C173.665,122.9766 173.665,38.2441 188.665,38.2441 L198.665,38.2441" fill="none" style="stroke:#FF5F46;stroke-width:3;"/><rect fill="#0078D4" height="36.4883" rx="12.5" ry="12.5" style="stroke:#0078D4;stroke-width:3;" width="192.9219" x="198.665" y="76.4883"/><text fill="#FFFFFF" font-family="sans-serif" font-size="14" lengthAdjust="spacing" textLength="172.9219" x="208.665" y="100.0234">Align with Query Patterns</text><text fill="#000000" font-family="sans-serif" font-size="14" lengthAdjust="spacing" textLength="223.043" x="444.5869" y="81.5352">Columns most filtered in queries</text><path d="M391.5869,94.7324 L401.5869,94.7324 C416.5869,94.7324 416.5869,76.2441 431.5869,76.2441 L441.5869,76.2441" fill="none" style="stroke:#0078D4;stroke-width:3;"/><text fill="#000000" font-family="sans-serif" font-size="14" lengthAdjust="spacing" textLength="219.4678" x="444.5869" y="100.0234">Most common or critical queries</text><path d="M391.5869,94.7324 L401.5869,94.7324 C416.5869,94.7324 416.5869,94.7324 431.5869,94.7324 L441.5869,94.7324" fill="none" style="stroke:#0078D4;stroke-width:3;"/><text fill="#000000" font-family="sans-serif" font-size="14" lengthAdjust="spacing" textLength="315.6357" x="444.5869" y="118.5117">Consider materialized views for other patterns</text><path d="M391.5869,94.7324 L401.5869,94.7324 C416.5869,94.7324 416.5869,113.2207 431.5869,113.2207 L441.5869,113.2207" fill="none" style="stroke:#0078D4;stroke-width:3;"/><path d="M148.665,122.9766 L158.665,122.9766 C173.665,122.9766 173.665,94.7324 188.665,94.7324 L198.665,94.7324" fill="none" style="stroke:#FF5F46;stroke-width:3;"/><rect fill="#0078D4" height="36.4883" rx="12.5" ry="12.5" style="stroke:#0078D4;stroke-width:3;" width="104.7725" x="198.665" y="132.9766"/><text fill="#FFFFFF" font-family="sans-serif" font-size="14" lengthAdjust="spacing" textLength="84.7725" x="208.665" y="156.5117">Data Growth</text><text fill="#000000" font-family="sans-serif" font-size="14" lengthAdjust="spacing" textLength="155.2988" x="356.4375" y="138.0234">Scale with data volume</text><path d="M303.4375,151.2207 L313.4375,151.2207 C328.4375,151.2207 328.4375,132.7324 343.4375,132.7324 L353.4375,132.7324" fill="none" style="stroke:#0078D4;stroke-width:3;"/><text fill="#000000" font-family="sans-serif" font-size="14" lengthAdjust="spacing" textLength="201.1064" x="356.4375" y="156.5117">Too coarse &#8594; huge partitions</text><path d="M303.4375,151.2207 L313.4375,151.2207 C328.4375,151.2207 328.4375,151.2207 343.4375,151.2207 L353.4375,151.2207" fill="none" style="stroke:#0078D4;stroke-width:3;"/><text fill="#000000" font-family="sans-serif" font-size="14" lengthAdjust="spacing" textLength="188.8975" x="356.4375" y="175">Too fine &#8594; many small files</text><path d="M303.4375,151.2207 L313.4375,151.2207 C328.4375,151.2207 328.4375,169.709 343.4375,169.709 L353.4375,169.709" fill="none" style="stroke:#0078D4;stroke-width:3;"/><path d="M148.665,122.9766 L158.665,122.9766 C173.665,122.9766 173.665,151.2207 188.665,151.2207 L198.665,151.2207" fill="none" style="stroke:#FF5F46;stroke-width:3;"/><rect fill="#0078D4" height="36.4883" rx="12.5" ry="12.5" style="stroke:#0078D4;stroke-width:3;" width="136.5049" x="198.665" y="189.4648"/><text fill="#FFFFFF" font-family="sans-serif" font-size="14" lengthAdjust="spacing" textLength="116.5049" x="208.665" y="213">Even Distribution</text><text fill="#000000" font-family="sans-serif" font-size="14" lengthAdjust="spacing" textLength="252.1367" x="388.1699" y="203.7559">Avoid severely uneven partition sizes</text><path d="M335.1699,207.709 L345.1699,207.709 C360.1699,207.709 360.1699,198.4648 375.1699,198.4648 L385.1699,198.4648" fill="none" style="stroke:#0078D4;stroke-width:3;"/><text fill="#000000" font-family="sans-serif" font-size="14" lengthAdjust="spacing" textLength="223.084" x="388.1699" y="222.2441">Bottlenecks from large partitions</text><path d="M335.1699,207.709 L345.1699,207.709 C360.1699,207.709 360.1699,216.9531 375.1699,216.9531 L385.1699,216.9531" fill="none" style="stroke:#0078D4;stroke-width:3;"/><path d="M148.665,122.9766 L158.665,122.9766 C173.665,122.9766 173.665,207.709 188.665,207.709 L198.665,207.709" fill="none" style="stroke:#FF5F46;stroke-width:3;"/><?plantuml-src VLFRRjD047ttLup42qHHS4Cf5rMeRT8WH46WzX49RUnnFChkJjWTEvYALpwWdzWlOUouZH8KvirpZizbLtiMnGHnv7DdLibfbCRYk-HjZYifdwRFu3O1dGkJBHU1AvzFs7A09xFPozdnIOTTaST_jpFsqc-BRXwvDoLbIuynmejHcln-y3eww9MchrvFZ_UzzhQxgdi9PjrilSO7lOfY_YPDzxtsjl_rIhjHhpd_j2tdzY3Zz7b_t0EuB0hCX6g4BteT9CJ-c_-83LoZRG7soM00Lxo6YGavUMD96bqDlciYHu8vv1I5V2PG6rjXt81J8pY4W0jL64AcNmiEpH3qrgNgEPzP8AkYiCC07wQW6IKO7qtdgvlM-jpImiEQf8Il5OP6SufWyBs6LgkSZ-0u2XHa5T98vE67akaXpQSMpTWvbLMNB6ZHpDXTqeHzf5oZE4qRI9l-KgcQS1sXqBzOIWLNM_ksf87tWTTIRYIkLHGtOVCMgzjqkC5kc3M22H7X_iyTbDK2LQm_yxZb57hH7SCPtq1qnjgsM9SIBclqCDK33pIl-jlH_yvhfXmYrjhUDb1vR7cFwX2rIcznmI8MFMPBRHNOWJLXDyaPwflitsLoD1gduvFH-2y0?></g></svg>