<?plantuml 1.2026.2?><svg xmlns="http://www.w3.org/2000/svg" xmlns:xlink="http://www.w3.org/1999/xlink" contentStyleType="text/css" data-diagram-type="MINDMAP" height="247px" preserveAspectRatio="none" style="width:620px;height:247px;background:#FFFFFF;" version="1.1" viewBox="0 0 620 247" width="620px" zoomAndPan="magnify"><defs/><g><rect fill="#FF5F46" height="52.9766" rx="12.5" ry="12.5" style="stroke:#FF5F46;stroke-width:3;" width="92.5635" x="10" y="96.4883"/><text fill="#FFFFFF" font-family="sans-serif" font-size="14" lengthAdjust="spacing" textLength="72.5635" x="20" y="120.0234">Dimension</text><text fill="#FFFFFF" font-family="sans-serif" font-size="14" lengthAdjust="spacing" textLength="58.4609" x="20" y="136.5117">Changes</text><rect fill="#0078D4" height="36.4883" rx="12.5" ry="12.5" style="stroke:#0078D4;stroke-width:3;" width="117.3164" x="152.5635" y="20"/><text fill="#FFFFFF" font-family="sans-serif" font-size="14" lengthAdjust="spacing" textLength="97.3164" x="162.5635" y="43.5352">Core Question</text><text fill="#000000" font-family="sans-serif" font-size="14" lengthAdjust="spacing" textLength="285.8994" x="322.8799" y="43.5352">What happens when source data changes?</text><path d="M269.8799,38.2441 L279.8799,38.2441 C294.8799,38.2441 294.8799,38.2441 309.8799,38.2441 L319.8799,38.2441" fill="none" style="stroke:#0078D4;stroke-width:3;"/><path d="M102.5635,122.9766 L112.5635,122.9766 C127.5635,122.9766 127.5635,38.2441 142.5635,38.2441 L152.5635,38.2441" fill="none" style="stroke:#FF5F46;stroke-width:3;"/><rect fill="#0078D4" height="36.4883" rx="12.5" ry="12.5" style="stroke:#0078D4;stroke-width:3;" width="116.6943" x="152.5635" y="76.4883"/><text fill="#FFFFFF" font-family="sans-serif" font-size="14" lengthAdjust="spacing" textLength="96.6943" x="162.5635" y="100.0234">Three Options</text><text fill="#000000" font-family="sans-serif" font-size="14" lengthAdjust="spacing" textLength="157.5479" x="322.2578" y="81.5352">Overwrite (lose history)</text><path d="M269.2578,94.7324 L279.2578,94.7324 C294.2578,94.7324 294.2578,76.2441 309.2578,76.2441 L319.2578,76.2441" fill="none" style="stroke:#0078D4;stroke-width:3;"/><text fill="#000000" font-family="sans-serif" font-size="14" lengthAdjust="spacing" textLength="229.7012" x="322.2578" y="100.0234">Preserve old + create new version</text><path d="M269.2578,94.7324 L279.2578,94.7324 C294.2578,94.7324 294.2578,94.7324 309.2578,94.7324 L319.2578,94.7324" fill="none" style="stroke:#0078D4;stroke-width:3;"/><text fill="#000000" font-family="sans-serif" font-size="14" lengthAdjust="spacing" textLength="266.6221" x="322.2578" y="118.5117">Track limited history (previous column)</text><path d="M269.2578,94.7324 L279.2578,94.7324 C294.2578,94.7324 294.2578,113.2207 309.2578,113.2207 L319.2578,113.2207" fill="none" style="stroke:#0078D4;stroke-width:3;"/><path d="M102.5635,122.9766 L112.5635,122.9766 C127.5635,122.9766 127.5635,94.7324 142.5635,94.7324 L152.5635,94.7324" fill="none" style="stroke:#FF5F46;stroke-width:3;"/><rect fill="#0078D4" height="36.4883" rx="12.5" ry="12.5" style="stroke:#0078D4;stroke-width:3;" width="129.1699" x="152.5635" y="132.9766"/><text fill="#FFFFFF" font-family="sans-serif" font-size="14" lengthAdjust="spacing" textLength="109.1699" x="162.5635" y="156.5117">Business Impact</text><text fill="#000000" font-family="sans-serif" font-size="14" lengthAdjust="spacing" textLength="147.3896" x="334.7334" y="138.0234">Current state analysis</text><path d="M281.7334,151.2207 L291.7334,151.2207 C306.7334,151.2207 306.7334,132.7324 321.7334,132.7324 L331.7334,132.7324" fill="none" style="stroke:#0078D4;stroke-width:3;"/><text fill="#000000" font-family="sans-serif" font-size="14" lengthAdjust="spacing" textLength="272.877" x="334.7334" y="156.5117">Historical analysis at time of transaction</text><path d="M281.7334,151.2207 L291.7334,151.2207 C306.7334,151.2207 306.7334,151.2207 321.7334,151.2207 L331.7334,151.2207" fill="none" style="stroke:#0078D4;stroke-width:3;"/><text fill="#000000" font-family="sans-serif" font-size="14" lengthAdjust="spacing" textLength="166.5303" x="334.7334" y="175">Trend analysis over time</text><path d="M281.7334,151.2207 L291.7334,151.2207 C306.7334,151.2207 306.7334,169.709 321.7334,169.709 L331.7334,169.709" fill="none" style="stroke:#0078D4;stroke-width:3;"/><path d="M102.5635,122.9766 L112.5635,122.9766 C127.5635,122.9766 127.5635,151.2207 142.5635,151.2207 L152.5635,151.2207" fill="none" style="stroke:#FF5F46;stroke-width:3;"/><rect fill="#0078D4" height="36.4883" rx="12.5" ry="12.5" style="stroke:#0078D4;stroke-width:3;" width="145.0088" x="152.5635" y="189.4648"/><text fill="#FFFFFF" font-family="sans-serif" font-size="14" lengthAdjust="spacing" textLength="125.0088" x="162.5635" y="213">SCD Choice Drives</text><text fill="#000000" font-family="sans-serif" font-size="14" lengthAdjust="spacing" textLength="182.1982" x="350.5723" y="194.5117">Table structure complexity</text><path d="M297.5723,207.709 L307.5723,207.709 C322.5723,207.709 322.5723,189.2207 337.5723,189.2207 L347.5723,189.2207" fill="none" style="stroke:#0078D4;stroke-width:3;"/><text fill="#000000" font-family="sans-serif" font-size="14" lengthAdjust="spacing" textLength="146.3301" x="350.5723" y="213">Storage requirements</text><path d="M297.5723,207.709 L307.5723,207.709 C322.5723,207.709 322.5723,207.709 337.5723,207.709 L347.5723,207.709" fill="none" style="stroke:#0078D4;stroke-width:3;"/><text fill="#000000" font-family="sans-serif" font-size="14" lengthAdjust="spacing" textLength="119.5195" x="350.5723" y="231.4883">Query complexity</text><path d="M297.5723,207.709 L307.5723,207.709 C322.5723,207.709 322.5723,226.1973 337.5723,226.1973 L347.5723,226.1973" fill="none" style="stroke:#0078D4;stroke-width:3;"/><path d="M102.5635,122.9766 L112.5635,122.9766 C127.5635,122.9766 127.5635,207.709 142.5635,207.709 L152.5635,207.709" fill="none" style="stroke:#FF5F46;stroke-width:3;"/><?plantuml-src VLFTIoCn47_VlsBWNceFwjhp_48ySSjo1mSg5dmH9CrEcs0ssPiahKNytvtzQFLMwZpE_BuoIIvz41HAROjILCcv3sk35ybPWLLGWtGFNXBWkXBoQK4ksY9pnX5yo_EV-U5HC_khBNxkviw6hZjlQekTAYsVB7eFFqPfyhhnEjZfbQR79vF3lbUl-xzgBq7UrBlNUAVNV3uxJTE-Lw_xfLVQ57lDtBEfCIyx4UVxtRg7CD4bMg-TVR2P4dQ1FXaE8NE4S1lH1vvmO_W8zqe4KAAg60uhXHQyYoGH2X44o9RxgoPF5I72TLLpVKk-NYAjI0U4WN4UGMaV7AttskaDeKTQ8ZXJm7UGX8AH5bV0DBzDC2LU6XXTiawnaO11HRZKBdgGpiJIrffm5RrkzlIdh8GCBJ-BH6W3yCDZUM65MNlT1VpTg6afp7O0VDx0sm4tXq32UXRwa0LjyGvr7BG1r-PtsGGovJJlPa9wYPt5LCmCiZb56IAlLxgoClYimxgTtt40iK0W_1Sr8LzBw9Xy4NpG3_XBDj_ydEHWD4x7HwFn6m00?></g></svg>