<?plantuml 1.2026.2?><svg xmlns="http://www.w3.org/2000/svg" xmlns:xlink="http://www.w3.org/1999/xlink" contentStyleType="text/css" data-diagram-type="MINDMAP" height="247px" preserveAspectRatio="none" style="width:667px;height:247px;background:#FFFFFF;" version="1.1" viewBox="0 0 667 247" width="667px" zoomAndPan="magnify"><defs/><g><rect fill="#FF5F46" height="36.4883" rx="12.5" ry="12.5" style="stroke:#FF5F46;stroke-width:3;" width="158.0176" x="10" y="104.7324"/><text fill="#FFFFFF" font-family="sans-serif" font-size="14" lengthAdjust="spacing" textLength="138.0176" x="20" y="128.2676">SCD Types Overview</text><rect fill="#0078D4" height="36.4883" rx="12.5" ry="12.5" style="stroke:#0078D4;stroke-width:3;" width="174.458" x="218.0176" y="20"/><text fill="#FFFFFF" font-family="sans-serif" font-size="14" lengthAdjust="spacing" textLength="154.458" x="228.0176" y="43.5352">Type 0 - Never Update</text><text fill="#000000" font-family="sans-serif" font-size="14" lengthAdjust="spacing" textLength="178.958" x="445.4756" y="25.0469">Original values permanent</text><path d="M392.4756,38.2441 L402.4756,38.2441 C417.4756,38.2441 417.4756,19.7559 432.4756,19.7559 L442.4756,19.7559" fill="none" style="stroke:#0078D4;stroke-width:3;"/><text fill="#000000" font-family="sans-serif" font-size="14" lengthAdjust="spacing" textLength="201.6123" x="445.4756" y="43.5352">Birth dates, registration dates</text><path d="M392.4756,38.2441 L402.4756,38.2441 C417.4756,38.2441 417.4756,38.2441 432.4756,38.2441 L442.4756,38.2441" fill="none" style="stroke:#0078D4;stroke-width:3;"/><text fill="#000000" font-family="sans-serif" font-size="14" lengthAdjust="spacing" textLength="187.7627" x="445.4756" y="62.0234">Compliance/audit retention</text><path d="M392.4756,38.2441 L402.4756,38.2441 C417.4756,38.2441 417.4756,56.7324 432.4756,56.7324 L442.4756,56.7324" fill="none" style="stroke:#0078D4;stroke-width:3;"/><path d="M168.0176,122.9766 L178.0176,122.9766 C193.0176,122.9766 193.0176,38.2441 208.0176,38.2441 L218.0176,38.2441" fill="none" style="stroke:#FF5F46;stroke-width:3;"/><rect fill="#0078D4" height="36.4883" rx="12.5" ry="12.5" style="stroke:#0078D4;stroke-width:3;" width="148.2695" x="218.0176" y="76.4883"/><text fill="#FFFFFF" font-family="sans-serif" font-size="14" lengthAdjust="spacing" textLength="128.2695" x="228.0176" y="100.0234">Type 1 - Overwrite</text><text fill="#000000" font-family="sans-serif" font-size="14" lengthAdjust="spacing" textLength="137.7168" x="419.2871" y="81.5352">Always current state</text><path d="M366.2871,94.7324 L376.2871,94.7324 C391.2871,94.7324 391.2871,76.2441 406.2871,76.2441 L416.2871,76.2441" fill="none" style="stroke:#0078D4;stroke-width:3;"/><text fill="#000000" font-family="sans-serif" font-size="14" lengthAdjust="spacing" textLength="163.5977" x="419.2871" y="100.0234">Contact info corrections</text><path d="M366.2871,94.7324 L376.2871,94.7324 C391.2871,94.7324 391.2871,94.7324 406.2871,94.7324 L416.2871,94.7324" fill="none" style="stroke:#0078D4;stroke-width:3;"/><text fill="#000000" font-family="sans-serif" font-size="14" lengthAdjust="spacing" textLength="148.9414" x="419.2871" y="118.5117">No historical accuracy</text><path d="M366.2871,94.7324 L376.2871,94.7324 C391.2871,94.7324 391.2871,113.2207 406.2871,113.2207 L416.2871,113.2207" fill="none" style="stroke:#0078D4;stroke-width:3;"/><path d="M168.0176,122.9766 L178.0176,122.9766 C193.0176,122.9766 193.0176,94.7324 208.0176,94.7324 L218.0176,94.7324" fill="none" style="stroke:#FF5F46;stroke-width:3;"/><rect fill="#0078D4" height="36.4883" rx="12.5" ry="12.5" style="stroke:#0078D4;stroke-width:3;" width="160.0889" x="218.0176" y="132.9766"/><text fill="#FFFFFF" font-family="sans-serif" font-size="14" lengthAdjust="spacing" textLength="140.0889" x="228.0176" y="156.5117">Type 2 - Full History</text><text fill="#000000" font-family="sans-serif" font-size="14" lengthAdjust="spacing" textLength="138.9199" x="431.1064" y="138.0234">New row per version</text><path d="M378.1064,151.2207 L388.1064,151.2207 C403.1064,151.2207 403.1064,132.7324 418.1064,132.7324 L428.1064,132.7324" fill="none" style="stroke:#0078D4;stroke-width:3;"/><text fill="#000000" font-family="sans-serif" font-size="14" lengthAdjust="spacing" textLength="203.123" x="431.1064" y="156.5117">Surrogate key + validity dates</text><path d="M378.1064,151.2207 L388.1064,151.2207 C403.1064,151.2207 403.1064,151.2207 418.1064,151.2207 L428.1064,151.2207" fill="none" style="stroke:#0078D4;stroke-width:3;"/><text fill="#000000" font-family="sans-serif" font-size="14" lengthAdjust="spacing" textLength="198.4609" x="431.1064" y="175">Historical accuracy preserved</text><path d="M378.1064,151.2207 L388.1064,151.2207 C403.1064,151.2207 403.1064,169.709 418.1064,169.709 L428.1064,169.709" fill="none" style="stroke:#0078D4;stroke-width:3;"/><path d="M168.0176,122.9766 L178.0176,122.9766 C193.0176,122.9766 193.0176,151.2207 208.0176,151.2207 L218.0176,151.2207" fill="none" style="stroke:#FF5F46;stroke-width:3;"/><rect fill="#0078D4" height="36.4883" rx="12.5" ry="12.5" style="stroke:#0078D4;stroke-width:3;" width="186.2773" x="218.0176" y="189.4648"/><text fill="#FFFFFF" font-family="sans-serif" font-size="14" lengthAdjust="spacing" textLength="166.2773" x="228.0176" y="213">Type 3 - Limited History</text><text fill="#000000" font-family="sans-serif" font-size="14" lengthAdjust="spacing" textLength="198.0166" x="457.2949" y="194.5117">Previous value column added</text><path d="M404.2949,207.709 L414.2949,207.709 C429.2949,207.709 429.2949,189.2207 444.2949,189.2207 L454.2949,189.2207" fill="none" style="stroke:#0078D4;stroke-width:3;"/><text fill="#000000" font-family="sans-serif" font-size="14" lengthAdjust="spacing" textLength="192.8213" x="457.2949" y="213">Only one prior value tracked</text><path d="M404.2949,207.709 L414.2949,207.709 C429.2949,207.709 429.2949,207.709 444.2949,207.709 L454.2949,207.709" fill="none" style="stroke:#0078D4;stroke-width:3;"/><text fill="#000000" font-family="sans-serif" font-size="14" lengthAdjust="spacing" textLength="166.127" x="457.2949" y="231.4883">Before/after comparison</text><path d="M404.2949,207.709 L414.2949,207.709 C429.2949,207.709 429.2949,226.1973 444.2949,226.1973 L454.2949,226.1973" fill="none" style="stroke:#0078D4;stroke-width:3;"/><path d="M168.0176,122.9766 L178.0176,122.9766 C193.0176,122.9766 193.0176,207.709 208.0176,207.709 L218.0176,207.709" fill="none" style="stroke:#FF5F46;stroke-width:3;"/><?plantuml-src VPDDRzim38Rl_XK4TjcoBNNShlj0CNH9OVHGj0FQdGTLeXCYicHGSZoZs7yV_P5iTP7nIBxYyvAIBaDK74jofbHLSX5YQ_5hyiLW5JUlqpVmb834KkdjcdtjpCfRp_0gpp_aP-TzxOOSlipctiKnM_Hnq3viI6yTXW2dypJvlMSjZhBIzEEdgxCfQv9ztdNY8E_ZBoixoYgAnyzfEcLDilzbfNq8wz7_iftcwQZYucHSzmpkLrVmq5OOu6w7l2Diajcipq0Ax-4M9Gi_AgCYIc7s4-wOrkIKXPsojHoha4lbqCMXl2IE6-ZauHqmhYb4Lf6y6tA3QENBof9o6azKRIYAC4e7KHtW2u5tZXgcFVcRRLGRGDVC8WPvF_lAIcPKEWAvmeFsKjTTiv5sws4ZDZoJ5jjAImEbsmCf4r9UMmlNlQWT3s43x9jkF10ROV0cXNl1-xMWOOijlEtMG392--zyroznK346MJ2Q0_XKm3TKodpcEVixuuvy7OOLoq2sBXqeO_h3tHqusu9tA4r9BdQGoPxrTgzOOk5Pjbj4yQzbtOefo0YNAFzj_7F9OfwbsVay-mC0?></g></svg>