<?plantuml 1.2026.2?><svg xmlns="http://www.w3.org/2000/svg" xmlns:xlink="http://www.w3.org/1999/xlink" contentStyleType="text/css" data-diagram-type="MINDMAP" height="247px" preserveAspectRatio="none" style="width:642px;height:247px;background:#FFFFFF;" version="1.1" viewBox="0 0 642 247" width="642px" zoomAndPan="magnify"><defs/><g><rect fill="#FF5F46" height="52.9766" rx="12.5" ry="12.5" style="stroke:#FF5F46;stroke-width:3;" width="106.9395" x="10" y="96.4883"/><text fill="#FFFFFF" font-family="sans-serif" font-size="14" lengthAdjust="spacing" textLength="86.9395" x="20" y="120.0234">Change Data</text><text fill="#FFFFFF" font-family="sans-serif" font-size="14" lengthAdjust="spacing" textLength="73.1309" x="20" y="136.5117">Feed (CDF)</text><rect fill="#0078D4" height="36.4883" rx="12.5" ry="12.5" style="stroke:#0078D4;stroke-width:3;" width="132.5947" x="166.9395" y="20"/><text fill="#FFFFFF" font-family="sans-serif" font-size="14" lengthAdjust="spacing" textLength="112.5947" x="176.9395" y="43.5352">What it Captures</text><text fill="#000000" font-family="sans-serif" font-size="14" lengthAdjust="spacing" textLength="231.3213" x="352.5342" y="25.0469">Row-level insert / update / delete</text><path d="M299.5342,38.2441 L309.5342,38.2441 C324.5342,38.2441 324.5342,19.7559 339.5342,19.7559 L349.5342,19.7559" fill="none" style="stroke:#0078D4;stroke-width:3;"/><text fill="#000000" font-family="sans-serif" font-size="14" lengthAdjust="spacing" textLength="214.4434" x="352.5342" y="43.5352">_change_type metadata column</text><path d="M299.5342,38.2441 L309.5342,38.2441 C324.5342,38.2441 324.5342,38.2441 339.5342,38.2441 L349.5342,38.2441" fill="none" style="stroke:#0078D4;stroke-width:3;"/><text fill="#000000" font-family="sans-serif" font-size="14" lengthAdjust="spacing" textLength="260.6338" x="352.5342" y="62.0234">_commit_version, _commit_timestamp</text><path d="M299.5342,38.2441 L309.5342,38.2441 C324.5342,38.2441 324.5342,56.7324 339.5342,56.7324 L349.5342,56.7324" fill="none" style="stroke:#0078D4;stroke-width:3;"/><path d="M116.9395,122.9766 L126.9395,122.9766 C141.9395,122.9766 141.9395,38.2441 156.9395,38.2441 L166.9395,38.2441" fill="none" style="stroke:#FF5F46;stroke-width:3;"/><rect fill="#0078D4" height="36.4883" rx="12.5" ry="12.5" style="stroke:#0078D4;stroke-width:3;" width="110.4395" x="166.9395" y="76.4883"/><text fill="#FFFFFF" font-family="sans-serif" font-size="14" lengthAdjust="spacing" textLength="90.4395" x="176.9395" y="100.0234">Enabling CDF</text><text fill="#000000" font-family="sans-serif" font-size="14" lengthAdjust="spacing" textLength="244.8018" x="330.3789" y="81.5352">delta.enableChangeDataFeed = true</text><path d="M277.3789,94.7324 L287.3789,94.7324 C302.3789,94.7324 302.3789,76.2441 317.3789,76.2441 L327.3789,76.2441" fill="none" style="stroke:#0078D4;stroke-width:3;"/><text fill="#000000" font-family="sans-serif" font-size="14" lengthAdjust="spacing" textLength="256.6484" x="330.3789" y="100.0234">Set on CREATE TABLE or ALTER TABLE</text><path d="M277.3789,94.7324 L287.3789,94.7324 C302.3789,94.7324 302.3789,94.7324 317.3789,94.7324 L327.3789,94.7324" fill="none" style="stroke:#0078D4;stroke-width:3;"/><text fill="#000000" font-family="sans-serif" font-size="14" lengthAdjust="spacing" textLength="199.7529" x="330.3789" y="118.5117">Only captures future changes</text><path d="M277.3789,94.7324 L287.3789,94.7324 C302.3789,94.7324 302.3789,113.2207 317.3789,113.2207 L327.3789,113.2207" fill="none" style="stroke:#0078D4;stroke-width:3;"/><path d="M116.9395,122.9766 L126.9395,122.9766 C141.9395,122.9766 141.9395,94.7324 156.9395,94.7324 L166.9395,94.7324" fill="none" style="stroke:#FF5F46;stroke-width:3;"/><rect fill="#0078D4" height="36.4883" rx="12.5" ry="12.5" style="stroke:#0078D4;stroke-width:3;" width="144.7627" x="166.9395" y="132.9766"/><text fill="#FFFFFF" font-family="sans-serif" font-size="14" lengthAdjust="spacing" textLength="124.7627" x="176.9395" y="156.5117">Querying Changes</text><text fill="#000000" font-family="sans-serif" font-size="14" lengthAdjust="spacing" textLength="219.8027" x="364.7021" y="138.0234">table_changes('table', start, end)</text><path d="M311.7021,151.2207 L321.7021,151.2207 C336.7021,151.2207 336.7021,132.7324 351.7021,132.7324 L361.7021,132.7324" fill="none" style="stroke:#0078D4;stroke-width:3;"/><text fill="#000000" font-family="sans-serif" font-size="14" lengthAdjust="spacing" textLength="151.3203" x="364.7021" y="156.5117">Filter by _change_type</text><path d="M311.7021,151.2207 L321.7021,151.2207 C336.7021,151.2207 336.7021,151.2207 351.7021,151.2207 L361.7021,151.2207" fill="none" style="stroke:#0078D4;stroke-width:3;"/><text fill="#000000" font-family="sans-serif" font-size="14" lengthAdjust="spacing" textLength="266.2803" x="364.7021" y="175">update_preimage vs update_postimage</text><path d="M311.7021,151.2207 L321.7021,151.2207 C336.7021,151.2207 336.7021,169.709 351.7021,169.709 L361.7021,169.709" fill="none" style="stroke:#0078D4;stroke-width:3;"/><path d="M116.9395,122.9766 L126.9395,122.9766 C141.9395,122.9766 141.9395,151.2207 156.9395,151.2207 L166.9395,151.2207" fill="none" style="stroke:#FF5F46;stroke-width:3;"/><rect fill="#0078D4" height="36.4883" rx="12.5" ry="12.5" style="stroke:#0078D4;stroke-width:3;" width="88.5576" x="166.9395" y="189.4648"/><text fill="#FFFFFF" font-family="sans-serif" font-size="14" lengthAdjust="spacing" textLength="68.5576" x="176.9395" y="213">Use Cases</text><text fill="#000000" font-family="sans-serif" font-size="14" lengthAdjust="spacing" textLength="230.8906" x="308.4971" y="194.5117">Downstream pipeline propagation</text><path d="M255.4971,207.709 L265.4971,207.709 C280.4971,207.709 280.4971,189.2207 295.4971,189.2207 L305.4971,189.2207" fill="none" style="stroke:#0078D4;stroke-width:3;"/><text fill="#000000" font-family="sans-serif" font-size="14" lengthAdjust="spacing" textLength="155.0254" x="308.4971" y="213">Debugging data issues</text><path d="M255.4971,207.709 L265.4971,207.709 C280.4971,207.709 280.4971,207.709 295.4971,207.709 L305.4971,207.709" fill="none" style="stroke:#0078D4;stroke-width:3;"/><text fill="#000000" font-family="sans-serif" font-size="14" lengthAdjust="spacing" textLength="74.7988" x="308.4971" y="231.4883">Audit trails</text><path d="M255.4971,207.709 L265.4971,207.709 C280.4971,207.709 280.4971,226.1973 295.4971,226.1973 L305.4971,226.1973" fill="none" style="stroke:#0078D4;stroke-width:3;"/><path d="M116.9395,122.9766 L126.9395,122.9766 C141.9395,122.9766 141.9395,207.709 156.9395,207.709 L166.9395,207.709" fill="none" style="stroke:#FF5F46;stroke-width:3;"/><?plantuml-src VLDTRvim57tdLrnf3qsYBALPstsecveIU8eqDSkqbqd8m0snQcpBlgH3rVxxZ85CPShk2_ZuN9_ZO_lU4ZDKSLbKJ0TtbXg1Nu9F1MewJC8fl0JWwe7bJwLHjImY9PI1DqboarpV-haDb_WlcYX9FRhtTUBk3Zn_acWjl5k4mUz1w-giLXY-_x2-7ckDqDUhZXmallvgBSzgxVVPnp0SQutG_sg5lfnMfdw9blDobd5tsSSzW-Z0P8cmPiH-oWInW4cqJgR1R0O_3eo04qHCKstGEcoMmbOzlnLuH05SMZG4br3hWX6wdm854dQyDFShfzHeX0g9EGw3N8cwaWD3LHMdz8Z6SYNd9u1uXUvsLBfr4KkM2IvBSBQwFgT2R84jZftzrhtt_Xd8rBs1RqYW94JRUBMBORTwsCJWKbXjTl6s6tQyhr8qaFTxX7tTVg4ptsuP7ciqZJTmmbmNjUhz7ktamWylvk0lzHnG5jEEbt11Q21hNWNIpNMvfTeWhvWxXACzGSgInre3toswCx23ybezIqi6MGMQQtJP86YZD2iPkHXx4cPrMRQkVUpSsdheNzM5ErGoZ0iRt3kdmniChXRBS7cxMFu1?></g></svg>