<?plantuml 1.2026.2?><svg xmlns="http://www.w3.org/2000/svg" xmlns:xlink="http://www.w3.org/1999/xlink" contentStyleType="text/css" data-diagram-type="MINDMAP" height="247px" preserveAspectRatio="none" style="width:705px;height:247px;background:#FFFFFF;" version="1.1" viewBox="0 0 705 247" width="705px" zoomAndPan="magnify"><defs/><g><rect fill="#FF5F46" height="52.9766" rx="12.5" ry="12.5" style="stroke:#FF5F46;stroke-width:3;" width="149.8145" x="10" y="96.4883"/><text fill="#FFFFFF" font-family="sans-serif" font-size="14" lengthAdjust="spacing" textLength="100.5771" x="20" y="120.0234">Persist Change</text><text fill="#FFFFFF" font-family="sans-serif" font-size="14" lengthAdjust="spacing" textLength="129.8145" x="20" y="136.5117">History Long-Term</text><rect fill="#0078D4" height="36.4883" rx="12.5" ry="12.5" style="stroke:#0078D4;stroke-width:3;" width="164.2588" x="209.8145" y="20"/><text fill="#FFFFFF" font-family="sans-serif" font-size="14" lengthAdjust="spacing" textLength="144.2588" x="219.8145" y="43.5352">Delta Log Limitations</text><text fill="#000000" font-family="sans-serif" font-size="14" lengthAdjust="spacing" textLength="169.4834" x="427.0732" y="34.291">Default 30-day retention</text><path d="M374.0732,38.2441 L384.0732,38.2441 C399.0732,38.2441 399.0732,29 414.0732,29 L424.0732,29" fill="none" style="stroke:#0078D4;stroke-width:3;"/><text fill="#000000" font-family="sans-serif" font-size="14" lengthAdjust="spacing" textLength="193.792" x="427.0732" y="52.7793">VACUUM removes older files</text><path d="M374.0732,38.2441 L384.0732,38.2441 C399.0732,38.2441 399.0732,47.4883 414.0732,47.4883 L424.0732,47.4883" fill="none" style="stroke:#0078D4;stroke-width:3;"/><path d="M159.8145,122.9766 L169.8145,122.9766 C184.8145,122.9766 184.8145,38.2441 199.8145,38.2441 L209.8145,38.2441" fill="none" style="stroke:#FF5F46;stroke-width:3;"/><rect fill="#0078D4" height="36.4883" rx="12.5" ry="12.5" style="stroke:#0078D4;stroke-width:3;" width="156.7598" x="209.8145" y="76.4883"/><text fill="#FFFFFF" font-family="sans-serif" font-size="14" lengthAdjust="spacing" textLength="136.7598" x="219.8145" y="100.0234">Long-Term Patterns</text><text fill="#000000" font-family="sans-serif" font-size="14" lengthAdjust="spacing" textLength="236.8037" x="419.5742" y="81.5352">Write CDF to separate history table</text><path d="M366.5742,94.7324 L376.5742,94.7324 C391.5742,94.7324 391.5742,76.2441 406.5742,76.2441 L416.5742,76.2441" fill="none" style="stroke:#0078D4;stroke-width:3;"/><text fill="#000000" font-family="sans-serif" font-size="14" lengthAdjust="spacing" textLength="193.3545" x="419.5742" y="100.0234">Append-only history archive</text><path d="M366.5742,94.7324 L376.5742,94.7324 C391.5742,94.7324 391.5742,94.7324 406.5742,94.7324 L416.5742,94.7324" fill="none" style="stroke:#0078D4;stroke-width:3;"/><text fill="#000000" font-family="sans-serif" font-size="14" lengthAdjust="spacing" textLength="273.7793" x="419.5742" y="118.5117">Include metadata (source file, load time)</text><path d="M366.5742,94.7324 L376.5742,94.7324 C391.5742,94.7324 391.5742,113.2207 406.5742,113.2207 L416.5742,113.2207" fill="none" style="stroke:#0078D4;stroke-width:3;"/><path d="M159.8145,122.9766 L169.8145,122.9766 C184.8145,122.9766 184.8145,94.7324 199.8145,94.7324 L209.8145,94.7324" fill="none" style="stroke:#FF5F46;stroke-width:3;"/><rect fill="#0078D4" height="36.4883" rx="12.5" ry="12.5" style="stroke:#0078D4;stroke-width:3;" width="161.3398" x="209.8145" y="132.9766"/><text fill="#FFFFFF" font-family="sans-serif" font-size="14" lengthAdjust="spacing" textLength="141.3398" x="219.8145" y="156.5117">History Table Design</text><text fill="#000000" font-family="sans-serif" font-size="14" lengthAdjust="spacing" textLength="135.6318" x="424.1543" y="138.0234">All original columns</text><path d="M371.1543,151.2207 L381.1543,151.2207 C396.1543,151.2207 396.1543,132.7324 411.1543,132.7324 L421.1543,132.7324" fill="none" style="stroke:#0078D4;stroke-width:3;"/><text fill="#000000" font-family="sans-serif" font-size="14" lengthAdjust="spacing" textLength="238.1641" x="424.1543" y="156.5117">_change_type, _commit_timestamp</text><path d="M371.1543,151.2207 L381.1543,151.2207 C396.1543,151.2207 396.1543,151.2207 411.1543,151.2207 L421.1543,151.2207" fill="none" style="stroke:#0078D4;stroke-width:3;"/><text fill="#000000" font-family="sans-serif" font-size="14" lengthAdjust="spacing" textLength="204.2852" x="424.1543" y="175">Partition by date for efficiency</text><path d="M371.1543,151.2207 L381.1543,151.2207 C396.1543,151.2207 396.1543,169.709 411.1543,169.709 L421.1543,169.709" fill="none" style="stroke:#0078D4;stroke-width:3;"/><path d="M159.8145,122.9766 L169.8145,122.9766 C184.8145,122.9766 184.8145,151.2207 199.8145,151.2207 L209.8145,151.2207" fill="none" style="stroke:#FF5F46;stroke-width:3;"/><rect fill="#0078D4" height="36.4883" rx="12.5" ry="12.5" style="stroke:#0078D4;stroke-width:3;" width="99.6523" x="209.8145" y="189.4648"/><text fill="#FFFFFF" font-family="sans-serif" font-size="14" lengthAdjust="spacing" textLength="79.6523" x="219.8145" y="213">Compliance</text><text fill="#000000" font-family="sans-serif" font-size="14" lengthAdjust="spacing" textLength="269.1104" x="362.4668" y="203.7559">Immutable history (no updates/deletes)</text><path d="M309.4668,207.709 L319.4668,207.709 C334.4668,207.709 334.4668,198.4648 349.4668,198.4648 L359.4668,198.4648" fill="none" style="stroke:#0078D4;stroke-width:3;"/><text fill="#000000" font-family="sans-serif" font-size="14" lengthAdjust="spacing" textLength="208.6943" x="362.4668" y="222.2441">Documented retention policies</text><path d="M309.4668,207.709 L319.4668,207.709 C334.4668,207.709 334.4668,216.9531 349.4668,216.9531 L359.4668,216.9531" fill="none" style="stroke:#0078D4;stroke-width:3;"/><path d="M159.8145,122.9766 L169.8145,122.9766 C184.8145,122.9766 184.8145,207.709 199.8145,207.709 L209.8145,207.709" fill="none" style="stroke:#FF5F46;stroke-width:3;"/><?plantuml-src VLFTQzim47_tNt6mboGigPjstGTbD7Cm6tIGXtHx6HX5EjkYaiv8Sfaf_TydENRAFB9xq_tEz_kGVESyirvB8pHhabldEuMVaqy26r_FqZay9n3g2-EFbQNMY8mKMNYJv-_owviUkvS6_-tcPFpGBViwpUvhoHyDEWTNgpHv6RakptAbwViFs-ifrwJxzzQ9WholLwxrMQwoF7nCqodNfFjVhhIlm7MWtohEF9-TkBqOubx03gsJpaDMCrFXB_Cr7CXsS4-cMkxHwcInW2qgpqAh2YgqzCnBCYu0Yo909MkLXwjqALW75ZsQ21_H7vliuU5xw6fwGWUa15eePP0NrvuuOCUyHplk_6cbHyYsENW2XmspB9phGPbd1uN7mKtJe15BCgexmSpoMZuD0zyCLwr0qEYPOC73p55hEVOQte8Y9i1BZVCePxI-ZmJ1c9FLO6EZ592LbJHC0IVLwb5gmVlS2jyrOL_1IOTyYhWoF6_T78TsuQ7B60eSEX3HInck0yjISec6Tv4y8zqeoGmVbMlTzavFncQ6e6tYv-v2e0f1k_bm1yHR7M97yPe_DAJYUfVSXOZ6toovNAtJzSrg_GS0?></g></svg>