<?plantuml 1.2026.2?><svg xmlns="http://www.w3.org/2000/svg" xmlns:xlink="http://www.w3.org/1999/xlink" contentStyleType="text/css" data-diagram-type="MINDMAP" height="247px" preserveAspectRatio="none" style="width:643px;height:247px;background:#FFFFFF;" version="1.1" viewBox="0 0 643 247" width="643px" zoomAndPan="magnify"><defs/><g><rect fill="#FF5F46" height="52.9766" rx="12.5" ry="12.5" style="stroke:#FF5F46;stroke-width:3;" width="108.8535" x="10" y="96.4883"/><text fill="#FFFFFF" font-family="sans-serif" font-size="14" lengthAdjust="spacing" textLength="88.8535" x="20" y="120.0234">Retention for</text><text fill="#FFFFFF" font-family="sans-serif" font-size="14" lengthAdjust="spacing" textLength="79.6523" x="20" y="136.5117">Compliance</text><rect fill="#0078D4" height="36.4883" rx="12.5" ry="12.5" style="stroke:#0078D4;stroke-width:3;" width="174.0068" x="168.8535" y="20"/><text fill="#FFFFFF" font-family="sans-serif" font-size="14" lengthAdjust="spacing" textLength="154.0068" x="178.8535" y="43.5352">Delta Retention Config</text><text fill="#000000" font-family="sans-serif" font-size="14" lengthAdjust="spacing" textLength="183.5859" x="395.8604" y="34.291">delta.logRetentionDuration</text><path d="M342.8604,38.2441 L352.8604,38.2441 C367.8604,38.2441 367.8604,29 382.8604,29 L392.8604,29" fill="none" style="stroke:#0078D4;stroke-width:3;"/><text fill="#000000" font-family="sans-serif" font-size="14" lengthAdjust="spacing" textLength="235.915" x="395.8604" y="52.7793">delta.deletedFileRetentionDuration</text><path d="M342.8604,38.2441 L352.8604,38.2441 C367.8604,38.2441 367.8604,47.4883 382.8604,47.4883 L392.8604,47.4883" fill="none" style="stroke:#0078D4;stroke-width:3;"/><path d="M118.8535,122.9766 L128.8535,122.9766 C143.8535,122.9766 143.8535,38.2441 158.8535,38.2441 L168.8535,38.2441" fill="none" style="stroke:#FF5F46;stroke-width:3;"/><rect fill="#0078D4" height="36.4883" rx="12.5" ry="12.5" style="stroke:#0078D4;stroke-width:3;" width="154.0459" x="168.8535" y="76.4883"/><text fill="#FFFFFF" font-family="sans-serif" font-size="14" lengthAdjust="spacing" textLength="134.0459" x="178.8535" y="100.0234">VACUUM Command</text><text fill="#000000" font-family="sans-serif" font-size="14" lengthAdjust="spacing" textLength="233.5566" x="375.8994" y="81.5352">Removes files older than retention</text><path d="M322.8994,94.7324 L332.8994,94.7324 C347.8994,94.7324 347.8994,76.2441 362.8994,76.2441 L372.8994,76.2441" fill="none" style="stroke:#0078D4;stroke-width:3;"/><text fill="#000000" font-family="sans-serif" font-size="14" lengthAdjust="spacing" textLength="208.3389" x="375.8994" y="100.0234">Default 7-day safety threshold</text><path d="M322.8994,94.7324 L332.8994,94.7324 C347.8994,94.7324 347.8994,94.7324 362.8994,94.7324 L372.8994,94.7324" fill="none" style="stroke:#0078D4;stroke-width:3;"/><text fill="#000000" font-family="sans-serif" font-size="14" lengthAdjust="spacing" textLength="256.04" x="375.8994" y="118.5117">Don't vacuum before retention period</text><path d="M322.8994,94.7324 L332.8994,94.7324 C347.8994,94.7324 347.8994,113.2207 362.8994,113.2207 L372.8994,113.2207" fill="none" style="stroke:#0078D4;stroke-width:3;"/><path d="M118.8535,122.9766 L128.8535,122.9766 C143.8535,122.9766 143.8535,94.7324 158.8535,94.7324 L168.8535,94.7324" fill="none" style="stroke:#FF5F46;stroke-width:3;"/><rect fill="#0078D4" height="36.4883" rx="12.5" ry="12.5" style="stroke:#0078D4;stroke-width:3;" width="190.8164" x="168.8535" y="132.9766"/><text fill="#FFFFFF" font-family="sans-serif" font-size="14" lengthAdjust="spacing" textLength="170.8164" x="178.8535" y="156.5117">Regulatory Requirements</text><text fill="#000000" font-family="sans-serif" font-size="14" lengthAdjust="spacing" textLength="149.3857" x="412.6699" y="138.0234">Finance: often 7 years</text><path d="M359.6699,151.2207 L369.6699,151.2207 C384.6699,151.2207 384.6699,132.7324 399.6699,132.7324 L409.6699,132.7324" fill="none" style="stroke:#0078D4;stroke-width:3;"/><text fill="#000000" font-family="sans-serif" font-size="14" lengthAdjust="spacing" textLength="169.21" x="412.6699" y="156.5117">Healthcare: HIPAA driven</text><path d="M359.6699,151.2207 L369.6699,151.2207 C384.6699,151.2207 384.6699,151.2207 399.6699,151.2207 L409.6699,151.2207" fill="none" style="stroke:#0078D4;stroke-width:3;"/><text fill="#000000" font-family="sans-serif" font-size="14" lengthAdjust="spacing" textLength="202.4736" x="412.6699" y="175">Document justification clearly</text><path d="M359.6699,151.2207 L369.6699,151.2207 C384.6699,151.2207 384.6699,169.709 399.6699,169.709 L409.6699,169.709" fill="none" style="stroke:#0078D4;stroke-width:3;"/><path d="M118.8535,122.9766 L128.8535,122.9766 C143.8535,122.9766 143.8535,151.2207 158.8535,151.2207 L168.8535,151.2207" fill="none" style="stroke:#FF5F46;stroke-width:3;"/><rect fill="#0078D4" height="36.4883" rx="12.5" ry="12.5" style="stroke:#0078D4;stroke-width:3;" width="118.834" x="168.8535" y="189.4648"/><text fill="#FFFFFF" font-family="sans-serif" font-size="14" lengthAdjust="spacing" textLength="98.834" x="178.8535" y="213">Tiered Storage</text><text fill="#000000" font-family="sans-serif" font-size="14" lengthAdjust="spacing" textLength="158.1836" x="340.6875" y="203.7559">Hot: recent data (Delta)</text><path d="M287.6875,207.709 L297.6875,207.709 C312.6875,207.709 312.6875,198.4648 327.6875,198.4648 L337.6875,198.4648" fill="none" style="stroke:#0078D4;stroke-width:3;"/><text fill="#000000" font-family="sans-serif" font-size="14" lengthAdjust="spacing" textLength="230.5488" x="340.6875" y="222.2441">Cold: archive (lower-cost storage)</text><path d="M287.6875,207.709 L297.6875,207.709 C312.6875,207.709 312.6875,216.9531 327.6875,216.9531 L337.6875,216.9531" fill="none" style="stroke:#0078D4;stroke-width:3;"/><path d="M118.8535,122.9766 L128.8535,122.9766 C143.8535,122.9766 143.8535,207.709 158.8535,207.709 L168.8535,207.709" fill="none" style="stroke:#FF5F46;stroke-width:3;"/><?plantuml-src VPDRRzD048NV_Ij6ue4aKeCRIWDHXHeIMKK2gUg59oIqsPsrbwvtmkuwnQhuxumlQOiXp8DjpJbplht8vo4A7qlZL2csoLc8jSNtoKBXDXQZT0mF2N1z4F8kzrGvjI9B7bvasPlivBJLFXc7VtSpSh7lwhOUlJU5aNSEGu3NqpJvjMST7sIbwVpj-cJ86dJ_J1si86lhYJKxoD9wyovDXwn1zx-ij2rcRUYdRJmF1nrdh_hZdi0LHdJHa0DD_gjRKRcrHZY9oMG2QxHHFBEio6cJipBv1ghHffRoHtbTUT6yd-lyP5bbnkA_VF1bkRgz_Sp1PIcSwYQliAGT1j0y582iGW-n40xyFg7phL6BoaQO7obHGn0QOyr6Zw7WeTv3xcM4dP1LLS86UO_u50DRz8OQ9pFpoef8lkRF7vNnMB8dT26PSSs9B80qJy8SQXI-rovGs5X8uLc--7YvN8BoPeVx9PAicY3uNeLej97jna5Q3h1r0xunw571DQD5ZdqcnGMlKZQ3Il0DZDgB67SgNwPQWF2oO0wCBDsZFv8K8eGkP9oS8_zL_P-L74zdwUnqEliD?></g></svg>