<?plantuml 1.2026.2?><svg xmlns="http://www.w3.org/2000/svg" xmlns:xlink="http://www.w3.org/1999/xlink" contentStyleType="text/css" data-diagram-type="MINDMAP" height="247px" preserveAspectRatio="none" style="width:582px;height:247px;background:#FFFFFF;" version="1.1" viewBox="0 0 582 247" width="582px" zoomAndPan="magnify"><defs/><g><rect fill="#FF5F46" height="52.9766" rx="12.5" ry="12.5" style="stroke:#FF5F46;stroke-width:3;" width="99.6045" x="10" y="96.4883"/><text fill="#FFFFFF" font-family="sans-serif" font-size="14" lengthAdjust="spacing" textLength="70.9092" x="20" y="120.0234">Delta Lake</text><text fill="#FFFFFF" font-family="sans-serif" font-size="14" lengthAdjust="spacing" textLength="79.6045" x="20" y="136.5117">Time Travel</text><rect fill="#0078D4" height="36.4883" rx="12.5" ry="12.5" style="stroke:#0078D4;stroke-width:3;" width="155.8369" x="159.6045" y="20"/><text fill="#FFFFFF" font-family="sans-serif" font-size="14" lengthAdjust="spacing" textLength="135.8369" x="169.6045" y="43.5352">Two Query Methods</text><text fill="#000000" font-family="sans-serif" font-size="14" lengthAdjust="spacing" textLength="193.3955" x="368.4414" y="34.291">TIMESTAMP AS OF 'datetime'</text><path d="M315.4414,38.2441 L325.4414,38.2441 C340.4414,38.2441 340.4414,29 355.4414,29 L365.4414,29" fill="none" style="stroke:#0078D4;stroke-width:3;"/><text fill="#000000" font-family="sans-serif" font-size="14" lengthAdjust="spacing" textLength="160.043" x="368.4414" y="52.7793">VERSION AS OF number</text><path d="M315.4414,38.2441 L325.4414,38.2441 C340.4414,38.2441 340.4414,47.4883 355.4414,47.4883 L365.4414,47.4883" fill="none" style="stroke:#0078D4;stroke-width:3;"/><path d="M109.6045,122.9766 L119.6045,122.9766 C134.6045,122.9766 134.6045,38.2441 149.6045,38.2441 L159.6045,38.2441" fill="none" style="stroke:#FF5F46;stroke-width:3;"/><rect fill="#0078D4" height="36.4883" rx="12.5" ry="12.5" style="stroke:#0078D4;stroke-width:3;" width="146.2393" x="159.6045" y="76.4883"/><text fill="#FFFFFF" font-family="sans-serif" font-size="14" lengthAdjust="spacing" textLength="126.2393" x="169.6045" y="100.0234">View Table History</text><text fill="#000000" font-family="sans-serif" font-size="14" lengthAdjust="spacing" textLength="209.7676" x="358.8438" y="90.7793">DESCRIBE HISTORY table_name</text><path d="M305.8438,94.7324 L315.8438,94.7324 C330.8438,94.7324 330.8438,85.4883 345.8438,85.4883 L355.8438,85.4883" fill="none" style="stroke:#0078D4;stroke-width:3;"/><text fill="#000000" font-family="sans-serif" font-size="14" lengthAdjust="spacing" textLength="211.4561" x="358.8438" y="109.2676">All operations with timestamps</text><path d="M305.8438,94.7324 L315.8438,94.7324 C330.8438,94.7324 330.8438,103.9766 345.8438,103.9766 L355.8438,103.9766" fill="none" style="stroke:#0078D4;stroke-width:3;"/><path d="M109.6045,122.9766 L119.6045,122.9766 C134.6045,122.9766 134.6045,94.7324 149.6045,94.7324 L159.6045,94.7324" fill="none" style="stroke:#FF5F46;stroke-width:3;"/><rect fill="#0078D4" height="36.4883" rx="12.5" ry="12.5" style="stroke:#0078D4;stroke-width:3;" width="88.5576" x="159.6045" y="132.9766"/><text fill="#FFFFFF" font-family="sans-serif" font-size="14" lengthAdjust="spacing" textLength="68.5576" x="169.6045" y="156.5117">Use Cases</text><text fill="#000000" font-family="sans-serif" font-size="14" lengthAdjust="spacing" textLength="195.2891" x="301.1621" y="138.0234">Debugging - compare states</text><path d="M248.1621,151.2207 L258.1621,151.2207 C273.1621,151.2207 273.1621,132.7324 288.1621,132.7324 L298.1621,132.7324" fill="none" style="stroke:#0078D4;stroke-width:3;"/><text fill="#000000" font-family="sans-serif" font-size="14" lengthAdjust="spacing" textLength="159.0791" x="301.1621" y="156.5117">Reproduce past reports</text><path d="M248.1621,151.2207 L258.1621,151.2207 C273.1621,151.2207 273.1621,151.2207 288.1621,151.2207 L298.1621,151.2207" fill="none" style="stroke:#0078D4;stroke-width:3;"/><text fill="#000000" font-family="sans-serif" font-size="14" lengthAdjust="spacing" textLength="195.1113" x="301.1621" y="175">Roll back accidental changes</text><path d="M248.1621,151.2207 L258.1621,151.2207 C273.1621,151.2207 273.1621,169.709 288.1621,169.709 L298.1621,169.709" fill="none" style="stroke:#0078D4;stroke-width:3;"/><path d="M109.6045,122.9766 L119.6045,122.9766 C134.6045,122.9766 134.6045,151.2207 149.6045,151.2207 L159.6045,151.2207" fill="none" style="stroke:#FF5F46;stroke-width:3;"/><rect fill="#0078D4" height="36.4883" rx="12.5" ry="12.5" style="stroke:#0078D4;stroke-width:3;" width="84.9482" x="159.6045" y="189.4648"/><text fill="#FFFFFF" font-family="sans-serif" font-size="14" lengthAdjust="spacing" textLength="64.9482" x="169.6045" y="213">Retention</text><text fill="#000000" font-family="sans-serif" font-size="14" lengthAdjust="spacing" textLength="111.125" x="297.5527" y="194.5117">Default: 30 days</text><path d="M244.5527,207.709 L254.5527,207.709 C269.5527,207.709 269.5527,189.2207 284.5527,189.2207 L294.5527,189.2207" fill="none" style="stroke:#0078D4;stroke-width:3;"/><text fill="#000000" font-family="sans-serif" font-size="14" lengthAdjust="spacing" textLength="223.3438" x="297.5527" y="213">Configurable via table properties</text><path d="M244.5527,207.709 L254.5527,207.709 C269.5527,207.709 269.5527,207.709 284.5527,207.709 L294.5527,207.709" fill="none" style="stroke:#0078D4;stroke-width:3;"/><text fill="#000000" font-family="sans-serif" font-size="14" lengthAdjust="spacing" textLength="180.2637" x="297.5527" y="231.4883">VACUUM removes old files</text><path d="M244.5527,207.709 L254.5527,207.709 C269.5527,207.709 269.5527,226.1973 284.5527,226.1973 L294.5527,226.1973" fill="none" style="stroke:#0078D4;stroke-width:3;"/><path d="M109.6045,122.9766 L119.6045,122.9766 C134.6045,122.9766 134.6045,207.709 149.6045,207.709 L159.6045,207.709" fill="none" style="stroke:#FF5F46;stroke-width:3;"/><?plantuml-src VPFRQjj048RlzHG3lKXhYAiuXwOXb3YoHGnnt5go8H08AsaaBLxjYjsHNHFwxbt9KafLtBdyvv_vPlPmPuXfAhXC2bOwjuRs0hyvDmcMb7zqFy6R0pRkMRp9jAfauYcXD7pm_Kl_ugh9FNA9_wg-ajIgQHFltZ3dyKQYCN0-T9rV7UliACjrlrnFBlgidlftrzu4VXD_MAEZh3IDlhfkdzLJ_yjocx2iIFqKjUVjgEFsStlS0vYW80QFR8ClCkG5GgZP5eKp642uK_2ZGhs7ELAk4cF5mIk4i_aq2CVpxp0EOE73IS88oPQU7FBhwJAOBPxQhAoA27NTRirn1o6B1C83DwJq_k2VJ0DlERkVmiCi21VBPw3QyofPWGV3M0XG9Mf6N4a3Equvr3pxW8go7WfM1i5Z1ji99nXLMSPb1gSGgw9a6i6QgSiliTGggMA4aXa2ZQNIrEMKfKNsTe35CKzG4XCGvqncJRMj9QlPGJfKoYf1Dt3kGiBsRHDFoPHdbMwMtN9sM0airQv1l9jZFVPMgxdb5sgB1fH88ENswfmxjB-Y_HdEsN3aZgw6ezy0?></g></svg>