<?plantuml 1.2026.2?><svg xmlns="http://www.w3.org/2000/svg" xmlns:xlink="http://www.w3.org/1999/xlink" contentStyleType="text/css" data-diagram-type="MINDMAP" height="235px" preserveAspectRatio="none" style="width:632px;height:235px;background:#FFFFFF;" version="1.1" viewBox="0 0 632 235" width="632px" zoomAndPan="magnify"><defs/><g><rect fill="#FF5F46" height="52.9766" rx="12.5" ry="12.5" style="stroke:#FF5F46;stroke-width:3;" width="103.4531" x="10" y="90.0752"/><text fill="#FFFFFF" font-family="sans-serif" font-size="14" lengthAdjust="spacing" textLength="83.4531" x="20" y="113.6104">Temporal vs</text><text fill="#FFFFFF" font-family="sans-serif" font-size="14" lengthAdjust="spacing" textLength="78.2031" x="20" y="130.0986">SCD Type 2</text><rect fill="#0078D4" height="36.4883" rx="12.5" ry="12.5" style="stroke:#0078D4;stroke-width:3;" width="98.2031" x="163.4531" y="28.7324"/><text fill="#FFFFFF" font-family="sans-serif" font-size="14" lengthAdjust="spacing" textLength="78.2031" x="173.4531" y="52.2676">SCD Type 2</text><text fill="#000000" font-family="sans-serif" font-size="14" lengthAdjust="spacing" textLength="189.7793" x="314.6563" y="24.5352">Business/analytical purpose</text><path d="M261.6563,46.9766 L271.6563,46.9766 C286.6563,46.9766 286.6563,19.2441 301.6563,19.2441 L311.6563,19.2441" fill="none" style="stroke:#0078D4;stroke-width:3;"/><text fill="#000000" font-family="sans-serif" font-size="14" lengthAdjust="spacing" textLength="271.9541" x="314.6563" y="43.0234">Track customer/product/entity changes</text><path d="M261.6563,46.9766 L271.6563,46.9766 C286.6563,46.9766 286.6563,37.7324 301.6563,37.7324 L311.6563,37.7324" fill="none" style="stroke:#0078D4;stroke-width:3;"/><text fill="#000000" font-family="sans-serif" font-size="14" lengthAdjust="spacing" textLength="242.4023" x="314.6563" y="61.5117">Attribute sales to historical location</text><path d="M261.6563,46.9766 L271.6563,46.9766 C286.6563,46.9766 286.6563,56.2207 301.6563,56.2207 L311.6563,56.2207" fill="none" style="stroke:#0078D4;stroke-width:3;"/><text fill="#000000" font-family="sans-serif" font-size="14" lengthAdjust="spacing" textLength="258.959" x="314.6563" y="80">Explicit business-meaningful versions</text><path d="M261.6563,46.9766 L271.6563,46.9766 C286.6563,46.9766 286.6563,74.709 301.6563,74.709 L311.6563,74.709" fill="none" style="stroke:#0078D4;stroke-width:3;"/><path d="M113.4531,116.5635 L123.4531,116.5635 C138.4531,116.5635 138.4531,46.9766 153.4531,46.9766 L163.4531,46.9766" fill="none" style="stroke:#FF5F46;stroke-width:3;"/><rect fill="#0078D4" height="36.4883" rx="12.5" ry="12.5" style="stroke:#0078D4;stroke-width:3;" width="195.335" x="163.4531" y="111.9297"/><text fill="#FFFFFF" font-family="sans-serif" font-size="14" lengthAdjust="spacing" textLength="175.335" x="173.4531" y="135.4648">Temporal (History) Tables</text><text fill="#000000" font-family="sans-serif" font-size="14" lengthAdjust="spacing" textLength="208.5645" x="411.7881" y="98.4883">Technical/operational purpose</text><path d="M358.7881,130.1738 L368.7881,130.1738 C383.7881,130.1738 383.7881,93.1973 398.7881,93.1973 L408.7881,93.1973" fill="none" style="stroke:#0078D4;stroke-width:3;"/><text fill="#000000" font-family="sans-serif" font-size="14" lengthAdjust="spacing" textLength="192.2334" x="411.7881" y="116.9766">Debug data ingestion issues</text><path d="M358.7881,130.1738 L368.7881,130.1738 C383.7881,130.1738 383.7881,111.6855 398.7881,111.6855 L408.7881,111.6855" fill="none" style="stroke:#0078D4;stroke-width:3;"/><text fill="#000000" font-family="sans-serif" font-size="14" lengthAdjust="spacing" textLength="171.1445" x="411.7881" y="135.4648">Compliance &amp; audit trails</text><path d="M358.7881,130.1738 L368.7881,130.1738 C383.7881,130.1738 383.7881,130.1738 398.7881,130.1738 L408.7881,130.1738" fill="none" style="stroke:#0078D4;stroke-width:3;"/><text fill="#000000" font-family="sans-serif" font-size="14" lengthAdjust="spacing" textLength="196.0547" x="411.7881" y="153.9531">Reproduce reports from past</text><path d="M358.7881,130.1738 L368.7881,130.1738 C383.7881,130.1738 383.7881,148.6621 398.7881,148.6621 L408.7881,148.6621" fill="none" style="stroke:#0078D4;stroke-width:3;"/><text fill="#000000" font-family="sans-serif" font-size="14" lengthAdjust="spacing" textLength="206.9375" x="411.7881" y="172.4414">Track load times / source files</text><path d="M358.7881,130.1738 L368.7881,130.1738 C383.7881,130.1738 383.7881,167.1504 398.7881,167.1504 L408.7881,167.1504" fill="none" style="stroke:#0078D4;stroke-width:3;"/><path d="M113.4531,116.5635 L123.4531,116.5635 C138.4531,116.5635 138.4531,130.1738 153.4531,130.1738 L163.4531,130.1738" fill="none" style="stroke:#FF5F46;stroke-width:3;"/><rect fill="#0078D4" height="36.4883" rx="12.5" ry="12.5" style="stroke:#0078D4;stroke-width:3;" width="177.2813" x="163.4531" y="176.6387"/><text fill="#FFFFFF" font-family="sans-serif" font-size="14" lengthAdjust="spacing" textLength="157.2813" x="173.4531" y="200.1738">Both Use Validity Dates</text><text fill="#000000" font-family="sans-serif" font-size="14" lengthAdjust="spacing" textLength="199.418" x="393.7344" y="190.9297">SCD Type 2: business validity</text><path d="M340.7344,194.8828 L350.7344,194.8828 C365.7344,194.8828 365.7344,185.6387 380.7344,185.6387 L390.7344,185.6387" fill="none" style="stroke:#0078D4;stroke-width:3;"/><text fill="#000000" font-family="sans-serif" font-size="14" lengthAdjust="spacing" textLength="217.7861" x="393.7344" y="209.418">Temporal: technical timestamps</text><path d="M340.7344,194.8828 L350.7344,194.8828 C365.7344,194.8828 365.7344,204.127 380.7344,204.127 L390.7344,204.127" fill="none" style="stroke:#0078D4;stroke-width:3;"/><path d="M113.4531,116.5635 L123.4531,116.5635 C138.4531,116.5635 138.4531,194.8828 153.4531,194.8828 L163.4531,194.8828" fill="none" style="stroke:#FF5F46;stroke-width:3;"/><?plantuml-src VPDFRzGm4CNl-HGZ8Q5s9JPfA0LM5IgxIyI14wGz8Q59CjbOTMpB7bUDAhuxphyk3Lhcbl7p_DwRo3UEqN8hLDMYYQuTTv8-HPkA33TdoJayHH1gY-NzmMglgfsMsiAhB7kNNLuDPz-4ed-xcLOyTUkXdhLv8yfxHSx1stKI_PvP5oTPIVB-m_vooLfqNqvTECY6EhBIawowBZucoPArwFwNbGmLM8L-bBtcwQJYEfxMlOASMgCjIdXmFzMFtHxopX2aqMe5BxvMls3hdUZXCIgK7Oiot3BU6kre5EGsf8BIEzOjsTXONVcIOr8ik8EoGNKWDqe_CrjHU2Pm6Cm2QsX4k6U7gLANo4AhKVlbqKXH2ePYCl2c9LH27MeVR9DrGTcFFMOv-phCwiuXnqBEp9pAHlNpOst83e1bWZqL_W0LCeBepVOQ4CxvUSPEjy4CgfBWDQ2lWYksAEHq_9t6q0IMWXLsK5lTWa77Vwz8Qgo0HHk2n-2qj-52BKQZiDNSmAqZk4CfgdvpU-IPV_mdc-TrmCCad6EEMzW0pu575cDhN7H3uSLDhowwMAT9UhLE_m00?></g></svg>