<?plantuml 1.2026.2?><svg xmlns="http://www.w3.org/2000/svg" xmlns:xlink="http://www.w3.org/1999/xlink" contentStyleType="text/css" data-diagram-type="MINDMAP" height="247px" preserveAspectRatio="none" style="width:719px;height:247px;background:#FFFFFF;" version="1.1" viewBox="0 0 719 247" width="719px" zoomAndPan="magnify"><defs/><g><rect fill="#FF5F46" height="52.9766" rx="12.5" ry="12.5" style="stroke:#FF5F46;stroke-width:3;" width="134.2354" x="10" y="96.4883"/><text fill="#FFFFFF" font-family="sans-serif" font-size="14" lengthAdjust="spacing" textLength="114.2354" x="20" y="120.0234">Dimension Table</text><text fill="#FFFFFF" font-family="sans-serif" font-size="14" lengthAdjust="spacing" textLength="75.0586" x="20" y="136.5117">Granularity</text><rect fill="#0078D4" height="36.4883" rx="12.5" ry="12.5" style="stroke:#0078D4;stroke-width:3;" width="152.8838" x="194.2354" y="20"/><text fill="#FFFFFF" font-family="sans-serif" font-size="14" lengthAdjust="spacing" textLength="132.8838" x="204.2354" y="43.5352">Granularity Options</text><text fill="#000000" font-family="sans-serif" font-size="14" lengthAdjust="spacing" textLength="218.1689" x="400.1191" y="25.0469">One row per entity (SCD Type 1)</text><path d="M347.1191,38.2441 L357.1191,38.2441 C372.1191,38.2441 372.1191,19.7559 387.1191,19.7559 L397.1191,19.7559" fill="none" style="stroke:#0078D4;stroke-width:3;"/><text fill="#000000" font-family="sans-serif" font-size="14" lengthAdjust="spacing" textLength="298.6143" x="400.1191" y="43.5352">One row per entity per version (SCD Type 2)</text><path d="M347.1191,38.2441 L357.1191,38.2441 C372.1191,38.2441 372.1191,38.2441 387.1191,38.2441 L397.1191,38.2441" fill="none" style="stroke:#0078D4;stroke-width:3;"/><text fill="#000000" font-family="sans-serif" font-size="14" lengthAdjust="spacing" textLength="127.5381" x="400.1191" y="62.0234">Periodic snapshots</text><path d="M347.1191,38.2441 L357.1191,38.2441 C372.1191,38.2441 372.1191,56.7324 387.1191,56.7324 L397.1191,56.7324" fill="none" style="stroke:#0078D4;stroke-width:3;"/><path d="M144.2354,122.9766 L154.2354,122.9766 C169.2354,122.9766 169.2354,38.2441 184.2354,38.2441 L194.2354,38.2441" fill="none" style="stroke:#FF5F46;stroke-width:3;"/><rect fill="#0078D4" height="36.4883" rx="12.5" ry="12.5" style="stroke:#0078D4;stroke-width:3;" width="199.6553" x="194.2354" y="76.4883"/><text fill="#FFFFFF" font-family="sans-serif" font-size="14" lengthAdjust="spacing" textLength="179.6553" x="204.2354" y="100.0234">Must Align with Fact Table</text><text fill="#000000" font-family="sans-serif" font-size="14" lengthAdjust="spacing" textLength="260.8184" x="446.8906" y="90.7793">Fact surrogate key &#8594; must find in dim</text><path d="M393.8906,94.7324 L403.8906,94.7324 C418.8906,94.7324 418.8906,85.4883 433.8906,85.4883 L443.8906,85.4883" fill="none" style="stroke:#0078D4;stroke-width:3;"/><text fill="#000000" font-family="sans-serif" font-size="14" lengthAdjust="spacing" textLength="247.6592" x="446.8906" y="109.2676">Transaction date must fall in validity</text><path d="M393.8906,94.7324 L403.8906,94.7324 C418.8906,94.7324 418.8906,103.9766 433.8906,103.9766 L443.8906,103.9766" fill="none" style="stroke:#0078D4;stroke-width:3;"/><path d="M144.2354,122.9766 L154.2354,122.9766 C169.2354,122.9766 169.2354,94.7324 184.2354,94.7324 L194.2354,94.7324" fill="none" style="stroke:#FF5F46;stroke-width:3;"/><rect fill="#0078D4" height="36.4883" rx="12.5" ry="12.5" style="stroke:#0078D4;stroke-width:3;" width="159.3164" x="194.2354" y="132.9766"/><text fill="#FFFFFF" font-family="sans-serif" font-size="14" lengthAdjust="spacing" textLength="139.3164" x="204.2354" y="156.5117">SCD Type Alignment</text><text fill="#000000" font-family="sans-serif" font-size="14" lengthAdjust="spacing" textLength="166.585" x="406.5518" y="138.0234">Type 1: current row only</text><path d="M353.5518,151.2207 L363.5518,151.2207 C378.5518,151.2207 378.5518,132.7324 393.5518,132.7324 L403.5518,132.7324" fill="none" style="stroke:#0078D4;stroke-width:3;"/><text fill="#000000" font-family="sans-serif" font-size="14" lengthAdjust="spacing" textLength="243.5576" x="406.5518" y="156.5117">Type 2: versioned rows with validity</text><path d="M353.5518,151.2207 L363.5518,151.2207 C378.5518,151.2207 378.5518,151.2207 393.5518,151.2207 L403.5518,151.2207" fill="none" style="stroke:#0078D4;stroke-width:3;"/><text fill="#000000" font-family="sans-serif" font-size="14" lengthAdjust="spacing" textLength="219.4746" x="406.5518" y="175">Snapshot: periodic state capture</text><path d="M353.5518,151.2207 L363.5518,151.2207 C378.5518,151.2207 378.5518,169.709 393.5518,169.709 L403.5518,169.709" fill="none" style="stroke:#0078D4;stroke-width:3;"/><path d="M144.2354,122.9766 L154.2354,122.9766 C169.2354,122.9766 169.2354,151.2207 184.2354,151.2207 L194.2354,151.2207" fill="none" style="stroke:#FF5F46;stroke-width:3;"/><rect fill="#0078D4" height="36.4883" rx="12.5" ry="12.5" style="stroke:#0078D4;stroke-width:3;" width="144.2773" x="194.2354" y="189.4648"/><text fill="#FFFFFF" font-family="sans-serif" font-size="14" lengthAdjust="spacing" textLength="124.2773" x="204.2354" y="213">Impact on Queries</text><text fill="#000000" font-family="sans-serif" font-size="14" lengthAdjust="spacing" textLength="280.7998" x="391.5127" y="213">Join complexity increases with versioning</text><path d="M338.5127,207.709 L348.5127,207.709 C363.5127,207.709 363.5127,207.709 378.5127,207.709 L388.5127,207.709" fill="none" style="stroke:#0078D4;stroke-width:3;"/><path d="M144.2354,122.9766 L154.2354,122.9766 C169.2354,122.9766 169.2354,207.709 184.2354,207.709 L194.2354,207.709" fill="none" style="stroke:#FF5F46;stroke-width:3;"/><?plantuml-src VLF1JkCm4BtdAqRQ2_JGJKCNbWeXe5LMkrh4hkWH2Rd9jBNgZ2tRQOaGLpvWFt6_1DjneGILESLltlYzDuelZ6NQLfpAYgdapDX6u7aoAb7PvK5w28y9kBfYnMgXPKtbM0gfuKkUVyk7nw7tcnD-H7D9DgBpKA_SwP8NAq9ZuAYV9azRhS5UhJGz-JuPThKwwFjREmxoK6zQsLwj-NnscgPThGxwgLOQocdDv8FmdCUzZBElSTqzcF0AoN19C6KpWNVqGpEg1TFSDacl1pj7k57M4Os3U_TmGmXQRa2X1YJh-mUtumbC6uKmEDnByfzhr47oRI2B0tzGSrdo0WmnPPRIUZMuhes5Iy4N11jkbv2pmhP-swbmDhNMSi4imWeR-F_y3oe_DdT_6722abSjUUeI6JVW3PIUtjAO49wsPeANCVkhko3jzcJZ3I7Y20gdwC2GK99eThhPQ1iIIzythV6TsntpDcOS-QN4sDOxAfYojVRXu6UbV3ZdzM_jI1Yt_qiwhuMibC07lrLEXKPcSAlJQdDQ91VeNbXyPScWdwNPSJzx0G00?></g></svg>