<?plantuml 1.2026.2?><svg xmlns="http://www.w3.org/2000/svg" xmlns:xlink="http://www.w3.org/1999/xlink" contentStyleType="text/css" data-diagram-type="MINDMAP" height="247px" preserveAspectRatio="none" style="width:744px;height:247px;background:#FFFFFF;" version="1.1" viewBox="0 0 744 247" width="744px" zoomAndPan="magnify"><defs/><g><rect fill="#FF5F46" height="52.9766" rx="12.5" ry="12.5" style="stroke:#FF5F46;stroke-width:3;" width="95.0586" x="10" y="96.4883"/><text fill="#FFFFFF" font-family="sans-serif" font-size="14" lengthAdjust="spacing" textLength="69.3164" x="20" y="120.0234">Fact Table</text><text fill="#FFFFFF" font-family="sans-serif" font-size="14" lengthAdjust="spacing" textLength="75.0586" x="20" y="136.5117">Granularity</text><rect fill="#0078D4" height="36.4883" rx="12.5" ry="12.5" style="stroke:#0078D4;stroke-width:3;" width="269.1836" x="155.0586" y="20"/><text fill="#FFFFFF" font-family="sans-serif" font-size="14" lengthAdjust="spacing" textLength="249.1836" x="165.0586" y="43.5352">Grain = Dimension Key Combination</text><text fill="#000000" font-family="sans-serif" font-size="14" lengthAdjust="spacing" textLength="244.043" x="477.2422" y="34.291">Date + Product + Customer + Store</text><path d="M424.2422,38.2441 L434.2422,38.2441 C449.2422,38.2441 449.2422,29 464.2422,29 L474.2422,29" fill="none" style="stroke:#0078D4;stroke-width:3;"/><text fill="#000000" font-family="sans-serif" font-size="14" lengthAdjust="spacing" textLength="254.9395" x="477.2422" y="52.7793">Adding hour dimension &#8594; more rows</text><path d="M424.2422,38.2441 L434.2422,38.2441 C449.2422,38.2441 449.2422,47.4883 464.2422,47.4883 L474.2422,47.4883" fill="none" style="stroke:#0078D4;stroke-width:3;"/><path d="M105.0586,122.9766 L115.0586,122.9766 C130.0586,122.9766 130.0586,38.2441 145.0586,38.2441 L155.0586,38.2441" fill="none" style="stroke:#FF5F46;stroke-width:3;"/><rect fill="#0078D4" height="36.4883" rx="12.5" ry="12.5" style="stroke:#0078D4;stroke-width:3;" width="108.5254" x="155.0586" y="76.4883"/><text fill="#FFFFFF" font-family="sans-serif" font-size="14" lengthAdjust="spacing" textLength="88.5254" x="165.0586" y="100.0234">Atomic Grain</text><text fill="#000000" font-family="sans-serif" font-size="14" lengthAdjust="spacing" textLength="213.6436" x="316.584" y="81.5352">Most detailed level from source</text><path d="M263.584,94.7324 L273.584,94.7324 C288.584,94.7324 288.584,76.2441 303.584,76.2441 L313.584,76.2441" fill="none" style="stroke:#0078D4;stroke-width:3;"/><text fill="#000000" font-family="sans-serif" font-size="14" lengthAdjust="spacing" textLength="202.9863" x="316.584" y="100.0234">Maximum analytical flexibility</text><path d="M263.584,94.7324 L273.584,94.7324 C288.584,94.7324 288.584,94.7324 303.584,94.7324 L313.584,94.7324" fill="none" style="stroke:#0078D4;stroke-width:3;"/><text fill="#000000" font-family="sans-serif" font-size="14" lengthAdjust="spacing" textLength="169.8594" x="316.584" y="118.5117">Can always aggregate up</text><path d="M263.584,94.7324 L273.584,94.7324 C288.584,94.7324 288.584,113.2207 303.584,113.2207 L313.584,113.2207" fill="none" style="stroke:#0078D4;stroke-width:3;"/><path d="M105.0586,122.9766 L115.0586,122.9766 C130.0586,122.9766 130.0586,94.7324 145.0586,94.7324 L155.0586,94.7324" fill="none" style="stroke:#FF5F46;stroke-width:3;"/><rect fill="#0078D4" height="36.4883" rx="12.5" ry="12.5" style="stroke:#0078D4;stroke-width:3;" width="130.8857" x="155.0586" y="132.9766"/><text fill="#FFFFFF" font-family="sans-serif" font-size="14" lengthAdjust="spacing" textLength="110.8857" x="165.0586" y="156.5117">Aggregate Grain</text><text fill="#000000" font-family="sans-serif" font-size="14" lengthAdjust="spacing" textLength="214.3545" x="338.9443" y="138.0234">Pre-summarized at higher level</text><path d="M285.9443,151.2207 L295.9443,151.2207 C310.9443,151.2207 310.9443,132.7324 325.9443,132.7324 L335.9443,132.7324" fill="none" style="stroke:#0078D4;stroke-width:3;"/><text fill="#000000" font-family="sans-serif" font-size="14" lengthAdjust="spacing" textLength="173.332" x="338.9443" y="156.5117">Better query performance</text><path d="M285.9443,151.2207 L295.9443,151.2207 C310.9443,151.2207 310.9443,151.2207 325.9443,151.2207 L335.9443,151.2207" fill="none" style="stroke:#0078D4;stroke-width:3;"/><text fill="#000000" font-family="sans-serif" font-size="14" lengthAdjust="spacing" textLength="186.4775" x="338.9443" y="175">Limits drill-down capability</text><path d="M285.9443,151.2207 L295.9443,151.2207 C310.9443,151.2207 310.9443,169.709 325.9443,169.709 L335.9443,169.709" fill="none" style="stroke:#0078D4;stroke-width:3;"/><path d="M105.0586,122.9766 L115.0586,122.9766 C130.0586,122.9766 130.0586,151.2207 145.0586,151.2207 L155.0586,151.2207" fill="none" style="stroke:#FF5F46;stroke-width:3;"/><rect fill="#0078D4" height="36.4883" rx="12.5" ry="12.5" style="stroke:#0078D4;stroke-width:3;" width="105.2783" x="155.0586" y="189.4648"/><text fill="#FFFFFF" font-family="sans-serif" font-size="14" lengthAdjust="spacing" textLength="85.2783" x="165.0586" y="213">Best Practice</text><text fill="#000000" font-family="sans-serif" font-size="14" lengthAdjust="spacing" textLength="225.0732" x="313.3369" y="203.7559">Keep atomic + create aggregates</text><path d="M260.3369,207.709 L270.3369,207.709 C285.3369,207.709 285.3369,198.4648 300.3369,198.4648 L310.3369,198.4648" fill="none" style="stroke:#0078D4;stroke-width:3;"/><text fill="#000000" font-family="sans-serif" font-size="14" lengthAdjust="spacing" textLength="239.2305" x="313.3369" y="222.2441">Materialized views for auto-refresh</text><path d="M260.3369,207.709 L270.3369,207.709 C285.3369,207.709 285.3369,216.9531 300.3369,216.9531 L310.3369,216.9531" fill="none" style="stroke:#0078D4;stroke-width:3;"/><path d="M105.0586,122.9766 L115.0586,122.9766 C130.0586,122.9766 130.0586,207.709 145.0586,207.709 L155.0586,207.709" fill="none" style="stroke:#FF5F46;stroke-width:3;"/><?plantuml-src VPFDRjD04CVlVegHk42Y13UKyg62sYOoXxPI97f4GcFls1vrFypkkecfkF80F29FmiHE0WI5ENbd_pE__uor5o6YZuQjCjWavo5scjudRnKriNwQFeF712IkiBYll6kjcZljF3p9ifVPwLb_TyEM_ircpiPjjknZhxshkRYt50AycAR9jnthv2WhJL-zNfmUiWwoVtSzS93ryPirEyego_nDcXwo3hB_PQLz22jtQxtHF1vLd3_Vhdi46HOHxZ3NzCb-y6XRZPvZbun684Usy0uMRCW6TXQkgOEvCpbRZ78MqUWpB30IZ67fdMgbrnZcROZEa9VFZz5v6cINIh6je7Qj1xNl-FFx3p2Y0UzMOGEzb58k1lPGUEj214KHMPC2JG-aeVJEG91MnRRxBQxPj0RGekuY5oWQJMlEMG_JY6QE5b2li0k0LUMfsXXlcvwwF_y1NdgQXDOOMSXN8ME4cgjQvkez39ehYb4oNrho7JJaI-SDsfsh6pOS0oZFMa-KMraeiC6z9wcMqPPUVW7lIgw96a7rInX3uMbZQcytxAOLAAFkVJqmhG886B2DRkAfz1Jgv8BaPMrVLt8odQMpi-di5m00?></g></svg>