<?plantuml 1.2026.2?><svg xmlns="http://www.w3.org/2000/svg" xmlns:xlink="http://www.w3.org/1999/xlink" contentStyleType="text/css" data-diagram-type="MINDMAP" height="225px" preserveAspectRatio="none" style="width:586px;height:225px;background:#FFFFFF;" version="1.1" viewBox="0 0 586 225" width="586px" zoomAndPan="magnify"><defs/><g><rect fill="#FF5F46" height="52.9766" rx="12.5" ry="12.5" style="stroke:#FF5F46;stroke-width:3;" width="95.0586" x="10" y="85.4531"/><text fill="#FFFFFF" font-family="sans-serif" font-size="14" lengthAdjust="spacing" textLength="75.0586" x="20" y="108.9883">Granularity</text><text fill="#FFFFFF" font-family="sans-serif" font-size="14" lengthAdjust="spacing" textLength="73.0557" x="20" y="125.4766">Trade-offs</text><rect fill="#0078D4" height="36.4883" rx="12.5" ry="12.5" style="stroke:#0078D4;stroke-width:3;" width="127.5293" x="155.0586" y="28.7324"/><text fill="#FFFFFF" font-family="sans-serif" font-size="14" lengthAdjust="spacing" textLength="107.5293" x="165.0586" y="52.2676">Fine Granularity</text><text fill="#000000" font-family="sans-serif" font-size="14" lengthAdjust="spacing" textLength="167.4873" x="335.5879" y="24.5352">High analytical flexibility</text><path d="M282.5879,46.9766 L292.5879,46.9766 C307.5879,46.9766 307.5879,19.2441 322.5879,19.2441 L332.5879,19.2441" fill="none" style="stroke:#0078D4;stroke-width:3;"/><text fill="#000000" font-family="sans-serif" font-size="14" lengthAdjust="spacing" textLength="140.3828" x="335.5879" y="43.0234">Higher storage costs</text><path d="M282.5879,46.9766 L292.5879,46.9766 C307.5879,46.9766 307.5879,37.7324 322.5879,37.7324 L332.5879,37.7324" fill="none" style="stroke:#0078D4;stroke-width:3;"/><text fill="#000000" font-family="sans-serif" font-size="14" lengthAdjust="spacing" textLength="171.5889" x="335.5879" y="61.5117">Slower aggregate queries</text><path d="M282.5879,46.9766 L292.5879,46.9766 C307.5879,46.9766 307.5879,56.2207 322.5879,56.2207 L332.5879,56.2207" fill="none" style="stroke:#0078D4;stroke-width:3;"/><text fill="#000000" font-family="sans-serif" font-size="14" lengthAdjust="spacing" textLength="143.1514" x="335.5879" y="80">More historical detail</text><path d="M282.5879,46.9766 L292.5879,46.9766 C307.5879,46.9766 307.5879,74.709 322.5879,74.709 L332.5879,74.709" fill="none" style="stroke:#0078D4;stroke-width:3;"/><path d="M105.0586,111.9414 L115.0586,111.9414 C130.0586,111.9414 130.0586,46.9766 145.0586,46.9766 L155.0586,46.9766" fill="none" style="stroke:#FF5F46;stroke-width:3;"/><rect fill="#0078D4" height="36.4883" rx="12.5" ry="12.5" style="stroke:#0078D4;stroke-width:3;" width="146.1709" x="155.0586" y="102.6855"/><text fill="#FFFFFF" font-family="sans-serif" font-size="14" lengthAdjust="spacing" textLength="126.1709" x="165.0586" y="126.2207">Coarse Granularity</text><text fill="#000000" font-family="sans-serif" font-size="14" lengthAdjust="spacing" textLength="135.4814" x="354.2295" y="98.4883">Lower storage costs</text><path d="M301.2295,120.9297 L311.2295,120.9297 C326.2295,120.9297 326.2295,93.1973 341.2295,93.1973 L351.2295,93.1973" fill="none" style="stroke:#0078D4;stroke-width:3;"/><text fill="#000000" font-family="sans-serif" font-size="14" lengthAdjust="spacing" textLength="208.3389" x="354.2295" y="116.9766">Faster common query patterns</text><path d="M301.2295,120.9297 L311.2295,120.9297 C326.2295,120.9297 326.2295,111.6855 341.2295,111.6855 L351.2295,111.6855" fill="none" style="stroke:#0078D4;stroke-width:3;"/><text fill="#000000" font-family="sans-serif" font-size="14" lengthAdjust="spacing" textLength="126.5742" x="354.2295" y="135.4648">Limited drill-down</text><path d="M301.2295,120.9297 L311.2295,120.9297 C326.2295,120.9297 326.2295,130.1738 341.2295,130.1738 L351.2295,130.1738" fill="none" style="stroke:#0078D4;stroke-width:3;"/><text fill="#000000" font-family="sans-serif" font-size="14" lengthAdjust="spacing" textLength="168.082" x="354.2295" y="153.9531">May lose historical detail</text><path d="M301.2295,120.9297 L311.2295,120.9297 C326.2295,120.9297 326.2295,148.6621 341.2295,148.6621 L351.2295,148.6621" fill="none" style="stroke:#0078D4;stroke-width:3;"/><path d="M105.0586,111.9414 L115.0586,111.9414 C130.0586,111.9414 130.0586,120.9297 145.0586,120.9297 L155.0586,120.9297" fill="none" style="stroke:#FF5F46;stroke-width:3;"/><rect fill="#0078D4" height="36.4883" rx="12.5" ry="12.5" style="stroke:#0078D4;stroke-width:3;" width="91.6953" x="155.0586" y="167.3945"/><text fill="#FFFFFF" font-family="sans-serif" font-size="14" lengthAdjust="spacing" textLength="71.6953" x="165.0586" y="190.9297">Resolution</text><text fill="#000000" font-family="sans-serif" font-size="14" lengthAdjust="spacing" textLength="222.2773" x="299.7539" y="172.4414">Atomic detail + aggregate layers</text><path d="M246.7539,185.6387 L256.7539,185.6387 C271.7539,185.6387 271.7539,167.1504 286.7539,167.1504 L296.7539,167.1504" fill="none" style="stroke:#0078D4;stroke-width:3;"/><text fill="#000000" font-family="sans-serif" font-size="14" lengthAdjust="spacing" textLength="243.1475" x="299.7539" y="190.9297">Materialized views auto-maintained</text><path d="M246.7539,185.6387 L256.7539,185.6387 C271.7539,185.6387 271.7539,185.6387 286.7539,185.6387 L296.7539,185.6387" fill="none" style="stroke:#0078D4;stroke-width:3;"/><text fill="#000000" font-family="sans-serif" font-size="14" lengthAdjust="spacing" textLength="275.0371" x="299.7539" y="209.418">Balance current and future requirements</text><path d="M246.7539,185.6387 L256.7539,185.6387 C271.7539,185.6387 271.7539,204.127 286.7539,204.127 L296.7539,204.127" fill="none" style="stroke:#0078D4;stroke-width:3;"/><path d="M105.0586,111.9414 L115.0586,111.9414 C130.0586,111.9414 130.0586,185.6387 145.0586,185.6387 L155.0586,185.6387" fill="none" style="stroke:#FF5F46;stroke-width:3;"/><?plantuml-src VPD1RzH038Nl-HMMkC2YNTAb55fLgBGeS5Wkq2CIycQShDN9UEjns8Qg_vtPDALjwDR7zzxuiotDIJHKQpYu1jVPSRJEqyVioD7QLY_pLt2TGQfJB2zgbJQuC_6YyA8etXNx1xstu43_guK46zIght_PynMN5u5YXBUpFBkvO-tjPENv-m-VzyUiaVguwsY2egzxrdmdgwgMXta-PetKPrbvNucrb2k_pLplJ1o_6SuzWI-AeVMeRDtFSAxeQ2fL5RF918f4VEWdRV8BldAz0WpeE-CIFLIUhdZ9_b605AA9OarGIhHuw_pmiaaErhLIZKPmsP8o3UutKO8LRz_rZHqPijyESYQeyObH5dsx9q05HajEAKqZeQTqi4PBMXWI2sxOo85JzdxgP1E68R03Bt778DyfYc-DPKX_Cccu70Bm-i5c7ZlIkyMIe8oU_oJWRwPD16nDfWroI0y3kTlSANeCPLgaLQLWwSWEgjRQT1QbovQLcYJ7x8JIdnd-JROtc-VpWzdyBm00?></g></svg>