<?plantuml 1.2026.2?><svg xmlns="http://www.w3.org/2000/svg" xmlns:xlink="http://www.w3.org/1999/xlink" contentStyleType="text/css" data-diagram-type="MINDMAP" height="283px" preserveAspectRatio="none" style="width:651px;height:283px;background:#FFFFFF;" version="1.1" viewBox="0 0 651 283" width="651px" zoomAndPan="magnify"><defs/><g><rect fill="#FF5F46" height="36.4883" rx="12.5" ry="12.5" style="stroke:#FF5F46;stroke-width:3;" width="130.3594" x="10" y="122.709"/><text fill="#FFFFFF" font-family="sans-serif" font-size="14" lengthAdjust="spacing" textLength="110.3594" x="20" y="146.2441">Managed Tables</text><rect fill="#0078D4" height="36.4883" rx="12.5" ry="12.5" style="stroke:#0078D4;stroke-width:3;" width="173.3301" x="190.3594" y="20"/><text fill="#FFFFFF" font-family="sans-serif" font-size="14" lengthAdjust="spacing" textLength="153.3301" x="200.3594" y="43.5352">Unity Catalog Controls</text><text fill="#000000" font-family="sans-serif" font-size="14" lengthAdjust="spacing" textLength="105.0205" x="416.6895" y="25.0469">Table metadata</text><path d="M363.6895,38.2441 L373.6895,38.2441 C388.6895,38.2441 388.6895,19.7559 403.6895,19.7559 L413.6895,19.7559" fill="none" style="stroke:#0078D4;stroke-width:3;"/><text fill="#000000" font-family="sans-serif" font-size="14" lengthAdjust="spacing" textLength="140.1025" x="416.6895" y="43.5352">Underlying data files</text><path d="M363.6895,38.2441 L373.6895,38.2441 C388.6895,38.2441 388.6895,38.2441 403.6895,38.2441 L413.6895,38.2441" fill="none" style="stroke:#0078D4;stroke-width:3;"/><text fill="#000000" font-family="sans-serif" font-size="14" lengthAdjust="spacing" textLength="221.8877" x="416.6895" y="62.0234">Storage location (auto-assigned)</text><path d="M363.6895,38.2441 L373.6895,38.2441 C388.6895,38.2441 388.6895,56.7324 403.6895,56.7324 L413.6895,56.7324" fill="none" style="stroke:#0078D4;stroke-width:3;"/><path d="M140.3594,140.9531 L150.3594,140.9531 C165.3594,140.9531 165.3594,38.2441 180.3594,38.2441 L190.3594,38.2441" fill="none" style="stroke:#FF5F46;stroke-width:3;"/><rect fill="#0078D4" height="36.4883" rx="12.5" ry="12.5" style="stroke:#0078D4;stroke-width:3;" width="144.3662" x="190.3594" y="94.4648"/><text fill="#FFFFFF" font-family="sans-serif" font-size="14" lengthAdjust="spacing" textLength="124.3662" x="200.3594" y="118">Exclusive Features</text><text fill="#000000" font-family="sans-serif" font-size="14" lengthAdjust="spacing" textLength="156.1943" x="387.7256" y="81.0234">Predictive optimization</text><path d="M334.7256,112.709 L344.7256,112.709 C359.7256,112.709 359.7256,75.7324 374.7256,75.7324 L384.7256,75.7324" fill="none" style="stroke:#0078D4;stroke-width:3;"/><text fill="#000000" font-family="sans-serif" font-size="14" lengthAdjust="spacing" textLength="184.0234" x="387.7256" y="99.5117">Automatic liquid clustering</text><path d="M334.7256,112.709 L344.7256,112.709 C359.7256,112.709 359.7256,94.2207 374.7256,94.2207 L384.7256,94.2207" fill="none" style="stroke:#0078D4;stroke-width:3;"/><text fill="#000000" font-family="sans-serif" font-size="14" lengthAdjust="spacing" textLength="118.9932" x="387.7256" y="118">Metadata caching</text><path d="M334.7256,112.709 L344.7256,112.709 C359.7256,112.709 359.7256,112.709 374.7256,112.709 L384.7256,112.709" fill="none" style="stroke:#0078D4;stroke-width:3;"/><text fill="#000000" font-family="sans-serif" font-size="14" lengthAdjust="spacing" textLength="251.2891" x="387.7256" y="136.4883">Auto file cleanup (8 days after DROP)</text><path d="M334.7256,112.709 L344.7256,112.709 C359.7256,112.709 359.7256,131.1973 374.7256,131.1973 L384.7256,131.1973" fill="none" style="stroke:#0078D4;stroke-width:3;"/><text fill="#000000" font-family="sans-serif" font-size="14" lengthAdjust="spacing" textLength="161.4854" x="387.7256" y="154.9766">UNDROP TABLE support</text><path d="M334.7256,112.709 L344.7256,112.709 C359.7256,112.709 359.7256,149.6855 374.7256,149.6855 L384.7256,149.6855" fill="none" style="stroke:#0078D4;stroke-width:3;"/><path d="M140.3594,140.9531 L150.3594,140.9531 C165.3594,140.9531 165.3594,112.709 180.3594,112.709 L190.3594,112.709" fill="none" style="stroke:#FF5F46;stroke-width:3;"/><rect fill="#0078D4" height="36.4883" rx="12.5" ry="12.5" style="stroke:#0078D4;stroke-width:3;" width="149.4658" x="190.3594" y="168.9297"/><text fill="#FFFFFF" font-family="sans-serif" font-size="14" lengthAdjust="spacing" textLength="129.4658" x="200.3594" y="192.4648">Supported Formats</text><text fill="#000000" font-family="sans-serif" font-size="14" lengthAdjust="spacing" textLength="70.9092" x="392.8252" y="183.2207">Delta Lake</text><path d="M339.8252,187.1738 L349.8252,187.1738 C364.8252,187.1738 364.8252,177.9297 379.8252,177.9297 L389.8252,177.9297" fill="none" style="stroke:#0078D4;stroke-width:3;"/><text fill="#000000" font-family="sans-serif" font-size="14" lengthAdjust="spacing" textLength="104.3643" x="392.8252" y="201.709">Apache Iceberg</text><path d="M339.8252,187.1738 L349.8252,187.1738 C364.8252,187.1738 364.8252,196.418 379.8252,196.418 L389.8252,196.418" fill="none" style="stroke:#0078D4;stroke-width:3;"/><path d="M140.3594,140.9531 L150.3594,140.9531 C165.3594,140.9531 165.3594,187.1738 180.3594,187.1738 L190.3594,187.1738" fill="none" style="stroke:#FF5F46;stroke-width:3;"/><rect fill="#0078D4" height="36.4883" rx="12.5" ry="12.5" style="stroke:#0078D4;stroke-width:3;" width="174.041" x="190.3594" y="225.418"/><text fill="#FFFFFF" font-family="sans-serif" font-size="14" lengthAdjust="spacing" textLength="154.041" x="200.3594" y="248.9531">Recommended Default</text><text fill="#000000" font-family="sans-serif" font-size="14" lengthAdjust="spacing" textLength="217.1025" x="417.4004" y="248.9531">Best governance + performance</text><path d="M364.4004,243.6621 L374.4004,243.6621 C389.4004,243.6621 389.4004,243.6621 404.4004,243.6621 L414.4004,243.6621" fill="none" style="stroke:#0078D4;stroke-width:3;"/><path d="M140.3594,140.9531 L150.3594,140.9531 C165.3594,140.9531 165.3594,243.6621 180.3594,243.6621 L190.3594,243.6621" fill="none" style="stroke:#FF5F46;stroke-width:3;"/><?plantuml-src VLFHJjj047ptLwp4In94C2a5Yb05IR1KARG8mdErkLixfvpltBip8etwxzsp7QgwIlV9EpixCxUIRtr05qfbP8bLSkF3LjFdv5fI5TQ3T0Yx1BYcA3Q5ixMHCwkjWwCi-vYTNpIpXJBqBvfP4peqR-gTkrmhiJ7aFNmOfycllTVPGQyqlRoQd_UzUkZVghq4MLD_l2O7lV9yzIbD-ruzzBzUQLFijR9lEd9s1natfzsvH_201WkIiCGLBoMZ4RmO5ROmmu3Q5Z3ZTMTrd8o-jomeAQ3aUOkz64bERvKf88AGgrQ8Hy_1EbO7RGK6PGqCi0xs1BrNXI4vZ7RtRqBNNhqIP8IXTllTHqTIYH07jWggL3yRYNPunp8bzmAq-b4h2L4ZaECGBU6XYmW2nVeTZMjDFkOJchg2mHM7tdh0dBTX_lJjSTYzwcjiO7atNTo3hwlAkX3ZFhUVVB7CEexGfPsJPhC5RgXpgjYNu8kW5Rde3ayaR5aI7qioEyTQXvOw9H-WiA_a31f1S0mLkJoASvVSyiR-9qdEnfDqSZ6U_0O0?></g></svg>