<?plantuml 1.2026.2?><svg xmlns="http://www.w3.org/2000/svg" xmlns:xlink="http://www.w3.org/1999/xlink" contentStyleType="text/css" data-diagram-type="MINDMAP" height="134px" preserveAspectRatio="none" style="width:1197px;height:134px;background:#FFFFFF;" version="1.1" viewBox="0 0 1197 134" width="1197px" zoomAndPan="magnify"><defs/><g><rect fill="#FF5F46" height="52.9766" rx="12.5" ry="12.5" style="stroke:#FF5F46;stroke-width:3;" width="150.9355" x="496.3438" y="40"/><text fill="#FFFFFF" font-family="sans-serif" font-size="14" lengthAdjust="spacing" textLength="86.2012" x="506.3438" y="63.5352">Control Data</text><text fill="#FFFFFF" font-family="sans-serif" font-size="14" lengthAdjust="spacing" textLength="130.9355" x="506.3438" y="80.0234">Extraction Behavior</text><rect fill="#0078D4" height="36.4883" rx="12.5" ry="12.5" style="stroke:#0078D4;stroke-width:3;" width="148.3379" x="697.2793" y="20"/><text fill="#FFFFFF" font-family="sans-serif" font-size="14" lengthAdjust="spacing" textLength="128.3379" x="707.2793" y="43.5352">Extraction Patterns</text><text fill="#000000" font-family="sans-serif" font-size="14" lengthAdjust="spacing" textLength="145.0449" x="898.6172" y="34.291">Snapshot (full reload)</text><path d="M845.6172,38.2441 L855.6172,38.2441 C870.6172,38.2441 870.6172,29 885.6172,29 L895.6172,29" fill="none" style="stroke:#0078D4;stroke-width:3;"/><text fill="#000000" font-family="sans-serif" font-size="14" lengthAdjust="spacing" textLength="171.7803" x="898.6172" y="52.7793">Incremental (CDC-based)</text><path d="M845.6172,38.2441 L855.6172,38.2441 C870.6172,38.2441 870.6172,47.4883 885.6172,47.4883 L895.6172,47.4883" fill="none" style="stroke:#0078D4;stroke-width:3;"/><path d="M647.2793,66.4883 L657.2793,66.4883 C672.2793,66.4883 672.2793,38.2441 687.2793,38.2441 L697.2793,38.2441" fill="none" style="stroke:#FF5F46;stroke-width:3;"/><rect fill="#0078D4" height="36.4883" rx="12.5" ry="12.5" style="stroke:#0078D4;stroke-width:3;" width="165.0518" x="697.2793" y="76.4883"/><text fill="#FFFFFF" font-family="sans-serif" font-size="14" lengthAdjust="spacing" textLength="145.0518" x="707.2793" y="100.0234">Change Data Capture</text><text fill="#000000" font-family="sans-serif" font-size="14" lengthAdjust="spacing" textLength="270.0674" x="915.3311" y="81.5352">Gateway tracks inserts/updates/deletes</text><path d="M862.3311,94.7324 L872.3311,94.7324 C887.3311,94.7324 887.3311,76.2441 902.3311,76.2441 L912.3311,76.2441" fill="none" style="stroke:#0078D4;stroke-width:3;"/><text fill="#000000" font-family="sans-serif" font-size="14" lengthAdjust="spacing" textLength="221.8057" x="915.3311" y="100.0234">Only changed records processed</text><path d="M862.3311,94.7324 L872.3311,94.7324 C887.3311,94.7324 887.3311,94.7324 902.3311,94.7324 L912.3311,94.7324" fill="none" style="stroke:#0078D4;stroke-width:3;"/><text fill="#000000" font-family="sans-serif" font-size="14" lengthAdjust="spacing" textLength="222.5439" x="915.3311" y="118.5117">Requires CDC enabled on source</text><path d="M862.3311,94.7324 L872.3311,94.7324 C887.3311,94.7324 887.3311,113.2207 902.3311,113.2207 L912.3311,113.2207" fill="none" style="stroke:#0078D4;stroke-width:3;"/><path d="M647.2793,66.4883 L657.2793,66.4883 C672.2793,66.4883 672.2793,94.7324 687.2793,94.7324 L697.2793,94.7324" fill="none" style="stroke:#FF5F46;stroke-width:3;"/><rect fill="#0078D4" height="36.4883" rx="12.5" ry="12.5" style="stroke:#0078D4;stroke-width:3;" width="92.0576" x="354.2861" y="20"/><text fill="#FFFFFF" font-family="sans-serif" font-size="14" lengthAdjust="spacing" textLength="72.0576" x="364.2861" y="43.5352">SCD Types</text><text fill="#000000" font-family="sans-serif" font-size="14" lengthAdjust="spacing" textLength="241.0762" x="60.21" y="25.0469">SCD Type 1: overwrite current state</text><path d="M354.2861,38.2441 L344.2861,38.2441 C329.2861,38.2441 329.2861,19.7559 314.2861,19.7559 L304.2861,19.7559" fill="none" style="stroke:#0078D4;stroke-width:3;"/><text fill="#000000" font-family="sans-serif" font-size="14" lengthAdjust="spacing" textLength="196.2939" x="104.9922" y="43.5352">SCD Type 2: preserve history</text><path d="M354.2861,38.2441 L344.2861,38.2441 C329.2861,38.2441 329.2861,38.2441 314.2861,38.2441 L304.2861,38.2441" fill="none" style="stroke:#0078D4;stroke-width:3;"/><text fill="#000000" font-family="sans-serif" font-size="14" lengthAdjust="spacing" text-decoration="underline" textLength="81.04" x="49.9561" y="62.0234">START_AT /</text><text fill="#000000" font-family="sans-serif" font-size="14" lengthAdjust="spacing" textLength="165.8604" x="135.4258" y="62.0234">END_AT columns (SCD2)</text><path d="M354.2861,38.2441 L344.2861,38.2441 C329.2861,38.2441 329.2861,56.7324 314.2861,56.7324 L304.2861,56.7324" fill="none" style="stroke:#0078D4;stroke-width:3;"/><path d="M496.3438,66.4883 L486.3438,66.4883 C471.3438,66.4883 471.3438,38.2441 456.3438,38.2441 L446.3438,38.2441" fill="none" style="stroke:#FF5F46;stroke-width:3;"/><rect fill="#0078D4" height="36.4883" rx="12.5" ry="12.5" style="stroke:#0078D4;stroke-width:3;" width="99.8711" x="346.4727" y="76.4883"/><text fill="#FFFFFF" font-family="sans-serif" font-size="14" lengthAdjust="spacing" textLength="79.8711" x="356.4727" y="100.0234">Full Refresh</text><text fill="#000000" font-family="sans-serif" font-size="14" lengthAdjust="spacing" textLength="191.0576" x="102.415" y="81.5352">Clears &amp; reloads destination</text><path d="M346.4727,94.7324 L336.4727,94.7324 C321.4727,94.7324 321.4727,76.2441 306.4727,76.2441 L296.4727,76.2441" fill="none" style="stroke:#0078D4;stroke-width:3;"/><text fill="#000000" font-family="sans-serif" font-size="14" lengthAdjust="spacing" textLength="283.4727" x="10" y="100.0234">Minimize downtime (swap on completion)</text><path d="M346.4727,94.7324 L336.4727,94.7324 C321.4727,94.7324 321.4727,94.7324 306.4727,94.7324 L296.4727,94.7324" fill="none" style="stroke:#0078D4;stroke-width:3;"/><text fill="#000000" font-family="sans-serif" font-size="14" lengthAdjust="spacing" textLength="218.9688" x="74.5039" y="118.5117">Schedule via full refresh window</text><path d="M346.4727,94.7324 L336.4727,94.7324 C321.4727,94.7324 321.4727,113.2207 306.4727,113.2207 L296.4727,113.2207" fill="none" style="stroke:#0078D4;stroke-width:3;"/><path d="M496.3438,66.4883 L486.3438,66.4883 C471.3438,66.4883 471.3438,94.7324 456.3438,94.7324 L446.3438,94.7324" fill="none" style="stroke:#FF5F46;stroke-width:3;"/><?plantuml-src VPDjRzCm4CVVvrESX8HILMdJC0PK4zgMBWY99xLzYLIvzcMnwjZ1TfgLYU_EvO41GUNUEBxx-tvtv_ZQUMPzARKeMHLSENzI-3PO2gny4SOJU0o0x9RnmxqrjHQfKSR2ionxcLrSTh4FKkE_tineFtZppfwqsqBoWqRduCKi3dxyOYtEikBurUlLnPWrylwTTLH1rjblLdAMbUVxDt4yPesy_sN5dH5hRnvKgtaygxYQ3-EUGafXQnIic6TVzTs3junxQJJSOi6EqjXWEeK_t5-OzsYr8_Tq1nlDAbSO3s5UAmKMbM5YqiVUQswnHEsPWZ1TfT6UEUo2a1PCtsF7X9HLlhROdtd7F3Ri12tku41gXzQxULq92hYvG8MqzjhFMfs0Tva4aRcnma5b3QVUKVIQDNwhfKK7n0VKRAz8IrquKrkEGHJ19bt1zbHHqYYATazRM2p17D4sLde4NbjBZG3ziXv7mcH9KAGwZmY5TDxOKw_OxJRRc_LsTxE5EMtkFgtQJsvKNMe78IL89cq5MJkvDUQKfEXFfWgPTV1ycAS3WSvBpTeBw1KVfPQb_8uWJAEzB152rx2gROsRig8faNGoLCeB5BL2E4e6mpLrC6ZeyPack4PwWyCx31Qp94ukPybF?></g></svg>