<?plantuml 1.2026.2?><svg xmlns="http://www.w3.org/2000/svg" xmlns:xlink="http://www.w3.org/1999/xlink" contentStyleType="text/css" data-diagram-type="MINDMAP" height="152px" preserveAspectRatio="none" style="width:1038px;height:152px;background:#FFFFFF;" version="1.1" viewBox="0 0 1038 152" width="1038px" zoomAndPan="magnify"><defs/><g><rect fill="#FF5F46" height="52.9766" rx="12.5" ry="12.5" style="stroke:#FF5F46;stroke-width:3;" width="147.5039" x="464.4814" y="48.7324"/><text fill="#FFFFFF" font-family="sans-serif" font-size="14" lengthAdjust="spacing" textLength="67.1152" x="474.4814" y="72.2676">Configure</text><text fill="#FFFFFF" font-family="sans-serif" font-size="14" lengthAdjust="spacing" textLength="127.5039" x="474.4814" y="88.7559">Ingestion Pipelines</text><rect fill="#0078D4" height="36.4883" rx="12.5" ry="12.5" style="stroke:#0078D4;stroke-width:3;" width="140.2783" x="661.9854" y="20"/><text fill="#FFFFFF" font-family="sans-serif" font-size="14" lengthAdjust="spacing" textLength="120.2783" x="671.9854" y="43.5352">Creation Methods</text><text fill="#000000" font-family="sans-serif" font-size="14" lengthAdjust="spacing" textLength="149.0918" x="855.2637" y="25.0469">Databricks UI (wizard)</text><path d="M802.2637,38.2441 L812.2637,38.2441 C827.2637,38.2441 827.2637,19.7559 842.2637,19.7559 L852.2637,19.7559" fill="none" style="stroke:#0078D4;stroke-width:3;"/><text fill="#000000" font-family="sans-serif" font-size="14" lengthAdjust="spacing" textLength="146.0635" x="855.2637" y="43.5352">Asset Bundles (YAML)</text><path d="M802.2637,38.2441 L812.2637,38.2441 C827.2637,38.2441 827.2637,38.2441 842.2637,38.2441 L852.2637,38.2441" fill="none" style="stroke:#0078D4;stroke-width:3;"/><text fill="#000000" font-family="sans-serif" font-size="14" lengthAdjust="spacing" textLength="110.6943" x="855.2637" y="62.0234">Notebooks / CLI</text><path d="M802.2637,38.2441 L812.2637,38.2441 C827.2637,38.2441 827.2637,56.7324 842.2637,56.7324 L852.2637,56.7324" fill="none" style="stroke:#0078D4;stroke-width:3;"/><path d="M611.9854,75.2207 L621.9854,75.2207 C636.9854,75.2207 636.9854,38.2441 651.9854,38.2441 L661.9854,38.2441" fill="none" style="stroke:#FF5F46;stroke-width:3;"/><rect fill="#0078D4" height="36.4883" rx="12.5" ry="12.5" style="stroke:#0078D4;stroke-width:3;" width="84.4834" x="661.9854" y="85.2207"/><text fill="#FFFFFF" font-family="sans-serif" font-size="14" lengthAdjust="spacing" textLength="64.4834" x="671.9854" y="108.7559">UI Wizard</text><text fill="#000000" font-family="sans-serif" font-size="14" lengthAdjust="spacing" textLength="180.1338" x="799.4688" y="81.0234">Navigate to Data Ingestion</text><path d="M746.4688,103.4648 L756.4688,103.4648 C771.4688,103.4648 771.4688,75.7324 786.4688,75.7324 L796.4688,75.7324" fill="none" style="stroke:#0078D4;stroke-width:3;"/><text fill="#000000" font-family="sans-serif" font-size="14" lengthAdjust="spacing" textLength="227.2129" x="799.4688" y="99.5117">Select connector (e.g. SQL Server)</text><path d="M746.4688,103.4648 L756.4688,103.4648 C771.4688,103.4648 771.4688,94.2207 786.4688,94.2207 L796.4688,94.2207" fill="none" style="stroke:#0078D4;stroke-width:3;"/><text fill="#000000" font-family="sans-serif" font-size="14" lengthAdjust="spacing" textLength="171.1445" x="799.4688" y="118">Create ingestion gateway</text><path d="M746.4688,103.4648 L756.4688,103.4648 C771.4688,103.4648 771.4688,112.709 786.4688,112.709 L796.4688,112.709" fill="none" style="stroke:#0078D4;stroke-width:3;"/><text fill="#000000" font-family="sans-serif" font-size="14" lengthAdjust="spacing" textLength="149.1191" x="799.4688" y="136.4883">Select tables to ingest</text><path d="M746.4688,103.4648 L756.4688,103.4648 C771.4688,103.4648 771.4688,131.1973 786.4688,131.1973 L796.4688,131.1973" fill="none" style="stroke:#0078D4;stroke-width:3;"/><path d="M611.9854,75.2207 L621.9854,75.2207 C636.9854,75.2207 636.9854,103.4648 651.9854,103.4648 L661.9854,103.4648" fill="none" style="stroke:#FF5F46;stroke-width:3;"/><rect fill="#0078D4" height="36.4883" rx="12.5" ry="12.5" style="stroke:#0078D4;stroke-width:3;" width="107.2334" x="307.248" y="28.7324"/><text fill="#FFFFFF" font-family="sans-serif" font-size="14" lengthAdjust="spacing" textLength="87.2334" x="317.248" y="52.2676">YAML Config</text><text fill="#000000" font-family="sans-serif" font-size="14" lengthAdjust="spacing" textLength="131.4072" x="122.8408" y="24.5352">resources.pipelines</text><path d="M307.248,46.9766 L297.248,46.9766 C282.248,46.9766 282.248,19.2441 267.248,19.2441 L257.248,19.2441" fill="none" style="stroke:#0078D4;stroke-width:3;"/><text fill="#000000" font-family="sans-serif" font-size="14" lengthAdjust="spacing" textLength="204.0869" x="50.1611" y="43.0234">ingestion_definition + objects</text><path d="M307.248,46.9766 L297.248,46.9766 C282.248,46.9766 282.248,37.7324 267.248,37.7324 L257.248,37.7324" fill="none" style="stroke:#0078D4;stroke-width:3;"/><text fill="#000000" font-family="sans-serif" font-size="14" lengthAdjust="spacing" textLength="205.6729" x="48.5752" y="61.5117">source_schema / source_table</text><path d="M307.248,46.9766 L297.248,46.9766 C282.248,46.9766 282.248,56.2207 267.248,56.2207 L257.248,56.2207" fill="none" style="stroke:#0078D4;stroke-width:3;"/><text fill="#000000" font-family="sans-serif" font-size="14" lengthAdjust="spacing" textLength="200.0674" x="54.1807" y="80">destination_catalog / schema</text><path d="M307.248,46.9766 L297.248,46.9766 C282.248,46.9766 282.248,74.709 267.248,74.709 L257.248,74.709" fill="none" style="stroke:#0078D4;stroke-width:3;"/><path d="M464.4814,75.2207 L454.4814,75.2207 C439.4814,75.2207 439.4814,46.9766 424.4814,46.9766 L414.4814,46.9766" fill="none" style="stroke:#FF5F46;stroke-width:3;"/><rect fill="#0078D4" height="36.4883" rx="12.5" ry="12.5" style="stroke:#0078D4;stroke-width:3;" width="124.9453" x="289.5361" y="93.9531"/><text fill="#FFFFFF" font-family="sans-serif" font-size="14" lengthAdjust="spacing" textLength="104.9453" x="299.5361" y="117.4883">Pipeline Output</text><text fill="#000000" font-family="sans-serif" font-size="14" lengthAdjust="spacing" textLength="226.5361" x="10" y="108.2441">Streaming tables in Unity Catalog</text><path d="M289.5361,112.1973 L279.5361,112.1973 C264.5361,112.1973 264.5361,102.9531 249.5361,102.9531 L239.5361,102.9531" fill="none" style="stroke:#0078D4;stroke-width:3;"/><text fill="#000000" font-family="sans-serif" font-size="14" lengthAdjust="spacing" textLength="215.1406" x="21.3955" y="126.7324">Auto-created jobs per schedule</text><path d="M289.5361,112.1973 L279.5361,112.1973 C264.5361,112.1973 264.5361,121.4414 249.5361,121.4414 L239.5361,121.4414" fill="none" style="stroke:#0078D4;stroke-width:3;"/><path d="M464.4814,75.2207 L454.4814,75.2207 C439.4814,75.2207 439.4814,112.1973 424.4814,112.1973 L414.4814,112.1973" fill="none" style="stroke:#FF5F46;stroke-width:3;"/><?plantuml-src VLDjQzim4FxkNt6mBoaXhfjrtJhAQ9fY2AHRHrP6OM1aw-oeTIGZoMspil_Uawnur2NL5wExvvwNCpetbccx4P9lM1ET6RkjyLlqbMDZrwFa09uZe7F1YljAgrRokQgLXWzf-YazFl6zfP3ujfegQKErzAV7_bgBubwYCV0nJg9_EwsZlLf9yldBvV5GQr1zpJfmaFhpNskwLwiiyzCa6MeDgkzg9VwGLgwUQeTvteiuEmph7iDSoL9KhSO_SY4hD5Oe2TUYmPhqJ3GcX4RcgrTerugxsZY3IsPPhicEWPi5Z1x5NwRvGTUR6OCMBYWS-O3HxUng6JhVbSLSAHewXFbouUXf-hSV3WZs82fc4Qpo6j2xwlehhB6mK2WfwKkfHXXNCQn-Bgcb7r079UyQGVIP7EaZsxvYeGZE8Kbrk6Wo0USsR8Mkammq6jNg0atSz6lnZPuxurWAARpC65H-Hzm1qurcfbZZXb7eSFV27O8x3katd1KKk5QLm_a1vsVtB-17QvlMTaChI_7exLIx24B23JdOmhoZw62prgf9uJV1uKxb1XhKdfktf7-EzFZ20uoEucaoFOcdBm00?></g></svg>