<?plantuml 1.2026.2?><svg xmlns="http://www.w3.org/2000/svg" xmlns:xlink="http://www.w3.org/1999/xlink" contentStyleType="text/css" data-diagram-type="MINDMAP" height="134px" preserveAspectRatio="none" style="width:1342px;height:134px;background:#FFFFFF;" version="1.1" viewBox="0 0 1342 134" width="1342px" zoomAndPan="magnify"><defs/><g><rect fill="#FF5F46" height="52.9766" rx="12.5" ry="12.5" style="stroke:#FF5F46;stroke-width:3;" width="163.999" x="642.5303" y="40"/><text fill="#FFFFFF" font-family="sans-serif" font-size="14" lengthAdjust="spacing" textLength="67.4775" x="652.5303" y="63.5352">Scale with</text><text fill="#FFFFFF" font-family="sans-serif" font-size="14" lengthAdjust="spacing" textLength="143.999" x="652.5303" y="80.0234">Multiple Destinations</text><rect fill="#0078D4" height="36.4883" rx="12.5" ry="12.5" style="stroke:#0078D4;stroke-width:3;" width="205.0693" x="856.5293" y="20"/><text fill="#FFFFFF" font-family="sans-serif" font-size="14" lengthAdjust="spacing" textLength="185.0693" x="866.5293" y="43.5352">One Pipeline, Many Targets</text><text fill="#000000" font-family="sans-serif" font-size="14" lengthAdjust="spacing" textLength="190.4834" x="1114.5986" y="34.291">Multiple catalogs / schemas</text><path d="M1061.5986,38.2441 L1071.5986,38.2441 C1086.5986,38.2441 1086.5986,29 1101.5986,29 L1111.5986,29" fill="none" style="stroke:#0078D4;stroke-width:3;"/><text fill="#000000" font-family="sans-serif" font-size="14" lengthAdjust="spacing" textLength="215.749" x="1114.5986" y="52.7793">Different teams, isolated copies</text><path d="M1061.5986,38.2441 L1071.5986,38.2441 C1086.5986,38.2441 1086.5986,47.4883 1101.5986,47.4883 L1111.5986,47.4883" fill="none" style="stroke:#0078D4;stroke-width:3;"/><path d="M806.5293,66.4883 L816.5293,66.4883 C831.5293,66.4883 831.5293,38.2441 846.5293,38.2441 L856.5293,38.2441" fill="none" style="stroke:#FF5F46;stroke-width:3;"/><rect fill="#0078D4" height="36.4883" rx="12.5" ry="12.5" style="stroke:#0078D4;stroke-width:3;" width="113.6182" x="856.5293" y="76.4883"/><text fill="#FFFFFF" font-family="sans-serif" font-size="14" lengthAdjust="spacing" textLength="93.6182" x="866.5293" y="100.0234">Configuration</text><text fill="#000000" font-family="sans-serif" font-size="14" lengthAdjust="spacing" textLength="243.4004" x="1023.1475" y="81.5352">destination_catalog per table object</text><path d="M970.1475,94.7324 L980.1475,94.7324 C995.1475,94.7324 995.1475,76.2441 1010.1475,76.2441 L1020.1475,76.2441" fill="none" style="stroke:#0078D4;stroke-width:3;"/><text fill="#000000" font-family="sans-serif" font-size="14" lengthAdjust="spacing" textLength="245.752" x="1023.1475" y="100.0234">destination_schema per table object</text><path d="M970.1475,94.7324 L980.1475,94.7324 C995.1475,94.7324 995.1475,94.7324 1010.1475,94.7324 L1020.1475,94.7324" fill="none" style="stroke:#0078D4;stroke-width:3;"/><text fill="#000000" font-family="sans-serif" font-size="14" lengthAdjust="spacing" textLength="215.2158" x="1023.1475" y="118.5117">Custom destination_table name</text><path d="M970.1475,94.7324 L980.1475,94.7324 C995.1475,94.7324 995.1475,113.2207 1010.1475,113.2207 L1020.1475,113.2207" fill="none" style="stroke:#0078D4;stroke-width:3;"/><path d="M806.5293,66.4883 L816.5293,66.4883 C831.5293,66.4883 831.5293,94.7324 846.5293,94.7324 L856.5293,94.7324" fill="none" style="stroke:#FF5F46;stroke-width:3;"/><rect fill="#0078D4" height="36.4883" rx="12.5" ry="12.5" style="stroke:#0078D4;stroke-width:3;" width="239.3379" x="353.1924" y="20"/><text fill="#FFFFFF" font-family="sans-serif" font-size="14" lengthAdjust="spacing" textLength="219.3379" x="363.1924" y="43.5352">Same Source &#8594; Multiple Targets</text><text fill="#000000" font-family="sans-serif" font-size="14" lengthAdjust="spacing" textLength="290.1924" x="10" y="34.291">Same table replicated to sales &amp; marketing</text><path d="M353.1924,38.2441 L343.1924,38.2441 C328.1924,38.2441 328.1924,29 313.1924,29 L303.1924,29" fill="none" style="stroke:#0078D4;stroke-width:3;"/><text fill="#000000" font-family="sans-serif" font-size="14" lengthAdjust="spacing" textLength="201.2432" x="98.9492" y="52.7793">Each destination independent</text><path d="M353.1924,38.2441 L343.1924,38.2441 C328.1924,38.2441 328.1924,47.4883 313.1924,47.4883 L303.1924,47.4883" fill="none" style="stroke:#0078D4;stroke-width:3;"/><path d="M642.5303,66.4883 L632.5303,66.4883 C617.5303,66.4883 617.5303,38.2441 602.5303,38.2441 L592.5303,38.2441" fill="none" style="stroke:#FF5F46;stroke-width:3;"/><rect fill="#0078D4" height="36.4883" rx="12.5" ry="12.5" style="stroke:#0078D4;stroke-width:3;" width="139.8682" x="452.6621" y="76.4883"/><text fill="#FFFFFF" font-family="sans-serif" font-size="14" lengthAdjust="spacing" textLength="119.8682" x="462.6621" y="100.0234">Monitoring &amp; Ops</text><text fill="#000000" font-family="sans-serif" font-size="14" lengthAdjust="spacing" textLength="139.7197" x="259.9424" y="81.5352">Pipeline details page</text><path d="M452.6621,94.7324 L442.6621,94.7324 C427.6621,94.7324 427.6621,76.2441 412.6621,76.2441 L402.6621,76.2441" fill="none" style="stroke:#0078D4;stroke-width:3;"/><text fill="#000000" font-family="sans-serif" font-size="14" lengthAdjust="spacing" textLength="134.3535" x="265.3086" y="100.0234">Failure notifications</text><path d="M452.6621,94.7324 L442.6621,94.7324 C427.6621,94.7324 427.6621,94.7324 412.6621,94.7324 L402.6621,94.7324" fill="none" style="stroke:#0078D4;stroke-width:3;"/><text fill="#000000" font-family="sans-serif" font-size="14" lengthAdjust="spacing" textLength="173.8174" x="225.8447" y="118.5117">Adjust schedules anytime</text><path d="M452.6621,94.7324 L442.6621,94.7324 C427.6621,94.7324 427.6621,113.2207 412.6621,113.2207 L402.6621,113.2207" fill="none" style="stroke:#0078D4;stroke-width:3;"/><path d="M642.5303,66.4883 L632.5303,66.4883 C617.5303,66.4883 617.5303,94.7324 602.5303,94.7324 L592.5303,94.7324" fill="none" style="stroke:#FF5F46;stroke-width:3;"/><?plantuml-src VPFDRjD04CVlVegHa10eTUg6KWggK271fqP5Iez8qMOzjhTPxwvsnuAguie3z15v4iPhfw6kqZdOsfd_x6y-xCj0mbEZJD48brm4kjFuEVbKeAFwJVOMxXDW-ohajlAsDSNSQklXLPw_pq_FOknA6NpkpQsXmLj6UzJUr4fk3OO0xwPPydl7EZd8oh8FvulJCMlaVNhhg88ysfurEyWgoyt7B1kpHjuNMLaqPctiBzrfxWygBew7SKzW9OL6-Ace_c6MhIRb-BZ0GCe8KjQ4P3A1QuFmNJdKNCCHB8MvWnlXAwGkEbd3Ow8K9BIj0Xn3a3KsOX0iL5cYHqD0A9fm12fOBGWBaDOfZ92vDQMgMX-nVLgnhsCzN0qEFP3OCCnkRb7ISsLFFY2Sju5iyqJVYuneC4bJMF4RLhRr4k7lduTzRxkEqpHTzwe-qQFJIiPco4BWSGPu3OtmMsH4rUk_2Ld_3mN-xj4XFmnrrAKrYgndFUTUku6ocpbdab0wW1CLzg6SpwtdiYsfiiF7NSNGb-AMcumBADgk6juNAUxkadcx7ouvcSwosTbqzWy0?></g></svg>