<?plantuml 1.2026.2?><svg xmlns="http://www.w3.org/2000/svg" xmlns:xlink="http://www.w3.org/1999/xlink" contentStyleType="text/css" data-diagram-type="MINDMAP" height="191px" preserveAspectRatio="none" style="width:1112px;height:191px;background:#FFFFFF;" version="1.1" viewBox="0 0 1112 191" width="1112px" zoomAndPan="magnify"><defs/><g><rect fill="#FF5F46" height="52.9766" rx="12.5" ry="12.5" style="stroke:#FF5F46;stroke-width:3;" width="147.5039" x="440.5557" y="68.2441"/><text fill="#FFFFFF" font-family="sans-serif" font-size="14" lengthAdjust="spacing" textLength="78.333" x="450.5557" y="91.7793">Understand</text><text fill="#FFFFFF" font-family="sans-serif" font-size="14" lengthAdjust="spacing" textLength="127.5039" x="450.5557" y="108.2676">Ingestion Pipelines</text><rect fill="#0078D4" height="36.4883" rx="12.5" ry="12.5" style="stroke:#0078D4;stroke-width:3;" width="140.0596" x="638.0596" y="20"/><text fill="#FFFFFF" font-family="sans-serif" font-size="14" lengthAdjust="spacing" textLength="120.0596" x="648.0596" y="43.5352">Lakeflow Connect</text><text fill="#000000" font-family="sans-serif" font-size="14" lengthAdjust="spacing" textLength="140.7998" x="831.1191" y="34.291">Managed connectors</text><path d="M778.1191,38.2441 L788.1191,38.2441 C803.1191,38.2441 803.1191,29 818.1191,29 L828.1191,29" fill="none" style="stroke:#0078D4;stroke-width:3;"/><text fill="#000000" font-family="sans-serif" font-size="14" lengthAdjust="spacing" textLength="225.5859" x="831.1191" y="52.7793">Graphical UI or declarative config</text><path d="M778.1191,38.2441 L788.1191,38.2441 C803.1191,38.2441 803.1191,47.4883 818.1191,47.4883 L828.1191,47.4883" fill="none" style="stroke:#0078D4;stroke-width:3;"/><path d="M588.0596,94.7324 L598.0596,94.7324 C613.0596,94.7324 613.0596,38.2441 628.0596,38.2441 L638.0596,38.2441" fill="none" style="stroke:#FF5F46;stroke-width:3;"/><rect fill="#0078D4" height="36.4883" rx="12.5" ry="12.5" style="stroke:#0078D4;stroke-width:3;" width="163.7256" x="638.0596" y="76.4883"/><text fill="#FFFFFF" font-family="sans-serif" font-size="14" lengthAdjust="spacing" textLength="143.7256" x="648.0596" y="100.0234">Pipeline Components</text><text fill="#000000" font-family="sans-serif" font-size="14" lengthAdjust="spacing" textLength="245.6084" x="854.7852" y="81.5352">Connection (credentials + endpoint)</text><path d="M801.7852,94.7324 L811.7852,94.7324 C826.7852,94.7324 826.7852,76.2441 841.7852,76.2441 L851.7852,76.2441" fill="none" style="stroke:#0078D4;stroke-width:3;"/><text fill="#000000" font-family="sans-serif" font-size="14" lengthAdjust="spacing" textLength="243.1543" x="854.7852" y="100.0234">Ingestion definition (tables/objects)</text><path d="M801.7852,94.7324 L811.7852,94.7324 C826.7852,94.7324 826.7852,94.7324 841.7852,94.7324 L851.7852,94.7324" fill="none" style="stroke:#0078D4;stroke-width:3;"/><text fill="#000000" font-family="sans-serif" font-size="14" lengthAdjust="spacing" textLength="117.5508" x="854.7852" y="118.5117">Pipeline schedule</text><path d="M801.7852,94.7324 L811.7852,94.7324 C826.7852,94.7324 826.7852,113.2207 841.7852,113.2207 L851.7852,113.2207" fill="none" style="stroke:#0078D4;stroke-width:3;"/><path d="M588.0596,94.7324 L598.0596,94.7324 C613.0596,94.7324 613.0596,94.7324 628.0596,94.7324 L638.0596,94.7324" fill="none" style="stroke:#FF5F46;stroke-width:3;"/><rect fill="#0078D4" height="36.4883" rx="12.5" ry="12.5" style="stroke:#0078D4;stroke-width:3;" width="164.4297" x="638.0596" y="132.9766"/><text fill="#FFFFFF" font-family="sans-serif" font-size="14" lengthAdjust="spacing" textLength="144.4297" x="648.0596" y="156.5117">Database Connectors</text><text fill="#000000" font-family="sans-serif" font-size="14" lengthAdjust="spacing" textLength="178.2813" x="855.4893" y="138.0234">Creates ingestion gateway</text><path d="M802.4893,151.2207 L812.4893,151.2207 C827.4893,151.2207 827.4893,132.7324 842.4893,132.7324 L852.4893,132.7324" fill="none" style="stroke:#0078D4;stroke-width:3;"/><text fill="#000000" font-family="sans-serif" font-size="14" lengthAdjust="spacing" textLength="184.9873" x="855.4893" y="156.5117">Extracts change data (CDC)</text><path d="M802.4893,151.2207 L812.4893,151.2207 C827.4893,151.2207 827.4893,151.2207 842.4893,151.2207 L852.4893,151.2207" fill="none" style="stroke:#0078D4;stroke-width:3;"/><text fill="#000000" font-family="sans-serif" font-size="14" lengthAdjust="spacing" textLength="191.3584" x="855.4893" y="175">SQL Server, PostgreSQL, etc.</text><path d="M802.4893,151.2207 L812.4893,151.2207 C827.4893,151.2207 827.4893,169.709 842.4893,169.709 L852.4893,169.709" fill="none" style="stroke:#0078D4;stroke-width:3;"/><path d="M588.0596,94.7324 L598.0596,94.7324 C613.0596,94.7324 613.0596,151.2207 628.0596,151.2207 L638.0596,151.2207" fill="none" style="stroke:#FF5F46;stroke-width:3;"/><rect fill="#0078D4" height="36.4883" rx="12.5" ry="12.5" style="stroke:#0078D4;stroke-width:3;" width="132.3076" x="258.248" y="48.2441"/><text fill="#FFFFFF" font-family="sans-serif" font-size="14" lengthAdjust="spacing" textLength="112.3076" x="268.248" y="71.7793">SaaS Connectors</text><text fill="#000000" font-family="sans-serif" font-size="14" lengthAdjust="spacing" textLength="182.8545" x="22.3936" y="62.5352">Salesforce, SharePoint, etc.</text><path d="M258.248,66.4883 L248.248,66.4883 C233.248,66.4883 233.248,57.2441 218.248,57.2441 L208.248,57.2441" fill="none" style="stroke:#0078D4;stroke-width:3;"/><text fill="#000000" font-family="sans-serif" font-size="14" lengthAdjust="spacing" textLength="195.248" x="10" y="81.0234">No separate gateway needed</text><path d="M258.248,66.4883 L248.248,66.4883 C233.248,66.4883 233.248,75.7324 218.248,75.7324 L208.248,75.7324" fill="none" style="stroke:#0078D4;stroke-width:3;"/><path d="M440.5557,94.7324 L430.5557,94.7324 C415.5557,94.7324 415.5557,66.4883 400.5557,66.4883 L390.5557,66.4883" fill="none" style="stroke:#FF5F46;stroke-width:3;"/><rect fill="#0078D4" height="36.4883" rx="12.5" ry="12.5" style="stroke:#0078D4;stroke-width:3;" width="97.6973" x="292.8584" y="104.7324"/><text fill="#FFFFFF" font-family="sans-serif" font-size="14" lengthAdjust="spacing" textLength="77.6973" x="302.8584" y="128.2676">Destination</text><text fill="#000000" font-family="sans-serif" font-size="14" lengthAdjust="spacing" textLength="208.9678" x="30.8906" y="119.0234">Unity Catalog streaming tables</text><path d="M292.8584,122.9766 L282.8584,122.9766 C267.8584,122.9766 267.8584,113.7324 252.8584,113.7324 L242.8584,113.7324" fill="none" style="stroke:#0078D4;stroke-width:3;"/><text fill="#000000" font-family="sans-serif" font-size="14" lengthAdjust="spacing" textLength="185.4043" x="54.4541" y="137.5117">Catalog + schema in target</text><path d="M292.8584,122.9766 L282.8584,122.9766 C267.8584,122.9766 267.8584,132.2207 252.8584,132.2207 L242.8584,132.2207" fill="none" style="stroke:#0078D4;stroke-width:3;"/><path d="M440.5557,94.7324 L430.5557,94.7324 C415.5557,94.7324 415.5557,122.9766 400.5557,122.9766 L390.5557,122.9766" fill="none" style="stroke:#FF5F46;stroke-width:3;"/><?plantuml-src VPFRRjD048Rl_HGZSPFASUg6KWwgK8M3KQM0WapkaD34ExQNR7QjtUqXgdXtniU2KPWxp_mptpzZxOtpQFr1Qd70EhXs_gZeVV1EKEshMNm6Jm5mVC1yNrfpfqLYbB7m8arVfPTNRMqjDVsRJOtsVRPeOzH-gsI-r-GSl5p4mQ-1TN6I5SUltwmkfwn9zk-f4mTf6y-ivKbMKUpUnl6KDSd-bnMtmQoTULIDvkcaulgyFtS8Mot8yg_Guhk-rIKvBus6ZQn9CT05OGXht5EXp0CaHclAFUV27_0PDPOa8E-Inhek_ybYpJPHmVOMc2eeLsZHotjgj8Kicva3W6SUQgD9-xwzPpGcPhabmHM9oa48f4LjfFPddV3PhA12QjcrUDpnxkTczvE7k5uwmbnUaRXJr3XO8MlHqK0S5qWieIS7SWIK_Fs0nwxyyT5RvDcGLyWA43m7PiagwM7PrpLaPE_9pc5Zd2yjSMeEvFD544MG8MP_CgCeuYParuMnESqXgz3IfjbqR6B55mEEwkQGDFW1JNmVqGnTDKurDcux-POFSeI4lIbJWlEy4p-r4hhxT9gX6hPtEI1lp7LRaWzk-DZ3qmmk5ijuURLO_WO0?></g></svg>