<?plantuml 1.2026.2?><svg xmlns="http://www.w3.org/2000/svg" xmlns:xlink="http://www.w3.org/1999/xlink" contentStyleType="text/css" data-diagram-type="MINDMAP" height="134px" preserveAspectRatio="none" style="width:1085px;height:134px;background:#FFFFFF;" version="1.1" viewBox="0 0 1085 134" width="1085px" zoomAndPan="magnify"><defs/><g><rect fill="#FF5F46" height="52.9766" rx="12.5" ry="12.5" style="stroke:#FF5F46;stroke-width:3;" width="166.3984" x="448.5879" y="40"/><text fill="#FFFFFF" font-family="sans-serif" font-size="14" lengthAdjust="spacing" textLength="47.3662" x="458.5879" y="63.5352">Handle</text><text fill="#FFFFFF" font-family="sans-serif" font-size="14" lengthAdjust="spacing" textLength="146.3984" x="458.5879" y="80.0234">Semi-structured Data</text><rect fill="#0078D4" height="36.4883" rx="12.5" ry="12.5" style="stroke:#0078D4;stroke-width:3;" width="153.376" x="664.9863" y="20"/><text fill="#FFFFFF" font-family="sans-serif" font-size="14" lengthAdjust="spacing" textLength="133.376" x="674.9863" y="43.5352">VARIANT Data Type</text><text fill="#000000" font-family="sans-serif" font-size="14" lengthAdjust="spacing" textLength="202.4668" x="871.3623" y="34.291">Stores nested JSON structures</text><path d="M818.3623,38.2441 L828.3623,38.2441 C843.3623,38.2441 843.3623,29 858.3623,29 L868.3623,29" fill="none" style="stroke:#0078D4;stroke-width:3;"/><text fill="#000000" font-family="sans-serif" font-size="14" lengthAdjust="spacing" textLength="193.1836" x="871.3623" y="52.7793">Flexible when schema varies</text><path d="M818.3623,38.2441 L828.3623,38.2441 C843.3623,38.2441 843.3623,47.4883 858.3623,47.4883 L868.3623,47.4883" fill="none" style="stroke:#0078D4;stroke-width:3;"/><path d="M614.9863,66.4883 L624.9863,66.4883 C639.9863,66.4883 639.9863,38.2441 654.9863,38.2441 L664.9863,38.2441" fill="none" style="stroke:#FF5F46;stroke-width:3;"/><rect fill="#0078D4" height="36.4883" rx="12.5" ry="12.5" style="stroke:#0078D4;stroke-width:3;" width="101.9971" x="664.9863" y="76.4883"/><text fill="#FFFFFF" font-family="sans-serif" font-size="14" lengthAdjust="spacing" textLength="81.9971" x="674.9863" y="100.0234">parse_json()</text><text fill="#000000" font-family="sans-serif" font-size="14" lengthAdjust="spacing" textLength="242.0605" x="819.9834" y="90.7793">Converts string column to VARIANT</text><path d="M766.9834,94.7324 L776.9834,94.7324 C791.9834,94.7324 791.9834,85.4883 806.9834,85.4883 L816.9834,85.4883" fill="none" style="stroke:#0078D4;stroke-width:3;"/><text fill="#000000" font-family="sans-serif" font-size="14" lengthAdjust="spacing" textLength="167.6924" x="819.9834" y="109.2676">Works on text/JSON files</text><path d="M766.9834,94.7324 L776.9834,94.7324 C791.9834,94.7324 791.9834,103.9766 806.9834,103.9766 L816.9834,103.9766" fill="none" style="stroke:#0078D4;stroke-width:3;"/><path d="M614.9863,66.4883 L624.9863,66.4883 C639.9863,66.4883 639.9863,94.7324 654.9863,94.7324 L664.9863,94.7324" fill="none" style="stroke:#FF5F46;stroke-width:3;"/><rect fill="#0078D4" height="36.4883" rx="12.5" ry="12.5" style="stroke:#0078D4;stroke-width:3;" width="104.2803" x="294.3076" y="20"/><text fill="#FFFFFF" font-family="sans-serif" font-size="14" lengthAdjust="spacing" textLength="84.2803" x="304.3076" y="43.5352">variant_get()</text><text fill="#000000" font-family="sans-serif" font-size="14" lengthAdjust="spacing" textLength="199.9102" x="41.3975" y="25.0469">Extract specific fields by path</text><path d="M294.3076,38.2441 L284.3076,38.2441 C269.3076,38.2441 269.3076,19.7559 254.3076,19.7559 L244.3076,19.7559" fill="none" style="stroke:#0078D4;stroke-width:3;"/><text fill="#000000" font-family="sans-serif" font-size="14" lengthAdjust="spacing" textLength="160.4805" x="80.8271" y="43.5352">Cast to target data type</text><path d="M294.3076,38.2441 L284.3076,38.2441 C269.3076,38.2441 269.3076,38.2441 254.3076,38.2441 L244.3076,38.2441" fill="none" style="stroke:#0078D4;stroke-width:3;"/><text fill="#000000" font-family="sans-serif" font-size="14" lengthAdjust="spacing" textLength="231.3076" x="10" y="62.0234">e.g. "$.customer.name" &#8594; STRING</text><path d="M294.3076,38.2441 L284.3076,38.2441 C269.3076,38.2441 269.3076,56.7324 254.3076,56.7324 L244.3076,56.7324" fill="none" style="stroke:#0078D4;stroke-width:3;"/><path d="M448.5879,66.4883 L438.5879,66.4883 C423.5879,66.4883 423.5879,38.2441 408.5879,38.2441 L398.5879,38.2441" fill="none" style="stroke:#FF5F46;stroke-width:3;"/><rect fill="#0078D4" height="36.4883" rx="12.5" ry="12.5" style="stroke:#0078D4;stroke-width:3;" width="88.5576" x="310.0303" y="76.4883"/><text fill="#FFFFFF" font-family="sans-serif" font-size="14" lengthAdjust="spacing" textLength="68.5576" x="320.0303" y="100.0234">Use Cases</text><text fill="#000000" font-family="sans-serif" font-size="14" lengthAdjust="spacing" textLength="212.8779" x="44.1523" y="81.5352">Schema varies between records</text><path d="M310.0303,94.7324 L300.0303,94.7324 C285.0303,94.7324 285.0303,76.2441 270.0303,76.2441 L260.0303,76.2441" fill="none" style="stroke:#0078D4;stroke-width:3;"/><text fill="#000000" font-family="sans-serif" font-size="14" lengthAdjust="spacing" textLength="211.832" x="45.1982" y="100.0234">JSON schema evolves over time</text><path d="M310.0303,94.7324 L300.0303,94.7324 C285.0303,94.7324 285.0303,94.7324 270.0303,94.7324 L260.0303,94.7324" fill="none" style="stroke:#0078D4;stroke-width:3;"/><text fill="#000000" font-family="sans-serif" font-size="14" lengthAdjust="spacing" textLength="212.2832" x="44.7471" y="118.5117">API responses / event payloads</text><path d="M310.0303,94.7324 L300.0303,94.7324 C285.0303,94.7324 285.0303,113.2207 270.0303,113.2207 L260.0303,113.2207" fill="none" style="stroke:#0078D4;stroke-width:3;"/><path d="M448.5879,66.4883 L438.5879,66.4883 C423.5879,66.4883 423.5879,94.7324 408.5879,94.7324 L398.5879,94.7324" fill="none" style="stroke:#FF5F46;stroke-width:3;"/><?plantuml-src VPFRRjD048Rl_HIZmaMho8uRIZceGWqfXY0KK1tW1YbQhyVn4dlNsXsdYIfkUG0UaITXV6W1ep1tdldc_sT6taj7mbAfT5gAohjmj2_mXVSynOhou_04RZtWU2daPcrDhTEPAOo51r7qE3exRsllbCP_iv7Hr6UpDkxPPQxaHgDpy2W8lMztNgS7lSBmoTEhiw7N8Fktwc22g8tVNfE3NbcMF0l3eTSW-r-li0tsIiokQ9ZRWyJ5k3_t2Du8dHRuHSTOAj-HhINL5bEu4YIyqGW-JQ_dqyMo_ORbla9EZbOGax7eW6SXXj_6xnTmt-mw92fmfv82uIP73KxcM0hO2gjQ02fX7Qw-EgEFJxg6cT5RjEGQ9QNN84rHbnh8t0tHOP-DtJWmNC0TZLlhJF72dk-tyaBJQet4ghxlh-3LZgoG1Av2gJ8b6SOYTP3iUGJAEsWc73L6_4joAwJDijGisrOnM0Tmz32GjIDJeWsqAF48Vdx_0V7oUhvutLX_TDZ8j7DmJ_pdlf0WtI1VmQ8qDksHxceTXrjJR1aqV04WLVREqmzpxd6LqImCOyPG4y-zBunWcKlarzE_8Eyqc8IJys3o2m00?></g></svg>