<?plantuml 1.2026.2?><svg xmlns="http://www.w3.org/2000/svg" xmlns:xlink="http://www.w3.org/1999/xlink" contentStyleType="text/css" data-diagram-type="MINDMAP" height="151px" preserveAspectRatio="none" style="width:1312px;height:151px;background:#FFFFFF;" version="1.1" viewBox="0 0 1312 151" width="1312px" zoomAndPan="magnify"><defs/><g><rect fill="#FF5F46" height="52.9766" rx="12.5" ry="12.5" style="stroke:#FF5F46;stroke-width:3;" width="196.8184" x="555.5908" y="48.4766"/><text fill="#FFFFFF" font-family="sans-serif" font-size="14" lengthAdjust="spacing" textLength="150.2402" x="565.5908" y="72.0117">Ingest Streaming Data</text><text fill="#FFFFFF" font-family="sans-serif" font-size="14" lengthAdjust="spacing" textLength="176.8184" x="565.5908" y="88.5">with Structured Streaming</text><rect fill="#0078D4" height="36.4883" rx="12.5" ry="12.5" style="stroke:#0078D4;stroke-width:3;" width="139.1982" x="802.4092" y="28.4766"/><text fill="#FFFFFF" font-family="sans-serif" font-size="14" lengthAdjust="spacing" textLength="119.1982" x="812.4092" y="52.0117">spark.readStream</text><text fill="#000000" font-family="sans-serif" font-size="14" lengthAdjust="spacing" textLength="248.9375" x="994.6074" y="33.5234">format("kafka"): message bus source</text><path d="M941.6074,46.7207 L951.6074,46.7207 C966.6074,46.7207 966.6074,28.2324 981.6074,28.2324 L991.6074,28.2324" fill="none" style="stroke:#0078D4;stroke-width:3;"/><text fill="#000000" font-family="sans-serif" font-size="14" lengthAdjust="spacing" textLength="252.082" x="994.6074" y="52.0117">format("csv/json"): file-based stream</text><path d="M941.6074,46.7207 L951.6074,46.7207 C966.6074,46.7207 966.6074,46.7207 981.6074,46.7207 L991.6074,46.7207" fill="none" style="stroke:#0078D4;stroke-width:3;"/><text fill="#000000" font-family="sans-serif" font-size="14" lengthAdjust="spacing" textLength="212.7891" x="994.6074" y="70.5">startingOffsets: latest / earliest</text><path d="M941.6074,46.7207 L951.6074,46.7207 C966.6074,46.7207 966.6074,65.209 981.6074,65.209 L991.6074,65.209" fill="none" style="stroke:#0078D4;stroke-width:3;"/><path d="M752.4092,74.9648 L762.4092,74.9648 C777.4092,74.9648 777.4092,46.7207 792.4092,46.7207 L802.4092,46.7207" fill="none" style="stroke:#FF5F46;stroke-width:3;"/><rect fill="#0078D4" height="36.4883" rx="12.5" ry="12.5" style="stroke:#0078D4;stroke-width:3;" width="162.9531" x="802.4092" y="84.9648"/><text fill="#FFFFFF" font-family="sans-serif" font-size="14" lengthAdjust="spacing" textLength="142.9531" x="812.4092" y="108.5">Schema Requirement</text><text fill="#000000" font-family="sans-serif" font-size="14" lengthAdjust="spacing" textLength="213.2061" x="1018.3623" y="99.2559">Explicit schema for file streams</text><path d="M965.3623,103.209 L975.3623,103.209 C990.3623,103.209 990.3623,93.9648 1005.3623,93.9648 L1015.3623,93.9648" fill="none" style="stroke:#0078D4;stroke-width:3;"/><text fill="#000000" font-family="sans-serif" font-size="14" lengthAdjust="spacing" textLength="281.7295" x="1018.3623" y="117.7441">inferSchema NOT supported in streaming</text><path d="M965.3623,103.209 L975.3623,103.209 C990.3623,103.209 990.3623,112.4531 1005.3623,112.4531 L1015.3623,112.4531" fill="none" style="stroke:#0078D4;stroke-width:3;"/><path d="M752.4092,74.9648 L762.4092,74.9648 C777.4092,74.9648 777.4092,103.209 792.4092,103.209 L802.4092,103.209" fill="none" style="stroke:#FF5F46;stroke-width:3;"/><rect fill="#0078D4" height="36.4883" rx="12.5" ry="12.5" style="stroke:#0078D4;stroke-width:3;" width="158.5303" x="347.0605" y="28.7324"/><text fill="#FFFFFF" font-family="sans-serif" font-size="14" lengthAdjust="spacing" textLength="138.5303" x="357.0605" y="52.2676">writeStream Options</text><text fill="#000000" font-family="sans-serif" font-size="14" lengthAdjust="spacing" textLength="228.1631" x="65.8975" y="24.5352">format("delta"): Delta Lake output</text><path d="M347.0605,46.9766 L337.0605,46.9766 C322.0605,46.9766 322.0605,19.2441 307.0605,19.2441 L297.0605,19.2441" fill="none" style="stroke:#0078D4;stroke-width:3;"/><text fill="#000000" font-family="sans-serif" font-size="14" lengthAdjust="spacing" textLength="284.0605" x="10" y="43.0234">outputMode: append / update / complete</text><path d="M347.0605,46.9766 L337.0605,46.9766 C322.0605,46.9766 322.0605,37.7324 307.0605,37.7324 L297.0605,37.7324" fill="none" style="stroke:#0078D4;stroke-width:3;"/><text fill="#000000" font-family="sans-serif" font-size="14" lengthAdjust="spacing" textLength="230.8291" x="63.2314" y="61.5117">checkpointLocation: resume point</text><path d="M347.0605,46.9766 L337.0605,46.9766 C322.0605,46.9766 322.0605,56.2207 307.0605,56.2207 L297.0605,56.2207" fill="none" style="stroke:#0078D4;stroke-width:3;"/><text fill="#000000" font-family="sans-serif" font-size="14" lengthAdjust="spacing" textLength="254.5703" x="39.4902" y="80">toTable(): write to Unity Catalog table</text><path d="M347.0605,46.9766 L337.0605,46.9766 C322.0605,46.9766 322.0605,74.709 307.0605,74.709 L297.0605,74.709" fill="none" style="stroke:#0078D4;stroke-width:3;"/><path d="M555.5908,74.9648 L545.5908,74.9648 C530.5908,74.9648 530.5908,46.9766 515.5908,46.9766 L505.5908,46.9766" fill="none" style="stroke:#FF5F46;stroke-width:3;"/><rect fill="#0078D4" height="36.4883" rx="12.5" ry="12.5" style="stroke:#0078D4;stroke-width:3;" width="116.373" x="389.2178" y="93.4414"/><text fill="#FFFFFF" font-family="sans-serif" font-size="14" lengthAdjust="spacing" textLength="96.373" x="399.2178" y="116.9766">Output Modes</text><text fill="#000000" font-family="sans-serif" font-size="14" lengthAdjust="spacing" textLength="284.9492" x="51.2686" y="98.4883">append: new rows only (ingestion default)</text><path d="M389.2178,111.6855 L379.2178,111.6855 C364.2178,111.6855 364.2178,93.1973 349.2178,93.1973 L339.2178,93.1973" fill="none" style="stroke:#0078D4;stroke-width:3;"/><text fill="#000000" font-family="sans-serif" font-size="14" lengthAdjust="spacing" textLength="252.6631" x="83.5547" y="116.9766">update: changed rows (aggregations)</text><path d="M389.2178,111.6855 L379.2178,111.6855 C364.2178,111.6855 364.2178,111.6855 349.2178,111.6855 L339.2178,111.6855" fill="none" style="stroke:#0078D4;stroke-width:3;"/><text fill="#000000" font-family="sans-serif" font-size="14" lengthAdjust="spacing" textLength="291.8057" x="44.4121" y="135.4648">complete: all rows rewritten (aggregations)</text><path d="M389.2178,111.6855 L379.2178,111.6855 C364.2178,111.6855 364.2178,130.1738 349.2178,130.1738 L339.2178,130.1738" fill="none" style="stroke:#0078D4;stroke-width:3;"/><path d="M555.5908,74.9648 L545.5908,74.9648 C530.5908,74.9648 530.5908,111.6855 515.5908,111.6855 L505.5908,111.6855" fill="none" style="stroke:#FF5F46;stroke-width:3;"/><?plantuml-src VPHVRzCm5CNV-ocknakhgcrMne1eGXChbP0wAh7oXeJSv2OrSMnZNzDL4zyT_qaf2ohtwUhusBzpOoktbfYXbikoPNfmO-aWyDqWBr7JRfYDu6a0ljwpegcDShAyKq8PUB5SlbfUNSUr5PVuhxfKaZgrYlN7kzdnef5eBRoSPeDVHzRbMLQMlNwpkEgpUkhpKti9bh5EhFbPLbLjtsPPdzLJ_ylAOddMLZsAu7awwxYPTPzx31zbZPRWWGmoVnarB1YnhtBFQHT4Lv0pM9xM1-CnMCrCC_L2cMIlZRz1fKpBQ7ZHiAfX5wCSMX-2rGXRPy4gPmfyRYpipzbtgsJmLbpWPCkiHzc_penln5FNLMMHR0w2KOWx0sH6SD-6F0_53bi6d_67umPRb9HsVtZKWXUSm2Q31qTGXx39nMM5fZlYqte3rccj3FaaN7RECFTa0dl32TF8iDR4bRHUdfmcAb5G77qH6bYn1a4vqewIB_NtgiGScDOeIp-9qwKVoZU5QhL0mkJrWOf6AovffGeMO3aOjAv5Y6foaTgmhS2XPyPqNe0lajC1xlmz2bK3XVMGVXtX4EXTx1GX1ubxC6flGKbnW26FJy83eSIAEK6ZP4z1Sv-CUKUPjWnPNHkiOq3R6O-3-265I3Q38HwXx6-uzGcEFu71vNIUpQ-dyzy0?></g></svg>