<?plantuml 1.2026.2?><svg xmlns="http://www.w3.org/2000/svg" xmlns:xlink="http://www.w3.org/1999/xlink" contentStyleType="text/css" data-diagram-type="MINDMAP" height="152px" preserveAspectRatio="none" style="width:1134px;height:152px;background:#FFFFFF;" version="1.1" viewBox="0 0 1134 152" width="1134px" zoomAndPan="magnify"><defs/><g><rect fill="#FF5F46" height="52.9766" rx="12.5" ry="12.5" style="stroke:#FF5F46;stroke-width:3;" width="138.5488" x="509.1475" y="48.7324"/><text fill="#FFFFFF" font-family="sans-serif" font-size="14" lengthAdjust="spacing" textLength="118.5488" x="519.1475" y="72.2676">Ingest Batch Data</text><text fill="#FFFFFF" font-family="sans-serif" font-size="14" lengthAdjust="spacing" textLength="113.3467" x="519.1475" y="88.7559">with DataFrames</text><rect fill="#0078D4" height="36.4883" rx="12.5" ry="12.5" style="stroke:#0078D4;stroke-width:3;" width="117.9521" x="697.6963" y="28.7324"/><text fill="#FFFFFF" font-family="sans-serif" font-size="14" lengthAdjust="spacing" textLength="97.9521" x="707.6963" y="52.2676">spark.read API</text><text fill="#000000" font-family="sans-serif" font-size="14" lengthAdjust="spacing" textLength="229.5713" x="868.6484" y="33.7793">format(): CSV, JSON, Parquet, XML</text><path d="M815.6484,46.9766 L825.6484,46.9766 C840.6484,46.9766 840.6484,28.4883 855.6484,28.4883 L865.6484,28.4883" fill="none" style="stroke:#0078D4;stroke-width:3;"/><text fill="#000000" font-family="sans-serif" font-size="14" lengthAdjust="spacing" textLength="200.7783" x="868.6484" y="52.2676">option(): header, inferSchema</text><path d="M815.6484,46.9766 L825.6484,46.9766 C840.6484,46.9766 840.6484,46.9766 855.6484,46.9766 L865.6484,46.9766" fill="none" style="stroke:#0078D4;stroke-width:3;"/><text fill="#000000" font-family="sans-serif" font-size="14" lengthAdjust="spacing" textLength="197.9961" x="868.6484" y="70.7559">load(): path to file / directory</text><path d="M815.6484,46.9766 L825.6484,46.9766 C840.6484,46.9766 840.6484,65.4648 855.6484,65.4648 L865.6484,65.4648" fill="none" style="stroke:#0078D4;stroke-width:3;"/><path d="M647.6963,75.2207 L657.6963,75.2207 C672.6963,75.2207 672.6963,46.9766 687.6963,46.9766 L697.6963,46.9766" fill="none" style="stroke:#FF5F46;stroke-width:3;"/><rect fill="#0078D4" height="36.4883" rx="12.5" ry="12.5" style="stroke:#0078D4;stroke-width:3;" width="102.8379" x="697.6963" y="85.2207"/><text fill="#FFFFFF" font-family="sans-serif" font-size="14" lengthAdjust="spacing" textLength="82.8379" x="707.6963" y="108.7559">File Formats</text><text fill="#000000" font-family="sans-serif" font-size="14" lengthAdjust="spacing" textLength="217.2051" x="853.5342" y="90.2676">CSV / JSON: row-based, flexible</text><path d="M800.5342,103.4648 L810.5342,103.4648 C825.5342,103.4648 825.5342,84.9766 840.5342,84.9766 L850.5342,84.9766" fill="none" style="stroke:#0078D4;stroke-width:3;"/><text fill="#000000" font-family="sans-serif" font-size="14" lengthAdjust="spacing" textLength="268.8301" x="853.5342" y="108.7559">Parquet: columnar, analytics-optimized</text><path d="M800.5342,103.4648 L810.5342,103.4648 C825.5342,103.4648 825.5342,103.4648 840.5342,103.4648 L850.5342,103.4648" fill="none" style="stroke:#0078D4;stroke-width:3;"/><text fill="#000000" font-family="sans-serif" font-size="14" lengthAdjust="spacing" textLength="197.832" x="853.5342" y="127.2441">XML: rowTag option required</text><path d="M800.5342,103.4648 L810.5342,103.4648 C825.5342,103.4648 825.5342,121.9531 840.5342,121.9531 L850.5342,121.9531" fill="none" style="stroke:#0078D4;stroke-width:3;"/><path d="M647.6963,75.2207 L657.6963,75.2207 C672.6963,75.2207 672.6963,103.4648 687.6963,103.4648 L697.6963,103.4648" fill="none" style="stroke:#FF5F46;stroke-width:3;"/><rect fill="#0078D4" height="36.4883" rx="12.5" ry="12.5" style="stroke:#0078D4;stroke-width:3;" width="135.917" x="323.2305" y="20"/><text fill="#FFFFFF" font-family="sans-serif" font-size="14" lengthAdjust="spacing" textLength="115.917" x="333.2305" y="43.5352">JDBC (Databases)</text><text fill="#000000" font-family="sans-serif" font-size="14" lengthAdjust="spacing" textLength="203.8203" x="66.4102" y="25.0469">format("jdbc") + url + dbtable</text><path d="M323.2305,38.2441 L313.2305,38.2441 C298.2305,38.2441 298.2305,19.7559 283.2305,19.7559 L273.2305,19.7559" fill="none" style="stroke:#0078D4;stroke-width:3;"/><text fill="#000000" font-family="sans-serif" font-size="14" lengthAdjust="spacing" textLength="260.2305" x="10" y="43.5352">Store credentials in Databricks Secrets</text><path d="M323.2305,38.2441 L313.2305,38.2441 C298.2305,38.2441 298.2305,38.2441 283.2305,38.2441 L273.2305,38.2441" fill="none" style="stroke:#0078D4;stroke-width:3;"/><text fill="#000000" font-family="sans-serif" font-size="14" lengthAdjust="spacing" textLength="222.5439" x="47.6865" y="62.0234">Push-down queries via subquery</text><path d="M323.2305,38.2441 L313.2305,38.2441 C298.2305,38.2441 298.2305,56.7324 283.2305,56.7324 L273.2305,56.7324" fill="none" style="stroke:#0078D4;stroke-width:3;"/><path d="M509.1475,75.2207 L499.1475,75.2207 C484.1475,75.2207 484.1475,38.2441 469.1475,38.2441 L459.1475,38.2441" fill="none" style="stroke:#FF5F46;stroke-width:3;"/><rect fill="#0078D4" height="36.4883" rx="12.5" ry="12.5" style="stroke:#0078D4;stroke-width:3;" width="103.624" x="355.5234" y="85.2207"/><text fill="#FFFFFF" font-family="sans-serif" font-size="14" lengthAdjust="spacing" textLength="83.624" x="365.5234" y="108.7559">Write Modes</text><text fill="#000000" font-family="sans-serif" font-size="14" lengthAdjust="spacing" textLength="158.9766" x="143.5469" y="81.0234">overwrite: replace table</text><path d="M355.5234,103.4648 L345.5234,103.4648 C330.5234,103.4648 330.5234,75.7324 315.5234,75.7324 L305.5234,75.7324" fill="none" style="stroke:#0078D4;stroke-width:3;"/><text fill="#000000" font-family="sans-serif" font-size="14" lengthAdjust="spacing" textLength="121.5498" x="180.9736" y="99.5117">append: add rows</text><path d="M355.5234,103.4648 L345.5234,103.4648 C330.5234,103.4648 330.5234,94.2207 315.5234,94.2207 L305.5234,94.2207" fill="none" style="stroke:#0078D4;stroke-width:3;"/><text fill="#000000" font-family="sans-serif" font-size="14" lengthAdjust="spacing" textLength="138.626" x="163.8975" y="118">ignore: skip if exists</text><path d="M355.5234,103.4648 L345.5234,103.4648 C330.5234,103.4648 330.5234,112.709 315.5234,112.709 L305.5234,112.709" fill="none" style="stroke:#0078D4;stroke-width:3;"/><text fill="#000000" font-family="sans-serif" font-size="14" lengthAdjust="spacing" textLength="182.4102" x="120.1133" y="136.4883">error: fail if exists (default)</text><path d="M355.5234,103.4648 L345.5234,103.4648 C330.5234,103.4648 330.5234,131.1973 315.5234,131.1973 L305.5234,131.1973" fill="none" style="stroke:#0078D4;stroke-width:3;"/><path d="M509.1475,75.2207 L499.1475,75.2207 C484.1475,75.2207 484.1475,103.4648 469.1475,103.4648 L459.1475,103.4648" fill="none" style="stroke:#FF5F46;stroke-width:3;"/><?plantuml-src VPFTRjD048Nl_HIZSfCeFtL3AM1Lg3ILfLOjH4e5N22XiNSSBrdlkhlhfcd5kpDh9oq4XRcmuhDdvZixLiwSH-ihgKM5TNJg_5hHXoWHLFko5_VXAGAkSyoN2siQBQP66GklqlHDUdpIdbrBJV-ggT5-enPjFNjlIvalDJa7hyTnz6lBEjhBYkEtxowETraxwjzJTnAaRRsm9djPHP6zZ-DTrexwNrRS5hCoyw22vsclu_Hmi-u1NEe5ESzvV5x21NhyhbVITpzJYnMvQ300LwDTZYsXW8-pIrO6Fw0mjaBVwoSmdNyPmjNyywSXpD3UDUI7yEtckhEPsakZWwtaTh93aBeWEyzBgh2pA8CY66fai3TGI4Lm249Qohsnwv0W3LhQ8btNnLGs1Mm2rgn66JeIGoWKFSXCKMVQv4aWDwgfD38UDQgrbxaRXMYLV2JHUJboE-aM5vlKOEckuHGY6etWwk9y2hsmbq1oVTP6priu-2co_A0F0sYiugV8sCOXMi-SBq6GynpINg9ol89smPdbx-bWJdp6rshDiyQL8s5M6ZYubUJWNYAu9Wklwn3agvMUuCO8shIOUxAh879ygXNc17_GiQv9YmHGY72xJOzSQ0wLW5lA6cG1l3ItZK3M6fj0WLAz745FK86DylteZETj_xZHqNWIJqx6azy0?></g></svg>