<?plantuml 1.2026.2?><svg xmlns="http://www.w3.org/2000/svg" xmlns:xlink="http://www.w3.org/1999/xlink" contentStyleType="text/css" data-diagram-type="MINDMAP" height="134px" preserveAspectRatio="none" style="width:1215px;height:134px;background:#FFFFFF;" version="1.1" viewBox="0 0 1215 134" width="1215px" zoomAndPan="magnify"><defs/><g><rect fill="#FF5F46" height="52.9766" rx="12.5" ry="12.5" style="stroke:#FF5F46;stroke-width:3;" width="149.7666" x="521.2471" y="40"/><text fill="#FFFFFF" font-family="sans-serif" font-size="14" lengthAdjust="spacing" textLength="129.7666" x="531.2471" y="63.5352">Create Tables from</text><text fill="#FFFFFF" font-family="sans-serif" font-size="14" lengthAdjust="spacing" textLength="125.4326" x="531.2471" y="80.0234">Queries with CTAS</text><rect fill="#0078D4" height="36.4883" rx="12.5" ry="12.5" style="stroke:#0078D4;stroke-width:3;" width="193.0518" x="721.0137" y="20"/><text fill="#FFFFFF" font-family="sans-serif" font-size="14" lengthAdjust="spacing" textLength="173.0518" x="731.0137" y="43.5352">CREATE TABLE AS SELECT</text><text fill="#000000" font-family="sans-serif" font-size="14" lengthAdjust="spacing" textLength="220.5205" x="967.0654" y="25.0469">Combines creation + population</text><path d="M914.0654,38.2441 L924.0654,38.2441 C939.0654,38.2441 939.0654,19.7559 954.0654,19.7559 L964.0654,19.7559" fill="none" style="stroke:#0078D4;stroke-width:3;"/><text fill="#000000" font-family="sans-serif" font-size="14" lengthAdjust="spacing" textLength="236.626" x="967.0654" y="43.5352">Schema derived from query results</text><path d="M914.0654,38.2441 L924.0654,38.2441 C939.0654,38.2441 939.0654,38.2441 954.0654,38.2441 L964.0654,38.2441" fill="none" style="stroke:#0078D4;stroke-width:3;"/><text fill="#000000" font-family="sans-serif" font-size="14" lengthAdjust="spacing" textLength="201.3525" x="967.0654" y="62.0234">Creates Delta table by default</text><path d="M914.0654,38.2441 L924.0654,38.2441 C939.0654,38.2441 939.0654,56.7324 954.0654,56.7324 L964.0654,56.7324" fill="none" style="stroke:#0078D4;stroke-width:3;"/><path d="M671.0137,66.4883 L681.0137,66.4883 C696.0137,66.4883 696.0137,38.2441 711.0137,38.2441 L721.0137,38.2441" fill="none" style="stroke:#FF5F46;stroke-width:3;"/><rect fill="#0078D4" height="36.4883" rx="12.5" ry="12.5" style="stroke:#0078D4;stroke-width:3;" width="88.5576" x="721.0137" y="76.4883"/><text fill="#FFFFFF" font-family="sans-serif" font-size="14" lengthAdjust="spacing" textLength="68.5576" x="731.0137" y="100.0234">Use Cases</text><text fill="#000000" font-family="sans-serif" font-size="14" lengthAdjust="spacing" textLength="112.5264" x="862.5713" y="81.5352">Initial data loads</text><path d="M809.5713,94.7324 L819.5713,94.7324 C834.5713,94.7324 834.5713,76.2441 849.5713,76.2441 L859.5713,76.2441" fill="none" style="stroke:#0078D4;stroke-width:3;"/><text fill="#000000" font-family="sans-serif" font-size="14" lengthAdjust="spacing" textLength="143.0625" x="862.5713" y="100.0234">One-time migrations</text><path d="M809.5713,94.7324 L819.5713,94.7324 C834.5713,94.7324 834.5713,94.7324 849.5713,94.7324 L859.5713,94.7324" fill="none" style="stroke:#0078D4;stroke-width:3;"/><text fill="#000000" font-family="sans-serif" font-size="14" lengthAdjust="spacing" textLength="187.209" x="862.5713" y="118.5117">Transform during ingestion</text><path d="M809.5713,94.7324 L819.5713,94.7324 C834.5713,94.7324 834.5713,113.2207 849.5713,113.2207 L859.5713,113.2207" fill="none" style="stroke:#0078D4;stroke-width:3;"/><path d="M671.0137,66.4883 L681.0137,66.4883 C696.0137,66.4883 696.0137,94.7324 711.0137,94.7324 L721.0137,94.7324" fill="none" style="stroke:#FF5F46;stroke-width:3;"/><rect fill="#0078D4" height="36.4883" rx="12.5" ry="12.5" style="stroke:#0078D4;stroke-width:3;" width="157.4092" x="313.8379" y="20"/><text fill="#FFFFFF" font-family="sans-serif" font-size="14" lengthAdjust="spacing" textLength="137.4092" x="323.8379" y="43.5352">read_files() Function</text><text fill="#000000" font-family="sans-serif" font-size="14" lengthAdjust="spacing" textLength="208.1953" x="52.6426" y="25.0469">Read files from Volumes/ADLS</text><path d="M313.8379,38.2441 L303.8379,38.2441 C288.8379,38.2441 288.8379,19.7559 273.8379,19.7559 L263.8379,19.7559" fill="none" style="stroke:#0078D4;stroke-width:3;"/><text fill="#000000" font-family="sans-serif" font-size="14" lengthAdjust="spacing" textLength="209.084" x="51.7539" y="43.5352">format =&gt; 'parquet' / 'csv' etc.</text><path d="M313.8379,38.2441 L303.8379,38.2441 C288.8379,38.2441 288.8379,38.2441 273.8379,38.2441 L263.8379,38.2441" fill="none" style="stroke:#0078D4;stroke-width:3;"/><text fill="#000000" font-family="sans-serif" font-size="14" lengthAdjust="spacing" textLength="250.8379" x="10" y="62.0234">Combine with CTAS for file ingestion</text><path d="M313.8379,38.2441 L303.8379,38.2441 C288.8379,38.2441 288.8379,56.7324 273.8379,56.7324 L263.8379,56.7324" fill="none" style="stroke:#0078D4;stroke-width:3;"/><path d="M521.2471,66.4883 L511.2471,66.4883 C496.2471,66.4883 496.2471,38.2441 481.2471,38.2441 L471.2471,38.2441" fill="none" style="stroke:#FF5F46;stroke-width:3;"/><rect fill="#0078D4" height="36.4883" rx="12.5" ry="12.5" style="stroke:#0078D4;stroke-width:3;" width="95.3047" x="375.9424" y="76.4883"/><text fill="#FFFFFF" font-family="sans-serif" font-size="14" lengthAdjust="spacing" textLength="75.3047" x="385.9424" y="100.0234">Limitations</text><text fill="#000000" font-family="sans-serif" font-size="14" lengthAdjust="spacing" textLength="153.959" x="168.9834" y="81.5352">Creates new table only</text><path d="M375.9424,94.7324 L365.9424,94.7324 C350.9424,94.7324 350.9424,76.2441 335.9424,76.2441 L325.9424,76.2441" fill="none" style="stroke:#0078D4;stroke-width:3;"/><text fill="#000000" font-family="sans-serif" font-size="14" lengthAdjust="spacing" textLength="180.1133" x="142.8291" y="100.0234">Fails if table already exists</text><path d="M375.9424,94.7324 L365.9424,94.7324 C350.9424,94.7324 350.9424,94.7324 335.9424,94.7324 L325.9424,94.7324" fill="none" style="stroke:#0078D4;stroke-width:3;"/><text fill="#000000" font-family="sans-serif" font-size="14" lengthAdjust="spacing" textLength="265.0977" x="57.8447" y="118.5117">IF NOT EXISTS: skips execution entirely</text><path d="M375.9424,94.7324 L365.9424,94.7324 C350.9424,94.7324 350.9424,113.2207 335.9424,113.2207 L325.9424,113.2207" fill="none" style="stroke:#0078D4;stroke-width:3;"/><path d="M521.2471,66.4883 L511.2471,66.4883 C496.2471,66.4883 496.2471,94.7324 481.2471,94.7324 L471.2471,94.7324" fill="none" style="stroke:#FF5F46;stroke-width:3;"/><?plantuml-src VLDTQzim57tthxYmXxI496xMTLlfIbt7Xe1PMUsDFGo2R5yd8lhm9BbjAFllasLjfHxP1J_eddFFERf6DzeGPJWLDITjSANDWU5rS5bZQtOduIay1s3hbbJxhPATg6F9f88tQVekFRzmM4O5_jjDfJ2-sxZwoorsjDeBr1hUpiFWrn-liwDUOVZ-m-fyx3NglbOT9KXTlNWjZterJVan3CTUe-v_lK9NrgkKJwpdF1zbN2tykgSGAoG6eI2bdO56IVv3VEbGKNjwf6O7SH7bmTGIxvEeIA28RhC4eXpo94lYmYBJ3SIIbpQUXgfNerB055hPTimT1avUxP0JgAtq0zRE2NvQemCer1qpsakvF1fMo0m1qyU2yc376c99VP2l6Y4c6lt0Mb132OEQM3wJfFRzEu4pGpa2frlbSdYWK4JeHYeETQUes8BzKBkWivaDG-fDG-qoJauXxKJbWTa6xYq43XhIVvEiuwWNqIhB1qQlIWnykeP9IvIzdPd00YQLVfW0cce-iFosNjRRppdXrr4oogdnoOT1lnk1ZtupKh33WAM4CWsqyG1X_KKEW4zK6p--Jk7pNG79ztLUv9UWzxJLbe1LvtuP2aCLMhqRj6_IlylWRBuCbnVpvMy0?></g></svg>