<?plantuml 1.2026.2?><svg xmlns="http://www.w3.org/2000/svg" xmlns:xlink="http://www.w3.org/1999/xlink" contentStyleType="text/css" data-diagram-type="MINDMAP" height="151px" preserveAspectRatio="none" style="width:1100px;height:151px;background:#FFFFFF;" version="1.1" viewBox="0 0 1100 151" width="1100px" zoomAndPan="magnify"><defs/><g><rect fill="#FF5F46" height="52.9766" rx="12.5" ry="12.5" style="stroke:#FF5F46;stroke-width:3;" width="141.4883" x="533.9072" y="48.4766"/><text fill="#FFFFFF" font-family="sans-serif" font-size="14" lengthAdjust="spacing" textLength="76.665" x="543.9072" y="72.0117">Choose the</text><text fill="#FFFFFF" font-family="sans-serif" font-size="14" lengthAdjust="spacing" textLength="121.4883" x="543.9072" y="88.5">Right SQL Method</text><rect fill="#0078D4" height="36.4883" rx="12.5" ry="12.5" style="stroke:#0078D4;stroke-width:3;" width="55.7383" x="725.3955" y="28.4766"/><text fill="#FFFFFF" font-family="sans-serif" font-size="14" lengthAdjust="spacing" textLength="35.7383" x="735.3955" y="52.0117">CTAS</text><text fill="#000000" font-family="sans-serif" font-size="14" lengthAdjust="spacing" textLength="221.2998" x="834.1338" y="33.5234">Initial load / one-time migration</text><path d="M781.1338,46.7207 L791.1338,46.7207 C806.1338,46.7207 806.1338,28.2324 821.1338,28.2324 L831.1338,28.2324" fill="none" style="stroke:#0078D4;stroke-width:3;"/><text fill="#000000" font-family="sans-serif" font-size="14" lengthAdjust="spacing" textLength="200.6279" x="834.1338" y="52.0117">Creates new table from query</text><path d="M781.1338,46.7207 L791.1338,46.7207 C806.1338,46.7207 806.1338,46.7207 821.1338,46.7207 L831.1338,46.7207" fill="none" style="stroke:#0078D4;stroke-width:3;"/><text fill="#000000" font-family="sans-serif" font-size="14" lengthAdjust="spacing" textLength="180.1133" x="834.1338" y="70.5">Fails if table already exists</text><path d="M781.1338,46.7207 L791.1338,46.7207 C806.1338,46.7207 806.1338,65.209 821.1338,65.209 L831.1338,65.209" fill="none" style="stroke:#0078D4;stroke-width:3;"/><path d="M675.3955,74.9648 L685.3955,74.9648 C700.3955,74.9648 700.3955,46.7207 715.3955,46.7207 L725.3955,46.7207" fill="none" style="stroke:#FF5F46;stroke-width:3;"/><rect fill="#0078D4" height="36.4883" rx="12.5" ry="12.5" style="stroke:#0078D4;stroke-width:3;" width="159.3916" x="725.3955" y="84.9648"/><text fill="#FFFFFF" font-family="sans-serif" font-size="14" lengthAdjust="spacing" textLength="139.3916" x="735.3955" y="108.5">CREATE OR REPLACE</text><text fill="#000000" font-family="sans-serif" font-size="14" lengthAdjust="spacing" textLength="147.6973" x="937.7871" y="90.0117">Periodic full refreshes</text><path d="M884.7871,103.209 L894.7871,103.209 C909.7871,103.209 909.7871,84.7207 924.7871,84.7207 L934.7871,84.7207" fill="none" style="stroke:#0078D4;stroke-width:3;"/><text fill="#000000" font-family="sans-serif" font-size="14" lengthAdjust="spacing" textLength="141.1348" x="937.7871" y="108.5">Replaces entire table</text><path d="M884.7871,103.209 L894.7871,103.209 C909.7871,103.209 909.7871,103.209 924.7871,103.209 L934.7871,103.209" fill="none" style="stroke:#0078D4;stroke-width:3;"/><text fill="#000000" font-family="sans-serif" font-size="14" lengthAdjust="spacing" textLength="150.7461" x="937.7871" y="126.9883">Preserves permissions</text><path d="M884.7871,103.209 L894.7871,103.209 C909.7871,103.209 909.7871,121.6973 924.7871,121.6973 L934.7871,121.6973" fill="none" style="stroke:#0078D4;stroke-width:3;"/><path d="M675.3955,74.9648 L685.3955,74.9648 C700.3955,74.9648 700.3955,103.209 715.3955,103.209 L725.3955,103.209" fill="none" style="stroke:#FF5F46;stroke-width:3;"/><rect fill="#0078D4" height="36.4883" rx="12.5" ry="12.5" style="stroke:#0078D4;stroke-width:3;" width="95.5576" x="388.3496" y="20"/><text fill="#FFFFFF" font-family="sans-serif" font-size="14" lengthAdjust="spacing" textLength="75.5576" x="398.3496" y="43.5352">COPY INTO</text><text fill="#000000" font-family="sans-serif" font-size="14" lengthAdjust="spacing" textLength="151.2314" x="184.1182" y="25.0469">Ongoing file ingestion</text><path d="M388.3496,38.2441 L378.3496,38.2441 C363.3496,38.2441 363.3496,19.7559 348.3496,19.7559 L338.3496,19.7559" fill="none" style="stroke:#0078D4;stroke-width:3;"/><text fill="#000000" font-family="sans-serif" font-size="14" lengthAdjust="spacing" textLength="215.0518" x="120.2979" y="43.5352">Incremental / idempotent loads</text><path d="M388.3496,38.2441 L378.3496,38.2441 C363.3496,38.2441 363.3496,38.2441 348.3496,38.2441 L338.3496,38.2441" fill="none" style="stroke:#0078D4;stroke-width:3;"/><text fill="#000000" font-family="sans-serif" font-size="14" lengthAdjust="spacing" textLength="174.7402" x="160.6094" y="62.0234">Appends to existing table</text><path d="M388.3496,38.2441 L378.3496,38.2441 C363.3496,38.2441 363.3496,56.7324 348.3496,56.7324 L338.3496,56.7324" fill="none" style="stroke:#0078D4;stroke-width:3;"/><path d="M533.9072,74.9648 L523.9072,74.9648 C508.9072,74.9648 508.9072,38.2441 493.9072,38.2441 L483.9072,38.2441" fill="none" style="stroke:#FF5F46;stroke-width:3;"/><rect fill="#0078D4" height="36.4883" rx="12.5" ry="12.5" style="stroke:#0078D4;stroke-width:3;" width="121.8691" x="362.0381" y="84.709"/><text fill="#FFFFFF" font-family="sans-serif" font-size="14" lengthAdjust="spacing" textLength="101.8691" x="372.0381" y="108.2441">Decision Guide</text><text fill="#000000" font-family="sans-serif" font-size="14" lengthAdjust="spacing" textLength="128.7412" x="180.2969" y="80.5117">First time? &#8594; CTAS</text><path d="M362.0381,102.9531 L352.0381,102.9531 C337.0381,102.9531 337.0381,75.2207 322.0381,75.2207 L312.0381,75.2207" fill="none" style="stroke:#0078D4;stroke-width:3;"/><text fill="#000000" font-family="sans-serif" font-size="14" lengthAdjust="spacing" textLength="299.0381" x="10" y="99">Full periodic reload? &#8594; CREATE OR REPLACE</text><path d="M362.0381,102.9531 L352.0381,102.9531 C337.0381,102.9531 337.0381,93.709 322.0381,93.709 L312.0381,93.709" fill="none" style="stroke:#0078D4;stroke-width:3;"/><text fill="#000000" font-family="sans-serif" font-size="14" lengthAdjust="spacing" textLength="235.1973" x="73.8408" y="117.4883">Regular file arrivals? &#8594; COPY INTO</text><path d="M362.0381,102.9531 L352.0381,102.9531 C337.0381,102.9531 337.0381,112.1973 322.0381,112.1973 L312.0381,112.1973" fill="none" style="stroke:#0078D4;stroke-width:3;"/><text fill="#000000" font-family="sans-serif" font-size="14" lengthAdjust="spacing" textLength="265.4053" x="43.6328" y="135.9766">Complex file detection? &#8594; Auto Loader</text><path d="M362.0381,102.9531 L352.0381,102.9531 C337.0381,102.9531 337.0381,130.6855 322.0381,130.6855 L312.0381,130.6855" fill="none" style="stroke:#0078D4;stroke-width:3;"/><path d="M533.9072,74.9648 L523.9072,74.9648 C508.9072,74.9648 508.9072,102.9531 493.9072,102.9531 L483.9072,102.9531" fill="none" style="stroke:#FF5F46;stroke-width:3;"/><?plantuml-src VLFRRjD047ttLup42oXAuePIBggWnerHf422cnSaf6hZ7TkZhdVDxheaglhQ3-0J-HBMNWTKLs5URCyvPywSaNnXBDEs8iahLWVdnku5lW_USQnj-Jny0NS1kFh8ifj2gqRoM0cbuLcIl4fEppfiIHAVTXCbRT_Dk_hBtPIKtKWq1bvEmk3-u7Lor2iCNx-vF1rw3RgFfmusIBhwvpKxwfNdsxTXEFGQTF_h5NRblBPg9rhEtL76-RG_zmZYKYc3O4lyBbCgIWjNNvVm6MsfU31o-2QwSi_HDImaMM82X68Sfg0aZYrL21KLcbbIqjDYZSoY0Oa_mRAjGCYrgk17Wthl6GaZOO3o7cR2AVWUS4V6ciupdKUREQnIIEVhPHJFlMwDcXId3F962D2OQpGb6W-cM0kMEL-KbZJwsRtEyL3VEgn6NP4nRbSJZCSGhzRVOF5bit8VusjOoKAHB20djvLxGTEbwh25p3HMRhOxm1I8OrKhwpwxQnZFYUeQ9JTWbS_Ipl9hEAzBpAWrXa-DKtj1GjfOQ8_u0Nu__FAtzaYRi3xarTYwz9mdj-a4AHQDODhlphIcMoPChtYSCbPLBN3dcHmjPcrAJuqQj_lIUQ4EBboMmzyPd4ncuUniCli3?></g></svg>