<?plantuml 1.2026.2?><svg xmlns="http://www.w3.org/2000/svg" xmlns:xlink="http://www.w3.org/1999/xlink" contentStyleType="text/css" data-diagram-type="MINDMAP" height="134px" preserveAspectRatio="none" style="width:1152px;height:134px;background:#FFFFFF;" version="1.1" viewBox="0 0 1152 134" width="1152px" zoomAndPan="magnify"><defs/><g><rect fill="#FF5F46" height="52.9766" rx="12.5" ry="12.5" style="stroke:#FF5F46;stroke-width:3;" width="183.3584" x="518.0752" y="40"/><text fill="#FFFFFF" font-family="sans-serif" font-size="14" lengthAdjust="spacing" textLength="163.3584" x="528.0752" y="63.5352">Load Files Incrementally</text><text fill="#FFFFFF" font-family="sans-serif" font-size="14" lengthAdjust="spacing" textLength="108.7461" x="528.0752" y="80.0234">with COPY INTO</text><rect fill="#0078D4" height="36.4883" rx="12.5" ry="12.5" style="stroke:#0078D4;stroke-width:3;" width="95.5576" x="751.4336" y="20"/><text fill="#FFFFFF" font-family="sans-serif" font-size="14" lengthAdjust="spacing" textLength="75.5576" x="761.4336" y="43.5352">COPY INTO</text><text fill="#000000" font-family="sans-serif" font-size="14" lengthAdjust="spacing" textLength="239.9414" x="899.9912" y="25.0469">Append files to existing Delta table</text><path d="M846.9912,38.2441 L856.9912,38.2441 C871.9912,38.2441 871.9912,19.7559 886.9912,19.7559 L896.9912,19.7559" fill="none" style="stroke:#0078D4;stroke-width:3;"/><text fill="#000000" font-family="sans-serif" font-size="14" lengthAdjust="spacing" textLength="205.0986" x="899.9912" y="43.5352">Idempotent: skips loaded files</text><path d="M846.9912,38.2441 L856.9912,38.2441 C871.9912,38.2441 871.9912,38.2441 886.9912,38.2441 L896.9912,38.2441" fill="none" style="stroke:#0078D4;stroke-width:3;"/><text fill="#000000" font-family="sans-serif" font-size="14" lengthAdjust="spacing" textLength="189.6563" x="899.9912" y="62.0234">Target table must exist first</text><path d="M846.9912,38.2441 L856.9912,38.2441 C871.9912,38.2441 871.9912,56.7324 886.9912,56.7324 L896.9912,56.7324" fill="none" style="stroke:#0078D4;stroke-width:3;"/><path d="M701.4336,66.4883 L711.4336,66.4883 C726.4336,66.4883 726.4336,38.2441 741.4336,38.2441 L751.4336,38.2441" fill="none" style="stroke:#FF5F46;stroke-width:3;"/><rect fill="#0078D4" height="36.4883" rx="12.5" ry="12.5" style="stroke:#0078D4;stroke-width:3;" width="108.7578" x="751.4336" y="76.4883"/><text fill="#FFFFFF" font-family="sans-serif" font-size="14" lengthAdjust="spacing" textLength="88.7578" x="761.4336" y="100.0234">File Selection</text><text fill="#000000" font-family="sans-serif" font-size="14" lengthAdjust="spacing" textLength="222.3867" x="913.1914" y="81.5352">PATTERN: glob pattern matching</text><path d="M860.1914,94.7324 L870.1914,94.7324 C885.1914,94.7324 885.1914,76.2441 900.1914,76.2441 L910.1914,76.2441" fill="none" style="stroke:#0078D4;stroke-width:3;"/><text fill="#000000" font-family="sans-serif" font-size="14" lengthAdjust="spacing" textLength="144.6895" x="913.1914" y="100.0234">FILES: specific file list</text><path d="M860.1914,94.7324 L870.1914,94.7324 C885.1914,94.7324 885.1914,94.7324 900.1914,94.7324 L910.1914,94.7324" fill="none" style="stroke:#0078D4;stroke-width:3;"/><text fill="#000000" font-family="sans-serif" font-size="14" lengthAdjust="spacing" textLength="227.4248" x="913.1914" y="118.5117">Supports JSON, CSV, Parquet, etc.</text><path d="M860.1914,94.7324 L870.1914,94.7324 C885.1914,94.7324 885.1914,113.2207 900.1914,113.2207 L910.1914,113.2207" fill="none" style="stroke:#0078D4;stroke-width:3;"/><path d="M701.4336,66.4883 L711.4336,66.4883 C726.4336,66.4883 726.4336,94.7324 741.4336,94.7324 L751.4336,94.7324" fill="none" style="stroke:#FF5F46;stroke-width:3;"/><rect fill="#0078D4" height="36.4883" rx="12.5" ry="12.5" style="stroke:#0078D4;stroke-width:3;" width="73.3955" x="394.6797" y="20"/><text fill="#FFFFFF" font-family="sans-serif" font-size="14" lengthAdjust="spacing" textLength="53.3955" x="404.6797" y="43.5352">Options</text><text fill="#000000" font-family="sans-serif" font-size="14" lengthAdjust="spacing" textLength="272.7539" x="68.9258" y="25.0469">FORMAT_OPTIONS: header, inferSchema</text><path d="M394.6797,38.2441 L384.6797,38.2441 C369.6797,38.2441 369.6797,19.7559 354.6797,19.7559 L344.6797,19.7559" fill="none" style="stroke:#0078D4;stroke-width:3;"/><text fill="#000000" font-family="sans-serif" font-size="14" lengthAdjust="spacing" textLength="331.6797" x="10" y="43.5352">COPY_OPTIONS mergeSchema: schema evolution</text><path d="M394.6797,38.2441 L384.6797,38.2441 C369.6797,38.2441 369.6797,38.2441 354.6797,38.2441 L344.6797,38.2441" fill="none" style="stroke:#0078D4;stroke-width:3;"/><text fill="#000000" font-family="sans-serif" font-size="14" lengthAdjust="spacing" textLength="259.5059" x="82.1738" y="62.0234">VALIDATE: check data without loading</text><path d="M394.6797,38.2441 L384.6797,38.2441 C369.6797,38.2441 369.6797,56.7324 354.6797,56.7324 L344.6797,56.7324" fill="none" style="stroke:#0078D4;stroke-width:3;"/><path d="M518.0752,66.4883 L508.0752,66.4883 C493.0752,66.4883 493.0752,38.2441 478.0752,38.2441 L468.0752,38.2441" fill="none" style="stroke:#FF5F46;stroke-width:3;"/><rect fill="#0078D4" height="36.4883" rx="12.5" ry="12.5" style="stroke:#0078D4;stroke-width:3;" width="99.1738" x="368.9014" y="76.4883"/><text fill="#FFFFFF" font-family="sans-serif" font-size="14" lengthAdjust="spacing" textLength="79.1738" x="378.9014" y="100.0234">Key Feature</text><text fill="#000000" font-family="sans-serif" font-size="14" lengthAdjust="spacing" textLength="230.1182" x="85.7832" y="81.5352">Idempotency across multiple runs</text><path d="M368.9014,94.7324 L358.9014,94.7324 C343.9014,94.7324 343.9014,76.2441 328.9014,76.2441 L318.9014,76.2441" fill="none" style="stroke:#0078D4;stroke-width:3;"/><text fill="#000000" font-family="sans-serif" font-size="14" lengthAdjust="spacing" textLength="245.793" x="70.1084" y="100.0234">Safe for regular scheduled ingestion</text><path d="M368.9014,94.7324 L358.9014,94.7324 C343.9014,94.7324 343.9014,94.7324 328.9014,94.7324 L318.9014,94.7324" fill="none" style="stroke:#0078D4;stroke-width:3;"/><text fill="#000000" font-family="sans-serif" font-size="14" lengthAdjust="spacing" textLength="190.5381" x="125.3633" y="118.5117">No duplicate data on re-run</text><path d="M368.9014,94.7324 L358.9014,94.7324 C343.9014,94.7324 343.9014,113.2207 328.9014,113.2207 L318.9014,113.2207" fill="none" style="stroke:#0078D4;stroke-width:3;"/><path d="M518.0752,66.4883 L508.0752,66.4883 C493.0752,66.4883 493.0752,94.7324 478.0752,94.7324 L468.0752,94.7324" fill="none" style="stroke:#FF5F46;stroke-width:3;"/><?plantuml-src VLFlQzj03FtklqAmBnlvCJVhkYsKqIo98LqMXzeK1eDoESlnaVFTxInl3MN_-sGxQMb6foznfAVtdYJxgYBXgLGcAuKBBYlQQ_mSZ3DqLBmEty1301nVXDnjlQrDDhNQUdWLHU-ZyuksjbG6_yr6rj0XcxVnY4qB9NS6gmhU3SFWpr7hx4MjCFpmSNP-gdMIVSvwuY1guqbhzA9Mdcy-XU6fradslrfX6woriVUwmJoyYBXyUrXt3vPMP10fRe25aHvBD2IqtlymlnKLC8tNts6nIkEWrtlsftS74-VGP92tpMG1xrL5ocnXXfe4aDXex92B34jdYQd7KEsKgq2pB1vwEqmg_1QfwuAohgZZOuYlg55lJ4A26YKfQxgczIHDvpUhCMortO0JHEWDb89amKOwJBHOpXFMTIXLhcIh2Lgrf5nEQkUifmgkatZLXsbosuUry3zhf3uWoM4m643i6isA7mTC6DzycwHtyJfTn2jcBf1dyNrG9aUVo09BqG6RVHrXK2BFrrNPJFiB-ClgkfscnTzEbelP99sFWSjo1vdWDJPdi3Mr6sjcOZTVSGyH2gezTesF-vLx4D9RFdvPQrAE9_NrqNSYSeISNmIFsreBtxh8QirtO6AideoiB6IrqqeAmiw5DTmrOAxWYcz-_6g3i-4e75qCHty1?></g></svg>