<?plantuml 1.2026.2?><svg xmlns="http://www.w3.org/2000/svg" xmlns:xlink="http://www.w3.org/1999/xlink" contentStyleType="text/css" data-diagram-type="MINDMAP" height="134px" preserveAspectRatio="none" style="width:1220px;height:134px;background:#FFFFFF;" version="1.1" viewBox="0 0 1220 134" width="1220px" zoomAndPan="magnify"><defs/><g><rect fill="#FF5F46" height="52.9766" rx="12.5" ry="12.5" style="stroke:#FF5F46;stroke-width:3;" width="205.4385" x="448.5537" y="40"/><text fill="#FFFFFF" font-family="sans-serif" font-size="14" lengthAdjust="spacing" textLength="133.1504" x="458.5537" y="63.5352">Refresh Tables with</text><text fill="#FFFFFF" font-family="sans-serif" font-size="14" lengthAdjust="spacing" textLength="185.4385" x="458.5537" y="80.0234">CREATE OR REPLACE TABLE</text><rect fill="#0078D4" height="36.4883" rx="12.5" ry="12.5" style="stroke:#0078D4;stroke-width:3;" width="205.4385" x="703.9922" y="20"/><text fill="#FFFFFF" font-family="sans-serif" font-size="14" lengthAdjust="spacing" textLength="185.4385" x="713.9922" y="43.5352">CREATE OR REPLACE TABLE</text><text fill="#000000" font-family="sans-serif" font-size="14" lengthAdjust="spacing" textLength="202.2617" x="962.4307" y="25.0469">Creates or fully replaces table</text><path d="M909.4307,38.2441 L919.4307,38.2441 C934.4307,38.2441 934.4307,19.7559 949.4307,19.7559 L959.4307,19.7559" fill="none" style="stroke:#0078D4;stroke-width:3;"/><text fill="#000000" font-family="sans-serif" font-size="14" lengthAdjust="spacing" textLength="216.1182" x="962.4307" y="43.5352">Preserves history &amp; permissions</text><path d="M909.4307,38.2441 L919.4307,38.2441 C934.4307,38.2441 934.4307,38.2441 949.4307,38.2441 L959.4307,38.2441" fill="none" style="stroke:#0078D4;stroke-width:3;"/><text fill="#000000" font-family="sans-serif" font-size="14" lengthAdjust="spacing" textLength="246.2373" x="962.4307" y="62.0234">Row filters / column masks retained</text><path d="M909.4307,38.2441 L919.4307,38.2441 C934.4307,38.2441 934.4307,56.7324 949.4307,56.7324 L959.4307,56.7324" fill="none" style="stroke:#0078D4;stroke-width:3;"/><path d="M653.9922,66.4883 L663.9922,66.4883 C678.9922,66.4883 678.9922,38.2441 693.9922,38.2441 L703.9922,38.2441" fill="none" style="stroke:#FF5F46;stroke-width:3;"/><rect fill="#0078D4" height="36.4883" rx="12.5" ry="12.5" style="stroke:#0078D4;stroke-width:3;" width="88.5576" x="703.9922" y="76.4883"/><text fill="#FFFFFF" font-family="sans-serif" font-size="14" lengthAdjust="spacing" textLength="68.5576" x="713.9922" y="100.0234">Use Cases</text><text fill="#000000" font-family="sans-serif" font-size="14" lengthAdjust="spacing" textLength="132.7607" x="845.5498" y="81.5352">Periodic full refresh</text><path d="M792.5498,94.7324 L802.5498,94.7324 C817.5498,94.7324 817.5498,76.2441 832.5498,76.2441 L842.5498,76.2441" fill="none" style="stroke:#0078D4;stroke-width:3;"/><text fill="#000000" font-family="sans-serif" font-size="14" lengthAdjust="spacing" textLength="152.1338" x="845.5498" y="100.0234">Replace staging tables</text><path d="M792.5498,94.7324 L802.5498,94.7324 C817.5498,94.7324 817.5498,94.7324 832.5498,94.7324 L842.5498,94.7324" fill="none" style="stroke:#0078D4;stroke-width:3;"/><text fill="#000000" font-family="sans-serif" font-size="14" lengthAdjust="spacing" textLength="115.4248" x="845.5498" y="118.5117">Reload from files</text><path d="M792.5498,94.7324 L802.5498,94.7324 C817.5498,94.7324 817.5498,113.2207 832.5498,113.2207 L842.5498,113.2207" fill="none" style="stroke:#0078D4;stroke-width:3;"/><path d="M653.9922,66.4883 L663.9922,66.4883 C678.9922,66.4883 678.9922,94.7324 693.9922,94.7324 L703.9922,94.7324" fill="none" style="stroke:#FF5F46;stroke-width:3;"/><rect fill="#0078D4" height="36.4883" rx="12.5" ry="12.5" style="stroke:#0078D4;stroke-width:3;" width="77.8936" x="320.6602" y="20"/><text fill="#FFFFFF" font-family="sans-serif" font-size="14" lengthAdjust="spacing" textLength="57.8936" x="330.6602" y="43.5352">Behavior</text><text fill="#000000" font-family="sans-serif" font-size="14" lengthAdjust="spacing" textLength="150.6572" x="117.0029" y="25.0469">Full table replacement</text><path d="M320.6602,38.2441 L310.6602,38.2441 C295.6602,38.2441 295.6602,19.7559 280.6602,19.7559 L270.6602,19.7559" fill="none" style="stroke:#0078D4;stroke-width:3;"/><text fill="#000000" font-family="sans-serif" font-size="14" lengthAdjust="spacing" textLength="227.999" x="39.6611" y="43.5352">Metadata + privileges maintained</text><path d="M320.6602,38.2441 L310.6602,38.2441 C295.6602,38.2441 295.6602,38.2441 280.6602,38.2441 L270.6602,38.2441" fill="none" style="stroke:#0078D4;stroke-width:3;"/><text fill="#000000" font-family="sans-serif" font-size="14" lengthAdjust="spacing" textLength="202.8359" x="64.8242" y="62.0234">Downstream users unaffected</text><path d="M320.6602,38.2441 L310.6602,38.2441 C295.6602,38.2441 295.6602,56.7324 280.6602,56.7324 L270.6602,56.7324" fill="none" style="stroke:#0078D4;stroke-width:3;"/><path d="M448.5537,66.4883 L438.5537,66.4883 C423.5537,66.4883 423.5537,38.2441 408.5537,38.2441 L398.5537,38.2441" fill="none" style="stroke:#FF5F46;stroke-width:3;"/><rect fill="#0078D4" height="36.4883" rx="12.5" ry="12.5" style="stroke:#0078D4;stroke-width:3;" width="153.4102" x="245.1436" y="76.4883"/><text fill="#FFFFFF" font-family="sans-serif" font-size="14" lengthAdjust="spacing" textLength="133.4102" x="255.1436" y="100.0234">vs. DROP + CREATE</text><text fill="#000000" font-family="sans-serif" font-size="14" lengthAdjust="spacing" textLength="182.1436" x="10" y="81.5352">No reconfiguration needed</text><path d="M245.1436,94.7324 L235.1436,94.7324 C220.1436,94.7324 220.1436,76.2441 205.1436,76.2441 L195.1436,76.2441" fill="none" style="stroke:#0078D4;stroke-width:3;"/><text fill="#000000" font-family="sans-serif" font-size="14" lengthAdjust="spacing" textLength="159.7148" x="32.4287" y="100.0234">Table history preserved</text><path d="M245.1436,94.7324 L235.1436,94.7324 C220.1436,94.7324 220.1436,94.7324 205.1436,94.7324 L195.1436,94.7324" fill="none" style="stroke:#0078D4;stroke-width:3;"/><text fill="#000000" font-family="sans-serif" font-size="14" lengthAdjust="spacing" textLength="164.7188" x="27.4248" y="118.5117">Safer for production use</text><path d="M245.1436,94.7324 L235.1436,94.7324 C220.1436,94.7324 220.1436,113.2207 205.1436,113.2207 L195.1436,113.2207" fill="none" style="stroke:#0078D4;stroke-width:3;"/><path d="M448.5537,66.4883 L438.5537,66.4883 C423.5537,66.4883 423.5537,94.7324 408.5537,94.7324 L398.5537,94.7324" fill="none" style="stroke:#FF5F46;stroke-width:3;"/><?plantuml-src VPDlRvim4CRVyobEcZHjGabfrdL_L4rD2BnAruXbxoPL3fp1Yh6HRP95rRxx3WETnfJv5RfxxldTdV6zTSouMgYYParmPzrPufVWSu6Dgzv4R-4v03ehbXzAerjLn5fg0w_Iz7rwS-jp6w7mtsYgbHkYt9yNxQuI-K6XjV1k7WM_HjRrHLOKVVYulfco9j6_NISTfFxyOIqkiZZVVugYAMiI_IyhyeTOU_rJTfhdYugxgs7T8MJ83TeATcnFHN0IhlgXuYnPxX9up21BjfjbdC1kkTeaGHZ2vLJu1B51viY5OBoLyWm66yboYhZElXTjYOVcIC5AMAVD6Lv3WwOMrWgjR2_Az0cua0wDXIl8jMnh1JMp1qkUZj4kYgwRxnOXPXQ7gYqQeGkHUpe9_MY3OTy9q5zN2bNs3Oqmb9eLm8skEoY5PpDOOSMEGXlwdZr1sXdwcd6c6fNhSm_KKC4SWn0Q8uvaKD9mDJKvDEfLQtrIrj62QcXjDrQh6EUOEo-0evt3EdlSmhZYlkgh9bwk5HTbQvYZ1O52B4PJVsilUso6pGx9RumZNGHTHcDqqUQ-cjZ1FTAZ6nvUS3rVH8lR-U8t?></g></svg>