<?plantuml 1.2026.2?><svg xmlns="http://www.w3.org/2000/svg" xmlns:xlink="http://www.w3.org/1999/xlink" contentStyleType="text/css" data-diagram-type="MINDMAP" height="152px" preserveAspectRatio="none" style="width:1197px;height:152px;background:#FFFFFF;" version="1.1" viewBox="0 0 1197 152" width="1197px" zoomAndPan="magnify"><defs/><g><rect fill="#FF5F46" height="52.9766" rx="12.5" ry="12.5" style="stroke:#FF5F46;stroke-width:3;" width="121.4043" x="519.7295" y="48.7324"/><text fill="#FFFFFF" font-family="sans-serif" font-size="14" lengthAdjust="spacing" textLength="101.4043" x="529.7295" y="72.2676">Configure CDC</text><text fill="#FFFFFF" font-family="sans-serif" font-size="14" lengthAdjust="spacing" textLength="85.5518" x="529.7295" y="88.7559">Flows in SQL</text><rect fill="#0078D4" height="36.4883" rx="12.5" ry="12.5" style="stroke:#0078D4;stroke-width:3;" width="173.2139" x="691.1338" y="20"/><text fill="#FFFFFF" font-family="sans-serif" font-size="14" lengthAdjust="spacing" textLength="153.2139" x="701.1338" y="43.5352">SQL AUTO CDC Syntax</text><text fill="#000000" font-family="sans-serif" font-size="14" lengthAdjust="spacing" textLength="268.5498" x="917.3477" y="25.0469">CREATE OR REFRESH STREAMING TABLE</text><path d="M864.3477,38.2441 L874.3477,38.2441 C889.3477,38.2441 889.3477,19.7559 904.3477,19.7559 L914.3477,19.7559" fill="none" style="stroke:#0078D4;stroke-width:3;"/><text fill="#000000" font-family="sans-serif" font-size="14" lengthAdjust="spacing" textLength="250.168" x="917.3477" y="43.5352">CREATE FLOW ... AS AUTO CDC INTO</text><path d="M864.3477,38.2441 L874.3477,38.2441 C889.3477,38.2441 889.3477,38.2441 904.3477,38.2441 L914.3477,38.2441" fill="none" style="stroke:#0078D4;stroke-width:3;"/><text fill="#000000" font-family="sans-serif" font-size="14" lengthAdjust="spacing" textLength="185.2813" x="917.3477" y="62.0234">FROM stream(source_table)</text><path d="M864.3477,38.2441 L874.3477,38.2441 C889.3477,38.2441 889.3477,56.7324 904.3477,56.7324 L914.3477,56.7324" fill="none" style="stroke:#0078D4;stroke-width:3;"/><path d="M641.1338,75.2207 L651.1338,75.2207 C666.1338,75.2207 666.1338,38.2441 681.1338,38.2441 L691.1338,38.2441" fill="none" style="stroke:#FF5F46;stroke-width:3;"/><rect fill="#0078D4" height="36.4883" rx="12.5" ry="12.5" style="stroke:#0078D4;stroke-width:3;" width="100.9102" x="691.1338" y="85.2207"/><text fill="#FFFFFF" font-family="sans-serif" font-size="14" lengthAdjust="spacing" textLength="80.9102" x="701.1338" y="108.7559">Key Clauses</text><text fill="#000000" font-family="sans-serif" font-size="14" lengthAdjust="spacing" textLength="200.0811" x="845.0439" y="81.0234">KEYS (columns): primary keys</text><path d="M792.0439,103.4648 L802.0439,103.4648 C817.0439,103.4648 817.0439,75.7324 832.0439,75.7324 L842.0439,75.7324" fill="none" style="stroke:#0078D4;stroke-width:3;"/><text fill="#000000" font-family="sans-serif" font-size="14" lengthAdjust="spacing" textLength="290.6914" x="845.0439" y="99.5117">APPLY AS DELETE WHEN: delete expression</text><path d="M792.0439,103.4648 L802.0439,103.4648 C817.0439,103.4648 817.0439,94.2207 832.0439,94.2207 L842.0439,94.2207" fill="none" style="stroke:#0078D4;stroke-width:3;"/><text fill="#000000" font-family="sans-serif" font-size="14" lengthAdjust="spacing" textLength="213.8008" x="845.0439" y="118">SEQUENCE BY: ordering column</text><path d="M792.0439,103.4648 L802.0439,103.4648 C817.0439,103.4648 817.0439,112.709 832.0439,112.709 L842.0439,112.709" fill="none" style="stroke:#0078D4;stroke-width:3;"/><text fill="#000000" font-family="sans-serif" font-size="14" lengthAdjust="spacing" textLength="283.9102" x="845.0439" y="136.4883">COLUMNS * EXCEPT (...): exclude columns</text><path d="M792.0439,103.4648 L802.0439,103.4648 C817.0439,103.4648 817.0439,131.1973 832.0439,131.1973 L842.0439,131.1973" fill="none" style="stroke:#0078D4;stroke-width:3;"/><path d="M641.1338,75.2207 L651.1338,75.2207 C666.1338,75.2207 666.1338,103.4648 681.1338,103.4648 L691.1338,103.4648" fill="none" style="stroke:#FF5F46;stroke-width:3;"/><rect fill="#0078D4" height="36.4883" rx="12.5" ry="12.5" style="stroke:#0078D4;stroke-width:3;" width="128.5137" x="341.2158" y="28.7324"/><text fill="#FFFFFF" font-family="sans-serif" font-size="14" lengthAdjust="spacing" textLength="108.5137" x="351.2158" y="52.2676">SCD Type 1 SQL</text><text fill="#000000" font-family="sans-serif" font-size="14" lengthAdjust="spacing" textLength="158.5801" x="129.6357" y="43.0234">STORED AS SCD TYPE 1</text><path d="M341.2158,46.9766 L331.2158,46.9766 C316.2158,46.9766 316.2158,37.7324 301.2158,37.7324 L291.2158,37.7324" fill="none" style="stroke:#0078D4;stroke-width:3;"/><text fill="#000000" font-family="sans-serif" font-size="14" lengthAdjust="spacing" textLength="122.2061" x="166.0098" y="61.5117">Current state only</text><path d="M341.2158,46.9766 L331.2158,46.9766 C316.2158,46.9766 316.2158,56.2207 301.2158,56.2207 L291.2158,56.2207" fill="none" style="stroke:#0078D4;stroke-width:3;"/><path d="M519.7295,75.2207 L509.7295,75.2207 C494.7295,75.2207 494.7295,46.9766 479.7295,46.9766 L469.7295,46.9766" fill="none" style="stroke:#FF5F46;stroke-width:3;"/><rect fill="#0078D4" height="36.4883" rx="12.5" ry="12.5" style="stroke:#0078D4;stroke-width:3;" width="128.5137" x="341.2158" y="85.2207"/><text fill="#FFFFFF" font-family="sans-serif" font-size="14" lengthAdjust="spacing" textLength="108.5137" x="351.2158" y="108.7559">SCD Type 2 SQL</text><text fill="#000000" font-family="sans-serif" font-size="14" lengthAdjust="spacing" textLength="158.5801" x="129.6357" y="90.2676">STORED AS SCD TYPE 2</text><path d="M341.2158,103.4648 L331.2158,103.4648 C316.2158,103.4648 316.2158,84.9766 301.2158,84.9766 L291.2158,84.9766" fill="none" style="stroke:#0078D4;stroke-width:3;"/><text fill="#000000" font-family="sans-serif" font-size="14" lengthAdjust="spacing" textLength="262.5205" x="25.6953" y="108.7559">TRACK HISTORY ON: selective tracking</text><path d="M341.2158,103.4648 L331.2158,103.4648 C316.2158,103.4648 316.2158,103.4648 301.2158,103.4648 L291.2158,103.4648" fill="none" style="stroke:#0078D4;stroke-width:3;"/><text fill="#000000" font-family="sans-serif" font-size="14" lengthAdjust="spacing" textLength="278.2158" x="10" y="127.2441">last_login changes &#8594; no new history row</text><path d="M341.2158,103.4648 L331.2158,103.4648 C316.2158,103.4648 316.2158,121.9531 301.2158,121.9531 L291.2158,121.9531" fill="none" style="stroke:#0078D4;stroke-width:3;"/><path d="M519.7295,75.2207 L509.7295,75.2207 C494.7295,75.2207 494.7295,103.4648 479.7295,103.4648 L469.7295,103.4648" fill="none" style="stroke:#FF5F46;stroke-width:3;"/><?plantuml-src VPFVZffG4CRlUOf9UgCrKhIxszPicaKyL2EA2vYjIHE3C2eHpp7d7Afaqzi-G1-nJzB3dtQZZJit9DzycTzy0pm86NAvJsYy3m_QlP1vYf-rNem7kMqOJNZMG5K_Z7ORpZ8QMonb7DxOzgrzSrVsd8JY_whDgApLTLd_lC4sYNOKXO3tkg7z-ClgN6KPneUFWvjBreLwFlLY0xki5rRtAckzNdqoZ4lMXVegooXBiLRib1QUvwkE-tVrkLjWCRfEDXb7i0RMDsgdx2WWeU0_EbghLJp0d0TkqGK_fp8yARcr1CiZPa30zS0ZjaVy8VY1aYQZwHS8pBv3pcosupw1hkjW-Y_ZHjF0hLosvqv0I8xXlY5OnYDSod2LOhDOOOmvM6cO2HILUqmMFZGYbcPxAfezEF1a7_8STfZN3dCsSnO5Qq0Sel1FGpBjGOmfIWGy7RWwJy9ePVR9uvnCBGBzHGyOZv4dT0FL-3g4wymdKn_U0lbgaLa03HL5WV4KfLcCjLTexJRurW22_83GAI_ORhSL870zCYZMARkB6O5ErR4opf5A5JrKYp6QvcSpkg_Ew5QTm3EjCGn7XMC1hiefLCv89jyH95UVcKfJETDGo6NADkhjHjkGRb30xv-_W3AWU8Hj8YHJL-Jig3sW-YlhFrFhw5sZUwTt_m00?></g></svg>