<?plantuml 1.2026.2?><svg xmlns="http://www.w3.org/2000/svg" xmlns:xlink="http://www.w3.org/1999/xlink" contentStyleType="text/css" data-diagram-type="MINDMAP" height="134px" preserveAspectRatio="none" style="width:1243px;height:134px;background:#FFFFFF;" version="1.1" viewBox="0 0 1243 134" width="1243px" zoomAndPan="magnify"><defs/><g><rect fill="#FF5F46" height="52.9766" rx="12.5" ry="12.5" style="stroke:#FF5F46;stroke-width:3;" width="161.8184" x="561.3057" y="40"/><text fill="#FFFFFF" font-family="sans-serif" font-size="14" lengthAdjust="spacing" textLength="47.3662" x="571.3057" y="63.5352">Handle</text><text fill="#FFFFFF" font-family="sans-serif" font-size="14" lengthAdjust="spacing" textLength="141.8184" x="571.3057" y="80.0234">Out-of-Order Events</text><rect fill="#0078D4" height="36.4883" rx="12.5" ry="12.5" style="stroke:#0078D4;stroke-width:3;" width="105.5654" x="773.124" y="20"/><text fill="#FFFFFF" font-family="sans-serif" font-size="14" lengthAdjust="spacing" textLength="85.5654" x="783.124" y="43.5352">The Problem</text><text fill="#000000" font-family="sans-serif" font-size="14" lengthAdjust="spacing" textLength="223.7607" x="931.6895" y="25.0469">Distributed systems delay events</text><path d="M878.6895,38.2441 L888.6895,38.2441 C903.6895,38.2441 903.6895,19.7559 918.6895,19.7559 L928.6895,19.7559" fill="none" style="stroke:#0078D4;stroke-width:3;"/><text fill="#000000" font-family="sans-serif" font-size="14" lengthAdjust="spacing" textLength="249.4434" x="931.6895" y="43.5352">Older update arrives after newer one</text><path d="M878.6895,38.2441 L888.6895,38.2441 C903.6895,38.2441 903.6895,38.2441 918.6895,38.2441 L928.6895,38.2441" fill="none" style="stroke:#0078D4;stroke-width:3;"/><text fill="#000000" font-family="sans-serif" font-size="14" lengthAdjust="spacing" textLength="168.9092" x="931.6895" y="62.0234">Risk: incorrect final state</text><path d="M878.6895,38.2441 L888.6895,38.2441 C903.6895,38.2441 903.6895,56.7324 918.6895,56.7324 L928.6895,56.7324" fill="none" style="stroke:#0078D4;stroke-width:3;"/><path d="M723.124,66.4883 L733.124,66.4883 C748.124,66.4883 748.124,38.2441 763.124,38.2441 L773.124,38.2441" fill="none" style="stroke:#FF5F46;stroke-width:3;"/><rect fill="#0078D4" height="36.4883" rx="12.5" ry="12.5" style="stroke:#0078D4;stroke-width:3;" width="153.2529" x="773.124" y="76.4883"/><text fill="#FFFFFF" font-family="sans-serif" font-size="14" lengthAdjust="spacing" textLength="133.2529" x="783.124" y="100.0234">AUTO CDC Solution</text><text fill="#000000" font-family="sans-serif" font-size="14" lengthAdjust="spacing" textLength="252.376" x="979.377" y="81.5352">Compares sequence values on arrival</text><path d="M926.377,94.7324 L936.377,94.7324 C951.377,94.7324 951.377,76.2441 966.377,76.2441 L976.377,76.2441" fill="none" style="stroke:#0078D4;stroke-width:3;"/><text fill="#000000" font-family="sans-serif" font-size="14" lengthAdjust="spacing" textLength="215.6465" x="979.377" y="100.0234">Higher sequence = more recent</text><path d="M926.377,94.7324 L936.377,94.7324 C951.377,94.7324 951.377,94.7324 966.377,94.7324 L976.377,94.7324" fill="none" style="stroke:#0078D4;stroke-width:3;"/><text fill="#000000" font-family="sans-serif" font-size="14" lengthAdjust="spacing" textLength="239.9346" x="979.377" y="118.5117">Late-arriving older records ignored</text><path d="M926.377,94.7324 L936.377,94.7324 C951.377,94.7324 951.377,113.2207 966.377,113.2207 L976.377,113.2207" fill="none" style="stroke:#0078D4;stroke-width:3;"/><path d="M723.124,66.4883 L733.124,66.4883 C748.124,66.4883 748.124,94.7324 763.124,94.7324 L773.124,94.7324" fill="none" style="stroke:#FF5F46;stroke-width:3;"/><rect fill="#0078D4" height="36.4883" rx="12.5" ry="12.5" style="stroke:#0078D4;stroke-width:3;" width="188.5537" x="322.752" y="20"/><text fill="#FFFFFF" font-family="sans-serif" font-size="14" lengthAdjust="spacing" textLength="168.5537" x="332.752" y="43.5352">No Manual Logic Needed</text><text fill="#000000" font-family="sans-serif" font-size="14" lengthAdjust="spacing" textLength="259.752" x="10" y="25.0469">No custom merge / timestamp checks</text><path d="M322.752,38.2441 L312.752,38.2441 C297.752,38.2441 297.752,19.7559 282.752,19.7559 L272.752,19.7559" fill="none" style="stroke:#0078D4;stroke-width:3;"/><text fill="#000000" font-family="sans-serif" font-size="14" lengthAdjust="spacing" textLength="193.4434" x="76.3086" y="43.5352">No version comparison code</text><path d="M322.752,38.2441 L312.752,38.2441 C297.752,38.2441 297.752,38.2441 282.752,38.2441 L272.752,38.2441" fill="none" style="stroke:#0078D4;stroke-width:3;"/><text fill="#000000" font-family="sans-serif" font-size="14" lengthAdjust="spacing" textLength="172.8398" x="96.9121" y="62.0234">Built-in to AUTO CDC API</text><path d="M322.752,38.2441 L312.752,38.2441 C297.752,38.2441 297.752,56.7324 282.752,56.7324 L272.752,56.7324" fill="none" style="stroke:#0078D4;stroke-width:3;"/><path d="M561.3057,66.4883 L551.3057,66.4883 C536.3057,66.4883 536.3057,38.2441 521.3057,38.2441 L511.3057,38.2441" fill="none" style="stroke:#FF5F46;stroke-width:3;"/><rect fill="#0078D4" height="36.4883" rx="12.5" ry="12.5" style="stroke:#0078D4;stroke-width:3;" width="89.5215" x="421.7842" y="76.4883"/><text fill="#FFFFFF" font-family="sans-serif" font-size="14" lengthAdjust="spacing" textLength="69.5215" x="431.7842" y="100.0234">Guarantee</text><text fill="#000000" font-family="sans-serif" font-size="14" lengthAdjust="spacing" textLength="270.8057" x="97.9785" y="81.5352">Destination always reflects correct state</text><path d="M421.7842,94.7324 L411.7842,94.7324 C396.7842,94.7324 396.7842,76.2441 381.7842,76.2441 L371.7842,76.2441" fill="none" style="stroke:#0078D4;stroke-width:3;"/><text fill="#000000" font-family="sans-serif" font-size="14" lengthAdjust="spacing" textLength="156.3652" x="212.4189" y="100.0234">Idempotent processing</text><path d="M421.7842,94.7324 L411.7842,94.7324 C396.7842,94.7324 396.7842,94.7324 381.7842,94.7324 L371.7842,94.7324" fill="none" style="stroke:#0078D4;stroke-width:3;"/><text fill="#000000" font-family="sans-serif" font-size="14" lengthAdjust="spacing" textLength="226.7549" x="142.0293" y="118.5117">Sequence column drives ordering</text><path d="M421.7842,94.7324 L411.7842,94.7324 C396.7842,94.7324 396.7842,113.2207 381.7842,113.2207 L371.7842,113.2207" fill="none" style="stroke:#0078D4;stroke-width:3;"/><path d="M561.3057,66.4883 L551.3057,66.4883 C536.3057,66.4883 536.3057,94.7324 521.3057,94.7324 L511.3057,94.7324" fill="none" style="stroke:#FF5F46;stroke-width:3;"/><?plantuml-src VPDlRzCm4CRVvrESn1jGbIuhOy0qqBQMiabbdLXvXpIvzYMrQlk2_tIh9huxbwJjH56v5r5ozxEVkoVsHOZ2HwkTigBEpaDS6_oSdIciu-9ryGQUC-2u4d9PUKfE3ScGXrVZyRlnoMbRcsY7_sR7vE8cMxQnOsSBBPSEGu2t_IBxlTKwFgXL5Ey_Z4xsjVQoV--wry6uZHUjmK6jifn_B8fzhRtiVxMADbXhJa-cOPuF4kT76xjxS2sSClZJJLFCgSodNg67BojqCMIz7imM27UUvWOjV_OUOAH3z7gU8Ye8wn3H1b1en1fmkuYfgMcsIRKI4K5uhrSOG9IHamuV-KaEE_Ax3iipq4wIzoWZbDe90tmsOWF0vO_P58QZ8ToJIL6JwrODoTR2yvu1VoLq4c4bJE9lSfsSC1ruhQi5o-smJs398x0KDziX4vRAsqNQLK1jvrmdhmBeoZ6kiZo7Mu9lmYLkRaALbd2BgDfA_j3KP0gHB5Zq5S8HH6sHXx0ro0NAPTXnA_I1nm3PJg13-wgmgrybRMAk7KHwcVpoxgRH_vg45oxY1XtnzcnLOma8yoZMWPik3LiOOEjbvsABtoYqDKKU6cfFaey73zkLxhVUIBROEb3TtwBc93JG1V8LtLpJxBW_A0Qd_S4V?></g></svg>