<?plantuml 1.2026.2?><svg xmlns="http://www.w3.org/2000/svg" xmlns:xlink="http://www.w3.org/1999/xlink" contentStyleType="text/css" data-diagram-type="MINDMAP" height="151px" preserveAspectRatio="none" style="width:1077px;height:151px;background:#FFFFFF;" version="1.1" viewBox="0 0 1077 151" width="1077px" zoomAndPan="magnify"><defs/><g><rect fill="#FF5F46" height="52.9766" rx="12.5" ry="12.5" style="stroke:#FF5F46;stroke-width:3;" width="145.3916" x="444.958" y="48.4766"/><text fill="#FFFFFF" font-family="sans-serif" font-size="14" lengthAdjust="spacing" textLength="118.7881" x="454.958" y="72.0117">Process CDC with</text><text fill="#FFFFFF" font-family="sans-serif" font-size="14" lengthAdjust="spacing" textLength="125.3916" x="454.958" y="88.5">the AUTO CDC API</text><rect fill="#0078D4" height="36.4883" rx="12.5" ry="12.5" style="stroke:#0078D4;stroke-width:3;" width="119.2373" x="640.3496" y="20"/><text fill="#FFFFFF" font-family="sans-serif" font-size="14" lengthAdjust="spacing" textLength="99.2373" x="650.3496" y="43.5352">AUTO CDC API</text><text fill="#000000" font-family="sans-serif" font-size="14" lengthAdjust="spacing" textLength="252.7998" x="812.5869" y="25.0469">Part of Lakeflow Declarative Pipelines</text><path d="M759.5869,38.2441 L769.5869,38.2441 C784.5869,38.2441 784.5869,19.7559 799.5869,19.7559 L809.5869,19.7559" fill="none" style="stroke:#0078D4;stroke-width:3;"/><text fill="#000000" font-family="sans-serif" font-size="14" lengthAdjust="spacing" textLength="246.5039" x="812.5869" y="43.5352">Handles deduplication automatically</text><path d="M759.5869,38.2441 L769.5869,38.2441 C784.5869,38.2441 784.5869,38.2441 799.5869,38.2441 L809.5869,38.2441" fill="none" style="stroke:#0078D4;stroke-width:3;"/><text fill="#000000" font-family="sans-serif" font-size="14" lengthAdjust="spacing" textLength="208.8516" x="812.5869" y="62.0234">Manages out-of-order records</text><path d="M759.5869,38.2441 L769.5869,38.2441 C784.5869,38.2441 784.5869,56.7324 799.5869,56.7324 L809.5869,56.7324" fill="none" style="stroke:#0078D4;stroke-width:3;"/><path d="M590.3496,74.9648 L600.3496,74.9648 C615.3496,74.9648 615.3496,38.2441 630.3496,38.2441 L640.3496,38.2441" fill="none" style="stroke:#FF5F46;stroke-width:3;"/><rect fill="#0078D4" height="36.4883" rx="12.5" ry="12.5" style="stroke:#0078D4;stroke-width:3;" width="124.3848" x="640.3496" y="84.709"/><text fill="#FFFFFF" font-family="sans-serif" font-size="14" lengthAdjust="spacing" textLength="104.3848" x="650.3496" y="108.2441">Key Parameters</text><text fill="#000000" font-family="sans-serif" font-size="14" lengthAdjust="spacing" textLength="235.9971" x="817.7344" y="80.5117">target: destination streaming table</text><path d="M764.7344,102.9531 L774.7344,102.9531 C789.7344,102.9531 789.7344,75.2207 804.7344,75.2207 L814.7344,75.2207" fill="none" style="stroke:#0078D4;stroke-width:3;"/><text fill="#000000" font-family="sans-serif" font-size="14" lengthAdjust="spacing" textLength="181.2822" x="817.7344" y="99">keys: primary key columns</text><path d="M764.7344,102.9531 L774.7344,102.9531 C789.7344,102.9531 789.7344,93.709 804.7344,93.709 L814.7344,93.709" fill="none" style="stroke:#0078D4;stroke-width:3;"/><text fill="#000000" font-family="sans-serif" font-size="14" lengthAdjust="spacing" textLength="208.708" x="817.7344" y="117.4883">sequence_by: ordering column</text><path d="M764.7344,102.9531 L774.7344,102.9531 C789.7344,102.9531 789.7344,112.1973 804.7344,112.1973 L814.7344,112.1973" fill="none" style="stroke:#0078D4;stroke-width:3;"/><text fill="#000000" font-family="sans-serif" font-size="14" lengthAdjust="spacing" textLength="232.8867" x="817.7344" y="135.9766">apply_as_deletes: delete condition</text><path d="M764.7344,102.9531 L774.7344,102.9531 C789.7344,102.9531 789.7344,130.6855 804.7344,130.6855 L814.7344,130.6855" fill="none" style="stroke:#0078D4;stroke-width:3;"/><path d="M590.3496,74.9648 L600.3496,74.9648 C615.3496,74.9648 615.3496,102.9531 630.3496,102.9531 L640.3496,102.9531" fill="none" style="stroke:#FF5F46;stroke-width:3;"/><rect fill="#0078D4" height="36.4883" rx="12.5" ry="12.5" style="stroke:#0078D4;stroke-width:3;" width="98.2031" x="296.7549" y="28.4766"/><text fill="#FFFFFF" font-family="sans-serif" font-size="14" lengthAdjust="spacing" textLength="78.2031" x="306.7549" y="52.0117">SCD Type 1</text><text fill="#000000" font-family="sans-serif" font-size="14" lengthAdjust="spacing" textLength="228.6279" x="15.127" y="33.5234">Overwrites current row on update</text><path d="M296.7549,46.7207 L286.7549,46.7207 C271.7549,46.7207 271.7549,28.2324 256.7549,28.2324 L246.7549,28.2324" fill="none" style="stroke:#0078D4;stroke-width:3;"/><text fill="#000000" font-family="sans-serif" font-size="14" lengthAdjust="spacing" textLength="130.3955" x="113.3594" y="52.0117">No history retained</text><path d="M296.7549,46.7207 L286.7549,46.7207 C271.7549,46.7207 271.7549,46.7207 256.7549,46.7207 L246.7549,46.7207" fill="none" style="stroke:#0078D4;stroke-width:3;"/><text fill="#000000" font-family="sans-serif" font-size="14" lengthAdjust="spacing" textLength="233.7549" x="10" y="70.5">Seattle &#8594; Portland replaces record</text><path d="M296.7549,46.7207 L286.7549,46.7207 C271.7549,46.7207 271.7549,65.209 256.7549,65.209 L246.7549,65.209" fill="none" style="stroke:#0078D4;stroke-width:3;"/><path d="M444.958,74.9648 L434.958,74.9648 C419.958,74.9648 419.958,46.7207 404.958,46.7207 L394.958,46.7207" fill="none" style="stroke:#FF5F46;stroke-width:3;"/><rect fill="#0078D4" height="36.4883" rx="12.5" ry="12.5" style="stroke:#0078D4;stroke-width:3;" width="98.2031" x="296.7549" y="84.9648"/><text fill="#FFFFFF" font-family="sans-serif" font-size="14" lengthAdjust="spacing" textLength="78.2031" x="306.7549" y="108.5">SCD Type 2</text><text fill="#000000" font-family="sans-serif" font-size="14" lengthAdjust="spacing" textLength="145.1816" x="98.5732" y="90.0117">Preserves all versions</text><path d="M296.7549,103.209 L286.7549,103.209 C271.7549,103.209 271.7549,84.7207 256.7549,84.7207 L246.7549,84.7207" fill="none" style="stroke:#0078D4;stroke-width:3;"/><text fill="#000000" font-family="sans-serif" font-size="14" lengthAdjust="spacing" text-decoration="underline" textLength="81.04" x="42.5254" y="108.5">START_AT /</text><text fill="#000000" font-family="sans-serif" font-size="14" lengthAdjust="spacing" textLength="115.7598" x="127.9951" y="108.5">END_AT columns</text><path d="M296.7549,103.209 L286.7549,103.209 C271.7549,103.209 271.7549,103.209 256.7549,103.209 L246.7549,103.209" fill="none" style="stroke:#0078D4;stroke-width:3;"/><text fill="#000000" font-family="sans-serif" font-size="14" lengthAdjust="spacing" textLength="178.0352" x="65.7197" y="126.9883">Full audit history available</text><path d="M296.7549,103.209 L286.7549,103.209 C271.7549,103.209 271.7549,121.6973 256.7549,121.6973 L246.7549,121.6973" fill="none" style="stroke:#0078D4;stroke-width:3;"/><path d="M444.958,74.9648 L434.958,74.9648 C419.958,74.9648 419.958,103.209 404.958,103.209 L394.958,103.209" fill="none" style="stroke:#FF5F46;stroke-width:3;"/><?plantuml-src VPFFZjCm4CRlUOgHk82gTjEoB52jq9QM2CIo6z5mGugcyQIrwjZ1TbgY5LSUW4VaIPZysKKRLERa6VyytvUnS-KyMbz8BGeiWqldQqLlWhcWqk-UXi_WBW2EjvZjjzPKMYoDCXQUHD6BwFoYtRkMclwjHaRxlfgtyS0cEvdjDJa7poTXyEDUQtfIAmnVlbgT3xK6rSTT1mwYDlvgpKvgvVdcTHWEjGRL_sg5RR3MndnN3NDtahWywySzWjYQh86NgoKSfTzzrNv7iFYItBQbHVmX68s6-IY5c2yFJ0xNkATScIEiA5DeqSi3GInBKkpNTUnxr88TWI1HbKfc31aDM7bJy393fUeE_8GQjmoQoezDFZPMa0LB6I-QLl2HwaOO2_9a--RyYhRavzpSUQcxrivRGdvQMzxTAEh0FTLk3gML1TgwoI0pgYfqtyVHjufqHkccdaEht9pla8x0ibHrYYuLfDY0QpIR1KDQo4Ou68zXlLn1KfS4Kyx6ATmUo1wjP1woobhI7YoFYrrMfK1F7NLZO2UTD-pCaaUUdUWsreJUAuBVFtz1RAnNF4j6IeLyRVri7idEkdEn9KVsm0oF5zY3Ot-ksqlJTRBudAIB1CuuUNUpQfRtqsYHgE9JMF5dFVZ20qhLZlEA-AVjVznWEfc5iul9x0y0?></g></svg>