<?plantuml 1.2026.2?><svg xmlns="http://www.w3.org/2000/svg" xmlns:xlink="http://www.w3.org/1999/xlink" contentStyleType="text/css" data-diagram-type="MINDMAP" height="152px" preserveAspectRatio="none" style="width:1377px;height:152px;background:#FFFFFF;" version="1.1" viewBox="0 0 1377 152" width="1377px" zoomAndPan="magnify"><defs/><g><rect fill="#FF5F46" height="52.9766" rx="12.5" ry="12.5" style="stroke:#FF5F46;stroke-width:3;" width="136.498" x="576.8779" y="48.7324"/><text fill="#FFFFFF" font-family="sans-serif" font-size="14" lengthAdjust="spacing" textLength="116.498" x="586.8779" y="72.2676">Connect to Kafka</text><text fill="#FFFFFF" font-family="sans-serif" font-size="14" lengthAdjust="spacing" textLength="105.5742" x="586.8779" y="88.7559">and Event Hubs</text><rect fill="#0078D4" height="36.4883" rx="12.5" ry="12.5" style="stroke:#0078D4;stroke-width:3;" width="112.2236" x="763.376" y="28.7324"/><text fill="#FFFFFF" font-family="sans-serif" font-size="14" lengthAdjust="spacing" textLength="92.2236" x="773.376" y="52.2676">Apache Kafka</text><text fill="#000000" font-family="sans-serif" font-size="14" lengthAdjust="spacing" textLength="102.0537" x="928.5996" y="24.5352">format("kafka")</text><path d="M875.5996,46.9766 L885.5996,46.9766 C900.5996,46.9766 900.5996,19.2441 915.5996,19.2441 L925.5996,19.2441" fill="none" style="stroke:#0078D4;stroke-width:3;"/><text fill="#000000" font-family="sans-serif" font-size="14" lengthAdjust="spacing" textLength="160.3027" x="928.5996" y="43.0234">kafka.bootstrap.servers</text><path d="M875.5996,46.9766 L885.5996,46.9766 C900.5996,46.9766 900.5996,37.7324 915.5996,37.7324 L925.5996,37.7324" fill="none" style="stroke:#0078D4;stroke-width:3;"/><text fill="#000000" font-family="sans-serif" font-size="14" lengthAdjust="spacing" textLength="149.7754" x="928.5996" y="61.5117">subscribe: topic name</text><path d="M875.5996,46.9766 L885.5996,46.9766 C900.5996,46.9766 900.5996,56.2207 915.5996,56.2207 L925.5996,56.2207" fill="none" style="stroke:#0078D4;stroke-width:3;"/><text fill="#000000" font-family="sans-serif" font-size="14" lengthAdjust="spacing" textLength="212.7891" x="928.5996" y="80">startingOffsets: latest / earliest</text><path d="M875.5996,46.9766 L885.5996,46.9766 C900.5996,46.9766 900.5996,74.709 915.5996,74.709 L925.5996,74.709" fill="none" style="stroke:#0078D4;stroke-width:3;"/><path d="M713.376,75.2207 L723.376,75.2207 C738.376,75.2207 738.376,46.9766 753.376,46.9766 L763.376,46.9766" fill="none" style="stroke:#FF5F46;stroke-width:3;"/><rect fill="#0078D4" height="36.4883" rx="12.5" ry="12.5" style="stroke:#0078D4;stroke-width:3;" width="275.1377" x="763.376" y="93.9531"/><text fill="#FFFFFF" font-family="sans-serif" font-size="14" lengthAdjust="spacing" textLength="255.1377" x="773.376" y="117.4883">Azure Event Hubs (Kafka-compatible)</text><text fill="#000000" font-family="sans-serif" font-size="14" lengthAdjust="spacing" textLength="150.6162" x="1091.5137" y="99">Same Kafka connector</text><path d="M1038.5137,112.1973 L1048.5137,112.1973 C1063.5137,112.1973 1063.5137,93.709 1078.5137,93.709 L1088.5137,93.709" fill="none" style="stroke:#0078D4;stroke-width:3;"/><text fill="#000000" font-family="sans-serif" font-size="14" lengthAdjust="spacing" textLength="155.75" x="1091.5137" y="117.4883">SASL_SSL + PLAIN auth</text><path d="M1038.5137,112.1973 L1048.5137,112.1973 C1063.5137,112.1973 1063.5137,112.1973 1078.5137,112.1973 L1088.5137,112.1973" fill="none" style="stroke:#0078D4;stroke-width:3;"/><text fill="#000000" font-family="sans-serif" font-size="14" lengthAdjust="spacing" textLength="274.1895" x="1091.5137" y="135.9766">Connection string via Databricks Secrets</text><path d="M1038.5137,112.1973 L1048.5137,112.1973 C1063.5137,112.1973 1063.5137,130.6855 1078.5137,130.6855 L1088.5137,130.6855" fill="none" style="stroke:#0078D4;stroke-width:3;"/><path d="M713.376,75.2207 L723.376,75.2207 C738.376,75.2207 738.376,112.1973 753.376,112.1973 L763.376,112.1973" fill="none" style="stroke:#FF5F46;stroke-width:3;"/><rect fill="#0078D4" height="36.4883" rx="12.5" ry="12.5" style="stroke:#0078D4;stroke-width:3;" width="217.374" x="309.5039" y="28.9883"/><text fill="#FFFFFF" font-family="sans-serif" font-size="14" lengthAdjust="spacing" textLength="197.374" x="319.5039" y="52.5234">Native Event Hubs Connector</text><text fill="#000000" font-family="sans-serif" font-size="14" lengthAdjust="spacing" textLength="135.1738" x="121.3301" y="24.791">format("eventhubs")</text><path d="M309.5039,47.2324 L299.5039,47.2324 C284.5039,47.2324 284.5039,19.5 269.5039,19.5 L259.5039,19.5" fill="none" style="stroke:#0078D4;stroke-width:3;"/><text fill="#000000" font-family="sans-serif" font-size="14" lengthAdjust="spacing" textLength="237.5967" x="18.9072" y="43.2793">eventhubs.connectionString option</text><path d="M309.5039,47.2324 L299.5039,47.2324 C284.5039,47.2324 284.5039,37.9883 269.5039,37.9883 L259.5039,37.9883" fill="none" style="stroke:#0078D4;stroke-width:3;"/><text fill="#000000" font-family="sans-serif" font-size="14" lengthAdjust="spacing" textLength="164.2334" x="92.2705" y="61.7676">body column (not value)</text><path d="M309.5039,47.2324 L299.5039,47.2324 C284.5039,47.2324 284.5039,56.4766 269.5039,56.4766 L259.5039,56.4766" fill="none" style="stroke:#0078D4;stroke-width:3;"/><text fill="#000000" font-family="sans-serif" font-size="14" lengthAdjust="spacing" textLength="246.5039" x="10" y="80.2559">Consumer group + starting position</text><path d="M309.5039,47.2324 L299.5039,47.2324 C284.5039,47.2324 284.5039,74.9648 269.5039,74.9648 L259.5039,74.9648" fill="none" style="stroke:#0078D4;stroke-width:3;"/><path d="M576.8779,75.2207 L566.8779,75.2207 C551.8779,75.2207 551.8779,47.2324 536.8779,47.2324 L526.8779,47.2324" fill="none" style="stroke:#FF5F46;stroke-width:3;"/><rect fill="#0078D4" height="36.4883" rx="12.5" ry="12.5" style="stroke:#0078D4;stroke-width:3;" width="134.8232" x="392.0547" y="93.6973"/><text fill="#FFFFFF" font-family="sans-serif" font-size="14" lengthAdjust="spacing" textLength="114.8232" x="402.0547" y="117.2324">Message Schema</text><text fill="#000000" font-family="sans-serif" font-size="14" lengthAdjust="spacing" textLength="235.9219" x="103.1328" y="98.7441">key, value (binary &#8594; cast to string)</text><path d="M392.0547,111.9414 L382.0547,111.9414 C367.0547,111.9414 367.0547,93.4531 352.0547,93.4531 L342.0547,93.4531" fill="none" style="stroke:#0078D4;stroke-width:3;"/><text fill="#000000" font-family="sans-serif" font-size="14" lengthAdjust="spacing" textLength="229.7764" x="109.2783" y="117.2324">topic, partition, offset, timestamp</text><path d="M392.0547,111.9414 L382.0547,111.9414 C367.0547,111.9414 367.0547,111.9414 352.0547,111.9414 L342.0547,111.9414" fill="none" style="stroke:#0078D4;stroke-width:3;"/><text fill="#000000" font-family="sans-serif" font-size="14" lengthAdjust="spacing" textLength="188.6309" x="150.4238" y="135.7207">Parse JSON with from_json()</text><path d="M392.0547,111.9414 L382.0547,111.9414 C367.0547,111.9414 367.0547,130.4297 352.0547,130.4297 L342.0547,130.4297" fill="none" style="stroke:#0078D4;stroke-width:3;"/><path d="M576.8779,75.2207 L566.8779,75.2207 C551.8779,75.2207 551.8779,111.9414 536.8779,111.9414 L526.8779,111.9414" fill="none" style="stroke:#FF5F46;stroke-width:3;"/><?plantuml-src VPFVRjCm5CRlynH7uoPLcomhOq0rePMEYZ-bcnGkaQeJzwGnJUp8TW9bufO7u15v4XmxwrXHyLLypidt-toEVQKDAbDniQwm3YwrsPNqAfYigJP5c0pWBW2xNYFRRfHin7ecIwdWoNp-R7v-uN8BBkZVw5mAqqTpj_QrdmhEjeAqXgTn4louPvqTPIN9ynVNvuUiW-XZrGC7SxSUMEEZh3pFNYR98UiW-bzMufPbPV9RsTNS7QsuFEtRFOIP58AO0IFX0-PR_2nGhE5DIyB0soRJmN08qnfPGJvlzyCLv59LQCAJRHSw6VYWsyIPb4ORXNMiIRMaj4zggyKKpsXYKJLd8B2YFjLT12usDtckoUW9b6X86pW5GbLo--bCV6yK_MKCGkSdOhAgqV2ifDv6QeMzLs3-S5BrcMcwMANf0ePmkvY-Mm8sfl2flWrS2cj7MJFGSeHhD9WfstCDAJ5bpGLH14kBQnzPcUqvKHGzT8UwYi8Ms0wvn3uGipqlzJXPTnjVbidrpdelcqf0AAI15ik6UWtBqar52hhhKzkZtBSFQgbvBm8VxGN03K5g1rUX_tDBkv6NWZ3Z0jKEVl_y1Gor6xy_TqznCnf1tKbtcYEGRZeZCBoo4y6gzeMtg3J1-_Hc2L-vAI1NibfzqLA4W-2AxEFk7tXm5e-JyKKy_WC0?></g></svg>