<?plantuml 1.2026.2?><svg xmlns="http://www.w3.org/2000/svg" xmlns:xlink="http://www.w3.org/1999/xlink" contentStyleType="text/css" data-diagram-type="MINDMAP" height="134px" preserveAspectRatio="none" style="width:1227px;height:134px;background:#FFFFFF;" version="1.1" viewBox="0 0 1227 134" width="1227px" zoomAndPan="magnify"><defs/><g><rect fill="#FF5F46" height="52.9766" rx="12.5" ry="12.5" style="stroke:#FF5F46;stroke-width:3;" width="145.0771" x="548.3516" y="40"/><text fill="#FFFFFF" font-family="sans-serif" font-size="14" lengthAdjust="spacing" textLength="52.958" x="558.3516" y="63.5352">Monitor</text><text fill="#FFFFFF" font-family="sans-serif" font-size="14" lengthAdjust="spacing" textLength="125.0771" x="558.3516" y="80.0234">Streaming Queries</text><rect fill="#0078D4" height="36.4883" rx="12.5" ry="12.5" style="stroke:#0078D4;stroke-width:3;" width="76.1572" x="743.4287" y="20"/><text fill="#FFFFFF" font-family="sans-serif" font-size="14" lengthAdjust="spacing" textLength="56.1572" x="753.4287" y="43.5352">Spark UI</text><text fill="#000000" font-family="sans-serif" font-size="14" lengthAdjust="spacing" textLength="169.8389" x="872.5859" y="25.0469">Structured Streaming tab</text><path d="M819.5859,38.2441 L829.5859,38.2441 C844.5859,38.2441 844.5859,19.7559 859.5859,19.7559 L869.5859,19.7559" fill="none" style="stroke:#0078D4;stroke-width:3;"/><text fill="#000000" font-family="sans-serif" font-size="14" lengthAdjust="spacing" textLength="108.8281" x="872.5859" y="43.5352">Active query list</text><path d="M819.5859,38.2441 L829.5859,38.2441 C844.5859,38.2441 844.5859,38.2441 859.5859,38.2441 L869.5859,38.2441" fill="none" style="stroke:#0078D4;stroke-width:3;"/><text fill="#000000" font-family="sans-serif" font-size="14" lengthAdjust="spacing" textLength="180.0176" x="872.5859" y="62.0234">Input rate, processing rate</text><path d="M819.5859,38.2441 L829.5859,38.2441 C844.5859,38.2441 844.5859,56.7324 859.5859,56.7324 L869.5859,56.7324" fill="none" style="stroke:#0078D4;stroke-width:3;"/><path d="M693.4287,66.4883 L703.4287,66.4883 C718.4287,66.4883 718.4287,38.2441 733.4287,38.2441 L743.4287,38.2441" fill="none" style="stroke:#FF5F46;stroke-width:3;"/><rect fill="#0078D4" height="36.4883" rx="12.5" ry="12.5" style="stroke:#0078D4;stroke-width:3;" width="165.0859" x="743.4287" y="76.4883"/><text fill="#FFFFFF" font-family="sans-serif" font-size="14" lengthAdjust="spacing" textLength="145.0859" x="753.4287" y="100.0234">Programmatic Access</text><text fill="#000000" font-family="sans-serif" font-size="14" lengthAdjust="spacing" textLength="200.6758" x="961.5146" y="81.5352">query.isActive: running check</text><path d="M908.5146,94.7324 L918.5146,94.7324 C933.5146,94.7324 933.5146,76.2441 948.5146,76.2441 L958.5146,76.2441" fill="none" style="stroke:#0078D4;stroke-width:3;"/><text fill="#000000" font-family="sans-serif" font-size="14" lengthAdjust="spacing" textLength="179.4092" x="961.5146" y="100.0234">query.status: current state</text><path d="M908.5146,94.7324 L918.5146,94.7324 C933.5146,94.7324 933.5146,94.7324 948.5146,94.7324 L958.5146,94.7324" fill="none" style="stroke:#0078D4;stroke-width:3;"/><text fill="#000000" font-family="sans-serif" font-size="14" lengthAdjust="spacing" textLength="254.0234" x="961.5146" y="118.5117">query.recentProgress: metrics history</text><path d="M908.5146,94.7324 L918.5146,94.7324 C933.5146,94.7324 933.5146,113.2207 948.5146,113.2207 L958.5146,113.2207" fill="none" style="stroke:#0078D4;stroke-width:3;"/><path d="M693.4287,66.4883 L703.4287,66.4883 C718.4287,66.4883 718.4287,94.7324 733.4287,94.7324 L743.4287,94.7324" fill="none" style="stroke:#FF5F46;stroke-width:3;"/><rect fill="#0078D4" height="36.4883" rx="12.5" ry="12.5" style="stroke:#0078D4;stroke-width:3;" width="147.1279" x="351.2236" y="20"/><text fill="#FFFFFF" font-family="sans-serif" font-size="14" lengthAdjust="spacing" textLength="127.1279" x="361.2236" y="43.5352">awaitTermination()</text><text fill="#000000" font-family="sans-serif" font-size="14" lengthAdjust="spacing" textLength="210.4854" x="87.7383" y="34.291">Block until stream ends or fails</text><path d="M351.2236,38.2441 L341.2236,38.2441 C326.2236,38.2441 326.2236,29 311.2236,29 L301.2236,29" fill="none" style="stroke:#0078D4;stroke-width:3;"/><text fill="#000000" font-family="sans-serif" font-size="14" lengthAdjust="spacing" textLength="243.0381" x="55.1855" y="52.7793">Use in try/except for error handling</text><path d="M351.2236,38.2441 L341.2236,38.2441 C326.2236,38.2441 326.2236,47.4883 311.2236,47.4883 L301.2236,47.4883" fill="none" style="stroke:#0078D4;stroke-width:3;"/><path d="M548.3516,66.4883 L538.3516,66.4883 C523.3516,66.4883 523.3516,38.2441 508.3516,38.2441 L498.3516,38.2441" fill="none" style="stroke:#FF5F46;stroke-width:3;"/><rect fill="#0078D4" height="36.4883" rx="12.5" ry="12.5" style="stroke:#0078D4;stroke-width:3;" width="172.1611" x="326.1904" y="76.4883"/><text fill="#FFFFFF" font-family="sans-serif" font-size="14" lengthAdjust="spacing" textLength="152.1611" x="336.1904" y="100.0234">Production Monitoring</text><text fill="#000000" font-family="sans-serif" font-size="14" lengthAdjust="spacing" textLength="263.1904" x="10" y="81.5352">Lag metrics: is processing keeping up?</text><path d="M326.1904,94.7324 L316.1904,94.7324 C301.1904,94.7324 301.1904,76.2441 286.1904,76.2441 L276.1904,76.2441" fill="none" style="stroke:#0078D4;stroke-width:3;"/><text fill="#000000" font-family="sans-serif" font-size="14" lengthAdjust="spacing" textLength="228.1836" x="45.0068" y="100.0234">Alerts for failures / falling behind</text><path d="M326.1904,94.7324 L316.1904,94.7324 C301.1904,94.7324 301.1904,94.7324 286.1904,94.7324 L276.1904,94.7324" fill="none" style="stroke:#0078D4;stroke-width:3;"/><text fill="#000000" font-family="sans-serif" font-size="14" lengthAdjust="spacing" textLength="209.1523" x="64.0381" y="118.5117">Streaming progress dashboard</text><path d="M326.1904,94.7324 L316.1904,94.7324 C301.1904,94.7324 301.1904,113.2207 286.1904,113.2207 L276.1904,113.2207" fill="none" style="stroke:#0078D4;stroke-width:3;"/><path d="M548.3516,66.4883 L538.3516,66.4883 C523.3516,66.4883 523.3516,94.7324 508.3516,94.7324 L498.3516,94.7324" fill="none" style="stroke:#FF5F46;stroke-width:3;"/><?plantuml-src VLDHRzD037xFhx34owRIDYjZWsY2RQ1AauO4slQ6D5qkJdDASXTyFbWryT_n9UrQWeeVaelzsTzdEtVfMH6tnXQjwf8Bp-i6FoHPWHrNH-anF2SWTgrqlI8NRF79DOxWrNBvTdbwriTkZSL_lKjdUUCjUtl1tbT6rnQzXpUpDFczvJevo9Mcv-y-duwvHjw_guuKB7lRSIqESfLb_ZvDnrmZxt-vqjw4AtTFJSGy7qHSp3VZdi0NPmqx-cxlc539EbRmBI0PzCba0dUTeXeURkGyUGI11Cs1i80TcbK-HAyqcvy8FoHx3OtnFBXlR1SOI36-XewS5cKnBJeYmrToAr9jgzXeAH73GrvVPsRyK3O32jR6H5sXhlSXyXzny1deG8IM8NxZFe1GYxydakePjCXaj8TAD3fQ9zCfg5_Ay3sIT2H2d3qw5k_q4QuRfsi8baqZTMFBWBRm8DCibMdyW7hm2CO2qtgEJreM3QK0a4YUbR958xeZYqWeP81IVpls8I0bRjLggoi3u_SdLIDsyHswZmFsga5YttD44R8F3tCvDf47SgpaJWt8tPQwJVTGA5_bJb6HN4eds-kNdCmMwU9ijlW3?></g></svg>