<?plantuml 1.2026.2?><svg xmlns="http://www.w3.org/2000/svg" xmlns:xlink="http://www.w3.org/1999/xlink" contentStyleType="text/css" data-diagram-type="MINDMAP" height="134px" preserveAspectRatio="none" style="width:1296px;height:134px;background:#FFFFFF;" version="1.1" viewBox="0 0 1296 134" width="1296px" zoomAndPan="magnify"><defs/><g><rect fill="#FF5F46" height="52.9766" rx="12.5" ry="12.5" style="stroke:#FF5F46;stroke-width:3;" width="209.376" x="484.1143" y="40"/><text fill="#FFFFFF" font-family="sans-serif" font-size="14" lengthAdjust="spacing" textLength="104.4873" x="494.1143" y="63.5352">Understand the</text><text fill="#FFFFFF" font-family="sans-serif" font-size="14" lengthAdjust="spacing" textLength="189.376" x="494.1143" y="80.0234">Structured Streaming Model</text><rect fill="#0078D4" height="36.4883" rx="12.5" ry="12.5" style="stroke:#0078D4;stroke-width:3;" width="200.6943" x="743.4902" y="20"/><text fill="#FFFFFF" font-family="sans-serif" font-size="14" lengthAdjust="spacing" textLength="180.6943" x="753.4902" y="43.5352">Unbounded Table Concept</text><text fill="#000000" font-family="sans-serif" font-size="14" lengthAdjust="spacing" textLength="287.0068" x="997.1846" y="25.0469">Data stream = continuously growing table</text><path d="M944.1846,38.2441 L954.1846,38.2441 C969.1846,38.2441 969.1846,19.7559 984.1846,19.7559 L994.1846,19.7559" fill="none" style="stroke:#0078D4;stroke-width:3;"/><text fill="#000000" font-family="sans-serif" font-size="14" lengthAdjust="spacing" textLength="200.8193" x="997.1846" y="43.5352">Same DataFrame API as batch</text><path d="M944.1846,38.2441 L954.1846,38.2441 C969.1846,38.2441 969.1846,38.2441 984.1846,38.2441 L994.1846,38.2441" fill="none" style="stroke:#0078D4;stroke-width:3;"/><text fill="#000000" font-family="sans-serif" font-size="14" lengthAdjust="spacing" textLength="267.7773" x="997.1846" y="62.0234">spark.readStream instead of spark.read</text><path d="M944.1846,38.2441 L954.1846,38.2441 C969.1846,38.2441 969.1846,56.7324 984.1846,56.7324 L994.1846,56.7324" fill="none" style="stroke:#0078D4;stroke-width:3;"/><path d="M693.4902,66.4883 L703.4902,66.4883 C718.4902,66.4883 718.4902,38.2441 733.4902,38.2441 L743.4902,38.2441" fill="none" style="stroke:#FF5F46;stroke-width:3;"/><rect fill="#0078D4" height="36.4883" rx="12.5" ry="12.5" style="stroke:#0078D4;stroke-width:3;" width="104.4033" x="743.4902" y="76.4883"/><text fill="#FFFFFF" font-family="sans-serif" font-size="14" lengthAdjust="spacing" textLength="84.4033" x="753.4902" y="100.0234">Core Pattern</text><text fill="#000000" font-family="sans-serif" font-size="14" lengthAdjust="spacing" textLength="225.0938" x="900.8936" y="81.5352">1. Configure source (readStream)</text><path d="M847.8936,94.7324 L857.8936,94.7324 C872.8936,94.7324 872.8936,76.2441 887.8936,76.2441 L897.8936,76.2441" fill="none" style="stroke:#0078D4;stroke-width:3;"/><text fill="#000000" font-family="sans-serif" font-size="14" lengthAdjust="spacing" textLength="169.292" x="900.8936" y="100.0234">2. Apply transformations</text><path d="M847.8936,94.7324 L857.8936,94.7324 C872.8936,94.7324 872.8936,94.7324 887.8936,94.7324 L897.8936,94.7324" fill="none" style="stroke:#0078D4;stroke-width:3;"/><text fill="#000000" font-family="sans-serif" font-size="14" lengthAdjust="spacing" textLength="291.874" x="900.8936" y="118.5117">3. Write to sink (writeStream + checkpoint)</text><path d="M847.8936,94.7324 L857.8936,94.7324 C872.8936,94.7324 872.8936,113.2207 887.8936,113.2207 L897.8936,113.2207" fill="none" style="stroke:#0078D4;stroke-width:3;"/><path d="M693.4902,66.4883 L703.4902,66.4883 C718.4902,66.4883 718.4902,94.7324 733.4902,94.7324 L743.4902,94.7324" fill="none" style="stroke:#FF5F46;stroke-width:3;"/><rect fill="#0078D4" height="36.4883" rx="12.5" ry="12.5" style="stroke:#0078D4;stroke-width:3;" width="104.0479" x="330.0664" y="20"/><text fill="#FFFFFF" font-family="sans-serif" font-size="14" lengthAdjust="spacing" textLength="84.0479" x="340.0664" y="43.5352">Checkpoints</text><text fill="#000000" font-family="sans-serif" font-size="14" lengthAdjust="spacing" textLength="166.4961" x="110.5703" y="25.0469">Track processed records</text><path d="M330.0664,38.2441 L320.0664,38.2441 C305.0664,38.2441 305.0664,19.7559 290.0664,19.7559 L280.0664,19.7559" fill="none" style="stroke:#0078D4;stroke-width:3;"/><text fill="#000000" font-family="sans-serif" font-size="14" lengthAdjust="spacing" textLength="190.1416" x="86.9248" y="43.5352">Enable fault-tolerant restart</text><path d="M330.0664,38.2441 L320.0664,38.2441 C305.0664,38.2441 305.0664,38.2441 290.0664,38.2441 L280.0664,38.2441" fill="none" style="stroke:#0078D4;stroke-width:3;"/><text fill="#000000" font-family="sans-serif" font-size="14" lengthAdjust="spacing" textLength="267.0664" x="10" y="62.0234">Resume from last checkpoint on failure</text><path d="M330.0664,38.2441 L320.0664,38.2441 C305.0664,38.2441 305.0664,56.7324 290.0664,56.7324 L280.0664,56.7324" fill="none" style="stroke:#0078D4;stroke-width:3;"/><path d="M484.1143,66.4883 L474.1143,66.4883 C459.1143,66.4883 459.1143,38.2441 444.1143,38.2441 L434.1143,38.2441" fill="none" style="stroke:#FF5F46;stroke-width:3;"/><rect fill="#0078D4" height="36.4883" rx="12.5" ry="12.5" style="stroke:#0078D4;stroke-width:3;" width="88.5576" x="345.5566" y="76.4883"/><text fill="#FFFFFF" font-family="sans-serif" font-size="14" lengthAdjust="spacing" textLength="68.5576" x="355.5566" y="100.0234">Use Cases</text><text fill="#000000" font-family="sans-serif" font-size="14" lengthAdjust="spacing" textLength="134.1074" x="158.4492" y="81.5352">IoT sensor readings</text><path d="M345.5566,94.7324 L335.5566,94.7324 C320.5566,94.7324 320.5566,76.2441 305.5566,76.2441 L295.5566,76.2441" fill="none" style="stroke:#0078D4;stroke-width:3;"/><text fill="#000000" font-family="sans-serif" font-size="14" lengthAdjust="spacing" textLength="113.7773" x="178.7793" y="100.0234">Clickstream data</text><path d="M345.5566,94.7324 L335.5566,94.7324 C320.5566,94.7324 320.5566,94.7324 305.5566,94.7324 L295.5566,94.7324" fill="none" style="stroke:#0078D4;stroke-width:3;"/><text fill="#000000" font-family="sans-serif" font-size="14" lengthAdjust="spacing" textLength="147.2188" x="145.3379" y="118.5117">Financial transactions</text><path d="M345.5566,94.7324 L335.5566,94.7324 C320.5566,94.7324 320.5566,113.2207 305.5566,113.2207 L295.5566,113.2207" fill="none" style="stroke:#0078D4;stroke-width:3;"/><path d="M484.1143,66.4883 L474.1143,66.4883 C459.1143,66.4883 459.1143,94.7324 444.1143,94.7324 L434.1143,94.7324" fill="none" style="stroke:#FF5F46;stroke-width:3;"/><?plantuml-src VLFVQzj037xtNo7OIqA8vwHTzuDkj4jdA6nGrfIz3ChbB2T7BfAva-bAwVy-dUsrNKQc9qlwf4_wv3kBOeBi75KxqsIdKUuzVie-LDZ8PbICuI43jS_6RjU1MweMx3d0gx9yKnwVTBclZl3VQCaaGxJkx0cxt3Yx9OmHZl8YU_p3DJl8LHHltrqSxtFjHV_kkZT1sTapr_mWLrsltXV5FjTUzBzSHMVAjU9VFc4U3Y9ENmzoJ-26AWnw2gf0DlYJhYMqLjg05UWd6ZtG6hvnXJwR9FGgpQp9fLbvX0MJrSKqDRc52oC6ObS47y4ghwEMs-ZlGLUzIuqaLVNeQxF3hgGCwUlywX9CX9KHk-a1iJ5XcsktgXy474LH3xX-aKjJBJWWN1aH3DJNpl8qMktMkWX4ReD563st6lUeUGxdJQFZIJ0KQmux8uufzjcZ77u49mZ241rjONINt66O2TWDsct3ZcISJQUmU7AZkjDRM0QzCJI1hHv35GjeELH3yWjr-jMczJ8LzgWJY4AwHz53lcDiLPWwy0wyYVA249Yqr7dTBb7VHBs4YJZqlkGbHAIe9qyhg-v3Ok7rznaELAdoVRHqPCWwutiPZEqrE4DzcSFhp6Rvl9YVvFFV?></g></svg>