<?plantuml 1.2026.2?><svg xmlns="http://www.w3.org/2000/svg" xmlns:xlink="http://www.w3.org/1999/xlink" contentStyleType="text/css" data-diagram-type="MINDMAP" height="134px" preserveAspectRatio="none" style="width:1231px;height:134px;background:#FFFFFF;" version="1.1" viewBox="0 0 1231 134" width="1231px" zoomAndPan="magnify"><defs/><g><rect fill="#FF5F46" height="52.9766" rx="12.5" ry="12.5" style="stroke:#FF5F46;stroke-width:3;" width="174.2939" x="521.0283" y="40"/><text fill="#FFFFFF" font-family="sans-serif" font-size="14" lengthAdjust="spacing" textLength="154.2939" x="531.0283" y="63.5352">Configure Auto Loader</text><text fill="#FFFFFF" font-family="sans-serif" font-size="14" lengthAdjust="spacing" textLength="114.6934" x="531.0283" y="80.0234">for File Ingestion</text><rect fill="#0078D4" height="36.4883" rx="12.5" ry="12.5" style="stroke:#0078D4;stroke-width:3;" width="140.1553" x="745.3223" y="20"/><text fill="#FFFFFF" font-family="sans-serif" font-size="14" lengthAdjust="spacing" textLength="120.1553" x="755.3223" y="43.5352">cloudFiles Format</text><text fill="#000000" font-family="sans-serif" font-size="14" lengthAdjust="spacing" textLength="132.9316" x="938.4775" y="25.0469">format("cloudFiles")</text><path d="M885.4775,38.2441 L895.4775,38.2441 C910.4775,38.2441 910.4775,19.7559 925.4775,19.7559 L935.4775,19.7559" fill="none" style="stroke:#0078D4;stroke-width:3;"/><text fill="#000000" font-family="sans-serif" font-size="14" lengthAdjust="spacing" textLength="281.0322" x="938.4775" y="43.5352">cloudFiles.format: json/csv/parquet/avro</text><path d="M885.4775,38.2441 L895.4775,38.2441 C910.4775,38.2441 910.4775,38.2441 925.4775,38.2441 L935.4775,38.2441" fill="none" style="stroke:#0078D4;stroke-width:3;"/><text fill="#000000" font-family="sans-serif" font-size="14" lengthAdjust="spacing" textLength="276.7734" x="938.4775" y="62.0234">cloudFiles.schemaLocation: schema path</text><path d="M885.4775,38.2441 L895.4775,38.2441 C910.4775,38.2441 910.4775,56.7324 925.4775,56.7324 L935.4775,56.7324" fill="none" style="stroke:#0078D4;stroke-width:3;"/><path d="M695.3223,66.4883 L705.3223,66.4883 C720.3223,66.4883 720.3223,38.2441 735.3223,38.2441 L745.3223,38.2441" fill="none" style="stroke:#FF5F46;stroke-width:3;"/><rect fill="#0078D4" height="36.4883" rx="12.5" ry="12.5" style="stroke:#0078D4;stroke-width:3;" width="127.4404" x="745.3223" y="76.4883"/><text fill="#FFFFFF" font-family="sans-serif" font-size="14" lengthAdjust="spacing" textLength="107.4404" x="755.3223" y="100.0234">Trigger Options</text><text fill="#000000" font-family="sans-serif" font-size="14" lengthAdjust="spacing" textLength="251.002" x="925.7627" y="81.5352">availableNow=True: scheduled batch</text><path d="M872.7627,94.7324 L882.7627,94.7324 C897.7627,94.7324 897.7627,76.2441 912.7627,76.2441 L922.7627,76.2441" fill="none" style="stroke:#0078D4;stroke-width:3;"/><text fill="#000000" font-family="sans-serif" font-size="14" lengthAdjust="spacing" textLength="215.3936" x="925.7627" y="100.0234">processingTime: interval-based</text><path d="M872.7627,94.7324 L882.7627,94.7324 C897.7627,94.7324 897.7627,94.7324 912.7627,94.7324 L922.7627,94.7324" fill="none" style="stroke:#0078D4;stroke-width:3;"/><text fill="#000000" font-family="sans-serif" font-size="14" lengthAdjust="spacing" textLength="153.7744" x="925.7627" y="118.5117">No trigger: continuous</text><path d="M872.7627,94.7324 L882.7627,94.7324 C897.7627,94.7324 897.7627,113.2207 912.7627,113.2207 L922.7627,113.2207" fill="none" style="stroke:#0078D4;stroke-width:3;"/><path d="M695.3223,66.4883 L705.3223,66.4883 C720.3223,66.4883 720.3223,94.7324 735.3223,94.7324 L745.3223,94.7324" fill="none" style="stroke:#FF5F46;stroke-width:3;"/><rect fill="#0078D4" height="36.4883" rx="12.5" ry="12.5" style="stroke:#0078D4;stroke-width:3;" width="95.4072" x="375.6211" y="20"/><text fill="#FFFFFF" font-family="sans-serif" font-size="14" lengthAdjust="spacing" textLength="75.4072" x="385.6211" y="43.5352">SQL Syntax</text><text fill="#000000" font-family="sans-serif" font-size="14" lengthAdjust="spacing" textLength="225.5313" x="97.0898" y="25.0469">read_files() table-valued function</text><path d="M375.6211,38.2441 L365.6211,38.2441 C350.6211,38.2441 350.6211,19.7559 335.6211,19.7559 L325.6211,19.7559" fill="none" style="stroke:#0078D4;stroke-width:3;"/><text fill="#000000" font-family="sans-serif" font-size="14" lengthAdjust="spacing" textLength="205.8027" x="116.8184" y="43.5352">schemaHints for explicit types</text><path d="M375.6211,38.2441 L365.6211,38.2441 C350.6211,38.2441 350.6211,38.2441 335.6211,38.2441 L325.6211,38.2441" fill="none" style="stroke:#0078D4;stroke-width:3;"/><text fill="#000000" font-family="sans-serif" font-size="14" lengthAdjust="spacing" textLength="224.5469" x="98.0742" y="62.0234">STREAM keyword for incremental</text><path d="M375.6211,38.2441 L365.6211,38.2441 C350.6211,38.2441 350.6211,56.7324 335.6211,56.7324 L325.6211,56.7324" fill="none" style="stroke:#0078D4;stroke-width:3;"/><path d="M521.0283,66.4883 L511.0283,66.4883 C496.0283,66.4883 496.0283,38.2441 481.0283,38.2441 L471.0283,38.2441" fill="none" style="stroke:#FF5F46;stroke-width:3;"/><rect fill="#0078D4" height="36.4883" rx="12.5" ry="12.5" style="stroke:#0078D4;stroke-width:3;" width="144.4551" x="326.5732" y="76.4883"/><text fill="#FFFFFF" font-family="sans-serif" font-size="14" lengthAdjust="spacing" textLength="124.4551" x="336.5732" y="100.0234">Unity Catalog Tips</text><text fill="#000000" font-family="sans-serif" font-size="14" lengthAdjust="spacing" textLength="263.5732" x="10" y="81.5352">Store checkpoints in managed location</text><path d="M326.5732,94.7324 L316.5732,94.7324 C301.5732,94.7324 301.5732,76.2441 286.5732,76.2441 L276.5732,76.2441" fill="none" style="stroke:#0078D4;stroke-width:3;"/><text fill="#000000" font-family="sans-serif" font-size="14" lengthAdjust="spacing" textLength="250.8242" x="22.749" y="100.0234">Separate schema + checkpoint paths</text><path d="M326.5732,94.7324 L316.5732,94.7324 C301.5732,94.7324 301.5732,94.7324 286.5732,94.7324 L276.5732,94.7324" fill="none" style="stroke:#0078D4;stroke-width:3;"/><text fill="#000000" font-family="sans-serif" font-size="14" lengthAdjust="spacing" textLength="240.6387" x="32.9346" y="118.5117">Reuse schema across stream resets</text><path d="M326.5732,94.7324 L316.5732,94.7324 C301.5732,94.7324 301.5732,113.2207 286.5732,113.2207 L276.5732,113.2207" fill="none" style="stroke:#0078D4;stroke-width:3;"/><path d="M521.0283,66.4883 L511.0283,66.4883 C496.0283,66.4883 496.0283,94.7324 481.0283,94.7324 L471.0283,94.7324" fill="none" style="stroke:#FF5F46;stroke-width:3;"/><?plantuml-src VPDlRzCm4CRVvrESnfjMLTkiZ07LG1k5QaXbY3MyGwgkpYKrTUnWdxjM4zyTvqzNw5JkLNpttFtEJv9hnsYva3eji8ok7EyKlO_6APMywiHTU8mWn0SKwzmQhzE9KSR2Y-dqrVJYigxDfARdsQdHt6QpEfwqoKgAjIRduEKWZdxlMUSdMN7y-it7YsFMKVRVgKSRJEiui4OdMLcsV1l7nwoZx7zPSHs1jJHRLMaUJogkXgtTFPWOdSdSMu8RpmPc1bEoFtGMz5Ef23xhd1nBewDU3uGoFgtIBeor1N98zXQGrS-TiqFvhDjK3fb18nh3JsVqKBZDi4JxonCFSMFDCxKJAofmPWHMx34qPoYHLzKYYPLvJXQ-bbNPDUsuGQbmgUZEFBnBhAUcBVMAKbWYYrMZAwqHmH-fyqGMGIGrazsWwY_HKTfexWnmmnY320vAxOrtKRyFysypcEyqupQS-WkmXEaYgvRkT84hV3_CyW6PUIrgvsfTSuFR07ELOK3RKaaX6NXNaciqy-J-qyqNMDFkmTYqbaajB1KKUAgYVzUITp31S3Gv9BBSTx89hp0WnBeqDKDgA51Z7XPHhOsjb8BpoBJtjFTNMsrmE_AUl7iIeR0cV5AEmtMBS6T7xA9h2Zzl-mD7vuDHFBeSZFu0?></g></svg>