<?plantuml 1.2026.2?><svg xmlns="http://www.w3.org/2000/svg" xmlns:xlink="http://www.w3.org/1999/xlink" contentStyleType="text/css" data-diagram-type="MINDMAP" height="151px" preserveAspectRatio="none" style="width:1155px;height:151px;background:#FFFFFF;" version="1.1" viewBox="0 0 1155 151" width="1155px" zoomAndPan="magnify"><defs/><g><rect fill="#FF5F46" height="52.9766" rx="12.5" ry="12.5" style="stroke:#FF5F46;stroke-width:3;" width="168.9619" x="453.0996" y="48.4766"/><text fill="#FFFFFF" font-family="sans-serif" font-size="14" lengthAdjust="spacing" textLength="148.9619" x="463.0996" y="72.0117">Monitor and Optimize</text><text fill="#FFFFFF" font-family="sans-serif" font-size="14" lengthAdjust="spacing" textLength="141.4219" x="463.0996" y="88.5">Auto Loader Streams</text><rect fill="#0078D4" height="36.4883" rx="12.5" ry="12.5" style="stroke:#0078D4;stroke-width:3;" width="141.7412" x="672.0615" y="28.4766"/><text fill="#FFFFFF" font-family="sans-serif" font-size="14" lengthAdjust="spacing" textLength="121.7412" x="682.0615" y="52.0117">cloud_files_state()</text><text fill="#000000" font-family="sans-serif" font-size="14" lengthAdjust="spacing" textLength="196.8203" x="866.8027" y="33.5234">SQL function: query file state</text><path d="M813.8027,46.7207 L823.8027,46.7207 C838.8027,46.7207 838.8027,28.2324 853.8027,28.2324 L863.8027,28.2324" fill="none" style="stroke:#0078D4;stroke-width:3;"/><text fill="#000000" font-family="sans-serif" font-size="14" lengthAdjust="spacing" textLength="153.6104" x="866.8027" y="52.0117">Input: checkpoint path</text><path d="M813.8027,46.7207 L823.8027,46.7207 C838.8027,46.7207 838.8027,46.7207 853.8027,46.7207 L863.8027,46.7207" fill="none" style="stroke:#0078D4;stroke-width:3;"/><text fill="#000000" font-family="sans-serif" font-size="14" lengthAdjust="spacing" textLength="214.0947" x="866.8027" y="70.5">Shows discovered files + status</text><path d="M813.8027,46.7207 L823.8027,46.7207 C838.8027,46.7207 838.8027,65.209 853.8027,65.209 L863.8027,65.209" fill="none" style="stroke:#0078D4;stroke-width:3;"/><path d="M622.0615,74.9648 L632.0615,74.9648 C647.0615,74.9648 647.0615,46.7207 662.0615,46.7207 L672.0615,46.7207" fill="none" style="stroke:#FF5F46;stroke-width:3;"/><rect fill="#0078D4" height="36.4883" rx="12.5" ry="12.5" style="stroke:#0078D4;stroke-width:3;" width="142.1787" x="672.0615" y="84.9648"/><text fill="#FFFFFF" font-family="sans-serif" font-size="14" lengthAdjust="spacing" textLength="122.1787" x="682.0615" y="108.5">Streaming Metrics</text><text fill="#000000" font-family="sans-serif" font-size="14" lengthAdjust="spacing" textLength="241.8965" x="867.2402" y="90.0117">numFilesOutstanding: pending files</text><path d="M814.2402,103.209 L824.2402,103.209 C839.2402,103.209 839.2402,84.7207 854.2402,84.7207 L864.2402,84.7207" fill="none" style="stroke:#0078D4;stroke-width:3;"/><text fill="#000000" font-family="sans-serif" font-size="14" lengthAdjust="spacing" textLength="255.0215" x="867.2402" y="108.5">numBytesOutstanding: pending bytes</text><path d="M814.2402,103.209 L824.2402,103.209 C839.2402,103.209 839.2402,103.209 854.2402,103.209 L864.2402,103.209" fill="none" style="stroke:#0078D4;stroke-width:3;"/><text fill="#000000" font-family="sans-serif" font-size="14" lengthAdjust="spacing" textLength="275.7891" x="867.2402" y="126.9883">Visible in Streaming progress dashboard</text><path d="M814.2402,103.209 L824.2402,103.209 C839.2402,103.209 839.2402,121.6973 854.2402,121.6973 L864.2402,121.6973" fill="none" style="stroke:#0078D4;stroke-width:3;"/><path d="M622.0615,74.9648 L632.0615,74.9648 C647.0615,74.9648 647.0615,103.209 662.0615,103.209 L672.0615,103.209" fill="none" style="stroke:#FF5F46;stroke-width:3;"/><rect fill="#0078D4" height="36.4883" rx="12.5" ry="12.5" style="stroke:#0078D4;stroke-width:3;" width="109.3799" x="293.7197" y="20"/><text fill="#FFFFFF" font-family="sans-serif" font-size="14" lengthAdjust="spacing" textLength="89.3799" x="303.7197" y="43.5352">Rate Limiting</text><text fill="#000000" font-family="sans-serif" font-size="14" lengthAdjust="spacing" textLength="203.0889" x="37.6309" y="25.0469">cloudFiles.maxFilesPerTrigger</text><path d="M293.7197,38.2441 L283.7197,38.2441 C268.7197,38.2441 268.7197,19.7559 253.7197,19.7559 L243.7197,19.7559" fill="none" style="stroke:#0078D4;stroke-width:3;"/><text fill="#000000" font-family="sans-serif" font-size="14" lengthAdjust="spacing" textLength="208.0928" x="32.627" y="43.5352">cloudFiles.maxBytesPerTrigger</text><path d="M293.7197,38.2441 L283.7197,38.2441 C268.7197,38.2441 268.7197,38.2441 253.7197,38.2441 L243.7197,38.2441" fill="none" style="stroke:#0078D4;stroke-width:3;"/><text fill="#000000" font-family="sans-serif" font-size="14" lengthAdjust="spacing" textLength="230.7197" x="10" y="62.0234">Prevents oversized micro-batches</text><path d="M293.7197,38.2441 L283.7197,38.2441 C268.7197,38.2441 268.7197,56.7324 253.7197,56.7324 L243.7197,56.7324" fill="none" style="stroke:#0078D4;stroke-width:3;"/><path d="M453.0996,74.9648 L443.0996,74.9648 C428.0996,74.9648 428.0996,38.2441 413.0996,38.2441 L403.0996,38.2441" fill="none" style="stroke:#FF5F46;stroke-width:3;"/><rect fill="#0078D4" height="36.4883" rx="12.5" ry="12.5" style="stroke:#0078D4;stroke-width:3;" width="110.166" x="292.9336" y="84.709"/><text fill="#FFFFFF" font-family="sans-serif" font-size="14" lengthAdjust="spacing" textLength="90.166" x="302.9336" y="108.2441">File Metadata</text><text fill="#000000" font-family="sans-serif" font-size="14" lengthAdjust="spacing" textLength="176.3193" x="63.6143" y="80.5117">_metadata hidden column</text><path d="M292.9336,102.9531 L282.9336,102.9531 C267.9336,102.9531 267.9336,75.2207 252.9336,75.2207 L242.9336,75.2207" fill="none" style="stroke:#0078D4;stroke-width:3;"/><text fill="#000000" font-family="sans-serif" font-size="14" lengthAdjust="spacing" textLength="196.6084" x="43.3252" y="99">file_path, file_name, file_size</text><path d="M292.9336,102.9531 L282.9336,102.9531 C267.9336,102.9531 267.9336,93.709 252.9336,93.709 L242.9336,93.709" fill="none" style="stroke:#0078D4;stroke-width:3;"/><text fill="#000000" font-family="sans-serif" font-size="14" lengthAdjust="spacing" textLength="150.3906" x="89.543" y="117.4883">file_modification_time</text><path d="M292.9336,102.9531 L282.9336,102.9531 C267.9336,102.9531 267.9336,112.1973 252.9336,112.1973 L242.9336,112.1973" fill="none" style="stroke:#0078D4;stroke-width:3;"/><text fill="#000000" font-family="sans-serif" font-size="14" lengthAdjust="spacing" textLength="209.7676" x="30.166" y="135.9766">Useful for auditing and lineage</text><path d="M292.9336,102.9531 L282.9336,102.9531 C267.9336,102.9531 267.9336,130.6855 252.9336,130.6855 L242.9336,130.6855" fill="none" style="stroke:#0078D4;stroke-width:3;"/><path d="M453.0996,74.9648 L443.0996,74.9648 C428.0996,74.9648 428.0996,102.9531 413.0996,102.9531 L403.0996,102.9531" fill="none" style="stroke:#FF5F46;stroke-width:3;"/><?plantuml-src VLDHRzGm37xlhx34owRZZkuO0quJ6WDLGhff6niy8LLfuhRHDKb9dB5ZuhylIRin2eUVNFkpF-UpU-A8ML9I2yNwxDZHjiDtsKfWJ-rUlWzt6GGxPNpJMEEr-60wO-5PKRmg3ezIRYqr_XqjZAOnMYTxn5wtacyqEWSl5tdswu7hO2TNdhz-y_5moZM9_jbrCa6Hx3VNSYTNNLTlytpADOd-bojF5hWgSzj5pDrEnF6BKUuPd1ajAIIP5d3UarJo9txJxpqPM1icqC8LMMJAPRCPyCvuKTOoj2_3-WZtzaDuLiBLvHfghpb9erVmtQFTGeH1GWsOJxhtj0BU8j_qHcg2db4xrhVcXmCX7JStQ56aOWUpLEyJzp26r0sS8Ld9tL2flIeYzjnJm6eH02leCJb3bqVSwPPsuAgO6N1VfPDL65pg9uozDOsDaWhcsiemAxBv73w7fuMrA4a14mBpSX0epRDGx3Ov5sYlhMmQjF-2f9cca0kBDwZ9GHJ3XOK8K99RCwyO1VbS98yTeX9CC693MQd6JsYb4AY1cyuhFIIZ56KK_FdWQgPmT2F34v0oGjQIixZBCXp4cFlYiFOTrF5Ml4XlJaVJXRja3MOdGSk7lpaxM2ppvT5YUGy0?></g></svg>