<?plantuml 1.2026.2?><svg xmlns="http://www.w3.org/2000/svg" xmlns:xlink="http://www.w3.org/1999/xlink" contentStyleType="text/css" data-diagram-type="MINDMAP" height="134px" preserveAspectRatio="none" style="width:1280px;height:134px;background:#FFFFFF;" version="1.1" viewBox="0 0 1280 134" width="1280px" zoomAndPan="magnify"><defs/><g><rect fill="#FF5F46" height="52.9766" rx="12.5" ry="12.5" style="stroke:#FF5F46;stroke-width:3;" width="148.8027" x="635.8174" y="40"/><text fill="#FFFFFF" font-family="sans-serif" font-size="14" lengthAdjust="spacing" textLength="112.4375" x="645.8174" y="63.5352">Understand How</text><text fill="#FFFFFF" font-family="sans-serif" font-size="14" lengthAdjust="spacing" textLength="128.8027" x="645.8174" y="80.0234">Auto Loader Works</text><rect fill="#0078D4" height="36.4883" rx="12.5" ry="12.5" style="stroke:#0078D4;stroke-width:3;" width="102.749" x="834.6201" y="20"/><text fill="#FFFFFF" font-family="sans-serif" font-size="14" lengthAdjust="spacing" textLength="82.749" x="844.6201" y="43.5352">Auto Loader</text><text fill="#000000" font-family="sans-serif" font-size="14" lengthAdjust="spacing" textLength="193.1836" x="990.3691" y="25.0469">Structured Streaming source</text><path d="M937.3691,38.2441 L947.3691,38.2441 C962.3691,38.2441 962.3691,19.7559 977.3691,19.7559 L987.3691,19.7559" fill="none" style="stroke:#0078D4;stroke-width:3;"/><text fill="#000000" font-family="sans-serif" font-size="14" lengthAdjust="spacing" textLength="245.4512" x="990.3691" y="43.5352">Monitors cloud storage for new files</text><path d="M937.3691,38.2441 L947.3691,38.2441 C962.3691,38.2441 962.3691,38.2441 977.3691,38.2441 L987.3691,38.2441" fill="none" style="stroke:#0078D4;stroke-width:3;"/><text fill="#000000" font-family="sans-serif" font-size="14" lengthAdjust="spacing" textLength="219.0781" x="990.3691" y="62.0234">Each file processed exactly once</text><path d="M937.3691,38.2441 L947.3691,38.2441 C962.3691,38.2441 962.3691,56.7324 977.3691,56.7324 L987.3691,56.7324" fill="none" style="stroke:#0078D4;stroke-width:3;"/><path d="M784.6201,66.4883 L794.6201,66.4883 C809.6201,66.4883 809.6201,38.2441 824.6201,38.2441 L834.6201,38.2441" fill="none" style="stroke:#FF5F46;stroke-width:3;"/><rect fill="#0078D4" height="36.4883" rx="12.5" ry="12.5" style="stroke:#0078D4;stroke-width:3;" width="133.9004" x="834.6201" y="76.4883"/><text fill="#FFFFFF" font-family="sans-serif" font-size="14" lengthAdjust="spacing" textLength="113.9004" x="844.6201" y="100.0234">Detection Modes</text><text fill="#000000" font-family="sans-serif" font-size="14" lengthAdjust="spacing" textLength="207.5049" x="1021.5205" y="81.5352">Directory listing: periodic scan</text><path d="M968.5205,94.7324 L978.5205,94.7324 C993.5205,94.7324 993.5205,76.2441 1008.5205,76.2441 L1018.5205,76.2441" fill="none" style="stroke:#0078D4;stroke-width:3;"/><text fill="#000000" font-family="sans-serif" font-size="14" lengthAdjust="spacing" textLength="201.1201" x="1021.5205" y="100.0234">File notification: event-driven</text><path d="M968.5205,94.7324 L978.5205,94.7324 C993.5205,94.7324 993.5205,94.7324 1008.5205,94.7324 L1018.5205,94.7324" fill="none" style="stroke:#0078D4;stroke-width:3;"/><text fill="#000000" font-family="sans-serif" font-size="14" lengthAdjust="spacing" textLength="247.3652" x="1021.5205" y="118.5117">Notification preferred for large scale</text><path d="M968.5205,94.7324 L978.5205,94.7324 C993.5205,94.7324 993.5205,113.2207 1008.5205,113.2207 L1018.5205,113.2207" fill="none" style="stroke:#0078D4;stroke-width:3;"/><path d="M784.6201,66.4883 L794.6201,66.4883 C809.6201,66.4883 809.6201,94.7324 824.6201,94.7324 L834.6201,94.7324" fill="none" style="stroke:#FF5F46;stroke-width:3;"/><rect fill="#0078D4" height="36.4883" rx="12.5" ry="12.5" style="stroke:#0078D4;stroke-width:3;" width="168.4219" x="417.3955" y="20"/><text fill="#FFFFFF" font-family="sans-serif" font-size="14" lengthAdjust="spacing" textLength="148.4219" x="427.3955" y="43.5352">File Notification Mode</text><text fill="#000000" font-family="sans-serif" font-size="14" lengthAdjust="spacing" textLength="263.252" x="101.1436" y="25.0469">Cloud notification services (e.g. Azure)</text><path d="M417.3955,38.2441 L407.3955,38.2441 C392.3955,38.2441 392.3955,19.7559 377.3955,19.7559 L367.3955,19.7559" fill="none" style="stroke:#0078D4;stroke-width:3;"/><text fill="#000000" font-family="sans-serif" font-size="14" lengthAdjust="spacing" textLength="199.3428" x="165.0527" y="43.5352">Lower latency, fewer API calls</text><path d="M417.3955,38.2441 L407.3955,38.2441 C392.3955,38.2441 392.3955,38.2441 377.3955,38.2441 L367.3955,38.2441" fill="none" style="stroke:#0078D4;stroke-width:3;"/><text fill="#000000" font-family="sans-serif" font-size="14" lengthAdjust="spacing" textLength="354.3955" x="10" y="62.0234">Enable file events on Unity Catalog external location</text><path d="M417.3955,38.2441 L407.3955,38.2441 C392.3955,38.2441 392.3955,56.7324 377.3955,56.7324 L367.3955,56.7324" fill="none" style="stroke:#0078D4;stroke-width:3;"/><path d="M635.8174,66.4883 L625.8174,66.4883 C610.8174,66.4883 610.8174,38.2441 595.8174,38.2441 L585.8174,38.2441" fill="none" style="stroke:#FF5F46;stroke-width:3;"/><rect fill="#0078D4" height="36.4883" rx="12.5" ry="12.5" style="stroke:#0078D4;stroke-width:3;" width="145.5078" x="440.3096" y="76.4883"/><text fill="#FFFFFF" font-family="sans-serif" font-size="14" lengthAdjust="spacing" textLength="125.5078" x="450.3096" y="100.0234">State Management</text><text fill="#000000" font-family="sans-serif" font-size="14" lengthAdjust="spacing" textLength="228.5596" x="158.75" y="81.5352">Checkpoint tracks processed files</text><path d="M440.3096,94.7324 L430.3096,94.7324 C415.3096,94.7324 415.3096,76.2441 400.3096,76.2441 L390.3096,76.2441" fill="none" style="stroke:#0078D4;stroke-width:3;"/><text fill="#000000" font-family="sans-serif" font-size="14" lengthAdjust="spacing" textLength="175.1504" x="212.1592" y="100.0234">Resume after interruption</text><path d="M440.3096,94.7324 L430.3096,94.7324 C415.3096,94.7324 415.3096,94.7324 400.3096,94.7324 L390.3096,94.7324" fill="none" style="stroke:#0078D4;stroke-width:3;"/><text fill="#000000" font-family="sans-serif" font-size="14" lengthAdjust="spacing" textLength="258.0156" x="129.2939" y="118.5117">No manual state management needed</text><path d="M440.3096,94.7324 L430.3096,94.7324 C415.3096,94.7324 415.3096,113.2207 400.3096,113.2207 L390.3096,113.2207" fill="none" style="stroke:#0078D4;stroke-width:3;"/><path d="M635.8174,66.4883 L625.8174,66.4883 C610.8174,66.4883 610.8174,94.7324 595.8174,94.7324 L585.8174,94.7324" fill="none" style="stroke:#FF5F46;stroke-width:3;"/><?plantuml-src VLFHRXCn47o_hrY9brOXuHfAWQX23KbFL4eHeY1Ua2h7taki-BmdUwzfgFXtzdnfIOE2NyvUZsV6i-UBo2fmPRsfL9sTHzuu_92D3DQyFCgFuI436H-LNYq2DTvCo5605qNnfZWzItipw_7VQa6UjzKoZIVijwNLAuynmkj1dlr-r3evg9NdRzzDJ_UrzghFMVSS56dyrHeUr2hB-ViytzVQg_vNAqz3jEPqxrhCmq74-Qjjt3tuxWq6QOKty8dMF_suOO8PAQd23mghcFLwi5EKPUyMRZWqcfk0ffsYaZOk858JD7Q0Q_AMAKJGZXe3KUPgWL2A3OzhAAqux92NIY_J6kf0MdmB9zuhpMu3v1CVJ95HioKllERnuDG6ALBOWBEHnS08QWoMZDKGjV8TgcYPFR4jhLOjnGZm3ZttJR3oxK2VT_R51fOOsgkrRfqAublu76RzVaVt3Duwaft-BKpILNUr86Auit8fECB1OW3ZNnBPSOUUqHfRUaQlDo-Xn7Ov_d858kLYXxdqQYvwAPtaEaeaqZBB6vWeLeuMaXLZyCg1eqwqjNd3mWlNoalebPpR6boYNjLaFGC7-G7ZJkHTHnBiAyQcGb2b48E09OoctZBtsx2WKhuHnPXKgYSLQIqQDDa5ogFUFkpiP33CXsU3uHy0?></g></svg>