<?plantuml 1.2026.2?><svg xmlns="http://www.w3.org/2000/svg" xmlns:xlink="http://www.w3.org/1999/xlink" contentStyleType="text/css" data-diagram-type="MINDMAP" height="134px" preserveAspectRatio="none" style="width:1247px;height:134px;background:#FFFFFF;" version="1.1" viewBox="0 0 1247 134" width="1247px" zoomAndPan="magnify"><defs/><g><rect fill="#FF5F46" height="52.9766" rx="12.5" ry="12.5" style="stroke:#FF5F46;stroke-width:3;" width="185.792" x="535.4727" y="40"/><text fill="#FFFFFF" font-family="sans-serif" font-size="14" lengthAdjust="spacing" textLength="165.792" x="545.4727" y="63.5352">Create Streaming Tables</text><text fill="#FFFFFF" font-family="sans-serif" font-size="14" lengthAdjust="spacing" textLength="86.8643" x="545.4727" y="80.0234">for Ingestion</text><rect fill="#0078D4" height="36.4883" rx="12.5" ry="12.5" style="stroke:#0078D4;stroke-width:3;" width="117.0977" x="771.2646" y="20"/><text fill="#FFFFFF" font-family="sans-serif" font-size="14" lengthAdjust="spacing" textLength="97.0977" x="781.2646" y="43.5352">SQL Definition</text><text fill="#000000" font-family="sans-serif" font-size="14" lengthAdjust="spacing" textLength="268.5498" x="941.3623" y="25.0469">CREATE OR REFRESH STREAMING TABLE</text><path d="M888.3623,38.2441 L898.3623,38.2441 C913.3623,38.2441 913.3623,19.7559 928.3623,19.7559 L938.3623,19.7559" fill="none" style="stroke:#0078D4;stroke-width:3;"/><text fill="#000000" font-family="sans-serif" font-size="14" lengthAdjust="spacing" textLength="276.3018" x="941.3623" y="43.5352">AS SELECT * FROM STREAM read_files(...)</text><path d="M888.3623,38.2441 L898.3623,38.2441 C913.3623,38.2441 913.3623,38.2441 928.3623,38.2441 L938.3623,38.2441" fill="none" style="stroke:#0078D4;stroke-width:3;"/><text fill="#000000" font-family="sans-serif" font-size="14" lengthAdjust="spacing" textLength="294.4785" x="941.3623" y="62.0234">STREAM keyword = incremental processing</text><path d="M888.3623,38.2441 L898.3623,38.2441 C913.3623,38.2441 913.3623,56.7324 928.3623,56.7324 L938.3623,56.7324" fill="none" style="stroke:#0078D4;stroke-width:3;"/><path d="M721.2646,66.4883 L731.2646,66.4883 C746.2646,66.4883 746.2646,38.2441 761.2646,38.2441 L771.2646,38.2441" fill="none" style="stroke:#FF5F46;stroke-width:3;"/><rect fill="#0078D4" height="36.4883" rx="12.5" ry="12.5" style="stroke:#0078D4;stroke-width:3;" width="137.4824" x="771.2646" y="76.4883"/><text fill="#FFFFFF" font-family="sans-serif" font-size="14" lengthAdjust="spacing" textLength="117.4824" x="781.2646" y="100.0234">Python Definition</text><text fill="#000000" font-family="sans-serif" font-size="14" lengthAdjust="spacing" textLength="137.5322" x="961.7471" y="81.5352">@dp.table decorator</text><path d="M908.7471,94.7324 L918.7471,94.7324 C933.7471,94.7324 933.7471,76.2441 948.7471,76.2441 L958.7471,76.2441" fill="none" style="stroke:#0078D4;stroke-width:3;"/><text fill="#000000" font-family="sans-serif" font-size="14" lengthAdjust="spacing" textLength="256.5596" x="961.7471" y="100.0234">spark.readStream.format("cloudFiles")</text><path d="M908.7471,94.7324 L918.7471,94.7324 C933.7471,94.7324 933.7471,94.7324 948.7471,94.7324 L958.7471,94.7324" fill="none" style="stroke:#0078D4;stroke-width:3;"/><text fill="#000000" font-family="sans-serif" font-size="14" lengthAdjust="spacing" textLength="202.1797" x="961.7471" y="118.5117">Returns streaming DataFrame</text><path d="M908.7471,94.7324 L918.7471,94.7324 C933.7471,94.7324 933.7471,113.2207 948.7471,113.2207 L958.7471,113.2207" fill="none" style="stroke:#0078D4;stroke-width:3;"/><path d="M721.2646,66.4883 L731.2646,66.4883 C746.2646,66.4883 746.2646,94.7324 761.2646,94.7324 L771.2646,94.7324" fill="none" style="stroke:#FF5F46;stroke-width:3;"/><rect fill="#0078D4" height="36.4883" rx="12.5" ry="12.5" style="stroke:#0078D4;stroke-width:3;" width="186.5234" x="298.9492" y="20"/><text fill="#FFFFFF" font-family="sans-serif" font-size="14" lengthAdjust="spacing" textLength="166.5234" x="308.9492" y="43.5352">read_files() with STREAM</text><text fill="#000000" font-family="sans-serif" font-size="14" lengthAdjust="spacing" textLength="235.9492" x="10" y="25.0469">Auto Loader enabled automatically</text><path d="M298.9492,38.2441 L288.9492,38.2441 C273.9492,38.2441 273.9492,19.7559 258.9492,19.7559 L248.9492,19.7559" fill="none" style="stroke:#0078D4;stroke-width:3;"/><text fill="#000000" font-family="sans-serif" font-size="14" lengthAdjust="spacing" textLength="196.7314" x="49.2178" y="43.5352">format =&gt; 'json' / 'csv' / etc.</text><path d="M298.9492,38.2441 L288.9492,38.2441 C273.9492,38.2441 273.9492,38.2441 258.9492,38.2441 L248.9492,38.2441" fill="none" style="stroke:#0078D4;stroke-width:3;"/><text fill="#000000" font-family="sans-serif" font-size="14" lengthAdjust="spacing" textLength="204.2578" x="41.6914" y="62.0234">Pipeline manages checkpoints</text><path d="M298.9492,38.2441 L288.9492,38.2441 C273.9492,38.2441 273.9492,56.7324 258.9492,56.7324 L248.9492,56.7324" fill="none" style="stroke:#0078D4;stroke-width:3;"/><path d="M535.4727,66.4883 L525.4727,66.4883 C510.4727,66.4883 510.4727,38.2441 495.4727,38.2441 L485.4727,38.2441" fill="none" style="stroke:#FF5F46;stroke-width:3;"/><rect fill="#0078D4" height="36.4883" rx="12.5" ry="12.5" style="stroke:#0078D4;stroke-width:3;" width="104.5059" x="380.9668" y="76.4883"/><text fill="#FFFFFF" font-family="sans-serif" font-size="14" lengthAdjust="spacing" textLength="84.5059" x="390.9668" y="100.0234">Default Flow</text><text fill="#000000" font-family="sans-serif" font-size="14" lengthAdjust="spacing" textLength="288.6611" x="39.3057" y="81.5352">Created automatically with table definition</text><path d="M380.9668,94.7324 L370.9668,94.7324 C355.9668,94.7324 355.9668,76.2441 340.9668,76.2441 L330.9668,76.2441" fill="none" style="stroke:#0078D4;stroke-width:3;"/><text fill="#000000" font-family="sans-serif" font-size="14" lengthAdjust="spacing" textLength="229.8105" x="98.1563" y="100.0234">No explicit flow definition needed</text><path d="M380.9668,94.7324 L370.9668,94.7324 C355.9668,94.7324 355.9668,94.7324 340.9668,94.7324 L330.9668,94.7324" fill="none" style="stroke:#0078D4;stroke-width:3;"/><text fill="#000000" font-family="sans-serif" font-size="14" lengthAdjust="spacing" textLength="251.5693" x="76.3975" y="118.5117">For complex scenarios: explicit flows</text><path d="M380.9668,94.7324 L370.9668,94.7324 C355.9668,94.7324 355.9668,113.2207 340.9668,113.2207 L330.9668,113.2207" fill="none" style="stroke:#0078D4;stroke-width:3;"/><path d="M535.4727,66.4883 L525.4727,66.4883 C510.4727,66.4883 510.4727,94.7324 495.4727,94.7324 L485.4727,94.7324" fill="none" style="stroke:#FF5F46;stroke-width:3;"/><?plantuml-src VLFlRzem4FsUl-BKVG26I5FQTLlLLb18jahqnv9yd5GP-m8UZXtPpW1L-z_da9IrgTXziNJtpk-zEtjaBD4svvBbfF0kZTqAlFOk61PssGrwyEo1Ynj2LmkjIiacIYWD7wBeKtHslglDkCJtsKX9ssIpNUonwPBJbKHZuDGFl3ylN2S7kOBWyvVfMPkhbNrxQqj1j8j_NCE3N5as_ne4RQvMzhzSmIuSrrnjH8LvFeYuF6x6tOU9Hc8H4kjEjum5f6Jkkd_Ap7NSoWKQovNq-dr8VinWYXcNlCdqds0IX-CqX8SOuZ2Am-Gx9AbBtTtUVuDqV3CBQzWuWIISXPCKFa8KFzmrA72Sx2dZZg_h-twl1ZUr5MxNIZEu0YwfnXob9G8AhQZpveHMaXwtTgdaErKZLlYsiW4CgTB4AbqNJ47qogzOQx--CvaJspsYGfKigeGSDIfYjAMM1in-C5DYIQH9ZjvWy5fv3zRSBXlPhZPmVakhOAO8GmqeAoKCYCivBaw94DiQLhF3rJLqVXabEt0C7Mf-LoTQwjUWHrwWSBk7d4ZYrW5qYNHLA2wjgPGuywGK5YAXrdL7lT8MOotoPIhxUUqQxXNWfX2SSWkPk-OL02GYGrRZ8lSagCeBWHimr1dJN9cBjxt66w7xqistzaxyOJ0yzuT_0G00?></g></svg>