<?plantuml 1.2026.2?><svg xmlns="http://www.w3.org/2000/svg" xmlns:xlink="http://www.w3.org/1999/xlink" contentStyleType="text/css" data-diagram-type="MINDMAP" height="152px" preserveAspectRatio="none" style="width:1341px;height:152px;background:#FFFFFF;" version="1.1" viewBox="0 0 1341 152" width="1341px" zoomAndPan="magnify"><defs/><g><rect fill="#FF5F46" height="52.9766" rx="12.5" ry="12.5" style="stroke:#FF5F46;stroke-width:3;" width="191.083" x="526.9824" y="48.7324"/><text fill="#FFFFFF" font-family="sans-serif" font-size="14" lengthAdjust="spacing" textLength="171.083" x="536.9824" y="72.2676">Handle Schema Inference</text><text fill="#FFFFFF" font-family="sans-serif" font-size="14" lengthAdjust="spacing" textLength="166.0518" x="536.9824" y="88.7559">and Evolution (Pipelines)</text><rect fill="#0078D4" height="36.4883" rx="12.5" ry="12.5" style="stroke:#0078D4;stroke-width:3;" width="201.1797" x="768.0654" y="20"/><text fill="#FFFFFF" font-family="sans-serif" font-size="14" lengthAdjust="spacing" textLength="181.1797" x="778.0654" y="43.5352">Auto Inference in Pipelines</text><text fill="#000000" font-family="sans-serif" font-size="14" lengthAdjust="spacing" textLength="205.9531" x="1022.2451" y="25.0469">from_json() with NULL schema</text><path d="M969.2451,38.2441 L979.2451,38.2441 C994.2451,38.2441 994.2451,19.7559 1009.2451,19.7559 L1019.2451,19.7559" fill="none" style="stroke:#0078D4;stroke-width:3;"/><text fill="#000000" font-family="sans-serif" font-size="14" lengthAdjust="spacing" textLength="276.9648" x="1022.2451" y="43.5352">schemaLocationKey: schema storage key</text><path d="M969.2451,38.2441 L979.2451,38.2441 C994.2451,38.2441 994.2451,38.2441 1009.2451,38.2441 L1019.2451,38.2441" fill="none" style="stroke:#0078D4;stroke-width:3;"/><text fill="#000000" font-family="sans-serif" font-size="14" lengthAdjust="spacing" textLength="274.8047" x="1022.2451" y="62.0234">Pipeline detects new fields automatically</text><path d="M969.2451,38.2441 L979.2451,38.2441 C994.2451,38.2441 994.2451,56.7324 1009.2451,56.7324 L1019.2451,56.7324" fill="none" style="stroke:#0078D4;stroke-width:3;"/><path d="M718.0654,75.2207 L728.0654,75.2207 C743.0654,75.2207 743.0654,38.2441 758.0654,38.2441 L768.0654,38.2441" fill="none" style="stroke:#FF5F46;stroke-width:3;"/><rect fill="#0078D4" height="36.4883" rx="12.5" ry="12.5" style="stroke:#0078D4;stroke-width:3;" width="188.0068" x="768.0654" y="85.2207"/><text fill="#FFFFFF" font-family="sans-serif" font-size="14" lengthAdjust="spacing" textLength="168.0068" x="778.0654" y="108.7559">Schema Evolution Modes</text><text fill="#000000" font-family="sans-serif" font-size="14" lengthAdjust="spacing" textLength="320.8926" x="1009.0723" y="81.0234">addNewColumns: auto-add new fields (default)</text><path d="M956.0723,103.4648 L966.0723,103.4648 C981.0723,103.4648 981.0723,75.7324 996.0723,75.7324 L1006.0723,75.7324" fill="none" style="stroke:#0078D4;stroke-width:3;"/><text fill="#000000" font-family="sans-serif" font-size="14" lengthAdjust="spacing" textLength="286.043" x="1009.0723" y="99.5117">rescue: new cols &#8594; _rescued_data column</text><path d="M956.0723,103.4648 L966.0723,103.4648 C981.0723,103.4648 981.0723,94.2207 996.0723,94.2207 L1006.0723,94.2207" fill="none" style="stroke:#0078D4;stroke-width:3;"/><text fill="#000000" font-family="sans-serif" font-size="14" lengthAdjust="spacing" textLength="248.7529" x="1009.0723" y="118">failOnNewColumns: fail on detection</text><path d="M956.0723,103.4648 L966.0723,103.4648 C981.0723,103.4648 981.0723,112.709 996.0723,112.709 L1006.0723,112.709" fill="none" style="stroke:#0078D4;stroke-width:3;"/><text fill="#000000" font-family="sans-serif" font-size="14" lengthAdjust="spacing" textLength="179.7646" x="1009.0723" y="136.4883">none: ignore new columns</text><path d="M956.0723,103.4648 L966.0723,103.4648 C981.0723,103.4648 981.0723,131.1973 996.0723,131.1973 L1006.0723,131.1973" fill="none" style="stroke:#0078D4;stroke-width:3;"/><path d="M718.0654,75.2207 L728.0654,75.2207 C743.0654,75.2207 743.0654,103.4648 758.0654,103.4648 L768.0654,103.4648" fill="none" style="stroke:#FF5F46;stroke-width:3;"/><rect fill="#0078D4" height="36.4883" rx="12.5" ry="12.5" style="stroke:#0078D4;stroke-width:3;" width="169.085" x="307.8975" y="28.7324"/><text fill="#FFFFFF" font-family="sans-serif" font-size="14" lengthAdjust="spacing" textLength="149.085" x="317.8975" y="52.2676">Rescued Data Column</text><text fill="#000000" font-family="sans-serif" font-size="14" lengthAdjust="spacing" textLength="244.8975" x="10" y="33.7793">_rescued_data captures mismatches</text><path d="M307.8975,46.9766 L297.8975,46.9766 C282.8975,46.9766 282.8975,28.4883 267.8975,28.4883 L257.8975,28.4883" fill="none" style="stroke:#0078D4;stroke-width:3;"/><text fill="#000000" font-family="sans-serif" font-size="14" lengthAdjust="spacing" textLength="122.6641" x="132.2334" y="52.2676">Prevents data loss</text><path d="M307.8975,46.9766 L297.8975,46.9766 C282.8975,46.9766 282.8975,46.9766 267.8975,46.9766 L257.8975,46.9766" fill="none" style="stroke:#0078D4;stroke-width:3;"/><text fill="#000000" font-family="sans-serif" font-size="14" lengthAdjust="spacing" textLength="221.1016" x="33.7959" y="70.7559">Available for inspection + replay</text><path d="M307.8975,46.9766 L297.8975,46.9766 C282.8975,46.9766 282.8975,65.4648 267.8975,65.4648 L257.8975,65.4648" fill="none" style="stroke:#0078D4;stroke-width:3;"/><path d="M526.9824,75.2207 L516.9824,75.2207 C501.9824,75.2207 501.9824,46.9766 486.9824,46.9766 L476.9824,46.9766" fill="none" style="stroke:#FF5F46;stroke-width:3;"/><rect fill="#0078D4" height="36.4883" rx="12.5" ry="12.5" style="stroke:#0078D4;stroke-width:3;" width="94.4229" x="382.5596" y="85.2207"/><text fill="#FFFFFF" font-family="sans-serif" font-size="14" lengthAdjust="spacing" textLength="74.4229" x="392.5596" y="108.7559">Monitoring</text><text fill="#000000" font-family="sans-serif" font-size="14" lengthAdjust="spacing" textLength="119.9844" x="209.5752" y="90.2676">Pipeline event log</text><path d="M382.5596,103.4648 L372.5596,103.4648 C357.5596,103.4648 357.5596,84.9766 342.5596,84.9766 L332.5596,84.9766" fill="none" style="stroke:#0078D4;stroke-width:3;"/><text fill="#000000" font-family="sans-serif" font-size="14" lengthAdjust="spacing" textLength="212.543" x="117.0166" y="108.7559">Lakeflow Pipelines Editor (DAG)</text><path d="M382.5596,103.4648 L372.5596,103.4648 C357.5596,103.4648 357.5596,103.4648 342.5596,103.4648 L332.5596,103.4648" fill="none" style="stroke:#0078D4;stroke-width:3;"/><text fill="#000000" font-family="sans-serif" font-size="14" lengthAdjust="spacing" textLength="203.54" x="126.0195" y="127.2441">Configure failure notifications</text><path d="M382.5596,103.4648 L372.5596,103.4648 C357.5596,103.4648 357.5596,121.9531 342.5596,121.9531 L332.5596,121.9531" fill="none" style="stroke:#0078D4;stroke-width:3;"/><path d="M526.9824,75.2207 L516.9824,75.2207 C501.9824,75.2207 501.9824,103.4648 486.9824,103.4648 L476.9824,103.4648" fill="none" style="stroke:#FF5F46;stroke-width:3;"/><?plantuml-src VLJRRjD047ttLup4YwCemGsbG5IXXgQ1YhHKNDwGeertDbcodhMywuIeufKFu1Fv4iPUkob6OLuSdJrppfbPnnVEYy9dccGcykZS-Rt1rz5OOkxNSTA3-mYuteXqiofiIVBI6bl0azdi-Upqh3wRQy9_qPabtw2ghWVkvxLEDuJEmRDX4lrelKwEUYN9YvVJqwvN1_rRjPDWLjV1QtJKIwdbgoJfUdNG_tebTR7Nqdut5UV-AEFyQRFkFhmJ90t2ftIDcO1hKbWWfVYL68UhhJMbrvOWljCv6exWUb6_3vFIsmCPDC73EH_t5w0Acos-EKjn3tRQh-7sotmEhdO9ZF1xRbDH6Rp7_RY1m7bRY1N21lU1scg3H8-fTq2u0wNHI0U2asGiaGfZAdexoI7wZPLjAY7bBUvu6sL6Rbpt3XXxh1TBLA8qlXSw2dHfYUEQaLhZuFVFNx08g5n8uKK5irmpjj3c0ptsg13W524wvmb4iiIgUaMsm5QyQeW60_WOr65QgGSXXWUBhg_8VSa8PDhn1dXi5sXt1MwHU4qrpLZNu9CjPn5Blct5RuCcbuT4qESnSoFsbVcD9StxrxHgnDhTrvgirk1piK5bxEvmyN0bgqw8fvEtlK2wjAJqYaFMQwYUPBrMEjovYowG__tD5o0w6OwIqTbmz0S0?></g></svg>