<?plantuml 1.2026.2?><svg xmlns="http://www.w3.org/2000/svg" xmlns:xlink="http://www.w3.org/1999/xlink" contentStyleType="text/css" data-diagram-type="MINDMAP" height="191px" preserveAspectRatio="none" style="width:1182px;height:191px;background:#FFFFFF;" version="1.1" viewBox="0 0 1182 191" width="1182px" zoomAndPan="magnify"><defs/><g><rect fill="#FF5F46" height="52.9766" rx="12.5" ry="12.5" style="stroke:#FF5F46;stroke-width:3;" width="121.6367" x="519.21" y="68.2441"/><text fill="#FFFFFF" font-family="sans-serif" font-size="14" lengthAdjust="spacing" textLength="78.5996" x="529.21" y="91.7793">Ingest from</text><text fill="#FFFFFF" font-family="sans-serif" font-size="14" lengthAdjust="spacing" textLength="101.6367" x="529.21" y="108.2676">Message Buses</text><rect fill="#0078D4" height="36.4883" rx="12.5" ry="12.5" style="stroke:#0078D4;stroke-width:3;" width="147.1211" x="690.8467" y="48.2441"/><text fill="#FFFFFF" font-family="sans-serif" font-size="14" lengthAdjust="spacing" textLength="127.1211" x="700.8467" y="71.7793">Supported Sources</text><text fill="#000000" font-family="sans-serif" font-size="14" lengthAdjust="spacing" textLength="92.2236" x="890.9678" y="53.291">Apache Kafka</text><path d="M837.9678,66.4883 L847.9678,66.4883 C862.9678,66.4883 862.9678,48 877.9678,48 L887.9678,48" fill="none" style="stroke:#0078D4;stroke-width:3;"/><text fill="#000000" font-family="sans-serif" font-size="14" lengthAdjust="spacing" textLength="255.1377" x="890.9678" y="71.7793">Azure Event Hubs (Kafka-compatible)</text><path d="M837.9678,66.4883 L847.9678,66.4883 C862.9678,66.4883 862.9678,66.4883 877.9678,66.4883 L887.9678,66.4883" fill="none" style="stroke:#0078D4;stroke-width:3;"/><text fill="#000000" font-family="sans-serif" font-size="14" lengthAdjust="spacing" textLength="227.001" x="890.9678" y="90.2676">Amazon Kinesis, Google Pub/Sub</text><path d="M837.9678,66.4883 L847.9678,66.4883 C862.9678,66.4883 862.9678,84.9766 877.9678,84.9766 L887.9678,84.9766" fill="none" style="stroke:#0078D4;stroke-width:3;"/><path d="M640.8467,94.7324 L650.8467,94.7324 C665.8467,94.7324 665.8467,66.4883 680.8467,66.4883 L690.8467,66.4883" fill="none" style="stroke:#FF5F46;stroke-width:3;"/><rect fill="#0078D4" height="36.4883" rx="12.5" ry="12.5" style="stroke:#0078D4;stroke-width:3;" width="95.4072" x="690.8467" y="104.7324"/><text fill="#FFFFFF" font-family="sans-serif" font-size="14" lengthAdjust="spacing" textLength="75.4072" x="700.8467" y="128.2676">SQL Syntax</text><text fill="#000000" font-family="sans-serif" font-size="14" lengthAdjust="spacing" textLength="331.1943" x="839.2539" y="119.0234">STREAM read_kafka(bootstrapServers, subscribe)</text><path d="M786.2539,122.9766 L796.2539,122.9766 C811.2539,122.9766 811.2539,113.7324 826.2539,113.7324 L836.2539,113.7324" fill="none" style="stroke:#0078D4;stroke-width:3;"/><text fill="#000000" font-family="sans-serif" font-size="14" lengthAdjust="spacing" textLength="268.5498" x="839.2539" y="137.5117">CREATE OR REFRESH STREAMING TABLE</text><path d="M786.2539,122.9766 L796.2539,122.9766 C811.2539,122.9766 811.2539,132.2207 826.2539,132.2207 L836.2539,132.2207" fill="none" style="stroke:#0078D4;stroke-width:3;"/><path d="M640.8467,94.7324 L650.8467,94.7324 C665.8467,94.7324 665.8467,122.9766 680.8467,122.9766 L690.8467,122.9766" fill="none" style="stroke:#FF5F46;stroke-width:3;"/><rect fill="#0078D4" height="36.4883" rx="12.5" ry="12.5" style="stroke:#0078D4;stroke-width:3;" width="115.792" x="353.418" y="20"/><text fill="#FFFFFF" font-family="sans-serif" font-size="14" lengthAdjust="spacing" textLength="95.792" x="363.418" y="43.5352">Python Syntax</text><text fill="#000000" font-family="sans-serif" font-size="14" lengthAdjust="spacing" textLength="225.6816" x="74.7363" y="25.0469">spark.readStream.format("kafka")</text><path d="M353.418,38.2441 L343.418,38.2441 C328.418,38.2441 328.418,19.7559 313.418,19.7559 L303.418,19.7559" fill="none" style="stroke:#0078D4;stroke-width:3;"/><text fill="#000000" font-family="sans-serif" font-size="14" lengthAdjust="spacing" textLength="256.833" x="43.585" y="43.5352">KAFKA_OPTIONS dict with auth config</text><path d="M353.418,38.2441 L343.418,38.2441 C328.418,38.2441 328.418,38.2441 313.418,38.2441 L303.418,38.2441" fill="none" style="stroke:#0078D4;stroke-width:3;"/><text fill="#000000" font-family="sans-serif" font-size="14" lengthAdjust="spacing" textLength="137.5322" x="162.8857" y="62.0234">@dp.table decorator</text><path d="M353.418,38.2441 L343.418,38.2441 C328.418,38.2441 328.418,56.7324 313.418,56.7324 L303.418,56.7324" fill="none" style="stroke:#0078D4;stroke-width:3;"/><path d="M519.21,94.7324 L509.21,94.7324 C494.21,94.7324 494.21,38.2441 479.21,38.2441 L469.21,38.2441" fill="none" style="stroke:#FF5F46;stroke-width:3;"/><rect fill="#0078D4" height="36.4883" rx="12.5" ry="12.5" style="stroke:#0078D4;stroke-width:3;" width="73.5254" x="395.6846" y="76.4883"/><text fill="#FFFFFF" font-family="sans-serif" font-size="14" lengthAdjust="spacing" textLength="53.5254" x="405.6846" y="100.0234">Security</text><text fill="#000000" font-family="sans-serif" font-size="14" lengthAdjust="spacing" textLength="304.7188" x="37.9658" y="81.5352">Store connection string in Databricks Secrets</text><path d="M395.6846,94.7324 L385.6846,94.7324 C370.6846,94.7324 370.6846,76.2441 355.6846,76.2441 L345.6846,76.2441" fill="none" style="stroke:#0078D4;stroke-width:3;"/><text fill="#000000" font-family="sans-serif" font-size="14" lengthAdjust="spacing" textLength="332.6846" x="10" y="100.0234">Use pipeline parameters for non-sensitive config</text><path d="M395.6846,94.7324 L385.6846,94.7324 C370.6846,94.7324 370.6846,94.7324 355.6846,94.7324 L345.6846,94.7324" fill="none" style="stroke:#0078D4;stroke-width:3;"/><text fill="#000000" font-family="sans-serif" font-size="14" lengthAdjust="spacing" textLength="307.0566" x="35.6279" y="118.5117">SASL_SSL + PLAIN mechanism for Event Hubs</text><path d="M395.6846,94.7324 L385.6846,94.7324 C370.6846,94.7324 370.6846,113.2207 355.6846,113.2207 L345.6846,113.2207" fill="none" style="stroke:#0078D4;stroke-width:3;"/><path d="M519.21,94.7324 L509.21,94.7324 C494.21,94.7324 494.21,94.7324 479.21,94.7324 L469.21,94.7324" fill="none" style="stroke:#FF5F46;stroke-width:3;"/><rect fill="#0078D4" height="36.4883" rx="12.5" ry="12.5" style="stroke:#0078D4;stroke-width:3;" width="137.4619" x="331.748" y="132.9766"/><text fill="#FFFFFF" font-family="sans-serif" font-size="14" lengthAdjust="spacing" textLength="117.4619" x="341.748" y="156.5117">Schema Handling</text><text fill="#000000" font-family="sans-serif" font-size="14" lengthAdjust="spacing" textLength="224.54" x="54.208" y="147.2676">Binary key/value &#8594; cast to string</text><path d="M331.748,151.2207 L321.748,151.2207 C306.748,151.2207 306.748,141.9766 291.748,141.9766 L281.748,141.9766" fill="none" style="stroke:#0078D4;stroke-width:3;"/><text fill="#000000" font-family="sans-serif" font-size="14" lengthAdjust="spacing" textLength="246.1074" x="32.6406" y="165.7559">Parse JSON payload with from_json()</text><path d="M331.748,151.2207 L321.748,151.2207 C306.748,151.2207 306.748,160.4648 291.748,160.4648 L281.748,160.4648" fill="none" style="stroke:#0078D4;stroke-width:3;"/><path d="M519.21,94.7324 L509.21,94.7324 C494.21,94.7324 494.21,151.2207 479.21,151.2207 L469.21,151.2207" fill="none" style="stroke:#FF5F46;stroke-width:3;"/><?plantuml-src VPDBRjim48RtEiMWtTXmvIXkcZuG594JAt7jsAxfxWeO8sbaivP8WQJSA46tFK2Fs9EKUgH1NAIpu68u_tm_X-IvDgXCnaMSOUwSQLEczD7v45DkjXsl2_SEs1XYjDieMOZuGgPImSiWU1ESdDPxKoxetsmWXMcpIHr_QrTR7kq4QGsl-vxpuu5r_2pByzw-kpmvP1radtOzS13KySWQFCjAal2zvnso3hB_PNbrM5OeRzEgvlxPYhEZTjmz68iDQGE9ajbNSMDbk24O5fgqq-i1A_9SAaCnC5ceg4xsrk3d66q99fZiiCtS5OfWj2TXuBe8DNJgJJUIMOw6Xobrsy8CxwI0YJsDvleLN4cvIGaMHNZ4Yh1cVfu2AuN1sqR1LikHVmEAC5xlggQTK4gZZSASaTgJibsqHKQAXm-K2ojPZM2-XEKeM8xOTTjbFBk2bJ-SZXpNXKLfjjPAot9TTmqwHxNhLoXcx9hr4waoD9qNDVX5jwcQ-C74NyyNg_5ynY3caO7lt6m12xj4KYHyqnIUntdVe3qyn1H9XKQg2imeAXGtPLF4R9OgcQ38S6l87esB3N01bsZLojwvhZIAZ6uaNpH1pdDAxHJ1MiQCZ9q3MBSWf70r2SqDtzCJDyndqpLZK-Z1OkgFPv1Hj4N1TLOB7o-lzcWlE4EuHX5RIjjXo0Mg4dPK7kqnBGX-__m54ThtOsHhkobSeB8MFx7vpDehKubnCw7gcQs_QIawNUUSxDTllxzpt1zuWzF-u0y0?></g></svg>