<?plantuml 1.2026.2?><svg xmlns="http://www.w3.org/2000/svg" xmlns:xlink="http://www.w3.org/1999/xlink" contentStyleType="text/css" data-diagram-type="MINDMAP" height="152px" preserveAspectRatio="none" style="width:1289px;height:152px;background:#FFFFFF;" version="1.1" viewBox="0 0 1289 152" width="1289px" zoomAndPan="magnify"><defs/><g><rect fill="#FF5F46" height="52.9766" rx="12.5" ry="12.5" style="stroke:#FF5F46;stroke-width:3;" width="250.8633" x="522.457" y="48.7324"/><text fill="#FFFFFF" font-family="sans-serif" font-size="14" lengthAdjust="spacing" textLength="142.5225" x="532.457" y="72.2676">Understand Lakeflow</text><text fill="#FFFFFF" font-family="sans-serif" font-size="14" lengthAdjust="spacing" textLength="230.8633" x="532.457" y="88.7559">Declarative Pipelines for Ingestion</text><rect fill="#0078D4" height="36.4883" rx="12.5" ry="12.5" style="stroke:#0078D4;stroke-width:3;" width="174.5879" x="823.3203" y="28.7324"/><text fill="#FFFFFF" font-family="sans-serif" font-size="14" lengthAdjust="spacing" textLength="154.5879" x="833.3203" y="52.2676">Declarative Framework</text><text fill="#000000" font-family="sans-serif" font-size="14" lengthAdjust="spacing" textLength="158.1289" x="1050.9082" y="33.7793">Define WHAT, not HOW</text><path d="M997.9082,46.9766 L1007.9082,46.9766 C1022.9082,46.9766 1022.9082,28.4883 1037.9082,28.4883 L1047.9082,28.4883" fill="none" style="stroke:#0078D4;stroke-width:3;"/><text fill="#000000" font-family="sans-serif" font-size="14" lengthAdjust="spacing" textLength="177.4951" x="1050.9082" y="52.2676">SQL or Python source files</text><path d="M997.9082,46.9766 L1007.9082,46.9766 C1022.9082,46.9766 1022.9082,46.9766 1037.9082,46.9766 L1047.9082,46.9766" fill="none" style="stroke:#0078D4;stroke-width:3;"/><text fill="#000000" font-family="sans-serif" font-size="14" lengthAdjust="spacing" textLength="226.3584" x="1050.9082" y="70.7559">Automatic orchestration &amp; retries</text><path d="M997.9082,46.9766 L1007.9082,46.9766 C1022.9082,46.9766 1022.9082,65.4648 1037.9082,65.4648 L1047.9082,65.4648" fill="none" style="stroke:#0078D4;stroke-width:3;"/><path d="M773.3203,75.2207 L783.3203,75.2207 C798.3203,75.2207 798.3203,46.9766 813.3203,46.9766 L823.3203,46.9766" fill="none" style="stroke:#FF5F46;stroke-width:3;"/><rect fill="#0078D4" height="36.4883" rx="12.5" ry="12.5" style="stroke:#0078D4;stroke-width:3;" width="137.3799" x="823.3203" y="85.2207"/><text fill="#FFFFFF" font-family="sans-serif" font-size="14" lengthAdjust="spacing" textLength="117.3799" x="833.3203" y="108.7559">Streaming Tables</text><text fill="#000000" font-family="sans-serif" font-size="14" lengthAdjust="spacing" textLength="243.7217" x="1013.7002" y="90.2676">Delta tables with streaming support</text><path d="M960.7002,103.4648 L970.7002,103.4648 C985.7002,103.4648 985.7002,84.9766 1000.7002,84.9766 L1010.7002,84.9766" fill="none" style="stroke:#0078D4;stroke-width:3;"/><text fill="#000000" font-family="sans-serif" font-size="14" lengthAdjust="spacing" textLength="166.3115" x="1013.7002" y="108.7559">Exactly-once processing</text><path d="M960.7002,103.4648 L970.7002,103.4648 C985.7002,103.4648 985.7002,103.4648 1000.7002,103.4648 L1010.7002,103.4648" fill="none" style="stroke:#0078D4;stroke-width:3;"/><text fill="#000000" font-family="sans-serif" font-size="14" lengthAdjust="spacing" textLength="230.7881" x="1013.7002" y="127.2441">Append-only ingestion workloads</text><path d="M960.7002,103.4648 L970.7002,103.4648 C985.7002,103.4648 985.7002,121.9531 1000.7002,121.9531 L1010.7002,121.9531" fill="none" style="stroke:#0078D4;stroke-width:3;"/><path d="M773.3203,75.2207 L783.3203,75.2207 C798.3203,75.2207 798.3203,103.4648 813.3203,103.4648 L823.3203,103.4648" fill="none" style="stroke:#FF5F46;stroke-width:3;"/><rect fill="#0078D4" height="36.4883" rx="12.5" ry="12.5" style="stroke:#0078D4;stroke-width:3;" width="73.9082" x="398.5488" y="28.7324"/><text fill="#FFFFFF" font-family="sans-serif" font-size="14" lengthAdjust="spacing" textLength="53.9082" x="408.5488" y="52.2676">Benefits</text><text fill="#000000" font-family="sans-serif" font-size="14" lengthAdjust="spacing" textLength="219.8232" x="125.7256" y="24.5352">Auto orchestration &amp; parallelism</text><path d="M398.5488,46.9766 L388.5488,46.9766 C373.5488,46.9766 373.5488,19.2441 358.5488,19.2441 L348.5488,19.2441" fill="none" style="stroke:#0078D4;stroke-width:3;"/><text fill="#000000" font-family="sans-serif" font-size="14" lengthAdjust="spacing" textLength="159.4346" x="186.1143" y="43.0234">Transient failure retries</text><path d="M398.5488,46.9766 L388.5488,46.9766 C373.5488,46.9766 373.5488,37.7324 358.5488,37.7324 L348.5488,37.7324" fill="none" style="stroke:#0078D4;stroke-width:3;"/><text fill="#000000" font-family="sans-serif" font-size="14" lengthAdjust="spacing" textLength="191.3516" x="154.1973" y="61.5117">Incremental processing only</text><path d="M398.5488,46.9766 L388.5488,46.9766 C373.5488,46.9766 373.5488,56.2207 358.5488,56.2207 L348.5488,56.2207" fill="none" style="stroke:#0078D4;stroke-width:3;"/><text fill="#000000" font-family="sans-serif" font-size="14" lengthAdjust="spacing" textLength="201.0723" x="144.4766" y="80">Schema management built-in</text><path d="M398.5488,46.9766 L388.5488,46.9766 C373.5488,46.9766 373.5488,74.709 358.5488,74.709 L348.5488,74.709" fill="none" style="stroke:#0078D4;stroke-width:3;"/><path d="M522.457,75.2207 L512.457,75.2207 C497.457,75.2207 497.457,46.9766 482.457,46.9766 L472.457,46.9766" fill="none" style="stroke:#FF5F46;stroke-width:3;"/><rect fill="#0078D4" height="36.4883" rx="12.5" ry="12.5" style="stroke:#0078D4;stroke-width:3;" width="143.8125" x="328.6445" y="93.9531"/><text fill="#FFFFFF" font-family="sans-serif" font-size="14" lengthAdjust="spacing" textLength="123.8125" x="338.6445" y="117.4883">Pipeline Execution</text><text fill="#000000" font-family="sans-serif" font-size="14" lengthAdjust="spacing" textLength="240.0645" x="35.5801" y="99">Source files: transformations folder</text><path d="M328.6445,112.1973 L318.6445,112.1973 C303.6445,112.1973 303.6445,93.709 288.6445,93.709 L278.6445,93.709" fill="none" style="stroke:#0078D4;stroke-width:3;"/><text fill="#000000" font-family="sans-serif" font-size="14" lengthAdjust="spacing" textLength="264.0313" x="11.6133" y="117.4883">Pipeline handles checkpoints internally</text><path d="M328.6445,112.1973 L318.6445,112.1973 C303.6445,112.1973 303.6445,112.1973 288.6445,112.1973 L278.6445,112.1973" fill="none" style="stroke:#0078D4;stroke-width:3;"/><text fill="#000000" font-family="sans-serif" font-size="14" lengthAdjust="spacing" textLength="265.6445" x="10" y="135.9766">View execution in Pipeline Editor (DAG)</text><path d="M328.6445,112.1973 L318.6445,112.1973 C303.6445,112.1973 303.6445,130.6855 288.6445,130.6855 L278.6445,130.6855" fill="none" style="stroke:#0078D4;stroke-width:3;"/><path d="M522.457,75.2207 L512.457,75.2207 C497.457,75.2207 497.457,112.1973 482.457,112.1973 L472.457,112.1973" fill="none" style="stroke:#FF5F46;stroke-width:3;"/><?plantuml-src VLFHQjj047pNLomKIe9ZLt7Jj0sXnAch9c18YjtcfL3EfvLr-BGdxbPnJEY_ToNPgklWtfFOcTkPdJrT1LQU2qDfeSheCl3QugVe8iMIywFu69uZa7Ejz7BXNKNfPsUTXrT9yYuvEs-mYI5yMKqSyQQQDQVZpdAZbuGXmDj17FtUQfqUr8hZzn_6P_jQUzL_k-uvI9hpLsjuK2lBvX_ZU5zhh_fVhRWveZLtJxRcF1zaNBxPnDs3xvIYbrLG2XErnCowrKyQexRAApQF2FUcH2lQ0JBfSKiB36mSHRqUxD8IhmfSERyKeFTBe4pkmCFDQ7O2v1XkxXvQPFfj0jBeVisv8mYkyXeXC-AunKSLkq9wQc7fNCHg0M6-1e_iJKE3ANjKydOMC5FpxkeOBIlWfW8hmpc4ZXUgidIUM-AN9wNPhlkEHBlqJajSGjeOA4kaL32x1hCT5-hHh5DfYFfzk4QI-RZ-xhUENvWj9HXh9RbGjAoPLnGC4aEcZAqyTlCqy2rfZuN0okuuWjf5IvXA_q91eKWj6YBCAsEvRwXsjDsIZ8QwQXRKtjh9zmAuzY1hB1gNzKQjRBzbTXroUGjrWAAdbwKpn45oOFGa0stC_32u0jnA2RnZ83Ki-pqQZxuUHrUIvFONZqu7mtXuFXZ-0G00?></g></svg>