<svg width="1408" height="768" viewBox="0 0 1408 768" xmlns="http://www.w3.org/2000/svg" font-family="'Segoe UI',Arial,Helvetica,sans-serif">
  <defs>
    <filter id="shadow" x="-4%" y="-4%" width="108%" height="108%">
      <feDropShadow dx="0" dy="1" stdDeviation="3" flood-color="#000000" flood-opacity="0.13"/>
    </filter>
  </defs>

  <!-- Background -->
  <rect width="1408" height="768" fill="#E4E4E4"/>

  <!-- ===================== PANEL 1: NUMERIC TYPES ===================== -->
  <rect x="15" y="15" width="668" height="348" rx="7" fill="#FFFFFF" filter="url(#shadow)"/>

  <!-- Header -->
  <rect x="25" y="24" width="214" height="37" rx="5" fill="#1565C0"/>
  <text x="36" y="48" fill="white" font-size="19" font-weight="bold">Numeric Types</text>

  <!-- Integer Types pill -->
  <rect x="25" y="71" width="150" height="26" rx="13" fill="#1565C0"/>
  <text x="100" y="88" fill="white" font-size="13" font-weight="bold" text-anchor="middle">Integer Types</text>

  <!-- BIGINT -->
  <text x="26" y="121" fill="#1A1A1A" font-size="13" font-weight="bold">BIGINT</text>
  <rect x="98" y="109" width="222" height="14" rx="2" fill="#E55B2B"/>
  <text x="324" y="121" fill="#1A1A1A" font-size="12" font-weight="bold">8B</text>
  <!-- INT -->
  <text x="26" y="151" fill="#1A1A1A" font-size="13" font-weight="bold">INT</text>
  <rect x="98" y="139" width="111" height="14" rx="2" fill="#E55B2B"/>
  <text x="213" y="151" fill="#1A1A1A" font-size="12" font-weight="bold">4B</text>
  <!-- SMALLINT -->
  <text x="26" y="181" fill="#1A1A1A" font-size="13" font-weight="bold">SMALLINT</text>
  <rect x="98" y="169" width="56" height="14" rx="2" fill="#E55B2B"/>
  <text x="158" y="181" fill="#1A1A1A" font-size="12" font-weight="bold">2B</text>
  <!-- TINYINT -->
  <text x="26" y="211" fill="#1A1A1A" font-size="13" font-weight="bold">TINYINT</text>
  <rect x="98" y="199" width="28" height="14" rx="2" fill="#E55B2B"/>
  <text x="130" y="211" fill="#1A1A1A" font-size="12" font-weight="bold">1B</text>

  <!-- Vertical divider -->
  <line x1="374" y1="66" x2="374" y2="356" stroke="#CCCCCC" stroke-width="1.5"/>

  <!-- Decimal vs Float pill -->
  <rect x="381" y="71" width="172" height="26" rx="13" fill="#1565C0"/>
  <text x="467" y="88" fill="white" font-size="13" font-weight="bold" text-anchor="middle">Decimal vs Float</text>

  <!-- DECIMAL: stacked gold coins icon -->
  <ellipse cx="428" cy="152" rx="24" ry="7" fill="#B07010"/>
  <rect x="404" y="139" width="48" height="13" fill="#C88018"/>
  <ellipse cx="428" cy="139" rx="24" ry="7" fill="#D09010"/>
  <rect x="404" y="126" width="48" height="13" fill="#D09010"/>
  <ellipse cx="428" cy="126" rx="24" ry="7" fill="#E8A820"/>
  <rect x="404" y="113" width="48" height="13" fill="#E8A820"/>
  <ellipse cx="428" cy="113" rx="24" ry="7" fill="#F5C535"/>
  <text x="428" y="117" fill="#7A5000" font-size="12" font-weight="bold" text-anchor="middle">$</text>

  <text x="428" y="173" fill="#1A1A1A" font-size="14" font-weight="bold" text-anchor="middle">DECIMAL</text>
  <text x="384" y="193" fill="#555555" font-size="11">For financial</text>
  <text x="384" y="209" fill="#555555" font-size="11">exact precision.</text>

  <!-- VS large orange -->
  <text x="515" y="153" fill="#E55B2B" font-size="34" font-weight="900" text-anchor="middle">VS</text>
  <!-- Arrow right -->
  <line x1="465" y1="161" x2="492" y2="161" stroke="#E55B2B" stroke-width="2.5"/>
  <polygon points="492,157.5 499,161 492,164.5" fill="#E55B2B"/>
  <!-- Arrow left -->
  <line x1="465" y1="174" x2="492" y2="174" stroke="#E55B2B" stroke-width="2.5"/>
  <polygon points="465,170.5 458,174 465,177.5" fill="#E55B2B"/>

  <!-- FLOAT/DOUBLE: calculator -->
  <rect x="560" y="108" width="34" height="44" rx="3" fill="#1565C0"/>
  <rect x="563" y="112" width="28" height="9" rx="1" fill="white"/>
  <rect x="563" y="125" width="7" height="7" rx="1" fill="white"/>
  <rect x="574" y="125" width="7" height="7" rx="1" fill="white"/>
  <rect x="585" y="125" width="7" height="7" rx="1" fill="white"/>
  <rect x="563" y="136" width="7" height="7" rx="1" fill="white"/>
  <rect x="574" y="136" width="7" height="7" rx="1" fill="white"/>
  <rect x="585" y="136" width="7" height="7" rx="1" fill="white"/>
  <rect x="563" y="147" width="18" height="4" rx="1" fill="white"/>
  <!-- Atom symbol -->
  <circle cx="621" cy="128" r="4" fill="#1565C0"/>
  <ellipse cx="621" cy="128" rx="17" ry="7" fill="none" stroke="#1565C0" stroke-width="1.8"/>
  <ellipse cx="621" cy="128" rx="17" ry="7" fill="none" stroke="#1565C0" stroke-width="1.8" transform="rotate(60 621 128)"/>
  <ellipse cx="621" cy="128" rx="17" ry="7" fill="none" stroke="#1565C0" stroke-width="1.8" transform="rotate(120 621 128)"/>

  <text x="588" y="173" fill="#1A1A1A" font-size="14" font-weight="bold" text-anchor="middle">FLOAT /</text>
  <text x="588" y="190" fill="#1A1A1A" font-size="14" font-weight="bold" text-anchor="middle">DOUBLE</text>
  <text x="548" y="210" fill="#555555" font-size="11">For scientific</text>
  <text x="548" y="226" fill="#555555" font-size="11">approximation.</text>

  <!-- ===================== PANEL 2: TEMPORAL TYPES ===================== -->
  <rect x="698" y="15" width="695" height="348" rx="7" fill="#FFFFFF" filter="url(#shadow)"/>

  <!-- Header -->
  <rect x="708" y="24" width="201" height="37" rx="5" fill="#1565C0"/>
  <text x="719" y="48" fill="white" font-size="19" font-weight="bold">Temporal Types</text>

  <!-- === DATE card === -->
  <rect x="711" y="71" width="215" height="130" rx="8" fill="white" stroke="#E55B2B" stroke-width="2.5"/>
  <text x="818" y="93" fill="#1A1A1A" font-size="15" font-weight="bold" text-anchor="middle">DATE</text>
  <!-- Calendar icon -->
  <rect x="786" y="100" width="64" height="56" rx="5" fill="none" stroke="#E55B2B" stroke-width="2.5"/>
  <rect x="786" y="100" width="64" height="18" rx="5" fill="#E55B2B"/>
  <rect x="786" y="109" width="64" height="9" fill="#E55B2B"/>
  <rect x="797" y="95" width="8" height="13" rx="2" fill="#E55B2B"/>
  <rect x="831" y="95" width="8" height="13" rx="2" fill="#E55B2B"/>
  <rect x="792" y="122" width="9" height="9" rx="1" fill="#E55B2B"/>
  <rect x="805" y="122" width="9" height="9" rx="1" fill="#E55B2B"/>
  <rect x="818" y="122" width="9" height="9" rx="1" fill="#E55B2B"/>
  <rect x="831" y="122" width="9" height="9" rx="1" fill="#E55B2B"/>
  <rect x="792" y="135" width="9" height="9" rx="1" fill="#E55B2B"/>
  <rect x="805" y="135" width="9" height="9" rx="1" fill="#E55B2B"/>
  <rect x="818" y="135" width="9" height="9" rx="1" fill="#E55B2B"/>
  <text x="818" y="223" fill="#666666" font-size="12" text-anchor="middle">Calendar icon,</text>
  <text x="818" y="239" fill="#666666" font-size="12" text-anchor="middle">dates only.</text>

  <!-- === TIMESTAMP card === -->
  <rect x="938" y="71" width="215" height="130" rx="8" fill="white" stroke="#E55B2B" stroke-width="2.5"/>
  <text x="1045" y="93" fill="#1A1A1A" font-size="15" font-weight="bold" text-anchor="middle">TIMESTAMP</text>
  <!-- Globe left (blue) -->
  <circle cx="967" cy="134" r="20" fill="none" stroke="#1565C0" stroke-width="2.2"/>
  <ellipse cx="967" cy="134" rx="11" ry="20" fill="none" stroke="#1565C0" stroke-width="1.5"/>
  <line x1="947" y1="134" x2="987" y2="134" stroke="#1565C0" stroke-width="1.5"/>
  <line x1="952" y1="120" x2="982" y2="120" stroke="#1565C0" stroke-width="1"/>
  <line x1="952" y1="148" x2="982" y2="148" stroke="#1565C0" stroke-width="1"/>
  <!-- Arrow -->
  <line x1="989" y1="134" x2="1000" y2="134" stroke="#555555" stroke-width="1.5"/>
  <polygon points="1000,131 1005,134 1000,137" fill="#555555"/>
  <!-- Clock (orange) with gear -->
  <circle cx="1028" cy="134" r="18" fill="none" stroke="#E55B2B" stroke-width="2.2"/>
  <line x1="1028" y1="121" x2="1028" y2="134" stroke="#E55B2B" stroke-width="2.2"/>
  <line x1="1028" y1="134" x2="1038" y2="141" stroke="#E55B2B" stroke-width="2.2"/>
  <rect x="1024" y="113" width="8" height="5" rx="1" fill="#E55B2B"/>
  <rect x="1044" y="127" width="5" height="8" rx="1" fill="#E55B2B"/>
  <rect x="1024" y="148" width="8" height="5" rx="1" fill="#E55B2B"/>
  <rect x="1010" y="127" width="5" height="8" rx="1" fill="#E55B2B"/>
  <!-- Arrow -->
  <line x1="1051" y1="134" x2="1062" y2="134" stroke="#555555" stroke-width="1.5"/>
  <polygon points="1062,131 1067,134 1062,137" fill="#555555"/>
  <!-- Globe right (blue) with small gear top-right -->
  <circle cx="1087" cy="134" r="18" fill="none" stroke="#1565C0" stroke-width="2.2"/>
  <ellipse cx="1087" cy="134" rx="10" ry="18" fill="none" stroke="#1565C0" stroke-width="1.5"/>
  <line x1="1069" y1="134" x2="1105" y2="134" stroke="#1565C0" stroke-width="1.5"/>
  <!-- Small gear -->
  <circle cx="1101" cy="119" r="8" fill="none" stroke="#E55B2B" stroke-width="1.8"/>
  <circle cx="1101" cy="119" r="3.5" fill="#E55B2B"/>
  <rect x="1097" y="109" width="8" height="4" rx="1" fill="#E55B2B"/>
  <rect x="1108" y="115" width="4" height="8" rx="1" fill="#E55B2B"/>
  <rect x="1097" y="124" width="8" height="4" rx="1" fill="#E55B2B"/>
  <rect x="1090" y="115" width="4" height="8" rx="1" fill="#E55B2B"/>
  <text x="1045" y="223" fill="#666666" font-size="11.5" text-anchor="middle">Clock icon, UTC</text>
  <text x="1045" y="239" fill="#666666" font-size="11.5" text-anchor="middle">normalized + timezone.</text>

  <!-- === TIMESTAMP_NTZ card === -->
  <rect x="1165" y="71" width="215" height="130" rx="8" fill="white" stroke="#E55B2B" stroke-width="2.5"/>
  <text x="1272" y="93" fill="#1A1A1A" font-size="13.5" font-weight="bold" text-anchor="middle">TIMESTAMP_NTZ</text>
  <!-- Clock (blue) with gear — centered at cx=1242 -->
  <circle cx="1242" cy="134" r="18" fill="none" stroke="#1565C0" stroke-width="2.2"/>
  <line x1="1242" y1="121" x2="1242" y2="134" stroke="#1565C0" stroke-width="2.2"/>
  <line x1="1242" y1="134" x2="1252" y2="141" stroke="#1565C0" stroke-width="2.2"/>
  <rect x="1238" y="113" width="8" height="5" rx="1" fill="#1565C0"/>
  <rect x="1262" y="128" width="5" height="8" rx="1" fill="#1565C0"/>
  <rect x="1238" y="149" width="8" height="5" rx="1" fill="#1565C0"/>
  <rect x="1220" y="128" width="5" height="8" rx="1" fill="#1565C0"/>
  <!-- Arrow -->
  <line x1="1269" y1="134" x2="1280" y2="134" stroke="#555555" stroke-width="1.5"/>
  <polygon points="1280,131 1285,134 1280,137" fill="#555555"/>
  <!-- Globe with large X — cx=1308, r=19 -->
  <circle cx="1308" cy="134" r="19" fill="none" stroke="#1565C0" stroke-width="2.2"/>
  <ellipse cx="1308" cy="134" rx="11" ry="19" fill="none" stroke="#1565C0" stroke-width="1.5"/>
  <line x1="1289" y1="134" x2="1327" y2="134" stroke="#1565C0" stroke-width="1.5"/>
  <line x1="1294" y1="120" x2="1322" y2="120" stroke="#1565C0" stroke-width="1"/>
  <line x1="1294" y1="148" x2="1322" y2="148" stroke="#1565C0" stroke-width="1"/>
  <!-- Orange X over globe -->
  <line x1="1291" y1="117" x2="1325" y2="151" stroke="#E55B2B" stroke-width="3"/>
  <line x1="1325" y1="117" x2="1291" y2="151" stroke="#E55B2B" stroke-width="3"/>
  <text x="1272" y="223" fill="#666666" font-size="11.5" text-anchor="middle">Clock icon, no</text>
  <text x="1272" y="239" fill="#666666" font-size="11.5" text-anchor="middle">timezone conversion.</text>

  <!-- ===================== PANEL 3: COMPLEX TYPES ===================== -->
  <rect x="15" y="378" width="668" height="375" rx="7" fill="#FFFFFF" filter="url(#shadow)"/>

  <!-- Header -->
  <rect x="25" y="387" width="192" height="37" rx="5" fill="#1565C0"/>
  <text x="36" y="411" fill="white" font-size="19" font-weight="bold">Complex Types</text>

  <!-- ARRAY sub-panel -->
  <rect x="25" y="436" width="190" height="205" rx="6" fill="white" stroke="#E55B2B" stroke-width="1.5"/>
  <text x="120" y="458" fill="#1A1A1A" font-size="14" font-weight="bold" text-anchor="middle">ARRAY</text>
  <line x1="63" y1="472" x2="63" y2="546" stroke="#888888" stroke-width="1.5" stroke-dasharray="3,3"/>
  <circle cx="63" cy="473" r="5" fill="#1565C0"/>
  <rect x="75" y="463" width="70" height="20" rx="10" fill="#1565C0"/>
  <text x="110" y="477" fill="white" font-size="10" text-anchor="middle">tag1</text>
  <circle cx="63" cy="501" r="5" fill="#1565C0"/>
  <rect x="75" y="491" width="70" height="20" rx="10" fill="#1565C0"/>
  <text x="110" y="505" fill="white" font-size="10" text-anchor="middle">tag2</text>
  <circle cx="63" cy="529" r="5" fill="#1565C0"/>
  <rect x="75" y="519" width="70" height="20" rx="10" fill="#1565C0"/>
  <text x="110" y="533" fill="white" font-size="10" text-anchor="middle">tag2</text>
  <text x="120" y="571" fill="#555555" font-size="10" text-anchor="middle">[value1, value2, value3]</text>

  <!-- MAP sub-panel -->
  <rect x="228" y="436" width="190" height="205" rx="6" fill="white" stroke="#E55B2B" stroke-width="1.5"/>
  <text x="323" y="458" fill="#1A1A1A" font-size="14" font-weight="bold" text-anchor="middle">MAP</text>
  <!-- Key icon: circle with crosshair + diagonal shaft + teeth -->
  <circle cx="277" cy="505" r="16" fill="none" stroke="#1565C0" stroke-width="2.5"/>
  <line x1="261" y1="505" x2="293" y2="505" stroke="#1565C0" stroke-width="1.8"/>
  <line x1="277" y1="489" x2="277" y2="521" stroke="#1565C0" stroke-width="1.8"/>
  <line x1="289" y1="516" x2="316" y2="536" stroke="#1565C0" stroke-width="3" stroke-linecap="round"/>
  <line x1="308" y1="530" x2="314" y2="523" stroke="#1565C0" stroke-width="2.2" stroke-linecap="round"/>
  <line x1="313" y1="534" x2="319" y2="527" stroke="#1565C0" stroke-width="2.2" stroke-linecap="round"/>
  <!-- Arrow -->
  <line x1="328" y1="505" x2="342" y2="505" stroke="#555555" stroke-width="1.5"/>
  <polygon points="342,502 348,505 342,508" fill="#555555"/>
  <!-- Chest body -->
  <rect x="352" y="491" width="48" height="33" rx="4" fill="#8B5E20"/>
  <rect x="352" y="491" width="48" height="14" rx="4" fill="#A8742A"/>
  <line x1="352" y1="505" x2="400" y2="505" stroke="#6E4A18" stroke-width="1"/>
  <rect x="352" y="502" width="48" height="4" fill="#7A5018" opacity="0.6"/>
  <rect x="370" y="503" width="12" height="12" rx="2" fill="#D4A820"/>
  <circle cx="376" cy="507" r="3.5" fill="none" stroke="#8B6010" stroke-width="1.5"/>
  <rect x="374" y="510" width="4" height="4" rx="1" fill="#8B6010"/>
  <text x="323" y="558" fill="#555555" font-size="9.5" text-anchor="middle">{key1: value1, key2: value2}</text>

  <!-- STRUCT sub-panel -->
  <rect x="431" y="436" width="237" height="205" rx="6" fill="white" stroke="#E55B2B" stroke-width="1.5"/>
  <text x="549" y="458" fill="#1A1A1A" font-size="14" font-weight="bold" text-anchor="middle">STRUCT</text>
  <!-- Table: single outer border -->
  <rect x="481" y="467" width="112" height="54" rx="3" fill="white" stroke="#1565C0" stroke-width="2"/>
  <!-- Fields cell (blue) -->
  <rect x="481" y="467" width="40" height="26" rx="2" fill="#1565C0"/>
  <rect x="481" y="480" width="40" height="13" fill="#1565C0"/>
  <text x="501" y="484" fill="white" font-size="9" text-anchor="middle" font-weight="bold">Fields</text>
  <!-- Name cell (orange) -->
  <rect x="523" y="467" width="70" height="26" rx="2" fill="#E55B2B"/>
  <rect x="523" y="480" width="70" height="13" fill="#E55B2B"/>
  <text x="558" y="484" fill="white" font-size="9" text-anchor="middle" font-weight="bold">Name</text>
  <!-- Separator line -->
  <line x1="481" y1="493" x2="593" y2="493" stroke="#CCCCCC" stroke-width="0.8"/>
  <!-- Second row: left blank, right orange -->
  <rect x="481" y="493" width="40" height="28" fill="#F5F5F5"/>
  <rect x="523" y="493" width="70" height="28" fill="#E55B2B"/>
  <text x="558" y="511" fill="white" font-size="9" text-anchor="middle">Address</text>
  <!-- Redraw outer border on top -->
  <rect x="481" y="467" width="112" height="54" rx="3" fill="none" stroke="#1565C0" stroke-width="2"/>
  <text x="549" y="549" fill="#555555" font-size="9" text-anchor="middle">{field1: value1,</text>
  <text x="549" y="562" fill="#555555" font-size="9" text-anchor="middle">field2: {subfieldt: value1}}</text>

  <!-- Data flow diagram (centered ~x=323 in panel) -->
  <rect x="243" y="663" width="44" height="22" rx="3" fill="#1565C0"/>
  <text x="265" y="678" fill="white" font-size="9" text-anchor="middle" font-weight="bold">data</text>
  <line x1="287" y1="674" x2="300" y2="674" stroke="#555555" stroke-width="1.5"/>
  <polygon points="300,671 305,674 300,677" fill="#555555"/>
  <!-- Top-right box -->
  <rect x="305" y="658" width="38" height="22" rx="3" fill="#E55B2B"/>
  <!-- Arrow right from top box -->
  <line x1="343" y1="669" x2="356" y2="669" stroke="#555555" stroke-width="1.5"/>
  <polygon points="356,666 361,669 356,672" fill="#555555"/>
  <!-- Top-far-right box -->
  <rect x="361" y="658" width="38" height="22" rx="3" fill="#E55B2B"/>
  <!-- Arrow down from top-right box -->
  <line x1="324" y1="680" x2="324" y2="693" stroke="#555555" stroke-width="1.5"/>
  <polygon points="321,693 324,698 327,693" fill="#555555"/>
  <!-- Bottom-middle box -->
  <rect x="305" y="698" width="38" height="22" rx="3" fill="#E55B2B"/>
  <!-- Arrow right from bottom-middle box -->
  <line x1="343" y1="709" x2="356" y2="709" stroke="#555555" stroke-width="1.5"/>
  <polygon points="356,706 361,709 356,712" fill="#555555"/>
  <!-- Bottom-right box -->
  <rect x="361" y="698" width="38" height="22" rx="3" fill="#E55B2B"/>

  <!-- ===================== PANEL 4: BEST PRACTICES ===================== -->
  <rect x="698" y="378" width="695" height="375" rx="7" fill="#FFFFFF" filter="url(#shadow)"/>

  <!-- Header -->
  <rect x="708" y="387" width="194" height="37" rx="5" fill="#1565C0"/>
  <text x="719" y="411" fill="white" font-size="19" font-weight="bold">Best Practices</text>

  <!-- Item 1 -->
  <circle cx="742" cy="460" r="21" fill="#1565C0"/>
  <path d="M733,460 L739,467 L752,452" fill="none" stroke="white" stroke-width="2.8" stroke-linecap="round" stroke-linejoin="round"/>
  <text x="776" y="466" fill="#1A1A1A" font-size="17" font-weight="bold">Match type to value range.</text>

  <!-- Item 2 -->
  <circle cx="742" cy="528" r="21" fill="#1565C0"/>
  <path d="M733,528 L739,535 L752,520" fill="none" stroke="white" stroke-width="2.8" stroke-linecap="round" stroke-linejoin="round"/>
  <text x="776" y="534" fill="#1A1A1A" font-size="17" font-weight="bold">Use DECIMAL for financial data.</text>

  <!-- Item 3 -->
  <circle cx="742" cy="596" r="21" fill="#1565C0"/>
  <path d="M733,596 L739,603 L752,588" fill="none" stroke="white" stroke-width="2.8" stroke-linecap="round" stroke-linejoin="round"/>
  <text x="776" y="602" fill="#1A1A1A" font-size="17" font-weight="bold">Validate types during ingestion (CAST).</text>

  <!-- Item 4 -->
  <circle cx="742" cy="664" r="21" fill="#1565C0"/>
  <path d="M733,664 L739,671 L752,656" fill="none" stroke="white" stroke-width="2.8" stroke-linecap="round" stroke-linejoin="round"/>
  <text x="776" y="670" fill="#1A1A1A" font-size="17" font-weight="bold">Use explicit casts (not implicit).</text>

</svg>
