<?plantuml 1.2026.2?><svg xmlns="http://www.w3.org/2000/svg" xmlns:xlink="http://www.w3.org/1999/xlink" contentStyleType="text/css" data-diagram-type="MINDMAP" height="246px" preserveAspectRatio="none" style="width:618px;height:246px;background:#FFFFFF;" version="1.1" viewBox="0 0 618 246" width="618px" zoomAndPan="magnify"><defs/><g><rect fill="#FF5F46" height="52.9766" rx="12.5" ry="12.5" style="stroke:#FF5F46;stroke-width:3;" width="109.6396" x="10" y="95.9766"/><text fill="#FFFFFF" font-family="sans-serif" font-size="14" lengthAdjust="spacing" textLength="77.2393" x="20" y="119.5117">Ingest Data</text><text fill="#FFFFFF" font-family="sans-serif" font-size="14" lengthAdjust="spacing" textLength="89.6396" x="20" y="136">from Sources</text><rect fill="#0078D4" height="36.4883" rx="12.5" ry="12.5" style="stroke:#0078D4;stroke-width:3;" width="93.2949" x="169.6396" y="20"/><text fill="#FFFFFF" font-family="sans-serif" font-size="14" lengthAdjust="spacing" textLength="73.2949" x="179.6396" y="43.5352">Entry Point</text><text fill="#000000" font-family="sans-serif" font-size="14" lengthAdjust="spacing" textLength="233.4131" x="315.9346" y="25.0469">Capture data from source systems</text><path d="M262.9346,38.2441 L272.9346,38.2441 C287.9346,38.2441 287.9346,19.7559 302.9346,19.7559 L312.9346,19.7559" fill="none" style="stroke:#0078D4;stroke-width:3;"/><text fill="#000000" font-family="sans-serif" font-size="14" lengthAdjust="spacing" textLength="187.7832" x="315.9346" y="43.5352">Preserve original (raw) form</text><path d="M262.9346,38.2441 L272.9346,38.2441 C287.9346,38.2441 287.9346,38.2441 302.9346,38.2441 L312.9346,38.2441" fill="none" style="stroke:#0078D4;stroke-width:3;"/><text fill="#000000" font-family="sans-serif" font-size="14" lengthAdjust="spacing" textLength="206.1309" x="315.9346" y="62.0234">Bronze layer in medallion arch</text><path d="M262.9346,38.2441 L272.9346,38.2441 C287.9346,38.2441 287.9346,56.7324 302.9346,56.7324 L312.9346,56.7324" fill="none" style="stroke:#0078D4;stroke-width:3;"/><path d="M119.6396,122.4648 L129.6396,122.4648 C144.6396,122.4648 144.6396,38.2441 159.6396,38.2441 L169.6396,38.2441" fill="none" style="stroke:#FF5F46;stroke-width:3;"/><rect fill="#0078D4" height="36.4883" rx="12.5" ry="12.5" style="stroke:#0078D4;stroke-width:3;" width="109.8721" x="169.6396" y="104.2207"/><text fill="#FFFFFF" font-family="sans-serif" font-size="14" lengthAdjust="spacing" textLength="89.8721" x="179.6396" y="127.7559">Source Types</text><rect fill="#FFB900" height="36.4883" rx="12.5" ry="12.5" style="stroke:#FFB900;stroke-width:3;" width="88.5713" x="329.5117" y="75.9766"/><text fill="#000000" font-family="sans-serif" font-size="14" lengthAdjust="spacing" textLength="68.5713" x="339.5117" y="99.5117">Streaming</text><text fill="#000000" font-family="sans-serif" font-size="14" lengthAdjust="spacing" textLength="111.7471" x="471.083" y="90.2676">Message queues</text><path d="M418.083,94.2207 L428.083,94.2207 C443.083,94.2207 443.083,84.9766 458.083,84.9766 L468.083,84.9766" fill="none" style="stroke:#FFB900;stroke-width:3;"/><text fill="#000000" font-family="sans-serif" font-size="14" lengthAdjust="spacing" textLength="135.2832" x="471.083" y="108.7559">Continuous delivery</text><path d="M418.083,94.2207 L428.083,94.2207 C443.083,94.2207 443.083,103.4648 458.083,103.4648 L468.083,103.4648" fill="none" style="stroke:#FFB900;stroke-width:3;"/><path d="M279.5117,122.4648 L289.5117,122.4648 C304.5117,122.4648 304.5117,94.2207 319.5117,94.2207 L329.5117,94.2207" fill="none" style="stroke:#0078D4;stroke-width:3;"/><rect fill="#FFB900" height="36.4883" rx="12.5" ry="12.5" style="stroke:#FFB900;stroke-width:3;" width="56.8799" x="329.5117" y="132.4648"/><text fill="#000000" font-family="sans-serif" font-size="14" lengthAdjust="spacing" textLength="36.8799" x="339.5117" y="156">Batch</text><text fill="#000000" font-family="sans-serif" font-size="14" lengthAdjust="spacing" textLength="166.3047" x="439.3916" y="146.7559">Databases / file systems</text><path d="M386.3916,150.709 L396.3916,150.709 C411.3916,150.709 411.3916,141.4648 426.3916,141.4648 L436.3916,141.4648" fill="none" style="stroke:#FFB900;stroke-width:3;"/><text fill="#000000" font-family="sans-serif" font-size="14" lengthAdjust="spacing" textLength="131.4482" x="439.3916" y="165.2441">Scheduled intervals</text><path d="M386.3916,150.709 L396.3916,150.709 C411.3916,150.709 411.3916,159.9531 426.3916,159.9531 L436.3916,159.9531" fill="none" style="stroke:#FFB900;stroke-width:3;"/><path d="M279.5117,122.4648 L289.5117,122.4648 C304.5117,122.4648 304.5117,150.709 319.5117,150.709 L329.5117,150.709" fill="none" style="stroke:#0078D4;stroke-width:3;"/><path d="M119.6396,122.4648 L129.6396,122.4648 C144.6396,122.4648 144.6396,122.4648 159.6396,122.4648 L169.6396,122.4648" fill="none" style="stroke:#FF5F46;stroke-width:3;"/><rect fill="#0078D4" height="36.4883" rx="12.5" ry="12.5" style="stroke:#0078D4;stroke-width:3;" width="86.3154" x="169.6396" y="188.4414"/><text fill="#FFFFFF" font-family="sans-serif" font-size="14" lengthAdjust="spacing" textLength="66.3154" x="179.6396" y="211.9766">Key Goals</text><text fill="#000000" font-family="sans-serif" font-size="14" lengthAdjust="spacing" textLength="177.8984" x="308.9551" y="193.4883">Reliability &amp; completeness</text><path d="M255.9551,206.6855 L265.9551,206.6855 C280.9551,206.6855 280.9551,188.1973 295.9551,188.1973 L305.9551,188.1973" fill="none" style="stroke:#0078D4;stroke-width:3;"/><text fill="#000000" font-family="sans-serif" font-size="14" lengthAdjust="spacing" textLength="190.9824" x="308.9551" y="211.9766">No data loss during transfer</text><path d="M255.9551,206.6855 L265.9551,206.6855 C280.9551,206.6855 280.9551,206.6855 295.9551,206.6855 L305.9551,206.6855" fill="none" style="stroke:#0078D4;stroke-width:3;"/><text fill="#000000" font-family="sans-serif" font-size="14" lengthAdjust="spacing" textLength="158.2725" x="308.9551" y="230.4648">Incremental processing</text><path d="M255.9551,206.6855 L265.9551,206.6855 C280.9551,206.6855 280.9551,225.1738 295.9551,225.1738 L305.9551,225.1738" fill="none" style="stroke:#0078D4;stroke-width:3;"/><path d="M119.6396,122.4648 L129.6396,122.4648 C144.6396,122.4648 144.6396,206.6855 159.6396,206.6855 L169.6396,206.6855" fill="none" style="stroke:#FF5F46;stroke-width:3;"/><?plantuml-src VPDHJzmm3CVV-oaiJK9m3qUvCTWGcj31Eg5j20qU9w5Sw_OYqhXp7BQ2zjtdfhTDT3hy5ljN__zschCWXgMrlcfDbvq6wHs-pqugx6Izc-_1KmOQIrFUDqpHL-VaYE5LKRmf3ezIxRFr-7-s82-RR9tYBtkxjkMznn3WzJpFVltHEjYgbUV7RoyEfrgJxFEk4mT5YdzQYwrQTRrwb-TJhKdsHQqyXMgjwASRcAUjnEd-PjqpkFGD1e4B8-QRhvbQkA789OPiDeCFNhY7Qx9Uz3YxWtFJIMI4Id58T4WqX3u8jc6ahXa3yWC2iMsiDmvssVpOWvgu7Oabatz4SAP71kkXnSeuPyc3uN8zI8ykuBRlaXLD2AFHtwKPJjhYYuve6eJl4UE83FvqMEiZnG0LElk0tAUFbqPIsu4PHbsPW07seRRkcNSjtvHhhAB3Ids9Jc5SMiKdxE4ZZGUblcftixBEIWyxK5BREHGShcQiNz6u8qTw4LLazGt2neSQUIGkVSdOeXTTJyUa6m_3S6Ue3sBpABA3-I9V7CqNlm40?></g></svg>