<?plantuml 1.2026.2?><svg xmlns="http://www.w3.org/2000/svg" xmlns:xlink="http://www.w3.org/1999/xlink" contentStyleType="text/css" data-diagram-type="MINDMAP" height="247px" preserveAspectRatio="none" style="width:608px;height:247px;background:#FFFFFF;" version="1.1" viewBox="0 0 608 247" width="608px" zoomAndPan="magnify"><defs/><g><rect fill="#FF5F46" height="52.9766" rx="12.5" ry="12.5" style="stroke:#FF5F46;stroke-width:3;" width="153.3418" x="10" y="96.4883"/><text fill="#FFFFFF" font-family="sans-serif" font-size="14" lengthAdjust="spacing" textLength="86.4883" x="20" y="120.0234">Load Data to</text><text fill="#FFFFFF" font-family="sans-serif" font-size="14" lengthAdjust="spacing" textLength="133.3418" x="20" y="136.5117">Target Destinations</text><rect fill="#0078D4" height="36.4883" rx="12.5" ry="12.5" style="stroke:#0078D4;stroke-width:3;" width="74.5029" x="213.3418" y="20"/><text fill="#FFFFFF" font-family="sans-serif" font-size="14" lengthAdjust="spacing" textLength="54.5029" x="223.3418" y="43.5352">Purpose</text><text fill="#000000" font-family="sans-serif" font-size="14" lengthAdjust="spacing" textLength="249.9697" x="340.8447" y="25.0469">Write processed data to tables/views</text><path d="M287.8447,38.2441 L297.8447,38.2441 C312.8447,38.2441 312.8447,19.7559 327.8447,19.7559 L337.8447,19.7559" fill="none" style="stroke:#0078D4;stroke-width:3;"/><text fill="#000000" font-family="sans-serif" font-size="14" lengthAdjust="spacing" textLength="199.7871" x="340.8447" y="43.5352">Handoff to data consumption</text><path d="M287.8447,38.2441 L297.8447,38.2441 C312.8447,38.2441 312.8447,38.2441 327.8447,38.2441 L337.8447,38.2441" fill="none" style="stroke:#0078D4;stroke-width:3;"/><text fill="#000000" font-family="sans-serif" font-size="14" lengthAdjust="spacing" textLength="118.3164" x="340.8447" y="62.0234">Gold layer output</text><path d="M287.8447,38.2441 L297.8447,38.2441 C312.8447,38.2441 312.8447,56.7324 327.8447,56.7324 L337.8447,56.7324" fill="none" style="stroke:#0078D4;stroke-width:3;"/><path d="M163.3418,122.9766 L173.3418,122.9766 C188.3418,122.9766 188.3418,38.2441 203.3418,38.2441 L213.3418,38.2441" fill="none" style="stroke:#FF5F46;stroke-width:3;"/><rect fill="#0078D4" height="36.4883" rx="12.5" ry="12.5" style="stroke:#0078D4;stroke-width:3;" width="108.5596" x="213.3418" y="76.4883"/><text fill="#FFFFFF" font-family="sans-serif" font-size="14" lengthAdjust="spacing" textLength="88.5596" x="223.3418" y="100.0234">Table Design</text><text fill="#000000" font-family="sans-serif" font-size="14" lengthAdjust="spacing" textLength="189.3896" x="374.9014" y="90.7793">Optimize for query patterns</text><path d="M321.9014,94.7324 L331.9014,94.7324 C346.9014,94.7324 346.9014,85.4883 361.9014,85.4883 L371.9014,85.4883" fill="none" style="stroke:#0078D4;stroke-width:3;"/><text fill="#000000" font-family="sans-serif" font-size="14" lengthAdjust="spacing" textLength="149.5293" x="374.9014" y="109.2676">Partitioning strategies</text><path d="M321.9014,94.7324 L331.9014,94.7324 C346.9014,94.7324 346.9014,103.9766 361.9014,103.9766 L371.9014,103.9766" fill="none" style="stroke:#0078D4;stroke-width:3;"/><path d="M163.3418,122.9766 L173.3418,122.9766 C188.3418,122.9766 188.3418,94.7324 203.3418,94.7324 L213.3418,94.7324" fill="none" style="stroke:#FF5F46;stroke-width:3;"/><rect fill="#0078D4" height="36.4883" rx="12.5" ry="12.5" style="stroke:#0078D4;stroke-width:3;" width="114.5137" x="213.3418" y="132.9766"/><text fill="#FFFFFF" font-family="sans-serif" font-size="14" lengthAdjust="spacing" textLength="94.5137" x="223.3418" y="156.5117">Write Patterns</text><text fill="#000000" font-family="sans-serif" font-size="14" lengthAdjust="spacing" textLength="76.7471" x="380.8555" y="138.0234">Full refresh</text><path d="M327.8555,151.2207 L337.8555,151.2207 C352.8555,151.2207 352.8555,132.7324 367.8555,132.7324 L377.8555,132.7324" fill="none" style="stroke:#0078D4;stroke-width:3;"/><text fill="#000000" font-family="sans-serif" font-size="14" lengthAdjust="spacing" textLength="135.0781" x="380.8555" y="156.5117">Incremental append</text><path d="M327.8555,151.2207 L337.8555,151.2207 C352.8555,151.2207 352.8555,151.2207 367.8555,151.2207 L377.8555,151.2207" fill="none" style="stroke:#0078D4;stroke-width:3;"/><text fill="#000000" font-family="sans-serif" font-size="14" lengthAdjust="spacing" textLength="118.9248" x="380.8555" y="175">Merge operations</text><path d="M327.8555,151.2207 L337.8555,151.2207 C352.8555,151.2207 352.8555,169.709 367.8555,169.709 L377.8555,169.709" fill="none" style="stroke:#0078D4;stroke-width:3;"/><path d="M163.3418,122.9766 L173.3418,122.9766 C188.3418,122.9766 188.3418,151.2207 203.3418,151.2207 L213.3418,151.2207" fill="none" style="stroke:#FF5F46;stroke-width:3;"/><rect fill="#0078D4" height="36.4883" rx="12.5" ry="12.5" style="stroke:#0078D4;stroke-width:3;" width="139.1709" x="213.3418" y="189.4648"/><text fill="#FFFFFF" font-family="sans-serif" font-size="14" lengthAdjust="spacing" textLength="119.1709" x="223.3418" y="213">Schema Evolution</text><text fill="#000000" font-family="sans-serif" font-size="14" lengthAdjust="spacing" textLength="173.585" x="405.5127" y="203.7559">Handle structure changes</text><path d="M352.5127,207.709 L362.5127,207.709 C377.5127,207.709 377.5127,198.4648 392.5127,198.4648 L402.5127,198.4648" fill="none" style="stroke:#0078D4;stroke-width:3;"/><text fill="#000000" font-family="sans-serif" font-size="14" lengthAdjust="spacing" textLength="190.5313" x="405.5127" y="222.2441">Avoid breaking downstream</text><path d="M352.5127,207.709 L362.5127,207.709 C377.5127,207.709 377.5127,216.9531 392.5127,216.9531 L402.5127,216.9531" fill="none" style="stroke:#0078D4;stroke-width:3;"/><path d="M163.3418,122.9766 L173.3418,122.9766 C188.3418,122.9766 188.3418,207.709 203.3418,207.709 L213.3418,207.709" fill="none" style="stroke:#FF5F46;stroke-width:3;"/><?plantuml-src VPFHJzim4CRVyrUSj9Uj3oKK1cD24njTnYIcLQ8IBvEcQtn9h3gsPvyB1Ur_nqu25PcwUx8-VxxVTwVamZCwRgKMBThitFDMqQVieo3BpTly7Jnc4EiBbklQcQ35fL76mPkYU5ySdtHtrrBJlsfXD0zgrTMBTzd8Sgt9UpYQvjdVPzRXNbQUdtwO7uzP8_Lrrr62egiTQxQNLLMhipmViqRgVrbvLv6rClSgUHxtEiuFXdLFuDgWW3ao0fjVUeck9eOvUPOQMHhjiya45i5PuoaU9x_XraaciCwK4K82HFyO65SHUx2HTETxvnLgOQegNNQcChOBhKrjUyCtemGet9834zW6Jh1bwfCYo7gm_OnFMlb0KCKf_WHoMx38J4uFe4NyacHgAtKDdXqorPAww7tQnIjx4PG2HvKZt_JATrqwQaapAa1hIOjU_q5n7s0ikTqoRig6MeIl6wF2RfGqQumTuQ7au0ZA1dLD0_7pnaW1AqUuJX65kTFHITXc5v7r_1DaXzDPFZkPpfu0?></g></svg>