<?plantuml 1.2026.2?><svg xmlns="http://www.w3.org/2000/svg" xmlns:xlink="http://www.w3.org/1999/xlink" contentStyleType="text/css" data-diagram-type="MINDMAP" height="247px" preserveAspectRatio="none" style="width:772px;height:247px;background:#FFFFFF;" version="1.1" viewBox="0 0 772 247" width="772px" zoomAndPan="magnify"><defs/><g><rect fill="#FF5F46" height="52.9766" rx="12.5" ry="12.5" style="stroke:#FF5F46;stroke-width:3;" width="139.3213" x="10" y="96.2324"/><text fill="#FFFFFF" font-family="sans-serif" font-size="14" lengthAdjust="spacing" textLength="67.1494" x="20" y="119.7676">Monitor &amp;</text><text fill="#FFFFFF" font-family="sans-serif" font-size="14" lengthAdjust="spacing" textLength="119.3213" x="20" y="136.2559">Optimize Pipeline</text><rect fill="#0078D4" height="36.4883" rx="12.5" ry="12.5" style="stroke:#0078D4;stroke-width:3;" width="136.9082" x="199.3213" y="76.4883"/><text fill="#FFFFFF" font-family="sans-serif" font-size="14" lengthAdjust="spacing" textLength="116.9082" x="209.3213" y="100.0234">Monitoring Areas</text><rect fill="#FFB900" height="36.4883" rx="12.5" ry="12.5" style="stroke:#FFB900;stroke-width:3;" width="146.3828" x="386.2295" y="20"/><text fill="#000000" font-family="sans-serif" font-size="14" lengthAdjust="spacing" textLength="126.3828" x="396.2295" y="43.5352">Processing Metrics</text><text fill="#000000" font-family="sans-serif" font-size="14" lengthAdjust="spacing" textLength="108.124" x="585.6123" y="25.0469">Execution times</text><path d="M532.6123,38.2441 L542.6123,38.2441 C557.6123,38.2441 557.6123,19.7559 572.6123,19.7559 L582.6123,19.7559" fill="none" style="stroke:#FFB900;stroke-width:3;"/><text fill="#000000" font-family="sans-serif" font-size="14" lengthAdjust="spacing" textLength="96.9131" x="585.6123" y="43.5352">Record counts</text><path d="M532.6123,38.2441 L542.6123,38.2441 C557.6123,38.2441 557.6123,38.2441 572.6123,38.2441 L582.6123,38.2441" fill="none" style="stroke:#FFB900;stroke-width:3;"/><text fill="#000000" font-family="sans-serif" font-size="14" lengthAdjust="spacing" textLength="134.5996" x="585.6123" y="62.0234">Resource utilization</text><path d="M532.6123,38.2441 L542.6123,38.2441 C557.6123,38.2441 557.6123,56.7324 572.6123,56.7324 L582.6123,56.7324" fill="none" style="stroke:#FFB900;stroke-width:3;"/><path d="M336.2295,94.7324 L346.2295,94.7324 C361.2295,94.7324 361.2295,38.2441 376.2295,38.2441 L386.2295,38.2441" fill="none" style="stroke:#0078D4;stroke-width:3;"/><rect fill="#FFB900" height="36.4883" rx="12.5" ry="12.5" style="stroke:#FFB900;stroke-width:3;" width="103.5557" x="386.2295" y="76.4883"/><text fill="#000000" font-family="sans-serif" font-size="14" lengthAdjust="spacing" textLength="83.5557" x="396.2295" y="100.0234">Data Quality</text><text fill="#000000" font-family="sans-serif" font-size="14" lengthAdjust="spacing" textLength="118.2959" x="542.7852" y="81.5352">Validation results</text><path d="M489.7852,94.7324 L499.7852,94.7324 C514.7852,94.7324 514.7852,76.2441 529.7852,76.2441 L539.7852,76.2441" fill="none" style="stroke:#FFB900;stroke-width:3;"/><text fill="#000000" font-family="sans-serif" font-size="14" lengthAdjust="spacing" textLength="149.1602" x="542.7852" y="100.0234">Quality drift detection</text><path d="M489.7852,94.7324 L499.7852,94.7324 C514.7852,94.7324 514.7852,94.7324 529.7852,94.7324 L539.7852,94.7324" fill="none" style="stroke:#FFB900;stroke-width:3;"/><text fill="#000000" font-family="sans-serif" font-size="14" lengthAdjust="spacing" textLength="140.417" x="542.7852" y="118.5117">Invalid record spikes</text><path d="M489.7852,94.7324 L499.7852,94.7324 C514.7852,94.7324 514.7852,113.2207 529.7852,113.2207 L539.7852,113.2207" fill="none" style="stroke:#FFB900;stroke-width:3;"/><path d="M336.2295,94.7324 L346.2295,94.7324 C361.2295,94.7324 361.2295,94.7324 376.2295,94.7324 L386.2295,94.7324" fill="none" style="stroke:#0078D4;stroke-width:3;"/><rect fill="#FFB900" height="36.4883" rx="12.5" ry="12.5" style="stroke:#FFB900;stroke-width:3;" width="154.4834" x="386.2295" y="132.9766"/><text fill="#000000" font-family="sans-serif" font-size="14" lengthAdjust="spacing" textLength="134.4834" x="396.2295" y="156.5117">Cost &amp; Performance</text><text fill="#000000" font-family="sans-serif" font-size="14" lengthAdjust="spacing" textLength="167.207" x="593.7129" y="147.2676">Compute usage patterns</text><path d="M540.7129,151.2207 L550.7129,151.2207 C565.7129,151.2207 565.7129,141.9766 580.7129,141.9766 L590.7129,141.9766" fill="none" style="stroke:#FFB900;stroke-width:3;"/><text fill="#000000" font-family="sans-serif" font-size="14" lengthAdjust="spacing" textLength="140.0342" x="593.7129" y="165.7559">Off-peak scheduling</text><path d="M540.7129,151.2207 L550.7129,151.2207 C565.7129,151.2207 565.7129,160.4648 580.7129,160.4648 L590.7129,160.4648" fill="none" style="stroke:#FFB900;stroke-width:3;"/><path d="M336.2295,94.7324 L346.2295,94.7324 C361.2295,94.7324 361.2295,151.2207 376.2295,151.2207 L386.2295,151.2207" fill="none" style="stroke:#0078D4;stroke-width:3;"/><path d="M149.3213,122.7207 L159.3213,122.7207 C174.3213,122.7207 174.3213,94.7324 189.3213,94.7324 L199.3213,94.7324" fill="none" style="stroke:#FF5F46;stroke-width:3;"/><rect fill="#0078D4" height="36.4883" rx="12.5" ry="12.5" style="stroke:#0078D4;stroke-width:3;" width="108.416" x="199.3213" y="188.9531"/><text fill="#FFFFFF" font-family="sans-serif" font-size="14" lengthAdjust="spacing" textLength="88.416" x="209.3213" y="212.4883">Optimization</text><text fill="#000000" font-family="sans-serif" font-size="14" lengthAdjust="spacing" textLength="132.6035" x="360.7373" y="194">Adjust cluster sizes</text><path d="M307.7373,207.1973 L317.7373,207.1973 C332.7373,207.1973 332.7373,188.709 347.7373,188.709 L357.7373,188.709" fill="none" style="stroke:#0078D4;stroke-width:3;"/><text fill="#000000" font-family="sans-serif" font-size="14" lengthAdjust="spacing" textLength="152.4893" x="360.7373" y="212.4883">Revisit pipeline design</text><path d="M307.7373,207.1973 L317.7373,207.1973 C332.7373,207.1973 332.7373,207.1973 347.7373,207.1973 L357.7373,207.1973" fill="none" style="stroke:#0078D4;stroke-width:3;"/><text fill="#000000" font-family="sans-serif" font-size="14" lengthAdjust="spacing" textLength="209.4668" x="360.7373" y="230.9766">Ongoing activity as data grows</text><path d="M307.7373,207.1973 L317.7373,207.1973 C332.7373,207.1973 332.7373,225.6855 347.7373,225.6855 L357.7373,225.6855" fill="none" style="stroke:#0078D4;stroke-width:3;"/><path d="M149.3213,122.7207 L159.3213,122.7207 C174.3213,122.7207 174.3213,207.1973 189.3213,207.1973 L199.3213,207.1973" fill="none" style="stroke:#FF5F46;stroke-width:3;"/><?plantuml-src VPFRQjj048RlzHG3WT0OwYfk3aq89ObJGI31RYYzAeJDxaYUMjfTTaTk3kJTErBN3bLnvqAWVmxVp8zq7ba5RiYQHldiBF9JZP-pKuEU5-_oFNZ9GE9IwMKLN6lDrDKkm4vH71O7HttkXYp-gnRESbBBFZQrtnQabnPZX8_ZF7jTi_QtilBy-DFLmP0rKF-UEjYWwEEDDTdAAik7apmViWRgVrbv7y9wS8zrL_EojUBiGx9x1BVE4ajozuUTUQQ6dX7cvB4MN3RQvCbMS15GHT56C0zE2w4JRv43wLuUtSENHzGjaxCWet2jtg5smO2MS_bDYwuD6a7AQtfMNLC_-qgnWg-jgecVKkrtUJ5z1GICRRqPaih012eP33BgzHp9NjjLroWzFJvwMlvP2QOkCkp274FfGgEinjGoTOrlMPQAgaBmYXc3NTDcPVdUerf2r0iqhJXKTGubspONtCE5-TaAGDVon01HF8rPkdf5aHXySbXsZbIbjfcjN6UfaYDMtLagWkdSa0_bLypEKNwLzBja--D9FZaQJtu3?></g></svg>