<?plantuml 1.2026.2?><svg xmlns="http://www.w3.org/2000/svg" xmlns:xlink="http://www.w3.org/1999/xlink" contentStyleType="text/css" data-diagram-type="MINDMAP" height="237px" preserveAspectRatio="none" style="width:684px;height:237px;background:#FFFFFF;" version="1.1" viewBox="0 0 684 237" width="684px" zoomAndPan="magnify"><defs/><g><rect fill="#FF5F46" height="52.9766" rx="12.5" ry="12.5" style="stroke:#FF5F46;stroke-width:3;" width="114.8008" x="10" y="91.3545"/><text fill="#FFFFFF" font-family="sans-serif" font-size="14" lengthAdjust="spacing" textLength="71.7295" x="20" y="114.8896">Serve Data</text><text fill="#FFFFFF" font-family="sans-serif" font-size="14" lengthAdjust="spacing" textLength="94.8008" x="20" y="131.3779">to Consumers</text><rect fill="#0078D4" height="36.4883" rx="12.5" ry="12.5" style="stroke:#0078D4;stroke-width:3;" width="74.5029" x="174.8008" y="20"/><text fill="#FFFFFF" font-family="sans-serif" font-size="14" lengthAdjust="spacing" textLength="54.5029" x="184.8008" y="43.5352">Purpose</text><text fill="#000000" font-family="sans-serif" font-size="14" lengthAdjust="spacing" textLength="239.709" x="302.3037" y="34.291">Make data accessible to consumers</text><path d="M249.3037,38.2441 L259.3037,38.2441 C274.3037,38.2441 274.3037,29 289.3037,29 L299.3037,29" fill="none" style="stroke:#0078D4;stroke-width:3;"/><text fill="#000000" font-family="sans-serif" font-size="14" lengthAdjust="spacing" textLength="235.7031" x="302.3037" y="52.7793">Bridge engineering &amp; consumption</text><path d="M249.3037,38.2441 L259.3037,38.2441 C274.3037,38.2441 274.3037,47.4883 289.3037,47.4883 L299.3037,47.4883" fill="none" style="stroke:#0078D4;stroke-width:3;"/><path d="M124.8008,117.8428 L134.8008,117.8428 C149.8008,117.8428 149.8008,38.2441 164.8008,38.2441 L174.8008,38.2441" fill="none" style="stroke:#FF5F46;stroke-width:3;"/><rect fill="#0078D4" height="36.4883" rx="12.5" ry="12.5" style="stroke:#0078D4;stroke-width:3;" width="125.7998" x="174.8008" y="94.9766"/><text fill="#FFFFFF" font-family="sans-serif" font-size="14" lengthAdjust="spacing" textLength="105.7998" x="184.8008" y="118.5117">Access Patterns</text><rect fill="#FFB900" height="36.4883" rx="12.5" ry="12.5" style="stroke:#FFB900;stroke-width:3;" width="120.7207" x="350.6006" y="66.7324"/><text fill="#000000" font-family="sans-serif" font-size="14" lengthAdjust="spacing" textLength="100.7207" x="360.6006" y="90.2676">Views &amp; Layers</text><text fill="#000000" font-family="sans-serif" font-size="14" lengthAdjust="spacing" textLength="148.5244" x="524.3213" y="81.0234">Dashboards &amp; reports</text><path d="M471.3213,84.9766 L481.3213,84.9766 C496.3213,84.9766 496.3213,75.7324 511.3213,75.7324 L521.3213,75.7324" fill="none" style="stroke:#FFB900;stroke-width:3;"/><text fill="#000000" font-family="sans-serif" font-size="14" lengthAdjust="spacing" textLength="120.1143" x="524.3213" y="99.5117">Analytical queries</text><path d="M471.3213,84.9766 L481.3213,84.9766 C496.3213,84.9766 496.3213,94.2207 511.3213,94.2207 L521.3213,94.2207" fill="none" style="stroke:#FFB900;stroke-width:3;"/><path d="M300.6006,113.2207 L310.6006,113.2207 C325.6006,113.2207 325.6006,84.9766 340.6006,84.9766 L350.6006,84.9766" fill="none" style="stroke:#0078D4;stroke-width:3;"/><rect fill="#FFB900" height="36.4883" rx="12.5" ry="12.5" style="stroke:#FFB900;stroke-width:3;" width="105.2031" x="350.6006" y="123.2207"/><text fill="#000000" font-family="sans-serif" font-size="14" lengthAdjust="spacing" textLength="85.2031" x="360.6006" y="146.7559">Performance</text><text fill="#000000" font-family="sans-serif" font-size="14" lengthAdjust="spacing" textLength="132.1113" x="508.8037" y="128.2676">Compute resources</text><path d="M455.8037,141.4648 L465.8037,141.4648 C480.8037,141.4648 480.8037,122.9766 495.8037,122.9766 L505.8037,122.9766" fill="none" style="stroke:#FFB900;stroke-width:3;"/><text fill="#000000" font-family="sans-serif" font-size="14" lengthAdjust="spacing" textLength="125.7539" x="508.8037" y="146.7559">Caching strategies</text><path d="M455.8037,141.4648 L465.8037,141.4648 C480.8037,141.4648 480.8037,141.4648 495.8037,141.4648 L505.8037,141.4648" fill="none" style="stroke:#FFB900;stroke-width:3;"/><text fill="#000000" font-family="sans-serif" font-size="14" lengthAdjust="spacing" textLength="92.8252" x="508.8037" y="165.2441">Query latency</text><path d="M455.8037,141.4648 L465.8037,141.4648 C480.8037,141.4648 480.8037,159.9531 495.8037,159.9531 L505.8037,159.9531" fill="none" style="stroke:#FFB900;stroke-width:3;"/><path d="M300.6006,113.2207 L310.6006,113.2207 C325.6006,113.2207 325.6006,141.4648 340.6006,141.4648 L350.6006,141.4648" fill="none" style="stroke:#0078D4;stroke-width:3;"/><path d="M124.8008,117.8428 L134.8008,117.8428 C149.8008,117.8428 149.8008,113.2207 164.8008,113.2207 L174.8008,113.2207" fill="none" style="stroke:#FF5F46;stroke-width:3;"/><rect fill="#0078D4" height="36.4883" rx="12.5" ry="12.5" style="stroke:#0078D4;stroke-width:3;" width="121.0898" x="174.8008" y="179.1973"/><text fill="#FFFFFF" font-family="sans-serif" font-size="14" lengthAdjust="spacing" textLength="101.0898" x="184.8008" y="202.7324">Access Control</text><text fill="#000000" font-family="sans-serif" font-size="14" lengthAdjust="spacing" textLength="109.6143" x="348.8906" y="184.2441">Security policies</text><path d="M295.8906,197.4414 L305.8906,197.4414 C320.8906,197.4414 320.8906,178.9531 335.8906,178.9531 L345.8906,178.9531" fill="none" style="stroke:#0078D4;stroke-width:3;"/><text fill="#000000" font-family="sans-serif" font-size="14" lengthAdjust="spacing" textLength="126.2666" x="348.8906" y="202.7324">Role-based access</text><path d="M295.8906,197.4414 L305.8906,197.4414 C320.8906,197.4414 320.8906,197.4414 335.8906,197.4414 L345.8906,197.4414" fill="none" style="stroke:#0078D4;stroke-width:3;"/><text fill="#000000" font-family="sans-serif" font-size="14" lengthAdjust="spacing" textLength="126.6631" x="348.8906" y="221.2207">Data authorization</text><path d="M295.8906,197.4414 L305.8906,197.4414 C320.8906,197.4414 320.8906,215.9297 335.8906,215.9297 L345.8906,215.9297" fill="none" style="stroke:#0078D4;stroke-width:3;"/><path d="M124.8008,117.8428 L134.8008,117.8428 C149.8008,117.8428 149.8008,197.4414 164.8008,197.4414 L174.8008,197.4414" fill="none" style="stroke:#FF5F46;stroke-width:3;"/><?plantuml-src VLBHRjH037pFLrX2Gd0IHtgqXQ8AjRrJdefqj8YdIfMpyIMhswo3rm52nR-pINEbfBhwQJKUpzYZFGkAehNrHOrDSXgqS_Gf-LXGezMhz3NS9H3h0iss56vziMJ70Y-ox2WxF1vwbzRJKpHZhoEw6Ug1-xMoPkif17WtJvC_Ew-3lLvf-lx3wd3gDK7_Lvria0trpsknrskpoK_ITEerGP_rIeUANZd_SZtdRY_ZzEqOzmokINuGh53nnYl3adreQvAGp6QmRgNXGF4vkuNFk2Ke8W_Gc2XlSqSG9yoZYKYx45kK1EJBk2-9zIMy73cDMlQzxlaW06jK9V7387opz3D4wYLserOKMs6eSaOf-evGmwAxrhb7rwarwE1x6tteNcPDic6fqHiQYKkkcrOfZWTknT1EO8ccwhSBAgXKseV6boZNWOkWDzsZTMCqAkpkpxmcquhL3Xfsrep3jt35Zjxa6AWOKqh6E_hOMgrOx6ySOZYZ-F77pvySp1VfudY--0i0?></g></svg>