<?plantuml 1.2026.2?><svg xmlns="http://www.w3.org/2000/svg" xmlns:xlink="http://www.w3.org/1999/xlink" contentStyleType="text/css" data-diagram-type="MINDMAP" height="303px" preserveAspectRatio="none" style="width:713px;height:303px;background:#FFFFFF;" version="1.1" viewBox="0 0 713 303" width="713px" zoomAndPan="magnify"><defs/><g><rect fill="#FF5F46" height="52.9766" rx="12.5" ry="12.5" style="stroke:#FF5F46;stroke-width:3;" width="135.1582" x="10" y="124.4766"/><text fill="#FFFFFF" font-family="sans-serif" font-size="14" lengthAdjust="spacing" textLength="106.2988" x="20" y="148.0117">Transform Data</text><text fill="#FFFFFF" font-family="sans-serif" font-size="14" lengthAdjust="spacing" textLength="115.1582" x="20" y="164.5">for Consumption</text><rect fill="#0078D4" height="36.4883" rx="12.5" ry="12.5" style="stroke:#0078D4;stroke-width:3;" width="74.5029" x="195.1582" y="20"/><text fill="#FFFFFF" font-family="sans-serif" font-size="14" lengthAdjust="spacing" textLength="54.5029" x="205.1582" y="43.5352">Purpose</text><text fill="#000000" font-family="sans-serif" font-size="14" lengthAdjust="spacing" textLength="139.542" x="322.6611" y="25.0469">Apply business logic</text><path d="M269.6611,38.2441 L279.6611,38.2441 C294.6611,38.2441 294.6611,19.7559 309.6611,19.7559 L319.6611,19.7559" fill="none" style="stroke:#0078D4;stroke-width:3;"/><text fill="#000000" font-family="sans-serif" font-size="14" lengthAdjust="spacing" textLength="176.8662" x="322.6611" y="43.5352">Shape data for consumers</text><path d="M269.6611,38.2441 L279.6611,38.2441 C294.6611,38.2441 294.6611,38.2441 309.6611,38.2441 L319.6611,38.2441" fill="none" style="stroke:#0078D4;stroke-width:3;"/><text fill="#000000" font-family="sans-serif" font-size="14" lengthAdjust="spacing" textLength="190.8115" x="322.6611" y="62.0234">Gold layer in medallion arch</text><path d="M269.6611,38.2441 L279.6611,38.2441 C294.6611,38.2441 294.6611,56.7324 309.6611,56.7324 L319.6611,56.7324" fill="none" style="stroke:#0078D4;stroke-width:3;"/><path d="M145.1582,150.9648 L155.1582,150.9648 C170.1582,150.9648 170.1582,38.2441 185.1582,38.2441 L195.1582,38.2441" fill="none" style="stroke:#FF5F46;stroke-width:3;"/><rect fill="#0078D4" height="36.4883" rx="12.5" ry="12.5" style="stroke:#0078D4;stroke-width:3;" width="75.2959" x="195.1582" y="160.709"/><text fill="#FFFFFF" font-family="sans-serif" font-size="14" lengthAdjust="spacing" textLength="55.2959" x="205.1582" y="184.2441">Patterns</text><rect fill="#FFB900" height="36.4883" rx="12.5" ry="12.5" style="stroke:#FFB900;stroke-width:3;" width="67.1543" x="320.4541" y="75.9766"/><text fill="#000000" font-family="sans-serif" font-size="14" lengthAdjust="spacing" textLength="47.1543" x="330.4541" y="99.5117">Joining</text><text fill="#000000" font-family="sans-serif" font-size="14" lengthAdjust="spacing" textLength="121.9531" x="440.6084" y="90.2676">Combine datasets</text><path d="M387.6084,94.2207 L397.6084,94.2207 C412.6084,94.2207 412.6084,84.9766 427.6084,84.9766 L437.6084,84.9766" fill="none" style="stroke:#FFB900;stroke-width:3;"/><text fill="#000000" font-family="sans-serif" font-size="14" lengthAdjust="spacing" textLength="137.0879" x="440.6084" y="108.7559">Create unified views</text><path d="M387.6084,94.2207 L397.6084,94.2207 C412.6084,94.2207 412.6084,103.4648 427.6084,103.4648 L437.6084,103.4648" fill="none" style="stroke:#FFB900;stroke-width:3;"/><path d="M270.4541,178.9531 L280.4541,178.9531 C295.4541,178.9531 295.4541,94.2207 310.4541,94.2207 L320.4541,94.2207" fill="none" style="stroke:#0078D4;stroke-width:3;"/><rect fill="#FFB900" height="36.4883" rx="12.5" ry="12.5" style="stroke:#FFB900;stroke-width:3;" width="103.6787" x="320.4541" y="132.4648"/><text fill="#000000" font-family="sans-serif" font-size="14" lengthAdjust="spacing" textLength="83.6787" x="330.4541" y="156">Aggregation</text><text fill="#000000" font-family="sans-serif" font-size="14" lengthAdjust="spacing" textLength="76.043" x="477.1328" y="146.7559">Daily totals</text><path d="M424.1328,150.709 L434.1328,150.709 C449.1328,150.709 449.1328,141.4648 464.1328,141.4648 L474.1328,141.4648" fill="none" style="stroke:#FFB900;stroke-width:3;"/><text fill="#000000" font-family="sans-serif" font-size="14" lengthAdjust="spacing" textLength="118.9658" x="477.1328" y="165.2441">Monthly averages</text><path d="M424.1328,150.709 L434.1328,150.709 C449.1328,150.709 449.1328,159.9531 464.1328,159.9531 L474.1328,159.9531" fill="none" style="stroke:#FFB900;stroke-width:3;"/><path d="M270.4541,178.9531 L280.4541,178.9531 C295.4541,178.9531 295.4541,150.709 310.4541,150.709 L320.4541,150.709" fill="none" style="stroke:#0078D4;stroke-width:3;"/><rect fill="#FFB900" height="36.4883" rx="12.5" ry="12.5" style="stroke:#FFB900;stroke-width:3;" width="132.5264" x="320.4541" y="188.9531"/><text fill="#000000" font-family="sans-serif" font-size="14" lengthAdjust="spacing" textLength="112.5264" x="330.4541" y="212.4883">Denormalization</text><text fill="#000000" font-family="sans-serif" font-size="14" lengthAdjust="spacing" textLength="125.2412" x="505.9805" y="203.2441">Flatten hierarchies</text><path d="M452.9805,207.1973 L462.9805,207.1973 C477.9805,207.1973 477.9805,197.9531 492.9805,197.9531 L502.9805,197.9531" fill="none" style="stroke:#FFB900;stroke-width:3;"/><text fill="#000000" font-family="sans-serif" font-size="14" lengthAdjust="spacing" textLength="195.3916" x="505.9805" y="221.7324">Optimize query performance</text><path d="M452.9805,207.1973 L462.9805,207.1973 C477.9805,207.1973 477.9805,216.4414 492.9805,216.4414 L502.9805,216.4414" fill="none" style="stroke:#FFB900;stroke-width:3;"/><path d="M270.4541,178.9531 L280.4541,178.9531 C295.4541,178.9531 295.4541,207.1973 310.4541,207.1973 L320.4541,207.1973" fill="none" style="stroke:#0078D4;stroke-width:3;"/><rect fill="#FFB900" height="36.4883" rx="12.5" ry="12.5" style="stroke:#FFB900;stroke-width:3;" width="119.1279" x="320.4541" y="245.4414"/><text fill="#000000" font-family="sans-serif" font-size="14" lengthAdjust="spacing" textLength="99.1279" x="330.4541" y="268.9766">Business Logic</text><text fill="#000000" font-family="sans-serif" font-size="14" lengthAdjust="spacing" textLength="205.9395" x="492.582" y="259.7324">Calculations &amp; categorizations</text><path d="M439.582,263.6855 L449.582,263.6855 C464.582,263.6855 464.582,254.4414 479.582,254.4414 L489.582,254.4414" fill="none" style="stroke:#FFB900;stroke-width:3;"/><text fill="#000000" font-family="sans-serif" font-size="14" lengthAdjust="spacing" textLength="106.5381" x="492.582" y="278.2207">Derived metrics</text><path d="M439.582,263.6855 L449.582,263.6855 C464.582,263.6855 464.582,272.9297 479.582,272.9297 L489.582,272.9297" fill="none" style="stroke:#FFB900;stroke-width:3;"/><path d="M270.4541,178.9531 L280.4541,178.9531 C295.4541,178.9531 295.4541,263.6855 310.4541,263.6855 L320.4541,263.6855" fill="none" style="stroke:#0078D4;stroke-width:3;"/><path d="M145.1582,150.9648 L155.1582,150.9648 C170.1582,150.9648 170.1582,178.9531 185.1582,178.9531 L195.1582,178.9531" fill="none" style="stroke:#FF5F46;stroke-width:3;"/><?plantuml-src VLDTQzn037pthn0KIdiFL-UQfaq89SaP5qfA2yrZeUXisHPPxxhQzRMNaFzUUS_kXyD5Js8apSmEx8KFAA5bMxRO9US-x0ozJyvAwaBp8dq9zmbeNM5nMulhRRbsnWayo_Ct-V59d5spfSTexcmOqIhMdzsRXejRIzx3wsMQF4nQHmUrqlJjk-nuhZL3_sUTESXZ_TLQ7TIggirfciwrPkYJMcairTguNsROkJ-uSVvgZ7i1DuBMLqvQo33WDwijh9trVTi5TZPPBE1BBvtpfEtYErnsdTd1flSSVHXNSx6VV6sm8oYL1GQI8fAG-FtqWpCb6DoH05jegKHZb1zGYYQAO0WaDcx3HyUMRJtqUhfsxKRL8hMdu2TO20D1RxbYAc7Bz7D_VLdNGZMEzeVL35bD1nVGJDUVD9P6GToIO4txouoi9e66x_wzpitWpKB3kgfscIQIpvfHotS4FtgI7NGaGv9eYnWMN4qfNKyf3RRH5Bs9_1wUGw5lg9sCYXDnHi9RVLHBGRZmoGNfDnc_IdAqNAMha-NgDm00?></g></svg>