<?plantuml 1.2026.2?><svg xmlns="http://www.w3.org/2000/svg" xmlns:xlink="http://www.w3.org/1999/xlink" contentStyleType="text/css" data-diagram-type="MINDMAP" height="304px" preserveAspectRatio="none" style="width:578px;height:304px;background:#FFFFFF;" version="1.1" viewBox="0 0 578 304" width="578px" zoomAndPan="magnify"><defs/><g><rect fill="#FF5F46" height="52.9766" rx="12.5" ry="12.5" style="stroke:#FF5F46;stroke-width:3;" width="100.1377" x="10" y="124.7324"/><text fill="#FFFFFF" font-family="sans-serif" font-size="14" lengthAdjust="spacing" textLength="61.4277" x="20" y="148.2676">Compare</text><text fill="#FFFFFF" font-family="sans-serif" font-size="14" lengthAdjust="spacing" textLength="80.1377" x="20" y="164.7559">Approaches</text><rect fill="#0078D4" height="36.4883" rx="12.5" ry="12.5" style="stroke:#0078D4;stroke-width:3;" width="109.373" x="160.1377" y="20"/><text fill="#FFFFFF" font-family="sans-serif" font-size="14" lengthAdjust="spacing" textLength="89.373" x="170.1377" y="43.5352">Control Level</text><text fill="#000000" font-family="sans-serif" font-size="14" lengthAdjust="spacing" textLength="149.4609" x="322.5107" y="34.291">Notebook: full control</text><path d="M269.5107,38.2441 L279.5107,38.2441 C294.5107,38.2441 294.5107,29 309.5107,29 L319.5107,29" fill="none" style="stroke:#0078D4;stroke-width:3;"/><text fill="#000000" font-family="sans-serif" font-size="14" lengthAdjust="spacing" textLength="198.5703" x="322.5107" y="52.7793">Declarative: system managed</text><path d="M269.5107,38.2441 L279.5107,38.2441 C294.5107,38.2441 294.5107,47.4883 309.5107,47.4883 L319.5107,47.4883" fill="none" style="stroke:#0078D4;stroke-width:3;"/><path d="M110.1377,151.2207 L120.1377,151.2207 C135.1377,151.2207 135.1377,38.2441 150.1377,38.2441 L160.1377,38.2441" fill="none" style="stroke:#FF5F46;stroke-width:3;"/><rect fill="#0078D4" height="36.4883" rx="12.5" ry="12.5" style="stroke:#0078D4;stroke-width:3;" width="136.5254" x="160.1377" y="76.4883"/><text fill="#FFFFFF" font-family="sans-serif" font-size="14" lengthAdjust="spacing" textLength="116.5254" x="170.1377" y="100.0234">Code Complexity</text><text fill="#000000" font-family="sans-serif" font-size="14" lengthAdjust="spacing" textLength="216.3643" x="349.6631" y="90.7793">Notebook: verbose for standard</text><path d="M296.6631,94.7324 L306.6631,94.7324 C321.6631,94.7324 321.6631,85.4883 336.6631,85.4883 L346.6631,85.4883" fill="none" style="stroke:#0078D4;stroke-width:3;"/><text fill="#000000" font-family="sans-serif" font-size="14" lengthAdjust="spacing" textLength="162.832" x="349.6631" y="109.2676">Declarative: concise ETL</text><path d="M296.6631,94.7324 L306.6631,94.7324 C321.6631,94.7324 321.6631,103.9766 336.6631,103.9766 L346.6631,103.9766" fill="none" style="stroke:#0078D4;stroke-width:3;"/><path d="M110.1377,151.2207 L120.1377,151.2207 C135.1377,151.2207 135.1377,94.7324 150.1377,94.7324 L160.1377,94.7324" fill="none" style="stroke:#FF5F46;stroke-width:3;"/><rect fill="#0078D4" height="36.4883" rx="12.5" ry="12.5" style="stroke:#0078D4;stroke-width:3;" width="118.834" x="160.1377" y="132.9766"/><text fill="#FFFFFF" font-family="sans-serif" font-size="14" lengthAdjust="spacing" textLength="98.834" x="170.1377" y="156.5117">Error Handling</text><text fill="#000000" font-family="sans-serif" font-size="14" lengthAdjust="spacing" textLength="161.7451" x="331.9717" y="147.2676">Notebook: custom code</text><path d="M278.9717,151.2207 L288.9717,151.2207 C303.9717,151.2207 303.9717,141.9766 318.9717,141.9766 L328.9717,141.9766" fill="none" style="stroke:#0078D4;stroke-width:3;"/><text fill="#000000" font-family="sans-serif" font-size="14" lengthAdjust="spacing" textLength="171.7871" x="331.9717" y="165.7559">Declarative: built-in retry</text><path d="M278.9717,151.2207 L288.9717,151.2207 C303.9717,151.2207 303.9717,160.4648 318.9717,160.4648 L328.9717,160.4648" fill="none" style="stroke:#0078D4;stroke-width:3;"/><path d="M110.1377,151.2207 L120.1377,151.2207 C135.1377,151.2207 135.1377,151.2207 150.1377,151.2207 L160.1377,151.2207" fill="none" style="stroke:#FF5F46;stroke-width:3;"/><rect fill="#0078D4" height="36.4883" rx="12.5" ry="12.5" style="stroke:#0078D4;stroke-width:3;" width="103.5557" x="160.1377" y="189.4648"/><text fill="#FFFFFF" font-family="sans-serif" font-size="14" lengthAdjust="spacing" textLength="83.5557" x="170.1377" y="213">Data Quality</text><text fill="#000000" font-family="sans-serif" font-size="14" lengthAdjust="spacing" textLength="195.6035" x="316.6934" y="203.7559">Notebook: manual validation</text><path d="M263.6934,207.709 L273.6934,207.709 C288.6934,207.709 288.6934,198.4648 303.6934,198.4648 L313.6934,198.4648" fill="none" style="stroke:#0078D4;stroke-width:3;"/><text fill="#000000" font-family="sans-serif" font-size="14" lengthAdjust="spacing" textLength="170.7275" x="316.6934" y="222.2441">Declarative: expectations</text><path d="M263.6934,207.709 L273.6934,207.709 C288.6934,207.709 288.6934,216.9531 303.6934,216.9531 L313.6934,216.9531" fill="none" style="stroke:#0078D4;stroke-width:3;"/><path d="M110.1377,151.2207 L120.1377,151.2207 C135.1377,151.2207 135.1377,207.709 150.1377,207.709 L160.1377,207.709" fill="none" style="stroke:#FF5F46;stroke-width:3;"/><rect fill="#0078D4" height="36.4883" rx="12.5" ry="12.5" style="stroke:#0078D4;stroke-width:3;" width="74.4893" x="160.1377" y="245.9531"/><text fill="#FFFFFF" font-family="sans-serif" font-size="14" lengthAdjust="spacing" textLength="54.4893" x="170.1377" y="269.4883">Best For</text><text fill="#000000" font-family="sans-serif" font-size="14" lengthAdjust="spacing" textLength="212.0781" x="287.627" y="260.2441">Notebook: custom/prototyping</text><path d="M234.627,264.1973 L244.627,264.1973 C259.627,264.1973 259.627,254.9531 274.627,254.9531 L284.627,254.9531" fill="none" style="stroke:#0078D4;stroke-width:3;"/><text fill="#000000" font-family="sans-serif" font-size="14" lengthAdjust="spacing" textLength="237.1045" x="287.627" y="278.7324">Declarative: production/repeatable</text><path d="M234.627,264.1973 L244.627,264.1973 C259.627,264.1973 259.627,273.4414 274.627,273.4414 L284.627,273.4414" fill="none" style="stroke:#0078D4;stroke-width:3;"/><path d="M110.1377,151.2207 L120.1377,151.2207 C135.1377,151.2207 135.1377,264.1973 150.1377,264.1973 L160.1377,264.1973" fill="none" style="stroke:#FF5F46;stroke-width:3;"/><?plantuml-src VLDTQy8m57tlhmZiPHEcjNDk4ndEZx876Gny78mqkTLWcfJaLXJPVzzjTGwxkljupiav9vTav94xp9IH6S-3eSUTXkTW8277rNLum_O1enbpiLuwMnWviTewTXN7zt6lNt5pPU0l6bk3HpIjvgHTh9HO6_2UtRN3uEidgtinAmmV7gUzUbODFNUjDOYh-SsABcQbQV8KXlMi6lflLbWDPILsgqlD_g9Ys3ckkyKcDikvWm_pakVESh427xHAsA2pcirX0vg0rYTximY9jUi1ImkjcJWe3jmKXEQEezh0WFcTHyXOnWrVWZouIQYID6mLxkf-6t29zS1IAaclmaZkP8Cl9Gf5ijbYNfhEd2FzAycrCikwfoWysepEI6YmIWgbyLOPvW1TsOTDENBsNd3Tq8zkGWJR42d9m9e6HzZc8B1YgmMEmIFjtZNtwj2kqU8kFpK_CoDM5gBqwZZ8WQeb6e8Hq5yv_fUWsux2gD-ElW40?></g></svg>