<?plantuml 1.2026.2?><svg xmlns="http://www.w3.org/2000/svg" xmlns:xlink="http://www.w3.org/1999/xlink" contentStyleType="text/css" data-diagram-type="MINDMAP" height="247px" preserveAspectRatio="none" style="width:655px;height:247px;background:#FFFFFF;" version="1.1" viewBox="0 0 655 247" width="655px" zoomAndPan="magnify"><defs/><g><rect fill="#FF5F46" height="52.9766" rx="12.5" ry="12.5" style="stroke:#FF5F46;stroke-width:3;" width="156.0352" x="10" y="96.4883"/><text fill="#FFFFFF" font-family="sans-serif" font-size="14" lengthAdjust="spacing" textLength="101.3428" x="20" y="120.0234">When Lakeflow</text><text fill="#FFFFFF" font-family="sans-serif" font-size="14" lengthAdjust="spacing" textLength="136.0352" x="20" y="136.5117">Declarative Fits Best</text><rect fill="#0078D4" height="36.4883" rx="12.5" ry="12.5" style="stroke:#0078D4;stroke-width:3;" width="137.2979" x="216.0352" y="20"/><text fill="#FFFFFF" font-family="sans-serif" font-size="14" lengthAdjust="spacing" textLength="117.2979" x="226.0352" y="43.5352">Standardized ETL</text><text fill="#000000" font-family="sans-serif" font-size="14" lengthAdjust="spacing" textLength="119.3828" x="406.333" y="25.0469">Schema evolution</text><path d="M353.333,38.2441 L363.333,38.2441 C378.333,38.2441 378.333,19.7559 393.333,19.7559 L403.333,19.7559" fill="none" style="stroke:#0078D4;stroke-width:3;"/><text fill="#000000" font-family="sans-serif" font-size="14" lengthAdjust="spacing" textLength="191.6934" x="406.333" y="43.5352">Slowly changing dimensions</text><path d="M353.333,38.2441 L363.333,38.2441 C378.333,38.2441 378.333,38.2441 393.333,38.2441 L403.333,38.2441" fill="none" style="stroke:#0078D4;stroke-width:3;"/><text fill="#000000" font-family="sans-serif" font-size="14" lengthAdjust="spacing" textLength="170.1602" x="406.333" y="62.0234">Reduces boilerplate code</text><path d="M353.333,38.2441 L363.333,38.2441 C378.333,38.2441 378.333,56.7324 393.333,56.7324 L403.333,56.7324" fill="none" style="stroke:#0078D4;stroke-width:3;"/><path d="M166.0352,122.9766 L176.0352,122.9766 C191.0352,122.9766 191.0352,38.2441 206.0352,38.2441 L216.0352,38.2441" fill="none" style="stroke:#FF5F46;stroke-width:3;"/><rect fill="#0078D4" height="36.4883" rx="12.5" ry="12.5" style="stroke:#0078D4;stroke-width:3;" width="103.5557" x="216.0352" y="76.4883"/><text fill="#FFFFFF" font-family="sans-serif" font-size="14" lengthAdjust="spacing" textLength="83.5557" x="226.0352" y="100.0234">Data Quality</text><text fill="#000000" font-family="sans-serif" font-size="14" lengthAdjust="spacing" textLength="142.1807" x="372.5908" y="81.5352">Built-in expectations</text><path d="M319.5908,94.7324 L329.5908,94.7324 C344.5908,94.7324 344.5908,76.2441 359.5908,76.2441 L369.5908,76.2441" fill="none" style="stroke:#0078D4;stroke-width:3;"/><text fill="#000000" font-family="sans-serif" font-size="14" lengthAdjust="spacing" textLength="187.6055" x="372.5908" y="100.0234">Quality rules in pipeline def</text><path d="M319.5908,94.7324 L329.5908,94.7324 C344.5908,94.7324 344.5908,94.7324 359.5908,94.7324 L369.5908,94.7324" fill="none" style="stroke:#0078D4;stroke-width:3;"/><text fill="#000000" font-family="sans-serif" font-size="14" lengthAdjust="spacing" textLength="114.6113" x="372.5908" y="118.5117">Tracks violations</text><path d="M319.5908,94.7324 L329.5908,94.7324 C344.5908,94.7324 344.5908,113.2207 359.5908,113.2207 L369.5908,113.2207" fill="none" style="stroke:#0078D4;stroke-width:3;"/><path d="M166.0352,122.9766 L176.0352,122.9766 C191.0352,122.9766 191.0352,94.7324 206.0352,94.7324 L216.0352,94.7324" fill="none" style="stroke:#FF5F46;stroke-width:3;"/><rect fill="#0078D4" height="36.4883" rx="12.5" ry="12.5" style="stroke:#0078D4;stroke-width:3;" width="183.5088" x="216.0352" y="132.9766"/><text fill="#FFFFFF" font-family="sans-serif" font-size="14" lengthAdjust="spacing" textLength="163.5088" x="226.0352" y="156.5117">Auto Dependency Mgmt</text><text fill="#000000" font-family="sans-serif" font-size="14" lengthAdjust="spacing" textLength="190.5859" x="452.5439" y="138.0234">Analyzes table relationships</text><path d="M399.5439,151.2207 L409.5439,151.2207 C424.5439,151.2207 424.5439,132.7324 439.5439,132.7324 L449.5439,132.7324" fill="none" style="stroke:#0078D4;stroke-width:3;"/><text fill="#000000" font-family="sans-serif" font-size="14" lengthAdjust="spacing" textLength="162.0938" x="452.5439" y="156.5117">Correct execution order</text><path d="M399.5439,151.2207 L409.5439,151.2207 C424.5439,151.2207 424.5439,151.2207 439.5439,151.2207 L449.5439,151.2207" fill="none" style="stroke:#0078D4;stroke-width:3;"/><text fill="#000000" font-family="sans-serif" font-size="14" lengthAdjust="spacing" textLength="170.5566" x="452.5439" y="175">Refreshes affected tables</text><path d="M399.5439,151.2207 L409.5439,151.2207 C424.5439,151.2207 424.5439,169.709 439.5439,169.709 L449.5439,169.709" fill="none" style="stroke:#0078D4;stroke-width:3;"/><path d="M166.0352,122.9766 L176.0352,122.9766 C191.0352,122.9766 191.0352,151.2207 206.0352,151.2207 L216.0352,151.2207" fill="none" style="stroke:#FF5F46;stroke-width:3;"/><rect fill="#0078D4" height="36.4883" rx="12.5" ry="12.5" style="stroke:#0078D4;stroke-width:3;" width="161.6133" x="216.0352" y="189.4648"/><text fill="#FFFFFF" font-family="sans-serif" font-size="14" lengthAdjust="spacing" textLength="141.6133" x="226.0352" y="213">Operational Visibility</text><text fill="#000000" font-family="sans-serif" font-size="14" lengthAdjust="spacing" textLength="112.2051" x="430.6484" y="194.5117">Lineage tracking</text><path d="M377.6484,207.709 L387.6484,207.709 C402.6484,207.709 402.6484,189.2207 417.6484,189.2207 L427.6484,189.2207" fill="none" style="stroke:#0078D4;stroke-width:3;"/><text fill="#000000" font-family="sans-serif" font-size="14" lengthAdjust="spacing" textLength="117.6602" x="430.6484" y="213">Execution graphs</text><path d="M377.6484,207.709 L387.6484,207.709 C402.6484,207.709 402.6484,207.709 417.6484,207.709 L427.6484,207.709" fill="none" style="stroke:#0078D4;stroke-width:3;"/><text fill="#000000" font-family="sans-serif" font-size="14" lengthAdjust="spacing" textLength="158.04" x="430.6484" y="231.4883">Monitoring dashboards</text><path d="M377.6484,207.709 L387.6484,207.709 C402.6484,207.709 402.6484,226.1973 417.6484,226.1973 L427.6484,226.1973" fill="none" style="stroke:#0078D4;stroke-width:3;"/><path d="M166.0352,122.9766 L176.0352,122.9766 C191.0352,122.9766 191.0352,207.709 206.0352,207.709 L216.0352,207.709" fill="none" style="stroke:#FF5F46;stroke-width:3;"/><?plantuml-src VLDTRzD047pthrY95uX4S4Cf7wfGcwP-IbL18tX1GkkxjRtA-SwwMuUc5V-TY-qamYZiu-pipEwSxYe8UgdPwXgRv3B8rj3dv9EcHggNwIjuJY3M7DMwzAwr-iOPv-55bhtBpY-wtf8j_Ojcpig05bqTkAkArTfI2F1scYQ_zrvd9xtIzFs7nVdOQuJ-hJhQ8Elgw3KxwLKK-SSq7NkDqFzwfLr5hzmzcXtd-IJZyiqGzmI-LsHXYMigZFlrmov86VGel278M0BCAKWocS23eDNeDJ-HXjlLCcAJd_2WAgeHQEDCA-piW4OfimLLeItPbg2v9XjYE_JzhwHRHG5onuPyOr08bDEqyrcW87nfqR1iU_QyPIElsG8zDgG4vIWqyC2tyM28b8ORCZ4eq5Jqb9MFIGVOi3E7IRXknS626hAQhDh2NLbBJx-sQBPFKKmmDmIUXgcAcy7pndaVruZRaEfk1kSr-VrbXQTGnNaiYiYAMNL2dUjzGxvJGmFVE73EnoDthuibWUpMZPdrwEt1e_JOLCC6TywoEDybYw7ANNoMa5p5O_Q_AJcRpjBPnNJs1m00?></g></svg>