<?plantuml 1.2026.2?><svg xmlns="http://www.w3.org/2000/svg" xmlns:xlink="http://www.w3.org/1999/xlink" contentStyleType="text/css" data-diagram-type="MINDMAP" height="265px" preserveAspectRatio="none" style="width:567px;height:265px;background:#FFFFFF;" version="1.1" viewBox="0 0 567 265" width="567px" zoomAndPan="magnify"><defs/><g><rect fill="#FF5F46" height="52.9766" rx="12.5" ry="12.5" style="stroke:#FF5F46;stroke-width:3;" width="91.9414" x="10" y="105.2207"/><text fill="#FFFFFF" font-family="sans-serif" font-size="14" lengthAdjust="spacing" textLength="71.9414" x="20" y="128.7559">Make Your</text><text fill="#FFFFFF" font-family="sans-serif" font-size="14" lengthAdjust="spacing" textLength="57.9756" x="20" y="145.2441">Decision</text><rect fill="#0078D4" height="36.4883" rx="12.5" ry="12.5" style="stroke:#0078D4;stroke-width:3;" width="116.8926" x="151.9414" y="28.7324"/><text fill="#FFFFFF" font-family="sans-serif" font-size="14" lengthAdjust="spacing" textLength="96.8926" x="161.9414" y="52.2676">Key Questions</text><text fill="#000000" font-family="sans-serif" font-size="14" lengthAdjust="spacing" textLength="169.1143" x="321.834" y="24.5352">Procedural logic needed?</text><path d="M268.834,46.9766 L278.834,46.9766 C293.834,46.9766 293.834,19.2441 308.834,19.2441 L318.834,19.2441" fill="none" style="stroke:#0078D4;stroke-width:3;"/><text fill="#000000" font-family="sans-serif" font-size="14" lengthAdjust="spacing" textLength="223.9385" x="321.834" y="43.0234">One-time or recurring workload?</text><path d="M268.834,46.9766 L278.834,46.9766 C293.834,46.9766 293.834,37.7324 308.834,37.7324 L318.834,37.7324" fill="none" style="stroke:#0078D4;stroke-width:3;"/><text fill="#000000" font-family="sans-serif" font-size="14" lengthAdjust="spacing" textLength="219.7549" x="321.834" y="61.5117">Level of operational monitoring?</text><path d="M268.834,46.9766 L278.834,46.9766 C293.834,46.9766 293.834,56.2207 308.834,56.2207 L318.834,56.2207" fill="none" style="stroke:#0078D4;stroke-width:3;"/><text fill="#000000" font-family="sans-serif" font-size="14" lengthAdjust="spacing" textLength="213.5547" x="321.834" y="80">Developer or mixed-skill team?</text><path d="M268.834,46.9766 L278.834,46.9766 C293.834,46.9766 293.834,74.709 308.834,74.709 L318.834,74.709" fill="none" style="stroke:#0078D4;stroke-width:3;"/><path d="M101.9414,131.709 L111.9414,131.709 C126.9414,131.709 126.9414,46.9766 141.9414,46.9766 L151.9414,46.9766" fill="none" style="stroke:#FF5F46;stroke-width:3;"/><rect fill="#0078D4" height="36.4883" rx="12.5" ry="12.5" style="stroke:#0078D4;stroke-width:3;" width="118.9297" x="151.9414" y="93.9531"/><text fill="#FFFFFF" font-family="sans-serif" font-size="14" lengthAdjust="spacing" textLength="98.9297" x="161.9414" y="117.4883">Declarative for</text><text fill="#000000" font-family="sans-serif" font-size="14" lengthAdjust="spacing" textLength="138.9268" x="323.8711" y="99">Production pipelines</text><path d="M270.8711,112.1973 L280.8711,112.1973 C295.8711,112.1973 295.8711,93.709 310.8711,93.709 L320.8711,93.709" fill="none" style="stroke:#0078D4;stroke-width:3;"/><text fill="#000000" font-family="sans-serif" font-size="14" lengthAdjust="spacing" textLength="149.4131" x="323.8711" y="117.4883">Standard ETL patterns</text><path d="M270.8711,112.1973 L280.8711,112.1973 C295.8711,112.1973 295.8711,112.1973 310.8711,112.1973 L320.8711,112.1973" fill="none" style="stroke:#0078D4;stroke-width:3;"/><text fill="#000000" font-family="sans-serif" font-size="14" lengthAdjust="spacing" textLength="192.3428" x="323.8711" y="135.9766">Reduced operational burden</text><path d="M270.8711,112.1973 L280.8711,112.1973 C295.8711,112.1973 295.8711,130.6855 310.8711,130.6855 L320.8711,130.6855" fill="none" style="stroke:#0078D4;stroke-width:3;"/><path d="M101.9414,131.709 L111.9414,131.709 C126.9414,131.709 126.9414,112.1973 141.9414,112.1973 L151.9414,112.1973" fill="none" style="stroke:#FF5F46;stroke-width:3;"/><rect fill="#0078D4" height="36.4883" rx="12.5" ry="12.5" style="stroke:#0078D4;stroke-width:3;" width="117.2139" x="151.9414" y="150.4414"/><text fill="#FFFFFF" font-family="sans-serif" font-size="14" lengthAdjust="spacing" textLength="97.2139" x="161.9414" y="173.9766">Notebooks for</text><text fill="#000000" font-family="sans-serif" font-size="14" lengthAdjust="spacing" textLength="115.6982" x="322.1553" y="155.4883">Exploratory work</text><path d="M269.1553,168.6855 L279.1553,168.6855 C294.1553,168.6855 294.1553,150.1973 309.1553,150.1973 L319.1553,150.1973" fill="none" style="stroke:#0078D4;stroke-width:3;"/><text fill="#000000" font-family="sans-serif" font-size="14" lengthAdjust="spacing" textLength="146.6992" x="322.1553" y="173.9766">Complex integrations</text><path d="M269.1553,168.6855 L279.1553,168.6855 C294.1553,168.6855 294.1553,168.6855 309.1553,168.6855 L319.1553,168.6855" fill="none" style="stroke:#0078D4;stroke-width:3;"/><text fill="#000000" font-family="sans-serif" font-size="14" lengthAdjust="spacing" textLength="164.835" x="322.1553" y="192.4648">Extensive customization</text><path d="M269.1553,168.6855 L279.1553,168.6855 C294.1553,168.6855 294.1553,187.1738 309.1553,187.1738 L319.1553,187.1738" fill="none" style="stroke:#0078D4;stroke-width:3;"/><path d="M101.9414,131.709 L111.9414,131.709 C126.9414,131.709 126.9414,168.6855 141.9414,168.6855 L151.9414,168.6855" fill="none" style="stroke:#FF5F46;stroke-width:3;"/><rect fill="#0078D4" height="36.4883" rx="12.5" ry="12.5" style="stroke:#0078D4;stroke-width:3;" width="134.6318" x="151.9414" y="206.9297"/><text fill="#FFFFFF" font-family="sans-serif" font-size="14" lengthAdjust="spacing" textLength="114.6318" x="161.9414" y="230.4648">Hybrid Approach</text><text fill="#000000" font-family="sans-serif" font-size="14" lengthAdjust="spacing" textLength="215.4346" x="339.5732" y="211.9766">Notebooks for custom/ML logic</text><path d="M286.5732,225.1738 L296.5732,225.1738 C311.5732,225.1738 311.5732,206.6855 326.5732,206.6855 L336.5732,206.6855" fill="none" style="stroke:#0078D4;stroke-width:3;"/><text fill="#000000" font-family="sans-serif" font-size="14" lengthAdjust="spacing" textLength="160.9932" x="339.5732" y="230.4648">Declarative for core ETL</text><path d="M286.5732,225.1738 L296.5732,225.1738 C311.5732,225.1738 311.5732,225.1738 326.5732,225.1738 L336.5732,225.1738" fill="none" style="stroke:#0078D4;stroke-width:3;"/><text fill="#000000" font-family="sans-serif" font-size="14" lengthAdjust="spacing" textLength="131.708" x="339.5732" y="248.9531">Best of both worlds</text><path d="M286.5732,225.1738 L296.5732,225.1738 C311.5732,225.1738 311.5732,243.6621 326.5732,243.6621 L336.5732,243.6621" fill="none" style="stroke:#0078D4;stroke-width:3;"/><path d="M101.9414,131.709 L111.9414,131.709 C126.9414,131.709 126.9414,225.1738 141.9414,225.1738 L151.9414,225.1738" fill="none" style="stroke:#FF5F46;stroke-width:3;"/><?plantuml-src VLFRQjj047tNLmpqfJN4KTmqlH3QD75CeKwlUIaKocftP2zQxIopgyHkoBzdLvS4gxZpffcZSnCwyq5mgBLLjN3PgGzRW--pTmfTM3_FNy1T1d7EXQnMJ8rL5sI8uTbYyMfnVDBUbjhYlzi5sT1lotOUiTThBIkBtiFBQPxT3rf7UxNo_FMR-V5OQxJTPHqvMBJpf3NRgrMMnTiy7skDjl_Lojk9MWLjJCBSxKMS7lPrJ-1AL0Y_gE7VTevIUqqscqpWCsxXUuC-n6SV5vC_y8r9ecfO632qqX8ieaBreRj-jNWGT8qGXHXbmwpj2cw9AqDY02tn1WrG2UIGHUAEP3LP7IZ1UzGyeH8YSTLwW-h0LzeO22ZgX8a8QKGYk44eYH_zgKOcKd3QeObzzSv_1c6LO0MNrqjm8WJa8TIFc2YcsZ5KDAomRU4B1Io8Al-aShbniKiH3M_RTDtsWcfdS0FQ1bnrH7x01xG-6PMD3rJhl-qriN_Q5gmLV7IEISXrXz-HxDyvl5fsbG_zxAG7IOmfMdSzZnyjLLnGM2U7Hldi3EDVrlzfsT5qbizEfhC7?></g></svg>