<?plantuml 1.2026.2?><svg xmlns="http://www.w3.org/2000/svg" xmlns:xlink="http://www.w3.org/1999/xlink" contentStyleType="text/css" data-diagram-type="MINDMAP" height="247px" preserveAspectRatio="none" style="width:617px;height:247px;background:#FFFFFF;" version="1.1" viewBox="0 0 617 247" width="617px" zoomAndPan="magnify"><defs/><g><rect fill="#FF5F46" height="52.9766" rx="12.5" ry="12.5" style="stroke:#FF5F46;stroke-width:3;" width="134.8916" x="10" y="96.4883"/><text fill="#FFFFFF" font-family="sans-serif" font-size="14" lengthAdjust="spacing" textLength="114.8916" x="20" y="120.0234">When Notebooks</text><text fill="#FFFFFF" font-family="sans-serif" font-size="14" lengthAdjust="spacing" textLength="49.4443" x="20" y="136.5117">Fit Best</text><rect fill="#0078D4" height="36.4883" rx="12.5" ry="12.5" style="stroke:#0078D4;stroke-width:3;" width="184.1582" x="194.8916" y="20"/><text fill="#FFFFFF" font-family="sans-serif" font-size="14" lengthAdjust="spacing" textLength="164.1582" x="204.8916" y="43.5352">Complex Business Logic</text><text fill="#000000" font-family="sans-serif" font-size="14" lengthAdjust="spacing" textLength="150.8965" x="432.0498" y="25.0469">Conditional branching</text><path d="M379.0498,38.2441 L389.0498,38.2441 C404.0498,38.2441 404.0498,19.7559 419.0498,19.7559 L429.0498,19.7559" fill="none" style="stroke:#0078D4;stroke-width:3;"/><text fill="#000000" font-family="sans-serif" font-size="14" lengthAdjust="spacing" textLength="167.46" x="432.0498" y="43.5352">Loops over external APIs</text><path d="M379.0498,38.2441 L389.0498,38.2441 C404.0498,38.2441 404.0498,38.2441 419.0498,38.2441 L429.0498,38.2441" fill="none" style="stroke:#0078D4;stroke-width:3;"/><text fill="#000000" font-family="sans-serif" font-size="14" lengthAdjust="spacing" textLength="125.6787" x="432.0498" y="62.0234">Custom retry logic</text><path d="M379.0498,38.2441 L389.0498,38.2441 C404.0498,38.2441 404.0498,56.7324 419.0498,56.7324 L429.0498,56.7324" fill="none" style="stroke:#0078D4;stroke-width:3;"/><path d="M144.8916,122.9766 L154.8916,122.9766 C169.8916,122.9766 169.8916,38.2441 184.8916,38.2441 L194.8916,38.2441" fill="none" style="stroke:#FF5F46;stroke-width:3;"/><rect fill="#0078D4" height="36.4883" rx="12.5" ry="12.5" style="stroke:#0078D4;stroke-width:3;" width="141.4131" x="194.8916" y="76.4883"/><text fill="#FFFFFF" font-family="sans-serif" font-size="14" lengthAdjust="spacing" textLength="121.4131" x="204.8916" y="100.0234">Rapid Prototyping</text><text fill="#000000" font-family="sans-serif" font-size="14" lengthAdjust="spacing" textLength="119.1094" x="389.3047" y="81.5352">Iterate cell by cell</text><path d="M336.3047,94.7324 L346.3047,94.7324 C361.3047,94.7324 361.3047,76.2441 376.3047,76.2441 L386.3047,76.2441" fill="none" style="stroke:#0078D4;stroke-width:3;"/><text fill="#000000" font-family="sans-serif" font-size="14" lengthAdjust="spacing" textLength="189.5059" x="389.3047" y="100.0234">Inspect intermediate results</text><path d="M336.3047,94.7324 L346.3047,94.7324 C361.3047,94.7324 361.3047,94.7324 376.3047,94.7324 L386.3047,94.7324" fill="none" style="stroke:#0078D4;stroke-width:3;"/><text fill="#000000" font-family="sans-serif" font-size="14" lengthAdjust="spacing" textLength="153.0225" x="389.3047" y="118.5117">Interactive exploration</text><path d="M336.3047,94.7324 L346.3047,94.7324 C361.3047,94.7324 361.3047,113.2207 376.3047,113.2207 L386.3047,113.2207" fill="none" style="stroke:#0078D4;stroke-width:3;"/><path d="M144.8916,122.9766 L154.8916,122.9766 C169.8916,122.9766 169.8916,94.7324 184.8916,94.7324 L194.8916,94.7324" fill="none" style="stroke:#FF5F46;stroke-width:3;"/><rect fill="#0078D4" height="36.4883" rx="12.5" ry="12.5" style="stroke:#0078D4;stroke-width:3;" width="138.3301" x="194.8916" y="132.9766"/><text fill="#FFFFFF" font-family="sans-serif" font-size="14" lengthAdjust="spacing" textLength="118.3301" x="204.8916" y="156.5117">External Libraries</text><text fill="#000000" font-family="sans-serif" font-size="14" lengthAdjust="spacing" textLength="79.0303" x="386.2217" y="138.0234">ML libraries</text><path d="M333.2217,151.2207 L343.2217,151.2207 C358.2217,151.2207 358.2217,132.7324 373.2217,132.7324 L383.2217,132.7324" fill="none" style="stroke:#0078D4;stroke-width:3;"/><text fill="#000000" font-family="sans-serif" font-size="14" lengthAdjust="spacing" textLength="131.667" x="386.2217" y="156.5117">Custom connectors</text><path d="M333.2217,151.2207 L343.2217,151.2207 C358.2217,151.2207 358.2217,151.2207 373.2217,151.2207 L383.2217,151.2207" fill="none" style="stroke:#0078D4;stroke-width:3;"/><text fill="#000000" font-family="sans-serif" font-size="14" lengthAdjust="spacing" textLength="161.9844" x="386.2217" y="175">Legacy code integration</text><path d="M333.2217,151.2207 L343.2217,151.2207 C358.2217,151.2207 358.2217,169.709 373.2217,169.709 L383.2217,169.709" fill="none" style="stroke:#0078D4;stroke-width:3;"/><path d="M144.8916,122.9766 L154.8916,122.9766 C169.8916,122.9766 169.8916,151.2207 184.8916,151.2207 L194.8916,151.2207" fill="none" style="stroke:#FF5F46;stroke-width:3;"/><rect fill="#0078D4" height="36.4883" rx="12.5" ry="12.5" style="stroke:#0078D4;stroke-width:3;" width="159.8018" x="194.8916" y="189.4648"/><text fill="#FFFFFF" font-family="sans-serif" font-size="14" lengthAdjust="spacing" textLength="139.8018" x="204.8916" y="213">Fine-grained Tuning</text><text fill="#000000" font-family="sans-serif" font-size="14" lengthAdjust="spacing" textLength="185.4658" x="407.6934" y="194.5117">Manual partitioning control</text><path d="M354.6934,207.709 L364.6934,207.709 C379.6934,207.709 379.6934,189.2207 394.6934,189.2207 L404.6934,189.2207" fill="none" style="stroke:#0078D4;stroke-width:3;"/><text fill="#000000" font-family="sans-serif" font-size="14" lengthAdjust="spacing" textLength="125.7539" x="407.6934" y="213">Caching strategies</text><path d="M354.6934,207.709 L364.6934,207.709 C379.6934,207.709 379.6934,207.709 394.6934,207.709 L404.6934,207.709" fill="none" style="stroke:#0078D4;stroke-width:3;"/><text fill="#000000" font-family="sans-serif" font-size="14" lengthAdjust="spacing" textLength="197.5107" x="407.6934" y="231.4883">Custom Spark configurations</text><path d="M354.6934,207.709 L364.6934,207.709 C379.6934,207.709 379.6934,226.1973 394.6934,226.1973 L404.6934,226.1973" fill="none" style="stroke:#0078D4;stroke-width:3;"/><path d="M144.8916,122.9766 L154.8916,122.9766 C169.8916,122.9766 169.8916,207.709 184.8916,207.709 L194.8916,207.709" fill="none" style="stroke:#FF5F46;stroke-width:3;"/><?plantuml-src VPDHQzim4CVV_IaEzh85bhbPrswZZ2xP30LtbAwmby5Gv8iZ8kk4T2u9fTzzPrL9gKTsBy9t_xlVNuTr6La5xenhEkMBYyWxYr-ApmrwNhykty130H9pfJTjeDur2x8Ku5LLVQXEprAjDWx_pLRaE6TNAGxQkxNH6uSnmljfMJpkMIT7MMLv_l7RwPWrohwSEd9GfNXcpOwoLglbfx8SiqRP_xBA5C9QqjOEceUZYejtUTqJ-BL61p-8SKcqYRzTPHZc6BcOJ611dRUuXNaVJQBMr1ejbSaVgRd6i26dB2o3SdfjNFjKgeby1Bh70BXb38FawyrLp8rzPEeW88STs3mGRfKt3Tm4OkATFuowadR521gjO7Rfp1KNFMe6uqJIOMC6MS3OMuvxnT2isToZ-F2o0JNu7MZVzxPg8zw3mTnoNODzcSbkDJadD0evNMEhjDYX1fE3zdbs9QjwAzzoD73NkyDThfNh1Udbhq-Bay8mbmFbAorKMY947kxSZZtybCxDqB4oRV_4YyKboll9RwWucSxAsTbqzXS0?></g></svg>