<?plantuml 1.2026.2?><svg xmlns="http://www.w3.org/2000/svg" xmlns:xlink="http://www.w3.org/1999/xlink" contentStyleType="text/css" data-diagram-type="MINDMAP" height="360px" preserveAspectRatio="none" style="width:731px;height:360px;background:#FFFFFF;" version="1.1" viewBox="0 0 731 360" width="731px" zoomAndPan="magnify"><defs/><g><rect fill="#FF5F46" height="52.9766" rx="12.5" ry="12.5" style="stroke:#FF5F46;stroke-width:3;" width="125.916" x="10" y="152.9766"/><text fill="#FFFFFF" font-family="sans-serif" font-size="14" lengthAdjust="spacing" textLength="105.916" x="20" y="176.5117">Select Compute</text><text fill="#FFFFFF" font-family="sans-serif" font-size="14" lengthAdjust="spacing" textLength="62.9453" x="20" y="193">for Tasks</text><rect fill="#0078D4" height="36.4883" rx="12.5" ry="12.5" style="stroke:#0078D4;stroke-width:3;" width="87.9629" x="185.916" y="76.4883"/><text fill="#FFFFFF" font-family="sans-serif" font-size="14" lengthAdjust="spacing" textLength="67.9629" x="195.916" y="100.0234">Serverless</text><rect fill="#FFB900" height="36.4883" rx="12.5" ry="12.5" style="stroke:#FFB900;stroke-width:3;" width="115.2246" x="323.8789" y="20"/><text fill="#000000" font-family="sans-serif" font-size="14" lengthAdjust="spacing" textLength="95.2246" x="333.8789" y="43.5352">Jobs Compute</text><text fill="#000000" font-family="sans-serif" font-size="14" lengthAdjust="spacing" textLength="178.1309" x="492.1035" y="34.291">Notebooks, Python scripts</text><path d="M439.1035,38.2441 L449.1035,38.2441 C464.1035,38.2441 464.1035,29 479.1035,29 L489.1035,29" fill="none" style="stroke:#FFB900;stroke-width:3;"/><text fill="#000000" font-family="sans-serif" font-size="14" lengthAdjust="spacing" textLength="81.3066" x="492.1035" y="52.7793">Auto-scales</text><path d="M439.1035,38.2441 L449.1035,38.2441 C464.1035,38.2441 464.1035,47.4883 479.1035,47.4883 L489.1035,47.4883" fill="none" style="stroke:#FFB900;stroke-width:3;"/><path d="M273.8789,94.7324 L283.8789,94.7324 C298.8789,94.7324 298.8789,38.2441 313.8789,38.2441 L323.8789,38.2441" fill="none" style="stroke:#0078D4;stroke-width:3;"/><rect fill="#FFB900" height="36.4883" rx="12.5" ry="12.5" style="stroke:#FFB900;stroke-width:3;" width="124.46" x="323.8789" y="76.4883"/><text fill="#000000" font-family="sans-serif" font-size="14" lengthAdjust="spacing" textLength="104.46" x="333.8789" y="100.0234">SQL Warehouse</text><text fill="#000000" font-family="sans-serif" font-size="14" lengthAdjust="spacing" textLength="142.5908" x="501.3389" y="100.0234">SQL queries and files</text><path d="M448.3389,94.7324 L458.3389,94.7324 C473.3389,94.7324 473.3389,94.7324 488.3389,94.7324 L498.3389,94.7324" fill="none" style="stroke:#FFB900;stroke-width:3;"/><path d="M273.8789,94.7324 L283.8789,94.7324 C298.8789,94.7324 298.8789,94.7324 313.8789,94.7324 L323.8789,94.7324" fill="none" style="stroke:#0078D4;stroke-width:3;"/><rect fill="#FFB900" height="36.4883" rx="12.5" ry="12.5" style="stroke:#FFB900;stroke-width:3;" width="139.3008" x="323.8789" y="132.9766"/><text fill="#000000" font-family="sans-serif" font-size="14" lengthAdjust="spacing" textLength="119.3008" x="333.8789" y="156.5117">Pipeline Compute</text><text fill="#000000" font-family="sans-serif" font-size="14" lengthAdjust="spacing" textLength="203.7588" x="516.1797" y="156.5117">Lakeflow Declarative Pipelines</text><path d="M463.1797,151.2207 L473.1797,151.2207 C488.1797,151.2207 488.1797,151.2207 503.1797,151.2207 L513.1797,151.2207" fill="none" style="stroke:#FFB900;stroke-width:3;"/><path d="M273.8789,94.7324 L283.8789,94.7324 C298.8789,94.7324 298.8789,151.2207 313.8789,151.2207 L323.8789,151.2207" fill="none" style="stroke:#0078D4;stroke-width:3;"/><path d="M135.916,179.4648 L145.916,179.4648 C160.916,179.4648 160.916,94.7324 175.916,94.7324 L185.916,94.7324" fill="none" style="stroke:#FF5F46;stroke-width:3;"/><rect fill="#0078D4" height="36.4883" rx="12.5" ry="12.5" style="stroke:#0078D4;stroke-width:3;" width="133.2783" x="185.916" y="189.4648"/><text fill="#FFFFFF" font-family="sans-serif" font-size="14" lengthAdjust="spacing" textLength="113.2783" x="195.916" y="213">Classic Compute</text><text fill="#000000" font-family="sans-serif" font-size="14" lengthAdjust="spacing" textLength="186.6279" x="372.1943" y="194.5117">JAR and Spark Submit tasks</text><path d="M319.1943,207.709 L329.1943,207.709 C344.1943,207.709 344.1943,189.2207 359.1943,189.2207 L369.1943,189.2207" fill="none" style="stroke:#0078D4;stroke-width:3;"/><text fill="#000000" font-family="sans-serif" font-size="14" lengthAdjust="spacing" textLength="154.9707" x="372.1943" y="213">Specific Spark versions</text><path d="M319.1943,207.709 L329.1943,207.709 C344.1943,207.709 344.1943,207.709 359.1943,207.709 L369.1943,207.709" fill="none" style="stroke:#0078D4;stroke-width:3;"/><text fill="#000000" font-family="sans-serif" font-size="14" lengthAdjust="spacing" textLength="111.9248" x="372.1943" y="231.4883">Custom libraries</text><path d="M319.1943,207.709 L329.1943,207.709 C344.1943,207.709 344.1943,226.1973 359.1943,226.1973 L369.1943,226.1973" fill="none" style="stroke:#0078D4;stroke-width:3;"/><path d="M135.916,179.4648 L145.916,179.4648 C160.916,179.4648 160.916,207.709 175.916,207.709 L185.916,207.709" fill="none" style="stroke:#FF5F46;stroke-width:3;"/><rect fill="#0078D4" height="36.4883" rx="12.5" ry="12.5" style="stroke:#0078D4;stroke-width:3;" width="94.6348" x="185.916" y="245.9531"/><text fill="#FFFFFF" font-family="sans-serif" font-size="14" lengthAdjust="spacing" textLength="74.6348" x="195.916" y="269.4883">Mixed Jobs</text><text fill="#000000" font-family="sans-serif" font-size="14" lengthAdjust="spacing" textLength="216.9658" x="333.5508" y="260.2441">Different compute per task type</text><path d="M280.5508,264.1973 L290.5508,264.1973 C305.5508,264.1973 305.5508,254.9531 320.5508,254.9531 L330.5508,254.9531" fill="none" style="stroke:#0078D4;stroke-width:3;"/><text fill="#000000" font-family="sans-serif" font-size="14" lengthAdjust="spacing" textLength="191.748" x="333.5508" y="278.7324">SQL tasks + Notebook tasks</text><path d="M280.5508,264.1973 L290.5508,264.1973 C305.5508,264.1973 305.5508,273.4414 320.5508,273.4414 L330.5508,273.4414" fill="none" style="stroke:#0078D4;stroke-width:3;"/><path d="M135.916,179.4648 L145.916,179.4648 C160.916,179.4648 160.916,264.1973 175.916,264.1973 L185.916,264.1973" fill="none" style="stroke:#FF5F46;stroke-width:3;"/><rect fill="#0078D4" height="36.4883" rx="12.5" ry="12.5" style="stroke:#0078D4;stroke-width:3;" width="157.4365" x="185.916" y="302.4414"/><text fill="#FFFFFF" font-family="sans-serif" font-size="14" lengthAdjust="spacing" textLength="137.4365" x="195.916" y="325.9766">Shared vs Dedicated</text><text fill="#000000" font-family="sans-serif" font-size="14" lengthAdjust="spacing" textLength="179.7031" x="396.3525" y="316.7324">Shared: lower startup time</text><path d="M343.3525,320.6855 L353.3525,320.6855 C368.3525,320.6855 368.3525,311.4414 383.3525,311.4414 L393.3525,311.4414" fill="none" style="stroke:#0078D4;stroke-width:3;"/><text fill="#000000" font-family="sans-serif" font-size="14" lengthAdjust="spacing" textLength="197.9688" x="396.3525" y="335.2207">Dedicated: resource isolation</text><path d="M343.3525,320.6855 L353.3525,320.6855 C368.3525,320.6855 368.3525,329.9297 383.3525,329.9297 L393.3525,329.9297" fill="none" style="stroke:#0078D4;stroke-width:3;"/><path d="M135.916,179.4648 L145.916,179.4648 C160.916,179.4648 160.916,320.6855 175.916,320.6855 L185.916,320.6855" fill="none" style="stroke:#FF5F46;stroke-width:3;"/><?plantuml-src VPDHRzCm4CVVyobEuWKAbAoC0TM4DbhbOIfeB9DuGPeSvqAiE3xZSyggYU-EuwOP19LxyztV_z_TINV1NZZVAbEsmYRdx7SQFoJB4gsldwRFu26141-5RBuxwaov8aqEdcJPc-pqBDOsok2_sOoC7x9LZ55xMolP66I6r_Cq-NLWdHnbfUdRT-lJAMkI_Tjrqa4Muv6rECgggk9zcavPa-n_MMcCm2heNlUQXwEAyrV3kcUGeqRfOKMjxJn-CrKGtWfkE9drHRT5rvk5rmokgE23ia_Cxk0pUIo86du1rpjVam6MJbdFG_soy_IIfGWUqIB_ie6lmc5D7Hyy-joF3fr21c5AgDH1VQqiwZ3t1BeH3LQQVi8QfHPEUBN5KHiRNsd1hEIV_-xWwl8c-kTMk0RohcYL1p_CslTXKQeg_DeBmkIio0p5LSUUMj2gSABljATyKlTOngtiDMjLLUZGU91xBbXqaG1-PuSk-caZ59wFsnkxWBmEoobXos6sKadXiHo-nS8ImjZ1CzvEPy6hTh0TvKjmoDGvYQ2OT5WEcUG2mvaDfvQSp1Vfuco--0q0?></g></svg>