<?plantuml 1.2026.2?><svg xmlns="http://www.w3.org/2000/svg" xmlns:xlink="http://www.w3.org/1999/xlink" contentStyleType="text/css" data-diagram-type="MINDMAP" height="243px" preserveAspectRatio="none" style="width:634px;height:243px;background:#FFFFFF;" version="1.1" viewBox="0 0 634 243" width="634px" zoomAndPan="magnify"><defs/><g><rect fill="#FF5F46" height="52.9766" rx="12.5" ry="12.5" style="stroke:#FF5F46;stroke-width:3;" width="138.624" x="10" y="94.4414"/><text fill="#FFFFFF" font-family="sans-serif" font-size="14" lengthAdjust="spacing" textLength="118.624" x="20" y="117.9766">Conditional Logic</text><text fill="#FFFFFF" font-family="sans-serif" font-size="14" lengthAdjust="spacing" textLength="91.5742" x="20" y="134.4648">in Task Flows</text><rect fill="#0078D4" height="36.4883" rx="12.5" ry="12.5" style="stroke:#0078D4;stroke-width:3;" width="135.0488" x="198.624" y="28.7324"/><text fill="#FFFFFF" font-family="sans-serif" font-size="14" lengthAdjust="spacing" textLength="115.0488" x="208.624" y="52.2676">If/Else Branching</text><text fill="#000000" font-family="sans-serif" font-size="14" lengthAdjust="spacing" textLength="232.1758" x="386.6729" y="24.5352">Choose between processing paths</text><path d="M333.6729,46.9766 L343.6729,46.9766 C358.6729,46.9766 358.6729,19.2441 373.6729,19.2441 L383.6729,19.2441" fill="none" style="stroke:#0078D4;stroke-width:3;"/><text fill="#000000" font-family="sans-serif" font-size="14" lengthAdjust="spacing" textLength="149.1055" x="386.6729" y="43.0234">Evaluates expressions</text><path d="M333.6729,46.9766 L343.6729,46.9766 C358.6729,46.9766 358.6729,37.7324 373.6729,37.7324 L383.6729,37.7324" fill="none" style="stroke:#0078D4;stroke-width:3;"/><text fill="#000000" font-family="sans-serif" font-size="14" lengthAdjust="spacing" textLength="211.5313" x="386.6729" y="61.5117">Uses task values or parameters</text><path d="M333.6729,46.9766 L343.6729,46.9766 C358.6729,46.9766 358.6729,56.2207 373.6729,56.2207 L383.6729,56.2207" fill="none" style="stroke:#0078D4;stroke-width:3;"/><text fill="#000000" font-family="sans-serif" font-size="14" lengthAdjust="spacing" textLength="181.8018" x="386.6729" y="80">True/false route execution</text><path d="M333.6729,46.9766 L343.6729,46.9766 C358.6729,46.9766 358.6729,74.709 373.6729,74.709 L383.6729,74.709" fill="none" style="stroke:#0078D4;stroke-width:3;"/><path d="M148.624,120.9297 L158.624,120.9297 C173.624,120.9297 173.624,46.9766 188.624,46.9766 L198.624,46.9766" fill="none" style="stroke:#FF5F46;stroke-width:3;"/><rect fill="#0078D4" height="36.4883" rx="12.5" ry="12.5" style="stroke:#0078D4;stroke-width:3;" width="137.8105" x="198.624" y="102.6855"/><text fill="#FFFFFF" font-family="sans-serif" font-size="14" lengthAdjust="spacing" textLength="117.8105" x="208.624" y="126.2207">Run If Conditions</text><text fill="#000000" font-family="sans-serif" font-size="14" lengthAdjust="spacing" textLength="233.3311" x="389.4346" y="98.4883">Based on upstream task outcomes</text><path d="M336.4346,120.9297 L346.4346,120.9297 C361.4346,120.9297 361.4346,93.1973 376.4346,93.1973 L386.4346,93.1973" fill="none" style="stroke:#0078D4;stroke-width:3;"/><text fill="#000000" font-family="sans-serif" font-size="14" lengthAdjust="spacing" textLength="189.2119" x="389.4346" y="116.9766">Not data value comparisons</text><path d="M336.4346,120.9297 L346.4346,120.9297 C361.4346,120.9297 361.4346,111.6855 376.4346,111.6855 L386.4346,111.6855" fill="none" style="stroke:#0078D4;stroke-width:3;"/><text fill="#000000" font-family="sans-serif" font-size="14" lengthAdjust="spacing" textLength="177.2354" x="389.4346" y="135.4648">Run notification on failure</text><path d="M336.4346,120.9297 L346.4346,120.9297 C361.4346,120.9297 361.4346,130.1738 376.4346,130.1738 L386.4346,130.1738" fill="none" style="stroke:#0078D4;stroke-width:3;"/><text fill="#000000" font-family="sans-serif" font-size="14" lengthAdjust="spacing" textLength="168.9297" x="389.4346" y="153.9531">Cleanup on any outcome</text><path d="M336.4346,120.9297 L346.4346,120.9297 C361.4346,120.9297 361.4346,148.6621 376.4346,148.6621 L386.4346,148.6621" fill="none" style="stroke:#0078D4;stroke-width:3;"/><path d="M148.624,120.9297 L158.624,120.9297 C173.624,120.9297 173.624,120.9297 188.624,120.9297 L198.624,120.9297" fill="none" style="stroke:#FF5F46;stroke-width:3;"/><rect fill="#0078D4" height="36.4883" rx="12.5" ry="12.5" style="stroke:#0078D4;stroke-width:3;" width="88.5576" x="198.624" y="176.6387"/><text fill="#FFFFFF" font-family="sans-serif" font-size="14" lengthAdjust="spacing" textLength="68.5576" x="208.624" y="200.1738">Use Cases</text><text fill="#000000" font-family="sans-serif" font-size="14" lengthAdjust="spacing" textLength="204.8047" x="340.1816" y="172.4414">Data quality threshold routing</text><path d="M287.1816,194.8828 L297.1816,194.8828 C312.1816,194.8828 312.1816,167.1504 327.1816,167.1504 L337.1816,167.1504" fill="none" style="stroke:#0078D4;stroke-width:3;"/><text fill="#000000" font-family="sans-serif" font-size="14" lengthAdjust="spacing" textLength="170.6797" x="340.1816" y="190.9297">Error handling workflows</text><path d="M287.1816,194.8828 L297.1816,194.8828 C312.1816,194.8828 312.1816,185.6387 327.1816,185.6387 L337.1816,185.6387" fill="none" style="stroke:#0078D4;stroke-width:3;"/><text fill="#000000" font-family="sans-serif" font-size="14" lengthAdjust="spacing" textLength="150.3018" x="340.1816" y="209.418">Remediation pipelines</text><path d="M287.1816,194.8828 L297.1816,194.8828 C312.1816,194.8828 312.1816,204.127 327.1816,204.127 L337.1816,204.127" fill="none" style="stroke:#0078D4;stroke-width:3;"/><text fill="#000000" font-family="sans-serif" font-size="14" lengthAdjust="spacing" textLength="163.8506" x="340.1816" y="227.9063">Alternative data sources</text><path d="M287.1816,194.8828 L297.1816,194.8828 C312.1816,194.8828 312.1816,222.6152 327.1816,222.6152 L337.1816,222.6152" fill="none" style="stroke:#0078D4;stroke-width:3;"/><path d="M148.624,120.9297 L158.624,120.9297 C173.624,120.9297 173.624,194.8828 188.624,194.8828 L198.624,194.8828" fill="none" style="stroke:#FF5F46;stroke-width:3;"/><?plantuml-src VLDDQzj04BthLmpqqlfWAswQVX1AQiU2GkWXkBT264iZQ_5gPxiVSKpeV--i93jKmTsJUFFslJTFx8qFw4AhJDMYpQvzE6Zwcdsfo8RcRVuEdZEGiy1ojtKSJRLapGxU5CM7ulAgczqfGw_HWaqOqBex9-wwKUNEaFVmVffdVuvU5sUzylpZfzlBiTS8_LTrbA3epelN_AnNNMy-v_dOQuJ-rollZdXj-4adplDPnlLig7i2IpQL2eeDQhZZhIf_6MLWZNu7XUQzpoOJ-5xFLjeJB1oQib5cA-3a0PODiw0R2diY0zPnAROo1ekXyJrfzOWwOY0Fz6HTchCPHZ-ze24v9OvyIqQB3biAv0REsaMQrPZSfQr0ea9bJ7bJiFje9DpB3iEb1NggW0r4wuCZR7iNkLzoImFf1mUeC61l3Z8HR-LF8adRS52rAZ5f9xqQbOwEXlKreOasuMWEH_KKInQ3fMGOb6wJo--8MeK3X4PAQ5XNtJwdBbVEoVODcagd0lViTlLGVyf2BLMgZs6L9U4SnRzfASl8w97wTJn79_yXko5vMSFhoYwcytn-DPt_1G00?></g></svg>