<?plantuml 1.2026.2?><svg xmlns="http://www.w3.org/2000/svg" xmlns:xlink="http://www.w3.org/1999/xlink" contentStyleType="text/css" data-diagram-type="MINDMAP" height="247px" preserveAspectRatio="none" style="width:663px;height:247px;background:#FFFFFF;" version="1.1" viewBox="0 0 663 247" width="663px" zoomAndPan="magnify"><defs/><g><rect fill="#FF5F46" height="52.9766" rx="12.5" ry="12.5" style="stroke:#FF5F46;stroke-width:3;" width="152.0635" x="10" y="96.4883"/><text fill="#FFFFFF" font-family="sans-serif" font-size="14" lengthAdjust="spacing" textLength="132.0635" x="20" y="120.0234">Iterative Processing</text><text fill="#FFFFFF" font-family="sans-serif" font-size="14" lengthAdjust="spacing" textLength="90.6309" x="20" y="136.5117">with For Each</text><rect fill="#0078D4" height="36.4883" rx="12.5" ry="12.5" style="stroke:#0078D4;stroke-width:3;" width="74.5029" x="212.0635" y="20"/><text fill="#FFFFFF" font-family="sans-serif" font-size="14" lengthAdjust="spacing" textLength="54.5029" x="222.0635" y="43.5352">Purpose</text><text fill="#000000" font-family="sans-serif" font-size="14" lengthAdjust="spacing" textLength="265.665" x="339.5664" y="25.0469">Apply same logic across multiple items</text><path d="M286.5664,38.2441 L296.5664,38.2441 C311.5664,38.2441 311.5664,19.7559 326.5664,19.7559 L336.5664,19.7559" fill="none" style="stroke:#0078D4;stroke-width:3;"/><text fill="#000000" font-family="sans-serif" font-size="14" lengthAdjust="spacing" textLength="246.9688" x="339.5664" y="43.5352">Eliminates repetitive task definitions</text><path d="M286.5664,38.2441 L296.5664,38.2441 C311.5664,38.2441 311.5664,38.2441 326.5664,38.2441 L336.5664,38.2441" fill="none" style="stroke:#0078D4;stroke-width:3;"/><text fill="#000000" font-family="sans-serif" font-size="14" lengthAdjust="spacing" textLength="193.0127" x="339.5664" y="62.0234">Single nested task definition</text><path d="M286.5664,38.2441 L296.5664,38.2441 C311.5664,38.2441 311.5664,56.7324 326.5664,56.7324 L336.5664,56.7324" fill="none" style="stroke:#0078D4;stroke-width:3;"/><path d="M162.0635,122.9766 L172.0635,122.9766 C187.0635,122.9766 187.0635,38.2441 202.0635,38.2441 L212.0635,38.2441" fill="none" style="stroke:#FF5F46;stroke-width:3;"/><rect fill="#0078D4" height="36.4883" rx="12.5" ry="12.5" style="stroke:#0078D4;stroke-width:3;" width="112.5518" x="212.0635" y="76.4883"/><text fill="#FFFFFF" font-family="sans-serif" font-size="14" lengthAdjust="spacing" textLength="92.5518" x="222.0635" y="100.0234">Input Sources</text><text fill="#000000" font-family="sans-serif" font-size="14" lengthAdjust="spacing" textLength="164.2061" x="377.6152" y="81.5352">Defined directly as JSON</text><path d="M324.6152,94.7324 L334.6152,94.7324 C349.6152,94.7324 349.6152,76.2441 364.6152,76.2441 L374.6152,76.2441" fill="none" style="stroke:#0078D4;stroke-width:3;"/><text fill="#000000" font-family="sans-serif" font-size="14" lengthAdjust="spacing" textLength="179.5801" x="377.6152" y="100.0234">From preceding task value</text><path d="M324.6152,94.7324 L334.6152,94.7324 C349.6152,94.7324 349.6152,94.7324 364.6152,94.7324 L374.6152,94.7324" fill="none" style="stroke:#0078D4;stroke-width:3;"/><text fill="#000000" font-family="sans-serif" font-size="14" lengthAdjust="spacing" textLength="147.2324" x="377.6152" y="118.5117">From a job parameter</text><path d="M324.6152,94.7324 L334.6152,94.7324 C349.6152,94.7324 349.6152,113.2207 364.6152,113.2207 L374.6152,113.2207" fill="none" style="stroke:#0078D4;stroke-width:3;"/><path d="M162.0635,122.9766 L172.0635,122.9766 C187.0635,122.9766 187.0635,94.7324 202.0635,94.7324 L212.0635,94.7324" fill="none" style="stroke:#FF5F46;stroke-width:3;"/><rect fill="#0078D4" height="36.4883" rx="12.5" ry="12.5" style="stroke:#0078D4;stroke-width:3;" width="150.5869" x="212.0635" y="132.9766"/><text fill="#FFFFFF" font-family="sans-serif" font-size="14" lengthAdjust="spacing" textLength="130.5869" x="222.0635" y="156.5117">Common Scenarios</text><text fill="#000000" font-family="sans-serif" font-size="14" lengthAdjust="spacing" textLength="180.6875" x="415.6504" y="138.0234">Process files from path list</text><path d="M362.6504,151.2207 L372.6504,151.2207 C387.6504,151.2207 387.6504,132.7324 402.6504,132.7324 L412.6504,132.7324" fill="none" style="stroke:#0078D4;stroke-width:3;"/><text fill="#000000" font-family="sans-serif" font-size="14" lengthAdjust="spacing" textLength="225.5039" x="415.6504" y="156.5117">Transform per region/date range</text><path d="M362.6504,151.2207 L372.6504,151.2207 C387.6504,151.2207 387.6504,151.2207 402.6504,151.2207 L412.6504,151.2207" fill="none" style="stroke:#0078D4;stroke-width:3;"/><text fill="#000000" font-family="sans-serif" font-size="14" lengthAdjust="spacing" textLength="235.5801" x="415.6504" y="175">Analysis across product categories</text><path d="M362.6504,151.2207 L372.6504,151.2207 C387.6504,151.2207 387.6504,169.709 402.6504,169.709 L412.6504,169.709" fill="none" style="stroke:#0078D4;stroke-width:3;"/><path d="M162.0635,122.9766 L172.0635,122.9766 C187.0635,122.9766 187.0635,151.2207 202.0635,151.2207 L212.0635,151.2207" fill="none" style="stroke:#FF5F46;stroke-width:3;"/><rect fill="#0078D4" height="36.4883" rx="12.5" ry="12.5" style="stroke:#0078D4;stroke-width:3;" width="105.2646" x="212.0635" y="189.4648"/><text fill="#FFFFFF" font-family="sans-serif" font-size="14" lengthAdjust="spacing" textLength="85.2646" x="222.0635" y="213">Concurrency</text><text fill="#000000" font-family="sans-serif" font-size="14" lengthAdjust="spacing" textLength="173.6396" x="370.3281" y="203.7559">Control parallel iterations</text><path d="M317.3281,207.709 L327.3281,207.709 C342.3281,207.709 342.3281,198.4648 357.3281,198.4648 L367.3281,198.4648" fill="none" style="stroke:#0078D4;stroke-width:3;"/><text fill="#000000" font-family="sans-serif" font-size="14" lengthAdjust="spacing" textLength="211.9141" x="370.3281" y="222.2441">Higher = faster, more compute</text><path d="M317.3281,207.709 L327.3281,207.709 C342.3281,207.709 342.3281,216.9531 357.3281,216.9531 L367.3281,216.9531" fill="none" style="stroke:#0078D4;stroke-width:3;"/><path d="M162.0635,122.9766 L172.0635,122.9766 C187.0635,122.9766 187.0635,207.709 202.0635,207.709 L212.0635,207.709" fill="none" style="stroke:#FF5F46;stroke-width:3;"/><?plantuml-src VPDlRzGm3CRVzrDOsXiuJRVk61kWWGRRAeQcCUds4WdbKhSDbyIHauwT9hxxt3yteEZ8gzP-x9_zH3cBIN5onfTEXUmqfet53zcx4aDgNkGluJ43EP-KNjTChI_FoHB3Nb6yBewE-zoryVXlj22VncZLdsVjNMFqscECy6gUPx-shCETh3m_UNDnD6LDedztdKnGzEStQx6JLLMhjta-PKsY_sNb_H7MYXviftdSgJWz6EsUmLL2LidS8zmoQIapllxcVvhKI2N3fT9DDfl1RSk18ihdx3jy3C5k82g7OAas6fHc4g1hRJB18fY4BWxQIslaZbN228m1a-bPISKrb5WPB__aH-rIs58j2oOifvfkYYiVsWHBQbac7MekEe6eIyEeauob8dnPVhqPiWMJWo0PBANtqF9UsHR_I2luGIi8YcKVCQFZd9Dpv66fqIisDA96Ww0oOYzKVMibFbaJqw2uO-LZHIm9PDctbhaFIbaU955ltVFARgA9MzS2Kzdg15fqDR7fDvCHl6wPqUlDK2Q1n6JxGQr5svdStTopUvzDtGZrFLHA_EDzSCG8cfnuXjaPoaCR7rjsE5_aY-FvuWa0?></g></svg>