<?plantuml 1.2026.2?><svg xmlns="http://www.w3.org/2000/svg" xmlns:xlink="http://www.w3.org/1999/xlink" contentStyleType="text/css" data-diagram-type="MINDMAP" height="294px" preserveAspectRatio="none" style="width:700px;height:294px;background:#FFFFFF;" version="1.1" viewBox="0 0 700 294" width="700px" zoomAndPan="magnify"><defs/><g><rect fill="#FF5F46" height="52.9766" rx="12.5" ry="12.5" style="stroke:#FF5F46;stroke-width:3;" width="95.7012" x="10" y="119.8545"/><text fill="#FFFFFF" font-family="sans-serif" font-size="14" lengthAdjust="spacing" textLength="67.1152" x="20" y="143.3896">Configure</text><text fill="#FFFFFF" font-family="sans-serif" font-size="14" lengthAdjust="spacing" textLength="75.7012" x="20" y="159.8779">Parameters</text><rect fill="#0078D4" height="36.4883" rx="12.5" ry="12.5" style="stroke:#0078D4;stroke-width:3;" width="132.9092" x="155.7012" y="76.4883"/><text fill="#FFFFFF" font-family="sans-serif" font-size="14" lengthAdjust="spacing" textLength="112.9092" x="165.7012" y="100.0234">Parameter Types</text><rect fill="#FFB900" height="36.4883" rx="12.5" ry="12.5" style="stroke:#FFB900;stroke-width:3;" width="92.3652" x="338.6104" y="20"/><text fill="#000000" font-family="sans-serif" font-size="14" lengthAdjust="spacing" textLength="72.3652" x="348.6104" y="43.5352">Date/Time</text><text fill="#000000" font-family="sans-serif" font-size="14" lengthAdjust="spacing" textLength="204.0938" x="483.9756" y="34.291">Process different time periods</text><path d="M430.9756,38.2441 L440.9756,38.2441 C455.9756,38.2441 455.9756,29 470.9756,29 L480.9756,29" fill="none" style="stroke:#FFB900;stroke-width:3;"/><text fill="#000000" font-family="sans-serif" font-size="14" lengthAdjust="spacing" textLength="180.8857" x="483.9756" y="52.7793">Scheduled vs. backfill runs</text><path d="M430.9756,38.2441 L440.9756,38.2441 C455.9756,38.2441 455.9756,47.4883 470.9756,47.4883 L480.9756,47.4883" fill="none" style="stroke:#FFB900;stroke-width:3;"/><path d="M288.6104,94.7324 L298.6104,94.7324 C313.6104,94.7324 313.6104,38.2441 328.6104,38.2441 L338.6104,38.2441" fill="none" style="stroke:#0078D4;stroke-width:3;"/><rect fill="#FFB900" height="36.4883" rx="12.5" ry="12.5" style="stroke:#FFB900;stroke-width:3;" width="105.3809" x="338.6104" y="76.4883"/><text fill="#000000" font-family="sans-serif" font-size="14" lengthAdjust="spacing" textLength="85.3809" x="348.6104" y="100.0234">Environment</text><text fill="#000000" font-family="sans-serif" font-size="14" lengthAdjust="spacing" textLength="182.6152" x="496.9912" y="90.7793">Dev / staging / production</text><path d="M443.9912,94.7324 L453.9912,94.7324 C468.9912,94.7324 468.9912,85.4883 483.9912,85.4883 L493.9912,85.4883" fill="none" style="stroke:#FFB900;stroke-width:3;"/><text fill="#000000" font-family="sans-serif" font-size="14" lengthAdjust="spacing" textLength="147.082" x="496.9912" y="109.2676">Catalog names, paths</text><path d="M443.9912,94.7324 L453.9912,94.7324 C468.9912,94.7324 468.9912,103.9766 483.9912,103.9766 L493.9912,103.9766" fill="none" style="stroke:#FFB900;stroke-width:3;"/><path d="M288.6104,94.7324 L298.6104,94.7324 C313.6104,94.7324 313.6104,94.7324 328.6104,94.7324 L338.6104,94.7324" fill="none" style="stroke:#0078D4;stroke-width:3;"/><rect fill="#FFB900" height="36.4883" rx="12.5" ry="12.5" style="stroke:#FFB900;stroke-width:3;" width="92.7754" x="338.6104" y="132.9766"/><text fill="#000000" font-family="sans-serif" font-size="14" lengthAdjust="spacing" textLength="72.7754" x="348.6104" y="156.5117">Processing</text><text fill="#000000" font-family="sans-serif" font-size="14" lengthAdjust="spacing" textLength="75.4551" x="484.3857" y="138.0234">Batch sizes</text><path d="M431.3857,151.2207 L441.3857,151.2207 C456.3857,151.2207 456.3857,132.7324 471.3857,132.7324 L481.3857,132.7324" fill="none" style="stroke:#FFB900;stroke-width:3;"/><text fill="#000000" font-family="sans-serif" font-size="14" lengthAdjust="spacing" textLength="86.2832" x="484.3857" y="156.5117">Filter criteria</text><path d="M431.3857,151.2207 L441.3857,151.2207 C456.3857,151.2207 456.3857,151.2207 471.3857,151.2207 L481.3857,151.2207" fill="none" style="stroke:#FFB900;stroke-width:3;"/><text fill="#000000" font-family="sans-serif" font-size="14" lengthAdjust="spacing" textLength="104.6172" x="484.3857" y="175">Output formats</text><path d="M431.3857,151.2207 L441.3857,151.2207 C456.3857,151.2207 456.3857,169.709 471.3857,169.709 L481.3857,169.709" fill="none" style="stroke:#FFB900;stroke-width:3;"/><path d="M288.6104,94.7324 L298.6104,94.7324 C313.6104,94.7324 313.6104,151.2207 328.6104,151.2207 L338.6104,151.2207" fill="none" style="stroke:#0078D4;stroke-width:3;"/><path d="M105.7012,146.3428 L115.7012,146.3428 C130.7012,146.3428 130.7012,94.7324 145.7012,94.7324 L155.7012,94.7324" fill="none" style="stroke:#FF5F46;stroke-width:3;"/><rect fill="#0078D4" height="36.4883" rx="12.5" ry="12.5" style="stroke:#0078D4;stroke-width:3;" width="65.0967" x="155.7012" y="179.709"/><text fill="#FFFFFF" font-family="sans-serif" font-size="14" lengthAdjust="spacing" textLength="45.0967" x="165.7012" y="203.2441">Syntax</text><text fill="#000000" font-family="sans-serif" font-size="14" lengthAdjust="spacing" textLength="162.8047" x="273.7979" y="194">{{job.parameters.name}}</text><path d="M220.7979,197.9531 L230.7979,197.9531 C245.7979,197.9531 245.7979,188.709 260.7979,188.709 L270.7979,188.709" fill="none" style="stroke:#0078D4;stroke-width:3;"/><text fill="#000000" font-family="sans-serif" font-size="14" lengthAdjust="spacing" textLength="139.0566" x="273.7979" y="212.4883">dbutils.widgets.get()</text><path d="M220.7979,197.9531 L230.7979,197.9531 C245.7979,197.9531 245.7979,207.1973 260.7979,207.1973 L270.7979,207.1973" fill="none" style="stroke:#0078D4;stroke-width:3;"/><path d="M105.7012,146.3428 L115.7012,146.3428 C130.7012,146.3428 130.7012,197.9531 145.7012,197.9531 L155.7012,197.9531" fill="none" style="stroke:#FF5F46;stroke-width:3;"/><rect fill="#0078D4" height="36.4883" rx="12.5" ry="12.5" style="stroke:#0078D4;stroke-width:3;" width="156.8623" x="155.7012" y="236.1973"/><text fill="#FFFFFF" font-family="sans-serif" font-size="14" lengthAdjust="spacing" textLength="136.8623" x="165.7012" y="259.7324">Dynamic References</text><text fill="#000000" font-family="sans-serif" font-size="14" lengthAdjust="spacing" textLength="185.6846" x="365.5635" y="250.4883">{{job.trigger.time.iso_date}}</text><path d="M312.5635,254.4414 L322.5635,254.4414 C337.5635,254.4414 337.5635,245.1973 352.5635,245.1973 L362.5635,245.1973" fill="none" style="stroke:#0078D4;stroke-width:3;"/><text fill="#000000" font-family="sans-serif" font-size="14" lengthAdjust="spacing" textLength="158.3408" x="365.5635" y="268.9766">{{backfill.iso_datetime}}</text><path d="M312.5635,254.4414 L322.5635,254.4414 C337.5635,254.4414 337.5635,263.6855 352.5635,263.6855 L362.5635,263.6855" fill="none" style="stroke:#0078D4;stroke-width:3;"/><path d="M105.7012,146.3428 L115.7012,146.3428 C130.7012,146.3428 130.7012,254.4414 145.7012,254.4414 L155.7012,254.4414" fill="none" style="stroke:#FF5F46;stroke-width:3;"/><?plantuml-src VLF1Rfmm4Btp5IFrag3AIxPfqbPH5MKtd2erQlOOAJ9uW4d0HlQmpHRjlzTcOQjIRUS0UDwRzsP6-DQnjDoGLerienl7kng_HbyKjboT9UVGH-3ZJkQlfJMTLYjJ6mllqlHZUdarODz8ux_Pr6WUiyKGH-wcelnLetFmGIJHVlAwEEcL9DUVrfTphrdsRzLP1-aGVxoM9xsA8lkS97ElMVQ_NiaGtYipRtNWz2SPDujntJ6iZ2wex2m-wGTfPOECraLn3CSJR7OjXbGCQycus523uHG_muCrUN1IL1HeKJEm1w55IqQvaVIOLwYw6XLidO3C3rvGNOFjz47qNc_96jtuyh5YZLjOWFy_IjAb_sgjKLtEPFH8M4cMjIb1-mxTUsWbLmUjiI5VDZBl9ESLEFg5KpifrM6et99_aHoptpjkEuR2s4RoCF_ZJhDyYmQqxrzC9jhZVaGmtkyFeCewfjg9dwHAP2Vyu-myAAntdaOv_C1XEVcXXKcDBPKbMX4s9iYPP-MNEsds_RId8nHu7hv5Vs76InDTY6Mol1BBtm00?></g></svg>