<?plantuml 1.2026.2?><svg xmlns="http://www.w3.org/2000/svg" xmlns:xlink="http://www.w3.org/1999/xlink" contentStyleType="text/css" data-diagram-type="MINDMAP" height="359px" preserveAspectRatio="none" style="width:818px;height:359px;background:#FFFFFF;" version="1.1" viewBox="0 0 818 359" width="818px" zoomAndPan="magnify"><defs/><g><rect fill="#FF5F46" height="52.9766" rx="12.5" ry="12.5" style="stroke:#FF5F46;stroke-width:3;" width="147.1553" x="10" y="152.4648"/><text fill="#FFFFFF" font-family="sans-serif" font-size="14" lengthAdjust="spacing" textLength="127.1553" x="20" y="176">Task Relationships</text><text fill="#FFFFFF" font-family="sans-serif" font-size="14" lengthAdjust="spacing" textLength="51.0918" x="20" y="192.4883">in a Job</text><rect fill="#0078D4" height="36.4883" rx="12.5" ry="12.5" style="stroke:#0078D4;stroke-width:3;" width="116.5098" x="207.1553" y="20"/><text fill="#FFFFFF" font-family="sans-serif" font-size="14" lengthAdjust="spacing" textLength="96.5098" x="217.1553" y="43.5352">DAG Structure</text><text fill="#000000" font-family="sans-serif" font-size="14" lengthAdjust="spacing" textLength="153.5967" x="376.665" y="25.0469">Directed Acyclic Graph</text><path d="M323.665,38.2441 L333.665,38.2441 C348.665,38.2441 348.665,19.7559 363.665,19.7559 L373.665,19.7559" fill="none" style="stroke:#0078D4;stroke-width:3;"/><text fill="#000000" font-family="sans-serif" font-size="14" lengthAdjust="spacing" textLength="145.8926" x="376.665" y="43.5352">Visual execution map</text><path d="M323.665,38.2441 L333.665,38.2441 C348.665,38.2441 348.665,38.2441 363.665,38.2441 L373.665,38.2441" fill="none" style="stroke:#0078D4;stroke-width:3;"/><text fill="#000000" font-family="sans-serif" font-size="14" lengthAdjust="spacing" textLength="103.8037" x="376.665" y="62.0234">Tasks as nodes</text><path d="M323.665,38.2441 L333.665,38.2441 C348.665,38.2441 348.665,56.7324 363.665,56.7324 L373.665,56.7324" fill="none" style="stroke:#0078D4;stroke-width:3;"/><path d="M157.1553,178.9531 L167.1553,178.9531 C182.1553,178.9531 182.1553,38.2441 197.1553,38.2441 L207.1553,38.2441" fill="none" style="stroke:#FF5F46;stroke-width:3;"/><rect fill="#0078D4" height="36.4883" rx="12.5" ry="12.5" style="stroke:#0078D4;stroke-width:3;" width="181.3418" x="207.1553" y="160.709"/><text fill="#FFFFFF" font-family="sans-serif" font-size="14" lengthAdjust="spacing" textLength="161.3418" x="217.1553" y="184.2441">Dependency Conditions</text><rect fill="#FFB900" height="36.4883" rx="12.5" ry="12.5" style="stroke:#FFB900;stroke-width:3;" width="113.3721" x="438.4971" y="75.9766"/><text fill="#000000" font-family="sans-serif" font-size="14" lengthAdjust="spacing" textLength="93.3721" x="448.4971" y="99.5117">All succeeded</text><text fill="#000000" font-family="sans-serif" font-size="14" lengthAdjust="spacing" textLength="202.0156" x="604.8691" y="99.5117">All upstream tasks completed</text><path d="M551.8691,94.2207 L561.8691,94.2207 C576.8691,94.2207 576.8691,94.2207 591.8691,94.2207 L601.8691,94.2207" fill="none" style="stroke:#FFB900;stroke-width:3;"/><path d="M388.4971,178.9531 L398.4971,178.9531 C413.4971,178.9531 413.4971,94.2207 428.4971,94.2207 L438.4971,94.2207" fill="none" style="stroke:#0078D4;stroke-width:3;"/><rect fill="#FFB900" height="36.4883" rx="12.5" ry="12.5" style="stroke:#FFB900;stroke-width:3;" width="97.4443" x="438.4971" y="132.4648"/><text fill="#000000" font-family="sans-serif" font-size="14" lengthAdjust="spacing" textLength="77.4443" x="448.4971" y="156">None failed</text><text fill="#000000" font-family="sans-serif" font-size="14" lengthAdjust="spacing" textLength="144.0127" x="588.9414" y="156">Even if some skipped</text><path d="M535.9414,150.709 L545.9414,150.709 C560.9414,150.709 560.9414,150.709 575.9414,150.709 L585.9414,150.709" fill="none" style="stroke:#FFB900;stroke-width:3;"/><path d="M388.4971,178.9531 L398.4971,178.9531 C413.4971,178.9531 413.4971,150.709 428.4971,150.709 L438.4971,150.709" fill="none" style="stroke:#0078D4;stroke-width:3;"/><rect fill="#FFB900" height="36.4883" rx="12.5" ry="12.5" style="stroke:#FFB900;stroke-width:3;" width="76.082" x="438.4971" y="188.9531"/><text fill="#000000" font-family="sans-serif" font-size="14" lengthAdjust="spacing" textLength="56.082" x="448.4971" y="212.4883">All done</text><text fill="#000000" font-family="sans-serif" font-size="14" lengthAdjust="spacing" textLength="155.5449" x="567.5791" y="212.4883">Regardless of outcome</text><path d="M514.5791,207.1973 L524.5791,207.1973 C539.5791,207.1973 539.5791,207.1973 554.5791,207.1973 L564.5791,207.1973" fill="none" style="stroke:#FFB900;stroke-width:3;"/><path d="M388.4971,178.9531 L398.4971,178.9531 C413.4971,178.9531 413.4971,207.1973 428.4971,207.1973 L438.4971,207.1973" fill="none" style="stroke:#0078D4;stroke-width:3;"/><rect fill="#FFB900" height="36.4883" rx="12.5" ry="12.5" style="stroke:#FFB900;stroke-width:3;" width="142.8076" x="438.4971" y="245.4414"/><text fill="#000000" font-family="sans-serif" font-size="14" lengthAdjust="spacing" textLength="122.8076" x="448.4971" y="268.9766">At least one failed</text><text fill="#000000" font-family="sans-serif" font-size="14" lengthAdjust="spacing" textLength="151.4912" x="634.3047" y="268.9766">Trigger error handling</text><path d="M581.3047,263.6855 L591.3047,263.6855 C606.3047,263.6855 606.3047,263.6855 621.3047,263.6855 L631.3047,263.6855" fill="none" style="stroke:#FFB900;stroke-width:3;"/><path d="M388.4971,178.9531 L398.4971,178.9531 C413.4971,178.9531 413.4971,263.6855 428.4971,263.6855 L438.4971,263.6855" fill="none" style="stroke:#0078D4;stroke-width:3;"/><path d="M157.1553,178.9531 L167.1553,178.9531 C182.1553,178.9531 182.1553,178.9531 197.1553,178.9531 L207.1553,178.9531" fill="none" style="stroke:#FF5F46;stroke-width:3;"/><rect fill="#0078D4" height="36.4883" rx="12.5" ry="12.5" style="stroke:#0078D4;stroke-width:3;" width="88.5576" x="207.1553" y="301.418"/><text fill="#FFFFFF" font-family="sans-serif" font-size="14" lengthAdjust="spacing" textLength="68.5576" x="217.1553" y="324.9531">Use Cases</text><text fill="#000000" font-family="sans-serif" font-size="14" lengthAdjust="spacing" textLength="132.9521" x="348.7129" y="306.4648">Sequential ordering</text><path d="M295.7129,319.6621 L305.7129,319.6621 C320.7129,319.6621 320.7129,301.1738 335.7129,301.1738 L345.7129,301.1738" fill="none" style="stroke:#0078D4;stroke-width:3;"/><text fill="#000000" font-family="sans-serif" font-size="14" lengthAdjust="spacing" textLength="185.1924" x="348.7129" y="324.9531">Failure propagation control</text><path d="M295.7129,319.6621 L305.7129,319.6621 C320.7129,319.6621 320.7129,319.6621 335.7129,319.6621 L345.7129,319.6621" fill="none" style="stroke:#0078D4;stroke-width:3;"/><text fill="#000000" font-family="sans-serif" font-size="14" lengthAdjust="spacing" textLength="183.7021" x="348.7129" y="343.4414">Cleanup task configuration</text><path d="M295.7129,319.6621 L305.7129,319.6621 C320.7129,319.6621 320.7129,338.1504 335.7129,338.1504 L345.7129,338.1504" fill="none" style="stroke:#0078D4;stroke-width:3;"/><path d="M157.1553,178.9531 L167.1553,178.9531 C182.1553,178.9531 182.1553,319.6621 197.1553,319.6621 L207.1553,319.6621" fill="none" style="stroke:#FF5F46;stroke-width:3;"/><?plantuml-src VPDFRnCn4CNl-ob6uW8vfDjGoXzLg25XAo74eKqv8I77djsruXsRiOqQLVtksDwqYAs2Zsz-Vi_pLdlfW-0mQ5A3SDM53tk37wiF2bteNzQluBw2T3u9kUlOHb8hQop3YwPvqvoTbzbNJVXSRIo5WzgMyyHkUYrtXDx3wtbTFJncdHxDgkktxzPdqwo9-g_hv0LDEN-p5aUpsdRxlgwdMHFrlrbrEIbhQ-zCPkwF4XSdXxfdi15-1zTeHD2MVA-T_q6QGC0NkwrcCrWlh-0cS9GXCYPXzXFMcb46LB2KUscqX2iMhXzdtxMFmW3UeOpP4VB7BPCSv45u8AlG5sjqI0f9xc5bIUdoWWp3qXZmKKf4XIehwNxMelE1KGmGYfcqWpCOHWI-MK9eXJPFLpx_HWBTWhS3Wjzfvmvezb89Ft3Ns0bMfJFRWeqX6UC81Z0eV81dtXlMNOSCo9ogxGKfewdBQzrwX9NmPSS4tk2lY1HqQiMoGXwfD6YINUeK75idkj9_seW2MpC2gnHDqPLbywJLNUJ2LPUfkCTVfpgTB-h5-Npn1m00?></g></svg>