<?plantuml 1.2026.2?><svg xmlns="http://www.w3.org/2000/svg" xmlns:xlink="http://www.w3.org/1999/xlink" contentStyleType="text/css" data-diagram-type="MINDMAP" height="304px" preserveAspectRatio="none" style="width:594px;height:304px;background:#FFFFFF;" version="1.1" viewBox="0 0 594 304" width="594px" zoomAndPan="magnify"><defs/><g><rect fill="#FF5F46" height="52.9766" rx="12.5" ry="12.5" style="stroke:#FF5F46;stroke-width:3;" width="118.834" x="10" y="124.7324"/><text fill="#FFFFFF" font-family="sans-serif" font-size="14" lengthAdjust="spacing" textLength="98.834" x="20" y="148.2676">Error Handling</text><text fill="#FFFFFF" font-family="sans-serif" font-size="14" lengthAdjust="spacing" textLength="92.415" x="20" y="164.7559">Best Practices</text><rect fill="#0078D4" height="36.4883" rx="12.5" ry="12.5" style="stroke:#0078D4;stroke-width:3;" width="75.3711" x="178.834" y="20"/><text fill="#FFFFFF" font-family="sans-serif" font-size="14" lengthAdjust="spacing" textLength="55.3711" x="188.834" y="43.5352">Fail Fast</text><text fill="#000000" font-family="sans-serif" font-size="14" lengthAdjust="spacing" textLength="193.4775" x="307.2051" y="34.291">Stop on data integrity issues</text><path d="M254.2051,38.2441 L264.2051,38.2441 C279.2051,38.2441 279.2051,29 294.2051,29 L304.2051,29" fill="none" style="stroke:#0078D4;stroke-width:3;"/><text fill="#000000" font-family="sans-serif" font-size="14" lengthAdjust="spacing" textLength="214.7168" x="307.2051" y="52.7793">Avoid corrupt data downstream</text><path d="M254.2051,38.2441 L264.2051,38.2441 C279.2051,38.2441 279.2051,47.4883 294.2051,47.4883 L304.2051,47.4883" fill="none" style="stroke:#0078D4;stroke-width:3;"/><path d="M128.834,151.2207 L138.834,151.2207 C153.834,151.2207 153.834,38.2441 168.834,38.2441 L178.834,38.2441" fill="none" style="stroke:#FF5F46;stroke-width:3;"/><rect fill="#0078D4" height="36.4883" rx="12.5" ry="12.5" style="stroke:#0078D4;stroke-width:3;" width="155.0439" x="178.834" y="76.4883"/><text fill="#FFFFFF" font-family="sans-serif" font-size="14" lengthAdjust="spacing" textLength="135.0439" x="188.834" y="100.0234">Meaningful Logging</text><text fill="#000000" font-family="sans-serif" font-size="14" lengthAdjust="spacing" textLength="195.3027" x="386.8779" y="81.5352">Timestamps &amp; record counts</text><path d="M333.8779,94.7324 L343.8779,94.7324 C358.8779,94.7324 358.8779,76.2441 373.8779,76.2441 L383.8779,76.2441" fill="none" style="stroke:#0078D4;stroke-width:3;"/><text fill="#000000" font-family="sans-serif" font-size="14" lengthAdjust="spacing" textLength="132.877" x="386.8779" y="100.0234">Error classifications</text><path d="M333.8779,94.7324 L343.8779,94.7324 C358.8779,94.7324 358.8779,94.7324 373.8779,94.7324 L383.8779,94.7324" fill="none" style="stroke:#0078D4;stroke-width:3;"/><text fill="#000000" font-family="sans-serif" font-size="14" lengthAdjust="spacing" textLength="184.0303" x="386.8779" y="118.5117">No sensitive data exposure</text><path d="M333.8779,94.7324 L343.8779,94.7324 C358.8779,94.7324 358.8779,113.2207 373.8779,113.2207 L383.8779,113.2207" fill="none" style="stroke:#0078D4;stroke-width:3;"/><path d="M128.834,151.2207 L138.834,151.2207 C153.834,151.2207 153.834,94.7324 168.834,94.7324 L178.834,94.7324" fill="none" style="stroke:#FF5F46;stroke-width:3;"/><rect fill="#0078D4" height="36.4883" rx="12.5" ry="12.5" style="stroke:#0078D4;stroke-width:3;" width="143.2998" x="178.834" y="132.9766"/><text fill="#FFFFFF" font-family="sans-serif" font-size="14" lengthAdjust="spacing" textLength="123.2998" x="188.834" y="156.5117">Recovery Planning</text><text fill="#000000" font-family="sans-serif" font-size="14" lengthAdjust="spacing" textLength="154.8955" x="375.1338" y="138.0234">Idempotent operations</text><path d="M322.1338,151.2207 L332.1338,151.2207 C347.1338,151.2207 347.1338,132.7324 362.1338,132.7324 L372.1338,132.7324" fill="none" style="stroke:#0078D4;stroke-width:3;"/><text fill="#000000" font-family="sans-serif" font-size="14" lengthAdjust="spacing" textLength="161.957" x="375.1338" y="156.5117">Only re-run failed tasks</text><path d="M322.1338,151.2207 L332.1338,151.2207 C347.1338,151.2207 347.1338,151.2207 362.1338,151.2207 L372.1338,151.2207" fill="none" style="stroke:#0078D4;stroke-width:3;"/><text fill="#000000" font-family="sans-serif" font-size="14" lengthAdjust="spacing" textLength="126.5127" x="375.1338" y="175">Repair job support</text><path d="M322.1338,151.2207 L332.1338,151.2207 C347.1338,151.2207 347.1338,169.709 362.1338,169.709 L372.1338,169.709" fill="none" style="stroke:#0078D4;stroke-width:3;"/><path d="M128.834,151.2207 L138.834,151.2207 C153.834,151.2207 153.834,151.2207 168.834,151.2207 L178.834,151.2207" fill="none" style="stroke:#FF5F46;stroke-width:3;"/><rect fill="#0078D4" height="36.4883" rx="12.5" ry="12.5" style="stroke:#0078D4;stroke-width:3;" width="124.4053" x="178.834" y="189.4648"/><text fill="#FFFFFF" font-family="sans-serif" font-size="14" lengthAdjust="spacing" textLength="104.4053" x="188.834" y="213">Monitor Trends</text><text fill="#000000" font-family="sans-serif" font-size="14" lengthAdjust="spacing" textLength="210.9775" x="356.2393" y="203.7559">Track quality metrics over time</text><path d="M303.2393,207.709 L313.2393,207.709 C328.2393,207.709 328.2393,198.4648 343.2393,198.4648 L353.2393,198.4648" fill="none" style="stroke:#0078D4;stroke-width:3;"/><text fill="#000000" font-family="sans-serif" font-size="14" lengthAdjust="spacing" textLength="224.8613" x="356.2393" y="222.2441">Detect upstream system changes</text><path d="M303.2393,207.709 L313.2393,207.709 C328.2393,207.709 328.2393,216.9531 343.2393,216.9531 L353.2393,216.9531" fill="none" style="stroke:#0078D4;stroke-width:3;"/><path d="M128.834,151.2207 L138.834,151.2207 C153.834,151.2207 153.834,207.709 168.834,207.709 L178.834,207.709" fill="none" style="stroke:#FF5F46;stroke-width:3;"/><rect fill="#0078D4" height="36.4883" rx="12.5" ry="12.5" style="stroke:#0078D4;stroke-width:3;" width="106.1396" x="178.834" y="245.9531"/><text fill="#FFFFFF" font-family="sans-serif" font-size="14" lengthAdjust="spacing" textLength="86.1396" x="188.834" y="269.4883">Test Failures</text><text fill="#000000" font-family="sans-serif" font-size="14" lengthAdjust="spacing" textLength="204.8047" x="337.9736" y="260.2441">Deliberately introduce failures</text><path d="M284.9736,264.1973 L294.9736,264.1973 C309.9736,264.1973 309.9736,254.9531 324.9736,254.9531 L334.9736,254.9531" fill="none" style="stroke:#0078D4;stroke-width:3;"/><text fill="#000000" font-family="sans-serif" font-size="14" lengthAdjust="spacing" textLength="201.2979" x="337.9736" y="278.7324">Validate error handling works</text><path d="M284.9736,264.1973 L294.9736,264.1973 C309.9736,264.1973 309.9736,273.4414 324.9736,273.4414 L334.9736,273.4414" fill="none" style="stroke:#0078D4;stroke-width:3;"/><path d="M128.834,151.2207 L138.834,151.2207 C153.834,151.2207 153.834,264.1973 168.834,264.1973 L178.834,264.1973" fill="none" style="stroke:#FF5F46;stroke-width:3;"/><?plantuml-src VLDTRnCn47o_Nx4I4e98X6ievKCLAgMSg5IWAX5FICYnzouclhMnrscZYl_EtaTQ20hxSBhR7S-CPtKdYLNarf9fLIYE4sySlYbU6moyV5G-Xji2f4wLNZNHPpBllFCH7bJLy-hmg9zTMC9_kvKd7hjrNtVO-TBg5M5Ay6nQ5h-sMWTxjShonSkpmrsjdUxVh3iEghxkjMPxjUfwyQeiTxLskl_LAliIhOM_SHtcTY_Y-EaOzmJUnoYZ3ugCizHyerDC39THQROQKp6PGAMiaqTY-PXyXo_i0tW2erY19SOcMjw0JIdtU86yNNjhGFiOS-01QFmr9Owesexo8oeIjJexkF1D8w_3mRbjHLwr8S53Y2WC7Kqc7ea7izgfb6njjMBhQHnzyf2GacMxna4IRu9FEM8dU2LSQumRk7IAw4xlt60RF2Cn-83nJxxFv3PYuKdC1BKaW0POfTKulSAWR8GVVW4fX-0ZzzVoP5aCpYEI6P5pYN85FxDoNKejShGwGMS6M6uxWCwGKJFaC4G4QPCOMz1BHSsmX7ctbcuJSg6qFUJieZEDubGM4Rt96dkpzw2leYjf860VtNBSCrpxA7Sv4P_RFx0ucCxAsT5qzXi0?></g></svg>