<?plantuml 1.2026.2?><svg xmlns="http://www.w3.org/2000/svg" xmlns:xlink="http://www.w3.org/1999/xlink" contentStyleType="text/css" data-diagram-type="MINDMAP" height="303px" preserveAspectRatio="none" style="width:733px;height:303px;background:#FFFFFF;" version="1.1" viewBox="0 0 733 303" width="733px" zoomAndPan="magnify"><defs/><g><rect fill="#FF5F46" height="52.9766" rx="12.5" ry="12.5" style="stroke:#FF5F46;stroke-width:3;" width="106.6318" x="10" y="124.2207"/><text fill="#FFFFFF" font-family="sans-serif" font-size="14" lengthAdjust="spacing" textLength="83.5557" x="20" y="147.7559">Data Quality</text><text fill="#FFFFFF" font-family="sans-serif" font-size="14" lengthAdjust="spacing" textLength="86.6318" x="20" y="164.2441">Expectations</text><rect fill="#0078D4" height="36.4883" rx="12.5" ry="12.5" style="stroke:#0078D4;stroke-width:3;" width="118.335" x="166.6318" y="20"/><text fill="#FFFFFF" font-family="sans-serif" font-size="14" lengthAdjust="spacing" textLength="98.335" x="176.6318" y="43.5352">What They Are</text><text fill="#000000" font-family="sans-serif" font-size="14" lengthAdjust="spacing" textLength="212.0918" x="337.9668" y="25.0469">Built-in constraints in Lakeflow</text><path d="M284.9668,38.2441 L294.9668,38.2441 C309.9668,38.2441 309.9668,19.7559 324.9668,19.7559 L334.9668,19.7559" fill="none" style="stroke:#0078D4;stroke-width:3;"/><text fill="#000000" font-family="sans-serif" font-size="14" lengthAdjust="spacing" textLength="195.7402" x="337.9668" y="43.5352">Validate records as they flow</text><path d="M284.9668,38.2441 L294.9668,38.2441 C309.9668,38.2441 309.9668,38.2441 324.9668,38.2441 L334.9668,38.2441" fill="none" style="stroke:#0078D4;stroke-width:3;"/><text fill="#000000" font-family="sans-serif" font-size="14" lengthAdjust="spacing" textLength="163.1602" x="337.9668" y="62.0234">Declarative quality rules</text><path d="M284.9668,38.2441 L294.9668,38.2441 C309.9668,38.2441 309.9668,56.7324 324.9668,56.7324 L334.9668,56.7324" fill="none" style="stroke:#0078D4;stroke-width:3;"/><path d="M116.6318,150.709 L126.6318,150.709 C141.6318,150.709 141.6318,38.2441 156.6318,38.2441 L166.6318,38.2441" fill="none" style="stroke:#FF5F46;stroke-width:3;"/><rect fill="#0078D4" height="36.4883" rx="12.5" ry="12.5" style="stroke:#0078D4;stroke-width:3;" width="156.835" x="166.6318" y="132.4648"/><text fill="#FFFFFF" font-family="sans-serif" font-size="14" lengthAdjust="spacing" textLength="136.835" x="176.6318" y="156">Actions on Violation</text><rect fill="#FFB900" height="36.4883" rx="12.5" ry="12.5" style="stroke:#FFB900;stroke-width:3;" width="54.125" x="373.4668" y="75.9766"/><text fill="#000000" font-family="sans-serif" font-size="14" lengthAdjust="spacing" textLength="34.125" x="383.4668" y="99.5117">Warn</text><text fill="#000000" font-family="sans-serif" font-size="14" lengthAdjust="spacing" textLength="169.21" x="480.5918" y="81.0234">Records written to target</text><path d="M427.5918,94.2207 L437.5918,94.2207 C452.5918,94.2207 452.5918,75.7324 467.5918,75.7324 L477.5918,75.7324" fill="none" style="stroke:#FFB900;stroke-width:3;"/><text fill="#000000" font-family="sans-serif" font-size="14" lengthAdjust="spacing" textLength="100.3242" x="480.5918" y="99.5117">Metrics logged</text><path d="M427.5918,94.2207 L437.5918,94.2207 C452.5918,94.2207 452.5918,94.2207 467.5918,94.2207 L477.5918,94.2207" fill="none" style="stroke:#FFB900;stroke-width:3;"/><text fill="#000000" font-family="sans-serif" font-size="14" lengthAdjust="spacing" textLength="151.0947" x="480.5918" y="118">Monitor quality trends</text><path d="M427.5918,94.2207 L437.5918,94.2207 C452.5918,94.2207 452.5918,112.709 467.5918,112.709 L477.5918,112.709" fill="none" style="stroke:#FFB900;stroke-width:3;"/><path d="M323.4668,150.709 L333.4668,150.709 C348.4668,150.709 348.4668,94.2207 363.4668,94.2207 L373.4668,94.2207" fill="none" style="stroke:#0078D4;stroke-width:3;"/><rect fill="#FFB900" height="36.4883" rx="12.5" ry="12.5" style="stroke:#FFB900;stroke-width:3;" width="86.2949" x="373.4668" y="132.4648"/><text fill="#000000" font-family="sans-serif" font-size="14" lengthAdjust="spacing" textLength="66.2949" x="383.4668" y="156">Drop Row</text><text fill="#000000" font-family="sans-serif" font-size="14" lengthAdjust="spacing" textLength="166.1543" x="512.7617" y="146.7559">Invalid records excluded</text><path d="M459.7617,150.709 L469.7617,150.709 C484.7617,150.709 484.7617,141.4648 499.7617,141.4648 L509.7617,141.4648" fill="none" style="stroke:#FFB900;stroke-width:3;"/><text fill="#000000" font-family="sans-serif" font-size="14" lengthAdjust="spacing" textLength="208.2432" x="512.7617" y="165.2441">Prevents bad data propagation</text><path d="M459.7617,150.709 L469.7617,150.709 C484.7617,150.709 484.7617,159.9531 499.7617,159.9531 L509.7617,159.9531" fill="none" style="stroke:#FFB900;stroke-width:3;"/><path d="M323.4668,150.709 L333.4668,150.709 C348.4668,150.709 348.4668,150.709 363.4668,150.709 L373.4668,150.709" fill="none" style="stroke:#0078D4;stroke-width:3;"/><rect fill="#FFB900" height="36.4883" rx="12.5" ry="12.5" style="stroke:#FFB900;stroke-width:3;" width="95.8516" x="373.4668" y="188.9531"/><text fill="#000000" font-family="sans-serif" font-size="14" lengthAdjust="spacing" textLength="75.8516" x="383.4668" y="212.4883">Fail Update</text><text fill="#000000" font-family="sans-serif" font-size="14" lengthAdjust="spacing" textLength="181.7334" x="522.3184" y="194">Pipeline stops immediately</text><path d="M469.3184,207.1973 L479.3184,207.1973 C494.3184,207.1973 494.3184,188.709 509.3184,188.709 L519.3184,188.709" fill="none" style="stroke:#FFB900;stroke-width:3;"/><text fill="#000000" font-family="sans-serif" font-size="14" lengthAdjust="spacing" textLength="149.4336" x="522.3184" y="212.4883">Rolls back transaction</text><path d="M469.3184,207.1973 L479.3184,207.1973 C494.3184,207.1973 494.3184,207.1973 509.3184,207.1973 L519.3184,207.1973" fill="none" style="stroke:#FFB900;stroke-width:3;"/><text fill="#000000" font-family="sans-serif" font-size="14" lengthAdjust="spacing" textLength="160.6035" x="522.3184" y="230.9766">Critical constraints only</text><path d="M469.3184,207.1973 L479.3184,207.1973 C494.3184,207.1973 494.3184,225.6855 509.3184,225.6855 L519.3184,225.6855" fill="none" style="stroke:#FFB900;stroke-width:3;"/><path d="M323.4668,150.709 L333.4668,150.709 C348.4668,150.709 348.4668,207.1973 363.4668,207.1973 L373.4668,207.1973" fill="none" style="stroke:#0078D4;stroke-width:3;"/><path d="M116.6318,150.709 L126.6318,150.709 C141.6318,150.709 141.6318,150.709 156.6318,150.709 L166.6318,150.709" fill="none" style="stroke:#FF5F46;stroke-width:3;"/><rect fill="#0078D4" height="36.4883" rx="12.5" ry="12.5" style="stroke:#0078D4;stroke-width:3;" width="59.9219" x="166.6318" y="244.9297"/><text fill="#FFFFFF" font-family="sans-serif" font-size="14" lengthAdjust="spacing" textLength="39.9219" x="176.6318" y="268.4648">Scope</text><text fill="#000000" font-family="sans-serif" font-size="14" lengthAdjust="spacing" textLength="183.7295" x="279.5537" y="249.9766">Only that flow stops on fail</text><path d="M226.5537,263.1738 L236.5537,263.1738 C251.5537,263.1738 251.5537,244.6855 266.5537,244.6855 L276.5537,244.6855" fill="none" style="stroke:#0078D4;stroke-width:3;"/><text fill="#000000" font-family="sans-serif" font-size="14" lengthAdjust="spacing" textLength="196.1982" x="279.5537" y="268.4648">Other parallel flows continue</text><path d="M226.5537,263.1738 L236.5537,263.1738 C251.5537,263.1738 251.5537,263.1738 266.5537,263.1738 L276.5537,263.1738" fill="none" style="stroke:#0078D4;stroke-width:3;"/><text fill="#000000" font-family="sans-serif" font-size="14" lengthAdjust="spacing" textLength="180.8721" x="279.5537" y="286.9531">Requires Advanced edition</text><path d="M226.5537,263.1738 L236.5537,263.1738 C251.5537,263.1738 251.5537,281.6621 266.5537,281.6621 L276.5537,281.6621" fill="none" style="stroke:#0078D4;stroke-width:3;"/><path d="M116.6318,150.709 L126.6318,150.709 C141.6318,150.709 141.6318,263.1738 156.6318,263.1738 L166.6318,263.1738" fill="none" style="stroke:#FF5F46;stroke-width:3;"/><?plantuml-src VLDTRnCn47o_Nx4IBn29S0sbVAX2JHjEGYe2GcbVaD36tYHM7FjgxwM9AluxQ-SkKOE2d-xMipEpitSNaJ7mqZYznBeuZxonzB7ueAdc-VFo1JmM8ESIrM8MVEFqbRS-mBEgUbETdkMxQ-Fetshb7RVLQJuxxCtSg8MZ6E5rlop-T5edHxNAyksxqUcXra7rAUk1WogVlTRWgDPqEdbVbeTQ1zN_QfNvYDR4hst2F1v5dBzgu-x121dXUuFMyEQN-xIkIJ6oyIuMlHxSpP7XPauR60QIGkytN3R6yalZG0c60nh74UJr6XSqjVvXYxeLGerC44Zve2DW14uyUyY8bCKWMYk2-wq128quJy93bJs0Tt1hlCsEKXlSOSWFGZ1kgH-2OIO7x44-gHbnU_-5E1WLmVhPZ7HNzCwmXD4fSY2dOwOU1L_3U6jFa9_TAWsncu3MoZPwH_Gjq8hIx1FKe5EAjVJZR6-rGcFXPvrYw7fCJLRs295zBQajbwIDNDjDDvAtDZ6gXHX35r5rR79v9NCQXVP9yjxbPlYXVDrkwAkK96pPN0gxrP8Wf-AdHSWg0jIIlhLaComcLZQkQKd6TD-OG166UeLEaGQncirSI63TRrkSz0VbuAm_-0i0?></g></svg>