<?plantuml 1.2026.2?><svg xmlns="http://www.w3.org/2000/svg" xmlns:xlink="http://www.w3.org/1999/xlink" contentStyleType="text/css" data-diagram-type="MINDMAP" height="360px" preserveAspectRatio="none" style="width:683px;height:360px;background:#FFFFFF;" version="1.1" viewBox="0 0 683 360" width="683px" zoomAndPan="magnify"><defs/><g><rect fill="#FF5F46" height="52.9766" rx="12.5" ry="12.5" style="stroke:#FF5F46;stroke-width:3;" width="126.2441" x="10" y="152.9766"/><text fill="#FFFFFF" font-family="sans-serif" font-size="14" lengthAdjust="spacing" textLength="98.834" x="20" y="176.5117">Error Handling</text><text fill="#FFFFFF" font-family="sans-serif" font-size="14" lengthAdjust="spacing" textLength="106.2441" x="20" y="193">Responsibilities</text><rect fill="#0078D4" height="36.4883" rx="12.5" ry="12.5" style="stroke:#0078D4;stroke-width:3;" width="137.9063" x="186.2441" y="20"/><text fill="#FFFFFF" font-family="sans-serif" font-size="14" lengthAdjust="spacing" textLength="117.9063" x="196.2441" y="43.5352">Platform Handled</text><text fill="#000000" font-family="sans-serif" font-size="14" lengthAdjust="spacing" textLength="141.4082" x="377.1504" y="25.0469">Cluster node failures</text><path d="M324.1504,38.2441 L334.1504,38.2441 C349.1504,38.2441 349.1504,19.7559 364.1504,19.7559 L374.1504,19.7559" fill="none" style="stroke:#0078D4;stroke-width:3;"/><text fill="#000000" font-family="sans-serif" font-size="14" lengthAdjust="spacing" textLength="178.1582" x="377.1504" y="43.5352">Infrastructure-level issues</text><path d="M324.1504,38.2441 L334.1504,38.2441 C349.1504,38.2441 349.1504,38.2441 364.1504,38.2441 L374.1504,38.2441" fill="none" style="stroke:#0078D4;stroke-width:3;"/><text fill="#000000" font-family="sans-serif" font-size="14" lengthAdjust="spacing" textLength="97.6719" x="377.1504" y="62.0234">Auto-recovery</text><path d="M324.1504,38.2441 L334.1504,38.2441 C349.1504,38.2441 349.1504,56.7324 364.1504,56.7324 L374.1504,56.7324" fill="none" style="stroke:#0078D4;stroke-width:3;"/><path d="M136.2441,179.4648 L146.2441,179.4648 C161.2441,179.4648 161.2441,38.2441 176.2441,38.2441 L186.2441,38.2441" fill="none" style="stroke:#FF5F46;stroke-width:3;"/><rect fill="#0078D4" height="36.4883" rx="12.5" ry="12.5" style="stroke:#0078D4;stroke-width:3;" width="188.417" x="186.2441" y="76.4883"/><text fill="#FFFFFF" font-family="sans-serif" font-size="14" lengthAdjust="spacing" textLength="168.417" x="196.2441" y="100.0234">Engineer's Responsibility</text><text fill="#000000" font-family="sans-serif" font-size="14" lengthAdjust="spacing" textLength="115.377" x="427.6611" y="90.7793">Data-level errors</text><path d="M374.6611,94.7324 L384.6611,94.7324 C399.6611,94.7324 399.6611,85.4883 414.6611,85.4883 L424.6611,85.4883" fill="none" style="stroke:#0078D4;stroke-width:3;"/><text fill="#000000" font-family="sans-serif" font-size="14" lengthAdjust="spacing" textLength="168.6289" x="427.6611" y="109.2676">Application logic failures</text><path d="M374.6611,94.7324 L384.6611,94.7324 C399.6611,94.7324 399.6611,103.9766 414.6611,103.9766 L424.6611,103.9766" fill="none" style="stroke:#0078D4;stroke-width:3;"/><path d="M136.2441,179.4648 L146.2441,179.4648 C161.2441,179.4648 161.2441,94.7324 176.2441,94.7324 L186.2441,94.7324" fill="none" style="stroke:#FF5F46;stroke-width:3;"/><rect fill="#0078D4" height="36.4883" rx="12.5" ry="12.5" style="stroke:#0078D4;stroke-width:3;" width="97.7178" x="186.2441" y="189.4648"/><text fill="#FFFFFF" font-family="sans-serif" font-size="14" lengthAdjust="spacing" textLength="77.7178" x="196.2441" y="213">Error Types</text><rect fill="#FFB900" height="36.4883" rx="12.5" ry="12.5" style="stroke:#FFB900;stroke-width:3;" width="100.2197" x="333.9619" y="132.9766"/><text fill="#000000" font-family="sans-serif" font-size="14" lengthAdjust="spacing" textLength="80.2197" x="343.9619" y="156.5117">Invalid Data</text><text fill="#000000" font-family="sans-serif" font-size="14" lengthAdjust="spacing" textLength="81.6758" x="487.1816" y="147.2676">Bad formats</text><path d="M434.1816,151.2207 L444.1816,151.2207 C459.1816,151.2207 459.1816,141.9766 474.1816,141.9766 L484.1816,141.9766" fill="none" style="stroke:#FFB900;stroke-width:3;"/><text fill="#000000" font-family="sans-serif" font-size="14" lengthAdjust="spacing" textLength="155.1074" x="487.1816" y="165.7559">Missing required fields</text><path d="M434.1816,151.2207 L444.1816,151.2207 C459.1816,151.2207 459.1816,160.4648 474.1816,160.4648 L484.1816,160.4648" fill="none" style="stroke:#FFB900;stroke-width:3;"/><path d="M283.9619,207.709 L293.9619,207.709 C308.9619,207.709 308.9619,151.2207 323.9619,151.2207 L333.9619,151.2207" fill="none" style="stroke:#0078D4;stroke-width:3;"/><rect fill="#FFB900" height="36.4883" rx="12.5" ry="12.5" style="stroke:#FFB900;stroke-width:3;" width="100.9512" x="333.9619" y="189.4648"/><text fill="#000000" font-family="sans-serif" font-size="14" lengthAdjust="spacing" textLength="80.9512" x="343.9619" y="213">Logic Errors</text><text fill="#000000" font-family="sans-serif" font-size="14" lengthAdjust="spacing" textLength="127.4834" x="487.9131" y="213">Unexpected values</text><path d="M434.9131,207.709 L444.9131,207.709 C459.9131,207.709 459.9131,207.709 474.9131,207.709 L484.9131,207.709" fill="none" style="stroke:#FFB900;stroke-width:3;"/><path d="M283.9619,207.709 L293.9619,207.709 C308.9619,207.709 308.9619,207.709 323.9619,207.709 L333.9619,207.709" fill="none" style="stroke:#0078D4;stroke-width:3;"/><rect fill="#FFB900" height="36.4883" rx="12.5" ry="12.5" style="stroke:#FFB900;stroke-width:3;" width="143.5664" x="333.9619" y="245.9531"/><text fill="#000000" font-family="sans-serif" font-size="14" lengthAdjust="spacing" textLength="123.5664" x="343.9619" y="269.4883">Connection Issues</text><text fill="#000000" font-family="sans-serif" font-size="14" lengthAdjust="spacing" textLength="63.4307" x="530.5283" y="260.2441">Timeouts</text><path d="M477.5283,264.1973 L487.5283,264.1973 C502.5283,264.1973 502.5283,254.9531 517.5283,254.9531 L527.5283,254.9531" fill="none" style="stroke:#FFB900;stroke-width:3;"/><text fill="#000000" font-family="sans-serif" font-size="14" lengthAdjust="spacing" textLength="141.1758" x="530.5283" y="278.7324">Service unavailability</text><path d="M477.5283,264.1973 L487.5283,264.1973 C502.5283,264.1973 502.5283,273.4414 517.5283,273.4414 L527.5283,273.4414" fill="none" style="stroke:#FFB900;stroke-width:3;"/><path d="M283.9619,207.709 L293.9619,207.709 C308.9619,207.709 308.9619,264.1973 323.9619,264.1973 L333.9619,264.1973" fill="none" style="stroke:#0078D4;stroke-width:3;"/><path d="M136.2441,179.4648 L146.2441,179.4648 C161.2441,179.4648 161.2441,207.709 176.2441,207.709 L186.2441,207.709" fill="none" style="stroke:#FF5F46;stroke-width:3;"/><rect fill="#0078D4" height="36.4883" rx="12.5" ry="12.5" style="stroke:#0078D4;stroke-width:3;" width="156.2402" x="186.2441" y="302.4414"/><text fill="#FFFFFF" font-family="sans-serif" font-size="14" lengthAdjust="spacing" textLength="136.2402" x="196.2441" y="325.9766">Response Strategies</text><text fill="#000000" font-family="sans-serif" font-size="14" lengthAdjust="spacing" textLength="186.1494" x="395.4844" y="316.7324">Terminate pipeline (critical)</text><path d="M342.4844,320.6855 L352.4844,320.6855 C367.4844,320.6855 367.4844,311.4414 382.4844,311.4414 L392.4844,311.4414" fill="none" style="stroke:#0078D4;stroke-width:3;"/><text fill="#000000" font-family="sans-serif" font-size="14" lengthAdjust="spacing" textLength="210.5947" x="395.4844" y="335.2207">Log and continue (non-critical)</text><path d="M342.4844,320.6855 L352.4844,320.6855 C367.4844,320.6855 367.4844,329.9297 382.4844,329.9297 L392.4844,329.9297" fill="none" style="stroke:#0078D4;stroke-width:3;"/><path d="M136.2441,179.4648 L146.2441,179.4648 C161.2441,179.4648 161.2441,320.6855 176.2441,320.6855 L186.2441,320.6855" fill="none" style="stroke:#FF5F46;stroke-width:3;"/><?plantuml-src VLFRQXj137tVhn3qeOd1xiPDqmkXf76yD912QTotGXdFQZSYOyrsBajCwBzNUqspnTNZqU6S8mbT-A1Ss17dErKbvpxi3NvCFkHOXRkZz1WU4v2wLFg-T3PolhB6EdYHPM-oqxEsTqEC_wAPvT2ZHLiZTtD7-fxHUtYzI9FVWzV9GQyqVVlkwdJgDK6VgquIP6qzUIqFUXN5zdsQJhqcw7-zqhR4QsiVJCDvFCWuVzMlUmPhvwJrMN5kYCiV_0rzPTdJbWm5Gf_CPl3Lg51Oj-jec0is-mah4tr01snpX4AHYQwbI-kQ2wTyS5470US6QpH0tiU1y2a6EtUeROrktrYikPJvqBtqy2p1lkDVgQ1w6Mm23p9LPKYhG9R1s9BqtpdwqJRxgdELLBKobBTY3I02bog7PZ8LV8zyaPYo273uAv93QHEQl1EuQItMOm2XVsTyg5078OfuFn-iBBE0JQphSMfXRsY7DevUj-XgqWYHLIsvrJZni0E4s-1Km9A6nMtGoSi811LLA2T3ED9EBgMLEUueaXBaJg3byCHH26nv_aIwG7cv_ksIayKoNPujbdy0?></g></svg>