<?plantuml 1.2026.2?><svg xmlns="http://www.w3.org/2000/svg" xmlns:xlink="http://www.w3.org/1999/xlink" contentStyleType="text/css" data-diagram-type="MINDMAP" height="256px" preserveAspectRatio="none" style="width:656px;height:256px;background:#FFFFFF;" version="1.1" viewBox="0 0 656 256" width="656px" zoomAndPan="magnify"><defs/><g><rect fill="#FF5F46" height="52.9766" rx="12.5" ry="12.5" style="stroke:#FF5F46;stroke-width:3;" width="118.834" x="10" y="100.8545"/><text fill="#FFFFFF" font-family="sans-serif" font-size="14" lengthAdjust="spacing" textLength="60.8057" x="20" y="124.3896">Job-level</text><text fill="#FFFFFF" font-family="sans-serif" font-size="14" lengthAdjust="spacing" textLength="98.834" x="20" y="140.8779">Error Handling</text><rect fill="#0078D4" height="36.4883" rx="12.5" ry="12.5" style="stroke:#0078D4;stroke-width:3;" width="109.9473" x="178.834" y="20"/><text fill="#FFFFFF" font-family="sans-serif" font-size="14" lengthAdjust="spacing" textLength="89.9473" x="188.834" y="43.5352">Retry Policies</text><text fill="#000000" font-family="sans-serif" font-size="14" lengthAdjust="spacing" textLength="165.874" x="341.7813" y="25.0469">Retry count (1-3 typical)</text><path d="M288.7813,38.2441 L298.7813,38.2441 C313.7813,38.2441 313.7813,19.7559 328.7813,19.7559 L338.7813,19.7559" fill="none" style="stroke:#0078D4;stroke-width:3;"/><text fill="#000000" font-family="sans-serif" font-size="14" lengthAdjust="spacing" textLength="89.8857" x="341.7813" y="43.5352">Retry interval</text><path d="M288.7813,38.2441 L298.7813,38.2441 C313.7813,38.2441 313.7813,38.2441 328.7813,38.2441 L338.7813,38.2441" fill="none" style="stroke:#0078D4;stroke-width:3;"/><text fill="#000000" font-family="sans-serif" font-size="14" lengthAdjust="spacing" textLength="257.3594" x="341.7813" y="62.0234">Exponential backoff (continuous jobs)</text><path d="M288.7813,38.2441 L298.7813,38.2441 C313.7813,38.2441 313.7813,56.7324 328.7813,56.7324 L338.7813,56.7324" fill="none" style="stroke:#0078D4;stroke-width:3;"/><path d="M128.834,127.3428 L138.834,127.3428 C153.834,127.3428 153.834,38.2441 168.834,38.2441 L178.834,38.2441" fill="none" style="stroke:#FF5F46;stroke-width:3;"/><rect fill="#0078D4" height="36.4883" rx="12.5" ry="12.5" style="stroke:#0078D4;stroke-width:3;" width="83.4307" x="178.834" y="76.4883"/><text fill="#FFFFFF" font-family="sans-serif" font-size="14" lengthAdjust="spacing" textLength="63.4307" x="188.834" y="100.0234">Timeouts</text><text fill="#000000" font-family="sans-serif" font-size="14" lengthAdjust="spacing" textLength="201.0244" x="315.2646" y="90.7793">Expected duration &#8594; warning</text><path d="M262.2646,94.7324 L272.2646,94.7324 C287.2646,94.7324 287.2646,85.4883 302.2646,85.4883 L312.2646,85.4883" fill="none" style="stroke:#0078D4;stroke-width:3;"/><text fill="#000000" font-family="sans-serif" font-size="14" lengthAdjust="spacing" textLength="217.4102" x="315.2646" y="109.2676">Maximum duration &#8594; terminate</text><path d="M262.2646,94.7324 L272.2646,94.7324 C287.2646,94.7324 287.2646,103.9766 302.2646,103.9766 L312.2646,103.9766" fill="none" style="stroke:#0078D4;stroke-width:3;"/><path d="M128.834,127.3428 L138.834,127.3428 C153.834,127.3428 153.834,94.7324 168.834,94.7324 L178.834,94.7324" fill="none" style="stroke:#FF5F46;stroke-width:3;"/><rect fill="#0078D4" height="36.4883" rx="12.5" ry="12.5" style="stroke:#0078D4;stroke-width:3;" width="106.0303" x="178.834" y="132.9766"/><text fill="#FFFFFF" font-family="sans-serif" font-size="14" lengthAdjust="spacing" textLength="86.0303" x="188.834" y="156.5117">Notifications</text><text fill="#000000" font-family="sans-serif" font-size="14" lengthAdjust="spacing" textLength="133.4648" x="337.8643" y="128.7793">Email, Slack, Teams</text><path d="M284.8643,151.2207 L294.8643,151.2207 C309.8643,151.2207 309.8643,123.4883 324.8643,123.4883 L334.8643,123.4883" fill="none" style="stroke:#0078D4;stroke-width:3;"/><text fill="#000000" font-family="sans-serif" font-size="14" lengthAdjust="spacing" textLength="146.918" x="337.8643" y="147.2676">PagerDuty, webhooks</text><path d="M284.8643,151.2207 L294.8643,151.2207 C309.8643,151.2207 309.8643,141.9766 324.8643,141.9766 L334.8643,141.9766" fill="none" style="stroke:#0078D4;stroke-width:3;"/><text fill="#000000" font-family="sans-serif" font-size="14" lengthAdjust="spacing" textLength="230.0498" x="337.8643" y="165.7559">On start/success/failure/duration</text><path d="M284.8643,151.2207 L294.8643,151.2207 C309.8643,151.2207 309.8643,160.4648 324.8643,160.4648 L334.8643,160.4648" fill="none" style="stroke:#0078D4;stroke-width:3;"/><text fill="#000000" font-family="sans-serif" font-size="14" lengthAdjust="spacing" textLength="133.7383" x="337.8643" y="184.2441">Mute until last retry</text><path d="M284.8643,151.2207 L294.8643,151.2207 C309.8643,151.2207 309.8643,178.9531 324.8643,178.9531 L334.8643,178.9531" fill="none" style="stroke:#0078D4;stroke-width:3;"/><path d="M128.834,127.3428 L138.834,127.3428 C153.834,127.3428 153.834,151.2207 168.834,151.2207 L178.834,151.2207" fill="none" style="stroke:#FF5F46;stroke-width:3;"/><rect fill="#0078D4" height="36.4883" rx="12.5" ry="12.5" style="stroke:#0078D4;stroke-width:3;" width="177.0215" x="178.834" y="198.1973"/><text fill="#FFFFFF" font-family="sans-serif" font-size="14" lengthAdjust="spacing" textLength="157.0215" x="188.834" y="221.7324">Conditional Task Flows</text><text fill="#000000" font-family="sans-serif" font-size="14" lengthAdjust="spacing" textLength="175.1504" x="408.8555" y="203.2441">All succeeded &#8594; continue</text><path d="M355.8555,216.4414 L365.8555,216.4414 C380.8555,216.4414 380.8555,197.9531 395.8555,197.9531 L405.8555,197.9531" fill="none" style="stroke:#0078D4;stroke-width:3;"/><text fill="#000000" font-family="sans-serif" font-size="14" lengthAdjust="spacing" textLength="235.1768" x="408.8555" y="221.7324">At least one failed &#8594; error handler</text><path d="M355.8555,216.4414 L365.8555,216.4414 C380.8555,216.4414 380.8555,216.4414 395.8555,216.4414 L405.8555,216.4414" fill="none" style="stroke:#0078D4;stroke-width:3;"/><text fill="#000000" font-family="sans-serif" font-size="14" lengthAdjust="spacing" textLength="168.9023" x="408.8555" y="240.2207">All done &#8594; cleanup logic</text><path d="M355.8555,216.4414 L365.8555,216.4414 C380.8555,216.4414 380.8555,234.9297 395.8555,234.9297 L405.8555,234.9297" fill="none" style="stroke:#0078D4;stroke-width:3;"/><path d="M128.834,127.3428 L138.834,127.3428 C153.834,127.3428 153.834,216.4414 168.834,216.4414 L178.834,216.4414" fill="none" style="stroke:#FF5F46;stroke-width:3;"/><?plantuml-src VLFRRXCn47tVhnY9bpHAaqrQoaKLAhHT8KIXWZmY8QztDZ7nUbQ-D8agNli1V29VmdZhj7HHcCSpPyuv7jjdpWlh6sMgHhJPgVDRZM-ornMsVZd83-0s0wvtGguMbeAfpacJXMT5yRmuFkbw7vN1Vz62Z4zetTK3TxvKScNGEJWQvzdFdTTqhrUUltXvSTptwg5FLNi9YguUlMPxlUgwV9NdVQyU-b-ll2lsAccZ8-TsB-DqajOzX0zK7cgyGVtDN5hBhFV2L5gPHJOSmXVqTWlNf9LKw1WPVa-OvEWU1jF38_3RLacX3_vkA-FHtWXzZrrkMZ9el18QIZuurJKC9ETI9b1my8DA5yTXhXgauDt364gF5LJ12g_8mE-xNx0Mrjp7OygLsAWcD4yPRCtFIdYCaf_8gvhpnUvEjn5AZ-2hvYWZcADeKkDQBD1U1ByTmHhB9T4gDJuRw5xhn0KfURMJcXM2nSdEDwK97e7teZHeuJpOk8iOufnCfIAF5p0NRWM5fdNIVgirTB9OyL5Z_hGPJ7qF6gCQhn2YRs9XTrlBU5je7wMgIEjKUCg45ZGjbCpEaFzP-clPT3pBPoVZsHy0?></g></svg>