<?plantuml 1.2026.2?><svg xmlns="http://www.w3.org/2000/svg" xmlns:xlink="http://www.w3.org/1999/xlink" contentStyleType="text/css" data-diagram-type="MINDMAP" height="208px" preserveAspectRatio="none" style="width:611px;height:208px;background:#FFFFFF;" version="1.1" viewBox="0 0 611 208" width="611px" zoomAndPan="magnify"><defs/><g><rect fill="#FF5F46" height="52.9766" rx="12.5" ry="12.5" style="stroke:#FF5F46;stroke-width:3;" width="118.834" x="10" y="76.7207"/><text fill="#FFFFFF" font-family="sans-serif" font-size="14" lengthAdjust="spacing" textLength="98.834" x="20" y="100.2559">Error Handling</text><text fill="#FFFFFF" font-family="sans-serif" font-size="14" lengthAdjust="spacing" textLength="90.4736" x="20" y="116.7441">in Notebooks</text><rect fill="#0078D4" height="36.4883" rx="12.5" ry="12.5" style="stroke:#0078D4;stroke-width:3;" width="142.8076" x="178.834" y="20"/><text fill="#FFFFFF" font-family="sans-serif" font-size="14" lengthAdjust="spacing" textLength="122.8076" x="188.834" y="43.5352">Try-Except Blocks</text><text fill="#000000" font-family="sans-serif" font-size="14" lengthAdjust="spacing" textLength="162.5176" x="374.6416" y="25.0469">Catch PySparkException</text><path d="M321.6416,38.2441 L331.6416,38.2441 C346.6416,38.2441 346.6416,19.7559 361.6416,19.7559 L371.6416,19.7559" fill="none" style="stroke:#0078D4;stroke-width:3;"/><text fill="#000000" font-family="sans-serif" font-size="14" lengthAdjust="spacing" textLength="224.7998" x="374.6416" y="43.5352">getErrorClass() for specific errors</text><path d="M321.6416,38.2441 L331.6416,38.2441 C346.6416,38.2441 346.6416,38.2441 361.6416,38.2441 L371.6416,38.2441" fill="none" style="stroke:#0078D4;stroke-width:3;"/><text fill="#000000" font-family="sans-serif" font-size="14" lengthAdjust="spacing" textLength="186.1699" x="374.6416" y="62.0234">Re-raise unexpected errors</text><path d="M321.6416,38.2441 L331.6416,38.2441 C346.6416,38.2441 346.6416,56.7324 361.6416,56.7324 L371.6416,56.7324" fill="none" style="stroke:#0078D4;stroke-width:3;"/><path d="M128.834,103.209 L138.834,103.209 C153.834,103.209 153.834,38.2441 168.834,38.2441 L178.834,38.2441" fill="none" style="stroke:#FF5F46;stroke-width:3;"/><rect fill="#0078D4" height="36.4883" rx="12.5" ry="12.5" style="stroke:#0078D4;stroke-width:3;" width="95.373" x="178.834" y="76.4883"/><text fill="#FFFFFF" font-family="sans-serif" font-size="14" lengthAdjust="spacing" textLength="75.373" x="188.834" y="100.0234">Retry Logic</text><text fill="#000000" font-family="sans-serif" font-size="14" lengthAdjust="spacing" textLength="212.2422" x="327.207" y="81.5352">Implement exponential backoff</text><path d="M274.207,94.7324 L284.207,94.7324 C299.207,94.7324 299.207,76.2441 314.207,76.2441 L324.207,76.2441" fill="none" style="stroke:#0078D4;stroke-width:3;"/><text fill="#000000" font-family="sans-serif" font-size="14" lengthAdjust="spacing" textLength="171.8145" x="327.207" y="100.0234">Max retries configuration</text><path d="M274.207,94.7324 L284.207,94.7324 C299.207,94.7324 299.207,94.7324 314.207,94.7324 L324.207,94.7324" fill="none" style="stroke:#0078D4;stroke-width:3;"/><text fill="#000000" font-family="sans-serif" font-size="14" lengthAdjust="spacing" textLength="196.8955" x="327.207" y="118.5117">Base delay between attempts</text><path d="M274.207,94.7324 L284.207,94.7324 C299.207,94.7324 299.207,113.2207 314.207,113.2207 L324.207,113.2207" fill="none" style="stroke:#0078D4;stroke-width:3;"/><path d="M128.834,103.209 L138.834,103.209 C153.834,103.209 153.834,94.7324 168.834,94.7324 L178.834,94.7324" fill="none" style="stroke:#FF5F46;stroke-width:3;"/><rect fill="#0078D4" height="36.4883" rx="12.5" ry="12.5" style="stroke:#0078D4;stroke-width:3;" width="112.3809" x="178.834" y="141.1973"/><text fill="#FFFFFF" font-family="sans-serif" font-size="14" lengthAdjust="spacing" textLength="92.3809" x="188.834" y="164.7324">Signal to Jobs</text><text fill="#000000" font-family="sans-serif" font-size="14" lengthAdjust="spacing" textLength="154.9297" x="344.2148" y="137">dbutils.notebook.exit()</text><path d="M291.2148,159.4414 L301.2148,159.4414 C316.2148,159.4414 316.2148,131.709 331.2148,131.709 L341.2148,131.709" fill="none" style="stroke:#0078D4;stroke-width:3;"/><text fill="#000000" font-family="sans-serif" font-size="14" lengthAdjust="spacing" textLength="211.5791" x="344.2148" y="155.4883">Communicate SUCCESS/FAILED</text><path d="M291.2148,159.4414 L301.2148,159.4414 C316.2148,159.4414 316.2148,150.1973 331.2148,150.1973 L341.2148,150.1973" fill="none" style="stroke:#0078D4;stroke-width:3;"/><text fill="#000000" font-family="sans-serif" font-size="14" lengthAdjust="spacing" textLength="143.7803" x="344.2148" y="173.9766">Pass result messages</text><path d="M291.2148,159.4414 L301.2148,159.4414 C316.2148,159.4414 316.2148,168.6855 331.2148,168.6855 L341.2148,168.6855" fill="none" style="stroke:#0078D4;stroke-width:3;"/><text fill="#000000" font-family="sans-serif" font-size="14" lengthAdjust="spacing" textLength="249.8057" x="344.2148" y="192.4648">Enable conditional downstream logic</text><path d="M291.2148,159.4414 L301.2148,159.4414 C316.2148,159.4414 316.2148,187.1738 331.2148,187.1738 L341.2148,187.1738" fill="none" style="stroke:#0078D4;stroke-width:3;"/><path d="M128.834,103.209 L138.834,103.209 C153.834,103.209 153.834,159.4414 168.834,159.4414 L178.834,159.4414" fill="none" style="stroke:#FF5F46;stroke-width:3;"/><?plantuml-src VPFHQzim4CRV_LSSx2K9r7Mphbr76LrSctMafSpjss38yjaHaKz6EbERil-zYkCjp2Ex9tFVv_jzEg4Rny9ohQYeHHDSE-urVWu-5TZmPXRDuJK0NoiXjvKrBHMnqSR2kpJza9vV3DfQ4VxRJGtns2s7-kDzsYYv9NGEteTHyEitw-meAuekFzwUJrcJxjzJ9mdIeGwivL5MMUPNKJHbJRh_PKL3ULPkEhtpl1vrN9-Ewrv0OgsNlWegjABg1oc21yEO6xDrmM81JxO_IJhfqyDA6paq5pyX5YmtyDXdZR3RlQuCxRKAUPWQQ-7SR0wb1xW6fIgL1Dmfuv3lU6A5SWWjOUSDZCL1zohR7jQcKd9llwiRZJKIWtSRyXzAQCZz9es_vS5oBpgm_Z-53gIXKbMj5OTaA-5X1MhHGuxyWaWWcB5kU21cgY8_aGryC_cOiSXRLjg5D2ubn4xnR3vkmTHrIqeAHiYUupZ9ijFqozqwkTthZtu1FezhDKFjhqHKE8vDIEGQTnaBjSldiOLv8SSMHGrwEFGD-hSnle_WB5n6oujm-GO0?></g></svg>