<?plantuml 1.2026.2?><svg xmlns="http://www.w3.org/2000/svg" xmlns:xlink="http://www.w3.org/1999/xlink" contentStyleType="text/css" data-diagram-type="MINDMAP" height="247px" preserveAspectRatio="none" style="width:594px;height:247px;background:#FFFFFF;" version="1.1" viewBox="0 0 594 247" width="594px" zoomAndPan="magnify"><defs/><g><rect fill="#FF5F46" height="52.9766" rx="12.5" ry="12.5" style="stroke:#FF5F46;stroke-width:3;" width="117.8838" x="10" y="96.4883"/><text fill="#FFFFFF" font-family="sans-serif" font-size="14" lengthAdjust="spacing" textLength="97.8838" x="20" y="120.0234">Add Notebook</text><text fill="#FFFFFF" font-family="sans-serif" font-size="14" lengthAdjust="spacing" textLength="76.3643" x="20" y="136.5117">Task to Job</text><rect fill="#0078D4" height="36.4883" rx="12.5" ry="12.5" style="stroke:#0078D4;stroke-width:3;" width="82.9316" x="177.8838" y="20"/><text fill="#FFFFFF" font-family="sans-serif" font-size="14" lengthAdjust="spacing" textLength="62.9316" x="187.8838" y="43.5352">What It Is</text><text fill="#000000" font-family="sans-serif" font-size="14" lengthAdjust="spacing" textLength="205.4473" x="313.8154" y="25.0469">Runs a notebook as a job step</text><path d="M260.8154,38.2441 L270.8154,38.2441 C285.8154,38.2441 285.8154,19.7559 300.8154,19.7559 L310.8154,19.7559" fill="none" style="stroke:#0078D4;stroke-width:3;"/><text fill="#000000" font-family="sans-serif" font-size="14" lengthAdjust="spacing" textLength="151.6758" x="313.8154" y="43.5352">Specify notebook path</text><path d="M260.8154,38.2441 L270.8154,38.2441 C285.8154,38.2441 285.8154,38.2441 300.8154,38.2441 L310.8154,38.2441" fill="none" style="stroke:#0078D4;stroke-width:3;"/><text fill="#000000" font-family="sans-serif" font-size="14" lengthAdjust="spacing" textLength="226.3174" x="313.8154" y="62.0234">Configure compute &amp; parameters</text><path d="M260.8154,38.2441 L270.8154,38.2441 C285.8154,38.2441 285.8154,56.7324 300.8154,56.7324 L310.8154,56.7324" fill="none" style="stroke:#0078D4;stroke-width:3;"/><path d="M127.8838,122.9766 L137.8838,122.9766 C152.8838,122.9766 152.8838,38.2441 167.8838,38.2441 L177.8838,38.2441" fill="none" style="stroke:#FF5F46;stroke-width:3;"/><rect fill="#0078D4" height="36.4883" rx="12.5" ry="12.5" style="stroke:#0078D4;stroke-width:3;" width="156.8486" x="177.8838" y="76.4883"/><text fill="#FFFFFF" font-family="sans-serif" font-size="14" lengthAdjust="spacing" textLength="136.8486" x="187.8838" y="100.0234">DAG Representation</text><text fill="#000000" font-family="sans-serif" font-size="14" lengthAdjust="spacing" textLength="169.6406" x="387.7324" y="81.5352">Each task = node in DAG</text><path d="M334.7324,94.7324 L344.7324,94.7324 C359.7324,94.7324 359.7324,76.2441 374.7324,76.2441 L384.7324,76.2441" fill="none" style="stroke:#0078D4;stroke-width:3;"/><text fill="#000000" font-family="sans-serif" font-size="14" lengthAdjust="spacing" textLength="144.8604" x="387.7324" y="100.0234">Visual execution flow</text><path d="M334.7324,94.7324 L344.7324,94.7324 C359.7324,94.7324 359.7324,94.7324 374.7324,94.7324 L384.7324,94.7324" fill="none" style="stroke:#0078D4;stroke-width:3;"/><text fill="#000000" font-family="sans-serif" font-size="14" lengthAdjust="spacing" textLength="195.2344" x="387.7324" y="118.5117">Shows dependencies visually</text><path d="M334.7324,94.7324 L344.7324,94.7324 C359.7324,94.7324 359.7324,113.2207 374.7324,113.2207 L384.7324,113.2207" fill="none" style="stroke:#0078D4;stroke-width:3;"/><path d="M127.8838,122.9766 L137.8838,122.9766 C152.8838,122.9766 152.8838,94.7324 167.8838,94.7324 L177.8838,94.7324" fill="none" style="stroke:#FF5F46;stroke-width:3;"/><rect fill="#0078D4" height="36.4883" rx="12.5" ry="12.5" style="stroke:#0078D4;stroke-width:3;" width="125.3828" x="177.8838" y="132.9766"/><text fill="#FFFFFF" font-family="sans-serif" font-size="14" lengthAdjust="spacing" textLength="105.3828" x="187.8838" y="156.5117">Typical Pipeline</text><text fill="#000000" font-family="sans-serif" font-size="14" lengthAdjust="spacing" textLength="131.9063" x="356.2666" y="138.0234">Ingestion notebook</text><path d="M303.2666,151.2207 L313.2666,151.2207 C328.2666,151.2207 328.2666,132.7324 343.2666,132.7324 L353.2666,132.7324" fill="none" style="stroke:#0078D4;stroke-width:3;"/><text fill="#000000" font-family="sans-serif" font-size="14" lengthAdjust="spacing" textLength="173.9336" x="356.2666" y="156.5117">Transformation notebook</text><path d="M303.2666,151.2207 L313.2666,151.2207 C328.2666,151.2207 328.2666,151.2207 343.2666,151.2207 L353.2666,151.2207" fill="none" style="stroke:#0078D4;stroke-width:3;"/><text fill="#000000" font-family="sans-serif" font-size="14" lengthAdjust="spacing" textLength="191.9668" x="356.2666" y="175">Load to final table notebook</text><path d="M303.2666,151.2207 L313.2666,151.2207 C328.2666,151.2207 328.2666,169.709 343.2666,169.709 L353.2666,169.709" fill="none" style="stroke:#0078D4;stroke-width:3;"/><path d="M127.8838,122.9766 L137.8838,122.9766 C152.8838,122.9766 152.8838,151.2207 167.8838,151.2207 L177.8838,151.2207" fill="none" style="stroke:#FF5F46;stroke-width:3;"/><rect fill="#0078D4" height="36.4883" rx="12.5" ry="12.5" style="stroke:#0078D4;stroke-width:3;" width="82.9932" x="177.8838" y="189.4648"/><text fill="#FFFFFF" font-family="sans-serif" font-size="14" lengthAdjust="spacing" textLength="62.9932" x="187.8838" y="213">Key Point</text><text fill="#000000" font-family="sans-serif" font-size="14" lengthAdjust="spacing" textLength="209.583" x="313.877" y="203.7559">Without dependencies = chaos</text><path d="M260.877,207.709 L270.877,207.709 C285.877,207.709 285.877,198.4648 300.877,198.4648 L310.877,198.4648" fill="none" style="stroke:#0078D4;stroke-width:3;"/><text fill="#000000" font-family="sans-serif" font-size="14" lengthAdjust="spacing" textLength="203.5605" x="313.877" y="222.2441">Dependencies = correct order</text><path d="M260.877,207.709 L270.877,207.709 C285.877,207.709 285.877,216.9531 300.877,216.9531 L310.877,216.9531" fill="none" style="stroke:#0078D4;stroke-width:3;"/><path d="M127.8838,122.9766 L137.8838,122.9766 C152.8838,122.9766 152.8838,207.709 167.8838,207.709 L177.8838,207.709" fill="none" style="stroke:#FF5F46;stroke-width:3;"/><?plantuml-src VLDTRzGm47pFhrW92S4z7EbHoeTQrD8Zg52Xgfpe2n9oxCt5NB9hsPksKSL_n_auIWF7oY-UcTrPZ-JZ8CfBRSdKoYM7GTeAtoPl33efdwHFuIw1ME-KtgmzDsHEkM8FZxBiHRP_q7Fdbl1lD6EI4Itw-grTbLPl24E0v_Cq-RdrsjlfbQOlNottfruJzE7KoGPPN_TUYvrUHP6_JjEfrmJzhrVQL_JA-RRgD7Sx5OVFnhXdS68CV6R1d7dpZLOgR40OFdAUp6PmLIg1itX2lCs-msL30HJGg0VLtNvm3a7G3P8l3hKjsdkDKr8Er2bJOTUDHz1SkqOG7aVMgne5VUS0ovCFS8dEOq0I9PPfw7olT0dIxNOK1ni4Ivrs8B_QqAWAy1PrqxL0KV7Dk4p9Dm5Yz4W6ILiCSDshgxQpMxNEwjXwOHrMCTwXwOpM6Ff1spSC-Ceh2WNxMls3F6Tbkk0AIt6WgBp2FnNm2LkuO4iooA-ibDp8mzMEG9UAnwYN4uQzHot0tg1FZYEr_Jd9tdoHBWxcYry0?></g></svg>