<?plantuml 1.2026.2?><svg xmlns="http://www.w3.org/2000/svg" xmlns:xlink="http://www.w3.org/1999/xlink" contentStyleType="text/css" data-diagram-type="MINDMAP" height="304px" preserveAspectRatio="none" style="width:619px;height:304px;background:#FFFFFF;" version="1.1" viewBox="0 0 619 304" width="619px" zoomAndPan="magnify"><defs/><g><rect fill="#FF5F46" height="52.9766" rx="12.5" ry="12.5" style="stroke:#FF5F46;stroke-width:3;" width="150.7168" x="10" y="124.7324"/><text fill="#FFFFFF" font-family="sans-serif" font-size="14" lengthAdjust="spacing" textLength="92.415" x="20" y="148.2676">Best Practices</text><text fill="#FFFFFF" font-family="sans-serif" font-size="14" lengthAdjust="spacing" textLength="130.7168" x="20" y="164.7559">Notebook Pipelines</text><rect fill="#0078D4" height="36.4883" rx="12.5" ry="12.5" style="stroke:#0078D4;stroke-width:3;" width="72.6094" x="210.7168" y="20"/><text fill="#FFFFFF" font-family="sans-serif" font-size="14" lengthAdjust="spacing" textLength="52.6094" x="220.7168" y="43.5352">Naming</text><text fill="#000000" font-family="sans-serif" font-size="14" lengthAdjust="spacing" textLength="157.083" x="336.3262" y="25.0469">Descriptive task names</text><path d="M283.3262,38.2441 L293.3262,38.2441 C308.3262,38.2441 308.3262,19.7559 323.3262,19.7559 L333.3262,19.7559" fill="none" style="stroke:#0078D4;stroke-width:3;"/><text fill="#000000" font-family="sans-serif" font-size="14" lengthAdjust="spacing" textLength="204.8252" x="336.3262" y="43.5352">Include layer (bronze_/silver_)</text><path d="M283.3262,38.2441 L293.3262,38.2441 C308.3262,38.2441 308.3262,38.2441 323.3262,38.2441 L333.3262,38.2441" fill="none" style="stroke:#0078D4;stroke-width:3;"/><text fill="#000000" font-family="sans-serif" font-size="14" lengthAdjust="spacing" textLength="177.5771" x="336.3262" y="62.0234">Purpose clear in DAG view</text><path d="M283.3262,38.2441 L293.3262,38.2441 C308.3262,38.2441 308.3262,56.7324 323.3262,56.7324 L333.3262,56.7324" fill="none" style="stroke:#0078D4;stroke-width:3;"/><path d="M160.7168,151.2207 L170.7168,151.2207 C185.7168,151.2207 185.7168,38.2441 200.7168,38.2441 L210.7168,38.2441" fill="none" style="stroke:#FF5F46;stroke-width:3;"/><rect fill="#0078D4" height="36.4883" rx="12.5" ry="12.5" style="stroke:#0078D4;stroke-width:3;" width="108.1289" x="210.7168" y="76.4883"/><text fill="#FFFFFF" font-family="sans-serif" font-size="14" lengthAdjust="spacing" textLength="88.1289" x="220.7168" y="100.0234">Organization</text><text fill="#000000" font-family="sans-serif" font-size="14" lengthAdjust="spacing" textLength="188.8564" x="371.8457" y="81.5352">Folder hierarchy by pipeline</text><path d="M318.8457,94.7324 L328.8457,94.7324 C343.8457,94.7324 343.8457,76.2441 358.8457,76.2441 L368.8457,76.2441" fill="none" style="stroke:#0078D4;stroke-width:3;"/><text fill="#000000" font-family="sans-serif" font-size="14" lengthAdjust="spacing" textLength="176.2236" x="371.8457" y="100.0234">/pipelines/product/layer/</text><path d="M318.8457,94.7324 L328.8457,94.7324 C343.8457,94.7324 343.8457,94.7324 358.8457,94.7324 L368.8457,94.7324" fill="none" style="stroke:#0078D4;stroke-width:3;"/><text fill="#000000" font-family="sans-serif" font-size="14" lengthAdjust="spacing" textLength="139.6582" x="371.8457" y="118.5117">Team discoverability</text><path d="M318.8457,94.7324 L328.8457,94.7324 C343.8457,94.7324 343.8457,113.2207 358.8457,113.2207 L368.8457,113.2207" fill="none" style="stroke:#0078D4;stroke-width:3;"/><path d="M160.7168,151.2207 L170.7168,151.2207 C185.7168,151.2207 185.7168,94.7324 200.7168,94.7324 L210.7168,94.7324" fill="none" style="stroke:#FF5F46;stroke-width:3;"/><rect fill="#0078D4" height="36.4883" rx="12.5" ry="12.5" style="stroke:#0078D4;stroke-width:3;" width="154.6885" x="210.7168" y="132.9766"/><text fill="#FFFFFF" font-family="sans-serif" font-size="14" lengthAdjust="spacing" textLength="134.6885" x="220.7168" y="156.5117">Dependency Design</text><text fill="#000000" font-family="sans-serif" font-size="14" lengthAdjust="spacing" textLength="188.877" x="418.4053" y="138.0234">Only true data relationships</text><path d="M365.4053,151.2207 L375.4053,151.2207 C390.4053,151.2207 390.4053,132.7324 405.4053,132.7324 L415.4053,132.7324" fill="none" style="stroke:#0078D4;stroke-width:3;"/><text fill="#000000" font-family="sans-serif" font-size="14" lengthAdjust="spacing" textLength="187.0859" x="418.4053" y="156.5117">Minimize unnecessary deps</text><path d="M365.4053,151.2207 L375.4053,151.2207 C390.4053,151.2207 390.4053,151.2207 405.4053,151.2207 L415.4053,151.2207" fill="none" style="stroke:#0078D4;stroke-width:3;"/><text fill="#000000" font-family="sans-serif" font-size="14" lengthAdjust="spacing" textLength="135.6045" x="418.4053" y="175">Preserve parallelism</text><path d="M365.4053,151.2207 L375.4053,151.2207 C390.4053,151.2207 390.4053,169.709 405.4053,169.709 L415.4053,169.709" fill="none" style="stroke:#0078D4;stroke-width:3;"/><path d="M160.7168,151.2207 L170.7168,151.2207 C185.7168,151.2207 185.7168,151.2207 200.7168,151.2207 L210.7168,151.2207" fill="none" style="stroke:#FF5F46;stroke-width:3;"/><rect fill="#0078D4" height="36.4883" rx="12.5" ry="12.5" style="stroke:#0078D4;stroke-width:3;" width="112.9688" x="210.7168" y="189.4648"/><text fill="#FFFFFF" font-family="sans-serif" font-size="14" lengthAdjust="spacing" textLength="92.9688" x="220.7168" y="213">Output Limits</text><text fill="#000000" font-family="sans-serif" font-size="14" lengthAdjust="spacing" textLength="128.6592" x="376.6855" y="194.5117">Cell output &#8804; 8 MB</text><path d="M323.6855,207.709 L333.6855,207.709 C348.6855,207.709 348.6855,189.2207 363.6855,189.2207 L373.6855,189.2207" fill="none" style="stroke:#0078D4;stroke-width:3;"/><text fill="#000000" font-family="sans-serif" font-size="14" lengthAdjust="spacing" textLength="215.3457" x="376.6855" y="213">Total notebook output &#8804; 20 MB</text><path d="M323.6855,207.709 L333.6855,207.709 C348.6855,207.709 348.6855,207.709 363.6855,207.709 L373.6855,207.709" fill="none" style="stroke:#0078D4;stroke-width:3;"/><text fill="#000000" font-family="sans-serif" font-size="14" lengthAdjust="spacing" textLength="186.915" x="376.6855" y="231.4883">Write large results to tables</text><path d="M323.6855,207.709 L333.6855,207.709 C348.6855,207.709 348.6855,226.1973 363.6855,226.1973 L373.6855,226.1973" fill="none" style="stroke:#0078D4;stroke-width:3;"/><path d="M160.7168,151.2207 L170.7168,151.2207 C185.7168,151.2207 185.7168,207.709 200.7168,207.709 L210.7168,207.709" fill="none" style="stroke:#FF5F46;stroke-width:3;"/><rect fill="#0078D4" height="36.4883" rx="12.5" ry="12.5" style="stroke:#0078D4;stroke-width:3;" width="89.3574" x="210.7168" y="245.9531"/><text fill="#FFFFFF" font-family="sans-serif" font-size="14" lengthAdjust="spacing" textLength="69.3574" x="220.7168" y="269.4883">Git Source</text><text fill="#000000" font-family="sans-serif" font-size="14" lengthAdjust="spacing" textLength="237.3848" x="353.0742" y="260.2441">Use workspace notebooks for prod</text><path d="M300.0742,264.1973 L310.0742,264.1973 C325.0742,264.1973 325.0742,254.9531 340.0742,254.9531 L350.0742,254.9531" fill="none" style="stroke:#0078D4;stroke-width:3;"/><text fill="#000000" font-family="sans-serif" font-size="14" lengthAdjust="spacing" textLength="244.5967" x="353.0742" y="278.7324">MLflow tracking requires workspace</text><path d="M300.0742,264.1973 L310.0742,264.1973 C325.0742,264.1973 325.0742,273.4414 340.0742,273.4414 L350.0742,273.4414" fill="none" style="stroke:#0078D4;stroke-width:3;"/><path d="M160.7168,151.2207 L170.7168,151.2207 C185.7168,151.2207 185.7168,264.1973 200.7168,264.1973 L210.7168,264.1973" fill="none" style="stroke:#FF5F46;stroke-width:3;"/><?plantuml-src VLFRRjD047ttLup4Ivk7sWsb55IXaaQka7g9H14lID5wFKb6MUykixi9JiK7y1zy6L_2-f8KWi8-sJF7SywSixvoNh2lI9ULiCcbyxN2TydR4grV76N7y9H0F2CXbtCsGPVNHXc65td-AZyxRtktfF7VQcwqxwkpzkomZmkIIutEmSkJBFc-vJezo9Lbho_6P_jSUzM_f-ufoDlpp3Kyo3MR5M-oR9zhh_fVhgmzaQimtrI3UJg8k4nxkmSmGkTXma9wakY-w7lZiJ1c2HEog2AdImO3k1Sng7by6anXZ4uoMKyh12_S4hIeMbJiVT1IXH91YHePZWesUeFJr95Q8K-FEz0ai3KEGIeK3AHX_Fu6LeJhXkc1vqBJHdWokeFdHfLns8AG1Sj53KKDjXVN8TBjgqijcp98dxO2qgxzYAA2afmqKOGeI96l6wenMjGbQbatEz6yvtlGgWRF0Q4KNW2ZQiMu1Tb-oplILD468MYDqJKdk8OOSD-UC3haw8uLB9IAobpLhXQy3Ju6MP7leTUe59Yk_kl7JxY0kr4lsdYXG6_J-0Cpp7QWpqo-CPld67MweBm3Rs8gXUfoko4F7qrWsJlrATg-DhnqLaZSJNSmYzUZiQxVxtQcp3fw42zfZ3sE_Xeepd_-DBcApct_tUJqP9WDpq-6lm40?></g></svg>