<?plantuml 1.2026.2?><svg xmlns="http://www.w3.org/2000/svg" xmlns:xlink="http://www.w3.org/1999/xlink" contentStyleType="text/css" data-diagram-type="MINDMAP" height="282px" preserveAspectRatio="none" style="width:613px;height:282px;background:#FFFFFF;" version="1.1" viewBox="0 0 613 282" width="613px" zoomAndPan="magnify"><defs/><g><rect fill="#FF5F46" height="52.9766" rx="12.5" ry="12.5" style="stroke:#FF5F46;stroke-width:3;" width="142.5752" x="10" y="113.9531"/><text fill="#FFFFFF" font-family="sans-serif" font-size="14" lengthAdjust="spacing" textLength="114.584" x="20" y="137.4883">Create Notebook</text><text fill="#FFFFFF" font-family="sans-serif" font-size="14" lengthAdjust="spacing" textLength="122.5752" x="20" y="153.9766">Task from Scratch</text><rect fill="#0078D4" height="36.4883" rx="12.5" ry="12.5" style="stroke:#0078D4;stroke-width:3;" width="56.5244" x="202.5752" y="65.709"/><text fill="#FFFFFF" font-family="sans-serif" font-size="14" lengthAdjust="spacing" textLength="36.5244" x="212.5752" y="89.2441">Steps</text><text fill="#000000" font-family="sans-serif" font-size="14" lengthAdjust="spacing" textLength="148.2441" x="312.0996" y="24.5352">Open Jobs &amp; Pipelines</text><path d="M259.0996,83.9531 L269.0996,83.9531 C284.0996,83.9531 284.0996,19.2441 299.0996,19.2441 L309.0996,19.2441" fill="none" style="stroke:#0078D4;stroke-width:3;"/><text fill="#000000" font-family="sans-serif" font-size="14" lengthAdjust="spacing" textLength="132.6309" x="312.0996" y="43.0234">Select Create &#8594; Job</text><path d="M259.0996,83.9531 L269.0996,83.9531 C284.0996,83.9531 284.0996,37.7324 299.0996,37.7324 L309.0996,37.7324" fill="none" style="stroke:#0078D4;stroke-width:3;"/><text fill="#000000" font-family="sans-serif" font-size="14" lengthAdjust="spacing" textLength="187.7422" x="312.0996" y="61.5117">Enter descriptive task name</text><path d="M259.0996,83.9531 L269.0996,83.9531 C284.0996,83.9531 284.0996,56.2207 299.0996,56.2207 L309.0996,56.2207" fill="none" style="stroke:#0078D4;stroke-width:3;"/><text fill="#000000" font-family="sans-serif" font-size="14" lengthAdjust="spacing" textLength="107.8096" x="312.0996" y="80">Type: Notebook</text><path d="M259.0996,83.9531 L269.0996,83.9531 C284.0996,83.9531 284.0996,74.709 299.0996,74.709 L309.0996,74.709" fill="none" style="stroke:#0078D4;stroke-width:3;"/><text fill="#000000" font-family="sans-serif" font-size="14" lengthAdjust="spacing" textLength="127.5244" x="312.0996" y="98.4883">Source: Workspace</text><path d="M259.0996,83.9531 L269.0996,83.9531 C284.0996,83.9531 284.0996,93.1973 299.0996,93.1973 L309.0996,93.1973" fill="none" style="stroke:#0078D4;stroke-width:3;"/><text fill="#000000" font-family="sans-serif" font-size="14" lengthAdjust="spacing" textLength="170.2148" x="312.0996" y="116.9766">Browse to notebook path</text><path d="M259.0996,83.9531 L269.0996,83.9531 C284.0996,83.9531 284.0996,111.6855 299.0996,111.6855 L309.0996,111.6855" fill="none" style="stroke:#0078D4;stroke-width:3;"/><text fill="#000000" font-family="sans-serif" font-size="14" lengthAdjust="spacing" textLength="130.9219" x="312.0996" y="135.4648">Configure compute</text><path d="M259.0996,83.9531 L269.0996,83.9531 C284.0996,83.9531 284.0996,130.1738 299.0996,130.1738 L309.0996,130.1738" fill="none" style="stroke:#0078D4;stroke-width:3;"/><text fill="#000000" font-family="sans-serif" font-size="14" lengthAdjust="spacing" textLength="76.6992" x="312.0996" y="153.9531">Create task</text><path d="M259.0996,83.9531 L269.0996,83.9531 C284.0996,83.9531 284.0996,148.6621 299.0996,148.6621 L309.0996,148.6621" fill="none" style="stroke:#0078D4;stroke-width:3;"/><path d="M152.5752,140.4414 L162.5752,140.4414 C177.5752,140.4414 177.5752,83.9531 192.5752,83.9531 L202.5752,83.9531" fill="none" style="stroke:#FF5F46;stroke-width:3;"/><rect fill="#0078D4" height="36.4883" rx="12.5" ry="12.5" style="stroke:#0078D4;stroke-width:3;" width="133.1484" x="202.5752" y="167.9063"/><text fill="#FFFFFF" font-family="sans-serif" font-size="14" lengthAdjust="spacing" textLength="113.1484" x="212.5752" y="191.4414">Additional Tasks</text><text fill="#000000" font-family="sans-serif" font-size="14" lengthAdjust="spacing" textLength="175.7109" x="388.7236" y="172.9531">Add more notebook tasks</text><path d="M335.7236,186.1504 L345.7236,186.1504 C360.7236,186.1504 360.7236,167.6621 375.7236,167.6621 L385.7236,167.6621" fill="none" style="stroke:#0078D4;stroke-width:3;"/><text fill="#000000" font-family="sans-serif" font-size="14" lengthAdjust="spacing" textLength="164.9102" x="388.7236" y="191.4414">Configure dependencies</text><path d="M335.7236,186.1504 L345.7236,186.1504 C360.7236,186.1504 360.7236,186.1504 375.7236,186.1504 L385.7236,186.1504" fill="none" style="stroke:#0078D4;stroke-width:3;"/><text fill="#000000" font-family="sans-serif" font-size="14" lengthAdjust="spacing" textLength="157.9717" x="388.7236" y="209.9297">Build pipeline structure</text><path d="M335.7236,186.1504 L345.7236,186.1504 C360.7236,186.1504 360.7236,204.6387 375.7236,204.6387 L385.7236,204.6387" fill="none" style="stroke:#0078D4;stroke-width:3;"/><path d="M152.5752,140.4414 L162.5752,140.4414 C177.5752,140.4414 177.5752,186.1504 192.5752,186.1504 L202.5752,186.1504" fill="none" style="stroke:#FF5F46;stroke-width:3;"/><rect fill="#0078D4" height="36.4883" rx="12.5" ry="12.5" style="stroke:#0078D4;stroke-width:3;" width="141.9805" x="202.5752" y="224.3945"/><text fill="#FFFFFF" font-family="sans-serif" font-size="14" lengthAdjust="spacing" textLength="121.9805" x="212.5752" y="247.9297">Auto-dependency</text><text fill="#000000" font-family="sans-serif" font-size="14" lengthAdjust="spacing" textLength="162.7363" x="397.5557" y="238.6855">Select existing task first</text><path d="M344.5557,242.6387 L354.5557,242.6387 C369.5557,242.6387 369.5557,233.3945 384.5557,233.3945 L394.5557,233.3945" fill="none" style="stroke:#0078D4;stroke-width:3;"/><text fill="#000000" font-family="sans-serif" font-size="14" lengthAdjust="spacing" textLength="203.5742" x="397.5557" y="257.1738">New task inherits dependency</text><path d="M344.5557,242.6387 L354.5557,242.6387 C369.5557,242.6387 369.5557,251.8828 384.5557,251.8828 L394.5557,251.8828" fill="none" style="stroke:#0078D4;stroke-width:3;"/><path d="M152.5752,140.4414 L162.5752,140.4414 C177.5752,140.4414 177.5752,242.6387 192.5752,242.6387 L202.5752,242.6387" fill="none" style="stroke:#FF5F46;stroke-width:3;"/><?plantuml-src VLFRQjj047tNLmmKGcE8gpYtnfYIsgaUIaaBDlIb4DQhaRL8sbbsHqbCo6i_89-OBybAMjkDYZDFopbdpfaPeIl7mdAbT5e94qqShqly4erJD9n_Z0_XCG9VKo6BbQLQfpCgoSA793bBJizRxeVI-3-QaEQ0PcrjjOjSoKAZSt0oZAEdJTRntgmullXyVThFwg5lNNiJ96tjiaPxix9iUHd7_QmU-cvMt9RFMj93sMWUzoecdyAv1p2pA1ZXXXYNHCKVlH2kWCnI1NDf1Siy6WnWpcYSVmnkuQT13TzfwU00VYc3fPyhK7CiKVB6ykNlSwFhg6-QqKAAJbfbMDqXS9EZHOMTOB4sEDwE4VoejjAZlyaMpWWPf5DBzyuR4EWW1oCuxyWPwKojQeiWgJ8rXvumKnFQxFCrJHKhqgA4PjymlqUX8j-wzUKTkJFsdn9rYbggpUBJMfKfc70DS6nhoLxQHjLCHzkMzPjBuODohFIgEqQchEEEly7x3bCwHwlOmJyEL_wn-M-Yu-4e7fqFHwy0?></g></svg>