<?plantuml 1.2026.2?><svg xmlns="http://www.w3.org/2000/svg" xmlns:xlink="http://www.w3.org/1999/xlink" contentStyleType="text/css" data-diagram-type="MINDMAP" height="247px" preserveAspectRatio="none" style="width:618px;height:247px;background:#FFFFFF;" version="1.1" viewBox="0 0 618 247" width="618px" zoomAndPan="magnify"><defs/><g><rect fill="#FF5F46" height="52.9766" rx="12.5" ry="12.5" style="stroke:#FF5F46;stroke-width:3;" width="153.9023" x="10" y="96.4883"/><text fill="#FFFFFF" font-family="sans-serif" font-size="14" lengthAdjust="spacing" textLength="109.874" x="20" y="120.0234">Pass Parameters</text><text fill="#FFFFFF" font-family="sans-serif" font-size="14" lengthAdjust="spacing" textLength="133.9023" x="20" y="136.5117">Between Notebooks</text><rect fill="#0078D4" height="36.4883" rx="12.5" ry="12.5" style="stroke:#0078D4;stroke-width:3;" width="113.6182" x="213.9023" y="20"/><text fill="#FFFFFF" font-family="sans-serif" font-size="14" lengthAdjust="spacing" textLength="93.6182" x="223.9023" y="43.5352">Configuration</text><text fill="#000000" font-family="sans-serif" font-size="14" lengthAdjust="spacing" textLength="204.668" x="380.5205" y="25.0469">Add under Parameters section</text><path d="M327.5205,38.2441 L337.5205,38.2441 C352.5205,38.2441 352.5205,19.7559 367.5205,19.7559 L377.5205,19.7559" fill="none" style="stroke:#0078D4;stroke-width:3;"/><text fill="#000000" font-family="sans-serif" font-size="14" lengthAdjust="spacing" textLength="105.752" x="380.5205" y="43.5352">Key-value pairs</text><path d="M327.5205,38.2441 L337.5205,38.2441 C352.5205,38.2441 352.5205,38.2441 367.5205,38.2441 L377.5205,38.2441" fill="none" style="stroke:#0078D4;stroke-width:3;"/><text fill="#000000" font-family="sans-serif" font-size="14" lengthAdjust="spacing" textLength="131.8379" x="380.5205" y="62.0234">Passed at task level</text><path d="M327.5205,38.2441 L337.5205,38.2441 C352.5205,38.2441 352.5205,56.7324 367.5205,56.7324 L377.5205,56.7324" fill="none" style="stroke:#0078D4;stroke-width:3;"/><path d="M163.9023,122.9766 L173.9023,122.9766 C188.9023,122.9766 188.9023,38.2441 203.9023,38.2441 L213.9023,38.2441" fill="none" style="stroke:#FF5F46;stroke-width:3;"/><rect fill="#0078D4" height="36.4883" rx="12.5" ry="12.5" style="stroke:#0078D4;stroke-width:3;" width="142.6504" x="213.9023" y="76.4883"/><text fill="#FFFFFF" font-family="sans-serif" font-size="14" lengthAdjust="spacing" textLength="122.6504" x="223.9023" y="100.0234">In Notebook Code</text><text fill="#000000" font-family="sans-serif" font-size="14" lengthAdjust="spacing" textLength="144.1494" x="409.5527" y="81.5352">dbutils.widgets.text()</text><path d="M356.5527,94.7324 L366.5527,94.7324 C381.5527,94.7324 381.5527,76.2441 396.5527,76.2441 L406.5527,76.2441" fill="none" style="stroke:#0078D4;stroke-width:3;"/><text fill="#000000" font-family="sans-serif" font-size="14" lengthAdjust="spacing" textLength="139.0566" x="409.5527" y="100.0234">dbutils.widgets.get()</text><path d="M356.5527,94.7324 L366.5527,94.7324 C381.5527,94.7324 381.5527,94.7324 396.5527,94.7324 L406.5527,94.7324" fill="none" style="stroke:#0078D4;stroke-width:3;"/><text fill="#000000" font-family="sans-serif" font-size="14" lengthAdjust="spacing" textLength="196.8887" x="409.5527" y="118.5117">Retrieve with default fallback</text><path d="M356.5527,94.7324 L366.5527,94.7324 C381.5527,94.7324 381.5527,113.2207 396.5527,113.2207 L406.5527,113.2207" fill="none" style="stroke:#0078D4;stroke-width:3;"/><path d="M163.9023,122.9766 L173.9023,122.9766 C188.9023,122.9766 188.9023,94.7324 203.9023,94.7324 L213.9023,94.7324" fill="none" style="stroke:#FF5F46;stroke-width:3;"/><rect fill="#0078D4" height="36.4883" rx="12.5" ry="12.5" style="stroke:#0078D4;stroke-width:3;" width="73.9082" x="213.9023" y="132.9766"/><text fill="#FFFFFF" font-family="sans-serif" font-size="14" lengthAdjust="spacing" textLength="53.9082" x="223.9023" y="156.5117">Benefits</text><text fill="#000000" font-family="sans-serif" font-size="14" lengthAdjust="spacing" textLength="136.9512" x="340.8105" y="138.0234">Reusable notebooks</text><path d="M287.8105,151.2207 L297.8105,151.2207 C312.8105,151.2207 312.8105,132.7324 327.8105,132.7324 L337.8105,132.7324" fill="none" style="stroke:#0078D4;stroke-width:3;"/><text fill="#000000" font-family="sans-serif" font-size="14" lengthAdjust="spacing" textLength="159.9883" x="340.8105" y="156.5117">Different inputs per job</text><path d="M287.8105,151.2207 L297.8105,151.2207 C312.8105,151.2207 312.8105,151.2207 327.8105,151.2207 L337.8105,151.2207" fill="none" style="stroke:#0078D4;stroke-width:3;"/><text fill="#000000" font-family="sans-serif" font-size="14" lengthAdjust="spacing" textLength="187.6328" x="340.8105" y="175">Environment-agnostic code</text><path d="M287.8105,151.2207 L297.8105,151.2207 C312.8105,151.2207 312.8105,169.709 327.8105,169.709 L337.8105,169.709" fill="none" style="stroke:#0078D4;stroke-width:3;"/><path d="M163.9023,122.9766 L173.9023,122.9766 C188.9023,122.9766 188.9023,151.2207 203.9023,151.2207 L213.9023,151.2207" fill="none" style="stroke:#FF5F46;stroke-width:3;"/><rect fill="#0078D4" height="36.4883" rx="12.5" ry="12.5" style="stroke:#0078D4;stroke-width:3;" width="77.6338" x="213.9023" y="189.4648"/><text fill="#FFFFFF" font-family="sans-serif" font-size="14" lengthAdjust="spacing" textLength="57.6338" x="223.9023" y="213">Example</text><text fill="#000000" font-family="sans-serif" font-size="14" lengthAdjust="spacing" textLength="163.0303" x="344.5361" y="194.5117">process_date parameter</text><path d="M291.5361,207.709 L301.5361,207.709 C316.5361,207.709 316.5361,189.2207 331.5361,189.2207 L341.5361,189.2207" fill="none" style="stroke:#0078D4;stroke-width:3;"/><text fill="#000000" font-family="sans-serif" font-size="14" lengthAdjust="spacing" textLength="122.8691" x="344.5361" y="213">Filter data by date</text><path d="M291.5361,207.709 L301.5361,207.709 C316.5361,207.709 316.5361,207.709 331.5361,207.709 L341.5361,207.709" fill="none" style="stroke:#0078D4;stroke-width:3;"/><text fill="#000000" font-family="sans-serif" font-size="14" lengthAdjust="spacing" textLength="207.0264" x="344.5361" y="231.4883">Same notebook, different runs</text><path d="M291.5361,207.709 L301.5361,207.709 C316.5361,207.709 316.5361,226.1973 331.5361,226.1973 L341.5361,226.1973" fill="none" style="stroke:#0078D4;stroke-width:3;"/><path d="M163.9023,122.9766 L173.9023,122.9766 C188.9023,122.9766 188.9023,207.709 203.9023,207.709 L213.9023,207.709" fill="none" style="stroke:#FF5F46;stroke-width:3;"/><?plantuml-src VPDRRzim38NV_Ii8xAKDLi_Dkkw2OkZIri2mOYYsFGueQ8jAjCYI8T6veDX_BnqxIUijvODjd7EaZwAXoyWOk39ELLWd5v7NbZuddnJLF3lAZk4X0Qa9blDfy8rJLzxw0A_o_5r-ThxnResZVzNSE-vLlQbTzjVCb7D7CSBRD4l-Rbcd1rbPzlx3zTcGDL2Vxphe8D_KdZK-oDAw-9XbGzP0VP6LRKfOXL_PDlDmC77nfX_t2EvGadSOi2Ac47-x2V6IoC5tprHuFu_9Q0HNtcapRGAoyKw4qJryKGgaVGfFLaEaSf_uHkkJ1Tg6e4OJOYUsF5A038nn3fOMP5l2rprHQ8gwj2eQDZQcIwEcn35bMl7HyVyzUMoj7yJ1oCwmD3m3HHeRow3HsaBctk8cv4WRZjjy4x6m1Ex9eKM_DbfJ8CTWNDrmX5gE-ySNdNlZ5YPuLub_WbFd8viIogvtk5bXLTl-67NmfVoHUuNS3gCVL-VbnietY8LGhDjtl-Ydf7ODlGQrwoKqBYQN91Udlpp9QJhEnkVf-140?></g></svg>