<?plantuml 1.2026.2?><svg xmlns="http://www.w3.org/2000/svg" xmlns:xlink="http://www.w3.org/1999/xlink" contentStyleType="text/css" data-diagram-type="MINDMAP" height="304px" preserveAspectRatio="none" style="width:755px;height:304px;background:#FFFFFF;" version="1.1" viewBox="0 0 755 304" width="755px" zoomAndPan="magnify"><defs/><g><rect fill="#FF5F46" height="52.9766" rx="12.5" ry="12.5" style="stroke:#FF5F46;stroke-width:3;" width="146.6289" x="10" y="124.7324"/><text fill="#FFFFFF" font-family="sans-serif" font-size="14" lengthAdjust="spacing" textLength="126.6289" x="20" y="148.2676">Apply Data Quality</text><text fill="#FFFFFF" font-family="sans-serif" font-size="14" lengthAdjust="spacing" textLength="86.6318" x="20" y="164.7559">Expectations</text><rect fill="#0078D4" height="36.4883" rx="12.5" ry="12.5" style="stroke:#0078D4;stroke-width:3;" width="177.3701" x="206.6289" y="20"/><text fill="#FFFFFF" font-family="sans-serif" font-size="14" lengthAdjust="spacing" textLength="157.3701" x="216.6289" y="43.5352">Declarative Constraints</text><text fill="#000000" font-family="sans-serif" font-size="14" lengthAdjust="spacing" textLength="185.6094" x="436.999" y="25.0469">Validate records in pipeline</text><path d="M383.999,38.2441 L393.999,38.2441 C408.999,38.2441 408.999,19.7559 423.999,19.7559 L433.999,19.7559" fill="none" style="stroke:#0078D4;stroke-width:3;"/><text fill="#000000" font-family="sans-serif" font-size="14" lengthAdjust="spacing" textLength="220.5957" x="436.999" y="43.5352">Define what valid data looks like</text><path d="M383.999,38.2441 L393.999,38.2441 C408.999,38.2441 408.999,38.2441 423.999,38.2441 L433.999,38.2441" fill="none" style="stroke:#0078D4;stroke-width:3;"/><text fill="#000000" font-family="sans-serif" font-size="14" lengthAdjust="spacing" textLength="175.3691" x="436.999" y="62.0234">Framework tracks metrics</text><path d="M383.999,38.2441 L393.999,38.2441 C408.999,38.2441 408.999,56.7324 423.999,56.7324 L433.999,56.7324" fill="none" style="stroke:#0078D4;stroke-width:3;"/><path d="M156.6289,151.2207 L166.6289,151.2207 C181.6289,151.2207 181.6289,38.2441 196.6289,38.2441 L206.6289,38.2441" fill="none" style="stroke:#FF5F46;stroke-width:3;"/><rect fill="#0078D4" height="36.4883" rx="12.5" ry="12.5" style="stroke:#0078D4;stroke-width:3;" width="70.5381" x="206.6289" y="132.9766"/><text fill="#FFFFFF" font-family="sans-serif" font-size="14" lengthAdjust="spacing" textLength="50.5381" x="216.6289" y="156.5117">Actions</text><rect fill="#FFB900" height="36.4883" rx="12.5" ry="12.5" style="stroke:#FFB900;stroke-width:3;" width="131.2139" x="327.167" y="76.4883"/><text fill="#000000" font-family="sans-serif" font-size="14" lengthAdjust="spacing" textLength="111.2139" x="337.167" y="100.0234">EXPECT (default)</text><text fill="#000000" font-family="sans-serif" font-size="14" lengthAdjust="spacing" textLength="146.8086" x="511.3809" y="90.7793">Retain invalid records</text><path d="M458.3809,94.7324 L468.3809,94.7324 C483.3809,94.7324 483.3809,85.4883 498.3809,85.4883 L508.3809,85.4883" fill="none" style="stroke:#FFB900;stroke-width:3;"/><text fill="#000000" font-family="sans-serif" font-size="14" lengthAdjust="spacing" textLength="150.2881" x="511.3809" y="109.2676">Track violation counts</text><path d="M458.3809,94.7324 L468.3809,94.7324 C483.3809,94.7324 483.3809,103.9766 498.3809,103.9766 L508.3809,103.9766" fill="none" style="stroke:#FFB900;stroke-width:3;"/><path d="M277.167,151.2207 L287.167,151.2207 C302.167,151.2207 302.167,94.7324 317.167,94.7324 L327.167,94.7324" fill="none" style="stroke:#0078D4;stroke-width:3;"/><rect fill="#FFB900" height="36.4883" rx="12.5" ry="12.5" style="stroke:#FFB900;stroke-width:3;" width="199.457" x="327.167" y="132.9766"/><text fill="#000000" font-family="sans-serif" font-size="14" lengthAdjust="spacing" textLength="179.457" x="337.167" y="156.5117">ON VIOLATION DROP ROW</text><text fill="#000000" font-family="sans-serif" font-size="14" lengthAdjust="spacing" textLength="157.8213" x="579.624" y="147.2676">Remove invalid records</text><path d="M526.624,151.2207 L536.624,151.2207 C551.624,151.2207 551.624,141.9766 566.624,141.9766 L576.624,141.9766" fill="none" style="stroke:#FFB900;stroke-width:3;"/><text fill="#000000" font-family="sans-serif" font-size="14" lengthAdjust="spacing" textLength="144.5186" x="579.624" y="165.7559">Prevents propagation</text><path d="M526.624,151.2207 L536.624,151.2207 C551.624,151.2207 551.624,160.4648 566.624,160.4648 L576.624,160.4648" fill="none" style="stroke:#FFB900;stroke-width:3;"/><path d="M277.167,151.2207 L287.167,151.2207 C302.167,151.2207 302.167,151.2207 317.167,151.2207 L327.167,151.2207" fill="none" style="stroke:#0078D4;stroke-width:3;"/><rect fill="#FFB900" height="36.4883" rx="12.5" ry="12.5" style="stroke:#FFB900;stroke-width:3;" width="212.4863" x="327.167" y="189.4648"/><text fill="#000000" font-family="sans-serif" font-size="14" lengthAdjust="spacing" textLength="192.4863" x="337.167" y="213">ON VIOLATION FAIL UPDATE</text><text fill="#000000" font-family="sans-serif" font-size="14" lengthAdjust="spacing" textLength="88.6689" x="592.6533" y="194.5117">Stop pipeline</text><path d="M539.6533,207.709 L549.6533,207.709 C564.6533,207.709 564.6533,189.2207 579.6533,189.2207 L589.6533,189.2207" fill="none" style="stroke:#FFB900;stroke-width:3;"/><text fill="#000000" font-family="sans-serif" font-size="14" lengthAdjust="spacing" textLength="149.4336" x="592.6533" y="213">Rolls back transaction</text><path d="M539.6533,207.709 L549.6533,207.709 C564.6533,207.709 564.6533,207.709 579.6533,207.709 L589.6533,207.709" fill="none" style="stroke:#FFB900;stroke-width:3;"/><text fill="#000000" font-family="sans-serif" font-size="14" lengthAdjust="spacing" textLength="151.2725" x="592.6533" y="231.4883">For critical constraints</text><path d="M539.6533,207.709 L549.6533,207.709 C564.6533,207.709 564.6533,226.1973 579.6533,226.1973 L589.6533,226.1973" fill="none" style="stroke:#FFB900;stroke-width:3;"/><path d="M277.167,151.2207 L287.167,151.2207 C302.167,151.2207 302.167,207.709 317.167,207.709 L327.167,207.709" fill="none" style="stroke:#0078D4;stroke-width:3;"/><path d="M156.6289,151.2207 L166.6289,151.2207 C181.6289,151.2207 181.6289,151.2207 196.6289,151.2207 L206.6289,151.2207" fill="none" style="stroke:#FF5F46;stroke-width:3;"/><rect fill="#0078D4" height="36.4883" rx="12.5" ry="12.5" style="stroke:#0078D4;stroke-width:3;" width="113.6592" x="206.6289" y="245.9531"/><text fill="#FFFFFF" font-family="sans-serif" font-size="14" lengthAdjust="spacing" textLength="93.6592" x="216.6289" y="269.4883">Requirements</text><text fill="#000000" font-family="sans-serif" font-size="14" lengthAdjust="spacing" textLength="180.8721" x="373.2881" y="260.2441">Requires Advanced edition</text><path d="M320.2881,264.1973 L330.2881,264.1973 C345.2881,264.1973 345.2881,254.9531 360.2881,254.9531 L370.2881,254.9531" fill="none" style="stroke:#0078D4;stroke-width:3;"/><text fill="#000000" font-family="sans-serif" font-size="14" lengthAdjust="spacing" textLength="184.9873" x="373.2881" y="278.7324">Core/Pro editions error out</text><path d="M320.2881,264.1973 L330.2881,264.1973 C345.2881,264.1973 345.2881,273.4414 360.2881,273.4414 L370.2881,273.4414" fill="none" style="stroke:#0078D4;stroke-width:3;"/><path d="M156.6289,151.2207 L166.6289,151.2207 C181.6289,151.2207 181.6289,264.1973 196.6289,264.1973 L206.6289,264.1973" fill="none" style="stroke:#FF5F46;stroke-width:3;"/><?plantuml-src VLDHRzCm47xFhpY9boqFNLR61cX22qqZLQfeA67mW3IvpcMrujZ1Th9L4_-TIveKbb7koVxk_7tVtSatrZ7ZIg6oabNUjNKxYH-yznbMRdiIdCAJ1nGV6I_kZQvLDjDI6tWLns_YYyikjnGANwAnLgv7youEjUbMy4AXjV1w4dY_1gtperf1SFKskXXhZT3dh2C7SHT_jAP7jV9yyou8nbeZzBzQGHUajT6FigrvEbfnVTQFsuUmgkGE8kOOVAwP56xtGyqVA-IEEQ6LzNmV8kII6Ret23F2d652kJRbty4jFSgOGp38jSai20MLg52Ittr5X3cTuM7B73HjDMIjdDIwi215qPV5XfNue4q1nCyfLQ8pWdSEGZwOyM7-FPdFKZZ9C6UrTASjIC_NwCWLgUybUZTzCcqPeH5QTbq1fydl6u3L9xXTh9PXkg1Jj5ubi5vzEt2Mcdh-DsTYi45YWSheYjrtn2yPut2nXAz95ARp_jqNfwjd4sg5j9GMDgr9QbvPnWUsTZ2qEsw44vn9Slxt_CdXpreOBF6mZnwn46ODKnmpm4mCR7UqFuDdYT43QW6D8G5TE-y6wJFs7z8xdqo3wULa-Xi0?></g></svg>