<?plantuml 1.2026.2?><svg xmlns="http://www.w3.org/2000/svg" xmlns:xlink="http://www.w3.org/1999/xlink" contentStyleType="text/css" data-diagram-type="MINDMAP" height="247px" preserveAspectRatio="none" style="width:779px;height:247px;background:#FFFFFF;" version="1.1" viewBox="0 0 779 247" width="779px" zoomAndPan="magnify"><defs/><g><rect fill="#FF5F46" height="52.9766" rx="12.5" ry="12.5" style="stroke:#FF5F46;stroke-width:3;" width="95.0244" x="10" y="96.4883"/><text fill="#FFFFFF" font-family="sans-serif" font-size="14" lengthAdjust="spacing" textLength="75.0244" x="20" y="120.0234">Declarative</text><text fill="#FFFFFF" font-family="sans-serif" font-size="14" lengthAdjust="spacing" textLength="65.2012" x="20" y="136.5117">Approach</text><rect fill="#0078D4" height="36.4883" rx="12.5" ry="12.5" style="stroke:#0078D4;stroke-width:3;" width="112.2373" x="155.0244" y="20"/><text fill="#FFFFFF" font-family="sans-serif" font-size="14" lengthAdjust="spacing" textLength="92.2373" x="165.0244" y="43.5352">Core Concept</text><text fill="#000000" font-family="sans-serif" font-size="14" lengthAdjust="spacing" textLength="165.833" x="320.2617" y="25.0469">Define desired end state</text><path d="M267.2617,38.2441 L277.2617,38.2441 C292.2617,38.2441 292.2617,19.7559 307.2617,19.7559 L317.2617,19.7559" fill="none" style="stroke:#0078D4;stroke-width:3;"/><text fill="#000000" font-family="sans-serif" font-size="14" lengthAdjust="spacing" textLength="203.5127" x="320.2617" y="43.5352">Framework handles execution</text><path d="M267.2617,38.2441 L277.2617,38.2441 C292.2617,38.2441 292.2617,38.2441 307.2617,38.2441 L317.2617,38.2441" fill="none" style="stroke:#0078D4;stroke-width:3;"/><text fill="#000000" font-family="sans-serif" font-size="14" lengthAdjust="spacing" textLength="134.1211" x="320.2617" y="62.0234">Not HOW but WHAT</text><path d="M267.2617,38.2441 L277.2617,38.2441 C292.2617,38.2441 292.2617,56.7324 307.2617,56.7324 L317.2617,56.7324" fill="none" style="stroke:#0078D4;stroke-width:3;"/><path d="M105.0244,122.9766 L115.0244,122.9766 C130.0244,122.9766 130.0244,38.2441 145.0244,38.2441 L155.0244,38.2441" fill="none" style="stroke:#FF5F46;stroke-width:3;"/><rect fill="#0078D4" height="36.4883" rx="12.5" ry="12.5" style="stroke:#0078D4;stroke-width:3;" width="102.5918" x="155.0244" y="132.9766"/><text fill="#FFFFFF" font-family="sans-serif" font-size="14" lengthAdjust="spacing" textLength="82.5918" x="165.0244" y="156.5117">Key Benefits</text><rect fill="#FFB900" height="36.4883" rx="12.5" ry="12.5" style="stroke:#FFB900;stroke-width:3;" width="149.2813" x="307.6162" y="76.4883"/><text fill="#000000" font-family="sans-serif" font-size="14" lengthAdjust="spacing" textLength="129.2813" x="317.6162" y="100.0234">Auto Orchestration</text><text fill="#000000" font-family="sans-serif" font-size="14" lengthAdjust="spacing" textLength="196.2529" x="509.8975" y="90.7793">Analyzes table dependencies</text><path d="M456.8975,94.7324 L466.8975,94.7324 C481.8975,94.7324 481.8975,85.4883 496.8975,85.4883 L506.8975,85.4883" fill="none" style="stroke:#FFB900;stroke-width:3;"/><text fill="#000000" font-family="sans-serif" font-size="14" lengthAdjust="spacing" textLength="162.0938" x="509.8975" y="109.2676">Correct execution order</text><path d="M456.8975,94.7324 L466.8975,94.7324 C481.8975,94.7324 481.8975,103.9766 496.8975,103.9766 L506.8975,103.9766" fill="none" style="stroke:#FFB900;stroke-width:3;"/><path d="M257.6162,151.2207 L267.6162,151.2207 C282.6162,151.2207 282.6162,94.7324 297.6162,94.7324 L307.6162,94.7324" fill="none" style="stroke:#0078D4;stroke-width:3;"/><rect fill="#FFB900" height="36.4883" rx="12.5" ry="12.5" style="stroke:#FFB900;stroke-width:3;" width="177.1992" x="307.6162" y="132.9766"/><text fill="#000000" font-family="sans-serif" font-size="14" lengthAdjust="spacing" textLength="157.1992" x="317.6162" y="156.5117">Incremental Processing</text><text fill="#000000" font-family="sans-serif" font-size="14" lengthAdjust="spacing" textLength="229.7285" x="537.8154" y="147.2676">Exactly-once for streaming tables</text><path d="M484.8154,151.2207 L494.8154,151.2207 C509.8154,151.2207 509.8154,141.9766 524.8154,141.9766 L534.8154,141.9766" fill="none" style="stroke:#FFB900;stroke-width:3;"/><text fill="#000000" font-family="sans-serif" font-size="14" lengthAdjust="spacing" textLength="227.165" x="537.8154" y="165.7559">Only changed data for mat. views</text><path d="M484.8154,151.2207 L494.8154,151.2207 C509.8154,151.2207 509.8154,160.4648 524.8154,160.4648 L534.8154,160.4648" fill="none" style="stroke:#FFB900;stroke-width:3;"/><path d="M257.6162,151.2207 L267.6162,151.2207 C282.6162,151.2207 282.6162,151.2207 297.6162,151.2207 L307.6162,151.2207" fill="none" style="stroke:#0078D4;stroke-width:3;"/><rect fill="#FFB900" height="36.4883" rx="12.5" ry="12.5" style="stroke:#FFB900;stroke-width:3;" width="110.2686" x="307.6162" y="189.4648"/><text fill="#000000" font-family="sans-serif" font-size="14" lengthAdjust="spacing" textLength="90.2686" x="317.6162" y="213">Built-in Retry</text><text fill="#000000" font-family="sans-serif" font-size="14" lengthAdjust="spacing" textLength="137.8057" x="470.8848" y="194.5117">Spark task level first</text><path d="M417.8848,207.709 L427.8848,207.709 C442.8848,207.709 442.8848,189.2207 457.8848,189.2207 L467.8848,189.2207" fill="none" style="stroke:#FFB900;stroke-width:3;"/><text fill="#000000" font-family="sans-serif" font-size="14" lengthAdjust="spacing" textLength="102.4092" x="470.8848" y="213">Then flow level</text><path d="M417.8848,207.709 L427.8848,207.709 C442.8848,207.709 442.8848,207.709 457.8848,207.709 L467.8848,207.709" fill="none" style="stroke:#FFB900;stroke-width:3;"/><text fill="#000000" font-family="sans-serif" font-size="14" lengthAdjust="spacing" textLength="127.8799" x="470.8848" y="231.4883">Then pipeline level</text><path d="M417.8848,207.709 L427.8848,207.709 C442.8848,207.709 442.8848,226.1973 457.8848,226.1973 L467.8848,226.1973" fill="none" style="stroke:#FFB900;stroke-width:3;"/><path d="M257.6162,151.2207 L267.6162,151.2207 C282.6162,151.2207 282.6162,207.709 297.6162,207.709 L307.6162,207.709" fill="none" style="stroke:#0078D4;stroke-width:3;"/><path d="M105.0244,122.9766 L115.0244,122.9766 C130.0244,122.9766 130.0244,151.2207 145.0244,151.2207 L155.0244,151.2207" fill="none" style="stroke:#FF5F46;stroke-width:3;"/><?plantuml-src VPDlRzD03CRVvrDOuisej9ALiG6QqDgDQ6XeHQpItY2XwyLfJhtueZkdRPZuxZX_obYcuXUHQZ_sxx6JNWPMdWj3QQ7Aw29mRV5Jz375alEZ-3KyHY0nKtgzygwYzCfPv-5LahnBJi_QsbT3-3AREE8-cxNnLxl8ZLuJXW1lnt7qUyywESYAu_FtrwT3rY3xVEh0GTB64sjoa9LbomznF6GDilzbnMq8Q-bsjj4y7bHSlEdFFO9hr5PvnMQ3FsXQbjufdKUZ4LmvZ_8WBSRbz-YdI3Fn02a6up45f1Ja7J9srSIh0hVEho5Nb8e1m1tgYesZJd3d66xc3x2i61vkfei6Seirp91aC8T61TEA7SozpZ5muwfhbkufALl_agcibhOnKGeVIHiClK8CUzJyX0NdK_Jjs2-aFHP8h2nyyqxBUGoj-iRFEwNPriVDhf39eGIDIhxCLGVR0-PaQz2otKgsJnMhLbme7iF6uBPRO5OPoyU6u3koh_lE-rB9NLY5DLZSe8NC-C1zSP4ZGMRTjglzcorDYRQvULUvb9NtVvZeP3o99sVZoHy0?></g></svg>