<?plantuml 1.2026.2?><svg xmlns="http://www.w3.org/2000/svg" xmlns:xlink="http://www.w3.org/1999/xlink" contentStyleType="text/css" data-diagram-type="MINDMAP" height="303px" preserveAspectRatio="none" style="width:821px;height:303px;background:#FFFFFF;" version="1.1" viewBox="0 0 821 303" width="821px" zoomAndPan="magnify"><defs/><g><rect fill="#FF5F46" height="52.9766" rx="12.5" ry="12.5" style="stroke:#FF5F46;stroke-width:3;" width="124.5557" x="10" y="124.4766"/><text fill="#FFFFFF" font-family="sans-serif" font-size="14" lengthAdjust="spacing" textLength="59.7598" x="20" y="148.0117">Lakeflow</text><text fill="#FFFFFF" font-family="sans-serif" font-size="14" lengthAdjust="spacing" textLength="104.5557" x="20" y="164.5">Pipelines Editor</text><rect fill="#0078D4" height="36.4883" rx="12.5" ry="12.5" style="stroke:#0078D4;stroke-width:3;" width="171.6416" x="184.5557" y="104.7324"/><text fill="#FFFFFF" font-family="sans-serif" font-size="14" lengthAdjust="spacing" textLength="151.6416" x="194.5557" y="128.2676">Development Features</text><rect fill="#FFB900" height="36.4883" rx="12.5" ry="12.5" style="stroke:#FFB900;stroke-width:3;" width="74.1885" x="406.1973" y="20"/><text fill="#000000" font-family="sans-serif" font-size="14" lengthAdjust="spacing" textLength="54.1885" x="416.1973" y="43.5352">Dry Run</text><text fill="#000000" font-family="sans-serif" font-size="14" lengthAdjust="spacing" textLength="149.8506" x="533.3857" y="25.0469">Validate pipeline code</text><path d="M480.3857,38.2441 L490.3857,38.2441 C505.3857,38.2441 505.3857,19.7559 520.3857,19.7559 L530.3857,19.7559" fill="none" style="stroke:#FFB900;stroke-width:3;"/><text fill="#000000" font-family="sans-serif" font-size="14" lengthAdjust="spacing" textLength="131.1611" x="533.3857" y="43.5352">No data processing</text><path d="M480.3857,38.2441 L490.3857,38.2441 C505.3857,38.2441 505.3857,38.2441 520.3857,38.2441 L530.3857,38.2441" fill="none" style="stroke:#FFB900;stroke-width:3;"/><text fill="#000000" font-family="sans-serif" font-size="14" lengthAdjust="spacing" textLength="233.1055" x="533.3857" y="62.0234">Catch syntax &amp; dependency errors</text><path d="M480.3857,38.2441 L490.3857,38.2441 C505.3857,38.2441 505.3857,56.7324 520.3857,56.7324 L530.3857,56.7324" fill="none" style="stroke:#FFB900;stroke-width:3;"/><path d="M356.1973,122.9766 L366.1973,122.9766 C381.1973,122.9766 381.1973,38.2441 396.1973,38.2441 L406.1973,38.2441" fill="none" style="stroke:#0078D4;stroke-width:3;"/><rect fill="#FFB900" height="36.4883" rx="12.5" ry="12.5" style="stroke:#FFB900;stroke-width:3;" width="149.5205" x="406.1973" y="76.4883"/><text fill="#000000" font-family="sans-serif" font-size="14" lengthAdjust="spacing" textLength="129.5205" x="416.1973" y="100.0234">Selective Execution</text><text fill="#000000" font-family="sans-serif" font-size="14" lengthAdjust="spacing" textLength="165.5527" x="608.7178" y="90.7793">Run a single file or table</text><path d="M555.7178,94.7324 L565.7178,94.7324 C580.7178,94.7324 580.7178,85.4883 595.7178,85.4883 L605.7178,85.4883" fill="none" style="stroke:#FFB900;stroke-width:3;"/><text fill="#000000" font-family="sans-serif" font-size="14" lengthAdjust="spacing" textLength="102.6826" x="608.7178" y="109.2676">Faster iteration</text><path d="M555.7178,94.7324 L565.7178,94.7324 C580.7178,94.7324 580.7178,103.9766 595.7178,103.9766 L605.7178,103.9766" fill="none" style="stroke:#FFB900;stroke-width:3;"/><path d="M356.1973,122.9766 L366.1973,122.9766 C381.1973,122.9766 381.1973,94.7324 396.1973,94.7324 L406.1973,94.7324" fill="none" style="stroke:#0078D4;stroke-width:3;"/><rect fill="#FFB900" height="36.4883" rx="12.5" ry="12.5" style="stroke:#FFB900;stroke-width:3;" width="125.4102" x="406.1973" y="132.9766"/><text fill="#000000" font-family="sans-serif" font-size="14" lengthAdjust="spacing" textLength="105.4102" x="416.1973" y="156.5117">Interactive DAG</text><text fill="#000000" font-family="sans-serif" font-size="14" lengthAdjust="spacing" textLength="196.5264" x="584.6074" y="138.0234">Visualize table dependencies</text><path d="M531.6074,151.2207 L541.6074,151.2207 C556.6074,151.2207 556.6074,132.7324 571.6074,132.7324 L581.6074,132.7324" fill="none" style="stroke:#FFB900;stroke-width:3;"/><text fill="#000000" font-family="sans-serif" font-size="14" lengthAdjust="spacing" textLength="166.1406" x="584.6074" y="156.5117">Targeted table refreshes</text><path d="M531.6074,151.2207 L541.6074,151.2207 C556.6074,151.2207 556.6074,151.2207 571.6074,151.2207 L581.6074,151.2207" fill="none" style="stroke:#FFB900;stroke-width:3;"/><text fill="#000000" font-family="sans-serif" font-size="14" lengthAdjust="spacing" textLength="121.0234" x="584.6074" y="175">Execution metrics</text><path d="M531.6074,151.2207 L541.6074,151.2207 C556.6074,151.2207 556.6074,169.709 571.6074,169.709 L581.6074,169.709" fill="none" style="stroke:#FFB900;stroke-width:3;"/><path d="M356.1973,122.9766 L366.1973,122.9766 C381.1973,122.9766 381.1973,151.2207 396.1973,151.2207 L406.1973,151.2207" fill="none" style="stroke:#0078D4;stroke-width:3;"/><rect fill="#FFB900" height="36.4883" rx="12.5" ry="12.5" style="stroke:#FFB900;stroke-width:3;" width="106.7617" x="406.1973" y="189.4648"/><text fill="#000000" font-family="sans-serif" font-size="14" lengthAdjust="spacing" textLength="86.7617" x="416.1973" y="213">Data Preview</text><text fill="#000000" font-family="sans-serif" font-size="14" lengthAdjust="spacing" textLength="243.5029" x="565.959" y="203.7559">Sample streaming or mat. view data</text><path d="M512.959,207.709 L522.959,207.709 C537.959,207.709 537.959,198.4648 552.959,198.4648 L562.959,198.4648" fill="none" style="stroke:#FFB900;stroke-width:3;"/><text fill="#000000" font-family="sans-serif" font-size="14" lengthAdjust="spacing" textLength="182.0137" x="565.959" y="222.2441">Verify transformation logic</text><path d="M512.959,207.709 L522.959,207.709 C537.959,207.709 537.959,216.9531 552.959,216.9531 L562.959,216.9531" fill="none" style="stroke:#FFB900;stroke-width:3;"/><path d="M356.1973,122.9766 L366.1973,122.9766 C381.1973,122.9766 381.1973,207.709 396.1973,207.709 L406.1973,207.709" fill="none" style="stroke:#0078D4;stroke-width:3;"/><path d="M134.5557,150.9648 L144.5557,150.9648 C159.5557,150.9648 159.5557,122.9766 174.5557,122.9766 L184.5557,122.9766" fill="none" style="stroke:#FF5F46;stroke-width:3;"/><rect fill="#0078D4" height="36.4883" rx="12.5" ry="12.5" style="stroke:#0078D4;stroke-width:3;" width="51.9785" x="184.5557" y="245.4414"/><text fill="#FFFFFF" font-family="sans-serif" font-size="14" lengthAdjust="spacing" textLength="31.9785" x="194.5557" y="268.9766">Note</text><text fill="#000000" font-family="sans-serif" font-size="14" lengthAdjust="spacing" textLength="162.7363" x="289.5342" y="250.4883">Pipeline definitions only</text><path d="M236.5342,263.6855 L246.5342,263.6855 C261.5342,263.6855 261.5342,245.1973 276.5342,245.1973 L286.5342,245.1973" fill="none" style="stroke:#0078D4;stroke-width:3;"/><text fill="#000000" font-family="sans-serif" font-size="14" lengthAdjust="spacing" textLength="182.8203" x="289.5342" y="268.9766">Not regular notebook code</text><path d="M236.5342,263.6855 L246.5342,263.6855 C261.5342,263.6855 261.5342,263.6855 276.5342,263.6855 L286.5342,263.6855" fill="none" style="stroke:#0078D4;stroke-width:3;"/><text fill="#000000" font-family="sans-serif" font-size="14" lengthAdjust="spacing" textLength="236.626" x="289.5342" y="287.4648">pyspark.pipelines module required</text><path d="M236.5342,263.6855 L246.5342,263.6855 C261.5342,263.6855 261.5342,282.1738 276.5342,282.1738 L286.5342,282.1738" fill="none" style="stroke:#0078D4;stroke-width:3;"/><path d="M134.5557,150.9648 L144.5557,150.9648 C159.5557,150.9648 159.5557,263.6855 174.5557,263.6855 L184.5557,263.6855" fill="none" style="stroke:#FF5F46;stroke-width:3;"/><?plantuml-src VLDTQzjG37tthn0CnfQ7pCswxeCokZNr69HIrhAdGL1isRdu-bvFLqxZbVttoOwTCezC3nTREbVd7Cc-288ibN5PXNLq7gIrz37wa54jcnVnItYCGECpfcN1ld7PfRUUuLcIl4bEp_hQjN7qRpRnJePitiS1UxynQUae17WzZwFV8zV9KQuuVljkUJhbccJ_xZfHaFJnnBKuofNdw_TnFEMQPF_B5VUXN6k_intcyIZY_DKmxXbSOqcvzGy_tAsfoIf9WAlCYETeDeCbRSdwkY8da11AmnGqhmLkuLlZkkVP2hwZDHaAGJtqWDHdD1HlF6WDeMQVgYpZYg5mYP9k8BHES0VFGIT4BYENja3CdlT4TsGf5RCbkDfHseZn8wdI0qBNpnBaHW_rABYs8t62GOZ1w87ZFVZgkjTzn-MdBwC14nhry8ls3PwqcBrVXTmZ5oIK3GYcN6UnEPGFwg0YOPCEO-gCtp9j3JqCm3kiQhqVX0drwoywrHNA73fCFwbH4x79Mn165tBFLUy1h2zCsgtcnajlT0NZubHrRfpfO06yisqqp5zKRT5OP71wQUrzUTZF2kesrCZbl3wil_9PqplysHYcBBhGKOp_QNGoNyIBi_dY3m00?></g></svg>