<?plantuml 1.2026.2?><svg xmlns="http://www.w3.org/2000/svg" xmlns:xlink="http://www.w3.org/1999/xlink" contentStyleType="text/css" data-diagram-type="MINDMAP" height="304px" preserveAspectRatio="none" style="width:704px;height:304px;background:#FFFFFF;" version="1.1" viewBox="0 0 704 304" width="704px" zoomAndPan="magnify"><defs/><g><rect fill="#FF5F46" height="52.9766" rx="12.5" ry="12.5" style="stroke:#FF5F46;stroke-width:3;" width="156.0283" x="10" y="124.7324"/><text fill="#FFFFFF" font-family="sans-serif" font-size="14" lengthAdjust="spacing" textLength="126.417" x="20" y="148.2676">Materialized Views</text><text fill="#FFFFFF" font-family="sans-serif" font-size="14" lengthAdjust="spacing" textLength="136.0283" x="20" y="164.7559">for Transformations</text><rect fill="#0078D4" height="36.4883" rx="12.5" ry="12.5" style="stroke:#0078D4;stroke-width:3;" width="118.335" x="216.0283" y="20"/><text fill="#FFFFFF" font-family="sans-serif" font-size="14" lengthAdjust="spacing" textLength="98.335" x="226.0283" y="43.5352">What They Are</text><text fill="#000000" font-family="sans-serif" font-size="14" lengthAdjust="spacing" textLength="142.8643" x="387.3633" y="25.0469">Cached query results</text><path d="M334.3633,38.2441 L344.3633,38.2441 C359.3633,38.2441 359.3633,19.7559 374.3633,19.7559 L384.3633,19.7559" fill="none" style="stroke:#0078D4;stroke-width:3;"/><text fill="#000000" font-family="sans-serif" font-size="14" lengthAdjust="spacing" textLength="249.4023" x="387.3633" y="43.5352">Auto-synced with upstream changes</text><path d="M334.3633,38.2441 L344.3633,38.2441 C359.3633,38.2441 359.3633,38.2441 374.3633,38.2441 L384.3633,38.2441" fill="none" style="stroke:#0078D4;stroke-width:3;"/><text fill="#000000" font-family="sans-serif" font-size="14" lengthAdjust="spacing" textLength="208.4277" x="387.3633" y="62.0234">Better for aggregations &amp; joins</text><path d="M334.3633,38.2441 L344.3633,38.2441 C359.3633,38.2441 359.3633,56.7324 374.3633,56.7324 L384.3633,56.7324" fill="none" style="stroke:#0078D4;stroke-width:3;"/><path d="M166.0283,151.2207 L176.0283,151.2207 C191.0283,151.2207 191.0283,38.2441 206.0283,38.2441 L216.0283,38.2441" fill="none" style="stroke:#FF5F46;stroke-width:3;"/><rect fill="#0078D4" height="36.4883" rx="12.5" ry="12.5" style="stroke:#0078D4;stroke-width:3;" width="104.4854" x="216.0283" y="76.4883"/><text fill="#FFFFFF" font-family="sans-serif" font-size="14" lengthAdjust="spacing" textLength="84.4854" x="226.0283" y="100.0234">When to Use</text><text fill="#000000" font-family="sans-serif" font-size="14" lengthAdjust="spacing" textLength="209.1455" x="373.5137" y="81.5352">Aggregations (sums, averages)</text><path d="M320.5137,94.7324 L330.5137,94.7324 C345.5137,94.7324 345.5137,76.2441 360.5137,76.2441 L370.5137,76.2441" fill="none" style="stroke:#0078D4;stroke-width:3;"/><text fill="#000000" font-family="sans-serif" font-size="14" lengthAdjust="spacing" textLength="97.7607" x="373.5137" y="100.0234">Complex joins</text><path d="M320.5137,94.7324 L330.5137,94.7324 C345.5137,94.7324 345.5137,94.7324 360.5137,94.7324 L370.5137,94.7324" fill="none" style="stroke:#0078D4;stroke-width:3;"/><text fill="#000000" font-family="sans-serif" font-size="14" lengthAdjust="spacing" textLength="189.1982" x="373.5137" y="118.5117">Updates &amp; deletes in source</text><path d="M320.5137,94.7324 L330.5137,94.7324 C345.5137,94.7324 345.5137,113.2207 360.5137,113.2207 L370.5137,113.2207" fill="none" style="stroke:#0078D4;stroke-width:3;"/><path d="M166.0283,151.2207 L176.0283,151.2207 C191.0283,151.2207 191.0283,94.7324 206.0283,94.7324 L216.0283,94.7324" fill="none" style="stroke:#FF5F46;stroke-width:3;"/><rect fill="#0078D4" height="36.4883" rx="12.5" ry="12.5" style="stroke:#0078D4;stroke-width:3;" width="95.4072" x="216.0283" y="132.9766"/><text fill="#FFFFFF" font-family="sans-serif" font-size="14" lengthAdjust="spacing" textLength="75.4072" x="226.0283" y="156.5117">SQL Syntax</text><text fill="#000000" font-family="sans-serif" font-size="14" lengthAdjust="spacing" textLength="279.7402" x="364.4355" y="147.2676">CREATE OR REPLACE MATERIALIZED VIEW</text><path d="M311.4355,151.2207 L321.4355,151.2207 C336.4355,151.2207 336.4355,141.9766 351.4355,141.9766 L361.4355,141.9766" fill="none" style="stroke:#0078D4;stroke-width:3;"/><text fill="#000000" font-family="sans-serif" font-size="14" lengthAdjust="spacing" textLength="223.4463" x="364.4355" y="165.7559">Standard SELECT with joins/aggs</text><path d="M311.4355,151.2207 L321.4355,151.2207 C336.4355,151.2207 336.4355,160.4648 351.4355,160.4648 L361.4355,160.4648" fill="none" style="stroke:#0078D4;stroke-width:3;"/><path d="M166.0283,151.2207 L176.0283,151.2207 C191.0283,151.2207 191.0283,151.2207 206.0283,151.2207 L216.0283,151.2207" fill="none" style="stroke:#FF5F46;stroke-width:3;"/><rect fill="#0078D4" height="36.4883" rx="12.5" ry="12.5" style="stroke:#0078D4;stroke-width:3;" width="115.792" x="216.0283" y="189.4648"/><text fill="#FFFFFF" font-family="sans-serif" font-size="14" lengthAdjust="spacing" textLength="95.792" x="226.0283" y="213">Python Syntax</text><text fill="#000000" font-family="sans-serif" font-size="14" lengthAdjust="spacing" textLength="224.8613" x="384.8203" y="203.7559">@dp.materialized_view decorator</text><path d="M331.8203,207.709 L341.8203,207.709 C356.8203,207.709 356.8203,198.4648 371.8203,198.4648 L381.8203,198.4648" fill="none" style="stroke:#0078D4;stroke-width:3;"/><text fill="#000000" font-family="sans-serif" font-size="14" lengthAdjust="spacing" textLength="182.4648" x="384.8203" y="222.2441">Returns regular DataFrame</text><path d="M331.8203,207.709 L341.8203,207.709 C356.8203,207.709 356.8203,216.9531 371.8203,216.9531 L381.8203,216.9531" fill="none" style="stroke:#0078D4;stroke-width:3;"/><path d="M166.0283,151.2207 L176.0283,151.2207 C191.0283,151.2207 191.0283,207.709 206.0283,207.709 L216.0283,207.709" fill="none" style="stroke:#FF5F46;stroke-width:3;"/><rect fill="#0078D4" height="36.4883" rx="12.5" ry="12.5" style="stroke:#0078D4;stroke-width:3;" width="156.1924" x="216.0283" y="245.9531"/><text fill="#FFFFFF" font-family="sans-serif" font-size="14" lengthAdjust="spacing" textLength="136.1924" x="226.0283" y="269.4883">vs Streaming Tables</text><text fill="#000000" font-family="sans-serif" font-size="14" lengthAdjust="spacing" textLength="253.2168" x="425.2207" y="260.2441">Streaming: append-only, low-latency</text><path d="M372.2207,264.1973 L382.2207,264.1973 C397.2207,264.1973 397.2207,254.9531 412.2207,254.9531 L422.2207,254.9531" fill="none" style="stroke:#0078D4;stroke-width:3;"/><text fill="#000000" font-family="sans-serif" font-size="14" lengthAdjust="spacing" textLength="267.5244" x="425.2207" y="278.7324">Materialized: complex queries, updates</text><path d="M372.2207,264.1973 L382.2207,264.1973 C397.2207,264.1973 397.2207,273.4414 412.2207,273.4414 L422.2207,273.4414" fill="none" style="stroke:#0078D4;stroke-width:3;"/><path d="M166.0283,151.2207 L176.0283,151.2207 C191.0283,151.2207 191.0283,264.1973 206.0283,264.1973 L216.0283,264.1973" fill="none" style="stroke:#FF5F46;stroke-width:3;"/><?plantuml-src VPDlQzim4CRV-rCS34ORcjJDkcuBPSHDR0Yah4lS5iQWNEoBhLMMF4bEufLzzyb_agKPsRsIJu-VtzrZFDG6bScOY3FCdMjjIawVdK5CkKbFt5DuSS3M3KRFYPA5Y4UIImLlWk1zS7bLtqsPe7-xWHIcxIxhscd3b4NFWhI6TptN-RrbNHnbkUw7Z-FBGzP1zxNhmGH1NNzP_QEivNBnoNKFMGVT_xBSkYnh8JUyqhmSLLoVjt5tu1ODAOQS_Q8O7XYjzNUnjE9GeT3saA5XKcYdqu7750s4APNWARADpXECC4hjUpyBKYKeqWKtkhdn2YExkXIHlLupaqAHQwC8CuXI50criXiobWyL4PD4KTBWu2tya6oB9G56mhrkeTw-y4GNcJu3N952wthQpYMpdDDcPs9RztbiLwsSO-9KdPW0BGiLLROm_pg5UIaCRbg7cU-5FdoPmSo_cteZ7sxjyspYJIVV_34yJFp7HZWtA69KCSpzgJyAcsLhxhdTgDxWhZIf5A_iXt7Uo_QYVrhPwEraaLHef6f4CpA5iZlQRGkE2iPeC52OrGElj4LNWJAHG8WBlerqrnq0vZc9k2i5By-0otMNMwI8oaQu_-a74BMHLT-IaOsqQ09pXjPY-viw5xs-sx_gzVy0?></g></svg>