<?plantuml 1.2026.2?><svg xmlns="http://www.w3.org/2000/svg" xmlns:xlink="http://www.w3.org/1999/xlink" contentStyleType="text/css" data-diagram-type="MINDMAP" height="247px" preserveAspectRatio="none" style="width:626px;height:247px;background:#FFFFFF;" version="1.1" viewBox="0 0 626 247" width="626px" zoomAndPan="magnify"><defs/><g><rect fill="#FF5F46" height="52.9766" rx="12.5" ry="12.5" style="stroke:#FF5F46;stroke-width:3;" width="137.3799" x="10" y="96.4883"/><text fill="#FFFFFF" font-family="sans-serif" font-size="14" lengthAdjust="spacing" textLength="117.3799" x="20" y="120.0234">Streaming Tables</text><text fill="#FFFFFF" font-family="sans-serif" font-size="14" lengthAdjust="spacing" textLength="86.8643" x="20" y="136.5117">for Ingestion</text><rect fill="#0078D4" height="36.4883" rx="12.5" ry="12.5" style="stroke:#0078D4;stroke-width:3;" width="118.335" x="197.3799" y="20"/><text fill="#FFFFFF" font-family="sans-serif" font-size="14" lengthAdjust="spacing" textLength="98.335" x="207.3799" y="43.5352">What They Are</text><text fill="#000000" font-family="sans-serif" font-size="14" lengthAdjust="spacing" textLength="225.2236" x="368.7148" y="25.0469">Delta table optimized for append</text><path d="M315.7148,38.2441 L325.7148,38.2441 C340.7148,38.2441 340.7148,19.7559 355.7148,19.7559 L365.7148,19.7559" fill="none" style="stroke:#0078D4;stroke-width:3;"/><text fill="#000000" font-family="sans-serif" font-size="14" lengthAdjust="spacing" textLength="241.876" x="368.7148" y="43.5352">Each record processed exactly once</text><path d="M315.7148,38.2441 L325.7148,38.2441 C340.7148,38.2441 340.7148,38.2441 355.7148,38.2441 L365.7148,38.2441" fill="none" style="stroke:#0078D4;stroke-width:3;"/><text fill="#000000" font-family="sans-serif" font-size="14" lengthAdjust="spacing" textLength="204.8525" x="368.7148" y="62.0234">Ideal for append-only sources</text><path d="M315.7148,38.2441 L325.7148,38.2441 C340.7148,38.2441 340.7148,56.7324 355.7148,56.7324 L365.7148,56.7324" fill="none" style="stroke:#0078D4;stroke-width:3;"/><path d="M147.3799,122.9766 L157.3799,122.9766 C172.3799,122.9766 172.3799,38.2441 187.3799,38.2441 L197.3799,38.2441" fill="none" style="stroke:#FF5F46;stroke-width:3;"/><rect fill="#0078D4" height="36.4883" rx="12.5" ry="12.5" style="stroke:#0078D4;stroke-width:3;" width="72.6641" x="197.3799" y="76.4883"/><text fill="#FFFFFF" font-family="sans-serif" font-size="14" lengthAdjust="spacing" textLength="52.6641" x="207.3799" y="100.0234">Sources</text><text fill="#000000" font-family="sans-serif" font-size="14" lengthAdjust="spacing" textLength="191.5088" x="323.0439" y="81.5352">Cloud storage (Auto Loader)</text><path d="M270.0439,94.7324 L280.0439,94.7324 C295.0439,94.7324 295.0439,76.2441 310.0439,76.2441 L320.0439,76.2441" fill="none" style="stroke:#0078D4;stroke-width:3;"/><text fill="#000000" font-family="sans-serif" font-size="14" lengthAdjust="spacing" textLength="111.7471" x="323.0439" y="100.0234">Message queues</text><path d="M270.0439,94.7324 L280.0439,94.7324 C295.0439,94.7324 295.0439,94.7324 310.0439,94.7324 L320.0439,94.7324" fill="none" style="stroke:#0078D4;stroke-width:3;"/><text fill="#000000" font-family="sans-serif" font-size="14" lengthAdjust="spacing" textLength="176.2373" x="323.0439" y="118.5117">JSON / CSV / Parquet files</text><path d="M270.0439,94.7324 L280.0439,94.7324 C295.0439,94.7324 295.0439,113.2207 310.0439,113.2207 L320.0439,113.2207" fill="none" style="stroke:#0078D4;stroke-width:3;"/><path d="M147.3799,122.9766 L157.3799,122.9766 C172.3799,122.9766 172.3799,94.7324 187.3799,94.7324 L197.3799,94.7324" fill="none" style="stroke:#FF5F46;stroke-width:3;"/><rect fill="#0078D4" height="36.4883" rx="12.5" ry="12.5" style="stroke:#0078D4;stroke-width:3;" width="95.4072" x="197.3799" y="132.9766"/><text fill="#FFFFFF" font-family="sans-serif" font-size="14" lengthAdjust="spacing" textLength="75.4072" x="207.3799" y="156.5117">SQL Syntax</text><text fill="#000000" font-family="sans-serif" font-size="14" lengthAdjust="spacing" textLength="268.5498" x="345.7871" y="138.0234">CREATE OR REFRESH STREAMING TABLE</text><path d="M292.7871,151.2207 L302.7871,151.2207 C317.7871,151.2207 317.7871,132.7324 332.7871,132.7324 L342.7871,132.7324" fill="none" style="stroke:#0078D4;stroke-width:3;"/><text fill="#000000" font-family="sans-serif" font-size="14" lengthAdjust="spacing" textLength="146.624" x="345.7871" y="156.5117">STREAM read_files(...)</text><path d="M292.7871,151.2207 L302.7871,151.2207 C317.7871,151.2207 317.7871,151.2207 332.7871,151.2207 L342.7871,151.2207" fill="none" style="stroke:#0078D4;stroke-width:3;"/><text fill="#000000" font-family="sans-serif" font-size="14" lengthAdjust="spacing" textLength="168.6631" x="345.7871" y="175">Only new files processed</text><path d="M292.7871,151.2207 L302.7871,151.2207 C317.7871,151.2207 317.7871,169.709 332.7871,169.709 L342.7871,169.709" fill="none" style="stroke:#0078D4;stroke-width:3;"/><path d="M147.3799,122.9766 L157.3799,122.9766 C172.3799,122.9766 172.3799,151.2207 187.3799,151.2207 L197.3799,151.2207" fill="none" style="stroke:#FF5F46;stroke-width:3;"/><rect fill="#0078D4" height="36.4883" rx="12.5" ry="12.5" style="stroke:#0078D4;stroke-width:3;" width="115.792" x="197.3799" y="189.4648"/><text fill="#FFFFFF" font-family="sans-serif" font-size="14" lengthAdjust="spacing" textLength="95.792" x="207.3799" y="213">Python Syntax</text><text fill="#000000" font-family="sans-serif" font-size="14" lengthAdjust="spacing" textLength="137.5322" x="366.1719" y="194.5117">@dp.table decorator</text><path d="M313.1719,207.709 L323.1719,207.709 C338.1719,207.709 338.1719,189.2207 353.1719,189.2207 L363.1719,189.2207" fill="none" style="stroke:#0078D4;stroke-width:3;"/><text fill="#000000" font-family="sans-serif" font-size="14" lengthAdjust="spacing" textLength="119.1982" x="366.1719" y="213">spark.readStream</text><path d="M313.1719,207.709 L323.1719,207.709 C338.1719,207.709 338.1719,207.709 353.1719,207.709 L363.1719,207.709" fill="none" style="stroke:#0078D4;stroke-width:3;"/><text fill="#000000" font-family="sans-serif" font-size="14" lengthAdjust="spacing" textLength="202.1797" x="366.1719" y="231.4883">Returns streaming DataFrame</text><path d="M313.1719,207.709 L323.1719,207.709 C338.1719,207.709 338.1719,226.1973 353.1719,226.1973 L363.1719,226.1973" fill="none" style="stroke:#0078D4;stroke-width:3;"/><path d="M147.3799,122.9766 L157.3799,122.9766 C172.3799,122.9766 172.3799,207.709 187.3799,207.709 L197.3799,207.709" fill="none" style="stroke:#FF5F46;stroke-width:3;"/><?plantuml-src VPDTJzjG38RlyoiixQPKMWWTWsr2KqkRR9qAPKaqRf2Gc-CqKTDpifCJhG7ntt4-2YDJvukeUltQZ-sZZWk3scnJARQOMnU5gJBwQdqHb9jau1p1emKSbnXjrbgLKanLfZIyyxoFtkbParkaalvLFILDfyPDl7Z398qsaee2FjYEzRHddHnaESxvfzbfdzLJttRjJU0rySeQ7MJ5yUgpu_HPFVM_BAS9PgtKBgizZmST5yVTkOSG64t8hx2645TSTYTZjixbcWgJAcaDXt2Re84meGeccbWOtiECCeDWwWfGkKctwGC9g2inpqcArkLYb82cI6a1kLOH3yKksc5aiWgKZBfkSq6O_LNzNadE5whKN59F4BpyPFSqKwM0mYYDQuB1f3GA5We5wQFMSCMSElMxf79Vz2DONiCnJ8DV_Br1pJa3SPfr_Nyk8AYamLs7yDr9wCBI1z_rV3Vu3a78qjNy-Xk4ayk5szfQaJT4ST_q6jYstGsnh5UGzAU5lAvVusugaoZvXZWMkTsUKzJtGjwkJHGvwerT8zgNQbMVJAbbmLVOlzuC3NeQjsID-OBxlvLrOe-SqPazUWO0?></g></svg>