<?plantuml 1.2026.2?><svg xmlns="http://www.w3.org/2000/svg" xmlns:xlink="http://www.w3.org/1999/xlink" contentStyleType="text/css" data-diagram-type="MINDMAP" height="398px" preserveAspectRatio="none" style="width:817px;height:398px;background:#FFFFFF;" version="1.1" viewBox="0 0 817 398" width="817px" zoomAndPan="magnify"><defs/><g><rect fill="#FF5F46" height="36.4883" rx="12.5" ry="12.5" style="stroke:#FF5F46;stroke-width:3;" width="133.2783" x="10" y="179.9648"/><text fill="#FFFFFF" font-family="sans-serif" font-size="14" lengthAdjust="spacing" textLength="113.2783" x="20" y="203.5">Classic Compute</text><rect fill="#0078D4" height="36.4883" rx="12.5" ry="12.5" style="stroke:#0078D4;stroke-width:3;" width="238.1553" x="193.2783" y="20"/><text fill="#FFFFFF" font-family="sans-serif" font-size="14" lengthAdjust="spacing" textLength="218.1553" x="203.2783" y="43.5352">Runs in your Azure subscription</text><path d="M143.2783,198.209 L153.2783,198.209 C168.2783,198.209 168.2783,38.2441 183.2783,38.2441 L193.2783,38.2441" fill="none" style="stroke:#FF5F46;stroke-width:3;"/><rect fill="#0078D4" height="36.4883" rx="12.5" ry="12.5" style="stroke:#0078D4;stroke-width:3;" width="114.9102" x="193.2783" y="104.7324"/><text fill="#FFFFFF" font-family="sans-serif" font-size="14" lengthAdjust="spacing" textLength="94.9102" x="203.2783" y="128.2676">Access Modes</text><rect fill="#FFB900" height="36.4883" rx="12.5" ry="12.5" style="stroke:#FFB900;stroke-width:3;" width="80.2793" x="358.1885" y="76.4883"/><text fill="#000000" font-family="sans-serif" font-size="14" lengthAdjust="spacing" textLength="60.2793" x="368.1885" y="100.0234">Standard</text><text fill="#000000" font-family="sans-serif" font-size="14" lengthAdjust="spacing" textLength="187.4072" x="491.4678" y="81.5352">Multiple users share cluster</text><path d="M438.4678,94.7324 L448.4678,94.7324 C463.4678,94.7324 463.4678,76.2441 478.4678,76.2441 L488.4678,76.2441" fill="none" style="stroke:#FFB900;stroke-width:3;"/><text fill="#000000" font-family="sans-serif" font-size="14" lengthAdjust="spacing" textLength="235.7031" x="491.4678" y="100.0234">Lakeguard isolation between users</text><path d="M438.4678,94.7324 L448.4678,94.7324 C463.4678,94.7324 463.4678,94.7324 478.4678,94.7324 L488.4678,94.7324" fill="none" style="stroke:#FFB900;stroke-width:3;"/><text fill="#000000" font-family="sans-serif" font-size="14" lengthAdjust="spacing" textLength="149.7959" x="491.4678" y="118.5117">Cost-efficient pooling</text><path d="M438.4678,94.7324 L448.4678,94.7324 C463.4678,94.7324 463.4678,113.2207 478.4678,113.2207 L488.4678,113.2207" fill="none" style="stroke:#FFB900;stroke-width:3;"/><path d="M308.1885,122.9766 L318.1885,122.9766 C333.1885,122.9766 333.1885,94.7324 348.1885,94.7324 L358.1885,94.7324" fill="none" style="stroke:#0078D4;stroke-width:3;"/><rect fill="#FFB900" height="36.4883" rx="12.5" ry="12.5" style="stroke:#FFB900;stroke-width:3;" width="87.8945" x="358.1885" y="132.9766"/><text fill="#000000" font-family="sans-serif" font-size="14" lengthAdjust="spacing" textLength="67.8945" x="368.1885" y="156.5117">Dedicated</text><text fill="#000000" font-family="sans-serif" font-size="14" lengthAdjust="spacing" textLength="138.3799" x="499.083" y="138.0234">Single user or group</text><path d="M446.083,151.2207 L456.083,151.2207 C471.083,151.2207 471.083,132.7324 486.083,132.7324 L496.083,132.7324" fill="none" style="stroke:#FFB900;stroke-width:3;"/><text fill="#000000" font-family="sans-serif" font-size="14" lengthAdjust="spacing" textLength="194.7764" x="499.083" y="156.5117">Full machine-level privileges</text><path d="M446.083,151.2207 L456.083,151.2207 C471.083,151.2207 471.083,151.2207 486.083,151.2207 L496.083,151.2207" fill="none" style="stroke:#FFB900;stroke-width:3;"/><text fill="#000000" font-family="sans-serif" font-size="14" lengthAdjust="spacing" textLength="306.8447" x="499.083" y="175">Required for RDD, GPU, R, custom containers</text><path d="M446.083,151.2207 L456.083,151.2207 C471.083,151.2207 471.083,169.709 486.083,169.709 L496.083,169.709" fill="none" style="stroke:#FFB900;stroke-width:3;"/><path d="M308.1885,122.9766 L318.1885,122.9766 C333.1885,122.9766 333.1885,151.2207 348.1885,151.2207 L358.1885,151.2207" fill="none" style="stroke:#0078D4;stroke-width:3;"/><path d="M143.2783,198.209 L153.2783,198.209 C168.2783,198.209 168.2783,122.9766 183.2783,122.9766 L193.2783,122.9766" fill="none" style="stroke:#FF5F46;stroke-width:3;"/><rect fill="#0078D4" height="36.4883" rx="12.5" ry="12.5" style="stroke:#0078D4;stroke-width:3;" width="117.1592" x="193.2783" y="217.709"/><text fill="#FFFFFF" font-family="sans-serif" font-size="14" lengthAdjust="spacing" textLength="97.1592" x="203.2783" y="241.2441">Cluster Modes</text><rect fill="#FFB900" height="36.4883" rx="12.5" ry="12.5" style="stroke:#FFB900;stroke-width:3;" width="96.0771" x="360.4375" y="189.4648"/><text fill="#000000" font-family="sans-serif" font-size="14" lengthAdjust="spacing" textLength="76.0771" x="370.4375" y="213">Multi-node</text><text fill="#000000" font-family="sans-serif" font-size="14" lengthAdjust="spacing" textLength="153.3164" x="509.5146" y="194.5117">Driver + worker nodes</text><path d="M456.5146,207.709 L466.5146,207.709 C481.5146,207.709 481.5146,189.2207 496.5146,189.2207 L506.5146,189.2207" fill="none" style="stroke:#FFB900;stroke-width:3;"/><text fill="#000000" font-family="sans-serif" font-size="14" lengthAdjust="spacing" textLength="122.9717" x="509.5146" y="213">Horizontal scaling</text><path d="M456.5146,207.709 L466.5146,207.709 C481.5146,207.709 481.5146,207.709 496.5146,207.709 L506.5146,207.709" fill="none" style="stroke:#FFB900;stroke-width:3;"/><text fill="#000000" font-family="sans-serif" font-size="14" lengthAdjust="spacing" textLength="147.3623" x="509.5146" y="231.4883">Production workloads</text><path d="M456.5146,207.709 L466.5146,207.709 C481.5146,207.709 481.5146,226.1973 496.5146,226.1973 L506.5146,226.1973" fill="none" style="stroke:#FFB900;stroke-width:3;"/><path d="M310.4375,235.9531 L320.4375,235.9531 C335.4375,235.9531 335.4375,207.709 350.4375,207.709 L360.4375,207.709" fill="none" style="stroke:#0078D4;stroke-width:3;"/><rect fill="#FFB900" height="36.4883" rx="12.5" ry="12.5" style="stroke:#FFB900;stroke-width:3;" width="102.8516" x="360.4375" y="245.9531"/><text fill="#000000" font-family="sans-serif" font-size="14" lengthAdjust="spacing" textLength="82.8516" x="370.4375" y="269.4883">Single-node</text><text fill="#000000" font-family="sans-serif" font-size="14" lengthAdjust="spacing" textLength="158.6553" x="516.2891" y="251">Driver only, no workers</text><path d="M463.2891,264.1973 L473.2891,264.1973 C488.2891,264.1973 488.2891,245.709 503.2891,245.709 L513.2891,245.709" fill="none" style="stroke:#FFB900;stroke-width:3;"/><text fill="#000000" font-family="sans-serif" font-size="14" lengthAdjust="spacing" textLength="242.3682" x="516.2891" y="269.4883">Small datasets, ML experimentation</text><path d="M463.2891,264.1973 L473.2891,264.1973 C488.2891,264.1973 488.2891,264.1973 503.2891,264.1973 L513.2891,264.1973" fill="none" style="stroke:#FFB900;stroke-width:3;"/><text fill="#000000" font-family="sans-serif" font-size="14" lengthAdjust="spacing" textLength="158.0469" x="516.2891" y="287.9766">Can't scale horizontally</text><path d="M463.2891,264.1973 L473.2891,264.1973 C488.2891,264.1973 488.2891,282.6855 503.2891,282.6855 L513.2891,282.6855" fill="none" style="stroke:#FFB900;stroke-width:3;"/><path d="M310.4375,235.9531 L320.4375,235.9531 C335.4375,235.9531 335.4375,264.1973 350.4375,264.1973 L360.4375,264.1973" fill="none" style="stroke:#0078D4;stroke-width:3;"/><path d="M143.2783,198.209 L153.2783,198.209 C168.2783,198.209 168.2783,235.9531 183.2783,235.9531 L193.2783,235.9531" fill="none" style="stroke:#FF5F46;stroke-width:3;"/><rect fill="#0078D4" height="36.4883" rx="12.5" ry="12.5" style="stroke:#0078D4;stroke-width:3;" width="103.5557" x="193.2783" y="283.4414"/><text fill="#FFFFFF" font-family="sans-serif" font-size="14" lengthAdjust="spacing" textLength="83.5557" x="203.2783" y="306.9766">Startup time</text><text fill="#000000" font-family="sans-serif" font-size="14" lengthAdjust="spacing" textLength="84.9023" x="349.834" y="306.9766">3-7 minutes</text><path d="M296.834,301.6855 L306.834,301.6855 C321.834,301.6855 321.834,301.6855 336.834,301.6855 L346.834,301.6855" fill="none" style="stroke:#0078D4;stroke-width:3;"/><path d="M143.2783,198.209 L153.2783,198.209 C168.2783,198.209 168.2783,301.6855 183.2783,301.6855 L193.2783,301.6855" fill="none" style="stroke:#FF5F46;stroke-width:3;"/><rect fill="#0078D4" height="36.4883" rx="12.5" ry="12.5" style="stroke:#0078D4;stroke-width:3;" width="169.3584" x="193.2783" y="339.9297"/><text fill="#FFFFFF" font-family="sans-serif" font-size="14" lengthAdjust="spacing" textLength="149.3584" x="203.2783" y="363.4648">Runtime management</text><text fill="#000000" font-family="sans-serif" font-size="14" lengthAdjust="spacing" textLength="348.6533" x="415.6367" y="354.2207">You select and manage Databricks Runtime version</text><path d="M362.6367,358.1738 L372.6367,358.1738 C387.6367,358.1738 387.6367,348.9297 402.6367,348.9297 L412.6367,348.9297" fill="none" style="stroke:#0078D4;stroke-width:3;"/><text fill="#000000" font-family="sans-serif" font-size="14" lengthAdjust="spacing" textLength="294.4375" x="415.6367" y="372.709">Manual upgrade (e.g. 13.3 LTS &#8594; 14.3 LTS)</text><path d="M362.6367,358.1738 L372.6367,358.1738 C387.6367,358.1738 387.6367,367.418 402.6367,367.418 L412.6367,367.418" fill="none" style="stroke:#0078D4;stroke-width:3;"/><path d="M143.2783,198.209 L153.2783,198.209 C168.2783,198.209 168.2783,358.1738 183.2783,358.1738 L193.2783,358.1738" fill="none" style="stroke:#FF5F46;stroke-width:3;"/><?plantuml-src VLHDSzCm4BtxL-mC1zgG6EU35fWEqv9CoY6PwIJbm8bHvBMZYImPVRHDErpv0Vn4VWbhHGuG23fPshVlxJwjTMaTCwuIAgzOdLnOjvNuBdcRO-tM9zafF2L0wptZcz9eh_Anbjh0i-dqrNHq5c8peV3lqwbMBfuMOUsnjsl1DmgjXM6Q9LzRhVvHhImxVpqP7MeTdFx9Ub31DAnVMeEZMaMnUfDbXre7f__Loi8YhPL-a0tcwIZYucMqkmDZoQmL7CQwght3fDE1XLSMX8AjzWQk7hr1i7vbkH6r4rera2lE6uMvpj7IlWDBnrJEJDviEfzXxgKJjKJm5eq5ksP4mgMt3as4pDW6Iqyf8AoMh6665RfxHBNBYhYnjgw7HI6uGEMWrbeALGRH2UQ2CuUjwf82KHEetyRVEeQcNage65-JYps9ToYXDk9EI2onLLhW5oyCvb1Gyc8owSBrpSSkBBh0gN1T0ISh6H64siYvqCvl9eIkUuhsaN524eHu0VVQREX3jL2AVT16F3Q44YndRKyKk34wzppuqQH9pVBeSMZl7_nQoMsNoADCgx2i63MTCySiEjk5-GpmeKOZAZAInQiC5ZFrt8Kg4DRxikGssLsiSRu6Hrb9G0zxvq2_BGsBZTFInCXSnKfig7UmJzg3HOdS0Or63CE4gbaPccAxJwGERAo51eSfJuxukZGiHpZ1j4oXFqo7CBjTmezltw4_scrEaqkajoE-7qa_7MI3itJm4m00?></g></svg>