<?plantuml 1.2026.2?><svg xmlns="http://www.w3.org/2000/svg" xmlns:xlink="http://www.w3.org/1999/xlink" contentStyleType="text/css" data-diagram-type="MINDMAP" height="473px" preserveAspectRatio="none" style="width:776px;height:473px;background:#FFFFFF;" version="1.1" viewBox="0 0 776 473" width="776px" zoomAndPan="magnify"><defs/><g><rect fill="#FF5F46" height="36.4883" rx="12.5" ry="12.5" style="stroke:#FF5F46;stroke-width:3;" width="117.0361" x="10" y="217.4531"/><text fill="#FFFFFF" font-family="sans-serif" font-size="14" lengthAdjust="spacing" textLength="97.0361" x="20" y="240.9883">Instance Pools</text><rect fill="#0078D4" height="36.4883" rx="12.5" ry="12.5" style="stroke:#0078D4;stroke-width:3;" width="104.123" x="177.0361" y="20"/><text fill="#FFFFFF" font-family="sans-serif" font-size="14" lengthAdjust="spacing" textLength="84.123" x="187.0361" y="43.5352">What it does</text><text fill="#000000" font-family="sans-serif" font-size="14" lengthAdjust="spacing" textLength="144.416" x="334.1592" y="25.0469">Keeps idle VMs ready</text><path d="M281.1592,38.2441 L291.1592,38.2441 C306.1592,38.2441 306.1592,19.7559 321.1592,19.7559 L331.1592,19.7559" fill="none" style="stroke:#0078D4;stroke-width:3;"/><text fill="#000000" font-family="sans-serif" font-size="14" lengthAdjust="spacing" textLength="194.0791" x="334.1592" y="43.5352">Reduces cluster startup time</text><path d="M281.1592,38.2441 L291.1592,38.2441 C306.1592,38.2441 306.1592,38.2441 321.1592,38.2441 L331.1592,38.2441" fill="none" style="stroke:#0078D4;stroke-width:3;"/><text fill="#000000" font-family="sans-serif" font-size="14" lengthAdjust="spacing" textLength="221.8193" x="334.1592" y="62.0234">From minutes &#8594; under 1 minute</text><path d="M281.1592,38.2441 L291.1592,38.2441 C306.1592,38.2441 306.1592,56.7324 321.1592,56.7324 L331.1592,56.7324" fill="none" style="stroke:#0078D4;stroke-width:3;"/><path d="M127.0361,235.6973 L137.0361,235.6973 C152.0361,235.6973 152.0361,38.2441 167.0361,38.2441 L177.0361,38.2441" fill="none" style="stroke:#FF5F46;stroke-width:3;"/><rect fill="#0078D4" height="36.4883" rx="12.5" ry="12.5" style="stroke:#0078D4;stroke-width:3;" width="113.6182" x="177.0361" y="132.4648"/><text fill="#FFFFFF" font-family="sans-serif" font-size="14" lengthAdjust="spacing" textLength="93.6182" x="187.0361" y="156">Configuration</text><rect fill="#FFB900" height="36.4883" rx="12.5" ry="12.5" style="stroke:#FFB900;stroke-width:3;" width="141.9941" x="340.6543" y="75.9766"/><text fill="#000000" font-family="sans-serif" font-size="14" lengthAdjust="spacing" textLength="121.9941" x="350.6543" y="99.5117">Min idle instances</text><text fill="#000000" font-family="sans-serif" font-size="14" lengthAdjust="spacing" textLength="219.3721" x="535.6484" y="90.2676">Warm instances always available</text><path d="M482.6484,94.2207 L492.6484,94.2207 C507.6484,94.2207 507.6484,84.9766 522.6484,84.9766 L532.6484,84.9766" fill="none" style="stroke:#FFB900;stroke-width:3;"/><text fill="#000000" font-family="sans-serif" font-size="14" lengthAdjust="spacing" textLength="213.7188" x="535.6484" y="108.7559">Match concurrent cluster needs</text><path d="M482.6484,94.2207 L492.6484,94.2207 C507.6484,94.2207 507.6484,103.4648 522.6484,103.4648 L532.6484,103.4648" fill="none" style="stroke:#FFB900;stroke-width:3;"/><path d="M290.6543,150.709 L300.6543,150.709 C315.6543,150.709 315.6543,94.2207 330.6543,94.2207 L340.6543,94.2207" fill="none" style="stroke:#0078D4;stroke-width:3;"/><rect fill="#FFB900" height="36.4883" rx="12.5" ry="12.5" style="stroke:#FFB900;stroke-width:3;" width="108.0195" x="340.6543" y="132.4648"/><text fill="#000000" font-family="sans-serif" font-size="14" lengthAdjust="spacing" textLength="88.0195" x="350.6543" y="156">Max capacity</text><text fill="#000000" font-family="sans-serif" font-size="14" lengthAdjust="spacing" textLength="97.4326" x="501.6738" y="146.7559">Controls costs</text><path d="M448.6738,150.709 L458.6738,150.709 C473.6738,150.709 473.6738,141.4648 488.6738,141.4648 L498.6738,141.4648" fill="none" style="stroke:#FFB900;stroke-width:3;"/><text fill="#000000" font-family="sans-serif" font-size="14" lengthAdjust="spacing" textLength="171.6025" x="501.6738" y="165.2441">Fair resource distribution</text><path d="M448.6738,150.709 L458.6738,150.709 C473.6738,150.709 473.6738,159.9531 488.6738,159.9531 L498.6738,159.9531" fill="none" style="stroke:#FFB900;stroke-width:3;"/><path d="M290.6543,150.709 L300.6543,150.709 C315.6543,150.709 315.6543,150.709 330.6543,150.709 L340.6543,150.709" fill="none" style="stroke:#0078D4;stroke-width:3;"/><rect fill="#FFB900" height="36.4883" rx="12.5" ry="12.5" style="stroke:#FFB900;stroke-width:3;" width="162.6797" x="340.6543" y="188.9531"/><text fill="#000000" font-family="sans-serif" font-size="14" lengthAdjust="spacing" textLength="142.6797" x="350.6543" y="212.4883">Idle auto termination</text><text fill="#000000" font-family="sans-serif" font-size="14" lengthAdjust="spacing" textLength="207.7646" x="556.334" y="203.2441">Removes excess idle instances</text><path d="M503.334,207.1973 L513.334,207.1973 C528.334,207.1973 528.334,197.9531 543.334,197.9531 L553.334,197.9531" fill="none" style="stroke:#FFB900;stroke-width:3;"/><text fill="#000000" font-family="sans-serif" font-size="14" lengthAdjust="spacing" textLength="117.9678" x="556.334" y="221.7324">Reduces idle cost</text><path d="M503.334,207.1973 L513.334,207.1973 C528.334,207.1973 528.334,216.4414 543.334,216.4414 L553.334,216.4414" fill="none" style="stroke:#FFB900;stroke-width:3;"/><path d="M290.6543,150.709 L300.6543,150.709 C315.6543,150.709 315.6543,207.1973 330.6543,207.1973 L340.6543,207.1973" fill="none" style="stroke:#0078D4;stroke-width:3;"/><path d="M127.0361,235.6973 L137.0361,235.6973 C152.0361,235.6973 152.0361,150.709 167.0361,150.709 L177.0361,150.709" fill="none" style="stroke:#FF5F46;stroke-width:3;"/><rect fill="#0078D4" height="36.4883" rx="12.5" ry="12.5" style="stroke:#0078D4;stroke-width:3;" width="207.9609" x="177.0361" y="245.4414"/><text fill="#FFFFFF" font-family="sans-serif" font-size="14" lengthAdjust="spacing" textLength="187.9609" x="187.0361" y="268.9766">Preload Databricks Runtime</text><text fill="#000000" font-family="sans-serif" font-size="14" lengthAdjust="spacing" textLength="220.1309" x="437.9971" y="259.7324">Preinstalled runtime on idle VMs</text><path d="M384.9971,263.6855 L394.9971,263.6855 C409.9971,263.6855 409.9971,254.4414 424.9971,254.4414 L434.9971,254.4414" fill="none" style="stroke:#0078D4;stroke-width:3;"/><text fill="#000000" font-family="sans-serif" font-size="14" lengthAdjust="spacing" textLength="201.0859" x="437.9971" y="278.2207">Near-instant cluster launches</text><path d="M384.9971,263.6855 L394.9971,263.6855 C409.9971,263.6855 409.9971,272.9297 424.9971,272.9297 L434.9971,272.9297" fill="none" style="stroke:#0078D4;stroke-width:3;"/><path d="M127.0361,235.6973 L137.0361,235.6973 C152.0361,235.6973 152.0361,263.6855 167.0361,263.6855 L177.0361,263.6855" fill="none" style="stroke:#FF5F46;stroke-width:3;"/><rect fill="#0078D4" height="36.4883" rx="12.5" ry="12.5" style="stroke:#0078D4;stroke-width:3;" width="97.417" x="177.0361" y="301.9297"/><text fill="#FFFFFF" font-family="sans-serif" font-size="14" lengthAdjust="spacing" textLength="77.417" x="187.0361" y="325.4648">Cost model</text><text fill="#000000" font-family="sans-serif" font-size="14" lengthAdjust="spacing" textLength="177.3311" x="327.4531" y="316.2207">Pay for idle VMs (not DBU)</text><path d="M274.4531,320.1738 L284.4531,320.1738 C299.4531,320.1738 299.4531,310.9297 314.4531,310.9297 L324.4531,310.9297" fill="none" style="stroke:#0078D4;stroke-width:3;"/><text fill="#000000" font-family="sans-serif" font-size="14" lengthAdjust="spacing" textLength="216.4463" x="327.4531" y="334.709">Justified by frequent cluster use</text><path d="M274.4531,320.1738 L284.4531,320.1738 C299.4531,320.1738 299.4531,329.418 314.4531,329.418 L324.4531,329.418" fill="none" style="stroke:#0078D4;stroke-width:3;"/><path d="M127.0361,235.6973 L137.0361,235.6973 C152.0361,235.6973 152.0361,320.1738 167.0361,320.1738 L177.0361,320.1738" fill="none" style="stroke:#FF5F46;stroke-width:3;"/><rect fill="#0078D4" height="36.4883" rx="12.5" ry="12.5" style="stroke:#0078D4;stroke-width:3;" width="200.5508" x="177.0361" y="358.418"/><text fill="#FFFFFF" font-family="sans-serif" font-size="14" lengthAdjust="spacing" textLength="180.5508" x="187.0361" y="381.9531">Spot instances for workers</text><text fill="#000000" font-family="sans-serif" font-size="14" lengthAdjust="spacing" textLength="168.1572" x="430.5869" y="372.709">Reduce cost significantly</text><path d="M377.5869,376.6621 L387.5869,376.6621 C402.5869,376.6621 402.5869,367.418 417.5869,367.418 L427.5869,367.418" fill="none" style="stroke:#0078D4;stroke-width:3;"/><text fill="#000000" font-family="sans-serif" font-size="14" lengthAdjust="spacing" textLength="195.7402" x="430.5869" y="391.1973">On-demand for driver nodes</text><path d="M377.5869,376.6621 L387.5869,376.6621 C402.5869,376.6621 402.5869,385.9063 417.5869,385.9063 L427.5869,385.9063" fill="none" style="stroke:#0078D4;stroke-width:3;"/><path d="M127.0361,235.6973 L137.0361,235.6973 C152.0361,235.6973 152.0361,376.6621 167.0361,376.6621 L177.0361,376.6621" fill="none" style="stroke:#FF5F46;stroke-width:3;"/><rect fill="#0078D4" height="36.4883" rx="12.5" ry="12.5" style="stroke:#0078D4;stroke-width:3;" width="213.4229" x="177.0361" y="414.9063"/><text fill="#FFFFFF" font-family="sans-serif" font-size="14" lengthAdjust="spacing" textLength="193.4229" x="187.0361" y="438.4414">Less relevant with serverless</text><text fill="#000000" font-family="sans-serif" font-size="14" lengthAdjust="spacing" textLength="153.8086" x="443.459" y="429.1973">Serverless starts faster</text><path d="M390.459,433.1504 L400.459,433.1504 C415.459,433.1504 415.459,423.9063 430.459,423.9063 L440.459,423.9063" fill="none" style="stroke:#0078D4;stroke-width:3;"/><text fill="#000000" font-family="sans-serif" font-size="14" lengthAdjust="spacing" textLength="161.8613" x="443.459" y="447.6855">No idle capacity needed</text><path d="M390.459,433.1504 L400.459,433.1504 C415.459,433.1504 415.459,442.3945 430.459,442.3945 L440.459,442.3945" fill="none" style="stroke:#0078D4;stroke-width:3;"/><path d="M127.0361,235.6973 L137.0361,235.6973 C152.0361,235.6973 152.0361,433.1504 167.0361,433.1504 L177.0361,433.1504" fill="none" style="stroke:#FF5F46;stroke-width:3;"/><?plantuml-src VLJRRXCn47tVhnY9bpPImpQKSb65gZPQgT2MgWNwY6RjIMF5QmTVSb75An_09_8bZBtRJGaKlwnsPZpdp3aZ7_k0BZJAo0RdnP4FQqtlYhUIvc6wK-x2VG5yJb3CxfoDHfvQRHqygwgNrS5XpfqhGtz7Asj25vtaqzT-cYenC-Gzl1YMnVS7hFqdiShorUlnmJRMLlJFhbiCgdmsMACdiIQJ-arPRcDjHV-BLUR3MBLTwLHp_sJ5qVDExW6S6VR1288hQxKl1WEudM805K1QIl-3h_21QEv1IKtmvSA38vJhDdDDCWho87JqWHnaJ-CSWcgehQYSRO1TZe7BVltu2Jmo5-vtiGHuQir4tKM7GLcJRi65CYsSwjXb8jpj5bsp2GBg9Qxviq2biTRKLLrW45CGreZe79dGqpD4qhS8k0A1SnGghBjRJ2Cure0l-l00MA5oFB2tqR56KldWL1rxecU99CPWWTlpHFq8MPl6BfWahKHouv_pFEYNamatwN7bI5kKCCQ0jMF7FLn7iv6KyxcFrYJ1jHcmfZUehReaT7ijtaO0ZT68QORdUNs0nahINLjSmuJNfFTvnzW0uvFFkst-FRTG4yMODHSw-XOVInjzzl9cpdSs1gL-I-jcvFpZXScZWbTtXXiA9gYxVVfezYGrQ6I-APrQ9DUOOsPyddHaSMYHPbggC0LFZalIkhSDRlh_TXUP0YP-dIQsKxfpFYy4oUAO-1NgNg9YVpWgHuV3qMy0?></g></svg>