<?plantuml 1.2026.2?><svg xmlns="http://www.w3.org/2000/svg" xmlns:xlink="http://www.w3.org/1999/xlink" contentStyleType="text/css" data-diagram-type="MINDMAP" height="396px" preserveAspectRatio="none" style="width:638px;height:396px;background:#FFFFFF;" version="1.1" viewBox="0 0 638 396" width="638px" zoomAndPan="magnify"><defs/><g><rect fill="#FF5F46" height="36.4883" rx="12.5" ry="12.5" style="stroke:#FF5F46;stroke-width:3;" width="108.0879" x="10" y="179.1973"/><text fill="#FFFFFF" font-family="sans-serif" font-size="14" lengthAdjust="spacing" textLength="88.0879" x="20" y="202.7324">Job Compute</text><rect fill="#0078D4" height="36.4883" rx="12.5" ry="12.5" style="stroke:#0078D4;stroke-width:3;" width="74.5029" x="168.0879" y="20"/><text fill="#FFFFFF" font-family="sans-serif" font-size="14" lengthAdjust="spacing" textLength="54.5029" x="178.0879" y="43.5352">Purpose</text><text fill="#000000" font-family="sans-serif" font-size="14" lengthAdjust="spacing" textLength="148.2783" x="295.5908" y="25.0469">Automated workflows</text><path d="M242.5908,38.2441 L252.5908,38.2441 C267.5908,38.2441 267.5908,19.7559 282.5908,19.7559 L292.5908,19.7559" fill="none" style="stroke:#0078D4;stroke-width:3;"/><text fill="#000000" font-family="sans-serif" font-size="14" lengthAdjust="spacing" textLength="101.6436" x="295.5908" y="43.5352">Production ETL</text><path d="M242.5908,38.2441 L252.5908,38.2441 C267.5908,38.2441 267.5908,38.2441 282.5908,38.2441 L292.5908,38.2441" fill="none" style="stroke:#0078D4;stroke-width:3;"/><text fill="#000000" font-family="sans-serif" font-size="14" lengthAdjust="spacing" textLength="191.6797" x="295.5908" y="62.0234">Not interactive development</text><path d="M242.5908,38.2441 L252.5908,38.2441 C267.5908,38.2441 267.5908,56.7324 282.5908,56.7324 L292.5908,56.7324" fill="none" style="stroke:#0078D4;stroke-width:3;"/><path d="M118.0879,197.4414 L128.0879,197.4414 C143.0879,197.4414 143.0879,38.2441 158.0879,38.2441 L168.0879,38.2441" fill="none" style="stroke:#FF5F46;stroke-width:3;"/><rect fill="#0078D4" height="36.4883" rx="12.5" ry="12.5" style="stroke:#0078D4;stroke-width:3;" width="269.0332" x="168.0879" y="76.4883"/><text fill="#FFFFFF" font-family="sans-serif" font-size="14" lengthAdjust="spacing" textLength="249.0332" x="178.0879" y="100.0234">Auto-terminates after job completes</text><path d="M118.0879,197.4414 L128.0879,197.4414 C143.0879,197.4414 143.0879,94.7324 158.0879,94.7324 L168.0879,94.7324" fill="none" style="stroke:#FF5F46;stroke-width:3;"/><rect fill="#0078D4" height="36.4883" rx="12.5" ry="12.5" style="stroke:#0078D4;stroke-width:3;" width="180.4805" x="168.0879" y="132.9766"/><text fill="#FFFFFF" font-family="sans-serif" font-size="14" lengthAdjust="spacing" textLength="160.4805" x="178.0879" y="156.5117">Serverless Job Compute</text><text fill="#000000" font-family="sans-serif" font-size="14" lengthAdjust="spacing" textLength="94.1377" x="401.5684" y="138.0234">Faster startup</text><path d="M348.5684,151.2207 L358.5684,151.2207 C373.5684,151.2207 373.5684,132.7324 388.5684,132.7324 L398.5684,132.7324" fill="none" style="stroke:#0078D4;stroke-width:3;"/><text fill="#000000" font-family="sans-serif" font-size="14" lengthAdjust="spacing" textLength="200.0332" x="401.5684" y="156.5117">Auto-managed infrastructure</text><path d="M348.5684,151.2207 L358.5684,151.2207 C373.5684,151.2207 373.5684,151.2207 388.5684,151.2207 L398.5684,151.2207" fill="none" style="stroke:#0078D4;stroke-width:3;"/><text fill="#000000" font-family="sans-serif" font-size="14" lengthAdjust="spacing" textLength="209.3848" x="401.5684" y="175">Lower cost for most workloads</text><path d="M348.5684,151.2207 L358.5684,151.2207 C373.5684,151.2207 373.5684,169.709 388.5684,169.709 L398.5684,169.709" fill="none" style="stroke:#0078D4;stroke-width:3;"/><path d="M118.0879,197.4414 L128.0879,197.4414 C143.0879,197.4414 143.0879,151.2207 158.0879,151.2207 L168.0879,151.2207" fill="none" style="stroke:#FF5F46;stroke-width:3;"/><rect fill="#0078D4" height="36.4883" rx="12.5" ry="12.5" style="stroke:#0078D4;stroke-width:3;" width="159.4736" x="168.0879" y="189.4648"/><text fill="#FFFFFF" font-family="sans-serif" font-size="14" lengthAdjust="spacing" textLength="139.4736" x="178.0879" y="213">Classic Job Compute</text><text fill="#000000" font-family="sans-serif" font-size="14" lengthAdjust="spacing" textLength="185.2676" x="380.5615" y="203.7559">More configuration options</text><path d="M327.5615,207.709 L337.5615,207.709 C352.5615,207.709 352.5615,198.4648 367.5615,198.4648 L377.5615,198.4648" fill="none" style="stroke:#0078D4;stroke-width:3;"/><text fill="#000000" font-family="sans-serif" font-size="14" lengthAdjust="spacing" textLength="246.1484" x="380.5615" y="222.2441">Supports features serverless doesn't</text><path d="M327.5615,207.709 L337.5615,207.709 C352.5615,207.709 352.5615,216.9531 367.5615,216.9531 L377.5615,216.9531" fill="none" style="stroke:#0078D4;stroke-width:3;"/><path d="M118.0879,197.4414 L128.0879,197.4414 C143.0879,197.4414 143.0879,207.709 158.0879,207.709 L168.0879,207.709" fill="none" style="stroke:#FF5F46;stroke-width:3;"/><rect fill="#0078D4" height="36.4883" rx="12.5" ry="12.5" style="stroke:#0078D4;stroke-width:3;" width="118.2393" x="168.0879" y="263.9297"/><text fill="#FFFFFF" font-family="sans-serif" font-size="14" lengthAdjust="spacing" textLength="98.2393" x="178.0879" y="287.4648">Spot Instances</text><text fill="#000000" font-family="sans-serif" font-size="14" lengthAdjust="spacing" textLength="245.9365" x="339.3271" y="250.4883">Up to 90% cheaper than on-demand</text><path d="M286.3271,282.1738 L296.3271,282.1738 C311.3271,282.1738 311.3271,245.1973 326.3271,245.1973 L336.3271,245.1973" fill="none" style="stroke:#0078D4;stroke-width:3;"/><text fill="#000000" font-family="sans-serif" font-size="14" lengthAdjust="spacing" textLength="230.3779" x="339.3271" y="268.9766">Azure can reclaim with 30s notice</text><path d="M286.3271,282.1738 L296.3271,282.1738 C311.3271,282.1738 311.3271,263.6855 326.3271,263.6855 L336.3271,263.6855" fill="none" style="stroke:#0078D4;stroke-width:3;"/><text fill="#000000" font-family="sans-serif" font-size="14" lengthAdjust="spacing" textLength="262.8486" x="339.3271" y="287.4648">Spark retries failed tasks automatically</text><path d="M286.3271,282.1738 L296.3271,282.1738 C311.3271,282.1738 311.3271,282.1738 326.3271,282.1738 L336.3271,282.1738" fill="none" style="stroke:#0078D4;stroke-width:3;"/><text fill="#000000" font-family="sans-serif" font-size="14" lengthAdjust="spacing" textLength="178.3428" x="339.3271" y="305.9531">Use for worker nodes only</text><path d="M286.3271,282.1738 L296.3271,282.1738 C311.3271,282.1738 311.3271,300.6621 326.3271,300.6621 L336.3271,300.6621" fill="none" style="stroke:#0078D4;stroke-width:3;"/><text fill="#000000" font-family="sans-serif" font-size="14" lengthAdjust="spacing" textLength="237.4326" x="339.3271" y="324.4414">Always on-demand for driver node</text><path d="M286.3271,282.1738 L296.3271,282.1738 C311.3271,282.1738 311.3271,319.1504 326.3271,319.1504 L336.3271,319.1504" fill="none" style="stroke:#0078D4;stroke-width:3;"/><path d="M118.0879,197.4414 L128.0879,197.4414 C143.0879,197.4414 143.0879,282.1738 158.0879,282.1738 L168.0879,282.1738" fill="none" style="stroke:#FF5F46;stroke-width:3;"/><rect fill="#0078D4" height="36.4883" rx="12.5" ry="12.5" style="stroke:#0078D4;stroke-width:3;" width="151.4346" x="168.0879" y="338.3945"/><text fill="#FFFFFF" font-family="sans-serif" font-size="14" lengthAdjust="spacing" textLength="131.4346" x="178.0879" y="361.9297">Job Compute Policy</text><text fill="#000000" font-family="sans-serif" font-size="14" lengthAdjust="spacing" textLength="223.4395" x="372.5225" y="343.4414">Template for production clusters</text><path d="M319.5225,356.6387 L329.5225,356.6387 C344.5225,356.6387 344.5225,338.1504 359.5225,338.1504 L369.5225,338.1504" fill="none" style="stroke:#0078D4;stroke-width:3;"/><text fill="#000000" font-family="sans-serif" font-size="14" lengthAdjust="spacing" textLength="185.4521" x="372.5225" y="361.9297">Enforces latest LTS runtime</text><path d="M319.5225,356.6387 L329.5225,356.6387 C344.5225,356.6387 344.5225,356.6387 359.5225,356.6387 L369.5225,356.6387" fill="none" style="stroke:#0078D4;stroke-width:3;"/><text fill="#000000" font-family="sans-serif" font-size="14" lengthAdjust="spacing" textLength="114.8984" x="372.5225" y="380.418">Sensible defaults</text><path d="M319.5225,356.6387 L329.5225,356.6387 C344.5225,356.6387 344.5225,375.127 359.5225,375.127 L369.5225,375.127" fill="none" style="stroke:#0078D4;stroke-width:3;"/><path d="M118.0879,197.4414 L128.0879,197.4414 C143.0879,197.4414 143.0879,356.6387 158.0879,356.6387 L168.0879,356.6387" fill="none" style="stroke:#FF5F46;stroke-width:3;"/><?plantuml-src VLJlRzCm4FsUl-8aX81ABLat1aCJsYYB12geKijdv3gNrjJnMVxHhapyxvpTbB9EnL-ItBsxz-wTbHiVX0kjCdKhR77jmrRZX-9zZJOiNvQluA40FX-5N2qSHLEFI9E3PrNrfhgupBcnClWqMf49NRJ9vozsjbHoPT1xE1-KnUyzrzb9hh9y--xJnJ7NKVHnroC5LJu7hk59hgQPNvNbCTTHzBzSPJxCDQTxdJ0F9n7NhpkxU_25vZ2YriQ0HQy7a-Wi-VJQ-m6tCL0h0jQm8RTgD6tyBZ5nL4SP51cucurtiMyKG9c0Jd1YZL3Z6ZNP5ar8ZLElFcTvuTpHWsZu0tuoksHsZHnBi2cwDRei_x4oPgY4JpNvtaHxaDXlXH4BLgbCunZZM5fqNT6ODbmZoGTes8CslQHfD8awCuwqy5x9ftHVoI4NcaOjeXDvMBBfqPamZTQI2nuQ58dFWp-8hmczUP4ddrfsvhDXsKPYL_lTGY2uAf-3NAAmh30i1VSt_HfvcheRxbTC4ZZXK6gXMjYei8JpqeEXe6GdT6g5Mp4aECKY6g4qUn64Nx7BkmqgARJUTjGUinF91EOrL7CHcNtwLc_4rX-KP6pjUACxR9he7wjWGbh9hdQ6l4dURgwnXpiYTKoRwsQ_Cvnc9o11UHlZsHHSD46r-tdGU3NNwGer8khWYnlalqJtfoZE1iDoU3aO_W40?></g></svg>