<?plantuml 1.2026.2?><svg xmlns="http://www.w3.org/2000/svg" xmlns:xlink="http://www.w3.org/1999/xlink" contentStyleType="text/css" data-diagram-type="MINDMAP" height="336px" preserveAspectRatio="none" style="width:580px;height:336px;background:#FFFFFF;" version="1.1" viewBox="0 0 580 336" width="580px" zoomAndPan="magnify"><defs/><g><rect fill="#FF5F46" height="36.4883" rx="12.5" ry="12.5" style="stroke:#FF5F46;stroke-width:3;" width="131.5967" x="10" y="148.9063"/><text fill="#FFFFFF" font-family="sans-serif" font-size="14" lengthAdjust="spacing" textLength="111.5967" x="20" y="172.4414">SQL Warehouses</text><rect fill="#0078D4" height="36.4883" rx="12.5" ry="12.5" style="stroke:#0078D4;stroke-width:3;" width="87.9629" x="191.5967" y="37.9766"/><text fill="#FFFFFF" font-family="sans-serif" font-size="14" lengthAdjust="spacing" textLength="67.9629" x="201.5967" y="61.5117">Serverless</text><text fill="#000000" font-family="sans-serif" font-size="14" lengthAdjust="spacing" textLength="138.5781" x="332.5596" y="24.5352">2-6 seconds startup</text><path d="M279.5596,56.2207 L289.5596,56.2207 C304.5596,56.2207 304.5596,19.2441 319.5596,19.2441 L329.5596,19.2441" fill="none" style="stroke:#0078D4;stroke-width:3;"/><text fill="#000000" font-family="sans-serif" font-size="14" lengthAdjust="spacing" textLength="228.4229" x="332.5596" y="43.0234">Intelligent Workload Management</text><path d="M279.5596,56.2207 L289.5596,56.2207 C304.5596,56.2207 304.5596,37.7324 319.5596,37.7324 L329.5596,37.7324" fill="none" style="stroke:#0078D4;stroke-width:3;"/><text fill="#000000" font-family="sans-serif" font-size="14" lengthAdjust="spacing" textLength="110.4893" x="332.5596" y="61.5117">Dynamic scaling</text><path d="M279.5596,56.2207 L289.5596,56.2207 C304.5596,56.2207 304.5596,56.2207 319.5596,56.2207 L329.5596,56.2207" fill="none" style="stroke:#0078D4;stroke-width:3;"/><text fill="#000000" font-family="sans-serif" font-size="14" lengthAdjust="spacing" textLength="152.5029" x="332.5596" y="80">Photon + Predictive IO</text><path d="M279.5596,56.2207 L289.5596,56.2207 C304.5596,56.2207 304.5596,74.709 319.5596,74.709 L329.5596,74.709" fill="none" style="stroke:#0078D4;stroke-width:3;"/><text fill="#000000" font-family="sans-serif" font-size="14" lengthAdjust="spacing" textLength="194.9678" x="332.5596" y="98.4883">Best for most SQL workloads</text><path d="M279.5596,56.2207 L289.5596,56.2207 C304.5596,56.2207 304.5596,93.1973 319.5596,93.1973 L329.5596,93.1973" fill="none" style="stroke:#0078D4;stroke-width:3;"/><path d="M141.5967,167.1504 L151.5967,167.1504 C166.5967,167.1504 166.5967,56.2207 181.5967,56.2207 L191.5967,56.2207" fill="none" style="stroke:#FF5F46;stroke-width:3;"/><rect fill="#0078D4" height="36.4883" rx="12.5" ry="12.5" style="stroke:#0078D4;stroke-width:3;" width="42.0664" x="191.5967" y="121.1738"/><text fill="#FFFFFF" font-family="sans-serif" font-size="14" lengthAdjust="spacing" textLength="22.0664" x="201.5967" y="144.709">Pro</text><text fill="#000000" font-family="sans-serif" font-size="14" lengthAdjust="spacing" textLength="100.9395" x="286.6631" y="116.9766">~4 min startup</text><path d="M233.6631,139.418 L243.6631,139.418 C258.6631,139.418 258.6631,111.6855 273.6631,111.6855 L283.6631,111.6855" fill="none" style="stroke:#0078D4;stroke-width:3;"/><text fill="#000000" font-family="sans-serif" font-size="14" lengthAdjust="spacing" textLength="152.5029" x="286.6631" y="135.4648">Photon + Predictive IO</text><path d="M233.6631,139.418 L243.6631,139.418 C258.6631,139.418 258.6631,130.1738 273.6631,130.1738 L283.6631,130.1738" fill="none" style="stroke:#0078D4;stroke-width:3;"/><text fill="#000000" font-family="sans-serif" font-size="14" lengthAdjust="spacing" textLength="210.2666" x="286.6631" y="153.9531">Custom networking/federation</text><path d="M233.6631,139.418 L243.6631,139.418 C258.6631,139.418 258.6631,148.6621 273.6631,148.6621 L283.6631,148.6621" fill="none" style="stroke:#0078D4;stroke-width:3;"/><text fill="#000000" font-family="sans-serif" font-size="14" lengthAdjust="spacing" textLength="203.3555" x="286.6631" y="172.4414">No Intelligent Workload Mgmt</text><path d="M233.6631,139.418 L243.6631,139.418 C258.6631,139.418 258.6631,167.1504 273.6631,167.1504 L283.6631,167.1504" fill="none" style="stroke:#0078D4;stroke-width:3;"/><path d="M141.5967,167.1504 L151.5967,167.1504 C166.5967,167.1504 166.5967,139.418 181.5967,139.418 L191.5967,139.418" fill="none" style="stroke:#FF5F46;stroke-width:3;"/><rect fill="#0078D4" height="36.4883" rx="12.5" ry="12.5" style="stroke:#0078D4;stroke-width:3;" width="66.9561" x="191.5967" y="195.127"/><text fill="#FFFFFF" font-family="sans-serif" font-size="14" lengthAdjust="spacing" textLength="46.9561" x="201.5967" y="218.6621">Classic</text><text fill="#000000" font-family="sans-serif" font-size="14" lengthAdjust="spacing" textLength="100.9395" x="311.5527" y="190.9297">~4 min startup</text><path d="M258.5527,213.3711 L268.5527,213.3711 C283.5527,213.3711 283.5527,185.6387 298.5527,185.6387 L308.5527,185.6387" fill="none" style="stroke:#0078D4;stroke-width:3;"/><text fill="#000000" font-family="sans-serif" font-size="14" lengthAdjust="spacing" textLength="119.1982" x="311.5527" y="209.418">Basic Photon only</text><path d="M258.5527,213.3711 L268.5527,213.3711 C283.5527,213.3711 283.5527,204.127 298.5527,204.127 L308.5527,204.127" fill="none" style="stroke:#0078D4;stroke-width:3;"/><text fill="#000000" font-family="sans-serif" font-size="14" lengthAdjust="spacing" textLength="194.6123" x="311.5527" y="227.9063">Entry-level SQL performance</text><path d="M258.5527,213.3711 L268.5527,213.3711 C283.5527,213.3711 283.5527,222.6152 298.5527,222.6152 L308.5527,222.6152" fill="none" style="stroke:#0078D4;stroke-width:3;"/><text fill="#000000" font-family="sans-serif" font-size="14" lengthAdjust="spacing" textLength="220.623" x="311.5527" y="246.3945">When serverless/pro unavailable</text><path d="M258.5527,213.3711 L268.5527,213.3711 C283.5527,213.3711 283.5527,241.1035 298.5527,241.1035 L308.5527,241.1035" fill="none" style="stroke:#0078D4;stroke-width:3;"/><path d="M141.5967,167.1504 L151.5967,167.1504 C166.5967,167.1504 166.5967,213.3711 181.5967,213.3711 L191.5967,213.3711" fill="none" style="stroke:#FF5F46;stroke-width:3;"/><rect fill="#0078D4" height="36.4883" rx="12.5" ry="12.5" style="stroke:#0078D4;stroke-width:3;" width="166.4531" x="191.5967" y="269.0801"/><text fill="#FFFFFF" font-family="sans-serif" font-size="14" lengthAdjust="spacing" textLength="146.4531" x="201.5967" y="292.6152">All types optimize for</text><text fill="#000000" font-family="sans-serif" font-size="14" lengthAdjust="spacing" textLength="157.7256" x="411.0498" y="264.8828">SQL execution patterns</text><path d="M358.0498,287.3242 L368.0498,287.3242 C383.0498,287.3242 383.0498,259.5918 398.0498,259.5918 L408.0498,259.5918" fill="none" style="stroke:#0078D4;stroke-width:3;"/><text fill="#000000" font-family="sans-serif" font-size="14" lengthAdjust="spacing" textLength="95.7031" x="411.0498" y="283.3711">BI dashboards</text><path d="M358.0498,287.3242 L368.0498,287.3242 C383.0498,287.3242 383.0498,278.0801 398.0498,278.0801 L408.0498,278.0801" fill="none" style="stroke:#0078D4;stroke-width:3;"/><text fill="#000000" font-family="sans-serif" font-size="14" lengthAdjust="spacing" textLength="57.1416" x="411.0498" y="301.8594">ETL jobs</text><path d="M358.0498,287.3242 L368.0498,287.3242 C383.0498,287.3242 383.0498,296.5684 398.0498,296.5684 L408.0498,296.5684" fill="none" style="stroke:#0078D4;stroke-width:3;"/><text fill="#000000" font-family="sans-serif" font-size="14" lengthAdjust="spacing" textLength="105.6221" x="411.0498" y="320.3477">Ad hoc analysis</text><path d="M358.0498,287.3242 L368.0498,287.3242 C383.0498,287.3242 383.0498,315.0566 398.0498,315.0566 L408.0498,315.0566" fill="none" style="stroke:#0078D4;stroke-width:3;"/><path d="M141.5967,167.1504 L151.5967,167.1504 C166.5967,167.1504 166.5967,287.3242 181.5967,287.3242 L191.5967,287.3242" fill="none" style="stroke:#FF5F46;stroke-width:3;"/><?plantuml-src VLDTJzim57tFhxZINbWdsf1rtPZG12r4gjInJaFg8tBicyIhunlPJaT0ss_7-O29e72Vx7DFpZdNZi-jOyOLKek2bS6PTRN2Ry5NWQNBZyBty120hoNZ-ynGfSMA51bu5yUVulcYxMsanjTeJDhrQDhMC_ScbtolqLhuE0s3lqzU9wDUOVZvo-Lyw3L0NweE4iHj_VUAHhtID3aDmw7N07tJAspBUoLqfnhEmoZZRDOVzmH-_Tp0ZXdCgR9eWub7q1pGD0f-Dxc5w7W15ZbfOQ6ziwhi6cljK2cPeNQm8xDNn0HyPvfbM7Yi8rtMcXMIW-LCIPrru3OdHne-mDQWaDp90yBwHzTRedMG-hW5-KKJxq-ltQRR6kfu_-RWVvwNYTxINLNMKG4QNQFdeynI56YOawGxnZMDZ9GLpJ2mKinQoSVjbyotdqAGLdK7NsbdwcE51rJjF2KQFr_1DCUEiClHApqV-wmq19Lc1oOLIrH3WWkbmDKbMg3IoKBUOtD6tUUD9juXhvfHe6JEeT7zvItN89ZD4s96zD3LpGP-KzBlBWJanC7VcggjjC4v-WVPFyhWP1g5qM8QFG80?></g></svg>