<?plantuml 1.2026.2?><svg xmlns="http://www.w3.org/2000/svg" xmlns:xlink="http://www.w3.org/1999/xlink" contentStyleType="text/css" data-diagram-type="MINDMAP" height="404px" preserveAspectRatio="none" style="width:636px;height:404px;background:#FFFFFF;" version="1.1" viewBox="0 0 636 404" width="636px" zoomAndPan="magnify"><defs/><g><rect fill="#FF5F46" height="36.4883" rx="12.5" ry="12.5" style="stroke:#FF5F46;stroke-width:3;" width="154.2852" x="10" y="183.0518"/><text fill="#FFFFFF" font-family="sans-serif" font-size="14" lengthAdjust="spacing" textLength="134.2852" x="20" y="206.5869">Serverless Compute</text><rect fill="#0078D4" height="36.4883" rx="12.5" ry="12.5" style="stroke:#0078D4;stroke-width:3;" width="82.959" x="214.2852" y="20"/><text fill="#FFFFFF" font-family="sans-serif" font-size="14" lengthAdjust="spacing" textLength="62.959" x="224.2852" y="43.5352">What it is</text><text fill="#000000" font-family="sans-serif" font-size="14" lengthAdjust="spacing" textLength="158.7988" x="350.2441" y="25.0469">Managed by Databricks</text><path d="M297.2441,38.2441 L307.2441,38.2441 C322.2441,38.2441 322.2441,19.7559 337.2441,19.7559 L347.2441,19.7559" fill="none" style="stroke:#0078D4;stroke-width:3;"/><text fill="#000000" font-family="sans-serif" font-size="14" lengthAdjust="spacing" textLength="263.293" x="350.2441" y="43.5352">Runs in Databricks' Azure subscription</text><path d="M297.2441,38.2441 L307.2441,38.2441 C322.2441,38.2441 322.2441,38.2441 337.2441,38.2441 L347.2441,38.2441" fill="none" style="stroke:#0078D4;stroke-width:3;"/><text fill="#000000" font-family="sans-serif" font-size="14" lengthAdjust="spacing" textLength="192.1787" x="350.2441" y="62.0234">No VMs in your subscription</text><path d="M297.2441,38.2441 L307.2441,38.2441 C322.2441,38.2441 322.2441,56.7324 337.2441,56.7324 L347.2441,56.7324" fill="none" style="stroke:#0078D4;stroke-width:3;"/><path d="M164.2852,201.2959 L174.2852,201.2959 C189.2852,201.2959 189.2852,38.2441 204.2852,38.2441 L214.2852,38.2441" fill="none" style="stroke:#FF5F46;stroke-width:3;"/><rect fill="#0078D4" height="36.4883" rx="12.5" ry="12.5" style="stroke:#0078D4;stroke-width:3;" width="68.9727" x="214.2852" y="76.4883"/><text fill="#FFFFFF" font-family="sans-serif" font-size="14" lengthAdjust="spacing" textLength="48.9727" x="224.2852" y="100.0234">Startup</text><text fill="#000000" font-family="sans-serif" font-size="14" lengthAdjust="spacing" textLength="85.5791" x="336.2578" y="90.7793">2-6 seconds</text><path d="M283.2578,94.7324 L293.2578,94.7324 C308.2578,94.7324 308.2578,85.4883 323.2578,85.4883 L333.2578,85.4883" fill="none" style="stroke:#0078D4;stroke-width:3;"/><text fill="#000000" font-family="sans-serif" font-size="14" lengthAdjust="spacing" textLength="147.4648" x="336.2578" y="109.2676">Auto-scales up/down</text><path d="M283.2578,94.7324 L293.2578,94.7324 C308.2578,94.7324 308.2578,103.9766 323.2578,103.9766 L333.2578,103.9766" fill="none" style="stroke:#0078D4;stroke-width:3;"/><path d="M164.2852,201.2959 L174.2852,201.2959 C189.2852,201.2959 189.2852,94.7324 204.2852,94.7324 L214.2852,94.7324" fill="none" style="stroke:#FF5F46;stroke-width:3;"/><rect fill="#0078D4" height="36.4883" rx="12.5" ry="12.5" style="stroke:#0078D4;stroke-width:3;" width="105.0254" x="214.2852" y="132.9766"/><text fill="#FFFFFF" font-family="sans-serif" font-size="14" lengthAdjust="spacing" textLength="85.0254" x="224.2852" y="156.5117">Available for</text><text fill="#000000" font-family="sans-serif" font-size="14" lengthAdjust="spacing" textLength="73.3086" x="372.3105" y="128.7793">Notebooks</text><path d="M319.3105,151.2207 L329.3105,151.2207 C344.3105,151.2207 344.3105,123.4883 359.3105,123.4883 L369.3105,123.4883" fill="none" style="stroke:#0078D4;stroke-width:3;"/><text fill="#000000" font-family="sans-serif" font-size="14" lengthAdjust="spacing" textLength="28.9023" x="372.3105" y="147.2676">Jobs</text><path d="M319.3105,151.2207 L329.3105,151.2207 C344.3105,151.2207 344.3105,141.9766 359.3105,141.9766 L369.3105,141.9766" fill="none" style="stroke:#0078D4;stroke-width:3;"/><text fill="#000000" font-family="sans-serif" font-size="14" lengthAdjust="spacing" textLength="60.1152" x="372.3105" y="165.7559">Pipelines</text><path d="M319.3105,151.2207 L329.3105,151.2207 C344.3105,151.2207 344.3105,160.4648 359.3105,160.4648 L369.3105,160.4648" fill="none" style="stroke:#0078D4;stroke-width:3;"/><text fill="#000000" font-family="sans-serif" font-size="14" lengthAdjust="spacing" textLength="111.5967" x="372.3105" y="184.2441">SQL Warehouses</text><path d="M319.3105,151.2207 L329.3105,151.2207 C344.3105,151.2207 344.3105,178.9531 359.3105,178.9531 L369.3105,178.9531" fill="none" style="stroke:#0078D4;stroke-width:3;"/><path d="M164.2852,201.2959 L174.2852,201.2959 C189.2852,201.2959 189.2852,151.2207 204.2852,151.2207 L214.2852,151.2207" fill="none" style="stroke:#FF5F46;stroke-width:3;"/><rect fill="#0078D4" height="36.4883" rx="12.5" ry="12.5" style="stroke:#0078D4;stroke-width:3;" width="76.3281" x="214.2852" y="206.9297"/><text fill="#FFFFFF" font-family="sans-serif" font-size="14" lengthAdjust="spacing" textLength="56.3281" x="224.2852" y="230.4648">Ideal for</text><text fill="#000000" font-family="sans-serif" font-size="14" lengthAdjust="spacing" textLength="136.2334" x="343.6133" y="202.7324">Exploratory analysis</text><path d="M290.6133,225.1738 L300.6133,225.1738 C315.6133,225.1738 315.6133,197.4414 330.6133,197.4414 L340.6133,197.4414" fill="none" style="stroke:#0078D4;stroke-width:3;"/><text fill="#000000" font-family="sans-serif" font-size="14" lengthAdjust="spacing" textLength="89.5234" x="343.6133" y="221.2207">ETL pipelines</text><path d="M290.6133,225.1738 L300.6133,225.1738 C315.6133,225.1738 315.6133,215.9297 330.6133,215.9297 L340.6133,215.9297" fill="none" style="stroke:#0078D4;stroke-width:3;"/><text fill="#000000" font-family="sans-serif" font-size="14" lengthAdjust="spacing" textLength="86.1396" x="343.6133" y="239.709">BI workloads</text><path d="M290.6133,225.1738 L300.6133,225.1738 C315.6133,225.1738 315.6133,234.418 330.6133,234.418 L340.6133,234.418" fill="none" style="stroke:#0078D4;stroke-width:3;"/><text fill="#000000" font-family="sans-serif" font-size="14" lengthAdjust="spacing" textLength="187.1133" x="343.6133" y="258.1973">Latency-sensitive scenarios</text><path d="M290.6133,225.1738 L300.6133,225.1738 C315.6133,225.1738 315.6133,252.9063 330.6133,252.9063 L340.6133,252.9063" fill="none" style="stroke:#0078D4;stroke-width:3;"/><path d="M164.2852,201.2959 L174.2852,201.2959 C189.2852,201.2959 189.2852,225.1738 204.2852,225.1738 L214.2852,225.1738" fill="none" style="stroke:#FF5F46;stroke-width:3;"/><rect fill="#0078D4" height="36.4883" rx="12.5" ry="12.5" style="stroke:#0078D4;stroke-width:3;" width="154.9619" x="214.2852" y="272.1504"/><text fill="#FFFFFF" font-family="sans-serif" font-size="14" lengthAdjust="spacing" textLength="134.9619" x="224.2852" y="295.6855">Versionless runtime</text><text fill="#000000" font-family="sans-serif" font-size="14" lengthAdjust="spacing" textLength="202.6445" x="422.2471" y="286.4414">Auto-upgraded by Databricks</text><path d="M369.2471,290.3945 L379.2471,290.3945 C394.2471,290.3945 394.2471,281.1504 409.2471,281.1504 L419.2471,281.1504" fill="none" style="stroke:#0078D4;stroke-width:3;"/><text fill="#000000" font-family="sans-serif" font-size="14" lengthAdjust="spacing" textLength="147.9912" x="422.2471" y="304.9297">Always latest features</text><path d="M369.2471,290.3945 L379.2471,290.3945 C394.2471,290.3945 394.2471,299.6387 409.2471,299.6387 L419.2471,299.6387" fill="none" style="stroke:#0078D4;stroke-width:3;"/><path d="M164.2852,201.2959 L174.2852,201.2959 C189.2852,201.2959 189.2852,290.3945 204.2852,290.3945 L214.2852,290.3945" fill="none" style="stroke:#FF5F46;stroke-width:3;"/><rect fill="#0078D4" height="36.4883" rx="12.5" ry="12.5" style="stroke:#0078D4;stroke-width:3;" width="95.3047" x="214.2852" y="337.3711"/><text fill="#FFFFFF" font-family="sans-serif" font-size="14" lengthAdjust="spacing" textLength="75.3047" x="224.2852" y="360.9063">Limitations</text><text fill="#000000" font-family="sans-serif" font-size="14" lengthAdjust="spacing" textLength="86.1943" x="362.5898" y="333.1738">No RDD APIs</text><path d="M309.5898,355.6152 L319.5898,355.6152 C334.5898,355.6152 334.5898,327.8828 349.5898,327.8828 L359.5898,327.8828" fill="none" style="stroke:#0078D4;stroke-width:3;"/><text fill="#000000" font-family="sans-serif" font-size="14" lengthAdjust="spacing" textLength="98.7998" x="362.5898" y="351.6621">No R language</text><path d="M309.5898,355.6152 L319.5898,355.6152 C334.5898,355.6152 334.5898,346.3711 349.5898,346.3711 L359.5898,346.3711" fill="none" style="stroke:#0078D4;stroke-width:3;"/><text fill="#000000" font-family="sans-serif" font-size="14" lengthAdjust="spacing" textLength="198.9941" x="362.5898" y="370.1504">No JAR libraries in notebooks</text><path d="M309.5898,355.6152 L319.5898,355.6152 C334.5898,355.6152 334.5898,364.8594 349.5898,364.8594 L359.5898,364.8594" fill="none" style="stroke:#0078D4;stroke-width:3;"/><text fill="#000000" font-family="sans-serif" font-size="14" lengthAdjust="spacing" textLength="169.6475" x="362.5898" y="388.6387">No custom Spark configs</text><path d="M309.5898,355.6152 L319.5898,355.6152 C334.5898,355.6152 334.5898,383.3477 349.5898,383.3477 L359.5898,383.3477" fill="none" style="stroke:#0078D4;stroke-width:3;"/><path d="M164.2852,201.2959 L174.2852,201.2959 C189.2852,201.2959 189.2852,355.6152 204.2852,355.6152 L214.2852,355.6152" fill="none" style="stroke:#FF5F46;stroke-width:3;"/><?plantuml-src VLDTJzim57tFhxZI7hPLQWaTwpw49WAbKb51G14yJZV9JMiryRNyqPAX_VUv9YrjjkxA3_7nyJt7n_6PiQXj9MHUeOfEZQrB-X5zpqdP-OVu8xn4uEiSiyLCivFv1PUiuTrez7bqCWXh4o7fRtJ4qZPe4MhBVPYBR2796FZKYwFV6wtZWrfn_ENhyAIjrKBtkxOSZ4AzQVKFQXL5-YsEsrejzBzQSIYlbV9pkUQy76IS7ZLnTs1AUaawy2-uKivIrEd0qnmj23-CdtL-mZLAd54EQGr3j9XgxwDPkdVIW90x-7j8VZbDO5ngCYsK5InVkJSCZzU1NRFJRG9Crt-4Kw_SVdS0XZAMUIEKECjTaw7t2auTvRmAcv8bYXBJag1WlP6nb39l75vnsdpT2aMbpx6PJkycy8IQvknCm62S4vPlZIwVbGyEBUiQV09bRJQ1N3vCGErtEn_3YlMYPDmudg0bcTLTGz88AvO-aemaQi51x96qyISFsMidhQXevwHEpJJc_yuyALTO6oXzVsEX8BG-xz1p8YfXSHsesKP-Fnn2SZlU0VnEENF-HhVGLU91aMflZi85oVqCFILpnd85KuLw0VvU2Z4pqHdvzzkyuUYuru_xWrx_3m00?></g></svg>