<?plantuml 1.2026.2?><svg xmlns="http://www.w3.org/2000/svg" xmlns:xlink="http://www.w3.org/1999/xlink" contentStyleType="text/css" data-diagram-type="MINDMAP" height="351px" preserveAspectRatio="none" style="width:756px;height:351px;background:#FFFFFF;" version="1.1" viewBox="0 0 756 351" width="756px" zoomAndPan="magnify"><defs/><g><rect fill="#FF5F46" height="36.4883" rx="12.5" ry="12.5" style="stroke:#FF5F46;stroke-width:3;" width="161.333" x="10" y="156.3428"/><text fill="#FFFFFF" font-family="sans-serif" font-size="14" lengthAdjust="spacing" textLength="141.333" x="20" y="179.8779">Termination Settings</text><rect fill="#0078D4" height="36.4883" rx="12.5" ry="12.5" style="stroke:#0078D4;stroke-width:3;" width="139.1572" x="221.333" y="20"/><text fill="#FFFFFF" font-family="sans-serif" font-size="14" lengthAdjust="spacing" textLength="119.1572" x="231.333" y="43.5352">Auto-termination</text><text fill="#000000" font-family="sans-serif" font-size="14" lengthAdjust="spacing" textLength="229.4551" x="413.4902" y="25.0469">Specify inactivity period (minutes)</text><path d="M360.4902,38.2441 L370.4902,38.2441 C385.4902,38.2441 385.4902,19.7559 400.4902,19.7559 L410.4902,19.7559" fill="none" style="stroke:#0078D4;stroke-width:3;"/><text fill="#000000" font-family="sans-serif" font-size="14" lengthAdjust="spacing" textLength="194.7559" x="413.4902" y="43.5352">Cluster terminates when idle</text><path d="M360.4902,38.2441 L370.4902,38.2441 C385.4902,38.2441 385.4902,38.2441 400.4902,38.2441 L410.4902,38.2441" fill="none" style="stroke:#0078D4;stroke-width:3;"/><text fill="#000000" font-family="sans-serif" font-size="14" lengthAdjust="spacing" textLength="176.4629" x="413.4902" y="62.0234">Config remains for restart</text><path d="M360.4902,38.2441 L370.4902,38.2441 C385.4902,38.2441 385.4902,56.7324 400.4902,56.7324 L410.4902,56.7324" fill="none" style="stroke:#0078D4;stroke-width:3;"/><path d="M171.333,174.5869 L181.333,174.5869 C196.333,174.5869 196.333,38.2441 211.333,38.2441 L221.333,38.2441" fill="none" style="stroke:#FF5F46;stroke-width:3;"/><rect fill="#0078D4" height="36.4883" rx="12.5" ry="12.5" style="stroke:#0078D4;stroke-width:3;" width="164.7715" x="221.333" y="76.4883"/><text fill="#FFFFFF" font-family="sans-serif" font-size="14" lengthAdjust="spacing" textLength="144.7715" x="231.333" y="100.0234">Interactive workloads</text><text fill="#000000" font-family="sans-serif" font-size="14" lengthAdjust="spacing" textLength="157.5068" x="439.1045" y="90.7793">45-min timeout typical</text><path d="M386.1045,94.7324 L396.1045,94.7324 C411.1045,94.7324 411.1045,85.4883 426.1045,85.4883 L436.1045,85.4883" fill="none" style="stroke:#0078D4;stroke-width:3;"/><text fill="#000000" font-family="sans-serif" font-size="14" lengthAdjust="spacing" textLength="194.6533" x="439.1045" y="109.2676">Allows time between queries</text><path d="M386.1045,94.7324 L396.1045,94.7324 C411.1045,94.7324 411.1045,103.9766 426.1045,103.9766 L436.1045,103.9766" fill="none" style="stroke:#0078D4;stroke-width:3;"/><path d="M171.333,174.5869 L181.333,174.5869 C196.333,174.5869 196.333,94.7324 211.333,94.7324 L221.333,94.7324" fill="none" style="stroke:#FF5F46;stroke-width:3;"/><rect fill="#0078D4" height="36.4883" rx="12.5" ry="12.5" style="stroke:#0078D4;stroke-width:3;" width="105.5723" x="221.333" y="132.9766"/><text fill="#FFFFFF" font-family="sans-serif" font-size="14" lengthAdjust="spacing" textLength="85.5723" x="231.333" y="156.5117">Job compute</text><text fill="#000000" font-family="sans-serif" font-size="14" lengthAdjust="spacing" textLength="249.0332" x="379.9053" y="147.2676">Auto-terminates after job completes</text><path d="M326.9053,151.2207 L336.9053,151.2207 C351.9053,151.2207 351.9053,141.9766 366.9053,141.9766 L376.9053,141.9766" fill="none" style="stroke:#0078D4;stroke-width:3;"/><text fill="#000000" font-family="sans-serif" font-size="14" lengthAdjust="spacing" textLength="219.8711" x="379.9053" y="165.7559">Starts automatically for next run</text><path d="M326.9053,151.2207 L336.9053,151.2207 C351.9053,151.2207 351.9053,160.4648 366.9053,160.4648 L376.9053,160.4648" fill="none" style="stroke:#0078D4;stroke-width:3;"/><path d="M171.333,174.5869 L181.333,174.5869 C196.333,174.5869 196.333,151.2207 211.333,151.2207 L221.333,151.2207" fill="none" style="stroke:#FF5F46;stroke-width:3;"/><rect fill="#0078D4" height="36.4883" rx="12.5" ry="12.5" style="stroke:#0078D4;stroke-width:3;" width="118.2529" x="221.333" y="207.9531"/><text fill="#FFFFFF" font-family="sans-serif" font-size="14" lengthAdjust="spacing" textLength="98.2529" x="231.333" y="231.4883">Spot instances</text><rect fill="#FFB900" height="36.4883" rx="12.5" ry="12.5" style="stroke:#FFB900;stroke-width:3;" width="113.4814" x="389.5859" y="179.709"/><text fill="#000000" font-family="sans-serif" font-size="14" lengthAdjust="spacing" textLength="93.4814" x="399.5859" y="203.2441">Worker nodes</text><text fill="#000000" font-family="sans-serif" font-size="14" lengthAdjust="spacing" textLength="167.5283" x="556.0674" y="194">Cost-effective (use spot)</text><path d="M503.0674,197.9531 L513.0674,197.9531 C528.0674,197.9531 528.0674,188.709 543.0674,188.709 L553.0674,188.709" fill="none" style="stroke:#FFB900;stroke-width:3;"/><text fill="#000000" font-family="sans-serif" font-size="14" lengthAdjust="spacing" textLength="150.083" x="556.0674" y="212.4883">Spark handles failures</text><path d="M503.0674,197.9531 L513.0674,197.9531 C528.0674,197.9531 528.0674,207.1973 543.0674,207.1973 L553.0674,207.1973" fill="none" style="stroke:#FFB900;stroke-width:3;"/><path d="M339.5859,226.1973 L349.5859,226.1973 C364.5859,226.1973 364.5859,197.9531 379.5859,197.9531 L389.5859,197.9531" fill="none" style="stroke:#0078D4;stroke-width:3;"/><rect fill="#FFB900" height="36.4883" rx="12.5" ry="12.5" style="stroke:#FFB900;stroke-width:3;" width="99.3652" x="389.5859" y="236.1973"/><text fill="#000000" font-family="sans-serif" font-size="14" lengthAdjust="spacing" textLength="79.3652" x="399.5859" y="259.7324">Driver node</text><text fill="#000000" font-family="sans-serif" font-size="14" lengthAdjust="spacing" textLength="131.4072" x="541.9512" y="250.4883">Always on-demand</text><path d="M488.9512,254.4414 L498.9512,254.4414 C513.9512,254.4414 513.9512,245.1973 528.9512,245.1973 L538.9512,245.1973" fill="none" style="stroke:#FFB900;stroke-width:3;"/><text fill="#000000" font-family="sans-serif" font-size="14" lengthAdjust="spacing" textLength="202.0703" x="541.9512" y="268.9766">Driver failure = cluster failure</text><path d="M488.9512,254.4414 L498.9512,254.4414 C513.9512,254.4414 513.9512,263.6855 528.9512,263.6855 L538.9512,263.6855" fill="none" style="stroke:#FFB900;stroke-width:3;"/><path d="M339.5859,226.1973 L349.5859,226.1973 C364.5859,226.1973 364.5859,254.4414 379.5859,254.4414 L389.5859,254.4414" fill="none" style="stroke:#0078D4;stroke-width:3;"/><path d="M171.333,174.5869 L181.333,174.5869 C196.333,174.5869 196.333,226.1973 211.333,226.1973 L221.333,226.1973" fill="none" style="stroke:#FF5F46;stroke-width:3;"/><rect fill="#0078D4" height="36.4883" rx="12.5" ry="12.5" style="stroke:#0078D4;stroke-width:3;" width="141.3174" x="221.333" y="292.6855"/><text fill="#FFFFFF" font-family="sans-serif" font-size="14" lengthAdjust="spacing" textLength="121.3174" x="231.333" y="316.2207">Decommissioning</text><text fill="#000000" font-family="sans-serif" font-size="14" lengthAdjust="spacing" textLength="224.0273" x="415.6504" y="297.7324">Migrates data before termination</text><path d="M362.6504,310.9297 L372.6504,310.9297 C387.6504,310.9297 387.6504,292.4414 402.6504,292.4414 L412.6504,292.4414" fill="none" style="stroke:#0078D4;stroke-width:3;"/><text fill="#000000" font-family="sans-serif" font-size="14" lengthAdjust="spacing" textLength="143.7324" x="415.6504" y="316.2207">Reduces task failures</text><path d="M362.6504,310.9297 L372.6504,310.9297 C387.6504,310.9297 387.6504,310.9297 402.6504,310.9297 L412.6504,310.9297" fill="none" style="stroke:#0078D4;stroke-width:3;"/><text fill="#000000" font-family="sans-serif" font-size="14" lengthAdjust="spacing" textLength="235.9424" x="415.6504" y="334.709">Recommended with spot instances</text><path d="M362.6504,310.9297 L372.6504,310.9297 C387.6504,310.9297 387.6504,329.418 402.6504,329.418 L412.6504,329.418" fill="none" style="stroke:#0078D4;stroke-width:3;"/><path d="M171.333,174.5869 L181.333,174.5869 C196.333,174.5869 196.333,310.9297 211.333,310.9297 L221.333,310.9297" fill="none" style="stroke:#FF5F46;stroke-width:3;"/><?plantuml-src VLDBRzim3BxxLn3O9GcGpCtIxe5kQDR0m8RjiXJeSL0iEjOiIvv4ppMA_VVHij97Yan7yYE_1-qhJy9HhOoiHPDSUkerVae-I6oedAHJk4-0tsUHLtjdMoElhROENcNPURQw2Brlok3BQcODnMeHtWFsfbHvPT1xUBD8axy7hhEJN6dwzjrcTSnrL7s-zKX15juZr_8aLr7itgVfCTTHzRzSQNZCjRDtUi3SdqHSlevnp-067Tz0aB86jaYapDudinciMx9pUcnoRVOJjWtcgkY1YpcfFufwQD0fAs72m9RGJqVWjMuzJyDX0theIZIWfCQ8iAPGUt1O2sKy52pGOVWc1lelXYS31q9dNQMja7uSN9tFUIMGgj6s1DGtAXTwxAsrjfqFFTWXTSYKlrjMYC7KLxk3tDOD2utufovPeoW6qRyYJ2DX9DqEmhZF-9hpO4BT1yq6xmXSE-J3wLZYQDY4oST1k6NjlD5OEHQ2SKzpB0eStKrQZ-1vSXhxsqQu2afXE2hEHIZTkhXjutXYt1R1Qzs9teCrSyb16XdB4HY7uIFayHwnCgZT87kibVTyNRxwwFExshkGX1GaE4AsYF3YC_Y1icM7GC9NpnGEhM4h6eaIEaLbiFOab2jk7Nxwv6onJ9SNY-K_?></g></svg>