<?plantuml 1.2026.2?><svg xmlns="http://www.w3.org/2000/svg" xmlns:xlink="http://www.w3.org/1999/xlink" contentStyleType="text/css" data-diagram-type="MINDMAP" height="417px" preserveAspectRatio="none" style="width:651px;height:417px;background:#FFFFFF;" version="1.1" viewBox="0 0 651 417" width="651px" zoomAndPan="magnify"><defs/><g><rect fill="#FF5F46" height="36.4883" rx="12.5" ry="12.5" style="stroke:#FF5F46;stroke-width:3;" width="99.7344" x="10" y="189.4648"/><text fill="#FFFFFF" font-family="sans-serif" font-size="14" lengthAdjust="spacing" textLength="79.7344" x="20" y="213">Autoscaling</text><rect fill="#0078D4" height="36.4883" rx="12.5" ry="12.5" style="stroke:#0078D4;stroke-width:3;" width="235.4961" x="159.7344" y="20"/><text fill="#FFFFFF" font-family="sans-serif" font-size="14" lengthAdjust="spacing" textLength="215.4961" x="169.7344" y="43.5352">Set min and max worker counts</text><path d="M109.7344,207.709 L119.7344,207.709 C134.7344,207.709 134.7344,38.2441 149.7344,38.2441 L159.7344,38.2441" fill="none" style="stroke:#FF5F46;stroke-width:3;"/><rect fill="#0078D4" height="36.4883" rx="12.5" ry="12.5" style="stroke:#0078D4;stroke-width:3;" width="198.9854" x="159.7344" y="76.4883"/><text fill="#FFFFFF" font-family="sans-serif" font-size="14" lengthAdjust="spacing" textLength="178.9854" x="169.7344" y="100.0234">Scales up quickly (2 steps)</text><path d="M109.7344,207.709 L119.7344,207.709 C134.7344,207.709 134.7344,94.7324 149.7344,94.7324 L159.7344,94.7324" fill="none" style="stroke:#FF5F46;stroke-width:3;"/><rect fill="#0078D4" height="36.4883" rx="12.5" ry="12.5" style="stroke:#0078D4;stroke-width:3;" width="235.1885" x="159.7344" y="132.9766"/><text fill="#FFFFFF" font-family="sans-serif" font-size="14" lengthAdjust="spacing" textLength="215.1885" x="169.7344" y="156.5117">Scales down even when not idle</text><rect fill="#FFB900" height="36.4883" rx="12.5" ry="12.5" style="stroke:#FFB900;stroke-width:3;" width="194.2207" x="444.9229" y="132.9766"/><text fill="#000000" font-family="sans-serif" font-size="14" lengthAdjust="spacing" textLength="174.2207" x="454.9229" y="156.5117">Monitors shuffle file state</text><path d="M394.9229,151.2207 L404.9229,151.2207 C419.9229,151.2207 419.9229,151.2207 434.9229,151.2207 L444.9229,151.2207" fill="none" style="stroke:#0078D4;stroke-width:3;"/><path d="M109.7344,207.709 L119.7344,207.709 C134.7344,207.709 134.7344,151.2207 149.7344,151.2207 L159.7344,151.2207" fill="none" style="stroke:#FF5F46;stroke-width:3;"/><rect fill="#0078D4" height="36.4883" rx="12.5" ry="12.5" style="stroke:#0078D4;stroke-width:3;" width="151.6943" x="159.7344" y="189.4648"/><text fill="#FFFFFF" font-family="sans-serif" font-size="14" lengthAdjust="spacing" textLength="131.6943" x="169.7344" y="213">Evaluation intervals</text><text fill="#000000" font-family="sans-serif" font-size="14" lengthAdjust="spacing" textLength="212.2285" x="364.4287" y="203.7559">Job compute: every 40 seconds</text><path d="M311.4287,207.709 L321.4287,207.709 C336.4287,207.709 336.4287,198.4648 351.4287,198.4648 L361.4287,198.4648" fill="none" style="stroke:#0078D4;stroke-width:3;"/><text fill="#000000" font-family="sans-serif" font-size="14" lengthAdjust="spacing" textLength="216.9385" x="364.4287" y="222.2441">All-purpose: every 150 seconds</text><path d="M311.4287,207.709 L321.4287,207.709 C336.4287,207.709 336.4287,216.9531 351.4287,216.9531 L361.4287,216.9531" fill="none" style="stroke:#0078D4;stroke-width:3;"/><path d="M109.7344,207.709 L119.7344,207.709 C134.7344,207.709 134.7344,207.709 149.7344,207.709 L159.7344,207.709" fill="none" style="stroke:#FF5F46;stroke-width:3;"/><rect fill="#0078D4" height="36.4883" rx="12.5" ry="12.5" style="stroke:#0078D4;stroke-width:3;" width="203.7568" x="159.7344" y="245.9531"/><text fill="#FFFFFF" font-family="sans-serif" font-size="14" lengthAdjust="spacing" textLength="183.7568" x="169.7344" y="269.4883">Best for variable workloads</text><path d="M109.7344,207.709 L119.7344,207.709 C134.7344,207.709 134.7344,264.1973 149.7344,264.1973 L159.7344,264.1973" fill="none" style="stroke:#FF5F46;stroke-width:3;"/><rect fill="#0078D4" height="36.4883" rx="12.5" ry="12.5" style="stroke:#0078D4;stroke-width:3;" width="184.0898" x="159.7344" y="302.4414"/><text fill="#FFFFFF" font-family="sans-serif" font-size="14" lengthAdjust="spacing" textLength="164.0898" x="169.7344" y="325.9766">Fixed workers better for</text><text fill="#000000" font-family="sans-serif" font-size="14" lengthAdjust="spacing" textLength="197.4355" x="396.8242" y="316.7324">Predictable steady workloads</text><path d="M343.8242,320.6855 L353.8242,320.6855 C368.8242,320.6855 368.8242,311.4414 383.8242,311.4414 L393.8242,311.4414" fill="none" style="stroke:#0078D4;stroke-width:3;"/><text fill="#000000" font-family="sans-serif" font-size="14" lengthAdjust="spacing" textLength="174.5488" x="396.8242" y="335.2207">Simpler capacity planning</text><path d="M343.8242,320.6855 L353.8242,320.6855 C368.8242,320.6855 368.8242,329.9297 383.8242,329.9297 L393.8242,329.9297" fill="none" style="stroke:#0078D4;stroke-width:3;"/><path d="M109.7344,207.709 L119.7344,207.709 C134.7344,207.709 134.7344,320.6855 149.7344,320.6855 L159.7344,320.6855" fill="none" style="stroke:#FF5F46;stroke-width:3;"/><rect fill="#0078D4" height="36.4883" rx="12.5" ry="12.5" style="stroke:#0078D4;stroke-width:3;" width="230.7793" x="159.7344" y="358.9297"/><text fill="#FFFFFF" font-family="sans-serif" font-size="14" lengthAdjust="spacing" textLength="210.7793" x="169.7344" y="382.4648">Works best with instance pools</text><text fill="#000000" font-family="sans-serif" font-size="14" lengthAdjust="spacing" textLength="192.6094" x="443.5137" y="382.4648">Min workers &#8804; pool min idle</text><path d="M390.5137,377.1738 L400.5137,377.1738 C415.5137,377.1738 415.5137,377.1738 430.5137,377.1738 L440.5137,377.1738" fill="none" style="stroke:#0078D4;stroke-width:3;"/><path d="M109.7344,207.709 L119.7344,207.709 C134.7344,207.709 134.7344,377.1738 149.7344,377.1738 L159.7344,377.1738" fill="none" style="stroke:#FF5F46;stroke-width:3;"/><?plantuml-src VLF1RjGm4BtdAqRYqaPYyOPjWQf2RO4S49MGYiGHEV6aiTQnZJtPtQZY0_WFlemlOU9cInkqpC6IPvxdpNksBoB9G9ssgfC-Euyq67oRdIdqr1w9OxZBWEDArklRu7ghtZdZ0ZmhovDoTPfgdxJ5VxEbipHbcnGFs2-jhjSMOuIN2v7zs7Cj3t89yUhr-zMSQvPzsdKsGPdYBrTnaAjfgZT2pBbcsVzoYHJCLRcT6J5t1n7dBoQxSxZioSLQ6crlipo76oJWEm5f5NHo1riNrXYWvaaf9W1ZCKBluNlFmvW1ZWg8X3uUFoehjxM06xImRNcnZa0hWup8uTfPJIv4Y6tVD0QXqRpmQw2n3XysqlIIjBEWBM7WxKYSVuEFhk91EjyJdetDmm0h0H5hPzK4kJJckU-3T_41iZnvZ84hZ0GDkx6HGSkAcKU9nidxSgbtg2RL4Ieadc24txV_753fcj8nrYpLyEGq8svqvyrecFIorZI0DzBQoTolZ1sRyWHRJIthOzMsHl3ExKLUi_bx-jy_VwLIkf7atmNoTvc-JBPS5A8uNHH_0000?></g></svg>