<?plantuml 1.2026.2?><svg xmlns="http://www.w3.org/2000/svg" xmlns:xlink="http://www.w3.org/1999/xlink" contentStyleType="text/css" data-diagram-type="MINDMAP" height="208px" preserveAspectRatio="none" style="width:757px;height:208px;background:#FFFFFF;" version="1.1" viewBox="0 0 757 208" width="757px" zoomAndPan="magnify"><defs/><g><rect fill="#FF5F46" height="36.4883" rx="12.5" ry="12.5" style="stroke:#FF5F46;stroke-width:3;" width="238.8457" x="10" y="85.2207"/><text fill="#FFFFFF" font-family="sans-serif" font-size="14" lengthAdjust="spacing" textLength="218.8457" x="20" y="108.7559">Compute Resource Components</text><rect fill="#0078D4" height="36.4883" rx="12.5" ry="12.5" style="stroke:#0078D4;stroke-width:3;" width="159.3711" x="298.8457" y="20"/><text fill="#FFFFFF" font-family="sans-serif" font-size="14" lengthAdjust="spacing" textLength="139.3711" x="308.8457" y="43.5352">Total executor cores</text><text fill="#000000" font-family="sans-serif" font-size="14" lengthAdjust="spacing" textLength="107.0029" x="511.2168" y="34.291">Max parallelism</text><path d="M458.2168,38.2441 L468.2168,38.2441 C483.2168,38.2441 483.2168,29 498.2168,29 L508.2168,29" fill="none" style="stroke:#0078D4;stroke-width:3;"/><text fill="#000000" font-family="sans-serif" font-size="14" lengthAdjust="spacing" textLength="224.4648" x="511.2168" y="52.7793">More cores = more parallel tasks</text><path d="M458.2168,38.2441 L468.2168,38.2441 C483.2168,38.2441 483.2168,47.4883 498.2168,47.4883 L508.2168,47.4883" fill="none" style="stroke:#0078D4;stroke-width:3;"/><path d="M248.8457,103.4648 L258.8457,103.4648 C273.8457,103.4648 273.8457,38.2441 288.8457,38.2441 L298.8457,38.2441" fill="none" style="stroke:#FF5F46;stroke-width:3;"/><rect fill="#0078D4" height="36.4883" rx="12.5" ry="12.5" style="stroke:#0078D4;stroke-width:3;" width="178.5186" x="298.8457" y="85.2207"/><text fill="#FFFFFF" font-family="sans-serif" font-size="14" lengthAdjust="spacing" textLength="158.5186" x="308.8457" y="108.7559">Total executor memory</text><rect fill="#FFB900" height="36.4883" rx="12.5" ry="12.5" style="stroke:#FFB900;stroke-width:3;" width="186.5029" x="527.3643" y="66.7324"/><text fill="#000000" font-family="sans-serif" font-size="14" lengthAdjust="spacing" textLength="166.5029" x="537.3643" y="90.2676">For joins &amp; aggregations</text><path d="M477.3643,103.4648 L487.3643,103.4648 C502.3643,103.4648 502.3643,84.9766 517.3643,84.9766 L527.3643,84.9766" fill="none" style="stroke:#0078D4;stroke-width:3;"/><text fill="#000000" font-family="sans-serif" font-size="14" lengthAdjust="spacing" textLength="188.6855" x="530.3643" y="127.7559">Low memory &#8594; spill to disk</text><path d="M477.3643,103.4648 L487.3643,103.4648 C502.3643,103.4648 502.3643,122.4648 517.3643,122.4648 L527.3643,122.4648" fill="none" style="stroke:#0078D4;stroke-width:3;"/><text fill="#000000" font-family="sans-serif" font-size="14" lengthAdjust="spacing" textLength="215.2773" x="530.3643" y="146.2441">Slows performance significantly</text><path d="M477.3643,103.4648 L487.3643,103.4648 C502.3643,103.4648 502.3643,140.9531 517.3643,140.9531 L527.3643,140.9531" fill="none" style="stroke:#0078D4;stroke-width:3;"/><path d="M248.8457,103.4648 L258.8457,103.4648 C273.8457,103.4648 273.8457,103.4648 288.8457,103.4648 L298.8457,103.4648" fill="none" style="stroke:#FF5F46;stroke-width:3;"/><rect fill="#0078D4" height="36.4883" rx="12.5" ry="12.5" style="stroke:#0078D4;stroke-width:3;" width="110.4053" x="298.8457" y="150.4414"/><text fill="#FFFFFF" font-family="sans-serif" font-size="14" lengthAdjust="spacing" textLength="90.4053" x="308.8457" y="173.9766">Local storage</text><text fill="#000000" font-family="sans-serif" font-size="14" lengthAdjust="spacing" textLength="224.9844" x="462.251" y="164.7324">Temporary shuffle &amp; cache space</text><path d="M409.251,168.6855 L419.251,168.6855 C434.251,168.6855 434.251,159.4414 449.251,159.4414 L459.251,159.4414" fill="none" style="stroke:#0078D4;stroke-width:3;"/><text fill="#000000" font-family="sans-serif" font-size="14" lengthAdjust="spacing" textLength="236.0176" x="462.251" y="183.2207">Fast local storage = faster shuffles</text><path d="M409.251,168.6855 L419.251,168.6855 C434.251,168.6855 434.251,177.9297 449.251,177.9297 L459.251,177.9297" fill="none" style="stroke:#0078D4;stroke-width:3;"/><path d="M248.8457,103.4648 L258.8457,103.4648 C273.8457,103.4648 273.8457,168.6855 288.8457,168.6855 L298.8457,168.6855" fill="none" style="stroke:#FF5F46;stroke-width:3;"/><?plantuml-src VP9DJiCm48NtESL8I0YwA6afvKS5LHHbLJRGFHhSIMhgs9774KM8BGVWY9o4IPho4oYpo_Dxx_D47dD07t9jvpaMqOZ3aw6Bw6nEHLZinVlm787C9QfbvbrfvnDdd8UT93bA1iFwRAej_LOJPqEZflLyUcSBhPQMcE6m6qSl6rPlAokEZq-k1crMI_tPshf1KiyNgx-LbQRtft7SPhNKVrbnFSAwTojJUPwtEaO7pU_kmCJbHHa8ReXTwHNLWhDa0qUT3inSG0Eq8bK6gL3EKwLtxk0QLr2WHsF8QCuRKSxN9ZY7lFhOM20WB_-gp4byJrLShkhXmMdBi0kOPPuo3DhP1ZXrZuqPtb_VW0jjfDN1NFDoxRWrxf6X89ywdwELPLXdLgTQeGscOaY94ZWB63DQfsOa2tkKMbwKQMf8w0hLGj85giQK80SmtyEoO2eY-KsCep79OsuUTDJhzkF-iDl_0000?></g></svg>