<?plantuml 1.2026.2?><svg xmlns="http://www.w3.org/2000/svg" xmlns:xlink="http://www.w3.org/1999/xlink" contentStyleType="text/css" data-diagram-type="MINDMAP" height="369px" preserveAspectRatio="none" style="width:972px;height:369px;background:#FFFFFF;" version="1.1" viewBox="0 0 972 369" width="972px" zoomAndPan="magnify"><defs/><g><rect fill="#FF5F46" height="36.4883" rx="12.5" ry="12.5" style="stroke:#FF5F46;stroke-width:3;" width="198.6846" x="10" y="165.5869"/><text fill="#FFFFFF" font-family="sans-serif" font-size="14" lengthAdjust="spacing" textLength="178.6846" x="20" y="189.1221">Node Types &amp; Cluster Size</text><rect fill="#0078D4" height="36.4883" rx="12.5" ry="12.5" style="stroke:#0078D4;stroke-width:3;" width="136.2998" x="258.6846" y="109.0986"/><text fill="#FFFFFF" font-family="sans-serif" font-size="14" lengthAdjust="spacing" textLength="116.2998" x="268.6846" y="132.6338">Instance Families</text><rect fill="#FFB900" height="36.4883" rx="12.5" ry="12.5" style="stroke:#FFB900;stroke-width:3;" width="219.9922" x="444.9844" y="20"/><text fill="#000000" font-family="sans-serif" font-size="14" lengthAdjust="spacing" textLength="199.9922" x="454.9844" y="43.5352">Memory-optimized (E-series)</text><text fill="#000000" font-family="sans-serif" font-size="14" lengthAdjust="spacing" textLength="182.123" x="717.9766" y="34.291">Large joins &amp; aggregations</text><path d="M664.9766,38.2441 L674.9766,38.2441 C689.9766,38.2441 689.9766,29 704.9766,29 L714.9766,29" fill="none" style="stroke:#FFB900;stroke-width:3;"/><text fill="#000000" font-family="sans-serif" font-size="14" lengthAdjust="spacing" textLength="186.874" x="717.9766" y="52.7793">High memory-to-core ratio</text><path d="M664.9766,38.2441 L674.9766,38.2441 C689.9766,38.2441 689.9766,47.4883 704.9766,47.4883 L714.9766,47.4883" fill="none" style="stroke:#FFB900;stroke-width:3;"/><path d="M394.9844,127.3428 L404.9844,127.3428 C419.9844,127.3428 419.9844,38.2441 434.9844,38.2441 L444.9844,38.2441" fill="none" style="stroke:#0078D4;stroke-width:3;"/><rect fill="#FFB900" height="36.4883" rx="12.5" ry="12.5" style="stroke:#FFB900;stroke-width:3;" width="227.2314" x="444.9844" y="76.4883"/><text fill="#000000" font-family="sans-serif" font-size="14" lengthAdjust="spacing" textLength="207.2314" x="454.9844" y="100.0234">Compute-optimized (F-series)</text><text fill="#000000" font-family="sans-serif" font-size="14" lengthAdjust="spacing" textLength="176.8799" x="725.2158" y="90.7793">Complex CPU calculations</text><path d="M672.2158,94.7324 L682.2158,94.7324 C697.2158,94.7324 697.2158,85.4883 712.2158,85.4883 L722.2158,85.4883" fill="none" style="stroke:#FFB900;stroke-width:3;"/><text fill="#000000" font-family="sans-serif" font-size="14" lengthAdjust="spacing" textLength="145.0586" x="725.2158" y="109.2676">Lower memory needs</text><path d="M672.2158,94.7324 L682.2158,94.7324 C697.2158,94.7324 697.2158,103.9766 712.2158,103.9766 L722.2158,103.9766" fill="none" style="stroke:#FFB900;stroke-width:3;"/><path d="M394.9844,127.3428 L404.9844,127.3428 C419.9844,127.3428 419.9844,94.7324 434.9844,94.7324 L444.9844,94.7324" fill="none" style="stroke:#0078D4;stroke-width:3;"/><rect fill="#FFB900" height="36.4883" rx="12.5" ry="12.5" style="stroke:#FFB900;stroke-width:3;" width="216.6631" x="444.9844" y="132.9766"/><text fill="#000000" font-family="sans-serif" font-size="14" lengthAdjust="spacing" textLength="196.6631" x="454.9844" y="156.5117">Storage-optimized (L-series)</text><text fill="#000000" font-family="sans-serif" font-size="14" lengthAdjust="spacing" textLength="128.7959" x="714.6475" y="147.2676">Caching workloads</text><path d="M661.6475,151.2207 L671.6475,151.2207 C686.6475,151.2207 686.6475,141.9766 701.6475,141.9766 L711.6475,141.9766" fill="none" style="stroke:#FFB900;stroke-width:3;"/><text fill="#000000" font-family="sans-serif" font-size="14" lengthAdjust="spacing" textLength="140.0273" x="714.6475" y="165.7559">Fast NVMe local disk</text><path d="M661.6475,151.2207 L671.6475,151.2207 C686.6475,151.2207 686.6475,160.4648 701.6475,160.4648 L711.6475,160.4648" fill="none" style="stroke:#FFB900;stroke-width:3;"/><path d="M394.9844,127.3428 L404.9844,127.3428 C419.9844,127.3428 419.9844,151.2207 434.9844,151.2207 L444.9844,151.2207" fill="none" style="stroke:#0078D4;stroke-width:3;"/><rect fill="#FFB900" height="36.4883" rx="12.5" ry="12.5" style="stroke:#FFB900;stroke-width:3;" width="242.168" x="444.9844" y="189.4648"/><text fill="#000000" font-family="sans-serif" font-size="14" lengthAdjust="spacing" textLength="222.168" x="454.9844" y="213">GPU-accelerated (NC/ND-series)</text><text fill="#000000" font-family="sans-serif" font-size="14" lengthAdjust="spacing" textLength="128.8369" x="740.1523" y="185.2676">ML / deep learning</text><path d="M687.1523,207.709 L697.1523,207.709 C712.1523,207.709 712.1523,179.9766 727.1523,179.9766 L737.1523,179.9766" fill="none" style="stroke:#FFB900;stroke-width:3;"/><text fill="#000000" font-family="sans-serif" font-size="14" lengthAdjust="spacing" textLength="170.4883" x="740.1523" y="203.7559">10-100x faster than CPU</text><path d="M687.1523,207.709 L697.1523,207.709 C712.1523,207.709 712.1523,198.4648 727.1523,198.4648 L737.1523,198.4648" fill="none" style="stroke:#FFB900;stroke-width:3;"/><text fill="#000000" font-family="sans-serif" font-size="14" lengthAdjust="spacing" textLength="220.3223" x="740.1523" y="222.2441">Requires Databricks Runtime ML</text><path d="M687.1523,207.709 L697.1523,207.709 C712.1523,207.709 712.1523,216.9531 727.1523,216.9531 L737.1523,216.9531" fill="none" style="stroke:#FFB900;stroke-width:3;"/><text fill="#000000" font-family="sans-serif" font-size="14" lengthAdjust="spacing" textLength="168.7793" x="740.1523" y="240.7324">Photon must be disabled</text><path d="M687.1523,207.709 L697.1523,207.709 C712.1523,207.709 712.1523,235.4414 727.1523,235.4414 L737.1523,235.4414" fill="none" style="stroke:#FFB900;stroke-width:3;"/><path d="M394.9844,127.3428 L404.9844,127.3428 C419.9844,127.3428 419.9844,207.709 434.9844,207.709 L444.9844,207.709" fill="none" style="stroke:#0078D4;stroke-width:3;"/><path d="M208.6846,183.8311 L218.6846,183.8311 C233.6846,183.8311 233.6846,127.3428 248.6846,127.3428 L258.6846,127.3428" fill="none" style="stroke:#FF5F46;stroke-width:3;"/><rect fill="#0078D4" height="36.4883" rx="12.5" ry="12.5" style="stroke:#0078D4;stroke-width:3;" width="180.5967" x="258.6846" y="282.9297"/><text fill="#FFFFFF" font-family="sans-serif" font-size="14" lengthAdjust="spacing" textLength="160.5967" x="268.6846" y="306.4648">Worker config tradeoffs</text><rect fill="#FFB900" height="36.4883" rx="12.5" ry="12.5" style="stroke:#FFB900;stroke-width:3;" width="166.6377" x="489.2813" y="254.6855"/><text fill="#000000" font-family="sans-serif" font-size="14" lengthAdjust="spacing" textLength="146.6377" x="499.2813" y="278.2207">Fewer, larger workers</text><text fill="#000000" font-family="sans-serif" font-size="14" lengthAdjust="spacing" textLength="184.7139" x="708.9189" y="268.9766">Less network shuffle traffic</text><path d="M655.9189,272.9297 L665.9189,272.9297 C680.9189,272.9297 680.9189,263.6855 695.9189,263.6855 L705.9189,263.6855" fill="none" style="stroke:#FFB900;stroke-width:3;"/><text fill="#000000" font-family="sans-serif" font-size="14" lengthAdjust="spacing" textLength="202.2617" x="708.9189" y="287.4648">Good for analytical workloads</text><path d="M655.9189,272.9297 L665.9189,272.9297 C680.9189,272.9297 680.9189,282.1738 695.9189,282.1738 L705.9189,282.1738" fill="none" style="stroke:#FFB900;stroke-width:3;"/><path d="M439.2813,301.1738 L449.2813,301.1738 C464.2813,301.1738 464.2813,272.9297 479.2813,272.9297 L489.2813,272.9297" fill="none" style="stroke:#0078D4;stroke-width:3;"/><rect fill="#FFB900" height="36.4883" rx="12.5" ry="12.5" style="stroke:#FFB900;stroke-width:3;" width="170.999" x="489.2813" y="311.1738"/><text fill="#000000" font-family="sans-serif" font-size="14" lengthAdjust="spacing" textLength="150.999" x="499.2813" y="334.709">More, smaller workers</text><text fill="#000000" font-family="sans-serif" font-size="14" lengthAdjust="spacing" textLength="123.9082" x="713.2803" y="325.4648">Higher parallelism</text><path d="M660.2803,329.418 L670.2803,329.418 C685.2803,329.418 685.2803,320.1738 700.2803,320.1738 L710.2803,320.1738" fill="none" style="stroke:#FFB900;stroke-width:3;"/><text fill="#000000" font-family="sans-serif" font-size="14" lengthAdjust="spacing" textLength="180.3799" x="713.2803" y="343.9531">Good for batch processing</text><path d="M660.2803,329.418 L670.2803,329.418 C685.2803,329.418 685.2803,338.6621 700.2803,338.6621 L710.2803,338.6621" fill="none" style="stroke:#FFB900;stroke-width:3;"/><path d="M439.2813,301.1738 L449.2813,301.1738 C464.2813,301.1738 464.2813,329.418 479.2813,329.418 L489.2813,329.418" fill="none" style="stroke:#0078D4;stroke-width:3;"/><path d="M208.6846,183.8311 L218.6846,183.8311 C233.6846,183.8311 233.6846,301.1738 248.6846,301.1738 L258.6846,301.1738" fill="none" style="stroke:#FF5F46;stroke-width:3;"/><?plantuml-src VLHTRzD047pthrW92RLHqpYXb0zLg2B11Ic9edx08rgVr_QHywsvEwi95V-TEySjn5NOnztnpExCoPVMeN6Lr5c5TNHXtLRHX-XzHhKhZ-9ZU8Z0rqSKwy9mexCfApRm8abU9sVdxMmkDJtl9gnTrytRUiBUbbAiDLaBhqxZwFUZrlYWLXo_UJixwslrklkilGsIjlvgJGvgvNdwBexxMhtkVxNYjhnMoXiLC0y74HUZpku1B3aZkDtMPE4bJ5LZ7HcuaRye6WpWY_OXQK6GO2ML9EkR0rXGnMOxvDh9oWCpEFeqj6Jy-3ZC1zzXZgOW-C5I1rOi2aC5EidQTe3FiYYXsl4u7Wes12OWMe4fLtNZw5-5fASG88esC5tTWK0b6hN7F-TxVyPE03HHjjlynh71OezutYT6KKfTm3sRjMBC7XaJj0wMNnS4YhqWPDAkMywhrTqGXI15_e30k9oEbhCUws8E8yY8Qb24Hdk1RZ2EX-Cuta2EhV6kH1rkwgRNzBEHnaSpGuUfyU5Rk6wqNvuyPGTQbUnOG-MZWvJ2OfWgoa9-t_mHdbMmpcK1pc16dESxBnBo5fs02b6PzbmoJ_Q5vwF9XIxOiibpHU7pF9UYWrmnPv3xLuKQrTR9uCcUPx3mePw0hL2fPm8XVz-iqOIfahRgqwReH0crOU5t2NvTalzJT7-BQ7mwYIVdfvC_?></g></svg>