<?plantuml 1.2026.2?><svg xmlns="http://www.w3.org/2000/svg" xmlns:xlink="http://www.w3.org/1999/xlink" contentStyleType="text/css" data-diagram-type="MINDMAP" height="304px" preserveAspectRatio="none" style="width:948px;height:304px;background:#FFFFFF;" version="1.1" viewBox="0 0 948 304" width="948px" zoomAndPan="magnify"><defs/><g><rect fill="#FF5F46" height="36.4883" rx="12.5" ry="12.5" style="stroke:#FF5F46;stroke-width:3;" width="265.2734" x="10" y="132.9766"/><text fill="#FFFFFF" font-family="sans-serif" font-size="14" lengthAdjust="spacing" textLength="245.2734" x="20" y="156.5117">Databricks Runtime &amp; Spark Version</text><rect fill="#0078D4" height="36.4883" rx="12.5" ry="12.5" style="stroke:#0078D4;stroke-width:3;" width="137.2021" x="325.2734" y="20"/><text fill="#FFFFFF" font-family="sans-serif" font-size="14" lengthAdjust="spacing" textLength="117.2021" x="335.2734" y="43.5352">Runtime includes</text><text fill="#000000" font-family="sans-serif" font-size="14" lengthAdjust="spacing" textLength="92.2852" x="515.4756" y="25.0469">Apache Spark</text><path d="M462.4756,38.2441 L472.4756,38.2441 C487.4756,38.2441 487.4756,19.7559 502.4756,19.7559 L512.4756,19.7559" fill="none" style="stroke:#0078D4;stroke-width:3;"/><text fill="#000000" font-family="sans-serif" font-size="14" lengthAdjust="spacing" textLength="169.9688" x="515.4756" y="43.5352">Databricks optimizations</text><path d="M462.4756,38.2441 L472.4756,38.2441 C487.4756,38.2441 487.4756,38.2441 502.4756,38.2441 L512.4756,38.2441" fill="none" style="stroke:#0078D4;stroke-width:3;"/><text fill="#000000" font-family="sans-serif" font-size="14" lengthAdjust="spacing" textLength="134.791" x="515.4756" y="62.0234">Preloaded packages</text><path d="M462.4756,38.2441 L472.4756,38.2441 C487.4756,38.2441 487.4756,56.7324 502.4756,56.7324 L512.4756,56.7324" fill="none" style="stroke:#0078D4;stroke-width:3;"/><path d="M275.2734,151.2207 L285.2734,151.2207 C300.2734,151.2207 300.2734,38.2441 315.2734,38.2441 L325.2734,38.2441" fill="none" style="stroke:#FF5F46;stroke-width:3;"/><rect fill="#0078D4" height="36.4883" rx="12.5" ry="12.5" style="stroke:#0078D4;stroke-width:3;" width="217.9482" x="325.2734" y="76.4883"/><text fill="#FFFFFF" font-family="sans-serif" font-size="14" lengthAdjust="spacing" textLength="197.9482" x="335.2734" y="100.0234">Spark version tied to runtime</text><text fill="#000000" font-family="sans-serif" font-size="14" lengthAdjust="spacing" textLength="299.6123" x="596.2217" y="100.0234">Choosing runtime = choosing Spark version</text><path d="M543.2217,94.7324 L553.2217,94.7324 C568.2217,94.7324 568.2217,94.7324 583.2217,94.7324 L593.2217,94.7324" fill="none" style="stroke:#0078D4;stroke-width:3;"/><path d="M275.2734,151.2207 L285.2734,151.2207 C300.2734,151.2207 300.2734,94.7324 315.2734,94.7324 L325.2734,94.7324" fill="none" style="stroke:#FF5F46;stroke-width:3;"/><rect fill="#0078D4" height="36.4883" rx="12.5" ry="12.5" style="stroke:#0078D4;stroke-width:3;" width="165.2363" x="325.2734" y="132.9766"/><text fill="#FFFFFF" font-family="sans-serif" font-size="14" lengthAdjust="spacing" textLength="145.2363" x="335.2734" y="156.5117">All-purpose compute</text><text fill="#000000" font-family="sans-serif" font-size="14" lengthAdjust="spacing" textLength="213.6025" x="543.5098" y="147.2676">Latest runtime for new features</text><path d="M490.5098,151.2207 L500.5098,151.2207 C515.5098,151.2207 515.5098,141.9766 530.5098,141.9766 L540.5098,141.9766" fill="none" style="stroke:#0078D4;stroke-width:3;"/><text fill="#000000" font-family="sans-serif" font-size="14" lengthAdjust="spacing" textLength="132.4531" x="543.5098" y="165.7559">Better compatibility</text><path d="M490.5098,151.2207 L500.5098,151.2207 C515.5098,151.2207 515.5098,160.4648 530.5098,160.4648 L540.5098,160.4648" fill="none" style="stroke:#0078D4;stroke-width:3;"/><path d="M275.2734,151.2207 L285.2734,151.2207 C300.2734,151.2207 300.2734,151.2207 315.2734,151.2207 L325.2734,151.2207" fill="none" style="stroke:#FF5F46;stroke-width:3;"/><rect fill="#0078D4" height="36.4883" rx="12.5" ry="12.5" style="stroke:#0078D4;stroke-width:3;" width="105.5723" x="325.2734" y="189.4648"/><text fill="#FFFFFF" font-family="sans-serif" font-size="14" lengthAdjust="spacing" textLength="85.5723" x="335.2734" y="213">Job compute</text><rect fill="#FFB900" height="36.4883" rx="12.5" ry="12.5" style="stroke:#FFB900;stroke-width:3;" width="172.4551" x="480.8457" y="189.4648"/><text fill="#000000" font-family="sans-serif" font-size="14" lengthAdjust="spacing" textLength="152.4551" x="490.8457" y="213">LTS versions preferred</text><text fill="#000000" font-family="sans-serif" font-size="14" lengthAdjust="spacing" textLength="155.9209" x="706.3008" y="194.5117">Extended compatibility</text><path d="M653.3008,207.709 L663.3008,207.709 C678.3008,207.709 678.3008,189.2207 693.3008,189.2207 L703.3008,189.2207" fill="none" style="stroke:#FFB900;stroke-width:3;"/><text fill="#000000" font-family="sans-serif" font-size="14" lengthAdjust="spacing" textLength="230.4873" x="706.3008" y="213">Test thoroughly before upgrading</text><path d="M653.3008,207.709 L663.3008,207.709 C678.3008,207.709 678.3008,207.709 693.3008,207.709 L703.3008,207.709" fill="none" style="stroke:#FFB900;stroke-width:3;"/><text fill="#000000" font-family="sans-serif" font-size="14" lengthAdjust="spacing" textLength="228.6758" x="706.3008" y="231.4883">Prevents disruption to production</text><path d="M653.3008,207.709 L663.3008,207.709 C678.3008,207.709 678.3008,226.1973 693.3008,226.1973 L703.3008,226.1973" fill="none" style="stroke:#FFB900;stroke-width:3;"/><path d="M430.8457,207.709 L440.8457,207.709 C455.8457,207.709 455.8457,207.709 470.8457,207.709 L480.8457,207.709" fill="none" style="stroke:#0078D4;stroke-width:3;"/><path d="M275.2734,151.2207 L285.2734,151.2207 C300.2734,151.2207 300.2734,207.709 315.2734,207.709 L325.2734,207.709" fill="none" style="stroke:#FF5F46;stroke-width:3;"/><rect fill="#0078D4" height="36.4883" rx="12.5" ry="12.5" style="stroke:#0078D4;stroke-width:3;" width="90.9775" x="325.2734" y="245.9531"/><text fill="#FFFFFF" font-family="sans-serif" font-size="14" lengthAdjust="spacing" textLength="70.9775" x="335.2734" y="269.4883">Upgrading</text><text fill="#000000" font-family="sans-serif" font-size="14" lengthAdjust="spacing" textLength="200.7783" x="469.251" y="260.2441">Test on dev environment first</text><path d="M416.251,264.1973 L426.251,264.1973 C441.251,264.1973 441.251,254.9531 456.251,254.9531 L466.251,254.9531" fill="none" style="stroke:#0078D4;stroke-width:3;"/><text fill="#000000" font-family="sans-serif" font-size="14" lengthAdjust="spacing" textLength="236.0586" x="469.251" y="278.7324">Then apply to production compute</text><path d="M416.251,264.1973 L426.251,264.1973 C441.251,264.1973 441.251,273.4414 456.251,273.4414 L466.251,273.4414" fill="none" style="stroke:#0078D4;stroke-width:3;"/><path d="M275.2734,151.2207 L285.2734,151.2207 C300.2734,151.2207 300.2734,264.1973 315.2734,264.1973 L325.2734,264.1973" fill="none" style="stroke:#FF5F46;stroke-width:3;"/><?plantuml-src VPDFRzD04CNl_XGZ8LKGYU26KcXLKF_X0ye1qS2rMdl7zYhsxcftDZHKV7V6zZeaHc6FRzxytinOllOa7BLAorROvChJji5FoQL4I_NBz1Ky9y3lLXJhofcWvPrfZ8CNMVOkEpllQqkbyLyrCvgYMlPlvrtLgbXhz1xUpjFazvXrUZGhJTz_k3-RPatKG-faWgn_VxCMHxFAChz8qsdMHFrlLje_pihDKzDvdeywhjx4Sy_WNf387MCzV0kQL8jm0WzMk3NyGEULqSbijYifNJH1ecTjzWWtLXGr3kv1sQCPontgbo16HFzNXuqH4YLmurfKFIU6ROOm8CLbCk26nA7nhZR6ArsDAdo4OfGEsZlUJTEyji5Pun4Aqzf0aR8KX9vsZ99Fel4db2Wek76dMoH2rpVowBbg56qxwXUJxzDWkNeOGprOXoKwXx8hCUJp4w7kzfnYkkAg6u9gmr-_gfijvCYJ80HREI5vesZZOsrGamUfl0kM-kCOZZ8o51Ht_RxV5D7iaxW1r1lbZ6wP0QLodgAbHWt2MWu-eEsMk-R9nxyoEPqlqiNvVF47?></g></svg>