<?plantuml 1.2026.2?><svg xmlns="http://www.w3.org/2000/svg" xmlns:xlink="http://www.w3.org/1999/xlink" contentStyleType="text/css" data-diagram-type="MINDMAP" height="265px" preserveAspectRatio="none" style="width:923px;height:265px;background:#FFFFFF;" version="1.1" viewBox="0 0 923 265" width="923px" zoomAndPan="magnify"><defs/><g><rect fill="#FF5F46" height="36.4883" rx="12.5" ry="12.5" style="stroke:#FF5F46;stroke-width:3;" width="136.4707" x="10" y="113.4648"/><text fill="#FFFFFF" font-family="sans-serif" font-size="14" lengthAdjust="spacing" textLength="116.4707" x="20" y="137">ML Environments</text><rect fill="#0078D4" height="36.4883" rx="12.5" ry="12.5" style="stroke:#0078D4;stroke-width:3;" width="177.0283" x="196.4707" y="28.7324"/><text fill="#FFFFFF" font-family="sans-serif" font-size="14" lengthAdjust="spacing" textLength="157.0283" x="206.4707" y="52.2676">Databricks Runtime ML</text><text fill="#000000" font-family="sans-serif" font-size="14" lengthAdjust="spacing" textLength="170.3721" x="426.499" y="24.5352">Pre-installed ML libraries</text><path d="M373.499,46.9766 L383.499,46.9766 C398.499,46.9766 398.499,19.2441 413.499,19.2441 L423.499,19.2441" fill="none" style="stroke:#0078D4;stroke-width:3;"/><text fill="#000000" font-family="sans-serif" font-size="14" lengthAdjust="spacing" textLength="138.0039" x="426.499" y="43.0234">GPU drivers + CUDA</text><path d="M373.499,46.9766 L383.499,46.9766 C398.499,46.9766 398.499,37.7324 413.499,37.7324 L423.499,37.7324" fill="none" style="stroke:#0078D4;stroke-width:3;"/><text fill="#000000" font-family="sans-serif" font-size="14" lengthAdjust="spacing" textLength="174.1934" x="426.499" y="61.5117">TensorFlow, PyTorch, etc.</text><path d="M373.499,46.9766 L383.499,46.9766 C398.499,46.9766 398.499,56.2207 413.499,56.2207 L423.499,56.2207" fill="none" style="stroke:#0078D4;stroke-width:3;"/><text fill="#000000" font-family="sans-serif" font-size="14" lengthAdjust="spacing" textLength="132.9453" x="426.499" y="80">Reduces setup time</text><path d="M373.499,46.9766 L383.499,46.9766 C398.499,46.9766 398.499,74.709 413.499,74.709 L423.499,74.709" fill="none" style="stroke:#0078D4;stroke-width:3;"/><path d="M146.4707,131.709 L156.4707,131.709 C171.4707,131.709 171.4707,46.9766 186.4707,46.9766 L196.4707,46.9766" fill="none" style="stroke:#FF5F46;stroke-width:3;"/><rect fill="#0078D4" height="36.4883" rx="12.5" ry="12.5" style="stroke:#0078D4;stroke-width:3;" width="132.4648" x="196.4707" y="122.1973"/><text fill="#FFFFFF" font-family="sans-serif" font-size="14" lengthAdjust="spacing" textLength="112.4648" x="206.4707" y="145.7324">Hardware for ML</text><rect fill="#FFB900" height="36.4883" rx="12.5" ry="12.5" style="stroke:#FFB900;stroke-width:3;" width="243.0566" x="378.9355" y="93.9531"/><text fill="#000000" font-family="sans-serif" font-size="14" lengthAdjust="spacing" textLength="223.0566" x="388.9355" y="117.4883">Single-node for experimentation</text><text fill="#000000" font-family="sans-serif" font-size="14" lengthAdjust="spacing" textLength="171.6094" x="674.9922" y="108.2441">Minimal shuffle overhead</text><path d="M621.9922,112.1973 L631.9922,112.1973 C646.9922,112.1973 646.9922,102.9531 661.9922,102.9531 L671.9922,102.9531" fill="none" style="stroke:#FFB900;stroke-width:3;"/><text fill="#000000" font-family="sans-serif" font-size="14" lengthAdjust="spacing" textLength="132.9043" x="674.9922" y="126.7324">Good starting point</text><path d="M621.9922,112.1973 L631.9922,112.1973 C646.9922,112.1973 646.9922,121.4414 661.9922,121.4414 L671.9922,121.4414" fill="none" style="stroke:#FFB900;stroke-width:3;"/><path d="M328.9355,140.4414 L338.9355,140.4414 C353.9355,140.4414 353.9355,112.1973 368.9355,112.1973 L378.9355,112.1973" fill="none" style="stroke:#0078D4;stroke-width:3;"/><rect fill="#FFB900" height="36.4883" rx="12.5" ry="12.5" style="stroke:#FFB900;stroke-width:3;" width="237.0684" x="378.9355" y="150.4414"/><text fill="#000000" font-family="sans-serif" font-size="14" lengthAdjust="spacing" textLength="217.0684" x="388.9355" y="173.9766">GPU instances for deep learning</text><text fill="#000000" font-family="sans-serif" font-size="14" lengthAdjust="spacing" textLength="242.3682" x="669.0039" y="155.4883">Image recognition, NLP, neural nets</text><path d="M616.0039,168.6855 L626.0039,168.6855 C641.0039,168.6855 641.0039,150.1973 656.0039,150.1973 L666.0039,150.1973" fill="none" style="stroke:#FFB900;stroke-width:3;"/><text fill="#000000" font-family="sans-serif" font-size="14" lengthAdjust="spacing" textLength="170.4883" x="669.0039" y="173.9766">10-100x faster than CPU</text><path d="M616.0039,168.6855 L626.0039,168.6855 C641.0039,168.6855 641.0039,168.6855 656.0039,168.6855 L666.0039,168.6855" fill="none" style="stroke:#FFB900;stroke-width:3;"/><text fill="#000000" font-family="sans-serif" font-size="14" lengthAdjust="spacing" textLength="216.1387" x="669.0039" y="192.4648">Disable Photon when using GPU</text><path d="M616.0039,168.6855 L626.0039,168.6855 C641.0039,168.6855 641.0039,187.1738 656.0039,187.1738 L666.0039,187.1738" fill="none" style="stroke:#FFB900;stroke-width:3;"/><path d="M328.9355,140.4414 L338.9355,140.4414 C353.9355,140.4414 353.9355,168.6855 368.9355,168.6855 L378.9355,168.6855" fill="none" style="stroke:#0078D4;stroke-width:3;"/><path d="M146.4707,131.709 L156.4707,131.709 C171.4707,131.709 171.4707,140.4414 186.4707,140.4414 L196.4707,140.4414" fill="none" style="stroke:#FF5F46;stroke-width:3;"/><rect fill="#0078D4" height="36.4883" rx="12.5" ry="12.5" style="stroke:#0078D4;stroke-width:3;" width="158.2363" x="196.4707" y="206.9297"/><text fill="#FFFFFF" font-family="sans-serif" font-size="14" lengthAdjust="spacing" textLength="138.2363" x="206.4707" y="230.4648">Typical ML workflow</text><text fill="#000000" font-family="sans-serif" font-size="14" lengthAdjust="spacing" textLength="231.3896" x="407.707" y="211.9766">Start single-node for experiments</text><path d="M354.707,225.1738 L364.707,225.1738 C379.707,225.1738 379.707,206.6855 394.707,206.6855 L404.707,206.6855" fill="none" style="stroke:#0078D4;stroke-width:3;"/><text fill="#000000" font-family="sans-serif" font-size="14" lengthAdjust="spacing" textLength="212.5293" x="407.707" y="230.4648">Scale to GPU for model training</text><path d="M354.707,225.1738 L364.707,225.1738 C379.707,225.1738 379.707,225.1738 394.707,225.1738 L404.707,225.1738" fill="none" style="stroke:#0078D4;stroke-width:3;"/><text fill="#000000" font-family="sans-serif" font-size="14" lengthAdjust="spacing" textLength="235.2725" x="407.707" y="248.9531">Use Databricks Runtime ML always</text><path d="M354.707,225.1738 L364.707,225.1738 C379.707,225.1738 379.707,243.6621 394.707,243.6621 L404.707,243.6621" fill="none" style="stroke:#0078D4;stroke-width:3;"/><path d="M146.4707,131.709 L156.4707,131.709 C171.4707,131.709 171.4707,225.1738 186.4707,225.1738 L196.4707,225.1738" fill="none" style="stroke:#FF5F46;stroke-width:3;"/><?plantuml-src VLDTZzCm47pFhrY95oXjSSjnVEY43gwa8FLGT6sVJswyQQmwwsZjN5kT-E_OIGv4eUpZxkpCxAvzxRnaNsbIbQoJA-UF1Zyc7nJMldmkNi1Z0Y4-ototPTkGkh76CZnBqpVfnMLRMsZ2lxEf9TzdYpP-OLUbpdU4pi7hiKX-F6bDpce9yVRTxE9KwoJx9-k9WxIDtrhJirf5iNalnAdMIVQ_MgADeBMn1nCnZsSHLw_wTG_WTW5Vw46pfGh9ksGmW9dqSiD1oS5TGrvN652XCBY7Z76aALpE65Inr-WDIzRekleyMuDY_O3iu2NSh6UVklmAoLbEZTqF8JkkBEVb4D3duwvyXwh9qO53tzGG5QEFhvBLNZ924Snt3c2fQMjmH5PrQJpKo3fQbrvRYfZ0Twj9LzA0AvkYC0Ws62fHghuyjrP1-_m26zHMas_9e_jsEefc8hr2hC6WP0h8lljR9RS8ZBdTaewYG_Y-o8P0s73G96ot694JCPe8SO12EeyClfG4DzcwhywqavjWBYkjjmJx4WaQ5ntDMmoiZhNE0sDOyzxohWZRwzQrZDR1dLr5VunbQ4Rmjfqh8ge0DU1PwgTnxc7jyDy71sdsykYIQmm_jF-boMGy5TFByVGd?></g></svg>