<?plantuml 1.2026.2?><svg xmlns="http://www.w3.org/2000/svg" xmlns:xlink="http://www.w3.org/1999/xlink" contentStyleType="text/css" data-diagram-type="MINDMAP" height="321px" preserveAspectRatio="none" style="width:645px;height:321px;background:#FFFFFF;" version="1.1" viewBox="0 0 645 321" width="645px" zoomAndPan="magnify"><defs/><g><rect fill="#FF5F46" height="36.4883" rx="12.5" ry="12.5" style="stroke:#FF5F46;stroke-width:3;" width="155.6592" x="10" y="141.709"/><text fill="#FFFFFF" font-family="sans-serif" font-size="14" lengthAdjust="spacing" textLength="135.6592" x="20" y="165.2441">Photon Acceleration</text><rect fill="#0078D4" height="36.4883" rx="12.5" ry="12.5" style="stroke:#0078D4;stroke-width:3;" width="82.959" x="215.6592" y="20"/><text fill="#FFFFFF" font-family="sans-serif" font-size="14" lengthAdjust="spacing" textLength="62.959" x="225.6592" y="43.5352">What it is</text><text fill="#000000" font-family="sans-serif" font-size="14" lengthAdjust="spacing" textLength="172.1699" x="351.6182" y="34.291">Native code query engine</text><path d="M298.6182,38.2441 L308.6182,38.2441 C323.6182,38.2441 323.6182,29 338.6182,29 L348.6182,29" fill="none" style="stroke:#0078D4;stroke-width:3;"/><text fill="#000000" font-family="sans-serif" font-size="14" lengthAdjust="spacing" textLength="254.3105" x="351.6182" y="52.7793">Replaces standard Spark components</text><path d="M298.6182,38.2441 L308.6182,38.2441 C323.6182,38.2441 323.6182,47.4883 338.6182,47.4883 L348.6182,47.4883" fill="none" style="stroke:#0078D4;stroke-width:3;"/><path d="M165.6592,159.9531 L175.6592,159.9531 C190.6592,159.9531 190.6592,38.2441 205.6592,38.2441 L215.6592,38.2441" fill="none" style="stroke:#FF5F46;stroke-width:3;"/><rect fill="#0078D4" height="36.4883" rx="12.5" ry="12.5" style="stroke:#0078D4;stroke-width:3;" width="72.1309" x="215.6592" y="85.2207"/><text fill="#FFFFFF" font-family="sans-serif" font-size="14" lengthAdjust="spacing" textLength="52.1309" x="225.6592" y="108.7559">Best for</text><text fill="#000000" font-family="sans-serif" font-size="14" lengthAdjust="spacing" textLength="205.2695" x="340.79" y="81.0234">Complex joins &amp; aggregations</text><path d="M287.79,103.4648 L297.79,103.4648 C312.79,103.4648 312.79,75.7324 327.79,75.7324 L337.79,75.7324" fill="none" style="stroke:#0078D4;stroke-width:3;"/><text fill="#000000" font-family="sans-serif" font-size="14" lengthAdjust="spacing" textLength="117.8037" x="340.79" y="99.5117">Large table scans</text><path d="M287.79,103.4648 L297.79,103.4648 C312.79,103.4648 312.79,94.2207 327.79,94.2207 L337.79,94.2207" fill="none" style="stroke:#0078D4;stroke-width:3;"/><text fill="#000000" font-family="sans-serif" font-size="14" lengthAdjust="spacing" textLength="183.627" x="340.79" y="118">Wide table transformations</text><path d="M287.79,103.4648 L297.79,103.4648 C312.79,103.4648 312.79,112.709 327.79,112.709 L337.79,112.709" fill="none" style="stroke:#0078D4;stroke-width:3;"/><text fill="#000000" font-family="sans-serif" font-size="14" lengthAdjust="spacing" textLength="172.6963" x="340.79" y="136.4883">Disk-intensive workloads</text><path d="M287.79,103.4648 L297.79,103.4648 C312.79,103.4648 312.79,131.1973 327.79,131.1973 L337.79,131.1973" fill="none" style="stroke:#0078D4;stroke-width:3;"/><path d="M165.6592,159.9531 L175.6592,159.9531 C190.6592,159.9531 190.6592,103.4648 205.6592,103.4648 L215.6592,103.4648" fill="none" style="stroke:#FF5F46;stroke-width:3;"/><rect fill="#0078D4" height="36.4883" rx="12.5" ry="12.5" style="stroke:#0078D4;stroke-width:3;" width="149.5547" x="215.6592" y="150.4414"/><text fill="#FFFFFF" font-family="sans-serif" font-size="14" lengthAdjust="spacing" textLength="129.5547" x="225.6592" y="173.9766">Minimal benefit for</text><text fill="#000000" font-family="sans-serif" font-size="14" lengthAdjust="spacing" textLength="169.7705" x="418.2139" y="164.7324">Simple ETL on small data</text><path d="M365.2139,168.6855 L375.2139,168.6855 C390.2139,168.6855 390.2139,159.4414 405.2139,159.4414 L415.2139,159.4414" fill="none" style="stroke:#0078D4;stroke-width:3;"/><text fill="#000000" font-family="sans-serif" font-size="14" lengthAdjust="spacing" textLength="215.3115" x="418.2139" y="183.2207">Jobs completing in &lt; 2 seconds</text><path d="M365.2139,168.6855 L375.2139,168.6855 C390.2139,168.6855 390.2139,177.9297 405.2139,177.9297 L415.2139,177.9297" fill="none" style="stroke:#0078D4;stroke-width:3;"/><path d="M165.6592,159.9531 L175.6592,159.9531 C190.6592,159.9531 190.6592,168.6855 205.6592,168.6855 L215.6592,168.6855" fill="none" style="stroke:#FF5F46;stroke-width:3;"/><rect fill="#0078D4" height="36.4883" rx="12.5" ry="12.5" style="stroke:#0078D4;stroke-width:3;" width="145.9248" x="215.6592" y="206.9297"/><text fill="#FFFFFF" font-family="sans-serif" font-size="14" lengthAdjust="spacing" textLength="125.9248" x="225.6592" y="230.4648">Enabled by default</text><text fill="#000000" font-family="sans-serif" font-size="14" lengthAdjust="spacing" textLength="199.0557" x="414.584" y="221.2207">Databricks Runtime 9.1 LTS+</text><path d="M361.584,225.1738 L371.584,225.1738 C386.584,225.1738 386.584,215.9297 401.584,215.9297 L411.584,215.9297" fill="none" style="stroke:#0078D4;stroke-width:3;"/><text fill="#000000" font-family="sans-serif" font-size="14" lengthAdjust="spacing" textLength="214.7715" x="414.584" y="239.709">Configurable at cluster creation</text><path d="M361.584,225.1738 L371.584,225.1738 C386.584,225.1738 386.584,234.418 401.584,234.418 L411.584,234.418" fill="none" style="stroke:#0078D4;stroke-width:3;"/><path d="M165.6592,159.9531 L175.6592,159.9531 C190.6592,159.9531 190.6592,225.1738 205.6592,225.1738 L215.6592,225.1738" fill="none" style="stroke:#FF5F46;stroke-width:3;"/><rect fill="#0078D4" height="36.4883" rx="12.5" ry="12.5" style="stroke:#0078D4;stroke-width:3;" width="157.1221" x="215.6592" y="263.418"/><text fill="#FFFFFF" font-family="sans-serif" font-size="14" lengthAdjust="spacing" textLength="137.1221" x="225.6592" y="286.9531">Not compatible with</text><text fill="#000000" font-family="sans-serif" font-size="14" lengthAdjust="spacing" textLength="146.7197" x="425.7813" y="286.9531">GPU-enabled clusters</text><path d="M372.7813,281.6621 L382.7813,281.6621 C397.7813,281.6621 397.7813,281.6621 412.7813,281.6621 L422.7813,281.6621" fill="none" style="stroke:#0078D4;stroke-width:3;"/><path d="M165.6592,159.9531 L175.6592,159.9531 C190.6592,159.9531 190.6592,281.6621 205.6592,281.6621 L215.6592,281.6621" fill="none" style="stroke:#FF5F46;stroke-width:3;"/><?plantuml-src VLFRRjGm47tFLuo4X61HbsmeXQ8LAhq42IrLrLtKH-JOayJ46GTxqdPLyUyuboqbQ1dvnMVEp3cUaKyy2yUr9bMB9bfwtXhy67rGs73v8du93n64E1MoAfnjIPrPOnqyIzEtwU5Hdrjfmd_Hr1AFQDx78tTJQbaHUWzlvd7qQwUrsAiLn-_UdnzEjIRetrqd3j8-_cWbUxNoF3kEuwdM1FslLjn7qChilUau3tiPozVZk6TmLLgs19-aH8DEiBOKpMPmKme67OuFjzbtk0oPMmHf5SBF5jqMa8hWQCXUOsE4H0zXfwI4Kx1kXAi2lMui8N7N1KxHC-JM3JLd8MVm7dvOJHwUWoWAXqLlODHS2LSWiCWCWfTY1zzejKFP1JHqh9-MdMjV7MXY9DzPlhEkCbQeti9NJReM1Z8apFKJDslTkO6BpGh2D7pW6522nP3zOZFVFyOWQof04omX0O_Iqj3uWZf32h8jACn5QtWq4tfaBcpDmtLBh6k4u_a2LflrgzqOADT5w_htX9bBqtf61zBXup8kBVVg0UXOTvhBeVZprRS379N7GX-TOFXIuxUA5lCaJexcoMy0?></g></svg>