<?plantuml 1.2026.2?><svg xmlns="http://www.w3.org/2000/svg" xmlns:xlink="http://www.w3.org/1999/xlink" contentStyleType="text/css" data-diagram-type="MINDMAP" height="415px" preserveAspectRatio="none" style="width:685px;height:415px;background:#FFFFFF;" version="1.1" viewBox="0 0 685 415" width="685px" zoomAndPan="magnify"><defs/><g><rect fill="#FF5F46" height="36.4883" rx="12.5" ry="12.5" style="stroke:#FF5F46;stroke-width:3;" width="201.6514" x="10" y="188.4414"/><text fill="#FFFFFF" font-family="sans-serif" font-size="14" lengthAdjust="spacing" textLength="181.6514" x="20" y="211.9766">Compute-Scoped Libraries</text><rect fill="#0078D4" height="36.4883" rx="12.5" ry="12.5" style="stroke:#0078D4;stroke-width:3;" width="267.6797" x="261.6514" y="20"/><text fill="#FFFFFF" font-family="sans-serif" font-size="14" lengthAdjust="spacing" textLength="247.6797" x="271.6514" y="43.5352">Available to all notebooks on cluster</text><path d="M211.6514,206.6855 L221.6514,206.6855 C236.6514,206.6855 236.6514,38.2441 251.6514,38.2441 L261.6514,38.2441" fill="none" style="stroke:#FF5F46;stroke-width:3;"/><rect fill="#0078D4" height="36.4883" rx="12.5" ry="12.5" style="stroke:#0078D4;stroke-width:3;" width="252.3398" x="261.6514" y="76.4883"/><text fill="#FFFFFF" font-family="sans-serif" font-size="14" lengthAdjust="spacing" textLength="232.3398" x="271.6514" y="100.0234">Auto-reinstalled on cluster restart</text><path d="M211.6514,206.6855 L221.6514,206.6855 C236.6514,206.6855 236.6514,94.7324 251.6514,94.7324 L261.6514,94.7324" fill="none" style="stroke:#FF5F46;stroke-width:3;"/><rect fill="#0078D4" height="36.4883" rx="12.5" ry="12.5" style="stroke:#0078D4;stroke-width:3;" width="256.332" x="261.6514" y="132.9766"/><text fill="#FFFFFF" font-family="sans-serif" font-size="14" lengthAdjust="spacing" textLength="236.332" x="271.6514" y="156.5117">Requires CAN MANAGE permission</text><path d="M211.6514,206.6855 L221.6514,206.6855 C236.6514,206.6855 236.6514,151.2207 251.6514,151.2207 L261.6514,151.2207" fill="none" style="stroke:#FF5F46;stroke-width:3;"/><rect fill="#0078D4" height="36.4883" rx="12.5" ry="12.5" style="stroke:#0078D4;stroke-width:3;" width="130.7559" x="261.6514" y="189.4648"/><text fill="#FFFFFF" font-family="sans-serif" font-size="14" lengthAdjust="spacing" textLength="110.7559" x="271.6514" y="213">Supported types</text><text fill="#000000" font-family="sans-serif" font-size="14" lengthAdjust="spacing" textLength="96.9541" x="445.4072" y="194.5117">Python wheels</text><path d="M392.4072,207.709 L402.4072,207.709 C417.4072,207.709 417.4072,189.2207 432.4072,189.2207 L442.4072,189.2207" fill="none" style="stroke:#0078D4;stroke-width:3;"/><text fill="#000000" font-family="sans-serif" font-size="14" lengthAdjust="spacing" textLength="86.9668" x="445.4072" y="213">Java JAR files</text><path d="M392.4072,207.709 L402.4072,207.709 C417.4072,207.709 417.4072,207.709 432.4072,207.709 L442.4072,207.709" fill="none" style="stroke:#0078D4;stroke-width:3;"/><text fill="#000000" font-family="sans-serif" font-size="14" lengthAdjust="spacing" textLength="76.5762" x="445.4072" y="231.4883">R packages</text><path d="M392.4072,207.709 L402.4072,207.709 C417.4072,207.709 417.4072,226.1973 432.4072,226.1973 L442.4072,226.1973" fill="none" style="stroke:#0078D4;stroke-width:3;"/><path d="M211.6514,206.6855 L221.6514,206.6855 C236.6514,206.6855 236.6514,207.709 251.6514,207.709 L261.6514,207.709" fill="none" style="stroke:#FF5F46;stroke-width:3;"/><rect fill="#0078D4" height="36.4883" rx="12.5" ry="12.5" style="stroke:#0078D4;stroke-width:3;" width="72.6641" x="261.6514" y="273.1738"/><text fill="#FFFFFF" font-family="sans-serif" font-size="14" lengthAdjust="spacing" textLength="52.6641" x="271.6514" y="296.709">Sources</text><text fill="#000000" font-family="sans-serif" font-size="14" lengthAdjust="spacing" textLength="86.625" x="387.3154" y="250.4883">PyPI (Python)</text><path d="M334.3154,291.418 L344.3154,291.418 C359.3154,291.418 359.3154,245.1973 374.3154,245.1973 L384.3154,245.1973" fill="none" style="stroke:#0078D4;stroke-width:3;"/><text fill="#000000" font-family="sans-serif" font-size="14" lengthAdjust="spacing" textLength="125.6855" x="387.3154" y="268.9766">Maven (Java/Scala)</text><path d="M334.3154,291.418 L344.3154,291.418 C359.3154,291.418 359.3154,263.6855 374.3154,263.6855 L384.3154,263.6855" fill="none" style="stroke:#0078D4;stroke-width:3;"/><text fill="#000000" font-family="sans-serif" font-size="14" lengthAdjust="spacing" textLength="60.9287" x="387.3154" y="287.4648">CRAN (R)</text><path d="M334.3154,291.418 L344.3154,291.418 C359.3154,291.418 359.3154,282.1738 374.3154,282.1738 L384.3154,282.1738" fill="none" style="stroke:#0078D4;stroke-width:3;"/><text fill="#000000" font-family="sans-serif" font-size="14" lengthAdjust="spacing" textLength="105.7451" x="387.3154" y="305.9531">Workspace files</text><path d="M334.3154,291.418 L344.3154,291.418 C359.3154,291.418 359.3154,300.6621 374.3154,300.6621 L384.3154,300.6621" fill="none" style="stroke:#0078D4;stroke-width:3;"/><text fill="#000000" font-family="sans-serif" font-size="14" lengthAdjust="spacing" textLength="152.1953" x="387.3154" y="324.4414">Unity Catalog volumes</text><path d="M334.3154,291.418 L344.3154,291.418 C359.3154,291.418 359.3154,319.1504 374.3154,319.1504 L384.3154,319.1504" fill="none" style="stroke:#0078D4;stroke-width:3;"/><text fill="#000000" font-family="sans-serif" font-size="14" lengthAdjust="spacing" textLength="141.5313" x="387.3154" y="342.9297">Cloud object storage</text><path d="M334.3154,291.418 L344.3154,291.418 C359.3154,291.418 359.3154,337.6387 374.3154,337.6387 L384.3154,337.6387" fill="none" style="stroke:#0078D4;stroke-width:3;"/><path d="M211.6514,206.6855 L221.6514,206.6855 C236.6514,206.6855 236.6514,291.418 251.6514,291.418 L261.6514,291.418" fill="none" style="stroke:#FF5F46;stroke-width:3;"/><rect fill="#0078D4" height="36.4883" rx="12.5" ry="12.5" style="stroke:#0078D4;stroke-width:3;" width="88.168" x="261.6514" y="356.8828"/><text fill="#FFFFFF" font-family="sans-serif" font-size="14" lengthAdjust="spacing" textLength="68.168" x="271.6514" y="380.418">Limitation</text><text fill="#000000" font-family="sans-serif" font-size="14" lengthAdjust="spacing" textLength="215.5918" x="402.8193" y="371.1738">Affects all notebooks on cluster</text><path d="M349.8193,375.127 L359.8193,375.127 C374.8193,375.127 374.8193,365.8828 389.8193,365.8828 L399.8193,365.8828" fill="none" style="stroke:#0078D4;stroke-width:3;"/><text fill="#000000" font-family="sans-serif" font-size="14" lengthAdjust="spacing" textLength="270.2383" x="402.8193" y="389.6621">Conflicting versions = separate clusters</text><path d="M349.8193,375.127 L359.8193,375.127 C374.8193,375.127 374.8193,384.3711 389.8193,384.3711 L399.8193,384.3711" fill="none" style="stroke:#0078D4;stroke-width:3;"/><path d="M211.6514,206.6855 L221.6514,206.6855 C236.6514,206.6855 236.6514,375.127 251.6514,375.127 L261.6514,375.127" fill="none" style="stroke:#FF5F46;stroke-width:3;"/><?plantuml-src VLFHRjD047ptLwp4IngfgHjA2wYW6eCHLLjL3eX7T7RMoP7pxN6t3aGL_zwrun0mIlVjPaSpixkwgy3ASwtjl5OkkWoyCVWsUZr7nyjHV0GF4KYzK-LguQcnyvGCUNYMPI-oi_EkTwCj_ezcPBb7gwx-S3ylTRco608ydyJHxvtNwK6lEBvu-Vviw3L0_rKT9CYwsdjD3tfLLV4gZeTU0_H9hxWhyIhebsav3mSPboVzkiUGKkqQnkDPIGxdub9uvJM6Q3o6PAsqKOL1O09b35XYB8XM0SX2QPh0w3jYmtJiKLkvgJ4Yis-3n-xGBIt77usMDwJ97TmcTyd73-3Grpe4JRPbp1hdoBCeyCPr8SRVu7x3In7ykKGqFNIjrWgkanmgRNQq79miLIsssMVK-7AlSFy9HbkTeorqgzPeOTGAdSnAPLIFfxba6-NzwolvLH1P_DleYzMyWLJ9hBI0DPccthLIGurCNtp7aY4mUOdJfhdHjMR5soc5brILCC9JIstLo5P6bwojsA1lbnJW3GHqoYl67Jb4LoY_gFz9qUba6a_F9zD7?></g></svg>