<?plantuml 1.2026.2?><svg xmlns="http://www.w3.org/2000/svg" xmlns:xlink="http://www.w3.org/1999/xlink" contentStyleType="text/css" data-diagram-type="MINDMAP" height="434px" preserveAspectRatio="none" style="width:724px;height:434px;background:#FFFFFF;" version="1.1" viewBox="0 0 724 434" width="724px" zoomAndPan="magnify"><defs/><g><rect fill="#FF5F46" height="36.4883" rx="12.5" ry="12.5" style="stroke:#FF5F46;stroke-width:3;" width="92.1055" x="10" y="198.1973"/><text fill="#FFFFFF" font-family="sans-serif" font-size="14" lengthAdjust="spacing" textLength="72.1055" x="20" y="221.7324">Init Scripts</text><rect fill="#0078D4" height="36.4883" rx="12.5" ry="12.5" style="stroke:#0078D4;stroke-width:3;" width="205.7256" x="152.1055" y="20"/><text fill="#FFFFFF" font-family="sans-serif" font-size="14" lengthAdjust="spacing" textLength="185.7256" x="162.1055" y="43.5352">Runs during cluster startup</text><text fill="#000000" font-family="sans-serif" font-size="14" lengthAdjust="spacing" textLength="171.9785" x="410.8311" y="34.291">Before Spark driver starts</text><path d="M357.8311,38.2441 L367.8311,38.2441 C382.8311,38.2441 382.8311,29 397.8311,29 L407.8311,29" fill="none" style="stroke:#0078D4;stroke-width:3;"/><text fill="#000000" font-family="sans-serif" font-size="14" lengthAdjust="spacing" textLength="163.1328" x="410.8311" y="52.7793">Every time cluster starts</text><path d="M357.8311,38.2441 L367.8311,38.2441 C382.8311,38.2441 382.8311,47.4883 397.8311,47.4883 L407.8311,47.4883" fill="none" style="stroke:#0078D4;stroke-width:3;"/><path d="M102.1055,216.4414 L112.1055,216.4414 C127.1055,216.4414 127.1055,38.2441 142.1055,38.2441 L152.1055,38.2441" fill="none" style="stroke:#FF5F46;stroke-width:3;"/><rect fill="#0078D4" height="36.4883" rx="12.5" ry="12.5" style="stroke:#0078D4;stroke-width:3;" width="86.042" x="152.1055" y="85.2207"/><text fill="#FFFFFF" font-family="sans-serif" font-size="14" lengthAdjust="spacing" textLength="66.042" x="162.1055" y="108.7559">Use cases</text><text fill="#000000" font-family="sans-serif" font-size="14" lengthAdjust="spacing" textLength="181.002" x="291.1475" y="81.0234">System packages (apt-get)</text><path d="M238.1475,103.4648 L248.1475,103.4648 C263.1475,103.4648 263.1475,75.7324 278.1475,75.7324 L288.1475,75.7324" fill="none" style="stroke:#0078D4;stroke-width:3;"/><text fill="#000000" font-family="sans-serif" font-size="14" lengthAdjust="spacing" textLength="150.0898" x="291.1475" y="99.5117">Environment variables</text><path d="M238.1475,103.4648 L248.1475,103.4648 C263.1475,103.4648 263.1475,94.2207 278.1475,94.2207 L288.1475,94.2207" fill="none" style="stroke:#0078D4;stroke-width:3;"/><text fill="#000000" font-family="sans-serif" font-size="14" lengthAdjust="spacing" textLength="124.1748" x="291.1475" y="118">Monitoring agents</text><path d="M238.1475,103.4648 L248.1475,103.4648 C263.1475,103.4648 263.1475,112.709 278.1475,112.709 L288.1475,112.709" fill="none" style="stroke:#0078D4;stroke-width:3;"/><text fill="#000000" font-family="sans-serif" font-size="14" lengthAdjust="spacing" textLength="133.9502" x="291.1475" y="136.4883">System-level config</text><path d="M238.1475,103.4648 L248.1475,103.4648 C263.1475,103.4648 263.1475,131.1973 278.1475,131.1973 L288.1475,131.1973" fill="none" style="stroke:#0078D4;stroke-width:3;"/><path d="M102.1055,216.4414 L112.1055,216.4414 C127.1055,216.4414 127.1055,103.4648 142.1055,103.4648 L152.1055,103.4648" fill="none" style="stroke:#FF5F46;stroke-width:3;"/><rect fill="#0078D4" height="36.4883" rx="12.5" ry="12.5" style="stroke:#0078D4;stroke-width:3;" width="263.0654" x="152.1055" y="150.4414"/><text fill="#FFFFFF" font-family="sans-serif" font-size="14" lengthAdjust="spacing" textLength="243.0654" x="162.1055" y="173.9766">Not recommended for library install</text><text fill="#000000" font-family="sans-serif" font-size="14" lengthAdjust="spacing" textLength="244.6924" x="468.1709" y="173.9766">Use cluster-scoped libraries instead</text><path d="M415.1709,168.6855 L425.1709,168.6855 C440.1709,168.6855 440.1709,168.6855 455.1709,168.6855 L465.1709,168.6855" fill="none" style="stroke:#0078D4;stroke-width:3;"/><path d="M102.1055,216.4414 L112.1055,216.4414 C127.1055,216.4414 127.1055,168.6855 142.1055,168.6855 L152.1055,168.6855" fill="none" style="stroke:#FF5F46;stroke-width:3;"/><rect fill="#0078D4" height="36.4883" rx="12.5" ry="12.5" style="stroke:#0078D4;stroke-width:3;" width="71.3652" x="152.1055" y="206.9297"/><text fill="#FFFFFF" font-family="sans-serif" font-size="14" lengthAdjust="spacing" textLength="51.3652" x="162.1055" y="230.4648">Storage</text><text fill="#000000" font-family="sans-serif" font-size="14" lengthAdjust="spacing" textLength="239.668" x="276.4707" y="221.2207">Unity Catalog volumes (DBR 13.3+)</text><path d="M223.4707,225.1738 L233.4707,225.1738 C248.4707,225.1738 248.4707,215.9297 263.4707,215.9297 L273.4707,215.9297" fill="none" style="stroke:#0078D4;stroke-width:3;"/><text fill="#000000" font-family="sans-serif" font-size="14" lengthAdjust="spacing" textLength="295.4082" x="276.4707" y="239.709">Path: /Volumes/main/eng/scripts/setup.sh</text><path d="M223.4707,225.1738 L233.4707,225.1738 C248.4707,225.1738 248.4707,234.418 263.4707,234.418 L273.4707,234.418" fill="none" style="stroke:#0078D4;stroke-width:3;"/><path d="M102.1055,216.4414 L112.1055,216.4414 C127.1055,216.4414 127.1055,225.1738 142.1055,225.1738 L152.1055,225.1738" fill="none" style="stroke:#FF5F46;stroke-width:3;"/><rect fill="#0078D4" height="36.4883" rx="12.5" ry="12.5" style="stroke:#0078D4;stroke-width:3;" width="171.5664" x="152.1055" y="263.418"/><text fill="#FFFFFF" font-family="sans-serif" font-size="14" lengthAdjust="spacing" textLength="151.5664" x="162.1055" y="286.9531">Standard access mode</text><text fill="#000000" font-family="sans-serif" font-size="14" lengthAdjust="spacing" textLength="236.3389" x="376.6719" y="286.9531">Init script path must be in allowlist</text><path d="M323.6719,281.6621 L333.6719,281.6621 C348.6719,281.6621 348.6719,281.6621 363.6719,281.6621 L373.6719,281.6621" fill="none" style="stroke:#0078D4;stroke-width:3;"/><path d="M102.1055,216.4414 L112.1055,216.4414 C127.1055,216.4414 127.1055,281.6621 142.1055,281.6621 L152.1055,281.6621" fill="none" style="stroke:#FF5F46;stroke-width:3;"/><rect fill="#0078D4" height="36.4883" rx="12.5" ry="12.5" style="stroke:#0078D4;stroke-width:3;" width="128.6299" x="152.1055" y="319.9063"/><text fill="#FFFFFF" font-family="sans-serif" font-size="14" lengthAdjust="spacing" textLength="108.6299" x="162.1055" y="343.4414">Failure behavior</text><text fill="#000000" font-family="sans-serif" font-size="14" lengthAdjust="spacing" textLength="284.8945" x="333.7354" y="334.1973">Non-zero exit code = cluster fails to start</text><path d="M280.7354,338.1504 L290.7354,338.1504 C305.7354,338.1504 305.7354,328.9063 320.7354,328.9063 L330.7354,328.9063" fill="none" style="stroke:#0078D4;stroke-width:3;"/><text fill="#000000" font-family="sans-serif" font-size="14" lengthAdjust="spacing" textLength="271.5029" x="333.7354" y="352.6855">Enables troubleshooting via cluster logs</text><path d="M280.7354,338.1504 L290.7354,338.1504 C305.7354,338.1504 305.7354,347.3945 320.7354,347.3945 L330.7354,347.3945" fill="none" style="stroke:#0078D4;stroke-width:3;"/><path d="M102.1055,216.4414 L112.1055,216.4414 C127.1055,216.4414 127.1055,338.1504 142.1055,338.1504 L152.1055,338.1504" fill="none" style="stroke:#FF5F46;stroke-width:3;"/><rect fill="#0078D4" height="36.4883" rx="12.5" ry="12.5" style="stroke:#0078D4;stroke-width:3;" width="137.1748" x="152.1055" y="376.3945"/><text fill="#FFFFFF" font-family="sans-serif" font-size="14" lengthAdjust="spacing" textLength="117.1748" x="162.1055" y="399.9297">Use as last resort</text><text fill="#000000" font-family="sans-serif" font-size="14" lengthAdjust="spacing" textLength="311.0693" x="342.2803" y="399.9297">Prefer cluster policies and cluster-scoped libs</text><path d="M289.2803,394.6387 L299.2803,394.6387 C314.2803,394.6387 314.2803,394.6387 329.2803,394.6387 L339.2803,394.6387" fill="none" style="stroke:#0078D4;stroke-width:3;"/><path d="M102.1055,216.4414 L112.1055,216.4414 C127.1055,216.4414 127.1055,394.6387 142.1055,394.6387 L152.1055,394.6387" fill="none" style="stroke:#FF5F46;stroke-width:3;"/><?plantuml-src VLHTRzD047pthrY9bpOejfEK0bL1LLei8K5LDS0hEjjh-vJphNLtDWqL_vqzVmGb4Ex9sfsTcPsDScETCAwMEgz54rnRjrFuFhZAiN7LMNmEpm7mMujiMnfgTNvBYWoyI99NoSLbt_iaDVvTJKYxiLhqRu_zKibigz5QM8Lny6lIMfpKYkFNR-ukZhMEgeUiHmwI_ltHMfxKAehqRHmVQnrL_wiLzu-rKdfI7lDy4d4TZN7FuAEM3ZQPaOspmMm6ZwssaBT6wX8orLg71lfBjGstPzzXZGKPX4qZp1Po8xi9O8V-1oximCaQ3-Txzg-MgyBYYDtik5z3ms684YsSYSRDItJd8vNkf25TetRG2ID5ggR9pyI-gNV9azeT4CuLTgWW8rt8qilUamE36TLCbMCEl04ecHh1JgLcUqeDyxs_mVNSPjGmTi19TkUHA79Fk65jrXs7sCeERWNJK0aTgRRskzoj7s6n2bSlnsqUXAkk8FeszADQI1sXBYCxX1zPv8n3MmtyGkV2v22op9-ofdmKw-yrZ71kheAQtKAAx0vu3VgXf7MU8X5IjNoe52lHIJB3-3tf-Kyq1FZ4F1dJmhlzdGeUiU1eEDXqWpvrSFnZzHyLaVEfTrBivtZj_NM51IMiZzlInF5Wi63O16z8oSm7oZl-8sqRtF2LfZ-6O14ku-LbkFmD?></g></svg>