<?plantuml 1.2026.2?><svg xmlns="http://www.w3.org/2000/svg" xmlns:xlink="http://www.w3.org/1999/xlink" contentStyleType="text/css" data-diagram-type="MINDMAP" height="264px" preserveAspectRatio="none" style="width:729px;height:264px;background:#FFFFFF;" version="1.1" viewBox="0 0 729 264" width="729px" zoomAndPan="magnify"><defs/><g><rect fill="#FF5F46" height="36.4883" rx="12.5" ry="12.5" style="stroke:#FF5F46;stroke-width:3;" width="150.4365" x="10" y="113.209"/><text fill="#FFFFFF" font-family="sans-serif" font-size="14" lengthAdjust="spacing" textLength="130.4365" x="20" y="136.7441">Libraries from Files</text><rect fill="#0078D4" height="36.4883" rx="12.5" ry="12.5" style="stroke:#0078D4;stroke-width:3;" width="125.7451" x="210.4365" y="20"/><text fill="#FFFFFF" font-family="sans-serif" font-size="14" lengthAdjust="spacing" textLength="105.7451" x="220.4365" y="43.5352">Workspace files</text><text fill="#000000" font-family="sans-serif" font-size="14" lengthAdjust="spacing" textLength="142.8848" x="389.1816" y="25.0469">500 MB file size limit</text><path d="M336.1816,38.2441 L346.1816,38.2441 C361.1816,38.2441 361.1816,19.7559 376.1816,19.7559 L386.1816,19.7559" fill="none" style="stroke:#0078D4;stroke-width:3;"/><text fill="#000000" font-family="sans-serif" font-size="14" lengthAdjust="spacing" textLength="256.792" x="389.1816" y="43.5352">Path: /Workspace/Users/.../mylib.whl</text><path d="M336.1816,38.2441 L346.1816,38.2441 C361.1816,38.2441 361.1816,38.2441 376.1816,38.2441 L386.1816,38.2441" fill="none" style="stroke:#0078D4;stroke-width:3;"/><text fill="#000000" font-family="sans-serif" font-size="14" lengthAdjust="spacing" textLength="241.6162" x="389.1816" y="62.0234">Import via workspace Import dialog</text><path d="M336.1816,38.2441 L346.1816,38.2441 C361.1816,38.2441 361.1816,56.7324 376.1816,56.7324 L386.1816,56.7324" fill="none" style="stroke:#0078D4;stroke-width:3;"/><path d="M160.4365,131.4531 L170.4365,131.4531 C185.4365,131.4531 185.4365,38.2441 200.4365,38.2441 L210.4365,38.2441" fill="none" style="stroke:#FF5F46;stroke-width:3;"/><rect fill="#0078D4" height="36.4883" rx="12.5" ry="12.5" style="stroke:#0078D4;stroke-width:3;" width="172.1953" x="210.4365" y="84.709"/><text fill="#FFFFFF" font-family="sans-serif" font-size="14" lengthAdjust="spacing" textLength="152.1953" x="220.4365" y="108.2441">Unity Catalog volumes</text><text fill="#000000" font-family="sans-serif" font-size="14" lengthAdjust="spacing" textLength="147.7793" x="435.6318" y="80.5117">Enhanced governance</text><path d="M382.6318,102.9531 L392.6318,102.9531 C407.6318,102.9531 407.6318,75.2207 422.6318,75.2207 L432.6318,75.2207" fill="none" style="stroke:#0078D4;stroke-width:3;"/><text fill="#000000" font-family="sans-serif" font-size="14" lengthAdjust="spacing" textLength="232.4766" x="435.6318" y="99">Access control via UC permissions</text><path d="M382.6318,102.9531 L392.6318,102.9531 C407.6318,102.9531 407.6318,93.709 422.6318,93.709 L432.6318,93.709" fill="none" style="stroke:#0078D4;stroke-width:3;"/><text fill="#000000" font-family="sans-serif" font-size="14" lengthAdjust="spacing" textLength="239.1963" x="435.6318" y="117.4883">READ VOLUME permission required</text><path d="M382.6318,102.9531 L392.6318,102.9531 C407.6318,102.9531 407.6318,112.1973 422.6318,112.1973 L432.6318,112.1973" fill="none" style="stroke:#0078D4;stroke-width:3;"/><text fill="#000000" font-family="sans-serif" font-size="14" lengthAdjust="spacing" textLength="281.4971" x="435.6318" y="135.9766">Path: /Volumes/main/eng/libs/mylib.whl</text><path d="M382.6318,102.9531 L392.6318,102.9531 C407.6318,102.9531 407.6318,130.6855 422.6318,130.6855 L432.6318,130.6855" fill="none" style="stroke:#0078D4;stroke-width:3;"/><path d="M160.4365,131.4531 L170.4365,131.4531 C185.4365,131.4531 185.4365,102.9531 200.4365,102.9531 L210.4365,102.9531" fill="none" style="stroke:#FF5F46;stroke-width:3;"/><rect fill="#0078D4" height="36.4883" rx="12.5" ry="12.5" style="stroke:#0078D4;stroke-width:3;" width="191.4658" x="210.4365" y="149.9297"/><text fill="#FFFFFF" font-family="sans-serif" font-size="14" lengthAdjust="spacing" textLength="171.4658" x="220.4365" y="173.4648">requirements.txt support</text><text fill="#000000" font-family="sans-serif" font-size="14" lengthAdjust="spacing" textLength="179.6211" x="454.9023" y="154.9766">Databricks Runtime 15.0+</text><path d="M401.9023,168.1738 L411.9023,168.1738 C426.9023,168.1738 426.9023,149.6855 441.9023,149.6855 L451.9023,149.6855" fill="none" style="stroke:#0078D4;stroke-width:3;"/><text fill="#000000" font-family="sans-serif" font-size="14" lengthAdjust="spacing" textLength="194.6123" x="454.9023" y="173.4648">Multiple packages in one file</text><path d="M401.9023,168.1738 L411.9023,168.1738 C426.9023,168.1738 426.9023,168.1738 441.9023,168.1738 L451.9023,168.1738" fill="none" style="stroke:#0078D4;stroke-width:3;"/><text fill="#000000" font-family="sans-serif" font-size="14" lengthAdjust="spacing" textLength="259.0068" x="454.9023" y="191.9531">Works with workspace files &amp; volumes</text><path d="M401.9023,168.1738 L411.9023,168.1738 C426.9023,168.1738 426.9023,186.6621 441.9023,186.6621 L451.9023,186.6621" fill="none" style="stroke:#0078D4;stroke-width:3;"/><path d="M160.4365,131.4531 L170.4365,131.4531 C185.4365,131.4531 185.4365,168.1738 200.4365,168.1738 L210.4365,168.1738" fill="none" style="stroke:#FF5F46;stroke-width:3;"/><rect fill="#0078D4" height="36.4883" rx="12.5" ry="12.5" style="stroke:#0078D4;stroke-width:3;" width="171.5664" x="210.4365" y="206.418"/><text fill="#FFFFFF" font-family="sans-serif" font-size="14" lengthAdjust="spacing" textLength="151.5664" x="220.4365" y="229.9531">Standard access mode</text><text fill="#000000" font-family="sans-serif" font-size="14" lengthAdjust="spacing" textLength="173.4072" x="435.0029" y="220.709">Paths must be in allowlist</text><path d="M382.0029,224.6621 L392.0029,224.6621 C407.0029,224.6621 407.0029,215.418 422.0029,215.418 L432.0029,215.418" fill="none" style="stroke:#0078D4;stroke-width:3;"/><text fill="#000000" font-family="sans-serif" font-size="14" lengthAdjust="spacing" textLength="252.7725" x="435.0029" y="239.1973">Applies to workspace files &amp; volumes</text><path d="M382.0029,224.6621 L392.0029,224.6621 C407.0029,224.6621 407.0029,233.9063 422.0029,233.9063 L432.0029,233.9063" fill="none" style="stroke:#0078D4;stroke-width:3;"/><path d="M160.4365,131.4531 L170.4365,131.4531 C185.4365,131.4531 185.4365,224.6621 200.4365,224.6621 L210.4365,224.6621" fill="none" style="stroke:#FF5F46;stroke-width:3;"/><?plantuml-src VLFRRjD047ttLuo4X218zYOq1QeADKrY2QaHg93oYDRsEXvbBsPtd3HK_3lhIzB4A9sdzPdBcNFMU-E8MrAeCyNBuDhHJehFmLKcIYhUiBVm582FMvwkLzPKEfiQQIoyYkDnV77PvEvGY__Hs6ZgqBo9G-sF0jEr5ix1-v05V_TSmxDSZ7tuEBleS_NGqwcz3U8cdhb6PxdoFFd4M9-hXxx8nPhmN8bvb7NDqzcAwwYpU-379fPR50voQnJ4w5k3mG1-6hjs9Ky5v1qq-0LZnc1nso3Wy8y0YGgfpNtZL5n1TEYBbavO5uLX6AcTn2JS5hAj_A9AOmaso65xOEd03Baqgtg1fKRQmPHJ3S36o4hjrvZhWkjKPB0o6s5rVMuJapIjXQTUiZMoOLXEeHHMeNDeTDT_Fv_CuE7htN8nFqg25Ryhj28xqVFG4aUAeuw4NaLUYZjHjEzJGfCBwP70LMKjffqpymeIw-_DmNsb2PM0uJXaxzhiefA4fRVJcx3cAtyDgC7erlMsf74KjaZ5aLtDfS3h8r_WEt6TSPi1RrrG9XFFKlntvGWIKHDmASrMekjMd9IbhFy0CYymt0Z_KhlN6Wp34HjTXgD_?></g></svg>