<?plantuml 1.2026.2?><svg xmlns="http://www.w3.org/2000/svg" xmlns:xlink="http://www.w3.org/1999/xlink" contentStyleType="text/css" data-diagram-type="MINDMAP" height="304px" preserveAspectRatio="none" style="width:1012px;height:304px;background:#FFFFFF;" version="1.1" viewBox="0 0 1012 304" width="1012px" zoomAndPan="magnify"><defs/><g><rect fill="#FF5F46" height="36.4883" rx="12.5" ry="12.5" style="stroke:#FF5F46;stroke-width:3;" width="235.4072" x="10" y="132.9766"/><text fill="#FFFFFF" font-family="sans-serif" font-size="14" lengthAdjust="spacing" textLength="215.4072" x="20" y="156.5117">Standard Access Mode Libraries</text><rect fill="#0078D4" height="36.4883" rx="12.5" ry="12.5" style="stroke:#0078D4;stroke-width:3;" width="162.8779" x="295.4072" y="20"/><text fill="#FFFFFF" font-family="sans-serif" font-size="14" lengthAdjust="spacing" textLength="142.8779" x="305.4072" y="43.5352">Requires allowlist for</text><text fill="#000000" font-family="sans-serif" font-size="14" lengthAdjust="spacing" textLength="127.5039" x="511.2852" y="25.0469">Maven coordinates</text><path d="M458.2852,38.2441 L468.2852,38.2441 C483.2852,38.2441 483.2852,19.7559 498.2852,19.7559 L508.2852,19.7559" fill="none" style="stroke:#0078D4;stroke-width:3;"/><text fill="#000000" font-family="sans-serif" font-size="14" lengthAdjust="spacing" textLength="55.4736" x="511.2852" y="43.5352">JAR files</text><path d="M458.2852,38.2441 L468.2852,38.2441 C483.2852,38.2441 483.2852,38.2441 498.2852,38.2441 L508.2852,38.2441" fill="none" style="stroke:#0078D4;stroke-width:3;"/><text fill="#000000" font-family="sans-serif" font-size="14" lengthAdjust="spacing" textLength="71.7021" x="511.2852" y="62.0234">Init scripts</text><path d="M458.2852,38.2441 L468.2852,38.2441 C483.2852,38.2441 483.2852,56.7324 498.2852,56.7324 L508.2852,56.7324" fill="none" style="stroke:#0078D4;stroke-width:3;"/><path d="M245.4072,151.2207 L255.4072,151.2207 C270.4072,151.2207 270.4072,38.2441 285.4072,38.2441 L295.4072,38.2441" fill="none" style="stroke:#FF5F46;stroke-width:3;"/><rect fill="#0078D4" height="36.4883" rx="12.5" ry="12.5" style="stroke:#0078D4;stroke-width:3;" width="284.7012" x="295.4072" y="76.4883"/><text fill="#FFFFFF" font-family="sans-serif" font-size="14" lengthAdjust="spacing" textLength="264.7012" x="305.4072" y="100.0234">Allowlist managed by metastore admin</text><rect fill="#FFB900" height="36.4883" rx="12.5" ry="12.5" style="stroke:#FFB900;stroke-width:3;" width="150.2314" x="630.1084" y="76.4883"/><text fill="#000000" font-family="sans-serif" font-size="14" lengthAdjust="spacing" textLength="130.2314" x="640.1084" y="100.0234">In Catalog Explorer</text><text fill="#000000" font-family="sans-serif" font-size="14" lengthAdjust="spacing" textLength="125.7676" x="833.3398" y="90.7793">Metastore settings</text><path d="M780.3398,94.7324 L790.3398,94.7324 C805.3398,94.7324 805.3398,85.4883 820.3398,85.4883 L830.3398,85.4883" fill="none" style="stroke:#FFB900;stroke-width:3;"/><text fill="#000000" font-family="sans-serif" font-size="14" lengthAdjust="spacing" textLength="167.6309" x="833.3398" y="109.2676">Allowed JARs/Init Scripts</text><path d="M780.3398,94.7324 L790.3398,94.7324 C805.3398,94.7324 805.3398,103.9766 820.3398,103.9766 L830.3398,103.9766" fill="none" style="stroke:#FFB900;stroke-width:3;"/><path d="M580.1084,94.7324 L590.1084,94.7324 C605.1084,94.7324 605.1084,94.7324 620.1084,94.7324 L630.1084,94.7324" fill="none" style="stroke:#0078D4;stroke-width:3;"/><path d="M245.4072,151.2207 L255.4072,151.2207 C270.4072,151.2207 270.4072,94.7324 285.4072,94.7324 L295.4072,94.7324" fill="none" style="stroke:#FF5F46;stroke-width:3;"/><rect fill="#0078D4" height="36.4883" rx="12.5" ry="12.5" style="stroke:#0078D4;stroke-width:3;" width="134.6865" x="295.4072" y="132.9766"/><text fill="#FFFFFF" font-family="sans-serif" font-size="14" lengthAdjust="spacing" textLength="114.6865" x="305.4072" y="156.5117">Allowlist formats</text><text fill="#000000" font-family="sans-serif" font-size="14" lengthAdjust="spacing" textLength="222.4414" x="483.0938" y="138.0234">groupId:artifactId:version (exact)</text><path d="M430.0938,151.2207 L440.0938,151.2207 C455.0938,151.2207 455.0938,132.7324 470.0938,132.7324 L480.0938,132.7324" fill="none" style="stroke:#0078D4;stroke-width:3;"/><text fill="#000000" font-family="sans-serif" font-size="14" lengthAdjust="spacing" textLength="208.8789" x="483.0938" y="156.5117">groupId:artifactId (all versions)</text><path d="M430.0938,151.2207 L440.0938,151.2207 C455.0938,151.2207 455.0938,151.2207 470.0938,151.2207 L480.0938,151.2207" fill="none" style="stroke:#0078D4;stroke-width:3;"/><text fill="#000000" font-family="sans-serif" font-size="14" lengthAdjust="spacing" textLength="142.3584" x="483.0938" y="175">groupId (all artifacts)</text><path d="M430.0938,151.2207 L440.0938,151.2207 C455.0938,151.2207 455.0938,169.709 470.0938,169.709 L480.0938,169.709" fill="none" style="stroke:#0078D4;stroke-width:3;"/><path d="M245.4072,151.2207 L255.4072,151.2207 C270.4072,151.2207 270.4072,151.2207 285.4072,151.2207 L295.4072,151.2207" fill="none" style="stroke:#FF5F46;stroke-width:3;"/><rect fill="#0078D4" height="36.4883" rx="12.5" ry="12.5" style="stroke:#0078D4;stroke-width:3;" width="130.9678" x="295.4072" y="189.4648"/><text fill="#FFFFFF" font-family="sans-serif" font-size="14" lengthAdjust="spacing" textLength="110.9678" x="305.4072" y="213">Path allowlisting</text><text fill="#000000" font-family="sans-serif" font-size="14" lengthAdjust="spacing" textLength="106.8389" x="479.375" y="194.5117">Prefix matching</text><path d="M426.375,207.709 L436.375,207.709 C451.375,207.709 451.375,189.2207 466.375,189.2207 L476.375,189.2207" fill="none" style="stroke:#0078D4;stroke-width:3;"/><text fill="#000000" font-family="sans-serif" font-size="14" lengthAdjust="spacing" textLength="141.0938" x="479.375" y="213">Include trailing slash</text><path d="M426.375,207.709 L436.375,207.709 C451.375,207.709 451.375,207.709 466.375,207.709 L476.375,207.709" fill="none" style="stroke:#0078D4;stroke-width:3;"/><text fill="#000000" font-family="sans-serif" font-size="14" lengthAdjust="spacing" textLength="205.4678" x="479.375" y="231.4883">e.g. /Volumes/prod-libraries/</text><path d="M426.375,207.709 L436.375,207.709 C451.375,207.709 451.375,226.1973 466.375,226.1973 L476.375,226.1973" fill="none" style="stroke:#0078D4;stroke-width:3;"/><path d="M245.4072,151.2207 L255.4072,151.2207 C270.4072,151.2207 270.4072,207.709 285.4072,207.709 L295.4072,207.709" fill="none" style="stroke:#FF5F46;stroke-width:3;"/><rect fill="#0078D4" height="36.4883" rx="12.5" ry="12.5" style="stroke:#0078D4;stroke-width:3;" width="175.6816" x="295.4072" y="245.9531"/><text fill="#FFFFFF" font-family="sans-serif" font-size="14" lengthAdjust="spacing" textLength="155.6816" x="305.4072" y="269.4883">Allowlist &#8800; data access</text><text fill="#000000" font-family="sans-serif" font-size="14" lengthAdjust="spacing" textLength="244.2275" x="524.0889" y="269.4883">Still need READ VOLUME permission</text><path d="M471.0889,264.1973 L481.0889,264.1973 C496.0889,264.1973 496.0889,264.1973 511.0889,264.1973 L521.0889,264.1973" fill="none" style="stroke:#0078D4;stroke-width:3;"/><path d="M245.4072,151.2207 L255.4072,151.2207 C270.4072,151.2207 270.4072,264.1973 285.4072,264.1973 L295.4072,264.1973" fill="none" style="stroke:#FF5F46;stroke-width:3;"/><?plantuml-src VLFRRjD047ttLup4Ine9smsbG5MXXZQHWXfH9T1NDF6EarNNksPtKb9LV01_mRVrIphUnAaI2FDadtDcpbpiYy3ekT9MLLWdvu4V37rCpXJLlEZaH_2OWCGdBExctYsjkdJ6UNWr7BuTdfn6xbfR-XiTEiiRj8onrNvTwEBEKWZm9isJNwtNyK6lF7_t_kfatsiFtQswry4mnejNxw1NMSu-vFc-rnxwNwyyXdZDtCeqciU3YlDii-ukJ1cjGg-WNnHDqjWf4g-PHwyf9DqkJEZ7KdiAWCQudqO7Xj9vORhVOOptPA5mpYjjaME2m9_x4oYrQLz7LZE4mkkQOyN-jb255kUaOFO05J46Tfu0bNmLJQOamYKo6ZU7mQgM6IZwDiPRTI1cRUTXGyJQKb5Q25aqdlxBM2Qea3VzDOUeH-fClaTTOi7oU4y-Q6UXGoi1ZWxfe2DBWOquxChMNAkD9DmWBrxsA6slCsuybNebs-1YiGL7jZ1BEGPxr4PG20R3OirHEayXktLcML78Qk_KQzFUBDkTzEdt7r2oHC1uu7N-bBNqPaaMDHdqh-3so_MtyG1gyfKEpIp91LdL_fp9SThBUwTfxna0?></g></svg>