<?plantuml 1.2026.2?><svg xmlns="http://www.w3.org/2000/svg" xmlns:xlink="http://www.w3.org/1999/xlink" contentStyleType="text/css" data-diagram-type="MINDMAP" height="367px" preserveAspectRatio="none" style="width:722px;height:367px;background:#FFFFFF;" version="1.1" viewBox="0 0 722 367" width="722px" zoomAndPan="magnify"><defs/><g><rect fill="#FF5F46" height="36.4883" rx="12.5" ry="12.5" style="stroke:#FF5F46;stroke-width:3;" width="206.2383" x="10" y="164.3076"/><text fill="#FFFFFF" font-family="sans-serif" font-size="14" lengthAdjust="spacing" textLength="186.2383" x="20" y="187.8428">Compute Permission Levels</text><rect fill="#0078D4" height="36.4883" rx="12.5" ry="12.5" style="stroke:#0078D4;stroke-width:3;" width="133.791" x="266.2383" y="20"/><text fill="#FFFFFF" font-family="sans-serif" font-size="14" lengthAdjust="spacing" textLength="113.791" x="276.2383" y="43.5352">NO PERMISSIONS</text><text fill="#000000" font-family="sans-serif" font-size="14" lengthAdjust="spacing" textLength="186.416" x="453.0293" y="34.291">Cannot see or use compute</text><path d="M400.0293,38.2441 L410.0293,38.2441 C425.0293,38.2441 425.0293,29 440.0293,29 L450.0293,29" fill="none" style="stroke:#0078D4;stroke-width:3;"/><text fill="#000000" font-family="sans-serif" font-size="14" lengthAdjust="spacing" textLength="86.707" x="453.0293" y="52.7793">Default state</text><path d="M400.0293,38.2441 L410.0293,38.2441 C425.0293,38.2441 425.0293,47.4883 440.0293,47.4883 L450.0293,47.4883" fill="none" style="stroke:#0078D4;stroke-width:3;"/><path d="M216.2383,182.5518 L226.2383,182.5518 C241.2383,182.5518 241.2383,38.2441 256.2383,38.2441 L266.2383,38.2441" fill="none" style="stroke:#FF5F46;stroke-width:3;"/><rect fill="#0078D4" height="36.4883" rx="12.5" ry="12.5" style="stroke:#0078D4;stroke-width:3;" width="135.2744" x="266.2383" y="76.4883"/><text fill="#FFFFFF" font-family="sans-serif" font-size="14" lengthAdjust="spacing" textLength="115.2744" x="276.2383" y="100.0234">CAN ATTACH TO</text><text fill="#000000" font-family="sans-serif" font-size="14" lengthAdjust="spacing" textLength="119.8066" x="454.5127" y="72.291">Attach notebooks</text><path d="M401.5127,94.7324 L411.5127,94.7324 C426.5127,94.7324 426.5127,67 441.5127,67 L451.5127,67" fill="none" style="stroke:#0078D4;stroke-width:3;"/><text fill="#000000" font-family="sans-serif" font-size="14" lengthAdjust="spacing" textLength="92.374" x="454.5127" y="90.7793">View Spark UI</text><path d="M401.5127,94.7324 L411.5127,94.7324 C426.5127,94.7324 426.5127,85.4883 441.5127,85.4883 L451.5127,85.4883" fill="none" style="stroke:#0078D4;stroke-width:3;"/><text fill="#000000" font-family="sans-serif" font-size="14" lengthAdjust="spacing" textLength="150.2129" x="454.5127" y="109.2676">View compute metrics</text><path d="M401.5127,94.7324 L411.5127,94.7324 C426.5127,94.7324 426.5127,103.9766 441.5127,103.9766 L451.5127,103.9766" fill="none" style="stroke:#0078D4;stroke-width:3;"/><text fill="#000000" font-family="sans-serif" font-size="14" lengthAdjust="spacing" textLength="173.1953" x="454.5127" y="127.7559">Cannot start/stop/restart</text><path d="M401.5127,94.7324 L411.5127,94.7324 C426.5127,94.7324 426.5127,122.4648 441.5127,122.4648 L451.5127,122.4648" fill="none" style="stroke:#0078D4;stroke-width:3;"/><path d="M216.2383,182.5518 L226.2383,182.5518 C241.2383,182.5518 241.2383,94.7324 256.2383,94.7324 L266.2383,94.7324" fill="none" style="stroke:#FF5F46;stroke-width:3;"/><rect fill="#0078D4" height="36.4883" rx="12.5" ry="12.5" style="stroke:#0078D4;stroke-width:3;" width="114.3154" x="266.2383" y="141.1973"/><text fill="#FFFFFF" font-family="sans-serif" font-size="14" lengthAdjust="spacing" textLength="94.3154" x="276.2383" y="164.7324">CAN RESTART</text><text fill="#000000" font-family="sans-serif" font-size="14" lengthAdjust="spacing" textLength="207.9355" x="433.5537" y="146.2441">Everything in CAN ATTACH TO</text><path d="M380.5537,159.4414 L390.5537,159.4414 C405.5537,159.4414 405.5537,140.9531 420.5537,140.9531 L430.5537,140.9531" fill="none" style="stroke:#0078D4;stroke-width:3;"/><text fill="#000000" font-family="sans-serif" font-size="14" lengthAdjust="spacing" textLength="189.2598" x="433.5537" y="164.7324">Can terminate, start, restart</text><path d="M380.5537,159.4414 L390.5537,159.4414 C405.5537,159.4414 405.5537,159.4414 420.5537,159.4414 L430.5537,159.4414" fill="none" style="stroke:#0078D4;stroke-width:3;"/><text fill="#000000" font-family="sans-serif" font-size="14" lengthAdjust="spacing" textLength="197.4014" x="433.5537" y="183.2207">Cannot change configuration</text><path d="M380.5537,159.4414 L390.5537,159.4414 C405.5537,159.4414 405.5537,177.9297 420.5537,177.9297 L430.5537,177.9297" fill="none" style="stroke:#0078D4;stroke-width:3;"/><path d="M216.2383,182.5518 L226.2383,182.5518 C241.2383,182.5518 241.2383,159.4414 256.2383,159.4414 L266.2383,159.4414" fill="none" style="stroke:#FF5F46;stroke-width:3;"/><rect fill="#0078D4" height="36.4883" rx="12.5" ry="12.5" style="stroke:#0078D4;stroke-width:3;" width="113.543" x="266.2383" y="224.9063"/><text fill="#FFFFFF" font-family="sans-serif" font-size="14" lengthAdjust="spacing" textLength="93.543" x="276.2383" y="248.4414">CAN MANAGE</text><text fill="#000000" font-family="sans-serif" font-size="14" lengthAdjust="spacing" textLength="76.7881" x="432.7813" y="202.2207">Full control</text><path d="M379.7813,243.1504 L389.7813,243.1504 C404.7813,243.1504 404.7813,196.9297 419.7813,196.9297 L429.7813,196.9297" fill="none" style="stroke:#0078D4;stroke-width:3;"/><text fill="#000000" font-family="sans-serif" font-size="14" lengthAdjust="spacing" textLength="121.2148" x="432.7813" y="220.709">Edit configuration</text><path d="M379.7813,243.1504 L389.7813,243.1504 C404.7813,243.1504 404.7813,215.418 419.7813,215.418 L429.7813,215.418" fill="none" style="stroke:#0078D4;stroke-width:3;"/><text fill="#000000" font-family="sans-serif" font-size="14" lengthAdjust="spacing" textLength="103.2295" x="432.7813" y="239.1973">Attach libraries</text><path d="M379.7813,243.1504 L389.7813,243.1504 C404.7813,243.1504 404.7813,233.9063 419.7813,233.9063 L429.7813,233.9063" fill="none" style="stroke:#0078D4;stroke-width:3;"/><text fill="#000000" font-family="sans-serif" font-size="14" lengthAdjust="spacing" textLength="93.8984" x="432.7813" y="257.6855">Resize cluster</text><path d="M379.7813,243.1504 L389.7813,243.1504 C404.7813,243.1504 404.7813,252.3945 419.7813,252.3945 L429.7813,252.3945" fill="none" style="stroke:#0078D4;stroke-width:3;"/><text fill="#000000" font-family="sans-serif" font-size="14" lengthAdjust="spacing" textLength="183.4355" x="432.7813" y="276.1738">Modify others' permissions</text><path d="M379.7813,243.1504 L389.7813,243.1504 C404.7813,243.1504 404.7813,270.8828 419.7813,270.8828 L429.7813,270.8828" fill="none" style="stroke:#0078D4;stroke-width:3;"/><text fill="#000000" font-family="sans-serif" font-size="14" lengthAdjust="spacing" textLength="277.8672" x="432.7813" y="294.6621">Workspace admins get this automatically</text><path d="M379.7813,243.1504 L389.7813,243.1504 C404.7813,243.1504 404.7813,289.3711 419.7813,289.3711 L429.7813,289.3711" fill="none" style="stroke:#0078D4;stroke-width:3;"/><path d="M216.2383,182.5518 L226.2383,182.5518 C241.2383,182.5518 241.2383,243.1504 256.2383,243.1504 L266.2383,243.1504" fill="none" style="stroke:#FF5F46;stroke-width:3;"/><rect fill="#0078D4" height="36.4883" rx="12.5" ry="12.5" style="stroke:#0078D4;stroke-width:3;" width="135.418" x="266.2383" y="308.6152"/><text fill="#FFFFFF" font-family="sans-serif" font-size="14" lengthAdjust="spacing" textLength="115.418" x="276.2383" y="332.1504">Driver log access</text><text fill="#000000" font-family="sans-serif" font-size="14" lengthAdjust="spacing" textLength="184.6182" x="454.6563" y="313.6621">Default: CAN MANAGE only</text><path d="M401.6563,326.8594 L411.6563,326.8594 C426.6563,326.8594 426.6563,308.3711 441.6563,308.3711 L451.6563,308.3711" fill="none" style="stroke:#0078D4;stroke-width:3;"/><text fill="#000000" font-family="sans-serif" font-size="14" lengthAdjust="spacing" textLength="171.5068" x="454.6563" y="332.1504">Logs may contain secrets</text><path d="M401.6563,326.8594 L411.6563,326.8594 C426.6563,326.8594 426.6563,326.8594 441.6563,326.8594 L451.6563,326.8594" fill="none" style="stroke:#0078D4;stroke-width:3;"/><text fill="#000000" font-family="sans-serif" font-size="14" lengthAdjust="spacing" textLength="216.043" x="454.6563" y="350.6387">Configurable via Spark property</text><path d="M401.6563,326.8594 L411.6563,326.8594 C426.6563,326.8594 426.6563,345.3477 441.6563,345.3477 L451.6563,345.3477" fill="none" style="stroke:#0078D4;stroke-width:3;"/><path d="M216.2383,182.5518 L226.2383,182.5518 C241.2383,182.5518 241.2383,326.8594 256.2383,326.8594 L266.2383,326.8594" fill="none" style="stroke:#FF5F46;stroke-width:3;"/><?plantuml-src VLDRRzCm57xFhpWI3q0rTLaP0wO9BNGDLEfbQWCy8jSvIQmwTcIV5CB4VyUvhMj7yLk-S_nTpd5kBJ53kL1npWhlnb8byQDt7MD1sIl_DJnuuCudnhUfqQMAnrfg0o_2y6ruUTNKPaBXSpJKYZeqQSvZRvG9lbLeBRmP-jwVNklYf9Rlltj_TtciTOGUiXuv29kprngTr4gIpGVVFzOwGl-hvJV7QMtqBrdtF9pik3dlnZs0iSwBaX3kqUJ2Mg4Lp727qdg30IoMS3zPpQVhzNIvM3jay0F6J2bDO171SPOMWRSKRVaE4rPALoVMG30E5X14KJ3-0j6oxGc86C_0qU16wwrjqMy2VyAwO6OBNwTFe8uUSYGZk3rqKRyX5qONvmQRZrvoDLb7mIfgkoSxD1LbGgKWrBySEJgWUWBAkJvhQSzWJxbNv1bJQPrP9I8j3ICtiLvp7Yo2pvEsFIobhBl8QDcPY0KzkxUVXXGRmup0Bk0AhVZjT6HfdR4Mc-jO91Leoj3Obr0yhgoxyrsRhIqOHs2nYs8XHG8Nsm8hIUTEapCfgzhkdH5k9Y1r2enpzreEjdVz90verLnnrPbEBUIiQd8nDqcBt23rA-cZRIJ2Jh1kbuNHpYXLtYsgkF_TlOlXo1zT3KT_0G00?></g></svg>