<?plantuml 1.2026.2?><svg xmlns="http://www.w3.org/2000/svg" xmlns:xlink="http://www.w3.org/1999/xlink" contentStyleType="text/css" data-diagram-type="MINDMAP" height="435px" preserveAspectRatio="none" style="width:859px;height:435px;background:#FFFFFF;" version="1.1" viewBox="0 0 859 435" width="859px" zoomAndPan="magnify"><defs/><g><rect fill="#FF5F46" height="36.4883" rx="12.5" ry="12.5" style="stroke:#FF5F46;stroke-width:3;" width="226.4727" x="10" y="198.709"/><text fill="#FFFFFF" font-family="sans-serif" font-size="14" lengthAdjust="spacing" textLength="206.4727" x="20" y="222.2441">Dedicated Group Access Mode</text><rect fill="#0078D4" height="36.4883" rx="12.5" ry="12.5" style="stroke:#0078D4;stroke-width:3;" width="281.167" x="286.4727" y="20"/><text fill="#FFFFFF" font-family="sans-serif" font-size="14" lengthAdjust="spacing" textLength="261.167" x="296.4727" y="43.5352">Assigns compute to single user/group</text><path d="M236.4727,216.9531 L246.4727,216.9531 C261.4727,216.9531 261.4727,38.2441 276.4727,38.2441 L286.4727,38.2441" fill="none" style="stroke:#FF5F46;stroke-width:3;"/><rect fill="#0078D4" height="36.4883" rx="12.5" ry="12.5" style="stroke:#0078D4;stroke-width:3;" width="151.6055" x="286.4727" y="76.4883"/><text fill="#FFFFFF" font-family="sans-serif" font-size="14" lengthAdjust="spacing" textLength="131.6055" x="296.4727" y="100.0234">Permission scoping</text><text fill="#000000" font-family="sans-serif" font-size="14" lengthAdjust="spacing" textLength="251.3643" x="491.0781" y="81.5352">User's permissions reduce to group's</text><path d="M438.0781,94.7324 L448.0781,94.7324 C463.0781,94.7324 463.0781,76.2441 478.0781,76.2441 L488.0781,76.2441" fill="none" style="stroke:#0078D4;stroke-width:3;"/><text fill="#000000" font-family="sans-serif" font-size="14" lengthAdjust="spacing" textLength="192.6777" x="491.0781" y="100.0234">Prevents privilege escalation</text><path d="M438.0781,94.7324 L448.0781,94.7324 C463.0781,94.7324 463.0781,94.7324 478.0781,94.7324 L488.0781,94.7324" fill="none" style="stroke:#0078D4;stroke-width:3;"/><text fill="#000000" font-family="sans-serif" font-size="14" lengthAdjust="spacing" textLength="239.0117" x="491.0781" y="118.5117">Enables secure group collaboration</text><path d="M438.0781,94.7324 L448.0781,94.7324 C463.0781,94.7324 463.0781,113.2207 478.0781,113.2207 L488.0781,113.2207" fill="none" style="stroke:#0078D4;stroke-width:3;"/><path d="M236.4727,216.9531 L246.4727,216.9531 C261.4727,216.9531 261.4727,94.7324 276.4727,94.7324 L286.4727,94.7324" fill="none" style="stroke:#FF5F46;stroke-width:3;"/><rect fill="#0078D4" height="36.4883" rx="12.5" ry="12.5" style="stroke:#0078D4;stroke-width:3;" width="80.5527" x="286.4727" y="132.9766"/><text fill="#FFFFFF" font-family="sans-serif" font-size="14" lengthAdjust="spacing" textLength="60.5527" x="296.4727" y="156.5117">Supports</text><text fill="#000000" font-family="sans-serif" font-size="14" lengthAdjust="spacing" textLength="157.0283" x="420.0254" y="138.0234">Databricks Runtime ML</text><path d="M367.0254,151.2207 L377.0254,151.2207 C392.0254,151.2207 392.0254,132.7324 407.0254,132.7324 L417.0254,132.7324" fill="none" style="stroke:#0078D4;stroke-width:3;"/><text fill="#000000" font-family="sans-serif" font-size="14" lengthAdjust="spacing" textLength="62.8223" x="420.0254" y="156.5117">RDD APIs</text><path d="M367.0254,151.2207 L377.0254,151.2207 C392.0254,151.2207 392.0254,151.2207 407.0254,151.2207 L417.0254,151.2207" fill="none" style="stroke:#0078D4;stroke-width:3;"/><text fill="#000000" font-family="sans-serif" font-size="14" lengthAdjust="spacing" textLength="75.4277" x="420.0254" y="175">R language</text><path d="M367.0254,151.2207 L377.0254,151.2207 C392.0254,151.2207 392.0254,169.709 407.0254,169.709 L417.0254,169.709" fill="none" style="stroke:#0078D4;stroke-width:3;"/><path d="M236.4727,216.9531 L246.4727,216.9531 C261.4727,216.9531 261.4727,151.2207 276.4727,151.2207 L286.4727,151.2207" fill="none" style="stroke:#FF5F46;stroke-width:3;"/><rect fill="#0078D4" height="36.4883" rx="12.5" ry="12.5" style="stroke:#0078D4;stroke-width:3;" width="113.6592" x="286.4727" y="189.4648"/><text fill="#FFFFFF" font-family="sans-serif" font-size="14" lengthAdjust="spacing" textLength="93.6592" x="296.4727" y="213">Requirements</text><text fill="#000000" font-family="sans-serif" font-size="14" lengthAdjust="spacing" textLength="149.2969" x="453.1318" y="194.5117">Unity Catalog enabled</text><path d="M400.1318,207.709 L410.1318,207.709 C425.1318,207.709 425.1318,189.2207 440.1318,189.2207 L450.1318,189.2207" fill="none" style="stroke:#0078D4;stroke-width:3;"/><text fill="#000000" font-family="sans-serif" font-size="14" lengthAdjust="spacing" textLength="179.6211" x="453.1318" y="213">Databricks Runtime 15.4+</text><path d="M400.1318,207.709 L410.1318,207.709 C425.1318,207.709 425.1318,207.709 440.1318,207.709 L450.1318,207.709" fill="none" style="stroke:#0078D4;stroke-width:3;"/><text fill="#000000" font-family="sans-serif" font-size="14" lengthAdjust="spacing" textLength="327.2432" x="453.1318" y="231.4883">Group needs CAN MANAGE on workspace folder</text><path d="M400.1318,207.709 L410.1318,207.709 C425.1318,207.709 425.1318,226.1973 440.1318,226.1973 L450.1318,226.1973" fill="none" style="stroke:#0078D4;stroke-width:3;"/><path d="M236.4727,216.9531 L246.4727,216.9531 C261.4727,216.9531 261.4727,207.709 276.4727,207.709 L286.4727,207.709" fill="none" style="stroke:#FF5F46;stroke-width:3;"/><rect fill="#0078D4" height="36.4883" rx="12.5" ry="12.5" style="stroke:#0078D4;stroke-width:3;" width="172.209" x="286.4727" y="245.9531"/><text fill="#FFFFFF" font-family="sans-serif" font-size="14" lengthAdjust="spacing" textLength="152.209" x="296.4727" y="269.4883">Data object ownership</text><text fill="#000000" font-family="sans-serif" font-size="14" lengthAdjust="spacing" textLength="267.9277" x="511.6816" y="260.2441">Objects owned by group, not individual</text><path d="M458.6816,264.1973 L468.6816,264.1973 C483.6816,264.1973 483.6816,254.9531 498.6816,254.9531 L508.6816,254.9531" fill="none" style="stroke:#0078D4;stroke-width:3;"/><text fill="#000000" font-family="sans-serif" font-size="14" lengthAdjust="spacing" textLength="257.9541" x="511.6816" y="278.7324">e.g. CREATE SCHEMA owned by group</text><path d="M458.6816,264.1973 L468.6816,264.1973 C483.6816,264.1973 483.6816,273.4414 498.6816,273.4414 L508.6816,273.4414" fill="none" style="stroke:#0078D4;stroke-width:3;"/><path d="M236.4727,216.9531 L246.4727,216.9531 C261.4727,216.9531 261.4727,264.1973 276.4727,264.1973 L286.4727,264.1973" fill="none" style="stroke:#FF5F46;stroke-width:3;"/><rect fill="#0078D4" height="36.4883" rx="12.5" ry="12.5" style="stroke:#0078D4;stroke-width:3;" width="58.0762" x="286.4727" y="339.9297"/><text fill="#FFFFFF" font-family="sans-serif" font-size="14" lengthAdjust="spacing" textLength="38.0762" x="296.4727" y="363.4648">Setup</text><rect fill="#FFB900" height="36.4883" rx="12.5" ry="12.5" style="stroke:#FFB900;stroke-width:3;" width="127.7891" x="394.5488" y="302.4414"/><text fill="#000000" font-family="sans-serif" font-size="14" lengthAdjust="spacing" textLength="107.7891" x="404.5488" y="325.9766">Create compute</text><text fill="#000000" font-family="sans-serif" font-size="14" lengthAdjust="spacing" textLength="165.5391" x="575.3379" y="325.9766">Access mode: Dedicated</text><path d="M522.3379,320.6855 L532.3379,320.6855 C547.3379,320.6855 547.3379,320.6855 562.3379,320.6855 L572.3379,320.6855" fill="none" style="stroke:#FFB900;stroke-width:3;"/><path d="M344.5488,358.1738 L354.5488,358.1738 C369.5488,358.1738 369.5488,320.6855 384.5488,320.6855 L394.5488,320.6855" fill="none" style="stroke:#0078D4;stroke-width:3;"/><text fill="#000000" font-family="sans-serif" font-size="14" lengthAdjust="spacing" textLength="260.8184" x="397.5488" y="363.4648">Assign group in "Single user or group"</text><path d="M344.5488,358.1738 L354.5488,358.1738 C369.5488,358.1738 369.5488,358.1738 384.5488,358.1738 L394.5488,358.1738" fill="none" style="stroke:#0078D4;stroke-width:3;"/><rect fill="#FFB900" height="36.4883" rx="12.5" ry="12.5" style="stroke:#FFB900;stroke-width:3;" width="153.5332" x="394.5488" y="377.418"/><text fill="#000000" font-family="sans-serif" font-size="14" lengthAdjust="spacing" textLength="133.5332" x="404.5488" y="400.9531">Create group folder</text><text fill="#000000" font-family="sans-serif" font-size="14" lengthAdjust="spacing" textLength="246.0049" x="601.082" y="391.709">/Workspace/Groups/&lt;groupName&gt;</text><path d="M548.082,395.6621 L558.082,395.6621 C573.082,395.6621 573.082,386.418 588.082,386.418 L598.082,386.418" fill="none" style="stroke:#FFB900;stroke-width:3;"/><text fill="#000000" font-family="sans-serif" font-size="14" lengthAdjust="spacing" textLength="198.7275" x="601.082" y="410.1973">Grant CAN MANAGE to group</text><path d="M548.082,395.6621 L558.082,395.6621 C573.082,395.6621 573.082,404.9063 588.082,404.9063 L598.082,404.9063" fill="none" style="stroke:#FFB900;stroke-width:3;"/><path d="M344.5488,358.1738 L354.5488,358.1738 C369.5488,358.1738 369.5488,395.6621 384.5488,395.6621 L394.5488,395.6621" fill="none" style="stroke:#0078D4;stroke-width:3;"/><path d="M236.4727,216.9531 L246.4727,216.9531 C261.4727,216.9531 261.4727,358.1738 276.4727,358.1738 L286.4727,358.1738" fill="none" style="stroke:#FF5F46;stroke-width:3;"/><?plantuml-src VLHHRzCm47xFhpYDXq51QTfr0wOABQJDG5fBrGxnY9pucfewTh2TZMhYl-FOQJk2Yf-Yk---x-xpnJVQ46LA9cX9gc2ipOxZX-2QOcKsBwDNy1I0FHz9lYsKh0LD99SANgJfPJgwShax9l3VQ2g5QQDhTmxO-mtBjmArXeim2dxljGOdjQBexRl9gAlLYVxDskaWTUUeDJofjLvdxwEegzM9_bShSiTgPV8NRp1F9n7ZVcjt3oP8MKuCKhYrxLGGvtbJEvCKWruFOgrP8JJaigngWs0aQ2OAZb1hLFrcXAh1BL2Lp6Ab09tBoa9ijFSTlbhKkORgaDQWaDQvOtBLvzeZ5meVK1YBLUo1SImGKEU44sEhF6GgI6Od0urvhT2Nsyuu9vbKUnoiwggIohIq4s98fgnj6fQrCAn4cDtvr78oWNZnkGKkWHDHrAHmSo_nPyqKbar7xII2cHqabexB0j2rGazg32x3qMkVzRuAHAeXYUSmY-VnxHIiKuzIRNL5h1bhoIcgHhZX0fdzmDo0V1Iez8PLdkYBYseNff3jl05lG4W3zZUohj6QS8_5i0WXMKxZ-ociaa_JMTmfSqwXSHyzI1JQ7TZVSXEo7Eqgb7OLhezxuldzNhHNm0IShOvR0NRNNEBiERU77WPjIFhVzWRqdKcwFtQeEIcRtMpT8y8yzss_Dy4DsgUZVJw2GJYCXbVXy0y0?></g></svg>