<?plantuml 1.2026.2?><svg xmlns="http://www.w3.org/2000/svg" xmlns:xlink="http://www.w3.org/1999/xlink" contentStyleType="text/css" data-diagram-type="MINDMAP" height="247px" preserveAspectRatio="none" style="width:597px;height:247px;background:#FFFFFF;" version="1.1" viewBox="0 0 597 247" width="597px" zoomAndPan="magnify"><defs/><g><rect fill="#FF5F46" height="52.9766" rx="12.5" ry="12.5" style="stroke:#FF5F46;stroke-width:3;" width="108.1289" x="10" y="96.4883"/><text fill="#FFFFFF" font-family="sans-serif" font-size="14" lengthAdjust="spacing" textLength="72.126" x="20" y="120.0234">Repository</text><text fill="#FFFFFF" font-family="sans-serif" font-size="14" lengthAdjust="spacing" textLength="88.1289" x="20" y="136.5117">Organization</text><rect fill="#0078D4" height="36.4883" rx="12.5" ry="12.5" style="stroke:#0078D4;stroke-width:3;" width="86.0352" x="168.1289" y="20"/><text fill="#FFFFFF" font-family="sans-serif" font-size="14" lengthAdjust="spacing" textLength="66.0352" x="178.1289" y="43.5352">.gitignore</text><text fill="#000000" font-family="sans-serif" font-size="14" lengthAdjust="spacing" textLength="148.8662" x="307.1641" y="25.0469">Exclude temp outputs</text><path d="M254.1641,38.2441 L264.1641,38.2441 C279.1641,38.2441 279.1641,19.7559 294.1641,19.7559 L304.1641,19.7559" fill="none" style="stroke:#0078D4;stroke-width:3;"/><text fill="#000000" font-family="sans-serif" font-size="14" lengthAdjust="spacing" textLength="131.3184" x="307.1641" y="43.5352">Exclude credentials</text><path d="M254.1641,38.2441 L264.1641,38.2441 C279.1641,38.2441 279.1641,38.2441 294.1641,38.2441 L304.1641,38.2441" fill="none" style="stroke:#0078D4;stroke-width:3;"/><text fill="#000000" font-family="sans-serif" font-size="14" lengthAdjust="spacing" textLength="219.7891" x="307.1641" y="62.0234">Explicit removal for tracked files</text><path d="M254.1641,38.2441 L264.1641,38.2441 C279.1641,38.2441 279.1641,56.7324 294.1641,56.7324 L304.1641,56.7324" fill="none" style="stroke:#0078D4;stroke-width:3;"/><path d="M118.1289,122.9766 L128.1289,122.9766 C143.1289,122.9766 143.1289,38.2441 158.1289,38.2441 L168.1289,38.2441" fill="none" style="stroke:#FF5F46;stroke-width:3;"/><rect fill="#0078D4" height="36.4883" rx="12.5" ry="12.5" style="stroke:#0078D4;stroke-width:3;" width="128.7393" x="168.1289" y="76.4883"/><text fill="#FFFFFF" font-family="sans-serif" font-size="14" lengthAdjust="spacing" textLength="108.7393" x="178.1289" y="100.0234">Folder Structure</text><text fill="#000000" font-family="sans-serif" font-size="14" lengthAdjust="spacing" textLength="205.1328" x="349.8682" y="90.7793">Group related notebooks/files</text><path d="M296.8682,94.7324 L306.8682,94.7324 C321.8682,94.7324 321.8682,85.4883 336.8682,85.4883 L346.8682,85.4883" fill="none" style="stroke:#0078D4;stroke-width:3;"/><text fill="#000000" font-family="sans-serif" font-size="14" lengthAdjust="spacing" textLength="158.8945" x="349.8682" y="109.2676">Logical depth hierarchy</text><path d="M296.8682,94.7324 L306.8682,94.7324 C321.8682,94.7324 321.8682,103.9766 336.8682,103.9766 L346.8682,103.9766" fill="none" style="stroke:#0078D4;stroke-width:3;"/><path d="M118.1289,122.9766 L128.1289,122.9766 C143.1289,122.9766 143.1289,94.7324 158.1289,94.7324 L168.1289,94.7324" fill="none" style="stroke:#FF5F46;stroke-width:3;"/><rect fill="#0078D4" height="36.4883" rx="12.5" ry="12.5" style="stroke:#0078D4;stroke-width:3;" width="125.1572" x="168.1289" y="132.9766"/><text fill="#FFFFFF" font-family="sans-serif" font-size="14" lengthAdjust="spacing" textLength="105.1572" x="178.1289" y="156.5117">Branch Hygiene</text><text fill="#000000" font-family="sans-serif" font-size="14" lengthAdjust="spacing" textLength="239.5654" x="346.2861" y="147.2676">Remove stale branches after merge</text><path d="M293.2861,151.2207 L303.2861,151.2207 C318.2861,151.2207 318.2861,141.9766 333.2861,141.9766 L343.2861,141.9766" fill="none" style="stroke:#0078D4;stroke-width:3;"/><text fill="#000000" font-family="sans-serif" font-size="14" lengthAdjust="spacing" textLength="213.5137" x="346.2861" y="165.7559">Local branches: persist 30 days</text><path d="M293.2861,151.2207 L303.2861,151.2207 C318.2861,151.2207 318.2861,160.4648 333.2861,160.4648 L343.2861,160.4648" fill="none" style="stroke:#0078D4;stroke-width:3;"/><path d="M118.1289,122.9766 L128.1289,122.9766 C143.1289,122.9766 143.1289,151.2207 158.1289,151.2207 L168.1289,151.2207" fill="none" style="stroke:#FF5F46;stroke-width:3;"/><rect fill="#0078D4" height="36.4883" rx="12.5" ry="12.5" style="stroke:#0078D4;stroke-width:3;" width="92.8438" x="168.1289" y="189.4648"/><text fill="#FFFFFF" font-family="sans-serif" font-size="14" lengthAdjust="spacing" textLength="72.8438" x="178.1289" y="213">Size Limits</text><text fill="#000000" font-family="sans-serif" font-size="14" lengthAdjust="spacing" textLength="181.3301" x="313.9727" y="194.5117">Working branch: max 1 GB</text><path d="M260.9727,207.709 L270.9727,207.709 C285.9727,207.709 285.9727,189.2207 300.9727,189.2207 L310.9727,189.2207" fill="none" style="stroke:#0078D4;stroke-width:3;"/><text fill="#000000" font-family="sans-serif" font-size="14" lengthAdjust="spacing" textLength="128.1055" x="313.9727" y="213">Max 20,000 assets</text><path d="M260.9727,207.709 L270.9727,207.709 C285.9727,207.709 285.9727,207.709 300.9727,207.709 L310.9727,207.709" fill="none" style="stroke:#0078D4;stroke-width:3;"/><text fill="#000000" font-family="sans-serif" font-size="14" lengthAdjust="spacing" textLength="215.5918" x="313.9727" y="231.4883">Sparse checkout for large repos</text><path d="M260.9727,207.709 L270.9727,207.709 C285.9727,207.709 285.9727,226.1973 300.9727,226.1973 L310.9727,226.1973" fill="none" style="stroke:#0078D4;stroke-width:3;"/><path d="M118.1289,122.9766 L128.1289,122.9766 C143.1289,122.9766 143.1289,207.709 158.1289,207.709 L168.1289,207.709" fill="none" style="stroke:#FF5F46;stroke-width:3;"/><?plantuml-src VLF1RjGm4BtdAqRY0YkqzQQbmAf2rG8fXoAaBX8N9EHr9iaeZXtP4xHfnRyp2KbHWvQvUURDUy_FoNLa7RWXbpUwJQuYznRV9TiSMwwUgnVma83KJfkw3Bvp-NjlVO1dMVOgkxWSPxVayDzkvXrFtMAiH-pNYapjC4OuNwlarworEQcbrEit7owMMelkKzQ5WsoilrhfIQsYEBnLQgcrwFvNIuqbMWT_j0FcuIJYwcoAUmLtsFf8x4F_tNq9fNPqhvcyIrOhM9V4L3eVK4wh7_3nQ6oN8p0sBVYEsuxZqua9cADZqlPnq5eon12myJ-rXKACS93ROmu5YSz1AFCsnm1x3ftXRfQxaNnQMRIQ1Umyuy7xEfxDQmAvzIKPOHtJXOemw62gVk3S1UrC1P_waj1DZ7U32GJvyYp2OGHW15smY3SOIfnP1yvvleKMGwJ8SAuWr_teU4_tA4_Iq9p0DnzgSkMqjOL67s43Dxi_qyzoIjLBIHzqZ3WlxLiTegHMeQabpp4SgyM7t5gU9Rb6-JkcFoJPh5ELNgxJtm00?></g></svg>