<?plantuml 1.2026.2?><svg xmlns="http://www.w3.org/2000/svg" xmlns:xlink="http://www.w3.org/1999/xlink" contentStyleType="text/css" data-diagram-type="MINDMAP" height="247px" preserveAspectRatio="none" style="width:593px;height:247px;background:#FFFFFF;" version="1.1" viewBox="0 0 593 247" width="593px" zoomAndPan="magnify"><defs/><g><rect fill="#FF5F46" height="36.4883" rx="12.5" ry="12.5" style="stroke:#FF5F46;stroke-width:3;" width="107.4111" x="10" y="104.7324"/><text fill="#FFFFFF" font-family="sans-serif" font-size="14" lengthAdjust="spacing" textLength="87.4111" x="20" y="128.2676">Pull Changes</text><rect fill="#0078D4" height="36.4883" rx="12.5" ry="12.5" style="stroke:#0078D4;stroke-width:3;" width="82.8359" x="167.4111" y="20"/><text fill="#FFFFFF" font-family="sans-serif" font-size="14" lengthAdjust="spacing" textLength="62.8359" x="177.4111" y="43.5352">Why Pull?</text><text fill="#000000" font-family="sans-serif" font-size="14" lengthAdjust="spacing" textLength="180.9883" x="303.2471" y="25.0469">Get latest from teammates</text><path d="M250.2471,38.2441 L260.2471,38.2441 C275.2471,38.2441 275.2471,19.7559 290.2471,19.7559 L300.2471,19.7559" fill="none" style="stroke:#0078D4;stroke-width:3;"/><text fill="#000000" font-family="sans-serif" font-size="14" lengthAdjust="spacing" textLength="187.1201" x="303.2471" y="43.5352">Minimize integration issues</text><path d="M250.2471,38.2441 L260.2471,38.2441 C275.2471,38.2441 275.2471,38.2441 290.2471,38.2441 L300.2471,38.2441" fill="none" style="stroke:#0078D4;stroke-width:3;"/><text fill="#000000" font-family="sans-serif" font-size="14" lengthAdjust="spacing" textLength="210.8477" x="303.2471" y="62.0234">Stay up-to-date with codebase</text><path d="M250.2471,38.2441 L260.2471,38.2441 C275.2471,38.2441 275.2471,56.7324 290.2471,56.7324 L300.2471,56.7324" fill="none" style="stroke:#0078D4;stroke-width:3;"/><path d="M117.4111,122.9766 L127.4111,122.9766 C142.4111,122.9766 142.4111,38.2441 157.4111,38.2441 L167.4111,38.2441" fill="none" style="stroke:#FF5F46;stroke-width:3;"/><rect fill="#0078D4" height="36.4883" rx="12.5" ry="12.5" style="stroke:#0078D4;stroke-width:3;" width="96.8906" x="167.4111" y="76.4883"/><text fill="#FFFFFF" font-family="sans-serif" font-size="14" lengthAdjust="spacing" textLength="76.8906" x="177.4111" y="100.0234">How to Pull</text><text fill="#000000" font-family="sans-serif" font-size="14" lengthAdjust="spacing" textLength="106.4014" x="317.3018" y="81.5352">Open Git dialog</text><path d="M264.3018,94.7324 L274.3018,94.7324 C289.3018,94.7324 289.3018,76.2441 304.3018,76.2441 L314.3018,76.2441" fill="none" style="stroke:#0078D4;stroke-width:3;"/><text fill="#000000" font-family="sans-serif" font-size="14" lengthAdjust="spacing" textLength="68.5439" x="317.3018" y="100.0234">Select Pull</text><path d="M264.3018,94.7324 L274.3018,94.7324 C289.3018,94.7324 289.3018,94.7324 304.3018,94.7324 L314.3018,94.7324" fill="none" style="stroke:#0078D4;stroke-width:3;"/><text fill="#000000" font-family="sans-serif" font-size="14" lengthAdjust="spacing" textLength="154.9434" x="317.3018" y="118.5117">Resolve conflicts if any</text><path d="M264.3018,94.7324 L274.3018,94.7324 C289.3018,94.7324 289.3018,113.2207 304.3018,113.2207 L314.3018,113.2207" fill="none" style="stroke:#0078D4;stroke-width:3;"/><path d="M117.4111,122.9766 L127.4111,122.9766 C142.4111,122.9766 142.4111,94.7324 157.4111,94.7324 L167.4111,94.7324" fill="none" style="stroke:#FF5F46;stroke-width:3;"/><rect fill="#0078D4" height="36.4883" rx="12.5" ry="12.5" style="stroke:#0078D4;stroke-width:3;" width="103.9863" x="167.4111" y="132.9766"/><text fill="#FFFFFF" font-family="sans-serif" font-size="14" lengthAdjust="spacing" textLength="83.9863" x="177.4111" y="156.5117">After Pulling</text><text fill="#000000" font-family="sans-serif" font-size="14" lengthAdjust="spacing" textLength="149.0098" x="324.3975" y="138.0234">Notebook state resets</text><path d="M271.3975,151.2207 L281.3975,151.2207 C296.3975,151.2207 296.3975,132.7324 311.3975,132.7324 L321.3975,132.7324" fill="none" style="stroke:#0078D4;stroke-width:3;"/><text fill="#000000" font-family="sans-serif" font-size="14" lengthAdjust="spacing" textLength="135.9258" x="324.3975" y="156.5117">Cell outputs cleared</text><path d="M271.3975,151.2207 L281.3975,151.2207 C296.3975,151.2207 296.3975,151.2207 311.3975,151.2207 L321.3975,151.2207" fill="none" style="stroke:#0078D4;stroke-width:3;"/><text fill="#000000" font-family="sans-serif" font-size="14" lengthAdjust="spacing" textLength="169.3604" x="324.3975" y="175">Reflects updated content</text><path d="M271.3975,151.2207 L281.3975,151.2207 C296.3975,151.2207 296.3975,169.709 311.3975,169.709 L321.3975,169.709" fill="none" style="stroke:#0078D4;stroke-width:3;"/><path d="M117.4111,122.9766 L127.4111,122.9766 C142.4111,122.9766 142.4111,151.2207 157.4111,151.2207 L167.4111,151.2207" fill="none" style="stroke:#FF5F46;stroke-width:3;"/><rect fill="#0078D4" height="36.4883" rx="12.5" ry="12.5" style="stroke:#0078D4;stroke-width:3;" width="105.2783" x="167.4111" y="189.4648"/><text fill="#FFFFFF" font-family="sans-serif" font-size="14" lengthAdjust="spacing" textLength="85.2783" x="177.4111" y="213">Best Practice</text><text fill="#000000" font-family="sans-serif" font-size="14" lengthAdjust="spacing" textLength="199.2334" x="325.6895" y="203.7559">Pull before starting new work</text><path d="M272.6895,207.709 L282.6895,207.709 C297.6895,207.709 297.6895,198.4648 312.6895,198.4648 L322.6895,198.4648" fill="none" style="stroke:#0078D4;stroke-width:3;"/><text fill="#000000" font-family="sans-serif" font-size="14" lengthAdjust="spacing" textLength="255.6299" x="325.6895" y="222.2441">Pull frequently to catch conflicts early</text><path d="M272.6895,207.709 L282.6895,207.709 C297.6895,207.709 297.6895,216.9531 312.6895,216.9531 L322.6895,216.9531" fill="none" style="stroke:#0078D4;stroke-width:3;"/><path d="M117.4111,122.9766 L127.4111,122.9766 C142.4111,122.9766 142.4111,207.709 157.4111,207.709 L167.4111,207.709" fill="none" style="stroke:#FF5F46;stroke-width:3;"/><?plantuml-src VPDDJzmm48Rl-HKZzTAkn1Asb4A5Mc1HwA4V291wH8uptbZhU59xqYL5_U-rlTbs2LhcvfbttcSyiiyy2yUDjbKZskpKSs_mO_QXmfRhr_aRUCmWn8MGouMZpbPpCkJWLL6yAmwFKksBjlWyMv3b8QjI_DFUrLekBNeFRwTvzcV3EjZ9olFtnvU7OzOe-zHrD46HuZzhjfEbL7cIvsFMAFiYAqyHM2KzcAXvtAautH_MFO7hpXYOry8kq6UJ2Voe-vJx50wJUxX21YCOFODor02ZQ9fuNfU_QgiR_Hj1MyQ54wp9WlQ-smXkMVJGjNjCUrLeWvNc6YHLM0gFaVUPLi2KaEkExorQkD8CbHQ65eCD6fIyfRf1J-ON1YkhZ9RiGIiGje-MvuhH9QssG_ytOYo9bX0UNPZ2eKSU9fnZM01rt7R1H1eK3giDGqMg3_F7sQi8OxGS6HTn8zTEIDOIr_AqoH8LEOJqjWCTBAvWHMwv9L4EVtR1nlJnubAmhBUk4VYcpyumV8lXQsG7qra-EvhE_W80?></g></svg>