<?plantuml 1.2026.2?><svg xmlns="http://www.w3.org/2000/svg" xmlns:xlink="http://www.w3.org/1999/xlink" contentStyleType="text/css" data-diagram-type="MINDMAP" height="304px" preserveAspectRatio="none" style="width:597px;height:304px;background:#FFFFFF;" version="1.1" viewBox="0 0 597 304" width="597px" zoomAndPan="magnify"><defs/><g><rect fill="#FF5F46" height="52.9766" rx="12.5" ry="12.5" style="stroke:#FF5F46;stroke-width:3;" width="126.3057" x="10" y="124.7324"/><text fill="#FFFFFF" font-family="sans-serif" font-size="14" lengthAdjust="spacing" textLength="51.4814" x="20" y="148.2676">Resolve</text><text fill="#FFFFFF" font-family="sans-serif" font-size="14" lengthAdjust="spacing" textLength="106.3057" x="20" y="164.7559">Merge Conflicts</text><rect fill="#0078D4" height="36.4883" rx="12.5" ry="12.5" style="stroke:#0078D4;stroke-width:3;" width="138.3027" x="186.3057" y="20"/><text fill="#FFFFFF" font-family="sans-serif" font-size="14" lengthAdjust="spacing" textLength="118.3027" x="196.3057" y="43.5352">When They Occur</text><text fill="#000000" font-family="sans-serif" font-size="14" lengthAdjust="spacing" textLength="202.2959" x="377.6084" y="34.291">Multiple users edit same lines</text><path d="M324.6084,38.2441 L334.6084,38.2441 C349.6084,38.2441 349.6084,29 364.6084,29 L374.6084,29" fill="none" style="stroke:#0078D4;stroke-width:3;"/><text fill="#000000" font-family="sans-serif" font-size="14" lengthAdjust="spacing" textLength="201.0039" x="377.6084" y="52.7793">During pull, merge, or rebase</text><path d="M324.6084,38.2441 L334.6084,38.2441 C349.6084,38.2441 349.6084,47.4883 364.6084,47.4883 L374.6084,47.4883" fill="none" style="stroke:#0078D4;stroke-width:3;"/><path d="M136.3057,151.2207 L146.3057,151.2207 C161.3057,151.2207 161.3057,38.2441 176.3057,38.2441 L186.3057,38.2441" fill="none" style="stroke:#FF5F46;stroke-width:3;"/><rect fill="#0078D4" height="36.4883" rx="12.5" ry="12.5" style="stroke:#0078D4;stroke-width:3;" width="141.4404" x="186.3057" y="76.4883"/><text fill="#FFFFFF" font-family="sans-serif" font-size="14" lengthAdjust="spacing" textLength="121.4404" x="196.3057" y="100.0234">Simple Resolution</text><text fill="#000000" font-family="sans-serif" font-size="14" lengthAdjust="spacing" textLength="167.6514" x="380.7461" y="90.7793">Keep all current changes</text><path d="M327.7461,94.7324 L337.7461,94.7324 C352.7461,94.7324 352.7461,85.4883 367.7461,85.4883 L377.7461,85.4883" fill="none" style="stroke:#0078D4;stroke-width:3;"/><text fill="#000000" font-family="sans-serif" font-size="14" lengthAdjust="spacing" textLength="180.667" x="380.7461" y="109.2676">Take all incoming changes</text><path d="M327.7461,94.7324 L337.7461,94.7324 C352.7461,94.7324 352.7461,103.9766 367.7461,103.9766 L377.7461,103.9766" fill="none" style="stroke:#0078D4;stroke-width:3;"/><path d="M136.3057,151.2207 L146.3057,151.2207 C161.3057,151.2207 161.3057,94.7324 176.3057,94.7324 L186.3057,94.7324" fill="none" style="stroke:#FF5F46;stroke-width:3;"/><rect fill="#0078D4" height="36.4883" rx="12.5" ry="12.5" style="stroke:#0078D4;stroke-width:3;" width="145.0703" x="186.3057" y="132.9766"/><text fill="#FFFFFF" font-family="sans-serif" font-size="14" lengthAdjust="spacing" textLength="125.0703" x="196.3057" y="156.5117">Manual Resolution</text><text fill="#000000" font-family="sans-serif" font-size="14" lengthAdjust="spacing" textLength="182.6631" x="384.376" y="138.0234">Edit conflict markers in file</text><path d="M331.376,151.2207 L341.376,151.2207 C356.376,151.2207 356.376,132.7324 371.376,132.7324 L381.376,132.7324" fill="none" style="stroke:#0078D4;stroke-width:3;"/><text fill="#000000" font-family="sans-serif" font-size="14" lengthAdjust="spacing" textLength="201.209" x="384.376" y="156.5117">Remove &lt;&#171;, ===,&#187;&gt; markers</text><path d="M331.376,151.2207 L341.376,151.2207 C356.376,151.2207 356.376,151.2207 371.376,151.2207 L381.376,151.2207" fill="none" style="stroke:#0078D4;stroke-width:3;"/><text fill="#000000" font-family="sans-serif" font-size="14" lengthAdjust="spacing" textLength="119.6494" x="384.376" y="175">Mark As Resolved</text><path d="M331.376,151.2207 L341.376,151.2207 C356.376,151.2207 356.376,169.709 371.376,169.709 L381.376,169.709" fill="none" style="stroke:#0078D4;stroke-width:3;"/><path d="M136.3057,151.2207 L146.3057,151.2207 C161.3057,151.2207 161.3057,151.2207 176.3057,151.2207 L186.3057,151.2207" fill="none" style="stroke:#FF5F46;stroke-width:3;"/><rect fill="#0078D4" height="36.4883" rx="12.5" ry="12.5" style="stroke:#0078D4;stroke-width:3;" width="98.7158" x="186.3057" y="189.4648"/><text fill="#FFFFFF" font-family="sans-serif" font-size="14" lengthAdjust="spacing" textLength="78.7158" x="196.3057" y="213">Completing</text><text fill="#000000" font-family="sans-serif" font-size="14" lengthAdjust="spacing" textLength="179.2998" x="338.0215" y="203.7559">Continue Merge or Rebase</text><path d="M285.0215,207.709 L295.0215,207.709 C310.0215,207.709 310.0215,198.4648 325.0215,198.4648 L335.0215,198.4648" fill="none" style="stroke:#0078D4;stroke-width:3;"/><text fill="#000000" font-family="sans-serif" font-size="14" lengthAdjust="spacing" textLength="213.1445" x="338.0215" y="222.2441">Abort if incorrect choices made</text><path d="M285.0215,207.709 L295.0215,207.709 C310.0215,207.709 310.0215,216.9531 325.0215,216.9531 L335.0215,216.9531" fill="none" style="stroke:#0078D4;stroke-width:3;"/><path d="M136.3057,151.2207 L146.3057,151.2207 C161.3057,151.2207 161.3057,207.709 176.3057,207.709 L186.3057,207.709" fill="none" style="stroke:#FF5F46;stroke-width:3;"/><rect fill="#0078D4" height="36.4883" rx="12.5" ry="12.5" style="stroke:#0078D4;stroke-width:3;" width="91.5723" x="186.3057" y="245.9531"/><text fill="#FFFFFF" font-family="sans-serif" font-size="14" lengthAdjust="spacing" textLength="71.5723" x="196.3057" y="269.4883">Prevention</text><text fill="#000000" font-family="sans-serif" font-size="14" lengthAdjust="spacing" textLength="187.8516" x="330.8779" y="260.2441">Pull frequently from remote</text><path d="M277.8779,264.1973 L287.8779,264.1973 C302.8779,264.1973 302.8779,254.9531 317.8779,254.9531 L327.8779,254.9531" fill="none" style="stroke:#0078D4;stroke-width:3;"/><text fill="#000000" font-family="sans-serif" font-size="14" lengthAdjust="spacing" textLength="157.8896" x="330.8779" y="278.7324">Small, frequent merges</text><path d="M277.8779,264.1973 L287.8779,264.1973 C302.8779,264.1973 302.8779,273.4414 317.8779,273.4414 L327.8779,273.4414" fill="none" style="stroke:#0078D4;stroke-width:3;"/><path d="M136.3057,151.2207 L146.3057,151.2207 C161.3057,151.2207 161.3057,264.1973 176.3057,264.1973 L186.3057,264.1973" fill="none" style="stroke:#FF5F46;stroke-width:3;"/><?plantuml-src VLDBQzj04BxhLmpqqXhZAcwQf4KsIPtgafW4nz1BeQnN8slnFjHzc9YG_vvPFHAguEv9E_FfUy5UEi-iLq8NYjL9vln1uZpvNc3jgu_f9tXAWCuFndTRQu8k5aOQ2n_o_6j-UjRiReN6zzFSQDzDo-QyOjULu3kDpi6NIPeyzredHxNIzFpY-dIeDPZ-opfma3VdJMjwLAiiDz_ITAWrcFvNAsqEQMtCeuoOfwE8x7DNzmXMw8pSus-zHBj5M1XTIi6zIqOZ-5MXXdM51xZZF5WQZVx0CaWlQeaG75e7M0WFZYa4IGPTYxaELkWjr47ACQX8F0OoO77374Rc1w4YHICUl32w_Uy6iGOc9P2QHUs1LqnlUzOrss6p5PeR5GNUrh1aEZ3vZl5djCUxKA2OtKNJGaCf9BQG5IgpHyYoR0opsMmCy_cyHtQHwG9Nhk-gY7eB4nDuSj5Yg3Yw18IsHqgxwjFIzcfZh0THDjOf6e_HZE3eIAbeAhctkAV8hyxlgJmeBVuDD9K7-ZIA6bJ6TvmFYiLwUqZRiqikaLvKzwgIayaqdPvDfYy0?></g></svg>