<?plantuml 1.2026.2?><svg xmlns="http://www.w3.org/2000/svg" xmlns:xlink="http://www.w3.org/1999/xlink" contentStyleType="text/css" data-diagram-type="MINDMAP" height="274px" preserveAspectRatio="none" style="width:597px;height:274px;background:#FFFFFF;" version="1.1" viewBox="0 0 597 274" width="597px" zoomAndPan="magnify"><defs/><g><rect fill="#FF5F46" height="36.4883" rx="12.5" ry="12.5" style="stroke:#FF5F46;stroke-width:3;" width="140.5381" x="10" y="117.8311"/><text fill="#FFFFFF" font-family="sans-serif" font-size="14" lengthAdjust="spacing" textLength="120.5381" x="20" y="141.3662">Pull Requests (PR)</text><rect fill="#0078D4" height="36.4883" rx="12.5" ry="12.5" style="stroke:#0078D4;stroke-width:3;" width="74.5029" x="200.5381" y="20"/><text fill="#FFFFFF" font-family="sans-serif" font-size="14" lengthAdjust="spacing" textLength="54.5029" x="210.5381" y="43.5352">Purpose</text><text fill="#000000" font-family="sans-serif" font-size="14" lengthAdjust="spacing" textLength="192.2744" x="328.041" y="34.291">Code review before merging</text><path d="M275.041,38.2441 L285.041,38.2441 C300.041,38.2441 300.041,29 315.041,29 L325.041,29" fill="none" style="stroke:#0078D4;stroke-width:3;"/><text fill="#000000" font-family="sans-serif" font-size="14" lengthAdjust="spacing" textLength="187.4756" x="328.041" y="52.7793">Catch issues collaboratively</text><path d="M275.041,38.2441 L285.041,38.2441 C300.041,38.2441 300.041,47.4883 315.041,47.4883 L325.041,47.4883" fill="none" style="stroke:#0078D4;stroke-width:3;"/><path d="M150.5381,136.0752 L160.5381,136.0752 C175.5381,136.0752 175.5381,38.2441 190.5381,38.2441 L200.5381,38.2441" fill="none" style="stroke:#FF5F46;stroke-width:3;"/><rect fill="#0078D4" height="36.4883" rx="12.5" ry="12.5" style="stroke:#0078D4;stroke-width:3;" width="104.0889" x="200.5381" y="84.709"/><text fill="#FFFFFF" font-family="sans-serif" font-size="14" lengthAdjust="spacing" textLength="84.0889" x="210.5381" y="108.2441">PR Workflow</text><text fill="#000000" font-family="sans-serif" font-size="14" lengthAdjust="spacing" textLength="224.2461" x="357.627" y="71.2676">Clone &#8594; create branch &#8594; modify</text><path d="M304.627,102.9531 L314.627,102.9531 C329.627,102.9531 329.627,65.9766 344.627,65.9766 L354.627,65.9766" fill="none" style="stroke:#0078D4;stroke-width:3;"/><text fill="#000000" font-family="sans-serif" font-size="14" lengthAdjust="spacing" textLength="176.5859" x="357.627" y="89.7559">Commit &amp; push to remote</text><path d="M304.627,102.9531 L314.627,102.9531 C329.627,102.9531 329.627,84.4648 344.627,84.4648 L354.627,84.4648" fill="none" style="stroke:#0078D4;stroke-width:3;"/><text fill="#000000" font-family="sans-serif" font-size="14" lengthAdjust="spacing" textLength="159.3936" x="357.627" y="108.2441">Open PR in Git provider</text><path d="M304.627,102.9531 L314.627,102.9531 C329.627,102.9531 329.627,102.9531 344.627,102.9531 L354.627,102.9531" fill="none" style="stroke:#0078D4;stroke-width:3;"/><text fill="#000000" font-family="sans-serif" font-size="14" lengthAdjust="spacing" textLength="184.1943" x="357.627" y="126.7324">Review &amp; address feedback</text><path d="M304.627,102.9531 L314.627,102.9531 C329.627,102.9531 329.627,121.4414 344.627,121.4414 L354.627,121.4414" fill="none" style="stroke:#0078D4;stroke-width:3;"/><text fill="#000000" font-family="sans-serif" font-size="14" lengthAdjust="spacing" textLength="208.9746" x="357.627" y="145.2207">Merge into deployment branch</text><path d="M304.627,102.9531 L314.627,102.9531 C329.627,102.9531 329.627,139.9297 344.627,139.9297 L354.627,139.9297" fill="none" style="stroke:#0078D4;stroke-width:3;"/><path d="M150.5381,136.0752 L160.5381,136.0752 C175.5381,136.0752 175.5381,102.9531 190.5381,102.9531 L200.5381,102.9531" fill="none" style="stroke:#FF5F46;stroke-width:3;"/><rect fill="#0078D4" height="36.4883" rx="12.5" ry="12.5" style="stroke:#0078D4;stroke-width:3;" width="106.666" x="200.5381" y="159.1738"/><text fill="#FFFFFF" font-family="sans-serif" font-size="14" lengthAdjust="spacing" textLength="86.666" x="210.5381" y="182.709">Git Providers</text><text fill="#000000" font-family="sans-serif" font-size="14" lengthAdjust="spacing" textLength="152.7354" x="360.2041" y="173.4648">GitHub, Azure DevOps</text><path d="M307.2041,177.418 L317.2041,177.418 C332.2041,177.418 332.2041,168.1738 347.2041,168.1738 L357.2041,168.1738" fill="none" style="stroke:#0078D4;stroke-width:3;"/><text fill="#000000" font-family="sans-serif" font-size="14" lengthAdjust="spacing" textLength="115.4932" x="360.2041" y="191.9531">GitLab, Bitbucket</text><path d="M307.2041,177.418 L317.2041,177.418 C332.2041,177.418 332.2041,186.6621 347.2041,186.6621 L357.2041,186.6621" fill="none" style="stroke:#0078D4;stroke-width:3;"/><path d="M150.5381,136.0752 L160.5381,136.0752 C175.5381,136.0752 175.5381,177.418 190.5381,177.418 L200.5381,177.418" fill="none" style="stroke:#FF5F46;stroke-width:3;"/><rect fill="#0078D4" height="36.4883" rx="12.5" ry="12.5" style="stroke:#0078D4;stroke-width:3;" width="105.2783" x="200.5381" y="215.6621"/><text fill="#FFFFFF" font-family="sans-serif" font-size="14" lengthAdjust="spacing" textLength="85.2783" x="210.5381" y="239.1973">Best Practice</text><text fill="#000000" font-family="sans-serif" font-size="14" lengthAdjust="spacing" textLength="190.4355" x="358.8164" y="229.9531">Each developer: own branch</text><path d="M305.8164,233.9063 L315.8164,233.9063 C330.8164,233.9063 330.8164,224.6621 345.8164,224.6621 L355.8164,224.6621" fill="none" style="stroke:#0078D4;stroke-width:3;"/><text fill="#000000" font-family="sans-serif" font-size="14" lengthAdjust="spacing" textLength="226.748" x="358.8164" y="248.4414">Sync local workspace after merge</text><path d="M305.8164,233.9063 L315.8164,233.9063 C330.8164,233.9063 330.8164,243.1504 345.8164,243.1504 L355.8164,243.1504" fill="none" style="stroke:#0078D4;stroke-width:3;"/><path d="M150.5381,136.0752 L160.5381,136.0752 C175.5381,136.0752 175.5381,233.9063 190.5381,233.9063 L200.5381,233.9063" fill="none" style="stroke:#FF5F46;stroke-width:3;"/><?plantuml-src VLFHRjCm57tFLrm9QTegLB8onfWcDBeHU1XQLIRj4JdsJMlLyJMsqn8cNla0Ff4luIRrg1PKxbDqplKvnoVoPOZ2nrfRLGkNNOJO6doRdIjqSNcO7y531ZnJ8LSBJurLLsJ8mxEYU5MSdFRSZRRuBrgGZGcj-lcxUxVKScKn17WvphCVZrx7Uxto_FNPzSdGQu0-LHqaAFhPUKtsUbLL-IRFXru3zBzUUJ_iLT8tq-qyxDsuU97g7i6iCGRc-BN140CSpkP7sQX3lQE0_3dw0bUa43okDMwWn8eyGer-eUqYyIBA9UWGM0Ca6IDAyYBgDPgs5vl3FVbLPMYJ3XYo2Bz__WBfKKI4qWlB4XrIaz9L-sXSrph20RWcB24IXwWffbIt3cqdhIryu2NdQQqL-YqvtwOz0A6Kxxge45N9dM_fJnmV-IHBydynrDPeOqhH9Uu4PqamR8ymzB4fdyExxmtV_nhNjsx7t0XcfZgMZLnXx1IcN2TB21crJ87V2xwYGcw57Ffpe8tTMJB_kRKI34bXOCDr1ISaWgWY-hvkp2wHtqfwBzdnU99FJiUJFm00?></g></svg>