<?plantuml 1.2026.2?><svg xmlns="http://www.w3.org/2000/svg" xmlns:xlink="http://www.w3.org/1999/xlink" contentStyleType="text/css" data-diagram-type="MINDMAP" height="247px" preserveAspectRatio="none" style="width:657px;height:247px;background:#FFFFFF;" version="1.1" viewBox="0 0 657 247" width="657px" zoomAndPan="magnify"><defs/><g><rect fill="#FF5F46" height="52.9766" rx="12.5" ry="12.5" style="stroke:#FF5F46;stroke-width:3;" width="138.166" x="10" y="96.4883"/><text fill="#FFFFFF" font-family="sans-serif" font-size="14" lengthAdjust="spacing" textLength="58.1738" x="20" y="120.0234">Create &amp;</text><text fill="#FFFFFF" font-family="sans-serif" font-size="14" lengthAdjust="spacing" textLength="118.166" x="20" y="136.5117">Manage Branches</text><rect fill="#0078D4" height="36.4883" rx="12.5" ry="12.5" style="stroke:#0078D4;stroke-width:3;" width="74.5029" x="198.166" y="20"/><text fill="#FFFFFF" font-family="sans-serif" font-size="14" lengthAdjust="spacing" textLength="54.5029" x="208.166" y="43.5352">Purpose</text><text fill="#000000" font-family="sans-serif" font-size="14" lengthAdjust="spacing" textLength="225.5449" x="325.6689" y="34.291">Isolate work from main codebase</text><path d="M272.6689,38.2441 L282.6689,38.2441 C297.6689,38.2441 297.6689,29 312.6689,29 L322.6689,29" fill="none" style="stroke:#0078D4;stroke-width:3;"/><text fill="#000000" font-family="sans-serif" font-size="14" lengthAdjust="spacing" textLength="243.0039" x="325.6689" y="52.7793">Independent development &amp; testing</text><path d="M272.6689,38.2441 L282.6689,38.2441 C297.6689,38.2441 297.6689,47.4883 312.6689,47.4883 L322.6689,47.4883" fill="none" style="stroke:#0078D4;stroke-width:3;"/><path d="M148.166,122.9766 L158.166,122.9766 C173.166,122.9766 173.166,38.2441 188.166,38.2441 L198.166,38.2441" fill="none" style="stroke:#FF5F46;stroke-width:3;"/><rect fill="#0078D4" height="36.4883" rx="12.5" ry="12.5" style="stroke:#0078D4;stroke-width:3;" width="114.4727" x="198.166" y="76.4883"/><text fill="#FFFFFF" font-family="sans-serif" font-size="14" lengthAdjust="spacing" textLength="94.4727" x="208.166" y="100.0234">Create Branch</text><text fill="#000000" font-family="sans-serif" font-size="14" lengthAdjust="spacing" textLength="106.4014" x="365.6387" y="81.5352">Open Git dialog</text><path d="M312.6387,94.7324 L322.6387,94.7324 C337.6387,94.7324 337.6387,76.2441 352.6387,76.2441 L362.6387,76.2441" fill="none" style="stroke:#0078D4;stroke-width:3;"/><text fill="#000000" font-family="sans-serif" font-size="14" lengthAdjust="spacing" textLength="139.2549" x="365.6387" y="100.0234">Select Create branch</text><path d="M312.6387,94.7324 L322.6387,94.7324 C337.6387,94.7324 337.6387,94.7324 352.6387,94.7324 L362.6387,94.7324" fill="none" style="stroke:#0078D4;stroke-width:3;"/><text fill="#000000" font-family="sans-serif" font-size="14" lengthAdjust="spacing" textLength="217.2529" x="365.6387" y="118.5117">Descriptive name, base on main</text><path d="M312.6387,94.7324 L322.6387,94.7324 C337.6387,94.7324 337.6387,113.2207 352.6387,113.2207 L362.6387,113.2207" fill="none" style="stroke:#0078D4;stroke-width:3;"/><path d="M148.166,122.9766 L158.166,122.9766 C173.166,122.9766 173.166,94.7324 188.166,94.7324 L198.166,94.7324" fill="none" style="stroke:#FF5F46;stroke-width:3;"/><rect fill="#0078D4" height="36.4883" rx="12.5" ry="12.5" style="stroke:#0078D4;stroke-width:3;" width="161.4561" x="198.166" y="132.9766"/><text fill="#FFFFFF" font-family="sans-serif" font-size="14" lengthAdjust="spacing" textLength="141.4561" x="208.166" y="156.5117">Naming Conventions</text><text fill="#000000" font-family="sans-serif" font-size="14" lengthAdjust="spacing" textLength="148.9961" x="412.6221" y="138.0234">feature/feature-name</text><path d="M359.6221,151.2207 L369.6221,151.2207 C384.6221,151.2207 384.6221,132.7324 399.6221,132.7324 L409.6221,132.7324" fill="none" style="stroke:#0078D4;stroke-width:3;"/><text fill="#000000" font-family="sans-serif" font-size="14" lengthAdjust="spacing" textLength="170.3379" x="412.6221" y="156.5117">bugfix/issue-description</text><path d="M359.6221,151.2207 L369.6221,151.2207 C384.6221,151.2207 384.6221,151.2207 399.6221,151.2207 L409.6221,151.2207" fill="none" style="stroke:#0078D4;stroke-width:3;"/><text fill="#000000" font-family="sans-serif" font-size="14" lengthAdjust="spacing" textLength="193.8945" x="412.6221" y="175">users/username/description</text><path d="M359.6221,151.2207 L369.6221,151.2207 C384.6221,151.2207 384.6221,169.709 399.6221,169.709 L409.6221,169.709" fill="none" style="stroke:#0078D4;stroke-width:3;"/><path d="M148.166,122.9766 L158.166,122.9766 C173.166,122.9766 173.166,151.2207 188.166,151.2207 L198.166,151.2207" fill="none" style="stroke:#FF5F46;stroke-width:3;"/><rect fill="#0078D4" height="36.4883" rx="12.5" ry="12.5" style="stroke:#0078D4;stroke-width:3;" width="150.3613" x="198.166" y="189.4648"/><text fill="#FFFFFF" font-family="sans-serif" font-size="14" lengthAdjust="spacing" textLength="130.3613" x="208.166" y="213">Switching Branches</text><text fill="#000000" font-family="sans-serif" font-size="14" lengthAdjust="spacing" textLength="223.7129" x="401.5273" y="194.5117">Uncommitted changes carry over</text><path d="M348.5273,207.709 L358.5273,207.709 C373.5273,207.709 373.5273,189.2207 388.5273,189.2207 L398.5273,189.2207" fill="none" style="stroke:#0078D4;stroke-width:3;"/><text fill="#000000" font-family="sans-serif" font-size="14" lengthAdjust="spacing" textLength="243.5303" x="401.5273" y="213">May delete assets missing on target</text><path d="M348.5273,207.709 L358.5273,207.709 C373.5273,207.709 373.5273,207.709 388.5273,207.709 L398.5273,207.709" fill="none" style="stroke:#0078D4;stroke-width:3;"/><text fill="#000000" font-family="sans-serif" font-size="14" lengthAdjust="spacing" textLength="203.0752" x="401.5273" y="231.4883">Verify assets before switching</text><path d="M348.5273,207.709 L358.5273,207.709 C373.5273,207.709 373.5273,226.1973 388.5273,226.1973 L398.5273,226.1973" fill="none" style="stroke:#0078D4;stroke-width:3;"/><path d="M148.166,122.9766 L158.166,122.9766 C173.166,122.9766 173.166,207.709 188.166,207.709 L198.166,207.709" fill="none" style="stroke:#FF5F46;stroke-width:3;"/><?plantuml-src VPDjQzmm3CVVvrC81cKxsajwQxjkb55w9MFGReLkUrKOZgCavX8fMCwrHzbtdvrS-f1nqml7I7_f9uduN9oohZ6KDwgDpiHjQlmSVSgnTTNRv1qyHk3jGkbLQRcZVCarMtYJfiVfqKaVkpA4_tfJ9hVr5hqzQNzKHgy8HU3zF8d-ZAp3dQma-N1wUJHbJRolgquwI7jxPYrsieeY-vWaKzR4-rzMqfjdPVnG1ytZJiLPl5tt39OMbKFOkwDhHQf4kB2AT8KIpMPmqzcM1VrrzXk-2jT1Uizs1ONb1Xfb23JdcAad4Vb1qH_a8CSrrjmsuRu73iKPAaFPBNCW3NdVVH9yCJx9g9hBmNcBDMetohCNyaiKRKthp1g1L8Fx45e0fhwdmFYc_AzLmf9fxVc6IORCmjVgBCRRxq787Y9PLnRc8JOY7Hxa8u1fY7Q2Lk9mXepuTHnkxutJLG2-M9_F-acQcyOuXpdeIb690bfPkm5UenqqrshZLrMZ7r69e1DeV0-XbX_7lv4ItI3yXTOKcr6KOS4MGKPoTExNFZwdw72-I1OdyyLV?></g></svg>