<?plantuml 1.2026.2?><svg xmlns="http://www.w3.org/2000/svg" xmlns:xlink="http://www.w3.org/1999/xlink" contentStyleType="text/css" data-diagram-type="MINDMAP" height="247px" preserveAspectRatio="none" style="width:586px;height:247px;background:#FFFFFF;" version="1.1" viewBox="0 0 586 247" width="586px" zoomAndPan="magnify"><defs/><g><rect fill="#FF5F46" height="52.9766" rx="12.5" ry="12.5" style="stroke:#FF5F46;stroke-width:3;" width="132.0342" x="10" y="96.4883"/><text fill="#FFFFFF" font-family="sans-serif" font-size="14" lengthAdjust="spacing" textLength="112.0342" x="20" y="120.0234">User Acceptance</text><text fill="#FFFFFF" font-family="sans-serif" font-size="14" lengthAdjust="spacing" textLength="92.2373" x="20" y="136.5117">Testing (UAT)</text><rect fill="#0078D4" height="36.4883" rx="12.5" ry="12.5" style="stroke:#0078D4;stroke-width:3;" width="74.5029" x="192.0342" y="20"/><text fill="#FFFFFF" font-family="sans-serif" font-size="14" lengthAdjust="spacing" textLength="54.5029" x="202.0342" y="43.5352">Purpose</text><text fill="#000000" font-family="sans-serif" font-size="14" lengthAdjust="spacing" textLength="248.1992" x="319.5371" y="34.291">Stakeholders validate business value</text><path d="M266.5371,38.2441 L276.5371,38.2441 C291.5371,38.2441 291.5371,29 306.5371,29 L316.5371,29" fill="none" style="stroke:#0078D4;stroke-width:3;"/><text fill="#000000" font-family="sans-serif" font-size="14" lengthAdjust="spacing" textLength="254.8779" x="319.5371" y="52.7793">Confirm solution meets requirements</text><path d="M266.5371,38.2441 L276.5371,38.2441 C291.5371,38.2441 291.5371,47.4883 306.5371,47.4883 L316.5371,47.4883" fill="none" style="stroke:#0078D4;stroke-width:3;"/><path d="M142.0342,122.9766 L152.0342,122.9766 C167.0342,122.9766 167.0342,38.2441 182.0342,38.2441 L192.0342,38.2441" fill="none" style="stroke:#FF5F46;stroke-width:3;"/><rect fill="#0078D4" height="36.4883" rx="12.5" ry="12.5" style="stroke:#0078D4;stroke-width:3;" width="78.3584" x="192.0342" y="76.4883"/><text fill="#FFFFFF" font-family="sans-serif" font-size="14" lengthAdjust="spacing" textLength="58.3584" x="202.0342" y="100.0234">Planning</text><text fill="#000000" font-family="sans-serif" font-size="14" lengthAdjust="spacing" textLength="230.959" x="323.3926" y="81.5352">Define acceptance criteria upfront</text><path d="M270.3926,94.7324 L280.3926,94.7324 C295.3926,94.7324 295.3926,76.2441 310.3926,76.2441 L320.3926,76.2441" fill="none" style="stroke:#0078D4;stroke-width:3;"/><text fill="#000000" font-family="sans-serif" font-size="14" lengthAdjust="spacing" textLength="149.6455" x="323.3926" y="100.0234">Prepare test scenarios</text><path d="M270.3926,94.7324 L280.3926,94.7324 C295.3926,94.7324 295.3926,94.7324 310.3926,94.7324 L320.3926,94.7324" fill="none" style="stroke:#0078D4;stroke-width:3;"/><text fill="#000000" font-family="sans-serif" font-size="14" lengthAdjust="spacing" textLength="206.917" x="323.3926" y="118.5117">Document expected outcomes</text><path d="M270.3926,94.7324 L280.3926,94.7324 C295.3926,94.7324 295.3926,113.2207 310.3926,113.2207 L320.3926,113.2207" fill="none" style="stroke:#0078D4;stroke-width:3;"/><path d="M142.0342,122.9766 L152.0342,122.9766 C167.0342,122.9766 167.0342,94.7324 182.0342,94.7324 L192.0342,94.7324" fill="none" style="stroke:#FF5F46;stroke-width:3;"/><rect fill="#0078D4" height="36.4883" rx="12.5" ry="12.5" style="stroke:#0078D4;stroke-width:3;" width="86.4043" x="192.0342" y="132.9766"/><text fill="#FFFFFF" font-family="sans-serif" font-size="14" lengthAdjust="spacing" textLength="66.4043" x="202.0342" y="156.5117">Execution</text><text fill="#000000" font-family="sans-serif" font-size="14" lengthAdjust="spacing" textLength="231.5742" x="331.4385" y="138.0234">Staging environment mirrors prod</text><path d="M278.4385,151.2207 L288.4385,151.2207 C303.4385,151.2207 303.4385,132.7324 318.4385,132.7324 L328.4385,132.7324" fill="none" style="stroke:#0078D4;stroke-width:3;"/><text fill="#000000" font-family="sans-serif" font-size="14" lengthAdjust="spacing" textLength="164.1172" x="331.4385" y="156.5117">Business users run tests</text><path d="M278.4385,151.2207 L288.4385,151.2207 C303.4385,151.2207 303.4385,151.2207 318.4385,151.2207 L328.4385,151.2207" fill="none" style="stroke:#0078D4;stroke-width:3;"/><text fill="#000000" font-family="sans-serif" font-size="14" lengthAdjust="spacing" textLength="238.0205" x="331.4385" y="175">Stakeholder-executable notebooks</text><path d="M278.4385,151.2207 L288.4385,151.2207 C303.4385,151.2207 303.4385,169.709 318.4385,169.709 L328.4385,169.709" fill="none" style="stroke:#0078D4;stroke-width:3;"/><path d="M142.0342,122.9766 L152.0342,122.9766 C167.0342,122.9766 167.0342,151.2207 182.0342,151.2207 L192.0342,151.2207" fill="none" style="stroke:#FF5F46;stroke-width:3;"/><rect fill="#0078D4" height="36.4883" rx="12.5" ry="12.5" style="stroke:#0078D4;stroke-width:3;" width="83.8135" x="192.0342" y="189.4648"/><text fill="#FFFFFF" font-family="sans-serif" font-size="14" lengthAdjust="spacing" textLength="63.8135" x="202.0342" y="213">Feedback</text><text fill="#000000" font-family="sans-serif" font-size="14" lengthAdjust="spacing" textLength="183.1211" x="328.8477" y="203.7559">Establish feedback process</text><path d="M275.8477,207.709 L285.8477,207.709 C300.8477,207.709 300.8477,198.4648 315.8477,198.4648 L325.8477,198.4648" fill="none" style="stroke:#0078D4;stroke-width:3;"/><text fill="#000000" font-family="sans-serif" font-size="14" lengthAdjust="spacing" textLength="157.2471" x="328.8477" y="222.2441">Report issues structure</text><path d="M275.8477,207.709 L285.8477,207.709 C300.8477,207.709 300.8477,216.9531 315.8477,216.9531 L325.8477,216.9531" fill="none" style="stroke:#0078D4;stroke-width:3;"/><path d="M142.0342,122.9766 L152.0342,122.9766 C167.0342,122.9766 167.0342,207.709 182.0342,207.709 L192.0342,207.709" fill="none" style="stroke:#FF5F46;stroke-width:3;"/><?plantuml-src VPDFRzim3CNl_XG4Tca3B7Mphbs7OkXVdtOejlHMe91bEX5YYnv95HcAVVV9ifjYBZAU3Ehn_VXaw5BKiBRELwtfiWlHtmr-oxvMsEdw83-4bmnYNHkxMJ45NzrGGmmVYk9pSNAQphuxZ--x1NaTktMgdNQvTdRZKGG-pVFipolhU2yhpy--t9vCMPFklwwJ3OfKRwp5NbPTb-TvFcLDklzbvQaYgwHjqsjUzYekZiRhdi638CELjN4zuoq--YMAEh-2WuUhvM4scy5zu8u4u-Vi2NwgsU2QcWfPuDaqhZAAK0PnQQtO2QFoXdpjk0MX9gWZ3osY2Z3-2ewnHQ-It1lZVUGDGxTOHoCmktt0ibDaPo1qDSSeW-wUiJECe75P48lUi2CPFSY6tXvmsw5Lh822McenyUwsQDC-kpohFYtwPnVjqrphc2d6wvYgGNNzcYz8dvk3JsHvToSVCTcRia7mf5WIRHAsGApA-C-7YJlf9KxMK8_z7cOZOJZ_WHsnWXC9A23AmMfWp2unlfRnnMJ7yqM-E9ql_W80?></g></svg>