<?plantuml 1.2026.2?><svg xmlns="http://www.w3.org/2000/svg" xmlns:xlink="http://www.w3.org/1999/xlink" contentStyleType="text/css" data-diagram-type="MINDMAP" height="247px" preserveAspectRatio="none" style="width:613px;height:247px;background:#FFFFFF;" version="1.1" viewBox="0 0 613 247" width="613px" zoomAndPan="magnify"><defs/><g><rect fill="#FF5F46" height="36.4883" rx="12.5" ry="12.5" style="stroke:#FF5F46;stroke-width:3;" width="115.2725" x="10" y="104.7324"/><text fill="#FFFFFF" font-family="sans-serif" font-size="14" lengthAdjust="spacing" textLength="95.2725" x="20" y="128.2676">Test Structure</text><rect fill="#0078D4" height="36.4883" rx="12.5" ry="12.5" style="stroke:#0078D4;stroke-width:3;" width="111.957" x="175.2725" y="20"/><text fill="#FFFFFF" font-family="sans-serif" font-size="14" lengthAdjust="spacing" textLength="91.957" x="185.2725" y="43.5352">Folder Layout</text><text fill="#000000" font-family="sans-serif" font-size="14" lengthAdjust="spacing" textLength="81.2314" x="340.2295" y="25.0469">/tests/unit/</text><path d="M287.2295,38.2441 L297.2295,38.2441 C312.2295,38.2441 312.2295,19.7559 327.2295,19.7559 L337.2295,19.7559" fill="none" style="stroke:#0078D4;stroke-width:3;"/><text fill="#000000" font-family="sans-serif" font-size="14" lengthAdjust="spacing" textLength="129.1035" x="340.2295" y="43.5352">/tests/integration/</text><path d="M287.2295,38.2441 L297.2295,38.2441 C312.2295,38.2441 312.2295,38.2441 327.2295,38.2441 L337.2295,38.2441" fill="none" style="stroke:#0078D4;stroke-width:3;"/><text fill="#000000" font-family="sans-serif" font-size="14" lengthAdjust="spacing" textLength="79.0234" x="340.2295" y="62.0234">/tests/e2e/</text><path d="M287.2295,38.2441 L297.2295,38.2441 C312.2295,38.2441 312.2295,56.7324 327.2295,56.7324 L337.2295,56.7324" fill="none" style="stroke:#0078D4;stroke-width:3;"/><path d="M125.2725,122.9766 L135.2725,122.9766 C150.2725,122.9766 150.2725,38.2441 165.2725,38.2441 L175.2725,38.2441" fill="none" style="stroke:#FF5F46;stroke-width:3;"/><rect fill="#0078D4" height="36.4883" rx="12.5" ry="12.5" style="stroke:#0078D4;stroke-width:3;" width="147.4561" x="175.2725" y="76.4883"/><text fill="#FFFFFF" font-family="sans-serif" font-size="14" lengthAdjust="spacing" textLength="127.4561" x="185.2725" y="100.0234">Code Organization</text><text fill="#000000" font-family="sans-serif" font-size="14" lengthAdjust="spacing" textLength="140.5195" x="375.7285" y="81.5352">Functions in .py files</text><path d="M322.7285,94.7324 L332.7285,94.7324 C347.7285,94.7324 347.7285,76.2441 362.7285,76.2441 L372.7285,76.2441" fill="none" style="stroke:#0078D4;stroke-width:3;"/><text fill="#000000" font-family="sans-serif" font-size="14" lengthAdjust="spacing" textLength="145.2227" x="375.7285" y="100.0234">Not inside notebooks</text><path d="M322.7285,94.7324 L332.7285,94.7324 C347.7285,94.7324 347.7285,94.7324 362.7285,94.7324 L372.7285,94.7324" fill="none" style="stroke:#0078D4;stroke-width:3;"/><text fill="#000000" font-family="sans-serif" font-size="14" lengthAdjust="spacing" textLength="226.0029" x="375.7285" y="118.5117">Import into notebooks as needed</text><path d="M322.7285,94.7324 L332.7285,94.7324 C347.7285,94.7324 347.7285,113.2207 362.7285,113.2207 L372.7285,113.2207" fill="none" style="stroke:#0078D4;stroke-width:3;"/><path d="M125.2725,122.9766 L135.2725,122.9766 C150.2725,122.9766 150.2725,94.7324 165.2725,94.7324 L175.2725,94.7324" fill="none" style="stroke:#FF5F46;stroke-width:3;"/><rect fill="#0078D4" height="36.4883" rx="12.5" ry="12.5" style="stroke:#0078D4;stroke-width:3;" width="116.9746" x="175.2725" y="132.9766"/><text fill="#FFFFFF" font-family="sans-serif" font-size="14" lengthAdjust="spacing" textLength="96.9746" x="185.2725" y="156.5117">Running Tests</text><text fill="#000000" font-family="sans-serif" font-size="14" lengthAdjust="spacing" textLength="166.6807" x="345.2471" y="138.0234">Dedicated test notebook</text><path d="M292.2471,151.2207 L302.2471,151.2207 C317.2471,151.2207 317.2471,132.7324 332.2471,132.7324 L342.2471,132.7324" fill="none" style="stroke:#0078D4;stroke-width:3;"/><text fill="#000000" font-family="sans-serif" font-size="14" lengthAdjust="spacing" textLength="235.7236" x="345.2471" y="156.5117">requirements.txt for dependencies</text><path d="M292.2471,151.2207 L302.2471,151.2207 C317.2471,151.2207 317.2471,151.2207 332.2471,151.2207 L342.2471,151.2207" fill="none" style="stroke:#0078D4;stroke-width:3;"/><text fill="#000000" font-family="sans-serif" font-size="14" lengthAdjust="spacing" textLength="163.0918" x="345.2471" y="175">pytest.main() invocation</text><path d="M292.2471,151.2207 L302.2471,151.2207 C317.2471,151.2207 317.2471,169.709 332.2471,169.709 L342.2471,169.709" fill="none" style="stroke:#0078D4;stroke-width:3;"/><path d="M125.2725,122.9766 L135.2725,122.9766 C150.2725,122.9766 150.2725,151.2207 165.2725,151.2207 L175.2725,151.2207" fill="none" style="stroke:#FF5F46;stroke-width:3;"/><rect fill="#0078D4" height="36.4883" rx="12.5" ry="12.5" style="stroke:#0078D4;stroke-width:3;" width="113.8369" x="175.2725" y="189.4648"/><text fill="#FFFFFF" font-family="sans-serif" font-size="14" lengthAdjust="spacing" textLength="93.8369" x="185.2725" y="213">Why .py Files?</text><text fill="#000000" font-family="sans-serif" font-size="14" lengthAdjust="spacing" textLength="118.248" x="342.1094" y="194.5117">Better code reuse</text><path d="M289.1094,207.709 L299.1094,207.709 C314.1094,207.709 314.1094,189.2207 329.1094,189.2207 L339.1094,189.2207" fill="none" style="stroke:#0078D4;stroke-width:3;"/><text fill="#000000" font-family="sans-serif" font-size="14" lengthAdjust="spacing" textLength="88.1357" x="342.1094" y="213">Easier to test</text><path d="M289.1094,207.709 L299.1094,207.709 C314.1094,207.709 314.1094,207.709 329.1094,207.709 L339.1094,207.709" fill="none" style="stroke:#0078D4;stroke-width:3;"/><text fill="#000000" font-family="sans-serif" font-size="14" lengthAdjust="spacing" textLength="159.667" x="342.1094" y="231.4883">Version control friendly</text><path d="M289.1094,207.709 L299.1094,207.709 C314.1094,207.709 314.1094,226.1973 329.1094,226.1973 L339.1094,226.1973" fill="none" style="stroke:#0078D4;stroke-width:3;"/><path d="M125.2725,122.9766 L135.2725,122.9766 C150.2725,122.9766 150.2725,207.709 165.2725,207.709 L175.2725,207.709" fill="none" style="stroke:#FF5F46;stroke-width:3;"/><?plantuml-src VLDTJzj047pthrYfBv07nvYF0aA0W5ggX5gfHF1ONNphv1HxpxtRgp28_zuzEm75ADqNopEpExDh-TgpSjmOqergamlFNOsNoRd6bfTxsJwy9Y1reyhLmjb0-jRMri6NeZWkZavwxjuGVaOBIxn6gxxUjREbALU4tiDXcYLl6w-3dLvPzlNqxcZiDKAtfuuI57rzUEKxlQfgVfPbOwyH-b-lh2_ncjldEcfUToekfkjpJs26dk61NIWvE4mc4sceDJguLvqDBC3aDqnPL7uQoF1q2p74k72AZQLj0dEC0DnQZV3JBHIPbrusg8f0PNppO0ZIjeFAIEI1-s5PK6-aaIpZtDhLcldUjDP5akq71Se38MhKqUzN83AqwDTQTzsXDgLYr12ZlJSEfCC_mJXiaDYd_CnGoQ7aMo5ffD9iChLTx4qRPMXlNmByjULc6tXQTlqAHLpXQj3V8BFSi8pREmmU1_YRyaPWYH_73TWZEY-JH4liR0sLCs9UTycrF3Q_HtAGvbb-akR_0000?></g></svg>