<?plantuml 1.2026.2?><svg xmlns="http://www.w3.org/2000/svg" xmlns:xlink="http://www.w3.org/1999/xlink" contentStyleType="text/css" data-diagram-type="MINDMAP" height="304px" preserveAspectRatio="none" style="width:591px;height:304px;background:#FFFFFF;" version="1.1" viewBox="0 0 591 304" width="591px" zoomAndPan="magnify"><defs/><g><rect fill="#FF5F46" height="52.9766" rx="12.5" ry="12.5" style="stroke:#FF5F46;stroke-width:3;" width="130.2568" x="10" y="124.7324"/><text fill="#FFFFFF" font-family="sans-serif" font-size="14" lengthAdjust="spacing" textLength="83.1045" x="20" y="148.2676">Resources &amp;</text><text fill="#FFFFFF" font-family="sans-serif" font-size="14" lengthAdjust="spacing" textLength="110.2568" x="20" y="164.7559">Task Definitions</text><rect fill="#0078D4" height="36.4883" rx="12.5" ry="12.5" style="stroke:#0078D4;stroke-width:3;" width="112.9824" x="190.2568" y="20"/><text fill="#FFFFFF" font-family="sans-serif" font-size="14" lengthAdjust="spacing" textLength="92.9824" x="200.2568" y="43.5352">Job Definition</text><text fill="#000000" font-family="sans-serif" font-size="14" lengthAdjust="spacing" textLength="106.4697" x="356.2393" y="34.291">name, tasks list</text><path d="M303.2393,38.2441 L313.2393,38.2441 C328.2393,38.2441 328.2393,29 343.2393,29 L353.2393,29" fill="none" style="stroke:#0078D4;stroke-width:3;"/><text fill="#000000" font-family="sans-serif" font-size="14" lengthAdjust="spacing" textLength="222.9814" x="356.2393" y="52.7793">Optional schedules, notifications</text><path d="M303.2393,38.2441 L313.2393,38.2441 C328.2393,38.2441 328.2393,47.4883 343.2393,47.4883 L353.2393,47.4883" fill="none" style="stroke:#0078D4;stroke-width:3;"/><path d="M140.2568,151.2207 L150.2568,151.2207 C165.2568,151.2207 165.2568,38.2441 180.2568,38.2441 L190.2568,38.2441" fill="none" style="stroke:#FF5F46;stroke-width:3;"/><rect fill="#0078D4" height="36.4883" rx="12.5" ry="12.5" style="stroke:#0078D4;stroke-width:3;" width="96.248" x="190.2568" y="76.4883"/><text fill="#FFFFFF" font-family="sans-serif" font-size="14" lengthAdjust="spacing" textLength="76.248" x="200.2568" y="100.0234">Task Types</text><text fill="#000000" font-family="sans-serif" font-size="14" lengthAdjust="spacing" textLength="99.8047" x="339.5049" y="90.7793">notebook_task</text><path d="M286.5049,94.7324 L296.5049,94.7324 C311.5049,94.7324 311.5049,85.4883 326.5049,85.4883 L336.5049,85.4883" fill="none" style="stroke:#0078D4;stroke-width:3;"/><text fill="#000000" font-family="sans-serif" font-size="14" lengthAdjust="spacing" textLength="127.2168" x="339.5049" y="109.2676">spark_python_task</text><path d="M286.5049,94.7324 L296.5049,94.7324 C311.5049,94.7324 311.5049,103.9766 326.5049,103.9766 L336.5049,103.9766" fill="none" style="stroke:#0078D4;stroke-width:3;"/><path d="M140.2568,151.2207 L150.2568,151.2207 C165.2568,151.2207 165.2568,94.7324 180.2568,94.7324 L190.2568,94.7324" fill="none" style="stroke:#FF5F46;stroke-width:3;"/><rect fill="#0078D4" height="36.4883" rx="12.5" ry="12.5" style="stroke:#0078D4;stroke-width:3;" width="151.373" x="190.2568" y="132.9766"/><text fill="#FFFFFF" font-family="sans-serif" font-size="14" lengthAdjust="spacing" textLength="131.373" x="200.2568" y="156.5117">Task Dependencies</text><text fill="#000000" font-family="sans-serif" font-size="14" lengthAdjust="spacing" textLength="149.5908" x="394.6299" y="147.2676">depends_on: task_key</text><path d="M341.6299,151.2207 L351.6299,151.2207 C366.6299,151.2207 366.6299,141.9766 381.6299,141.9766 L391.6299,141.9766" fill="none" style="stroke:#0078D4;stroke-width:3;"/><text fill="#000000" font-family="sans-serif" font-size="14" lengthAdjust="spacing" textLength="145.7285" x="394.6299" y="165.7559">Ensures correct order</text><path d="M341.6299,151.2207 L351.6299,151.2207 C366.6299,151.2207 366.6299,160.4648 381.6299,160.4648 L391.6299,160.4648" fill="none" style="stroke:#0078D4;stroke-width:3;"/><path d="M140.2568,151.2207 L150.2568,151.2207 C165.2568,151.2207 165.2568,151.2207 180.2568,151.2207 L190.2568,151.2207" fill="none" style="stroke:#FF5F46;stroke-width:3;"/><rect fill="#0078D4" height="36.4883" rx="12.5" ry="12.5" style="stroke:#0078D4;stroke-width:3;" width="95.7012" x="190.2568" y="189.4648"/><text fill="#FFFFFF" font-family="sans-serif" font-size="14" lengthAdjust="spacing" textLength="75.7012" x="200.2568" y="213">Parameters</text><text fill="#000000" font-family="sans-serif" font-size="14" lengthAdjust="spacing" textLength="190.3398" x="338.958" y="203.7559">base_parameters at runtime</text><path d="M285.958,207.709 L295.958,207.709 C310.958,207.709 310.958,198.4648 325.958,198.4648 L335.958,198.4648" fill="none" style="stroke:#0078D4;stroke-width:3;"/><text fill="#000000" font-family="sans-serif" font-size="14" lengthAdjust="spacing" textLength="182.7725" x="338.958" y="222.2441">Reference bundle variables</text><path d="M285.958,207.709 L295.958,207.709 C310.958,207.709 310.958,216.9531 325.958,216.9531 L335.958,216.9531" fill="none" style="stroke:#0078D4;stroke-width:3;"/><path d="M140.2568,151.2207 L150.2568,151.2207 C165.2568,151.2207 165.2568,207.709 180.2568,207.709 L190.2568,207.709" fill="none" style="stroke:#FF5F46;stroke-width:3;"/><rect fill="#0078D4" height="36.4883" rx="12.5" ry="12.5" style="stroke:#0078D4;stroke-width:3;" width="81.8926" x="190.2568" y="245.9531"/><text fill="#FFFFFF" font-family="sans-serif" font-size="14" lengthAdjust="spacing" textLength="61.8926" x="200.2568" y="269.4883">Compute</text><text fill="#000000" font-family="sans-serif" font-size="14" lengthAdjust="spacing" textLength="123.2451" x="325.1494" y="260.2441">Existing cluster ID</text><path d="M272.1494,264.1973 L282.1494,264.1973 C297.1494,264.1973 297.1494,254.9531 312.1494,254.9531 L322.1494,254.9531" fill="none" style="stroke:#0078D4;stroke-width:3;"/><text fill="#000000" font-family="sans-serif" font-size="14" lengthAdjust="spacing" textLength="214.71" x="325.1494" y="278.7324">job_clusters: define new cluster</text><path d="M272.1494,264.1973 L282.1494,264.1973 C297.1494,264.1973 297.1494,273.4414 312.1494,273.4414 L322.1494,273.4414" fill="none" style="stroke:#0078D4;stroke-width:3;"/><path d="M140.2568,151.2207 L150.2568,151.2207 C165.2568,151.2207 165.2568,264.1973 180.2568,264.1973 L190.2568,264.1973" fill="none" style="stroke:#FF5F46;stroke-width:3;"/><?plantuml-src VPFTQjj048NlzHG3WTAOu2fkchJ659CuWeH2I_1bGAnMetWhQMRPMJKn8U-UjNwSLi6Tos-EpZcxYvRYbVEreRnMDbg8trRuFPhdQFtcOtmCpn64kLIwV73SK7x55JiuIf8loTbvk_jX2D_JXCdtj6XdhrrlZ2u9HU3pD8vUXgpJWrbnVF5rTJRE6j5_NKSDadRUicO7iueY-nR7uwmH_MzMt4x8olYfsccU3oeMd_hhdi0T2ZTEey27UrehAM65XI7Z3PD4amdSSlON2cII0gaQJy07jK1bn7VqfzqfL0MYDvWteSC947jJ6AtsTct4UcjHUYlsc36NwSwjGsALArExzHkc0KDVpIBbIDeCd-SjaPHftlP9IznscskIneLZQNOEjGTsERgTqo_bGdsFhhV8b61gzn2K1zUGDpLs-piiq8LCX2myLuNmHpcZiggj05TSsyRtqkkdS1c67a1NZGGpk5brYz-SfJsJUIWThXE1y74GHijmYk5VY4wditXsFfsz0W00?></g></svg>