<?plantuml 1.2026.2?><svg xmlns="http://www.w3.org/2000/svg" xmlns:xlink="http://www.w3.org/1999/xlink" contentStyleType="text/css" data-diagram-type="MINDMAP" height="265px" preserveAspectRatio="none" style="width:618px;height:265px;background:#FFFFFF;" version="1.1" viewBox="0 0 618 265" width="618px" zoomAndPan="magnify"><defs/><g><rect fill="#FF5F46" height="36.4883" rx="12.5" ry="12.5" style="stroke:#FF5F46;stroke-width:3;" width="132.7041" x="10" y="113.4648"/><text fill="#FFFFFF" font-family="sans-serif" font-size="14" lengthAdjust="spacing" textLength="112.7041" x="20" y="137">Bundle Variables</text><rect fill="#0078D4" height="36.4883" rx="12.5" ry="12.5" style="stroke:#0078D4;stroke-width:3;" width="130.585" x="192.7041" y="20"/><text fill="#FFFFFF" font-family="sans-serif" font-size="14" lengthAdjust="spacing" textLength="110.585" x="202.7041" y="43.5352">Define Variables</text><text fill="#000000" font-family="sans-serif" font-size="14" lengthAdjust="spacing" textLength="134.9688" x="376.2891" y="34.291">In variables: section</text><path d="M323.2891,38.2441 L333.2891,38.2441 C348.2891,38.2441 348.2891,29 363.2891,29 L373.2891,29" fill="none" style="stroke:#0078D4;stroke-width:3;"/><text fill="#000000" font-family="sans-serif" font-size="14" lengthAdjust="spacing" textLength="182.1025" x="376.2891" y="52.7793">description &amp; default value</text><path d="M323.2891,38.2441 L333.2891,38.2441 C348.2891,38.2441 348.2891,47.4883 363.2891,47.4883 L373.2891,47.4883" fill="none" style="stroke:#0078D4;stroke-width:3;"/><path d="M142.7041,131.709 L152.7041,131.709 C167.7041,131.709 167.7041,38.2441 182.7041,38.2441 L192.7041,38.2441" fill="none" style="stroke:#FF5F46;stroke-width:3;"/><rect fill="#0078D4" height="36.4883" rx="12.5" ry="12.5" style="stroke:#0078D4;stroke-width:3;" width="151.4824" x="192.7041" y="76.4883"/><text fill="#FFFFFF" font-family="sans-serif" font-size="14" lengthAdjust="spacing" textLength="131.4824" x="202.7041" y="100.0234">Substitution Syntax</text><text fill="#000000" font-family="sans-serif" font-size="14" lengthAdjust="spacing" textLength="140.5264" x="397.1865" y="90.7793">${var.variable_name}</text><path d="M344.1865,94.7324 L354.1865,94.7324 C369.1865,94.7324 369.1865,85.4883 384.1865,85.4883 L394.1865,85.4883" fill="none" style="stroke:#0078D4;stroke-width:3;"/><text fill="#000000" font-family="sans-serif" font-size="14" lengthAdjust="spacing" textLength="199.917" x="397.1865" y="109.2676">Use anywhere in YAML config</text><path d="M344.1865,94.7324 L354.1865,94.7324 C369.1865,94.7324 369.1865,103.9766 384.1865,103.9766 L394.1865,103.9766" fill="none" style="stroke:#0078D4;stroke-width:3;"/><path d="M142.7041,131.709 L152.7041,131.709 C167.7041,131.709 167.7041,94.7324 182.7041,94.7324 L192.7041,94.7324" fill="none" style="stroke:#FF5F46;stroke-width:3;"/><rect fill="#0078D4" height="36.4883" rx="12.5" ry="12.5" style="stroke:#0078D4;stroke-width:3;" width="116.2637" x="192.7041" y="141.709"/><text fill="#FFFFFF" font-family="sans-serif" font-size="14" lengthAdjust="spacing" textLength="96.2637" x="202.7041" y="165.2441">Setting Values</text><text fill="#000000" font-family="sans-serif" font-size="14" lengthAdjust="spacing" textLength="135.8438" x="361.9678" y="137.5117">Default in definition</text><path d="M308.9678,159.9531 L318.9678,159.9531 C333.9678,159.9531 333.9678,132.2207 348.9678,132.2207 L358.9678,132.2207" fill="none" style="stroke:#0078D4;stroke-width:3;"/><text fill="#000000" font-family="sans-serif" font-size="14" lengthAdjust="spacing" textLength="129.6982" x="361.9678" y="156">Override per target</text><path d="M308.9678,159.9531 L318.9678,159.9531 C333.9678,159.9531 333.9678,150.709 348.9678,150.709 L358.9678,150.709" fill="none" style="stroke:#0078D4;stroke-width:3;"/><text fill="#000000" font-family="sans-serif" font-size="14" lengthAdjust="spacing" textLength="172.4707" x="361.9678" y="174.4883">CLI: --var="name=value"</text><path d="M308.9678,159.9531 L318.9678,159.9531 C333.9678,159.9531 333.9678,169.1973 348.9678,169.1973 L358.9678,169.1973" fill="none" style="stroke:#0078D4;stroke-width:3;"/><text fill="#000000" font-family="sans-serif" font-size="14" lengthAdjust="spacing" textLength="172.2314" x="361.9678" y="192.9766">Env: BUNDLE_VAR_ prefix</text><path d="M308.9678,159.9531 L318.9678,159.9531 C333.9678,159.9531 333.9678,187.6855 348.9678,187.6855 L358.9678,187.6855" fill="none" style="stroke:#0078D4;stroke-width:3;"/><path d="M142.7041,131.709 L152.7041,131.709 C167.7041,131.709 167.7041,159.9531 182.7041,159.9531 L192.7041,159.9531" fill="none" style="stroke:#FF5F46;stroke-width:3;"/><rect fill="#0078D4" height="36.4883" rx="12.5" ry="12.5" style="stroke:#0078D4;stroke-width:3;" width="197.2148" x="192.7041" y="206.9297"/><text fill="#FFFFFF" font-family="sans-serif" font-size="14" lengthAdjust="spacing" textLength="177.2148" x="202.7041" y="230.4648">Per-Environment Override</text><text fill="#000000" font-family="sans-serif" font-size="14" lengthAdjust="spacing" textLength="126.6699" x="442.9189" y="211.9766">dev: dev cluster_id</text><path d="M389.9189,225.1738 L399.9189,225.1738 C414.9189,225.1738 414.9189,206.6855 429.9189,206.6855 L439.9189,206.6855" fill="none" style="stroke:#0078D4;stroke-width:3;"/><text fill="#000000" font-family="sans-serif" font-size="14" lengthAdjust="spacing" textLength="142.8574" x="442.9189" y="230.4648">prod: prod cluster_id</text><path d="M389.9189,225.1738 L399.9189,225.1738 C414.9189,225.1738 414.9189,225.1738 429.9189,225.1738 L439.9189,225.1738" fill="none" style="stroke:#0078D4;stroke-width:3;"/><text fill="#000000" font-family="sans-serif" font-size="14" lengthAdjust="spacing" textLength="163.8711" x="442.9189" y="248.9531">Different names per env</text><path d="M389.9189,225.1738 L399.9189,225.1738 C414.9189,225.1738 414.9189,243.6621 429.9189,243.6621 L439.9189,243.6621" fill="none" style="stroke:#0078D4;stroke-width:3;"/><path d="M142.7041,131.709 L152.7041,131.709 C167.7041,131.709 167.7041,225.1738 182.7041,225.1738 L192.7041,225.1738" fill="none" style="stroke:#FF5F46;stroke-width:3;"/><?plantuml-src VPDlQzim4CRV-rCSxHXR89cRfUrcaj6chg6G_g5T2tjb5FkSY3ed8ybPGkXttrbsKkAItGk1xpazlqV2kZ1MQBkGb2v4uGsDNUVuomjIBEpyY_yLDXvmZKNoEjEgfFHAvKh3SHITHeCpfqqauSTkfCWstSpLRlRtN2QlXCR0zvxllMrP9mTPld_-8noqMQtklcihGUJgdTK_oCgowK_VRxDQtV-oV5VCcgfLNiri3auClpNNtO4nHyWHNeIMOihRl4u7GimOjjVhn713iDns0Z2OMAcebb8qYPP5rO3F_9M9ChSydPTO-JsLKsEbBPt-j2OhLlM-Jnjsx6rTOn8BVAkLPuCWQFrtZXf14lovl9r0eYYJC-U8ragQSKH6DFd21ilJQNK0-PxlVebQonIXG0tysytGriBLv2Q0RfSJZ8ug-iXbFgh5Qre6C7w-2oVNySlbOmo5PjygEZoWxh8ijQ85ajq1jjV16tc192-DHHtBj1OAhTB0hH-aK6OPdvMzgXp69KLQUXV83wHv9Dv9h-_tpthzVm00?></g></svg>