<?plantuml 1.2026.2?><svg xmlns="http://www.w3.org/2000/svg" xmlns:xlink="http://www.w3.org/1999/xlink" contentStyleType="text/css" data-diagram-type="MINDMAP" height="264px" preserveAspectRatio="none" style="width:630px;height:264px;background:#FFFFFF;" version="1.1" viewBox="0 0 630 264" width="630px" zoomAndPan="magnify"><defs/><g><rect fill="#FF5F46" height="36.4883" rx="12.5" ry="12.5" style="stroke:#FF5F46;stroke-width:3;" width="157.498" x="10" y="113.209"/><text fill="#FFFFFF" font-family="sans-serif" font-size="14" lengthAdjust="spacing" textLength="137.498" x="20" y="136.7441">Deployment Targets</text><rect fill="#0078D4" height="36.4883" rx="12.5" ry="12.5" style="stroke:#0078D4;stroke-width:3;" width="151.2842" x="217.498" y="28.7324"/><text fill="#FFFFFF" font-family="sans-serif" font-size="14" lengthAdjust="spacing" textLength="131.2842" x="227.498" y="52.2676">Development Mode</text><text fill="#000000" font-family="sans-serif" font-size="14" lengthAdjust="spacing" textLength="135.0508" x="421.7822" y="24.5352">mode: development</text><path d="M368.7822,46.9766 L378.7822,46.9766 C393.7822,46.9766 393.7822,19.2441 408.7822,19.2441 L418.7822,19.2441" fill="none" style="stroke:#0078D4;stroke-width:3;"/><text fill="#000000" font-family="sans-serif" font-size="14" lengthAdjust="spacing" textLength="151.9424" x="421.7822" y="43.0234">Prefix: [dev username]</text><path d="M368.7822,46.9766 L378.7822,46.9766 C393.7822,46.9766 393.7822,37.7324 408.7822,37.7324 L418.7822,37.7324" fill="none" style="stroke:#0078D4;stroke-width:3;"/><text fill="#000000" font-family="sans-serif" font-size="14" lengthAdjust="spacing" textLength="138.1953" x="421.7822" y="61.5117">Pauses all schedules</text><path d="M368.7822,46.9766 L378.7822,46.9766 C393.7822,46.9766 393.7822,56.2207 408.7822,56.2207 L418.7822,56.2207" fill="none" style="stroke:#0078D4;stroke-width:3;"/><text fill="#000000" font-family="sans-serif" font-size="14" lengthAdjust="spacing" textLength="164.4043" x="421.7822" y="80">Enables concurrent runs</text><path d="M368.7822,46.9766 L378.7822,46.9766 C393.7822,46.9766 393.7822,74.709 408.7822,74.709 L418.7822,74.709" fill="none" style="stroke:#0078D4;stroke-width:3;"/><path d="M167.498,131.4531 L177.498,131.4531 C192.498,131.4531 192.498,46.9766 207.498,46.9766 L217.498,46.9766" fill="none" style="stroke:#FF5F46;stroke-width:3;"/><rect fill="#0078D4" height="36.4883" rx="12.5" ry="12.5" style="stroke:#0078D4;stroke-width:3;" width="135.0078" x="217.498" y="93.4414"/><text fill="#FFFFFF" font-family="sans-serif" font-size="14" lengthAdjust="spacing" textLength="115.0078" x="227.498" y="116.9766">Production Mode</text><text fill="#000000" font-family="sans-serif" font-size="14" lengthAdjust="spacing" textLength="121.5225" x="405.5059" y="98.4883">mode: production</text><path d="M352.5059,111.6855 L362.5059,111.6855 C377.5059,111.6855 377.5059,93.1973 392.5059,93.1973 L402.5059,93.1973" fill="none" style="stroke:#0078D4;stroke-width:3;"/><text fill="#000000" font-family="sans-serif" font-size="14" lengthAdjust="spacing" textLength="183.1006" x="405.5059" y="116.9766">Validates Git branch match</text><path d="M352.5059,111.6855 L362.5059,111.6855 C377.5059,111.6855 377.5059,111.6855 392.5059,111.6855 L402.5059,111.6855" fill="none" style="stroke:#0078D4;stroke-width:3;"/><text fill="#000000" font-family="sans-serif" font-size="14" lengthAdjust="spacing" textLength="213.0078" x="405.5059" y="135.4648">Recommends service principals</text><path d="M352.5059,111.6855 L362.5059,111.6855 C377.5059,111.6855 377.5059,130.1738 392.5059,130.1738 L402.5059,130.1738" fill="none" style="stroke:#0078D4;stroke-width:3;"/><path d="M167.498,131.4531 L177.498,131.4531 C192.498,131.4531 192.498,111.6855 207.498,111.6855 L217.498,111.6855" fill="none" style="stroke:#FF5F46;stroke-width:3;"/><rect fill="#0078D4" height="36.4883" rx="12.5" ry="12.5" style="stroke:#0078D4;stroke-width:3;" width="68.5762" x="217.498" y="149.9297"/><text fill="#FFFFFF" font-family="sans-serif" font-size="14" lengthAdjust="spacing" textLength="48.5762" x="227.498" y="173.4648">Presets</text><text fill="#000000" font-family="sans-serif" font-size="14" lengthAdjust="spacing" textLength="84.4102" x="339.0742" y="154.9766">name_prefix</text><path d="M286.0742,168.1738 L296.0742,168.1738 C311.0742,168.1738 311.0742,149.6855 326.0742,149.6855 L336.0742,149.6855" fill="none" style="stroke:#0078D4;stroke-width:3;"/><text fill="#000000" font-family="sans-serif" font-size="14" lengthAdjust="spacing" textLength="141.333" x="339.0742" y="173.4648">trigger_pause_status</text><path d="M286.0742,168.1738 L296.0742,168.1738 C311.0742,168.1738 311.0742,168.1738 326.0742,168.1738 L336.0742,168.1738" fill="none" style="stroke:#0078D4;stroke-width:3;"/><text fill="#000000" font-family="sans-serif" font-size="14" lengthAdjust="spacing" textLength="85.6816" x="339.0742" y="191.9531">Custom tags</text><path d="M286.0742,168.1738 L296.0742,168.1738 C311.0742,168.1738 311.0742,186.6621 326.0742,186.6621 L336.0742,186.6621" fill="none" style="stroke:#0078D4;stroke-width:3;"/><path d="M167.498,131.4531 L177.498,131.4531 C192.498,131.4531 192.498,168.1738 207.498,168.1738 L217.498,168.1738" fill="none" style="stroke:#FF5F46;stroke-width:3;"/><rect fill="#0078D4" height="36.4883" rx="12.5" ry="12.5" style="stroke:#0078D4;stroke-width:3;" width="88.5576" x="217.498" y="206.418"/><text fill="#FFFFFF" font-family="sans-serif" font-size="14" lengthAdjust="spacing" textLength="68.5576" x="227.498" y="229.9531">Use Cases</text><text fill="#000000" font-family="sans-serif" font-size="14" lengthAdjust="spacing" textLength="147.8613" x="359.0557" y="220.709">Staging environments</text><path d="M306.0557,224.6621 L316.0557,224.6621 C331.0557,224.6621 331.0557,215.418 346.0557,215.418 L356.0557,215.418" fill="none" style="stroke:#0078D4;stroke-width:3;"/><text fill="#000000" font-family="sans-serif" font-size="14" lengthAdjust="spacing" textLength="205.1055" x="359.0557" y="239.1973">Specialized deployment needs</text><path d="M306.0557,224.6621 L316.0557,224.6621 C331.0557,224.6621 331.0557,233.9063 346.0557,233.9063 L356.0557,233.9063" fill="none" style="stroke:#0078D4;stroke-width:3;"/><path d="M167.498,131.4531 L177.498,131.4531 C192.498,131.4531 192.498,224.6621 207.498,224.6621 L217.498,224.6621" fill="none" style="stroke:#FF5F46;stroke-width:3;"/><?plantuml-src VPD9JyCm48Nl-HKZSO4UIYXxXH2Y42uW8ROBGfLhJnCBPspPJiKY_ZkJfKK4bJabtnlDUpDApa8KFfQQL2bSSXBYky7JPApGnM8ptOBF1BZEXNpDlQr8JQon7ZQoR3_REsYqQqtubsQMOaVdJQrw7mejNmb3WDrXcdmjlNRMUgNfuT75Nj-hHtzFxIN8clhn6gtrcizdnsdQz-hHVxtIfjXhPjzCtVEvjkDakplt02xG6VjU8aLu43x76991JHTeh6lmZLN8R325af_6e7wq5jzwdEktCJop0bL0JwB4bquJ3088Oo380bN5oLhbaiICNq1QafNtjPElg76_zLPLCcfBVypTIchfap1QYSXphdI4cHSa2oX5b4Mhtw6q9KTL0JZOGala4PgaTi9qNXZQfRcx3ZvrpJejY5xdEVgfgzUOyXSRgwvrKeLeIuWYRyOy1eI92ClbxfbhoW5feRsb-bPBnQ7K7Fe35LzoTNj2L24vuw3BFoBP6OxIqS5mz0q0?></g></svg>