<?plantuml 1.2026.2?><svg xmlns="http://www.w3.org/2000/svg" xmlns:xlink="http://www.w3.org/1999/xlink" contentStyleType="text/css" data-diagram-type="MINDMAP" height="304px" preserveAspectRatio="none" style="width:577px;height:304px;background:#FFFFFF;" version="1.1" viewBox="0 0 577 304" width="577px" zoomAndPan="magnify"><defs/><g><rect fill="#FF5F46" height="36.4883" rx="12.5" ry="12.5" style="stroke:#FF5F46;stroke-width:3;" width="117.5762" x="10" y="132.9766"/><text fill="#FFFFFF" font-family="sans-serif" font-size="14" lengthAdjust="spacing" textLength="97.5762" x="20" y="156.5117">Deploy Bundle</text><rect fill="#0078D4" height="36.4883" rx="12.5" ry="12.5" style="stroke:#0078D4;stroke-width:3;" width="89.6582" x="177.5762" y="20"/><text fill="#FFFFFF" font-family="sans-serif" font-size="14" lengthAdjust="spacing" textLength="69.6582" x="187.5762" y="43.5352">Command</text><text fill="#000000" font-family="sans-serif" font-size="14" lengthAdjust="spacing" textLength="171.6777" x="320.2344" y="43.5352">databricks bundle deploy</text><path d="M267.2344,38.2441 L277.2344,38.2441 C292.2344,38.2441 292.2344,38.2441 307.2344,38.2441 L317.2344,38.2441" fill="none" style="stroke:#0078D4;stroke-width:3;"/><path d="M127.5762,151.2207 L137.5762,151.2207 C152.5762,151.2207 152.5762,38.2441 167.5762,38.2441 L177.5762,38.2441" fill="none" style="stroke:#FF5F46;stroke-width:3;"/><rect fill="#0078D4" height="36.4883" rx="12.5" ry="12.5" style="stroke:#0078D4;stroke-width:3;" width="129.4365" x="177.5762" y="76.4883"/><text fill="#FFFFFF" font-family="sans-serif" font-size="14" lengthAdjust="spacing" textLength="109.4365" x="187.5762" y="100.0234">Target Selection</text><text fill="#000000" font-family="sans-serif" font-size="14" lengthAdjust="spacing" textLength="154.9365" x="360.0127" y="90.7793">Default target (no flag)</text><path d="M307.0127,94.7324 L317.0127,94.7324 C332.0127,94.7324 332.0127,85.4883 347.0127,85.4883 L357.0127,85.4883" fill="none" style="stroke:#0078D4;stroke-width:3;"/><text fill="#000000" font-family="sans-serif" font-size="14" lengthAdjust="spacing" textLength="114.5293" x="360.0127" y="109.2676">-t dev or -t prod</text><path d="M307.0127,94.7324 L317.0127,94.7324 C332.0127,94.7324 332.0127,103.9766 347.0127,103.9766 L357.0127,103.9766" fill="none" style="stroke:#0078D4;stroke-width:3;"/><path d="M127.5762,151.2207 L137.5762,151.2207 C152.5762,151.2207 152.5762,94.7324 167.5762,94.7324 L177.5762,94.7324" fill="none" style="stroke:#FF5F46;stroke-width:3;"/><rect fill="#0078D4" height="36.4883" rx="12.5" ry="12.5" style="stroke:#0078D4;stroke-width:3;" width="117.3301" x="177.5762" y="132.9766"/><text fill="#FFFFFF" font-family="sans-serif" font-size="14" lengthAdjust="spacing" textLength="97.3301" x="187.5762" y="156.5117">What Happens</text><text fill="#000000" font-family="sans-serif" font-size="14" lengthAdjust="spacing" textLength="158.2861" x="347.9063" y="138.0234">New resources: created</text><path d="M294.9063,151.2207 L304.9063,151.2207 C319.9063,151.2207 319.9063,132.7324 334.9063,132.7324 L344.9063,132.7324" fill="none" style="stroke:#0078D4;stroke-width:3;"/><text fill="#000000" font-family="sans-serif" font-size="14" lengthAdjust="spacing" textLength="189.0273" x="347.9063" y="156.5117">Existing resources: updated</text><path d="M294.9063,151.2207 L304.9063,151.2207 C319.9063,151.2207 319.9063,151.2207 334.9063,151.2207 L344.9063,151.2207" fill="none" style="stroke:#0078D4;stroke-width:3;"/><text fill="#000000" font-family="sans-serif" font-size="14" lengthAdjust="spacing" textLength="191.5635" x="347.9063" y="175">Removed resources: deleted</text><path d="M294.9063,151.2207 L304.9063,151.2207 C319.9063,151.2207 319.9063,169.709 334.9063,169.709 L344.9063,169.709" fill="none" style="stroke:#0078D4;stroke-width:3;"/><path d="M127.5762,151.2207 L137.5762,151.2207 C152.5762,151.2207 152.5762,151.2207 167.5762,151.2207 L177.5762,151.2207" fill="none" style="stroke:#FF5F46;stroke-width:3;"/><rect fill="#0078D4" height="36.4883" rx="12.5" ry="12.5" style="stroke:#0078D4;stroke-width:3;" width="117.1045" x="177.5762" y="189.4648"/><text fill="#FFFFFF" font-family="sans-serif" font-size="14" lengthAdjust="spacing" textLength="97.1045" x="187.5762" y="213">State Tracking</text><text fill="#000000" font-family="sans-serif" font-size="14" lengthAdjust="spacing" textLength="174.8291" x="347.6807" y="203.7559">State stored in workspace</text><path d="M294.6807,207.709 L304.6807,207.709 C319.6807,207.709 319.6807,198.4648 334.6807,198.4648 L344.6807,198.4648" fill="none" style="stroke:#0078D4;stroke-width:3;"/><text fill="#000000" font-family="sans-serif" font-size="14" lengthAdjust="spacing" textLength="217.8545" x="347.6807" y="222.2441">Unique per bundle+target+user</text><path d="M294.6807,207.709 L304.6807,207.709 C319.6807,207.709 319.6807,216.9531 334.6807,216.9531 L344.6807,216.9531" fill="none" style="stroke:#0078D4;stroke-width:3;"/><path d="M127.5762,151.2207 L137.5762,151.2207 C152.5762,151.2207 152.5762,207.709 167.5762,207.709 L177.5762,207.709" fill="none" style="stroke:#FF5F46;stroke-width:3;"/><rect fill="#0078D4" height="36.4883" rx="12.5" ry="12.5" style="stroke:#0078D4;stroke-width:3;" width="61.2344" x="177.5762" y="245.9531"/><text fill="#FFFFFF" font-family="sans-serif" font-size="14" lengthAdjust="spacing" textLength="41.2344" x="187.5762" y="269.4883">CI/CD</text><text fill="#000000" font-family="sans-serif" font-size="14" lengthAdjust="spacing" textLength="139.3711" x="291.8105" y="260.2441">--auto-approve flag</text><path d="M238.8105,264.1973 L248.8105,264.1973 C263.8105,264.1973 263.8105,254.9531 278.8105,254.9531 L288.8105,254.9531" fill="none" style="stroke:#0078D4;stroke-width:3;"/><text fill="#000000" font-family="sans-serif" font-size="14" lengthAdjust="spacing" textLength="188.7266" x="291.8105" y="278.7324">Skips confirmation prompts</text><path d="M238.8105,264.1973 L248.8105,264.1973 C263.8105,264.1973 263.8105,273.4414 278.8105,273.4414 L288.8105,273.4414" fill="none" style="stroke:#0078D4;stroke-width:3;"/><path d="M127.5762,151.2207 L137.5762,151.2207 C152.5762,151.2207 152.5762,264.1973 167.5762,264.1973 L177.5762,264.1973" fill="none" style="stroke:#FF5F46;stroke-width:3;"/><?plantuml-src VLDDJy904BttLqpY1J10HSIF64C46qsC1y5uDDlk53Qqk-lkL2N4_-wsMmLhS4wRUM_clNd9ZYqnGxcGF6SwkBIqpl0gkE2eQTaAsx09mDKrIrOBemh99ofJ1WwYw2GQZYhiNaZysusKfBgRLlN3dIz5if9eBHptmk3pM-jehrOOdfvDXqsjHlVtreQ3gAgjrc2lLfh6vs7Or6fq_zKAgt9QiVh8IivcB-EoNyVTWIdgJAtXsZd9CEXqOABod4dkdfqNu8nOR9oeXRXY0A_u9N7Ep089PfXXGa99Fp75b1KP0Ncq9HMa6LkqFTebj-0Dd1dtqaQLCl2yP0ItJ6kKrjCUy1qCMbMO1Eq590OPOMtfvaDO4dAnIoWqtn8UCLTlo7TnxZnw76Rac30tBd-tn4_udYLbt9YGyAxCocgMe8UVf7Wj43IQEeH3VznXOT5KaTtr9zFwm2uhI7NTCSQPg4wlDLP2MqYKJ8N9MPbNUN-koGPZT7-W_WV1KMyG3aQzmHS0?></g></svg>