<?plantuml 1.2026.2?><svg xmlns="http://www.w3.org/2000/svg" xmlns:xlink="http://www.w3.org/1999/xlink" contentStyleType="text/css" data-diagram-type="MINDMAP" height="313px" preserveAspectRatio="none" style="width:680px;height:313px;background:#FFFFFF;" version="1.1" viewBox="0 0 680 313" width="680px" zoomAndPan="magnify"><defs/><g><rect fill="#FF5F46" height="52.9766" rx="12.5" ry="12.5" style="stroke:#FF5F46;stroke-width:3;" width="124.46" x="10" y="129.0986"/><text fill="#FFFFFF" font-family="sans-serif" font-size="14" lengthAdjust="spacing" textLength="104.46" x="20" y="152.6338">SQL Warehouse</text><text fill="#FFFFFF" font-family="sans-serif" font-size="14" lengthAdjust="spacing" textLength="85.2031" x="20" y="169.1221">Performance</text><rect fill="#0078D4" height="36.4883" rx="12.5" ry="12.5" style="stroke:#0078D4;stroke-width:3;" width="99.8984" x="184.46" y="20"/><text fill="#FFFFFF" font-family="sans-serif" font-size="14" lengthAdjust="spacing" textLength="79.8984" x="194.46" y="43.5352">Access Path</text><text fill="#000000" font-family="sans-serif" font-size="14" lengthAdjust="spacing" textLength="103.2705" x="337.3584" y="34.291">SQL warehouse</text><path d="M284.3584,38.2441 L294.3584,38.2441 C309.3584,38.2441 309.3584,29 324.3584,29 L334.3584,29" fill="none" style="stroke:#0078D4;stroke-width:3;"/><text fill="#000000" font-family="sans-serif" font-size="14" lengthAdjust="spacing" textLength="100.6318" x="337.3584" y="52.7793">Monitoring tab</text><path d="M284.3584,38.2441 L294.3584,38.2441 C309.3584,38.2441 309.3584,47.4883 324.3584,47.4883 L334.3584,47.4883" fill="none" style="stroke:#0078D4;stroke-width:3;"/><path d="M134.46,155.5869 L144.46,155.5869 C159.46,155.5869 159.46,38.2441 174.46,38.2441 L184.46,38.2441" fill="none" style="stroke:#FF5F46;stroke-width:3;"/><rect fill="#0078D4" height="36.4883" rx="12.5" ry="12.5" style="stroke:#0078D4;stroke-width:3;" width="111.5059" x="184.46" y="76.4883"/><text fill="#FFFFFF" font-family="sans-serif" font-size="14" lengthAdjust="spacing" textLength="91.5059" x="194.46" y="100.0234">Live Statistics</text><text fill="#000000" font-family="sans-serif" font-size="14" lengthAdjust="spacing" textLength="119.7451" x="348.9658" y="72.291">Warehouse status</text><path d="M295.9658,94.7324 L305.9658,94.7324 C320.9658,94.7324 320.9658,67 335.9658,67 L345.9658,67" fill="none" style="stroke:#0078D4;stroke-width:3;"/><text fill="#000000" font-family="sans-serif" font-size="14" lengthAdjust="spacing" textLength="110.8242" x="348.9658" y="90.7793">Running queries</text><path d="M295.9658,94.7324 L305.9658,94.7324 C320.9658,94.7324 320.9658,85.4883 335.9658,85.4883 L345.9658,85.4883" fill="none" style="stroke:#0078D4;stroke-width:3;"/><text fill="#000000" font-family="sans-serif" font-size="14" lengthAdjust="spacing" textLength="107.1055" x="348.9658" y="109.2676">Queued queries</text><path d="M295.9658,94.7324 L305.9658,94.7324 C320.9658,94.7324 320.9658,103.9766 335.9658,103.9766 L345.9658,103.9766" fill="none" style="stroke:#0078D4;stroke-width:3;"/><text fill="#000000" font-family="sans-serif" font-size="14" lengthAdjust="spacing" textLength="144.6074" x="348.9658" y="127.7559">Current cluster count</text><path d="M295.9658,94.7324 L305.9658,94.7324 C320.9658,94.7324 320.9658,122.4648 335.9658,122.4648 L345.9658,122.4648" fill="none" style="stroke:#0078D4;stroke-width:3;"/><path d="M134.46,155.5869 L144.46,155.5869 C159.46,155.5869 159.46,94.7324 174.46,94.7324 L184.46,94.7324" fill="none" style="stroke:#FF5F46;stroke-width:3;"/><rect fill="#0078D4" height="36.4883" rx="12.5" ry="12.5" style="stroke:#0078D4;stroke-width:3;" width="183.1191" x="184.46" y="141.709"/><text fill="#FFFFFF" font-family="sans-serif" font-size="14" lengthAdjust="spacing" textLength="163.1191" x="194.46" y="165.2441">Peak Query Count Chart</text><text fill="#000000" font-family="sans-serif" font-size="14" lengthAdjust="spacing" textLength="160.7471" x="420.5791" y="146.7559">Max concurrent queries</text><path d="M367.5791,159.9531 L377.5791,159.9531 C392.5791,159.9531 392.5791,141.4648 407.5791,141.4648 L417.5791,141.4648" fill="none" style="stroke:#0078D4;stroke-width:3;"/><text fill="#000000" font-family="sans-serif" font-size="14" lengthAdjust="spacing" textLength="126.9707" x="420.5791" y="165.2441">Running + queued</text><path d="M367.5791,159.9531 L377.5791,159.9531 C392.5791,159.9531 392.5791,159.9531 407.5791,159.9531 L417.5791,159.9531" fill="none" style="stroke:#0078D4;stroke-width:3;"/><text fill="#000000" font-family="sans-serif" font-size="14" lengthAdjust="spacing" textLength="151.6963" x="420.5791" y="183.7324">Demand spikes visible</text><path d="M367.5791,159.9531 L377.5791,159.9531 C392.5791,159.9531 392.5791,178.4414 407.5791,178.4414 L417.5791,178.4414" fill="none" style="stroke:#0078D4;stroke-width:3;"/><path d="M134.46,155.5869 L144.46,155.5869 C159.46,155.5869 159.46,159.9531 174.46,159.9531 L184.46,159.9531" fill="none" style="stroke:#FF5F46;stroke-width:3;"/><rect fill="#0078D4" height="36.4883" rx="12.5" ry="12.5" style="stroke:#0078D4;stroke-width:3;" width="177.7734" x="184.46" y="198.1973"/><text fill="#FFFFFF" font-family="sans-serif" font-size="14" lengthAdjust="spacing" textLength="157.7734" x="194.46" y="221.7324">Running Clusters Chart</text><text fill="#000000" font-family="sans-serif" font-size="14" lengthAdjust="spacing" textLength="187.0381" x="415.2334" y="203.2441">Cluster allocation over time</text><path d="M362.2334,216.4414 L372.2334,216.4414 C387.2334,216.4414 387.2334,197.9531 402.2334,197.9531 L412.2334,197.9531" fill="none" style="stroke:#0078D4;stroke-width:3;"/><text fill="#000000" font-family="sans-serif" font-size="14" lengthAdjust="spacing" textLength="188.0703" x="415.2334" y="221.7324">Shows autoscaling behavior</text><path d="M362.2334,216.4414 L372.2334,216.4414 C387.2334,216.4414 387.2334,216.4414 402.2334,216.4414 L412.2334,216.4414" fill="none" style="stroke:#0078D4;stroke-width:3;"/><text fill="#000000" font-family="sans-serif" font-size="14" lengthAdjust="spacing" textLength="253.251" x="415.2334" y="240.2207">Max capacity sustained = undersized</text><path d="M362.2334,216.4414 L372.2334,216.4414 C387.2334,216.4414 387.2334,234.9297 402.2334,234.9297 L412.2334,234.9297" fill="none" style="stroke:#0078D4;stroke-width:3;"/><path d="M134.46,155.5869 L144.46,155.5869 C159.46,155.5869 159.46,216.4414 174.46,216.4414 L184.46,216.4414" fill="none" style="stroke:#FF5F46;stroke-width:3;"/><rect fill="#0078D4" height="36.4883" rx="12.5" ry="12.5" style="stroke:#0078D4;stroke-width:3;" width="154.8594" x="184.46" y="254.6855"/><text fill="#FFFFFF" font-family="sans-serif" font-size="14" lengthAdjust="spacing" textLength="134.8594" x="194.46" y="278.2207">Query History Table</text><text fill="#000000" font-family="sans-serif" font-size="14" lengthAdjust="spacing" textLength="170.6592" x="392.3193" y="259.7324">Start time, duration, user</text><path d="M339.3193,272.9297 L349.3193,272.9297 C364.3193,272.9297 364.3193,254.4414 379.3193,254.4414 L389.3193,254.4414" fill="none" style="stroke:#0078D4;stroke-width:3;"/><text fill="#000000" font-family="sans-serif" font-size="14" lengthAdjust="spacing" textLength="184.6592" x="392.3193" y="278.2207">Filter long-running queries</text><path d="M339.3193,272.9297 L349.3193,272.9297 C364.3193,272.9297 364.3193,272.9297 379.3193,272.9297 L389.3193,272.9297" fill="none" style="stroke:#0078D4;stroke-width:3;"/><text fill="#000000" font-family="sans-serif" font-size="14" lengthAdjust="spacing" textLength="192.6094" x="392.3193" y="296.709">Identify resource consumers</text><path d="M339.3193,272.9297 L349.3193,272.9297 C364.3193,272.9297 364.3193,291.418 379.3193,291.418 L389.3193,291.418" fill="none" style="stroke:#0078D4;stroke-width:3;"/><path d="M134.46,155.5869 L144.46,155.5869 C159.46,155.5869 159.46,272.9297 174.46,272.9297 L184.46,272.9297" fill="none" style="stroke:#FF5F46;stroke-width:3;"/><?plantuml-src VPDjRzCm4CVVvrESn1ieesHbZ0SDj2rJDAGYTNGIRv2GurmQguvT_D2jJ7ntpeuxrcpbtaJ-v-v-vx_jK-kOSPrGTSTMsObr6ucViuyrhbpxF7y1TnbGd3E-N1ZjLLregGqyAyktvT5n_3SL2X-hfLOkgKsC-zphLl2bGclXpJZF_cnPXtjPUVxk_SNHa3LGTxiE9YXZ_6DDzhAQflgGvqFMGFqlAuz1h4hVof1pjpVZv7MoUmJpgobyPmPRxIt-K3CqZJOTKnopqGZEE0-TPiorj1pzZEats_HU-ggLSDe8jG37gb0r5Mk4kMDEM2UuxTFk8K07xtnIltcbGkKlZqPW4gyyUgntjS8RWye1bzuwDC39EnTWCsJBK64sK0GDYfRkLHgDtLAYugbsf-6M_3B8XElL2wIzrs1NOeaMriAAIaOdjkb5pxSFCKa39gNcj6kjGAzfxKINF9gt-iO2yqvRpcJeKs7BraAR1uEo5UF2RS1IDqQdNSCde0j2CF4xpfUsUKcsQlfUitwsq3-yfSWxWDgRECC1aDcfVoba651gjNXbdhByIqq6YMO31gtsXcFmpVgEuDafqXjDxpGx74_ooV5uyXS0?></g></svg>