<?plantuml 1.2026.2?><svg xmlns="http://www.w3.org/2000/svg" xmlns:xlink="http://www.w3.org/1999/xlink" contentStyleType="text/css" data-diagram-type="MINDMAP" height="356px" preserveAspectRatio="none" style="width:601px;height:356px;background:#FFFFFF;" version="1.1" viewBox="0 0 601 356" width="601px" zoomAndPan="magnify"><defs/><g><rect fill="#FF5F46" height="52.9766" rx="12.5" ry="12.5" style="stroke:#FF5F46;stroke-width:3;" width="137.4551" x="10" y="150.9297"/><text fill="#FFFFFF" font-family="sans-serif" font-size="14" lengthAdjust="spacing" textLength="79.8916" x="20" y="174.4648">Track Costs</text><text fill="#FFFFFF" font-family="sans-serif" font-size="14" lengthAdjust="spacing" textLength="117.4551" x="20" y="190.9531">Budgets &amp; Tables</text><rect fill="#0078D4" height="36.4883" rx="12.5" ry="12.5" style="stroke:#0078D4;stroke-width:3;" width="74.4551" x="197.4551" y="28.7324"/><text fill="#FFFFFF" font-family="sans-serif" font-size="14" lengthAdjust="spacing" textLength="54.4551" x="207.4551" y="52.2676">Budgets</text><text fill="#000000" font-family="sans-serif" font-size="14" lengthAdjust="spacing" textLength="111.6855" x="324.9102" y="24.5352">Financial targets</text><path d="M271.9102,46.9766 L281.9102,46.9766 C296.9102,46.9766 296.9102,19.2441 311.9102,19.2441 L321.9102,19.2441" fill="none" style="stroke:#0078D4;stroke-width:3;"/><text fill="#000000" font-family="sans-serif" font-size="14" lengthAdjust="spacing" textLength="125.2891" x="324.9102" y="43.0234">Email notifications</text><path d="M271.9102,46.9766 L281.9102,46.9766 C296.9102,46.9766 296.9102,37.7324 311.9102,37.7324 L321.9102,37.7324" fill="none" style="stroke:#0078D4;stroke-width:3;"/><text fill="#000000" font-family="sans-serif" font-size="14" lengthAdjust="spacing" textLength="148.1348" x="324.9102" y="61.5117">Filter by team/project</text><path d="M271.9102,46.9766 L281.9102,46.9766 C296.9102,46.9766 296.9102,56.2207 311.9102,56.2207 L321.9102,56.2207" fill="none" style="stroke:#0078D4;stroke-width:3;"/><text fill="#000000" font-family="sans-serif" font-size="14" lengthAdjust="spacing" textLength="163.8369" x="324.9102" y="80">Account admin required</text><path d="M271.9102,46.9766 L281.9102,46.9766 C296.9102,46.9766 296.9102,74.709 311.9102,74.709 L321.9102,74.709" fill="none" style="stroke:#0078D4;stroke-width:3;"/><path d="M147.4551,177.418 L157.4551,177.418 C172.4551,177.418 172.4551,46.9766 187.4551,46.9766 L197.4551,46.9766" fill="none" style="stroke:#FF5F46;stroke-width:3;"/><rect fill="#0078D4" height="36.4883" rx="12.5" ry="12.5" style="stroke:#0078D4;stroke-width:3;" width="159.0566" x="197.4551" y="93.9531"/><text fill="#FFFFFF" font-family="sans-serif" font-size="14" lengthAdjust="spacing" textLength="139.0566" x="207.4551" y="117.4883">system.billing.usage</text><text fill="#000000" font-family="sans-serif" font-size="14" lengthAdjust="spacing" textLength="134.415" x="409.5117" y="99">Detailed usage data</text><path d="M356.5117,112.1973 L366.5117,112.1973 C381.5117,112.1973 381.5117,93.709 396.5117,93.709 L406.5117,93.709" fill="none" style="stroke:#0078D4;stroke-width:3;"/><text fill="#000000" font-family="sans-serif" font-size="14" lengthAdjust="spacing" textLength="160.4121" x="409.5117" y="117.4883">Databricks Units (DBUs)</text><path d="M356.5117,112.1973 L366.5117,112.1973 C381.5117,112.1973 381.5117,112.1973 396.5117,112.1973 L406.5117,112.1973" fill="none" style="stroke:#0078D4;stroke-width:3;"/><text fill="#000000" font-family="sans-serif" font-size="14" lengthAdjust="spacing" textLength="143.124" x="409.5117" y="135.9766">Custom tags support</text><path d="M356.5117,112.1973 L366.5117,112.1973 C381.5117,112.1973 381.5117,130.6855 396.5117,130.6855 L406.5117,130.6855" fill="none" style="stroke:#0078D4;stroke-width:3;"/><path d="M147.4551,177.418 L157.4551,177.418 C172.4551,177.418 172.4551,112.1973 187.4551,112.1973 L197.4551,112.1973" fill="none" style="stroke:#FF5F46;stroke-width:3;"/><rect fill="#0078D4" height="36.4883" rx="12.5" ry="12.5" style="stroke:#0078D4;stroke-width:3;" width="188.875" x="197.4551" y="150.4414"/><text fill="#FFFFFF" font-family="sans-serif" font-size="14" lengthAdjust="spacing" textLength="168.875" x="207.4551" y="173.9766">system.compute.clusters</text><text fill="#000000" font-family="sans-serif" font-size="14" lengthAdjust="spacing" textLength="136.8008" x="439.3301" y="164.7324">Owner / cluster info</text><path d="M386.3301,168.6855 L396.3301,168.6855 C411.3301,168.6855 411.3301,159.4414 426.3301,159.4414 L436.3301,159.4414" fill="none" style="stroke:#0078D4;stroke-width:3;"/><text fill="#000000" font-family="sans-serif" font-size="14" lengthAdjust="spacing" textLength="150.2402" x="439.3301" y="183.2207">Join with billing.usage</text><path d="M386.3301,168.6855 L396.3301,168.6855 C411.3301,168.6855 411.3301,177.9297 426.3301,177.9297 L436.3301,177.9297" fill="none" style="stroke:#0078D4;stroke-width:3;"/><path d="M147.4551,177.418 L157.4551,177.418 C172.4551,177.418 172.4551,168.6855 187.4551,168.6855 L197.4551,168.6855" fill="none" style="stroke:#FF5F46;stroke-width:3;"/><rect fill="#0078D4" height="36.4883" rx="12.5" ry="12.5" style="stroke:#0078D4;stroke-width:3;" width="52.4502" x="197.4551" y="215.6621"/><text fill="#FFFFFF" font-family="sans-serif" font-size="14" lengthAdjust="spacing" textLength="32.4502" x="207.4551" y="239.1973">Tags</text><text fill="#000000" font-family="sans-serif" font-size="14" lengthAdjust="spacing" textLength="188.624" x="302.9053" y="211.4648">Propagate to billing records</text><path d="M249.9053,233.9063 L259.9053,233.9063 C274.9053,233.9063 274.9053,206.1738 289.9053,206.1738 L299.9053,206.1738" fill="none" style="stroke:#0078D4;stroke-width:3;"/><text fill="#000000" font-family="sans-serif" font-size="14" lengthAdjust="spacing" textLength="112.834" x="302.9053" y="229.9531">Cost chargeback</text><path d="M249.9053,233.9063 L259.9053,233.9063 C274.9053,233.9063 274.9053,224.6621 289.9053,224.6621 L299.9053,224.6621" fill="none" style="stroke:#0078D4;stroke-width:3;"/><text fill="#000000" font-family="sans-serif" font-size="14" lengthAdjust="spacing" textLength="185.5684" x="302.9053" y="248.4414">Apply at cluster/workspace</text><path d="M249.9053,233.9063 L259.9053,233.9063 C274.9053,233.9063 274.9053,243.1504 289.9053,243.1504 L299.9053,243.1504" fill="none" style="stroke:#0078D4;stroke-width:3;"/><text fill="#000000" font-family="sans-serif" font-size="14" lengthAdjust="spacing" textLength="166.5303" x="302.9053" y="266.9297">Cannot add retroactively</text><path d="M249.9053,233.9063 L259.9053,233.9063 C274.9053,233.9063 274.9053,261.6387 289.9053,261.6387 L299.9053,261.6387" fill="none" style="stroke:#0078D4;stroke-width:3;"/><path d="M147.4551,177.418 L157.4551,177.418 C172.4551,177.418 172.4551,233.9063 187.4551,233.9063 L197.4551,233.9063" fill="none" style="stroke:#FF5F46;stroke-width:3;"/><rect fill="#0078D4" height="36.4883" rx="12.5" ry="12.5" style="stroke:#0078D4;stroke-width:3;" width="119.0254" x="197.4551" y="289.6152"/><text fill="#FFFFFF" font-family="sans-serif" font-size="14" lengthAdjust="spacing" textLength="99.0254" x="207.4551" y="313.1504">Useful Queries</text><text fill="#000000" font-family="sans-serif" font-size="14" lengthAdjust="spacing" textLength="159.4619" x="369.4805" y="285.418">Daily DBU consumption</text><path d="M316.4805,307.8594 L326.4805,307.8594 C341.4805,307.8594 341.4805,280.127 356.4805,280.127 L366.4805,280.127" fill="none" style="stroke:#0078D4;stroke-width:3;"/><text fill="#000000" font-family="sans-serif" font-size="14" lengthAdjust="spacing" textLength="140.3691" x="369.4805" y="303.9063">Jobs with most DBUs</text><path d="M316.4805,307.8594 L326.4805,307.8594 C341.4805,307.8594 341.4805,298.6152 356.4805,298.6152 L366.4805,298.6152" fill="none" style="stroke:#0078D4;stroke-width:3;"/><text fill="#000000" font-family="sans-serif" font-size="14" lengthAdjust="spacing" textLength="147.4854" x="369.4805" y="322.3945">Cost by cluster owner</text><path d="M316.4805,307.8594 L326.4805,307.8594 C341.4805,307.8594 341.4805,317.1035 356.4805,317.1035 L366.4805,317.1035" fill="none" style="stroke:#0078D4;stroke-width:3;"/><text fill="#000000" font-family="sans-serif" font-size="14" lengthAdjust="spacing" textLength="142.1123" x="369.4805" y="340.8828">Usage by custom tag</text><path d="M316.4805,307.8594 L326.4805,307.8594 C341.4805,307.8594 341.4805,335.5918 356.4805,335.5918 L366.4805,335.5918" fill="none" style="stroke:#0078D4;stroke-width:3;"/><path d="M147.4551,177.418 L157.4551,177.418 C172.4551,177.418 172.4551,307.8594 187.4551,307.8594 L197.4551,307.8594" fill="none" style="stroke:#FF5F46;stroke-width:3;"/><?plantuml-src VLDDZzCm4BtdLuo4X7PxIBDbMJwqGajRSa18WDJUa91ZJr9JnpRsX5Ajzhyp-UekGMLErdjZlpTlahj88b2jhQg5JsuZ7Gs-IzugzBIxo2xXFW6kfP3xAhZ6gfKpBi2pF7-PNzzqt2TjyLyqTvO6jEpgrBlPQRct62EyIBFaOTIwEgkLPQzUhw-dMXFqxrSd3lAk7hKMPxNAidYJPLEj2VfVhQmhrYhSRzFst9_jk9qFSSzW4zW9h5oa-Cqk6rKXHNWE6r7m6ybi1WF6nzbtoBKLLcfXW9Vt27-eXJPW7UbIIq7QsLE_8GnG785Gr7CVt0-Kr7FlfUJv2OJYZm02_cnqGDLAncCahDD26wDjbJPHLDZVMIEn4YheC522n43mgGYSJeIjrJp2nNgvZPSzkMeYkPejLn5YuxqBz4H6kjetXAaqt8PXSFxvODdu70OKj2rTptnqRFUWQGTJWvnQDLp_4fmNbI04ScCVpoXTK4D76pd8NHjZmIiOCl7U747GA3i_kB2FNiXX_fMmd397flWn2av8qh_G75lnRSIoCV2rmQ0nZh5eVe-Z0CaxQMhVxcOSeuZz67Nhf8thYJ7Us3YvQvFegMsNUikT4atkqAhnBqwkqaMsk4aNVm00?></g></svg>