<?plantuml 1.2026.2?><svg xmlns="http://www.w3.org/2000/svg" xmlns:xlink="http://www.w3.org/1999/xlink" contentStyleType="text/css" data-diagram-type="MINDMAP" height="319px" preserveAspectRatio="none" style="width:539px;height:319px;background:#FFFFFF;" version="1.1" viewBox="0 0 539 319" width="539px" zoomAndPan="magnify"><defs/><g><rect fill="#FF5F46" height="52.9766" rx="12.5" ry="12.5" style="stroke:#FF5F46;stroke-width:3;" width="135.5" x="10" y="132.4648"/><text fill="#FFFFFF" font-family="sans-serif" font-size="14" lengthAdjust="spacing" textLength="52.958" x="20" y="156">Monitor</text><text fill="#FFFFFF" font-family="sans-serif" font-size="14" lengthAdjust="spacing" textLength="115.5" x="20" y="172.4883">Compute Metrics</text><rect fill="#0078D4" height="36.4883" rx="12.5" ry="12.5" style="stroke:#0078D4;stroke-width:3;" width="99.8984" x="195.5" y="27.7324"/><text fill="#FFFFFF" font-family="sans-serif" font-size="14" lengthAdjust="spacing" textLength="79.8984" x="205.5" y="51.2676">Access Path</text><text fill="#000000" font-family="sans-serif" font-size="14" lengthAdjust="spacing" textLength="130.5596" x="348.3984" y="24.5352">Compute &#8594; cluster</text><path d="M295.3984,45.9766 L305.3984,45.9766 C320.3984,45.9766 320.3984,19.2441 335.3984,19.2441 L345.3984,19.2441" fill="none" style="stroke:#0078D4;stroke-width:3;"/><text fill="#000000" font-family="sans-serif" font-size="14" lengthAdjust="spacing" textLength="75.3867" x="348.3984" y="43.0234">Metrics tab</text><path d="M295.3984,45.9766 L305.3984,45.9766 C320.3984,45.9766 320.3984,37.7324 335.3984,37.7324 L345.3984,37.7324" fill="none" style="stroke:#0078D4;stroke-width:3;"/><text fill="#000000" font-family="sans-serif" font-size="14" lengthAdjust="spacing" textLength="89.5029" x="348.3984" y="61.5117">Filter by time</text><text fill="#000000" font-family="sans-serif" font-size="14" lengthAdjust="spacing" textLength="62.2344" x="348.3984" y="78">(30 days)</text><path d="M295.3984,45.9766 L305.3984,45.9766 C320.3984,45.9766 320.3984,64.4648 335.3984,64.4648 L345.3984,64.4648" fill="none" style="stroke:#0078D4;stroke-width:3;"/><path d="M145.5,158.9531 L155.5,158.9531 C170.5,158.9531 170.5,45.9766 185.5,45.9766 L195.5,45.9766" fill="none" style="stroke:#FF5F46;stroke-width:3;"/><rect fill="#0078D4" height="36.4883" rx="12.5" ry="12.5" style="stroke:#0078D4;stroke-width:3;" width="138.2139" x="195.5" y="91.9531"/><text fill="#FFFFFF" font-family="sans-serif" font-size="14" lengthAdjust="spacing" textLength="118.2139" x="205.5" y="115.4883">Hardware Metrics</text><text fill="#000000" font-family="sans-serif" font-size="14" lengthAdjust="spacing" textLength="99.9482" x="386.7139" y="97">CPU utilization</text><path d="M333.7139,110.1973 L343.7139,110.1973 C358.7139,110.1973 358.7139,91.709 373.7139,91.709 L383.7139,91.709" fill="none" style="stroke:#0078D4;stroke-width:3;"/><text fill="#000000" font-family="sans-serif" font-size="14" lengthAdjust="spacing" textLength="127.3945" x="386.7139" y="115.4883">Memory utilization</text><path d="M333.7139,110.1973 L343.7139,110.1973 C358.7139,110.1973 358.7139,110.1973 373.7139,110.1973 L383.7139,110.1973" fill="none" style="stroke:#0078D4;stroke-width:3;"/><text fill="#000000" font-family="sans-serif" font-size="14" lengthAdjust="spacing" textLength="138.2021" x="386.7139" y="133.9766">Network throughput</text><path d="M333.7139,110.1973 L343.7139,110.1973 C358.7139,110.1973 358.7139,128.6855 373.7139,128.6855 L383.7139,128.6855" fill="none" style="stroke:#0078D4;stroke-width:3;"/><path d="M145.5,158.9531 L155.5,158.9531 C170.5,158.9531 170.5,110.1973 185.5,110.1973 L195.5,110.1973" fill="none" style="stroke:#FF5F46;stroke-width:3;"/><rect fill="#0078D4" height="36.4883" rx="12.5" ry="12.5" style="stroke:#0078D4;stroke-width:3;" width="111.6016" x="195.5" y="148.4414"/><text fill="#FFFFFF" font-family="sans-serif" font-size="14" lengthAdjust="spacing" textLength="91.6016" x="205.5" y="171.9766">Spark Metrics</text><text fill="#000000" font-family="sans-serif" font-size="14" lengthAdjust="spacing" textLength="81.0127" x="360.1016" y="153.4883">Active tasks</text><path d="M307.1016,166.6855 L317.1016,166.6855 C332.1016,166.6855 332.1016,148.1973 347.1016,148.1973 L357.1016,148.1973" fill="none" style="stroke:#0078D4;stroke-width:3;"/><text fill="#000000" font-family="sans-serif" font-size="14" lengthAdjust="spacing" textLength="167.3438" x="360.1016" y="171.9766">Failed / completed tasks</text><path d="M307.1016,166.6855 L317.1016,166.6855 C332.1016,166.6855 332.1016,166.6855 347.1016,166.6855 L357.1016,166.6855" fill="none" style="stroke:#0078D4;stroke-width:3;"/><text fill="#000000" font-family="sans-serif" font-size="14" lengthAdjust="spacing" textLength="122.5" x="360.1016" y="190.4648">Shuffle read/write</text><path d="M307.1016,166.6855 L317.1016,166.6855 C332.1016,166.6855 332.1016,185.1738 347.1016,185.1738 L357.1016,185.1738" fill="none" style="stroke:#0078D4;stroke-width:3;"/><path d="M145.5,158.9531 L155.5,158.9531 C170.5,158.9531 170.5,166.6855 185.5,166.6855 L195.5,166.6855" fill="none" style="stroke:#FF5F46;stroke-width:3;"/><rect fill="#0078D4" height="36.4883" rx="12.5" ry="12.5" style="stroke:#0078D4;stroke-width:3;" width="101.1631" x="195.5" y="204.9297"/><text fill="#FFFFFF" font-family="sans-serif" font-size="14" lengthAdjust="spacing" textLength="81.1631" x="205.5" y="228.4648">GPU Metrics</text><text fill="#000000" font-family="sans-serif" font-size="14" lengthAdjust="spacing" textLength="93.5771" x="349.6631" y="219.2207">ML workloads</text><path d="M296.6631,223.1738 L306.6631,223.1738 C321.6631,223.1738 321.6631,213.9297 336.6631,213.9297 L346.6631,213.9297" fill="none" style="stroke:#0078D4;stroke-width:3;"/><text fill="#000000" font-family="sans-serif" font-size="14" lengthAdjust="spacing" textLength="97.8906" x="349.6631" y="237.709">DBR ML 13.3+</text><path d="M296.6631,223.1738 L306.6631,223.1738 C321.6631,223.1738 321.6631,232.418 336.6631,232.418 L346.6631,232.418" fill="none" style="stroke:#0078D4;stroke-width:3;"/><path d="M145.5,158.9531 L155.5,158.9531 C170.5,158.9531 170.5,223.1738 185.5,223.1738 L195.5,223.1738" fill="none" style="stroke:#FF5F46;stroke-width:3;"/><rect fill="#0078D4" height="36.4883" rx="12.5" ry="12.5" style="stroke:#0078D4;stroke-width:3;" width="59.9219" x="195.5" y="261.418"/><text fill="#FFFFFF" font-family="sans-serif" font-size="14" lengthAdjust="spacing" textLength="39.9219" x="205.5" y="284.9531">Scope</text><text fill="#000000" font-family="sans-serif" font-size="14" lengthAdjust="spacing" textLength="97.5762" x="308.4219" y="266.4648">Per-node view</text><path d="M255.4219,279.6621 L265.4219,279.6621 C280.4219,279.6621 280.4219,261.1738 295.4219,261.1738 L305.4219,261.1738" fill="none" style="stroke:#0078D4;stroke-width:3;"/><text fill="#000000" font-family="sans-serif" font-size="14" lengthAdjust="spacing" textLength="113.2646" x="308.4219" y="284.9531">Aggregated view</text><path d="M255.4219,279.6621 L265.4219,279.6621 C280.4219,279.6621 280.4219,279.6621 295.4219,279.6621 L305.4219,279.6621" fill="none" style="stroke:#0078D4;stroke-width:3;"/><text fill="#000000" font-family="sans-serif" font-size="14" lengthAdjust="spacing" textLength="187.3047" x="308.4219" y="303.4414">Serverless &#8594; query insights</text><path d="M255.4219,279.6621 L265.4219,279.6621 C280.4219,279.6621 280.4219,298.1504 295.4219,298.1504 L305.4219,298.1504" fill="none" style="stroke:#0078D4;stroke-width:3;"/><path d="M145.5,158.9531 L155.5,158.9531 C170.5,158.9531 170.5,279.6621 185.5,279.6621 L195.5,279.6621" fill="none" style="stroke:#FF5F46;stroke-width:3;"/><?plantuml-src VPDDRjim48NtEiK0tIGkQjDsaZP5KEGFQXTnOTJjBa10aoE9C4MgvCYk6sJR0-I8EKb9MMvY1Uwif3UZzpsEm7DFt56fZ2nvbPnvMclyb7oKM55nm0xXFe5GbrmiScTh8w-ijWxUfEbnUdJIz6wKmTTgQWsrQjRKlzdlXH8BWzx3kC-IXorhk9V5sFiFrqTTLaVTTUqaI9jwPetsih9iVifObzLH_yjYJGNMtFxISUP-xyJPe5rt3oRMABBkrbpPige9OOBabF19hmSNGaIVAQSYlFRkO3lpzESHXAuzeTiqse-0-7mZf4g79ipNGAh4MtCmPY3vsXz6to_SoHLtBrdHVFe3Qb9Q_UQahDaQbzQjN-jVaLRMBO2AiCIy2AcYyQpYGTjnlH2abXY2-KMhf5nfb3004KwZaSBpY-wigBDC8pZaSh1oYZ0QVmxPTcmdDn3vsdBPAjUNtw8w7FV7RviimbQuQKtHlJDM8YmLhjfOUUumvn7-BCxGBT4r_ovk-6UDuUZAU9KNv9Dp35UblIx9i3zYevF-w2y0?></g></svg>