<?plantuml 1.2026.2?><svg xmlns="http://www.w3.org/2000/svg" xmlns:xlink="http://www.w3.org/1999/xlink" contentStyleType="text/css" data-diagram-type="MINDMAP" height="261px" preserveAspectRatio="none" style="width:591px;height:261px;background:#FFFFFF;" version="1.1" viewBox="0 0 591 261" width="591px" zoomAndPan="magnify"><defs/><g><rect fill="#FF5F46" height="52.9766" rx="12.5" ry="12.5" style="stroke:#FF5F46;stroke-width:3;" width="164.0059" x="10" y="103.2207"/><text fill="#FFFFFF" font-family="sans-serif" font-size="14" lengthAdjust="spacing" textLength="64.2305" x="20" y="126.7559">Impact of</text><text fill="#FFFFFF" font-family="sans-serif" font-size="14" lengthAdjust="spacing" textLength="144.0059" x="20" y="143.2441">Cluster Consumption</text><rect fill="#0078D4" height="36.4883" rx="12.5" ry="12.5" style="stroke:#0078D4;stroke-width:3;" width="104.5811" x="224.0059" y="20"/><text fill="#FFFFFF" font-family="sans-serif" font-size="14" lengthAdjust="spacing" textLength="84.5811" x="234.0059" y="43.5352">Idle Clusters</text><text fill="#000000" font-family="sans-serif" font-size="14" lengthAdjust="spacing" textLength="137.8193" x="381.5869" y="25.0469">Unexpected charges</text><path d="M328.5869,38.2441 L338.5869,38.2441 C353.5869,38.2441 353.5869,19.7559 368.5869,19.7559 L378.5869,19.7559" fill="none" style="stroke:#0078D4;stroke-width:3;"/><text fill="#000000" font-family="sans-serif" font-size="14" lengthAdjust="spacing" textLength="150.2471" x="381.5869" y="43.5352">Overnight / weekends</text><path d="M328.5869,38.2441 L338.5869,38.2441 C353.5869,38.2441 353.5869,38.2441 368.5869,38.2441 L378.5869,38.2441" fill="none" style="stroke:#0078D4;stroke-width:3;"/><text fill="#000000" font-family="sans-serif" font-size="14" lengthAdjust="spacing" textLength="89.1816" x="381.5869" y="62.0234">Financial risk</text><path d="M328.5869,38.2441 L338.5869,38.2441 C353.5869,38.2441 353.5869,56.7324 368.5869,56.7324 L378.5869,56.7324" fill="none" style="stroke:#0078D4;stroke-width:3;"/><path d="M174.0059,129.709 L184.0059,129.709 C199.0059,129.709 199.0059,38.2441 214.0059,38.2441 L224.0059,38.2441" fill="none" style="stroke:#FF5F46;stroke-width:3;"/><rect fill="#0078D4" height="36.4883" rx="12.5" ry="12.5" style="stroke:#0078D4;stroke-width:3;" width="147.2715" x="224.0059" y="76.4883"/><text fill="#FFFFFF" font-family="sans-serif" font-size="14" lengthAdjust="spacing" textLength="127.2715" x="234.0059" y="100.0234">Under-Provisioned</text><text fill="#000000" font-family="sans-serif" font-size="14" lengthAdjust="spacing" textLength="110.3047" x="424.2773" y="81.5352">Jobs take longer</text><path d="M371.2773,94.7324 L381.2773,94.7324 C396.2773,94.7324 396.2773,76.2441 411.2773,76.2441 L421.2773,76.2441" fill="none" style="stroke:#0078D4;stroke-width:3;"/><text fill="#000000" font-family="sans-serif" font-size="14" lengthAdjust="spacing" textLength="77.6357" x="424.2773" y="100.0234">User delays</text><path d="M371.2773,94.7324 L381.2773,94.7324 C396.2773,94.7324 396.2773,94.7324 411.2773,94.7324 L421.2773,94.7324" fill="none" style="stroke:#0078D4;stroke-width:3;"/><text fill="#000000" font-family="sans-serif" font-size="14" lengthAdjust="spacing" textLength="116.293" x="424.2773" y="118.5117">Missed deadlines</text><path d="M371.2773,94.7324 L381.2773,94.7324 C396.2773,94.7324 396.2773,113.2207 411.2773,113.2207 L421.2773,113.2207" fill="none" style="stroke:#0078D4;stroke-width:3;"/><path d="M174.0059,129.709 L184.0059,129.709 C199.0059,129.709 199.0059,94.7324 214.0059,94.7324 L224.0059,94.7324" fill="none" style="stroke:#FF5F46;stroke-width:3;"/><rect fill="#0078D4" height="36.4883" rx="12.5" ry="12.5" style="stroke:#0078D4;stroke-width:3;" width="50.4951" x="224.0059" y="139.709"/><text fill="#FFFFFF" font-family="sans-serif" font-size="14" lengthAdjust="spacing" textLength="30.4951" x="234.0059" y="163.2441">Goal</text><text fill="#000000" font-family="sans-serif" font-size="14" lengthAdjust="spacing" textLength="111.1045" x="327.501" y="137.5117">Match resources</text><text fill="#000000" font-family="sans-serif" font-size="14" lengthAdjust="spacing" textLength="87.8896" x="327.501" y="154">to workloads</text><path d="M274.501,157.9531 L284.501,157.9531 C299.501,157.9531 299.501,140.4648 314.501,140.4648 L324.501,140.4648" fill="none" style="stroke:#0078D4;stroke-width:3;"/><text fill="#000000" font-family="sans-serif" font-size="14" lengthAdjust="spacing" textLength="83.7949" x="327.501" y="172.4883">Balance cost</text><text fill="#000000" font-family="sans-serif" font-size="14" lengthAdjust="spacing" textLength="115.9375" x="327.501" y="188.9766">and performance</text><path d="M274.501,157.9531 L284.501,157.9531 C299.501,157.9531 299.501,175.4414 314.501,175.4414 L324.501,175.4414" fill="none" style="stroke:#0078D4;stroke-width:3;"/><path d="M174.0059,129.709 L184.0059,129.709 C199.0059,129.709 199.0059,157.9531 214.0059,157.9531 L224.0059,157.9531" fill="none" style="stroke:#FF5F46;stroke-width:3;"/><rect fill="#0078D4" height="36.4883" rx="12.5" ry="12.5" style="stroke:#0078D4;stroke-width:3;" width="170.9375" x="224.0059" y="202.9297"/><text fill="#FFFFFF" font-family="sans-serif" font-size="14" lengthAdjust="spacing" textLength="150.9375" x="234.0059" y="226.4648">Benefits of Monitoring</text><text fill="#000000" font-family="sans-serif" font-size="14" lengthAdjust="spacing" textLength="131.25" x="447.9434" y="207.9766">Identify waste early</text><path d="M394.9434,221.1738 L404.9434,221.1738 C419.9434,221.1738 419.9434,202.6855 434.9434,202.6855 L444.9434,202.6855" fill="none" style="stroke:#0078D4;stroke-width:3;"/><text fill="#000000" font-family="sans-serif" font-size="14" lengthAdjust="spacing" textLength="113.3262" x="447.9434" y="226.4648">Spot bottlenecks</text><path d="M394.9434,221.1738 L404.9434,221.1738 C419.9434,221.1738 419.9434,221.1738 434.9434,221.1738 L444.9434,221.1738" fill="none" style="stroke:#0078D4;stroke-width:3;"/><text fill="#000000" font-family="sans-serif" font-size="14" lengthAdjust="spacing" textLength="128.0508" x="447.9434" y="244.9531">Establish baselines</text><path d="M394.9434,221.1738 L404.9434,221.1738 C419.9434,221.1738 419.9434,239.6621 434.9434,239.6621 L444.9434,239.6621" fill="none" style="stroke:#0078D4;stroke-width:3;"/><path d="M174.0059,129.709 L184.0059,129.709 C199.0059,129.709 199.0059,221.1738 214.0059,221.1738 L224.0059,221.1738" fill="none" style="stroke:#FF5F46;stroke-width:3;"/><?plantuml-src VPBTRjD048Nl_HGZSGEHIDrGoeygL2LWL4G54lGk4bhlZksLrpFMpgHfLF7kh1C7X56OopDdvpiwscjH4xNpv3hJPrUYku3lihSEUssUvi_WCOCqIsFRElA6t8e3HtXI52-BYylzxhCd_5Sjc7HKg_tyzdvll6q9HU35FCz-7bdd9rbv_khr-uifQwB-VNMIeDZF7zRY9AkgoZTvFcLDrF-oylqaLiaFOV0yddHSdOrrp-2cwurLu6fDgx0HnGWh9jbqlNgcR9OSBY2CEqd2x0VS4JxqQ1KTsCR46aVzopr6ydMZS0PRn1R9ZPl2ao7hJO3efHtEtf73-Fnhv7ilYOJkOFp4fO2Q5Y4mrHX7eAHS3eFPZVTklKYYEpGkf6865Jwo2UFMg6qWel0cMfGrASEMOnlO70CjJKY142oBhbCs1pt6YcCtgCEr9H9MNYLL0xTCNZbwgW-FRnoI-ce7MvDQ0JGnx0wRRpqhbAmQqdFRZh0FwQ-NmKi3fH4y1BvEvHn_VtO-N-IBo_dY5m00?></g></svg>