<?plantuml 1.2026.2?><svg xmlns="http://www.w3.org/2000/svg" xmlns:xlink="http://www.w3.org/1999/xlink" contentStyleType="text/css" data-diagram-type="MINDMAP" height="263px" preserveAspectRatio="none" style="width:608px;height:263px;background:#FFFFFF;" version="1.1" viewBox="0 0 608 263" width="608px" zoomAndPan="magnify"><defs/><g><rect fill="#FF5F46" height="52.9766" rx="12.5" ry="12.5" style="stroke:#FF5F46;stroke-width:3;" width="142.7734" x="10" y="104.1973"/><text fill="#FFFFFF" font-family="sans-serif" font-size="14" lengthAdjust="spacing" textLength="122.7734" x="20" y="127.7324">Auto-Termination</text><text fill="#FFFFFF" font-family="sans-serif" font-size="14" lengthAdjust="spacing" textLength="93.9258" x="20" y="144.2207">&amp; Autoscaling</text><rect fill="#0078D4" height="36.4883" rx="12.5" ry="12.5" style="stroke:#0078D4;stroke-width:3;" width="142.7734" x="202.7734" y="37.9766"/><text fill="#FFFFFF" font-family="sans-serif" font-size="14" lengthAdjust="spacing" textLength="122.7734" x="212.7734" y="61.5117">Auto-Termination</text><text fill="#000000" font-family="sans-serif" font-size="14" lengthAdjust="spacing" textLength="165.1152" x="398.5469" y="24.5352">Shuts down idle clusters</text><path d="M345.5469,56.2207 L355.5469,56.2207 C370.5469,56.2207 370.5469,19.2441 385.5469,19.2441 L395.5469,19.2441" fill="none" style="stroke:#0078D4;stroke-width:3;"/><text fill="#000000" font-family="sans-serif" font-size="14" lengthAdjust="spacing" textLength="133.0752" x="398.5469" y="43.0234">30-60 mins for dev</text><path d="M345.5469,56.2207 L355.5469,56.2207 C370.5469,56.2207 370.5469,37.7324 385.5469,37.7324 L395.5469,37.7324" fill="none" style="stroke:#0078D4;stroke-width:3;"/><text fill="#000000" font-family="sans-serif" font-size="14" lengthAdjust="spacing" textLength="164.6777" x="398.5469" y="61.5117">Set during create or edit</text><path d="M345.5469,56.2207 L355.5469,56.2207 C370.5469,56.2207 370.5469,56.2207 385.5469,56.2207 L395.5469,56.2207" fill="none" style="stroke:#0078D4;stroke-width:3;"/><text fill="#000000" font-family="sans-serif" font-size="14" lengthAdjust="spacing" textLength="198.0098" x="398.5469" y="80">Idle = all commands finished</text><path d="M345.5469,56.2207 L355.5469,56.2207 C370.5469,56.2207 370.5469,74.709 385.5469,74.709 L395.5469,74.709" fill="none" style="stroke:#0078D4;stroke-width:3;"/><text fill="#000000" font-family="sans-serif" font-size="14" lengthAdjust="spacing" textLength="174.2412" x="398.5469" y="98.4883">DStreams NOT monitored</text><path d="M345.5469,56.2207 L355.5469,56.2207 C370.5469,56.2207 370.5469,93.1973 385.5469,93.1973 L395.5469,93.1973" fill="none" style="stroke:#0078D4;stroke-width:3;"/><path d="M152.7734,130.6855 L162.7734,130.6855 C177.7734,130.6855 177.7734,56.2207 192.7734,56.2207 L202.7734,56.2207" fill="none" style="stroke:#FF5F46;stroke-width:3;"/><rect fill="#0078D4" height="36.4883" rx="12.5" ry="12.5" style="stroke:#0078D4;stroke-width:3;" width="99.7344" x="202.7734" y="130.418"/><text fill="#FFFFFF" font-family="sans-serif" font-size="14" lengthAdjust="spacing" textLength="79.7344" x="212.7734" y="153.9531">Autoscaling</text><text fill="#000000" font-family="sans-serif" font-size="14" lengthAdjust="spacing" textLength="152.5781" x="355.5078" y="116.9766">Dynamic worker count</text><path d="M302.5078,148.6621 L312.5078,148.6621 C327.5078,148.6621 327.5078,111.6855 342.5078,111.6855 L352.5078,111.6855" fill="none" style="stroke:#0078D4;stroke-width:3;"/><text fill="#000000" font-family="sans-serif" font-size="14" lengthAdjust="spacing" textLength="167.1523" x="355.5078" y="135.4648">Min / max node settings</text><path d="M302.5078,148.6621 L312.5078,148.6621 C327.5078,148.6621 327.5078,130.1738 342.5078,130.1738 L352.5078,130.1738" fill="none" style="stroke:#0078D4;stroke-width:3;"/><text fill="#000000" font-family="sans-serif" font-size="14" lengthAdjust="spacing" textLength="169.5859" x="355.5078" y="153.9531">Adds workers when busy</text><path d="M302.5078,148.6621 L312.5078,148.6621 C327.5078,148.6621 327.5078,148.6621 342.5078,148.6621 L352.5078,148.6621" fill="none" style="stroke:#0078D4;stroke-width:3;"/><text fill="#000000" font-family="sans-serif" font-size="14" lengthAdjust="spacing" textLength="188.4258" x="355.5078" y="172.4414">Removes workers when idle</text><path d="M302.5078,148.6621 L312.5078,148.6621 C327.5078,148.6621 327.5078,167.1504 342.5078,167.1504 L352.5078,167.1504" fill="none" style="stroke:#0078D4;stroke-width:3;"/><text fill="#000000" font-family="sans-serif" font-size="14" lengthAdjust="spacing" textLength="140.5879" x="355.5078" y="190.9297">20-40% cost savings</text><path d="M302.5078,148.6621 L312.5078,148.6621 C327.5078,148.6621 327.5078,185.6387 342.5078,185.6387 L352.5078,185.6387" fill="none" style="stroke:#0078D4;stroke-width:3;"/><path d="M152.7734,130.6855 L162.7734,130.6855 C177.7734,130.6855 177.7734,148.6621 192.7734,148.6621 L202.7734,148.6621" fill="none" style="stroke:#FF5F46;stroke-width:3;"/><rect fill="#0078D4" height="36.4883" rx="12.5" ry="12.5" style="stroke:#0078D4;stroke-width:3;" width="113.6182" x="202.7734" y="204.8828"/><text fill="#FFFFFF" font-family="sans-serif" font-size="14" lengthAdjust="spacing" textLength="93.6182" x="212.7734" y="228.418">Configuration</text><text fill="#000000" font-family="sans-serif" font-size="14" lengthAdjust="spacing" textLength="189.9229" x="369.3916" y="209.9297">Enable during cluster create</text><path d="M316.3916,223.127 L326.3916,223.127 C341.3916,223.127 341.3916,204.6387 356.3916,204.6387 L366.3916,204.6387" fill="none" style="stroke:#0078D4;stroke-width:3;"/><text fill="#000000" font-family="sans-serif" font-size="14" lengthAdjust="spacing" textLength="134.6201" x="369.3916" y="228.418">Edit existing cluster</text><path d="M316.3916,223.127 L326.3916,223.127 C341.3916,223.127 341.3916,223.127 356.3916,223.127 L366.3916,223.127" fill="none" style="stroke:#0078D4;stroke-width:3;"/><text fill="#000000" font-family="sans-serif" font-size="14" lengthAdjust="spacing" textLength="172.1221" x="369.3916" y="246.9063">Specify inactivity minutes</text><path d="M316.3916,223.127 L326.3916,223.127 C341.3916,223.127 341.3916,241.6152 356.3916,241.6152 L366.3916,241.6152" fill="none" style="stroke:#0078D4;stroke-width:3;"/><path d="M152.7734,130.6855 L162.7734,130.6855 C177.7734,130.6855 177.7734,223.127 192.7734,223.127 L202.7734,223.127" fill="none" style="stroke:#FF5F46;stroke-width:3;"/><?plantuml-src VLDXQzim4FtkNt4mDhP0KjNDqcrqerqxmw3ROCt7mL2iSonYdu9qJcFA_dlFjhgrBjbz4Rptxjxf2Pq7rfvhIwRMs-GiS5lXf-I3mIsNhzKRk4j0whFEDsll6ZANhd8UNcJPsso-wBbhI_WSpHnnH8k-_cgNfSqtX270oKmbVnwyZWzwANNwxce-zXgXJwUEDiZw-kUL7lGgYjLxfSPU8_I_NgelyLgvVTLfxWugpevYt1EuQDXDb-Zb8JHRHx_eLO-5N5UMridakKImoM-uAHiEODmjWJKLGburWT67WJrHquK2wGXGYBN1NUn21jDucGovHyq8mgAnFD1VkqaVGLSLvAwkDHdfjsH3YMPGNDsmzDK1llzOGkt8ilCzDzgwaxQaQvl3hVCRz3AmeMZppH8SGQttGCuW16IMhhZwXH7JeKVE4WbMJMW7xYVMReSZkhl-GATgEbSlnIam1BsBC-7IKM7NZN-KtXVIAxdgGnH3TZ6Ig91G0FSsy2D5376BkIrQaFV8sUuijrtI3MD8pb7-K_nJoV4iLUbYbju3?></g></svg>