<?plantuml 1.2026.2?><svg xmlns="http://www.w3.org/2000/svg" xmlns:xlink="http://www.w3.org/1999/xlink" contentStyleType="text/css" data-diagram-type="MINDMAP" height="282px" preserveAspectRatio="none" style="width:689px;height:282px;background:#FFFFFF;" version="1.1" viewBox="0 0 689 282" width="689px" zoomAndPan="magnify"><defs/><g><rect fill="#FF5F46" height="52.9766" rx="12.5" ry="12.5" style="stroke:#FF5F46;stroke-width:3;" width="142.6436" x="10" y="113.9531"/><text fill="#FFFFFF" font-family="sans-serif" font-size="14" lengthAdjust="spacing" textLength="87.4932" x="20" y="137.4883">Proactive Job</text><text fill="#FFFFFF" font-family="sans-serif" font-size="14" lengthAdjust="spacing" textLength="122.6436" x="20" y="153.9766">Health Monitoring</text><rect fill="#0078D4" height="36.4883" rx="12.5" ry="12.5" style="stroke:#0078D4;stroke-width:3;" width="106.0303" x="202.6436" y="28.7324"/><text fill="#FFFFFF" font-family="sans-serif" font-size="14" lengthAdjust="spacing" textLength="86.0303" x="212.6436" y="52.2676">Notifications</text><text fill="#000000" font-family="sans-serif" font-size="14" lengthAdjust="spacing" textLength="78.5928" x="361.6738" y="24.5352">Email alerts</text><path d="M308.6738,46.9766 L318.6738,46.9766 C333.6738,46.9766 333.6738,19.2441 348.6738,19.2441 L358.6738,19.2441" fill="none" style="stroke:#0078D4;stroke-width:3;"/><text fill="#000000" font-family="sans-serif" font-size="14" lengthAdjust="spacing" textLength="107.707" x="361.6738" y="43.0234">Slack webhooks</text><path d="M308.6738,46.9766 L318.6738,46.9766 C333.6738,46.9766 333.6738,37.7324 348.6738,37.7324 L358.6738,37.7324" fill="none" style="stroke:#0078D4;stroke-width:3;"/><text fill="#000000" font-family="sans-serif" font-size="14" lengthAdjust="spacing" textLength="125.4531" x="361.6738" y="61.5117">Custom webhooks</text><path d="M308.6738,46.9766 L318.6738,46.9766 C333.6738,46.9766 333.6738,56.2207 348.6738,56.2207 L358.6738,56.2207" fill="none" style="stroke:#0078D4;stroke-width:3;"/><text fill="#000000" font-family="sans-serif" font-size="14" lengthAdjust="spacing" textLength="170.9941" x="361.6738" y="80">Know issues immediately</text><path d="M308.6738,46.9766 L318.6738,46.9766 C333.6738,46.9766 333.6738,74.709 348.6738,74.709 L358.6738,74.709" fill="none" style="stroke:#0078D4;stroke-width:3;"/><path d="M152.6436,140.4414 L162.6436,140.4414 C177.6436,140.4414 177.6436,46.9766 192.6436,46.9766 L202.6436,46.9766" fill="none" style="stroke:#FF5F46;stroke-width:3;"/><rect fill="#0078D4" height="36.4883" rx="12.5" ry="12.5" style="stroke:#0078D4;stroke-width:3;" width="149.9717" x="202.6436" y="93.9531"/><text fill="#FFFFFF" font-family="sans-serif" font-size="14" lengthAdjust="spacing" textLength="129.9717" x="212.6436" y="117.4883">Run History Review</text><text fill="#000000" font-family="sans-serif" font-size="14" lengthAdjust="spacing" textLength="138.4961" x="405.6152" y="99">Matrix view patterns</text><path d="M352.6152,112.1973 L362.6152,112.1973 C377.6152,112.1973 377.6152,93.709 392.6152,93.709 L402.6152,93.709" fill="none" style="stroke:#0078D4;stroke-width:3;"/><text fill="#000000" font-family="sans-serif" font-size="14" lengthAdjust="spacing" textLength="250.4072" x="405.6152" y="117.4883">Frequent failures = attention needed</text><path d="M352.6152,112.1973 L362.6152,112.1973 C377.6152,112.1973 377.6152,112.1973 392.6152,112.1973 L402.6152,112.1973" fill="none" style="stroke:#0078D4;stroke-width:3;"/><text fill="#000000" font-family="sans-serif" font-size="14" lengthAdjust="spacing" textLength="170.666" x="405.6152" y="135.9766">Identify task-level trends</text><path d="M352.6152,112.1973 L362.6152,112.1973 C377.6152,112.1973 377.6152,130.6855 392.6152,130.6855 L402.6152,130.6855" fill="none" style="stroke:#0078D4;stroke-width:3;"/><path d="M152.6436,140.4414 L162.6436,140.4414 C177.6436,140.4414 177.6436,112.1973 192.6436,112.1973 L202.6436,112.1973" fill="none" style="stroke:#FF5F46;stroke-width:3;"/><rect fill="#0078D4" height="36.4883" rx="12.5" ry="12.5" style="stroke:#0078D4;stroke-width:3;" width="116.9063" x="202.6436" y="159.1738"/><text fill="#FFFFFF" font-family="sans-serif" font-size="14" lengthAdjust="spacing" textLength="96.9063" x="212.6436" y="182.709">System Tables</text><text fill="#000000" font-family="sans-serif" font-size="14" lengthAdjust="spacing" textLength="164.4932" x="372.5498" y="154.9766">system.lakeflow schema</text><path d="M319.5498,177.418 L329.5498,177.418 C344.5498,177.418 344.5498,149.6855 359.5498,149.6855 L369.5498,149.6855" fill="none" style="stroke:#0078D4;stroke-width:3;"/><text fill="#000000" font-family="sans-serif" font-size="14" lengthAdjust="spacing" textLength="170.0713" x="372.5498" y="173.4648">Analyze job performance</text><path d="M319.5498,177.418 L329.5498,177.418 C344.5498,177.418 344.5498,168.1738 359.5498,168.1738 L369.5498,168.1738" fill="none" style="stroke:#0078D4;stroke-width:3;"/><text fill="#000000" font-family="sans-serif" font-size="14" lengthAdjust="spacing" textLength="178.7461" x="372.5498" y="191.9531">Cross-workspace visibility</text><path d="M319.5498,177.418 L329.5498,177.418 C344.5498,177.418 344.5498,186.6621 359.5498,186.6621 L369.5498,186.6621" fill="none" style="stroke:#0078D4;stroke-width:3;"/><text fill="#000000" font-family="sans-serif" font-size="14" lengthAdjust="spacing" textLength="135.96" x="372.5498" y="210.4414">Identify trends early</text><path d="M319.5498,177.418 L329.5498,177.418 C344.5498,177.418 344.5498,205.1504 359.5498,205.1504 L369.5498,205.1504" fill="none" style="stroke:#0078D4;stroke-width:3;"/><path d="M152.6436,140.4414 L162.6436,140.4414 C177.6436,140.4414 177.6436,177.418 192.6436,177.418 L202.6436,177.418" fill="none" style="stroke:#FF5F46;stroke-width:3;"/><rect fill="#0078D4" height="36.4883" rx="12.5" ry="12.5" style="stroke:#0078D4;stroke-width:3;" width="160.4238" x="202.6436" y="224.3945"/><text fill="#FFFFFF" font-family="sans-serif" font-size="14" lengthAdjust="spacing" textLength="140.4238" x="212.6436" y="247.9297">Proactive vs Reactive</text><text fill="#000000" font-family="sans-serif" font-size="14" lengthAdjust="spacing" textLength="222.1338" x="416.0674" y="229.4414">Reactive: investigate after failure</text><path d="M363.0674,242.6387 L373.0674,242.6387 C388.0674,242.6387 388.0674,224.1504 403.0674,224.1504 L413.0674,224.1504" fill="none" style="stroke:#0078D4;stroke-width:3;"/><text fill="#000000" font-family="sans-serif" font-size="14" lengthAdjust="spacing" textLength="171.9648" x="416.0674" y="247.9297">Proactive: prevent impact</text><path d="M363.0674,242.6387 L373.0674,242.6387 C388.0674,242.6387 388.0674,242.6387 403.0674,242.6387 L413.0674,242.6387" fill="none" style="stroke:#0078D4;stroke-width:3;"/><text fill="#000000" font-family="sans-serif" font-size="14" lengthAdjust="spacing" textLength="261.707" x="416.0674" y="266.418">Combined approach: reliable pipelines</text><path d="M363.0674,242.6387 L373.0674,242.6387 C388.0674,242.6387 388.0674,261.127 403.0674,261.127 L413.0674,261.127" fill="none" style="stroke:#0078D4;stroke-width:3;"/><path d="M152.6436,140.4414 L162.6436,140.4414 C177.6436,140.4414 177.6436,242.6387 192.6436,242.6387 L202.6436,242.6387" fill="none" style="stroke:#FF5F46;stroke-width:3;"/><?plantuml-src VLDTRzH037pFhx342vpK8prAWLD1XKBK0aMexICISXBdOh8VOTV9DLJyTpOVrugWmq-RsR5dnabElQ0JpIRNM4SdNZf5Rw9rJhMKZ-CdS1T1g7UOLHjd6vEVMMKTF4gIvydHyN3tcGtzYoRMo8GMGzrpRqhEAaFUmxDb7FtUQHtkrOhZ5o_V7ysrPkZVKsSEag4Uj5PxjOeYVHN7SwqP-b-jUAYWbTfRrNFkzZ9EdaxhNi1NPp4JRWa-slIREITKKiAbDIpMiTb4YmLyiS85PoXiZG_0uZjyqCWAK96J2RbM8H9iAIsjhIRihF5YzGpyPEmMsFk6FB3Mb3CAgQuNkceCd7FeSHrSKSkq7LikKHpVGWz0ZIBaTZuIHpyRCW95yDEuCF8rz0JJUmL3b5C-CY_o7Ymw4FJLWQAM58WZa_UJuBhpGXfkC0sh6nly02qLLbIeODbd9MaSxzuQLDqlWXysXPfSOPr6az6Ksbdl3xRMLRx6Z89jpoahbcxkP907GZV6VtWNhG_vn_FOitjQ0vkMlF0cB0sm2AlOHH-9zpFMKBiGCgo6TR0XapUhq_0XvO1rtJFBDJXItCU6ckjm39zNT1fyxVxCw72vYbV7ozKV?></g></svg>