<?plantuml 1.2026.2?><svg xmlns="http://www.w3.org/2000/svg" xmlns:xlink="http://www.w3.org/1999/xlink" contentStyleType="text/css" data-diagram-type="MINDMAP" height="281px" preserveAspectRatio="none" style="width:606px;height:281px;background:#FFFFFF;" version="1.1" viewBox="0 0 606 281" width="606px" zoomAndPan="magnify"><defs/><g><rect fill="#FF5F46" height="52.9766" rx="12.5" ry="12.5" style="stroke:#FF5F46;stroke-width:3;" width="116.5303" x="10" y="113.1855"/><text fill="#FFFFFF" font-family="sans-serif" font-size="14" lengthAdjust="spacing" textLength="96.5303" x="20" y="136.7207">Stop &amp; Restart</text><text fill="#FFFFFF" font-family="sans-serif" font-size="14" lengthAdjust="spacing" textLength="59.5615" x="20" y="153.209">Job Runs</text><rect fill="#0078D4" height="36.4883" rx="12.5" ry="12.5" style="stroke:#0078D4;stroke-width:3;" width="126.4355" x="176.5303" y="28.7324"/><text fill="#FFFFFF" font-family="sans-serif" font-size="14" lengthAdjust="spacing" textLength="106.4355" x="186.5303" y="52.2676">Stop Active Run</text><text fill="#000000" font-family="sans-serif" font-size="14" lengthAdjust="spacing" textLength="161.9092" x="355.9658" y="24.5352">Runs tab &#8594; stop button</text><path d="M302.9658,46.9766 L312.9658,46.9766 C327.9658,46.9766 327.9658,19.2441 342.9658,19.2441 L352.9658,19.2441" fill="none" style="stroke:#0078D4;stroke-width:3;"/><text fill="#000000" font-family="sans-serif" font-size="14" lengthAdjust="spacing" textLength="128.4199" x="355.9658" y="43.0234">Cancel specific run</text><path d="M302.9658,46.9766 L312.9658,46.9766 C327.9658,46.9766 327.9658,37.7324 342.9658,37.7324 L352.9658,37.7324" fill="none" style="stroke:#0078D4;stroke-width:3;"/><text fill="#000000" font-family="sans-serif" font-size="14" lengthAdjust="spacing" textLength="149.0781" x="355.9658" y="61.5117">Cancel runs (multiple)</text><path d="M302.9658,46.9766 L312.9658,46.9766 C327.9658,46.9766 327.9658,56.2207 342.9658,56.2207 L352.9658,56.2207" fill="none" style="stroke:#0078D4;stroke-width:3;"/><text fill="#000000" font-family="sans-serif" font-size="14" lengthAdjust="spacing" textLength="155.0801" x="355.9658" y="80">Cancel all queued runs</text><path d="M302.9658,46.9766 L312.9658,46.9766 C327.9658,46.9766 327.9658,74.709 342.9658,74.709 L352.9658,74.709" fill="none" style="stroke:#0078D4;stroke-width:3;"/><path d="M126.5303,139.6738 L136.5303,139.6738 C151.5303,139.6738 151.5303,46.9766 166.5303,46.9766 L176.5303,46.9766" fill="none" style="stroke:#FF5F46;stroke-width:3;"/><rect fill="#0078D4" height="36.4883" rx="12.5" ry="12.5" style="stroke:#0078D4;stroke-width:3;" width="110.0361" x="176.5303" y="93.4414"/><text fill="#FFFFFF" font-family="sans-serif" font-size="14" lengthAdjust="spacing" textLength="90.0361" x="186.5303" y="116.9766">When to Stop</text><text fill="#000000" font-family="sans-serif" font-size="14" lengthAdjust="spacing" textLength="155.6475" x="339.5664" y="98.4883">Excessive resource use</text><path d="M286.5664,111.6855 L296.5664,111.6855 C311.5664,111.6855 311.5664,93.1973 326.5664,93.1973 L336.5664,93.1973" fill="none" style="stroke:#0078D4;stroke-width:3;"/><text fill="#000000" font-family="sans-serif" font-size="14" lengthAdjust="spacing" textLength="171.3154" x="339.5664" y="116.9766">Processing incorrect data</text><path d="M286.5664,111.6855 L296.5664,111.6855 C311.5664,111.6855 311.5664,111.6855 326.5664,111.6855 L336.5664,111.6855" fill="none" style="stroke:#0078D4;stroke-width:3;"/><text fill="#000000" font-family="sans-serif" font-size="14" lengthAdjust="spacing" textLength="211.9756" x="339.5664" y="135.4648">Immediate intervention needed</text><path d="M286.5664,111.6855 L296.5664,111.6855 C311.5664,111.6855 311.5664,130.1738 326.5664,130.1738 L336.5664,130.1738" fill="none" style="stroke:#0078D4;stroke-width:3;"/><path d="M126.5303,139.6738 L136.5303,139.6738 C151.5303,139.6738 151.5303,111.6855 166.5303,111.6855 L176.5303,111.6855" fill="none" style="stroke:#FF5F46;stroke-width:3;"/><rect fill="#0078D4" height="36.4883" rx="12.5" ry="12.5" style="stroke:#0078D4;stroke-width:3;" width="183.543" x="176.5303" y="158.1504"/><text fill="#FFFFFF" font-family="sans-serif" font-size="14" lengthAdjust="spacing" textLength="163.543" x="186.5303" y="181.6855">Restart Continuous Jobs</text><text fill="#000000" font-family="sans-serif" font-size="14" lengthAdjust="spacing" textLength="172.6143" x="413.0732" y="153.9531">Exponential backoff state</text><path d="M360.0732,176.3945 L370.0732,176.3945 C385.0732,176.3945 385.0732,148.6621 400.0732,148.6621 L410.0732,148.6621" fill="none" style="stroke:#0078D4;stroke-width:3;"/><text fill="#000000" font-family="sans-serif" font-size="14" lengthAdjust="spacing" textLength="181.5215" x="413.0732" y="172.4414">Shows consecutive failures</text><path d="M360.0732,176.3945 L370.0732,176.3945 C385.0732,176.3945 385.0732,167.1504 400.0732,167.1504 L410.0732,167.1504" fill="none" style="stroke:#0078D4;stroke-width:3;"/><text fill="#000000" font-family="sans-serif" font-size="14" lengthAdjust="spacing" textLength="148.3125" x="413.0732" y="190.9297">Shows next retry time</text><path d="M360.0732,176.3945 L370.0732,176.3945 C385.0732,176.3945 385.0732,185.6387 400.0732,185.6387 L410.0732,185.6387" fill="none" style="stroke:#0078D4;stroke-width:3;"/><text fill="#000000" font-family="sans-serif" font-size="14" lengthAdjust="spacing" textLength="124.9473" x="413.0732" y="209.418">Restart run button</text><path d="M360.0732,176.3945 L370.0732,176.3945 C385.0732,176.3945 385.0732,204.127 400.0732,204.127 L410.0732,204.127" fill="none" style="stroke:#0078D4;stroke-width:3;"/><path d="M126.5303,139.6738 L136.5303,139.6738 C151.5303,139.6738 151.5303,176.3945 166.5303,176.3945 L176.5303,176.3945" fill="none" style="stroke:#FF5F46;stroke-width:3;"/><rect fill="#0078D4" height="36.4883" rx="12.5" ry="12.5" style="stroke:#0078D4;stroke-width:3;" width="110.2412" x="176.5303" y="222.8594"/><text fill="#FFFFFF" font-family="sans-serif" font-size="14" lengthAdjust="spacing" textLength="90.2412" x="186.5303" y="246.3945">Restart Effect</text><text fill="#000000" font-family="sans-serif" font-size="14" lengthAdjust="spacing" textLength="123.457" x="339.7715" y="227.9063">Cancels active run</text><path d="M286.7715,241.1035 L296.7715,241.1035 C311.7715,241.1035 311.7715,222.6152 326.7715,222.6152 L336.7715,222.6152" fill="none" style="stroke:#0078D4;stroke-width:3;"/><text fill="#000000" font-family="sans-serif" font-size="14" lengthAdjust="spacing" textLength="128.4268" x="339.7715" y="246.3945">Resets retry period</text><path d="M286.7715,241.1035 L296.7715,241.1035 C311.7715,241.1035 311.7715,241.1035 326.7715,241.1035 L336.7715,241.1035" fill="none" style="stroke:#0078D4;stroke-width:3;"/><text fill="#000000" font-family="sans-serif" font-size="14" lengthAdjust="spacing" textLength="185.2539" x="339.7715" y="264.8828">Starts new run immediately</text><path d="M286.7715,241.1035 L296.7715,241.1035 C311.7715,241.1035 311.7715,259.5918 326.7715,259.5918 L336.7715,259.5918" fill="none" style="stroke:#0078D4;stroke-width:3;"/><path d="M126.5303,139.6738 L136.5303,139.6738 C151.5303,139.6738 151.5303,241.1035 166.5303,241.1035 L176.5303,241.1035" fill="none" style="stroke:#FF5F46;stroke-width:3;"/><?plantuml-src VLF1RXCn4BtlLuo4LBKvX6qe1QeA5K9N0d50BH8N9EJrZXkhNizYZzj4LQzy09_8bs1xDscpLJh7zvxdpRoHppmBnwssJIkwujJpok3xugJ1ZXVxvG7S5H3hev3NLuw2RUPaoC6BgdfT7Hrdxgks-1IjoFA0gbmRxVU5bjSMlOTNqxAuNtiTxlGgopTlFnsDlKReTjVH15Mk1w_PJY-bwdTbEVOQeSzwbRcYLqrBapHtEnMdBuUu9t39rC4UN60-nq_xXMgu2DONau7x85dVOC8YDFcLIM1Hmxy_Vy4dHHsOQM3dmaequ3kKMca9BcmJBhtURuDXtHaysEA4CV0xOC0coz84FnPeWIbFqclFbpBkbYPow2auYH0yzjmtHvcqLw2j9ETGCZI2HKz_Rbjij62CBAExGSkQB5Z41flaDeG0ynYPje62XnY7NnjtPDCJOQ2EroEbulgnMqzVBkZMWoJhKOQSc1BQX3ZaOzxYakFWx5R0kXsUhctZqWzPRj1pfU8QZuFo8FgRRCADMcG_DExGQMe6rzGYsTxcxdgTW5aLPnX_tl3xYiFfh9mTJsV_0G00?></g></svg>