<?plantuml 1.2026.2?><svg xmlns="http://www.w3.org/2000/svg" xmlns:xlink="http://www.w3.org/1999/xlink" contentStyleType="text/css" data-diagram-type="MINDMAP" height="299px" preserveAspectRatio="none" style="width:612px;height:299px;background:#FFFFFF;" version="1.1" viewBox="0 0 612 299" width="612px" zoomAndPan="magnify"><defs/><g><rect fill="#FF5F46" height="52.9766" rx="12.5" ry="12.5" style="stroke:#FF5F46;stroke-width:3;" width="118.1572" x="10" y="122.4297"/><text fill="#FFFFFF" font-family="sans-serif" font-size="14" lengthAdjust="spacing" textLength="86.2832" x="20" y="145.9648">Fix Common</text><text fill="#FFFFFF" font-family="sans-serif" font-size="14" lengthAdjust="spacing" textLength="98.1572" x="20" y="162.4531">Failure Causes</text><rect fill="#0078D4" height="36.4883" rx="12.5" ry="12.5" style="stroke:#0078D4;stroke-width:3;" width="159.9795" x="178.1572" y="28.7324"/><text fill="#FFFFFF" font-family="sans-serif" font-size="14" lengthAdjust="spacing" textLength="139.9795" x="188.1572" y="52.2676">Configuration Issues</text><text fill="#000000" font-family="sans-serif" font-size="14" lengthAdjust="spacing" textLength="102.4229" x="391.1367" y="24.5352">Select Edit task</text><path d="M338.1367,46.9766 L348.1367,46.9766 C363.1367,46.9766 363.1367,19.2441 378.1367,19.2441 L388.1367,19.2441" fill="none" style="stroke:#0078D4;stroke-width:3;"/><text fill="#000000" font-family="sans-serif" font-size="14" lengthAdjust="spacing" textLength="159.0723" x="391.1367" y="43.0234">Update notebook paths</text><path d="M338.1367,46.9766 L348.1367,46.9766 C363.1367,46.9766 363.1367,37.7324 378.1367,37.7324 L388.1367,37.7324" fill="none" style="stroke:#0078D4;stroke-width:3;"/><text fill="#000000" font-family="sans-serif" font-size="14" lengthAdjust="spacing" textLength="132.5283" x="391.1367" y="61.5117">Change parameters</text><path d="M338.1367,46.9766 L348.1367,46.9766 C363.1367,46.9766 363.1367,56.2207 378.1367,56.2207 L388.1367,56.2207" fill="none" style="stroke:#0078D4;stroke-width:3;"/><text fill="#000000" font-family="sans-serif" font-size="14" lengthAdjust="spacing" textLength="108.0352" x="391.1367" y="80">Adjust timeouts</text><path d="M338.1367,46.9766 L348.1367,46.9766 C363.1367,46.9766 363.1367,74.709 378.1367,74.709 L388.1367,74.709" fill="none" style="stroke:#0078D4;stroke-width:3;"/><path d="M128.1572,148.918 L138.1572,148.918 C153.1572,148.918 153.1572,46.9766 168.1572,46.9766 L178.1572,46.9766" fill="none" style="stroke:#FF5F46;stroke-width:3;"/><rect fill="#0078D4" height="36.4883" rx="12.5" ry="12.5" style="stroke:#0078D4;stroke-width:3;" width="162.1533" x="178.1572" y="102.6855"/><text fill="#FFFFFF" font-family="sans-serif" font-size="14" lengthAdjust="spacing" textLength="142.1533" x="188.1572" y="126.2207">Insufficient Compute</text><text fill="#000000" font-family="sans-serif" font-size="14" lengthAdjust="spacing" textLength="124.0039" x="393.3105" y="98.4883">Add worker nodes</text><path d="M340.3105,120.9297 L350.3105,120.9297 C365.3105,120.9297 365.3105,93.1973 380.3105,93.1973 L390.3105,93.1973" fill="none" style="stroke:#0078D4;stroke-width:3;"/><text fill="#000000" font-family="sans-serif" font-size="14" lengthAdjust="spacing" textLength="152.9814" x="393.3105" y="116.9766">Change instance types</text><path d="M340.3105,120.9297 L350.3105,120.9297 C365.3105,120.9297 365.3105,111.6855 380.3105,111.6855 L390.3105,111.6855" fill="none" style="stroke:#0078D4;stroke-width:3;"/><text fill="#000000" font-family="sans-serif" font-size="14" lengthAdjust="spacing" textLength="195.9043" x="393.3105" y="135.4648">Switch to all-purpose cluster</text><path d="M340.3105,120.9297 L350.3105,120.9297 C365.3105,120.9297 365.3105,130.1738 380.3105,130.1738 L390.3105,130.1738" fill="none" style="stroke:#0078D4;stroke-width:3;"/><text fill="#000000" font-family="sans-serif" font-size="14" lengthAdjust="spacing" textLength="169.8047" x="393.3105" y="153.9531">Increase resource quotas</text><path d="M340.3105,120.9297 L350.3105,120.9297 C365.3105,120.9297 365.3105,148.6621 380.3105,148.6621 L390.3105,148.6621" fill="none" style="stroke:#0078D4;stroke-width:3;"/><path d="M128.1572,148.918 L138.1572,148.918 C153.1572,148.918 153.1572,120.9297 168.1572,120.9297 L178.1572,120.9297" fill="none" style="stroke:#FF5F46;stroke-width:3;"/><rect fill="#0078D4" height="36.4883" rx="12.5" ry="12.5" style="stroke:#0078D4;stroke-width:3;" width="166.6172" x="178.1572" y="167.9063"/><text fill="#FFFFFF" font-family="sans-serif" font-size="14" lengthAdjust="spacing" textLength="146.6172" x="188.1572" y="191.4414">Max Concurrent Runs</text><text fill="#000000" font-family="sans-serif" font-size="14" lengthAdjust="spacing" textLength="146.2686" x="397.7744" y="172.9531">Wait for existing runs</text><path d="M344.7744,186.1504 L354.7744,186.1504 C369.7744,186.1504 369.7744,167.6621 384.7744,167.6621 L394.7744,167.6621" fill="none" style="stroke:#0078D4;stroke-width:3;"/><text fill="#000000" font-family="sans-serif" font-size="14" lengthAdjust="spacing" textLength="202.5078" x="397.7744" y="191.4414">Increase max concurrent runs</text><path d="M344.7744,186.1504 L354.7744,186.1504 C369.7744,186.1504 369.7744,186.1504 384.7744,186.1504 L394.7744,186.1504" fill="none" style="stroke:#0078D4;stroke-width:3;"/><text fill="#000000" font-family="sans-serif" font-size="14" lengthAdjust="spacing" textLength="147.3145" x="397.7744" y="209.9297">Edit job configuration</text><path d="M344.7744,186.1504 L354.7744,186.1504 C369.7744,186.1504 369.7744,204.6387 384.7744,204.6387 L394.7744,204.6387" fill="none" style="stroke:#0078D4;stroke-width:3;"/><path d="M128.1572,148.918 L138.1572,148.918 C153.1572,148.918 153.1572,186.1504 168.1572,186.1504 L178.1572,186.1504" fill="none" style="stroke:#FF5F46;stroke-width:3;"/><rect fill="#0078D4" height="36.4883" rx="12.5" ry="12.5" style="stroke:#0078D4;stroke-width:3;" width="174.875" x="178.1572" y="232.6152"/><text fill="#FFFFFF" font-family="sans-serif" font-size="14" lengthAdjust="spacing" textLength="154.875" x="188.1572" y="256.1504">External Dependencies</text><text fill="#000000" font-family="sans-serif" font-size="14" lengthAdjust="spacing" textLength="161.0752" x="406.0322" y="228.418">Unavailable data source</text><path d="M353.0322,250.8594 L363.0322,250.8594 C378.0322,250.8594 378.0322,223.127 393.0322,223.127 L403.0322,223.127" fill="none" style="stroke:#0078D4;stroke-width:3;"/><text fill="#000000" font-family="sans-serif" font-size="14" lengthAdjust="spacing" textLength="103.0518" x="406.0322" y="246.9063">Network issues</text><path d="M353.0322,250.8594 L363.0322,250.8594 C378.0322,250.8594 378.0322,241.6152 393.0322,241.6152 L403.0322,241.6152" fill="none" style="stroke:#0078D4;stroke-width:3;"/><text fill="#000000" font-family="sans-serif" font-size="14" lengthAdjust="spacing" textLength="170.9668" x="406.0322" y="265.3945">Upstream pipeline delays</text><path d="M353.0322,250.8594 L363.0322,250.8594 C378.0322,250.8594 378.0322,260.1035 393.0322,260.1035 L403.0322,260.1035" fill="none" style="stroke:#0078D4;stroke-width:3;"/><text fill="#000000" font-family="sans-serif" font-size="14" lengthAdjust="spacing" textLength="172.5664" x="406.0322" y="283.8828">Wait + use Repair feature</text><path d="M353.0322,250.8594 L363.0322,250.8594 C378.0322,250.8594 378.0322,278.5918 393.0322,278.5918 L403.0322,278.5918" fill="none" style="stroke:#0078D4;stroke-width:3;"/><path d="M128.1572,148.918 L138.1572,148.918 C153.1572,148.918 153.1572,250.8594 168.1572,250.8594 L178.1572,250.8594" fill="none" style="stroke:#FF5F46;stroke-width:3;"/><?plantuml-src VLDDRzD04BtxLup41O88RYZbGnKgfBKKgN0eH5oGqCGU9zkiPvVTMPgeuhypTfoa3GfpVFFnthpPlOY2GHh3LOC-Eu-ojlGXUr-HbyNJ_1dSPw3n2SlbFBZ4rTXP5-19KRmkJi-wtBLX-XSj74kFrbtiQhyjJBbaYX5U3VFipvRhv2XNdhzvUtbwo7M0FfvweA3eOiyrEifLrxDtUNx8TO3-bollGhbcRcNRclkZ5USlUxi7K9WLZ5tJEFx11HgR0i4OKwIO3GQQuThCKq0nZc4IO-hmmK_uIfPAWQlA20Z6vGQT-Wg5W9tGpBabU9H5tp1U8Cz9aO0D2OKU_bZTfgWZJ4CkIKSwuPZgsfI6M5fjFWbjYokuSs59GIagUZpPiBueBWbaxNSgxuoK2n07QEqBdu9taQ2qIabXKpBXCX0g6YYw5BJ_LtAwKQlaCxRcS9b2QBNS9ExdVaTTkrPFQMMY69v3sELs0nljBlVT-uhEj5itQxDxUrl2gvNgOhHmIPwu8bOJ-gOfus-z3yuiWPgCi56xINuXQNq1y-12Knz5XJJWZIUhhmSgihX-kC5pq4F33Naq0Mf2qUjd5qgy_PRPoN2KZyw6exy0?></g></svg>