<?plantuml 1.2026.2?><svg xmlns="http://www.w3.org/2000/svg" xmlns:xlink="http://www.w3.org/1999/xlink" contentStyleType="text/css" data-diagram-type="MINDMAP" height="340px" preserveAspectRatio="none" style="width:559px;height:340px;background:#FFFFFF;" version="1.1" viewBox="0 0 559 340" width="559px" zoomAndPan="magnify"><defs/><g><rect fill="#FF5F46" height="52.9766" rx="12.5" ry="12.5" style="stroke:#FF5F46;stroke-width:3;" width="123.9336" x="10" y="142.709"/><text fill="#FFFFFF" font-family="sans-serif" font-size="14" lengthAdjust="spacing" textLength="42.9707" x="20" y="166.2441">Repair</text><text fill="#FFFFFF" font-family="sans-serif" font-size="14" lengthAdjust="spacing" textLength="103.9336" x="20" y="182.7324">Failed Job Runs</text><rect fill="#0078D4" height="36.4883" rx="12.5" ry="12.5" style="stroke:#0078D4;stroke-width:3;" width="74.5029" x="183.9336" y="20"/><text fill="#FFFFFF" font-family="sans-serif" font-size="14" lengthAdjust="spacing" textLength="54.5029" x="193.9336" y="43.5352">Purpose</text><text fill="#000000" font-family="sans-serif" font-size="14" lengthAdjust="spacing" textLength="162.8047" x="311.4365" y="25.0469">Re-run failed tasks only</text><path d="M258.4365,38.2441 L268.4365,38.2441 C283.4365,38.2441 283.4365,19.7559 298.4365,19.7559 L308.4365,19.7559" fill="none" style="stroke:#0078D4;stroke-width:3;"/><text fill="#000000" font-family="sans-serif" font-size="14" lengthAdjust="spacing" textLength="134.2715" x="311.4365" y="43.5352">Saves time and cost</text><path d="M258.4365,38.2441 L268.4365,38.2441 C283.4365,38.2441 283.4365,38.2441 298.4365,38.2441 L308.4365,38.2441" fill="none" style="stroke:#0078D4;stroke-width:3;"/><text fill="#000000" font-family="sans-serif" font-size="14" lengthAdjust="spacing" textLength="111.7266" x="311.4365" y="62.0234">Not a full restart</text><path d="M258.4365,38.2441 L268.4365,38.2441 C283.4365,38.2441 283.4365,56.7324 298.4365,56.7324 L308.4365,56.7324" fill="none" style="stroke:#0078D4;stroke-width:3;"/><path d="M133.9336,169.1973 L143.9336,169.1973 C158.9336,169.1973 158.9336,38.2441 173.9336,38.2441 L183.9336,38.2441" fill="none" style="stroke:#FF5F46;stroke-width:3;"/><rect fill="#0078D4" height="36.4883" rx="12.5" ry="12.5" style="stroke:#0078D4;stroke-width:3;" width="56.5244" x="183.9336" y="94.4648"/><text fill="#FFFFFF" font-family="sans-serif" font-size="14" lengthAdjust="spacing" textLength="36.5244" x="193.9336" y="118">Steps</text><text fill="#000000" font-family="sans-serif" font-size="14" lengthAdjust="spacing" textLength="109.1426" x="293.458" y="81.0234">Select failed run</text><path d="M240.458,112.709 L250.458,112.709 C265.458,112.709 265.458,75.7324 280.458,75.7324 L290.458,75.7324" fill="none" style="stroke:#0078D4;stroke-width:3;"/><text fill="#000000" font-family="sans-serif" font-size="14" lengthAdjust="spacing" textLength="108.0693" x="293.458" y="99.5117">Click Repair run</text><path d="M240.458,112.709 L250.458,112.709 C265.458,112.709 265.458,94.2207 280.458,94.2207 L290.458,94.2207" fill="none" style="stroke:#0078D4;stroke-width:3;"/><text fill="#000000" font-family="sans-serif" font-size="14" lengthAdjust="spacing" textLength="153.8154" x="293.458" y="118">Review tasks to re-run</text><path d="M240.458,112.709 L250.458,112.709 C265.458,112.709 265.458,112.709 280.458,112.709 L290.458,112.709" fill="none" style="stroke:#0078D4;stroke-width:3;"/><text fill="#000000" font-family="sans-serif" font-size="14" lengthAdjust="spacing" textLength="175.458" x="293.458" y="136.4883">Optionally modify params</text><path d="M240.458,112.709 L250.458,112.709 C265.458,112.709 265.458,131.1973 280.458,131.1973 L290.458,131.1973" fill="none" style="stroke:#0078D4;stroke-width:3;"/><text fill="#000000" font-family="sans-serif" font-size="14" lengthAdjust="spacing" textLength="108.0693" x="293.458" y="154.9766">Click Repair run</text><path d="M240.458,112.709 L250.458,112.709 C265.458,112.709 265.458,149.6855 280.458,149.6855 L290.458,149.6855" fill="none" style="stroke:#0078D4;stroke-width:3;"/><path d="M133.9336,169.1973 L143.9336,169.1973 C158.9336,169.1973 158.9336,112.709 173.9336,112.709 L183.9336,112.709" fill="none" style="stroke:#FF5F46;stroke-width:3;"/><rect fill="#0078D4" height="36.4883" rx="12.5" ry="12.5" style="stroke:#0078D4;stroke-width:3;" width="116.1816" x="183.9336" y="168.9297"/><text fill="#FFFFFF" font-family="sans-serif" font-size="14" lengthAdjust="spacing" textLength="96.1816" x="193.9336" y="192.4648">What Re-Runs</text><text fill="#000000" font-family="sans-serif" font-size="14" lengthAdjust="spacing" textLength="99.6201" x="353.1152" y="183.2207">All failed tasks</text><path d="M300.1152,187.1738 L310.1152,187.1738 C325.1152,187.1738 325.1152,177.9297 340.1152,177.9297 L350.1152,177.9297" fill="none" style="stroke:#0078D4;stroke-width:3;"/><text fill="#000000" font-family="sans-serif" font-size="14" lengthAdjust="spacing" textLength="169.2783" x="353.1152" y="201.709">Downstream dependents</text><path d="M300.1152,187.1738 L310.1152,187.1738 C325.1152,187.1738 325.1152,196.418 340.1152,196.418 L350.1152,196.418" fill="none" style="stroke:#0078D4;stroke-width:3;"/><path d="M133.9336,169.1973 L143.9336,169.1973 C158.9336,169.1973 158.9336,187.1738 173.9336,187.1738 L183.9336,187.1738" fill="none" style="stroke:#FF5F46;stroke-width:3;"/><rect fill="#0078D4" height="36.4883" rx="12.5" ry="12.5" style="stroke:#0078D4;stroke-width:3;" width="100.9717" x="183.9336" y="225.418"/><text fill="#FFFFFF" font-family="sans-serif" font-size="14" lengthAdjust="spacing" textLength="80.9717" x="193.9336" y="248.9531">After Repair</text><text fill="#000000" font-family="sans-serif" font-size="14" lengthAdjust="spacing" textLength="183.9277" x="337.9053" y="239.709">New column in matrix view</text><path d="M284.9053,243.6621 L294.9053,243.6621 C309.9053,243.6621 309.9053,234.418 324.9053,234.418 L334.9053,234.418" fill="none" style="stroke:#0078D4;stroke-width:3;"/><text fill="#000000" font-family="sans-serif" font-size="14" lengthAdjust="spacing" textLength="154.2324" x="337.9053" y="258.1973">Red &#8594; Green (success)</text><path d="M284.9053,243.6621 L294.9053,243.6621 C309.9053,243.6621 309.9053,252.9063 324.9053,252.9063 L334.9053,252.9063" fill="none" style="stroke:#0078D4;stroke-width:3;"/><path d="M133.9336,169.1973 L143.9336,169.1973 C158.9336,169.1973 158.9336,243.6621 173.9336,243.6621 L183.9336,243.6621" fill="none" style="stroke:#FF5F46;stroke-width:3;"/><rect fill="#0078D4" height="36.4883" rx="12.5" ry="12.5" style="stroke:#0078D4;stroke-width:3;" width="113.6592" x="183.9336" y="281.9063"/><text fill="#FFFFFF" font-family="sans-serif" font-size="14" lengthAdjust="spacing" textLength="93.6592" x="193.9336" y="305.4414">Requirements</text><text fill="#000000" font-family="sans-serif" font-size="14" lengthAdjust="spacing" textLength="160.4873" x="350.5928" y="286.9531">Job must have 2+ tasks</text><path d="M297.5928,300.1504 L307.5928,300.1504 C322.5928,300.1504 322.5928,281.6621 337.5928,281.6621 L347.5928,281.6621" fill="none" style="stroke:#0078D4;stroke-width:3;"/><text fill="#000000" font-family="sans-serif" font-size="14" lengthAdjust="spacing" textLength="194.8037" x="350.5928" y="305.4414">New cluster instance created</text><path d="M297.5928,300.1504 L307.5928,300.1504 C322.5928,300.1504 322.5928,300.1504 337.5928,300.1504 L347.5928,300.1504" fill="none" style="stroke:#0078D4;stroke-width:3;"/><text fill="#000000" font-family="sans-serif" font-size="14" lengthAdjust="spacing" textLength="197.1758" x="350.5928" y="323.9297">Compare original vs repaired</text><path d="M297.5928,300.1504 L307.5928,300.1504 C322.5928,300.1504 322.5928,318.6387 337.5928,318.6387 L347.5928,318.6387" fill="none" style="stroke:#0078D4;stroke-width:3;"/><path d="M133.9336,169.1973 L143.9336,169.1973 C158.9336,169.1973 158.9336,300.1504 173.9336,300.1504 L183.9336,300.1504" fill="none" style="stroke:#FF5F46;stroke-width:3;"/><?plantuml-src VLFDQXH14BxFKnHuILQocOn9r10aCM44aIWRmOiWlTqrsMRxP-oktcG9Ndq07z4diMQcDuaZQvsQgc--dohcB988PBLJLhJ5QQIrmJV5YSAM5ZlbBjmNmFLMoELDyCcf2szyW6TrVLGV7lUp3zhXlztQEyhTfgy7xEU5bak7CSABQLdys6WTRDKgovUlBW_7MgFktwmZ1tLVZrhLLgsccRykox7MgFjVhR8lrfhxEzDXxhSYJlVpkYSmmrReyDNLGXjKyDxFOPPSB2OJ-9H2woFoS_ADSNiXEMW668cuZE2TMG_JQx722AGjWd0Af8yq3AuyWO0c6GC1-ujtpDU4RSnVea596rwM6DeNXfDcSu_T6QuqtcPryaovzp3xs9BsJXYp1kkLRjRGYY1itCe7NnQ2kbmvBwFEsURJX4Ftqj-wI0651RuYEeME-WMTDuGXa-Qux4vwawm3xS0A2leEEiyR_mf-__m5xmAYWvsOfEH3xNPSC_oUT42RkHdSdSAcIB3WvKBr_AcbNiVmaFKrcnDE8aYsIAXoO6yvFu8F-aRpMc0LULsTKqQSSOZDdrSSJAkoEfvMVm00?></g></svg>