<?plantuml 1.2026.2?><svg xmlns="http://www.w3.org/2000/svg" xmlns:xlink="http://www.w3.org/1999/xlink" contentStyleType="text/css" data-diagram-type="MINDMAP" height="312px" preserveAspectRatio="none" style="width:591px;height:312px;background:#FFFFFF;" version="1.1" viewBox="0 0 591 312" width="591px" zoomAndPan="magnify"><defs/><g><rect fill="#FF5F46" height="52.9766" rx="12.5" ry="12.5" style="stroke:#FF5F46;stroke-width:3;" width="111.0205" x="10" y="128.8428"/><text fill="#FFFFFF" font-family="sans-serif" font-size="14" lengthAdjust="spacing" textLength="51.0781" x="20" y="152.3779">Identify</text><text fill="#FFFFFF" font-family="sans-serif" font-size="14" lengthAdjust="spacing" textLength="91.0205" x="20" y="168.8662">Failure Cause</text><rect fill="#0078D4" height="36.4883" rx="12.5" ry="12.5" style="stroke:#0078D4;stroke-width:3;" width="92.3994" x="171.0205" y="20"/><text fill="#FFFFFF" font-family="sans-serif" font-size="14" lengthAdjust="spacing" textLength="72.3994" x="181.0205" y="43.5352">Navigation</text><text fill="#000000" font-family="sans-serif" font-size="14" lengthAdjust="spacing" textLength="107.6387" x="316.4199" y="25.0469">Jobs &amp; Pipelines</text><path d="M263.4199,38.2441 L273.4199,38.2441 C288.4199,38.2441 288.4199,19.7559 303.4199,19.7559 L313.4199,19.7559" fill="none" style="stroke:#0078D4;stroke-width:3;"/><text fill="#000000" font-family="sans-serif" font-size="14" lengthAdjust="spacing" textLength="107.4131" x="316.4199" y="43.5352">Select job name</text><path d="M263.4199,38.2441 L273.4199,38.2441 C288.4199,38.2441 288.4199,38.2441 303.4199,38.2441 L313.4199,38.2441" fill="none" style="stroke:#0078D4;stroke-width:3;"/><text fill="#000000" font-family="sans-serif" font-size="14" lengthAdjust="spacing" textLength="59.5752" x="316.4199" y="62.0234">Runs tab</text><path d="M263.4199,38.2441 L273.4199,38.2441 C288.4199,38.2441 288.4199,56.7324 303.4199,56.7324 L313.4199,56.7324" fill="none" style="stroke:#0078D4;stroke-width:3;"/><path d="M121.0205,155.3311 L131.0205,155.3311 C146.0205,155.3311 146.0205,38.2441 161.0205,38.2441 L171.0205,38.2441" fill="none" style="stroke:#FF5F46;stroke-width:3;"/><rect fill="#0078D4" height="36.4883" rx="12.5" ry="12.5" style="stroke:#0078D4;stroke-width:3;" width="99.6045" x="171.0205" y="76.4883"/><text fill="#FFFFFF" font-family="sans-serif" font-size="14" lengthAdjust="spacing" textLength="79.6045" x="181.0205" y="100.0234">Matrix View</text><text fill="#000000" font-family="sans-serif" font-size="14" lengthAdjust="spacing" textLength="119.5195" x="323.625" y="81.5352">Visual run history</text><path d="M270.625,94.7324 L280.625,94.7324 C295.625,94.7324 295.625,76.2441 310.625,76.2441 L320.625,76.2441" fill="none" style="stroke:#0078D4;stroke-width:3;"/><text fill="#000000" font-family="sans-serif" font-size="14" lengthAdjust="spacing" textLength="126.5879" x="323.625" y="100.0234">Cells = task status</text><path d="M270.625,94.7324 L280.625,94.7324 C295.625,94.7324 295.625,94.7324 310.625,94.7324 L320.625,94.7324" fill="none" style="stroke:#0078D4;stroke-width:3;"/><text fill="#000000" font-family="sans-serif" font-size="14" lengthAdjust="spacing" textLength="115.7529" x="323.625" y="118.5117">Red = failed task</text><path d="M270.625,94.7324 L280.625,94.7324 C295.625,94.7324 295.625,113.2207 310.625,113.2207 L320.625,113.2207" fill="none" style="stroke:#0078D4;stroke-width:3;"/><path d="M121.0205,155.3311 L131.0205,155.3311 C146.0205,155.3311 146.0205,94.7324 161.0205,94.7324 L171.0205,94.7324" fill="none" style="stroke:#FF5F46;stroke-width:3;"/><rect fill="#0078D4" height="36.4883" rx="12.5" ry="12.5" style="stroke:#0078D4;stroke-width:3;" width="148.1738" x="171.0205" y="141.1973"/><text fill="#FFFFFF" font-family="sans-serif" font-size="14" lengthAdjust="spacing" textLength="128.1738" x="181.0205" y="164.7324">Investigation Steps</text><text fill="#000000" font-family="sans-serif" font-size="14" lengthAdjust="spacing" textLength="114.3926" x="372.1943" y="137">Hover failed task</text><path d="M319.1943,159.4414 L329.1943,159.4414 C344.1943,159.4414 344.1943,131.709 359.1943,131.709 L369.1943,131.709" fill="none" style="stroke:#0078D4;stroke-width:3;"/><text fill="#000000" font-family="sans-serif" font-size="14" lengthAdjust="spacing" textLength="156.1533" x="372.1943" y="155.4883">See start/end/duration</text><path d="M319.1943,159.4414 L329.1943,159.4414 C344.1943,159.4414 344.1943,150.1973 359.1943,150.1973 L369.1943,150.1973" fill="none" style="stroke:#0078D4;stroke-width:3;"/><text fill="#000000" font-family="sans-serif" font-size="14" lengthAdjust="spacing" textLength="142.1807" x="372.1943" y="173.9766">Read error messages</text><path d="M319.1943,159.4414 L329.1943,159.4414 C344.1943,159.4414 344.1943,168.6855 359.1943,168.6855 L369.1943,168.6855" fill="none" style="stroke:#0078D4;stroke-width:3;"/><text fill="#000000" font-family="sans-serif" font-size="14" lengthAdjust="spacing" textLength="149.2832" x="372.1943" y="192.4648">Open Task run details</text><path d="M319.1943,159.4414 L329.1943,159.4414 C344.1943,159.4414 344.1943,187.1738 359.1943,187.1738 L369.1943,187.1738" fill="none" style="stroke:#0078D4;stroke-width:3;"/><path d="M121.0205,155.3311 L131.0205,155.3311 C146.0205,155.3311 146.0205,159.4414 161.0205,159.4414 L171.0205,159.4414" fill="none" style="stroke:#FF5F46;stroke-width:3;"/><rect fill="#0078D4" height="36.4883" rx="12.5" ry="12.5" style="stroke:#0078D4;stroke-width:3;" width="128.3496" x="171.0205" y="197.6855"/><text fill="#FFFFFF" font-family="sans-serif" font-size="14" lengthAdjust="spacing" textLength="108.3496" x="181.0205" y="221.2207">Pattern Analysis</text><text fill="#000000" font-family="sans-serif" font-size="14" lengthAdjust="spacing" textLength="227.3359" x="352.3701" y="211.9766">Repeated same task = code issue</text><path d="M299.3701,215.9297 L309.3701,215.9297 C324.3701,215.9297 324.3701,206.6855 339.3701,206.6855 L349.3701,206.6855" fill="none" style="stroke:#0078D4;stroke-width:3;"/><text fill="#000000" font-family="sans-serif" font-size="14" lengthAdjust="spacing" textLength="215.5439" x="352.3701" y="230.4648">Random failures = cluster issue</text><path d="M299.3701,215.9297 L309.3701,215.9297 C324.3701,215.9297 324.3701,225.1738 339.3701,225.1738 L349.3701,225.1738" fill="none" style="stroke:#0078D4;stroke-width:3;"/><path d="M121.0205,155.3311 L131.0205,155.3311 C146.0205,155.3311 146.0205,215.9297 161.0205,215.9297 L171.0205,215.9297" fill="none" style="stroke:#FF5F46;stroke-width:3;"/><rect fill="#0078D4" height="36.4883" rx="12.5" ry="12.5" style="stroke:#0078D4;stroke-width:3;" width="121.0215" x="171.0205" y="254.1738"/><text fill="#FFFFFF" font-family="sans-serif" font-size="14" lengthAdjust="spacing" textLength="101.0215" x="181.0205" y="277.709">Diagnose Error</text><text fill="#000000" font-family="sans-serif" font-size="14" lengthAdjust="spacing" textLength="138.7012" x="345.042" y="259.2207">Databricks Assistant</text><path d="M292.042,272.418 L302.042,272.418 C317.042,272.418 317.042,253.9297 332.042,253.9297 L342.042,253.9297" fill="none" style="stroke:#0078D4;stroke-width:3;"/><text fill="#000000" font-family="sans-serif" font-size="14" lengthAdjust="spacing" textLength="169.3877" x="345.042" y="277.709">Analyzes error messages</text><path d="M292.042,272.418 L302.042,272.418 C317.042,272.418 317.042,272.418 332.042,272.418 L342.042,272.418" fill="none" style="stroke:#0078D4;stroke-width:3;"/><text fill="#000000" font-family="sans-serif" font-size="14" lengthAdjust="spacing" textLength="98.1436" x="345.042" y="296.1973">Suggests fixes</text><path d="M292.042,272.418 L302.042,272.418 C317.042,272.418 317.042,290.9063 332.042,290.9063 L342.042,290.9063" fill="none" style="stroke:#0078D4;stroke-width:3;"/><path d="M121.0205,155.3311 L131.0205,155.3311 C146.0205,155.3311 146.0205,272.418 161.0205,272.418 L171.0205,272.418" fill="none" style="stroke:#FF5F46;stroke-width:3;"/><?plantuml-src VLFRRjD047ttLuo4X20FYHjAkQX5BGaMHLogfEeJ4bfxnycIpQwrCniIAlwTyIK1366UrcV6vvmvNbyIgy1hu_HQLSavySxYg-IbnegNZzB7S9-0r6jLh1R1HwSdtle03xBiQNPwrlJU6uT_evbttA5bKuVPswKfLWw9uCamJNxijKwEQgNfi-VJqxvM3_sJjUSWQ-gNrlYeLbdcBzAqhzL3_wkLDYLQkT_QUkR-wCJvg8jx0DSQ7PjozzbbojWO42Og4YQ30NnK6xDGRBoJfy4NUETpWeTmOogqOePQT8uM2uQlFWUdrjY2i-W8MEKrpGV5mMpXpk2tjdbdA2eB8JfO6c8VTYq-GMi9BkGzMe7S3ewTn0ormANuaqFThMcltGQ9EuCmPwowwRT-Ww4ttVX4QAxS29qUwHX-sso6IWE6826j9Jcrs2_tgK87jxMVsgr65jQw1JUA6OE3AwViZip1Q8MAHPOaYNQF2oYyHZ14SP-DSjgl6uCITxrmOIC9ss48faOjd2U4DxMdzhMfaZo3V7-2An95LexRJkFXkp3zQuDvNCYP2Kgp5UnIbj__Syd9S9oEpuRZdm00?></g></svg>