<?plantuml 1.2026.2?><svg xmlns="http://www.w3.org/2000/svg" xmlns:xlink="http://www.w3.org/1999/xlink" contentStyleType="text/css" data-diagram-type="MINDMAP" height="360px" preserveAspectRatio="none" style="width:561px;height:360px;background:#FFFFFF;" version="1.1" viewBox="0 0 561 360" width="561px" zoomAndPan="magnify"><defs/><g><rect fill="#FF5F46" height="52.9766" rx="12.5" ry="12.5" style="stroke:#FF5F46;stroke-width:3;" width="91.7432" x="10" y="152.9766"/><text fill="#FFFFFF" font-family="sans-serif" font-size="14" lengthAdjust="spacing" textLength="71.7432" x="20" y="176.5117">Job Failure</text><text fill="#FFFFFF" font-family="sans-serif" font-size="14" lengthAdjust="spacing" textLength="40.6807" x="20" y="193">States</text><rect fill="#0078D4" height="36.4883" rx="12.5" ry="12.5" style="stroke:#0078D4;stroke-width:3;" width="59.9424" x="151.7432" y="20"/><text fill="#FFFFFF" font-family="sans-serif" font-size="14" lengthAdjust="spacing" textLength="39.9424" x="161.7432" y="43.5352">Failed</text><text fill="#000000" font-family="sans-serif" font-size="14" lengthAdjust="spacing" textLength="119.1162" x="264.6855" y="34.291">Leaf task(s) failed</text><path d="M211.6855,38.2441 L221.6855,38.2441 C236.6855,38.2441 236.6855,29 251.6855,29 L261.6855,29" fill="none" style="stroke:#0078D4;stroke-width:3;"/><text fill="#000000" font-family="sans-serif" font-size="14" lengthAdjust="spacing" textLength="137.293" x="264.6855" y="52.7793">Immediate attention</text><path d="M211.6855,38.2441 L221.6855,38.2441 C236.6855,38.2441 236.6855,47.4883 251.6855,47.4883 L261.6855,47.4883" fill="none" style="stroke:#0078D4;stroke-width:3;"/><path d="M101.7432,179.4648 L111.7432,179.4648 C126.7432,179.4648 126.7432,38.2441 141.7432,38.2441 L151.7432,38.2441" fill="none" style="stroke:#FF5F46;stroke-width:3;"/><rect fill="#0078D4" height="36.4883" rx="12.5" ry="12.5" style="stroke:#0078D4;stroke-width:3;" width="181.8955" x="151.7432" y="76.4883"/><text fill="#FFFFFF" font-family="sans-serif" font-size="14" lengthAdjust="spacing" textLength="161.8955" x="161.7432" y="100.0234">Succeeded with Failures</text><text fill="#000000" font-family="sans-serif" font-size="14" lengthAdjust="spacing" textLength="118.877" x="386.6387" y="90.7793">Some tasks failed</text><path d="M333.6387,94.7324 L343.6387,94.7324 C358.6387,94.7324 358.6387,85.4883 373.6387,85.4883 L383.6387,85.4883" fill="none" style="stroke:#0078D4;stroke-width:3;"/><text fill="#000000" font-family="sans-serif" font-size="14" lengthAdjust="spacing" textLength="162.3809" x="386.6387" y="109.2676">All leaf tasks succeeded</text><path d="M333.6387,94.7324 L343.6387,94.7324 C358.6387,94.7324 358.6387,103.9766 373.6387,103.9766 L383.6387,103.9766" fill="none" style="stroke:#0078D4;stroke-width:3;"/><path d="M101.7432,179.4648 L111.7432,179.4648 C126.7432,179.4648 126.7432,94.7324 141.7432,94.7324 L151.7432,94.7324" fill="none" style="stroke:#FF5F46;stroke-width:3;"/><rect fill="#0078D4" height="36.4883" rx="12.5" ry="12.5" style="stroke:#0078D4;stroke-width:3;" width="74.0039" x="151.7432" y="132.9766"/><text fill="#FFFFFF" font-family="sans-serif" font-size="14" lengthAdjust="spacing" textLength="54.0039" x="161.7432" y="156.5117">Skipped</text><text fill="#000000" font-family="sans-serif" font-size="14" lengthAdjust="spacing" textLength="209.9863" x="278.7471" y="147.2676">Max concurrent runs exceeded</text><path d="M225.7471,151.2207 L235.7471,151.2207 C250.7471,151.2207 250.7471,141.9766 265.7471,141.9766 L275.7471,141.9766" fill="none" style="stroke:#0078D4;stroke-width:3;"/><text fill="#000000" font-family="sans-serif" font-size="14" lengthAdjust="spacing" textLength="128.748" x="278.7471" y="165.7559">Scheduling conflict</text><path d="M225.7471,151.2207 L235.7471,151.2207 C250.7471,151.2207 250.7471,160.4648 265.7471,160.4648 L275.7471,160.4648" fill="none" style="stroke:#0078D4;stroke-width:3;"/><path d="M101.7432,179.4648 L111.7432,179.4648 C126.7432,179.4648 126.7432,151.2207 141.7432,151.2207 L151.7432,151.2207" fill="none" style="stroke:#FF5F46;stroke-width:3;"/><rect fill="#0078D4" height="36.4883" rx="12.5" ry="12.5" style="stroke:#0078D4;stroke-width:3;" width="91.8115" x="151.7432" y="189.4648"/><text fill="#FFFFFF" font-family="sans-serif" font-size="14" lengthAdjust="spacing" textLength="71.8115" x="161.7432" y="213">Timed Out</text><text fill="#000000" font-family="sans-serif" font-size="14" lengthAdjust="spacing" textLength="160.1455" x="296.5547" y="203.7559">Exceeded max duration</text><path d="M243.5547,207.709 L253.5547,207.709 C268.5547,207.709 268.5547,198.4648 283.5547,198.4648 L293.5547,198.4648" fill="none" style="stroke:#0078D4;stroke-width:3;"/><text fill="#000000" font-family="sans-serif" font-size="14" lengthAdjust="spacing" textLength="151.7578" x="296.5547" y="222.2441">Configure run timeout</text><path d="M243.5547,207.709 L253.5547,207.709 C268.5547,207.709 268.5547,216.9531 283.5547,216.9531 L293.5547,216.9531" fill="none" style="stroke:#0078D4;stroke-width:3;"/><path d="M101.7432,179.4648 L111.7432,179.4648 C126.7432,179.4648 126.7432,207.709 141.7432,207.709 L151.7432,207.709" fill="none" style="stroke:#FF5F46;stroke-width:3;"/><rect fill="#0078D4" height="36.4883" rx="12.5" ry="12.5" style="stroke:#0078D4;stroke-width:3;" width="81.7354" x="151.7432" y="245.9531"/><text fill="#FFFFFF" font-family="sans-serif" font-size="14" lengthAdjust="spacing" textLength="61.7354" x="161.7432" y="269.4883">Canceled</text><text fill="#000000" font-family="sans-serif" font-size="14" lengthAdjust="spacing" textLength="190.8184" x="286.4785" y="260.2441">User or automation stopped</text><path d="M233.4785,264.1973 L243.4785,264.1973 C258.4785,264.1973 258.4785,254.9531 273.4785,254.9531 L283.4785,254.9531" fill="none" style="stroke:#0078D4;stroke-width:3;"/><text fill="#000000" font-family="sans-serif" font-size="14" lengthAdjust="spacing" textLength="155.7227" x="286.4785" y="278.7324">Deliberate intervention</text><path d="M233.4785,264.1973 L243.4785,264.1973 C258.4785,264.1973 258.4785,273.4414 273.4785,273.4414 L283.4785,273.4414" fill="none" style="stroke:#0078D4;stroke-width:3;"/><path d="M101.7432,179.4648 L111.7432,179.4648 C126.7432,179.4648 126.7432,264.1973 141.7432,264.1973 L151.7432,264.1973" fill="none" style="stroke:#FF5F46;stroke-width:3;"/><rect fill="#0078D4" height="36.4883" rx="12.5" ry="12.5" style="stroke:#0078D4;stroke-width:3;" width="91.6133" x="151.7432" y="302.4414"/><text fill="#FFFFFF" font-family="sans-serif" font-size="14" lengthAdjust="spacing" textLength="71.6133" x="161.7432" y="325.9766">Leaf Tasks</text><text fill="#000000" font-family="sans-serif" font-size="14" lengthAdjust="spacing" textLength="204.7568" x="296.3564" y="316.7324">No downstream dependencies</text><path d="M243.3564,320.6855 L253.3564,320.6855 C268.3564,320.6855 268.3564,311.4414 283.3564,311.4414 L293.3564,311.4414" fill="none" style="stroke:#0078D4;stroke-width:3;"/><text fill="#000000" font-family="sans-serif" font-size="14" lengthAdjust="spacing" textLength="193.416" x="296.3564" y="335.2207">Determine overall run status</text><path d="M243.3564,320.6855 L253.3564,320.6855 C268.3564,320.6855 268.3564,329.9297 283.3564,329.9297 L293.3564,329.9297" fill="none" style="stroke:#0078D4;stroke-width:3;"/><path d="M101.7432,179.4648 L111.7432,179.4648 C126.7432,179.4648 126.7432,320.6855 141.7432,320.6855 L151.7432,320.6855" fill="none" style="stroke:#FF5F46;stroke-width:3;"/><?plantuml-src VLDBJnin4BxlhnYf5yWXB87og1024bPgHSiXuLQfSkpPn8hNZkmnf4ByTyPEDe6jqZcjnj_BdzOtWOIdHblLY6Ln5UYlmUlYcy8bpG_AGtWjWETEoCNCksZLq1dduKjLVQrEp_BPWxRuxxPobZRREiyMEvbhkR0O0fpqo-AjzJhUwrMMvnUZqwvNP_jPjPEWohFp6kprgklfPLbslJhR_tgLUTXhwbOcOLxt8gwEDdNtu8URGYMqYHv_sp49mb3qUdc5YhzwV-01HGqamk8W74BzuU1xqw3IJ051X9QqiuaxZb8YAbJmecdUgeSrP-mQp6BXazIjCM1Qdm2XbSXw2xrSji2VOWNIMHczPqVmqGR0rHQS7EGSLJJQpXAmDbfIKfbe3WkFaTQe-mq76XPKqOjDUZuQCalFE79I1sAUoomO2Yjn6_afe0UkLKHoJQP38BTBEaAZf-XJFTeI-kTTGxdHIRhf6lhBWN8lDf17qG3_AcWLMgdRqaR8V7ug2EwP5Rchb8mV4CLGt32uVKR5SNzG3ixwWtS0?></g></svg>