<?plantuml 1.2026.2?><svg xmlns="http://www.w3.org/2000/svg" xmlns:xlink="http://www.w3.org/1999/xlink" contentStyleType="text/css" data-diagram-type="MINDMAP" height="373px" preserveAspectRatio="none" style="width:682px;height:373px;background:#FFFFFF;" version="1.1" viewBox="0 0 682 373" width="682px" zoomAndPan="magnify"><defs/><g><rect fill="#FF5F46" height="52.9766" rx="12.5" ry="12.5" style="stroke:#FF5F46;stroke-width:3;" width="164.1563" x="10" y="159.1504"/><text fill="#FFFFFF" font-family="sans-serif" font-size="14" lengthAdjust="spacing" textLength="121.1807" x="20" y="182.6855">Identify &amp; Resolve</text><text fill="#FFFFFF" font-family="sans-serif" font-size="14" lengthAdjust="spacing" textLength="144.1563" x="20" y="199.1738">Resource Bottlenecks</text><rect fill="#0078D4" height="36.4883" rx="12.5" ry="12.5" style="stroke:#0078D4;stroke-width:3;" width="136.7578" x="224.1563" y="37.9766"/><text fill="#FFFFFF" font-family="sans-serif" font-size="14" lengthAdjust="spacing" textLength="116.7578" x="234.1563" y="61.5117">Memory Pressure</text><text fill="#000000" font-family="sans-serif" font-size="14" lengthAdjust="spacing" textLength="164.5889" x="413.9141" y="24.5352">High memory utilization</text><path d="M360.9141,56.2207 L370.9141,56.2207 C385.9141,56.2207 385.9141,19.2441 400.9141,19.2441 L410.9141,19.2441" fill="none" style="stroke:#0078D4;stroke-width:3;"/><text fill="#000000" font-family="sans-serif" font-size="14" lengthAdjust="spacing" textLength="150.9922" x="413.9141" y="43.0234">Spill to disk indicators</text><path d="M360.9141,56.2207 L370.9141,56.2207 C385.9141,56.2207 385.9141,37.7324 400.9141,37.7324 L410.9141,37.7324" fill="none" style="stroke:#0078D4;stroke-width:3;"/><text fill="#000000" font-family="sans-serif" font-size="14" lengthAdjust="spacing" textLength="161.1299" x="413.9141" y="61.5117">Fix: larger instance size</text><path d="M360.9141,56.2207 L370.9141,56.2207 C385.9141,56.2207 385.9141,56.2207 400.9141,56.2207 L410.9141,56.2207" fill="none" style="stroke:#0078D4;stroke-width:3;"/><text fill="#000000" font-family="sans-serif" font-size="14" lengthAdjust="spacing" textLength="180.3662" x="413.9141" y="80">Fix: reduce partition count</text><path d="M360.9141,56.2207 L370.9141,56.2207 C385.9141,56.2207 385.9141,74.709 400.9141,74.709 L410.9141,74.709" fill="none" style="stroke:#0078D4;stroke-width:3;"/><text fill="#000000" font-family="sans-serif" font-size="14" lengthAdjust="spacing" textLength="201.5713" x="413.9141" y="98.4883">Fix: optimize transformations</text><path d="M360.9141,56.2207 L370.9141,56.2207 C385.9141,56.2207 385.9141,93.1973 400.9141,93.1973 L410.9141,93.1973" fill="none" style="stroke:#0078D4;stroke-width:3;"/><path d="M174.1563,185.6387 L184.1563,185.6387 C199.1563,185.6387 199.1563,56.2207 214.1563,56.2207 L224.1563,56.2207" fill="none" style="stroke:#FF5F46;stroke-width:3;"/><rect fill="#0078D4" height="36.4883" rx="12.5" ry="12.5" style="stroke:#0078D4;stroke-width:3;" width="129.4707" x="224.1563" y="121.1738"/><text fill="#FFFFFF" font-family="sans-serif" font-size="14" lengthAdjust="spacing" textLength="109.4707" x="234.1563" y="144.709">CPU Constraints</text><text fill="#000000" font-family="sans-serif" font-size="14" lengthAdjust="spacing" textLength="136.1309" x="406.627" y="116.9766">High CPU utilization</text><path d="M353.627,139.418 L363.627,139.418 C378.627,139.418 378.627,111.6855 393.627,111.6855 L403.627,111.6855" fill="none" style="stroke:#0078D4;stroke-width:3;"/><text fill="#000000" font-family="sans-serif" font-size="14" lengthAdjust="spacing" textLength="137.2451" x="406.627" y="135.4648">Long task execution</text><path d="M353.627,139.418 L363.627,139.418 C378.627,139.418 378.627,130.1738 393.627,130.1738 L403.627,130.1738" fill="none" style="stroke:#0078D4;stroke-width:3;"/><text fill="#000000" font-family="sans-serif" font-size="14" lengthAdjust="spacing" textLength="182.8271" x="406.627" y="153.9531">Enable Photon acceleration</text><path d="M353.627,139.418 L363.627,139.418 C378.627,139.418 378.627,148.6621 393.627,148.6621 L403.627,148.6621" fill="none" style="stroke:#0078D4;stroke-width:3;"/><text fill="#000000" font-family="sans-serif" font-size="14" lengthAdjust="spacing" textLength="119.6357" x="406.627" y="172.4414">Scale out workers</text><path d="M353.627,139.418 L363.627,139.418 C378.627,139.418 378.627,167.1504 393.627,167.1504 L403.627,167.1504" fill="none" style="stroke:#0078D4;stroke-width:3;"/><path d="M174.1563,185.6387 L184.1563,185.6387 C199.1563,185.6387 199.1563,139.418 214.1563,139.418 L224.1563,139.418" fill="none" style="stroke:#FF5F46;stroke-width:3;"/><rect fill="#0078D4" height="36.4883" rx="12.5" ry="12.5" style="stroke:#0078D4;stroke-width:3;" width="159.0566" x="224.1563" y="204.3711"/><text fill="#FFFFFF" font-family="sans-serif" font-size="14" lengthAdjust="spacing" textLength="139.0566" x="234.1563" y="227.9063">Network Bottlenecks</text><text fill="#000000" font-family="sans-serif" font-size="14" lengthAdjust="spacing" textLength="158.2793" x="436.2129" y="190.9297">High shuffle read/write</text><path d="M383.2129,222.6152 L393.2129,222.6152 C408.2129,222.6152 408.2129,185.6387 423.2129,185.6387 L433.2129,185.6387" fill="none" style="stroke:#0078D4;stroke-width:3;"/><text fill="#000000" font-family="sans-serif" font-size="14" lengthAdjust="spacing" textLength="102.0195" x="436.2129" y="209.418">Slow execution</text><path d="M383.2129,222.6152 L393.2129,222.6152 C408.2129,222.6152 408.2129,204.127 423.2129,204.127 L433.2129,204.127" fill="none" style="stroke:#0078D4;stroke-width:3;"/><text fill="#000000" font-family="sans-serif" font-size="14" lengthAdjust="spacing" textLength="105.3555" x="436.2129" y="227.9063">Filter data early</text><path d="M383.2129,222.6152 L393.2129,222.6152 C408.2129,222.6152 408.2129,222.6152 423.2129,222.6152 L433.2129,222.6152" fill="none" style="stroke:#0078D4;stroke-width:3;"/><text fill="#000000" font-family="sans-serif" font-size="14" lengthAdjust="spacing" textLength="133.1846" x="436.2129" y="246.3945">Use broadcast joins</text><path d="M383.2129,222.6152 L393.2129,222.6152 C408.2129,222.6152 408.2129,241.1035 423.2129,241.1035 L433.2129,241.1035" fill="none" style="stroke:#0078D4;stroke-width:3;"/><text fill="#000000" font-family="sans-serif" font-size="14" lengthAdjust="spacing" textLength="173.0039" x="436.2129" y="264.8828">Repartition for colocation</text><path d="M383.2129,222.6152 L393.2129,222.6152 C408.2129,222.6152 408.2129,259.5918 423.2129,259.5918 L433.2129,259.5918" fill="none" style="stroke:#0078D4;stroke-width:3;"/><path d="M174.1563,185.6387 L184.1563,185.6387 C199.1563,185.6387 199.1563,222.6152 214.1563,222.6152 L224.1563,222.6152" fill="none" style="stroke:#FF5F46;stroke-width:3;"/><rect fill="#0078D4" height="36.4883" rx="12.5" ry="12.5" style="stroke:#0078D4;stroke-width:3;" width="184.0625" x="224.1563" y="296.8125"/><text fill="#FFFFFF" font-family="sans-serif" font-size="14" lengthAdjust="spacing" textLength="164.0625" x="234.1563" y="320.3477">Server Load Distribution</text><text fill="#000000" font-family="sans-serif" font-size="14" lengthAdjust="spacing" textLength="141.709" x="461.2188" y="283.3711">Compute Metrics tab</text><path d="M408.2188,315.0566 L418.2188,315.0566 C433.2188,315.0566 433.2188,278.0801 448.2188,278.0801 L458.2188,278.0801" fill="none" style="stroke:#0078D4;stroke-width:3;"/><text fill="#000000" font-family="sans-serif" font-size="14" lengthAdjust="spacing" textLength="142.5566" x="461.2188" y="301.8594">Red = heavily loaded</text><path d="M408.2188,315.0566 L418.2188,315.0566 C433.2188,315.0566 433.2188,296.5684 448.2188,296.5684 L458.2188,296.5684" fill="none" style="stroke:#0078D4;stroke-width:3;"/><text fill="#000000" font-family="sans-serif" font-size="14" lengthAdjust="spacing" textLength="73.2813" x="461.2188" y="320.3477">Blue = idle</text><path d="M408.2188,315.0566 L418.2188,315.0566 C433.2188,315.0566 433.2188,315.0566 448.2188,315.0566 L458.2188,315.0566" fill="none" style="stroke:#0078D4;stroke-width:3;"/><text fill="#000000" font-family="sans-serif" font-size="14" lengthAdjust="spacing" textLength="176.2236" x="461.2188" y="338.8359">Red driver + Blue workers</text><path d="M408.2188,315.0566 L418.2188,315.0566 C433.2188,315.0566 433.2188,333.5449 448.2188,333.5449 L458.2188,333.5449" fill="none" style="stroke:#0078D4;stroke-width:3;"/><text fill="#000000" font-family="sans-serif" font-size="14" lengthAdjust="spacing" textLength="209.2549" x="461.2188" y="357.3242">&#8594; Driver needs larger instance</text><path d="M408.2188,315.0566 L418.2188,315.0566 C433.2188,315.0566 433.2188,352.0332 448.2188,352.0332 L458.2188,352.0332" fill="none" style="stroke:#0078D4;stroke-width:3;"/><path d="M174.1563,185.6387 L184.1563,185.6387 C199.1563,185.6387 199.1563,315.0566 214.1563,315.0566 L224.1563,315.0566" fill="none" style="stroke:#FF5F46;stroke-width:3;"/><?plantuml-src VPHHRzCm4CVVyobEGa9Gf2uhOy0qqDIMY4a5LIjxGqAkVMcFEdPbNzPs4wzy03uYduHBqjAIgToJSx_p_Sz_MxcAh08Nv4oXbibbv8t5zyc5mINFdwNFuI41YRxIYrdmfJC3Rts09rdsAZixhzc873xEPjxnDflNyRVsovpqmc6CyBAR9ZzsMgT7jTBqzPlXMLkhbVstQsk2h8wzLk-eLfvFtwPfMwkL_QzMMeTeJVtQLZKFHoikJxPsT-3Qe6FAD_0KRZ1wUuTVNRKeWqReUsQB3lKY9fqEVCB2XmsCWtGl0qggymq-qcmEHKDA9altYicx1awMP2sm1qDn0NBNf1Nx41kQqVe2h0ep3CBaFJZHZ7IF1pYWAIMxbBT2LL_GOXeV5FWbKo5xW8DoCVUXgFNhWGVZMnZ8MX0vZWS3L-JHj2FlPi1A9iKrwd8FFZWrjGZZkMUPG6cD5iFXCRKIx4k6bGyBhCy7dv6hhvQ9km7YlCnpsHHGcPDL8DuUUcBzgYsVaMMno2XMW2hOJPE-ZGZJu9NHAZ9yz-Is0ZUujqiC4SkirxjnOOBXJhgDP2CCIRoXwO7Mm1VBab7kMe2EOiTqrzJ0EvYZkYEx0IkxqJIaRqiKHCRYljG4gbHUD7HlY-3VFt_1iC4EqSJs4qYkK7uAsnz3SjhjfRtpRkyF?></g></svg>