<?plantuml 1.2026.2?><svg xmlns="http://www.w3.org/2000/svg" xmlns:xlink="http://www.w3.org/1999/xlink" contentStyleType="text/css" data-diagram-type="MINDMAP" height="280px" preserveAspectRatio="none" style="width:615px;height:280px;background:#FFFFFF;" version="1.1" viewBox="0 0 615 280" width="615px" zoomAndPan="magnify"><defs/><g><rect fill="#FF5F46" height="52.9766" rx="12.5" ry="12.5" style="stroke:#FF5F46;stroke-width:3;" width="141.3037" x="10" y="112.9297"/><text fill="#FFFFFF" font-family="sans-serif" font-size="14" lengthAdjust="spacing" textLength="114.3242" x="20" y="136.4648">Common Causes</text><text fill="#FFFFFF" font-family="sans-serif" font-size="14" lengthAdjust="spacing" textLength="121.3037" x="20" y="152.9531">Spark Job Failures</text><rect fill="#0078D4" height="36.4883" rx="12.5" ry="12.5" style="stroke:#0078D4;stroke-width:3;" width="99.8369" x="201.3037" y="37.9766"/><text fill="#FFFFFF" font-family="sans-serif" font-size="14" lengthAdjust="spacing" textLength="79.8369" x="211.3037" y="61.5117">Code Errors</text><text fill="#000000" font-family="sans-serif" font-size="14" lengthAdjust="spacing" textLength="90.248" x="354.1406" y="24.5352">Syntax errors</text><path d="M301.1406,56.2207 L311.1406,56.2207 C326.1406,56.2207 326.1406,19.2441 341.1406,19.2441 L351.1406,19.2441" fill="none" style="stroke:#0078D4;stroke-width:3;"/><text fill="#000000" font-family="sans-serif" font-size="14" lengthAdjust="spacing" textLength="173.0928" x="354.1406" y="43.0234">Incorrect transformations</text><path d="M301.1406,56.2207 L311.1406,56.2207 C326.1406,56.2207 326.1406,37.7324 341.1406,37.7324 L351.1406,37.7324" fill="none" style="stroke:#0078D4;stroke-width:3;"/><text fill="#000000" font-family="sans-serif" font-size="14" lengthAdjust="spacing" textLength="137.5186" x="354.1406" y="61.5117">Schema mismatches</text><path d="M301.1406,56.2207 L311.1406,56.2207 C326.1406,56.2207 326.1406,56.2207 341.1406,56.2207 L351.1406,56.2207" fill="none" style="stroke:#0078D4;stroke-width:3;"/><text fill="#000000" font-family="sans-serif" font-size="14" lengthAdjust="spacing" textLength="127.8662" x="354.1406" y="80">Data quality issues</text><path d="M301.1406,56.2207 L311.1406,56.2207 C326.1406,56.2207 326.1406,74.709 341.1406,74.709 L351.1406,74.709" fill="none" style="stroke:#0078D4;stroke-width:3;"/><text fill="#000000" font-family="sans-serif" font-size="14" lengthAdjust="spacing" textLength="189.9844" x="354.1406" y="98.4883">Error points directly to code</text><path d="M301.1406,56.2207 L311.1406,56.2207 C326.1406,56.2207 326.1406,93.1973 341.1406,93.1973 L351.1406,93.1973" fill="none" style="stroke:#0078D4;stroke-width:3;"/><path d="M151.3037,139.418 L161.3037,139.418 C176.3037,139.418 176.3037,56.2207 191.3037,56.2207 L201.3037,56.2207" fill="none" style="stroke:#FF5F46;stroke-width:3;"/><rect fill="#0078D4" height="36.4883" rx="12.5" ry="12.5" style="stroke:#0078D4;stroke-width:3;" width="164.1563" x="201.3037" y="121.1738"/><text fill="#FFFFFF" font-family="sans-serif" font-size="14" lengthAdjust="spacing" textLength="144.1563" x="211.3037" y="144.709">Resource Bottlenecks</text><text fill="#000000" font-family="sans-serif" font-size="14" lengthAdjust="spacing" textLength="157.6777" x="418.46" y="116.9766">Out-of-memory (OOM)</text><path d="M365.46,139.418 L375.46,139.418 C390.46,139.418 390.46,111.6855 405.46,111.6855 L415.46,111.6855" fill="none" style="stroke:#0078D4;stroke-width:3;"/><text fill="#000000" font-family="sans-serif" font-size="14" lengthAdjust="spacing" textLength="158.8672" x="418.46" y="135.4648">Slow shuffle operations</text><path d="M365.46,139.418 L375.46,139.418 C390.46,139.418 390.46,130.1738 405.46,130.1738 L415.46,130.1738" fill="none" style="stroke:#0078D4;stroke-width:3;"/><text fill="#000000" font-family="sans-serif" font-size="14" lengthAdjust="spacing" textLength="150.3154" x="418.46" y="153.9531">Repeated task failures</text><path d="M365.46,139.418 L375.46,139.418 C390.46,139.418 390.46,148.6621 405.46,148.6621 L415.46,148.6621" fill="none" style="stroke:#0078D4;stroke-width:3;"/><text fill="#000000" font-family="sans-serif" font-size="14" lengthAdjust="spacing" textLength="154.1846" x="418.46" y="172.4414">Requires config tuning</text><path d="M365.46,139.418 L375.46,139.418 C390.46,139.418 390.46,167.1504 405.46,167.1504 L415.46,167.1504" fill="none" style="stroke:#0078D4;stroke-width:3;"/><path d="M151.3037,139.418 L161.3037,139.418 C176.3037,139.418 176.3037,139.418 191.3037,139.418 L201.3037,139.418" fill="none" style="stroke:#FF5F46;stroke-width:3;"/><rect fill="#0078D4" height="36.4883" rx="12.5" ry="12.5" style="stroke:#0078D4;stroke-width:3;" width="163.5205" x="201.3037" y="204.3711"/><text fill="#FFFFFF" font-family="sans-serif" font-size="14" lengthAdjust="spacing" textLength="143.5205" x="211.3037" y="227.9063">Environmental Issues</text><text fill="#000000" font-family="sans-serif" font-size="14" lengthAdjust="spacing" textLength="156.0781" x="417.8242" y="190.9297">Cluster startup failures</text><path d="M364.8242,222.6152 L374.8242,222.6152 C389.8242,222.6152 389.8242,185.6387 404.8242,185.6387 L414.8242,185.6387" fill="none" style="stroke:#0078D4;stroke-width:3;"/><text fill="#000000" font-family="sans-serif" font-size="14" lengthAdjust="spacing" textLength="125.1113" x="417.8242" y="209.418">Network problems</text><path d="M364.8242,222.6152 L374.8242,222.6152 C389.8242,222.6152 389.8242,204.127 404.8242,204.127 L414.8242,204.127" fill="none" style="stroke:#0078D4;stroke-width:3;"/><text fill="#000000" font-family="sans-serif" font-size="14" lengthAdjust="spacing" textLength="185.958" x="417.8242" y="227.9063">External source unavailable</text><path d="M364.8242,222.6152 L374.8242,222.6152 C389.8242,222.6152 389.8242,222.6152 404.8242,222.6152 L414.8242,222.6152" fill="none" style="stroke:#0078D4;stroke-width:3;"/><text fill="#000000" font-family="sans-serif" font-size="14" lengthAdjust="spacing" textLength="175.3965" x="417.8242" y="246.3945">Spot instance reclamation</text><path d="M364.8242,222.6152 L374.8242,222.6152 C389.8242,222.6152 389.8242,241.1035 404.8242,241.1035 L414.8242,241.1035" fill="none" style="stroke:#0078D4;stroke-width:3;"/><text fill="#000000" font-family="sans-serif" font-size="14" lengthAdjust="spacing" textLength="140.7246" x="417.8242" y="264.8828">Account quota limits</text><path d="M364.8242,222.6152 L374.8242,222.6152 C389.8242,222.6152 389.8242,259.5918 404.8242,259.5918 L414.8242,259.5918" fill="none" style="stroke:#0078D4;stroke-width:3;"/><path d="M151.3037,139.418 L161.3037,139.418 C176.3037,139.418 176.3037,222.6152 191.3037,222.6152 L201.3037,222.6152" fill="none" style="stroke:#FF5F46;stroke-width:3;"/><?plantuml-src VLFRJjmm47tFLupK5rY9RTXIUX6gA0kHg6XNWZvMghpEPDUAFHFiCMo4-kzrGhPiKstdoJvpEMUExFCWoeipL3hLP6T1MekVieybDh8-o0_XAOCK5qhNAy-HoZbRzl2gADuM9wTzxiOG_eiMJ3AWLHz_Qh-lZQu9Gu0tqppxjUKwtikLv-_UNvwCkKRetrD72ee-NhXcUxcgQlaXpyTS8_I_N7aVYMl96zlLFEsjE7izs3s1EJl717CL0uOVTDSeNyCNNaAXZ8qUGpRfYag4A-_PTzV9JxXhITG6S0Uw9itUenOGhoXKx9qImxJjq6jq2fm92Kxd0RvKek0-Acka1HD2t2PwDcZOa0GeJJVOjY0CEcdfDDrYuEWrmWMBM2JKzT2wY7B4rP53nxw5WyNYw-6WmV8ZX7MiAel03VfTWRVOe18iGLIeeNhPli_TnoGX97Agp0eaag5Lf-AA7endSfZyi72ziy3SnY3eeN_ciHbD_8RooCdfnlFIejiklKaTb0ODgqLI3wbDfP9XWuO53AMPbDB95AkUNNvEVzOwFIb9XdAorHfd96JdcBxOyCsou-aidvrEPxy1?></g></svg>