<?plantuml 1.2026.2?><svg xmlns="http://www.w3.org/2000/svg" xmlns:xlink="http://www.w3.org/1999/xlink" contentStyleType="text/css" data-diagram-type="MINDMAP" height="385px" preserveAspectRatio="none" style="width:615px;height:385px;background:#FFFFFF;" version="1.1" viewBox="0 0 615 385" width="615px" zoomAndPan="magnify"><defs/><g><rect fill="#FF5F46" height="52.9766" rx="12.5" ry="12.5" style="stroke:#FF5F46;stroke-width:3;" width="163.5205" x="10" y="165.3076"/><text fill="#FFFFFF" font-family="sans-serif" font-size="14" lengthAdjust="spacing" textLength="107.6113" x="20" y="188.8428">Restart Clusters</text><text fill="#FFFFFF" font-family="sans-serif" font-size="14" lengthAdjust="spacing" textLength="143.5205" x="20" y="205.3311">Environmental Issues</text><rect fill="#0078D4" height="36.4883" rx="12.5" ry="12.5" style="stroke:#0078D4;stroke-width:3;" width="127.5703" x="223.5205" y="20"/><text fill="#FFFFFF" font-family="sans-serif" font-size="14" lengthAdjust="spacing" textLength="107.5703" x="233.5205" y="43.5352">When to Restart</text><text fill="#000000" font-family="sans-serif" font-size="14" lengthAdjust="spacing" textLength="141.4082" x="404.0908" y="25.0469">Resource exhaustion</text><path d="M351.0908,38.2441 L361.0908,38.2441 C376.0908,38.2441 376.0908,19.7559 391.0908,19.7559 L401.0908,19.7559" fill="none" style="stroke:#0078D4;stroke-width:3;"/><text fill="#000000" font-family="sans-serif" font-size="14" lengthAdjust="spacing" textLength="172.7441" x="404.0908" y="43.5352">Malfunctioning executors</text><path d="M351.0908,38.2441 L361.0908,38.2441 C376.0908,38.2441 376.0908,38.2441 391.0908,38.2441 L401.0908,38.2441" fill="none" style="stroke:#0078D4;stroke-width:3;"/><text fill="#000000" font-family="sans-serif" font-size="14" lengthAdjust="spacing" textLength="153.4189" x="404.0908" y="62.0234">Stale container images</text><path d="M351.0908,38.2441 L361.0908,38.2441 C376.0908,38.2441 376.0908,56.7324 391.0908,56.7324 L401.0908,56.7324" fill="none" style="stroke:#0078D4;stroke-width:3;"/><path d="M173.5205,191.7959 L183.5205,191.7959 C198.5205,191.7959 198.5205,38.2441 213.5205,38.2441 L223.5205,38.2441" fill="none" style="stroke:#FF5F46;stroke-width:3;"/><rect fill="#0078D4" height="36.4883" rx="12.5" ry="12.5" style="stroke:#0078D4;stroke-width:3;" width="136.7441" x="223.5205" y="84.709"/><text fill="#FFFFFF" font-family="sans-serif" font-size="14" lengthAdjust="spacing" textLength="116.7441" x="233.5205" y="108.2441">Before Restarting</text><text fill="#000000" font-family="sans-serif" font-size="14" lengthAdjust="spacing" textLength="134.5313" x="413.2646" y="80.5117">Check Event log tab</text><path d="M360.2646,102.9531 L370.2646,102.9531 C385.2646,102.9531 385.2646,75.2207 400.2646,75.2207 L410.2646,75.2207" fill="none" style="stroke:#0078D4;stroke-width:3;"/><text fill="#000000" font-family="sans-serif" font-size="14" lengthAdjust="spacing" textLength="189.875" x="413.2646" y="99">Instance acquisition failures</text><path d="M360.2646,102.9531 L370.2646,102.9531 C385.2646,102.9531 385.2646,93.709 400.2646,93.709 L410.2646,93.709" fill="none" style="stroke:#0078D4;stroke-width:3;"/><text fill="#000000" font-family="sans-serif" font-size="14" lengthAdjust="spacing" textLength="175.3965" x="413.2646" y="117.4883">Spot instance reclamation</text><path d="M360.2646,102.9531 L370.2646,102.9531 C385.2646,102.9531 385.2646,112.1973 400.2646,112.1973 L410.2646,112.1973" fill="none" style="stroke:#0078D4;stroke-width:3;"/><text fill="#000000" font-family="sans-serif" font-size="14" lengthAdjust="spacing" textLength="149.8369" x="413.2646" y="135.9766">Executor terminations</text><path d="M360.2646,102.9531 L370.2646,102.9531 C385.2646,102.9531 385.2646,130.6855 400.2646,130.6855 L410.2646,130.6855" fill="none" style="stroke:#0078D4;stroke-width:3;"/><path d="M173.5205,191.7959 L183.5205,191.7959 C198.5205,191.7959 198.5205,102.9531 213.5205,102.9531 L223.5205,102.9531" fill="none" style="stroke:#FF5F46;stroke-width:3;"/><rect fill="#0078D4" height="36.4883" rx="12.5" ry="12.5" style="stroke:#0078D4;stroke-width:3;" width="109.3389" x="223.5205" y="141.1973"/><text fill="#FFFFFF" font-family="sans-serif" font-size="14" lengthAdjust="spacing" textLength="89.3389" x="233.5205" y="164.7324">Restart via UI</text><text fill="#000000" font-family="sans-serif" font-size="14" lengthAdjust="spacing" textLength="99.3945" x="385.8594" y="155.4883">Compute page</text><path d="M332.8594,159.4414 L342.8594,159.4414 C357.8594,159.4414 357.8594,150.1973 372.8594,150.1973 L382.8594,150.1973" fill="none" style="stroke:#0078D4;stroke-width:3;"/><text fill="#000000" font-family="sans-serif" font-size="14" lengthAdjust="spacing" textLength="160.4121" x="385.8594" y="173.9766">Select cluster &#8594; Restart</text><path d="M332.8594,159.4414 L342.8594,159.4414 C357.8594,159.4414 357.8594,168.6855 372.8594,168.6855 L382.8594,168.6855" fill="none" style="stroke:#0078D4;stroke-width:3;"/><path d="M173.5205,191.7959 L183.5205,191.7959 C198.5205,191.7959 198.5205,159.4414 213.5205,159.4414 L223.5205,159.4414" fill="none" style="stroke:#FF5F46;stroke-width:3;"/><rect fill="#0078D4" height="36.4883" rx="12.5" ry="12.5" style="stroke:#0078D4;stroke-width:3;" width="116.79" x="223.5205" y="197.6855"/><text fill="#FFFFFF" font-family="sans-serif" font-size="14" lengthAdjust="spacing" textLength="96.79" x="233.5205" y="221.2207">Restart via CLI</text><text fill="#000000" font-family="sans-serif" font-size="14" lengthAdjust="spacing" textLength="176.9893" x="393.3105" y="202.7324">databricks clusters restart</text><path d="M340.3105,215.9297 L350.3105,215.9297 C365.3105,215.9297 365.3105,197.4414 380.3105,197.4414 L390.3105,197.4414" fill="none" style="stroke:#0078D4;stroke-width:3;"/><text fill="#000000" font-family="sans-serif" font-size="14" lengthAdjust="spacing" textLength="103.9404" x="393.3105" y="221.2207">Need cluster ID</text><path d="M340.3105,215.9297 L350.3105,215.9297 C365.3105,215.9297 365.3105,215.9297 380.3105,215.9297 L390.3105,215.9297" fill="none" style="stroke:#0078D4;stroke-width:3;"/><text fill="#000000" font-family="sans-serif" font-size="14" lengthAdjust="spacing" textLength="152.8584" x="393.3105" y="239.709">databricks clusters list</text><path d="M340.3105,215.9297 L350.3105,215.9297 C365.3105,215.9297 365.3105,234.418 380.3105,234.418 L390.3105,234.418" fill="none" style="stroke:#0078D4;stroke-width:3;"/><path d="M173.5205,191.7959 L183.5205,191.7959 C198.5205,191.7959 198.5205,215.9297 213.5205,215.9297 L223.5205,215.9297" fill="none" style="stroke:#FF5F46;stroke-width:3;"/><rect fill="#0078D4" height="36.4883" rx="12.5" ry="12.5" style="stroke:#0078D4;stroke-width:3;" width="130.6807" x="223.5205" y="262.3945"/><text fill="#FFFFFF" font-family="sans-serif" font-size="14" lengthAdjust="spacing" textLength="110.6807" x="233.5205" y="285.9297">Important Notes</text><text fill="#000000" font-family="sans-serif" font-size="14" lengthAdjust="spacing" textLength="167.0156" x="407.2012" y="258.1973">Terminates running jobs</text><path d="M354.2012,280.6387 L364.2012,280.6387 C379.2012,280.6387 379.2012,252.9063 394.2012,252.9063 L404.2012,252.9063" fill="none" style="stroke:#0078D4;stroke-width:3;"/><text fill="#000000" font-family="sans-serif" font-size="14" lengthAdjust="spacing" textLength="155.7295" x="407.2012" y="276.6855">Resets Spark UI history</text><path d="M354.2012,280.6387 L364.2012,280.6387 C379.2012,280.6387 379.2012,271.3945 394.2012,271.3945 L404.2012,271.3945" fill="none" style="stroke:#0078D4;stroke-width:3;"/><text fill="#000000" font-family="sans-serif" font-size="14" lengthAdjust="spacing" textLength="143.8076" x="407.2012" y="295.1738">Save diagnostics first</text><path d="M354.2012,280.6387 L364.2012,280.6387 C379.2012,280.6387 379.2012,289.8828 394.2012,289.8828 L404.2012,289.8828" fill="none" style="stroke:#0078D4;stroke-width:3;"/><text fill="#000000" font-family="sans-serif" font-size="14" lengthAdjust="spacing" textLength="189.3076" x="407.2012" y="313.6621">Schedule streaming restarts</text><path d="M354.2012,280.6387 L364.2012,280.6387 C379.2012,280.6387 379.2012,308.3711 394.2012,308.3711 L404.2012,308.3711" fill="none" style="stroke:#0078D4;stroke-width:3;"/><path d="M173.5205,191.7959 L183.5205,191.7959 C198.5205,191.7959 198.5205,280.6387 213.5205,280.6387 L223.5205,280.6387" fill="none" style="stroke:#FF5F46;stroke-width:3;"/><rect fill="#0078D4" height="36.4883" rx="12.5" ry="12.5" style="stroke:#0078D4;stroke-width:3;" width="105.7227" x="223.5205" y="327.1035"/><text fill="#FFFFFF" font-family="sans-serif" font-size="14" lengthAdjust="spacing" textLength="85.7227" x="233.5205" y="350.6387">After Restart</text><text fill="#000000" font-family="sans-serif" font-size="14" lengthAdjust="spacing" textLength="76.7676" x="382.2432" y="332.1504">Validate fix</text><path d="M329.2432,345.3477 L339.2432,345.3477 C354.2432,345.3477 354.2432,326.8594 369.2432,326.8594 L379.2432,326.8594" fill="none" style="stroke:#0078D4;stroke-width:3;"/><text fill="#000000" font-family="sans-serif" font-size="14" lengthAdjust="spacing" textLength="141.333" x="382.2432" y="350.6387">Monitor next job run</text><path d="M329.2432,345.3477 L339.2432,345.3477 C354.2432,345.3477 354.2432,345.3477 369.2432,345.3477 L379.2432,345.3477" fill="none" style="stroke:#0078D4;stroke-width:3;"/><text fill="#000000" font-family="sans-serif" font-size="14" lengthAdjust="spacing" textLength="154.2939" x="382.2432" y="369.127">Check execution times</text><path d="M329.2432,345.3477 L339.2432,345.3477 C354.2432,345.3477 354.2432,363.8359 369.2432,363.8359 L379.2432,363.8359" fill="none" style="stroke:#0078D4;stroke-width:3;"/><path d="M173.5205,191.7959 L183.5205,191.7959 C198.5205,191.7959 198.5205,345.3477 213.5205,345.3477 L223.5205,345.3477" fill="none" style="stroke:#FF5F46;stroke-width:3;"/><?plantuml-src VLHBRzD04BxxLup41N88RYZbeGgLfh4KgVH02roGq6OzjfUiTyq-ebGLLtu0Fv5VmknwdIP6OM-Un_UO6Vd2EcPSArJPiYuxj-vUuhliROcTQvxcp-0X0tgNZAzhexqgvrfg0q-AucLnUXPprqBXlz52AvUYLNoxshj6yBL2Q-75DCz-3bmdHxdo_DNhgzCnroXwY3fIKCJto3KxobLLgpTvFkOQHV_BbST7N2kzbQ7cuMZ5-VCqxWbynBW7c4jl7HhxLItKHXYjMbIEILXQwz5cambyQL21qqC7XIRVmeVsXYFWjc648BJg4n-OhBpY8I1KJMdatcbZ--mjGIDmaiR8bW7HihfdkSHA6nn8gBLlc3V8rx3Oa2YGkWR7LdrYgQXGaG36VtXXHI24YWdf3GvadNOWXZg3NBAMFIfT96b0zkaSOoPA6KQp4Gm-BPCEtNRU8NIaDw6ZHEw0z_E3Fxz-xqte06D-dK1AHl8DhT8ERPPaxKtr1h7S8IwlZdT9OIFDiksq8NyERhGRVDybFqZeNiKrVDShkriSEakpOMPDxg0X96tkaoUsGIW5gvMcbN8BbJ0sQRlb3PQUjcUTGTO6rAGz3krz5JGVtCXd9WM9HqBPfkEWemWJLxXrGLFGjx_d_bh29freoSu5qbyY_Icoa-aidvrDPty1?></g></svg>