<?plantuml 1.2026.2?><svg xmlns="http://www.w3.org/2000/svg" xmlns:xlink="http://www.w3.org/1999/xlink" contentStyleType="text/css" data-diagram-type="MINDMAP" height="377px" preserveAspectRatio="none" style="width:559px;height:377px;background:#FFFFFF;" version="1.1" viewBox="0 0 559 377" width="559px" zoomAndPan="magnify"><defs/><g><rect fill="#FF5F46" height="52.9766" rx="12.5" ry="12.5" style="stroke:#FF5F46;stroke-width:3;" width="99.0098" x="10" y="161.4531"/><text fill="#FFFFFF" font-family="sans-serif" font-size="14" lengthAdjust="spacing" textLength="56.1572" x="20" y="184.9883">Spark UI</text><text fill="#FFFFFF" font-family="sans-serif" font-size="14" lengthAdjust="spacing" textLength="79.0098" x="20" y="201.4766">Diagnostics</text><rect fill="#0078D4" height="36.4883" rx="12.5" ry="12.5" style="stroke:#0078D4;stroke-width:3;" width="66.0742" x="159.0098" y="20"/><text fill="#FFFFFF" font-family="sans-serif" font-size="14" lengthAdjust="spacing" textLength="46.0742" x="169.0098" y="43.5352">Access</text><text fill="#000000" font-family="sans-serif" font-size="14" lengthAdjust="spacing" textLength="85.8252" x="278.084" y="34.291">Cluster page</text><path d="M225.084,38.2441 L235.084,38.2441 C250.084,38.2441 250.084,29 265.084,29 L275.084,29" fill="none" style="stroke:#0078D4;stroke-width:3;"/><text fill="#000000" font-family="sans-serif" font-size="14" lengthAdjust="spacing" textLength="82.3662" x="278.084" y="52.7793">Spark UI tab</text><path d="M225.084,38.2441 L235.084,38.2441 C250.084,38.2441 250.084,47.4883 265.084,47.4883 L275.084,47.4883" fill="none" style="stroke:#0078D4;stroke-width:3;"/><path d="M109.0098,187.9414 L119.0098,187.9414 C134.0098,187.9414 134.0098,38.2441 149.0098,38.2441 L159.0098,38.2441" fill="none" style="stroke:#FF5F46;stroke-width:3;"/><rect fill="#0078D4" height="36.4883" rx="12.5" ry="12.5" style="stroke:#0078D4;stroke-width:3;" width="111.6836" x="159.0098" y="76.4883"/><text fill="#FFFFFF" font-family="sans-serif" font-size="14" lengthAdjust="spacing" textLength="91.6836" x="169.0098" y="100.0234">Jobs Timeline</text><text fill="#000000" font-family="sans-serif" font-size="14" lengthAdjust="spacing" textLength="134.7295" x="323.6934" y="72.291">Execution sequence</text><path d="M270.6934,94.7324 L280.6934,94.7324 C295.6934,94.7324 295.6934,67 310.6934,67 L320.6934,67" fill="none" style="stroke:#0078D4;stroke-width:3;"/><text fill="#000000" font-family="sans-serif" font-size="14" lengthAdjust="spacing" textLength="113.9072" x="323.6934" y="90.7793">Failing jobs (red)</text><path d="M270.6934,94.7324 L280.6934,94.7324 C295.6934,94.7324 295.6934,85.4883 310.6934,85.4883 L320.6934,85.4883" fill="none" style="stroke:#0078D4;stroke-width:3;"/><text fill="#000000" font-family="sans-serif" font-size="14" lengthAdjust="spacing" textLength="128.0781" x="323.6934" y="109.2676">Long-running jobs</text><path d="M270.6934,94.7324 L280.6934,94.7324 C295.6934,94.7324 295.6934,103.9766 310.6934,103.9766 L320.6934,103.9766" fill="none" style="stroke:#0078D4;stroke-width:3;"/><text fill="#000000" font-family="sans-serif" font-size="14" lengthAdjust="spacing" textLength="103.2432" x="323.6934" y="127.7559">Execution gaps</text><path d="M270.6934,94.7324 L280.6934,94.7324 C295.6934,94.7324 295.6934,122.4648 310.6934,122.4648 L320.6934,122.4648" fill="none" style="stroke:#0078D4;stroke-width:3;"/><path d="M109.0098,187.9414 L119.0098,187.9414 C134.0098,187.9414 134.0098,94.7324 149.0098,94.7324 L159.0098,94.7324" fill="none" style="stroke:#FF5F46;stroke-width:3;"/><rect fill="#0078D4" height="36.4883" rx="12.5" ry="12.5" style="stroke:#0078D4;stroke-width:3;" width="98.1279" x="159.0098" y="141.1973"/><text fill="#FFFFFF" font-family="sans-serif" font-size="14" lengthAdjust="spacing" textLength="78.1279" x="169.0098" y="164.7324">Failing Jobs</text><text fill="#000000" font-family="sans-serif" font-size="14" lengthAdjust="spacing" textLength="135.5498" x="310.1377" y="146.2441">Red status indicator</text><path d="M257.1377,159.4414 L267.1377,159.4414 C282.1377,159.4414 282.1377,140.9531 297.1377,140.9531 L307.1377,140.9531" fill="none" style="stroke:#0078D4;stroke-width:3;"/><text fill="#000000" font-family="sans-serif" font-size="14" lengthAdjust="spacing" textLength="114.8643" x="310.1377" y="164.7324">View failed stage</text><path d="M257.1377,159.4414 L267.1377,159.4414 C282.1377,159.4414 282.1377,159.4414 297.1377,159.4414 L307.1377,159.4414" fill="none" style="stroke:#0078D4;stroke-width:3;"/><text fill="#000000" font-family="sans-serif" font-size="14" lengthAdjust="spacing" textLength="149.4678" x="310.1377" y="183.2207">Specific failure reason</text><path d="M257.1377,159.4414 L267.1377,159.4414 C282.1377,159.4414 282.1377,177.9297 297.1377,177.9297 L307.1377,177.9297" fill="none" style="stroke:#0078D4;stroke-width:3;"/><path d="M109.0098,187.9414 L119.0098,187.9414 C134.0098,187.9414 134.0098,159.4414 149.0098,159.4414 L159.0098,159.4414" fill="none" style="stroke:#FF5F46;stroke-width:3;"/><rect fill="#0078D4" height="36.4883" rx="12.5" ry="12.5" style="stroke:#0078D4;stroke-width:3;" width="151.2979" x="159.0098" y="197.6855"/><text fill="#FFFFFF" font-family="sans-serif" font-size="14" lengthAdjust="spacing" textLength="131.2979" x="169.0098" y="221.2207">Long-Running Jobs</text><text fill="#000000" font-family="sans-serif" font-size="14" lengthAdjust="spacing" textLength="125.2822" x="363.3076" y="202.7324">Extended duration</text><path d="M310.3076,215.9297 L320.3076,215.9297 C335.3076,215.9297 335.3076,197.4414 350.3076,197.4414 L360.3076,197.4414" fill="none" style="stroke:#0078D4;stroke-width:3;"/><text fill="#000000" font-family="sans-serif" font-size="14" lengthAdjust="spacing" textLength="107.5566" x="363.3076" y="221.2207">Drill into stages</text><path d="M310.3076,215.9297 L320.3076,215.9297 C335.3076,215.9297 335.3076,215.9297 350.3076,215.9297 L360.3076,215.9297" fill="none" style="stroke:#0078D4;stroke-width:3;"/><text fill="#000000" font-family="sans-serif" font-size="14" lengthAdjust="spacing" textLength="134.2168" x="363.3076" y="239.709">Identify bottlenecks</text><path d="M310.3076,215.9297 L320.3076,215.9297 C335.3076,215.9297 335.3076,234.418 350.3076,234.418 L360.3076,234.418" fill="none" style="stroke:#0078D4;stroke-width:3;"/><path d="M109.0098,187.9414 L119.0098,187.9414 C134.0098,187.9414 134.0098,215.9297 149.0098,215.9297 L159.0098,215.9297" fill="none" style="stroke:#FF5F46;stroke-width:3;"/><rect fill="#0078D4" height="36.4883" rx="12.5" ry="12.5" style="stroke:#0078D4;stroke-width:3;" width="124.6309" x="159.0098" y="254.1738"/><text fill="#FFFFFF" font-family="sans-serif" font-size="14" lengthAdjust="spacing" textLength="104.6309" x="169.0098" y="277.709">Execution Gaps</text><text fill="#000000" font-family="sans-serif" font-size="14" lengthAdjust="spacing" textLength="130.6074" x="336.6406" y="268.4648">Normal: short gaps</text><path d="M283.6406,272.418 L293.6406,272.418 C308.6406,272.418 308.6406,263.1738 323.6406,263.1738 L333.6406,263.1738" fill="none" style="stroke:#0078D4;stroke-width:3;"/><text fill="#000000" font-family="sans-serif" font-size="14" lengthAdjust="spacing" textLength="178.5068" x="336.6406" y="286.9531">&gt;1 min gap = driver issue</text><path d="M283.6406,272.418 L293.6406,272.418 C308.6406,272.418 308.6406,281.6621 323.6406,281.6621 L333.6406,281.6621" fill="none" style="stroke:#0078D4;stroke-width:3;"/><path d="M109.0098,187.9414 L119.0098,187.9414 C134.0098,187.9414 134.0098,272.418 149.0098,272.418 L159.0098,272.418" fill="none" style="stroke:#FF5F46;stroke-width:3;"/><rect fill="#0078D4" height="36.4883" rx="12.5" ry="12.5" style="stroke:#0078D4;stroke-width:3;" width="147.9688" x="159.0098" y="310.6621"/><text fill="#FFFFFF" font-family="sans-serif" font-size="14" lengthAdjust="spacing" textLength="127.9688" x="169.0098" y="334.1973">Task-Level Metrics</text><text fill="#000000" font-family="sans-serif" font-size="14" lengthAdjust="spacing" textLength="99.1963" x="359.9785" y="306.4648">Input / Output</text><path d="M306.9785,328.9063 L316.9785,328.9063 C331.9785,328.9063 331.9785,301.1738 346.9785,301.1738 L356.9785,301.1738" fill="none" style="stroke:#0078D4;stroke-width:3;"/><text fill="#000000" font-family="sans-serif" font-size="14" lengthAdjust="spacing" textLength="135.6729" x="359.9785" y="324.9531">Shuffle Read / Write</text><path d="M306.9785,328.9063 L316.9785,328.9063 C331.9785,328.9063 331.9785,319.6621 346.9785,319.6621 L356.9785,319.6621" fill="none" style="stroke:#0078D4;stroke-width:3;"/><text fill="#000000" font-family="sans-serif" font-size="14" lengthAdjust="spacing" textLength="187.9951" x="359.9785" y="343.4414">Few tasks = low parallelism</text><path d="M306.9785,328.9063 L316.9785,328.9063 C331.9785,328.9063 331.9785,338.1504 346.9785,338.1504 L356.9785,338.1504" fill="none" style="stroke:#0078D4;stroke-width:3;"/><text fill="#000000" font-family="sans-serif" font-size="14" lengthAdjust="spacing" textLength="172.915" x="359.9785" y="361.9297">Uneven durations = skew</text><path d="M306.9785,328.9063 L316.9785,328.9063 C331.9785,328.9063 331.9785,356.6387 346.9785,356.6387 L356.9785,356.6387" fill="none" style="stroke:#0078D4;stroke-width:3;"/><path d="M109.0098,187.9414 L119.0098,187.9414 C134.0098,187.9414 134.0098,328.9063 149.0098,328.9063 L159.0098,328.9063" fill="none" style="stroke:#FF5F46;stroke-width:3;"/><?plantuml-src VLDTRnCn47o_Nx4IBssaffTG2bIbAZGSQfI2L59uGK8-tzx5d6CVzhffLV7VsVjAu53O9sjsl3ExQrzw4exMocHhKKNddXurNaHd6LQqEeWFuIa2ZdT2beMpmMHNLbi7pvBaHN9oskGMok2_Q68DTMZUn9QxN2bP6lGUde_Zw5UlDTch5SSlNyrEXbe3zE-g0mT94pkjwLwjF4zVn_5GQu3-LojkWhLI-w1hpjDUnlbnD-uHVAw4A-7k-fkPAL4Owqb97ur6y5PABiAdqNUuqi4JEgX4WItINmCIQSsUszJ3KgrHiysMylu1PI1b3NZy6T383a-4Ob81F-eh1mwpmnPVM5CSkM1CdnoMAKJLEEiBpBUSMyo0dnC53_oUb1HaNPlved03ELze6JlxA5MkP9CA3i6XyDRKrHiRjvsD-Hys24t6LRBWH6sdXMTEQSsYPDlo7ViwGqCgVuJK4caqACl6-gwP3sqppFretLheC_0hwwXlal6B2V3lg05u0vbJzxm0vNseMu2byENH0kzHmmsIQtTM2vig41p3fq1yw9fTXJpNo5CI6QU-EaNzAdWun9KyAsYxuVqweJNlqAzRmfrX2RFjkURv4ZVH9S-Y_xhHP3oDfwVZwMy0?></g></svg>