<?plantuml 1.2026.2?><svg xmlns="http://www.w3.org/2000/svg" xmlns:xlink="http://www.w3.org/1999/xlink" contentStyleType="text/css" data-diagram-type="MINDMAP" height="336px" preserveAspectRatio="none" style="width:588px;height:336px;background:#FFFFFF;" version="1.1" viewBox="0 0 588 336" width="588px" zoomAndPan="magnify"><defs/><g><rect fill="#FF5F46" height="52.9766" rx="12.5" ry="12.5" style="stroke:#FF5F46;stroke-width:3;" width="93.6846" x="10" y="140.9414"/><text fill="#FFFFFF" font-family="sans-serif" font-size="14" lengthAdjust="spacing" textLength="73.6846" x="20" y="164.4766">Investigate</text><text fill="#FFFFFF" font-family="sans-serif" font-size="14" lengthAdjust="spacing" textLength="69.9248" x="20" y="180.9648">Data Skew</text><rect fill="#0078D4" height="36.4883" rx="12.5" ry="12.5" style="stroke:#0078D4;stroke-width:3;" width="107.9854" x="153.6846" y="20"/><text fill="#FFFFFF" font-family="sans-serif" font-size="14" lengthAdjust="spacing" textLength="87.9854" x="163.6846" y="43.5352">What is Skew</text><text fill="#000000" font-family="sans-serif" font-size="14" lengthAdjust="spacing" textLength="151.0537" x="314.6699" y="25.0469">Uneven partition sizes</text><path d="M261.6699,38.2441 L271.6699,38.2441 C286.6699,38.2441 286.6699,19.7559 301.6699,19.7559 L311.6699,19.7559" fill="none" style="stroke:#0078D4;stroke-width:3;"/><text fill="#000000" font-family="sans-serif" font-size="14" lengthAdjust="spacing" textLength="156.0166" x="314.6699" y="43.5352">Few tasks much longer</text><path d="M261.6699,38.2441 L271.6699,38.2441 C286.6699,38.2441 286.6699,38.2441 301.6699,38.2441 L311.6699,38.2441" fill="none" style="stroke:#0078D4;stroke-width:3;"/><text fill="#000000" font-family="sans-serif" font-size="14" lengthAdjust="spacing" textLength="132.3848" x="314.6699" y="62.0234">Most resources idle</text><path d="M261.6699,38.2441 L271.6699,38.2441 C286.6699,38.2441 286.6699,56.7324 301.6699,56.7324 L311.6699,56.7324" fill="none" style="stroke:#0078D4;stroke-width:3;"/><path d="M103.6846,167.4297 L113.6846,167.4297 C128.6846,167.4297 128.6846,38.2441 143.6846,38.2441 L153.6846,38.2441" fill="none" style="stroke:#FF5F46;stroke-width:3;"/><rect fill="#0078D4" height="36.4883" rx="12.5" ry="12.5" style="stroke:#0078D4;stroke-width:3;" width="148.8301" x="153.6846" y="76.4883"/><text fill="#FFFFFF" font-family="sans-serif" font-size="14" lengthAdjust="spacing" textLength="128.8301" x="163.6846" y="100.0234">Identify in Spark UI</text><text fill="#000000" font-family="sans-serif" font-size="14" lengthAdjust="spacing" textLength="214.1494" x="355.5146" y="81.5352">Stage page &#8594; Summary Metrics</text><path d="M302.5146,94.7324 L312.5146,94.7324 C327.5146,94.7324 327.5146,76.2441 342.5146,76.2441 L352.5146,76.2441" fill="none" style="stroke:#0078D4;stroke-width:3;"/><text fill="#000000" font-family="sans-serif" font-size="14" lengthAdjust="spacing" textLength="220.6641" x="355.5146" y="100.0234">Compare Max vs 75th percentile</text><path d="M302.5146,94.7324 L312.5146,94.7324 C327.5146,94.7324 327.5146,94.7324 342.5146,94.7324 L352.5146,94.7324" fill="none" style="stroke:#0078D4;stroke-width:3;"/><text fill="#000000" font-family="sans-serif" font-size="14" lengthAdjust="spacing" textLength="205.5703" x="355.5146" y="118.5117">Max &gt;50% above 75th = skew</text><path d="M302.5146,94.7324 L312.5146,94.7324 C327.5146,94.7324 327.5146,113.2207 342.5146,113.2207 L352.5146,113.2207" fill="none" style="stroke:#0078D4;stroke-width:3;"/><path d="M103.6846,167.4297 L113.6846,167.4297 C128.6846,167.4297 128.6846,94.7324 143.6846,94.7324 L153.6846,94.7324" fill="none" style="stroke:#FF5F46;stroke-width:3;"/><rect fill="#0078D4" height="36.4883" rx="12.5" ry="12.5" style="stroke:#0078D4;stroke-width:3;" width="134.3242" x="153.6846" y="132.9766"/><text fill="#FFFFFF" font-family="sans-serif" font-size="14" lengthAdjust="spacing" textLength="114.3242" x="163.6846" y="156.5117">Common Causes</text><text fill="#000000" font-family="sans-serif" font-size="14" lengthAdjust="spacing" textLength="161.1572" x="341.0088" y="138.0234">Uneven key distribution</text><path d="M288.0088,151.2207 L298.0088,151.2207 C313.0088,151.2207 313.0088,132.7324 328.0088,132.7324 L338.0088,132.7324" fill="none" style="stroke:#0078D4;stroke-width:3;"/><text fill="#000000" font-family="sans-serif" font-size="14" lengthAdjust="spacing" textLength="175.9434" x="341.0088" y="156.5117">All nulls &#8594; same partition</text><path d="M288.0088,151.2207 L298.0088,151.2207 C313.0088,151.2207 313.0088,151.2207 328.0088,151.2207 L338.0088,151.2207" fill="none" style="stroke:#0078D4;stroke-width:3;"/><text fill="#000000" font-family="sans-serif" font-size="14" lengthAdjust="spacing" textLength="166.1816" x="341.0088" y="175">Time-based partitioning</text><path d="M288.0088,151.2207 L298.0088,151.2207 C313.0088,151.2207 313.0088,169.709 328.0088,169.709 L338.0088,169.709" fill="none" style="stroke:#0078D4;stroke-width:3;"/><path d="M103.6846,167.4297 L113.6846,167.4297 C128.6846,167.4297 128.6846,151.2207 143.6846,151.2207 L153.6846,151.2207" fill="none" style="stroke:#FF5F46;stroke-width:3;"/><rect fill="#0078D4" height="36.4883" rx="12.5" ry="12.5" style="stroke:#0078D4;stroke-width:3;" width="137.2227" x="153.6846" y="196.6855"/><text fill="#FFFFFF" font-family="sans-serif" font-size="14" lengthAdjust="spacing" textLength="117.2227" x="163.6846" y="220.2207">Resolve with AQE</text><text fill="#000000" font-family="sans-serif" font-size="14" lengthAdjust="spacing" textLength="175.0137" x="343.9072" y="193.4883">Adaptive Query Execution</text><path d="M290.9072,214.9297 L300.9072,214.9297 C315.9072,214.9297 315.9072,188.1973 330.9072,188.1973 L340.9072,188.1973" fill="none" style="stroke:#0078D4;stroke-width:3;"/><text fill="#000000" font-family="sans-serif" font-size="14" lengthAdjust="spacing" textLength="160.7061" x="343.9072" y="211.9766">Dynamic skew handling</text><path d="M290.9072,214.9297 L300.9072,214.9297 C315.9072,214.9297 315.9072,206.6855 330.9072,206.6855 L340.9072,206.6855" fill="none" style="stroke:#0078D4;stroke-width:3;"/><text fill="#000000" font-family="sans-serif" font-size="14" lengthAdjust="spacing" textLength="182.4033" x="343.9072" y="230.4648">spark.databricks.optimizer</text><text fill="#000000" font-family="sans-serif" font-size="14" lengthAdjust="spacing" textLength="119.9639" x="343.9072" y="246.9531">.adaptive.enabled</text><path d="M290.9072,214.9297 L300.9072,214.9297 C315.9072,214.9297 315.9072,233.418 330.9072,233.418 L340.9072,233.418" fill="none" style="stroke:#0078D4;stroke-width:3;"/><path d="M103.6846,167.4297 L113.6846,167.4297 C128.6846,167.4297 128.6846,214.9297 143.6846,214.9297 L153.6846,214.9297" fill="none" style="stroke:#FF5F46;stroke-width:3;"/><rect fill="#0078D4" height="36.4883" rx="12.5" ry="12.5" style="stroke:#0078D4;stroke-width:3;" width="141.5908" x="153.6846" y="269.6387"/><text fill="#FFFFFF" font-family="sans-serif" font-size="14" lengthAdjust="spacing" textLength="121.5908" x="163.6846" y="293.1738">Other Resolutions</text><text fill="#000000" font-family="sans-serif" font-size="14" lengthAdjust="spacing" textLength="114.3652" x="348.2754" y="265.4414">Salt skewed keys</text><path d="M295.2754,287.8828 L305.2754,287.8828 C320.2754,287.8828 320.2754,260.1504 335.2754,260.1504 L345.2754,260.1504" fill="none" style="stroke:#0078D4;stroke-width:3;"/><text fill="#000000" font-family="sans-serif" font-size="14" lengthAdjust="spacing" textLength="165.4365" x="348.2754" y="283.9297">Add random component</text><path d="M295.2754,287.8828 L305.2754,287.8828 C320.2754,287.8828 320.2754,278.6387 335.2754,278.6387 L345.2754,278.6387" fill="none" style="stroke:#0078D4;stroke-width:3;"/><text fill="#000000" font-family="sans-serif" font-size="14" lengthAdjust="spacing" textLength="165.3818" x="348.2754" y="302.418">Broadcast smaller tables</text><path d="M295.2754,287.8828 L305.2754,287.8828 C320.2754,287.8828 320.2754,297.127 335.2754,297.127 L345.2754,297.127" fill="none" style="stroke:#0078D4;stroke-width:3;"/><text fill="#000000" font-family="sans-serif" font-size="14" lengthAdjust="spacing" textLength="175" x="348.2754" y="320.9063">Avoid shuffle-based joins</text><path d="M295.2754,287.8828 L305.2754,287.8828 C320.2754,287.8828 320.2754,315.6152 335.2754,315.6152 L345.2754,315.6152" fill="none" style="stroke:#0078D4;stroke-width:3;"/><path d="M103.6846,167.4297 L113.6846,167.4297 C128.6846,167.4297 128.6846,287.8828 143.6846,287.8828 L153.6846,287.8828" fill="none" style="stroke:#FF5F46;stroke-width:3;"/><?plantuml-src VPFRRjD048Rl_HGZ8II8X753qm8gLTkaaI8HeP9Mt5H2Q-yuNho7Q6UTD5JSyW0y8a_2-4GWACo59S_C_j_yizeB2i87ewmqOXMTKTXgF8_UIbo5ubdo71uZuBWIMRdqhh9oxBJpy6Gw7KsFJvhQUsNnt-pKsT1byoP-zzuMAYij4i6hE8c-zQoZWwmaENqzETvdxMN_LjsRODh4ZZKyoChpz4sIxBFsilzb9KqmAtKFkkvvFDXnzh9Rzm1cTeqKr584lBSJ4GGiIjn4Wm5yAaG0HVt_u3FSMLoZXHNVcmhAMI3r5QcjJN43GL19OAgi0Eti4drRcZiAu95SvJCaK59ZhJ-JQ8FAjw0iB5YpXBjPUs0Hn18Pmv-Vtt_0eZ96-2tCCNYLTRonCtm6OIuUO4rmEWe5h901hDders2kdO-Ifo1IjyQsvnrGvuyL37iOYufw4vt14hSW5J4jhMgVRV5IQx2LrjGCHSBWRXDjnwqo-28LX79NKNPPmpwoVSqpR1JFS7bptKbAiGgAqpSLii7h1yp-04wsLXYLDGD38QpKhHYNgDvNBFcwKbv9IR5Z7SEtuUzjB3hL6Ar8DSgQ_o4KwDif6a9dU25qQFHvP7PD_LWIFFESWOpNx2mljQrSUITa9lW-oGYjMJBKYFxSsYa9L5Hvhlj5V76AOHV8pxnxwj5HF4o69_7m5m00?></g></svg>