<?plantuml 1.2026.2?><svg xmlns="http://www.w3.org/2000/svg" xmlns:xlink="http://www.w3.org/1999/xlink" contentStyleType="text/css" data-diagram-type="MINDMAP" height="356px" preserveAspectRatio="none" style="width:632px;height:356px;background:#FFFFFF;" version="1.1" viewBox="0 0 632 356" width="632px" zoomAndPan="magnify"><defs/><g><rect fill="#FF5F46" height="52.9766" rx="12.5" ry="12.5" style="stroke:#FF5F46;stroke-width:3;" width="113.4199" x="10" y="150.9297"/><text fill="#FFFFFF" font-family="sans-serif" font-size="14" lengthAdjust="spacing" textLength="73.6846" x="20" y="174.4648">Investigate</text><text fill="#FFFFFF" font-family="sans-serif" font-size="14" lengthAdjust="spacing" textLength="93.4199" x="20" y="190.9531">Shuffle Issues</text><rect fill="#0078D4" height="36.4883" rx="12.5" ry="12.5" style="stroke:#0078D4;stroke-width:3;" width="120.7344" x="173.4199" y="28.7324"/><text fill="#FFFFFF" font-family="sans-serif" font-size="14" lengthAdjust="spacing" textLength="100.7344" x="183.4199" y="52.2676">What is Shuffle</text><text fill="#000000" font-family="sans-serif" font-size="14" lengthAdjust="spacing" textLength="186.2861" x="347.1543" y="24.5352">Data moves between nodes</text><path d="M294.1543,46.9766 L304.1543,46.9766 C319.1543,46.9766 319.1543,19.2441 334.1543,19.2441 L344.1543,19.2441" fill="none" style="stroke:#0078D4;stroke-width:3;"/><text fill="#000000" font-family="sans-serif" font-size="14" lengthAdjust="spacing" textLength="181.2754" x="347.1543" y="43.0234">During joins, aggregations</text><path d="M294.1543,46.9766 L304.1543,46.9766 C319.1543,46.9766 319.1543,37.7324 334.1543,37.7324 L344.1543,37.7324" fill="none" style="stroke:#0078D4;stroke-width:3;"/><text fill="#000000" font-family="sans-serif" font-size="14" lengthAdjust="spacing" textLength="185.6846" x="347.1543" y="61.5117">Serialize &#8594; disk &#8594; network</text><path d="M294.1543,46.9766 L304.1543,46.9766 C319.1543,46.9766 319.1543,56.2207 334.1543,56.2207 L344.1543,56.2207" fill="none" style="stroke:#0078D4;stroke-width:3;"/><text fill="#000000" font-family="sans-serif" font-size="14" lengthAdjust="spacing" textLength="137.375" x="347.1543" y="80">Expensive operation</text><path d="M294.1543,46.9766 L304.1543,46.9766 C319.1543,46.9766 319.1543,74.709 334.1543,74.709 L344.1543,74.709" fill="none" style="stroke:#0078D4;stroke-width:3;"/><path d="M123.4199,177.418 L133.4199,177.418 C148.4199,177.418 148.4199,46.9766 163.4199,46.9766 L173.4199,46.9766" fill="none" style="stroke:#FF5F46;stroke-width:3;"/><rect fill="#0078D4" height="36.4883" rx="12.5" ry="12.5" style="stroke:#0078D4;stroke-width:3;" width="148.8301" x="173.4199" y="102.6855"/><text fill="#FFFFFF" font-family="sans-serif" font-size="14" lengthAdjust="spacing" textLength="128.8301" x="183.4199" y="126.2207">Identify in Spark UI</text><text fill="#000000" font-family="sans-serif" font-size="14" lengthAdjust="spacing" textLength="139.3779" x="375.25" y="98.4883">Shuffle Read column</text><path d="M322.25,120.9297 L332.25,120.9297 C347.25,120.9297 347.25,93.1973 362.25,93.1973 L372.25,93.1973" fill="none" style="stroke:#0078D4;stroke-width:3;"/><text fill="#000000" font-family="sans-serif" font-size="14" lengthAdjust="spacing" textLength="140.9707" x="375.25" y="116.9766">Shuffle Write column</text><path d="M322.25,120.9297 L332.25,120.9297 C347.25,120.9297 347.25,111.6855 362.25,111.6855 L372.25,111.6855" fill="none" style="stroke:#0078D4;stroke-width:3;"/><text fill="#000000" font-family="sans-serif" font-size="14" lengthAdjust="spacing" textLength="245.1846" x="375.25" y="135.4648">Large values = excessive movement</text><path d="M322.25,120.9297 L332.25,120.9297 C347.25,120.9297 347.25,130.1738 362.25,130.1738 L372.25,130.1738" fill="none" style="stroke:#0078D4;stroke-width:3;"/><text fill="#000000" font-family="sans-serif" font-size="14" lengthAdjust="spacing" textLength="149.5703" x="375.25" y="153.9531">DAG: Exchange nodes</text><path d="M322.25,120.9297 L332.25,120.9297 C347.25,120.9297 347.25,148.6621 362.25,148.6621 L372.25,148.6621" fill="none" style="stroke:#0078D4;stroke-width:3;"/><path d="M123.4199,177.418 L133.4199,177.418 C148.4199,177.418 148.4199,120.9297 163.4199,120.9297 L173.4199,120.9297" fill="none" style="stroke:#FF5F46;stroke-width:3;"/><rect fill="#0078D4" height="36.4883" rx="12.5" ry="12.5" style="stroke:#0078D4;stroke-width:3;" width="120.6113" x="173.4199" y="176.6387"/><text fill="#FFFFFF" font-family="sans-serif" font-size="14" lengthAdjust="spacing" textLength="100.6113" x="183.4199" y="200.1738">Reduce Shuffle</text><text fill="#000000" font-family="sans-serif" font-size="14" lengthAdjust="spacing" textLength="105.3555" x="347.0313" y="172.4414">Filter data early</text><path d="M294.0313,194.8828 L304.0313,194.8828 C319.0313,194.8828 319.0313,167.1504 334.0313,167.1504 L344.0313,167.1504" fill="none" style="stroke:#0078D4;stroke-width:3;"/><text fill="#000000" font-family="sans-serif" font-size="14" lengthAdjust="spacing" textLength="195.665" x="347.0313" y="190.9297">Use broadcast joins (&lt;30MB)</text><path d="M294.0313,194.8828 L304.0313,194.8828 C319.0313,194.8828 319.0313,185.6387 334.0313,185.6387 L344.0313,185.6387" fill="none" style="stroke:#0078D4;stroke-width:3;"/><text fill="#000000" font-family="sans-serif" font-size="14" lengthAdjust="spacing" textLength="229.7285" x="347.0313" y="209.418">AQE auto-converts when possible</text><path d="M294.0313,194.8828 L304.0313,194.8828 C319.0313,194.8828 319.0313,204.127 334.0313,204.127 L344.0313,204.127" fill="none" style="stroke:#0078D4;stroke-width:3;"/><text fill="#000000" font-family="sans-serif" font-size="14" lengthAdjust="spacing" textLength="211.8662" x="347.0313" y="227.9063">Avoid unnecessary repartition()</text><path d="M294.0313,194.8828 L304.0313,194.8828 C319.0313,194.8828 319.0313,222.6152 334.0313,222.6152 L344.0313,222.6152" fill="none" style="stroke:#0078D4;stroke-width:3;"/><path d="M123.4199,177.418 L133.4199,177.418 C148.4199,177.418 148.4199,194.8828 163.4199,194.8828 L173.4199,194.8828" fill="none" style="stroke:#FF5F46;stroke-width:3;"/><rect fill="#0078D4" height="36.4883" rx="12.5" ry="12.5" style="stroke:#0078D4;stroke-width:3;" width="123.4551" x="173.4199" y="241.8594"/><text fill="#FFFFFF" font-family="sans-serif" font-size="14" lengthAdjust="spacing" textLength="103.4551" x="183.4199" y="265.3945">Broadcast Joins</text><text fill="#000000" font-family="sans-serif" font-size="14" lengthAdjust="spacing" textLength="183.0596" x="349.875" y="246.9063">One small table in memory</text><path d="M296.875,260.1035 L306.875,260.1035 C321.875,260.1035 321.875,241.6152 336.875,241.6152 L346.875,241.6152" fill="none" style="stroke:#0078D4;stroke-width:3;"/><text fill="#000000" font-family="sans-serif" font-size="14" lengthAdjust="spacing" textLength="131.8721" x="349.875" y="265.3945">No shuffle required</text><path d="M296.875,260.1035 L306.875,260.1035 C321.875,260.1035 321.875,260.1035 336.875,260.1035 L346.875,260.1035" fill="none" style="stroke:#0078D4;stroke-width:3;"/><text fill="#000000" font-family="sans-serif" font-size="14" lengthAdjust="spacing" textLength="156.8301" x="349.875" y="283.8828">AQE detects at runtime</text><path d="M296.875,260.1035 L306.875,260.1035 C321.875,260.1035 321.875,278.5918 336.875,278.5918 L346.875,278.5918" fill="none" style="stroke:#0078D4;stroke-width:3;"/><path d="M123.4199,177.418 L133.4199,177.418 C148.4199,177.418 148.4199,260.1035 163.4199,260.1035 L173.4199,260.1035" fill="none" style="stroke:#FF5F46;stroke-width:3;"/><rect fill="#0078D4" height="36.4883" rx="12.5" ry="12.5" style="stroke:#0078D4;stroke-width:3;" width="92.4063" x="173.4199" y="298.3477"/><text fill="#FFFFFF" font-family="sans-serif" font-size="14" lengthAdjust="spacing" textLength="72.4063" x="183.4199" y="321.8828">Colocation</text><text fill="#000000" font-family="sans-serif" font-size="14" lengthAdjust="spacing" textLength="172.1973" x="318.8262" y="303.3945">Bucket/partition similarly</text><path d="M265.8262,316.5918 L275.8262,316.5918 C290.8262,316.5918 290.8262,298.1035 305.8262,298.1035 L315.8262,298.1035" fill="none" style="stroke:#0078D4;stroke-width:3;"/><text fill="#000000" font-family="sans-serif" font-size="14" lengthAdjust="spacing" textLength="180.626" x="318.8262" y="321.8828">Tables joined on same key</text><path d="M265.8262,316.5918 L275.8262,316.5918 C290.8262,316.5918 290.8262,316.5918 305.8262,316.5918 L315.8262,316.5918" fill="none" style="stroke:#0078D4;stroke-width:3;"/><text fill="#000000" font-family="sans-serif" font-size="14" lengthAdjust="spacing" textLength="201.6123" x="318.8262" y="340.3711">Minimize cross-node transfer</text><path d="M265.8262,316.5918 L275.8262,316.5918 C290.8262,316.5918 290.8262,335.0801 305.8262,335.0801 L315.8262,335.0801" fill="none" style="stroke:#0078D4;stroke-width:3;"/><path d="M123.4199,177.418 L133.4199,177.418 C148.4199,177.418 148.4199,316.5918 163.4199,316.5918 L173.4199,316.5918" fill="none" style="stroke:#FF5F46;stroke-width:3;"/><?plantuml-src VLJHRjCm57tFLro9bwvYNTQD0LD1Qzao5MqWwAQz827NlabC73lOJjSoySe7y8by2TTfsgf5vJv5znpVS-wnbGldcVMbrA9aLJHmVg7mRNGkiF9v9pw0fmYeHemNcJMr5k-CCXQU9ScBvFIimMwand-xYT6-xQPDhRbtkUI5HkVWf1T7FrTQntkrulZbgylJNQsTxlRK7GT9Knkj_bwjD9s-ZkDThPtkVxNYfaXhQkOgS9xsCWP7RTnT6EiPEYypvl6BdkHrcYg4iNCrkgZRXOUSUP0EMeHQtQzmoJo3qj11cA9_HDIWZMWE1BIsKcVmpKZjdWFBCeiqNHhTuXEqaYdv0-7FhzyWf2kQ3qsJZ2sMdAjvXTh96OAfq3QdWvknGErbkW2fOL8nMy3zk1tQEl-CJ00tgYxrDl1WfSSjv8RP36765AqARm3dd48Bac6paeJQTORNv-I7vqmJVRKd2OcQutOkYLGUBOWG3pAh5ilslKEOMiC4PyulSu7Eu2I-7Hqi2SDFLy1gRmwveTkmti5ZJfbMXlnCLyE7CoC5r5fZyCdi0YnI15w6S3fX4epM8k-3oFBSHutWIgOKU4R3GdGbbiQsvZuOS6r45h_NqgBOc1BeaPCTUWEsfkJBu0N2Q-AhEo7cgEO5-gEr6N2ob6gp_rtGTStYA23Wh4Gei8LlfIO-FGTkQU73a31uoxHBqKONIF-7zXyH7VVwSV-ir_yB?></g></svg>