<?plantuml 1.2026.2?><svg xmlns="http://www.w3.org/2000/svg" xmlns:xlink="http://www.w3.org/1999/xlink" contentStyleType="text/css" data-diagram-type="MINDMAP" height="337px" preserveAspectRatio="none" style="width:597px;height:337px;background:#FFFFFF;" version="1.1" viewBox="0 0 597 337" width="597px" zoomAndPan="magnify"><defs/><g><rect fill="#FF5F46" height="52.9766" rx="12.5" ry="12.5" style="stroke:#FF5F46;stroke-width:3;" width="133.5381" x="10" y="141.1738"/><text fill="#FFFFFF" font-family="sans-serif" font-size="14" lengthAdjust="spacing" textLength="113.5381" x="20" y="164.709">Diagnostic Tools</text><text fill="#FFFFFF" font-family="sans-serif" font-size="14" lengthAdjust="spacing" textLength="109.1084" x="20" y="181.1973">for Performance</text><rect fill="#0078D4" height="36.4883" rx="12.5" ry="12.5" style="stroke:#0078D4;stroke-width:3;" width="50.2627" x="193.5381" y="28.7324"/><text fill="#FFFFFF" font-family="sans-serif" font-size="14" lengthAdjust="spacing" textLength="30.2627" x="203.5381" y="52.2676">DAG</text><text fill="#000000" font-family="sans-serif" font-size="14" lengthAdjust="spacing" textLength="172.5664" x="296.8008" y="24.5352">Visualizes execution plan</text><path d="M243.8008,46.9766 L253.8008,46.9766 C268.8008,46.9766 268.8008,19.2441 283.8008,19.2441 L293.8008,19.2441" fill="none" style="stroke:#0078D4;stroke-width:3;"/><text fill="#000000" font-family="sans-serif" font-size="14" lengthAdjust="spacing" textLength="109.7031" x="296.8008" y="43.0234">Shows data flow</text><path d="M243.8008,46.9766 L253.8008,46.9766 C268.8008,46.9766 268.8008,37.7324 283.8008,37.7324 L293.8008,37.7324" fill="none" style="stroke:#0078D4;stroke-width:3;"/><text fill="#000000" font-family="sans-serif" font-size="14" lengthAdjust="spacing" textLength="145.8857" x="296.8008" y="61.5117">Identifies bottlenecks</text><path d="M243.8008,46.9766 L253.8008,46.9766 C268.8008,46.9766 268.8008,56.2207 283.8008,56.2207 L293.8008,56.2207" fill="none" style="stroke:#0078D4;stroke-width:3;"/><text fill="#000000" font-family="sans-serif" font-size="14" lengthAdjust="spacing" textLength="159.2842" x="296.8008" y="80">Sequence of operations</text><path d="M243.8008,46.9766 L253.8008,46.9766 C268.8008,46.9766 268.8008,74.709 283.8008,74.709 L293.8008,74.709" fill="none" style="stroke:#0078D4;stroke-width:3;"/><path d="M143.5381,167.6621 L153.5381,167.6621 C168.5381,167.6621 168.5381,46.9766 183.5381,46.9766 L193.5381,46.9766" fill="none" style="stroke:#FF5F46;stroke-width:3;"/><rect fill="#0078D4" height="36.4883" rx="12.5" ry="12.5" style="stroke:#0078D4;stroke-width:3;" width="76.1572" x="193.5381" y="111.9297"/><text fill="#FFFFFF" font-family="sans-serif" font-size="14" lengthAdjust="spacing" textLength="56.1572" x="203.5381" y="135.4648">Spark UI</text><text fill="#000000" font-family="sans-serif" font-size="14" lengthAdjust="spacing" textLength="127.3398" x="322.6953" y="98.4883">Cluster &#8594; Spark UI</text><path d="M269.6953,130.1738 L279.6953,130.1738 C294.6953,130.1738 294.6953,93.1973 309.6953,93.1973 L319.6953,93.1973" fill="none" style="stroke:#0078D4;stroke-width:3;"/><text fill="#000000" font-family="sans-serif" font-size="14" lengthAdjust="spacing" textLength="125.8154" x="322.6953" y="116.9766">Jobs, stages, tasks</text><path d="M269.6953,130.1738 L279.6953,130.1738 C294.6953,130.1738 294.6953,111.6855 309.6953,111.6855 L319.6953,111.6855" fill="none" style="stroke:#0078D4;stroke-width:3;"/><text fill="#000000" font-family="sans-serif" font-size="14" lengthAdjust="spacing" textLength="154.9434" x="322.6953" y="135.4648">Resource consumption</text><path d="M269.6953,130.1738 L279.6953,130.1738 C294.6953,130.1738 294.6953,130.1738 309.6953,130.1738 L319.6953,130.1738" fill="none" style="stroke:#0078D4;stroke-width:3;"/><text fill="#000000" font-family="sans-serif" font-size="14" lengthAdjust="spacing" textLength="99.7979" x="322.6953" y="153.9531">Timeline views</text><path d="M269.6953,130.1738 L279.6953,130.1738 C294.6953,130.1738 294.6953,148.6621 309.6953,148.6621 L319.6953,148.6621" fill="none" style="stroke:#0078D4;stroke-width:3;"/><text fill="#000000" font-family="sans-serif" font-size="14" lengthAdjust="spacing" textLength="122.5479" x="322.6953" y="172.4414">Task distributions</text><path d="M269.6953,130.1738 L279.6953,130.1738 C294.6953,130.1738 294.6953,167.1504 309.6953,167.1504 L319.6953,167.1504" fill="none" style="stroke:#0078D4;stroke-width:3;"/><path d="M143.5381,167.6621 L153.5381,167.6621 C168.5381,167.6621 168.5381,130.1738 183.5381,130.1738 L193.5381,130.1738" fill="none" style="stroke:#FF5F46;stroke-width:3;"/><rect fill="#0078D4" height="36.4883" rx="12.5" ry="12.5" style="stroke:#0078D4;stroke-width:3;" width="107.9443" x="193.5381" y="204.3711"/><text fill="#FFFFFF" font-family="sans-serif" font-size="14" lengthAdjust="spacing" textLength="87.9443" x="203.5381" y="227.9063">Query Profile</text><text fill="#000000" font-family="sans-serif" font-size="14" lengthAdjust="spacing" textLength="177.3242" x="354.4824" y="190.9297">SQL warehouse workloads</text><path d="M301.4824,222.6152 L311.4824,222.6152 C326.4824,222.6152 326.4824,185.6387 341.4824,185.6387 L351.4824,185.6387" fill="none" style="stroke:#0078D4;stroke-width:3;"/><text fill="#000000" font-family="sans-serif" font-size="14" lengthAdjust="spacing" textLength="160.2275" x="354.4824" y="209.418">Query History &#8594; profile</text><path d="M301.4824,222.6152 L311.4824,222.6152 C326.4824,222.6152 326.4824,204.127 341.4824,204.127 L351.4824,204.127" fill="none" style="stroke:#0078D4;stroke-width:3;"/><text fill="#000000" font-family="sans-serif" font-size="14" lengthAdjust="spacing" textLength="165.3066" x="354.4824" y="227.9063">Time spent per operator</text><path d="M301.4824,222.6152 L311.4824,222.6152 C326.4824,222.6152 326.4824,222.6152 341.4824,222.6152 L351.4824,222.6152" fill="none" style="stroke:#0078D4;stroke-width:3;"/><text fill="#000000" font-family="sans-serif" font-size="14" lengthAdjust="spacing" textLength="108.8008" x="354.4824" y="246.3945">Rows processed</text><path d="M301.4824,222.6152 L311.4824,222.6152 C326.4824,222.6152 326.4824,241.1035 341.4824,241.1035 L351.4824,241.1035" fill="none" style="stroke:#0078D4;stroke-width:3;"/><text fill="#000000" font-family="sans-serif" font-size="14" lengthAdjust="spacing" textLength="144.0059" x="354.4824" y="264.8828">Memory per operator</text><path d="M301.4824,222.6152 L311.4824,222.6152 C326.4824,222.6152 326.4824,259.5918 341.4824,259.5918 L351.4824,259.5918" fill="none" style="stroke:#0078D4;stroke-width:3;"/><path d="M143.5381,167.6621 L153.5381,167.6621 C168.5381,167.6621 168.5381,222.6152 183.5381,222.6152 L193.5381,222.6152" fill="none" style="stroke:#FF5F46;stroke-width:3;"/><rect fill="#0078D4" height="36.4883" rx="12.5" ry="12.5" style="stroke:#0078D4;stroke-width:3;" width="150.5938" x="193.5381" y="278.8359"/><text fill="#FFFFFF" font-family="sans-serif" font-size="14" lengthAdjust="spacing" textLength="130.5938" x="203.5381" y="302.3711">Investigation Order</text><text fill="#000000" font-family="sans-serif" font-size="14" lengthAdjust="spacing" textLength="172.1426" x="397.1318" y="283.8828">Start with DAG (overview)</text><path d="M344.1318,297.0801 L354.1318,297.0801 C369.1318,297.0801 369.1318,278.5918 384.1318,278.5918 L394.1318,278.5918" fill="none" style="stroke:#0078D4;stroke-width:3;"/><text fill="#000000" font-family="sans-serif" font-size="14" lengthAdjust="spacing" textLength="182.5127" x="397.1318" y="302.3711">Drill with Spark UI / profile</text><path d="M344.1318,297.0801 L354.1318,297.0801 C369.1318,297.0801 369.1318,297.0801 384.1318,297.0801 L394.1318,297.0801" fill="none" style="stroke:#0078D4;stroke-width:3;"/><text fill="#000000" font-family="sans-serif" font-size="14" lengthAdjust="spacing" textLength="188.6104" x="397.1318" y="320.8594">Identify where time is spent</text><path d="M344.1318,297.0801 L354.1318,297.0801 C369.1318,297.0801 369.1318,315.5684 384.1318,315.5684 L394.1318,315.5684" fill="none" style="stroke:#0078D4;stroke-width:3;"/><path d="M143.5381,167.6621 L153.5381,167.6621 C168.5381,167.6621 168.5381,297.0801 183.5381,297.0801 L193.5381,297.0801" fill="none" style="stroke:#FF5F46;stroke-width:3;"/><?plantuml-src VLFRRjGm47tFLup4Ixj2stGfvQ8A5ReAB2gYPHUUa92JJ3PM74-mdKsNYbS-W4_aInWdtaA35h-CD7FcdECP-zmwOLmjTLwB9ZgpRglmHVGynyQL1_4Xt4R0vvN8ghMXLkSNfCZ0WoHvd9oSzhLBgV7VR4BQXMpHdpligfHPfT5QU3IDe-yxhUEzMd7yvEdyPAmrojvd7Jb8-lD7QxPNgoZIPt4yrXfb_wiLzuUrKhfH7dEx5t5s5COzWRaKQqtMoGnMHCf-rWL3hz1mg8NEC9emwELh3fCly4dQLYZv3ItW3MQjawIXKK8FvML9dOLSE065ecv8BdBKJXQIUr9oJg76hBAX0R-so2901L23HdX2NuDb8qm57nS3xaArrg61Npz-ZYflARKFWT_I6ZawONVK7z1IQvWwOyQsRZppK5d96XLF4pOIku1USIFaqZeZq_REn7MBPWjNXWgfC3Y-leHE62ofjGWTcKgHo0FBW7_3DCJHcst-xlN2O1iU1_1TmuN91Bz-T0pFU7MO3xbtM7kY4HWMUeEyiNK_BNXlSWmSI_-be9Ekz2k30zgWyPSy7Cfp8vKQohiXmj5zYs5PM-XAD0ZEEvPsC1sT8t_My66Zu-aidfrEPxy1?></g></svg>