<?plantuml 1.2026.2?><svg xmlns="http://www.w3.org/2000/svg" xmlns:xlink="http://www.w3.org/1999/xlink" contentStyleType="text/css" data-diagram-type="MINDMAP" height="317px" preserveAspectRatio="none" style="width:572px;height:317px;background:#FFFFFF;" version="1.1" viewBox="0 0 572 317" width="572px" zoomAndPan="magnify"><defs/><g><rect fill="#FF5F46" height="52.9766" rx="12.5" ry="12.5" style="stroke:#FF5F46;stroke-width:3;" width="121.1035" x="10" y="131.418"/><text fill="#FFFFFF" font-family="sans-serif" font-size="14" lengthAdjust="spacing" textLength="73.6846" x="20" y="154.9531">Investigate</text><text fill="#FFFFFF" font-family="sans-serif" font-size="14" lengthAdjust="spacing" textLength="101.1035" x="20" y="171.4414">Caching Issues</text><rect fill="#0078D4" height="36.4883" rx="12.5" ry="12.5" style="stroke:#0078D4;stroke-width:3;" width="95.3594" x="181.1035" y="28.7324"/><text fill="#FFFFFF" font-family="sans-serif" font-size="14" lengthAdjust="spacing" textLength="75.3594" x="191.1035" y="52.2676">Disk Cache</text><text fill="#000000" font-family="sans-serif" font-size="14" lengthAdjust="spacing" textLength="149.5088" x="329.4629" y="24.5352">Automatic for Parquet</text><path d="M276.4629,46.9766 L286.4629,46.9766 C301.4629,46.9766 301.4629,19.2441 316.4629,19.2441 L326.4629,19.2441" fill="none" style="stroke:#0078D4;stroke-width:3;"/><text fill="#000000" font-family="sans-serif" font-size="14" lengthAdjust="spacing" textLength="133.4033" x="329.4629" y="43.0234">Worker SSD storage</text><path d="M276.4629,46.9766 L286.4629,46.9766 C301.4629,46.9766 301.4629,37.7324 316.4629,37.7324 L326.4629,37.7324" fill="none" style="stroke:#0078D4;stroke-width:3;"/><text fill="#000000" font-family="sans-serif" font-size="14" lengthAdjust="spacing" textLength="230.7949" x="329.4629" y="61.5117">spark.databricks.io.cache.enabled</text><path d="M276.4629,46.9766 L286.4629,46.9766 C301.4629,46.9766 301.4629,56.2207 316.4629,56.2207 L326.4629,56.2207" fill="none" style="stroke:#0078D4;stroke-width:3;"/><text fill="#000000" font-family="sans-serif" font-size="14" lengthAdjust="spacing" textLength="138.79" x="329.4629" y="80">Transparent caching</text><path d="M276.4629,46.9766 L286.4629,46.9766 C301.4629,46.9766 301.4629,74.709 316.4629,74.709 L326.4629,74.709" fill="none" style="stroke:#0078D4;stroke-width:3;"/><path d="M131.1035,157.9063 L141.1035,157.9063 C156.1035,157.9063 156.1035,46.9766 171.1035,46.9766 L181.1035,46.9766" fill="none" style="stroke:#FF5F46;stroke-width:3;"/><rect fill="#0078D4" height="36.4883" rx="12.5" ry="12.5" style="stroke:#0078D4;stroke-width:3;" width="123.5713" x="181.1035" y="102.6855"/><text fill="#FFFFFF" font-family="sans-serif" font-size="14" lengthAdjust="spacing" textLength="103.5713" x="191.1035" y="126.2207">Under-Caching</text><text fill="#000000" font-family="sans-serif" font-size="14" lengthAdjust="spacing" textLength="179.6826" x="357.6748" y="98.4883">Data re-read from storage</text><path d="M304.6748,120.9297 L314.6748,120.9297 C329.6748,120.9297 329.6748,93.1973 344.6748,93.1973 L354.6748,93.1973" fill="none" style="stroke:#0078D4;stroke-width:3;"/><text fill="#000000" font-family="sans-serif" font-size="14" lengthAdjust="spacing" textLength="196.4717" x="357.6748" y="116.9766">High Input values in Spark UI</text><path d="M304.6748,120.9297 L314.6748,120.9297 C329.6748,120.9297 329.6748,111.6855 344.6748,111.6855 L354.6748,111.6855" fill="none" style="stroke:#0078D4;stroke-width:3;"/><text fill="#000000" font-family="sans-serif" font-size="14" lengthAdjust="spacing" textLength="120.2646" x="357.6748" y="135.4648">Enable disk cache</text><path d="M304.6748,120.9297 L314.6748,120.9297 C329.6748,120.9297 329.6748,130.1738 344.6748,130.1738 L354.6748,130.1738" fill="none" style="stroke:#0078D4;stroke-width:3;"/><text fill="#000000" font-family="sans-serif" font-size="14" lengthAdjust="spacing" textLength="151.3545" x="357.6748" y="153.9531">Use SSD worker nodes</text><path d="M304.6748,120.9297 L314.6748,120.9297 C329.6748,120.9297 329.6748,148.6621 344.6748,148.6621 L354.6748,148.6621" fill="none" style="stroke:#0078D4;stroke-width:3;"/><path d="M131.1035,157.9063 L141.1035,157.9063 C156.1035,157.9063 156.1035,120.9297 171.1035,120.9297 L181.1035,120.9297" fill="none" style="stroke:#FF5F46;stroke-width:3;"/><rect fill="#0078D4" height="36.4883" rx="12.5" ry="12.5" style="stroke:#0078D4;stroke-width:3;" width="114.4932" x="181.1035" y="176.6387"/><text fill="#FFFFFF" font-family="sans-serif" font-size="14" lengthAdjust="spacing" textLength="94.4932" x="191.1035" y="200.1738">Over-Caching</text><text fill="#000000" font-family="sans-serif" font-size="14" lengthAdjust="spacing" textLength="192.5137" x="348.5967" y="172.4414">Memory consumed by cache</text><path d="M295.5967,194.8828 L305.5967,194.8828 C320.5967,194.8828 320.5967,167.1504 335.5967,167.1504 L345.5967,167.1504" fill="none" style="stroke:#0078D4;stroke-width:3;"/><text fill="#000000" font-family="sans-serif" font-size="14" lengthAdjust="spacing" textLength="78.9619" x="348.5967" y="190.9297">OOM errors</text><path d="M295.5967,194.8828 L305.5967,194.8828 C320.5967,194.8828 320.5967,185.6387 335.5967,185.6387 L345.5967,185.6387" fill="none" style="stroke:#0078D4;stroke-width:3;"/><text fill="#000000" font-family="sans-serif" font-size="14" lengthAdjust="spacing" textLength="117.8311" x="348.5967" y="209.418">Memory pressure</text><path d="M295.5967,194.8828 L305.5967,194.8828 C320.5967,194.8828 320.5967,204.127 335.5967,204.127 L345.5967,204.127" fill="none" style="stroke:#0078D4;stroke-width:3;"/><text fill="#000000" font-family="sans-serif" font-size="14" lengthAdjust="spacing" textLength="131.1064" x="348.5967" y="227.9063">Review cache reuse</text><path d="M295.5967,194.8828 L305.5967,194.8828 C320.5967,194.8828 320.5967,222.6152 335.5967,222.6152 L345.5967,222.6152" fill="none" style="stroke:#0078D4;stroke-width:3;"/><path d="M131.1035,157.9063 L141.1035,157.9063 C156.1035,157.9063 156.1035,194.8828 171.1035,194.8828 L181.1035,194.8828" fill="none" style="stroke:#FF5F46;stroke-width:3;"/><rect fill="#0078D4" height="36.4883" rx="12.5" ry="12.5" style="stroke:#0078D4;stroke-width:3;" width="103.501" x="181.1035" y="250.5918"/><text fill="#FFFFFF" font-family="sans-serif" font-size="14" lengthAdjust="spacing" textLength="83.501" x="191.1035" y="274.127">Spark Cache</text><text fill="#000000" font-family="sans-serif" font-size="14" lengthAdjust="spacing" textLength="134.7158" x="337.6045" y="246.3945">.cache() or .persist()</text><path d="M284.6045,268.8359 L294.6045,268.8359 C309.6045,268.8359 309.6045,241.1035 324.6045,241.1035 L334.6045,241.1035" fill="none" style="stroke:#0078D4;stroke-width:3;"/><text fill="#000000" font-family="sans-serif" font-size="14" lengthAdjust="spacing" textLength="142.5088" x="337.6045" y="264.8828">Explicit management</text><path d="M284.6045,268.8359 L294.6045,268.8359 C309.6045,268.8359 309.6045,259.5918 324.6045,259.5918 L334.6045,259.5918" fill="none" style="stroke:#0078D4;stroke-width:3;"/><text fill="#000000" font-family="sans-serif" font-size="14" lengthAdjust="spacing" textLength="185.4727" x="337.6045" y="283.3711">Call .unpersist() when done</text><path d="M284.6045,268.8359 L294.6045,268.8359 C309.6045,268.8359 309.6045,278.0801 324.6045,278.0801 L334.6045,278.0801" fill="none" style="stroke:#0078D4;stroke-width:3;"/><text fill="#000000" font-family="sans-serif" font-size="14" lengthAdjust="spacing" textLength="176.8799" x="337.6045" y="301.8594">Unlike disk cache: manual</text><path d="M284.6045,268.8359 L294.6045,268.8359 C309.6045,268.8359 309.6045,296.5684 324.6045,296.5684 L334.6045,296.5684" fill="none" style="stroke:#0078D4;stroke-width:3;"/><path d="M131.1035,157.9063 L141.1035,157.9063 C156.1035,157.9063 156.1035,268.8359 171.1035,268.8359 L181.1035,268.8359" fill="none" style="stroke:#FF5F46;stroke-width:3;"/><?plantuml-src VLDTQzim57tthxYmboHGpyswTYjbT4jc5cX9MHhsCXYoTMqBov9t9IKDPVzzyaVJn2ExRpuwkkV3wDPOHhOIYbUi3cwCtKdy55nph6qnYiRm782VBomjSz9EyPcMck1D7B-FBoxRipkXy5yqrihsQDREdljOYBHKQ0oy2wFWpulM-KcjABhwCByOQWtGuwq31t4xhrhJarfPbdoCeg7M0FslLjIErqhqasmupoSPDs_xkYUmK1iqLkJCuayrOsaXL0uBOnoQO3A1kJ0bD33whyal-EoihfWLAMH-umEZtmvjT_H3Kua4gzKSZDN4ylwAgHcL8MUM9UJjcr3eC6qsXgXO8f5tj4TYgg6Yif1sFXe3QyMHpcPxm3FdVXKGdX4o3XdfwbZlcyWB7wjs5ZPC-XmW5AmQ4x1UT9IlhJ3m9bpw6cvjiBM_xP8epRiIbfkXXNkiDEqWrSgu2ZaakyCzo-Kz894cSyIkoVyLHptfEsu4RhjhFeqp3TxxF2Yygseq1bztM2CPOUnetCTuggL8XOMAAH-_yjLr1pCc9OHExVcmBL01r-ebgPAYF2pWkjdXc0nkqJ_8_b46v-4qcbw6qxy0?></g></svg>