<?plantuml 1.2026.2?><svg xmlns="http://www.w3.org/2000/svg" xmlns:xlink="http://www.w3.org/1999/xlink" contentStyleType="text/css" data-diagram-type="MINDMAP" height="395px" preserveAspectRatio="none" style="width:620px;height:395px;background:#FFFFFF;" version="1.1" viewBox="0 0 620 395" width="620px" zoomAndPan="magnify"><defs/><g><rect fill="#FF5F46" height="52.9766" rx="12.5" ry="12.5" style="stroke:#FF5F46;stroke-width:3;" width="107.4932" x="10" y="170.4414"/><text fill="#FFFFFF" font-family="sans-serif" font-size="14" lengthAdjust="spacing" textLength="73.6846" x="20" y="193.9766">Investigate</text><text fill="#FFFFFF" font-family="sans-serif" font-size="14" lengthAdjust="spacing" textLength="87.4932" x="20" y="210.4648">Memory Spill</text><rect fill="#0078D4" height="36.4883" rx="12.5" ry="12.5" style="stroke:#0078D4;stroke-width:3;" width="102.168" x="167.4932" y="28.7324"/><text fill="#FFFFFF" font-family="sans-serif" font-size="14" lengthAdjust="spacing" textLength="82.168" x="177.4932" y="52.2676">What is Spill</text><text fill="#000000" font-family="sans-serif" font-size="14" lengthAdjust="spacing" textLength="134.8457" x="322.6611" y="24.5352">Memory insufficient</text><path d="M269.6611,46.9766 L279.6611,46.9766 C294.6611,46.9766 294.6611,19.2441 309.6611,19.2441 L319.6611,19.2441" fill="none" style="stroke:#0078D4;stroke-width:3;"/><text fill="#000000" font-family="sans-serif" font-size="14" lengthAdjust="spacing" textLength="170.96" x="322.6611" y="43.0234">Intermediate data &#8594; disk</text><path d="M269.6611,46.9766 L279.6611,46.9766 C294.6611,46.9766 294.6611,37.7324 309.6611,37.7324 L319.6611,37.7324" fill="none" style="stroke:#0078D4;stroke-width:3;"/><text fill="#000000" font-family="sans-serif" font-size="14" lengthAdjust="spacing" textLength="157.8076" x="322.6611" y="61.5117">Significantly slows jobs</text><path d="M269.6611,46.9766 L279.6611,46.9766 C294.6611,46.9766 294.6611,56.2207 309.6611,56.2207 L319.6611,56.2207" fill="none" style="stroke:#0078D4;stroke-width:3;"/><text fill="#000000" font-family="sans-serif" font-size="14" lengthAdjust="spacing" textLength="186.5459" x="322.6611" y="80">During shuffle/aggregation</text><path d="M269.6611,46.9766 L279.6611,46.9766 C294.6611,46.9766 294.6611,74.709 309.6611,74.709 L319.6611,74.709" fill="none" style="stroke:#0078D4;stroke-width:3;"/><path d="M117.4932,196.9297 L127.4932,196.9297 C142.4932,196.9297 142.4932,46.9766 157.4932,46.9766 L167.4932,46.9766" fill="none" style="stroke:#FF5F46;stroke-width:3;"/><rect fill="#0078D4" height="36.4883" rx="12.5" ry="12.5" style="stroke:#0078D4;stroke-width:3;" width="148.8301" x="167.4932" y="102.6855"/><text fill="#FFFFFF" font-family="sans-serif" font-size="14" lengthAdjust="spacing" textLength="128.8301" x="177.4932" y="126.2207">Identify in Spark UI</text><text fill="#000000" font-family="sans-serif" font-size="14" lengthAdjust="spacing" textLength="74.5391" x="369.3232" y="98.4883">Stage page</text><path d="M316.3232,120.9297 L326.3232,120.9297 C341.3232,120.9297 341.3232,93.1973 356.3232,93.1973 L366.3232,93.1973" fill="none" style="stroke:#0078D4;stroke-width:3;"/><text fill="#000000" font-family="sans-serif" font-size="14" lengthAdjust="spacing" textLength="148.0869" x="369.3232" y="116.9766">Shuffle Spill (Memory)</text><path d="M316.3232,120.9297 L326.3232,120.9297 C341.3232,120.9297 341.3232,111.6855 356.3232,111.6855 L366.3232,111.6855" fill="none" style="stroke:#0078D4;stroke-width:3;"/><text fill="#000000" font-family="sans-serif" font-size="14" lengthAdjust="spacing" textLength="123.3682" x="369.3232" y="135.4648">Shuffle Spill (Disk)</text><path d="M316.3232,120.9297 L326.3232,120.9297 C341.3232,120.9297 341.3232,130.1738 356.3232,130.1738 L366.3232,130.1738" fill="none" style="stroke:#0078D4;stroke-width:3;"/><text fill="#000000" font-family="sans-serif" font-size="14" lengthAdjust="spacing" textLength="233.1533" x="369.3232" y="153.9531">Any non-zero = memory pressure</text><path d="M316.3232,120.9297 L326.3232,120.9297 C341.3232,120.9297 341.3232,148.6621 356.3232,148.6621 L366.3232,148.6621" fill="none" style="stroke:#0078D4;stroke-width:3;"/><path d="M117.4932,196.9297 L127.4932,196.9297 C142.4932,196.9297 142.4932,120.9297 157.4932,120.9297 L167.4932,120.9297" fill="none" style="stroke:#FF5F46;stroke-width:3;"/><rect fill="#0078D4" height="36.4883" rx="12.5" ry="12.5" style="stroke:#0078D4;stroke-width:3;" width="205.0488" x="167.4932" y="167.9063"/><text fill="#FFFFFF" font-family="sans-serif" font-size="14" lengthAdjust="spacing" textLength="185.0488" x="177.4932" y="191.4414">Resolve: Increase Partitions</text><text fill="#000000" font-family="sans-serif" font-size="14" lengthAdjust="spacing" textLength="172.3887" x="425.542" y="172.9531">Reduce data per partition</text><path d="M372.542,186.1504 L382.542,186.1504 C397.542,186.1504 397.542,167.6621 412.542,167.6621 L422.542,167.6621" fill="none" style="stroke:#0078D4;stroke-width:3;"/><text fill="#000000" font-family="sans-serif" font-size="14" lengthAdjust="spacing" textLength="83.9863" x="425.542" y="191.4414">Set to "auto"</text><path d="M372.542,186.1504 L382.542,186.1504 C397.542,186.1504 397.542,186.1504 412.542,186.1504 L422.542,186.1504" fill="none" style="stroke:#0078D4;stroke-width:3;"/><text fill="#000000" font-family="sans-serif" font-size="14" lengthAdjust="spacing" textLength="182.793" x="425.542" y="209.9297">spark.sql.shuffle.partitions</text><path d="M372.542,186.1504 L382.542,186.1504 C397.542,186.1504 397.542,204.6387 412.542,204.6387 L422.542,204.6387" fill="none" style="stroke:#0078D4;stroke-width:3;"/><path d="M117.4932,196.9297 L127.4932,196.9297 C142.4932,196.9297 142.4932,186.1504 157.4932,186.1504 L167.4932,186.1504" fill="none" style="stroke:#FF5F46;stroke-width:3;"/><rect fill="#0078D4" height="36.4883" rx="12.5" ry="12.5" style="stroke:#0078D4;stroke-width:3;" width="166.624" x="167.4932" y="224.3945"/><text fill="#FFFFFF" font-family="sans-serif" font-size="14" lengthAdjust="spacing" textLength="146.624" x="177.4932" y="247.9297">Resolve: Add Memory</text><text fill="#000000" font-family="sans-serif" font-size="14" lengthAdjust="spacing" textLength="174.7949" x="387.1172" y="238.6855">Higher memory:core ratio</text><path d="M334.1172,242.6387 L344.1172,242.6387 C359.1172,242.6387 359.1172,233.3945 374.1172,233.3945 L384.1172,233.3945" fill="none" style="stroke:#0078D4;stroke-width:3;"/><text fill="#000000" font-family="sans-serif" font-size="14" lengthAdjust="spacing" textLength="130.9082" x="387.1172" y="257.1738">More worker nodes</text><path d="M334.1172,242.6387 L344.1172,242.6387 C359.1172,242.6387 359.1172,251.8828 374.1172,251.8828 L384.1172,251.8828" fill="none" style="stroke:#0078D4;stroke-width:3;"/><path d="M117.4932,196.9297 L127.4932,196.9297 C142.4932,196.9297 142.4932,242.6387 157.4932,242.6387 L167.4932,242.6387" fill="none" style="stroke:#FF5F46;stroke-width:3;"/><rect fill="#0078D4" height="36.4883" rx="12.5" ry="12.5" style="stroke:#0078D4;stroke-width:3;" width="177.8691" x="167.4932" y="280.8828"/><text fill="#FFFFFF" font-family="sans-serif" font-size="14" lengthAdjust="spacing" textLength="157.8691" x="177.4932" y="304.418">Resolve: Optimize Data</text><text fill="#000000" font-family="sans-serif" font-size="14" lengthAdjust="spacing" textLength="188.6445" x="398.3623" y="285.9297">Select only needed columns</text><path d="M345.3623,299.127 L355.3623,299.127 C370.3623,299.127 370.3623,280.6387 385.3623,280.6387 L395.3623,280.6387" fill="none" style="stroke:#0078D4;stroke-width:3;"/><text fill="#000000" font-family="sans-serif" font-size="14" lengthAdjust="spacing" textLength="147.0615" x="398.3623" y="304.418">Filter early in pipeline</text><path d="M345.3623,299.127 L355.3623,299.127 C370.3623,299.127 370.3623,299.127 385.3623,299.127 L395.3623,299.127" fill="none" style="stroke:#0078D4;stroke-width:3;"/><text fill="#000000" font-family="sans-serif" font-size="14" lengthAdjust="spacing" textLength="131.3115" x="398.3623" y="322.9063">Less data per stage</text><path d="M345.3623,299.127 L355.3623,299.127 C370.3623,299.127 370.3623,317.6152 385.3623,317.6152 L395.3623,317.6152" fill="none" style="stroke:#0078D4;stroke-width:3;"/><path d="M117.4932,196.9297 L127.4932,196.9297 C142.4932,196.9297 142.4932,299.127 157.4932,299.127 L167.4932,299.127" fill="none" style="stroke:#FF5F46;stroke-width:3;"/><rect fill="#0078D4" height="36.4883" rx="12.5" ry="12.5" style="stroke:#0078D4;stroke-width:3;" width="116.8926" x="167.4932" y="337.3711"/><text fill="#FFFFFF" font-family="sans-serif" font-size="14" lengthAdjust="spacing" textLength="96.8926" x="177.4932" y="360.9063">Skew and Spill</text><text fill="#000000" font-family="sans-serif" font-size="14" lengthAdjust="spacing" textLength="141.7842" x="337.3857" y="351.6621">Often occur together</text><path d="M284.3857,355.6152 L294.3857,355.6152 C309.3857,355.6152 309.3857,346.3711 324.3857,346.3711 L334.3857,346.3711" fill="none" style="stroke:#0078D4;stroke-width:3;"/><text fill="#000000" font-family="sans-serif" font-size="14" lengthAdjust="spacing" textLength="169.3467" x="337.3857" y="370.1504">Fix skew &#8594; spill resolves</text><path d="M284.3857,355.6152 L294.3857,355.6152 C309.3857,355.6152 309.3857,364.8594 324.3857,364.8594 L334.3857,364.8594" fill="none" style="stroke:#0078D4;stroke-width:3;"/><path d="M117.4932,196.9297 L127.4932,196.9297 C142.4932,196.9297 142.4932,355.6152 157.4932,355.6152 L167.4932,355.6152" fill="none" style="stroke:#FF5F46;stroke-width:3;"/><?plantuml-src VLHVRzCm47_FfpYDbwtIigni0wg1DgWYAWqDhI1Ua90RNr8JnmwsiwwRUDq7u2FoIJZ7RhSLYXyYvUxy-tDtyfbrpBX6ADwmDZcrRYdnJJBYsBhvRhO7TmdGUSkAkZAwK_oTbjh0ipm_pezE-jo5KFXtDDVAnMZPdtNjfxaeQeNMmlCqItwkk0wtScNPYvVZeqskZUXJr0q5UNyUk8PRkSfozYhBDhasel_bolf3N3Dz8ttDtTQAquFOxW5Cr3LQ9ohcyAlwW8qsIvYsGifaC80lS-P0s7LWy0rYYL2sAqjH25Gk92RAeMcG2q82pXo3t_U_W0jRX_nKL4hG3QQSN8ALUc7XkvxPa1rtHgWAx9nG9HwmgZ98ceHMNiU44uqeFIrfOQQ6pvE8wbY5qD8d_WU0e1XsWzgzV-R692rcpjKIb5RxjsWql8OcU6mDTR4p7Xckq6fvZIEoMHXa5k4ZRQ_m0gE3A-HT4PstQ4XJp4ToTE0qxB3EwPqGijv9Qd_8DDfEsyUO3vpddCU-XullHJKdXY1pL6Y3O7olueJy_qARcagKvlWKwx9reX6t26CIkf8ciN2W5Sr58NBaK6ZPDIjdkP0qMa1cP3-1LhGeQHj3ziAlsjgrTM4KCArn0KpnnxjpMJfKe8kYCzIB2XsvM57SWFKt_CxOVZucABR96T8J4P-9v30TPiEJTFW7?></g></svg>