<?plantuml 1.2026.2?><svg xmlns="http://www.w3.org/2000/svg" xmlns:xlink="http://www.w3.org/1999/xlink" contentStyleType="text/css" data-diagram-type="MINDMAP" height="338px" preserveAspectRatio="none" style="width:591px;height:338px;background:#FFFFFF;" version="1.1" viewBox="0 0 591 338" width="591px" zoomAndPan="magnify"><defs/><g><rect fill="#FF5F46" height="52.9766" rx="12.5" ry="12.5" style="stroke:#FF5F46;stroke-width:3;" width="118.3281" x="10" y="141.6855"/><text fill="#FFFFFF" font-family="sans-serif" font-size="14" lengthAdjust="spacing" textLength="88.0195" x="20" y="165.2207">Create Alerts</text><text fill="#FFFFFF" font-family="sans-serif" font-size="14" lengthAdjust="spacing" textLength="98.3281" x="20" y="181.709">for Monitoring</text><rect fill="#0078D4" height="36.4883" rx="12.5" ry="12.5" style="stroke:#0078D4;stroke-width:3;" width="141.8369" x="178.3281" y="28.7324"/><text fill="#FFFFFF" font-family="sans-serif" font-size="14" lengthAdjust="spacing" textLength="121.8369" x="188.3281" y="52.2676">Create Alert Steps</text><text fill="#000000" font-family="sans-serif" font-size="14" lengthAdjust="spacing" textLength="180.8516" x="373.165" y="24.5352">Run query in Log Analytics</text><path d="M320.165,46.9766 L330.165,46.9766 C345.165,46.9766 345.165,19.2441 360.165,19.2441 L370.165,19.2441" fill="none" style="stroke:#0078D4;stroke-width:3;"/><text fill="#000000" font-family="sans-serif" font-size="14" lengthAdjust="spacing" textLength="94.5957" x="373.165" y="43.0234">New alert rule</text><path d="M320.165,46.9766 L330.165,46.9766 C345.165,46.9766 345.165,37.7324 360.165,37.7324 L370.165,37.7324" fill="none" style="stroke:#0078D4;stroke-width:3;"/><text fill="#000000" font-family="sans-serif" font-size="14" lengthAdjust="spacing" textLength="137.9492" x="373.165" y="61.5117">Configure Condition</text><path d="M320.165,46.9766 L330.165,46.9766 C345.165,46.9766 345.165,56.2207 360.165,56.2207 L370.165,56.2207" fill="none" style="stroke:#0078D4;stroke-width:3;"/><text fill="#000000" font-family="sans-serif" font-size="14" lengthAdjust="spacing" textLength="136.7871" x="373.165" y="80">Define Action group</text><path d="M320.165,46.9766 L330.165,46.9766 C345.165,46.9766 345.165,74.709 360.165,74.709 L370.165,74.709" fill="none" style="stroke:#0078D4;stroke-width:3;"/><path d="M128.3281,168.1738 L138.3281,168.1738 C153.3281,168.1738 153.3281,46.9766 168.3281,46.9766 L178.3281,46.9766" fill="none" style="stroke:#FF5F46;stroke-width:3;"/><rect fill="#0078D4" height="36.4883" rx="12.5" ry="12.5" style="stroke:#0078D4;stroke-width:3;" width="121.3428" x="178.3281" y="93.4414"/><text fill="#FFFFFF" font-family="sans-serif" font-size="14" lengthAdjust="spacing" textLength="101.3428" x="188.3281" y="116.9766">Alert Scenarios</text><text fill="#000000" font-family="sans-serif" font-size="14" lengthAdjust="spacing" textLength="161.2461" x="352.6709" y="98.4883">Job failures &gt; threshold</text><path d="M299.6709,111.6855 L309.6709,111.6855 C324.6709,111.6855 324.6709,93.1973 339.6709,93.1973 L349.6709,93.1973" fill="none" style="stroke:#0078D4;stroke-width:3;"/><text fill="#000000" font-family="sans-serif" font-size="14" lengthAdjust="spacing" textLength="164.0557" x="352.6709" y="116.9766">Unusual access patterns</text><path d="M299.6709,111.6855 L309.6709,111.6855 C324.6709,111.6855 324.6709,111.6855 339.6709,111.6855 L349.6709,111.6855" fill="none" style="stroke:#0078D4;stroke-width:3;"/><text fill="#000000" font-family="sans-serif" font-size="14" lengthAdjust="spacing" textLength="155.2988" x="352.6709" y="135.4648">Cluster creation spikes</text><path d="M299.6709,111.6855 L309.6709,111.6855 C324.6709,111.6855 324.6709,130.1738 339.6709,130.1738 L349.6709,130.1738" fill="none" style="stroke:#0078D4;stroke-width:3;"/><path d="M128.3281,168.1738 L138.3281,168.1738 C153.3281,168.1738 153.3281,111.6855 168.3281,111.6855 L178.3281,111.6855" fill="none" style="stroke:#FF5F46;stroke-width:3;"/><rect fill="#0078D4" height="36.4883" rx="12.5" ry="12.5" style="stroke:#0078D4;stroke-width:3;" width="128.6436" x="178.3281" y="149.9297"/><text fill="#FFFFFF" font-family="sans-serif" font-size="14" lengthAdjust="spacing" textLength="108.6436" x="188.3281" y="173.4648">Job Failure Alert</text><text fill="#000000" font-family="sans-serif" font-size="14" lengthAdjust="spacing" textLength="178.1924" x="359.9717" y="154.9766">FailureCount &gt; 5 per hour</text><path d="M306.9717,168.1738 L316.9717,168.1738 C331.9717,168.1738 331.9717,149.6855 346.9717,149.6855 L356.9717,149.6855" fill="none" style="stroke:#0078D4;stroke-width:3;"/><text fill="#000000" font-family="sans-serif" font-size="14" lengthAdjust="spacing" textLength="139.2207" x="359.9717" y="173.4648">DatabricksJobs table</text><path d="M306.9717,168.1738 L316.9717,168.1738 C331.9717,168.1738 331.9717,168.1738 346.9717,168.1738 L356.9717,168.1738" fill="none" style="stroke:#0078D4;stroke-width:3;"/><text fill="#000000" font-family="sans-serif" font-size="14" lengthAdjust="spacing" textLength="219.9531" x="359.9717" y="191.9531">Response contains "error/failed"</text><path d="M306.9717,168.1738 L316.9717,168.1738 C331.9717,168.1738 331.9717,186.6621 346.9717,186.6621 L356.9717,186.6621" fill="none" style="stroke:#0078D4;stroke-width:3;"/><path d="M128.3281,168.1738 L138.3281,168.1738 C153.3281,168.1738 153.3281,168.1738 168.3281,168.1738 L178.3281,168.1738" fill="none" style="stroke:#FF5F46;stroke-width:3;"/><rect fill="#0078D4" height="36.4883" rx="12.5" ry="12.5" style="stroke:#0078D4;stroke-width:3;" width="110.4258" x="178.3281" y="206.418"/><text fill="#FFFFFF" font-family="sans-serif" font-size="14" lengthAdjust="spacing" textLength="90.4258" x="188.3281" y="229.9531">Security Alert</text><text fill="#000000" font-family="sans-serif" font-size="14" lengthAdjust="spacing" textLength="207.9697" x="341.7539" y="211.4648">Access outside business hours</text><path d="M288.7539,224.6621 L298.7539,224.6621 C313.7539,224.6621 313.7539,206.1738 328.7539,206.1738 L338.7539,206.1738" fill="none" style="stroke:#0078D4;stroke-width:3;"/><text fill="#000000" font-family="sans-serif" font-size="14" lengthAdjust="spacing" textLength="154.6016" x="341.7539" y="229.9531">hourofday &lt; 6 or &gt; 20</text><path d="M288.7539,224.6621 L298.7539,224.6621 C313.7539,224.6621 313.7539,224.6621 328.7539,224.6621 L338.7539,224.6621" fill="none" style="stroke:#0078D4;stroke-width:3;"/><text fill="#000000" font-family="sans-serif" font-size="14" lengthAdjust="spacing" textLength="139.7539" x="341.7539" y="248.4414">Unity Catalog access</text><path d="M288.7539,224.6621 L298.7539,224.6621 C313.7539,224.6621 313.7539,243.1504 328.7539,243.1504 L338.7539,243.1504" fill="none" style="stroke:#0078D4;stroke-width:3;"/><path d="M128.3281,168.1738 L138.3281,168.1738 C153.3281,168.1738 153.3281,224.6621 168.3281,224.6621 L178.3281,224.6621" fill="none" style="stroke:#FF5F46;stroke-width:3;"/><rect fill="#0078D4" height="36.4883" rx="12.5" ry="12.5" style="stroke:#0078D4;stroke-width:3;" width="116.9131" x="178.3281" y="271.127"/><text fill="#FFFFFF" font-family="sans-serif" font-size="14" lengthAdjust="spacing" textLength="96.9131" x="188.3281" y="294.6621">Action Groups</text><text fill="#000000" font-family="sans-serif" font-size="14" lengthAdjust="spacing" textLength="125.2891" x="348.2412" y="266.9297">Email notifications</text><path d="M295.2412,289.3711 L305.2412,289.3711 C320.2412,289.3711 320.2412,261.6387 335.2412,261.6387 L345.2412,261.6387" fill="none" style="stroke:#0078D4;stroke-width:3;"/><text fill="#000000" font-family="sans-serif" font-size="14" lengthAdjust="spacing" textLength="98.1094" x="348.2412" y="285.418">SMS messages</text><path d="M295.2412,289.3711 L305.2412,289.3711 C320.2412,289.3711 320.2412,280.127 335.2412,280.127 L345.2412,280.127" fill="none" style="stroke:#0078D4;stroke-width:3;"/><text fill="#000000" font-family="sans-serif" font-size="14" lengthAdjust="spacing" textLength="120.4902" x="348.2412" y="303.9063">Azure mobile app</text><path d="M295.2412,289.3711 L305.2412,289.3711 C320.2412,289.3711 320.2412,298.6152 335.2412,298.6152 L345.2412,298.6152" fill="none" style="stroke:#0078D4;stroke-width:3;"/><text fill="#000000" font-family="sans-serif" font-size="14" lengthAdjust="spacing" textLength="111.4463" x="348.2412" y="322.3945">ITSM integration</text><path d="M295.2412,289.3711 L305.2412,289.3711 C320.2412,289.3711 320.2412,317.1035 335.2412,317.1035 L345.2412,317.1035" fill="none" style="stroke:#0078D4;stroke-width:3;"/><path d="M128.3281,168.1738 L138.3281,168.1738 C153.3281,168.1738 153.3281,289.3711 168.3281,289.3711 L178.3281,289.3711" fill="none" style="stroke:#FF5F46;stroke-width:3;"/><?plantuml-src VLDBZzCm4BxdLuoM2_JGpPRTyb1LRSaI1Dfos2ut9EGuazIgOmS_1675VsSSky06bRdO_kRnpNmZNrl7ZEk4gZlMPolh1edhx7MDlTi_pP_1GmPaRnW_j4PxLHTQQWDFolAgl5oElbkXy5-qrCebj1djT-pzNl23GclX-JpFVXwvBavovVcBbpUNKwu9-hZgf8Doj3zSYvDSJLEzolCfrmJzBrS-6d5L-hiCCGyd8rRdIUuP50QPGzX8DCv-LWt5RRKIJXkXscpsE01s3djBwEmBt7a5NpsQ0OI2Mzt2HZ4vEC6J_oD-0pOc6IynOeLMZMYzmN2hXHDQHSSDDZGUR7Y080ZJ1-v4ob4n8tGg_45Nq30XgOo5DRWzdNijw-ZzfBprJ0BZF6ZGC-VGg9HQI6_f2JpC59XiBmuOd6FLCbQDj34ZGGLjoX7P5VIKljVUfBwPOvMXfLZAjq2FuwXtQ7kjB08d_PbG5ixG66tEG-jOdmNE7N9lX1l-9jp4lhLtLjG8bRTYN7ZWJ5E4gsvgDi0Aba0BMyCYFquVoXNKbQIDH0r68QEmxuAmgShRZXe1fPre11_LI8xTTWSTvR4M4xBv4LJfT4MT0-lxYBw_tsrfzmvRCwPdrqX_EVtdx6A-o1VB-U8N?></g></svg>