<?plantuml 1.2026.2?><svg xmlns="http://www.w3.org/2000/svg" xmlns:xlink="http://www.w3.org/1999/xlink" contentStyleType="text/css" data-diagram-type="MINDMAP" height="462px" preserveAspectRatio="none" style="width:640px;height:462px;background:#FFFFFF;" version="1.1" viewBox="0 0 640 462" width="640px" zoomAndPan="magnify"><defs/><g><rect fill="#FF5F46" height="52.9766" rx="12.5" ry="12.5" style="stroke:#FF5F46;stroke-width:3;" width="136.5938" x="10" y="203.5635"/><text fill="#FFFFFF" font-family="sans-serif" font-size="14" lengthAdjust="spacing" textLength="116.5938" x="20" y="227.0986">Azure Databricks</text><text fill="#FFFFFF" font-family="sans-serif" font-size="14" lengthAdjust="spacing" textLength="73.6025" x="20" y="243.5869">Log Tables</text><rect fill="#0078D4" height="36.4883" rx="12.5" ry="12.5" style="stroke:#0078D4;stroke-width:3;" width="147.7227" x="196.5938" y="20"/><text fill="#FFFFFF" font-family="sans-serif" font-size="14" lengthAdjust="spacing" textLength="127.7227" x="206.5938" y="43.5352">DatabricksClusters</text><text fill="#000000" font-family="sans-serif" font-size="14" lengthAdjust="spacing" textLength="155.6338" x="397.3164" y="25.0469">Cluster lifecycle events</text><path d="M344.3164,38.2441 L354.3164,38.2441 C369.3164,38.2441 369.3164,19.7559 384.3164,19.7559 L394.3164,19.7559" fill="none" style="stroke:#0078D4;stroke-width:3;"/><text fill="#000000" font-family="sans-serif" font-size="14" lengthAdjust="spacing" textLength="145.25" x="397.3164" y="43.5352">Creation, termination</text><path d="M344.3164,38.2441 L354.3164,38.2441 C369.3164,38.2441 369.3164,38.2441 384.3164,38.2441 L394.3164,38.2441" fill="none" style="stroke:#0078D4;stroke-width:3;"/><text fill="#000000" font-family="sans-serif" font-size="14" lengthAdjust="spacing" textLength="168.9434" x="397.3164" y="62.0234">Resizing, config changes</text><path d="M344.3164,38.2441 L354.3164,38.2441 C369.3164,38.2441 369.3164,56.7324 384.3164,56.7324 L394.3164,56.7324" fill="none" style="stroke:#0078D4;stroke-width:3;"/><path d="M146.5938,230.0518 L156.5938,230.0518 C171.5938,230.0518 171.5938,38.2441 186.5938,38.2441 L196.5938,38.2441" fill="none" style="stroke:#FF5F46;stroke-width:3;"/><rect fill="#0078D4" height="36.4883" rx="12.5" ry="12.5" style="stroke:#0078D4;stroke-width:3;" width="121.165" x="196.5938" y="76.4883"/><text fill="#FFFFFF" font-family="sans-serif" font-size="14" lengthAdjust="spacing" textLength="101.165" x="206.5938" y="100.0234">DatabricksJobs</text><text fill="#000000" font-family="sans-serif" font-size="14" lengthAdjust="spacing" textLength="145.5303" x="370.7588" y="90.7793">Job creation and runs</text><path d="M317.7588,94.7324 L327.7588,94.7324 C342.7588,94.7324 342.7588,85.4883 357.7588,85.4883 L367.7588,85.4883" fill="none" style="stroke:#0078D4;stroke-width:3;"/><text fill="#000000" font-family="sans-serif" font-size="14" lengthAdjust="spacing" textLength="154.0547" x="370.7588" y="109.2676">Failures and schedules</text><path d="M317.7588,94.7324 L327.7588,94.7324 C342.7588,94.7324 342.7588,103.9766 357.7588,103.9766 L367.7588,103.9766" fill="none" style="stroke:#0078D4;stroke-width:3;"/><path d="M146.5938,230.0518 L156.5938,230.0518 C171.5938,230.0518 171.5938,94.7324 186.5938,94.7324 L196.5938,94.7324" fill="none" style="stroke:#FF5F46;stroke-width:3;"/><rect fill="#0078D4" height="36.4883" rx="12.5" ry="12.5" style="stroke:#0078D4;stroke-width:3;" width="158.4346" x="196.5938" y="132.9766"/><text fill="#FFFFFF" font-family="sans-serif" font-size="14" lengthAdjust="spacing" textLength="138.4346" x="206.5938" y="156.5117">DatabricksNotebook</text><text fill="#000000" font-family="sans-serif" font-size="14" lengthAdjust="spacing" textLength="130.2656" x="408.0283" y="147.2676">Execution, creation</text><path d="M355.0283,151.2207 L365.0283,151.2207 C380.0283,151.2207 380.0283,141.9766 395.0283,141.9766 L405.0283,141.9766" fill="none" style="stroke:#0078D4;stroke-width:3;"/><text fill="#000000" font-family="sans-serif" font-size="14" lengthAdjust="spacing" textLength="132.5215" x="408.0283" y="165.7559">Modification events</text><path d="M355.0283,151.2207 L365.0283,151.2207 C380.0283,151.2207 380.0283,160.4648 395.0283,160.4648 L405.0283,160.4648" fill="none" style="stroke:#0078D4;stroke-width:3;"/><path d="M146.5938,230.0518 L156.5938,230.0518 C171.5938,230.0518 171.5938,151.2207 186.5938,151.2207 L196.5938,151.2207" fill="none" style="stroke:#FF5F46;stroke-width:3;"/><rect fill="#0078D4" height="36.4883" rx="12.5" ry="12.5" style="stroke:#0078D4;stroke-width:3;" width="118.1436" x="196.5938" y="189.4648"/><text fill="#FFFFFF" font-family="sans-serif" font-size="14" lengthAdjust="spacing" textLength="98.1436" x="206.5938" y="213">DatabricksSQL</text><text fill="#000000" font-family="sans-serif" font-size="14" lengthAdjust="spacing" textLength="180.0791" x="367.7373" y="203.7559">SQL warehouse operations</text><path d="M314.7373,207.709 L324.7373,207.709 C339.7373,207.709 339.7373,198.4648 354.7373,198.4648 L364.7373,198.4648" fill="none" style="stroke:#0078D4;stroke-width:3;"/><text fill="#000000" font-family="sans-serif" font-size="14" lengthAdjust="spacing" textLength="143.999" x="367.7373" y="222.2441">Query-related events</text><path d="M314.7373,207.709 L324.7373,207.709 C339.7373,207.709 339.7373,216.9531 354.7373,216.9531 L364.7373,216.9531" fill="none" style="stroke:#0078D4;stroke-width:3;"/><path d="M146.5938,230.0518 L156.5938,230.0518 C171.5938,230.0518 171.5938,207.709 186.5938,207.709 L196.5938,207.709" fill="none" style="stroke:#FF5F46;stroke-width:3;"/><rect fill="#0078D4" height="36.4883" rx="12.5" ry="12.5" style="stroke:#0078D4;stroke-width:3;" width="179.0107" x="196.5938" y="245.9531"/><text fill="#FFFFFF" font-family="sans-serif" font-size="14" lengthAdjust="spacing" textLength="159.0107" x="206.5938" y="269.4883">DatabricksUnityCatalog</text><text fill="#000000" font-family="sans-serif" font-size="14" lengthAdjust="spacing" textLength="200.2451" x="428.6045" y="260.2441">Catalog/schema/table access</text><path d="M375.6045,264.1973 L385.6045,264.1973 C400.6045,264.1973 400.6045,254.9531 415.6045,254.9531 L425.6045,254.9531" fill="none" style="stroke:#0078D4;stroke-width:3;"/><text fill="#000000" font-family="sans-serif" font-size="14" lengthAdjust="spacing" textLength="118.7061" x="428.6045" y="278.7324">Data access audit</text><path d="M375.6045,264.1973 L385.6045,264.1973 C400.6045,264.1973 400.6045,273.4414 415.6045,273.4414 L425.6045,273.4414" fill="none" style="stroke:#0078D4;stroke-width:3;"/><path d="M146.5938,230.0518 L156.5938,230.0518 C171.5938,230.0518 171.5938,264.1973 186.5938,264.1973 L196.5938,264.1973" fill="none" style="stroke:#FF5F46;stroke-width:3;"/><rect fill="#0078D4" height="36.4883" rx="12.5" ry="12.5" style="stroke:#0078D4;stroke-width:3;" width="107.1377" x="196.5938" y="302.4414"/><text fill="#FFFFFF" font-family="sans-serif" font-size="14" lengthAdjust="spacing" textLength="87.1377" x="206.5938" y="325.9766">Other Tables</text><text fill="#000000" font-family="sans-serif" font-size="14" lengthAdjust="spacing" textLength="145.4004" x="356.7314" y="316.7324">DatabricksWorkspace</text><path d="M303.7314,320.6855 L313.7314,320.6855 C328.7314,320.6855 328.7314,311.4414 343.7314,311.4414 L353.7314,311.4414" fill="none" style="stroke:#0078D4;stroke-width:3;"/><text fill="#000000" font-family="sans-serif" font-size="14" lengthAdjust="spacing" textLength="120.6748" x="356.7314" y="335.2207">DatabricksSecrets</text><path d="M303.7314,320.6855 L313.7314,320.6855 C328.7314,320.6855 328.7314,329.9297 343.7314,329.9297 L353.7314,329.9297" fill="none" style="stroke:#0078D4;stroke-width:3;"/><path d="M146.5938,230.0518 L156.5938,230.0518 C171.5938,230.0518 171.5938,320.6855 186.5938,320.6855 L196.5938,320.6855" fill="none" style="stroke:#FF5F46;stroke-width:3;"/><rect fill="#0078D4" height="36.4883" rx="12.5" ry="12.5" style="stroke:#0078D4;stroke-width:3;" width="144.626" x="196.5938" y="376.3945"/><text fill="#FFFFFF" font-family="sans-serif" font-size="14" lengthAdjust="spacing" textLength="124.626" x="206.5938" y="399.9297">Standard Columns</text><text fill="#000000" font-family="sans-serif" font-size="14" lengthAdjust="spacing" textLength="103.4824" x="394.2197" y="353.709">TimeGenerated</text><path d="M341.2197,394.6387 L351.2197,394.6387 C366.2197,394.6387 366.2197,348.418 381.2197,348.418 L391.2197,348.418" fill="none" style="stroke:#0078D4;stroke-width:3;"/><text fill="#000000" font-family="sans-serif" font-size="14" lengthAdjust="spacing" textLength="106.4629" x="394.2197" y="372.1973">OperationName</text><path d="M341.2197,394.6387 L351.2197,394.6387 C366.2197,394.6387 366.2197,366.9063 381.2197,366.9063 L391.2197,366.9063" fill="none" style="stroke:#0078D4;stroke-width:3;"/><text fill="#000000" font-family="sans-serif" font-size="14" lengthAdjust="spacing" textLength="211.8389" x="394.2197" y="390.6855">Identity (user/service principal)</text><path d="M341.2197,394.6387 L351.2197,394.6387 C366.2197,394.6387 366.2197,385.3945 381.2197,385.3945 L391.2197,385.3945" fill="none" style="stroke:#0078D4;stroke-width:3;"/><text fill="#000000" font-family="sans-serif" font-size="14" lengthAdjust="spacing" textLength="112.3828" x="394.2197" y="409.1738">SourceIPAddress</text><path d="M341.2197,394.6387 L351.2197,394.6387 C366.2197,394.6387 366.2197,403.8828 381.2197,403.8828 L391.2197,403.8828" fill="none" style="stroke:#0078D4;stroke-width:3;"/><text fill="#000000" font-family="sans-serif" font-size="14" lengthAdjust="spacing" textLength="103.4619" x="394.2197" y="427.6621">RequestParams</text><path d="M341.2197,394.6387 L351.2197,394.6387 C366.2197,394.6387 366.2197,422.3711 381.2197,422.3711 L391.2197,422.3711" fill="none" style="stroke:#0078D4;stroke-width:3;"/><text fill="#000000" font-family="sans-serif" font-size="14" lengthAdjust="spacing" textLength="64.8252" x="394.2197" y="446.1504">Response</text><path d="M341.2197,394.6387 L351.2197,394.6387 C366.2197,394.6387 366.2197,440.8594 381.2197,440.8594 L391.2197,440.8594" fill="none" style="stroke:#0078D4;stroke-width:3;"/><path d="M146.5938,230.0518 L156.5938,230.0518 C171.5938,230.0518 171.5938,394.6387 186.5938,394.6387 L196.5938,394.6387" fill="none" style="stroke:#FF5F46;stroke-width:3;"/><?plantuml-src VLJRRjGm47tFLup4Ixigk-bIoaKLQjaILBJqjejuGKAEFKciJUpWI-csuj-PnDwbf1HBaJndnkVC6KS-jeuPrqWb6jOcHzQjQtoNl1NOkcedtONx16YzPtnL6ksLcEbQ6tYMPI-pWyC-DvSA7wEPLYwYHR-sjSjAyfL2Q-75E4r-RRJsdzHAqrUlJm-6MWFqRzP11rc__cXDdzGgYlnDcWwr1kX_jT9-aLQkR-kkvlx9YgD97FS8JkwyGJXbZkM6oEqtDTSbB5bE5Cbez20pgxrrQ3fqz1rY1BKiaAzvZO0tgDmcQv0vgTKUK0tTSH-4r3LQUITLkGTSgqAMm2kcog7O9vr7Aje1ZtJ0b03ZLKnbJDRKlUrXooiK_b7NvzfXhlKgdFXmYzo7nZQS8V5P2rb87bIsJXxmBAxceP8sy9CPhBIt2Bf5qn-ABLrvDEld1clcKFoJw8kIRZsZiDPb75O89fs3XarSDtjWdDCTXeBkS0I0UI5TntZXAXh_zg9YMT3ugitAjepZCB50iXqwMZYQ6ZC2wEVmpQR_fMpm8whE58e0NMmidhCc4fu9yaKsO8TcO2RqtKYEq1gfk6nPlHj7fRtXU7Pv8eJPchd67nwjksI6DLl8jZH1J8wHNeFu8YJxusawFHnFVmC0?></g></svg>