<?plantuml 1.2026.2?><svg xmlns="http://www.w3.org/2000/svg" xmlns:xlink="http://www.w3.org/1999/xlink" contentStyleType="text/css" data-diagram-type="MINDMAP" height="357px" preserveAspectRatio="none" style="width:537px;height:357px;background:#FFFFFF;" version="1.1" viewBox="0 0 537 357" width="537px" zoomAndPan="magnify"><defs/><g><rect fill="#FF5F46" height="52.9766" rx="12.5" ry="12.5" style="stroke:#FF5F46;stroke-width:3;" width="117.7949" x="10" y="151.4414"/><text fill="#FFFFFF" font-family="sans-serif" font-size="14" lengthAdjust="spacing" textLength="97.7949" x="20" y="174.9766">Log Streaming</text><text fill="#FFFFFF" font-family="sans-serif" font-size="14" lengthAdjust="spacing" textLength="82.9541" x="20" y="191.4648">Architecture</text><rect fill="#0078D4" height="36.4883" rx="12.5" ry="12.5" style="stroke:#0078D4;stroke-width:3;" width="86.5547" x="177.7949" y="37.9766"/><text fill="#FFFFFF" font-family="sans-serif" font-size="14" lengthAdjust="spacing" textLength="66.5547" x="187.7949" y="61.5117">Data Flow</text><text fill="#000000" font-family="sans-serif" font-size="14" lengthAdjust="spacing" textLength="191.6797" x="317.3496" y="24.5352">Databricks generates events</text><path d="M264.3496,56.2207 L274.3496,56.2207 C289.3496,56.2207 289.3496,19.2441 304.3496,19.2441 L314.3496,19.2441" fill="none" style="stroke:#0078D4;stroke-width:3;"/><text fill="#000000" font-family="sans-serif" font-size="14" lengthAdjust="spacing" textLength="172.9697" x="317.3496" y="43.0234">Azure diagnostic settings</text><path d="M264.3496,56.2207 L274.3496,56.2207 C289.3496,56.2207 289.3496,37.7324 304.3496,37.7324 L314.3496,37.7324" fill="none" style="stroke:#0078D4;stroke-width:3;"/><text fill="#000000" font-family="sans-serif" font-size="14" lengthAdjust="spacing" textLength="159.2637" x="317.3496" y="61.5117">Routes to Log Analytics</text><path d="M264.3496,56.2207 L274.3496,56.2207 C289.3496,56.2207 289.3496,56.2207 304.3496,56.2207 L314.3496,56.2207" fill="none" style="stroke:#0078D4;stroke-width:3;"/><text fill="#000000" font-family="sans-serif" font-size="14" lengthAdjust="spacing" textLength="134.4287" x="317.3496" y="80">Ingested into tables</text><path d="M264.3496,56.2207 L274.3496,56.2207 C289.3496,56.2207 289.3496,74.709 304.3496,74.709 L314.3496,74.709" fill="none" style="stroke:#0078D4;stroke-width:3;"/><text fill="#000000" font-family="sans-serif" font-size="14" lengthAdjust="spacing" textLength="105.5059" x="317.3496" y="98.4883">Query with KQL</text><path d="M264.3496,56.2207 L274.3496,56.2207 C289.3496,56.2207 289.3496,93.1973 304.3496,93.1973 L314.3496,93.1973" fill="none" style="stroke:#0078D4;stroke-width:3;"/><path d="M127.7949,177.9297 L137.7949,177.9297 C152.7949,177.9297 152.7949,56.2207 167.7949,56.2207 L177.7949,56.2207" fill="none" style="stroke:#FF5F46;stroke-width:3;"/><rect fill="#0078D4" height="36.4883" rx="12.5" ry="12.5" style="stroke:#0078D4;stroke-width:3;" width="100.9033" x="177.7949" y="121.1738"/><text fill="#FFFFFF" font-family="sans-serif" font-size="14" lengthAdjust="spacing" textLength="80.9033" x="187.7949" y="144.709">Event Types</text><text fill="#000000" font-family="sans-serif" font-size="14" lengthAdjust="spacing" textLength="193.9697" x="331.6982" y="116.9766">Cluster creation/termination</text><path d="M278.6982,139.418 L288.6982,139.418 C303.6982,139.418 303.6982,111.6855 318.6982,111.6855 L328.6982,111.6855" fill="none" style="stroke:#0078D4;stroke-width:3;"/><text fill="#000000" font-family="sans-serif" font-size="14" lengthAdjust="spacing" textLength="125.3848" x="331.6982" y="135.4648">Job runs &amp; failures</text><path d="M278.6982,139.418 L288.6982,139.418 C303.6982,139.418 303.6982,130.1738 318.6982,130.1738 L328.6982,130.1738" fill="none" style="stroke:#0078D4;stroke-width:3;"/><text fill="#000000" font-family="sans-serif" font-size="14" lengthAdjust="spacing" textLength="137.2178" x="331.6982" y="153.9531">Notebook execution</text><path d="M278.6982,139.418 L288.6982,139.418 C303.6982,139.418 303.6982,148.6621 318.6982,148.6621 L328.6982,148.6621" fill="none" style="stroke:#0078D4;stroke-width:3;"/><text fill="#000000" font-family="sans-serif" font-size="14" lengthAdjust="spacing" textLength="134.3672" x="331.6982" y="172.4414">Permission changes</text><path d="M278.6982,139.418 L288.6982,139.418 C303.6982,139.418 303.6982,167.1504 318.6982,167.1504 L328.6982,167.1504" fill="none" style="stroke:#0078D4;stroke-width:3;"/><path d="M127.7949,177.9297 L137.7949,177.9297 C152.7949,177.9297 152.7949,139.418 167.7949,139.418 L177.7949,139.418" fill="none" style="stroke:#FF5F46;stroke-width:3;"/><rect fill="#0078D4" height="36.4883" rx="12.5" ry="12.5" style="stroke:#0078D4;stroke-width:3;" width="113.6182" x="177.7949" y="186.3945"/><text fill="#FFFFFF" font-family="sans-serif" font-size="14" lengthAdjust="spacing" textLength="93.6182" x="187.7949" y="209.9297">Configuration</text><text fill="#000000" font-family="sans-serif" font-size="14" lengthAdjust="spacing" textLength="126.5879" x="344.4131" y="191.4414">Azure portal setup</text><path d="M291.4131,204.6387 L301.4131,204.6387 C316.4131,204.6387 316.4131,186.1504 331.4131,186.1504 L341.4131,186.1504" fill="none" style="stroke:#0078D4;stroke-width:3;"/><text fill="#000000" font-family="sans-serif" font-size="14" lengthAdjust="spacing" textLength="180.2432" x="344.4131" y="209.9297">Platform admins configure</text><path d="M291.4131,204.6387 L301.4131,204.6387 C316.4131,204.6387 316.4131,204.6387 331.4131,204.6387 L341.4131,204.6387" fill="none" style="stroke:#0078D4;stroke-width:3;"/><text fill="#000000" font-family="sans-serif" font-size="14" lengthAdjust="spacing" textLength="167.6172" x="344.4131" y="228.418">Data engineers consume</text><path d="M291.4131,204.6387 L301.4131,204.6387 C316.4131,204.6387 316.4131,223.127 331.4131,223.127 L341.4131,223.127" fill="none" style="stroke:#0078D4;stroke-width:3;"/><path d="M127.7949,177.9297 L137.7949,177.9297 C152.7949,177.9297 152.7949,204.6387 167.7949,204.6387 L177.7949,204.6387" fill="none" style="stroke:#FF5F46;stroke-width:3;"/><rect fill="#0078D4" height="36.4883" rx="12.5" ry="12.5" style="stroke:#0078D4;stroke-width:3;" width="113.6592" x="177.7949" y="242.8828"/><text fill="#FFFFFF" font-family="sans-serif" font-size="14" lengthAdjust="spacing" textLength="93.6592" x="187.7949" y="266.418">Requirements</text><text fill="#000000" font-family="sans-serif" font-size="14" lengthAdjust="spacing" textLength="155.6953" x="344.4541" y="257.1738">Premium plan required</text><path d="M291.4541,261.127 L301.4541,261.127 C316.4541,261.127 316.4541,251.8828 331.4541,251.8828 L341.4541,251.8828" fill="none" style="stroke:#0078D4;stroke-width:3;"/><text fill="#000000" font-family="sans-serif" font-size="14" lengthAdjust="spacing" textLength="167.7607" x="344.4541" y="275.6621">15 min ingestion latency</text><path d="M291.4541,261.127 L301.4541,261.127 C316.4541,261.127 316.4541,270.3711 331.4541,270.3711 L341.4541,270.3711" fill="none" style="stroke:#0078D4;stroke-width:3;"/><path d="M127.7949,177.9297 L137.7949,177.9297 C152.7949,177.9297 152.7949,261.127 167.7949,261.127 L177.7949,261.127" fill="none" style="stroke:#FF5F46;stroke-width:3;"/><rect fill="#0078D4" height="36.4883" rx="12.5" ry="12.5" style="stroke:#0078D4;stroke-width:3;" width="73.9082" x="177.7949" y="299.3711"/><text fill="#FFFFFF" font-family="sans-serif" font-size="14" lengthAdjust="spacing" textLength="53.9082" x="187.7949" y="322.9063">Benefits</text><text fill="#000000" font-family="sans-serif" font-size="14" lengthAdjust="spacing" textLength="133.6016" x="304.7031" y="304.418">Centralized logging</text><path d="M251.7031,317.6152 L261.7031,317.6152 C276.7031,317.6152 276.7031,299.127 291.7031,299.127 L301.7031,299.127" fill="none" style="stroke:#0078D4;stroke-width:3;"/><text fill="#000000" font-family="sans-serif" font-size="14" lengthAdjust="spacing" textLength="104.6309" x="304.7031" y="322.9063">Single interface</text><path d="M251.7031,317.6152 L261.7031,317.6152 C276.7031,317.6152 276.7031,317.6152 291.7031,317.6152 L301.7031,317.6152" fill="none" style="stroke:#0078D4;stroke-width:3;"/><text fill="#000000" font-family="sans-serif" font-size="14" lengthAdjust="spacing" textLength="172.7783" x="304.7031" y="341.3945">Cross-workspace queries</text><path d="M251.7031,317.6152 L261.7031,317.6152 C276.7031,317.6152 276.7031,336.1035 291.7031,336.1035 L301.7031,336.1035" fill="none" style="stroke:#0078D4;stroke-width:3;"/><path d="M127.7949,177.9297 L137.7949,177.9297 C152.7949,177.9297 152.7949,317.6152 167.7949,317.6152 L177.7949,317.6152" fill="none" style="stroke:#FF5F46;stroke-width:3;"/><?plantuml-src VLFRRjD047ttLuo4X20IgHFQSb65chfO0YBKsoCIsgp7zYhhNNTtbjIj-7TcROT0KDWdp-sSCsVaSq_2KQDCqOWsEVFKQVoGl2-mfVf5-XAU4k1t8UIwSZQO8hFQEdYMvoVvyMbVMog3_sPpQsZCbltxtNjNAxasw3sydgR9potNx21NchvvUtcypxMN_HjrJq7UlntN_21NMQxUfUa-rrxslrnf_vXhPHzqx7aws75sDDezWQMju9OS2hv4zSqidAmLeQJWC9bCu5AGW5pR3GUJxtsuSYp2GuK6dI3qW3_Ga1yQ5eyy28KIbR6Ub0IFH8mybcziY1DaUzw54RhZfh7uoLJe2GjGXXkOYBSOAjS1NGSRHJLykLv6NHyZ9znrxRObqu5d7KXUXPGrHnpmIlttqF7Phi05u-4vb49frZcEVhM4AslNW0yemsxWAY9upp78MaHnaJcpfbHLS7yW3qktrf7GSU7GZW1QK6bT0w9WAHxaE8exCm5DnOT5rrTzQ7hNR_0-A8VDpjShZbHeeDN2W1lAnL2QdG2ZisdHlIYMMT78BW9Ty95AjGN96Cy9hHxPOsqh9gw6mYr_QOo-eok57FLbpdh_QcFTshUSX7k-Wc8Jpj4Ks_yscKtdwVnqEly5?></g></svg>