<?plantuml 1.2026.2?><svg xmlns="http://www.w3.org/2000/svg" xmlns:xlink="http://www.w3.org/1999/xlink" contentStyleType="text/css" data-diagram-type="MINDMAP" height="405px" preserveAspectRatio="none" style="width:619px;height:405px;background:#FFFFFF;" version="1.1" viewBox="0 0 619 405" width="619px" zoomAndPan="magnify"><defs/><g><rect fill="#FF5F46" height="52.9766" rx="12.5" ry="12.5" style="stroke:#FF5F46;stroke-width:3;" width="96.7676" x="10" y="175.0635"/><text fill="#FFFFFF" font-family="sans-serif" font-size="14" lengthAdjust="spacing" textLength="76.7676" x="20" y="198.5986">Query Logs</text><text fill="#FFFFFF" font-family="sans-serif" font-size="14" lengthAdjust="spacing" textLength="60.6689" x="20" y="215.0869">with KQL</text><rect fill="#0078D4" height="36.4883" rx="12.5" ry="12.5" style="stroke:#0078D4;stroke-width:3;" width="66.0742" x="156.7676" y="20"/><text fill="#FFFFFF" font-family="sans-serif" font-size="14" lengthAdjust="spacing" textLength="46.0742" x="166.7676" y="43.5352">Access</text><text fill="#000000" font-family="sans-serif" font-size="14" lengthAdjust="spacing" textLength="84.4854" x="275.8418" y="25.0469">Azure portal</text><path d="M222.8418,38.2441 L232.8418,38.2441 C247.8418,38.2441 247.8418,19.7559 262.8418,19.7559 L272.8418,19.7559" fill="none" style="stroke:#0078D4;stroke-width:3;"/><text fill="#000000" font-family="sans-serif" font-size="14" lengthAdjust="spacing" textLength="166.6328" x="275.8418" y="43.5352">Log Analytics workspace</text><path d="M222.8418,38.2441 L232.8418,38.2441 C247.8418,38.2441 247.8418,38.2441 262.8418,38.2441 L272.8418,38.2441" fill="none" style="stroke:#0078D4;stroke-width:3;"/><text fill="#000000" font-family="sans-serif" font-size="14" lengthAdjust="spacing" textLength="121.0098" x="275.8418" y="62.0234">Logs sidebar item</text><path d="M222.8418,38.2441 L232.8418,38.2441 C247.8418,38.2441 247.8418,56.7324 262.8418,56.7324 L272.8418,56.7324" fill="none" style="stroke:#0078D4;stroke-width:3;"/><path d="M106.7676,201.5518 L116.7676,201.5518 C131.7676,201.5518 131.7676,38.2441 146.7676,38.2441 L156.7676,38.2441" fill="none" style="stroke:#FF5F46;stroke-width:3;"/><rect fill="#0078D4" height="36.4883" rx="12.5" ry="12.5" style="stroke:#0078D4;stroke-width:3;" width="165.2227" x="156.7676" y="93.9531"/><text fill="#FFFFFF" font-family="sans-serif" font-size="14" lengthAdjust="spacing" textLength="145.2227" x="166.7676" y="117.4883">Basic Query Structure</text><text fill="#000000" font-family="sans-serif" font-size="14" lengthAdjust="spacing" textLength="78.9619" x="374.9902" y="80.5117">Table name</text><path d="M321.9902,112.1973 L331.9902,112.1973 C346.9902,112.1973 346.9902,75.2207 361.9902,75.2207 L371.9902,75.2207" fill="none" style="stroke:#0078D4;stroke-width:3;"/><text fill="#000000" font-family="sans-serif" font-size="14" lengthAdjust="spacing" textLength="96.0039" x="374.9902" y="99">| where (filter)</text><path d="M321.9902,112.1973 L331.9902,112.1973 C346.9902,112.1973 346.9902,93.709 361.9902,93.709 L371.9902,93.709" fill="none" style="stroke:#0078D4;stroke-width:3;"/><text fill="#000000" font-family="sans-serif" font-size="14" lengthAdjust="spacing" textLength="171.8213" x="374.9902" y="117.4883">| project (select columns)</text><path d="M321.9902,112.1973 L331.9902,112.1973 C346.9902,112.1973 346.9902,112.1973 361.9902,112.1973 L371.9902,112.1973" fill="none" style="stroke:#0078D4;stroke-width:3;"/><text fill="#000000" font-family="sans-serif" font-size="14" lengthAdjust="spacing" textLength="66.8828" x="374.9902" y="135.9766">| order by</text><path d="M321.9902,112.1973 L331.9902,112.1973 C346.9902,112.1973 346.9902,130.6855 361.9902,130.6855 L371.9902,130.6855" fill="none" style="stroke:#0078D4;stroke-width:3;"/><text fill="#000000" font-family="sans-serif" font-size="14" lengthAdjust="spacing" textLength="82.5918" x="374.9902" y="154.4648">| take (limit)</text><path d="M321.9902,112.1973 L331.9902,112.1973 C346.9902,112.1973 346.9902,149.1738 361.9902,149.1738 L371.9902,149.1738" fill="none" style="stroke:#0078D4;stroke-width:3;"/><path d="M106.7676,201.5518 L116.7676,201.5518 C131.7676,201.5518 131.7676,112.1973 146.7676,112.1973 L156.7676,112.1973" fill="none" style="stroke:#FF5F46;stroke-width:3;"/><rect fill="#0078D4" height="36.4883" rx="12.5" ry="12.5" style="stroke:#0078D4;stroke-width:3;" width="176.9941" x="156.7676" y="177.1504"/><text fill="#FFFFFF" font-family="sans-serif" font-size="14" lengthAdjust="spacing" textLength="156.9941" x="166.7676" y="200.6855">Investigate Job Failures</text><text fill="#000000" font-family="sans-serif" font-size="14" lengthAdjust="spacing" textLength="220.2607" x="386.7617" y="172.9531">where Response contains "error"</text><path d="M333.7617,195.3945 L343.7617,195.3945 C358.7617,195.3945 358.7617,167.6621 373.7617,167.6621 L383.7617,167.6621" fill="none" style="stroke:#0078D4;stroke-width:3;"/><text fill="#000000" font-family="sans-serif" font-size="14" lengthAdjust="spacing" textLength="216.4053" x="386.7617" y="191.4414">| summarize by OperationName</text><path d="M333.7617,195.3945 L343.7617,195.3945 C358.7617,195.3945 358.7617,186.1504 373.7617,186.1504 L383.7617,186.1504" fill="none" style="stroke:#0078D4;stroke-width:3;"/><text fill="#000000" font-family="sans-serif" font-size="14" lengthAdjust="spacing" textLength="170.1943" x="386.7617" y="209.9297">| bin(TimeGenerated, 1h)</text><path d="M333.7617,195.3945 L343.7617,195.3945 C358.7617,195.3945 358.7617,204.6387 373.7617,204.6387 L383.7617,204.6387" fill="none" style="stroke:#0078D4;stroke-width:3;"/><text fill="#000000" font-family="sans-serif" font-size="14" lengthAdjust="spacing" textLength="139.9043" x="386.7617" y="228.418">Spot systemic issues</text><path d="M333.7617,195.3945 L343.7617,195.3945 C358.7617,195.3945 358.7617,223.127 373.7617,223.127 L383.7617,223.127" fill="none" style="stroke:#0078D4;stroke-width:3;"/><path d="M106.7676,201.5518 L116.7676,201.5518 C131.7676,201.5518 131.7676,195.3945 146.7676,195.3945 L156.7676,195.3945" fill="none" style="stroke:#FF5F46;stroke-width:3;"/><rect fill="#0078D4" height="36.4883" rx="12.5" ry="12.5" style="stroke:#0078D4;stroke-width:3;" width="155.9463" x="156.7676" y="233.6387"/><text fill="#FFFFFF" font-family="sans-serif" font-size="14" lengthAdjust="spacing" textLength="135.9463" x="166.7676" y="257.1738">Track Cluster Usage</text><text fill="#000000" font-family="sans-serif" font-size="14" lengthAdjust="spacing" textLength="206.7461" x="365.7139" y="247.9297">summarize by OperationName</text><path d="M312.7139,251.8828 L322.7139,251.8828 C337.7139,251.8828 337.7139,242.6387 352.7139,242.6387 L362.7139,242.6387" fill="none" style="stroke:#0078D4;stroke-width:3;"/><text fill="#000000" font-family="sans-serif" font-size="14" lengthAdjust="spacing" textLength="122.8281" x="365.7139" y="266.418">Count event types</text><path d="M312.7139,251.8828 L322.7139,251.8828 C337.7139,251.8828 337.7139,261.127 352.7139,261.127 L362.7139,261.127" fill="none" style="stroke:#0078D4;stroke-width:3;"/><path d="M106.7676,201.5518 L116.7676,201.5518 C131.7676,201.5518 131.7676,251.8828 146.7676,251.8828 L156.7676,251.8828" fill="none" style="stroke:#FF5F46;stroke-width:3;"/><rect fill="#0078D4" height="36.4883" rx="12.5" ry="12.5" style="stroke:#0078D4;stroke-width:3;" width="168.5654" x="156.7676" y="290.127"/><text fill="#FFFFFF" font-family="sans-serif" font-size="14" lengthAdjust="spacing" textLength="148.5654" x="166.7676" y="313.6621">Monitor Unity Catalog</text><text fill="#000000" font-family="sans-serif" font-size="14" lengthAdjust="spacing" textLength="225.3398" x="378.333" y="304.418">Filter getTable / selectFromTable</text><path d="M325.333,308.3711 L335.333,308.3711 C350.333,308.3711 350.333,299.127 365.333,299.127 L375.333,299.127" fill="none" style="stroke:#0078D4;stroke-width:3;"/><text fill="#000000" font-family="sans-serif" font-size="14" lengthAdjust="spacing" textLength="120.1826" x="378.333" y="322.9063">Track data access</text><path d="M325.333,308.3711 L335.333,308.3711 C350.333,308.3711 350.333,317.6152 365.333,317.6152 L375.333,317.6152" fill="none" style="stroke:#0078D4;stroke-width:3;"/><path d="M106.7676,201.5518 L116.7676,201.5518 C131.7676,201.5518 131.7676,308.3711 146.7676,308.3711 L156.7676,308.3711" fill="none" style="stroke:#FF5F46;stroke-width:3;"/><rect fill="#0078D4" height="36.4883" rx="12.5" ry="12.5" style="stroke:#0078D4;stroke-width:3;" width="93.6846" x="156.7676" y="346.6152"/><text fill="#FFFFFF" font-family="sans-serif" font-size="14" lengthAdjust="spacing" textLength="73.6846" x="166.7676" y="370.1504">Query Tips</text><text fill="#000000" font-family="sans-serif" font-size="14" lengthAdjust="spacing" textLength="154.9502" x="303.4521" y="351.6621">Save to Query explorer</text><path d="M250.4521,364.8594 L260.4521,364.8594 C275.4521,364.8594 275.4521,346.3711 290.4521,346.3711 L300.4521,346.3711" fill="none" style="stroke:#0078D4;stroke-width:3;"/><text fill="#000000" font-family="sans-serif" font-size="14" lengthAdjust="spacing" textLength="130.4912" x="303.4521" y="370.1504">Organize in folders</text><path d="M250.4521,364.8594 L260.4521,364.8594 C275.4521,364.8594 275.4521,364.8594 290.4521,364.8594 L300.4521,364.8594" fill="none" style="stroke:#0078D4;stroke-width:3;"/><text fill="#000000" font-family="sans-serif" font-size="14" lengthAdjust="spacing" textLength="108.9443" x="303.4521" y="388.6387">Share with team</text><path d="M250.4521,364.8594 L260.4521,364.8594 C275.4521,364.8594 275.4521,383.3477 290.4521,383.3477 L300.4521,383.3477" fill="none" style="stroke:#0078D4;stroke-width:3;"/><path d="M106.7676,201.5518 L116.7676,201.5518 C131.7676,201.5518 131.7676,364.8594 146.7676,364.8594 L156.7676,364.8594" fill="none" style="stroke:#FF5F46;stroke-width:3;"/><?plantuml-src XLJlRzCm4FsUl-8qldJLrALbZ1-QqBgY84PX6ks-8I4dkIQcZXtPbtRPsF_E9N4A51Ny8OdVdT-xl3lvqf6mL4YT5g8CBXpL2jy6Rr8iAH-4n_0O0AyhaQmpQogTpemo5fv5qOlexBoDpQN6lz78QFBegbsxt6KkaxL6v-3vA0oUUgtnGQqmVFdgtTc-rXxw9-jU1L6xVcbD3cgjLl7hCDpNsaF_gHMsYxLYSw-QdCU36HUdtkuXt5PeQvYRp7tLMqavVBoT1yCXJ9E4EVXh-0sc3vL5A8qbeJg4ys6gXQf99WwsngvTAHBS1HqucM8iB4Z2ek6x4aucNcr1jag8ERlyfOWLWXQ5t_-0ROuiE5X9HMYFUxIqvZic10E7gdadHbM5ThkuiIbQYEj-JsBD94eMafeS-A0tw4XcWX2kJGoHa8gBy3_PQNv1LnhjaCar2QaT7A6rnXxrfAug2c7b0x8Gt9He1KcZF_zMV2prO2aBV8-wYM9w0kFS5xae3O6h7Pl2RaZdgbOUbfRd0MQgueY5EoSoJ_S_kHcF405ka9zKbntR9wCbSSFl-5N3J73RJDRbHwsba25rhfz2PsPaJT4YlYLjFIcV1D4FWc_UKfRUiONO893nEDwNF6HekzYDpOHkofOQLaPnO_f3kM2RsqaZ54LmYNm1-4iW68ycuUHyDFa9?></g></svg>