<?plantuml 1.2026.2?><svg xmlns="http://www.w3.org/2000/svg" xmlns:xlink="http://www.w3.org/1999/xlink" contentStyleType="text/css" data-diagram-type="MINDMAP" height="321px" preserveAspectRatio="none" style="width:704px;height:321px;background:#FFFFFF;" version="1.1" viewBox="0 0 704 321" width="704px" zoomAndPan="magnify"><defs/><g><rect fill="#FF5F46" height="52.9766" rx="12.5" ry="12.5" style="stroke:#FF5F46;stroke-width:3;" width="156.1582" x="10" y="133.209"/><text fill="#FFFFFF" font-family="sans-serif" font-size="14" lengthAdjust="spacing" textLength="128.0576" x="20" y="156.7441">Apply Log Analysis</text><text fill="#FFFFFF" font-family="sans-serif" font-size="14" lengthAdjust="spacing" textLength="136.1582" x="20" y="173.2324">for Troubleshooting</text><rect fill="#0078D4" height="36.4883" rx="12.5" ry="12.5" style="stroke:#0078D4;stroke-width:3;" width="98.8799" x="216.1582" y="20"/><text fill="#FFFFFF" font-family="sans-serif" font-size="14" lengthAdjust="spacing" textLength="78.8799" x="226.1582" y="43.5352">Job Failures</text><text fill="#000000" font-family="sans-serif" font-size="14" lengthAdjust="spacing" textLength="141.4971" x="368.0381" y="25.0469">Start: DatabricksJobs</text><path d="M315.0381,38.2441 L325.0381,38.2441 C340.0381,38.2441 340.0381,19.7559 355.0381,19.7559 L365.0381,19.7559" fill="none" style="stroke:#0078D4;stroke-width:3;"/><text fill="#000000" font-family="sans-serif" font-size="14" lengthAdjust="spacing" textLength="201.6465" x="368.0381" y="43.5352">Cross-ref: DatabricksClusters</text><path d="M315.0381,38.2441 L325.0381,38.2441 C340.0381,38.2441 340.0381,38.2441 355.0381,38.2441 L365.0381,38.2441" fill="none" style="stroke:#0078D4;stroke-width:3;"/><text fill="#000000" font-family="sans-serif" font-size="14" lengthAdjust="spacing" textLength="220.1787" x="368.0381" y="62.0234">Also check: DatabricksNotebook</text><path d="M315.0381,38.2441 L325.0381,38.2441 C340.0381,38.2441 340.0381,56.7324 355.0381,56.7324 L365.0381,56.7324" fill="none" style="stroke:#0078D4;stroke-width:3;"/><path d="M166.1582,159.6973 L176.1582,159.6973 C191.1582,159.6973 191.1582,38.2441 206.1582,38.2441 L216.1582,38.2441" fill="none" style="stroke:#FF5F46;stroke-width:3;"/><rect fill="#0078D4" height="36.4883" rx="12.5" ry="12.5" style="stroke:#0078D4;stroke-width:3;" width="151.5645" x="216.1582" y="76.4883"/><text fill="#FFFFFF" font-family="sans-serif" font-size="14" lengthAdjust="spacing" textLength="131.5645" x="226.1582" y="100.0234">Performance Issues</text><text fill="#000000" font-family="sans-serif" font-size="14" lengthAdjust="spacing" textLength="96.6602" x="420.7227" y="81.5352">Cluster events</text><path d="M367.7227,94.7324 L377.7227,94.7324 C392.7227,94.7324 392.7227,76.2441 407.7227,76.2441 L417.7227,76.2441" fill="none" style="stroke:#0078D4;stroke-width:3;"/><text fill="#000000" font-family="sans-serif" font-size="14" lengthAdjust="spacing" textLength="140.5332" x="420.7227" y="100.0234">Autoscaling patterns</text><path d="M367.7227,94.7324 L377.7227,94.7324 C392.7227,94.7324 392.7227,94.7324 407.7227,94.7324 L417.7227,94.7324" fill="none" style="stroke:#0078D4;stroke-width:3;"/><text fill="#000000" font-family="sans-serif" font-size="14" lengthAdjust="spacing" textLength="207.7646" x="420.7227" y="118.5117">Frequent scaling = undersized</text><path d="M367.7227,94.7324 L377.7227,94.7324 C392.7227,94.7324 392.7227,113.2207 407.7227,113.2207 L417.7227,113.2207" fill="none" style="stroke:#0078D4;stroke-width:3;"/><path d="M166.1582,159.6973 L176.1582,159.6973 C191.1582,159.6973 191.1582,94.7324 206.1582,94.7324 L216.1582,94.7324" fill="none" style="stroke:#FF5F46;stroke-width:3;"/><rect fill="#0078D4" height="36.4883" rx="12.5" ry="12.5" style="stroke:#0078D4;stroke-width:3;" width="139.5674" x="216.1582" y="141.709"/><text fill="#FFFFFF" font-family="sans-serif" font-size="14" lengthAdjust="spacing" textLength="119.5674" x="226.1582" y="165.2441">Security Incidents</text><text fill="#000000" font-family="sans-serif" font-size="14" lengthAdjust="spacing" textLength="159.0107" x="408.7256" y="137.5117">DatabricksUnityCatalog</text><path d="M355.7256,159.9531 L365.7256,159.9531 C380.7256,159.9531 380.7256,132.2207 395.7256,132.2207 L405.7256,132.2207" fill="none" style="stroke:#0078D4;stroke-width:3;"/><text fill="#000000" font-family="sans-serif" font-size="14" lengthAdjust="spacing" textLength="120.6748" x="408.7256" y="156">DatabricksSecrets</text><path d="M355.7256,159.9531 L365.7256,159.9531 C380.7256,159.9531 380.7256,150.709 395.7256,150.709 L405.7256,150.709" fill="none" style="stroke:#0078D4;stroke-width:3;"/><text fill="#000000" font-family="sans-serif" font-size="14" lengthAdjust="spacing" textLength="179.1699" x="408.7256" y="174.4883">Correlate SourceIPAddress</text><path d="M355.7256,159.9531 L365.7256,159.9531 C380.7256,159.9531 380.7256,169.1973 395.7256,169.1973 L405.7256,169.1973" fill="none" style="stroke:#0078D4;stroke-width:3;"/><text fill="#000000" font-family="sans-serif" font-size="14" lengthAdjust="spacing" textLength="168.9434" x="408.7256" y="192.9766">Unusual access locations</text><path d="M355.7256,159.9531 L365.7256,159.9531 C380.7256,159.9531 380.7256,187.6855 395.7256,187.6855 L405.7256,187.6855" fill="none" style="stroke:#0078D4;stroke-width:3;"/><path d="M166.1582,159.6973 L176.1582,159.6973 C191.1582,159.6973 191.1582,159.9531 206.1582,159.9531 L216.1582,159.9531" fill="none" style="stroke:#FF5F46;stroke-width:3;"/><rect fill="#0078D4" height="36.4883" rx="12.5" ry="12.5" style="stroke:#0078D4;stroke-width:3;" width="129.0674" x="216.1582" y="206.418"/><text fill="#FFFFFF" font-family="sans-serif" font-size="14" lengthAdjust="spacing" textLength="109.0674" x="226.1582" y="229.9531">Cost Attribution</text><text fill="#000000" font-family="sans-serif" font-size="14" lengthAdjust="spacing" textLength="185.541" x="398.2256" y="211.4648">Combine cluster + job logs</text><path d="M345.2256,224.6621 L355.2256,224.6621 C370.2256,224.6621 370.2256,206.1738 385.2256,206.1738 L395.2256,206.1738" fill="none" style="stroke:#0078D4;stroke-width:3;"/><text fill="#000000" font-family="sans-serif" font-size="14" lengthAdjust="spacing" textLength="136.4385" x="398.2256" y="229.9531">Azure cost data join</text><path d="M345.2256,224.6621 L355.2256,224.6621 C370.2256,224.6621 370.2256,224.6621 385.2256,224.6621 L395.2256,224.6621" fill="none" style="stroke:#0078D4;stroke-width:3;"/><text fill="#000000" font-family="sans-serif" font-size="14" lengthAdjust="spacing" textLength="171.9717" x="398.2256" y="248.4414">Team/project breakdown</text><path d="M345.2256,224.6621 L355.2256,224.6621 C370.2256,224.6621 370.2256,243.1504 385.2256,243.1504 L395.2256,243.1504" fill="none" style="stroke:#0078D4;stroke-width:3;"/><path d="M166.1582,159.6973 L176.1582,159.6973 C191.1582,159.6973 191.1582,224.6621 206.1582,224.6621 L216.1582,224.6621" fill="none" style="stroke:#FF5F46;stroke-width:3;"/><rect fill="#0078D4" height="36.4883" rx="12.5" ry="12.5" style="stroke:#0078D4;stroke-width:3;" width="193.9883" x="216.1582" y="262.9063"/><text fill="#FFFFFF" font-family="sans-serif" font-size="14" lengthAdjust="spacing" textLength="173.9883" x="226.1582" y="286.4414">Value of Centralized Logs</text><text fill="#000000" font-family="sans-serif" font-size="14" lengthAdjust="spacing" textLength="156.2354" x="463.1465" y="267.9531">Day-to-day operations</text><path d="M410.1465,281.1504 L420.1465,281.1504 C435.1465,281.1504 435.1465,262.6621 450.1465,262.6621 L460.1465,262.6621" fill="none" style="stroke:#0078D4;stroke-width:3;"/><text fill="#000000" font-family="sans-serif" font-size="14" lengthAdjust="spacing" textLength="137.2793" x="463.1465" y="286.4414">Long-term planning</text><path d="M410.1465,281.1504 L420.1465,281.1504 C435.1465,281.1504 435.1465,281.1504 450.1465,281.1504 L460.1465,281.1504" fill="none" style="stroke:#0078D4;stroke-width:3;"/><text fill="#000000" font-family="sans-serif" font-size="14" lengthAdjust="spacing" textLength="229.4346" x="463.1465" y="304.9297">Comprehensive environment view</text><path d="M410.1465,281.1504 L420.1465,281.1504 C435.1465,281.1504 435.1465,299.6387 450.1465,299.6387 L460.1465,299.6387" fill="none" style="stroke:#0078D4;stroke-width:3;"/><path d="M166.1582,159.6973 L176.1582,159.6973 C191.1582,159.6973 191.1582,281.1504 206.1582,281.1504 L216.1582,281.1504" fill="none" style="stroke:#FF5F46;stroke-width:3;"/><?plantuml-src VLDTRzD047pthrY95mXAwePIe2gemPMbe0XLIieJ4ZgVryarvrjp7obknNzdxTf9CGhtTZkpExExTrVE2-jBPV9ILD6byxN6Jz55ZfNVl8nVmMC4V3uBkLrR2YPFI9E55sdwDZqxRx65ClXlD2NZksZHdZrtjL5oQz0vU3E9ez-zrkbHhJX-z_xwRAWrYFvTTU0WRSz1QtfKgoYo3t4yr1f4_wiLjuUrClgb6yxZKSRbIJVk4SogIjUme3NCZD2rK-wxAPYyOdCPbzaGUMNMqMW4NoY3L2WTB3g-Ztx0ibdX1LmBBpBBrXnJEYYnvDpOOl4SJdHm7cr7cMb783SejyyvNybZHhHj56_GifTI68amToxqkbqTm1qQtrSBdfmKcir29Jp3faDIYpy34w67FmBFdMse1ymRcINAO9MlOMwaoWyb3wPk3SC9NpMjXnXdM-nJ4h8MjV08ImfMulncbkSyhmw-DS45eK58sMn8anHUKMkKKvs7cVTMPQ49zWNBZ3SFiclvDTpn6jX6t_O3hmDaavkp9KPLbxb2KPvKbkvGUiWiYcrEzmq6tuGE25H0mhrQdWdFeNa2-xRhiQTnBcgW2ktU8KCBCkinsoYXqiAOfuVnvBAok47Zr0u1pKvPCcKpyvt2--WA-PTtFpqwdKpZwVba-WS0?></g></svg>