<?plantuml 1.2026.2?><svg xmlns="http://www.w3.org/2000/svg" xmlns:xlink="http://www.w3.org/1999/xlink" contentStyleType="text/css" data-diagram-type="MINDMAP" height="321px" preserveAspectRatio="none" style="width:689px;height:321px;background:#FFFFFF;" version="1.1" viewBox="0 0 689 321" width="689px" zoomAndPan="magnify"><defs/><g><rect fill="#FF5F46" height="52.9766" rx="12.5" ry="12.5" style="stroke:#FF5F46;stroke-width:3;" width="104.9434" x="10" y="133.4648"/><text fill="#FFFFFF" font-family="sans-serif" font-size="14" lengthAdjust="spacing" textLength="70.1777" x="20" y="157">Create Job</text><text fill="#FFFFFF" font-family="sans-serif" font-size="14" lengthAdjust="spacing" textLength="84.9434" x="20" y="173.4883">&amp; Add Tasks</text><rect fill="#0078D4" height="36.4883" rx="12.5" ry="12.5" style="stroke:#0078D4;stroke-width:3;" width="56.5244" x="164.9434" y="28.7324"/><text fill="#FFFFFF" font-family="sans-serif" font-size="14" lengthAdjust="spacing" textLength="36.5244" x="174.9434" y="52.2676">Steps</text><text fill="#000000" font-family="sans-serif" font-size="14" lengthAdjust="spacing" textLength="213.3633" x="274.4678" y="24.5352">Jobs &amp; Pipelines &gt; Create &gt; Job</text><path d="M221.4678,46.9766 L231.4678,46.9766 C246.4678,46.9766 246.4678,19.2441 261.4678,19.2441 L271.4678,19.2441" fill="none" style="stroke:#0078D4;stroke-width:3;"/><text fill="#000000" font-family="sans-serif" font-size="14" lengthAdjust="spacing" textLength="155.0254" x="274.4678" y="43.0234">Enter descriptive name</text><path d="M221.4678,46.9766 L231.4678,46.9766 C246.4678,46.9766 246.4678,37.7324 261.4678,37.7324 L271.4678,37.7324" fill="none" style="stroke:#0078D4;stroke-width:3;"/><text fill="#000000" font-family="sans-serif" font-size="14" lengthAdjust="spacing" textLength="142.7959" x="274.4678" y="61.5117">Set task name &amp; type</text><path d="M221.4678,46.9766 L231.4678,46.9766 C246.4678,46.9766 246.4678,56.2207 261.4678,56.2207 L271.4678,56.2207" fill="none" style="stroke:#0078D4;stroke-width:3;"/><text fill="#000000" font-family="sans-serif" font-size="14" lengthAdjust="spacing" textLength="214.8125" x="274.4678" y="80">Configure task-specific options</text><path d="M221.4678,46.9766 L231.4678,46.9766 C246.4678,46.9766 246.4678,74.709 261.4678,74.709 L271.4678,74.709" fill="none" style="stroke:#0078D4;stroke-width:3;"/><path d="M114.9434,159.9531 L124.9434,159.9531 C139.9434,159.9531 139.9434,46.9766 154.9434,46.9766 L164.9434,46.9766" fill="none" style="stroke:#FF5F46;stroke-width:3;"/><rect fill="#0078D4" height="36.4883" rx="12.5" ry="12.5" style="stroke:#0078D4;stroke-width:3;" width="158.9951" x="164.9434" y="178.6855"/><text fill="#FFFFFF" font-family="sans-serif" font-size="14" lengthAdjust="spacing" textLength="138.9951" x="174.9434" y="202.2207">Task Config by Type</text><rect fill="#FFB900" height="36.4883" rx="12.5" ry="12.5" style="stroke:#FFB900;stroke-width:3;" width="86.1719" x="373.9385" y="93.9531"/><text fill="#000000" font-family="sans-serif" font-size="14" lengthAdjust="spacing" textLength="66.1719" x="383.9385" y="117.4883">Notebook</text><text fill="#000000" font-family="sans-serif" font-size="14" lengthAdjust="spacing" textLength="101.0693" x="513.1104" y="108.2441">Notebook path</text><path d="M460.1104,112.1973 L470.1104,112.1973 C485.1104,112.1973 485.1104,102.9531 500.1104,102.9531 L510.1104,102.9531" fill="none" style="stroke:#FFB900;stroke-width:3;"/><text fill="#000000" font-family="sans-serif" font-size="14" lengthAdjust="spacing" textLength="75.7012" x="513.1104" y="126.7324">Parameters</text><path d="M460.1104,112.1973 L470.1104,112.1973 C485.1104,112.1973 485.1104,121.4414 500.1104,121.4414 L510.1104,121.4414" fill="none" style="stroke:#FFB900;stroke-width:3;"/><path d="M323.9385,196.9297 L333.9385,196.9297 C348.9385,196.9297 348.9385,112.1973 363.9385,112.1973 L373.9385,112.1973" fill="none" style="stroke:#0078D4;stroke-width:3;"/><rect fill="#FFB900" height="36.4883" rx="12.5" ry="12.5" style="stroke:#FFB900;stroke-width:3;" width="109.2295" x="373.9385" y="150.4414"/><text fill="#000000" font-family="sans-serif" font-size="14" lengthAdjust="spacing" textLength="89.2295" x="383.9385" y="173.9766">Python Script</text><text fill="#000000" font-family="sans-serif" font-size="14" lengthAdjust="spacing" textLength="73.4316" x="536.168" y="164.7324">Script path</text><path d="M483.168,168.6855 L493.168,168.6855 C508.168,168.6855 508.168,159.4414 523.168,159.4414 L533.168,159.4414" fill="none" style="stroke:#FFB900;stroke-width:3;"/><text fill="#000000" font-family="sans-serif" font-size="14" lengthAdjust="spacing" textLength="98.4238" x="536.168" y="183.2207">CLI arguments</text><path d="M483.168,168.6855 L493.168,168.6855 C508.168,168.6855 508.168,177.9297 523.168,177.9297 L533.168,177.9297" fill="none" style="stroke:#FFB900;stroke-width:3;"/><path d="M323.9385,196.9297 L333.9385,196.9297 C348.9385,196.9297 348.9385,168.6855 363.9385,168.6855 L373.9385,168.6855" fill="none" style="stroke:#0078D4;stroke-width:3;"/><rect fill="#FFB900" height="36.4883" rx="12.5" ry="12.5" style="stroke:#FFB900;stroke-width:3;" width="45.8809" x="373.9385" y="206.9297"/><text fill="#000000" font-family="sans-serif" font-size="14" lengthAdjust="spacing" textLength="25.8809" x="383.9385" y="230.4648">SQL</text><text fill="#000000" font-family="sans-serif" font-size="14" lengthAdjust="spacing" textLength="68.79" x="472.8193" y="221.2207">Query/file</text><path d="M419.8193,225.1738 L429.8193,225.1738 C444.8193,225.1738 444.8193,215.9297 459.8193,215.9297 L469.8193,215.9297" fill="none" style="stroke:#FFB900;stroke-width:3;"/><text fill="#000000" font-family="sans-serif" font-size="14" lengthAdjust="spacing" textLength="103.2705" x="472.8193" y="239.709">SQL warehouse</text><path d="M419.8193,225.1738 L429.8193,225.1738 C444.8193,225.1738 444.8193,234.418 459.8193,234.418 L469.8193,234.418" fill="none" style="stroke:#FFB900;stroke-width:3;"/><path d="M323.9385,196.9297 L333.9385,196.9297 C348.9385,196.9297 348.9385,225.1738 363.9385,225.1738 L373.9385,225.1738" fill="none" style="stroke:#0078D4;stroke-width:3;"/><rect fill="#FFB900" height="36.4883" rx="12.5" ry="12.5" style="stroke:#FFB900;stroke-width:3;" width="72.9785" x="373.9385" y="263.418"/><text fill="#000000" font-family="sans-serif" font-size="14" lengthAdjust="spacing" textLength="52.9785" x="383.9385" y="286.9531">Pipeline</text><text fill="#000000" font-family="sans-serif" font-size="14" lengthAdjust="spacing" textLength="177.4951" x="499.917" y="286.9531">Existing pipeline selection</text><path d="M446.917,281.6621 L456.917,281.6621 C471.917,281.6621 471.917,281.6621 486.917,281.6621 L496.917,281.6621" fill="none" style="stroke:#FFB900;stroke-width:3;"/><path d="M323.9385,196.9297 L333.9385,196.9297 C348.9385,196.9297 348.9385,281.6621 363.9385,281.6621 L373.9385,281.6621" fill="none" style="stroke:#0078D4;stroke-width:3;"/><path d="M114.9434,159.9531 L124.9434,159.9531 C139.9434,159.9531 139.9434,196.9297 154.9434,196.9297 L164.9434,196.9297" fill="none" style="stroke:#FF5F46;stroke-width:3;"/><?plantuml-src VLDTIyCm57tlhxWWY0wSTNxB6DDfGHcoiJqAahQtQrYNXEHMBU9_DqrJFohpFkMUS-uz9w4T6sAQDboa6wQ2eQ6gm55mbQAYV2_SX_S0RDsmPBtIiXJfH1PImquKdKOdPuwRSe5_qKWAycZcwakxp7co5cWC7FV3uAFrEjhg5ORd5xSdNQyE-djh9q7awjjhiDKho-BBCEnwTT1_lK9NrYkMRqMjUT-g61xwv-x1H2CZX0SPFubTk4vJM3ApDa6l1mj2LHzwppLjO1TcN65XSnWOjOEZccj4Tu9GGuecqLmHVq4GR8CDjq02ieiTP3THfJmpaIBZgrAZum-CmeHdF05fLqZXWjI9l0xY2fP-5XubOIpbkcxifhO5nIZts8nfQsXpkOl0hA9S2bYuX5xID3-79jDxO7fLRb1GCxUOJpqtBr5NXnali1sVJ-6LQSnbQPfOxIjvmTqRDyJ52fJ7mM21INsxO8psy_U_G73K7uI3i_xW4m00?></g></svg>