<?plantuml 1.2026.2?><svg xmlns="http://www.w3.org/2000/svg" xmlns:xlink="http://www.w3.org/1999/xlink" contentStyleType="text/css" data-diagram-type="MINDMAP" height="274px" preserveAspectRatio="none" style="width:588px;height:274px;background:#FFFFFF;" version="1.1" viewBox="0 0 588 274" width="588px" zoomAndPan="magnify"><defs/><g><rect fill="#FF5F46" height="52.9766" rx="12.5" ry="12.5" style="stroke:#FF5F46;stroke-width:3;" width="88.9131" x="10" y="109.5869"/><text fill="#FFFFFF" font-family="sans-serif" font-size="14" lengthAdjust="spacing" textLength="61.8926" x="20" y="133.1221">Compute</text><text fill="#FFFFFF" font-family="sans-serif" font-size="14" lengthAdjust="spacing" textLength="68.9131" x="20" y="149.6104">Resources</text><rect fill="#0078D4" height="36.4883" rx="12.5" ry="12.5" style="stroke:#0078D4;stroke-width:3;" width="87.9629" x="148.9131" y="28.7324"/><text fill="#FFFFFF" font-family="sans-serif" font-size="14" lengthAdjust="spacing" textLength="67.9629" x="158.9131" y="52.2676">Serverless</text><text fill="#000000" font-family="sans-serif" font-size="14" lengthAdjust="spacing" textLength="97.5488" x="289.876" y="24.5352">Default option</text><path d="M236.876,46.9766 L246.876,46.9766 C261.876,46.9766 261.876,19.2441 276.876,19.2441 L286.876,19.2441" fill="none" style="stroke:#0078D4;stroke-width:3;"/><text fill="#000000" font-family="sans-serif" font-size="14" lengthAdjust="spacing" textLength="140.9912" x="289.876" y="43.0234">Azure manages infra</text><path d="M236.876,46.9766 L246.876,46.9766 C261.876,46.9766 261.876,37.7324 276.876,37.7324 L286.876,37.7324" fill="none" style="stroke:#0078D4;stroke-width:3;"/><text fill="#000000" font-family="sans-serif" font-size="14" lengthAdjust="spacing" textLength="87.835" x="289.876" y="61.5117">Auto-scaling</text><path d="M236.876,46.9766 L246.876,46.9766 C261.876,46.9766 261.876,56.2207 276.876,56.2207 L286.876,56.2207" fill="none" style="stroke:#0078D4;stroke-width:3;"/><text fill="#000000" font-family="sans-serif" font-size="14" lengthAdjust="spacing" textLength="93.6865" x="289.876" y="80">Low overhead</text><path d="M236.876,46.9766 L246.876,46.9766 C261.876,46.9766 261.876,74.709 276.876,74.709 L286.876,74.709" fill="none" style="stroke:#0078D4;stroke-width:3;"/><path d="M98.9131,136.0752 L108.9131,136.0752 C123.9131,136.0752 123.9131,46.9766 138.9131,46.9766 L148.9131,46.9766" fill="none" style="stroke:#FF5F46;stroke-width:3;"/><rect fill="#0078D4" height="36.4883" rx="12.5" ry="12.5" style="stroke:#0078D4;stroke-width:3;" width="166.6104" x="148.9131" y="102.6855"/><text fill="#FFFFFF" font-family="sans-serif" font-size="14" lengthAdjust="spacing" textLength="146.6104" x="158.9131" y="126.2207">Classic Jobs Compute</text><text fill="#000000" font-family="sans-serif" font-size="14" lengthAdjust="spacing" textLength="127.0254" x="368.5234" y="98.4883">Full cluster control</text><path d="M315.5234,120.9297 L325.5234,120.9297 C340.5234,120.9297 340.5234,93.1973 355.5234,93.1973 L365.5234,93.1973" fill="none" style="stroke:#0078D4;stroke-width:3;"/><text fill="#000000" font-family="sans-serif" font-size="14" lengthAdjust="spacing" textLength="207.5186" x="368.5234" y="116.9766">Spark version &amp; instance types</text><path d="M315.5234,120.9297 L325.5234,120.9297 C340.5234,120.9297 340.5234,111.6855 355.5234,111.6855 L365.5234,111.6855" fill="none" style="stroke:#0078D4;stroke-width:3;"/><text fill="#000000" font-family="sans-serif" font-size="14" lengthAdjust="spacing" textLength="135.8232" x="368.5234" y="135.4648">Autoscaling policies</text><path d="M315.5234,120.9297 L325.5234,120.9297 C340.5234,120.9297 340.5234,130.1738 355.5234,130.1738 L365.5234,130.1738" fill="none" style="stroke:#0078D4;stroke-width:3;"/><text fill="#000000" font-family="sans-serif" font-size="14" lengthAdjust="spacing" textLength="111.9248" x="368.5234" y="153.9531">Custom libraries</text><path d="M315.5234,120.9297 L325.5234,120.9297 C340.5234,120.9297 340.5234,148.6621 355.5234,148.6621 L365.5234,148.6621" fill="none" style="stroke:#0078D4;stroke-width:3;"/><path d="M98.9131,136.0752 L108.9131,136.0752 C123.9131,136.0752 123.9131,120.9297 138.9131,120.9297 L148.9131,120.9297" fill="none" style="stroke:#FF5F46;stroke-width:3;"/><rect fill="#0078D4" height="36.4883" rx="12.5" ry="12.5" style="stroke:#0078D4;stroke-width:3;" width="124.46" x="148.9131" y="159.1738"/><text fill="#FFFFFF" font-family="sans-serif" font-size="14" lengthAdjust="spacing" textLength="104.46" x="158.9131" y="182.709">SQL Warehouse</text><text fill="#000000" font-family="sans-serif" font-size="14" lengthAdjust="spacing" textLength="125.0771" x="326.373" y="173.4648">For SQL tasks only</text><path d="M273.373,177.418 L283.373,177.418 C298.373,177.418 298.373,168.1738 313.373,168.1738 L323.373,168.1738" fill="none" style="stroke:#0078D4;stroke-width:3;"/><text fill="#000000" font-family="sans-serif" font-size="14" lengthAdjust="spacing" textLength="113.2168" x="326.373" y="191.9531">Serverless or Pro</text><path d="M273.373,177.418 L283.373,177.418 C298.373,177.418 298.373,186.6621 313.373,186.6621 L323.373,186.6621" fill="none" style="stroke:#0078D4;stroke-width:3;"/><path d="M98.9131,136.0752 L108.9131,136.0752 C123.9131,136.0752 123.9131,177.418 138.9131,177.418 L148.9131,177.418" fill="none" style="stroke:#FF5F46;stroke-width:3;"/><rect fill="#0078D4" height="36.4883" rx="12.5" ry="12.5" style="stroke:#0078D4;stroke-width:3;" width="137.4756" x="148.9131" y="215.6621"/><text fill="#FFFFFF" font-family="sans-serif" font-size="14" lengthAdjust="spacing" textLength="117.4756" x="158.9131" y="239.1973">Sharing Compute</text><text fill="#000000" font-family="sans-serif" font-size="14" lengthAdjust="spacing" textLength="143.8418" x="339.3887" y="220.709">Reduces startup time</text><path d="M286.3887,233.9063 L296.3887,233.9063 C311.3887,233.9063 311.3887,215.418 326.3887,215.418 L336.3887,215.418" fill="none" style="stroke:#0078D4;stroke-width:3;"/><text fill="#000000" font-family="sans-serif" font-size="14" lengthAdjust="spacing" textLength="164.2813" x="339.3887" y="239.1973">Cost during idle periods</text><path d="M286.3887,233.9063 L296.3887,233.9063 C311.3887,233.9063 311.3887,233.9063 326.3887,233.9063 L336.3887,233.9063" fill="none" style="stroke:#0078D4;stroke-width:3;"/><text fill="#000000" font-family="sans-serif" font-size="14" lengthAdjust="spacing" textLength="133.3828" x="339.3887" y="257.6855">Group related tasks</text><path d="M286.3887,233.9063 L296.3887,233.9063 C311.3887,233.9063 311.3887,252.3945 326.3887,252.3945 L336.3887,252.3945" fill="none" style="stroke:#0078D4;stroke-width:3;"/><path d="M98.9131,136.0752 L108.9131,136.0752 C123.9131,136.0752 123.9131,233.9063 138.9131,233.9063 L148.9131,233.9063" fill="none" style="stroke:#FF5F46;stroke-width:3;"/><?plantuml-src VPDlInmn4CRVxwSOA9HwqEjw_gcA5ElA5igzi5hmZL1ooUnjk6mcP1BRK_hTczlDAQvSvrsUcJo_oJ2vu21ywBHLdN35EOUrmI_5cK8NsW_b7ZmLaE9IoDNIKxIg8aCUtjNrKNrutEVcsk9RjIORijhqyLpxizLoPP4P3gPbyNVBsj_9AilF9rU7OzP8VUqwwg3kuuKrsybgciLfMOvP8_M_hBAFn5hG7xEfUTfPSVufZti25NKk1hotDyWKlKGk9XEuHV-0VkEIJfDVS8MDY2O0kQ393jhNn-WHEc754XcqRRp8YHZe8qjXj5qEofn-0oN35eNQs5T6C6i9tsd1smw6oZeQ0z943kX1fjOzcI5pwuHVGJBXr06yJy2qG5OYXBL3VY5dC3WoMkfjfagEr87H2o-ype_yCOSxuR6bo5jy6jD63e9N36JDEiEVvm6fujfJVxzDLedqwW4tg68Q8lJR7Hq4tULCHHn0nVwALWR1eTUaSeFVqZ8uy6X4G3NmYmjCdoD_a69_EYjdnzFPFm00?></g></svg>