<?plantuml 1.2026.2?><svg xmlns="http://www.w3.org/2000/svg" xmlns:xlink="http://www.w3.org/1999/xlink" contentStyleType="text/css" data-diagram-type="MINDMAP" height="294px" preserveAspectRatio="none" style="width:708px;height:294px;background:#FFFFFF;" version="1.1" viewBox="0 0 708 294" width="708px" zoomAndPan="magnify"><defs/><g><rect fill="#FF5F46" height="52.9766" rx="12.5" ry="12.5" style="stroke:#FF5F46;stroke-width:3;" width="115.04" x="10" y="119.5986"/><text fill="#FFFFFF" font-family="sans-serif" font-size="14" lengthAdjust="spacing" textLength="31.9033" x="20" y="143.1338">Task</text><text fill="#FFFFFF" font-family="sans-serif" font-size="14" lengthAdjust="spacing" textLength="95.04" x="20" y="159.6221">Dependencies</text><rect fill="#0078D4" height="36.4883" rx="12.5" ry="12.5" style="stroke:#0078D4;stroke-width:3;" width="113.6182" x="175.04" y="20"/><text fill="#FFFFFF" font-family="sans-serif" font-size="14" lengthAdjust="spacing" textLength="93.6182" x="185.04" y="43.5352">Configuration</text><text fill="#000000" font-family="sans-serif" font-size="14" lengthAdjust="spacing" textLength="133.5947" x="341.6582" y="25.0469">Select task in graph</text><path d="M288.6582,38.2441 L298.6582,38.2441 C313.6582,38.2441 313.6582,19.7559 328.6582,19.7559 L338.6582,19.7559" fill="none" style="stroke:#0078D4;stroke-width:3;"/><text fill="#000000" font-family="sans-serif" font-size="14" lengthAdjust="spacing" textLength="150.999" x="341.6582" y="43.5352">Set "Depends on" field</text><path d="M288.6582,38.2441 L298.6582,38.2441 C313.6582,38.2441 313.6582,38.2441 328.6582,38.2441 L338.6582,38.2441" fill="none" style="stroke:#0078D4;stroke-width:3;"/><text fill="#000000" font-family="sans-serif" font-size="14" lengthAdjust="spacing" textLength="173.5713" x="341.6582" y="62.0234">Choose "Run if" condition</text><path d="M288.6582,38.2441 L298.6582,38.2441 C313.6582,38.2441 313.6582,56.7324 328.6582,56.7324 L338.6582,56.7324" fill="none" style="stroke:#0078D4;stroke-width:3;"/><path d="M125.04,146.0869 L135.04,146.0869 C150.04,146.0869 150.04,38.2441 165.04,38.2441 L175.04,38.2441" fill="none" style="stroke:#FF5F46;stroke-width:3;"/><rect fill="#0078D4" height="36.4883" rx="12.5" ry="12.5" style="stroke:#0078D4;stroke-width:3;" width="141.4814" x="175.04" y="132.4648"/><text fill="#FFFFFF" font-family="sans-serif" font-size="14" lengthAdjust="spacing" textLength="121.4814" x="185.04" y="156">Run-If Conditions</text><rect fill="#FFB900" height="36.4883" rx="12.5" ry="12.5" style="stroke:#FFB900;stroke-width:3;" width="121.0352" x="366.5215" y="75.9766"/><text fill="#000000" font-family="sans-serif" font-size="14" lengthAdjust="spacing" textLength="101.0352" x="376.5215" y="99.5117">Success-based</text><text fill="#000000" font-family="sans-serif" font-size="14" lengthAdjust="spacing" textLength="93.3721" x="540.5566" y="90.2676">All succeeded</text><path d="M487.5566,94.2207 L497.5566,94.2207 C512.5566,94.2207 512.5566,84.9766 527.5566,84.9766 L537.5566,84.9766" fill="none" style="stroke:#FFB900;stroke-width:3;"/><text fill="#000000" font-family="sans-serif" font-size="14" lengthAdjust="spacing" textLength="156.4131" x="540.5566" y="108.7559">At least one succeeded</text><path d="M487.5566,94.2207 L497.5566,94.2207 C512.5566,94.2207 512.5566,103.4648 527.5566,103.4648 L537.5566,103.4648" fill="none" style="stroke:#FFB900;stroke-width:3;"/><path d="M316.5215,150.709 L326.5215,150.709 C341.5215,150.709 341.5215,94.2207 356.5215,94.2207 L366.5215,94.2207" fill="none" style="stroke:#0078D4;stroke-width:3;"/><rect fill="#FFB900" height="36.4883" rx="12.5" ry="12.5" style="stroke:#FFB900;stroke-width:3;" width="113.9395" x="366.5215" y="132.4648"/><text fill="#000000" font-family="sans-serif" font-size="14" lengthAdjust="spacing" textLength="93.9395" x="376.5215" y="156">Failure-based</text><text fill="#000000" font-family="sans-serif" font-size="14" lengthAdjust="spacing" textLength="122.8076" x="533.4609" y="146.7559">At least one failed</text><path d="M480.4609,150.709 L490.4609,150.709 C505.4609,150.709 505.4609,141.4648 520.4609,141.4648 L530.4609,141.4648" fill="none" style="stroke:#FFB900;stroke-width:3;"/><text fill="#000000" font-family="sans-serif" font-size="14" lengthAdjust="spacing" textLength="59.7666" x="533.4609" y="165.2441">All failed</text><path d="M480.4609,150.709 L490.4609,150.709 C505.4609,150.709 505.4609,159.9531 520.4609,159.9531 L530.4609,159.9531" fill="none" style="stroke:#FFB900;stroke-width:3;"/><path d="M316.5215,150.709 L326.5215,150.709 C341.5215,150.709 341.5215,150.709 356.5215,150.709 L366.5215,150.709" fill="none" style="stroke:#0078D4;stroke-width:3;"/><rect fill="#FFB900" height="36.4883" rx="12.5" ry="12.5" style="stroke:#FFB900;stroke-width:3;" width="69.5742" x="366.5215" y="188.9531"/><text fill="#000000" font-family="sans-serif" font-size="14" lengthAdjust="spacing" textLength="49.5742" x="376.5215" y="212.4883">Neutral</text><text fill="#000000" font-family="sans-serif" font-size="14" lengthAdjust="spacing" textLength="77.4443" x="489.0957" y="203.2441">None failed</text><path d="M436.0957,207.1973 L446.0957,207.1973 C461.0957,207.1973 461.0957,197.9531 476.0957,197.9531 L486.0957,197.9531" fill="none" style="stroke:#FFB900;stroke-width:3;"/><text fill="#000000" font-family="sans-serif" font-size="14" lengthAdjust="spacing" textLength="156.9463" x="489.0957" y="221.7324">All done (any outcome)</text><path d="M436.0957,207.1973 L446.0957,207.1973 C461.0957,207.1973 461.0957,216.4414 476.0957,216.4414 L486.0957,216.4414" fill="none" style="stroke:#FFB900;stroke-width:3;"/><path d="M316.5215,150.709 L326.5215,150.709 C341.5215,150.709 341.5215,207.1973 356.5215,207.1973 L366.5215,207.1973" fill="none" style="stroke:#0078D4;stroke-width:3;"/><path d="M125.04,146.0869 L135.04,146.0869 C150.04,146.0869 150.04,150.709 165.04,150.709 L175.04,150.709" fill="none" style="stroke:#FF5F46;stroke-width:3;"/><rect fill="#0078D4" height="36.4883" rx="12.5" ry="12.5" style="stroke:#0078D4;stroke-width:3;" width="88.5576" x="175.04" y="235.6855"/><text fill="#FFFFFF" font-family="sans-serif" font-size="14" lengthAdjust="spacing" textLength="68.5576" x="185.04" y="259.2207">Use Cases</text><text fill="#000000" font-family="sans-serif" font-size="14" lengthAdjust="spacing" textLength="157.7324" x="316.5977" y="249.9766">All done: cleanup tasks</text><path d="M263.5977,253.9297 L273.5977,253.9297 C288.5977,253.9297 288.5977,244.6855 303.5977,244.6855 L313.5977,244.6855" fill="none" style="stroke:#0078D4;stroke-width:3;"/><text fill="#000000" font-family="sans-serif" font-size="14" lengthAdjust="spacing" textLength="229.1133" x="316.5977" y="268.4648">At least one failed: error handling</text><path d="M263.5977,253.9297 L273.5977,253.9297 C288.5977,253.9297 288.5977,263.1738 303.5977,263.1738 L313.5977,263.1738" fill="none" style="stroke:#0078D4;stroke-width:3;"/><path d="M125.04,146.0869 L135.04,146.0869 C150.04,146.0869 150.04,253.9297 165.04,253.9297 L175.04,253.9297" fill="none" style="stroke:#FF5F46;stroke-width:3;"/><?plantuml-src VPD1Jy9048Nl_HKJl40JiA2Y4c9GI1CJmq7mPcAMtIdTiCmskzj4GlplRWk8BU8Sttjvt-mq7Ld7Z5jB4ckM1KFhDWeVWe70pANDg0NR0FmyCRvQ6fsJ66kb3Lp4yKrytI-z5qbugiQQt5vDold9pbF9LuJMmbKd2huEhEvPLXJTtaskwwoQMcsjRH2NSsJrphAIP74VHNLMJVsN5PNZMGlzgOhCzcnYUBa_TmXpPbVlDC4CII1nYJO8GnXhIkGoDyn9JLu8Fs262ha3v_CW2PQ6PUd1ST3ODLZGr814eX8xRvngRH4Qhpc1J1h0DGcvBmKljf-J0hRJ2dG8ivnpltvxmIoMBRxcKIcmXOxYg3bGoAppIAoQ43EfSeFLYj_nn0SgvKS1ffWxmzJUdFuP5uNQPBG1dJkkrzWgtlFcNphsI1jKWWFWdanvLXxlO9wkCm0qnd-db95GafR1o5_qy8C4tKulwlKxlMy0?></g></svg>