<?plantuml 1.2026.2?><svg xmlns="http://www.w3.org/2000/svg" xmlns:xlink="http://www.w3.org/1999/xlink" contentStyleType="text/css" data-diagram-type="MINDMAP" height="247px" preserveAspectRatio="none" style="width:601px;height:247px;background:#FFFFFF;" version="1.1" viewBox="0 0 601 247" width="601px" zoomAndPan="magnify"><defs/><g><rect fill="#FF5F46" height="52.9766" rx="12.5" ry="12.5" style="stroke:#FF5F46;stroke-width:3;" width="95.7012" x="10" y="96.4883"/><text fill="#FFFFFF" font-family="sans-serif" font-size="14" lengthAdjust="spacing" textLength="21.7656" x="20" y="120.0234">Job</text><text fill="#FFFFFF" font-family="sans-serif" font-size="14" lengthAdjust="spacing" textLength="75.7012" x="20" y="136.5117">Parameters</text><rect fill="#0078D4" height="36.4883" rx="12.5" ry="12.5" style="stroke:#0078D4;stroke-width:3;" width="74.5029" x="155.7012" y="20"/><text fill="#FFFFFF" font-family="sans-serif" font-size="14" lengthAdjust="spacing" textLength="54.5029" x="165.7012" y="43.5352">Purpose</text><text fill="#000000" font-family="sans-serif" font-size="14" lengthAdjust="spacing" textLength="138.3184" x="283.2041" y="25.0469">Makes jobs reusable</text><path d="M230.2041,38.2441 L240.2041,38.2441 C255.2041,38.2441 255.2041,19.7559 270.2041,19.7559 L280.2041,19.7559" fill="none" style="stroke:#0078D4;stroke-width:3;"/><text fill="#000000" font-family="sans-serif" font-size="14" lengthAdjust="spacing" textLength="193.9629" x="283.2041" y="43.5352">Pass different values per run</text><path d="M230.2041,38.2441 L240.2041,38.2441 C255.2041,38.2441 255.2041,38.2441 270.2041,38.2441 L280.2041,38.2441" fill="none" style="stroke:#0078D4;stroke-width:3;"/><text fill="#000000" font-family="sans-serif" font-size="14" lengthAdjust="spacing" textLength="139.4941" x="283.2041" y="62.0234">Available to all tasks</text><path d="M230.2041,38.2441 L240.2041,38.2441 C255.2041,38.2441 255.2041,56.7324 270.2041,56.7324 L280.2041,56.7324" fill="none" style="stroke:#0078D4;stroke-width:3;"/><path d="M105.7012,122.9766 L115.7012,122.9766 C130.7012,122.9766 130.7012,38.2441 145.7012,38.2441 L155.7012,38.2441" fill="none" style="stroke:#FF5F46;stroke-width:3;"/><rect fill="#0078D4" height="36.4883" rx="12.5" ry="12.5" style="stroke:#0078D4;stroke-width:3;" width="113.6182" x="155.7012" y="76.4883"/><text fill="#FFFFFF" font-family="sans-serif" font-size="14" lengthAdjust="spacing" textLength="93.6182" x="165.7012" y="100.0234">Configuration</text><text fill="#000000" font-family="sans-serif" font-size="14" lengthAdjust="spacing" textLength="166.6943" x="322.3193" y="90.7793">Job details &gt; Parameters</text><path d="M269.3193,94.7324 L279.3193,94.7324 C294.3193,94.7324 294.3193,85.4883 309.3193,85.4883 L319.3193,85.4883" fill="none" style="stroke:#0078D4;stroke-width:3;"/><text fill="#000000" font-family="sans-serif" font-size="14" lengthAdjust="spacing" textLength="136.5068" x="322.3193" y="109.2676">Add key-value pairs</text><path d="M269.3193,94.7324 L279.3193,94.7324 C294.3193,94.7324 294.3193,103.9766 309.3193,103.9766 L319.3193,103.9766" fill="none" style="stroke:#0078D4;stroke-width:3;"/><path d="M105.7012,122.9766 L115.7012,122.9766 C130.7012,122.9766 130.7012,94.7324 145.7012,94.7324 L155.7012,94.7324" fill="none" style="stroke:#FF5F46;stroke-width:3;"/><rect fill="#0078D4" height="36.4883" rx="12.5" ry="12.5" style="stroke:#0078D4;stroke-width:3;" width="148.1738" x="155.7012" y="132.9766"/><text fill="#FFFFFF" font-family="sans-serif" font-size="14" lengthAdjust="spacing" textLength="128.1738" x="165.7012" y="156.5117">Accessing in Tasks</text><text fill="#000000" font-family="sans-serif" font-size="14" lengthAdjust="spacing" textLength="221.2246" x="356.875" y="147.2676">Notebooks: dbutils.widgets.get()</text><path d="M303.875,151.2207 L313.875,151.2207 C328.875,151.2207 328.875,141.9766 343.875,141.9766 L353.875,141.9766" fill="none" style="stroke:#0078D4;stroke-width:3;"/><text fill="#000000" font-family="sans-serif" font-size="14" lengthAdjust="spacing" textLength="232.1895" x="356.875" y="165.7559">Python: command-line arguments</text><path d="M303.875,151.2207 L313.875,151.2207 C328.875,151.2207 328.875,160.4648 343.875,160.4648 L353.875,160.4648" fill="none" style="stroke:#0078D4;stroke-width:3;"/><path d="M105.7012,122.9766 L115.7012,122.9766 C130.7012,122.9766 130.7012,151.2207 145.7012,151.2207 L155.7012,151.2207" fill="none" style="stroke:#FF5F46;stroke-width:3;"/><rect fill="#0078D4" height="36.4883" rx="12.5" ry="12.5" style="stroke:#0078D4;stroke-width:3;" width="127.4951" x="155.7012" y="189.4648"/><text fill="#FFFFFF" font-family="sans-serif" font-size="14" lengthAdjust="spacing" textLength="107.4951" x="165.7012" y="213">Dynamic Values</text><text fill="#000000" font-family="sans-serif" font-size="14" lengthAdjust="spacing" textLength="185.6846" x="336.1963" y="194.5117">{{job.trigger.time.iso_date}}</text><path d="M283.1963,207.709 L293.1963,207.709 C308.1963,207.709 308.1963,189.2207 323.1963,189.2207 L333.1963,189.2207" fill="none" style="stroke:#0078D4;stroke-width:3;"/><text fill="#000000" font-family="sans-serif" font-size="14" lengthAdjust="spacing" textLength="148.0254" x="336.1963" y="213">Trigger date insertion</text><path d="M283.1963,207.709 L293.1963,207.709 C308.1963,207.709 308.1963,207.709 323.1963,207.709 L333.1963,207.709" fill="none" style="stroke:#0078D4;stroke-width:3;"/><text fill="#000000" font-family="sans-serif" font-size="14" lengthAdjust="spacing" textLength="169.7705" x="336.1963" y="231.4883">Data partitioning by date</text><path d="M283.1963,207.709 L293.1963,207.709 C308.1963,207.709 308.1963,226.1973 323.1963,226.1973 L333.1963,226.1973" fill="none" style="stroke:#0078D4;stroke-width:3;"/><path d="M105.7012,122.9766 L115.7012,122.9766 C130.7012,122.9766 130.7012,207.709 145.7012,207.709 L155.7012,207.709" fill="none" style="stroke:#FF5F46;stroke-width:3;"/><?plantuml-src VLDDQzj04BthLmpqaXYYAcwQjYQ4V1WTIbjyC3qLmaWxaZUITiNkAAqm_kyThPI4gBXp4EBDctdl3UoDPtJSQACQRAChptrDrz5AKSkxa-GKzX58tM5UbSvsHjtRsZfubwOVqulBqFkc3VsBfjRmX1QXNhZRdSuhGzx3XpY93izQvqUrakJJv_N5N6k6ljqwSv26UjLQ7jKgYknBaiorPkX_jP9GefNPF_N0sHzbNBsVphs0hpRxPJRei24cvwF50ZQTQwqd-Lqym7UioCEZpJmuwZnczTJOe4WeNHJao30yOTq9iIK7hZCZvVO9TJrC05l0kWP6NmM9UsiANNOEMTk9B4P04Sk4XsjuusXOfHHKr9y56MXHZrPlyroIQbE2Dh2TjWlzXsNAhAty2bJMiUoCVsjL4ljOFYUdKuIUTzQi8BTDWqQTrN9YG5TsZIGA-zUzmKRdy3Ea6wVsUxb6p4wN9RcOTKEnzlP18TFXC5AsOnC6J9nvSgyvryWe0GGPiC5wrWTYT4Fo5gRt49t7osHv6I__0W00?></g></svg>