<?plantuml 1.2026.2?><svg xmlns="http://www.w3.org/2000/svg" xmlns:xlink="http://www.w3.org/1999/xlink" contentStyleType="text/css" data-diagram-type="MINDMAP" height="396px" preserveAspectRatio="none" style="width:667px;height:396px;background:#FFFFFF;" version="1.1" viewBox="0 0 667 396" width="667px" zoomAndPan="magnify"><defs/><g><rect fill="#FF5F46" height="52.9766" rx="12.5" ry="12.5" style="stroke:#FF5F46;stroke-width:3;" width="101.1289" x="10" y="170.9531"/><text fill="#FFFFFF" font-family="sans-serif" font-size="14" lengthAdjust="spacing" textLength="46.6416" x="20" y="194.4883">Tags &amp;</text><text fill="#FFFFFF" font-family="sans-serif" font-size="14" lengthAdjust="spacing" textLength="81.1289" x="20" y="210.9766">Permissions</text><rect fill="#0078D4" height="36.4883" rx="12.5" ry="12.5" style="stroke:#0078D4;stroke-width:3;" width="52.4502" x="161.1289" y="37.9766"/><text fill="#FFFFFF" font-family="sans-serif" font-size="14" lengthAdjust="spacing" textLength="32.4502" x="171.1289" y="61.5117">Tags</text><text fill="#000000" font-family="sans-serif" font-size="14" lengthAdjust="spacing" textLength="170.9736" x="266.5791" y="24.5352">Labels or key-value pairs</text><path d="M213.5791,56.2207 L223.5791,56.2207 C238.5791,56.2207 238.5791,19.2441 253.5791,19.2441 L263.5791,19.2441" fill="none" style="stroke:#0078D4;stroke-width:3;"/><text fill="#000000" font-family="sans-serif" font-size="14" lengthAdjust="spacing" textLength="157.2471" x="266.5791" y="43.0234">Categorize &amp; filter jobs</text><path d="M213.5791,56.2207 L223.5791,56.2207 C238.5791,56.2207 238.5791,37.7324 253.5791,37.7324 L263.5791,37.7324" fill="none" style="stroke:#0078D4;stroke-width:3;"/><text fill="#000000" font-family="sans-serif" font-size="14" lengthAdjust="spacing" textLength="186.792" x="266.5791" y="61.5117">Group by team/project/env</text><path d="M213.5791,56.2207 L223.5791,56.2207 C238.5791,56.2207 238.5791,56.2207 253.5791,56.2207 L263.5791,56.2207" fill="none" style="stroke:#0078D4;stroke-width:3;"/><text fill="#000000" font-family="sans-serif" font-size="14" lengthAdjust="spacing" textLength="143.7461" x="266.5791" y="80">Propagate to clusters</text><path d="M213.5791,56.2207 L223.5791,56.2207 C238.5791,56.2207 238.5791,74.709 253.5791,74.709 L263.5791,74.709" fill="none" style="stroke:#0078D4;stroke-width:3;"/><text fill="#000000" font-family="sans-serif" font-size="14" lengthAdjust="spacing" textLength="153.7197" x="266.5791" y="98.4883">Enable cost attribution</text><path d="M213.5791,56.2207 L223.5791,56.2207 C238.5791,56.2207 238.5791,93.1973 253.5791,93.1973 L263.5791,93.1973" fill="none" style="stroke:#0078D4;stroke-width:3;"/><path d="M111.1289,197.4414 L121.1289,197.4414 C136.1289,197.4414 136.1289,56.2207 151.1289,56.2207 L161.1289,56.2207" fill="none" style="stroke:#FF5F46;stroke-width:3;"/><rect fill="#0078D4" height="36.4883" rx="12.5" ry="12.5" style="stroke:#0078D4;stroke-width:3;" width="101.1289" x="161.1289" y="197.1738"/><text fill="#FFFFFF" font-family="sans-serif" font-size="14" lengthAdjust="spacing" textLength="81.1289" x="171.1289" y="220.709">Permissions</text><rect fill="#FFB900" height="36.4883" rx="12.5" ry="12.5" style="stroke:#FFB900;stroke-width:3;" width="86.8691" x="312.2578" y="112.4414"/><text fill="#000000" font-family="sans-serif" font-size="14" lengthAdjust="spacing" textLength="66.8691" x="322.2578" y="135.9766">CAN VIEW</text><text fill="#000000" font-family="sans-serif" font-size="14" lengthAdjust="spacing" textLength="171.5068" x="452.127" y="135.9766">View config &amp; run history</text><path d="M399.127,130.6855 L409.127,130.6855 C424.127,130.6855 424.127,130.6855 439.127,130.6855 L449.127,130.6855" fill="none" style="stroke:#FFB900;stroke-width:3;"/><path d="M262.2578,215.418 L272.2578,215.418 C287.2578,215.418 287.2578,130.6855 302.2578,130.6855 L312.2578,130.6855" fill="none" style="stroke:#0078D4;stroke-width:3;"/><rect fill="#FFB900" height="36.4883" rx="12.5" ry="12.5" style="stroke:#FFB900;stroke-width:3;" width="83.0137" x="312.2578" y="168.9297"/><text fill="#000000" font-family="sans-serif" font-size="14" lengthAdjust="spacing" textLength="63.0137" x="322.2578" y="192.4648">CAN RUN</text><text fill="#000000" font-family="sans-serif" font-size="14" lengthAdjust="spacing" textLength="150.0352" x="448.2715" y="192.4648">Trigger runs manually</text><path d="M395.2715,187.1738 L405.2715,187.1738 C420.2715,187.1738 420.2715,187.1738 435.2715,187.1738 L445.2715,187.1738" fill="none" style="stroke:#FFB900;stroke-width:3;"/><path d="M262.2578,215.418 L272.2578,215.418 C287.2578,215.418 287.2578,187.1738 302.2578,187.1738 L312.2578,187.1738" fill="none" style="stroke:#0078D4;stroke-width:3;"/><rect fill="#FFB900" height="36.4883" rx="12.5" ry="12.5" style="stroke:#FFB900;stroke-width:3;" width="146.8682" x="312.2578" y="225.418"/><text fill="#000000" font-family="sans-serif" font-size="14" lengthAdjust="spacing" textLength="126.8682" x="322.2578" y="248.9531">CAN MANAGE RUN</text><text fill="#000000" font-family="sans-serif" font-size="14" lengthAdjust="spacing" textLength="143.0146" x="512.126" y="248.9531">Cancel &amp; restart runs</text><path d="M459.126,243.6621 L469.126,243.6621 C484.126,243.6621 484.126,243.6621 499.126,243.6621 L509.126,243.6621" fill="none" style="stroke:#FFB900;stroke-width:3;"/><path d="M262.2578,215.418 L272.2578,215.418 C287.2578,215.418 287.2578,243.6621 302.2578,243.6621 L312.2578,243.6621" fill="none" style="stroke:#0078D4;stroke-width:3;"/><rect fill="#FFB900" height="36.4883" rx="12.5" ry="12.5" style="stroke:#FFB900;stroke-width:3;" width="113.543" x="312.2578" y="281.9063"/><text fill="#000000" font-family="sans-serif" font-size="14" lengthAdjust="spacing" textLength="93.543" x="322.2578" y="305.4414">CAN MANAGE</text><text fill="#000000" font-family="sans-serif" font-size="14" lengthAdjust="spacing" textLength="173.3184" x="478.8008" y="305.4414">Edit config &amp; permissions</text><path d="M425.8008,300.1504 L435.8008,300.1504 C450.8008,300.1504 450.8008,300.1504 465.8008,300.1504 L475.8008,300.1504" fill="none" style="stroke:#FFB900;stroke-width:3;"/><path d="M262.2578,215.418 L272.2578,215.418 C287.2578,215.418 287.2578,300.1504 302.2578,300.1504 L312.2578,300.1504" fill="none" style="stroke:#0078D4;stroke-width:3;"/><path d="M111.1289,197.4414 L121.1289,197.4414 C136.1289,197.4414 136.1289,215.418 151.1289,215.418 L161.1289,215.418" fill="none" style="stroke:#FF5F46;stroke-width:3;"/><rect fill="#0078D4" height="36.4883" rx="12.5" ry="12.5" style="stroke:#0078D4;stroke-width:3;" width="105.2783" x="161.1289" y="338.3945"/><text fill="#FFFFFF" font-family="sans-serif" font-size="14" lengthAdjust="spacing" textLength="85.2783" x="171.1289" y="361.9297">Best Practice</text><text fill="#000000" font-family="sans-serif" font-size="14" lengthAdjust="spacing" textLength="193.6484" x="319.4072" y="343.4414">Pipeline team: CAN MANAGE</text><path d="M266.4072,356.6387 L276.4072,356.6387 C291.4072,356.6387 291.4072,338.1504 306.4072,338.1504 L316.4072,338.1504" fill="none" style="stroke:#0078D4;stroke-width:3;"/><text fill="#000000" font-family="sans-serif" font-size="14" lengthAdjust="spacing" textLength="139.5215" x="319.4072" y="361.9297">Operators: CAN RUN</text><path d="M266.4072,356.6387 L276.4072,356.6387 C291.4072,356.6387 291.4072,356.6387 306.4072,356.6387 L316.4072,356.6387" fill="none" style="stroke:#0078D4;stroke-width:3;"/><text fill="#000000" font-family="sans-serif" font-size="14" lengthAdjust="spacing" textLength="163.0303" x="319.4072" y="380.418">Stakeholders: CAN VIEW</text><path d="M266.4072,356.6387 L276.4072,356.6387 C291.4072,356.6387 291.4072,375.127 306.4072,375.127 L316.4072,375.127" fill="none" style="stroke:#0078D4;stroke-width:3;"/><path d="M111.1289,197.4414 L121.1289,197.4414 C136.1289,197.4414 136.1289,356.6387 151.1289,356.6387 L161.1289,356.6387" fill="none" style="stroke:#FF5F46;stroke-width:3;"/><?plantuml-src VLDXRzD03FsUNs49QO9Aj5aP6rGJMbUQ2McKQPJn1Qbo4YUzzN8NtJc3Cl7VSRFRkWOLVudEVi_lsRaxyuoEAsNo2klerFDQquTeb5FDovVnAxYFGE8SirNfR6FoYTNMmOiaUPiS7RUrIsNetsnY3OTiqSOJThvKsSgGz_2c7qT_7hKEzsh5yScxZqTThKvsjsl7GTB6LckuLwieqlTntDNgPF-h5RSXMgdzfJUO-xs8qq5OTm_cM7eu-66ko5NAUsMDZteFQVds5d29AMaFmb_H-lKTweQWHkL2UO9CfNNgDy4154epERYrQQXUo8Wrf6jWmcfGEtjB6G_8t3sKhvojiPGEm1OotNXX1-RKOAe9CkiPaDcfj64nj_6sQxK7a_4CRZvDlsyEmhnHz5Dufb2bM7ADWQNoRDtw2NpzRHQmSwVAKXmBoaE5fa6jjxZFuzduOleCFa6JaTvqfVRsjhmEF42dkUAjYtftk-T2b-4nOvLHM8MgISilRZSrwlHRm1VfW3A47psVO05V6LUqj3gdnrAxYJEIPnMULdJO7yR3u_xmBm00?></g></svg>