<?plantuml 1.2026.2?><svg xmlns="http://www.w3.org/2000/svg" xmlns:xlink="http://www.w3.org/1999/xlink" contentStyleType="text/css" data-diagram-type="MINDMAP" height="359px" preserveAspectRatio="none" style="width:725px;height:359px;background:#FFFFFF;" version="1.1" viewBox="0 0 725 359" width="725px" zoomAndPan="magnify"><defs/><g><rect fill="#FF5F46" height="52.9766" rx="12.5" ry="12.5" style="stroke:#FF5F46;stroke-width:3;" width="116.0176" x="10" y="152.4648"/><text fill="#FFFFFF" font-family="sans-serif" font-size="14" lengthAdjust="spacing" textLength="96.0176" x="20" y="176">Run Identity &amp;</text><text fill="#FFFFFF" font-family="sans-serif" font-size="14" lengthAdjust="spacing" textLength="91.1777" x="20" y="192.4883">Unity Catalog</text><rect fill="#0078D4" height="36.4883" rx="12.5" ry="12.5" style="stroke:#0078D4;stroke-width:3;" width="101.8262" x="176.0176" y="20"/><text fill="#FFFFFF" font-family="sans-serif" font-size="14" lengthAdjust="spacing" textLength="81.8262" x="186.0176" y="43.5352">Run Identity</text><text fill="#000000" font-family="sans-serif" font-size="14" lengthAdjust="spacing" textLength="128.7959" x="330.8438" y="25.0469">Job owner (default)</text><path d="M277.8438,38.2441 L287.8438,38.2441 C302.8438,38.2441 302.8438,19.7559 317.8438,19.7559 L327.8438,19.7559" fill="none" style="stroke:#0078D4;stroke-width:3;"/><text fill="#000000" font-family="sans-serif" font-size="14" lengthAdjust="spacing" textLength="198.7617" x="330.8438" y="43.5352">Service principal (production)</text><path d="M277.8438,38.2441 L287.8438,38.2441 C302.8438,38.2441 302.8438,38.2441 317.8438,38.2441 L327.8438,38.2441" fill="none" style="stroke:#0078D4;stroke-width:3;"/><text fill="#000000" font-family="sans-serif" font-size="14" lengthAdjust="spacing" textLength="251.9795" x="330.8438" y="62.0234">Avoids dependency on user accounts</text><path d="M277.8438,38.2441 L287.8438,38.2441 C302.8438,38.2441 302.8438,56.7324 317.8438,56.7324 L327.8438,56.7324" fill="none" style="stroke:#0078D4;stroke-width:3;"/><path d="M126.0176,178.9531 L136.0176,178.9531 C151.0176,178.9531 151.0176,38.2441 166.0176,38.2441 L176.0176,38.2441" fill="none" style="stroke:#FF5F46;stroke-width:3;"/><rect fill="#0078D4" height="36.4883" rx="12.5" ry="12.5" style="stroke:#0078D4;stroke-width:3;" width="149.2881" x="176.0176" y="160.709"/><text fill="#FFFFFF" font-family="sans-serif" font-size="14" lengthAdjust="spacing" textLength="129.2881" x="186.0176" y="184.2441">Required Privileges</text><rect fill="#FFB900" height="36.4883" rx="12.5" ry="12.5" style="stroke:#FFB900;stroke-width:3;" width="91.251" x="375.3057" y="75.9766"/><text fill="#000000" font-family="sans-serif" font-size="14" lengthAdjust="spacing" textLength="71.251" x="385.3057" y="99.5117">Read table</text><text fill="#000000" font-family="sans-serif" font-size="14" lengthAdjust="spacing" textLength="108.4932" x="519.5566" y="99.5117">SELECT on table</text><path d="M466.5566,94.2207 L476.5566,94.2207 C491.5566,94.2207 491.5566,94.2207 506.5566,94.2207 L516.5566,94.2207" fill="none" style="stroke:#FFB900;stroke-width:3;"/><path d="M325.3057,178.9531 L335.3057,178.9531 C350.3057,178.9531 350.3057,94.2207 365.3057,94.2207 L375.3057,94.2207" fill="none" style="stroke:#0078D4;stroke-width:3;"/><rect fill="#FFB900" height="36.4883" rx="12.5" ry="12.5" style="stroke:#FFB900;stroke-width:3;" width="92.8438" x="375.3057" y="132.4648"/><text fill="#000000" font-family="sans-serif" font-size="14" lengthAdjust="spacing" textLength="72.8438" x="385.3057" y="156">Write table</text><text fill="#000000" font-family="sans-serif" font-size="14" lengthAdjust="spacing" textLength="113.4561" x="521.1494" y="156">MODIFY on table</text><path d="M468.1494,150.709 L478.1494,150.709 C493.1494,150.709 493.1494,150.709 508.1494,150.709 L518.1494,150.709" fill="none" style="stroke:#FFB900;stroke-width:3;"/><path d="M325.3057,178.9531 L335.3057,178.9531 C350.3057,178.9531 350.3057,150.709 365.3057,150.709 L375.3057,150.709" fill="none" style="stroke:#0078D4;stroke-width:3;"/><rect fill="#FFB900" height="36.4883" rx="12.5" ry="12.5" style="stroke:#FFB900;stroke-width:3;" width="109.1748" x="375.3057" y="188.9531"/><text fill="#000000" font-family="sans-serif" font-size="14" lengthAdjust="spacing" textLength="89.1748" x="385.3057" y="212.4883">Create tables</text><text fill="#000000" font-family="sans-serif" font-size="14" lengthAdjust="spacing" textLength="176.0186" x="537.4805" y="203.2441">CREATE TABLE on schema</text><path d="M484.4805,207.1973 L494.4805,207.1973 C509.4805,207.1973 509.4805,197.9531 524.4805,197.9531 L534.4805,197.9531" fill="none" style="stroke:#FFB900;stroke-width:3;"/><text fill="#000000" font-family="sans-serif" font-size="14" lengthAdjust="spacing" textLength="86.0781" x="537.4805" y="221.7324">USE SCHEMA</text><path d="M484.4805,207.1973 L494.4805,207.1973 C509.4805,207.1973 509.4805,216.4414 524.4805,216.4414 L534.4805,216.4414" fill="none" style="stroke:#FFB900;stroke-width:3;"/><path d="M325.3057,178.9531 L335.3057,178.9531 C350.3057,178.9531 350.3057,207.1973 365.3057,207.1973 L375.3057,207.1973" fill="none" style="stroke:#0078D4;stroke-width:3;"/><rect fill="#FFB900" height="36.4883" rx="12.5" ry="12.5" style="stroke:#FFB900;stroke-width:3;" width="127.0918" x="375.3057" y="245.4414"/><text fill="#000000" font-family="sans-serif" font-size="14" lengthAdjust="spacing" textLength="107.0918" x="385.3057" y="268.9766">Access volumes</text><text fill="#000000" font-family="sans-serif" font-size="14" lengthAdjust="spacing" textLength="146.501" x="555.3975" y="268.9766">READ/WRITE VOLUME</text><path d="M502.3975,263.6855 L512.3975,263.6855 C527.3975,263.6855 527.3975,263.6855 542.3975,263.6855 L552.3975,263.6855" fill="none" style="stroke:#FFB900;stroke-width:3;"/><path d="M325.3057,178.9531 L335.3057,178.9531 C350.3057,178.9531 350.3057,263.6855 365.3057,263.6855 L375.3057,263.6855" fill="none" style="stroke:#0078D4;stroke-width:3;"/><path d="M126.0176,178.9531 L136.0176,178.9531 C151.0176,178.9531 151.0176,178.9531 166.0176,178.9531 L176.0176,178.9531" fill="none" style="stroke:#FF5F46;stroke-width:3;"/><rect fill="#0078D4" height="36.4883" rx="12.5" ry="12.5" style="stroke:#0078D4;stroke-width:3;" width="105.2783" x="176.0176" y="301.418"/><text fill="#FFFFFF" font-family="sans-serif" font-size="14" lengthAdjust="spacing" textLength="85.2783" x="186.0176" y="324.9531">Best Practice</text><text fill="#000000" font-family="sans-serif" font-size="14" lengthAdjust="spacing" textLength="214.3203" x="334.2959" y="306.4648">Verify access before scheduling</text><path d="M281.2959,319.6621 L291.2959,319.6621 C306.2959,319.6621 306.2959,301.1738 321.2959,301.1738 L331.2959,301.1738" fill="none" style="stroke:#0078D4;stroke-width:3;"/><text fill="#000000" font-family="sans-serif" font-size="14" lengthAdjust="spacing" textLength="235.4844" x="334.2959" y="324.9531">Use service principal in production</text><path d="M281.2959,319.6621 L291.2959,319.6621 C306.2959,319.6621 306.2959,319.6621 321.2959,319.6621 L331.2959,319.6621" fill="none" style="stroke:#0078D4;stroke-width:3;"/><text fill="#000000" font-family="sans-serif" font-size="14" lengthAdjust="spacing" textLength="238.2803" x="334.2959" y="343.4414">Grant minimum required privileges</text><path d="M281.2959,319.6621 L291.2959,319.6621 C306.2959,319.6621 306.2959,338.1504 321.2959,338.1504 L331.2959,338.1504" fill="none" style="stroke:#0078D4;stroke-width:3;"/><path d="M126.0176,178.9531 L136.0176,178.9531 C151.0176,178.9531 151.0176,319.6621 166.0176,319.6621 L176.0176,319.6621" fill="none" style="stroke:#FF5F46;stroke-width:3;"/><?plantuml-src VPDjQzim58M_-rTS68mq7r8txReNIgdZs5r6GaTUMWQ38alNYQWiUPASBPJzzqcEan2Nx7woZXwTOntGdR54su9BLf0ok35s8_0s-CAmjAjEU0Ql0RWP4FgorAgIB5P2QNYNfX_Ig-jwRymblbLJ9MsZvlNisVcAqnU9ni1bBmp-xh8kJcQ5uSTFmwjsLaizTctzGLhF8Qj_CYlFiyzXsCvggV_D2kjnMPdw8pppUfAuEM_gxiAqaZ1YA2st6tZ_Kowa_uY99K8jW-unuDRTP_YcCb2_9MheCCn99UpPTcE6UiqfGgcvfBma0ZgbLgoYbYlPCD5QSMR0rO7IkT8DA0cLSMQ4KjU7DNKe_gguHWRVDLzpWKlqijS90qioWNxf8vDn4i-znrw59yqj7b6JX-4e_N5CnHh93ZCD5q-JQ9x0F1gC4qyRkiA2D9kBMGAp-6ioYUhp4QM-vBKILR4tSEU7vq_JaJDvV1Wl9ec_p02DTHSXhWQAsnOUKVDyuw_iFJBCbSOwZLM2o-KMMXYdlQcKIpYKkWNlDP4Mt5FYHLM0tdLN7hgxSsNldbfmqUk7_UjU_ny0?></g></svg>