<?plantuml 1.2026.2?><svg xmlns="http://www.w3.org/2000/svg" xmlns:xlink="http://www.w3.org/1999/xlink" contentStyleType="text/css" data-diagram-type="MINDMAP" height="247px" preserveAspectRatio="none" style="width:598px;height:247px;background:#FFFFFF;" version="1.1" viewBox="0 0 598 247" width="598px" zoomAndPan="magnify"><defs/><g><rect fill="#FF5F46" height="52.9766" rx="12.5" ry="12.5" style="stroke:#FF5F46;stroke-width:3;" width="98.0596" x="10" y="96.4883"/><text fill="#FFFFFF" font-family="sans-serif" font-size="14" lengthAdjust="spacing" textLength="78.0596" x="20" y="120.0234">Continuous</text><text fill="#FFFFFF" font-family="sans-serif" font-size="14" lengthAdjust="spacing" textLength="56.752" x="20" y="136.5117">Triggers</text><rect fill="#0078D4" height="36.4883" rx="12.5" ry="12.5" style="stroke:#0078D4;stroke-width:3;" width="77.8936" x="158.0596" y="20"/><text fill="#FFFFFF" font-family="sans-serif" font-size="14" lengthAdjust="spacing" textLength="57.8936" x="168.0596" y="43.5352">Behavior</text><text fill="#000000" font-family="sans-serif" font-size="14" lengthAdjust="spacing" textLength="233.2764" x="288.9531" y="25.0469">Starts new run after previous ends</text><path d="M235.9531,38.2441 L245.9531,38.2441 C260.9531,38.2441 260.9531,19.7559 275.9531,19.7559 L285.9531,19.7559" fill="none" style="stroke:#0078D4;stroke-width:3;"/><text fill="#000000" font-family="sans-serif" font-size="14" lengthAdjust="spacing" textLength="153.0225" x="288.9531" y="43.5352">Runs even after failure</text><path d="M235.9531,38.2441 L245.9531,38.2441 C260.9531,38.2441 260.9531,38.2441 275.9531,38.2441 L285.9531,38.2441" fill="none" style="stroke:#0078D4;stroke-width:3;"/><text fill="#000000" font-family="sans-serif" font-size="14" lengthAdjust="spacing" textLength="172.5596" x="288.9531" y="62.0234">Perpetual execution cycle</text><path d="M235.9531,38.2441 L245.9531,38.2441 C260.9531,38.2441 260.9531,56.7324 275.9531,56.7324 L285.9531,56.7324" fill="none" style="stroke:#0078D4;stroke-width:3;"/><path d="M108.0596,122.9766 L118.0596,122.9766 C133.0596,122.9766 133.0596,38.2441 148.0596,38.2441 L158.0596,38.2441" fill="none" style="stroke:#FF5F46;stroke-width:3;"/><rect fill="#0078D4" height="36.4883" rx="12.5" ry="12.5" style="stroke:#0078D4;stroke-width:3;" width="88.5576" x="158.0596" y="76.4883"/><text fill="#FFFFFF" font-family="sans-serif" font-size="14" lengthAdjust="spacing" textLength="68.5576" x="168.0596" y="100.0234">Use Cases</text><text fill="#000000" font-family="sans-serif" font-size="14" lengthAdjust="spacing" textLength="180.79" x="299.6172" y="81.5352">Streaming data processing</text><path d="M246.6172,94.7324 L256.6172,94.7324 C271.6172,94.7324 271.6172,76.2441 286.6172,76.2441 L296.6172,76.2441" fill="none" style="stroke:#0078D4;stroke-width:3;"/><text fill="#000000" font-family="sans-serif" font-size="14" lengthAdjust="spacing" textLength="133.6836" x="299.6172" y="100.0234">Monitoring systems</text><path d="M246.6172,94.7324 L256.6172,94.7324 C271.6172,94.7324 271.6172,94.7324 286.6172,94.7324 L296.6172,94.7324" fill="none" style="stroke:#0078D4;stroke-width:3;"/><text fill="#000000" font-family="sans-serif" font-size="14" lengthAdjust="spacing" textLength="117.6396" x="299.6172" y="118.5117">High-volume ETL</text><path d="M246.6172,94.7324 L256.6172,94.7324 C271.6172,94.7324 271.6172,113.2207 286.6172,113.2207 L296.6172,113.2207" fill="none" style="stroke:#0078D4;stroke-width:3;"/><path d="M108.0596,122.9766 L118.0596,122.9766 C133.0596,122.9766 133.0596,94.7324 148.0596,94.7324 L158.0596,94.7324" fill="none" style="stroke:#FF5F46;stroke-width:3;"/><rect fill="#0078D4" height="36.4883" rx="12.5" ry="12.5" style="stroke:#0078D4;stroke-width:3;" width="149.8896" x="158.0596" y="132.9766"/><text fill="#FFFFFF" font-family="sans-serif" font-size="14" lengthAdjust="spacing" textLength="129.8896" x="168.0596" y="156.5117">Cost Consideration</text><text fill="#000000" font-family="sans-serif" font-size="14" lengthAdjust="spacing" textLength="225.9482" x="360.9492" y="147.2676">Continuously consumes compute</text><path d="M307.9492,151.2207 L317.9492,151.2207 C332.9492,151.2207 332.9492,141.9766 347.9492,141.9766 L357.9492,141.9766" fill="none" style="stroke:#0078D4;stroke-width:3;"/><text fill="#000000" font-family="sans-serif" font-size="14" lengthAdjust="spacing" textLength="178.958" x="360.9492" y="165.7559">Use serverless to optimize</text><path d="M307.9492,151.2207 L317.9492,151.2207 C332.9492,151.2207 332.9492,160.4648 347.9492,160.4648 L357.9492,160.4648" fill="none" style="stroke:#0078D4;stroke-width:3;"/><path d="M108.0596,122.9766 L118.0596,122.9766 C133.0596,122.9766 133.0596,151.2207 148.0596,151.2207 L158.0596,151.2207" fill="none" style="stroke:#FF5F46;stroke-width:3;"/><rect fill="#0078D4" height="36.4883" rx="12.5" ry="12.5" style="stroke:#0078D4;stroke-width:3;" width="77.9619" x="158.0596" y="189.4648"/><text fill="#FFFFFF" font-family="sans-serif" font-size="14" lengthAdjust="spacing" textLength="57.9619" x="168.0596" y="213">Lifecycle</text><text fill="#000000" font-family="sans-serif" font-size="14" lengthAdjust="spacing" textLength="240.2422" x="289.0215" y="203.7559">Resume: waits for active run to end</text><path d="M236.0215,207.709 L246.0215,207.709 C261.0215,207.709 261.0215,198.4648 276.0215,198.4648 L286.0215,198.4648" fill="none" style="stroke:#0078D4;stroke-width:3;"/><text fill="#000000" font-family="sans-serif" font-size="14" lengthAdjust="spacing" textLength="151.252" x="289.0215" y="222.2441">Pause: stops new runs</text><path d="M236.0215,207.709 L246.0215,207.709 C261.0215,207.709 261.0215,216.9531 276.0215,216.9531 L286.0215,216.9531" fill="none" style="stroke:#0078D4;stroke-width:3;"/><path d="M108.0596,122.9766 L118.0596,122.9766 C133.0596,122.9766 133.0596,207.709 148.0596,207.709 L158.0596,207.709" fill="none" style="stroke:#FF5F46;stroke-width:3;"/><?plantuml-src VLF1JkD03BtdAonnsQr4DnGeR5Mj45qY3aL2K6v8go5nqX79J3Js10hYt_6a2OYWhaypViz-zflaZ5WvhhJ9AbL7S-9DYN-YMOOrht_4F-4r0ebpbJuMpdgJBMnf7UmboN5oD6snfJRuFPjOmrqsR-E3krhhzD4W4HoEu-YjrphOgHN79wT_ZuPQW-pNheC9aZO-jIOxjVByuNSS3xK6sVzgnMs8reDzBWFdTITZ_gkpUmGBWRNnrjEzMJbT5EWe6etW7DUgqTR9UVGFRiDR4HXy0kSDg9pHGUrG69u0JKPRteqtScsmf-HAbzxX5hn6LoDxLG8-O-fPMmFf9Yq337U4i524r0iwLF9n590fLY9bKrb9xbluoXhDrWMSDiHOTMMNkbZlDxRq5SB5QXaQBonns99qXau5qItrS_5o0wdWKaDog6hFtS1X9aBNe6lzP0ksPbtfbtRYfSwn7p-iZg7339wK5gToyLkbh1ji3PDICQcpGNaI7h6jFnobw4pm_cU83iQJU38TJzu1?></g></svg>