<?plantuml 1.2026.2?><svg xmlns="http://www.w3.org/2000/svg" xmlns:xlink="http://www.w3.org/1999/xlink" contentStyleType="text/css" data-diagram-type="MINDMAP" height="340px" preserveAspectRatio="none" style="width:656px;height:340px;background:#FFFFFF;" version="1.1" viewBox="0 0 656 340" width="656px" zoomAndPan="magnify"><defs/><g><rect fill="#FF5F46" height="52.9766" rx="12.5" ry="12.5" style="stroke:#FF5F46;stroke-width:3;" width="109.7627" x="10" y="142.709"/><text fill="#FFFFFF" font-family="sans-serif" font-size="14" lengthAdjust="spacing" textLength="89.7627" x="20" y="166.2441">Table Update</text><text fill="#FFFFFF" font-family="sans-serif" font-size="14" lengthAdjust="spacing" textLength="56.752" x="20" y="182.7324">Triggers</text><rect fill="#0078D4" height="36.4883" rx="12.5" ry="12.5" style="stroke:#0078D4;stroke-width:3;" width="138.8359" x="169.7627" y="37.9766"/><text fill="#FFFFFF" font-family="sans-serif" font-size="14" lengthAdjust="spacing" textLength="118.8359" x="179.7627" y="61.5117">Supported Tables</text><text fill="#000000" font-family="sans-serif" font-size="14" lengthAdjust="spacing" textLength="216.1797" x="361.5986" y="24.5352">Delta &amp; Iceberg managed tables</text><path d="M308.5986,56.2207 L318.5986,56.2207 C333.5986,56.2207 333.5986,19.2441 348.5986,19.2441 L358.5986,19.2441" fill="none" style="stroke:#0078D4;stroke-width:3;"/><text fill="#000000" font-family="sans-serif" font-size="14" lengthAdjust="spacing" textLength="140.3281" x="361.5986" y="43.0234">External Delta tables</text><path d="M308.5986,56.2207 L318.5986,56.2207 C333.5986,56.2207 333.5986,37.7324 348.5986,37.7324 L358.5986,37.7324" fill="none" style="stroke:#0078D4;stroke-width:3;"/><text fill="#000000" font-family="sans-serif" font-size="14" lengthAdjust="spacing" textLength="124.5098" x="361.5986" y="61.5117">Materialized views</text><path d="M308.5986,56.2207 L318.5986,56.2207 C333.5986,56.2207 333.5986,56.2207 348.5986,56.2207 L358.5986,56.2207" fill="none" style="stroke:#0078D4;stroke-width:3;"/><text fill="#000000" font-family="sans-serif" font-size="14" lengthAdjust="spacing" textLength="113.7637" x="361.5986" y="80">Streaming tables</text><path d="M308.5986,56.2207 L318.5986,56.2207 C333.5986,56.2207 333.5986,74.709 348.5986,74.709 L358.5986,74.709" fill="none" style="stroke:#0078D4;stroke-width:3;"/><text fill="#000000" font-family="sans-serif" font-size="14" lengthAdjust="spacing" textLength="179.8877" x="361.5986" y="98.4883">Views on supported tables</text><path d="M308.5986,56.2207 L318.5986,56.2207 C333.5986,56.2207 333.5986,93.1973 348.5986,93.1973 L358.5986,93.1973" fill="none" style="stroke:#0078D4;stroke-width:3;"/><path d="M119.7627,169.1973 L129.7627,169.1973 C144.7627,169.1973 144.7627,56.2207 159.7627,56.2207 L169.7627,56.2207" fill="none" style="stroke:#FF5F46;stroke-width:3;"/><rect fill="#0078D4" height="36.4883" rx="12.5" ry="12.5" style="stroke:#0078D4;stroke-width:3;" width="178.7305" x="169.7627" y="112.4414"/><text fill="#FFFFFF" font-family="sans-serif" font-size="14" lengthAdjust="spacing" textLength="158.7305" x="179.7627" y="135.9766">Multiple Table Behavior</text><text fill="#000000" font-family="sans-serif" font-size="14" lengthAdjust="spacing" textLength="243.4072" x="401.4932" y="126.7324">Any table updated: run immediately</text><path d="M348.4932,130.6855 L358.4932,130.6855 C373.4932,130.6855 373.4932,121.4414 388.4932,121.4414 L398.4932,121.4414" fill="none" style="stroke:#0078D4;stroke-width:3;"/><text fill="#000000" font-family="sans-serif" font-size="14" lengthAdjust="spacing" textLength="204.0869" x="401.4932" y="145.2207">All tables updated: wait for all</text><path d="M348.4932,130.6855 L358.4932,130.6855 C373.4932,130.6855 373.4932,139.9297 388.4932,139.9297 L398.4932,139.9297" fill="none" style="stroke:#0078D4;stroke-width:3;"/><path d="M119.7627,169.1973 L129.7627,169.1973 C144.7627,169.1973 144.7627,130.6855 159.7627,130.6855 L169.7627,130.6855" fill="none" style="stroke:#FF5F46;stroke-width:3;"/><rect fill="#0078D4" height="36.4883" rx="12.5" ry="12.5" style="stroke:#0078D4;stroke-width:3;" width="125.2598" x="169.7627" y="168.9297"/><text fill="#FFFFFF" font-family="sans-serif" font-size="14" lengthAdjust="spacing" textLength="105.2598" x="179.7627" y="192.4648">Timing Options</text><text fill="#000000" font-family="sans-serif" font-size="14" lengthAdjust="spacing" textLength="178.2949" x="348.0225" y="183.2207">Min time between triggers</text><path d="M295.0225,187.1738 L305.0225,187.1738 C320.0225,187.1738 320.0225,177.9297 335.0225,177.9297 L345.0225,177.9297" fill="none" style="stroke:#0078D4;stroke-width:3;"/><text fill="#000000" font-family="sans-serif" font-size="14" lengthAdjust="spacing" textLength="219.5225" x="348.0225" y="201.709">Wait after last change (batching)</text><path d="M295.0225,187.1738 L305.0225,187.1738 C320.0225,187.1738 320.0225,196.418 335.0225,196.418 L345.0225,196.418" fill="none" style="stroke:#0078D4;stroke-width:3;"/><path d="M119.7627,169.1973 L129.7627,169.1973 C144.7627,169.1973 144.7627,187.1738 159.7627,187.1738 L169.7627,187.1738" fill="none" style="stroke:#FF5F46;stroke-width:3;"/><rect fill="#0078D4" height="36.4883" rx="12.5" ry="12.5" style="stroke:#0078D4;stroke-width:3;" width="158.6396" x="169.7627" y="225.418"/><text fill="#FFFFFF" font-family="sans-serif" font-size="14" lengthAdjust="spacing" textLength="138.6396" x="179.7627" y="248.9531">Dynamic Parameters</text><text fill="#000000" font-family="sans-serif" font-size="14" lengthAdjust="spacing" textLength="128.5498" x="381.4023" y="230.4648">updated_tables list</text><path d="M328.4023,243.6621 L338.4023,243.6621 C353.4023,243.6621 353.4023,225.1738 368.4023,225.1738 L378.4023,225.1738" fill="none" style="stroke:#0078D4;stroke-width:3;"/><text fill="#000000" font-family="sans-serif" font-size="14" lengthAdjust="spacing" textLength="130.334" x="381.4023" y="248.9531">commit_timestamp</text><path d="M328.4023,243.6621 L338.4023,243.6621 C353.4023,243.6621 353.4023,243.6621 368.4023,243.6621 L378.4023,243.6621" fill="none" style="stroke:#0078D4;stroke-width:3;"/><text fill="#000000" font-family="sans-serif" font-size="14" lengthAdjust="spacing" textLength="144.5186" x="381.4023" y="267.4414">table version number</text><path d="M328.4023,243.6621 L338.4023,243.6621 C353.4023,243.6621 353.4023,262.1504 368.4023,262.1504 L378.4023,262.1504" fill="none" style="stroke:#0078D4;stroke-width:3;"/><path d="M119.7627,169.1973 L129.7627,169.1973 C144.7627,169.1973 144.7627,243.6621 159.7627,243.6621 L169.7627,243.6621" fill="none" style="stroke:#FF5F46;stroke-width:3;"/><rect fill="#0078D4" height="36.4883" rx="12.5" ry="12.5" style="stroke:#0078D4;stroke-width:3;" width="41.7109" x="169.7627" y="281.9063"/><text fill="#FFFFFF" font-family="sans-serif" font-size="14" lengthAdjust="spacing" textLength="21.7109" x="179.7627" y="305.4414">Tip</text><text fill="#000000" font-family="sans-serif" font-size="14" lengthAdjust="spacing" textLength="258.7881" x="264.4736" y="305.4414">Enable file events on external location</text><path d="M211.4736,300.1504 L221.4736,300.1504 C236.4736,300.1504 236.4736,300.1504 251.4736,300.1504 L261.4736,300.1504" fill="none" style="stroke:#0078D4;stroke-width:3;"/><path d="M119.7627,169.1973 L129.7627,169.1973 C144.7627,169.1973 144.7627,300.1504 159.7627,300.1504 L169.7627,300.1504" fill="none" style="stroke:#FF5F46;stroke-width:3;"/><?plantuml-src VLDTQzj047pNhrWebCGFhkAcQHj2ILD7K6Xe8MxoKZ0hQIKTkGznMjbnG_zxLzBPJbJSVH3SxEpEx9xkic7qR9JD3TRHHSCRJP-YyvnghexYOtYAGE8AiuVIkzRcNvns7buboRlazApFVLEM_aKJPpcWHHyxxg9IsOEbfe6tqpZwizKwEQWLn-y_p4_7MYFqPTUHWwIFlTRie5PHf1_ZUAmrGl-h5VSXMgbxr1tdwI3ZuarOzmGMc6g2dtMEJB_imgko9Dz4amdSjdNjF5C-S3fiieGvQKPu3LypIicNOD1YAHn-nhb-PF8MTI0_Jzs8Z5UerM-fMIbQ1_oMFQ7y3EKBzbr706UXsNdPfU6crQngCJ-CS4KLhfJpG-LdknceqFQZvUVWMmlA6CgLdFKcyBGEBVV4DIg6GXQ6MdT22zKR-rwpSdOxXxB0oX2an6iYEUmt9-dxhWKMCYjeR1Yo2cr9S9GYPvKqE-xwpZTMHixW1teqnBlYO6GPV6dLy938d36AbvskF1vJ3-WmvahAnHxOriYz3BO3uThsZ4B9XrPakLyfRIz9kmoxoQ9BahSOtcDqCft5ixFfx2y0?></g></svg>