<?plantuml 1.2026.2?><svg xmlns="http://www.w3.org/2000/svg" xmlns:xlink="http://www.w3.org/1999/xlink" contentStyleType="text/css" data-diagram-type="MINDMAP" height="304px" preserveAspectRatio="none" style="width:585px;height:304px;background:#FFFFFF;" version="1.1" viewBox="0 0 585 304" width="585px" zoomAndPan="magnify"><defs/><g><rect fill="#FF5F46" height="36.4883" rx="12.5" ry="12.5" style="stroke:#FF5F46;stroke-width:3;" width="113.96" x="10" y="132.9766"/><text fill="#FFFFFF" font-family="sans-serif" font-size="14" lengthAdjust="spacing" textLength="93.96" x="20" y="156.5117">Trigger Types</text><rect fill="#0078D4" height="36.4883" rx="12.5" ry="12.5" style="stroke:#0078D4;stroke-width:3;" width="109.7627" x="173.96" y="20"/><text fill="#FFFFFF" font-family="sans-serif" font-size="14" lengthAdjust="spacing" textLength="89.7627" x="183.96" y="43.5352">Table Update</text><text fill="#000000" font-family="sans-serif" font-size="14" lengthAdjust="spacing" textLength="236.6191" x="336.7227" y="34.291">Runs when tables receive new data</text><path d="M283.7227,38.2441 L293.7227,38.2441 C308.7227,38.2441 308.7227,29 323.7227,29 L333.7227,29" fill="none" style="stroke:#0078D4;stroke-width:3;"/><text fill="#000000" font-family="sans-serif" font-size="14" lengthAdjust="spacing" textLength="203.3691" x="336.7227" y="52.7793">Event-driven, not time-driven</text><path d="M283.7227,38.2441 L293.7227,38.2441 C308.7227,38.2441 308.7227,47.4883 323.7227,47.4883 L333.7227,47.4883" fill="none" style="stroke:#0078D4;stroke-width:3;"/><path d="M123.96,151.2207 L133.96,151.2207 C148.96,151.2207 148.96,38.2441 163.96,38.2441 L173.96,38.2441" fill="none" style="stroke:#FF5F46;stroke-width:3;"/><rect fill="#0078D4" height="36.4883" rx="12.5" ry="12.5" style="stroke:#0078D4;stroke-width:3;" width="92.0166" x="173.96" y="76.4883"/><text fill="#FFFFFF" font-family="sans-serif" font-size="14" lengthAdjust="spacing" textLength="72.0166" x="183.96" y="100.0234">File Arrival</text><text fill="#000000" font-family="sans-serif" font-size="14" lengthAdjust="spacing" textLength="189.1162" x="318.9766" y="90.7793">Runs when new files appear</text><path d="M265.9766,94.7324 L275.9766,94.7324 C290.9766,94.7324 290.9766,85.4883 305.9766,85.4883 L315.9766,85.4883" fill="none" style="stroke:#0078D4;stroke-width:3;"/><text fill="#000000" font-family="sans-serif" font-size="14" lengthAdjust="spacing" textLength="149.7275" x="318.9766" y="109.2676">Unity Catalog location</text><path d="M265.9766,94.7324 L275.9766,94.7324 C290.9766,94.7324 290.9766,103.9766 305.9766,103.9766 L315.9766,103.9766" fill="none" style="stroke:#0078D4;stroke-width:3;"/><path d="M123.96,151.2207 L133.96,151.2207 C148.96,151.2207 148.96,94.7324 163.96,94.7324 L173.96,94.7324" fill="none" style="stroke:#FF5F46;stroke-width:3;"/><rect fill="#0078D4" height="36.4883" rx="12.5" ry="12.5" style="stroke:#0078D4;stroke-width:3;" width="98.0596" x="173.96" y="132.9766"/><text fill="#FFFFFF" font-family="sans-serif" font-size="14" lengthAdjust="spacing" textLength="78.0596" x="183.96" y="156.5117">Continuous</text><text fill="#000000" font-family="sans-serif" font-size="14" lengthAdjust="spacing" textLength="196.3281" x="325.0195" y="147.2676">Runs after previous run ends</text><path d="M272.0195,151.2207 L282.0195,151.2207 C297.0195,151.2207 297.0195,141.9766 312.0195,141.9766 L322.0195,141.9766" fill="none" style="stroke:#0078D4;stroke-width:3;"/><text fill="#000000" font-family="sans-serif" font-size="14" lengthAdjust="spacing" textLength="177.8711" x="325.0195" y="165.7559">Near real-time processing</text><path d="M272.0195,151.2207 L282.0195,151.2207 C297.0195,151.2207 297.0195,160.4648 312.0195,160.4648 L322.0195,160.4648" fill="none" style="stroke:#0078D4;stroke-width:3;"/><path d="M123.96,151.2207 L133.96,151.2207 C148.96,151.2207 148.96,151.2207 163.96,151.2207 L173.96,151.2207" fill="none" style="stroke:#FF5F46;stroke-width:3;"/><rect fill="#0078D4" height="36.4883" rx="12.5" ry="12.5" style="stroke:#0078D4;stroke-width:3;" width="89.3574" x="173.96" y="189.4648"/><text fill="#FFFFFF" font-family="sans-serif" font-size="14" lengthAdjust="spacing" textLength="69.3574" x="183.96" y="213">Scheduled</text><text fill="#000000" font-family="sans-serif" font-size="14" lengthAdjust="spacing" textLength="131.3047" x="316.3174" y="203.7559">Runs at fixed times</text><path d="M263.3174,207.709 L273.3174,207.709 C288.3174,207.709 288.3174,198.4648 303.3174,198.4648 L313.3174,198.4648" fill="none" style="stroke:#0078D4;stroke-width:3;"/><text fill="#000000" font-family="sans-serif" font-size="14" lengthAdjust="spacing" textLength="182.6494" x="316.3174" y="222.2441">Interval or cron expression</text><path d="M263.3174,207.709 L273.3174,207.709 C288.3174,207.709 288.3174,216.9531 303.3174,216.9531 L313.3174,216.9531" fill="none" style="stroke:#0078D4;stroke-width:3;"/><path d="M123.96,151.2207 L133.96,151.2207 C148.96,151.2207 148.96,207.709 163.96,207.709 L173.96,207.709" fill="none" style="stroke:#FF5F46;stroke-width:3;"/><rect fill="#0078D4" height="36.4883" rx="12.5" ry="12.5" style="stroke:#0078D4;stroke-width:3;" width="66.0742" x="173.96" y="245.9531"/><text fill="#FFFFFF" font-family="sans-serif" font-size="14" lengthAdjust="spacing" textLength="46.0742" x="183.96" y="269.4883">Access</text><text fill="#000000" font-family="sans-serif" font-size="14" lengthAdjust="spacing" textLength="108.4658" x="293.0342" y="251">Job details pane</text><path d="M240.0342,264.1973 L250.0342,264.1973 C265.0342,264.1973 265.0342,245.709 280.0342,245.709 L290.0342,245.709" fill="none" style="stroke:#0078D4;stroke-width:3;"/><text fill="#000000" font-family="sans-serif" font-size="14" lengthAdjust="spacing" textLength="143.0557" x="293.0342" y="269.4883">Schedules &amp; Triggers</text><path d="M240.0342,264.1973 L250.0342,264.1973 C265.0342,264.1973 265.0342,264.1973 280.0342,264.1973 L290.0342,264.1973" fill="none" style="stroke:#0078D4;stroke-width:3;"/><text fill="#000000" font-family="sans-serif" font-size="14" lengthAdjust="spacing" textLength="127.4014" x="293.0342" y="287.9766">Add trigger button</text><path d="M240.0342,264.1973 L250.0342,264.1973 C265.0342,264.1973 265.0342,282.6855 280.0342,282.6855 L290.0342,282.6855" fill="none" style="stroke:#0078D4;stroke-width:3;"/><path d="M123.96,151.2207 L133.96,151.2207 C148.96,151.2207 148.96,264.1973 163.96,264.1973 L173.96,264.1973" fill="none" style="stroke:#FF5F46;stroke-width:3;"/><?plantuml-src VPFTJkD038NlynIMa11KK4BvtHL2BOL8Yn0Nk-qrccISTCJK4yqufLMrxuwJfYmRL7mtzj5tZXrb65XvdXlISrL6Du5N5c-ZdnfBdXt4Xx2EGEfEPQ-5TnNfiRFEmrwIN2JdbytioH1-xIQEkEtcJNre9pEJlHA606VzEFgxzJhTwHN7LzVtvrslJlT_QYT1qjG_hy5EhpnFVyHnrwlJ_TOhRagyKhUqjMQzKt5pqfwx1nDlYW8zJ5ObXgWd3PLQX6cf5QEyUo_mkw80RpCau7eMm6E6Pe50-0OYKnlPmmA9ZxMN2Hq1EGOsSsmRDJan0XvvUIlR9TUetDHmLPQe_6O-9SCh68k5TGLOboashc6DPIj3bQl29vBAMJOfFIwC3C1N14YwLJmBLP8hUrp74fNBv4Y6YXht9vkXhYpgppIMH4lKpHejv1U9WyG7EMVcdV2NOYUOJQfHLZCtqaUNWaPMnWOe5RMtt1e5sD-UljMFj3Yr7oEjc8KubFJR7oGwxG_YmML_y0u0?></g></svg>