<?plantuml 1.2026.2?><svg xmlns="http://www.w3.org/2000/svg" xmlns:xlink="http://www.w3.org/1999/xlink" contentStyleType="text/css" data-diagram-type="MINDMAP" height="191px" preserveAspectRatio="none" style="width:574px;height:191px;background:#FFFFFF;" version="1.1" viewBox="0 0 574 191" width="574px" zoomAndPan="magnify"><defs/><g><rect fill="#FF5F46" height="52.9766" rx="12.5" ry="12.5" style="stroke:#FF5F46;stroke-width:3;" width="77.9619" x="10" y="68.2441"/><text fill="#FFFFFF" font-family="sans-serif" font-size="14" lengthAdjust="spacing" textLength="49.6152" x="20" y="91.7793">Trigger</text><text fill="#FFFFFF" font-family="sans-serif" font-size="14" lengthAdjust="spacing" textLength="57.9619" x="20" y="108.2676">Lifecycle</text><rect fill="#0078D4" height="36.4883" rx="12.5" ry="12.5" style="stroke:#0078D4;stroke-width:3;" width="77.7227" x="137.9619" y="20"/><text fill="#FFFFFF" font-family="sans-serif" font-size="14" lengthAdjust="spacing" textLength="57.7227" x="147.9619" y="43.5352">Controls</text><text fill="#000000" font-family="sans-serif" font-size="14" lengthAdjust="spacing" textLength="151.252" x="268.6846" y="25.0469">Pause: stops new runs</text><path d="M215.6846,38.2441 L225.6846,38.2441 C240.6846,38.2441 240.6846,19.7559 255.6846,19.7559 L265.6846,19.7559" fill="none" style="stroke:#0078D4;stroke-width:3;"/><text fill="#000000" font-family="sans-serif" font-size="14" lengthAdjust="spacing" textLength="186.2793" x="268.6846" y="43.5352">Resume: re-enables trigger</text><path d="M215.6846,38.2441 L225.6846,38.2441 C240.6846,38.2441 240.6846,38.2441 255.6846,38.2441 L265.6846,38.2441" fill="none" style="stroke:#0078D4;stroke-width:3;"/><text fill="#000000" font-family="sans-serif" font-size="14" lengthAdjust="spacing" textLength="225.6064" x="268.6846" y="62.0234">Config is preserved when paused</text><path d="M215.6846,38.2441 L225.6846,38.2441 C240.6846,38.2441 240.6846,56.7324 255.6846,56.7324 L265.6846,56.7324" fill="none" style="stroke:#0078D4;stroke-width:3;"/><path d="M87.9619,94.7324 L97.9619,94.7324 C112.9619,94.7324 112.9619,38.2441 127.9619,38.2441 L137.9619,38.2441" fill="none" style="stroke:#FF5F46;stroke-width:3;"/><rect fill="#0078D4" height="36.4883" rx="12.5" ry="12.5" style="stroke:#0078D4;stroke-width:3;" width="132.082" x="137.9619" y="76.4883"/><text fill="#FFFFFF" font-family="sans-serif" font-size="14" lengthAdjust="spacing" textLength="112.082" x="147.9619" y="100.0234">Pause Use Cases</text><text fill="#000000" font-family="sans-serif" font-size="14" lengthAdjust="spacing" textLength="148.9277" x="323.0439" y="81.5352">Maintenance windows</text><path d="M270.0439,94.7324 L280.0439,94.7324 C295.0439,94.7324 295.0439,76.2441 310.0439,76.2441 L320.0439,76.2441" fill="none" style="stroke:#0078D4;stroke-width:3;"/><text fill="#000000" font-family="sans-serif" font-size="14" lengthAdjust="spacing" textLength="126.458" x="323.0439" y="100.0234">Issue investigation</text><path d="M270.0439,94.7324 L280.0439,94.7324 C295.0439,94.7324 295.0439,94.7324 310.0439,94.7324 L320.0439,94.7324" fill="none" style="stroke:#0078D4;stroke-width:3;"/><text fill="#000000" font-family="sans-serif" font-size="14" lengthAdjust="spacing" textLength="97.1045" x="323.0439" y="118.5117">No config loss</text><path d="M270.0439,94.7324 L280.0439,94.7324 C295.0439,94.7324 295.0439,113.2207 310.0439,113.2207 L320.0439,113.2207" fill="none" style="stroke:#0078D4;stroke-width:3;"/><path d="M87.9619,94.7324 L97.9619,94.7324 C112.9619,94.7324 112.9619,94.7324 127.9619,94.7324 L137.9619,94.7324" fill="none" style="stroke:#FF5F46;stroke-width:3;"/><rect fill="#0078D4" height="36.4883" rx="12.5" ry="12.5" style="stroke:#0078D4;stroke-width:3;" width="156.0078" x="137.9619" y="132.9766"/><text fill="#FFFFFF" font-family="sans-serif" font-size="14" lengthAdjust="spacing" textLength="136.0078" x="147.9619" y="156.5117">Failure Notifications</text><text fill="#000000" font-family="sans-serif" font-size="14" lengthAdjust="spacing" textLength="187.8174" x="346.9697" y="138.0234">Email or system destination</text><path d="M293.9697,151.2207 L303.9697,151.2207 C318.9697,151.2207 318.9697,132.7324 333.9697,132.7324 L343.9697,132.7324" fill="none" style="stroke:#0078D4;stroke-width:3;"/><text fill="#000000" font-family="sans-serif" font-size="14" lengthAdjust="spacing" textLength="178.6162" x="346.9697" y="156.5117">Trigger evaluation failures</text><path d="M293.9697,151.2207 L303.9697,151.2207 C318.9697,151.2207 318.9697,151.2207 333.9697,151.2207 L343.9697,151.2207" fill="none" style="stroke:#0078D4;stroke-width:3;"/><text fill="#000000" font-family="sans-serif" font-size="14" lengthAdjust="spacing" textLength="215.1543" x="346.9697" y="175">Permission changes &amp; deletions</text><path d="M293.9697,151.2207 L303.9697,151.2207 C318.9697,151.2207 318.9697,169.709 333.9697,169.709 L343.9697,169.709" fill="none" style="stroke:#0078D4;stroke-width:3;"/><path d="M87.9619,94.7324 L97.9619,94.7324 C112.9619,94.7324 112.9619,151.2207 127.9619,151.2207 L137.9619,151.2207" fill="none" style="stroke:#FF5F46;stroke-width:3;"/><?plantuml-src VP9lIyCm48VVzrCS2A83PrVdr35aE2q8KqJcEq6ozjg6fKd9fQjZ-DrDsym_bNbGAFUxFazwP4g6QPDp6UUiy2PaDWAllN6CXScE_6FOUc3hXaMhLAjInZCbb8Q3C3mFXwCcctE9VxkXaiPrawQ-PXSPZrOIYU2ixtiVEzTWhyltBovlXrrNf_kRsZb1sDItAzZhIfBbbUztNPtklow_AUjQgdTHpsptJanEtRfxiD0yJL6_oZbFCDf40hrU3sRs8wq4sVVU6ponad0CP5H18B42NKeNFIELkSqqdg1aI-i5qnBRt88IdW8dA3GIwZN6K6KeeQYPSUrgwF1YdnaZTDm7ngMnH1aXLFQEgCe5zqGb0fTh9CDJPhYIRV2e86fbGb4z327ZejHe4yCJ7ZMpZdANsmpiJcX31dE8QvhyGNDh0LmpKJPzI5hSRYUeSqvK1r76P6f__D1Y1BQMATfxxUwsD-W7VZ3g1vy0?></g></svg>