<?plantuml 1.2026.2?><svg xmlns="http://www.w3.org/2000/svg" xmlns:xlink="http://www.w3.org/1999/xlink" contentStyleType="text/css" data-diagram-type="MINDMAP" height="304px" preserveAspectRatio="none" style="width:652px;height:304px;background:#FFFFFF;" version="1.1" viewBox="0 0 652 304" width="652px" zoomAndPan="magnify"><defs/><g><rect fill="#FF5F46" height="52.9766" rx="12.5" ry="12.5" style="stroke:#FF5F46;stroke-width:3;" width="92.0166" x="10" y="124.7324"/><text fill="#FFFFFF" font-family="sans-serif" font-size="14" lengthAdjust="spacing" textLength="72.0166" x="20" y="148.2676">File Arrival</text><text fill="#FFFFFF" font-family="sans-serif" font-size="14" lengthAdjust="spacing" textLength="56.752" x="20" y="164.7559">Triggers</text><rect fill="#0078D4" height="36.4883" rx="12.5" ry="12.5" style="stroke:#0078D4;stroke-width:3;" width="109.4277" x="152.0166" y="20"/><text fill="#FFFFFF" font-family="sans-serif" font-size="14" lengthAdjust="spacing" textLength="89.4277" x="162.0166" y="43.5352">How It Works</text><text fill="#000000" font-family="sans-serif" font-size="14" lengthAdjust="spacing" textLength="214.252" x="314.4443" y="25.0469">Monitors Unity Catalog location</text><path d="M261.4443,38.2441 L271.4443,38.2441 C286.4443,38.2441 286.4443,19.7559 301.4443,19.7559 L311.4443,19.7559" fill="none" style="stroke:#0078D4;stroke-width:3;"/><text fill="#000000" font-family="sans-serif" font-size="14" lengthAdjust="spacing" textLength="197.415" x="314.4443" y="43.5352">Recursive subdirectory check</text><path d="M261.4443,38.2441 L271.4443,38.2441 C286.4443,38.2441 286.4443,38.2441 301.4443,38.2441 L311.4443,38.2441" fill="none" style="stroke:#0078D4;stroke-width:3;"/><text fill="#000000" font-family="sans-serif" font-size="14" lengthAdjust="spacing" textLength="176.0186" x="314.4443" y="62.0234">~1 minute polling interval</text><path d="M261.4443,38.2441 L271.4443,38.2441 C286.4443,38.2441 286.4443,56.7324 301.4443,56.7324 L311.4443,56.7324" fill="none" style="stroke:#0078D4;stroke-width:3;"/><path d="M102.0166,151.2207 L112.0166,151.2207 C127.0166,151.2207 127.0166,38.2441 142.0166,38.2441 L152.0166,38.2441" fill="none" style="stroke:#FF5F46;stroke-width:3;"/><rect fill="#0078D4" height="36.4883" rx="12.5" ry="12.5" style="stroke:#0078D4;stroke-width:3;" width="101.6963" x="152.0166" y="76.4883"/><text fill="#FFFFFF" font-family="sans-serif" font-size="14" lengthAdjust="spacing" textLength="81.6963" x="162.0166" y="100.0234">Path Format</text><text fill="#000000" font-family="sans-serif" font-size="14" lengthAdjust="spacing" textLength="245.499" x="306.7129" y="90.7793">/Volumes/catalog/schema/volume/</text><path d="M253.7129,94.7324 L263.7129,94.7324 C278.7129,94.7324 278.7129,85.4883 293.7129,85.4883 L303.7129,85.4883" fill="none" style="stroke:#0078D4;stroke-width:3;"/><text fill="#000000" font-family="sans-serif" font-size="14" lengthAdjust="spacing" textLength="148.8525" x="306.7129" y="109.2676">External location path</text><path d="M253.7129,94.7324 L263.7129,94.7324 C278.7129,94.7324 278.7129,103.9766 293.7129,103.9766 L303.7129,103.9766" fill="none" style="stroke:#0078D4;stroke-width:3;"/><path d="M102.0166,151.2207 L112.0166,151.2207 C127.0166,151.2207 127.0166,94.7324 142.0166,94.7324 L152.0166,94.7324" fill="none" style="stroke:#FF5F46;stroke-width:3;"/><rect fill="#0078D4" height="36.4883" rx="12.5" ry="12.5" style="stroke:#0078D4;stroke-width:3;" width="107.6982" x="152.0166" y="132.9766"/><text fill="#FFFFFF" font-family="sans-serif" font-size="14" lengthAdjust="spacing" textLength="87.6982" x="162.0166" y="156.5117">Prerequisites</text><text fill="#000000" font-family="sans-serif" font-size="14" lengthAdjust="spacing" textLength="149.2969" x="312.7148" y="138.0234">Unity Catalog enabled</text><path d="M259.7148,151.2207 L269.7148,151.2207 C284.7148,151.2207 284.7148,132.7324 299.7148,132.7324 L309.7148,132.7324" fill="none" style="stroke:#0078D4;stroke-width:3;"/><text fill="#000000" font-family="sans-serif" font-size="14" lengthAdjust="spacing" textLength="172.2451" x="312.7148" y="156.5117">READ on storage location</text><path d="M259.7148,151.2207 L269.7148,151.2207 C284.7148,151.2207 284.7148,151.2207 299.7148,151.2207 L309.7148,151.2207" fill="none" style="stroke:#0078D4;stroke-width:3;"/><text fill="#000000" font-family="sans-serif" font-size="14" lengthAdjust="spacing" textLength="141.3604" x="312.7148" y="175">CAN MANAGE on job</text><path d="M259.7148,151.2207 L269.7148,151.2207 C284.7148,151.2207 284.7148,169.709 299.7148,169.709 L309.7148,169.709" fill="none" style="stroke:#0078D4;stroke-width:3;"/><path d="M102.0166,151.2207 L112.0166,151.2207 C127.0166,151.2207 127.0166,151.2207 142.0166,151.2207 L152.0166,151.2207" fill="none" style="stroke:#FF5F46;stroke-width:3;"/><rect fill="#0078D4" height="36.4883" rx="12.5" ry="12.5" style="stroke:#0078D4;stroke-width:3;" width="233.9307" x="152.0166" y="189.4648"/><text fill="#FFFFFF" font-family="sans-serif" font-size="14" lengthAdjust="spacing" textLength="213.9307" x="162.0166" y="213">Limitations (without file events)</text><text fill="#000000" font-family="sans-serif" font-size="14" lengthAdjust="spacing" textLength="186.8945" x="438.9473" y="194.5117">Max 50 jobs per workspace</text><path d="M385.9473,207.709 L395.9473,207.709 C410.9473,207.709 410.9473,189.2207 425.9473,189.2207 L435.9473,189.2207" fill="none" style="stroke:#0078D4;stroke-width:3;"/><text fill="#000000" font-family="sans-serif" font-size="14" lengthAdjust="spacing" textLength="199.4248" x="438.9473" y="213">Max 10,000 files per location</text><path d="M385.9473,207.709 L395.9473,207.709 C410.9473,207.709 410.9473,207.709 425.9473,207.709 L435.9473,207.709" fill="none" style="stroke:#0078D4;stroke-width:3;"/><text fill="#000000" font-family="sans-serif" font-size="14" lengthAdjust="spacing" textLength="201.6602" x="438.9473" y="231.4883">Enable file events to lift limits</text><path d="M385.9473,207.709 L395.9473,207.709 C410.9473,207.709 410.9473,226.1973 425.9473,226.1973 L435.9473,226.1973" fill="none" style="stroke:#0078D4;stroke-width:3;"/><path d="M102.0166,151.2207 L112.0166,151.2207 C127.0166,151.2207 127.0166,207.709 142.0166,207.709 L152.0166,207.709" fill="none" style="stroke:#FF5F46;stroke-width:3;"/><rect fill="#0078D4" height="36.4883" rx="12.5" ry="12.5" style="stroke:#0078D4;stroke-width:3;" width="87.1357" x="152.0166" y="245.9531"/><text fill="#FFFFFF" font-family="sans-serif" font-size="14" lengthAdjust="spacing" textLength="67.1357" x="162.0166" y="269.4883">Important</text><text fill="#000000" font-family="sans-serif" font-size="14" lengthAdjust="spacing" textLength="175.834" x="292.1523" y="260.2441">Only NEW files trigger run</text><path d="M239.1523,264.1973 L249.1523,264.1973 C264.1523,264.1973 264.1523,254.9531 279.1523,254.9531 L289.1523,254.9531" fill="none" style="stroke:#0078D4;stroke-width:3;"/><text fill="#000000" font-family="sans-serif" font-size="14" lengthAdjust="spacing" textLength="269.5479" x="292.1523" y="278.7324">Overwriting same filename = no trigger</text><path d="M239.1523,264.1973 L249.1523,264.1973 C264.1523,264.1973 264.1523,273.4414 279.1523,273.4414 L289.1523,273.4414" fill="none" style="stroke:#0078D4;stroke-width:3;"/><path d="M102.0166,151.2207 L112.0166,151.2207 C127.0166,151.2207 127.0166,264.1973 142.0166,264.1973 L152.0166,264.1973" fill="none" style="stroke:#FF5F46;stroke-width:3;"/><?plantuml-src VLDHRzCm47xFhpY9bwr2JLgsCT102rq2axOEeS5Ua92JN19Jnmxs9MqrmM-VusGR3IhtO2VdxxxlyvryReXfghZCAbPxPuQs0jzxRpEigJm83k7U0niVMBegj6fajb12QNWHnyVnqOaxk-8I_yt6IjAGpLqyOMzBdgua6WElfe7t-r5hjbSh25wVNXoDjKRPNTQHWzZ5izPyhrQU9s-2OAmrolvNAt1XjHAr4HtcVY_Yp1_QFO6O2uHGQzuoyLtUQbuKg8qtcS0djOPBWZkbLzt_v0TSAyb9QGDVxRw51ICcL052fOouaZte2wQDDhn5C4sISOsfBTb2McAwwX5_Pc37tX12hOJWiW0k2RKrqCb-PbHQqxfYrCFzRqeq5He_xVLyOxagvhSkxVUWQ6CP91DFPg2sF8vFeyPV3JUSSBZ7hdsKB16O3UwZy09ijR6cMO6Zkot29Lo7o_1Zr65-ggGJkE8L9mSoSB3cLAg68E_QYYrACeT3yzW6ZeEko42D6jPTNskMulFnB7Xfv-DgUyokUkIC_aqDf43mdEnYFRYfNLQrqiJaqBmRARQmZEu6Kkhd2xePE6zQr6lDgPk2OLNFBhkFTo3L8zuxH_jCXwVgpQRpO7uodJy0?></g></svg>