<?plantuml 1.2026.2?><svg xmlns="http://www.w3.org/2000/svg" xmlns:xlink="http://www.w3.org/1999/xlink" contentStyleType="text/css" data-diagram-type="MINDMAP" height="336px" preserveAspectRatio="none" style="width:639px;height:336px;background:#FFFFFF;" version="1.1" viewBox="0 0 639 336" width="639px" zoomAndPan="magnify"><defs/><g><rect fill="#FF5F46" height="52.9766" rx="12.5" ry="12.5" style="stroke:#FF5F46;stroke-width:3;" width="126.7842" x="10" y="140.918"/><text fill="#FFFFFF" font-family="sans-serif" font-size="14" lengthAdjust="spacing" textLength="65.9189" x="20" y="164.4531">Advanced</text><text fill="#FFFFFF" font-family="sans-serif" font-size="14" lengthAdjust="spacing" textLength="106.7842" x="20" y="180.9414">Schedule (Cron)</text><rect fill="#0078D4" height="36.4883" rx="12.5" ry="12.5" style="stroke:#0078D4;stroke-width:3;" width="187.3711" x="186.7842" y="56.4648"/><text fill="#FFFFFF" font-family="sans-serif" font-size="14" lengthAdjust="spacing" textLength="167.3711" x="196.7842" y="80">Cron Fields (left to right)</text><text fill="#000000" font-family="sans-serif" font-size="14" lengthAdjust="spacing" textLength="103.9404" x="427.1553" y="24.5352">Seconds (0-59)</text><path d="M374.1553,74.709 L384.1553,74.709 C399.1553,74.709 399.1553,19.2441 414.1553,19.2441 L424.1553,19.2441" fill="none" style="stroke:#0078D4;stroke-width:3;"/><text fill="#000000" font-family="sans-serif" font-size="14" lengthAdjust="spacing" textLength="101.8486" x="427.1553" y="43.0234">Minutes (0-59)</text><path d="M374.1553,74.709 L384.1553,74.709 C399.1553,74.709 399.1553,37.7324 414.1553,37.7324 L424.1553,37.7324" fill="none" style="stroke:#0078D4;stroke-width:3;"/><text fill="#000000" font-family="sans-serif" font-size="14" lengthAdjust="spacing" textLength="88.6348" x="427.1553" y="61.5117">Hours (0-23)</text><path d="M374.1553,74.709 L384.1553,74.709 C399.1553,74.709 399.1553,56.2207 414.1553,56.2207 L424.1553,56.2207" fill="none" style="stroke:#0078D4;stroke-width:3;"/><text fill="#000000" font-family="sans-serif" font-size="14" lengthAdjust="spacing" textLength="140.6152" x="427.1553" y="80">Day of month (1-31)</text><path d="M374.1553,74.709 L384.1553,74.709 C399.1553,74.709 399.1553,74.709 414.1553,74.709 L424.1553,74.709" fill="none" style="stroke:#0078D4;stroke-width:3;"/><text fill="#000000" font-family="sans-serif" font-size="14" lengthAdjust="spacing" textLength="167.8838" x="427.1553" y="98.4883">Month (1-12 / JAN-DEC)</text><path d="M374.1553,74.709 L384.1553,74.709 C399.1553,74.709 399.1553,93.1973 414.1553,93.1973 L424.1553,93.1973" fill="none" style="stroke:#0078D4;stroke-width:3;"/><text fill="#000000" font-family="sans-serif" font-size="14" lengthAdjust="spacing" textLength="199.9854" x="427.1553" y="116.9766">Day of week (1-7 / SUN-SAT)</text><path d="M374.1553,74.709 L384.1553,74.709 C399.1553,74.709 399.1553,111.6855 414.1553,111.6855 L424.1553,111.6855" fill="none" style="stroke:#0078D4;stroke-width:3;"/><text fill="#000000" font-family="sans-serif" font-size="14" lengthAdjust="spacing" textLength="99.2783" x="427.1553" y="135.4648">Year (optional)</text><path d="M374.1553,74.709 L384.1553,74.709 C399.1553,74.709 399.1553,130.1738 414.1553,130.1738 L424.1553,130.1738" fill="none" style="stroke:#0078D4;stroke-width:3;"/><path d="M136.7842,167.4063 L146.7842,167.4063 C161.7842,167.4063 161.7842,74.709 176.7842,74.709 L186.7842,74.709" fill="none" style="stroke:#FF5F46;stroke-width:3;"/><rect fill="#0078D4" height="36.4883" rx="12.5" ry="12.5" style="stroke:#0078D4;stroke-width:3;" width="144.2158" x="186.7842" y="185.8828"/><text fill="#FFFFFF" font-family="sans-serif" font-size="14" lengthAdjust="spacing" textLength="124.2158" x="196.7842" y="209.418">Special Characters</text><ellipse cx="389.5" cy="149.4063" fill="#000000" rx="2.5" ry="2.5"/><text fill="#000000" font-family="sans-serif" font-size="14" lengthAdjust="spacing" textLength="78.4629" x="396" y="153.9531">= all values</text><path d="M331,204.127 L341,204.127 C356,204.127 356,148.6621 371,148.6621 L381,148.6621" fill="none" style="stroke:#0078D4;stroke-width:3;"/><text fill="#000000" font-family="sans-serif" font-size="14" lengthAdjust="spacing" textLength="138.8857" x="384" y="172.4414">? = no specific value</text><path d="M331,204.127 L341,204.127 C356,204.127 356,167.1504 371,167.1504 L381,167.1504" fill="none" style="stroke:#0078D4;stroke-width:3;"/><text fill="#000000" font-family="sans-serif" font-size="14" lengthAdjust="spacing" textLength="123.8125" x="384" y="190.9297">- = range (10-12)</text><path d="M331,204.127 L341,204.127 C356,204.127 356,185.6387 371,185.6387 L381,185.6387" fill="none" style="stroke:#0078D4;stroke-width:3;"/><text fill="#000000" font-family="sans-serif" font-size="14" lengthAdjust="spacing" textLength="150.999" x="384" y="209.418">, = list (MON,WED,FRI)</text><path d="M331,204.127 L341,204.127 C356,204.127 356,204.127 371,204.127 L381,204.127" fill="none" style="stroke:#0078D4;stroke-width:3;"/><text fill="#000000" font-family="sans-serif" font-size="14" lengthAdjust="spacing" textLength="142.9941" x="384" y="227.9063">/ = increment (0/15)</text><path d="M331,204.127 L341,204.127 C356,204.127 356,222.6152 371,222.6152 L381,222.6152" fill="none" style="stroke:#0078D4;stroke-width:3;"/><text fill="#000000" font-family="sans-serif" font-size="14" lengthAdjust="spacing" textLength="79.8916" x="384" y="246.3945">L = last day</text><path d="M331,204.127 L341,204.127 C356,204.127 356,241.1035 371,241.1035 L381,241.1035" fill="none" style="stroke:#0078D4;stroke-width:3;"/><text fill="#000000" font-family="sans-serif" font-size="14" lengthAdjust="spacing" textLength="13.2822" x="384" y="264.8828">1.</text><text fill="#000000" font-family="sans-serif" font-size="14" lengthAdjust="spacing" textLength="157.2402" x="401.7119" y="264.8828">= nth occurrence (6#3)</text><path d="M331,204.127 L341,204.127 C356,204.127 356,259.5918 371,259.5918 L381,259.5918" fill="none" style="stroke:#0078D4;stroke-width:3;"/><path d="M136.7842,167.4063 L146.7842,167.4063 C161.7842,167.4063 161.7842,204.127 176.7842,204.127 L186.7842,204.127" fill="none" style="stroke:#FF5F46;stroke-width:3;"/><rect fill="#0078D4" height="36.4883" rx="12.5" ry="12.5" style="stroke:#0078D4;stroke-width:3;" width="84.7705" x="186.7842" y="278.3242"/><text fill="#FFFFFF" font-family="sans-serif" font-size="14" lengthAdjust="spacing" textLength="64.7705" x="196.7842" y="301.8594">Examples</text><text fill="#000000" font-family="sans-serif" font-size="14" lengthAdjust="spacing" textLength="167.9043" x="324.5547" y="283.3711">0 0 12 * * ? = daily noon</text><path d="M271.5547,296.5684 L281.5547,296.5684 C296.5547,296.5684 296.5547,278.0801 311.5547,278.0801 L321.5547,278.0801" fill="none" style="stroke:#0078D4;stroke-width:3;"/><text fill="#000000" font-family="sans-serif" font-size="14" lengthAdjust="spacing" textLength="270.6553" x="324.5547" y="301.8594">0 15 10 ? * MON-FRI = weekdays 10:15</text><path d="M271.5547,296.5684 L281.5547,296.5684 C296.5547,296.5684 296.5547,296.5684 311.5547,296.5684 L321.5547,296.5684" fill="none" style="stroke:#0078D4;stroke-width:3;"/><text fill="#000000" font-family="sans-serif" font-size="14" lengthAdjust="spacing" textLength="211.6543" x="324.5547" y="320.3477">0 30 6 ? * 6L = last Friday 6:30</text><path d="M271.5547,296.5684 L281.5547,296.5684 C296.5547,296.5684 296.5547,315.0566 311.5547,315.0566 L321.5547,315.0566" fill="none" style="stroke:#0078D4;stroke-width:3;"/><path d="M136.7842,167.4063 L146.7842,167.4063 C161.7842,167.4063 161.7842,296.5684 176.7842,296.5684 L186.7842,296.5684" fill="none" style="stroke:#FF5F46;stroke-width:3;"/><?plantuml-src VLDXQzim4FtkNt7GBww94zbft3LqMxCafXjj1al760o6AfzZ4KKAijmrbFttdHsx8ndPwOjuxvtUqmdTb8vRjv4ws_2jTrswdS9ttZZ3hIjyTWul7b1zu6AzigRIsTGeO-4iJKVfHT9mTrBZlsXgj6lHlAbNxKCXnLfZMSAmpxpVdLTqqeknopUpYsEl8_JmrAC4QLD_lUAJNdd-UCNOiTSH-bylrXHvFPfdLMjUJYgk1-su0vXaJrmBp7xefIWmgnI2FxL6dtj10FK6KeagAy5Nc3jm1gnS5QwcWv-mH65qJR9mTDLYzr9N3W-nMrFP1ec7BJBZEp0vR2XT0NuK3gEklKEY60RmQR88P_FfOTCln7Mjk2J1ykiYN4uUMi5tv1PyitNIQAwQEootA2HNC2suvSAXBVVI0Du2LmgUkAgmnTuJfWsKTKiknPxRKo5HbkiLZITYbAqrx16iPEd0l_-yw7sRpthfbuyjDo1EQc5nWve4R12DMkQkxkBKbV7T7ZchdUdUHeZAMgGN0JyvQuO5ysU-sQek8wD5emberN4pBjMEGXlTqT488aPS01Gff3YagYT6NYKnusZKAOSCaaQOl0PAhIGT9ECXyswG_cRxFxse7xCuwST_0000?></g></svg>