<?plantuml 1.2026.2?><svg xmlns="http://www.w3.org/2000/svg" xmlns:xlink="http://www.w3.org/1999/xlink" contentStyleType="text/css" data-diagram-type="MINDMAP" height="265px" preserveAspectRatio="none" style="width:511px;height:265px;background:#FFFFFF;" version="1.1" viewBox="0 0 511 265" width="511px" zoomAndPan="magnify"><defs/><g><rect fill="#FF5F46" height="52.9766" rx="12.5" ry="12.5" style="stroke:#FF5F46;stroke-width:3;" width="80.5459" x="10" y="105.2207"/><text fill="#FFFFFF" font-family="sans-serif" font-size="14" lengthAdjust="spacing" textLength="45.3154" x="20" y="128.7559">Simple</text><text fill="#FFFFFF" font-family="sans-serif" font-size="14" lengthAdjust="spacing" textLength="60.5459" x="20" y="145.2441">Schedule</text><rect fill="#0078D4" height="36.4883" rx="12.5" ry="12.5" style="stroke:#0078D4;stroke-width:3;" width="109.4277" x="140.5459" y="20"/><text fill="#FFFFFF" font-family="sans-serif" font-size="14" lengthAdjust="spacing" textLength="89.4277" x="150.5459" y="43.5352">How It Works</text><text fill="#000000" font-family="sans-serif" font-size="14" lengthAdjust="spacing" textLength="161.4238" x="302.9736" y="25.0469">Trigger type: Scheduled</text><path d="M249.9736,38.2441 L259.9736,38.2441 C274.9736,38.2441 274.9736,19.7559 289.9736,19.7559 L299.9736,19.7559" fill="none" style="stroke:#0078D4;stroke-width:3;"/><text fill="#000000" font-family="sans-serif" font-size="14" lengthAdjust="spacing" textLength="148.3125" x="302.9736" y="43.5352">Schedule type: Simple</text><path d="M249.9736,38.2441 L259.9736,38.2441 C274.9736,38.2441 274.9736,38.2441 289.9736,38.2441 L299.9736,38.2441" fill="none" style="stroke:#0078D4;stroke-width:3;"/><text fill="#000000" font-family="sans-serif" font-size="14" lengthAdjust="spacing" textLength="186.2793" x="302.9736" y="62.0234">Specify number + time unit</text><path d="M249.9736,38.2441 L259.9736,38.2441 C274.9736,38.2441 274.9736,56.7324 289.9736,56.7324 L299.9736,56.7324" fill="none" style="stroke:#0078D4;stroke-width:3;"/><path d="M90.5459,131.709 L100.5459,131.709 C115.5459,131.709 115.5459,38.2441 130.5459,38.2441 L140.5459,38.2441" fill="none" style="stroke:#FF5F46;stroke-width:3;"/><rect fill="#0078D4" height="36.4883" rx="12.5" ry="12.5" style="stroke:#0078D4;stroke-width:3;" width="93.0078" x="140.5459" y="85.2207"/><text fill="#FFFFFF" font-family="sans-serif" font-size="14" lengthAdjust="spacing" textLength="73.0078" x="150.5459" y="108.7559">Time Units</text><text fill="#000000" font-family="sans-serif" font-size="14" lengthAdjust="spacing" textLength="53.6553" x="286.5537" y="81.0234">Minutes</text><path d="M233.5537,103.4648 L243.5537,103.4648 C258.5537,103.4648 258.5537,75.7324 273.5537,75.7324 L283.5537,75.7324" fill="none" style="stroke:#0078D4;stroke-width:3;"/><text fill="#000000" font-family="sans-serif" font-size="14" lengthAdjust="spacing" textLength="40.4414" x="286.5537" y="99.5117">Hours</text><path d="M233.5537,103.4648 L243.5537,103.4648 C258.5537,103.4648 258.5537,94.2207 273.5537,94.2207 L283.5537,94.2207" fill="none" style="stroke:#0078D4;stroke-width:3;"/><text fill="#000000" font-family="sans-serif" font-size="14" lengthAdjust="spacing" textLength="32.6689" x="286.5537" y="118">Days</text><path d="M233.5537,103.4648 L243.5537,103.4648 C258.5537,103.4648 258.5537,112.709 273.5537,112.709 L283.5537,112.709" fill="none" style="stroke:#0078D4;stroke-width:3;"/><text fill="#000000" font-family="sans-serif" font-size="14" lengthAdjust="spacing" textLength="42.8955" x="286.5537" y="136.4883">Weeks</text><path d="M233.5537,103.4648 L243.5537,103.4648 C258.5537,103.4648 258.5537,131.1973 273.5537,131.1973 L283.5537,131.1973" fill="none" style="stroke:#0078D4;stroke-width:3;"/><path d="M90.5459,131.709 L100.5459,131.709 C115.5459,131.709 115.5459,103.4648 130.5459,103.4648 L140.5459,103.4648" fill="none" style="stroke:#FF5F46;stroke-width:3;"/><rect fill="#0078D4" height="36.4883" rx="12.5" ry="12.5" style="stroke:#0078D4;stroke-width:3;" width="95.3047" x="140.5459" y="150.4414"/><text fill="#FFFFFF" font-family="sans-serif" font-size="14" lengthAdjust="spacing" textLength="75.3047" x="150.5459" y="173.9766">Limitations</text><text fill="#000000" font-family="sans-serif" font-size="14" lengthAdjust="spacing" textLength="199.0693" x="288.8506" y="164.7324">First run time: auto-assigned</text><path d="M235.8506,168.6855 L245.8506,168.6855 C260.8506,168.6855 260.8506,159.4414 275.8506,159.4414 L285.8506,159.4414" fill="none" style="stroke:#0078D4;stroke-width:3;"/><text fill="#000000" font-family="sans-serif" font-size="14" lengthAdjust="spacing" textLength="204.9619" x="288.8506" y="183.2207">Minimum interval: 10 seconds</text><path d="M235.8506,168.6855 L245.8506,168.6855 C260.8506,168.6855 260.8506,177.9297 275.8506,177.9297 L285.8506,177.9297" fill="none" style="stroke:#0078D4;stroke-width:3;"/><path d="M90.5459,131.709 L100.5459,131.709 C115.5459,131.709 115.5459,168.6855 130.5459,168.6855 L140.5459,168.6855" fill="none" style="stroke:#FF5F46;stroke-width:3;"/><rect fill="#0078D4" height="36.4883" rx="12.5" ry="12.5" style="stroke:#0078D4;stroke-width:3;" width="104.4854" x="140.5459" y="206.9297"/><text fill="#FFFFFF" font-family="sans-serif" font-size="14" lengthAdjust="spacing" textLength="84.4854" x="150.5459" y="230.4648">When to Use</text><text fill="#000000" font-family="sans-serif" font-size="14" lengthAdjust="spacing" textLength="201.0859" x="298.0313" y="221.2207">Consistent recurring intervals</text><path d="M245.0313,225.1738 L255.0313,225.1738 C270.0313,225.1738 270.0313,215.9297 285.0313,215.9297 L295.0313,215.9297" fill="none" style="stroke:#0078D4;stroke-width:3;"/><text fill="#000000" font-family="sans-serif" font-size="14" lengthAdjust="spacing" textLength="197.1143" x="298.0313" y="239.709">No specific time requirement</text><path d="M245.0313,225.1738 L255.0313,225.1738 C270.0313,225.1738 270.0313,234.418 285.0313,234.418 L295.0313,234.418" fill="none" style="stroke:#0078D4;stroke-width:3;"/><path d="M90.5459,131.709 L100.5459,131.709 C115.5459,131.709 115.5459,225.1738 130.5459,225.1738 L140.5459,225.1738" fill="none" style="stroke:#FF5F46;stroke-width:3;"/><?plantuml-src VP9DJm8n48Rl-oicyQ8OiQ2Y4cA8a0qcwWK85nEpx0xBX6sxzaCbnFzkALsCQt1EVUVZVQPD-zeaod0I6K_AgAVDki2xg9jXQPR7x0Gs4RYuJz9LhgGLsK0MKi5H75_5bnrVUoI1VxEn52Pa5pxslPCbfIk1MiD5aqLV5QjraCNOzStmiiwgPN-xrZQ8VVomsWTPYyNybh4wgvRzbyLyEDPSVXRRdit1ZjvvUEu6Z8cN1Rw8SRh4p1OODHemaX_mO60crKextNY5YQ8yHmLcNM8NgjviLwnaLVMEeLHYIeir2CldRlmK3744AyXiEPEjc3eHA4yahC4WHjAgS1mcwt2Q8VgLt6jmCeaXAK8b9gKDA2iyeWk9DV8iqPfoKUtfx8bR3YGCglUaw4ABWSPKYinxpfRefYLCTTX-uDn96nJE65Eh58byFnsupnAqloIbkyifVBEaaBkfg8_kTuSV7hMQRTRkDDlV?></g></svg>