<?plantuml 1.2026.2?><svg xmlns="http://www.w3.org/2000/svg" xmlns:xlink="http://www.w3.org/1999/xlink" contentStyleType="text/css" data-diagram-type="MINDMAP" height="304px" preserveAspectRatio="none" style="width:705px;height:304px;background:#FFFFFF;" version="1.1" viewBox="0 0 705 304" width="705px" zoomAndPan="magnify"><defs/><g><rect fill="#FF5F46" height="52.9766" rx="12.5" ry="12.5" style="stroke:#FF5F46;stroke-width:3;" width="101.2451" x="10" y="124.7324"/><text fill="#FFFFFF" font-family="sans-serif" font-size="14" lengthAdjust="spacing" textLength="76.0156" x="20" y="148.2676">Concurrent</text><text fill="#FFFFFF" font-family="sans-serif" font-size="14" lengthAdjust="spacing" textLength="81.2451" x="20" y="164.7559">Run Control</text><rect fill="#0078D4" height="36.4883" rx="12.5" ry="12.5" style="stroke:#0078D4;stroke-width:3;" width="75.7949" x="161.2451" y="20"/><text fill="#FFFFFF" font-family="sans-serif" font-size="14" lengthAdjust="spacing" textLength="55.7949" x="171.2451" y="43.5352">Problem</text><text fill="#000000" font-family="sans-serif" font-size="14" lengthAdjust="spacing" textLength="204.4971" x="290.04" y="25.0469">Run takes longer than interval</text><path d="M237.04,38.2441 L247.04,38.2441 C262.04,38.2441 262.04,19.7559 277.04,19.7559 L287.04,19.7559" fill="none" style="stroke:#0078D4;stroke-width:3;"/><text fill="#000000" font-family="sans-serif" font-size="14" lengthAdjust="spacing" textLength="249.8057" x="290.04" y="43.5352">Next run starts before previous ends</text><path d="M237.04,38.2441 L247.04,38.2441 C262.04,38.2441 262.04,38.2441 277.04,38.2441 L287.04,38.2441" fill="none" style="stroke:#0078D4;stroke-width:3;"/><text fill="#000000" font-family="sans-serif" font-size="14" lengthAdjust="spacing" textLength="227.999" x="290.04" y="62.0234">Risk: data corruption / duplicates</text><path d="M237.04,38.2441 L247.04,38.2441 C262.04,38.2441 262.04,56.7324 277.04,56.7324 L287.04,56.7324" fill="none" style="stroke:#0078D4;stroke-width:3;"/><path d="M111.2451,151.2207 L121.2451,151.2207 C136.2451,151.2207 136.2451,38.2441 151.2451,38.2441 L161.2451,38.2441" fill="none" style="stroke:#FF5F46;stroke-width:3;"/><rect fill="#0078D4" height="36.4883" rx="12.5" ry="12.5" style="stroke:#0078D4;stroke-width:3;" width="166.6172" x="161.2451" y="76.4883"/><text fill="#FFFFFF" font-family="sans-serif" font-size="14" lengthAdjust="spacing" textLength="146.6172" x="171.2451" y="100.0234">Max Concurrent Runs</text><text fill="#000000" font-family="sans-serif" font-size="14" lengthAdjust="spacing" textLength="169.9961" x="380.8623" y="90.7793">Default: multiple allowed</text><path d="M327.8623,94.7324 L337.8623,94.7324 C352.8623,94.7324 352.8623,85.4883 367.8623,85.4883 L377.8623,85.4883" fill="none" style="stroke:#0078D4;stroke-width:3;"/><text fill="#000000" font-family="sans-serif" font-size="14" lengthAdjust="spacing" textLength="228.0127" x="380.8623" y="109.2676">Set to 1 for non-overlapping jobs</text><path d="M327.8623,94.7324 L337.8623,94.7324 C352.8623,94.7324 352.8623,103.9766 367.8623,103.9766 L377.8623,103.9766" fill="none" style="stroke:#0078D4;stroke-width:3;"/><path d="M111.2451,151.2207 L121.2451,151.2207 C136.2451,151.2207 136.2451,94.7324 151.2451,94.7324 L161.2451,94.7324" fill="none" style="stroke:#FF5F46;stroke-width:3;"/><rect fill="#0078D4" height="36.4883" rx="12.5" ry="12.5" style="stroke:#0078D4;stroke-width:3;" width="126.1758" x="161.2451" y="189.4648"/><text fill="#FFFFFF" font-family="sans-serif" font-size="14" lengthAdjust="spacing" textLength="106.1758" x="171.2451" y="213">Queue Behavior</text><rect fill="#FFB900" height="36.4883" rx="12.5" ry="12.5" style="stroke:#FFB900;stroke-width:3;" width="117.542" x="337.4209" y="132.9766"/><text fill="#000000" font-family="sans-serif" font-size="14" lengthAdjust="spacing" textLength="97.542" x="347.4209" y="156.5117">Queue the run</text><text fill="#000000" font-family="sans-serif" font-size="14" lengthAdjust="spacing" textLength="101.6436" x="507.9629" y="147.2676">Waits for a slot</text><path d="M454.9629,151.2207 L464.9629,151.2207 C479.9629,151.2207 479.9629,141.9766 494.9629,141.9766 L504.9629,141.9766" fill="none" style="stroke:#FFB900;stroke-width:3;"/><text fill="#000000" font-family="sans-serif" font-size="14" lengthAdjust="spacing" textLength="128.9395" x="507.9629" y="165.7559">No triggers missed</text><path d="M454.9629,151.2207 L464.9629,151.2207 C479.9629,151.2207 479.9629,160.4648 494.9629,160.4648 L504.9629,160.4648" fill="none" style="stroke:#FFB900;stroke-width:3;"/><path d="M287.4209,207.709 L297.4209,207.709 C312.4209,207.709 312.4209,151.2207 327.4209,151.2207 L337.4209,151.2207" fill="none" style="stroke:#0078D4;stroke-width:3;"/><rect fill="#FFB900" height="36.4883" rx="12.5" ry="12.5" style="stroke:#FFB900;stroke-width:3;" width="118.8135" x="337.4209" y="189.4648"/><text fill="#000000" font-family="sans-serif" font-size="14" lengthAdjust="spacing" textLength="98.8135" x="347.4209" y="213">Cancel the run</text><text fill="#000000" font-family="sans-serif" font-size="14" lengthAdjust="spacing" textLength="153.4395" x="509.2344" y="203.7559">Immediately discarded</text><path d="M456.2344,207.709 L466.2344,207.709 C481.2344,207.709 481.2344,198.4648 496.2344,198.4648 L506.2344,198.4648" fill="none" style="stroke:#FFB900;stroke-width:3;"/><text fill="#000000" font-family="sans-serif" font-size="14" lengthAdjust="spacing" textLength="177.4063" x="509.2344" y="222.2441">Stale triggers not valuable</text><path d="M456.2344,207.709 L466.2344,207.709 C481.2344,207.709 481.2344,216.9531 496.2344,216.9531 L506.2344,216.9531" fill="none" style="stroke:#FFB900;stroke-width:3;"/><path d="M287.4209,207.709 L297.4209,207.709 C312.4209,207.709 312.4209,207.709 327.4209,207.709 L337.4209,207.709" fill="none" style="stroke:#0078D4;stroke-width:3;"/><rect fill="#FFB900" height="36.4883" rx="12.5" ry="12.5" style="stroke:#FFB900;stroke-width:3;" width="102.2705" x="337.4209" y="245.9531"/><text fill="#000000" font-family="sans-serif" font-size="14" lengthAdjust="spacing" textLength="82.2705" x="347.4209" y="269.4883">Skip the run</text><text fill="#000000" font-family="sans-serif" font-size="14" lengthAdjust="spacing" textLength="111.5146" x="492.6914" y="260.2441">Similar to cancel</text><path d="M439.6914,264.1973 L449.6914,264.1973 C464.6914,264.1973 464.6914,254.9531 479.6914,254.9531 L489.6914,254.9531" fill="none" style="stroke:#FFB900;stroke-width:3;"/><text fill="#000000" font-family="sans-serif" font-size="14" lengthAdjust="spacing" textLength="200.6963" x="492.6914" y="278.7324">Occasional misses acceptable</text><path d="M439.6914,264.1973 L449.6914,264.1973 C464.6914,264.1973 464.6914,273.4414 479.6914,273.4414 L489.6914,273.4414" fill="none" style="stroke:#FFB900;stroke-width:3;"/><path d="M287.4209,207.709 L297.4209,207.709 C312.4209,207.709 312.4209,264.1973 327.4209,264.1973 L337.4209,264.1973" fill="none" style="stroke:#0078D4;stroke-width:3;"/><path d="M111.2451,151.2207 L121.2451,151.2207 C136.2451,151.2207 136.2451,207.709 151.2451,207.709 L161.2451,207.709" fill="none" style="stroke:#FF5F46;stroke-width:3;"/><?plantuml-src VLFHRjD047ptLwp42qGYTK8f45MeQgf8I51eWyGB4bgVr_7XywrrjnTILVmxTxPRm2ZiWsNFpitChkqBB-YarRPiiSlElTmPUfkjIkgaVfe_W_iCObsYQdQEWotNRDZ1aytcvURqhE-zrvR-HJTiPKIhlXwvdskj6alUmujvdlryy5eSzShpLw-lJgTU4_HlrKc2JL-_lPP7lQggU9FdKwy9-b-llA_eLV319CxzKSRvoRZk6QpPgk0SMVbgRuDDp-BOPBCPV79S66hZxUmRf9vWGnuCsnqva1ejQ2lazcW6pZKT15mazg_MGq4LEuBEqLvpy42szAEQziqAIXG4nSw5JZHRE84oT4Oh54ey-827F_Ab2EFnAwem65b16w-wCmHe3F-WScXlIK0O5X3jmR9zpdjo1hjEsnryvw8NlmaK22wfnXZEfOCZ93Mb8H8IjRwWZfCa8GHlM4Ruca6StiL5U6YrzuCrhD4gCXE9TsrBfOv3cJiejLVeoe6UeWh6z8zIbWNYEWF6nVU2sqPt4xcjRhL1boPKlTs8VrGAVLmZcY6H1rGgVdMzraNS_SE_bYtcotnvDb_-0W00?></g></svg>