<?plantuml 1.2026.2?><svg xmlns="http://www.w3.org/2000/svg" xmlns:xlink="http://www.w3.org/1999/xlink" contentStyleType="text/css" data-diagram-type="MINDMAP" height="191px" preserveAspectRatio="none" style="width:575px;height:191px;background:#FFFFFF;" version="1.1" viewBox="0 0 575 191" width="575px" zoomAndPan="magnify"><defs/><g><rect fill="#FF5F46" height="52.9766" rx="12.5" ry="12.5" style="stroke:#FF5F46;stroke-width:3;" width="91.75" x="10" y="68.2441"/><text fill="#FFFFFF" font-family="sans-serif" font-size="14" lengthAdjust="spacing" textLength="71.75" x="20" y="91.7793">Time Zone</text><text fill="#FFFFFF" font-family="sans-serif" font-size="14" lengthAdjust="spacing" textLength="60.9287" x="20" y="108.2676">Selection</text><rect fill="#0078D4" height="36.4883" rx="12.5" ry="12.5" style="stroke:#0078D4;stroke-width:3;" width="97.3623" x="151.75" y="20"/><text fill="#FFFFFF" font-family="sans-serif" font-size="14" lengthAdjust="spacing" textLength="77.3623" x="161.75" y="43.5352">DST Impact</text><text fill="#000000" font-family="sans-serif" font-size="14" lengthAdjust="spacing" textLength="201.9473" x="302.1123" y="25.0469">Hourly jobs may skip or delay</text><path d="M249.1123,38.2441 L259.1123,38.2441 C274.1123,38.2441 274.1123,19.7559 289.1123,19.7559 L299.1123,19.7559" fill="none" style="stroke:#0078D4;stroke-width:3;"/><text fill="#000000" font-family="sans-serif" font-size="14" lengthAdjust="spacing" textLength="177.2422" x="302.1123" y="43.5352">Spring forward: skip a run</text><path d="M249.1123,38.2441 L259.1123,38.2441 C274.1123,38.2441 274.1123,38.2441 289.1123,38.2441 L299.1123,38.2441" fill="none" style="stroke:#0078D4;stroke-width:3;"/><text fill="#000000" font-family="sans-serif" font-size="14" lengthAdjust="spacing" textLength="131.0928" x="302.1123" y="62.0234">Fall back: run twice</text><path d="M249.1123,38.2441 L259.1123,38.2441 C274.1123,38.2441 274.1123,56.7324 289.1123,56.7324 L299.1123,56.7324" fill="none" style="stroke:#0078D4;stroke-width:3;"/><path d="M101.75,94.7324 L111.75,94.7324 C126.75,94.7324 126.75,38.2441 141.75,38.2441 L151.75,38.2441" fill="none" style="stroke:#FF5F46;stroke-width:3;"/><rect fill="#0078D4" height="36.4883" rx="12.5" ry="12.5" style="stroke:#0078D4;stroke-width:3;" width="118.8887" x="151.75" y="76.4883"/><text fill="#FFFFFF" font-family="sans-serif" font-size="14" lengthAdjust="spacing" textLength="98.8887" x="161.75" y="100.0234">Use UTC When</text><text fill="#000000" font-family="sans-serif" font-size="14" lengthAdjust="spacing" textLength="160.248" x="323.6387" y="81.5352">Exact intervals required</text><path d="M270.6387,94.7324 L280.6387,94.7324 C295.6387,94.7324 295.6387,76.2441 310.6387,76.2441 L320.6387,76.2441" fill="none" style="stroke:#0078D4;stroke-width:3;"/><text fill="#000000" font-family="sans-serif" font-size="14" lengthAdjust="spacing" textLength="195.4395" x="323.6387" y="100.0234">UTC timestamp data sources</text><path d="M270.6387,94.7324 L280.6387,94.7324 C295.6387,94.7324 295.6387,94.7324 310.6387,94.7324 L320.6387,94.7324" fill="none" style="stroke:#0078D4;stroke-width:3;"/><text fill="#000000" font-family="sans-serif" font-size="14" lengthAdjust="spacing" textLength="180.3594" x="323.6387" y="118.5117">Cross-region coordination</text><path d="M270.6387,94.7324 L280.6387,94.7324 C295.6387,94.7324 295.6387,113.2207 310.6387,113.2207 L320.6387,113.2207" fill="none" style="stroke:#0078D4;stroke-width:3;"/><path d="M101.75,94.7324 L111.75,94.7324 C126.75,94.7324 126.75,94.7324 141.75,94.7324 L151.75,94.7324" fill="none" style="stroke:#FF5F46;stroke-width:3;"/><rect fill="#0078D4" height="36.4883" rx="12.5" ry="12.5" style="stroke:#0078D4;stroke-width:3;" width="163.8623" x="151.75" y="132.9766"/><text fill="#FFFFFF" font-family="sans-serif" font-size="14" lengthAdjust="spacing" textLength="143.8623" x="161.75" y="156.5117">Use Local Time When</text><text fill="#000000" font-family="sans-serif" font-size="14" lengthAdjust="spacing" textLength="185.2949" x="368.6123" y="138.0234">Business alignment needed</text><path d="M315.6123,151.2207 L325.6123,151.2207 C340.6123,151.2207 340.6123,132.7324 355.6123,132.7324 L365.6123,132.7324" fill="none" style="stroke:#0078D4;stroke-width:3;"/><text fill="#000000" font-family="sans-serif" font-size="14" lengthAdjust="spacing" textLength="194.6943" x="368.6123" y="156.5117">8 AM local delivery expected</text><path d="M315.6123,151.2207 L325.6123,151.2207 C340.6123,151.2207 340.6123,151.2207 355.6123,151.2207 L365.6123,151.2207" fill="none" style="stroke:#0078D4;stroke-width:3;"/><text fill="#000000" font-family="sans-serif" font-size="14" lengthAdjust="spacing" textLength="145.4414" x="368.6123" y="175">DST shifts acceptable</text><path d="M315.6123,151.2207 L325.6123,151.2207 C340.6123,151.2207 340.6123,169.709 355.6123,169.709 L365.6123,169.709" fill="none" style="stroke:#0078D4;stroke-width:3;"/><path d="M101.75,94.7324 L111.75,94.7324 C126.75,94.7324 126.75,151.2207 141.75,151.2207 L151.75,151.2207" fill="none" style="stroke:#FF5F46;stroke-width:3;"/><?plantuml-src VP9HJy8m4CVVzoakyKL9n868I8X1m4KJV6B4n9YOhhr1fMjdsm4ByRlRRQ1n1k-j__llVdUt6nfBj4suP0b9lO6nkS1RhyymjSjJ_mns7hWO4RfQQ9L9DbP2QJW9WgkWqorpKoxnhneeQVTgNCQtDrnokf9e35msVU_pm6eTPVd-TM_IgRDgwk-gjGw2CdvOxQEiE8vkVB_Eggd_ilmo72jIMr5uTaSTWulzkXiGyWJXHKbybJCKI2rNqciqO38BuJ592RNkrNY31vLfaSExYWma90UpuYcueWm5oIlBBDLSBY1MUaCqwrSM0ZgJLJuWGa3a1kyN6jWDfrYWvWPX7exXUObxv_tMSO5BYtfDX06D7ndNoAfiuRMkRNT0IGgCM0B6TKVHLFcnLiQSQrouKO0gfHcNv31N0PigIaGr-Gzpb1bUhfO8lf09IWiIaHsWFRXx0b5-w4RcQzGvu3Pr2piuYesP9O-jAq6f-zqa4kWDqHtu_iYzLhFjjxlDzXS0?></g></svg>