<?plantuml 1.2026.2?><svg xmlns="http://www.w3.org/2000/svg" xmlns:xlink="http://www.w3.org/1999/xlink" contentStyleType="text/css" data-diagram-type="MINDMAP" height="304px" preserveAspectRatio="none" style="width:834px;height:304px;background:#FFFFFF;" version="1.1" viewBox="0 0 834 304" width="834px" zoomAndPan="magnify"><defs/><g><rect fill="#FF5F46" height="52.9766" rx="12.5" ry="12.5" style="stroke:#FF5F46;stroke-width:3;" width="141.249" x="10" y="124.7324"/><text fill="#FFFFFF" font-family="sans-serif" font-size="14" lengthAdjust="spacing" textLength="49.123" x="20" y="148.2676">Reduce</text><text fill="#FFFFFF" font-family="sans-serif" font-size="14" lengthAdjust="spacing" textLength="121.249" x="20" y="164.7559">Notification Noise</text><rect fill="#0078D4" height="36.4883" rx="12.5" ry="12.5" style="stroke:#0078D4;stroke-width:3;" width="139.2871" x="201.249" y="20"/><text fill="#FFFFFF" font-family="sans-serif" font-size="14" lengthAdjust="spacing" textLength="119.2871" x="211.249" y="43.5352">Alert Fatigue Risk</text><text fill="#000000" font-family="sans-serif" font-size="14" lengthAdjust="spacing" textLength="223.8975" x="393.5361" y="34.291">Too many alerts = ignored alerts</text><path d="M340.5361,38.2441 L350.5361,38.2441 C365.5361,38.2441 365.5361,29 380.5361,29 L390.5361,29" fill="none" style="stroke:#0078D4;stroke-width:3;"/><text fill="#000000" font-family="sans-serif" font-size="14" lengthAdjust="spacing" textLength="142.2354" x="393.5361" y="52.7793">Critical alerts missed</text><path d="M340.5361,38.2441 L350.5361,38.2441 C365.5361,38.2441 365.5361,47.4883 380.5361,47.4883 L390.5361,47.4883" fill="none" style="stroke:#0078D4;stroke-width:3;"/><path d="M151.249,151.2207 L161.249,151.2207 C176.249,151.2207 176.249,38.2441 191.249,38.2441 L201.249,38.2441" fill="none" style="stroke:#FF5F46;stroke-width:3;"/><rect fill="#0078D4" height="36.4883" rx="12.5" ry="12.5" style="stroke:#0078D4;stroke-width:3;" width="86.9854" x="201.249" y="161.2207"/><text fill="#FFFFFF" font-family="sans-serif" font-size="14" lengthAdjust="spacing" textLength="66.9854" x="211.249" y="184.7559">Strategies</text><rect fill="#FFB900" height="36.4883" rx="12.5" ry="12.5" style="stroke:#FFB900;stroke-width:3;" width="213.0469" x="338.2344" y="76.4883"/><text fill="#000000" font-family="sans-serif" font-size="14" lengthAdjust="spacing" textLength="193.0469" x="348.2344" y="100.0234">Mute skipped/canceled runs</text><text fill="#000000" font-family="sans-serif" font-size="14" lengthAdjust="spacing" textLength="218.3604" x="604.2813" y="100.0234">Suppress non-actionable events</text><path d="M551.2813,94.7324 L561.2813,94.7324 C576.2813,94.7324 576.2813,94.7324 591.2813,94.7324 L601.2813,94.7324" fill="none" style="stroke:#FFB900;stroke-width:3;"/><path d="M288.2344,179.4648 L298.2344,179.4648 C313.2344,179.4648 313.2344,94.7324 328.2344,94.7324 L338.2344,94.7324" fill="none" style="stroke:#0078D4;stroke-width:3;"/><rect fill="#FFB900" height="36.4883" rx="12.5" ry="12.5" style="stroke:#FFB900;stroke-width:3;" width="145.1729" x="338.2344" y="132.9766"/><text fill="#000000" font-family="sans-serif" font-size="14" lengthAdjust="spacing" textLength="125.1729" x="348.2344" y="156.5117">Duration warnings</text><text fill="#000000" font-family="sans-serif" font-size="14" lengthAdjust="spacing" textLength="218.8184" x="536.4072" y="147.2676">Based on historical performance</text><path d="M483.4072,151.2207 L493.4072,151.2207 C508.4072,151.2207 508.4072,141.9766 523.4072,141.9766 L533.4072,141.9766" fill="none" style="stroke:#FFB900;stroke-width:3;"/><text fill="#000000" font-family="sans-serif" font-size="14" lengthAdjust="spacing" textLength="186.9424" x="536.4072" y="165.7559">Threshold = mean + buffer</text><path d="M483.4072,151.2207 L493.4072,151.2207 C508.4072,151.2207 508.4072,160.4648 523.4072,160.4648 L533.4072,160.4648" fill="none" style="stroke:#FFB900;stroke-width:3;"/><path d="M288.2344,179.4648 L298.2344,179.4648 C313.2344,179.4648 313.2344,151.2207 328.2344,151.2207 L338.2344,151.2207" fill="none" style="stroke:#0078D4;stroke-width:3;"/><rect fill="#FFB900" height="36.4883" rx="12.5" ry="12.5" style="stroke:#FFB900;stroke-width:3;" width="228.9131" x="338.2344" y="189.4648"/><text fill="#000000" font-family="sans-serif" font-size="14" lengthAdjust="spacing" textLength="208.9131" x="348.2344" y="213">Separate task/job notifications</text><text fill="#000000" font-family="sans-serif" font-size="14" lengthAdjust="spacing" textLength="153.9316" x="620.1475" y="203.7559">Job: know that it failed</text><path d="M567.1475,207.709 L577.1475,207.709 C592.1475,207.709 592.1475,198.4648 607.1475,198.4648 L617.1475,198.4648" fill="none" style="stroke:#FFB900;stroke-width:3;"/><text fill="#000000" font-family="sans-serif" font-size="14" lengthAdjust="spacing" textLength="195.5625" x="620.1475" y="222.2441">Task: know which task failed</text><path d="M567.1475,207.709 L577.1475,207.709 C592.1475,207.709 592.1475,216.9531 607.1475,216.9531 L617.1475,216.9531" fill="none" style="stroke:#FFB900;stroke-width:3;"/><path d="M288.2344,179.4648 L298.2344,179.4648 C313.2344,179.4648 313.2344,207.709 328.2344,207.709 L338.2344,207.709" fill="none" style="stroke:#0078D4;stroke-width:3;"/><rect fill="#FFB900" height="36.4883" rx="12.5" ry="12.5" style="stroke:#FFB900;stroke-width:3;" width="161.7363" x="338.2344" y="245.9531"/><text fill="#000000" font-family="sans-serif" font-size="14" lengthAdjust="spacing" textLength="141.7363" x="348.2344" y="269.4883">Document alert logic</text><text fill="#000000" font-family="sans-serif" font-size="14" lengthAdjust="spacing" textLength="172.4092" x="552.9707" y="251">Why does this alert exist?</text><path d="M499.9707,264.1973 L509.9707,264.1973 C524.9707,264.1973 524.9707,245.709 539.9707,245.709 L549.9707,245.709" fill="none" style="stroke:#FFB900;stroke-width:3;"/><text fill="#000000" font-family="sans-serif" font-size="14" lengthAdjust="spacing" textLength="137.0879" x="552.9707" y="269.4883">What action to take?</text><path d="M499.9707,264.1973 L509.9707,264.1973 C524.9707,264.1973 524.9707,264.1973 539.9707,264.1973 L549.9707,264.1973" fill="none" style="stroke:#FFB900;stroke-width:3;"/><text fill="#000000" font-family="sans-serif" font-size="14" lengthAdjust="spacing" textLength="220.5" x="552.9707" y="287.9766">Helps onboarding new members</text><path d="M499.9707,264.1973 L509.9707,264.1973 C524.9707,264.1973 524.9707,282.6855 539.9707,282.6855 L549.9707,282.6855" fill="none" style="stroke:#FFB900;stroke-width:3;"/><path d="M288.2344,179.4648 L298.2344,179.4648 C313.2344,179.4648 313.2344,264.1973 328.2344,264.1973 L338.2344,264.1973" fill="none" style="stroke:#0078D4;stroke-width:3;"/><path d="M151.249,151.2207 L161.249,151.2207 C176.249,151.2207 176.249,179.4648 191.249,179.4648 L201.249,179.4648" fill="none" style="stroke:#FF5F46;stroke-width:3;"/><?plantuml-src VPDFRzGm4CNl-HGZSIcBs4sNKafLeBIhg4BGGtUbNYeX9vua9eudiXssguhlpiH9-YTecUERv_URcIZdpWlhQsLaBPhepFcTni_HgSJ6bmVnQtY8WEj2P5LXgJNoaZHPU9KaxvEZuz3xhWp-goPa_A3ceHwzcr9bbK7duDqyZlwChCEzh3Z-SB8wch8cwilKoGH9g2VMSYyhpzEFSJnbJTJ_ik9Gp4hfNdUUXxsEiyLmxXdSe6mpl3FNv5MkCk4L6RWcvJ2QpU2hHkiXORLe4MwKgrYT_OGD4TJ2x41q1WUVG1M6BCf1w5sNLdcErAEhLiwXx7BNtWgFXSBWX1-jHt2LQXgKYqoO33L7sTQ4DYUjswQntKw6p5kHTKEAL2FWRpGz3LQjxOVV2ckKASQd5uAPm7gfd2SRvcdGvcJh3ZIuDYN7bwGbhrAZCF06qZRFqORiDJQY6nYySDNY5wKynzEvHj8tIa-XChG5NmeFoaCkb0uB1mI_7VfR_evb27jcWHLbRStxzES2JONAXhUtvGuaeUDavOO-tlD2NnuDJEmF0vuukiAnTOMwSNo0b8ILV1WmkEKTwnIjYywH_x_X7umEvyjuUJnV_WK0?></g></svg>