<?plantuml 1.2026.2?><svg xmlns="http://www.w3.org/2000/svg" xmlns:xlink="http://www.w3.org/1999/xlink" contentStyleType="text/css" data-diagram-type="MINDMAP" height="304px" preserveAspectRatio="none" style="width:705px;height:304px;background:#FFFFFF;" version="1.1" viewBox="0 0 705 304" width="705px" zoomAndPan="magnify"><defs/><g><rect fill="#FF5F46" height="52.9766" rx="12.5" ry="12.5" style="stroke:#FF5F46;stroke-width:3;" width="144.1475" x="10" y="124.7324"/><text fill="#FFFFFF" font-family="sans-serif" font-size="14" lengthAdjust="spacing" textLength="124.1475" x="20" y="148.2676">HTTP Webhooks &amp;</text><text fill="#FFFFFF" font-family="sans-serif" font-size="14" lengthAdjust="spacing" textLength="106.5039" x="20" y="164.7559">ADF Monitoring</text><rect fill="#0078D4" height="36.4883" rx="12.5" ry="12.5" style="stroke:#0078D4;stroke-width:3;" width="129.9561" x="204.1475" y="20"/><text fill="#FFFFFF" font-family="sans-serif" font-size="14" lengthAdjust="spacing" textLength="109.9561" x="214.1475" y="43.5352">HTTP Webhooks</text><text fill="#000000" font-family="sans-serif" font-size="14" lengthAdjust="spacing" textLength="193.0742" x="387.1035" y="25.0469">Flexible custom integrations</text><path d="M334.1035,38.2441 L344.1035,38.2441 C359.1035,38.2441 359.1035,19.7559 374.1035,19.7559 L384.1035,19.7559" fill="none" style="stroke:#0078D4;stroke-width:3;"/><text fill="#000000" font-family="sans-serif" font-size="14" lengthAdjust="spacing" textLength="186.7988" x="387.1035" y="43.5352">JSON payload sent on event</text><path d="M334.1035,38.2441 L344.1035,38.2441 C359.1035,38.2441 359.1035,38.2441 374.1035,38.2441 L384.1035,38.2441" fill="none" style="stroke:#0078D4;stroke-width:3;"/><text fill="#000000" font-family="sans-serif" font-size="14" lengthAdjust="spacing" textLength="180.2637" x="387.1035" y="62.0234">Control message structure</text><path d="M334.1035,38.2441 L344.1035,38.2441 C359.1035,38.2441 359.1035,56.7324 374.1035,56.7324 L384.1035,56.7324" fill="none" style="stroke:#0078D4;stroke-width:3;"/><path d="M154.1475,151.2207 L164.1475,151.2207 C179.1475,151.2207 179.1475,38.2441 194.1475,38.2441 L204.1475,38.2441" fill="none" style="stroke:#FF5F46;stroke-width:3;"/><rect fill="#0078D4" height="36.4883" rx="12.5" ry="12.5" style="stroke:#0078D4;stroke-width:3;" width="203.3057" x="204.1475" y="76.4883"/><text fill="#FFFFFF" font-family="sans-serif" font-size="14" lengthAdjust="spacing" textLength="183.3057" x="214.1475" y="100.0234">Webhook Payload Contains</text><text fill="#000000" font-family="sans-serif" font-size="14" lengthAdjust="spacing" textLength="72.9326" x="460.4531" y="81.5352">event_type</text><path d="M407.4531,94.7324 L417.4531,94.7324 C432.4531,94.7324 432.4531,76.2441 447.4531,76.2441 L457.4531,76.2441" fill="none" style="stroke:#0078D4;stroke-width:3;"/><text fill="#000000" font-family="sans-serif" font-size="14" lengthAdjust="spacing" textLength="91.8066" x="460.4531" y="100.0234">workspace_id</text><path d="M407.4531,94.7324 L417.4531,94.7324 C432.4531,94.7324 432.4531,94.7324 447.4531,94.7324 L457.4531,94.7324" fill="none" style="stroke:#0078D4;stroke-width:3;"/><text fill="#000000" font-family="sans-serif" font-size="14" lengthAdjust="spacing" textLength="168.1709" x="460.4531" y="118.5117">run_id, job_id, job_name</text><path d="M407.4531,94.7324 L417.4531,94.7324 C432.4531,94.7324 432.4531,113.2207 447.4531,113.2207 L457.4531,113.2207" fill="none" style="stroke:#0078D4;stroke-width:3;"/><path d="M154.1475,151.2207 L164.1475,151.2207 C179.1475,151.2207 179.1475,94.7324 194.1475,94.7324 L204.1475,94.7324" fill="none" style="stroke:#FF5F46;stroke-width:3;"/><rect fill="#0078D4" height="36.4883" rx="12.5" ry="12.5" style="stroke:#0078D4;stroke-width:3;" width="228.1816" x="204.1475" y="132.9766"/><text fill="#FFFFFF" font-family="sans-serif" font-size="14" lengthAdjust="spacing" textLength="208.1816" x="214.1475" y="156.5117">Azure Data Factory Integration</text><text fill="#000000" font-family="sans-serif" font-size="14" lengthAdjust="spacing" textLength="179.1494" x="485.3291" y="138.0234">Visual pipeline monitoring</text><path d="M432.3291,151.2207 L442.3291,151.2207 C457.3291,151.2207 457.3291,132.7324 472.3291,132.7324 L482.3291,132.7324" fill="none" style="stroke:#0078D4;stroke-width:3;"/><text fill="#000000" font-family="sans-serif" font-size="14" lengthAdjust="spacing" textLength="208.3936" x="485.3291" y="156.5117">Track pipeline &amp; activity status</text><path d="M432.3291,151.2207 L442.3291,151.2207 C457.3291,151.2207 457.3291,151.2207 472.3291,151.2207 L482.3291,151.2207" fill="none" style="stroke:#0078D4;stroke-width:3;"/><text fill="#000000" font-family="sans-serif" font-size="14" lengthAdjust="spacing" textLength="181.9658" x="485.3291" y="175">Create metric-based alerts</text><path d="M432.3291,151.2207 L442.3291,151.2207 C457.3291,151.2207 457.3291,169.709 472.3291,169.709 L482.3291,169.709" fill="none" style="stroke:#0078D4;stroke-width:3;"/><path d="M154.1475,151.2207 L164.1475,151.2207 C179.1475,151.2207 179.1475,151.2207 194.1475,151.2207 L204.1475,151.2207" fill="none" style="stroke:#FF5F46;stroke-width:3;"/><rect fill="#0078D4" height="36.4883" rx="12.5" ry="12.5" style="stroke:#0078D4;stroke-width:3;" width="138.1592" x="204.1475" y="189.4648"/><text fill="#FFFFFF" font-family="sans-serif" font-size="14" lengthAdjust="spacing" textLength="118.1592" x="214.1475" y="213">ADF Alert Metrics</text><text fill="#000000" font-family="sans-serif" font-size="14" lengthAdjust="spacing" textLength="126.1094" x="395.3066" y="194.5117">Pipeline run status</text><path d="M342.3066,207.709 L352.3066,207.709 C367.3066,207.709 367.3066,189.2207 382.3066,189.2207 L392.3066,189.2207" fill="none" style="stroke:#0078D4;stroke-width:3;"/><text fill="#000000" font-family="sans-serif" font-size="14" lengthAdjust="spacing" textLength="127.4424" x="395.3066" y="213">Activity run counts</text><path d="M342.3066,207.709 L352.3066,207.709 C367.3066,207.709 367.3066,207.709 382.3066,207.709 L392.3066,207.709" fill="none" style="stroke:#0078D4;stroke-width:3;"/><text fill="#000000" font-family="sans-serif" font-size="14" lengthAdjust="spacing" textLength="208.1543" x="395.3066" y="231.4883">Integration Runtime utilization</text><path d="M342.3066,207.709 L352.3066,207.709 C367.3066,207.709 367.3066,226.1973 382.3066,226.1973 L392.3066,226.1973" fill="none" style="stroke:#0078D4;stroke-width:3;"/><path d="M154.1475,151.2207 L164.1475,151.2207 C179.1475,151.2207 179.1475,207.709 194.1475,207.709 L204.1475,207.709" fill="none" style="stroke:#FF5F46;stroke-width:3;"/><rect fill="#0078D4" height="36.4883" rx="12.5" ry="12.5" style="stroke:#0078D4;stroke-width:3;" width="159.1455" x="204.1475" y="245.9531"/><text fill="#FFFFFF" font-family="sans-serif" font-size="14" lengthAdjust="spacing" textLength="139.1455" x="214.1475" y="269.4883">Combined Approach</text><text fill="#000000" font-family="sans-serif" font-size="14" lengthAdjust="spacing" textLength="190.1689" x="416.293" y="260.2441">Databricks: job-level events</text><path d="M363.293,264.1973 L373.293,264.1973 C388.293,264.1973 388.293,254.9531 403.293,254.9531 L413.293,254.9531" fill="none" style="stroke:#0078D4;stroke-width:3;"/><text fill="#000000" font-family="sans-serif" font-size="14" lengthAdjust="spacing" textLength="220.5615" x="416.293" y="278.7324">ADF: orchestration-level metrics</text><path d="M363.293,264.1973 L373.293,264.1973 C388.293,264.1973 388.293,273.4414 403.293,273.4414 L413.293,273.4414" fill="none" style="stroke:#0078D4;stroke-width:3;"/><path d="M154.1475,151.2207 L164.1475,151.2207 C179.1475,151.2207 179.1475,264.1973 194.1475,264.1973 L204.1475,264.1973" fill="none" style="stroke:#FF5F46;stroke-width:3;"/><?plantuml-src VLDXRzCm4FsUNt4IqWGLAraP0we9BRIA669GGGLVa2edkJOcZXtPbx5iuhzpIPnr2oh-4llktNjtp_658s6fb3ehHHMSEseKlWlc6LQKFmsVmLq0lDwBjDXPK-jiOPIny2IENyMdPrtkazJuRpGscdnqswrxx3gNQQ7HENWv3OC_WzR9GQqmVFrcUJhM6aKViuuwYBkrrveTrDfkaxTXEDOQHV-h5NQBjH9perhCtK74-GjlzmG-hDSh-859RapXuEYdZfOnN1ajoLYfTy5a1E70P0EnmXkPA8IqTcHAa9fmPmL9eptYuxSldw4IZJ8Y0uUQm6Z0Qzxq-GMtPOs2aZiLEmH7jawfjjWgUZ5O-VeMBEH0tR5igAcmF_ysjd2LI74ZipvYQytxv_3B9FTVBSgEExfb4LWA4X2BbATiu7BVVL__NRfQAAXaXOfjX_AX7vnVMxw-VVe8c4XUIsfu346rxtDXKH0N8rcP7YV2OGP2eINNzS4-H-q9hZg0BreDf3p38xPea6WJAVyvv1CFkeUl79ObGarIoTjX8lQlJ9WpWwYgh15ftbUs9YGiNRXvQz6nOcTLR-yWkepdO6oQ8zzFH-T1fU_v0ldz-ZSSd4nduUniEliB?></g></svg>