<?plantuml 1.2026.2?><svg xmlns="http://www.w3.org/2000/svg" xmlns:xlink="http://www.w3.org/1999/xlink" contentStyleType="text/css" data-diagram-type="MINDMAP" height="350px" preserveAspectRatio="none" style="width:724px;height:350px;background:#FFFFFF;" version="1.1" viewBox="0 0 724 350" width="724px" zoomAndPan="magnify"><defs/><g><rect fill="#FF5F46" height="52.9766" rx="12.5" ry="12.5" style="stroke:#FF5F46;stroke-width:3;" width="104.834" x="10" y="147.8428"/><text fill="#FFFFFF" font-family="sans-serif" font-size="14" lengthAdjust="spacing" textLength="78.8936" x="20" y="171.3779">Notification</text><text fill="#FFFFFF" font-family="sans-serif" font-size="14" lengthAdjust="spacing" textLength="84.834" x="20" y="187.8662">Destinations</text><rect fill="#0078D4" height="36.4883" rx="12.5" ry="12.5" style="stroke:#0078D4;stroke-width:3;" width="56.4834" x="164.834" y="20"/><text fill="#FFFFFF" font-family="sans-serif" font-size="14" lengthAdjust="spacing" textLength="36.4834" x="174.834" y="43.5352">Email</text><text fill="#000000" font-family="sans-serif" font-size="14" lengthAdjust="spacing" textLength="139.1797" x="274.3174" y="34.291">Direct email address</text><path d="M221.3174,38.2441 L231.3174,38.2441 C246.3174,38.2441 246.3174,29 261.3174,29 L271.3174,29" fill="none" style="stroke:#0078D4;stroke-width:3;"/><text fill="#000000" font-family="sans-serif" font-size="14" lengthAdjust="spacing" textLength="161.9639" x="274.3174" y="52.7793">No admin setup needed</text><path d="M221.3174,38.2441 L231.3174,38.2441 C246.3174,38.2441 246.3174,47.4883 261.3174,47.4883 L271.3174,47.4883" fill="none" style="stroke:#0078D4;stroke-width:3;"/><path d="M114.834,174.3311 L124.834,174.3311 C139.834,174.3311 139.834,38.2441 154.834,38.2441 L164.834,38.2441" fill="none" style="stroke:#FF5F46;stroke-width:3;"/><rect fill="#0078D4" height="36.4883" rx="12.5" ry="12.5" style="stroke:#0078D4;stroke-width:3;" width="157.3613" x="164.834" y="151.4648"/><text fill="#FFFFFF" font-family="sans-serif" font-size="14" lengthAdjust="spacing" textLength="137.3613" x="174.834" y="175">System Destinations</text><rect fill="#FFB900" height="36.4883" rx="12.5" ry="12.5" style="stroke:#FFB900;stroke-width:3;" width="54.6719" x="372.1953" y="66.7324"/><text fill="#000000" font-family="sans-serif" font-size="14" lengthAdjust="spacing" textLength="34.6719" x="382.1953" y="90.2676">Slack</text><text fill="#000000" font-family="sans-serif" font-size="14" lengthAdjust="spacing" textLength="144.1357" x="479.8672" y="81.0234">Channel notifications</text><path d="M426.8672,84.9766 L436.8672,84.9766 C451.8672,84.9766 451.8672,75.7324 466.8672,75.7324 L476.8672,75.7324" fill="none" style="stroke:#FFB900;stroke-width:3;"/><text fill="#000000" font-family="sans-serif" font-size="14" lengthAdjust="spacing" textLength="97.8633" x="479.8672" y="99.5117">Team visibility</text><path d="M426.8672,84.9766 L436.8672,84.9766 C451.8672,84.9766 451.8672,94.2207 466.8672,94.2207 L476.8672,94.2207" fill="none" style="stroke:#FFB900;stroke-width:3;"/><path d="M322.1953,169.709 L332.1953,169.709 C347.1953,169.709 347.1953,84.9766 362.1953,84.9766 L372.1953,84.9766" fill="none" style="stroke:#0078D4;stroke-width:3;"/><rect fill="#FFB900" height="36.4883" rx="12.5" ry="12.5" style="stroke:#FFB900;stroke-width:3;" width="132.7451" x="372.1953" y="123.2207"/><text fill="#000000" font-family="sans-serif" font-size="14" lengthAdjust="spacing" textLength="112.7451" x="382.1953" y="146.7559">Microsoft Teams</text><text fill="#000000" font-family="sans-serif" font-size="14" lengthAdjust="spacing" textLength="154.3555" x="557.9404" y="146.7559">Collaboration platform</text><path d="M504.9404,141.4648 L514.9404,141.4648 C529.9404,141.4648 529.9404,141.4648 544.9404,141.4648 L554.9404,141.4648" fill="none" style="stroke:#FFB900;stroke-width:3;"/><path d="M322.1953,169.709 L332.1953,169.709 C347.1953,169.709 347.1953,141.4648 362.1953,141.4648 L372.1953,141.4648" fill="none" style="stroke:#0078D4;stroke-width:3;"/><rect fill="#FFB900" height="36.4883" rx="12.5" ry="12.5" style="stroke:#FFB900;stroke-width:3;" width="89.4531" x="372.1953" y="179.709"/><text fill="#000000" font-family="sans-serif" font-size="14" lengthAdjust="spacing" textLength="69.4531" x="382.1953" y="203.2441">PagerDuty</text><text fill="#000000" font-family="sans-serif" font-size="14" lengthAdjust="spacing" textLength="123.2793" x="514.6484" y="194">On-call escalation</text><path d="M461.6484,197.9531 L471.6484,197.9531 C486.6484,197.9531 486.6484,188.709 501.6484,188.709 L511.6484,188.709" fill="none" style="stroke:#FFB900;stroke-width:3;"/><text fill="#000000" font-family="sans-serif" font-size="14" lengthAdjust="spacing" textLength="147.4512" x="514.6484" y="212.4883">Incident management</text><path d="M461.6484,197.9531 L471.6484,197.9531 C486.6484,197.9531 486.6484,207.1973 501.6484,207.1973 L511.6484,207.1973" fill="none" style="stroke:#FFB900;stroke-width:3;"/><path d="M322.1953,169.709 L332.1953,169.709 C347.1953,169.709 347.1953,197.9531 362.1953,197.9531 L372.1953,197.9531" fill="none" style="stroke:#0078D4;stroke-width:3;"/><rect fill="#FFB900" height="36.4883" rx="12.5" ry="12.5" style="stroke:#FFB900;stroke-width:3;" width="129.9561" x="372.1953" y="236.1973"/><text fill="#000000" font-family="sans-serif" font-size="14" lengthAdjust="spacing" textLength="109.9561" x="382.1953" y="259.7324">HTTP Webhooks</text><text fill="#000000" font-family="sans-serif" font-size="14" lengthAdjust="spacing" textLength="138.5166" x="555.1514" y="250.4883">Custom integrations</text><path d="M502.1514,254.4414 L512.1514,254.4414 C527.1514,254.4414 527.1514,245.1973 542.1514,245.1973 L552.1514,245.1973" fill="none" style="stroke:#FFB900;stroke-width:3;"/><text fill="#000000" font-family="sans-serif" font-size="14" lengthAdjust="spacing" textLength="130.9355" x="555.1514" y="268.9766">Any HTTP endpoint</text><path d="M502.1514,254.4414 L512.1514,254.4414 C527.1514,254.4414 527.1514,263.6855 542.1514,263.6855 L552.1514,263.6855" fill="none" style="stroke:#FFB900;stroke-width:3;"/><path d="M322.1953,169.709 L332.1953,169.709 C347.1953,169.709 347.1953,254.4414 362.1953,254.4414 L372.1953,254.4414" fill="none" style="stroke:#0078D4;stroke-width:3;"/><path d="M114.834,174.3311 L124.834,174.3311 C139.834,174.3311 139.834,169.709 154.834,169.709 L164.834,169.709" fill="none" style="stroke:#FF5F46;stroke-width:3;"/><rect fill="#0078D4" height="36.4883" rx="12.5" ry="12.5" style="stroke:#0078D4;stroke-width:3;" width="106.7822" x="164.834" y="292.1738"/><text fill="#FFFFFF" font-family="sans-serif" font-size="14" lengthAdjust="spacing" textLength="86.7822" x="174.834" y="315.709">Admin Setup</text><text fill="#000000" font-family="sans-serif" font-size="14" lengthAdjust="spacing" textLength="209.1387" x="324.6162" y="297.2207">Admin Settings &gt; Notifications</text><path d="M271.6162,310.418 L281.6162,310.418 C296.6162,310.418 296.6162,291.9297 311.6162,291.9297 L321.6162,291.9297" fill="none" style="stroke:#0078D4;stroke-width:3;"/><text fill="#000000" font-family="sans-serif" font-size="14" lengthAdjust="spacing" textLength="207.9287" x="324.6162" y="315.709">Configure per destination type</text><path d="M271.6162,310.418 L281.6162,310.418 C296.6162,310.418 296.6162,310.418 311.6162,310.418 L321.6162,310.418" fill="none" style="stroke:#0078D4;stroke-width:3;"/><text fill="#000000" font-family="sans-serif" font-size="14" lengthAdjust="spacing" textLength="239.21" x="324.6162" y="334.1973">Up to 3 destinations per event type</text><path d="M271.6162,310.418 L281.6162,310.418 C296.6162,310.418 296.6162,328.9063 311.6162,328.9063 L321.6162,328.9063" fill="none" style="stroke:#0078D4;stroke-width:3;"/><path d="M114.834,174.3311 L124.834,174.3311 C139.834,174.3311 139.834,310.418 154.834,310.418 L164.834,310.418" fill="none" style="stroke:#FF5F46;stroke-width:3;"/><?plantuml-src VLDTQzj047pNhrZeIskegpXf-a48IUsA5jeq49U-5Cf9jv8Nd_R4tIfKXFxtdawo4wku-wAxtPcTtJbqvKKvgObrhPhamajdy39vhx6HpVFq1Jma4EA3AhQLiothfJNMmRCiUvsTdSVQ5sByDvjPbZ5RnjXZrnigjepUm-ayJVxij4wEQgNfcxUhiwdM97lOTJ915kDHQt5KgoppTsawrPfa_wkLnWXQkVrjUip3KSJ5gz7k6TnOeP8A9MJv9w_G2t6y-6GsWu-r8XCEir-m8eU50FOPK5gx835KRcouXuS4Zz8sm8WQTS--wxnW3PEc8M_2zlqfa9SRnOm6-CaSVgojKTLmJvvoCYHTv7wbmbblIudL7J8iQ5HkNQH3OvIKrjMHSAigTAjse0VeDtvPA6C0VVX4_5Zup0LfP85QSU3KuHWRV5glR-47vXjhjtkzrekjWLYmSWSpNtCtC91rOodsWEjeprrlps3PFX6CgJnS7Zp3QElISabLwn0QTA0VJGJf6XmmtniG2wTFgpx2yRxV90AlmYIxtomvcI_InVbyyHS0?></g></svg>