<?plantuml 1.2026.2?><svg xmlns="http://www.w3.org/2000/svg" xmlns:xlink="http://www.w3.org/1999/xlink" contentStyleType="text/css" data-diagram-type="MINDMAP" height="283px" preserveAspectRatio="none" style="width:635px;height:283px;background:#FFFFFF;" version="1.1" viewBox="0 0 635 283" width="635px" zoomAndPan="magnify"><defs/><g><rect fill="#FF5F46" height="52.9766" rx="12.5" ry="12.5" style="stroke:#FF5F46;stroke-width:3;" width="142.3633" x="10" y="114.4648"/><text fill="#FFFFFF" font-family="sans-serif" font-size="14" lengthAdjust="spacing" textLength="67.6689" x="20" y="138">Add Job &amp;</text><text fill="#FFFFFF" font-family="sans-serif" font-size="14" lengthAdjust="spacing" textLength="122.3633" x="20" y="154.4883">Task Notifications</text><rect fill="#0078D4" height="36.4883" rx="12.5" ry="12.5" style="stroke:#0078D4;stroke-width:3;" width="125.1777" x="202.3633" y="37.9766"/><text fill="#FFFFFF" font-family="sans-serif" font-size="14" lengthAdjust="spacing" textLength="105.1777" x="212.3633" y="61.5117">Job-Level Steps</text><text fill="#000000" font-family="sans-serif" font-size="14" lengthAdjust="spacing" textLength="201.5645" x="380.541" y="24.5352">Job details &gt; Job notifications</text><path d="M327.541,56.2207 L337.541,56.2207 C352.541,56.2207 352.541,19.2441 367.541,19.2441 L377.541,19.2441" fill="none" style="stroke:#0078D4;stroke-width:3;"/><text fill="#000000" font-family="sans-serif" font-size="14" lengthAdjust="spacing" textLength="243.4277" x="380.541" y="43.0234">Edit notifications &gt; Add notification</text><path d="M327.541,56.2207 L337.541,56.2207 C352.541,56.2207 352.541,37.7324 367.541,37.7324 L377.541,37.7324" fill="none" style="stroke:#0078D4;stroke-width:3;"/><text fill="#000000" font-family="sans-serif" font-size="14" lengthAdjust="spacing" textLength="164.5547" x="380.541" y="61.5117">Choose destination type</text><path d="M327.541,56.2207 L337.541,56.2207 C352.541,56.2207 352.541,56.2207 367.541,56.2207 L377.541,56.2207" fill="none" style="stroke:#0078D4;stroke-width:3;"/><text fill="#000000" font-family="sans-serif" font-size="14" lengthAdjust="spacing" textLength="121.5225" x="380.541" y="80">Select event types</text><path d="M327.541,56.2207 L337.541,56.2207 C352.541,56.2207 352.541,74.709 367.541,74.709 L377.541,74.709" fill="none" style="stroke:#0078D4;stroke-width:3;"/><text fill="#000000" font-family="sans-serif" font-size="14" lengthAdjust="spacing" textLength="30.3174" x="380.541" y="98.4883">Save</text><path d="M327.541,56.2207 L337.541,56.2207 C352.541,56.2207 352.541,93.1973 367.541,93.1973 L377.541,93.1973" fill="none" style="stroke:#0078D4;stroke-width:3;"/><path d="M152.3633,140.9531 L162.3633,140.9531 C177.3633,140.9531 177.3633,56.2207 192.3633,56.2207 L202.3633,56.2207" fill="none" style="stroke:#FF5F46;stroke-width:3;"/><rect fill="#0078D4" height="36.4883" rx="12.5" ry="12.5" style="stroke:#0078D4;stroke-width:3;" width="128.5752" x="202.3633" y="112.4414"/><text fill="#FFFFFF" font-family="sans-serif" font-size="14" lengthAdjust="spacing" textLength="108.5752" x="212.3633" y="135.9766">Job-Level Scope</text><text fill="#000000" font-family="sans-serif" font-size="14" lengthAdjust="spacing" textLength="149.4473" x="383.9385" y="126.7324">Overall job run events</text><path d="M330.9385,130.6855 L340.9385,130.6855 C355.9385,130.6855 355.9385,121.4414 370.9385,121.4414 L380.9385,121.4414" fill="none" style="stroke:#0078D4;stroke-width:3;"/><text fill="#000000" font-family="sans-serif" font-size="14" lengthAdjust="spacing" textLength="164.6709" x="383.9385" y="145.2207">Not fired for task retries</text><path d="M330.9385,130.6855 L340.9385,130.6855 C355.9385,130.6855 355.9385,139.9297 370.9385,139.9297 L380.9385,139.9297" fill="none" style="stroke:#0078D4;stroke-width:3;"/><path d="M152.3633,140.9531 L162.3633,140.9531 C177.3633,140.9531 177.3633,130.6855 192.3633,130.6855 L202.3633,130.6855" fill="none" style="stroke:#FF5F46;stroke-width:3;"/><rect fill="#0078D4" height="36.4883" rx="12.5" ry="12.5" style="stroke:#0078D4;stroke-width:3;" width="135.3154" x="202.3633" y="168.9297"/><text fill="#FFFFFF" font-family="sans-serif" font-size="14" lengthAdjust="spacing" textLength="115.3154" x="212.3633" y="192.4648">Task-Level Steps</text><text fill="#000000" font-family="sans-serif" font-size="14" lengthAdjust="spacing" textLength="211.6885" x="390.6787" y="173.9766">Edit task &gt; Notifications &gt; Add</text><path d="M337.6787,187.1738 L347.6787,187.1738 C362.6787,187.1738 362.6787,168.6855 377.6787,168.6855 L387.6787,168.6855" fill="none" style="stroke:#0078D4;stroke-width:3;"/><text fill="#000000" font-family="sans-serif" font-size="14" lengthAdjust="spacing" textLength="126.6016" x="390.6787" y="192.4648">Configure per task</text><path d="M337.6787,187.1738 L347.6787,187.1738 C362.6787,187.1738 362.6787,187.1738 377.6787,187.1738 L387.6787,187.1738" fill="none" style="stroke:#0078D4;stroke-width:3;"/><text fill="#000000" font-family="sans-serif" font-size="14" lengthAdjust="spacing" textLength="152.1953" x="390.6787" y="210.9531">Fires for each task run</text><path d="M337.6787,187.1738 L347.6787,187.1738 C362.6787,187.1738 362.6787,205.6621 377.6787,205.6621 L387.6787,205.6621" fill="none" style="stroke:#0078D4;stroke-width:3;"/><path d="M152.3633,140.9531 L162.3633,140.9531 C177.3633,140.9531 177.3633,187.1738 192.3633,187.1738 L202.3633,187.1738" fill="none" style="stroke:#FF5F46;stroke-width:3;"/><rect fill="#0078D4" height="36.4883" rx="12.5" ry="12.5" style="stroke:#0078D4;stroke-width:3;" width="184.2129" x="202.3633" y="225.418"/><text fill="#FFFFFF" font-family="sans-serif" font-size="14" lengthAdjust="spacing" textLength="164.2129" x="212.3633" y="248.9531">Task Notifications Value</text><text fill="#000000" font-family="sans-serif" font-size="14" lengthAdjust="spacing" textLength="162.6475" x="439.5762" y="230.4648">Know WHICH task failed</text><path d="M386.5762,243.6621 L396.5762,243.6621 C411.5762,243.6621 411.5762,225.1738 426.5762,225.1738 L436.5762,225.1738" fill="none" style="stroke:#0078D4;stroke-width:3;"/><text fill="#000000" font-family="sans-serif" font-size="14" lengthAdjust="spacing" textLength="170.2217" x="439.5762" y="248.9531">Immediate failure insight</text><path d="M386.5762,243.6621 L396.5762,243.6621 C411.5762,243.6621 411.5762,243.6621 426.5762,243.6621 L436.5762,243.6621" fill="none" style="stroke:#0078D4;stroke-width:3;"/><text fill="#000000" font-family="sans-serif" font-size="14" lengthAdjust="spacing" textLength="182.1504" x="439.5762" y="267.4414">Mute until last retry option</text><path d="M386.5762,243.6621 L396.5762,243.6621 C411.5762,243.6621 411.5762,262.1504 426.5762,262.1504 L436.5762,262.1504" fill="none" style="stroke:#0078D4;stroke-width:3;"/><path d="M152.3633,140.9531 L162.3633,140.9531 C177.3633,140.9531 177.3633,243.6621 192.3633,243.6621 L202.3633,243.6621" fill="none" style="stroke:#FF5F46;stroke-width:3;"/><?plantuml-src VPFRIWCn48Rlzoa61D62TQrdaQ9M5-lneg8tWgIRsMvicYp9RBM8xsuscwfTgNENVmxV_0CviSGCJOJY4rP4nvPc4hlH4SU2yhLu7JuYS776ql78w5BndfRQm4gIx2OxUpvt8nJ-LHEjAAYPZ-_QXroaOuNMmdOxZZxdhAsbh3ZUFpZVQR8QwkBKnWQ9ZnzMPoahouQ7STnaDTH_MR4FnnhgTrdLV2ojEDuCvsx1AUTmfOUm-gmUc1t3dIQHYPIHqCf6hLQLtBZ1AKeO41QLr7hn7Ho92McXwr-gqUUABhYWHTtLLhpVMbtQoxMsw4PQ4ihhGBC2w-G09QO4RWT5NWxp1soAZGrJFM-wdw9XKiAhsysKgkuEZSuZPC8WXyoTXIhR1ia8FnYgC_nrxCtuqkxYZMfFmOPMcHYL1g70Ud2j9mvcFGnPcWTYgUQqni179ilWubhfDtYwxFSkwwRCNHm3h3-P81UCqAiLL2WhHZdLwTlIPKf5Ge9abhp36UZ27_q4tRSBNo_QQdVYpbwxymK0?></g></svg>