<?plantuml 1.2026.2?><svg xmlns="http://www.w3.org/2000/svg" xmlns:xlink="http://www.w3.org/1999/xlink" contentStyleType="text/css" data-diagram-type="MINDMAP" height="360px" preserveAspectRatio="none" style="width:602px;height:360px;background:#FFFFFF;" version="1.1" viewBox="0 0 602 360" width="602px" zoomAndPan="magnify"><defs/><g><rect fill="#FF5F46" height="52.9766" rx="12.5" ry="12.5" style="stroke:#FF5F46;stroke-width:3;" width="98.8936" x="10" y="152.9766"/><text fill="#FFFFFF" font-family="sans-serif" font-size="14" lengthAdjust="spacing" textLength="78.8936" x="20" y="176.5117">Notification</text><text fill="#FFFFFF" font-family="sans-serif" font-size="14" lengthAdjust="spacing" textLength="43.6953" x="20" y="193">Events</text><rect fill="#0078D4" height="36.4883" rx="12.5" ry="12.5" style="stroke:#0078D4;stroke-width:3;" width="51.4727" x="158.8936" y="20"/><text fill="#FFFFFF" font-family="sans-serif" font-size="14" lengthAdjust="spacing" textLength="31.4727" x="168.8936" y="43.5352">Start</text><text fill="#000000" font-family="sans-serif" font-size="14" lengthAdjust="spacing" textLength="98.9434" x="263.3662" y="34.291">Job run begins</text><path d="M210.3662,38.2441 L220.3662,38.2441 C235.3662,38.2441 235.3662,29 250.3662,29 L260.3662,29" fill="none" style="stroke:#0078D4;stroke-width:3;"/><text fill="#000000" font-family="sans-serif" font-size="14" lengthAdjust="spacing" textLength="213.6982" x="263.3662" y="52.7793">Confirms scheduled job started</text><path d="M210.3662,38.2441 L220.3662,38.2441 C235.3662,38.2441 235.3662,47.4883 250.3662,47.4883 L260.3662,47.4883" fill="none" style="stroke:#0078D4;stroke-width:3;"/><path d="M108.8936,179.4648 L118.8936,179.4648 C133.8936,179.4648 133.8936,38.2441 148.8936,38.2441 L158.8936,38.2441" fill="none" style="stroke:#FF5F46;stroke-width:3;"/><rect fill="#0078D4" height="36.4883" rx="12.5" ry="12.5" style="stroke:#0078D4;stroke-width:3;" width="72.6436" x="158.8936" y="76.4883"/><text fill="#FFFFFF" font-family="sans-serif" font-size="14" lengthAdjust="spacing" textLength="52.6436" x="168.8936" y="100.0234">Success</text><text fill="#000000" font-family="sans-serif" font-size="14" lengthAdjust="spacing" textLength="181.7813" x="284.5371" y="90.7793">Job completes successfully</text><path d="M231.5371,94.7324 L241.5371,94.7324 C256.5371,94.7324 256.5371,85.4883 271.5371,85.4883 L281.5371,85.4883" fill="none" style="stroke:#0078D4;stroke-width:3;"/><text fill="#000000" font-family="sans-serif" font-size="14" lengthAdjust="spacing" textLength="209.3848" x="284.5371" y="109.2676">Trigger downstream processes</text><path d="M231.5371,94.7324 L241.5371,94.7324 C256.5371,94.7324 256.5371,103.9766 271.5371,103.9766 L281.5371,103.9766" fill="none" style="stroke:#0078D4;stroke-width:3;"/><path d="M108.8936,179.4648 L118.8936,179.4648 C133.8936,179.4648 133.8936,94.7324 148.8936,94.7324 L158.8936,94.7324" fill="none" style="stroke:#FF5F46;stroke-width:3;"/><rect fill="#0078D4" height="36.4883" rx="12.5" ry="12.5" style="stroke:#0078D4;stroke-width:3;" width="65.5479" x="158.8936" y="132.9766"/><text fill="#FFFFFF" font-family="sans-serif" font-size="14" lengthAdjust="spacing" textLength="45.5479" x="168.8936" y="156.5117">Failure</text><text fill="#000000" font-family="sans-serif" font-size="14" lengthAdjust="spacing" textLength="169.873" x="277.4414" y="147.2676">Job terminates with error</text><path d="M224.4414,151.2207 L234.4414,151.2207 C249.4414,151.2207 249.4414,141.9766 264.4414,141.9766 L274.4414,141.9766" fill="none" style="stroke:#0078D4;stroke-width:3;"/><text fill="#000000" font-family="sans-serif" font-size="14" lengthAdjust="spacing" textLength="171.8691" x="277.4414" y="165.7559">Initiate incident response</text><path d="M224.4414,151.2207 L234.4414,151.2207 C249.4414,151.2207 249.4414,160.4648 264.4414,160.4648 L274.4414,160.4648" fill="none" style="stroke:#0078D4;stroke-width:3;"/><path d="M108.8936,179.4648 L118.8936,179.4648 C133.8936,179.4648 133.8936,151.2207 148.8936,151.2207 L158.8936,151.2207" fill="none" style="stroke:#FF5F46;stroke-width:3;"/><rect fill="#0078D4" height="36.4883" rx="12.5" ry="12.5" style="stroke:#0078D4;stroke-width:3;" width="139.2256" x="158.8936" y="189.4648"/><text fill="#FFFFFF" font-family="sans-serif" font-size="14" lengthAdjust="spacing" textLength="119.2256" x="168.8936" y="213">Duration Warning</text><text fill="#000000" font-family="sans-serif" font-size="14" lengthAdjust="spacing" textLength="154.9297" x="351.1191" y="203.7559">Run exceeds threshold</text><path d="M298.1191,207.709 L308.1191,207.709 C323.1191,207.709 323.1191,198.4648 338.1191,198.4648 L348.1191,198.4648" fill="none" style="stroke:#0078D4;stroke-width:3;"/><text fill="#000000" font-family="sans-serif" font-size="14" lengthAdjust="spacing" textLength="206.5205" x="351.1191" y="222.2441">Performance degradation alert</text><path d="M298.1191,207.709 L308.1191,207.709 C323.1191,207.709 323.1191,216.9531 338.1191,216.9531 L348.1191,216.9531" fill="none" style="stroke:#0078D4;stroke-width:3;"/><path d="M108.8936,179.4648 L118.8936,179.4648 C133.8936,179.4648 133.8936,207.709 148.8936,207.709 L158.8936,207.709" fill="none" style="stroke:#FF5F46;stroke-width:3;"/><rect fill="#0078D4" height="36.4883" rx="12.5" ry="12.5" style="stroke:#0078D4;stroke-width:3;" width="145.5146" x="158.8936" y="245.9531"/><text fill="#FFFFFF" font-family="sans-serif" font-size="14" lengthAdjust="spacing" textLength="125.5146" x="168.8936" y="269.4883">Streaming Backlog</text><text fill="#000000" font-family="sans-serif" font-size="14" lengthAdjust="spacing" textLength="233.584" x="357.4082" y="260.2441">Backlog exceeds threshold 10 min</text><path d="M304.4082,264.1973 L314.4082,264.1973 C329.4082,264.1973 329.4082,254.9531 344.4082,254.9531 L354.4082,254.9531" fill="none" style="stroke:#0078D4;stroke-width:3;"/><text fill="#000000" font-family="sans-serif" font-size="14" lengthAdjust="spacing" textLength="205.7822" x="357.4082" y="278.7324">Streaming job health indicator</text><path d="M304.4082,264.1973 L314.4082,264.1973 C329.4082,264.1973 329.4082,273.4414 344.4082,273.4414 L354.4082,273.4414" fill="none" style="stroke:#0078D4;stroke-width:3;"/><path d="M108.8936,179.4648 L118.8936,179.4648 C133.8936,179.4648 133.8936,264.1973 148.8936,264.1973 L158.8936,264.1973" fill="none" style="stroke:#FF5F46;stroke-width:3;"/><rect fill="#0078D4" height="36.4883" rx="12.5" ry="12.5" style="stroke:#0078D4;stroke-width:3;" width="51.9785" x="158.8936" y="302.4414"/><text fill="#FFFFFF" font-family="sans-serif" font-size="14" lengthAdjust="spacing" textLength="31.9785" x="168.8936" y="325.9766">Note</text><text fill="#000000" font-family="sans-serif" font-size="14" lengthAdjust="spacing" textLength="242.2246" x="263.8721" y="316.7324">"Succeeded with failures" = success</text><path d="M210.8721,320.6855 L220.8721,320.6855 C235.8721,320.6855 235.8721,311.4414 250.8721,311.4414 L260.8721,311.4414" fill="none" style="stroke:#0078D4;stroke-width:3;"/><text fill="#000000" font-family="sans-serif" font-size="14" lengthAdjust="spacing" textLength="250.6123" x="263.8721" y="335.2207">Configure Success for partial failures</text><path d="M210.8721,320.6855 L220.8721,320.6855 C235.8721,320.6855 235.8721,329.9297 250.8721,329.9297 L260.8721,329.9297" fill="none" style="stroke:#0078D4;stroke-width:3;"/><path d="M108.8936,179.4648 L118.8936,179.4648 C133.8936,179.4648 133.8936,320.6855 148.8936,320.6855 L158.8936,320.6855" fill="none" style="stroke:#FF5F46;stroke-width:3;"/><?plantuml-src VLF1RjGm4BtdAqRb0djOl4if1HLKqH89L254At51GbvxafWwTZHsQAkAVsTiPxkGQfbJTkRDctblrgSXIegzSRgNGtKIuft5TzKRZKFidefdS5y1ntkfhbloezDdtdg29tNziZuyohKBu_1njlOkJjacnmFsgZFgsc48y68fgj_RMQkziuHuTNn-E9yro_xBEjkWph6RjTuxgsashuMOpvfb_pjBvE1P6tzh4-P-B-Ba-MJt0ZxxQ1gZP3JUVNSVVg6BeLeiu39TXpyMF-2Jtm2D3ZRO6XTAxioxnb0V8AWEzMXHmq-6vPkYpWIZKhp5ZaBvVh0OaNjAgHcjlIlrAp9jYmJQtxWG2MKF0_a4mhnDBOqT2NTa4Od_EZAntPZO0H9vAkMFpaJ35J1E6SrwW30CteNK3kSZPQtmJP8phYqzNraUtYf47I1sZE-yrQNq1Qdnr4kd43Is97NfbnQpGUnKsfUfyb6jdoYd7uzfOIM0uGMrQqxsTIWjY-4taIwI1QK3JReFigMesUkikIccX0DukxNqh-EqNDeU0LW137mQ8-r3MtMA_FQczrUjbcknFbgk_m00?></g></svg>