<?plantuml 1.2026.2?><svg xmlns="http://www.w3.org/2000/svg" xmlns:xlink="http://www.w3.org/1999/xlink" contentStyleType="text/css" data-diagram-type="MINDMAP" height="264px" preserveAspectRatio="none" style="width:618px;height:264px;background:#FFFFFF;" version="1.1" viewBox="0 0 618 264" width="618px" zoomAndPan="magnify"><defs/><g><rect fill="#FF5F46" height="52.9766" rx="12.5" ry="12.5" style="stroke:#FF5F46;stroke-width:3;" width="109.9473" x="10" y="104.9648"/><text fill="#FFFFFF" font-family="sans-serif" font-size="14" lengthAdjust="spacing" textLength="74.3613" x="20" y="128.5">Task-Level</text><text fill="#FFFFFF" font-family="sans-serif" font-size="14" lengthAdjust="spacing" textLength="89.9473" x="20" y="144.9883">Retry Policies</text><rect fill="#0078D4" height="36.4883" rx="12.5" ry="12.5" style="stroke:#0078D4;stroke-width:3;" width="154.5723" x="169.9473" y="28.7324"/><text fill="#FFFFFF" font-family="sans-serif" font-size="14" lengthAdjust="spacing" textLength="134.5723" x="179.9473" y="52.2676">Configuration Steps</text><text fill="#000000" font-family="sans-serif" font-size="14" lengthAdjust="spacing" textLength="157.1445" x="377.5195" y="24.5352">Tasks tab &gt; select task</text><path d="M324.5195,46.9766 L334.5195,46.9766 C349.5195,46.9766 349.5195,19.2441 364.5195,19.2441 L374.5195,19.2441" fill="none" style="stroke:#0078D4;stroke-width:3;"/><text fill="#000000" font-family="sans-serif" font-size="14" lengthAdjust="spacing" textLength="93.8711" x="377.5195" y="43.0234">Add &gt; Retries</text><path d="M324.5195,46.9766 L334.5195,46.9766 C349.5195,46.9766 349.5195,37.7324 364.5195,37.7324 L374.5195,37.7324" fill="none" style="stroke:#0078D4;stroke-width:3;"/><text fill="#000000" font-family="sans-serif" font-size="14" lengthAdjust="spacing" textLength="99.627" x="377.5195" y="61.5117">Set retry count</text><path d="M324.5195,46.9766 L334.5195,46.9766 C349.5195,46.9766 349.5195,56.2207 364.5195,56.2207 L374.5195,56.2207" fill="none" style="stroke:#0078D4;stroke-width:3;"/><text fill="#000000" font-family="sans-serif" font-size="14" lengthAdjust="spacing" textLength="145.5098" x="377.5195" y="80">Set retry interval (ms)</text><path d="M324.5195,46.9766 L334.5195,46.9766 C349.5195,46.9766 349.5195,74.709 364.5195,74.709 L374.5195,74.709" fill="none" style="stroke:#0078D4;stroke-width:3;"/><path d="M119.9473,131.4531 L129.9473,131.4531 C144.9473,131.4531 144.9473,46.9766 159.9473,46.9766 L169.9473,46.9766" fill="none" style="stroke:#FF5F46;stroke-width:3;"/><rect fill="#0078D4" height="36.4883" rx="12.5" ry="12.5" style="stroke:#0078D4;stroke-width:3;" width="109.8721" x="169.9473" y="93.4414"/><text fill="#FFFFFF" font-family="sans-serif" font-size="14" lengthAdjust="spacing" textLength="89.8721" x="179.9473" y="116.9766">Retry Interval</text><text fill="#000000" font-family="sans-serif" font-size="14" lengthAdjust="spacing" textLength="188.4805" x="332.8193" y="98.4883">Time from failed run START</text><path d="M279.8193,111.6855 L289.8193,111.6855 C304.8193,111.6855 304.8193,93.1973 319.8193,93.1973 L329.8193,93.1973" fill="none" style="stroke:#0078D4;stroke-width:3;"/><text fill="#000000" font-family="sans-serif" font-size="14" lengthAdjust="spacing" textLength="177.1465" x="332.8193" y="116.9766">Calculated in milliseconds</text><path d="M279.8193,111.6855 L289.8193,111.6855 C304.8193,111.6855 304.8193,111.6855 319.8193,111.6855 L329.8193,111.6855" fill="none" style="stroke:#0078D4;stroke-width:3;"/><text fill="#000000" font-family="sans-serif" font-size="14" lengthAdjust="spacing" textLength="190.0391" x="332.8193" y="135.4648">Example: 60000ms = 1 min</text><path d="M279.8193,111.6855 L289.8193,111.6855 C304.8193,111.6855 304.8193,130.1738 319.8193,130.1738 L329.8193,130.1738" fill="none" style="stroke:#0078D4;stroke-width:3;"/><path d="M119.9473,131.4531 L129.9473,131.4531 C144.9473,131.4531 144.9473,111.6855 159.9473,111.6855 L169.9473,111.6855" fill="none" style="stroke:#FF5F46;stroke-width:3;"/><rect fill="#0078D4" height="36.4883" rx="12.5" ry="12.5" style="stroke:#0078D4;stroke-width:3;" width="153.6836" x="169.9473" y="149.9297"/><text fill="#FFFFFF" font-family="sans-serif" font-size="14" lengthAdjust="spacing" textLength="133.6836" x="179.9473" y="173.4648">Timeout Interaction</text><text fill="#000000" font-family="sans-serif" font-size="14" lengthAdjust="spacing" textLength="229.667" x="376.6309" y="154.9766">Timeout applies per retry attempt</text><path d="M323.6309,168.1738 L333.6309,168.1738 C348.6309,168.1738 348.6309,149.6855 363.6309,149.6855 L373.6309,149.6855" fill="none" style="stroke:#0078D4;stroke-width:3;"/><text fill="#000000" font-family="sans-serif" font-size="14" lengthAdjust="spacing" textLength="171.418" x="376.6309" y="173.4648">Timeout = failed attempt</text><path d="M323.6309,168.1738 L333.6309,168.1738 C348.6309,168.1738 348.6309,168.1738 363.6309,168.1738 L373.6309,168.1738" fill="none" style="stroke:#0078D4;stroke-width:3;"/><text fill="#000000" font-family="sans-serif" font-size="14" lengthAdjust="spacing" textLength="222.7969" x="376.6309" y="191.9531">Triggers retry if attempts remain</text><path d="M323.6309,168.1738 L333.6309,168.1738 C348.6309,168.1738 348.6309,186.6621 363.6309,186.6621 L373.6309,186.6621" fill="none" style="stroke:#0078D4;stroke-width:3;"/><path d="M119.9473,131.4531 L129.9473,131.4531 C144.9473,131.4531 144.9473,168.1738 159.9473,168.1738 L169.9473,168.1738" fill="none" style="stroke:#FF5F46;stroke-width:3;"/><rect fill="#0078D4" height="36.4883" rx="12.5" ry="12.5" style="stroke:#0078D4;stroke-width:3;" width="105.2783" x="169.9473" y="206.418"/><text fill="#FFFFFF" font-family="sans-serif" font-size="14" lengthAdjust="spacing" textLength="85.2783" x="179.9473" y="229.9531">Best Practice</text><text fill="#000000" font-family="sans-serif" font-size="14" lengthAdjust="spacing" textLength="210.1436" x="328.2256" y="211.4648">1-3 retries for most workloads</text><path d="M275.2256,224.6621 L285.2256,224.6621 C300.2256,224.6621 300.2256,206.1738 315.2256,206.1738 L325.2256,206.1738" fill="none" style="stroke:#0078D4;stroke-width:3;"/><text fill="#000000" font-family="sans-serif" font-size="14" lengthAdjust="spacing" textLength="155.1348" x="328.2256" y="229.9531">Avoid unlimited retries</text><path d="M275.2256,224.6621 L285.2256,224.6621 C300.2256,224.6621 300.2256,224.6621 315.2256,224.6621 L325.2256,224.6621" fill="none" style="stroke:#0078D4;stroke-width:3;"/><text fill="#000000" font-family="sans-serif" font-size="14" lengthAdjust="spacing" textLength="250.4961" x="328.2256" y="248.4414">Persistent failure needs investigation</text><path d="M275.2256,224.6621 L285.2256,224.6621 C300.2256,224.6621 300.2256,243.1504 315.2256,243.1504 L325.2256,243.1504" fill="none" style="stroke:#0078D4;stroke-width:3;"/><path d="M119.9473,131.4531 L129.9473,131.4531 C144.9473,131.4531 144.9473,224.6621 159.9473,224.6621 L169.9473,224.6621" fill="none" style="stroke:#FF5F46;stroke-width:3;"/><?plantuml-src VPDDJzj048Rl_XKZSO58f4w0j4M026ajLU8GGOwLqCOUcv7tmzeTfo3K_zxTjLqQetHk-yxiFE_CQcyT2ykATA54armvVfLuarmMsF3pSNe2Rmduk1DvNLdJwc9bfB5mb6KNsVaYvkv9uqSrCvfxjOpnjtRpJ7cjqJaucwR9xu4rEyXAqyzVlfsFMIDrl-l8GHRZdJK_o2hBxTSq7RD6wdzPQGpFsfeN6MhU3bPSVUhNFO6DSFNfFUvG_jGFoFOLraPIJkYIoGHMHfTKjLOm6GsFZ4sG9q_ncWCMMxW1Xn9pzWTNTybbKNWvTElQUEaH6Mnid_kXUIoIPhGx8U5OkPC0xgpywEMUIGgXj4P1AKXY0RRrdZRBXqsNNmcPjrAmpv06HLAImzpeelVm_KMeHk8bBC8Qb8DhcFao7NYXjscv8ueyZFiE3GdHDD9F0mtQthDWHjNmVjdru6q_QwcgqBfXsd981qM9pi8TEePrXEVOtPkTdiKh0Lpw5rJ6b_mojfP635CjTuOAQBKaHM5q--_QrnvAZb5pzDLQ18rOEB-WdSTH5HyskKN_2_kVcCocytI-cCx_0000?></g></svg>