<?plantuml 1.2026.2?><svg xmlns="http://www.w3.org/2000/svg" xmlns:xlink="http://www.w3.org/1999/xlink" contentStyleType="text/css" data-diagram-type="MINDMAP" height="304px" preserveAspectRatio="none" style="width:738px;height:304px;background:#FFFFFF;" version="1.1" viewBox="0 0 738 304" width="738px" zoomAndPan="magnify"><defs/><g><rect fill="#FF5F46" height="52.9766" rx="12.5" ry="12.5" style="stroke:#FF5F46;stroke-width:3;" width="168.5518" x="10" y="124.7324"/><text fill="#FFFFFF" font-family="sans-serif" font-size="14" lengthAdjust="spacing" textLength="92.415" x="20" y="148.2676">Best Practices</text><text fill="#FFFFFF" font-family="sans-serif" font-size="14" lengthAdjust="spacing" textLength="148.5518" x="20" y="164.7559">Production Workloads</text><rect fill="#0078D4" height="36.4883" rx="12.5" ry="12.5" style="stroke:#0078D4;stroke-width:3;" width="159.9932" x="228.5518" y="20"/><text fill="#FFFFFF" font-family="sans-serif" font-size="14" lengthAdjust="spacing" textLength="139.9932" x="238.5518" y="43.5352">Match Retry Strategy</text><text fill="#000000" font-family="sans-serif" font-size="14" lengthAdjust="spacing" textLength="207.4502" x="441.5449" y="25.0469">Network timeout: quick retries</text><path d="M388.5449,38.2441 L398.5449,38.2441 C413.5449,38.2441 413.5449,19.7559 428.5449,19.7559 L438.5449,19.7559" fill="none" style="stroke:#0078D4;stroke-width:3;"/><text fill="#000000" font-family="sans-serif" font-size="14" lengthAdjust="spacing" textLength="231.0752" x="441.5449" y="43.5352">Resource failures: longer intervals</text><path d="M388.5449,38.2441 L398.5449,38.2441 C413.5449,38.2441 413.5449,38.2441 428.5449,38.2441 L438.5449,38.2441" fill="none" style="stroke:#0078D4;stroke-width:3;"/><text fill="#000000" font-family="sans-serif" font-size="14" lengthAdjust="spacing" textLength="251.3848" x="441.5449" y="62.0234">Transient: short intervals (30s-5min)</text><path d="M388.5449,38.2441 L398.5449,38.2441 C413.5449,38.2441 413.5449,56.7324 428.5449,56.7324 L438.5449,56.7324" fill="none" style="stroke:#0078D4;stroke-width:3;"/><path d="M178.5518,151.2207 L188.5518,151.2207 C203.5518,151.2207 203.5518,38.2441 218.5518,38.2441 L228.5518,38.2441" fill="none" style="stroke:#FF5F46;stroke-width:3;"/><rect fill="#0078D4" height="36.4883" rx="12.5" ry="12.5" style="stroke:#0078D4;stroke-width:3;" width="167.6357" x="228.5518" y="76.4883"/><text fill="#FFFFFF" font-family="sans-serif" font-size="14" lengthAdjust="spacing" textLength="147.6357" x="238.5518" y="100.0234">Set Reasonable Limits</text><text fill="#000000" font-family="sans-serif" font-size="14" lengthAdjust="spacing" textLength="191.3447" x="449.1875" y="81.5352">Max 3 retries recommended</text><path d="M396.1875,94.7324 L406.1875,94.7324 C421.1875,94.7324 421.1875,76.2441 436.1875,76.2441 L446.1875,76.2441" fill="none" style="stroke:#0078D4;stroke-width:3;"/><text fill="#000000" font-family="sans-serif" font-size="14" lengthAdjust="spacing" textLength="155.1348" x="449.1875" y="100.0234">Avoid unlimited retries</text><path d="M396.1875,94.7324 L406.1875,94.7324 C421.1875,94.7324 421.1875,94.7324 436.1875,94.7324 L446.1875,94.7324" fill="none" style="stroke:#0078D4;stroke-width:3;"/><text fill="#000000" font-family="sans-serif" font-size="14" lengthAdjust="spacing" textLength="242.2314" x="449.1875" y="118.5117">Repeated failure = underlying issue</text><path d="M396.1875,94.7324 L406.1875,94.7324 C421.1875,94.7324 421.1875,113.2207 436.1875,113.2207 L446.1875,113.2207" fill="none" style="stroke:#0078D4;stroke-width:3;"/><path d="M178.5518,151.2207 L188.5518,151.2207 C203.5518,151.2207 203.5518,94.7324 218.5518,94.7324 L228.5518,94.7324" fill="none" style="stroke:#FF5F46;stroke-width:3;"/><rect fill="#0078D4" height="36.4883" rx="12.5" ry="12.5" style="stroke:#0078D4;stroke-width:3;" width="172.0449" x="228.5518" y="132.9766"/><text fill="#FFFFFF" font-family="sans-serif" font-size="14" lengthAdjust="spacing" textLength="152.0449" x="238.5518" y="156.5117">Monitor Retry Patterns</text><text fill="#000000" font-family="sans-serif" font-size="14" lengthAdjust="spacing" textLength="272.5078" x="453.5967" y="147.2676">Gradual increase = infrastructure issues</text><path d="M400.5967,151.2207 L410.5967,151.2207 C425.5967,151.2207 425.5967,141.9766 440.5967,141.9766 L450.5967,141.9766" fill="none" style="stroke:#0078D4;stroke-width:3;"/><text fill="#000000" font-family="sans-serif" font-size="14" lengthAdjust="spacing" textLength="213.8691" x="453.5967" y="165.7559">Track retry frequency over time</text><path d="M400.5967,151.2207 L410.5967,151.2207 C425.5967,151.2207 425.5967,160.4648 440.5967,160.4648 L450.5967,160.4648" fill="none" style="stroke:#0078D4;stroke-width:3;"/><path d="M178.5518,151.2207 L188.5518,151.2207 C203.5518,151.2207 203.5518,151.2207 218.5518,151.2207 L228.5518,151.2207" fill="none" style="stroke:#FF5F46;stroke-width:3;"/><rect fill="#0078D4" height="36.4883" rx="12.5" ry="12.5" style="stroke:#0078D4;stroke-width:3;" width="182.5586" x="228.5518" y="189.4648"/><text fill="#FFFFFF" font-family="sans-serif" font-size="14" lengthAdjust="spacing" textLength="162.5586" x="238.5518" y="213">Design for Idempotency</text><text fill="#000000" font-family="sans-serif" font-size="14" lengthAdjust="spacing" textLength="242.8125" x="464.1104" y="203.7559">Same result regardless of run count</text><path d="M411.1104,207.709 L421.1104,207.709 C436.1104,207.709 436.1104,198.4648 451.1104,198.4648 L461.1104,198.4648" fill="none" style="stroke:#0078D4;stroke-width:3;"/><text fill="#000000" font-family="sans-serif" font-size="14" lengthAdjust="spacing" textLength="225.9346" x="464.1104" y="222.2441">Makes restarts safe &amp; predictable</text><path d="M411.1104,207.709 L421.1104,207.709 C436.1104,207.709 436.1104,216.9531 451.1104,216.9531 L461.1104,216.9531" fill="none" style="stroke:#0078D4;stroke-width:3;"/><path d="M178.5518,151.2207 L188.5518,151.2207 C203.5518,151.2207 203.5518,207.709 218.5518,207.709 L228.5518,207.709" fill="none" style="stroke:#FF5F46;stroke-width:3;"/><rect fill="#0078D4" height="36.4883" rx="12.5" ry="12.5" style="stroke:#0078D4;stroke-width:3;" width="187.7881" x="228.5518" y="245.9531"/><text fill="#FFFFFF" font-family="sans-serif" font-size="14" lengthAdjust="spacing" textLength="167.7881" x="238.5518" y="269.4883">Document Configuration</text><text fill="#000000" font-family="sans-serif" font-size="14" lengthAdjust="spacing" textLength="153.2275" x="469.3398" y="251">Why these retry limits?</text><path d="M416.3398,264.1973 L426.3398,264.1973 C441.3398,264.1973 441.3398,245.709 456.3398,245.709 L466.3398,245.709" fill="none" style="stroke:#0078D4;stroke-width:3;"/><text fill="#000000" font-family="sans-serif" font-size="14" lengthAdjust="spacing" textLength="118.3779" x="469.3398" y="269.4883">Why this interval?</text><path d="M416.3398,264.1973 L426.3398,264.1973 C441.3398,264.1973 441.3398,264.1973 456.3398,264.1973 L466.3398,264.1973" fill="none" style="stroke:#0078D4;stroke-width:3;"/><text fill="#000000" font-family="sans-serif" font-size="14" lengthAdjust="spacing" textLength="168.1367" x="469.3398" y="287.9766">Helps future maintainers</text><path d="M416.3398,264.1973 L426.3398,264.1973 C441.3398,264.1973 441.3398,282.6855 456.3398,282.6855 L466.3398,282.6855" fill="none" style="stroke:#0078D4;stroke-width:3;"/><path d="M178.5518,151.2207 L188.5518,151.2207 C203.5518,151.2207 203.5518,264.1973 218.5518,264.1973 L228.5518,264.1973" fill="none" style="stroke:#FF5F46;stroke-width:3;"/><?plantuml-src VLDXQzim4FtkNt4m66rWcPkqtLQwhMjBki4wIbleby5GhBCZ8alftIchAVllEpjEksLa0YDyz_JUqvDqmc98QXTiRHRPCKlZyKDsP74Xivry5nupq75gYdb5CGLx5dqaU36P74ps3xlULnVmt-ea1kchPJUUiBSpLym3CiDuc6U_rbfxMxNo_CtRy_rDhOtgtwmR3YRTUDOQRTKgo-cxFD_KsgZ-LollXcfDuuDlCOzR4SUl-xW7S8eiS4Mc45SWVmzN56tIdnZWBjBSHsCv6mpWqaWnWsiKQk16o0XMZTO7F-0Roaz5WhWQOv8Zk4_g4aYX3dc5kKQEYGg4qZYV2Fa8V0mL4hWWI4lZU-0jcS0EWzBmB98yzs5ddFEh0xqmkwsV6nHbDHo3cNhKT6edFSUbUO3nMb_d8jOr1ejsrVwqZCv22hvTWdRJw09DM-sDmdj5MYJVk521OqxOfH634urqbSUL4JKPUeeBCZOPhyuBKeCjXGib6HRIO5lEZkPvmtrO3PI4zmb3qK1SQZHjeAtOERAh0fIgzyLYlOZIObRBRqoDkfgJ5vqgGxOx-bW2fG25NZ1PXpBlmkXU7GER4k4bB0YjAwIDi5EAHTAe1CvYA5sLz9Zr8gm8xcODo0mPUxDTVFpnpwRZf-Fgwv_HBnZAr6sxDjhL3ucp4psGzTlFzeQZV7Gu7Fq6?></g></svg>