<?plantuml 1.2026.2?><svg xmlns="http://www.w3.org/2000/svg" xmlns:xlink="http://www.w3.org/1999/xlink" contentStyleType="text/css" data-diagram-type="MINDMAP" height="282px" preserveAspectRatio="none" style="width:561px;height:282px;background:#FFFFFF;" version="1.1" viewBox="0 0 561 282" width="561px" zoomAndPan="magnify"><defs/><g><rect fill="#FF5F46" height="52.9766" rx="12.5" ry="12.5" style="stroke:#FF5F46;stroke-width:3;" width="95.4893" x="10" y="113.6973"/><text fill="#FFFFFF" font-family="sans-serif" font-size="14" lengthAdjust="spacing" textLength="56.2939" x="20" y="137.2324">Timeout</text><text fill="#FFFFFF" font-family="sans-serif" font-size="14" lengthAdjust="spacing" textLength="75.4893" x="20" y="153.7207">Thresholds</text><rect fill="#0078D4" height="36.4883" rx="12.5" ry="12.5" style="stroke:#0078D4;stroke-width:3;" width="74.5029" x="155.4893" y="20"/><text fill="#FFFFFF" font-family="sans-serif" font-size="14" lengthAdjust="spacing" textLength="54.5029" x="165.4893" y="43.5352">Purpose</text><text fill="#000000" font-family="sans-serif" font-size="14" lengthAdjust="spacing" textLength="148.0322" x="282.9922" y="25.0469">Terminate hung tasks</text><path d="M229.9922,38.2441 L239.9922,38.2441 C254.9922,38.2441 254.9922,19.7559 269.9922,19.7559 L279.9922,19.7559" fill="none" style="stroke:#0078D4;stroke-width:3;"/><text fill="#000000" font-family="sans-serif" font-size="14" lengthAdjust="spacing" textLength="156.4404" x="282.9922" y="43.5352">Prevent resource waste</text><path d="M229.9922,38.2441 L239.9922,38.2441 C254.9922,38.2441 254.9922,38.2441 269.9922,38.2441 L279.9922,38.2441" fill="none" style="stroke:#0078D4;stroke-width:3;"/><text fill="#000000" font-family="sans-serif" font-size="14" lengthAdjust="spacing" textLength="179.6211" x="282.9922" y="62.0234">Allow clean retry or failure</text><path d="M229.9922,38.2441 L239.9922,38.2441 C254.9922,38.2441 254.9922,56.7324 269.9922,56.7324 L279.9922,56.7324" fill="none" style="stroke:#0078D4;stroke-width:3;"/><path d="M105.4893,140.1855 L115.4893,140.1855 C130.4893,140.1855 130.4893,38.2441 145.4893,38.2441 L155.4893,38.2441" fill="none" style="stroke:#FF5F46;stroke-width:3;"/><rect fill="#0078D4" height="36.4883" rx="12.5" ry="12.5" style="stroke:#0078D4;stroke-width:3;" width="113.6182" x="155.4893" y="84.709"/><text fill="#FFFFFF" font-family="sans-serif" font-size="14" lengthAdjust="spacing" textLength="93.6182" x="165.4893" y="108.2441">Configuration</text><text fill="#000000" font-family="sans-serif" font-size="14" lengthAdjust="spacing" textLength="170.2354" x="322.1074" y="80.5117">Task &gt; Metric thresholds</text><path d="M269.1074,102.9531 L279.1074,102.9531 C294.1074,102.9531 294.1074,75.2207 309.1074,75.2207 L319.1074,75.2207" fill="none" style="stroke:#0078D4;stroke-width:3;"/><text fill="#000000" font-family="sans-serif" font-size="14" lengthAdjust="spacing" textLength="139.0908" x="322.1074" y="99">Metric: Run duration</text><path d="M269.1074,102.9531 L279.1074,102.9531 C294.1074,102.9531 294.1074,93.709 309.1074,93.709 L319.1074,93.709" fill="none" style="stroke:#0078D4;stroke-width:3;"/><text fill="#000000" font-family="sans-serif" font-size="14" lengthAdjust="spacing" textLength="210.8545" x="322.1074" y="117.4883">Warning: notification threshold</text><path d="M269.1074,102.9531 L279.1074,102.9531 C294.1074,102.9531 294.1074,112.1973 309.1074,112.1973 L319.1074,112.1973" fill="none" style="stroke:#0078D4;stroke-width:3;"/><text fill="#000000" font-family="sans-serif" font-size="14" lengthAdjust="spacing" textLength="213.1924" x="322.1074" y="135.9766">Timeout: termination threshold</text><path d="M269.1074,102.9531 L279.1074,102.9531 C294.1074,102.9531 294.1074,130.6855 309.1074,130.6855 L319.1074,130.6855" fill="none" style="stroke:#0078D4;stroke-width:3;"/><path d="M105.4893,140.1855 L115.4893,140.1855 C130.4893,140.1855 130.4893,102.9531 145.4893,102.9531 L155.4893,102.9531" fill="none" style="stroke:#FF5F46;stroke-width:3;"/><rect fill="#0078D4" height="36.4883" rx="12.5" ry="12.5" style="stroke:#0078D4;stroke-width:3;" width="155.126" x="155.4893" y="149.9297"/><text fill="#FFFFFF" font-family="sans-serif" font-size="14" lengthAdjust="spacing" textLength="135.126" x="165.4893" y="173.4648">Warning vs Timeout</text><text fill="#000000" font-family="sans-serif" font-size="14" lengthAdjust="spacing" textLength="185.5068" x="363.6152" y="164.2207">Warning: alert but continue</text><path d="M310.6152,168.1738 L320.6152,168.1738 C335.6152,168.1738 335.6152,158.9297 350.6152,158.9297 L360.6152,158.9297" fill="none" style="stroke:#0078D4;stroke-width:3;"/><text fill="#000000" font-family="sans-serif" font-size="14" lengthAdjust="spacing" textLength="163.208" x="363.6152" y="182.709">Timeout: terminate task</text><path d="M310.6152,168.1738 L320.6152,168.1738 C335.6152,168.1738 335.6152,177.418 350.6152,177.418 L360.6152,177.418" fill="none" style="stroke:#0078D4;stroke-width:3;"/><path d="M105.4893,140.1855 L115.4893,140.1855 C130.4893,140.1855 130.4893,168.1738 145.4893,168.1738 L155.4893,168.1738" fill="none" style="stroke:#FF5F46;stroke-width:3;"/><rect fill="#0078D4" height="36.4883" rx="12.5" ry="12.5" style="stroke:#0078D4;stroke-width:3;" width="114.2949" x="155.4893" y="215.1504"/><text fill="#FFFFFF" font-family="sans-serif" font-size="14" lengthAdjust="spacing" textLength="94.2949" x="165.4893" y="238.6855">After Timeout</text><text fill="#000000" font-family="sans-serif" font-size="14" lengthAdjust="spacing" textLength="132.6992" x="322.7842" y="210.9531">Status: "Timed Out"</text><path d="M269.7842,233.3945 L279.7842,233.3945 C294.7842,233.3945 294.7842,205.6621 309.7842,205.6621 L319.7842,205.6621" fill="none" style="stroke:#0078D4;stroke-width:3;"/><text fill="#000000" font-family="sans-serif" font-size="14" lengthAdjust="spacing" textLength="166.8994" x="322.7842" y="229.4414">Counts as failed attempt</text><path d="M269.7842,233.3945 L279.7842,233.3945 C294.7842,233.3945 294.7842,224.1504 309.7842,224.1504 L319.7842,224.1504" fill="none" style="stroke:#0078D4;stroke-width:3;"/><text fill="#000000" font-family="sans-serif" font-size="14" lengthAdjust="spacing" textLength="222.7969" x="322.7842" y="247.9297">Triggers retry if attempts remain</text><path d="M269.7842,233.3945 L279.7842,233.3945 C294.7842,233.3945 294.7842,242.6387 309.7842,242.6387 L319.7842,242.6387" fill="none" style="stroke:#0078D4;stroke-width:3;"/><text fill="#000000" font-family="sans-serif" font-size="14" lengthAdjust="spacing" textLength="173.25" x="322.7842" y="266.418">Dependent tasks affected</text><path d="M269.7842,233.3945 L279.7842,233.3945 C294.7842,233.3945 294.7842,261.127 309.7842,261.127 L319.7842,261.127" fill="none" style="stroke:#0078D4;stroke-width:3;"/><path d="M105.4893,140.1855 L115.4893,140.1855 C130.4893,140.1855 130.4893,233.3945 145.4893,233.3945 L155.4893,233.3945" fill="none" style="stroke:#FF5F46;stroke-width:3;"/><?plantuml-src VLF1Jjmm4BtdAqRqGlUm3Gi56Y44BCgfgAYDn0K9UPDnOgqpZkmn527-7IVh09jgEoVhlJVlZSV9XMDXkLLKjQ9BpXm_QpnFiWexRlRJh_2IGAWhKQvhQpnLIwEDXIzv_Zq_EXwuduhmNpGtn16LGxrhYqQLQqBdu72U9gzZri7Eh3GzERq-ccPDq6tNoGJvK1zPYvrPKgv-fEaqQuB-DoiTAcIjp5_TQrvsAiw-nNNFe50j6i_tL3GMNMDqvPBP36wzxOp3S9mzG84sl9DWXCPJ3IpSscsOMukFI0oXrNXR8Zm9nx7hKclp1AL6GO5d-mnX1YcKzhPNmDAGLBMtWfMX61ISuHnkWbgLm9yd2km6pk2t9wYs-kw49KLr1cHOILKEr4T_DD_SD0EErvbgHXjuTADuOYyqMeQLPoZ3LXLvt66Dmv9wpqiPi6sxFopOkmpsUhI2NvxtDiGoV0_iGBXXJO4IpDXsiQsmggxHkhXC9KUwHrgXuYwkiKEg-aSPtWc4b5WoLib5WCVVBJcOBzB5yNpn1W00?></g></svg>